  0
SECTION
  2
HEADER
  9
$ANGBASE
  50
0.0
  9
$ANGDIR
  70
1
  9
$MEASUREMENT
  70
1
  0
ENDSEC
  0
SECTION
  2
TABLES
  0
TABLE
  2
LTYPE
  70
4
  0
LTYPE
  5
40F
  2
CONTINUOUS
  70
0
  3
Solid line
  72
65
  73
0
  40
0.0
  0
LTYPE
  5
410
  2
DASHDOT
 70
0
  3
Dash Dot ____ _ ____ _
 72
65
 73
4
 40
2.0
 49
1.25
 49
-0.25
 49
0.25
 49
-0.25
  0
LTYPE
  5
411
  2
DASHED
 70
0
  3
Dashed __ __ __ __ __
 72
65
 73
2
 40
0.75
 49
0.5
 49
-0.25
  0
LTYPE
  5
43B
  2
DOTTED
 70
0
  3
Dotted .  .  .  .
 72
65
 73
2
 40
0.2
 49
0.0
 49
-0.2
  0
ENDTAB
  0
TABLE
  2
STYLE
  70
4
  0
STYLE
  2
KICAD
  70
0
  40
0
  41
1
  42
1
  50
0
  71
0
  3
isocp.shx
  0
STYLE
  2
KICADB
  70
0
  40
0
  41
1
  42
1
  50
0
  71
0
  3
isocp.shx
  0
STYLE
  2
KICADI
  70
0
  40
0
  41
1
  42
1
  50
15
  71
0
  3
isocp.shx
  0
STYLE
  2
KICADBI
  70
0
  40
0
  41
1
  42
1
  50
15
  71
0
  3
isocp.shx
  0
ENDTAB
  0
TABLE
  2
LAYER
  70
1
  0
LAYER
  2
BLACK
  70
0
  62
7
  6
CONTINUOUS
  0
ENDTAB
  0
ENDSEC
  0
SECTION
  2
ENTITIES
0
LINE
8
BLACK
6
CONTINUOUS
10
52.7320739999999972
20
-68.4395519999999919
11
52.9107559999999992
21
-68.4937549999999931
0
LINE
8
BLACK
6
CONTINUOUS
10
52.9107559999999992
20
-68.4937549999999931
11
53.0754309999999947
21
-68.5817749999999933
0
LINE
8
BLACK
6
CONTINUOUS
10
53.0754309999999947
20
-68.5817749999999933
11
53.2197689999999994
21
-68.7002310000000023
0
LINE
8
BLACK
6
CONTINUOUS
10
53.2197689999999994
20
-68.7002310000000023
11
53.3382249999999942
21
-68.8445689999999928
0
LINE
8
BLACK
6
CONTINUOUS
10
53.3382249999999942
20
-68.8445689999999928
11
53.4262449999999944
21
-69.0092439999999954
0
LINE
8
BLACK
6
CONTINUOUS
10
53.4262449999999944
20
-69.0092439999999954
11
53.4804479999999955
21
-69.1879259999999903
0
LINE
8
BLACK
6
CONTINUOUS
10
53.4804479999999955
20
-69.1879259999999903
11
53.498749999999994
21
-69.3737500000000011
0
LINE
8
BLACK
6
CONTINUOUS
10
53.498749999999994
20
-69.3737500000000011
11
53.498749999999994
21
-71.9137499999999932
0
LINE
8
BLACK
6
CONTINUOUS
10
53.498749999999994
20
-71.9137499999999932
11
53.4804479999999955
21
-72.0995739999999898
0
LINE
8
BLACK
6
CONTINUOUS
10
53.4804479999999955
20
-72.0995739999999898
11
53.4262449999999944
21
-72.2782559999999989
0
LINE
8
BLACK
6
CONTINUOUS
10
53.4262449999999944
20
-72.2782559999999989
11
53.3382249999999942
21
-72.4429310000000015
0
LINE
8
BLACK
6
CONTINUOUS
10
53.3382249999999942
20
-72.4429310000000015
11
53.2197689999999994
21
-72.587268999999992
0
LINE
8
BLACK
6
CONTINUOUS
10
53.2197689999999994
20
-72.587268999999992
11
53.0754309999999947
21
-72.705725000000001
0
LINE
8
BLACK
6
CONTINUOUS
10
53.0754309999999947
20
-72.705725000000001
11
52.9107559999999992
21
-72.7937450000000013
0
LINE
8
BLACK
6
CONTINUOUS
10
52.9107559999999992
20
-72.7937450000000013
11
52.7320739999999972
21
-72.8479480000000024
0
LINE
8
BLACK
6
CONTINUOUS
10
52.7320739999999972
20
-72.8479480000000024
11
52.5462500000000006
21
-72.8662499999999937
0
LINE
8
BLACK
6
CONTINUOUS
10
52.5462500000000006
20
-72.8662499999999937
11
52.3604259999999968
21
-72.8479480000000024
0
LINE
8
BLACK
6
CONTINUOUS
10
52.3604259999999968
20
-72.8479480000000024
11
52.1817439999999948
21
-72.7937450000000013
0
LINE
8
BLACK
6
CONTINUOUS
10
52.1817439999999948
20
-72.7937450000000013
11
52.0170689999999993
21
-72.705725000000001
0
LINE
8
BLACK
6
CONTINUOUS
10
52.0170689999999993
20
-72.705725000000001
11
51.8727309999999946
21
-72.587268999999992
0
LINE
8
BLACK
6
CONTINUOUS
10
51.8727309999999946
20
-72.587268999999992
11
51.7542749999999998
21
-72.4429310000000015
0
LINE
8
BLACK
6
CONTINUOUS
10
51.7542749999999998
20
-72.4429310000000015
11
51.6662549999999996
21
-72.2782559999999989
0
LINE
8
BLACK
6
CONTINUOUS
10
51.6662549999999996
20
-72.2782559999999989
11
51.6120519999999985
21
-72.0995739999999898
0
LINE
8
BLACK
6
CONTINUOUS
10
51.6120519999999985
20
-72.0995739999999898
11
51.59375
21
-71.9137499999999932
0
LINE
8
BLACK
6
CONTINUOUS
10
51.59375
20
-71.9137499999999932
11
51.59375
21
-69.3737500000000011
0
LINE
8
BLACK
6
CONTINUOUS
10
51.59375
20
-69.3737500000000011
11
51.6120519999999985
21
-69.1879259999999903
0
LINE
8
BLACK
6
CONTINUOUS
10
51.6120519999999985
20
-69.1879259999999903
11
51.6662549999999996
21
-69.0092439999999954
0
LINE
8
BLACK
6
CONTINUOUS
10
51.6662549999999996
20
-69.0092439999999954
11
51.7542749999999998
21
-68.8445689999999928
0
LINE
8
BLACK
6
CONTINUOUS
10
51.7542749999999998
20
-68.8445689999999928
11
51.8727309999999946
21
-68.7002310000000023
0
LINE
8
BLACK
6
CONTINUOUS
10
51.8727309999999946
20
-68.7002310000000023
11
52.0170689999999993
21
-68.5817749999999933
0
LINE
8
BLACK
6
CONTINUOUS
10
52.0170689999999993
20
-68.5817749999999933
11
52.1817439999999948
21
-68.4937549999999931
0
LINE
8
BLACK
6
CONTINUOUS
10
52.1817439999999948
20
-68.4937549999999931
11
52.3604259999999968
21
-68.4395519999999919
0
LINE
8
BLACK
6
CONTINUOUS
10
52.3604259999999968
20
-68.4395519999999919
11
52.5462500000000006
21
-68.4212500000000006
0
LINE
8
BLACK
6
CONTINUOUS
10
52.5462500000000006
20
-68.4212500000000006
11
52.7320739999999972
21
-68.4395519999999919
0
LINE
8
BLACK
6
CONTINUOUS
10
55.272075000000001
20
-68.4395519999999919
11
55.4507569999999959
21
-68.4937549999999931
0
LINE
8
BLACK
6
CONTINUOUS
10
55.4507569999999959
20
-68.4937549999999931
11
55.6154319999999984
21
-68.5817749999999933
0
LINE
8
BLACK
6
CONTINUOUS
10
55.6154319999999984
20
-68.5817749999999933
11
55.7597699999999961
21
-68.7002310000000023
0
LINE
8
BLACK
6
CONTINUOUS
10
55.7597699999999961
20
-68.7002310000000023
11
55.878225999999998
21
-68.8445689999999928
0
LINE
8
BLACK
6
CONTINUOUS
10
55.878225999999998
20
-68.8445689999999928
11
55.9662459999999982
21
-69.0092439999999954
0
LINE
8
BLACK
6
CONTINUOUS
10
55.9662459999999982
20
-69.0092439999999954
11
56.0204489999999993
21
-69.1879259999999903
0
LINE
8
BLACK
6
CONTINUOUS
10
56.0204489999999993
20
-69.1879259999999903
11
56.0387509999999978
21
-69.3737500000000011
0
LINE
8
BLACK
6
CONTINUOUS
10
56.0387509999999978
20
-69.3737500000000011
11
56.0387500000000003
21
-69.3737599999999901
0
LINE
8
BLACK
6
CONTINUOUS
10
56.0387500000000003
20
-69.3737599999999901
11
56.0387500000000003
21
-71.9137499999999932
0
LINE
8
BLACK
6
CONTINUOUS
10
56.0387500000000003
20
-71.9137499999999932
11
56.0204479999999947
21
-72.0995739999999898
0
LINE
8
BLACK
6
CONTINUOUS
10
56.0204479999999947
20
-72.0995739999999898
11
55.9662450000000007
21
-72.2782559999999989
0
LINE
8
BLACK
6
CONTINUOUS
10
55.9662450000000007
20
-72.2782559999999989
11
55.8782250000000005
21
-72.4429310000000015
0
LINE
8
BLACK
6
CONTINUOUS
10
55.8782250000000005
20
-72.4429310000000015
11
55.7597689999999986
21
-72.587268999999992
0
LINE
8
BLACK
6
CONTINUOUS
10
55.7597689999999986
20
-72.587268999999992
11
55.6154310000000009
21
-72.705725000000001
0
LINE
8
BLACK
6
CONTINUOUS
10
55.6154310000000009
20
-72.705725000000001
11
55.4507559999999984
21
-72.7937450000000013
0
LINE
8
BLACK
6
CONTINUOUS
10
55.4507559999999984
20
-72.7937450000000013
11
55.2720739999999964
21
-72.8479480000000024
0
LINE
8
BLACK
6
CONTINUOUS
10
55.2720739999999964
20
-72.8479480000000024
11
55.0862499999999997
21
-72.8662499999999937
0
LINE
8
BLACK
6
CONTINUOUS
10
55.0862499999999997
20
-72.8662499999999937
11
54.900425999999996
21
-72.8479480000000024
0
LINE
8
BLACK
6
CONTINUOUS
10
54.900425999999996
20
-72.8479480000000024
11
54.7217440000000011
21
-72.7937450000000013
0
LINE
8
BLACK
6
CONTINUOUS
10
54.7217440000000011
20
-72.7937450000000013
11
54.5570689999999985
21
-72.705725000000001
0
LINE
8
BLACK
6
CONTINUOUS
10
54.5570689999999985
20
-72.705725000000001
11
54.4127310000000008
21
-72.587268999999992
0
LINE
8
BLACK
6
CONTINUOUS
10
54.4127310000000008
20
-72.587268999999992
11
54.294274999999999
21
-72.4429310000000015
0
LINE
8
BLACK
6
CONTINUOUS
10
54.294274999999999
20
-72.4429310000000015
11
54.2062549999999987
21
-72.2782559999999989
0
LINE
8
BLACK
6
CONTINUOUS
10
54.2062549999999987
20
-72.2782559999999989
11
54.1520519999999976
21
-72.0995739999999898
0
LINE
8
BLACK
6
CONTINUOUS
10
54.1520519999999976
20
-72.0995739999999898
11
54.1337499999999991
21
-71.9137499999999932
0
LINE
8
BLACK
6
CONTINUOUS
10
54.1337499999999991
20
-71.9137499999999932
11
54.1337499999999991
21
-69.3737500000000011
0
LINE
8
BLACK
6
CONTINUOUS
10
54.1337499999999991
20
-69.3737500000000011
11
54.1337509999999966
21
-69.3737500000000011
0
LINE
8
BLACK
6
CONTINUOUS
10
54.1337509999999966
20
-69.3737500000000011
11
54.1520529999999951
21
-69.1879259999999903
0
LINE
8
BLACK
6
CONTINUOUS
10
54.1520529999999951
20
-69.1879259999999903
11
54.2062559999999962
21
-69.0092439999999954
0
LINE
8
BLACK
6
CONTINUOUS
10
54.2062559999999962
20
-69.0092439999999954
11
54.2942759999999964
21
-68.8445689999999928
0
LINE
8
BLACK
6
CONTINUOUS
10
54.2942759999999964
20
-68.8445689999999928
11
54.4127319999999983
21
-68.7002310000000023
0
LINE
8
BLACK
6
CONTINUOUS
10
54.4127319999999983
20
-68.7002310000000023
11
54.557069999999996
21
-68.5817749999999933
0
LINE
8
BLACK
6
CONTINUOUS
10
54.557069999999996
20
-68.5817749999999933
11
54.7217449999999985
21
-68.4937549999999931
0
LINE
8
BLACK
6
CONTINUOUS
10
54.7217449999999985
20
-68.4937549999999931
11
54.9004270000000005
21
-68.4395519999999919
0
LINE
8
BLACK
6
CONTINUOUS
10
54.9004270000000005
20
-68.4395519999999919
11
55.0862509999999972
21
-68.4212500000000006
0
LINE
8
BLACK
6
CONTINUOUS
10
55.0862509999999972
20
-68.4212500000000006
11
55.272075000000001
21
-68.4395519999999919
0
LINE
8
BLACK
6
CONTINUOUS
10
57.8120739999999955
20
-68.4395519999999919
11
57.9907559999999975
21
-68.4937549999999931
0
LINE
8
BLACK
6
CONTINUOUS
10
57.9907559999999975
20
-68.4937549999999931
11
58.1554310000000001
21
-68.5817749999999933
0
LINE
8
BLACK
6
CONTINUOUS
10
58.1554310000000001
20
-68.5817749999999933
11
58.2997689999999977
21
-68.7002310000000023
0
LINE
8
BLACK
6
CONTINUOUS
10
58.2997689999999977
20
-68.7002310000000023
11
58.4182249999999996
21
-68.8445689999999928
0
LINE
8
BLACK
6
CONTINUOUS
10
58.4182249999999996
20
-68.8445689999999928
11
58.5062449999999998
21
-69.0092439999999954
0
LINE
8
BLACK
6
CONTINUOUS
10
58.5062449999999998
20
-69.0092439999999954
11
58.5604479999999938
21
-69.1879259999999903
0
LINE
8
BLACK
6
CONTINUOUS
10
58.5604479999999938
20
-69.1879259999999903
11
58.5787499999999994
21
-69.3737500000000011
0
LINE
8
BLACK
6
CONTINUOUS
10
58.5787499999999994
20
-69.3737500000000011
11
58.5787499999999994
21
-71.9137499999999932
0
LINE
8
BLACK
6
CONTINUOUS
10
58.5787499999999994
20
-71.9137499999999932
11
58.5604479999999938
21
-72.0995739999999898
0
LINE
8
BLACK
6
CONTINUOUS
10
58.5604479999999938
20
-72.0995739999999898
11
58.5062449999999998
21
-72.2782559999999989
0
LINE
8
BLACK
6
CONTINUOUS
10
58.5062449999999998
20
-72.2782559999999989
11
58.4182249999999996
21
-72.4429310000000015
0
LINE
8
BLACK
6
CONTINUOUS
10
58.4182249999999996
20
-72.4429310000000015
11
58.2997689999999977
21
-72.587268999999992
0
LINE
8
BLACK
6
CONTINUOUS
10
58.2997689999999977
20
-72.587268999999992
11
58.1554310000000001
21
-72.705725000000001
0
LINE
8
BLACK
6
CONTINUOUS
10
58.1554310000000001
20
-72.705725000000001
11
57.9907559999999975
21
-72.7937450000000013
0
LINE
8
BLACK
6
CONTINUOUS
10
57.9907559999999975
20
-72.7937450000000013
11
57.8120739999999955
21
-72.8479480000000024
0
LINE
8
BLACK
6
CONTINUOUS
10
57.8120739999999955
20
-72.8479480000000024
11
57.6262499999999989
21
-72.8662499999999937
0
LINE
8
BLACK
6
CONTINUOUS
10
57.6262499999999989
20
-72.8662499999999937
11
57.4404259999999951
21
-72.8479480000000024
0
LINE
8
BLACK
6
CONTINUOUS
10
57.4404259999999951
20
-72.8479480000000024
11
57.2617440000000002
21
-72.7937450000000013
0
LINE
8
BLACK
6
CONTINUOUS
10
57.2617440000000002
20
-72.7937450000000013
11
57.0970689999999976
21
-72.705725000000001
0
LINE
8
BLACK
6
CONTINUOUS
10
57.0970689999999976
20
-72.705725000000001
11
56.952731
21
-72.587268999999992
0
LINE
8
BLACK
6
CONTINUOUS
10
56.952731
20
-72.587268999999992
11
56.8342749999999981
21
-72.4429310000000015
0
LINE
8
BLACK
6
CONTINUOUS
10
56.8342749999999981
20
-72.4429310000000015
11
56.7462549999999979
21
-72.2782559999999989
0
LINE
8
BLACK
6
CONTINUOUS
10
56.7462549999999979
20
-72.2782559999999989
11
56.6920519999999968
21
-72.0995739999999898
0
LINE
8
BLACK
6
CONTINUOUS
10
56.6920519999999968
20
-72.0995739999999898
11
56.6737499999999983
21
-71.9137499999999932
0
LINE
8
BLACK
6
CONTINUOUS
10
56.6737499999999983
20
-71.9137499999999932
11
56.6737499999999983
21
-69.3737500000000011
0
LINE
8
BLACK
6
CONTINUOUS
10
56.6737499999999983
20
-69.3737500000000011
11
56.6920519999999968
21
-69.1879259999999903
0
LINE
8
BLACK
6
CONTINUOUS
10
56.6920519999999968
20
-69.1879259999999903
11
56.7462549999999979
21
-69.0092439999999954
0
LINE
8
BLACK
6
CONTINUOUS
10
56.7462549999999979
20
-69.0092439999999954
11
56.8342749999999981
21
-68.8445689999999928
0
LINE
8
BLACK
6
CONTINUOUS
10
56.8342749999999981
20
-68.8445689999999928
11
56.952731
21
-68.7002310000000023
0
LINE
8
BLACK
6
CONTINUOUS
10
56.952731
20
-68.7002310000000023
11
57.0970689999999976
21
-68.5817749999999933
0
LINE
8
BLACK
6
CONTINUOUS
10
57.0970689999999976
20
-68.5817749999999933
11
57.2617440000000002
21
-68.4937549999999931
0
LINE
8
BLACK
6
CONTINUOUS
10
57.2617440000000002
20
-68.4937549999999931
11
57.4404259999999951
21
-68.4395519999999919
0
LINE
8
BLACK
6
CONTINUOUS
10
57.4404259999999951
20
-68.4395519999999919
11
57.6262499999999989
21
-68.4212500000000006
0
LINE
8
BLACK
6
CONTINUOUS
10
57.6262499999999989
20
-68.4212500000000006
11
57.8120739999999955
21
-68.4395519999999919
0
LINE
8
BLACK
6
CONTINUOUS
10
60.3520739999999947
20
-68.4395519999999919
11
60.5307559999999967
21
-68.4937549999999931
0
LINE
8
BLACK
6
CONTINUOUS
10
60.5307559999999967
20
-68.4937549999999931
11
60.6954309999999992
21
-68.5817749999999933
0
LINE
8
BLACK
6
CONTINUOUS
10
60.6954309999999992
20
-68.5817749999999933
11
60.8397689999999969
21
-68.7002310000000023
0
LINE
8
BLACK
6
CONTINUOUS
10
60.8397689999999969
20
-68.7002310000000023
11
60.9582249999999988
21
-68.8445689999999928
0
LINE
8
BLACK
6
CONTINUOUS
10
60.9582249999999988
20
-68.8445689999999928
11
61.046244999999999
21
-69.0092439999999954
0
LINE
8
BLACK
6
CONTINUOUS
10
61.046244999999999
20
-69.0092439999999954
11
61.1004480000000001
21
-69.1879259999999903
0
LINE
8
BLACK
6
CONTINUOUS
10
61.1004480000000001
20
-69.1879259999999903
11
61.1187499999999986
21
-69.3737500000000011
0
LINE
8
BLACK
6
CONTINUOUS
10
61.1187499999999986
20
-69.3737500000000011
11
61.1187499999999986
21
-71.9137499999999932
0
LINE
8
BLACK
6
CONTINUOUS
10
61.1187499999999986
20
-71.9137499999999932
11
61.1004480000000001
21
-72.0995739999999898
0
LINE
8
BLACK
6
CONTINUOUS
10
61.1004480000000001
20
-72.0995739999999898
11
61.046244999999999
21
-72.2782559999999989
0
LINE
8
BLACK
6
CONTINUOUS
10
61.046244999999999
20
-72.2782559999999989
11
60.9582249999999988
21
-72.4429310000000015
0
LINE
8
BLACK
6
CONTINUOUS
10
60.9582249999999988
20
-72.4429310000000015
11
60.8397689999999969
21
-72.587268999999992
0
LINE
8
BLACK
6
CONTINUOUS
10
60.8397689999999969
20
-72.587268999999992
11
60.6954309999999992
21
-72.705725000000001
0
LINE
8
BLACK
6
CONTINUOUS
10
60.6954309999999992
20
-72.705725000000001
11
60.5307559999999967
21
-72.7937450000000013
0
LINE
8
BLACK
6
CONTINUOUS
10
60.5307559999999967
20
-72.7937450000000013
11
60.3520739999999947
21
-72.8479480000000024
0
LINE
8
BLACK
6
CONTINUOUS
10
60.3520739999999947
20
-72.8479480000000024
11
60.166249999999998
21
-72.8662499999999937
0
LINE
8
BLACK
6
CONTINUOUS
10
60.166249999999998
20
-72.8662499999999937
11
59.9804259999999942
21
-72.8479480000000024
0
LINE
8
BLACK
6
CONTINUOUS
10
59.9804259999999942
20
-72.8479480000000024
11
59.8017439999999993
21
-72.7937450000000013
0
LINE
8
BLACK
6
CONTINUOUS
10
59.8017439999999993
20
-72.7937450000000013
11
59.6370689999999968
21
-72.705725000000001
0
LINE
8
BLACK
6
CONTINUOUS
10
59.6370689999999968
20
-72.705725000000001
11
59.4927309999999991
21
-72.587268999999992
0
LINE
8
BLACK
6
CONTINUOUS
10
59.4927309999999991
20
-72.587268999999992
11
59.3742749999999972
21
-72.4429310000000015
0
LINE
8
BLACK
6
CONTINUOUS
10
59.3742749999999972
20
-72.4429310000000015
11
59.286254999999997
21
-72.2782559999999989
0
LINE
8
BLACK
6
CONTINUOUS
10
59.286254999999997
20
-72.2782559999999989
11
59.2320519999999959
21
-72.0995739999999898
0
LINE
8
BLACK
6
CONTINUOUS
10
59.2320519999999959
20
-72.0995739999999898
11
59.2137499999999974
21
-71.9137499999999932
0
LINE
8
BLACK
6
CONTINUOUS
10
59.2137499999999974
20
-71.9137499999999932
11
59.2137499999999974
21
-69.3737500000000011
0
LINE
8
BLACK
6
CONTINUOUS
10
59.2137499999999974
20
-69.3737500000000011
11
59.2320519999999959
21
-69.1879259999999903
0
LINE
8
BLACK
6
CONTINUOUS
10
59.2320519999999959
20
-69.1879259999999903
11
59.286254999999997
21
-69.0092439999999954
0
LINE
8
BLACK
6
CONTINUOUS
10
59.286254999999997
20
-69.0092439999999954
11
59.3742749999999972
21
-68.8445689999999928
0
LINE
8
BLACK
6
CONTINUOUS
10
59.3742749999999972
20
-68.8445689999999928
11
59.4927309999999991
21
-68.7002310000000023
0
LINE
8
BLACK
6
CONTINUOUS
10
59.4927309999999991
20
-68.7002310000000023
11
59.6370689999999968
21
-68.5817749999999933
0
LINE
8
BLACK
6
CONTINUOUS
10
59.6370689999999968
20
-68.5817749999999933
11
59.8017439999999993
21
-68.4937549999999931
0
LINE
8
BLACK
6
CONTINUOUS
10
59.8017439999999993
20
-68.4937549999999931
11
59.9804259999999942
21
-68.4395519999999919
0
LINE
8
BLACK
6
CONTINUOUS
10
59.9804259999999942
20
-68.4395519999999919
11
60.166249999999998
21
-68.4212500000000006
0
LINE
8
BLACK
6
CONTINUOUS
10
60.166249999999998
20
-68.4212500000000006
11
60.3520739999999947
21
-68.4395519999999919
0
LINE
8
BLACK
6
CONTINUOUS
10
53.1812509999999961
20
-67.1512499999999903
11
52.2287509999999955
21
-67.1512499999999903
0
LINE
8
BLACK
6
CONTINUOUS
10
52.2287509999999955
20
-67.1512499999999903
11
52.2287509999999955
21
-65.8812499999999943
0
LINE
8
BLACK
6
CONTINUOUS
10
52.2287509999999955
20
-65.8812499999999943
11
53.1812509999999961
21
-65.8812499999999943
0
LINE
8
BLACK
6
CONTINUOUS
10
53.1812509999999961
20
-65.8812499999999943
11
53.1812509999999961
21
-67.1512499999999903
0
LINE
8
BLACK
6
CONTINUOUS
10
55.4037489999999977
20
-67.1512499999999903
11
54.4512489999999971
21
-67.1512499999999903
0
LINE
8
BLACK
6
CONTINUOUS
10
54.4512489999999971
20
-67.1512499999999903
11
54.4512489999999971
21
-65.8812499999999943
0
LINE
8
BLACK
6
CONTINUOUS
10
54.4512489999999971
20
-65.8812499999999943
11
55.4037489999999977
21
-65.8812499999999943
0
LINE
8
BLACK
6
CONTINUOUS
10
55.4037489999999977
20
-65.8812499999999943
11
55.4037489999999977
21
-67.1512499999999903
0
LINE
8
BLACK
6
CONTINUOUS
10
63.1824999999999974
20
-66.198750000000004
11
60.9599999999999937
21
-66.198750000000004
0
LINE
8
BLACK
6
CONTINUOUS
10
60.9599999999999937
20
-66.198750000000004
11
60.9599999999999937
21
-64.2937500000000028
0
LINE
8
BLACK
6
CONTINUOUS
10
60.9599999999999937
20
-64.2937500000000028
11
63.1824999999999974
21
-64.2937500000000028
0
LINE
8
BLACK
6
CONTINUOUS
10
63.1824999999999974
20
-64.2937500000000028
11
63.1824999999999974
21
-66.198750000000004
0
LINE
8
BLACK
6
CONTINUOUS
10
70.8024999999999949
20
-66.198750000000004
11
68.5799999999999983
21
-66.198750000000004
0
LINE
8
BLACK
6
CONTINUOUS
10
68.5799999999999983
20
-66.198750000000004
11
68.5799999999999983
21
-64.2937500000000028
0
LINE
8
BLACK
6
CONTINUOUS
10
68.5799999999999983
20
-64.2937500000000028
11
70.8024999999999949
21
-64.2937500000000028
0
LINE
8
BLACK
6
CONTINUOUS
10
70.8024999999999949
20
-64.2937500000000028
11
70.8024999999999949
21
-66.198750000000004
0
LINE
8
BLACK
6
CONTINUOUS
10
74.2950000000000017
20
-66.198750000000004
11
71.7549999999999955
21
-66.198750000000004
0
LINE
8
BLACK
6
CONTINUOUS
10
71.7549999999999955
20
-66.198750000000004
11
71.7549999999999955
21
-64.2937500000000028
0
LINE
8
BLACK
6
CONTINUOUS
10
71.7549999999999955
20
-64.2937500000000028
11
74.2950000000000017
21
-64.2937500000000028
0
LINE
8
BLACK
6
CONTINUOUS
10
74.2950000000000017
20
-64.2937500000000028
11
74.2950000000000017
21
-66.198750000000004
0
LINE
8
BLACK
6
CONTINUOUS
10
52.863749999999996
20
-64.9287499999999937
11
52.228749999999998
21
-64.9287499999999937
0
LINE
8
BLACK
6
CONTINUOUS
10
52.228749999999998
20
-64.9287499999999937
11
52.228749999999998
21
-63.6587499999999977
0
LINE
8
BLACK
6
CONTINUOUS
10
52.228749999999998
20
-63.6587499999999977
11
52.863749999999996
21
-63.6587499999999977
0
LINE
8
BLACK
6
CONTINUOUS
10
52.863749999999996
20
-63.6587499999999977
11
52.863749999999996
21
-64.9287499999999937
0
LINE
8
BLACK
6
CONTINUOUS
10
54.1337499999999991
20
-64.9287499999999937
11
53.498749999999994
21
-64.9287499999999937
0
LINE
8
BLACK
6
CONTINUOUS
10
53.498749999999994
20
-64.9287499999999937
11
53.498749999999994
21
-63.6587499999999977
0
LINE
8
BLACK
6
CONTINUOUS
10
53.498749999999994
20
-63.6587499999999977
11
54.1337499999999991
21
-63.6587499999999977
0
LINE
8
BLACK
6
CONTINUOUS
10
54.1337499999999991
20
-63.6587499999999977
11
54.1337499999999991
21
-64.9287499999999937
0
LINE
8
BLACK
6
CONTINUOUS
10
55.4037499999999952
20
-64.9287499999999937
11
54.7687499999999972
21
-64.9287499999999937
0
LINE
8
BLACK
6
CONTINUOUS
10
54.7687499999999972
20
-64.9287499999999937
11
54.7687499999999972
21
-63.6587499999999977
0
LINE
8
BLACK
6
CONTINUOUS
10
54.7687499999999972
20
-63.6587499999999977
11
55.4037499999999952
21
-63.6587499999999977
0
LINE
8
BLACK
6
CONTINUOUS
10
55.4037499999999952
20
-63.6587499999999977
11
55.4037499999999952
21
-64.9287499999999937
0
LINE
8
BLACK
6
CONTINUOUS
10
56.6737499999999983
20
-64.9287499999999937
11
56.0387500000000003
21
-64.9287499999999937
0
LINE
8
BLACK
6
CONTINUOUS
10
56.0387500000000003
20
-64.9287499999999937
11
56.0387500000000003
21
-63.6587499999999977
0
LINE
8
BLACK
6
CONTINUOUS
10
56.0387500000000003
20
-63.6587499999999977
11
56.6737499999999983
21
-63.6587499999999977
0
LINE
8
BLACK
6
CONTINUOUS
10
56.6737499999999983
20
-63.6587499999999977
11
56.6737499999999983
21
-64.9287499999999937
0
LINE
8
BLACK
6
CONTINUOUS
10
58.5787499999999994
20
-64.9287489999999963
11
57.3087499999999963
21
-64.9287489999999963
0
LINE
8
BLACK
6
CONTINUOUS
10
57.3087499999999963
20
-64.9287489999999963
11
57.3087499999999963
21
-63.9762489999999957
0
LINE
8
BLACK
6
CONTINUOUS
10
57.3087499999999963
20
-63.9762489999999957
11
58.5787499999999994
21
-63.9762489999999957
0
LINE
8
BLACK
6
CONTINUOUS
10
58.5787499999999994
20
-63.9762489999999957
11
58.5787499999999994
21
-64.9287489999999963
0
LINE
8
BLACK
6
CONTINUOUS
10
63.1824999999999974
20
-63.6587499999999977
11
60.9599999999999937
21
-63.6587499999999977
0
LINE
8
BLACK
6
CONTINUOUS
10
60.9599999999999937
20
-63.6587499999999977
11
60.9599999999999937
21
-61.7537499999999966
0
LINE
8
BLACK
6
CONTINUOUS
10
60.9599999999999937
20
-61.7537499999999966
11
63.1824999999999974
21
-61.7537499999999966
0
LINE
8
BLACK
6
CONTINUOUS
10
63.1824999999999974
20
-61.7537499999999966
11
63.1824999999999974
21
-63.6587499999999977
0
LINE
8
BLACK
6
CONTINUOUS
10
70.8024999999999949
20
-63.6587499999999977
11
68.5799999999999983
21
-63.6587499999999977
0
LINE
8
BLACK
6
CONTINUOUS
10
68.5799999999999983
20
-63.6587499999999977
11
68.5799999999999983
21
-61.7537499999999966
0
LINE
8
BLACK
6
CONTINUOUS
10
68.5799999999999983
20
-61.7537499999999966
11
70.8024999999999949
21
-61.7537499999999966
0
LINE
8
BLACK
6
CONTINUOUS
10
70.8024999999999949
20
-61.7537499999999966
11
70.8024999999999949
21
-63.6587499999999977
0
LINE
8
BLACK
6
CONTINUOUS
10
74.2950000000000017
20
-63.0237499999999997
11
71.7549999999999955
21
-63.0237499999999997
0
LINE
8
BLACK
6
CONTINUOUS
10
71.7549999999999955
20
-63.0237499999999997
11
71.7549999999999955
21
-61.1187499999999986
0
LINE
8
BLACK
6
CONTINUOUS
10
71.7549999999999955
20
-61.1187499999999986
11
74.2950000000000017
21
-61.1187499999999986
0
LINE
8
BLACK
6
CONTINUOUS
10
74.2950000000000017
20
-61.1187499999999986
11
74.2950000000000017
21
-63.0237499999999997
0
LINE
8
BLACK
6
CONTINUOUS
10
58.5787499999999994
20
-62.7062509999999946
11
57.3087499999999963
21
-62.7062509999999946
0
LINE
8
BLACK
6
CONTINUOUS
10
57.3087499999999963
20
-62.7062509999999946
11
57.3087499999999963
21
-61.7537509999999941
0
LINE
8
BLACK
6
CONTINUOUS
10
57.3087499999999963
20
-61.7537509999999941
11
58.5787499999999994
21
-61.7537509999999941
0
LINE
8
BLACK
6
CONTINUOUS
10
58.5787499999999994
20
-61.7537509999999941
11
58.5787499999999994
21
-62.7062509999999946
0
LINE
8
BLACK
6
CONTINUOUS
10
63.1824999999999974
20
-61.1187499999999986
11
60.9599999999999937
21
-61.1187499999999986
0
LINE
8
BLACK
6
CONTINUOUS
10
60.9599999999999937
20
-61.1187499999999986
11
60.9599999999999937
21
-59.2137499999999974
0
LINE
8
BLACK
6
CONTINUOUS
10
60.9599999999999937
20
-59.2137499999999974
11
63.1824999999999974
21
-59.2137499999999974
0
LINE
8
BLACK
6
CONTINUOUS
10
63.1824999999999974
20
-59.2137499999999974
11
63.1824999999999974
21
-61.1187499999999986
0
LINE
8
BLACK
6
CONTINUOUS
10
70.8024999999999949
20
-61.1187499999999986
11
68.5799999999999983
21
-61.1187499999999986
0
LINE
8
BLACK
6
CONTINUOUS
10
68.5799999999999983
20
-61.1187499999999986
11
68.5799999999999983
21
-59.2137499999999974
0
LINE
8
BLACK
6
CONTINUOUS
10
68.5799999999999983
20
-59.2137499999999974
11
70.8024999999999949
21
-59.2137499999999974
0
LINE
8
BLACK
6
CONTINUOUS
10
70.8024999999999949
20
-59.2137499999999974
11
70.8024999999999949
21
-61.1187499999999986
0
LINE
8
BLACK
6
CONTINUOUS
10
58.5787499999999994
20
-61.118748999999994
11
57.3087499999999963
21
-61.118748999999994
0
LINE
8
BLACK
6
CONTINUOUS
10
57.3087499999999963
20
-61.118748999999994
11
57.3087499999999963
21
-60.1662490000000005
0
LINE
8
BLACK
6
CONTINUOUS
10
57.3087499999999963
20
-60.1662490000000005
11
58.5787499999999994
21
-60.1662490000000005
0
LINE
8
BLACK
6
CONTINUOUS
10
58.5787499999999994
20
-60.1662490000000005
11
58.5787499999999994
21
-61.118748999999994
0
LINE
8
BLACK
6
CONTINUOUS
10
73.6599999999999966
20
-59.848748999999998
11
72.3900000000000006
21
-59.848748999999998
0
LINE
8
BLACK
6
CONTINUOUS
10
72.3900000000000006
20
-59.848748999999998
11
72.3900000000000006
21
-58.8962489999999974
0
LINE
8
BLACK
6
CONTINUOUS
10
72.3900000000000006
20
-58.8962489999999974
11
73.6599999999999966
21
-58.8962489999999974
0
LINE
8
BLACK
6
CONTINUOUS
10
73.6599999999999966
20
-58.8962489999999974
11
73.6599999999999966
21
-59.848748999999998
0
LINE
8
BLACK
6
CONTINUOUS
10
52.863749999999996
20
-59.2137499999999974
11
52.228749999999998
21
-59.2137499999999974
0
LINE
8
BLACK
6
CONTINUOUS
10
52.228749999999998
20
-59.2137499999999974
11
52.228749999999998
21
-57.9437499999999943
0
LINE
8
BLACK
6
CONTINUOUS
10
52.228749999999998
20
-57.9437499999999943
11
52.863749999999996
21
-57.9437499999999943
0
LINE
8
BLACK
6
CONTINUOUS
10
52.863749999999996
20
-57.9437499999999943
11
52.863749999999996
21
-59.2137499999999974
0
LINE
8
BLACK
6
CONTINUOUS
10
54.1337499999999991
20
-59.2137499999999974
11
53.498749999999994
21
-59.2137499999999974
0
LINE
8
BLACK
6
CONTINUOUS
10
53.498749999999994
20
-59.2137499999999974
11
53.498749999999994
21
-57.9437499999999943
0
LINE
8
BLACK
6
CONTINUOUS
10
53.498749999999994
20
-57.9437499999999943
11
54.1337499999999991
21
-57.9437499999999943
0
LINE
8
BLACK
6
CONTINUOUS
10
54.1337499999999991
20
-57.9437499999999943
11
54.1337499999999991
21
-59.2137499999999974
0
LINE
8
BLACK
6
CONTINUOUS
10
55.4037499999999952
20
-59.2137499999999974
11
54.7687499999999972
21
-59.2137499999999974
0
LINE
8
BLACK
6
CONTINUOUS
10
54.7687499999999972
20
-59.2137499999999974
11
54.7687499999999972
21
-57.9437499999999943
0
LINE
8
BLACK
6
CONTINUOUS
10
54.7687499999999972
20
-57.9437499999999943
11
55.4037499999999952
21
-57.9437499999999943
0
LINE
8
BLACK
6
CONTINUOUS
10
55.4037499999999952
20
-57.9437499999999943
11
55.4037499999999952
21
-59.2137499999999974
0
LINE
8
BLACK
6
CONTINUOUS
10
56.6737499999999983
20
-59.2137499999999974
11
56.0387500000000003
21
-59.2137499999999974
0
LINE
8
BLACK
6
CONTINUOUS
10
56.0387500000000003
20
-59.2137499999999974
11
56.0387500000000003
21
-57.9437499999999943
0
LINE
8
BLACK
6
CONTINUOUS
10
56.0387500000000003
20
-57.9437499999999943
11
56.6737499999999983
21
-57.9437499999999943
0
LINE
8
BLACK
6
CONTINUOUS
10
56.6737499999999983
20
-57.9437499999999943
11
56.6737499999999983
21
-59.2137499999999974
0
LINE
8
BLACK
6
CONTINUOUS
10
58.5787499999999994
20
-58.8962509999999995
11
57.3087499999999963
21
-58.8962509999999995
0
LINE
8
BLACK
6
CONTINUOUS
10
57.3087499999999963
20
-58.8962509999999995
11
57.3087499999999963
21
-57.9437509999999989
0
LINE
8
BLACK
6
CONTINUOUS
10
57.3087499999999963
20
-57.9437509999999989
11
58.5787499999999994
21
-57.9437509999999989
0
LINE
8
BLACK
6
CONTINUOUS
10
58.5787499999999994
20
-57.9437509999999989
11
58.5787499999999994
21
-58.8962509999999995
0
LINE
8
BLACK
6
CONTINUOUS
10
63.1824999999999974
20
-58.5787499999999994
11
60.9599999999999937
21
-58.5787499999999994
0
LINE
8
BLACK
6
CONTINUOUS
10
60.9599999999999937
20
-58.5787499999999994
11
60.9599999999999937
21
-56.6737499999999983
0
LINE
8
BLACK
6
CONTINUOUS
10
60.9599999999999937
20
-56.6737499999999983
11
63.1824999999999974
21
-56.6737499999999983
0
LINE
8
BLACK
6
CONTINUOUS
10
63.1824999999999974
20
-56.6737499999999983
11
63.1824999999999974
21
-58.5787499999999994
0
LINE
8
BLACK
6
CONTINUOUS
10
70.8024999999999949
20
-58.5787499999999994
11
68.5799999999999983
21
-58.5787499999999994
0
LINE
8
BLACK
6
CONTINUOUS
10
68.5799999999999983
20
-58.5787499999999994
11
68.5799999999999983
21
-56.6737499999999983
0
LINE
8
BLACK
6
CONTINUOUS
10
68.5799999999999983
20
-56.6737499999999983
11
70.8024999999999949
21
-56.6737499999999983
0
LINE
8
BLACK
6
CONTINUOUS
10
70.8024999999999949
20
-56.6737499999999983
11
70.8024999999999949
21
-58.5787499999999994
0
LINE
8
BLACK
6
CONTINUOUS
10
73.6599999999999966
20
-57.6262509999999963
11
72.3900000000000006
21
-57.6262509999999963
0
LINE
8
BLACK
6
CONTINUOUS
10
72.3900000000000006
20
-57.6262509999999963
11
72.3900000000000006
21
-56.6737509999999958
0
LINE
8
BLACK
6
CONTINUOUS
10
72.3900000000000006
20
-56.6737509999999958
11
73.6599999999999966
21
-56.6737509999999958
0
LINE
8
BLACK
6
CONTINUOUS
10
73.6599999999999966
20
-56.6737509999999958
11
73.6599999999999966
21
-57.6262509999999963
0
LINE
8
BLACK
6
CONTINUOUS
10
53.1812509999999961
20
-56.9912500000000009
11
52.2287509999999955
21
-56.9912500000000009
0
LINE
8
BLACK
6
CONTINUOUS
10
52.2287509999999955
20
-56.9912500000000009
11
52.2287509999999955
21
-55.7212499999999977
0
LINE
8
BLACK
6
CONTINUOUS
10
52.2287509999999955
20
-55.7212499999999977
11
53.1812509999999961
21
-55.7212499999999977
0
LINE
8
BLACK
6
CONTINUOUS
10
53.1812509999999961
20
-55.7212499999999977
11
53.1812509999999961
21
-56.9912500000000009
0
LINE
8
BLACK
6
CONTINUOUS
10
55.4037489999999977
20
-56.9912500000000009
11
54.4512489999999971
21
-56.9912500000000009
0
LINE
8
BLACK
6
CONTINUOUS
10
54.4512489999999971
20
-56.9912500000000009
11
54.4512489999999971
21
-55.7212499999999977
0
LINE
8
BLACK
6
CONTINUOUS
10
54.4512489999999971
20
-55.7212499999999977
11
55.4037489999999977
21
-55.7212499999999977
0
LINE
8
BLACK
6
CONTINUOUS
10
55.4037489999999977
20
-55.7212499999999977
11
55.4037489999999977
21
-56.9912500000000009
0
LINE
8
BLACK
6
CONTINUOUS
10
65.2462500000000034
20
-55.7212499999999977
11
64.2937500000000028
21
-55.7212499999999977
0
LINE
8
BLACK
6
CONTINUOUS
10
64.2937500000000028
20
-55.7212499999999977
11
64.2937500000000028
21
-54.4512499999999946
0
LINE
8
BLACK
6
CONTINUOUS
10
64.2937500000000028
20
-54.4512499999999946
11
65.2462500000000034
21
-54.4512499999999946
0
LINE
8
BLACK
6
CONTINUOUS
10
65.2462500000000034
20
-54.4512499999999946
11
65.2462500000000034
21
-55.7212499999999977
0
LINE
8
BLACK
6
CONTINUOUS
10
67.46875
20
-55.7212499999999977
11
66.5162499999999994
21
-55.7212499999999977
0
LINE
8
BLACK
6
CONTINUOUS
10
66.5162499999999994
20
-55.7212499999999977
11
66.5162499999999994
21
-54.4512499999999946
0
LINE
8
BLACK
6
CONTINUOUS
10
66.5162499999999994
20
-54.4512499999999946
11
67.46875
21
-54.4512499999999946
0
LINE
8
BLACK
6
CONTINUOUS
10
67.46875
20
-54.4512499999999946
11
67.46875
21
-55.7212499999999977
0
LINE
8
BLACK
6
CONTINUOUS
10
65.9958159999999907
20
-74.7863380000000006
11
66.046802999999997
21
-74.8502739999999989
0
LINE
8
BLACK
6
CONTINUOUS
10
66.046802999999997
20
-74.8502739999999989
11
66.0649999999999977
21
-74.9299999999999926
0
LINE
8
BLACK
6
CONTINUOUS
10
66.0649999999999977
20
-74.9299999999999926
11
66.046802999999997
21
-75.0097260000000006
0
LINE
8
BLACK
6
CONTINUOUS
10
66.046802999999997
20
-75.0097260000000006
11
65.9958159999999907
21
-75.0736619999999988
0
LINE
8
BLACK
6
CONTINUOUS
10
65.9958159999999907
20
-75.0736619999999988
11
65.9221380000000039
21
-75.1091430000000031
0
LINE
8
BLACK
6
CONTINUOUS
10
65.9221380000000039
20
-75.1091430000000031
11
65.8403619999999989
21
-75.1091430000000031
0
LINE
8
BLACK
6
CONTINUOUS
10
65.8403619999999989
20
-75.1091430000000031
11
65.7666839999999979
21
-75.0736619999999988
0
LINE
8
BLACK
6
CONTINUOUS
10
65.7666839999999979
20
-75.0736619999999988
11
65.7156969999999916
21
-75.0097260000000006
0
LINE
8
BLACK
6
CONTINUOUS
10
65.7156969999999916
20
-75.0097260000000006
11
65.6974999999999909
21
-74.9299999999999926
0
LINE
8
BLACK
6
CONTINUOUS
10
65.6974999999999909
20
-74.9299999999999926
11
65.7156969999999916
21
-74.8502739999999989
0
LINE
8
BLACK
6
CONTINUOUS
10
65.7156969999999916
20
-74.8502739999999989
11
65.7666839999999979
21
-74.7863380000000006
0
LINE
8
BLACK
6
CONTINUOUS
10
65.7666839999999979
20
-74.7863380000000006
11
65.8403619999999989
21
-74.7508569999999963
0
LINE
8
BLACK
6
CONTINUOUS
10
65.8403619999999989
20
-74.7508569999999963
11
65.9221380000000039
21
-74.7508569999999963
0
LINE
8
BLACK
6
CONTINUOUS
10
65.9221380000000039
20
-74.7508569999999963
11
65.9958159999999907
21
-74.7863380000000006
0
LINE
8
BLACK
6
CONTINUOUS
10
65.7613329999999934
20
-74.9992340000000013
11
65.8120159999999998
21
-75.0499169999999935
0
LINE
8
BLACK
6
CONTINUOUS
10
65.8120159999999998
20
-75.0499169999999935
11
65.8812499999999943
21
-75.0684679999999958
0
LINE
8
BLACK
6
CONTINUOUS
10
65.8812499999999943
20
-75.0684679999999958
11
65.950484000000003
21
-75.0499169999999935
0
LINE
8
BLACK
6
CONTINUOUS
10
65.950484000000003
20
-75.0499169999999935
11
66.0011669999999953
21
-74.9992340000000013
0
LINE
8
BLACK
6
CONTINUOUS
10
66.0011669999999953
20
-74.9992340000000013
11
66.0197179999999975
21
-74.9299999999999926
0
LINE
8
BLACK
6
CONTINUOUS
10
66.0197179999999975
20
-74.9299999999999926
11
66.0011669999999953
21
-74.8607659999999981
0
LINE
8
BLACK
6
CONTINUOUS
10
66.0011669999999953
20
-74.8607659999999981
11
65.950484000000003
21
-74.8100829999999917
0
LINE
8
BLACK
6
CONTINUOUS
10
65.950484000000003
20
-74.8100829999999917
11
65.8812499999999943
21
-74.7915320000000037
0
LINE
8
BLACK
6
CONTINUOUS
10
65.8812499999999943
20
-74.7915320000000037
11
65.8120159999999998
21
-74.8100829999999917
0
LINE
8
BLACK
6
CONTINUOUS
10
65.8120159999999998
20
-74.8100829999999917
11
65.7613329999999934
21
-74.8607659999999981
0
LINE
8
BLACK
6
CONTINUOUS
10
65.7613329999999934
20
-74.8607659999999981
11
65.7427819999999912
21
-74.9299999999999926
0
LINE
8
BLACK
6
CONTINUOUS
10
65.7427819999999912
20
-74.9299999999999926
11
65.7613329999999934
21
-74.9992340000000013
0
LINE
8
BLACK
6
CONTINUOUS
10
72.6633159999999947
20
-74.7863380000000006
11
72.714303000000001
21
-74.8502739999999989
0
LINE
8
BLACK
6
CONTINUOUS
10
72.714303000000001
20
-74.8502739999999989
11
72.7325000000000017
21
-74.9299999999999926
0
LINE
8
BLACK
6
CONTINUOUS
10
72.7325000000000017
20
-74.9299999999999926
11
72.714303000000001
21
-75.0097260000000006
0
LINE
8
BLACK
6
CONTINUOUS
10
72.714303000000001
20
-75.0097260000000006
11
72.6633159999999947
21
-75.0736619999999988
0
LINE
8
BLACK
6
CONTINUOUS
10
72.6633159999999947
20
-75.0736619999999988
11
72.5896379999999937
21
-75.1091430000000031
0
LINE
8
BLACK
6
CONTINUOUS
10
72.5896379999999937
20
-75.1091430000000031
11
72.5078620000000029
21
-75.1091430000000031
0
LINE
8
BLACK
6
CONTINUOUS
10
72.5078620000000029
20
-75.1091430000000031
11
72.4341840000000019
21
-75.0736619999999988
0
LINE
8
BLACK
6
CONTINUOUS
10
72.4341840000000019
20
-75.0736619999999988
11
72.3831969999999956
21
-75.0097260000000006
0
LINE
8
BLACK
6
CONTINUOUS
10
72.3831969999999956
20
-75.0097260000000006
11
72.3649999999999949
21
-74.9299999999999926
0
LINE
8
BLACK
6
CONTINUOUS
10
72.3649999999999949
20
-74.9299999999999926
11
72.3831969999999956
21
-74.8502739999999989
0
LINE
8
BLACK
6
CONTINUOUS
10
72.3831969999999956
20
-74.8502739999999989
11
72.4341840000000019
21
-74.7863380000000006
0
LINE
8
BLACK
6
CONTINUOUS
10
72.4341840000000019
20
-74.7863380000000006
11
72.5078620000000029
21
-74.7508569999999963
0
LINE
8
BLACK
6
CONTINUOUS
10
72.5078620000000029
20
-74.7508569999999963
11
72.5896379999999937
21
-74.7508569999999963
0
LINE
8
BLACK
6
CONTINUOUS
10
72.5896379999999937
20
-74.7508569999999963
11
72.6633159999999947
21
-74.7863380000000006
0
LINE
8
BLACK
6
CONTINUOUS
10
72.4288329999999974
20
-74.9992340000000013
11
72.4795159999999896
21
-75.0499169999999935
0
LINE
8
BLACK
6
CONTINUOUS
10
72.4795159999999896
20
-75.0499169999999935
11
72.5487499999999983
21
-75.0684679999999958
0
LINE
8
BLACK
6
CONTINUOUS
10
72.5487499999999983
20
-75.0684679999999958
11
72.6179839999999928
21
-75.0499169999999935
0
LINE
8
BLACK
6
CONTINUOUS
10
72.6179839999999928
20
-75.0499169999999935
11
72.6686669999999992
21
-74.9992340000000013
0
LINE
8
BLACK
6
CONTINUOUS
10
72.6686669999999992
20
-74.9992340000000013
11
72.6872180000000014
21
-74.9299999999999926
0
LINE
8
BLACK
6
CONTINUOUS
10
72.6872180000000014
20
-74.9299999999999926
11
72.6686669999999992
21
-74.8607659999999981
0
LINE
8
BLACK
6
CONTINUOUS
10
72.6686669999999992
20
-74.8607659999999981
11
72.6179839999999928
21
-74.8100829999999917
0
LINE
8
BLACK
6
CONTINUOUS
10
72.6179839999999928
20
-74.8100829999999917
11
72.5487499999999983
21
-74.7915320000000037
0
LINE
8
BLACK
6
CONTINUOUS
10
72.5487499999999983
20
-74.7915320000000037
11
72.4795159999999896
21
-74.8100829999999917
0
LINE
8
BLACK
6
CONTINUOUS
10
72.4795159999999896
20
-74.8100829999999917
11
72.4288329999999974
21
-74.8607659999999981
0
LINE
8
BLACK
6
CONTINUOUS
10
72.4288329999999974
20
-74.8607659999999981
11
72.4102819999999952
21
-74.9299999999999926
0
LINE
8
BLACK
6
CONTINUOUS
10
72.4102819999999952
20
-74.9299999999999926
11
72.4288329999999974
21
-74.9992340000000013
0
LINE
8
BLACK
6
CONTINUOUS
10
76.5270670000000024
20
-53.6344029999999989
11
76.5405969999999911
21
-53.6479329999999948
0
LINE
8
BLACK
6
CONTINUOUS
10
76.5405969999999911
20
-53.6479329999999948
11
76.5424999999999898
21
-53.6574999999999989
0
LINE
8
BLACK
6
CONTINUOUS
10
76.5424999999999898
20
-53.6574999999999989
11
76.5424999999999898
21
-79.0574999999999903
0
LINE
8
BLACK
6
CONTINUOUS
10
76.5424999999999898
20
-79.0574999999999903
11
76.5405969999999911
21
-79.0670669999999944
0
LINE
8
BLACK
6
CONTINUOUS
10
76.5405969999999911
20
-79.0670669999999944
11
76.5270670000000024
21
-79.0805969999999974
0
LINE
8
BLACK
6
CONTINUOUS
10
76.5270670000000024
20
-79.0805969999999974
11
76.5174999999999983
21
-79.082499999999996
0
LINE
8
BLACK
6
CONTINUOUS
10
76.5174999999999983
20
-79.082499999999996
11
51.1174999999999997
21
-79.082499999999996
0
LINE
8
BLACK
6
CONTINUOUS
10
51.1174999999999997
20
-79.082499999999996
11
51.1079329999999956
21
-79.0805969999999974
0
LINE
8
BLACK
6
CONTINUOUS
10
51.1079329999999956
20
-79.0805969999999974
11
51.0944029999999998
21
-79.0670669999999944
0
LINE
8
BLACK
6
CONTINUOUS
10
51.0944029999999998
20
-79.0670669999999944
11
51.0925000000000011
21
-79.0574999999999903
0
LINE
8
BLACK
6
CONTINUOUS
10
51.0925000000000011
20
-79.0574999999999903
11
51.0925000000000011
21
-53.6574999999999989
0
LINE
8
BLACK
6
CONTINUOUS
10
51.0925000000000011
20
-53.6574999999999989
11
51.0944029999999998
21
-53.6479329999999948
0
LINE
8
BLACK
6
CONTINUOUS
10
51.0944029999999998
20
-53.6479329999999948
11
51.1079329999999956
21
-53.6344029999999989
0
LINE
8
BLACK
6
CONTINUOUS
10
51.1079329999999956
20
-53.6344029999999989
11
51.1174999999999997
21
-53.6325000000000003
0
LINE
8
BLACK
6
CONTINUOUS
10
51.1174999999999997
20
-53.6325000000000003
11
76.5174999999999983
21
-53.6325000000000003
0
LINE
8
BLACK
6
CONTINUOUS
10
76.5174999999999983
20
-53.6325000000000003
11
76.5270670000000024
21
-53.6344029999999989
0
LINE
8
BLACK
6
CONTINUOUS
10
51.1424999999999983
20
-53.6824999999999974
11
51.1424999999999983
21
-79.0324999999999989
0
LINE
8
BLACK
6
CONTINUOUS
10
51.1424999999999983
20
-79.0324999999999989
11
76.4924999999999926
21
-79.0324999999999989
0
LINE
8
BLACK
6
CONTINUOUS
10
76.4924999999999926
20
-79.0324999999999989
11
76.4924999999999926
21
-53.6824999999999974
0
LINE
8
BLACK
6
CONTINUOUS
10
76.4924999999999926
20
-53.6824999999999974
11
51.1424999999999983
21
-53.6824999999999974
  0
ENDSEC
  0
EOF
