  0
SECTION
  2
HEADER
  9
$ANGBASE
  50
0.0
  9
$ANGDIR
  70
1
  9
$MEASUREMENT
  70
1
  0
ENDSEC
  0
SECTION
  2
TABLES
  0
TABLE
  2
LTYPE
  70
4
  0
LTYPE
  5
40F
  2
CONTINUOUS
  70
0
  3
Solid line
  72
65
  73
0
  40
0.0
  0
LTYPE
  5
410
  2
DASHDOT
 70
0
  3
Dash Dot ____ _ ____ _
 72
65
 73
4
 40
2.0
 49
1.25
 49
-0.25
 49
0.25
 49
-0.25
  0
LTYPE
  5
411
  2
DASHED
 70
0
  3
Dashed __ __ __ __ __
 72
65
 73
2
 40
0.75
 49
0.5
 49
-0.25
  0
LTYPE
  5
43B
  2
DOTTED
 70
0
  3
Dotted .  .  .  .
 72
65
 73
2
 40
0.2
 49
0.0
 49
-0.2
  0
ENDTAB
  0
TABLE
  2
STYLE
  70
4
  0
STYLE
  2
KICAD
  70
0
  40
0
  41
1
  42
1
  50
0
  71
0
  3
isocp.shx
  0
STYLE
  2
KICADB
  70
0
  40
0
  41
1
  42
1
  50
0
  71
0
  3
isocp.shx
  0
STYLE
  2
KICADI
  70
0
  40
0
  41
1
  42
1
  50
15
  71
0
  3
isocp.shx
  0
STYLE
  2
KICADBI
  70
0
  40
0
  41
1
  42
1
  50
15
  71
0
  3
isocp.shx
  0
ENDTAB
  0
TABLE
  2
LAYER
  70
1
  0
LAYER
  2
BLACK
  70
0
  62
7
  6
CONTINUOUS
  0
ENDTAB
  0
ENDSEC
  0
SECTION
  2
ENTITIES
0
LINE
8
BLACK
6
CONTINUOUS
10
73.6599999999999966
20
-59.2312569999999994
11
73.6735329999999919
21
-59.2348839999999939
0
LINE
8
BLACK
6
CONTINUOUS
10
73.6735329999999919
20
-59.2348839999999939
11
73.7062039999999996
21
-59.2599540000000005
0
LINE
8
BLACK
6
CONTINUOUS
10
73.7062039999999996
20
-59.2599540000000005
11
76.3120459999999952
21
-61.865795999999996
0
LINE
8
BLACK
6
CONTINUOUS
10
76.3120459999999952
20
-61.865795999999996
11
76.3528749999999974
21
-61.9365129999999979
0
LINE
8
BLACK
6
CONTINUOUS
10
76.3528749999999974
20
-61.9365129999999979
11
76.3582499999999982
21
-61.9773420000000002
0
LINE
8
BLACK
6
CONTINUOUS
10
76.3582499999999982
20
-61.9773420000000002
11
76.3582499999999982
21
-78.5822500000000019
0
LINE
8
BLACK
6
CONTINUOUS
10
76.3582499999999982
20
-78.5822500000000019
11
76.3371159999999946
21
-78.6611249999999984
0
LINE
8
BLACK
6
CONTINUOUS
10
76.3371159999999946
20
-78.6611249999999984
11
76.2793750000000017
21
-78.7188659999999913
0
LINE
8
BLACK
6
CONTINUOUS
10
76.2793750000000017
20
-78.7188659999999913
11
76.200499999999991
21
-78.7399999999999949
0
LINE
8
BLACK
6
CONTINUOUS
10
76.200499999999991
20
-78.7399999999999949
11
51.7515000000000001
21
-78.7399999999999949
0
LINE
8
BLACK
6
CONTINUOUS
10
51.7515000000000001
20
-78.7399999999999949
11
51.6726249999999965
21
-78.7188659999999913
0
LINE
8
BLACK
6
CONTINUOUS
10
51.6726249999999965
20
-78.7188659999999913
11
51.6148839999999964
21
-78.6611249999999984
0
LINE
8
BLACK
6
CONTINUOUS
10
51.6148839999999964
20
-78.6611249999999984
11
51.59375
21
-78.5822500000000019
0
LINE
8
BLACK
6
CONTINUOUS
10
51.59375
20
-78.5822500000000019
11
51.59375
21
-69.4390920000000023
0
LINE
8
BLACK
6
CONTINUOUS
10
51.59375
20
-69.4390920000000023
11
51.5984549999999942
21
-69.4215289999999925
0
LINE
8
BLACK
6
CONTINUOUS
10
51.5984549999999942
20
-69.4215289999999925
11
51.59375
21
-69.3737500000000011
0
LINE
8
BLACK
6
CONTINUOUS
10
51.59375
20
-69.3737500000000011
11
51.6120519999999985
21
-69.1879259999999903
0
LINE
8
BLACK
6
CONTINUOUS
10
51.6120519999999985
20
-69.1879259999999903
11
51.6662549999999996
21
-69.0092439999999954
0
LINE
8
BLACK
6
CONTINUOUS
10
51.6662549999999996
20
-69.0092439999999954
11
51.7542749999999998
21
-68.8445689999999928
0
LINE
8
BLACK
6
CONTINUOUS
10
51.7542749999999998
20
-68.8445689999999928
11
51.8727309999999946
21
-68.7002310000000023
0
LINE
8
BLACK
6
CONTINUOUS
10
51.8727309999999946
20
-68.7002310000000023
11
52.0170689999999993
21
-68.5817749999999933
0
LINE
8
BLACK
6
CONTINUOUS
10
52.0170689999999993
20
-68.5817749999999933
11
52.1817439999999948
21
-68.4937549999999931
0
LINE
8
BLACK
6
CONTINUOUS
10
52.1817439999999948
20
-68.4937549999999931
11
52.228749999999998
21
-68.479495
0
LINE
8
BLACK
6
CONTINUOUS
10
52.228749999999998
20
-68.479495
11
52.228749999999998
21
-62.930341999999996
0
LINE
8
BLACK
6
CONTINUOUS
10
52.228749999999998
20
-62.930341999999996
11
52.2498839999999944
21
-62.8514669999999995
0
LINE
8
BLACK
6
CONTINUOUS
10
52.2498839999999944
20
-62.8514669999999995
11
52.274954000000001
21
-62.818795999999999
0
LINE
8
BLACK
6
CONTINUOUS
10
52.274954000000001
20
-62.818795999999999
11
52.8175460000000001
21
-62.2762039999999999
0
LINE
8
BLACK
6
CONTINUOUS
10
52.8175460000000001
20
-62.2762039999999999
11
52.8882629999999949
21
-62.2353749999999977
0
LINE
8
BLACK
6
CONTINUOUS
10
52.8882629999999949
20
-62.2353749999999977
11
52.9290919999999971
21
-62.2299999999999969
0
LINE
8
BLACK
6
CONTINUOUS
10
52.9290919999999971
20
-62.2299999999999969
11
54.703407999999996
21
-62.2299999999999969
0
LINE
8
BLACK
6
CONTINUOUS
10
54.703407999999996
20
-62.2299999999999969
11
54.7822829999999996
21
-62.2511340000000004
0
LINE
8
BLACK
6
CONTINUOUS
10
54.7822829999999996
20
-62.2511340000000004
11
54.8149540000000002
21
-62.2762039999999999
0
LINE
8
BLACK
6
CONTINUOUS
10
54.8149540000000002
20
-62.2762039999999999
11
55.3575459999999993
21
-62.818795999999999
0
LINE
8
BLACK
6
CONTINUOUS
10
55.3575459999999993
20
-62.818795999999999
11
55.3983749999999944
21
-62.8895129999999938
0
LINE
8
BLACK
6
CONTINUOUS
10
55.3983749999999944
20
-62.8895129999999938
11
55.4037499999999952
21
-62.930341999999996
0
LINE
8
BLACK
6
CONTINUOUS
10
55.4037499999999952
20
-62.930341999999996
11
55.4037499999999952
21
-63.6587499999999977
0
LINE
8
BLACK
6
CONTINUOUS
10
55.4037499999999952
20
-63.6587499999999977
11
55.4037499999999952
21
-64.9287499999999937
0
LINE
8
BLACK
6
CONTINUOUS
10
55.4037499999999952
20
-64.9287499999999937
11
55.2459999999999951
21
-64.9287499999999937
0
LINE
8
BLACK
6
CONTINUOUS
10
55.2459999999999951
20
-64.9287499999999937
11
54.9264999999999972
21
-64.9287499999999937
0
LINE
8
BLACK
6
CONTINUOUS
10
54.9264999999999972
20
-64.9287499999999937
11
54.7687499999999972
21
-64.9287499999999937
0
LINE
8
BLACK
6
CONTINUOUS
10
54.7687499999999972
20
-64.9287499999999937
11
54.7687499999999972
21
-63.6587499999999977
0
LINE
8
BLACK
6
CONTINUOUS
10
54.7687499999999972
20
-63.6587499999999977
11
54.7687499999999972
21
-63.1824999999999974
0
LINE
8
BLACK
6
CONTINUOUS
10
54.7687499999999972
20
-63.1824999999999974
11
54.4512499999999946
21
-62.8649999999999949
0
LINE
8
BLACK
6
CONTINUOUS
10
54.4512499999999946
20
-62.8649999999999949
11
53.1812499999999986
21
-62.8649999999999949
0
LINE
8
BLACK
6
CONTINUOUS
10
53.1812499999999986
20
-62.8649999999999949
11
52.863749999999996
21
-63.1824999999999974
0
LINE
8
BLACK
6
CONTINUOUS
10
52.863749999999996
20
-63.1824999999999974
11
52.863749999999996
21
-65.8812499999999943
0
LINE
8
BLACK
6
CONTINUOUS
10
52.863749999999996
20
-65.8812499999999943
11
53.1812509999999961
21
-65.8812499999999943
0
LINE
8
BLACK
6
CONTINUOUS
10
53.1812509999999961
20
-65.8812499999999943
11
53.1812509999999961
21
-67.1512499999999903
0
LINE
8
BLACK
6
CONTINUOUS
10
53.1812509999999961
20
-67.1512499999999903
11
53.1812499999999986
21
-67.1512499999999903
0
LINE
8
BLACK
6
CONTINUOUS
10
53.1812499999999986
20
-67.1512499999999903
11
53.1812499999999986
21
-68.6686189999999925
0
LINE
8
BLACK
6
CONTINUOUS
10
53.1812499999999986
20
-68.6686189999999925
11
53.2197689999999994
21
-68.7002310000000023
0
LINE
8
BLACK
6
CONTINUOUS
10
53.2197689999999994
20
-68.7002310000000023
11
53.3382249999999942
21
-68.8445689999999928
0
LINE
8
BLACK
6
CONTINUOUS
10
53.3382249999999942
20
-68.8445689999999928
11
53.4262449999999944
21
-69.0092439999999954
0
LINE
8
BLACK
6
CONTINUOUS
10
53.4262449999999944
20
-69.0092439999999954
11
53.4804479999999955
21
-69.1879259999999903
0
LINE
8
BLACK
6
CONTINUOUS
10
53.4804479999999955
20
-69.1879259999999903
11
53.498749999999994
21
-69.3737500000000011
0
LINE
8
BLACK
6
CONTINUOUS
10
53.498749999999994
20
-69.3737500000000011
11
53.4873890000000003
21
-69.489098999999996
0
LINE
8
BLACK
6
CONTINUOUS
10
53.4873890000000003
20
-69.489098999999996
11
53.498749999999994
21
-69.5314999999999941
0
LINE
8
BLACK
6
CONTINUOUS
10
53.498749999999994
20
-69.5314999999999941
11
53.498749999999994
21
-75.5649999999999977
0
LINE
8
BLACK
6
CONTINUOUS
10
53.498749999999994
20
-75.5649999999999977
11
54.7687499999999972
21
-76.8349999999999937
0
LINE
8
BLACK
6
CONTINUOUS
10
54.7687499999999972
20
-76.8349999999999937
11
73.1837500000000034
21
-76.8349999999999937
0
LINE
8
BLACK
6
CONTINUOUS
10
73.1837500000000034
20
-76.8349999999999937
11
74.4537499999999994
21
-75.5649999999999977
0
LINE
8
BLACK
6
CONTINUOUS
10
74.4537499999999994
20
-75.5649999999999977
11
74.4537499999999994
21
-66.2272619999999961
0
LINE
8
BLACK
6
CONTINUOUS
10
74.4537499999999994
20
-66.2272619999999961
11
74.4542489999999901
21
-66.2170859999999948
0
LINE
8
BLACK
6
CONTINUOUS
10
74.4542489999999901
20
-66.2170859999999948
11
74.4542489999999901
21
-66.2144399999999962
0
LINE
8
BLACK
6
CONTINUOUS
10
74.4542489999999901
20
-66.2144399999999962
11
74.4542500000000018
21
-66.2144349999999946
0
LINE
8
BLACK
6
CONTINUOUS
10
74.4542500000000018
20
-66.2144349999999946
11
74.4542489999999901
21
-64.2780659999999955
0
LINE
8
BLACK
6
CONTINUOUS
10
74.4542489999999901
20
-64.2780659999999955
11
74.4542489999999901
21
-64.2754139999999978
0
LINE
8
BLACK
6
CONTINUOUS
10
74.4542489999999901
20
-64.2754139999999978
11
74.4537499999999994
21
-64.2652499999999947
0
LINE
8
BLACK
6
CONTINUOUS
10
74.4537499999999994
20
-64.2652499999999947
11
74.4537499999999994
21
-63.5
0
LINE
8
BLACK
6
CONTINUOUS
10
74.4537499999999994
20
-63.5
11
73.977499999999992
21
-63.0237499999999997
0
LINE
8
BLACK
6
CONTINUOUS
10
73.977499999999992
20
-63.0237499999999997
11
71.9127500000000026
21
-63.0237499999999997
0
LINE
8
BLACK
6
CONTINUOUS
10
71.9127500000000026
20
-63.0237499999999997
11
71.7549999999999955
21
-63.0237499999999997
0
LINE
8
BLACK
6
CONTINUOUS
10
71.7549999999999955
20
-63.0237499999999997
11
71.7549999999999955
21
-61.1187499999999986
0
LINE
8
BLACK
6
CONTINUOUS
10
71.7549999999999955
20
-61.1187499999999986
11
68.7377499999999912
21
-61.1187499999999986
0
LINE
8
BLACK
6
CONTINUOUS
10
68.7377499999999912
20
-61.1187499999999986
11
68.5799999999999983
21
-61.1187499999999986
0
LINE
8
BLACK
6
CONTINUOUS
10
68.5799999999999983
20
-61.1187499999999986
11
68.5799999999999983
21
-59.2137499999999974
0
LINE
8
BLACK
6
CONTINUOUS
10
68.5799999999999983
20
-59.2137499999999974
11
70.8024999999999949
21
-59.2137499999999974
0
LINE
8
BLACK
6
CONTINUOUS
10
70.8024999999999949
20
-59.2137499999999974
11
72.3900000000000006
21
-59.2137499999999974
0
LINE
8
BLACK
6
CONTINUOUS
10
72.3900000000000006
20
-59.2137499999999974
11
72.3900000000000006
21
-58.8962489999999974
0
LINE
8
BLACK
6
CONTINUOUS
10
72.3900000000000006
20
-58.8962489999999974
11
73.6599999999999966
21
-58.8962489999999974
0
LINE
8
BLACK
6
CONTINUOUS
10
73.6599999999999966
20
-58.8962489999999974
11
73.6599999999999966
21
-59.2312569999999994
0
LINE
8
BLACK
6
CONTINUOUS
10
58.5787499999999994
20
-60.1837569999999999
11
58.5922829999999948
21
-60.1873839999999944
0
LINE
8
BLACK
6
CONTINUOUS
10
58.5922829999999948
20
-60.1873839999999944
11
58.6249539999999953
21
-60.2124539999999939
0
LINE
8
BLACK
6
CONTINUOUS
10
58.6249539999999953
20
-60.2124539999999939
11
60.166249999999998
21
-61.7537499999999966
0
LINE
8
BLACK
6
CONTINUOUS
10
60.166249999999998
20
-61.7537499999999966
11
60.801249999999996
21
-61.7537499999999966
0
LINE
8
BLACK
6
CONTINUOUS
10
60.801249999999996
20
-61.7537499999999966
11
60.9599999999999937
21
-61.7537499999999966
0
LINE
8
BLACK
6
CONTINUOUS
10
60.9599999999999937
20
-61.7537499999999966
11
63.1824999999999974
21
-61.7537499999999966
0
LINE
8
BLACK
6
CONTINUOUS
10
63.1824999999999974
20
-61.7537499999999966
11
63.1824999999999974
21
-63.6587499999999977
0
LINE
8
BLACK
6
CONTINUOUS
10
63.1824999999999974
20
-63.6587499999999977
11
62.8659999999999997
21
-63.6587499999999977
0
LINE
8
BLACK
6
CONTINUOUS
10
62.8659999999999997
20
-63.6587499999999977
11
61.1840919999999997
21
-63.6587499999999977
0
LINE
8
BLACK
6
CONTINUOUS
10
61.1840919999999997
20
-63.6587499999999977
11
60.9599999999999937
21
-63.6587499999999977
0
LINE
8
BLACK
6
CONTINUOUS
10
60.9599999999999937
20
-63.6587499999999977
11
60.9599999999999937
21
-63.5
0
LINE
8
BLACK
6
CONTINUOUS
10
60.9599999999999937
20
-63.5
11
60.166249999999998
21
-62.7062499999999972
0
LINE
8
BLACK
6
CONTINUOUS
10
60.166249999999998
20
-62.7062499999999972
11
58.5787499999999994
21
-62.7062499999999972
0
LINE
8
BLACK
6
CONTINUOUS
10
58.5787499999999994
20
-62.7062499999999972
11
58.5787499999999994
21
-62.7062509999999946
0
LINE
8
BLACK
6
CONTINUOUS
10
58.5787499999999994
20
-62.7062509999999946
11
57.3087499999999963
21
-62.7062509999999946
0
LINE
8
BLACK
6
CONTINUOUS
10
57.3087499999999963
20
-62.7062509999999946
11
57.3087499999999963
21
-61.7537509999999941
0
LINE
8
BLACK
6
CONTINUOUS
10
57.3087499999999963
20
-61.7537509999999941
11
57.3087499999999963
21
-61.118748999999994
0
LINE
8
BLACK
6
CONTINUOUS
10
57.3087499999999963
20
-61.118748999999994
11
57.3087499999999963
21
-60.1662490000000005
0
LINE
8
BLACK
6
CONTINUOUS
10
57.3087499999999963
20
-60.1662490000000005
11
58.5787499999999994
21
-60.1662490000000005
0
LINE
8
BLACK
6
CONTINUOUS
10
58.5787499999999994
20
-60.1662490000000005
11
58.5787499999999994
21
-60.1837569999999999
0
LINE
8
BLACK
6
CONTINUOUS
10
59.0685329999999951
20
-54.6311339999999959
11
59.1012039999999956
21
-54.6562039999999953
0
LINE
8
BLACK
6
CONTINUOUS
10
59.1012039999999956
20
-54.6562039999999953
11
60.2787959999999998
21
-55.8337959999999995
0
LINE
8
BLACK
6
CONTINUOUS
10
60.2787959999999998
20
-55.8337959999999995
11
60.3196249999999949
21
-55.9045129999999943
0
LINE
8
BLACK
6
CONTINUOUS
10
60.3196249999999949
20
-55.9045129999999943
11
60.3249999999999957
21
-55.9453419999999966
0
LINE
8
BLACK
6
CONTINUOUS
10
60.3249999999999957
20
-55.9453419999999966
11
60.3249999999999957
21
-58.7374999999999972
0
LINE
8
BLACK
6
CONTINUOUS
10
60.3249999999999957
20
-58.7374999999999972
11
60.801249999999996
21
-59.2137499999999974
0
LINE
8
BLACK
6
CONTINUOUS
10
60.801249999999996
20
-59.2137499999999974
11
60.9599999999999937
21
-59.2137499999999974
0
LINE
8
BLACK
6
CONTINUOUS
10
60.9599999999999937
20
-59.2137499999999974
11
63.1824999999999974
21
-59.2137499999999974
0
LINE
8
BLACK
6
CONTINUOUS
10
63.1824999999999974
20
-59.2137499999999974
11
63.1824999999999974
21
-61.1187499999999986
0
LINE
8
BLACK
6
CONTINUOUS
10
63.1824999999999974
20
-61.1187499999999986
11
62.8659999999999997
21
-61.1187499999999986
0
LINE
8
BLACK
6
CONTINUOUS
10
62.8659999999999997
20
-61.1187499999999986
11
61.1840919999999997
21
-61.1187499999999986
0
LINE
8
BLACK
6
CONTINUOUS
10
61.1840919999999997
20
-61.1187499999999986
11
60.9599999999999937
21
-61.1187499999999986
0
LINE
8
BLACK
6
CONTINUOUS
10
60.9599999999999937
20
-61.1187499999999986
11
60.9599999999999937
21
-60.9599999999999937
0
LINE
8
BLACK
6
CONTINUOUS
10
60.9599999999999937
20
-60.9599999999999937
11
59.4187039999999982
21
-59.4187039999999982
0
LINE
8
BLACK
6
CONTINUOUS
10
59.4187039999999982
20
-59.4187039999999982
11
59.377874999999996
21
-59.3479869999999963
0
LINE
8
BLACK
6
CONTINUOUS
10
59.377874999999996
20
-59.3479869999999963
11
59.3724999999999952
21
-59.307157999999994
0
LINE
8
BLACK
6
CONTINUOUS
10
59.3724999999999952
20
-59.307157999999994
11
59.3724999999999952
21
-56.197499999999998
0
LINE
8
BLACK
6
CONTINUOUS
10
59.3724999999999952
20
-56.197499999999998
11
58.7374999999999972
21
-55.5625
0
LINE
8
BLACK
6
CONTINUOUS
10
58.7374999999999972
20
-55.5625
11
55.4322599999999994
21
-55.5625
0
LINE
8
BLACK
6
CONTINUOUS
10
55.4322599999999994
20
-55.5625
11
55.422073999999995
21
-55.5619999999999976
0
LINE
8
BLACK
6
CONTINUOUS
10
55.422073999999995
20
-55.5619999999999976
11
54.432902999999996
21
-55.5619999999999976
0
LINE
8
BLACK
6
CONTINUOUS
10
54.432902999999996
20
-55.5619999999999976
11
54.4227500000000006
21
-55.5625
0
LINE
8
BLACK
6
CONTINUOUS
10
54.4227500000000006
20
-55.5625
11
53.3399999999999963
21
-55.5625
0
LINE
8
BLACK
6
CONTINUOUS
10
53.3399999999999963
20
-55.5625
11
53.1812499999999986
21
-55.7212499999999977
0
LINE
8
BLACK
6
CONTINUOUS
10
53.1812499999999986
20
-55.7212499999999977
11
53.1812509999999961
21
-55.7212499999999977
0
LINE
8
BLACK
6
CONTINUOUS
10
53.1812509999999961
20
-55.7212499999999977
11
53.1812509999999961
21
-56.9912500000000009
0
LINE
8
BLACK
6
CONTINUOUS
10
53.1812509999999961
20
-56.9912500000000009
11
53.1812499999999986
21
-56.9912500000000009
0
LINE
8
BLACK
6
CONTINUOUS
10
53.1812499999999986
20
-56.9912500000000009
11
54.0875459999999961
21
-57.8975459999999984
0
LINE
8
BLACK
6
CONTINUOUS
10
54.0875459999999961
20
-57.8975459999999984
11
54.114221999999998
21
-57.9437499999999943
0
LINE
8
BLACK
6
CONTINUOUS
10
54.114221999999998
20
-57.9437499999999943
11
54.1337499999999991
21
-57.9437499999999943
0
LINE
8
BLACK
6
CONTINUOUS
10
54.1337499999999991
20
-57.9437499999999943
11
54.1337499999999991
21
-59.2137499999999974
0
LINE
8
BLACK
6
CONTINUOUS
10
54.1337499999999991
20
-59.2137499999999974
11
53.498749999999994
21
-59.2137499999999974
0
LINE
8
BLACK
6
CONTINUOUS
10
53.498749999999994
20
-59.2137499999999974
11
52.5462500000000006
21
-59.2137499999999974
0
LINE
8
BLACK
6
CONTINUOUS
10
52.5462500000000006
20
-59.2137499999999974
11
52.3864999999999981
21
-59.2137499999999974
0
LINE
8
BLACK
6
CONTINUOUS
10
52.3864999999999981
20
-59.2137499999999974
11
52.228749999999998
21
-59.2137499999999974
0
LINE
8
BLACK
6
CONTINUOUS
10
52.228749999999998
20
-59.2137499999999974
11
52.228749999999998
21
-57.9437499999999943
0
LINE
8
BLACK
6
CONTINUOUS
10
52.228749999999998
20
-57.9437499999999943
11
52.228749999999998
21
-55.4690919999999963
0
LINE
8
BLACK
6
CONTINUOUS
10
52.228749999999998
20
-55.4690919999999963
11
52.2498839999999944
21
-55.3902169999999998
0
LINE
8
BLACK
6
CONTINUOUS
10
52.2498839999999944
20
-55.3902169999999998
11
52.274954000000001
21
-55.3575459999999993
0
LINE
8
BLACK
6
CONTINUOUS
10
52.274954000000001
20
-55.3575459999999993
11
52.9762959999999978
21
-54.6562039999999953
0
LINE
8
BLACK
6
CONTINUOUS
10
52.9762959999999978
20
-54.6562039999999953
11
53.0470129999999997
21
-54.6153750000000002
0
LINE
8
BLACK
6
CONTINUOUS
10
53.0470129999999997
20
-54.6153750000000002
11
53.0878419999999949
21
-54.6099999999999994
0
LINE
8
BLACK
6
CONTINUOUS
10
53.0878419999999949
20
-54.6099999999999994
11
58.9896579999999986
21
-54.6099999999999994
0
LINE
8
BLACK
6
CONTINUOUS
10
58.9896579999999986
20
-54.6099999999999994
11
59.0685329999999951
21
-54.6311339999999959
0
LINE
8
BLACK
6
CONTINUOUS
10
65.2462500000000034
20
-54.6089999999999947
11
65.2462500000000034
21
-56.7671579999999949
0
LINE
8
BLACK
6
CONTINUOUS
10
65.2462500000000034
20
-56.7671579999999949
11
65.2251159999999999
21
-56.8460329999999985
0
LINE
8
BLACK
6
CONTINUOUS
10
65.2251159999999999
20
-56.8460329999999985
11
65.2000460000000004
21
-56.878703999999999
0
LINE
8
BLACK
6
CONTINUOUS
10
65.2000460000000004
20
-56.878703999999999
11
63.5462039999999959
21
-58.5325459999999964
0
LINE
8
BLACK
6
CONTINUOUS
10
63.5462039999999959
20
-58.5325459999999964
11
63.475486999999994
21
-58.5733749999999986
0
LINE
8
BLACK
6
CONTINUOUS
10
63.475486999999994
20
-58.5733749999999986
11
63.4346579999999989
21
-58.5787499999999994
0
LINE
8
BLACK
6
CONTINUOUS
10
63.4346579999999989
20
-58.5787499999999994
11
61.1177499999999938
21
-58.5787499999999994
0
LINE
8
BLACK
6
CONTINUOUS
10
61.1177499999999938
20
-58.5787499999999994
11
60.9599999999999937
21
-58.5787499999999994
0
LINE
8
BLACK
6
CONTINUOUS
10
60.9599999999999937
20
-58.5787499999999994
11
60.9599999999999937
21
-56.6737499999999983
0
LINE
8
BLACK
6
CONTINUOUS
10
60.9599999999999937
20
-56.6737499999999983
11
63.1824999999999974
21
-56.6737499999999983
0
LINE
8
BLACK
6
CONTINUOUS
10
63.1824999999999974
20
-56.6737499999999983
11
63.5
21
-56.6737499999999983
0
LINE
8
BLACK
6
CONTINUOUS
10
63.5
20
-56.6737499999999983
11
64.2937500000000028
21
-55.8799999999999955
0
LINE
8
BLACK
6
CONTINUOUS
10
64.2937500000000028
20
-55.8799999999999955
11
64.2937500000000028
21
-55.7212499999999977
0
LINE
8
BLACK
6
CONTINUOUS
10
64.2937500000000028
20
-55.7212499999999977
11
64.2937500000000028
21
-54.4512499999999946
0
LINE
8
BLACK
6
CONTINUOUS
10
64.2937500000000028
20
-54.4512499999999946
11
65.2462500000000034
21
-54.4512499999999946
0
LINE
8
BLACK
6
CONTINUOUS
10
65.2462500000000034
20
-54.4512499999999946
11
65.2462500000000034
21
-54.6089999999999947
0
LINE
8
BLACK
6
CONTINUOUS
10
76.3538929999999993
20
-53.8211069999999978
11
76.3582499999999982
21
-53.8316249999999954
0
LINE
8
BLACK
6
CONTINUOUS
10
76.3582499999999982
20
-53.8316249999999954
11
76.3582499999999982
21
-61.6438050000000004
0
LINE
8
BLACK
6
CONTINUOUS
10
76.3582499999999982
20
-61.6438050000000004
11
76.3538929999999993
21
-61.654322999999998
0
LINE
8
BLACK
6
CONTINUOUS
10
76.3538929999999993
20
-61.654322999999998
11
76.3433749999999947
21
-61.6586799999999968
0
LINE
8
BLACK
6
CONTINUOUS
10
76.3433749999999947
20
-61.6586799999999968
11
76.33285699999999
21
-61.654322999999998
0
LINE
8
BLACK
6
CONTINUOUS
10
76.33285699999999
20
-61.654322999999998
11
73.8236059999999981
21
-59.145071999999999
0
LINE
8
BLACK
6
CONTINUOUS
10
73.8236059999999981
20
-59.145071999999999
11
73.8192489999999992
21
-59.1345539999999943
0
LINE
8
BLACK
6
CONTINUOUS
10
73.8192489999999992
20
-59.1345539999999943
11
73.8192489999999992
21
-58.8805679999999967
0
LINE
8
BLACK
6
CONTINUOUS
10
73.8192489999999992
20
-58.8805679999999967
11
73.8192480000000018
21
-58.8805580000000006
0
LINE
8
BLACK
6
CONTINUOUS
10
73.8192480000000018
20
-58.8805580000000006
11
73.8162109999999956
21
-58.8652909999999991
0
LINE
8
BLACK
6
CONTINUOUS
10
73.8162109999999956
20
-58.8652909999999991
11
73.8100099999999912
21
-58.834112999999995
0
LINE
8
BLACK
6
CONTINUOUS
10
73.8100099999999912
20
-58.834112999999995
11
73.7748129999999946
21
-58.7814359999999994
0
LINE
8
BLACK
6
CONTINUOUS
10
73.7748129999999946
20
-58.7814359999999994
11
73.7221359999999919
21
-58.7462389999999957
0
LINE
8
BLACK
6
CONTINUOUS
10
73.7221359999999919
20
-58.7462389999999957
11
73.6756859999999989
21
-58.7369989999999973
0
LINE
8
BLACK
6
CONTINUOUS
10
73.6756859999999989
20
-58.7369989999999973
11
72.3743189999999998
21
-58.7369989999999973
0
LINE
8
BLACK
6
CONTINUOUS
10
72.3743189999999998
20
-58.7369989999999973
11
72.3743089999999967
21
-58.7369999999999948
0
LINE
8
BLACK
6
CONTINUOUS
10
72.3743089999999967
20
-58.7369999999999948
11
72.3278629999999936
21
-58.7462389999999957
0
LINE
8
BLACK
6
CONTINUOUS
10
72.3278629999999936
20
-58.7462389999999957
11
72.2751870000000025
21
-58.7814359999999994
0
LINE
8
BLACK
6
CONTINUOUS
10
72.2751870000000025
20
-58.7814359999999994
11
72.2399899999999917
21
-58.8341119999999975
0
LINE
8
BLACK
6
CONTINUOUS
10
72.2399899999999917
20
-58.8341119999999975
11
72.2307500000000005
21
-58.880556999999996
0
LINE
8
BLACK
6
CONTINUOUS
10
72.2307500000000005
20
-58.880556999999996
11
72.2307500000000005
21
-59.0346249999999984
0
LINE
8
BLACK
6
CONTINUOUS
10
72.2307500000000005
20
-59.0346249999999984
11
72.2263930000000016
21
-59.0451429999999959
0
LINE
8
BLACK
6
CONTINUOUS
10
72.2263930000000016
20
-59.0451429999999959
11
72.2158749999999969
21
-59.0494999999999948
0
LINE
8
BLACK
6
CONTINUOUS
10
72.2158749999999969
20
-59.0494999999999948
11
70.9761249999999961
21
-59.0494999999999948
0
LINE
8
BLACK
6
CONTINUOUS
10
70.9761249999999961
20
-59.0494999999999948
11
70.9656069999999914
21
-59.0451429999999959
0
LINE
8
BLACK
6
CONTINUOUS
10
70.9656069999999914
20
-59.0451429999999959
11
70.9612499999999926
21
-59.0346249999999984
0
LINE
8
BLACK
6
CONTINUOUS
10
70.9612499999999926
20
-59.0346249999999984
11
70.9612499999999926
21
-58.5984139999999982
0
LINE
8
BLACK
6
CONTINUOUS
10
70.9612499999999926
20
-58.5984139999999982
11
70.9615359999999953
21
-58.5955089999999998
0
LINE
8
BLACK
6
CONTINUOUS
10
70.9615359999999953
20
-58.5955089999999998
11
70.961749999999995
21
-58.5944349999999972
0
LINE
8
BLACK
6
CONTINUOUS
10
70.961749999999995
20
-58.5944349999999972
11
70.9617489999999975
21
-58.4599589999999978
0
LINE
8
BLACK
6
CONTINUOUS
10
70.9617489999999975
20
-58.4599589999999978
11
70.9618760000000037
21
-58.4580179999999956
0
LINE
8
BLACK
6
CONTINUOUS
10
70.9618760000000037
20
-58.4580179999999956
11
70.9667499999999905
21
-58.4209999999999994
0
LINE
8
BLACK
6
CONTINUOUS
10
70.9667499999999905
20
-58.4209999999999994
11
70.9667499999999905
21
-56.8314999999999984
0
LINE
8
BLACK
6
CONTINUOUS
10
70.9667499999999905
20
-56.8314999999999984
11
70.9618760000000037
21
-56.7944739999999939
0
LINE
8
BLACK
6
CONTINUOUS
10
70.9618760000000037
20
-56.7944739999999939
11
70.9617489999999975
21
-56.7925329999999988
0
LINE
8
BLACK
6
CONTINUOUS
10
70.9617489999999975
20
-56.7925329999999988
11
70.9617489999999975
21
-56.6580689999999976
0
LINE
8
BLACK
6
CONTINUOUS
10
70.9617489999999975
20
-56.6580689999999976
11
70.961748
21
-56.6580589999999944
0
LINE
8
BLACK
6
CONTINUOUS
10
70.961748
20
-56.6580589999999944
11
70.9587109999999939
21
-56.642792
0
LINE
8
BLACK
6
CONTINUOUS
10
70.9587109999999939
20
-56.642792
11
70.9525100000000037
21
-56.6116139999999959
0
LINE
8
BLACK
6
CONTINUOUS
10
70.9525100000000037
20
-56.6116139999999959
11
70.9173129999999929
21
-56.5589370000000002
0
LINE
8
BLACK
6
CONTINUOUS
10
70.9173129999999929
20
-56.5589370000000002
11
70.8646359999999902
21
-56.5237399999999965
0
LINE
8
BLACK
6
CONTINUOUS
10
70.8646359999999902
20
-56.5237399999999965
11
70.8181909999999988
21
-56.5144999999999982
0
LINE
8
BLACK
6
CONTINUOUS
10
70.8181909999999988
20
-56.5144999999999982
11
70.8181849999999997
21
-56.5144999999999982
0
LINE
8
BLACK
6
CONTINUOUS
10
70.8181849999999997
20
-56.5144999999999982
11
70.6837079999999958
21
-56.5144999999999982
0
LINE
8
BLACK
6
CONTINUOUS
10
70.6837079999999958
20
-56.5144999999999982
11
70.6817669999999936
21
-56.5143729999999991
0
LINE
8
BLACK
6
CONTINUOUS
10
70.6817669999999936
20
-56.5143729999999991
11
70.6447500000000019
21
-56.5094999999999956
0
LINE
8
BLACK
6
CONTINUOUS
10
70.6447500000000019
20
-56.5094999999999956
11
70.6447469999999953
21
-56.5094999999999956
0
LINE
8
BLACK
6
CONTINUOUS
10
70.6447469999999953
20
-56.5094999999999956
11
68.3366949999999918
21
-56.5094999999999956
0
LINE
8
BLACK
6
CONTINUOUS
10
68.3366949999999918
20
-56.5094999999999956
11
68.3261770000000013
21
-56.5051429999999968
0
LINE
8
BLACK
6
CONTINUOUS
10
68.3261770000000013
20
-56.5051429999999968
11
67.6373569999999944
21
-55.816322999999997
0
LINE
8
BLACK
6
CONTINUOUS
10
67.6373569999999944
20
-55.816322999999997
11
67.6329999999999956
21
-55.8058049999999994
0
LINE
8
BLACK
6
CONTINUOUS
10
67.6329999999999956
20
-55.8058049999999994
11
67.6329999999999956
21
-54.6090039999999988
0
LINE
8
BLACK
6
CONTINUOUS
10
67.6329999999999956
20
-54.6090039999999988
11
67.6329999999999956
21
-54.6089999999999947
0
LINE
8
BLACK
6
CONTINUOUS
10
67.6329999999999956
20
-54.6089999999999947
11
67.6281259999999946
21
-54.5719739999999973
0
LINE
8
BLACK
6
CONTINUOUS
10
67.6281259999999946
20
-54.5719739999999973
11
67.6279990000000026
21
-54.5700329999999951
0
LINE
8
BLACK
6
CONTINUOUS
10
67.6279990000000026
20
-54.5700329999999951
11
67.6279990000000026
21
-54.435569000000001
0
LINE
8
BLACK
6
CONTINUOUS
10
67.6279990000000026
20
-54.435569000000001
11
67.627997999999991
21
-54.4355589999999978
0
LINE
8
BLACK
6
CONTINUOUS
10
67.627997999999991
20
-54.4355589999999978
11
67.624960999999999
21
-54.4202919999999963
0
LINE
8
BLACK
6
CONTINUOUS
10
67.624960999999999
20
-54.4202919999999963
11
67.6187599999999946
21
-54.3891139999999993
0
LINE
8
BLACK
6
CONTINUOUS
10
67.6187599999999946
20
-54.3891139999999993
11
67.5835629999999981
21
-54.3364369999999965
0
LINE
8
BLACK
6
CONTINUOUS
10
67.5835629999999981
20
-54.3364369999999965
11
67.5308859999999953
21
-54.30124
0
LINE
8
BLACK
6
CONTINUOUS
10
67.5308859999999953
20
-54.30124
11
67.4844410000000039
21
-54.2919999999999945
0
LINE
8
BLACK
6
CONTINUOUS
10
67.4844410000000039
20
-54.2919999999999945
11
67.4844349999999906
21
-54.2919999999999945
0
LINE
8
BLACK
6
CONTINUOUS
10
67.4844349999999906
20
-54.2919999999999945
11
67.3499589999999984
21
-54.2919999999999945
0
LINE
8
BLACK
6
CONTINUOUS
10
67.3499589999999984
20
-54.2919999999999945
11
67.3480179999999962
21
-54.2918729999999954
0
LINE
8
BLACK
6
CONTINUOUS
10
67.3480179999999962
20
-54.2918729999999954
11
67.3109999999999928
21
-54.286999999999999
0
LINE
8
BLACK
6
CONTINUOUS
10
67.3109999999999928
20
-54.286999999999999
11
66.6739999999999924
21
-54.286999999999999
0
LINE
8
BLACK
6
CONTINUOUS
10
66.6739999999999924
20
-54.286999999999999
11
66.6369749999999925
21
-54.2918729999999954
0
LINE
8
BLACK
6
CONTINUOUS
10
66.6369749999999925
20
-54.2918729999999954
11
66.6350339999999903
21
-54.2919999999999945
0
LINE
8
BLACK
6
CONTINUOUS
10
66.6350339999999903
20
-54.2919999999999945
11
66.5005689999999987
21
-54.2919999999999945
0
LINE
8
BLACK
6
CONTINUOUS
10
66.5005689999999987
20
-54.2919999999999945
11
66.5005589999999955
21
-54.2920009999999991
0
LINE
8
BLACK
6
CONTINUOUS
10
66.5005589999999955
20
-54.2920009999999991
11
66.4541129999999924
21
-54.30124
0
LINE
8
BLACK
6
CONTINUOUS
10
66.4541129999999924
20
-54.30124
11
66.4014370000000014
21
-54.3364369999999965
0
LINE
8
BLACK
6
CONTINUOUS
10
66.4014370000000014
20
-54.3364369999999965
11
66.3662399999999906
21
-54.3891129999999947
0
LINE
8
BLACK
6
CONTINUOUS
10
66.3662399999999906
20
-54.3891129999999947
11
66.3569999999999993
21
-54.4355580000000003
0
LINE
8
BLACK
6
CONTINUOUS
10
66.3569999999999993
20
-54.4355580000000003
11
66.3569999999999993
21
-54.5700389999999942
0
LINE
8
BLACK
6
CONTINUOUS
10
66.3569999999999993
20
-54.5700389999999942
11
66.3568729999999931
21
-54.5719799999999964
0
LINE
8
BLACK
6
CONTINUOUS
10
66.3568729999999931
20
-54.5719799999999964
11
66.3520000000000039
21
-54.6089999999999947
0
LINE
8
BLACK
6
CONTINUOUS
10
66.3520000000000039
20
-54.6089999999999947
11
66.3520000000000039
21
-56.7671579999999949
0
LINE
8
BLACK
6
CONTINUOUS
10
66.3520000000000039
20
-56.7671579999999949
11
66.3534049999999951
21
-56.7885959999999983
0
LINE
8
BLACK
6
CONTINUOUS
10
66.3534049999999951
20
-56.7885959999999983
11
66.3587799999999959
21
-56.8294250000000005
0
LINE
8
BLACK
6
CONTINUOUS
10
66.3587799999999959
20
-56.8294250000000005
11
66.359486000000004
21
-56.8315039999999954
0
LINE
8
BLACK
6
CONTINUOUS
10
66.359486000000004
20
-56.8315039999999954
11
66.3793809999999951
21
-56.8901129999999995
0
LINE
8
BLACK
6
CONTINUOUS
10
66.3793809999999951
20
-56.8901129999999995
11
66.4202030000000008
21
-56.9608190000000008
0
LINE
8
BLACK
6
CONTINUOUS
10
66.4202030000000008
20
-56.9608190000000008
11
66.4202109999999948
21
-56.9608309999999989
0
LINE
8
BLACK
6
CONTINUOUS
10
66.4202109999999948
20
-56.9608309999999989
11
66.4463109999999944
21
-56.9948459999999955
0
LINE
8
BLACK
6
CONTINUOUS
10
66.4463109999999944
20
-56.9948459999999955
11
68.0993929999999921
21
-58.6479280000000003
0
LINE
8
BLACK
6
CONTINUOUS
10
68.0993929999999921
20
-58.6479280000000003
11
68.1037499999999909
21
-58.6584459999999979
0
LINE
8
BLACK
6
CONTINUOUS
10
68.1037499999999909
20
-58.6584459999999979
11
68.1037499999999909
21
-61.5746249999999975
0
LINE
8
BLACK
6
CONTINUOUS
10
68.1037499999999909
20
-61.5746249999999975
11
68.0993929999999921
21
-61.5851429999999951
0
LINE
8
BLACK
6
CONTINUOUS
10
68.0993929999999921
20
-61.5851429999999951
11
68.0888750000000016
21
-61.5894999999999939
0
LINE
8
BLACK
6
CONTINUOUS
10
68.0888750000000016
20
-61.5894999999999939
11
66.8990879999999919
21
-61.5894999999999939
0
LINE
8
BLACK
6
CONTINUOUS
10
66.8990879999999919
20
-61.5894999999999939
11
66.8776500000000027
21
-61.5909049999999993
0
LINE
8
BLACK
6
CONTINUOUS
10
66.8776500000000027
20
-61.5909049999999993
11
66.8449899999999957
21
-61.595205
0
LINE
8
BLACK
6
CONTINUOUS
10
66.8449899999999957
20
-61.595205
11
66.8368249999999904
21
-61.5962800000000001
0
LINE
8
BLACK
6
CONTINUOUS
10
66.8368249999999904
20
-61.5962800000000001
11
66.8064809999999909
21
-61.6065799999999939
0
LINE
8
BLACK
6
CONTINUOUS
10
66.8064809999999909
20
-61.6065799999999939
11
66.7761359999999939
21
-61.6168809999999993
0
LINE
8
BLACK
6
CONTINUOUS
10
66.7761359999999939
20
-61.6168809999999993
11
66.7054299999999927
21
-61.6577029999999979
0
LINE
8
BLACK
6
CONTINUOUS
10
66.7054299999999927
20
-61.6577029999999979
11
66.7054179999999945
21
-61.657710999999999
0
LINE
8
BLACK
6
CONTINUOUS
10
66.7054179999999945
20
-61.657710999999999
11
66.671402999999998
21
-61.6838109999999986
0
LINE
8
BLACK
6
CONTINUOUS
10
66.671402999999998
20
-61.6838109999999986
11
64.8588189999999969
21
-63.4963959999999972
0
LINE
8
BLACK
6
CONTINUOUS
10
64.8588189999999969
20
-63.4963959999999972
11
64.8587969999999956
21
-63.4964189999999959
0
LINE
8
BLACK
6
CONTINUOUS
10
64.8587969999999956
20
-63.4964189999999959
11
64.8446429999999907
21
-63.5125579999999985
0
LINE
8
BLACK
6
CONTINUOUS
10
64.8446429999999907
20
-63.5125579999999985
11
64.8195789999999903
21
-63.545220999999998
0
LINE
8
BLACK
6
CONTINUOUS
10
64.8195789999999903
20
-63.545220999999998
11
64.8195740000000029
21
-63.5452289999999991
0
LINE
8
BLACK
6
CONTINUOUS
10
64.8195740000000029
20
-63.5452289999999991
11
64.7912290000000013
21
-63.6027069999999952
0
LINE
8
BLACK
6
CONTINUOUS
10
64.7912290000000013
20
-63.6027069999999952
11
64.7700959999999952
21
-63.6815799999999967
0
LINE
8
BLACK
6
CONTINUOUS
10
64.7700959999999952
20
-63.6815799999999967
11
64.7644999999999982
21
-63.7240939999999938
0
LINE
8
BLACK
6
CONTINUOUS
10
64.7644999999999982
20
-63.7240939999999938
11
64.7644999999999982
21
-67.7120549999999923
0
LINE
8
BLACK
6
CONTINUOUS
10
64.7644999999999982
20
-67.7120549999999923
11
64.7601429999999993
21
-67.722572999999997
0
LINE
8
BLACK
6
CONTINUOUS
10
64.7601429999999993
20
-67.722572999999997
11
64.2300729999999902
21
-68.252642999999992
0
LINE
8
BLACK
6
CONTINUOUS
10
64.2300729999999902
20
-68.252642999999992
11
64.2195549999999997
21
-68.2569999999999908
0
LINE
8
BLACK
6
CONTINUOUS
10
64.2195549999999997
20
-68.2569999999999908
11
60.3239999999999981
21
-68.2569999999999908
0
LINE
8
BLACK
6
CONTINUOUS
10
60.3239999999999981
20
-68.2569999999999908
11
60.3082619999999991
21
-68.2590709999999916
0
LINE
8
BLACK
6
CONTINUOUS
10
60.3082619999999991
20
-68.2590709999999916
11
60.2814789999999974
21
-68.2625969999999995
0
LINE
8
BLACK
6
CONTINUOUS
10
60.2814789999999974
20
-68.2625969999999995
11
60.2810249999999996
21
-68.2627189999999899
0
LINE
8
BLACK
6
CONTINUOUS
10
60.2810249999999996
20
-68.2627189999999899
11
60.2744599999999977
21
-68.2629689999999982
0
LINE
8
BLACK
6
CONTINUOUS
10
60.2744599999999977
20
-68.2629689999999982
11
60.2692709999999963
21
-68.2620000000000005
0
LINE
8
BLACK
6
CONTINUOUS
10
60.2692709999999963
20
-68.2620000000000005
11
60.2692689999999942
21
-68.2620000000000005
0
LINE
8
BLACK
6
CONTINUOUS
10
60.2692689999999942
20
-68.2620000000000005
11
60.0632309999999947
21
-68.2620000000000005
0
LINE
8
BLACK
6
CONTINUOUS
10
60.0632309999999947
20
-68.2620000000000005
11
60.0632299999999972
21
-68.2620000000000005
0
LINE
8
BLACK
6
CONTINUOUS
10
60.0632299999999972
20
-68.2620000000000005
11
60.0619079999999954
21
-68.2622470000000021
0
LINE
8
BLACK
6
CONTINUOUS
10
60.0619079999999954
20
-68.2622470000000021
11
60.0591769999999983
21
-68.2625000000000028
0
LINE
8
BLACK
6
CONTINUOUS
10
60.0591769999999983
20
-68.2625000000000028
11
58.7578749999999985
21
-68.2625000000000028
0
LINE
8
BLACK
6
CONTINUOUS
10
58.7578749999999985
20
-68.2625000000000028
11
58.7473569999999938
21
-68.258143000000004
0
LINE
8
BLACK
6
CONTINUOUS
10
58.7473569999999938
20
-68.258143000000004
11
58.742999999999995
21
-68.2476249999999993
0
LINE
8
BLACK
6
CONTINUOUS
10
58.742999999999995
20
-68.2476249999999993
11
58.742999999999995
21
-64.1340039999999902
0
LINE
8
BLACK
6
CONTINUOUS
10
58.742999999999995
20
-64.1340039999999902
11
58.742999999999995
21
-64.1340000000000003
0
LINE
8
BLACK
6
CONTINUOUS
10
58.742999999999995
20
-64.1340000000000003
11
58.7381259999999941
21
-64.096974000000003
0
LINE
8
BLACK
6
CONTINUOUS
10
58.7381259999999941
20
-64.096974000000003
11
58.737998999999995
21
-64.0950330000000008
0
LINE
8
BLACK
6
CONTINUOUS
10
58.737998999999995
20
-64.0950330000000008
11
58.737998999999995
21
-63.960567999999995
0
LINE
8
BLACK
6
CONTINUOUS
10
58.737998999999995
20
-63.960567999999995
11
58.7379979999999975
21
-63.9605579999999989
0
LINE
8
BLACK
6
CONTINUOUS
10
58.7379979999999975
20
-63.9605579999999989
11
58.7349609999999984
21
-63.9452909999999974
0
LINE
8
BLACK
6
CONTINUOUS
10
58.7349609999999984
20
-63.9452909999999974
11
58.7287599999999941
21
-63.9141130000000004
0
LINE
8
BLACK
6
CONTINUOUS
10
58.7287599999999941
20
-63.9141130000000004
11
58.6935629999999975
21
-63.8614359999999976
0
LINE
8
BLACK
6
CONTINUOUS
10
58.6935629999999975
20
-63.8614359999999976
11
58.6408859999999947
21
-63.826238999999994
0
LINE
8
BLACK
6
CONTINUOUS
10
58.6408859999999947
20
-63.826238999999994
11
58.5944409999999962
21
-63.8169989999999956
0
LINE
8
BLACK
6
CONTINUOUS
10
58.5944409999999962
20
-63.8169989999999956
11
58.5944349999999972
21
-63.8169989999999956
0
LINE
8
BLACK
6
CONTINUOUS
10
58.5944349999999972
20
-63.8169989999999956
11
58.4599509999999967
21
-63.8169989999999956
0
LINE
8
BLACK
6
CONTINUOUS
10
58.4599509999999967
20
-63.8169989999999956
11
58.4580099999999945
21
-63.8168719999999965
0
LINE
8
BLACK
6
CONTINUOUS
10
58.4580099999999945
20
-63.8168719999999965
11
58.4209999999999994
21
-63.8119999999999976
0
LINE
8
BLACK
6
CONTINUOUS
10
58.4209999999999994
20
-63.8119999999999976
11
57.4664999999999964
21
-63.8119999999999976
0
LINE
8
BLACK
6
CONTINUOUS
10
57.4664999999999964
20
-63.8119999999999976
11
57.4382839999999959
21
-63.8157129999999952
0
LINE
8
BLACK
6
CONTINUOUS
10
57.4382839999999959
20
-63.8157129999999952
11
57.4294820000000001
21
-63.8168719999999965
0
LINE
8
BLACK
6
CONTINUOUS
10
57.4294820000000001
20
-63.8168719999999965
11
57.427540999999998
21
-63.8169989999999956
0
LINE
8
BLACK
6
CONTINUOUS
10
57.427540999999998
20
-63.8169989999999956
11
57.2930689999999956
21
-63.8169989999999956
0
LINE
8
BLACK
6
CONTINUOUS
10
57.2930689999999956
20
-63.8169989999999956
11
57.2930589999999995
21
-63.8170000000000002
0
LINE
8
BLACK
6
CONTINUOUS
10
57.2930589999999995
20
-63.8170000000000002
11
57.2466129999999964
21
-63.826238999999994
0
LINE
8
BLACK
6
CONTINUOUS
10
57.2466129999999964
20
-63.826238999999994
11
57.1939369999999982
21
-63.8614359999999976
0
LINE
8
BLACK
6
CONTINUOUS
10
57.1939369999999982
20
-63.8614359999999976
11
57.1587399999999946
21
-63.9141119999999958
0
LINE
8
BLACK
6
CONTINUOUS
10
57.1587399999999946
20
-63.9141119999999958
11
57.1494999999999962
21
-63.9605569999999943
0
LINE
8
BLACK
6
CONTINUOUS
10
57.1494999999999962
20
-63.9605569999999943
11
57.1494999999999962
21
-64.0950389999999999
0
LINE
8
BLACK
6
CONTINUOUS
10
57.1494999999999962
20
-64.0950389999999999
11
57.1493729999999971
21
-64.0969800000000021
0
LINE
8
BLACK
6
CONTINUOUS
10
57.1493729999999971
20
-64.0969800000000021
11
57.1445000000000007
21
-64.1340019999999953
0
LINE
8
BLACK
6
CONTINUOUS
10
57.1445000000000007
20
-64.1340019999999953
11
57.1445000000000007
21
-68.3579299999999961
0
LINE
8
BLACK
6
CONTINUOUS
10
57.1445000000000007
20
-68.3579299999999961
11
57.1401429999999948
21
-68.3684480000000008
0
LINE
8
BLACK
6
CONTINUOUS
10
57.1401429999999948
20
-68.3684480000000008
11
57.134999999999998
21
-68.3717999999999932
0
LINE
8
BLACK
6
CONTINUOUS
10
57.134999999999998
20
-68.3717999999999932
11
57.1285769999999999
21
-68.3742879999999928
0
LINE
8
BLACK
6
CONTINUOUS
10
57.1285769999999999
20
-68.3742879999999928
11
56.9533989999999974
21
-68.4827539999999999
0
LINE
8
BLACK
6
CONTINUOUS
10
56.9533989999999974
20
-68.4827539999999999
11
56.8011359999999996
21
-68.6215609999999998
0
LINE
8
BLACK
6
CONTINUOUS
10
56.8011359999999996
20
-68.6215609999999998
11
56.6769709999999947
21
-68.7859830000000017
0
LINE
8
BLACK
6
CONTINUOUS
10
56.6769709999999947
20
-68.7859830000000017
11
56.585132999999999
21
-68.9704179999999951
0
LINE
8
BLACK
6
CONTINUOUS
10
56.585132999999999
20
-68.9704179999999951
11
56.585130999999997
21
-68.9704219999999992
0
LINE
8
BLACK
6
CONTINUOUS
10
56.585130999999997
20
-68.9704219999999992
11
56.5287480000000002
21
-69.1685889999999972
0
LINE
8
BLACK
6
CONTINUOUS
10
56.5287480000000002
20
-69.1685889999999972
11
56.5097369999999941
21
-69.3737500000000011
0
LINE
8
BLACK
6
CONTINUOUS
10
56.5097369999999941
20
-69.3737500000000011
11
56.5188020000000009
21
-69.471589999999992
0
LINE
8
BLACK
6
CONTINUOUS
10
56.5188020000000009
20
-69.471589999999992
11
56.5183589999999967
21
-69.4768090000000029
0
LINE
8
BLACK
6
CONTINUOUS
10
56.5183589999999967
20
-69.4768090000000029
11
56.5163960000000003
21
-69.4841359999999924
0
LINE
8
BLACK
6
CONTINUOUS
10
56.5163960000000003
20
-69.4841359999999924
11
56.5150949999999952
21
-69.4889929999999936
0
LINE
8
BLACK
6
CONTINUOUS
10
56.5150949999999952
20
-69.4889929999999936
11
56.5094999999999956
21
-69.5315020000000032
0
LINE
8
BLACK
6
CONTINUOUS
10
56.5094999999999956
20
-69.5315020000000032
11
56.5094999999999956
21
-71.7559969999999936
0
LINE
8
BLACK
6
CONTINUOUS
10
56.5094999999999956
20
-71.7559969999999936
11
56.5150959999999998
21
-71.7985109999999906
0
LINE
8
BLACK
6
CONTINUOUS
10
56.5150959999999998
20
-71.7985109999999906
11
56.5150969999999973
21
-71.7985149999999948
0
LINE
8
BLACK
6
CONTINUOUS
10
56.5150969999999973
20
-71.7985149999999948
11
56.5183579999999992
21
-71.810687999999999
0
LINE
8
BLACK
6
CONTINUOUS
10
56.5183579999999992
20
-71.810687999999999
11
56.5188020000000009
21
-71.8159089999999907
0
LINE
8
BLACK
6
CONTINUOUS
10
56.5188020000000009
20
-71.8159089999999907
11
56.5097369999999941
21
-71.9137489999999957
0
LINE
8
BLACK
6
CONTINUOUS
10
56.5097369999999941
20
-71.9137489999999957
11
56.5287480000000002
21
-72.1189099999999996
0
LINE
8
BLACK
6
CONTINUOUS
10
56.5287480000000002
20
-72.1189099999999996
11
56.585130999999997
21
-72.3170769999999976
0
LINE
8
BLACK
6
CONTINUOUS
10
56.585130999999997
20
-72.3170769999999976
11
56.585132999999999
21
-72.3170810000000017
0
LINE
8
BLACK
6
CONTINUOUS
10
56.585132999999999
20
-72.3170810000000017
11
56.6435749999999985
21
-72.4344490000000008
0
LINE
8
BLACK
6
CONTINUOUS
10
56.6435749999999985
20
-72.4344490000000008
11
56.6769719999999992
21
-72.5015179999999901
0
LINE
8
BLACK
6
CONTINUOUS
10
56.6769719999999992
20
-72.5015179999999901
11
56.8011369999999971
21
-72.665939999999992
0
LINE
8
BLACK
6
CONTINUOUS
10
56.8011369999999971
20
-72.665939999999992
11
56.9534009999999995
21
-72.8047469999999919
0
LINE
8
BLACK
6
CONTINUOUS
10
56.9534009999999995
20
-72.8047469999999919
11
57.1285769999999999
21
-72.9132109999999898
0
LINE
8
BLACK
6
CONTINUOUS
10
57.1285769999999999
20
-72.9132109999999898
11
57.3207019999999972
21
-72.9876409999999964
0
LINE
8
BLACK
6
CONTINUOUS
10
57.3207019999999972
20
-72.9876409999999964
11
57.5232309999999956
21
-73.0254999999999939
0
LINE
8
BLACK
6
CONTINUOUS
10
57.5232309999999956
20
-73.0254999999999939
11
57.5232329999999976
21
-73.0254999999999939
0
LINE
8
BLACK
6
CONTINUOUS
10
57.5232329999999976
20
-73.0254999999999939
11
57.7292699999999996
21
-73.0254999999999939
0
LINE
8
BLACK
6
CONTINUOUS
10
57.7292699999999996
20
-73.0254999999999939
11
57.7305919999999944
21
-73.0252529999999922
0
LINE
8
BLACK
6
CONTINUOUS
10
57.7305919999999944
20
-73.0252529999999922
11
57.7333229999999986
21
-73.0249999999999915
0
LINE
8
BLACK
6
CONTINUOUS
10
57.7333229999999986
20
-73.0249999999999915
11
60.0591769999999983
21
-73.0249999999999915
0
LINE
8
BLACK
6
CONTINUOUS
10
60.0591769999999983
20
-73.0249999999999915
11
60.0619079999999954
21
-73.0252529999999922
0
LINE
8
BLACK
6
CONTINUOUS
10
60.0619079999999954
20
-73.0252529999999922
11
60.0632299999999972
21
-73.0254999999999939
0
LINE
8
BLACK
6
CONTINUOUS
10
60.0632299999999972
20
-73.0254999999999939
11
60.0632309999999947
21
-73.0254999999999939
0
LINE
8
BLACK
6
CONTINUOUS
10
60.0632309999999947
20
-73.0254999999999939
11
60.2692669999999993
21
-73.0254999999999939
0
LINE
8
BLACK
6
CONTINUOUS
10
60.2692669999999993
20
-73.0254999999999939
11
60.2692689999999942
21
-73.0254999999999939
0
LINE
8
BLACK
6
CONTINUOUS
10
60.2692689999999942
20
-73.0254999999999939
11
60.4717979999999997
21
-72.9876409999999964
0
LINE
8
BLACK
6
CONTINUOUS
10
60.4717979999999997
20
-72.9876409999999964
11
60.6639229999999969
21
-72.9132109999999898
0
LINE
8
BLACK
6
CONTINUOUS
10
60.6639229999999969
20
-72.9132109999999898
11
60.8390989999999974
21
-72.8047469999999919
0
LINE
8
BLACK
6
CONTINUOUS
10
60.8390989999999974
20
-72.8047469999999919
11
60.9913629999999998
21
-72.665939999999992
0
LINE
8
BLACK
6
CONTINUOUS
10
60.9913629999999998
20
-72.665939999999992
11
61.1155279999999976
21
-72.5015179999999901
0
LINE
8
BLACK
6
CONTINUOUS
10
61.1155279999999976
20
-72.5015179999999901
11
61.1489259999999959
21
-72.4344439999999992
0
LINE
8
BLACK
6
CONTINUOUS
10
61.1489259999999959
20
-72.4344439999999992
11
61.1517179999999954
21
-72.4305639999999897
0
LINE
8
BLACK
6
CONTINUOUS
10
61.1517179999999954
20
-72.4305639999999897
11
63.0874269999999981
21
-70.4948569999999961
0
LINE
8
BLACK
6
CONTINUOUS
10
63.0874269999999981
20
-70.4948569999999961
11
63.0979449999999957
21
-70.4904999999999973
0
LINE
8
BLACK
6
CONTINUOUS
10
63.0979449999999957
20
-70.4904999999999973
11
64.8634069999999952
21
-70.4904999999999973
0
LINE
8
BLACK
6
CONTINUOUS
10
64.8634069999999952
20
-70.4904999999999973
11
64.8634079999999926
21
-70.4904999999999973
0
LINE
8
BLACK
6
CONTINUOUS
10
64.8634079999999926
20
-70.4904999999999973
11
64.884845999999996
21
-70.4890949999999918
0
LINE
8
BLACK
6
CONTINUOUS
10
64.884845999999996
20
-70.4890949999999918
11
64.9256749999999982
21
-70.483719999999991
0
LINE
8
BLACK
6
CONTINUOUS
10
64.9256749999999982
20
-70.483719999999991
11
64.9863629999999972
21
-70.4631189999999918
0
LINE
8
BLACK
6
CONTINUOUS
10
64.9863629999999972
20
-70.4631189999999918
11
65.0570799999999991
21
-70.4222900000000038
0
LINE
8
BLACK
6
CONTINUOUS
10
65.0570799999999991
20
-70.4222900000000038
11
65.0910959999999932
21
-70.3961879999999951
0
LINE
8
BLACK
6
CONTINUOUS
10
65.0910959999999932
20
-70.3961879999999951
11
66.9036880000000025
21
-68.583596
0
LINE
8
BLACK
6
CONTINUOUS
10
66.9036880000000025
20
-68.583596
11
66.9178529999999938
21
-68.5674449999999922
0
LINE
8
BLACK
6
CONTINUOUS
10
66.9178529999999938
20
-68.5674449999999922
11
66.9429229999999933
21
-68.5347739999999988
0
LINE
8
BLACK
6
CONTINUOUS
10
66.9429229999999933
20
-68.5347739999999988
11
66.9712700000000041
21
-68.4772930000000031
0
LINE
8
BLACK
6
CONTINUOUS
10
66.9712700000000041
20
-68.4772930000000031
11
66.9924039999999934
21
-68.3984179999999924
0
LINE
8
BLACK
6
CONTINUOUS
10
66.9924039999999934
20
-68.3984179999999924
11
66.9979999999999905
21
-68.3559079999999994
0
LINE
8
BLACK
6
CONTINUOUS
10
66.9979999999999905
20
-68.3559079999999994
11
66.9979999999999905
21
-64.3679449999999918
0
LINE
8
BLACK
6
CONTINUOUS
10
66.9979999999999905
20
-64.3679449999999918
11
67.0023570000000035
21
-64.3574270000000013
0
LINE
8
BLACK
6
CONTINUOUS
10
67.0023570000000035
20
-64.3574270000000013
11
67.3791769999999985
21
-63.9806069999999991
0
LINE
8
BLACK
6
CONTINUOUS
10
67.3791769999999985
20
-63.9806069999999991
11
67.3896950000000032
21
-63.9762500000000003
0
LINE
8
BLACK
6
CONTINUOUS
10
67.3896950000000032
20
-63.9762500000000003
11
68.0975889999999993
21
-63.9762500000000003
0
LINE
8
BLACK
6
CONTINUOUS
10
68.0975889999999993
20
-63.9762500000000003
11
68.1081070000000039
21
-63.9806069999999991
0
LINE
8
BLACK
6
CONTINUOUS
10
68.1081070000000039
20
-63.9806069999999991
11
68.4212500000000006
21
-64.2937500000000028
0
LINE
8
BLACK
6
CONTINUOUS
10
68.4212500000000006
20
-64.2937500000000028
11
68.5799999999999983
21
-64.2937500000000028
0
LINE
8
BLACK
6
CONTINUOUS
10
68.5799999999999983
20
-64.2937500000000028
11
70.8024999999999949
21
-64.2937500000000028
0
LINE
8
BLACK
6
CONTINUOUS
10
70.8024999999999949
20
-64.2937500000000028
11
71.7549999999999955
21
-64.2937500000000028
0
LINE
8
BLACK
6
CONTINUOUS
10
71.7549999999999955
20
-64.2937500000000028
11
74.2950000000000017
21
-64.2937500000000028
0
LINE
8
BLACK
6
CONTINUOUS
10
74.2950000000000017
20
-64.2937500000000028
11
74.2950000000000017
21
-66.198750000000004
0
LINE
8
BLACK
6
CONTINUOUS
10
74.2950000000000017
20
-66.198750000000004
11
74.2899989999999946
21
-66.198750000000004
0
LINE
8
BLACK
6
CONTINUOUS
10
74.2899989999999946
20
-66.198750000000004
11
74.2899989999999946
21
-66.2126799999999918
0
LINE
8
BLACK
6
CONTINUOUS
10
74.2899989999999946
20
-66.2126799999999918
11
74.2899809999999974
21
-66.213405999999992
0
LINE
8
BLACK
6
CONTINUOUS
10
74.2899809999999974
20
-66.213405999999992
11
74.2896980000000013
21
-66.2191869999999909
0
LINE
8
BLACK
6
CONTINUOUS
10
74.2896980000000013
20
-66.2191869999999909
11
74.2894999999999897
21
-66.2272799999999933
0
LINE
8
BLACK
6
CONTINUOUS
10
74.2894999999999897
20
-66.2272799999999933
11
74.2894999999999897
21
-75.4908049999999946
0
LINE
8
BLACK
6
CONTINUOUS
10
74.2894999999999897
20
-75.4908049999999946
11
74.2851429999999908
21
-75.5013229999999993
0
LINE
8
BLACK
6
CONTINUOUS
10
74.2851429999999908
20
-75.5013229999999993
11
73.1200729999999908
21
-76.6663929999999993
0
LINE
8
BLACK
6
CONTINUOUS
10
73.1200729999999908
20
-76.6663929999999993
11
73.1095550000000003
21
-76.6707499999999982
0
LINE
8
BLACK
6
CONTINUOUS
10
73.1095550000000003
20
-76.6707499999999982
11
54.8429450000000003
21
-76.6707499999999982
0
LINE
8
BLACK
6
CONTINUOUS
10
54.8429450000000003
20
-76.6707499999999982
11
54.8324269999999956
21
-76.6663929999999993
0
LINE
8
BLACK
6
CONTINUOUS
10
54.8324269999999956
20
-76.6663929999999993
11
53.6673569999999955
21
-75.5013229999999993
0
LINE
8
BLACK
6
CONTINUOUS
10
53.6673569999999955
20
-75.5013229999999993
11
53.6629999999999967
21
-75.4908049999999946
0
LINE
8
BLACK
6
CONTINUOUS
10
53.6629999999999967
20
-75.4908049999999946
11
53.6629999999999967
21
-74.9299999999999926
0
LINE
8
BLACK
6
CONTINUOUS
10
53.6629999999999967
20
-74.9299999999999926
11
53.6629999999999967
21
-69.5315039999999982
0
LINE
8
BLACK
6
CONTINUOUS
10
53.6629999999999967
20
-69.5315039999999982
11
53.6629999999999967
21
-69.5314999999999941
0
LINE
8
BLACK
6
CONTINUOUS
10
53.6629999999999967
20
-69.5314999999999941
11
53.6574039999999997
21
-69.4889900000000011
0
LINE
8
BLACK
6
CONTINUOUS
10
53.6574039999999997
20
-69.4889900000000011
11
53.6541390000000007
21
-69.4768069999999938
0
LINE
8
BLACK
6
CONTINUOUS
10
53.6541390000000007
20
-69.4768069999999938
11
53.6536959999999965
21
-69.471589999999992
0
LINE
8
BLACK
6
CONTINUOUS
10
53.6536959999999965
20
-69.471589999999992
11
53.6627629999999982
21
-69.3737500000000011
0
LINE
8
BLACK
6
CONTINUOUS
10
53.6627629999999982
20
-69.3737500000000011
11
53.6437519999999992
21
-69.1685909999999922
0
LINE
8
BLACK
6
CONTINUOUS
10
53.6437519999999992
20
-69.1685909999999922
11
53.5873670000000004
21
-68.9704189999999926
0
LINE
8
BLACK
6
CONTINUOUS
10
53.5873670000000004
20
-68.9704189999999926
11
53.4955280000000002
21
-68.78598199999999
0
LINE
8
BLACK
6
CONTINUOUS
10
53.4955280000000002
20
-68.78598199999999
11
53.3713629999999952
21
-68.6215600000000023
0
LINE
8
BLACK
6
CONTINUOUS
10
53.3713629999999952
20
-68.6215600000000023
11
53.3503539999999958
21
-68.6024069999999995
0
LINE
8
BLACK
6
CONTINUOUS
10
53.3503539999999958
20
-68.6024069999999995
11
53.3455159999999964
21
-68.5921009999999995
0
LINE
8
BLACK
6
CONTINUOUS
10
53.3455159999999964
20
-68.5921009999999995
11
53.3454999999999941
21
-68.5914140000000003
0
LINE
8
BLACK
6
CONTINUOUS
10
53.3454999999999941
20
-68.5914140000000003
11
53.3454999999999941
21
-66.0390039999999914
0
LINE
8
BLACK
6
CONTINUOUS
10
53.3454999999999941
20
-66.0390039999999914
11
53.3454999999999941
21
-66.0390000000000015
0
LINE
8
BLACK
6
CONTINUOUS
10
53.3454999999999941
20
-66.0390000000000015
11
53.3406269999999978
21
-66.0019819999999982
0
LINE
8
BLACK
6
CONTINUOUS
10
53.3406269999999978
20
-66.0019819999999982
11
53.3404999999999987
21
-66.000040999999996
0
LINE
8
BLACK
6
CONTINUOUS
10
53.3404999999999987
20
-66.000040999999996
11
53.3404999999999987
21
-65.8655689999999936
0
LINE
8
BLACK
6
CONTINUOUS
10
53.3404999999999987
20
-65.8655689999999936
11
53.3404989999999941
21
-65.8655589999999904
0
LINE
8
BLACK
6
CONTINUOUS
10
53.3404989999999941
20
-65.8655589999999904
11
53.337461999999995
21
-65.8502919999999961
0
LINE
8
BLACK
6
CONTINUOUS
10
53.337461999999995
20
-65.8502919999999961
11
53.3312609999999978
21
-65.819113999999999
0
LINE
8
BLACK
6
CONTINUOUS
10
53.3312609999999978
20
-65.819113999999999
11
53.2960639999999941
21
-65.7664369999999963
0
LINE
8
BLACK
6
CONTINUOUS
10
53.2960639999999941
20
-65.7664369999999963
11
53.2433869999999985
21
-65.7312399999999997
0
LINE
8
BLACK
6
CONTINUOUS
10
53.2433869999999985
20
-65.7312399999999997
11
53.196942
21
-65.7219999999999942
0
LINE
8
BLACK
6
CONTINUOUS
10
53.196942
20
-65.7219999999999942
11
53.1969360000000009
21
-65.7219999999999942
0
LINE
8
BLACK
6
CONTINUOUS
10
53.1969360000000009
20
-65.7219999999999942
11
53.0624599999999944
21
-65.7219999999999942
0
LINE
8
BLACK
6
CONTINUOUS
10
53.0624599999999944
20
-65.7219999999999942
11
53.0605179999999947
21
-65.7218730000000022
0
LINE
8
BLACK
6
CONTINUOUS
10
53.0605179999999947
20
-65.7218730000000022
11
53.0409329999999954
21
-65.7192939999999908
0
LINE
8
BLACK
6
CONTINUOUS
10
53.0409329999999954
20
-65.7192939999999908
11
53.0310739999999967
21
-65.713600999999997
0
LINE
8
BLACK
6
CONTINUOUS
10
53.0310739999999967
20
-65.713600999999997
11
53.0279999999999987
21
-65.7045459999999935
0
LINE
8
BLACK
6
CONTINUOUS
10
53.0279999999999987
20
-65.7045459999999935
11
53.0279999999999987
21
-63.2566950000000006
0
LINE
8
BLACK
6
CONTINUOUS
10
53.0279999999999987
20
-63.2566950000000006
11
53.0323569999999975
21
-63.2461769999999959
0
LINE
8
BLACK
6
CONTINUOUS
10
53.0323569999999975
20
-63.2461769999999959
11
53.244926999999997
21
-63.0336069999999964
0
LINE
8
BLACK
6
CONTINUOUS
10
53.244926999999997
20
-63.0336069999999964
11
53.2554449999999946
21
-63.0292499999999976
0
LINE
8
BLACK
6
CONTINUOUS
10
53.2554449999999946
20
-63.0292499999999976
11
54.3770549999999986
21
-63.0292499999999976
0
LINE
8
BLACK
6
CONTINUOUS
10
54.3770549999999986
20
-63.0292499999999976
11
54.3875729999999962
21
-63.0336069999999964
0
LINE
8
BLACK
6
CONTINUOUS
10
54.3875729999999962
20
-63.0336069999999964
11
54.6001429999999957
21
-63.2461769999999959
0
LINE
8
BLACK
6
CONTINUOUS
10
54.6001429999999957
20
-63.2461769999999959
11
54.6044999999999945
21
-63.2566950000000006
0
LINE
8
BLACK
6
CONTINUOUS
10
54.6044999999999945
20
-63.2566950000000006
11
54.6044999999999945
21
-64.7710000000000008
0
LINE
8
BLACK
6
CONTINUOUS
10
54.6044999999999945
20
-64.7710000000000008
11
54.6093720000000005
21
-64.8080180000000041
0
LINE
8
BLACK
6
CONTINUOUS
10
54.6093720000000005
20
-64.8080180000000041
11
54.6093729999999979
21
-64.8080240000000032
0
LINE
8
BLACK
6
CONTINUOUS
10
54.6093729999999979
20
-64.8080240000000032
11
54.609499999999997
21
-64.8099649999999912
0
LINE
8
BLACK
6
CONTINUOUS
10
54.609499999999997
20
-64.8099649999999912
11
54.609499999999997
21
-64.944429999999997
0
LINE
8
BLACK
6
CONTINUOUS
10
54.609499999999997
20
-64.944429999999997
11
54.6095009999999945
21
-64.9444400000000002
0
LINE
8
BLACK
6
CONTINUOUS
10
54.6095009999999945
20
-64.9444400000000002
11
54.6187399999999954
21
-64.9908860000000033
0
LINE
8
BLACK
6
CONTINUOUS
10
54.6187399999999954
20
-64.9908860000000033
11
54.6539369999999991
21
-65.0435629999999918
0
LINE
8
BLACK
6
CONTINUOUS
10
54.6539369999999991
20
-65.0435629999999918
11
54.7066139999999947
21
-65.0787600000000026
0
LINE
8
BLACK
6
CONTINUOUS
10
54.7066139999999947
20
-65.0787600000000026
11
54.7377859999999998
21
-65.0849599999999953
0
LINE
8
BLACK
6
CONTINUOUS
10
54.7377859999999998
20
-65.0849599999999953
11
54.7530579999999958
21
-65.0879989999999964
0
LINE
8
BLACK
6
CONTINUOUS
10
54.7530579999999958
20
-65.0879989999999964
11
54.7530599999999978
21
-65.0879989999999964
0
LINE
8
BLACK
6
CONTINUOUS
10
54.7530599999999978
20
-65.0879989999999964
11
54.7530649999999994
21
-65.0879999999999939
0
LINE
8
BLACK
6
CONTINUOUS
10
54.7530649999999994
20
-65.0879999999999939
11
54.8875369999999947
21
-65.0879989999999964
0
LINE
8
BLACK
6
CONTINUOUS
10
54.8875369999999947
20
-65.0879989999999964
11
54.8894779999999969
21
-65.0881260000000026
0
LINE
8
BLACK
6
CONTINUOUS
10
54.8894779999999969
20
-65.0881260000000026
11
54.8948429999999945
21
-65.0888319999999965
0
LINE
8
BLACK
6
CONTINUOUS
10
54.8948429999999945
20
-65.0888319999999965
11
54.9264999999999972
21
-65.0930000000000035
0
LINE
8
BLACK
6
CONTINUOUS
10
54.9264999999999972
20
-65.0930000000000035
11
54.9265039999999942
21
-65.0930000000000035
0
LINE
8
BLACK
6
CONTINUOUS
10
54.9265039999999942
20
-65.0930000000000035
11
55.2459959999999981
21
-65.0930000000000035
0
LINE
8
BLACK
6
CONTINUOUS
10
55.2459959999999981
20
-65.0930000000000035
11
55.2459999999999951
21
-65.0930000000000035
0
LINE
8
BLACK
6
CONTINUOUS
10
55.2459999999999951
20
-65.0930000000000035
11
55.283023
21
-65.0881249999999909
0
LINE
8
BLACK
6
CONTINUOUS
10
55.283023
20
-65.0881249999999909
11
55.2849639999999951
21
-65.0879989999999964
0
LINE
8
BLACK
6
CONTINUOUS
10
55.2849639999999951
20
-65.0879989999999964
11
55.4194309999999959
21
-65.0879989999999964
0
LINE
8
BLACK
6
CONTINUOUS
10
55.4194309999999959
20
-65.0879989999999964
11
55.4194339999999954
21
-65.0879989999999964
0
LINE
8
BLACK
6
CONTINUOUS
10
55.4194339999999954
20
-65.0879989999999964
11
55.419436999999995
21
-65.0879979999999989
0
LINE
8
BLACK
6
CONTINUOUS
10
55.419436999999995
20
-65.0879979999999989
11
55.4194399999999945
21
-65.0879979999999989
0
LINE
8
BLACK
6
CONTINUOUS
10
55.4194399999999945
20
-65.0879979999999989
11
55.4269649999999956
21
-65.0865009999999984
0
LINE
8
BLACK
6
CONTINUOUS
10
55.4269649999999956
20
-65.0865009999999984
11
55.4658859999999976
21
-65.0787600000000026
0
LINE
8
BLACK
6
CONTINUOUS
10
55.4658859999999976
20
-65.0787600000000026
11
55.5185630000000003
21
-65.0435629999999918
0
LINE
8
BLACK
6
CONTINUOUS
10
55.5185630000000003
20
-65.0435629999999918
11
55.5537599999999969
21
-64.9908860000000033
0
LINE
8
BLACK
6
CONTINUOUS
10
55.5537599999999969
20
-64.9908860000000033
11
55.5629999999999953
21
-64.9444349999999986
0
LINE
8
BLACK
6
CONTINUOUS
10
55.5629999999999953
20
-64.9444349999999986
11
55.5629989999999978
21
-64.8099589999999921
0
LINE
8
BLACK
6
CONTINUOUS
10
55.5629989999999978
20
-64.8099589999999921
11
55.5631259999999969
21
-64.8080180000000041
0
LINE
8
BLACK
6
CONTINUOUS
10
55.5631259999999969
20
-64.8080180000000041
11
55.5679999999999978
21
-64.7710000000000008
0
LINE
8
BLACK
6
CONTINUOUS
10
55.5679999999999978
20
-64.7710000000000008
11
55.5679999999999978
21
-62.930341999999996
0
LINE
8
BLACK
6
CONTINUOUS
10
55.5679999999999978
20
-62.930341999999996
11
55.5665949999999995
21
-62.9089039999999997
0
LINE
8
BLACK
6
CONTINUOUS
10
55.5665949999999995
20
-62.9089039999999997
11
55.5612199999999987
21
-62.8680749999999975
0
LINE
8
BLACK
6
CONTINUOUS
10
55.5612199999999987
20
-62.8680749999999975
11
55.5406189999999995
21
-62.8073869999999985
0
LINE
8
BLACK
6
CONTINUOUS
10
55.5406189999999995
20
-62.8073869999999985
11
55.5083379999999948
21
-62.7514759999999967
0
LINE
8
BLACK
6
CONTINUOUS
10
55.5083379999999948
20
-62.7514759999999967
11
55.4997959999999964
21
-62.7366799999999998
0
LINE
8
BLACK
6
CONTINUOUS
10
55.4997959999999964
20
-62.7366799999999998
11
55.4997939999999943
21
-62.7366770000000002
0
LINE
8
BLACK
6
CONTINUOUS
10
55.4997939999999943
20
-62.7366770000000002
11
55.4997899999999973
21
-62.7366699999999966
0
LINE
8
BLACK
6
CONTINUOUS
10
55.4997899999999973
20
-62.7366699999999966
11
55.4860839999999982
21
-62.7188079999999957
0
LINE
8
BLACK
6
CONTINUOUS
10
55.4860839999999982
20
-62.7188079999999957
11
55.4736879999999957
21
-62.702652999999998
0
LINE
8
BLACK
6
CONTINUOUS
10
55.4736879999999957
20
-62.702652999999998
11
54.9311030000000002
21
-62.160069
0
LINE
8
BLACK
6
CONTINUOUS
10
54.9311030000000002
20
-62.160069
11
54.9310799999999944
21
-62.1600469999999987
0
LINE
8
BLACK
6
CONTINUOUS
10
54.9310799999999944
20
-62.1600469999999987
11
54.9149409999999989
21
-62.1458929999999938
0
LINE
8
BLACK
6
CONTINUOUS
10
54.9149409999999989
20
-62.1458929999999938
11
54.8822779999999995
21
-62.1208290000000005
0
LINE
8
BLACK
6
CONTINUOUS
10
54.8822779999999995
20
-62.1208290000000005
11
54.8822699999999983
21
-62.1208239999999989
0
LINE
8
BLACK
6
CONTINUOUS
10
54.8822699999999983
20
-62.1208239999999989
11
54.8247909999999976
21
-62.0924789999999973
0
LINE
8
BLACK
6
CONTINUOUS
10
54.8247909999999976
20
-62.0924789999999973
11
54.8247919999999951
21
-62.0924789999999973
0
LINE
8
BLACK
6
CONTINUOUS
10
54.8247919999999951
20
-62.0924789999999973
11
54.7459190000000007
21
-62.0713459999999984
0
LINE
8
BLACK
6
CONTINUOUS
10
54.7459190000000007
20
-62.0713459999999984
11
54.7352899999999991
21
-62.0699469999999991
0
LINE
8
BLACK
6
CONTINUOUS
10
54.7352899999999991
20
-62.0699469999999991
11
54.703407999999996
21
-62.0657499999999942
0
LINE
8
BLACK
6
CONTINUOUS
10
54.703407999999996
20
-62.0657499999999942
11
52.9290919999999971
21
-62.0657499999999942
0
LINE
8
BLACK
6
CONTINUOUS
10
52.9290919999999971
20
-62.0657499999999942
11
52.9290880000000001
21
-62.0657499999999942
0
LINE
8
BLACK
6
CONTINUOUS
10
52.9290880000000001
20
-62.0657499999999942
11
52.9076499999999967
21
-62.0671549999999996
0
LINE
8
BLACK
6
CONTINUOUS
10
52.9076499999999967
20
-62.0671549999999996
11
52.8758189999999999
21
-62.0713459999999984
0
LINE
8
BLACK
6
CONTINUOUS
10
52.8758189999999999
20
-62.0713459999999984
11
52.8668249999999986
21
-62.0725300000000004
0
LINE
8
BLACK
6
CONTINUOUS
10
52.8668249999999986
20
-62.0725300000000004
11
52.8364809999999991
21
-62.0828299999999942
0
LINE
8
BLACK
6
CONTINUOUS
10
52.8364809999999991
20
-62.0828299999999942
11
52.8061359999999951
21
-62.0931309999999996
0
LINE
8
BLACK
6
CONTINUOUS
10
52.8061359999999951
20
-62.0931309999999996
11
52.7354300000000009
21
-62.1339529999999982
0
LINE
8
BLACK
6
CONTINUOUS
10
52.7354300000000009
20
-62.1339529999999982
11
52.7354179999999957
21
-62.1339609999999993
0
LINE
8
BLACK
6
CONTINUOUS
10
52.7354179999999957
20
-62.1339609999999993
11
52.7014029999999991
21
-62.1600609999999989
0
LINE
8
BLACK
6
CONTINUOUS
10
52.7014029999999991
20
-62.1600609999999989
11
52.1588190000000012
21
-62.7026459999999943
0
LINE
8
BLACK
6
CONTINUOUS
10
52.1588190000000012
20
-62.7026459999999943
11
52.1587969999999999
21
-62.7026690000000002
0
LINE
8
BLACK
6
CONTINUOUS
10
52.1587969999999999
20
-62.7026690000000002
11
52.144642999999995
21
-62.7188079999999957
0
LINE
8
BLACK
6
CONTINUOUS
10
52.144642999999995
20
-62.7188079999999957
11
52.1195789999999946
21
-62.7514709999999951
0
LINE
8
BLACK
6
CONTINUOUS
10
52.1195789999999946
20
-62.7514709999999951
11
52.1195740000000001
21
-62.7514789999999962
0
LINE
8
BLACK
6
CONTINUOUS
10
52.1195740000000001
20
-62.7514789999999962
11
52.0912289999999985
21
-62.8089569999999995
0
LINE
8
BLACK
6
CONTINUOUS
10
52.0912289999999985
20
-62.8089569999999995
11
52.0700959999999995
21
-62.8878299999999939
0
LINE
8
BLACK
6
CONTINUOUS
10
52.0700959999999995
20
-62.8878299999999939
11
52.0644999999999953
21
-62.9303439999999981
0
LINE
8
BLACK
6
CONTINUOUS
10
52.0644999999999953
20
-62.9303439999999981
11
52.0644999999999953
21
-68.0888750000000016
0
LINE
8
BLACK
6
CONTINUOUS
10
52.0644999999999953
20
-68.0888750000000016
11
52.0601429999999965
21
-68.0993929999999921
0
LINE
8
BLACK
6
CONTINUOUS
10
52.0601429999999965
20
-68.0993929999999921
11
52.0496249999999989
21
-68.1037499999999909
0
LINE
8
BLACK
6
CONTINUOUS
10
52.0496249999999989
20
-68.1037499999999909
11
51.2916249999999962
21
-68.1037499999999909
0
LINE
8
BLACK
6
CONTINUOUS
10
51.2916249999999962
20
-68.1037499999999909
11
51.2811069999999987
21
-68.0993929999999921
0
LINE
8
BLACK
6
CONTINUOUS
10
51.2811069999999987
20
-68.0993929999999921
11
51.2767499999999998
21
-68.0888750000000016
0
LINE
8
BLACK
6
CONTINUOUS
10
51.2767499999999998
20
-68.0888750000000016
11
51.2767499999999998
21
-55.4690919999999963
0
LINE
8
BLACK
6
CONTINUOUS
10
51.2767499999999998
20
-55.4690919999999963
11
51.2767499999999998
21
-53.8316249999999954
0
LINE
8
BLACK
6
CONTINUOUS
10
51.2767499999999998
20
-53.8316249999999954
11
51.2811069999999987
21
-53.8211069999999978
0
LINE
8
BLACK
6
CONTINUOUS
10
51.2811069999999987
20
-53.8211069999999978
11
51.2916249999999962
21
-53.816749999999999
0
LINE
8
BLACK
6
CONTINUOUS
10
51.2916249999999962
20
-53.816749999999999
11
76.3433749999999947
21
-53.816749999999999
0
LINE
8
BLACK
6
CONTINUOUS
10
76.3433749999999947
20
-53.816749999999999
11
76.3538929999999993
21
-53.8211069999999978
0
LINE
8
BLACK
6
CONTINUOUS
10
52.0644999999999953
20
-59.0559999999999974
11
52.0693719999999942
21
-59.0930180000000007
0
LINE
8
BLACK
6
CONTINUOUS
10
52.0693719999999942
20
-59.0930180000000007
11
52.0693729999999988
21
-59.0930239999999998
0
LINE
8
BLACK
6
CONTINUOUS
10
52.0693729999999988
20
-59.0930239999999998
11
52.0694999999999979
21
-59.0949649999999949
0
LINE
8
BLACK
6
CONTINUOUS
10
52.0694999999999979
20
-59.0949649999999949
11
52.0694999999999979
21
-59.2294300000000007
0
LINE
8
BLACK
6
CONTINUOUS
10
52.0694999999999979
20
-59.2294300000000007
11
52.0695009999999954
21
-59.2294399999999968
0
LINE
8
BLACK
6
CONTINUOUS
10
52.0695009999999954
20
-59.2294399999999968
11
52.0787399999999963
21
-59.2758859999999999
0
LINE
8
BLACK
6
CONTINUOUS
10
52.0787399999999963
20
-59.2758859999999999
11
52.113937
21
-59.3285629999999955
0
LINE
8
BLACK
6
CONTINUOUS
10
52.113937
20
-59.3285629999999955
11
52.1666139999999956
21
-59.3637599999999992
0
LINE
8
BLACK
6
CONTINUOUS
10
52.1666139999999956
20
-59.3637599999999992
11
52.1950829999999968
21
-59.3694229999999976
0
LINE
8
BLACK
6
CONTINUOUS
10
52.1950829999999968
20
-59.3694229999999976
11
52.2130579999999966
21
-59.3729990000000001
0
LINE
8
BLACK
6
CONTINUOUS
10
52.2130579999999966
20
-59.3729990000000001
11
52.2130599999999987
21
-59.3729990000000001
0
LINE
8
BLACK
6
CONTINUOUS
10
52.2130599999999987
20
-59.3729990000000001
11
52.2130650000000003
21
-59.3729999999999976
0
LINE
8
BLACK
6
CONTINUOUS
10
52.2130650000000003
20
-59.3729999999999976
11
52.3475369999999955
21
-59.3729990000000001
0
LINE
8
BLACK
6
CONTINUOUS
10
52.3475369999999955
20
-59.3729990000000001
11
52.3494779999999977
21
-59.3731259999999992
0
LINE
8
BLACK
6
CONTINUOUS
10
52.3494779999999977
20
-59.3731259999999992
11
52.3548429999999954
21
-59.3738320000000002
0
LINE
8
BLACK
6
CONTINUOUS
10
52.3548429999999954
20
-59.3738320000000002
11
52.3864999999999981
21
-59.3780000000000001
0
LINE
8
BLACK
6
CONTINUOUS
10
52.3864999999999981
20
-59.3780000000000001
11
52.3865039999999951
21
-59.3780000000000001
0
LINE
8
BLACK
6
CONTINUOUS
10
52.3865039999999951
20
-59.3780000000000001
11
53.975995999999995
21
-59.3780000000000001
0
LINE
8
BLACK
6
CONTINUOUS
10
53.975995999999995
20
-59.3780000000000001
11
53.9759999999999991
21
-59.3780000000000001
0
LINE
8
BLACK
6
CONTINUOUS
10
53.9759999999999991
20
-59.3780000000000001
11
54.0130229999999969
21
-59.3731249999999946
0
LINE
8
BLACK
6
CONTINUOUS
10
54.0130229999999969
20
-59.3731249999999946
11
54.0149639999999991
21
-59.3729990000000001
0
LINE
8
BLACK
6
CONTINUOUS
10
54.0149639999999991
20
-59.3729990000000001
11
54.1494309999999999
21
-59.3729990000000001
0
LINE
8
BLACK
6
CONTINUOUS
10
54.1494309999999999
20
-59.3729990000000001
11
54.1494339999999994
21
-59.3729990000000001
0
LINE
8
BLACK
6
CONTINUOUS
10
54.1494339999999994
20
-59.3729990000000001
11
54.1494369999999989
21
-59.3729979999999955
0
LINE
8
BLACK
6
CONTINUOUS
10
54.1494369999999989
20
-59.3729979999999955
11
54.1494399999999985
21
-59.3729979999999955
0
LINE
8
BLACK
6
CONTINUOUS
10
54.1494399999999985
20
-59.3729979999999955
11
54.1569649999999996
21
-59.371500999999995
0
LINE
8
BLACK
6
CONTINUOUS
10
54.1569649999999996
20
-59.371500999999995
11
54.1958859999999945
21
-59.3637599999999992
0
LINE
8
BLACK
6
CONTINUOUS
10
54.1958859999999945
20
-59.3637599999999992
11
54.2485629999999972
21
-59.3285629999999955
0
LINE
8
BLACK
6
CONTINUOUS
10
54.2485629999999972
20
-59.3285629999999955
11
54.2837600000000009
21
-59.2758859999999999
0
LINE
8
BLACK
6
CONTINUOUS
10
54.2837600000000009
20
-59.2758859999999999
11
54.2929999999999993
21
-59.2294349999999952
0
LINE
8
BLACK
6
CONTINUOUS
10
54.2929999999999993
20
-59.2294349999999952
11
54.2929989999999947
21
-59.0949589999999958
0
LINE
8
BLACK
6
CONTINUOUS
10
54.2929989999999947
20
-59.0949589999999958
11
54.2931260000000009
21
-59.0930180000000007
0
LINE
8
BLACK
6
CONTINUOUS
10
54.2931260000000009
20
-59.0930180000000007
11
54.2979999999999947
21
-59.0559999999999974
0
LINE
8
BLACK
6
CONTINUOUS
10
54.2979999999999947
20
-59.0559999999999974
11
54.2979999999999947
21
-58.0090919999999954
0
LINE
8
BLACK
6
CONTINUOUS
10
54.2979999999999947
20
-58.0090919999999954
11
54.2965949999999964
21
-57.9876539999999991
0
LINE
8
BLACK
6
CONTINUOUS
10
54.2965949999999964
20
-57.9876539999999991
11
54.2931249999999963
21
-57.9613019999999963
0
LINE
8
BLACK
6
CONTINUOUS
10
54.2931249999999963
20
-57.9613019999999963
11
54.2929989999999947
21
-57.9593609999999941
0
LINE
8
BLACK
6
CONTINUOUS
10
54.2929989999999947
20
-57.9593609999999941
11
54.2929989999999947
21
-57.9280690000000007
0
LINE
8
BLACK
6
CONTINUOUS
10
54.2929989999999947
20
-57.9280690000000007
11
54.2929979999999972
21
-57.9280589999999975
0
LINE
8
BLACK
6
CONTINUOUS
10
54.2929979999999972
20
-57.9280589999999975
11
54.2899609999999981
21
-57.9127919999999961
0
LINE
8
BLACK
6
CONTINUOUS
10
54.2899609999999981
20
-57.9127919999999961
11
54.2837600000000009
21
-57.881613999999999
0
LINE
8
BLACK
6
CONTINUOUS
10
54.2837600000000009
20
-57.881613999999999
11
54.2485629999999972
21
-57.8289369999999963
0
LINE
8
BLACK
6
CONTINUOUS
10
54.2485629999999972
20
-57.8289369999999963
11
54.2333629999999971
21
-57.8187799999999967
0
LINE
8
BLACK
6
CONTINUOUS
10
54.2333629999999971
20
-57.8187799999999967
11
54.2298270000000002
21
-57.8154669999999982
0
LINE
8
BLACK
6
CONTINUOUS
10
54.2298270000000002
20
-57.8154669999999982
11
54.2036879999999996
21
-57.7814029999999974
0
LINE
8
BLACK
6
CONTINUOUS
10
54.2036879999999996
20
-57.7814029999999974
11
53.3498570000000001
21
-56.9275719999999978
0
LINE
8
BLACK
6
CONTINUOUS
10
53.3498570000000001
20
-56.9275719999999978
11
53.3454999999999941
21
-56.9170540000000003
0
LINE
8
BLACK
6
CONTINUOUS
10
53.3454999999999941
20
-56.9170540000000003
11
53.3454999999999941
21
-55.7954450000000008
0
LINE
8
BLACK
6
CONTINUOUS
10
53.3454999999999941
20
-55.7954450000000008
11
53.3498570000000001
21
-55.7849269999999962
0
LINE
8
BLACK
6
CONTINUOUS
10
53.3498570000000001
20
-55.7849269999999962
11
53.4036769999999947
21
-55.7311069999999944
0
LINE
8
BLACK
6
CONTINUOUS
10
53.4036769999999947
20
-55.7311069999999944
11
53.4141949999999994
21
-55.7267499999999956
0
LINE
8
BLACK
6
CONTINUOUS
10
53.4141949999999994
20
-55.7267499999999956
11
54.4227699999999999
21
-55.7267499999999956
0
LINE
8
BLACK
6
CONTINUOUS
10
54.4227699999999999
20
-55.7267499999999956
11
54.4308069999999944
21
-55.7265519999999981
0
LINE
8
BLACK
6
CONTINUOUS
10
54.4308069999999944
20
-55.7265519999999981
11
54.4308249999999987
21
-55.7265510000000006
0
LINE
8
BLACK
6
CONTINUOUS
10
54.4308249999999987
20
-55.7265510000000006
11
54.4308289999999957
21
-55.7265510000000006
0
LINE
8
BLACK
6
CONTINUOUS
10
54.4308289999999957
20
-55.7265510000000006
11
54.4365749999999977
21
-55.726267
0
LINE
8
BLACK
6
CONTINUOUS
10
54.4365749999999977
20
-55.726267
11
54.437306999999997
21
-55.7262500000000003
0
LINE
8
BLACK
6
CONTINUOUS
10
54.437306999999997
20
-55.7262500000000003
11
54.4512489999999971
21
-55.7262500000000003
0
LINE
8
BLACK
6
CONTINUOUS
10
54.4512489999999971
20
-55.7262500000000003
11
54.4512489999999971
21
-55.7212499999999977
0
LINE
8
BLACK
6
CONTINUOUS
10
54.4512489999999971
20
-55.7212499999999977
11
55.4037489999999977
21
-55.7212499999999977
0
LINE
8
BLACK
6
CONTINUOUS
10
55.4037489999999977
20
-55.7212499999999977
11
55.4037489999999977
21
-55.7262500000000003
0
LINE
8
BLACK
6
CONTINUOUS
10
55.4037489999999977
20
-55.7262500000000003
11
55.4176929999999999
21
-55.7262500000000003
0
LINE
8
BLACK
6
CONTINUOUS
10
55.4176929999999999
20
-55.7262500000000003
11
55.4184199999999976
21
-55.726267
0
LINE
8
BLACK
6
CONTINUOUS
10
55.4184199999999976
20
-55.726267
11
55.4242069999999956
21
-55.7265519999999981
0
LINE
8
BLACK
6
CONTINUOUS
10
55.4242069999999956
20
-55.7265519999999981
11
55.4322599999999994
21
-55.7267499999999956
0
LINE
8
BLACK
6
CONTINUOUS
10
55.4322599999999994
20
-55.7267499999999956
11
58.663304999999994
21
-55.7267499999999956
0
LINE
8
BLACK
6
CONTINUOUS
10
58.663304999999994
20
-55.7267499999999956
11
58.6738229999999987
21
-55.7311069999999944
0
LINE
8
BLACK
6
CONTINUOUS
10
58.6738229999999987
20
-55.7311069999999944
11
59.2038930000000008
21
-56.2611769999999964
0
LINE
8
BLACK
6
CONTINUOUS
10
59.2038930000000008
20
-56.2611769999999964
11
59.2082499999999996
21
-56.271694999999994
0
LINE
8
BLACK
6
CONTINUOUS
10
59.2082499999999996
20
-56.271694999999994
11
59.2082499999999996
21
-59.307157999999994
0
LINE
8
BLACK
6
CONTINUOUS
10
59.2082499999999996
20
-59.307157999999994
11
59.2096549999999979
21
-59.3285959999999974
0
LINE
8
BLACK
6
CONTINUOUS
10
59.2096549999999979
20
-59.3285959999999974
11
59.2150299999999987
21
-59.3694249999999997
0
LINE
8
BLACK
6
CONTINUOUS
10
59.2150299999999987
20
-59.3694249999999997
11
59.2179409999999962
21
-59.3779989999999955
0
LINE
8
BLACK
6
CONTINUOUS
10
59.2179409999999962
20
-59.3779989999999955
11
59.2356309999999979
21
-59.4301129999999986
0
LINE
8
BLACK
6
CONTINUOUS
10
59.2356309999999979
20
-59.4301129999999986
11
59.2764529999999965
21
-59.5008189999999999
0
LINE
8
BLACK
6
CONTINUOUS
10
59.2764529999999965
20
-59.5008189999999999
11
59.2764609999999976
21
-59.500830999999998
0
LINE
8
BLACK
6
CONTINUOUS
10
59.2764609999999976
20
-59.500830999999998
11
59.3025609999999972
21
-59.5348459999999946
0
LINE
8
BLACK
6
CONTINUOUS
10
59.3025609999999972
20
-59.5348459999999946
11
60.7963929999999948
21
-61.0286769999999947
0
LINE
8
BLACK
6
CONTINUOUS
10
60.7963929999999948
20
-61.0286769999999947
11
60.8007500000000007
21
-61.0391949999999994
0
LINE
8
BLACK
6
CONTINUOUS
10
60.8007500000000007
20
-61.0391949999999994
11
60.8007500000000007
21
-61.1344319999999968
0
LINE
8
BLACK
6
CONTINUOUS
10
60.8007500000000007
20
-61.1344319999999968
11
60.8007509999999982
21
-61.1344329999999943
0
LINE
8
BLACK
6
CONTINUOUS
10
60.8007509999999982
20
-61.1344329999999943
11
60.8009640000000005
21
-61.1355029999999999
0
LINE
8
BLACK
6
CONTINUOUS
10
60.8009640000000005
20
-61.1355029999999999
11
60.801249999999996
21
-61.1384079999999983
0
LINE
8
BLACK
6
CONTINUOUS
10
60.801249999999996
20
-61.1384079999999983
11
60.801249999999996
21
-61.5746249999999975
0
LINE
8
BLACK
6
CONTINUOUS
10
60.801249999999996
20
-61.5746249999999975
11
60.7968929999999972
21
-61.5851429999999951
0
LINE
8
BLACK
6
CONTINUOUS
10
60.7968929999999972
20
-61.5851429999999951
11
60.7863749999999996
21
-61.5894999999999939
0
LINE
8
BLACK
6
CONTINUOUS
10
60.7863749999999996
20
-61.5894999999999939
11
60.240444999999994
21
-61.5894999999999939
0
LINE
8
BLACK
6
CONTINUOUS
10
60.240444999999994
20
-61.5894999999999939
11
60.2299269999999964
21
-61.5851429999999951
0
LINE
8
BLACK
6
CONTINUOUS
10
60.2299269999999964
20
-61.5851429999999951
11
58.7411029999999954
21
-60.096318999999994
0
LINE
8
BLACK
6
CONTINUOUS
10
58.7411029999999954
20
-60.096318999999994
11
58.7410799999999966
21
-60.0962969999999999
0
LINE
8
BLACK
6
CONTINUOUS
10
58.7410799999999966
20
-60.0962969999999999
11
58.7249409999999941
21
-60.082142999999995
0
LINE
8
BLACK
6
CONTINUOUS
10
58.7249409999999941
20
-60.082142999999995
11
58.7046019999999942
21
-60.0665369999999967
0
LINE
8
BLACK
6
CONTINUOUS
10
58.7046019999999942
20
-60.0665369999999967
11
58.7012909999999977
21
-60.0630019999999973
0
LINE
8
BLACK
6
CONTINUOUS
10
58.7012909999999977
20
-60.0630019999999973
11
58.6935629999999975
21
-60.0514359999999954
0
LINE
8
BLACK
6
CONTINUOUS
10
58.6935629999999975
20
-60.0514359999999954
11
58.6408859999999947
21
-60.0162389999999988
0
LINE
8
BLACK
6
CONTINUOUS
10
58.6408859999999947
20
-60.0162389999999988
11
58.5944409999999962
21
-60.0069990000000004
0
LINE
8
BLACK
6
CONTINUOUS
10
58.5944409999999962
20
-60.0069990000000004
11
58.5944349999999972
21
-60.0069990000000004
0
LINE
8
BLACK
6
CONTINUOUS
10
58.5944349999999972
20
-60.0069990000000004
11
58.5523589999999956
21
-60.0069990000000004
0
LINE
8
BLACK
6
CONTINUOUS
10
58.5523589999999956
20
-60.0069990000000004
11
58.5504180000000005
21
-60.0068719999999942
0
LINE
8
BLACK
6
CONTINUOUS
10
58.5504180000000005
20
-60.0068719999999942
11
58.5134079999999983
21
-60.0019999999999953
0
LINE
8
BLACK
6
CONTINUOUS
10
58.5134079999999983
20
-60.0019999999999953
11
57.4664999999999964
21
-60.0019999999999953
0
LINE
8
BLACK
6
CONTINUOUS
10
57.4664999999999964
20
-60.0019999999999953
11
57.4382839999999959
21
-60.0057130000000001
0
LINE
8
BLACK
6
CONTINUOUS
10
57.4382839999999959
20
-60.0057130000000001
11
57.4294820000000001
21
-60.0068719999999942
0
LINE
8
BLACK
6
CONTINUOUS
10
57.4294820000000001
20
-60.0068719999999942
11
57.427540999999998
21
-60.0069990000000004
0
LINE
8
BLACK
6
CONTINUOUS
10
57.427540999999998
20
-60.0069990000000004
11
57.2930689999999956
21
-60.0069990000000004
0
LINE
8
BLACK
6
CONTINUOUS
10
57.2930689999999956
20
-60.0069990000000004
11
57.2930589999999995
21
-60.0069999999999979
0
LINE
8
BLACK
6
CONTINUOUS
10
57.2930589999999995
20
-60.0069999999999979
11
57.2466129999999964
21
-60.0162389999999988
0
LINE
8
BLACK
6
CONTINUOUS
10
57.2466129999999964
20
-60.0162389999999988
11
57.1939369999999982
21
-60.0514359999999954
0
LINE
8
BLACK
6
CONTINUOUS
10
57.1939369999999982
20
-60.0514359999999954
11
57.1587399999999946
21
-60.1041120000000006
0
LINE
8
BLACK
6
CONTINUOUS
10
57.1587399999999946
20
-60.1041120000000006
11
57.1494999999999962
21
-60.1505569999999992
0
LINE
8
BLACK
6
CONTINUOUS
10
57.1494999999999962
20
-60.1505569999999992
11
57.1494999999999962
21
-60.2850389999999976
0
LINE
8
BLACK
6
CONTINUOUS
10
57.1494999999999962
20
-60.2850389999999976
11
57.1493729999999971
21
-60.2869799999999998
0
LINE
8
BLACK
6
CONTINUOUS
10
57.1493729999999971
20
-60.2869799999999998
11
57.1445000000000007
21
-60.3239999999999981
0
LINE
8
BLACK
6
CONTINUOUS
10
57.1445000000000007
20
-60.3239999999999981
11
57.1445000000000007
21
-62.5484999999999971
0
LINE
8
BLACK
6
CONTINUOUS
10
57.1445000000000007
20
-62.5484999999999971
11
57.1493729999999971
21
-62.5855239999999995
0
LINE
8
BLACK
6
CONTINUOUS
10
57.1493729999999971
20
-62.5855239999999995
11
57.1494999999999962
21
-62.5874649999999946
0
LINE
8
BLACK
6
CONTINUOUS
10
57.1494999999999962
20
-62.5874649999999946
11
57.1494999999999962
21
-62.7219309999999979
0
LINE
8
BLACK
6
CONTINUOUS
10
57.1494999999999962
20
-62.7219309999999979
11
57.1495010000000008
21
-62.7219409999999939
0
LINE
8
BLACK
6
CONTINUOUS
10
57.1495010000000008
20
-62.7219409999999939
11
57.1553769999999943
21
-62.7514789999999962
0
LINE
8
BLACK
6
CONTINUOUS
10
57.1553769999999943
20
-62.7514789999999962
11
57.1587399999999946
21
-62.768386999999997
0
LINE
8
BLACK
6
CONTINUOUS
10
57.1587399999999946
20
-62.768386999999997
11
57.1939369999999982
21
-62.8210639999999998
0
LINE
8
BLACK
6
CONTINUOUS
10
57.1939369999999982
20
-62.8210639999999998
11
57.2466139999999939
21
-62.8562609999999964
0
LINE
8
BLACK
6
CONTINUOUS
10
57.2466139999999939
20
-62.8562609999999964
11
57.277785999999999
21
-62.8624609999999961
0
LINE
8
BLACK
6
CONTINUOUS
10
57.277785999999999
20
-62.8624609999999961
11
57.2930579999999949
21
-62.8654999999999973
0
LINE
8
BLACK
6
CONTINUOUS
10
57.2930579999999949
20
-62.8654999999999973
11
57.293059999999997
21
-62.8654999999999973
0
LINE
8
BLACK
6
CONTINUOUS
10
57.293059999999997
20
-62.8654999999999973
11
57.2930649999999986
21
-62.8655009999999947
0
LINE
8
BLACK
6
CONTINUOUS
10
57.2930649999999986
20
-62.8655009999999947
11
57.4275459999999995
21
-62.8654999999999973
0
LINE
8
BLACK
6
CONTINUOUS
10
57.4275459999999995
20
-62.8654999999999973
11
57.4294869999999946
21
-62.8656269999999964
0
LINE
8
BLACK
6
CONTINUOUS
10
57.4294869999999946
20
-62.8656269999999964
11
57.4347489999999965
21
-62.8663189999999972
0
LINE
8
BLACK
6
CONTINUOUS
10
57.4347489999999965
20
-62.8663189999999972
11
57.4664999999999964
21
-62.8704999999999998
0
LINE
8
BLACK
6
CONTINUOUS
10
57.4664999999999964
20
-62.8704999999999998
11
60.0920549999999949
21
-62.8704999999999998
0
LINE
8
BLACK
6
CONTINUOUS
10
60.0920549999999949
20
-62.8704999999999998
11
60.1025729999999996
21
-62.8748569999999987
0
LINE
8
BLACK
6
CONTINUOUS
10
60.1025729999999996
20
-62.8748569999999987
11
60.4793929999999946
21
-63.2516769999999937
0
LINE
8
BLACK
6
CONTINUOUS
10
60.4793929999999946
20
-63.2516769999999937
11
60.4837500000000006
21
-63.2621949999999984
0
LINE
8
BLACK
6
CONTINUOUS
10
60.4837500000000006
20
-63.2621949999999984
11
60.4837500000000006
21
-63.9762500000000003
0
LINE
8
BLACK
6
CONTINUOUS
10
60.4837500000000006
20
-63.9762500000000003
11
60.801249999999996
21
-64.2937500000000028
0
LINE
8
BLACK
6
CONTINUOUS
10
60.801249999999996
20
-64.2937500000000028
11
63.3412499999999952
21
-64.2937500000000028
0
LINE
8
BLACK
6
CONTINUOUS
10
63.3412499999999952
20
-64.2937500000000028
11
63.6587499999999977
21
-63.9762500000000003
0
LINE
8
BLACK
6
CONTINUOUS
10
63.6587499999999977
20
-63.9762500000000003
11
63.6587499999999977
21
-58.6584450000000004
0
LINE
8
BLACK
6
CONTINUOUS
10
63.6587499999999977
20
-58.6584450000000004
11
63.6631069999999966
21
-58.6479269999999957
0
LINE
8
BLACK
6
CONTINUOUS
10
63.6631069999999966
20
-58.6479269999999957
11
64.4820979999999935
21
-57.8289359999999988
0
LINE
8
BLACK
6
CONTINUOUS
10
64.4820979999999935
20
-57.8289359999999988
11
65.3161879999999968
21
-56.9948459999999955
0
LINE
8
BLACK
6
CONTINUOUS
10
65.3161879999999968
20
-56.9948459999999955
11
65.3303530000000023
21
-56.9786949999999948
0
LINE
8
BLACK
6
CONTINUOUS
10
65.3303530000000023
20
-56.9786949999999948
11
65.3554230000000018
21
-56.9460239999999942
0
LINE
8
BLACK
6
CONTINUOUS
10
65.3554230000000018
20
-56.9460239999999942
11
65.3837699999999984
21
-56.8885429999999985
0
LINE
8
BLACK
6
CONTINUOUS
10
65.3837699999999984
20
-56.8885429999999985
11
65.4049040000000019
21
-56.8096679999999949
0
LINE
8
BLACK
6
CONTINUOUS
10
65.4049040000000019
20
-56.8096679999999949
11
65.410499999999999
21
-56.7671579999999949
0
LINE
8
BLACK
6
CONTINUOUS
10
65.410499999999999
20
-56.7671579999999949
11
65.410499999999999
21
-54.6089999999999947
0
LINE
8
BLACK
6
CONTINUOUS
10
65.410499999999999
20
-54.6089999999999947
11
65.405625999999998
21
-54.5719739999999973
0
LINE
8
BLACK
6
CONTINUOUS
10
65.405625999999998
20
-54.5719739999999973
11
65.4054989999999918
21
-54.5700329999999951
0
LINE
8
BLACK
6
CONTINUOUS
10
65.4054989999999918
20
-54.5700329999999951
11
65.4054989999999918
21
-54.435569000000001
0
LINE
8
BLACK
6
CONTINUOUS
10
65.4054989999999918
20
-54.435569000000001
11
65.4054979999999944
21
-54.4355589999999978
0
LINE
8
BLACK
6
CONTINUOUS
10
65.4054979999999944
20
-54.4355589999999978
11
65.4024610000000024
21
-54.4202919999999963
0
LINE
8
BLACK
6
CONTINUOUS
10
65.4024610000000024
20
-54.4202919999999963
11
65.3962599999999981
21
-54.3891139999999993
0
LINE
8
BLACK
6
CONTINUOUS
10
65.3962599999999981
20
-54.3891139999999993
11
65.3610630000000015
21
-54.3364369999999965
0
LINE
8
BLACK
6
CONTINUOUS
10
65.3610630000000015
20
-54.3364369999999965
11
65.3083859999999987
21
-54.30124
0
LINE
8
BLACK
6
CONTINUOUS
10
65.3083859999999987
20
-54.30124
11
65.2619409999999931
21
-54.2919999999999945
0
LINE
8
BLACK
6
CONTINUOUS
10
65.2619409999999931
20
-54.2919999999999945
11
65.261934999999994
21
-54.2919999999999945
0
LINE
8
BLACK
6
CONTINUOUS
10
65.261934999999994
20
-54.2919999999999945
11
65.1274590000000018
21
-54.2919999999999945
0
LINE
8
BLACK
6
CONTINUOUS
10
65.1274590000000018
20
-54.2919999999999945
11
65.1255179999999996
21
-54.2918729999999954
0
LINE
8
BLACK
6
CONTINUOUS
10
65.1255179999999996
20
-54.2918729999999954
11
65.0884999999999962
21
-54.286999999999999
0
LINE
8
BLACK
6
CONTINUOUS
10
65.0884999999999962
20
-54.286999999999999
11
64.4514999999999958
21
-54.286999999999999
0
LINE
8
BLACK
6
CONTINUOUS
10
64.4514999999999958
20
-54.286999999999999
11
64.4144749999999959
21
-54.2918729999999954
0
LINE
8
BLACK
6
CONTINUOUS
10
64.4144749999999959
20
-54.2918729999999954
11
64.4125339999999937
21
-54.2919999999999945
0
LINE
8
BLACK
6
CONTINUOUS
10
64.4125339999999937
20
-54.2919999999999945
11
64.2780690000000021
21
-54.2919999999999945
0
LINE
8
BLACK
6
CONTINUOUS
10
64.2780690000000021
20
-54.2919999999999945
11
64.2780589999999989
21
-54.2920009999999991
0
LINE
8
BLACK
6
CONTINUOUS
10
64.2780589999999989
20
-54.2920009999999991
11
64.2316129999999958
21
-54.30124
0
LINE
8
BLACK
6
CONTINUOUS
10
64.2316129999999958
20
-54.30124
11
64.1789369999999906
21
-54.3364369999999965
0
LINE
8
BLACK
6
CONTINUOUS
10
64.1789369999999906
20
-54.3364369999999965
11
64.143739999999994
21
-54.3891129999999947
0
LINE
8
BLACK
6
CONTINUOUS
10
64.143739999999994
20
-54.3891129999999947
11
64.1345000000000027
21
-54.4355580000000003
0
LINE
8
BLACK
6
CONTINUOUS
10
64.1345000000000027
20
-54.4355580000000003
11
64.1345000000000027
21
-54.5700389999999942
0
LINE
8
BLACK
6
CONTINUOUS
10
64.1345000000000027
20
-54.5700389999999942
11
64.1343729999999965
21
-54.5719799999999964
0
LINE
8
BLACK
6
CONTINUOUS
10
64.1343729999999965
20
-54.5719799999999964
11
64.1294999999999931
21
-54.6090019999999967
0
LINE
8
BLACK
6
CONTINUOUS
10
64.1294999999999931
20
-54.6090019999999967
11
64.1294999999999931
21
-55.8058049999999994
0
LINE
8
BLACK
6
CONTINUOUS
10
64.1294999999999931
20
-55.8058049999999994
11
64.1251429999999942
21
-55.816322999999997
0
LINE
8
BLACK
6
CONTINUOUS
10
64.1251429999999942
20
-55.816322999999997
11
63.4363229999999945
21
-56.5051429999999968
0
LINE
8
BLACK
6
CONTINUOUS
10
63.4363229999999945
20
-56.5051429999999968
11
63.4258049999999969
21
-56.5094999999999956
0
LINE
8
BLACK
6
CONTINUOUS
10
63.4258049999999969
20
-56.5094999999999956
11
61.1177499999999938
21
-56.5094999999999956
0
LINE
8
BLACK
6
CONTINUOUS
10
61.1177499999999938
20
-56.5094999999999956
11
61.0807249999999939
21
-56.5143729999999991
0
LINE
8
BLACK
6
CONTINUOUS
10
61.0807249999999939
20
-56.5143729999999991
11
61.0787839999999989
21
-56.5144999999999982
0
LINE
8
BLACK
6
CONTINUOUS
10
61.0787839999999989
20
-56.5144999999999982
11
60.9443190000000001
21
-56.5144999999999982
0
LINE
8
BLACK
6
CONTINUOUS
10
60.9443190000000001
20
-56.5144999999999982
11
60.944310999999999
21
-56.5145009999999957
0
LINE
8
BLACK
6
CONTINUOUS
10
60.944310999999999
20
-56.5145009999999957
11
60.9432449999999974
21
-56.5147139999999979
0
LINE
8
BLACK
6
CONTINUOUS
10
60.9432449999999974
20
-56.5147139999999979
11
60.940341999999994
21
-56.5150000000000006
0
LINE
8
BLACK
6
CONTINUOUS
10
60.940341999999994
20
-56.5150000000000006
11
60.5041249999999948
21
-56.5150000000000006
0
LINE
8
BLACK
6
CONTINUOUS
10
60.5041249999999948
20
-56.5150000000000006
11
60.4936069999999972
21
-56.5106429999999946
0
LINE
8
BLACK
6
CONTINUOUS
10
60.4936069999999972
20
-56.5106429999999946
11
60.4892499999999984
21
-56.500124999999997
0
LINE
8
BLACK
6
CONTINUOUS
10
60.4892499999999984
20
-56.500124999999997
11
60.4892499999999984
21
-55.945342999999994
0
LINE
8
BLACK
6
CONTINUOUS
10
60.4892499999999984
20
-55.945342999999994
11
60.4892499999999984
21
-55.9453419999999966
0
LINE
8
BLACK
6
CONTINUOUS
10
60.4892499999999984
20
-55.9453419999999966
11
60.4878450000000001
21
-55.9239040000000003
0
LINE
8
BLACK
6
CONTINUOUS
10
60.4878450000000001
20
-55.9239040000000003
11
60.4824699999999993
21
-55.8830749999999981
0
LINE
8
BLACK
6
CONTINUOUS
10
60.4824699999999993
20
-55.8830749999999981
11
60.4618690000000001
21
-55.8223869999999991
0
LINE
8
BLACK
6
CONTINUOUS
10
60.4618690000000001
20
-55.8223869999999991
11
60.4210399999999979
21
-55.7516699999999972
0
LINE
8
BLACK
6
CONTINUOUS
10
60.4210399999999979
20
-55.7516699999999972
11
60.401765999999995
21
-55.7265519999999981
0
LINE
8
BLACK
6
CONTINUOUS
10
60.401765999999995
20
-55.7265519999999981
11
60.3949379999999962
21
-55.7176529999999985
0
LINE
8
BLACK
6
CONTINUOUS
10
60.3949379999999962
20
-55.7176529999999985
11
59.2173529999999957
21
-54.5400689999999955
0
LINE
8
BLACK
6
CONTINUOUS
10
59.2173529999999957
20
-54.5400689999999955
11
59.2173299999999969
21
-54.5400469999999942
0
LINE
8
BLACK
6
CONTINUOUS
10
59.2173299999999969
20
-54.5400469999999942
11
59.2011909999999943
21
-54.5258929999999964
0
LINE
8
BLACK
6
CONTINUOUS
10
59.2011909999999943
20
-54.5258929999999964
11
59.1685279999999949
21
-54.500828999999996
0
LINE
8
BLACK
6
CONTINUOUS
10
59.1685279999999949
20
-54.500828999999996
11
59.1685199999999938
21
-54.5008239999999944
0
LINE
8
BLACK
6
CONTINUOUS
10
59.1685199999999938
20
-54.5008239999999944
11
59.1110410000000002
21
-54.4724789999999999
0
LINE
8
BLACK
6
CONTINUOUS
10
59.1110410000000002
20
-54.4724789999999999
11
59.1110419999999976
21
-54.4724789999999999
0
LINE
8
BLACK
6
CONTINUOUS
10
59.1110419999999976
20
-54.4724789999999999
11
59.0321689999999961
21
-54.4513460000000009
0
LINE
8
BLACK
6
CONTINUOUS
10
59.0321689999999961
20
-54.4513460000000009
11
59.0215399999999946
21
-54.4499469999999945
0
LINE
8
BLACK
6
CONTINUOUS
10
59.0215399999999946
20
-54.4499469999999945
11
58.9896579999999986
21
-54.4457499999999968
0
LINE
8
BLACK
6
CONTINUOUS
10
58.9896579999999986
20
-54.4457499999999968
11
53.0878419999999949
21
-54.4457499999999968
0
LINE
8
BLACK
6
CONTINUOUS
10
53.0878419999999949
20
-54.4457499999999968
11
53.0878379999999979
21
-54.4457499999999968
0
LINE
8
BLACK
6
CONTINUOUS
10
53.0878379999999979
20
-54.4457499999999968
11
53.0663999999999945
21
-54.4471549999999951
0
LINE
8
BLACK
6
CONTINUOUS
10
53.0663999999999945
20
-54.4471549999999951
11
53.0345689999999976
21
-54.4513460000000009
0
LINE
8
BLACK
6
CONTINUOUS
10
53.0345689999999976
20
-54.4513460000000009
11
53.0255749999999964
21
-54.4525299999999959
0
LINE
8
BLACK
6
CONTINUOUS
10
53.0255749999999964
20
-54.4525299999999959
11
52.9952309999999969
21
-54.4628299999999967
0
LINE
8
BLACK
6
CONTINUOUS
10
52.9952309999999969
20
-54.4628299999999967
11
52.9648859999999999
21
-54.4731309999999951
0
LINE
8
BLACK
6
CONTINUOUS
10
52.9648859999999999
20
-54.4731309999999951
11
52.8941799999999986
21
-54.5139530000000008
0
LINE
8
BLACK
6
CONTINUOUS
10
52.8941799999999986
20
-54.5139530000000008
11
52.8941680000000005
21
-54.5139609999999948
0
LINE
8
BLACK
6
CONTINUOUS
10
52.8941680000000005
20
-54.5139609999999948
11
52.8601529999999968
21
-54.5400609999999944
0
LINE
8
BLACK
6
CONTINUOUS
10
52.8601529999999968
20
-54.5400609999999944
11
52.1588190000000012
21
-55.2413959999999946
0
LINE
8
BLACK
6
CONTINUOUS
10
52.1588190000000012
20
-55.2413959999999946
11
52.1587969999999999
21
-55.2414190000000005
0
LINE
8
BLACK
6
CONTINUOUS
10
52.1587969999999999
20
-55.2414190000000005
11
52.144642999999995
21
-55.257557999999996
0
LINE
8
BLACK
6
CONTINUOUS
10
52.144642999999995
20
-55.257557999999996
11
52.1195789999999946
21
-55.2902209999999954
0
LINE
8
BLACK
6
CONTINUOUS
10
52.1195789999999946
20
-55.2902209999999954
11
52.1195740000000001
21
-55.2902289999999965
0
LINE
8
BLACK
6
CONTINUOUS
10
52.1195740000000001
20
-55.2902289999999965
11
52.0912289999999985
21
-55.3477069999999998
0
LINE
8
BLACK
6
CONTINUOUS
10
52.0912289999999985
20
-55.3477069999999998
11
52.0700959999999995
21
-55.4265799999999942
0
LINE
8
BLACK
6
CONTINUOUS
10
52.0700959999999995
20
-55.4265799999999942
11
52.0700959999999995
21
-55.4265819999999962
0
LINE
8
BLACK
6
CONTINUOUS
10
52.0700959999999995
20
-55.4265819999999962
11
52.0644999999999953
21
-55.4690919999999963
0
LINE
8
BLACK
6
CONTINUOUS
10
52.0644999999999953
20
-55.4690919999999963
11
52.0644999999999953
21
-59.0559999999999974
0
LINE
8
BLACK
6
CONTINUOUS
10
65.577816999999996
20
-75.0404379999999946
11
65.577818999999991
21
-75.0404419999999988
0
LINE
8
BLACK
6
CONTINUOUS
10
65.577818999999991
20
-75.0404419999999988
11
65.6338870000000014
21
-75.1375560000000036
0
LINE
8
BLACK
6
CONTINUOUS
10
65.6338870000000014
20
-75.1375560000000036
11
65.6338879999999989
21
-75.137557000000001
0
LINE
8
BLACK
6
CONTINUOUS
10
65.6338879999999989
20
-75.137557000000001
11
65.6338899999999938
21
-75.1375599999999935
0
LINE
8
BLACK
6
CONTINUOUS
10
65.6338899999999938
20
-75.1375599999999935
11
65.7197969999999998
21
-75.2096449999999948
0
LINE
8
BLACK
6
CONTINUOUS
10
65.7197969999999998
20
-75.2096449999999948
11
65.7724869999999981
21
-75.2288219999999939
0
LINE
8
BLACK
6
CONTINUOUS
10
65.7724869999999981
20
-75.2288219999999939
11
65.8251769999999965
21
-75.2479999999999905
0
LINE
8
BLACK
6
CONTINUOUS
10
65.8251769999999965
20
-75.2479999999999905
11
65.825177999999994
21
-75.2479999999999905
0
LINE
8
BLACK
6
CONTINUOUS
10
65.825177999999994
20
-75.2479999999999905
11
65.9373219999999947
21
-75.2479999999999905
0
LINE
8
BLACK
6
CONTINUOUS
10
65.9373219999999947
20
-75.2479999999999905
11
66.042703000000003
21
-75.2096449999999948
0
LINE
8
BLACK
6
CONTINUOUS
10
66.042703000000003
20
-75.2096449999999948
11
66.1286099999999948
21
-75.1375599999999935
0
LINE
8
BLACK
6
CONTINUOUS
10
66.1286099999999948
20
-75.1375599999999935
11
66.1846819999999951
21
-75.0404399999999896
0
LINE
8
BLACK
6
CONTINUOUS
10
66.1846819999999951
20
-75.0404399999999896
11
66.2041559999999976
21
-74.9299999999999926
0
LINE
8
BLACK
6
CONTINUOUS
10
66.2041559999999976
20
-74.9299999999999926
11
66.1846819999999951
21
-74.8195599999999956
0
LINE
8
BLACK
6
CONTINUOUS
10
66.1846819999999951
20
-74.8195599999999956
11
66.1286099999999948
21
-74.7224399999999918
0
LINE
8
BLACK
6
CONTINUOUS
10
66.1286099999999948
20
-74.7224399999999918
11
66.042703000000003
21
-74.6503549999999905
0
LINE
8
BLACK
6
CONTINUOUS
10
66.042703000000003
20
-74.6503549999999905
11
66.0427009999999939
21
-74.650353999999993
0
LINE
8
BLACK
6
CONTINUOUS
10
66.0427009999999939
20
-74.650353999999993
11
65.9373229999999921
21
-74.6119999999999948
0
LINE
8
BLACK
6
CONTINUOUS
10
65.9373229999999921
20
-74.6119999999999948
11
65.9373219999999947
21
-74.6119999999999948
0
LINE
8
BLACK
6
CONTINUOUS
10
65.9373219999999947
20
-74.6119999999999948
11
65.825177999999994
21
-74.6119999999999948
0
LINE
8
BLACK
6
CONTINUOUS
10
65.825177999999994
20
-74.6119999999999948
11
65.8251769999999965
21
-74.6119999999999948
0
LINE
8
BLACK
6
CONTINUOUS
10
65.8251769999999965
20
-74.6119999999999948
11
65.7197979999999973
21
-74.650353999999993
0
LINE
8
BLACK
6
CONTINUOUS
10
65.7197979999999973
20
-74.650353999999993
11
65.6338879999999989
21
-74.7224420000000009
0
LINE
8
BLACK
6
CONTINUOUS
10
65.6338879999999989
20
-74.7224420000000009
11
65.6338870000000014
21
-74.7224429999999984
0
LINE
8
BLACK
6
CONTINUOUS
10
65.6338870000000014
20
-74.7224429999999984
11
65.577818999999991
21
-74.8195570000000032
0
LINE
8
BLACK
6
CONTINUOUS
10
65.577818999999991
20
-74.8195570000000032
11
65.577816999999996
21
-74.8195609999999931
0
LINE
8
BLACK
6
CONTINUOUS
10
65.577816999999996
20
-74.8195609999999931
11
65.5583439999999911
21
-74.9299999999999926
0
LINE
8
BLACK
6
CONTINUOUS
10
65.5583439999999911
20
-74.9299999999999926
11
65.577816999999996
21
-75.0404379999999946
0
LINE
8
BLACK
6
CONTINUOUS
10
72.245317
20
-75.0404379999999946
11
72.245318999999995
21
-75.0404419999999988
0
LINE
8
BLACK
6
CONTINUOUS
10
72.245318999999995
20
-75.0404419999999988
11
72.3013869999999912
21
-75.1375560000000036
0
LINE
8
BLACK
6
CONTINUOUS
10
72.3013869999999912
20
-75.1375560000000036
11
72.3013880000000029
21
-75.137557000000001
0
LINE
8
BLACK
6
CONTINUOUS
10
72.3013880000000029
20
-75.137557000000001
11
72.3013899999999978
21
-75.1375599999999935
0
LINE
8
BLACK
6
CONTINUOUS
10
72.3013899999999978
20
-75.1375599999999935
11
72.3872970000000038
21
-75.2096449999999948
0
LINE
8
BLACK
6
CONTINUOUS
10
72.3872970000000038
20
-75.2096449999999948
11
72.4399870000000021
21
-75.2288219999999939
0
LINE
8
BLACK
6
CONTINUOUS
10
72.4399870000000021
20
-75.2288219999999939
11
72.4926770000000005
21
-75.2479999999999905
0
LINE
8
BLACK
6
CONTINUOUS
10
72.4926770000000005
20
-75.2479999999999905
11
72.492677999999998
21
-75.2479999999999905
0
LINE
8
BLACK
6
CONTINUOUS
10
72.492677999999998
20
-75.2479999999999905
11
72.6048219999999986
21
-75.2479999999999905
0
LINE
8
BLACK
6
CONTINUOUS
10
72.6048219999999986
20
-75.2479999999999905
11
72.7102029999999928
21
-75.2096449999999948
0
LINE
8
BLACK
6
CONTINUOUS
10
72.7102029999999928
20
-75.2096449999999948
11
72.7961099999999988
21
-75.1375599999999935
0
LINE
8
BLACK
6
CONTINUOUS
10
72.7961099999999988
20
-75.1375599999999935
11
72.8521819999999991
21
-75.0404399999999896
0
LINE
8
BLACK
6
CONTINUOUS
10
72.8521819999999991
20
-75.0404399999999896
11
72.8716560000000015
21
-74.9299999999999926
0
LINE
8
BLACK
6
CONTINUOUS
10
72.8716560000000015
20
-74.9299999999999926
11
72.8521819999999991
21
-74.8195599999999956
0
LINE
8
BLACK
6
CONTINUOUS
10
72.8521819999999991
20
-74.8195599999999956
11
72.7961099999999988
21
-74.7224399999999918
0
LINE
8
BLACK
6
CONTINUOUS
10
72.7961099999999988
20
-74.7224399999999918
11
72.7102029999999928
21
-74.6503549999999905
0
LINE
8
BLACK
6
CONTINUOUS
10
72.7102029999999928
20
-74.6503549999999905
11
72.7102009999999979
21
-74.650353999999993
0
LINE
8
BLACK
6
CONTINUOUS
10
72.7102009999999979
20
-74.650353999999993
11
72.6048229999999961
21
-74.6119999999999948
0
LINE
8
BLACK
6
CONTINUOUS
10
72.6048229999999961
20
-74.6119999999999948
11
72.6048219999999986
21
-74.6119999999999948
0
LINE
8
BLACK
6
CONTINUOUS
10
72.6048219999999986
20
-74.6119999999999948
11
72.492677999999998
21
-74.6119999999999948
0
LINE
8
BLACK
6
CONTINUOUS
10
72.492677999999998
20
-74.6119999999999948
11
72.4926770000000005
21
-74.6119999999999948
0
LINE
8
BLACK
6
CONTINUOUS
10
72.4926770000000005
20
-74.6119999999999948
11
72.3872980000000013
21
-74.650353999999993
0
LINE
8
BLACK
6
CONTINUOUS
10
72.3872980000000013
20
-74.650353999999993
11
72.3013880000000029
21
-74.7224420000000009
0
LINE
8
BLACK
6
CONTINUOUS
10
72.3013880000000029
20
-74.7224420000000009
11
72.3013869999999912
21
-74.7224429999999984
0
LINE
8
BLACK
6
CONTINUOUS
10
72.3013869999999912
20
-74.7224429999999984
11
72.245318999999995
21
-74.8195570000000032
0
LINE
8
BLACK
6
CONTINUOUS
10
72.245318999999995
20
-74.8195570000000032
11
72.245317
21
-74.8195609999999931
0
LINE
8
BLACK
6
CONTINUOUS
10
72.245317
20
-74.8195609999999931
11
72.225843999999995
21
-74.9299999999999926
0
LINE
8
BLACK
6
CONTINUOUS
10
72.225843999999995
20
-74.9299999999999926
11
72.245317
21
-75.0404379999999946
0
LINE
8
BLACK
6
CONTINUOUS
10
58.5787499999999994
20
-64.1340000000000003
11
58.5787499999999994
21
-71.7560000000000002
0
LINE
8
BLACK
6
CONTINUOUS
10
58.5787499999999994
20
-71.7560000000000002
11
58.5673889999999986
21
-71.7984000000000009
0
LINE
8
BLACK
6
CONTINUOUS
10
58.5673889999999986
20
-71.7984000000000009
11
58.5787499999999994
21
-71.9137499999999932
0
LINE
8
BLACK
6
CONTINUOUS
10
58.5787499999999994
20
-71.9137499999999932
11
58.5604479999999938
21
-72.0995739999999898
0
LINE
8
BLACK
6
CONTINUOUS
10
58.5604479999999938
20
-72.0995739999999898
11
58.5062449999999998
21
-72.2782559999999989
0
LINE
8
BLACK
6
CONTINUOUS
10
58.5062449999999998
20
-72.2782559999999989
11
58.4182249999999996
21
-72.4429310000000015
0
LINE
8
BLACK
6
CONTINUOUS
10
58.4182249999999996
20
-72.4429310000000015
11
58.2997689999999977
21
-72.587268999999992
0
LINE
8
BLACK
6
CONTINUOUS
10
58.2997689999999977
20
-72.587268999999992
11
58.1554310000000001
21
-72.705725000000001
0
LINE
8
BLACK
6
CONTINUOUS
10
58.1554310000000001
20
-72.705725000000001
11
57.9907559999999975
21
-72.7937450000000013
0
LINE
8
BLACK
6
CONTINUOUS
10
57.9907559999999975
20
-72.7937450000000013
11
57.8120739999999955
21
-72.8479480000000024
0
LINE
8
BLACK
6
CONTINUOUS
10
57.8120739999999955
20
-72.8479480000000024
11
57.6262499999999989
21
-72.8662499999999937
0
LINE
8
BLACK
6
CONTINUOUS
10
57.6262499999999989
20
-72.8662499999999937
11
57.4404259999999951
21
-72.8479480000000024
0
LINE
8
BLACK
6
CONTINUOUS
10
57.4404259999999951
20
-72.8479480000000024
11
57.2617440000000002
21
-72.7937450000000013
0
LINE
8
BLACK
6
CONTINUOUS
10
57.2617440000000002
20
-72.7937450000000013
11
57.0970689999999976
21
-72.705725000000001
0
LINE
8
BLACK
6
CONTINUOUS
10
57.0970689999999976
20
-72.705725000000001
11
56.952731
21
-72.587268999999992
0
LINE
8
BLACK
6
CONTINUOUS
10
56.952731
20
-72.587268999999992
11
56.8342749999999981
21
-72.4429310000000015
0
LINE
8
BLACK
6
CONTINUOUS
10
56.8342749999999981
20
-72.4429310000000015
11
56.7462549999999979
21
-72.2782559999999989
0
LINE
8
BLACK
6
CONTINUOUS
10
56.7462549999999979
20
-72.2782559999999989
11
56.6920519999999968
21
-72.0995739999999898
0
LINE
8
BLACK
6
CONTINUOUS
10
56.6920519999999968
20
-72.0995739999999898
11
56.6737499999999983
21
-71.9137499999999932
0
LINE
8
BLACK
6
CONTINUOUS
10
56.6737499999999983
20
-71.9137499999999932
11
56.6851099999999946
21
-71.7984000000000009
0
LINE
8
BLACK
6
CONTINUOUS
10
56.6851099999999946
20
-71.7984000000000009
11
56.6737499999999983
21
-71.7560000000000002
0
LINE
8
BLACK
6
CONTINUOUS
10
56.6737499999999983
20
-71.7560000000000002
11
56.6737499999999983
21
-69.5314999999999941
0
LINE
8
BLACK
6
CONTINUOUS
10
56.6737499999999983
20
-69.5314999999999941
11
56.6851099999999946
21
-69.489098999999996
0
LINE
8
BLACK
6
CONTINUOUS
10
56.6851099999999946
20
-69.489098999999996
11
56.6737499999999983
21
-69.3737500000000011
0
LINE
8
BLACK
6
CONTINUOUS
10
56.6737499999999983
20
-69.3737500000000011
11
56.6920519999999968
21
-69.1879259999999903
0
LINE
8
BLACK
6
CONTINUOUS
10
56.6920519999999968
20
-69.1879259999999903
11
56.7462549999999979
21
-69.0092439999999954
0
LINE
8
BLACK
6
CONTINUOUS
10
56.7462549999999979
20
-69.0092439999999954
11
56.8342749999999981
21
-68.8445689999999928
0
LINE
8
BLACK
6
CONTINUOUS
10
56.8342749999999981
20
-68.8445689999999928
11
56.952731
21
-68.7002310000000023
0
LINE
8
BLACK
6
CONTINUOUS
10
56.952731
20
-68.7002310000000023
11
57.0970689999999976
21
-68.5817749999999933
0
LINE
8
BLACK
6
CONTINUOUS
10
57.0970689999999976
20
-68.5817749999999933
11
57.2617440000000002
21
-68.4937549999999931
0
LINE
8
BLACK
6
CONTINUOUS
10
57.2617440000000002
20
-68.4937549999999931
11
57.3087499999999963
21
-68.479495
0
LINE
8
BLACK
6
CONTINUOUS
10
57.3087499999999963
20
-68.479495
11
57.3087499999999963
21
-64.9287489999999963
0
LINE
8
BLACK
6
CONTINUOUS
10
57.3087499999999963
20
-64.9287489999999963
11
57.3087499999999963
21
-63.9762489999999957
0
LINE
8
BLACK
6
CONTINUOUS
10
57.3087499999999963
20
-63.9762489999999957
11
58.5787499999999994
21
-63.9762489999999957
0
LINE
8
BLACK
6
CONTINUOUS
10
58.5787499999999994
20
-63.9762489999999957
11
58.5787499999999994
21
-64.1340000000000003
0
LINE
8
BLACK
6
CONTINUOUS
10
70.48599999999999
20
-61.7537499999999966
11
70.8024999999999949
21
-61.7537499999999966
0
LINE
8
BLACK
6
CONTINUOUS
10
70.8024999999999949
20
-61.7537499999999966
11
70.8024999999999949
21
-63.6587499999999977
0
LINE
8
BLACK
6
CONTINUOUS
10
70.8024999999999949
20
-63.6587499999999977
11
70.48599999999999
21
-63.6587499999999977
0
LINE
8
BLACK
6
CONTINUOUS
10
70.48599999999999
20
-63.6587499999999977
11
67.46875
21
-63.6587499999999977
0
LINE
8
BLACK
6
CONTINUOUS
10
67.46875
20
-63.6587499999999977
11
66.8337499999999949
21
-64.2937500000000028
0
LINE
8
BLACK
6
CONTINUOUS
10
66.8337499999999949
20
-64.2937500000000028
11
66.8337499999999949
21
-68.3559079999999994
0
LINE
8
BLACK
6
CONTINUOUS
10
66.8337499999999949
20
-68.3559079999999994
11
66.8126159999999913
21
-68.4347829999999959
0
LINE
8
BLACK
6
CONTINUOUS
10
66.8126159999999913
20
-68.4347829999999959
11
66.7875459999999919
21
-68.4674540000000036
0
LINE
8
BLACK
6
CONTINUOUS
10
66.7875459999999919
20
-68.4674540000000036
11
64.9749539999999968
21
-70.2800459999999987
0
LINE
8
BLACK
6
CONTINUOUS
10
64.9749539999999968
20
-70.2800459999999987
11
64.9042369999999949
21
-70.3208750000000009
0
LINE
8
BLACK
6
CONTINUOUS
10
64.9042369999999949
20
-70.3208750000000009
11
64.8634079999999926
21
-70.3262500000000017
0
LINE
8
BLACK
6
CONTINUOUS
10
64.8634079999999926
20
-70.3262500000000017
11
63.0237499999999997
21
-70.3262500000000017
0
LINE
8
BLACK
6
CONTINUOUS
10
63.0237499999999997
20
-70.3262500000000017
11
61.016964999999999
21
-72.3330339999999978
0
LINE
8
BLACK
6
CONTINUOUS
10
61.016964999999999
20
-72.3330339999999978
11
60.9582249999999988
21
-72.4429310000000015
0
LINE
8
BLACK
6
CONTINUOUS
10
60.9582249999999988
20
-72.4429310000000015
11
60.8397689999999969
21
-72.587268999999992
0
LINE
8
BLACK
6
CONTINUOUS
10
60.8397689999999969
20
-72.587268999999992
11
60.6954309999999992
21
-72.705725000000001
0
LINE
8
BLACK
6
CONTINUOUS
10
60.6954309999999992
20
-72.705725000000001
11
60.5307559999999967
21
-72.7937450000000013
0
LINE
8
BLACK
6
CONTINUOUS
10
60.5307559999999967
20
-72.7937450000000013
11
60.3520739999999947
21
-72.8479480000000024
0
LINE
8
BLACK
6
CONTINUOUS
10
60.3520739999999947
20
-72.8479480000000024
11
60.166249999999998
21
-72.8662499999999937
0
LINE
8
BLACK
6
CONTINUOUS
10
60.166249999999998
20
-72.8662499999999937
11
59.9804259999999942
21
-72.8479480000000024
0
LINE
8
BLACK
6
CONTINUOUS
10
59.9804259999999942
20
-72.8479480000000024
11
59.8017439999999993
21
-72.7937450000000013
0
LINE
8
BLACK
6
CONTINUOUS
10
59.8017439999999993
20
-72.7937450000000013
11
59.6370689999999968
21
-72.705725000000001
0
LINE
8
BLACK
6
CONTINUOUS
10
59.6370689999999968
20
-72.705725000000001
11
59.4927309999999991
21
-72.587268999999992
0
LINE
8
BLACK
6
CONTINUOUS
10
59.4927309999999991
20
-72.587268999999992
11
59.3742749999999972
21
-72.4429310000000015
0
LINE
8
BLACK
6
CONTINUOUS
10
59.3742749999999972
20
-72.4429310000000015
11
59.286254999999997
21
-72.2782559999999989
0
LINE
8
BLACK
6
CONTINUOUS
10
59.286254999999997
20
-72.2782559999999989
11
59.2320519999999959
21
-72.0995739999999898
0
LINE
8
BLACK
6
CONTINUOUS
10
59.2320519999999959
20
-72.0995739999999898
11
59.2137499999999974
21
-71.9137499999999932
0
LINE
8
BLACK
6
CONTINUOUS
10
59.2137499999999974
20
-71.9137499999999932
11
59.2251100000000008
21
-71.7984000000000009
0
LINE
8
BLACK
6
CONTINUOUS
10
59.2251100000000008
20
-71.7984000000000009
11
59.2137499999999974
21
-71.7560000000000002
0
LINE
8
BLACK
6
CONTINUOUS
10
59.2137499999999974
20
-71.7560000000000002
11
59.2137499999999974
21
-69.5314999999999941
0
LINE
8
BLACK
6
CONTINUOUS
10
59.2137499999999974
20
-69.5314999999999941
11
59.2251100000000008
21
-69.489098999999996
0
LINE
8
BLACK
6
CONTINUOUS
10
59.2251100000000008
20
-69.489098999999996
11
59.2137499999999974
21
-69.3737500000000011
0
LINE
8
BLACK
6
CONTINUOUS
10
59.2137499999999974
20
-69.3737500000000011
11
59.2320519999999959
21
-69.1879259999999903
0
LINE
8
BLACK
6
CONTINUOUS
10
59.2320519999999959
20
-69.1879259999999903
11
59.286254999999997
21
-69.0092439999999954
0
LINE
8
BLACK
6
CONTINUOUS
10
59.286254999999997
20
-69.0092439999999954
11
59.3742749999999972
21
-68.8445689999999928
0
LINE
8
BLACK
6
CONTINUOUS
10
59.3742749999999972
20
-68.8445689999999928
11
59.4927309999999991
21
-68.7002310000000023
0
LINE
8
BLACK
6
CONTINUOUS
10
59.4927309999999991
20
-68.7002310000000023
11
59.6370689999999968
21
-68.5817749999999933
0
LINE
8
BLACK
6
CONTINUOUS
10
59.6370689999999968
20
-68.5817749999999933
11
59.8017439999999993
21
-68.4937549999999931
0
LINE
8
BLACK
6
CONTINUOUS
10
59.8017439999999993
20
-68.4937549999999931
11
59.9804259999999942
21
-68.4395519999999919
0
LINE
8
BLACK
6
CONTINUOUS
10
59.9804259999999942
20
-68.4395519999999919
11
60.166249999999998
21
-68.4212500000000006
0
LINE
8
BLACK
6
CONTINUOUS
10
60.166249999999998
20
-68.4212500000000006
11
60.2815989999999999
21
-68.4326099999999968
0
LINE
8
BLACK
6
CONTINUOUS
10
60.2815989999999999
20
-68.4326099999999968
11
60.3239999999999981
21
-68.4212500000000006
0
LINE
8
BLACK
6
CONTINUOUS
10
60.3239999999999981
20
-68.4212500000000006
11
64.2937500000000028
21
-68.4212500000000006
0
LINE
8
BLACK
6
CONTINUOUS
10
64.2937500000000028
20
-68.4212500000000006
11
64.9287499999999937
21
-67.7862499999999955
0
LINE
8
BLACK
6
CONTINUOUS
10
64.9287499999999937
20
-67.7862499999999955
11
64.9287499999999937
21
-63.7240919999999988
0
LINE
8
BLACK
6
CONTINUOUS
10
64.9287499999999937
20
-63.7240919999999988
11
64.9498839999999973
21
-63.6452169999999953
0
LINE
8
BLACK
6
CONTINUOUS
10
64.9498839999999973
20
-63.6452169999999953
11
64.9749539999999968
21
-63.6125459999999947
0
LINE
8
BLACK
6
CONTINUOUS
10
64.9749539999999968
20
-63.6125459999999947
11
66.7875459999999919
21
-61.7999539999999996
0
LINE
8
BLACK
6
CONTINUOUS
10
66.7875459999999919
20
-61.7999539999999996
11
66.8582629999999938
21
-61.7591249999999974
0
LINE
8
BLACK
6
CONTINUOUS
10
66.8582629999999938
20
-61.7591249999999974
11
66.899091999999996
21
-61.7537499999999966
0
LINE
8
BLACK
6
CONTINUOUS
10
66.899091999999996
20
-61.7537499999999966
11
68.1037499999999909
21
-61.7537499999999966
0
LINE
8
BLACK
6
CONTINUOUS
10
68.1037499999999909
20
-61.7537499999999966
11
70.48599999999999
21
-61.7537499999999966
0
LINE
8
BLACK
6
CONTINUOUS
10
67.46875
20
-54.6089999999999947
11
67.46875
21
-55.8799999999999955
0
LINE
8
BLACK
6
CONTINUOUS
10
67.46875
20
-55.8799999999999955
11
68.2625000000000028
21
-56.6737499999999983
0
LINE
8
BLACK
6
CONTINUOUS
10
68.2625000000000028
20
-56.6737499999999983
11
68.5799999999999983
21
-56.6737499999999983
0
LINE
8
BLACK
6
CONTINUOUS
10
68.5799999999999983
20
-56.6737499999999983
11
70.8024999999999949
21
-56.6737499999999983
0
LINE
8
BLACK
6
CONTINUOUS
10
70.8024999999999949
20
-56.6737499999999983
11
70.8024999999999949
21
-58.5787499999999994
0
LINE
8
BLACK
6
CONTINUOUS
10
70.8024999999999949
20
-58.5787499999999994
11
68.5799999999999983
21
-58.5787499999999994
0
LINE
8
BLACK
6
CONTINUOUS
10
68.5799999999999983
20
-58.5787499999999994
11
68.327842000000004
21
-58.5787499999999994
0
LINE
8
BLACK
6
CONTINUOUS
10
68.327842000000004
20
-58.5787499999999994
11
68.2489669999999933
21
-58.5576159999999959
0
LINE
8
BLACK
6
CONTINUOUS
10
68.2489669999999933
20
-58.5576159999999959
11
68.2162959999999998
21
-58.5325459999999964
0
LINE
8
BLACK
6
CONTINUOUS
10
68.2162959999999998
20
-58.5325459999999964
11
66.5624540000000025
21
-56.878703999999999
0
LINE
8
BLACK
6
CONTINUOUS
10
66.5624540000000025
20
-56.878703999999999
11
66.5216250000000002
21
-56.8079869999999971
0
LINE
8
BLACK
6
CONTINUOUS
10
66.5216250000000002
20
-56.8079869999999971
11
66.5162499999999994
21
-56.7671579999999949
0
LINE
8
BLACK
6
CONTINUOUS
10
66.5162499999999994
20
-56.7671579999999949
11
66.5162499999999994
21
-55.7212499999999977
0
LINE
8
BLACK
6
CONTINUOUS
10
66.5162499999999994
20
-55.7212499999999977
11
66.5162499999999994
21
-54.4512499999999946
0
LINE
8
BLACK
6
CONTINUOUS
10
66.5162499999999994
20
-54.4512499999999946
11
67.46875
21
-54.4512499999999946
0
LINE
8
BLACK
6
CONTINUOUS
10
67.46875
20
-54.4512499999999946
11
67.46875
21
-54.6089999999999947
0
LINE
8
BLACK
6
CONTINUOUS
10
65.9958159999999907
20
-74.7863380000000006
11
66.046802999999997
21
-74.8502739999999989
0
LINE
8
BLACK
6
CONTINUOUS
10
66.046802999999997
20
-74.8502739999999989
11
66.0649999999999977
21
-74.9299999999999926
0
LINE
8
BLACK
6
CONTINUOUS
10
66.0649999999999977
20
-74.9299999999999926
11
66.046802999999997
21
-75.0097260000000006
0
LINE
8
BLACK
6
CONTINUOUS
10
66.046802999999997
20
-75.0097260000000006
11
65.9958159999999907
21
-75.0736619999999988
0
LINE
8
BLACK
6
CONTINUOUS
10
65.9958159999999907
20
-75.0736619999999988
11
65.9221380000000039
21
-75.1091430000000031
0
LINE
8
BLACK
6
CONTINUOUS
10
65.9221380000000039
20
-75.1091430000000031
11
65.8403619999999989
21
-75.1091430000000031
0
LINE
8
BLACK
6
CONTINUOUS
10
65.8403619999999989
20
-75.1091430000000031
11
65.7666839999999979
21
-75.0736619999999988
0
LINE
8
BLACK
6
CONTINUOUS
10
65.7666839999999979
20
-75.0736619999999988
11
65.7156969999999916
21
-75.0097260000000006
0
LINE
8
BLACK
6
CONTINUOUS
10
65.7156969999999916
20
-75.0097260000000006
11
65.6974999999999909
21
-74.9299999999999926
0
LINE
8
BLACK
6
CONTINUOUS
10
65.6974999999999909
20
-74.9299999999999926
11
65.7156969999999916
21
-74.8502739999999989
0
LINE
8
BLACK
6
CONTINUOUS
10
65.7156969999999916
20
-74.8502739999999989
11
65.7666839999999979
21
-74.7863380000000006
0
LINE
8
BLACK
6
CONTINUOUS
10
65.7666839999999979
20
-74.7863380000000006
11
65.8403619999999989
21
-74.7508569999999963
0
LINE
8
BLACK
6
CONTINUOUS
10
65.8403619999999989
20
-74.7508569999999963
11
65.9221380000000039
21
-74.7508569999999963
0
LINE
8
BLACK
6
CONTINUOUS
10
65.9221380000000039
20
-74.7508569999999963
11
65.9958159999999907
21
-74.7863380000000006
0
LINE
8
BLACK
6
CONTINUOUS
10
65.7613329999999934
20
-74.9992340000000013
11
65.8120159999999998
21
-75.0499169999999935
0
LINE
8
BLACK
6
CONTINUOUS
10
65.8120159999999998
20
-75.0499169999999935
11
65.8812499999999943
21
-75.0684679999999958
0
LINE
8
BLACK
6
CONTINUOUS
10
65.8812499999999943
20
-75.0684679999999958
11
65.950484000000003
21
-75.0499169999999935
0
LINE
8
BLACK
6
CONTINUOUS
10
65.950484000000003
20
-75.0499169999999935
11
66.0011669999999953
21
-74.9992340000000013
0
LINE
8
BLACK
6
CONTINUOUS
10
66.0011669999999953
20
-74.9992340000000013
11
66.0197179999999975
21
-74.9299999999999926
0
LINE
8
BLACK
6
CONTINUOUS
10
66.0197179999999975
20
-74.9299999999999926
11
66.0011669999999953
21
-74.8607659999999981
0
LINE
8
BLACK
6
CONTINUOUS
10
66.0011669999999953
20
-74.8607659999999981
11
65.950484000000003
21
-74.8100829999999917
0
LINE
8
BLACK
6
CONTINUOUS
10
65.950484000000003
20
-74.8100829999999917
11
65.8812499999999943
21
-74.7915320000000037
0
LINE
8
BLACK
6
CONTINUOUS
10
65.8812499999999943
20
-74.7915320000000037
11
65.8120159999999998
21
-74.8100829999999917
0
LINE
8
BLACK
6
CONTINUOUS
10
65.8120159999999998
20
-74.8100829999999917
11
65.7613329999999934
21
-74.8607659999999981
0
LINE
8
BLACK
6
CONTINUOUS
10
65.7613329999999934
20
-74.8607659999999981
11
65.7427819999999912
21
-74.9299999999999926
0
LINE
8
BLACK
6
CONTINUOUS
10
65.7427819999999912
20
-74.9299999999999926
11
65.7613329999999934
21
-74.9992340000000013
0
LINE
8
BLACK
6
CONTINUOUS
10
72.6633159999999947
20
-74.7863380000000006
11
72.714303000000001
21
-74.8502739999999989
0
LINE
8
BLACK
6
CONTINUOUS
10
72.714303000000001
20
-74.8502739999999989
11
72.7325000000000017
21
-74.9299999999999926
0
LINE
8
BLACK
6
CONTINUOUS
10
72.7325000000000017
20
-74.9299999999999926
11
72.714303000000001
21
-75.0097260000000006
0
LINE
8
BLACK
6
CONTINUOUS
10
72.714303000000001
20
-75.0097260000000006
11
72.6633159999999947
21
-75.0736619999999988
0
LINE
8
BLACK
6
CONTINUOUS
10
72.6633159999999947
20
-75.0736619999999988
11
72.5896379999999937
21
-75.1091430000000031
0
LINE
8
BLACK
6
CONTINUOUS
10
72.5896379999999937
20
-75.1091430000000031
11
72.5078620000000029
21
-75.1091430000000031
0
LINE
8
BLACK
6
CONTINUOUS
10
72.5078620000000029
20
-75.1091430000000031
11
72.4341840000000019
21
-75.0736619999999988
0
LINE
8
BLACK
6
CONTINUOUS
10
72.4341840000000019
20
-75.0736619999999988
11
72.3831969999999956
21
-75.0097260000000006
0
LINE
8
BLACK
6
CONTINUOUS
10
72.3831969999999956
20
-75.0097260000000006
11
72.3649999999999949
21
-74.9299999999999926
0
LINE
8
BLACK
6
CONTINUOUS
10
72.3649999999999949
20
-74.9299999999999926
11
72.3831969999999956
21
-74.8502739999999989
0
LINE
8
BLACK
6
CONTINUOUS
10
72.3831969999999956
20
-74.8502739999999989
11
72.4341840000000019
21
-74.7863380000000006
0
LINE
8
BLACK
6
CONTINUOUS
10
72.4341840000000019
20
-74.7863380000000006
11
72.5078620000000029
21
-74.7508569999999963
0
LINE
8
BLACK
6
CONTINUOUS
10
72.5078620000000029
20
-74.7508569999999963
11
72.5896379999999937
21
-74.7508569999999963
0
LINE
8
BLACK
6
CONTINUOUS
10
72.5896379999999937
20
-74.7508569999999963
11
72.6633159999999947
21
-74.7863380000000006
0
LINE
8
BLACK
6
CONTINUOUS
10
72.4288329999999974
20
-74.9992340000000013
11
72.4795159999999896
21
-75.0499169999999935
0
LINE
8
BLACK
6
CONTINUOUS
10
72.4795159999999896
20
-75.0499169999999935
11
72.5487499999999983
21
-75.0684679999999958
0
LINE
8
BLACK
6
CONTINUOUS
10
72.5487499999999983
20
-75.0684679999999958
11
72.6179839999999928
21
-75.0499169999999935
0
LINE
8
BLACK
6
CONTINUOUS
10
72.6179839999999928
20
-75.0499169999999935
11
72.6686669999999992
21
-74.9992340000000013
0
LINE
8
BLACK
6
CONTINUOUS
10
72.6686669999999992
20
-74.9992340000000013
11
72.6872180000000014
21
-74.9299999999999926
0
LINE
8
BLACK
6
CONTINUOUS
10
72.6872180000000014
20
-74.9299999999999926
11
72.6686669999999992
21
-74.8607659999999981
0
LINE
8
BLACK
6
CONTINUOUS
10
72.6686669999999992
20
-74.8607659999999981
11
72.6179839999999928
21
-74.8100829999999917
0
LINE
8
BLACK
6
CONTINUOUS
10
72.6179839999999928
20
-74.8100829999999917
11
72.5487499999999983
21
-74.7915320000000037
0
LINE
8
BLACK
6
CONTINUOUS
10
72.5487499999999983
20
-74.7915320000000037
11
72.4795159999999896
21
-74.8100829999999917
0
LINE
8
BLACK
6
CONTINUOUS
10
72.4795159999999896
20
-74.8100829999999917
11
72.4288329999999974
21
-74.8607659999999981
0
LINE
8
BLACK
6
CONTINUOUS
10
72.4288329999999974
20
-74.8607659999999981
11
72.4102819999999952
21
-74.9299999999999926
0
LINE
8
BLACK
6
CONTINUOUS
10
72.4102819999999952
20
-74.9299999999999926
11
72.4288329999999974
21
-74.9992340000000013
0
LINE
8
BLACK
6
CONTINUOUS
10
76.5270670000000024
20
-53.6344029999999989
11
76.5405969999999911
21
-53.6479329999999948
0
LINE
8
BLACK
6
CONTINUOUS
10
76.5405969999999911
20
-53.6479329999999948
11
76.5424999999999898
21
-53.6574999999999989
0
LINE
8
BLACK
6
CONTINUOUS
10
76.5424999999999898
20
-53.6574999999999989
11
76.5424999999999898
21
-79.0574999999999903
0
LINE
8
BLACK
6
CONTINUOUS
10
76.5424999999999898
20
-79.0574999999999903
11
76.5405969999999911
21
-79.0670669999999944
0
LINE
8
BLACK
6
CONTINUOUS
10
76.5405969999999911
20
-79.0670669999999944
11
76.5270670000000024
21
-79.0805969999999974
0
LINE
8
BLACK
6
CONTINUOUS
10
76.5270670000000024
20
-79.0805969999999974
11
76.5174999999999983
21
-79.082499999999996
0
LINE
8
BLACK
6
CONTINUOUS
10
76.5174999999999983
20
-79.082499999999996
11
51.1174999999999997
21
-79.082499999999996
0
LINE
8
BLACK
6
CONTINUOUS
10
51.1174999999999997
20
-79.082499999999996
11
51.1079329999999956
21
-79.0805969999999974
0
LINE
8
BLACK
6
CONTINUOUS
10
51.1079329999999956
20
-79.0805969999999974
11
51.0944029999999998
21
-79.0670669999999944
0
LINE
8
BLACK
6
CONTINUOUS
10
51.0944029999999998
20
-79.0670669999999944
11
51.0925000000000011
21
-79.0574999999999903
0
LINE
8
BLACK
6
CONTINUOUS
10
51.0925000000000011
20
-79.0574999999999903
11
51.0925000000000011
21
-53.6574999999999989
0
LINE
8
BLACK
6
CONTINUOUS
10
51.0925000000000011
20
-53.6574999999999989
11
51.0944029999999998
21
-53.6479329999999948
0
LINE
8
BLACK
6
CONTINUOUS
10
51.0944029999999998
20
-53.6479329999999948
11
51.1079329999999956
21
-53.6344029999999989
0
LINE
8
BLACK
6
CONTINUOUS
10
51.1079329999999956
20
-53.6344029999999989
11
51.1174999999999997
21
-53.6325000000000003
0
LINE
8
BLACK
6
CONTINUOUS
10
51.1174999999999997
20
-53.6325000000000003
11
76.5174999999999983
21
-53.6325000000000003
0
LINE
8
BLACK
6
CONTINUOUS
10
76.5174999999999983
20
-53.6325000000000003
11
76.5270670000000024
21
-53.6344029999999989
0
LINE
8
BLACK
6
CONTINUOUS
10
51.1424999999999983
20
-53.6824999999999974
11
51.1424999999999983
21
-79.0324999999999989
0
LINE
8
BLACK
6
CONTINUOUS
10
51.1424999999999983
20
-79.0324999999999989
11
76.4924999999999926
21
-79.0324999999999989
0
LINE
8
BLACK
6
CONTINUOUS
10
76.4924999999999926
20
-79.0324999999999989
11
76.4924999999999926
21
-53.6824999999999974
0
LINE
8
BLACK
6
CONTINUOUS
10
76.4924999999999926
20
-53.6824999999999974
11
51.1424999999999983
21
-53.6824999999999974
  0
ENDSEC
  0
EOF
