M48
; DRILL file {KiCad 8.0.4} date 2025-04-29T13:50:51+0700
; FORMAT={-:-/ absolute / metric / decimal}
; #@! TF.CreationDate,2025-04-29T13:50:51+07:00
; #@! TF.GenerationSoftware,Kicad,Pcbnew,8.0.4
; #@! TF.FileFunction,Plated,1,2,PTH
FMAT,2
METRIC
; #@! TA.AperFunction,Plated,PTH,ComponentDrill
T1C0.700
; #@! TA.AperFunction,Plated,PTH,ComponentDrill
T2C0.750
; #@! TA.AperFunction,Plated,PTH,ComponentDrill
T3C0.800
; #@! TA.AperFunction,Plated,PTH,ComponentDrill
T4C1.000
; #@! TA.AperFunction,Plated,PTH,ComponentDrill
T5C1.100
; #@! TA.AperFunction,Plated,PTH,ComponentDrill
T6C1.200
; #@! TA.AperFunction,Plated,PTH,ComponentDrill
T7C1.500
%
G90
G05
T1
X100.965Y-82.55
X100.965Y-90.17
X103.505Y-82.55
X103.505Y-90.17
X118.745Y-82.55
X118.745Y-90.17
X127.635Y-98.742
X135.255Y-98.742
X143.192Y-98.742
X143.192Y-106.362
X150.812Y-98.742
X150.812Y-106.362
T2
X145.732Y-98.737
X145.732Y-106.358
X148.272Y-98.748
X148.272Y-106.367
T3
X98.465Y-77.47
X103.465Y-77.47
X107.315Y-77.47
X107.315Y-80.01
X107.315Y-82.55
X107.315Y-85.09
X108.625Y-90.17
X108.625Y-93.98
X113.625Y-90.17
X113.625Y-93.98
X114.935Y-77.47
X114.935Y-80.01
X114.935Y-82.55
X114.935Y-85.09
X140.017Y-100.052
X140.017Y-105.052
X153.987Y-100.052
X153.987Y-105.052
X157.797Y-100.052
X157.797Y-105.052
X160.972Y-88.9
X160.972Y-91.44
X160.972Y-93.98
T4
X98.425Y-69.532
X98.425Y-82.545
X98.425Y-90.165
X98.425Y-101.282
X98.425Y-103.822
X100.965Y-69.532
X100.965Y-101.282
X100.965Y-103.822
X103.505Y-101.282
X103.505Y-103.822
X106.045Y-101.282
X106.045Y-103.822
X107.315Y-87.63
X114.935Y-87.63
X116.205Y-93.98
X118.745Y-93.98
X122.0Y-93.98
X132.0Y-93.98
X135.255Y-93.98
X137.795Y-93.98
X153.352Y-93.98
X155.892Y-93.98
X166.052Y-93.98
X168.593Y-93.98
X169.862Y-101.282
X169.862Y-103.822
X174.942Y-101.282
X174.942Y-103.822
X180.022Y-101.282
X180.022Y-103.822
X185.42Y-97.235
X185.42Y-107.235
X190.817Y-97.235
X190.817Y-107.235
T5
X124.46Y-90.17
X127.0Y-90.17
X129.54Y-90.17
T6
X116.205Y-101.64
X116.205Y-106.64
X185.42Y-73.343
X185.42Y-93.662
X190.817Y-73.343
X190.817Y-93.662
T7
X135.255Y-88.9
X142.24Y-76.2
X148.59Y-69.215
X150.495Y-83.82
M30
