%TF.GenerationSoftware,KiCad,Pcbnew,8.0.4*%
%TF.CreationDate,2025-04-29T13:50:39+07:00*%
%TF.ProjectId,REM-4.0,52454d2d-342e-4302-9e6b-696361645f70,rev?*%
%TF.SameCoordinates,Original*%
%TF.FileFunction,Soldermask,Top*%
%TF.FilePolarity,Negative*%
%FSLAX46Y46*%
G04 Gerber Fmt 4.6, Leading zero omitted, Abs format (unit mm)*
G04 Created by KiCad (PCBNEW 8.0.4) date 2025-04-29 13:50:39*
%MOMM*%
%LPD*%
G01*
G04 APERTURE LIST*
%ADD10C,2.000000*%
%ADD11R,2.000000X2.000000*%
%ADD12O,2.000000X2.000000*%
%ADD13C,1.600000*%
%ADD14C,3.000000*%
%ADD15C,2.400000*%
%ADD16O,2.400000X2.400000*%
%ADD17O,3.500000X3.500000*%
%ADD18R,1.905000X2.000000*%
%ADD19O,1.905000X2.000000*%
%ADD20C,1.500000*%
%ADD21C,1.400000*%
%ADD22O,1.400000X1.400000*%
%ADD23R,2.400000X2.400000*%
%ADD24R,1.600000X1.600000*%
%ADD25O,1.600000X1.600000*%
%ADD26R,1.500000X1.500000*%
%ADD27O,1.500000X1.500000*%
%ADD28R,1.800000X1.800000*%
%ADD29O,1.800000X1.800000*%
%ADD30C,1.440000*%
G04 APERTURE END LIST*
D10*
%TO.C,C12*%
X185420000Y-97235000D03*
X185420000Y-107235000D03*
%TD*%
D11*
%TO.C,J2*%
X180022500Y-101282500D03*
D12*
X180022500Y-103822500D03*
X174942500Y-101282500D03*
X174942500Y-103822500D03*
X169862500Y-101282500D03*
X169862500Y-103822500D03*
%TD*%
D13*
%TO.C,C1*%
X108625000Y-90170000D03*
X113625000Y-90170000D03*
%TD*%
D11*
%TO.C,J1*%
X106045000Y-101282500D03*
D12*
X106045000Y-103822500D03*
X103505000Y-101282500D03*
X103505000Y-103822500D03*
X100965000Y-101282500D03*
X100965000Y-103822500D03*
X98425000Y-101282500D03*
X98425000Y-103822500D03*
%TD*%
D10*
%TO.C,TP7*%
X98425000Y-69532500D03*
X100965000Y-69532500D03*
%TD*%
D14*
%TO.C,L1*%
X135255000Y-88900000D03*
X150495000Y-83820000D03*
X142240000Y-76200000D03*
X148590000Y-69215000D03*
%TD*%
D15*
%TO.C,R9*%
X185420000Y-93662500D03*
D16*
X185420000Y-73342500D03*
%TD*%
D13*
%TO.C,C4*%
X140017500Y-100052500D03*
X140017500Y-105052500D03*
%TD*%
D11*
%TO.C,JP2*%
X114935000Y-87630000D03*
%TD*%
D10*
%TO.C,TP5*%
X155892500Y-93980000D03*
X153352500Y-93980000D03*
%TD*%
D17*
%TO.C,Q1*%
X127000000Y-73510000D03*
D18*
X124460000Y-90170000D03*
D19*
X127000000Y-90170000D03*
X129540000Y-90170000D03*
%TD*%
D20*
%TO.C,JP7*%
X127635000Y-98742500D03*
%TD*%
%TO.C,JP8*%
X135255000Y-98742500D03*
%TD*%
D21*
%TO.C,R1*%
X103505000Y-90170000D03*
D22*
X103505000Y-82550000D03*
%TD*%
D21*
%TO.C,R2*%
X100965000Y-90170000D03*
D22*
X100965000Y-82550000D03*
%TD*%
D13*
%TO.C,C5*%
X157797500Y-100052500D03*
X157797500Y-105052500D03*
%TD*%
D10*
%TO.C,C11*%
X190817500Y-97235000D03*
X190817500Y-107235000D03*
%TD*%
D13*
%TO.C,C6*%
X153987500Y-100052500D03*
X153987500Y-105052500D03*
%TD*%
D21*
%TO.C,R5*%
X150812500Y-106362500D03*
D22*
X150812500Y-98742500D03*
%TD*%
D21*
%TO.C,R3*%
X118745000Y-82550000D03*
D22*
X118745000Y-90170000D03*
%TD*%
D10*
%TO.C,C3*%
X122000000Y-93980000D03*
X132000000Y-93980000D03*
%TD*%
%TO.C,TP6*%
X168592500Y-93980000D03*
X166052500Y-93980000D03*
%TD*%
D23*
%TO.C,C7*%
X116205000Y-101640000D03*
D15*
X116205000Y-106640000D03*
%TD*%
D10*
%TO.C,TP2*%
X137795000Y-93980000D03*
X135255000Y-93980000D03*
%TD*%
D24*
%TO.C,U1*%
X114935000Y-85090000D03*
D25*
X114935000Y-82550000D03*
X114935000Y-80010000D03*
X114935000Y-77470000D03*
X107315000Y-77470000D03*
X107315000Y-80010000D03*
X107315000Y-82550000D03*
X107315000Y-85090000D03*
%TD*%
D13*
%TO.C,C8*%
X108625000Y-93980000D03*
X113625000Y-93980000D03*
%TD*%
D15*
%TO.C,R8*%
X190817500Y-93662500D03*
D16*
X190817500Y-73342500D03*
%TD*%
D26*
%TO.C,D2*%
X145732500Y-98737500D03*
D27*
X145732500Y-106357500D03*
%TD*%
D26*
%TO.C,D3*%
X148272500Y-106367500D03*
D27*
X148272500Y-98747500D03*
%TD*%
D28*
%TO.C,D1*%
X98425000Y-82545000D03*
D29*
X98425000Y-90165000D03*
%TD*%
D10*
%TO.C,TP1*%
X116205000Y-93980000D03*
X118745000Y-93980000D03*
%TD*%
D21*
%TO.C,R4*%
X143192500Y-106362500D03*
D22*
X143192500Y-98742500D03*
%TD*%
D13*
%TO.C,C2*%
X103465000Y-77470000D03*
X98465000Y-77470000D03*
%TD*%
D30*
%TO.C,RV1*%
X160972500Y-93980000D03*
X160972500Y-91440000D03*
X160972500Y-88900000D03*
%TD*%
D11*
%TO.C,JP1*%
X107315000Y-87630000D03*
%TD*%
M02*
