%TF.GenerationSoftware,KiCad,Pcbnew,8.0.4*%
%TF.CreationDate,2025-04-29T13:50:39+07:00*%
%TF.ProjectId,REM-4.0,52454d2d-342e-4302-9e6b-696361645f70,rev?*%
%TF.SameCoordinates,Original*%
%TF.FileFunction,Legend,Top*%
%TF.FilePolarity,Positive*%
%FSLAX46Y46*%
G04 Gerber Fmt 4.6, Leading zero omitted, Abs format (unit mm)*
G04 Created by KiCad (PCBNEW 8.0.4) date 2025-04-29 13:50:39*
%MOMM*%
%LPD*%
G01*
G04 APERTURE LIST*
%ADD10C,0.150000*%
%ADD11C,0.120000*%
%ADD12C,0.100000*%
G04 APERTURE END LIST*
D10*
X184905714Y-102521104D02*
X184867618Y-102559200D01*
X184867618Y-102559200D02*
X184753333Y-102597295D01*
X184753333Y-102597295D02*
X184677142Y-102597295D01*
X184677142Y-102597295D02*
X184562856Y-102559200D01*
X184562856Y-102559200D02*
X184486666Y-102483009D01*
X184486666Y-102483009D02*
X184448571Y-102406819D01*
X184448571Y-102406819D02*
X184410475Y-102254438D01*
X184410475Y-102254438D02*
X184410475Y-102140152D01*
X184410475Y-102140152D02*
X184448571Y-101987771D01*
X184448571Y-101987771D02*
X184486666Y-101911580D01*
X184486666Y-101911580D02*
X184562856Y-101835390D01*
X184562856Y-101835390D02*
X184677142Y-101797295D01*
X184677142Y-101797295D02*
X184753333Y-101797295D01*
X184753333Y-101797295D02*
X184867618Y-101835390D01*
X184867618Y-101835390D02*
X184905714Y-101873485D01*
X185667618Y-102597295D02*
X185210475Y-102597295D01*
X185439047Y-102597295D02*
X185439047Y-101797295D01*
X185439047Y-101797295D02*
X185362856Y-101911580D01*
X185362856Y-101911580D02*
X185286666Y-101987771D01*
X185286666Y-101987771D02*
X185210475Y-102025866D01*
X185972380Y-101873485D02*
X186010476Y-101835390D01*
X186010476Y-101835390D02*
X186086666Y-101797295D01*
X186086666Y-101797295D02*
X186277142Y-101797295D01*
X186277142Y-101797295D02*
X186353333Y-101835390D01*
X186353333Y-101835390D02*
X186391428Y-101873485D01*
X186391428Y-101873485D02*
X186429523Y-101949676D01*
X186429523Y-101949676D02*
X186429523Y-102025866D01*
X186429523Y-102025866D02*
X186391428Y-102140152D01*
X186391428Y-102140152D02*
X185934285Y-102597295D01*
X185934285Y-102597295D02*
X186429523Y-102597295D01*
X110991667Y-90456104D02*
X110953571Y-90494200D01*
X110953571Y-90494200D02*
X110839286Y-90532295D01*
X110839286Y-90532295D02*
X110763095Y-90532295D01*
X110763095Y-90532295D02*
X110648809Y-90494200D01*
X110648809Y-90494200D02*
X110572619Y-90418009D01*
X110572619Y-90418009D02*
X110534524Y-90341819D01*
X110534524Y-90341819D02*
X110496428Y-90189438D01*
X110496428Y-90189438D02*
X110496428Y-90075152D01*
X110496428Y-90075152D02*
X110534524Y-89922771D01*
X110534524Y-89922771D02*
X110572619Y-89846580D01*
X110572619Y-89846580D02*
X110648809Y-89770390D01*
X110648809Y-89770390D02*
X110763095Y-89732295D01*
X110763095Y-89732295D02*
X110839286Y-89732295D01*
X110839286Y-89732295D02*
X110953571Y-89770390D01*
X110953571Y-89770390D02*
X110991667Y-89808485D01*
X111753571Y-90532295D02*
X111296428Y-90532295D01*
X111525000Y-90532295D02*
X111525000Y-89732295D01*
X111525000Y-89732295D02*
X111448809Y-89846580D01*
X111448809Y-89846580D02*
X111372619Y-89922771D01*
X111372619Y-89922771D02*
X111296428Y-89960866D01*
X145281666Y-81642295D02*
X144900714Y-81642295D01*
X144900714Y-81642295D02*
X144900714Y-80842295D01*
X145967380Y-81642295D02*
X145510237Y-81642295D01*
X145738809Y-81642295D02*
X145738809Y-80842295D01*
X145738809Y-80842295D02*
X145662618Y-80956580D01*
X145662618Y-80956580D02*
X145586428Y-81032771D01*
X145586428Y-81032771D02*
X145510237Y-81070866D01*
X185286667Y-83864795D02*
X185020000Y-83483842D01*
X184829524Y-83864795D02*
X184829524Y-83064795D01*
X184829524Y-83064795D02*
X185134286Y-83064795D01*
X185134286Y-83064795D02*
X185210476Y-83102890D01*
X185210476Y-83102890D02*
X185248571Y-83140985D01*
X185248571Y-83140985D02*
X185286667Y-83217176D01*
X185286667Y-83217176D02*
X185286667Y-83331461D01*
X185286667Y-83331461D02*
X185248571Y-83407652D01*
X185248571Y-83407652D02*
X185210476Y-83445747D01*
X185210476Y-83445747D02*
X185134286Y-83483842D01*
X185134286Y-83483842D02*
X184829524Y-83483842D01*
X185667619Y-83864795D02*
X185820000Y-83864795D01*
X185820000Y-83864795D02*
X185896190Y-83826700D01*
X185896190Y-83826700D02*
X185934286Y-83788604D01*
X185934286Y-83788604D02*
X186010476Y-83674319D01*
X186010476Y-83674319D02*
X186048571Y-83521938D01*
X186048571Y-83521938D02*
X186048571Y-83217176D01*
X186048571Y-83217176D02*
X186010476Y-83140985D01*
X186010476Y-83140985D02*
X185972381Y-83102890D01*
X185972381Y-83102890D02*
X185896190Y-83064795D01*
X185896190Y-83064795D02*
X185743809Y-83064795D01*
X185743809Y-83064795D02*
X185667619Y-83102890D01*
X185667619Y-83102890D02*
X185629524Y-83140985D01*
X185629524Y-83140985D02*
X185591428Y-83217176D01*
X185591428Y-83217176D02*
X185591428Y-83407652D01*
X185591428Y-83407652D02*
X185629524Y-83483842D01*
X185629524Y-83483842D02*
X185667619Y-83521938D01*
X185667619Y-83521938D02*
X185743809Y-83560033D01*
X185743809Y-83560033D02*
X185896190Y-83560033D01*
X185896190Y-83560033D02*
X185972381Y-83521938D01*
X185972381Y-83521938D02*
X186010476Y-83483842D01*
X186010476Y-83483842D02*
X186048571Y-83407652D01*
X139884167Y-102838604D02*
X139846071Y-102876700D01*
X139846071Y-102876700D02*
X139731786Y-102914795D01*
X139731786Y-102914795D02*
X139655595Y-102914795D01*
X139655595Y-102914795D02*
X139541309Y-102876700D01*
X139541309Y-102876700D02*
X139465119Y-102800509D01*
X139465119Y-102800509D02*
X139427024Y-102724319D01*
X139427024Y-102724319D02*
X139388928Y-102571938D01*
X139388928Y-102571938D02*
X139388928Y-102457652D01*
X139388928Y-102457652D02*
X139427024Y-102305271D01*
X139427024Y-102305271D02*
X139465119Y-102229080D01*
X139465119Y-102229080D02*
X139541309Y-102152890D01*
X139541309Y-102152890D02*
X139655595Y-102114795D01*
X139655595Y-102114795D02*
X139731786Y-102114795D01*
X139731786Y-102114795D02*
X139846071Y-102152890D01*
X139846071Y-102152890D02*
X139884167Y-102190985D01*
X140569881Y-102381461D02*
X140569881Y-102914795D01*
X140379405Y-102076700D02*
X140188928Y-102648128D01*
X140188928Y-102648128D02*
X140684167Y-102648128D01*
X126904761Y-85322557D02*
X126809523Y-85274938D01*
X126809523Y-85274938D02*
X126714285Y-85179700D01*
X126714285Y-85179700D02*
X126571428Y-85036842D01*
X126571428Y-85036842D02*
X126476190Y-84989223D01*
X126476190Y-84989223D02*
X126380952Y-84989223D01*
X126428571Y-85227319D02*
X126333333Y-85179700D01*
X126333333Y-85179700D02*
X126238095Y-85084461D01*
X126238095Y-85084461D02*
X126190476Y-84893985D01*
X126190476Y-84893985D02*
X126190476Y-84560652D01*
X126190476Y-84560652D02*
X126238095Y-84370176D01*
X126238095Y-84370176D02*
X126333333Y-84274938D01*
X126333333Y-84274938D02*
X126428571Y-84227319D01*
X126428571Y-84227319D02*
X126619047Y-84227319D01*
X126619047Y-84227319D02*
X126714285Y-84274938D01*
X126714285Y-84274938D02*
X126809523Y-84370176D01*
X126809523Y-84370176D02*
X126857142Y-84560652D01*
X126857142Y-84560652D02*
X126857142Y-84893985D01*
X126857142Y-84893985D02*
X126809523Y-85084461D01*
X126809523Y-85084461D02*
X126714285Y-85179700D01*
X126714285Y-85179700D02*
X126619047Y-85227319D01*
X126619047Y-85227319D02*
X126428571Y-85227319D01*
X127809523Y-85227319D02*
X127238095Y-85227319D01*
X127523809Y-85227319D02*
X127523809Y-84227319D01*
X127523809Y-84227319D02*
X127428571Y-84370176D01*
X127428571Y-84370176D02*
X127333333Y-84465414D01*
X127333333Y-84465414D02*
X127238095Y-84513033D01*
X103371667Y-86722295D02*
X103105000Y-86341342D01*
X102914524Y-86722295D02*
X102914524Y-85922295D01*
X102914524Y-85922295D02*
X103219286Y-85922295D01*
X103219286Y-85922295D02*
X103295476Y-85960390D01*
X103295476Y-85960390D02*
X103333571Y-85998485D01*
X103333571Y-85998485D02*
X103371667Y-86074676D01*
X103371667Y-86074676D02*
X103371667Y-86188961D01*
X103371667Y-86188961D02*
X103333571Y-86265152D01*
X103333571Y-86265152D02*
X103295476Y-86303247D01*
X103295476Y-86303247D02*
X103219286Y-86341342D01*
X103219286Y-86341342D02*
X102914524Y-86341342D01*
X104133571Y-86722295D02*
X103676428Y-86722295D01*
X103905000Y-86722295D02*
X103905000Y-85922295D01*
X103905000Y-85922295D02*
X103828809Y-86036580D01*
X103828809Y-86036580D02*
X103752619Y-86112771D01*
X103752619Y-86112771D02*
X103676428Y-86150866D01*
X100831667Y-86722295D02*
X100565000Y-86341342D01*
X100374524Y-86722295D02*
X100374524Y-85922295D01*
X100374524Y-85922295D02*
X100679286Y-85922295D01*
X100679286Y-85922295D02*
X100755476Y-85960390D01*
X100755476Y-85960390D02*
X100793571Y-85998485D01*
X100793571Y-85998485D02*
X100831667Y-86074676D01*
X100831667Y-86074676D02*
X100831667Y-86188961D01*
X100831667Y-86188961D02*
X100793571Y-86265152D01*
X100793571Y-86265152D02*
X100755476Y-86303247D01*
X100755476Y-86303247D02*
X100679286Y-86341342D01*
X100679286Y-86341342D02*
X100374524Y-86341342D01*
X101136428Y-85998485D02*
X101174524Y-85960390D01*
X101174524Y-85960390D02*
X101250714Y-85922295D01*
X101250714Y-85922295D02*
X101441190Y-85922295D01*
X101441190Y-85922295D02*
X101517381Y-85960390D01*
X101517381Y-85960390D02*
X101555476Y-85998485D01*
X101555476Y-85998485D02*
X101593571Y-86074676D01*
X101593571Y-86074676D02*
X101593571Y-86150866D01*
X101593571Y-86150866D02*
X101555476Y-86265152D01*
X101555476Y-86265152D02*
X101098333Y-86722295D01*
X101098333Y-86722295D02*
X101593571Y-86722295D01*
X157664167Y-102838604D02*
X157626071Y-102876700D01*
X157626071Y-102876700D02*
X157511786Y-102914795D01*
X157511786Y-102914795D02*
X157435595Y-102914795D01*
X157435595Y-102914795D02*
X157321309Y-102876700D01*
X157321309Y-102876700D02*
X157245119Y-102800509D01*
X157245119Y-102800509D02*
X157207024Y-102724319D01*
X157207024Y-102724319D02*
X157168928Y-102571938D01*
X157168928Y-102571938D02*
X157168928Y-102457652D01*
X157168928Y-102457652D02*
X157207024Y-102305271D01*
X157207024Y-102305271D02*
X157245119Y-102229080D01*
X157245119Y-102229080D02*
X157321309Y-102152890D01*
X157321309Y-102152890D02*
X157435595Y-102114795D01*
X157435595Y-102114795D02*
X157511786Y-102114795D01*
X157511786Y-102114795D02*
X157626071Y-102152890D01*
X157626071Y-102152890D02*
X157664167Y-102190985D01*
X158387976Y-102114795D02*
X158007024Y-102114795D01*
X158007024Y-102114795D02*
X157968928Y-102495747D01*
X157968928Y-102495747D02*
X158007024Y-102457652D01*
X158007024Y-102457652D02*
X158083214Y-102419557D01*
X158083214Y-102419557D02*
X158273690Y-102419557D01*
X158273690Y-102419557D02*
X158349881Y-102457652D01*
X158349881Y-102457652D02*
X158387976Y-102495747D01*
X158387976Y-102495747D02*
X158426071Y-102571938D01*
X158426071Y-102571938D02*
X158426071Y-102762414D01*
X158426071Y-102762414D02*
X158387976Y-102838604D01*
X158387976Y-102838604D02*
X158349881Y-102876700D01*
X158349881Y-102876700D02*
X158273690Y-102914795D01*
X158273690Y-102914795D02*
X158083214Y-102914795D01*
X158083214Y-102914795D02*
X158007024Y-102876700D01*
X158007024Y-102876700D02*
X157968928Y-102838604D01*
X190303214Y-102521104D02*
X190265118Y-102559200D01*
X190265118Y-102559200D02*
X190150833Y-102597295D01*
X190150833Y-102597295D02*
X190074642Y-102597295D01*
X190074642Y-102597295D02*
X189960356Y-102559200D01*
X189960356Y-102559200D02*
X189884166Y-102483009D01*
X189884166Y-102483009D02*
X189846071Y-102406819D01*
X189846071Y-102406819D02*
X189807975Y-102254438D01*
X189807975Y-102254438D02*
X189807975Y-102140152D01*
X189807975Y-102140152D02*
X189846071Y-101987771D01*
X189846071Y-101987771D02*
X189884166Y-101911580D01*
X189884166Y-101911580D02*
X189960356Y-101835390D01*
X189960356Y-101835390D02*
X190074642Y-101797295D01*
X190074642Y-101797295D02*
X190150833Y-101797295D01*
X190150833Y-101797295D02*
X190265118Y-101835390D01*
X190265118Y-101835390D02*
X190303214Y-101873485D01*
X191065118Y-102597295D02*
X190607975Y-102597295D01*
X190836547Y-102597295D02*
X190836547Y-101797295D01*
X190836547Y-101797295D02*
X190760356Y-101911580D01*
X190760356Y-101911580D02*
X190684166Y-101987771D01*
X190684166Y-101987771D02*
X190607975Y-102025866D01*
X191827023Y-102597295D02*
X191369880Y-102597295D01*
X191598452Y-102597295D02*
X191598452Y-101797295D01*
X191598452Y-101797295D02*
X191522261Y-101911580D01*
X191522261Y-101911580D02*
X191446071Y-101987771D01*
X191446071Y-101987771D02*
X191369880Y-102025866D01*
X153854167Y-102838604D02*
X153816071Y-102876700D01*
X153816071Y-102876700D02*
X153701786Y-102914795D01*
X153701786Y-102914795D02*
X153625595Y-102914795D01*
X153625595Y-102914795D02*
X153511309Y-102876700D01*
X153511309Y-102876700D02*
X153435119Y-102800509D01*
X153435119Y-102800509D02*
X153397024Y-102724319D01*
X153397024Y-102724319D02*
X153358928Y-102571938D01*
X153358928Y-102571938D02*
X153358928Y-102457652D01*
X153358928Y-102457652D02*
X153397024Y-102305271D01*
X153397024Y-102305271D02*
X153435119Y-102229080D01*
X153435119Y-102229080D02*
X153511309Y-102152890D01*
X153511309Y-102152890D02*
X153625595Y-102114795D01*
X153625595Y-102114795D02*
X153701786Y-102114795D01*
X153701786Y-102114795D02*
X153816071Y-102152890D01*
X153816071Y-102152890D02*
X153854167Y-102190985D01*
X154539881Y-102114795D02*
X154387500Y-102114795D01*
X154387500Y-102114795D02*
X154311309Y-102152890D01*
X154311309Y-102152890D02*
X154273214Y-102190985D01*
X154273214Y-102190985D02*
X154197024Y-102305271D01*
X154197024Y-102305271D02*
X154158928Y-102457652D01*
X154158928Y-102457652D02*
X154158928Y-102762414D01*
X154158928Y-102762414D02*
X154197024Y-102838604D01*
X154197024Y-102838604D02*
X154235119Y-102876700D01*
X154235119Y-102876700D02*
X154311309Y-102914795D01*
X154311309Y-102914795D02*
X154463690Y-102914795D01*
X154463690Y-102914795D02*
X154539881Y-102876700D01*
X154539881Y-102876700D02*
X154577976Y-102838604D01*
X154577976Y-102838604D02*
X154616071Y-102762414D01*
X154616071Y-102762414D02*
X154616071Y-102571938D01*
X154616071Y-102571938D02*
X154577976Y-102495747D01*
X154577976Y-102495747D02*
X154539881Y-102457652D01*
X154539881Y-102457652D02*
X154463690Y-102419557D01*
X154463690Y-102419557D02*
X154311309Y-102419557D01*
X154311309Y-102419557D02*
X154235119Y-102457652D01*
X154235119Y-102457652D02*
X154197024Y-102495747D01*
X154197024Y-102495747D02*
X154158928Y-102571938D01*
X150679167Y-102914795D02*
X150412500Y-102533842D01*
X150222024Y-102914795D02*
X150222024Y-102114795D01*
X150222024Y-102114795D02*
X150526786Y-102114795D01*
X150526786Y-102114795D02*
X150602976Y-102152890D01*
X150602976Y-102152890D02*
X150641071Y-102190985D01*
X150641071Y-102190985D02*
X150679167Y-102267176D01*
X150679167Y-102267176D02*
X150679167Y-102381461D01*
X150679167Y-102381461D02*
X150641071Y-102457652D01*
X150641071Y-102457652D02*
X150602976Y-102495747D01*
X150602976Y-102495747D02*
X150526786Y-102533842D01*
X150526786Y-102533842D02*
X150222024Y-102533842D01*
X151402976Y-102114795D02*
X151022024Y-102114795D01*
X151022024Y-102114795D02*
X150983928Y-102495747D01*
X150983928Y-102495747D02*
X151022024Y-102457652D01*
X151022024Y-102457652D02*
X151098214Y-102419557D01*
X151098214Y-102419557D02*
X151288690Y-102419557D01*
X151288690Y-102419557D02*
X151364881Y-102457652D01*
X151364881Y-102457652D02*
X151402976Y-102495747D01*
X151402976Y-102495747D02*
X151441071Y-102571938D01*
X151441071Y-102571938D02*
X151441071Y-102762414D01*
X151441071Y-102762414D02*
X151402976Y-102838604D01*
X151402976Y-102838604D02*
X151364881Y-102876700D01*
X151364881Y-102876700D02*
X151288690Y-102914795D01*
X151288690Y-102914795D02*
X151098214Y-102914795D01*
X151098214Y-102914795D02*
X151022024Y-102876700D01*
X151022024Y-102876700D02*
X150983928Y-102838604D01*
X118611667Y-86722295D02*
X118345000Y-86341342D01*
X118154524Y-86722295D02*
X118154524Y-85922295D01*
X118154524Y-85922295D02*
X118459286Y-85922295D01*
X118459286Y-85922295D02*
X118535476Y-85960390D01*
X118535476Y-85960390D02*
X118573571Y-85998485D01*
X118573571Y-85998485D02*
X118611667Y-86074676D01*
X118611667Y-86074676D02*
X118611667Y-86188961D01*
X118611667Y-86188961D02*
X118573571Y-86265152D01*
X118573571Y-86265152D02*
X118535476Y-86303247D01*
X118535476Y-86303247D02*
X118459286Y-86341342D01*
X118459286Y-86341342D02*
X118154524Y-86341342D01*
X118878333Y-85922295D02*
X119373571Y-85922295D01*
X119373571Y-85922295D02*
X119106905Y-86227057D01*
X119106905Y-86227057D02*
X119221190Y-86227057D01*
X119221190Y-86227057D02*
X119297381Y-86265152D01*
X119297381Y-86265152D02*
X119335476Y-86303247D01*
X119335476Y-86303247D02*
X119373571Y-86379438D01*
X119373571Y-86379438D02*
X119373571Y-86569914D01*
X119373571Y-86569914D02*
X119335476Y-86646104D01*
X119335476Y-86646104D02*
X119297381Y-86684200D01*
X119297381Y-86684200D02*
X119221190Y-86722295D01*
X119221190Y-86722295D02*
X118992619Y-86722295D01*
X118992619Y-86722295D02*
X118916428Y-86684200D01*
X118916428Y-86684200D02*
X118878333Y-86646104D01*
X126866667Y-94266104D02*
X126828571Y-94304200D01*
X126828571Y-94304200D02*
X126714286Y-94342295D01*
X126714286Y-94342295D02*
X126638095Y-94342295D01*
X126638095Y-94342295D02*
X126523809Y-94304200D01*
X126523809Y-94304200D02*
X126447619Y-94228009D01*
X126447619Y-94228009D02*
X126409524Y-94151819D01*
X126409524Y-94151819D02*
X126371428Y-93999438D01*
X126371428Y-93999438D02*
X126371428Y-93885152D01*
X126371428Y-93885152D02*
X126409524Y-93732771D01*
X126409524Y-93732771D02*
X126447619Y-93656580D01*
X126447619Y-93656580D02*
X126523809Y-93580390D01*
X126523809Y-93580390D02*
X126638095Y-93542295D01*
X126638095Y-93542295D02*
X126714286Y-93542295D01*
X126714286Y-93542295D02*
X126828571Y-93580390D01*
X126828571Y-93580390D02*
X126866667Y-93618485D01*
X127133333Y-93542295D02*
X127628571Y-93542295D01*
X127628571Y-93542295D02*
X127361905Y-93847057D01*
X127361905Y-93847057D02*
X127476190Y-93847057D01*
X127476190Y-93847057D02*
X127552381Y-93885152D01*
X127552381Y-93885152D02*
X127590476Y-93923247D01*
X127590476Y-93923247D02*
X127628571Y-93999438D01*
X127628571Y-93999438D02*
X127628571Y-94189914D01*
X127628571Y-94189914D02*
X127590476Y-94266104D01*
X127590476Y-94266104D02*
X127552381Y-94304200D01*
X127552381Y-94304200D02*
X127476190Y-94342295D01*
X127476190Y-94342295D02*
X127247619Y-94342295D01*
X127247619Y-94342295D02*
X127171428Y-94304200D01*
X127171428Y-94304200D02*
X127133333Y-94266104D01*
X119213333Y-102144757D02*
X119165714Y-102192377D01*
X119165714Y-102192377D02*
X119022857Y-102239996D01*
X119022857Y-102239996D02*
X118927619Y-102239996D01*
X118927619Y-102239996D02*
X118784762Y-102192377D01*
X118784762Y-102192377D02*
X118689524Y-102097138D01*
X118689524Y-102097138D02*
X118641905Y-102001900D01*
X118641905Y-102001900D02*
X118594286Y-101811424D01*
X118594286Y-101811424D02*
X118594286Y-101668567D01*
X118594286Y-101668567D02*
X118641905Y-101478091D01*
X118641905Y-101478091D02*
X118689524Y-101382853D01*
X118689524Y-101382853D02*
X118784762Y-101287615D01*
X118784762Y-101287615D02*
X118927619Y-101239996D01*
X118927619Y-101239996D02*
X119022857Y-101239996D01*
X119022857Y-101239996D02*
X119165714Y-101287615D01*
X119165714Y-101287615D02*
X119213333Y-101335234D01*
X119546667Y-101239996D02*
X120213333Y-101239996D01*
X120213333Y-101239996D02*
X119784762Y-102239996D01*
X110515476Y-80842295D02*
X110515476Y-81489914D01*
X110515476Y-81489914D02*
X110553571Y-81566104D01*
X110553571Y-81566104D02*
X110591666Y-81604200D01*
X110591666Y-81604200D02*
X110667857Y-81642295D01*
X110667857Y-81642295D02*
X110820238Y-81642295D01*
X110820238Y-81642295D02*
X110896428Y-81604200D01*
X110896428Y-81604200D02*
X110934523Y-81566104D01*
X110934523Y-81566104D02*
X110972619Y-81489914D01*
X110972619Y-81489914D02*
X110972619Y-80842295D01*
X111772618Y-81642295D02*
X111315475Y-81642295D01*
X111544047Y-81642295D02*
X111544047Y-80842295D01*
X111544047Y-80842295D02*
X111467856Y-80956580D01*
X111467856Y-80956580D02*
X111391666Y-81032771D01*
X111391666Y-81032771D02*
X111315475Y-81070866D01*
X110991667Y-94266104D02*
X110953571Y-94304200D01*
X110953571Y-94304200D02*
X110839286Y-94342295D01*
X110839286Y-94342295D02*
X110763095Y-94342295D01*
X110763095Y-94342295D02*
X110648809Y-94304200D01*
X110648809Y-94304200D02*
X110572619Y-94228009D01*
X110572619Y-94228009D02*
X110534524Y-94151819D01*
X110534524Y-94151819D02*
X110496428Y-93999438D01*
X110496428Y-93999438D02*
X110496428Y-93885152D01*
X110496428Y-93885152D02*
X110534524Y-93732771D01*
X110534524Y-93732771D02*
X110572619Y-93656580D01*
X110572619Y-93656580D02*
X110648809Y-93580390D01*
X110648809Y-93580390D02*
X110763095Y-93542295D01*
X110763095Y-93542295D02*
X110839286Y-93542295D01*
X110839286Y-93542295D02*
X110953571Y-93580390D01*
X110953571Y-93580390D02*
X110991667Y-93618485D01*
X111448809Y-93885152D02*
X111372619Y-93847057D01*
X111372619Y-93847057D02*
X111334524Y-93808961D01*
X111334524Y-93808961D02*
X111296428Y-93732771D01*
X111296428Y-93732771D02*
X111296428Y-93694676D01*
X111296428Y-93694676D02*
X111334524Y-93618485D01*
X111334524Y-93618485D02*
X111372619Y-93580390D01*
X111372619Y-93580390D02*
X111448809Y-93542295D01*
X111448809Y-93542295D02*
X111601190Y-93542295D01*
X111601190Y-93542295D02*
X111677381Y-93580390D01*
X111677381Y-93580390D02*
X111715476Y-93618485D01*
X111715476Y-93618485D02*
X111753571Y-93694676D01*
X111753571Y-93694676D02*
X111753571Y-93732771D01*
X111753571Y-93732771D02*
X111715476Y-93808961D01*
X111715476Y-93808961D02*
X111677381Y-93847057D01*
X111677381Y-93847057D02*
X111601190Y-93885152D01*
X111601190Y-93885152D02*
X111448809Y-93885152D01*
X111448809Y-93885152D02*
X111372619Y-93923247D01*
X111372619Y-93923247D02*
X111334524Y-93961342D01*
X111334524Y-93961342D02*
X111296428Y-94037533D01*
X111296428Y-94037533D02*
X111296428Y-94189914D01*
X111296428Y-94189914D02*
X111334524Y-94266104D01*
X111334524Y-94266104D02*
X111372619Y-94304200D01*
X111372619Y-94304200D02*
X111448809Y-94342295D01*
X111448809Y-94342295D02*
X111601190Y-94342295D01*
X111601190Y-94342295D02*
X111677381Y-94304200D01*
X111677381Y-94304200D02*
X111715476Y-94266104D01*
X111715476Y-94266104D02*
X111753571Y-94189914D01*
X111753571Y-94189914D02*
X111753571Y-94037533D01*
X111753571Y-94037533D02*
X111715476Y-93961342D01*
X111715476Y-93961342D02*
X111677381Y-93923247D01*
X111677381Y-93923247D02*
X111601190Y-93885152D01*
X190684167Y-83864795D02*
X190417500Y-83483842D01*
X190227024Y-83864795D02*
X190227024Y-83064795D01*
X190227024Y-83064795D02*
X190531786Y-83064795D01*
X190531786Y-83064795D02*
X190607976Y-83102890D01*
X190607976Y-83102890D02*
X190646071Y-83140985D01*
X190646071Y-83140985D02*
X190684167Y-83217176D01*
X190684167Y-83217176D02*
X190684167Y-83331461D01*
X190684167Y-83331461D02*
X190646071Y-83407652D01*
X190646071Y-83407652D02*
X190607976Y-83445747D01*
X190607976Y-83445747D02*
X190531786Y-83483842D01*
X190531786Y-83483842D02*
X190227024Y-83483842D01*
X191141309Y-83407652D02*
X191065119Y-83369557D01*
X191065119Y-83369557D02*
X191027024Y-83331461D01*
X191027024Y-83331461D02*
X190988928Y-83255271D01*
X190988928Y-83255271D02*
X190988928Y-83217176D01*
X190988928Y-83217176D02*
X191027024Y-83140985D01*
X191027024Y-83140985D02*
X191065119Y-83102890D01*
X191065119Y-83102890D02*
X191141309Y-83064795D01*
X191141309Y-83064795D02*
X191293690Y-83064795D01*
X191293690Y-83064795D02*
X191369881Y-83102890D01*
X191369881Y-83102890D02*
X191407976Y-83140985D01*
X191407976Y-83140985D02*
X191446071Y-83217176D01*
X191446071Y-83217176D02*
X191446071Y-83255271D01*
X191446071Y-83255271D02*
X191407976Y-83331461D01*
X191407976Y-83331461D02*
X191369881Y-83369557D01*
X191369881Y-83369557D02*
X191293690Y-83407652D01*
X191293690Y-83407652D02*
X191141309Y-83407652D01*
X191141309Y-83407652D02*
X191065119Y-83445747D01*
X191065119Y-83445747D02*
X191027024Y-83483842D01*
X191027024Y-83483842D02*
X190988928Y-83560033D01*
X190988928Y-83560033D02*
X190988928Y-83712414D01*
X190988928Y-83712414D02*
X191027024Y-83788604D01*
X191027024Y-83788604D02*
X191065119Y-83826700D01*
X191065119Y-83826700D02*
X191141309Y-83864795D01*
X191141309Y-83864795D02*
X191293690Y-83864795D01*
X191293690Y-83864795D02*
X191369881Y-83826700D01*
X191369881Y-83826700D02*
X191407976Y-83788604D01*
X191407976Y-83788604D02*
X191446071Y-83712414D01*
X191446071Y-83712414D02*
X191446071Y-83560033D01*
X191446071Y-83560033D02*
X191407976Y-83483842D01*
X191407976Y-83483842D02*
X191369881Y-83445747D01*
X191369881Y-83445747D02*
X191293690Y-83407652D01*
X145142024Y-102914795D02*
X145142024Y-102114795D01*
X145142024Y-102114795D02*
X145332500Y-102114795D01*
X145332500Y-102114795D02*
X145446786Y-102152890D01*
X145446786Y-102152890D02*
X145522976Y-102229080D01*
X145522976Y-102229080D02*
X145561071Y-102305271D01*
X145561071Y-102305271D02*
X145599167Y-102457652D01*
X145599167Y-102457652D02*
X145599167Y-102571938D01*
X145599167Y-102571938D02*
X145561071Y-102724319D01*
X145561071Y-102724319D02*
X145522976Y-102800509D01*
X145522976Y-102800509D02*
X145446786Y-102876700D01*
X145446786Y-102876700D02*
X145332500Y-102914795D01*
X145332500Y-102914795D02*
X145142024Y-102914795D01*
X145903928Y-102190985D02*
X145942024Y-102152890D01*
X145942024Y-102152890D02*
X146018214Y-102114795D01*
X146018214Y-102114795D02*
X146208690Y-102114795D01*
X146208690Y-102114795D02*
X146284881Y-102152890D01*
X146284881Y-102152890D02*
X146322976Y-102190985D01*
X146322976Y-102190985D02*
X146361071Y-102267176D01*
X146361071Y-102267176D02*
X146361071Y-102343366D01*
X146361071Y-102343366D02*
X146322976Y-102457652D01*
X146322976Y-102457652D02*
X145865833Y-102914795D01*
X145865833Y-102914795D02*
X146361071Y-102914795D01*
X147682024Y-102914795D02*
X147682024Y-102114795D01*
X147682024Y-102114795D02*
X147872500Y-102114795D01*
X147872500Y-102114795D02*
X147986786Y-102152890D01*
X147986786Y-102152890D02*
X148062976Y-102229080D01*
X148062976Y-102229080D02*
X148101071Y-102305271D01*
X148101071Y-102305271D02*
X148139167Y-102457652D01*
X148139167Y-102457652D02*
X148139167Y-102571938D01*
X148139167Y-102571938D02*
X148101071Y-102724319D01*
X148101071Y-102724319D02*
X148062976Y-102800509D01*
X148062976Y-102800509D02*
X147986786Y-102876700D01*
X147986786Y-102876700D02*
X147872500Y-102914795D01*
X147872500Y-102914795D02*
X147682024Y-102914795D01*
X148405833Y-102114795D02*
X148901071Y-102114795D01*
X148901071Y-102114795D02*
X148634405Y-102419557D01*
X148634405Y-102419557D02*
X148748690Y-102419557D01*
X148748690Y-102419557D02*
X148824881Y-102457652D01*
X148824881Y-102457652D02*
X148862976Y-102495747D01*
X148862976Y-102495747D02*
X148901071Y-102571938D01*
X148901071Y-102571938D02*
X148901071Y-102762414D01*
X148901071Y-102762414D02*
X148862976Y-102838604D01*
X148862976Y-102838604D02*
X148824881Y-102876700D01*
X148824881Y-102876700D02*
X148748690Y-102914795D01*
X148748690Y-102914795D02*
X148520119Y-102914795D01*
X148520119Y-102914795D02*
X148443928Y-102876700D01*
X148443928Y-102876700D02*
X148405833Y-102838604D01*
X97834524Y-86717295D02*
X97834524Y-85917295D01*
X97834524Y-85917295D02*
X98025000Y-85917295D01*
X98025000Y-85917295D02*
X98139286Y-85955390D01*
X98139286Y-85955390D02*
X98215476Y-86031580D01*
X98215476Y-86031580D02*
X98253571Y-86107771D01*
X98253571Y-86107771D02*
X98291667Y-86260152D01*
X98291667Y-86260152D02*
X98291667Y-86374438D01*
X98291667Y-86374438D02*
X98253571Y-86526819D01*
X98253571Y-86526819D02*
X98215476Y-86603009D01*
X98215476Y-86603009D02*
X98139286Y-86679200D01*
X98139286Y-86679200D02*
X98025000Y-86717295D01*
X98025000Y-86717295D02*
X97834524Y-86717295D01*
X99053571Y-86717295D02*
X98596428Y-86717295D01*
X98825000Y-86717295D02*
X98825000Y-85917295D01*
X98825000Y-85917295D02*
X98748809Y-86031580D01*
X98748809Y-86031580D02*
X98672619Y-86107771D01*
X98672619Y-86107771D02*
X98596428Y-86145866D01*
X143059167Y-102914795D02*
X142792500Y-102533842D01*
X142602024Y-102914795D02*
X142602024Y-102114795D01*
X142602024Y-102114795D02*
X142906786Y-102114795D01*
X142906786Y-102114795D02*
X142982976Y-102152890D01*
X142982976Y-102152890D02*
X143021071Y-102190985D01*
X143021071Y-102190985D02*
X143059167Y-102267176D01*
X143059167Y-102267176D02*
X143059167Y-102381461D01*
X143059167Y-102381461D02*
X143021071Y-102457652D01*
X143021071Y-102457652D02*
X142982976Y-102495747D01*
X142982976Y-102495747D02*
X142906786Y-102533842D01*
X142906786Y-102533842D02*
X142602024Y-102533842D01*
X143744881Y-102381461D02*
X143744881Y-102914795D01*
X143554405Y-102076700D02*
X143363928Y-102648128D01*
X143363928Y-102648128D02*
X143859167Y-102648128D01*
X100831667Y-77756104D02*
X100793571Y-77794200D01*
X100793571Y-77794200D02*
X100679286Y-77832295D01*
X100679286Y-77832295D02*
X100603095Y-77832295D01*
X100603095Y-77832295D02*
X100488809Y-77794200D01*
X100488809Y-77794200D02*
X100412619Y-77718009D01*
X100412619Y-77718009D02*
X100374524Y-77641819D01*
X100374524Y-77641819D02*
X100336428Y-77489438D01*
X100336428Y-77489438D02*
X100336428Y-77375152D01*
X100336428Y-77375152D02*
X100374524Y-77222771D01*
X100374524Y-77222771D02*
X100412619Y-77146580D01*
X100412619Y-77146580D02*
X100488809Y-77070390D01*
X100488809Y-77070390D02*
X100603095Y-77032295D01*
X100603095Y-77032295D02*
X100679286Y-77032295D01*
X100679286Y-77032295D02*
X100793571Y-77070390D01*
X100793571Y-77070390D02*
X100831667Y-77108485D01*
X101136428Y-77108485D02*
X101174524Y-77070390D01*
X101174524Y-77070390D02*
X101250714Y-77032295D01*
X101250714Y-77032295D02*
X101441190Y-77032295D01*
X101441190Y-77032295D02*
X101517381Y-77070390D01*
X101517381Y-77070390D02*
X101555476Y-77108485D01*
X101555476Y-77108485D02*
X101593571Y-77184676D01*
X101593571Y-77184676D02*
X101593571Y-77260866D01*
X101593571Y-77260866D02*
X101555476Y-77375152D01*
X101555476Y-77375152D02*
X101098333Y-77832295D01*
X101098333Y-77832295D02*
X101593571Y-77832295D01*
D11*
%TO.C,C12*%
X182800000Y-95615000D02*
X182800000Y-108855000D01*
X188040000Y-95615000D02*
X182800000Y-95615000D01*
X188040000Y-95615000D02*
X188040000Y-108855000D01*
X188040000Y-108855000D02*
X182800000Y-108855000D01*
%TO.C,J2*%
X168532500Y-105262500D02*
X168532500Y-107922500D01*
X168532500Y-107922500D02*
X181352500Y-107922500D01*
X169482500Y-102325429D02*
X169482500Y-102779571D01*
X169482500Y-104865429D02*
X169482500Y-105262500D01*
X169482500Y-110807500D02*
X169482500Y-107922500D01*
X170242500Y-102325429D02*
X170242500Y-102779571D01*
X170242500Y-104865429D02*
X170242500Y-105262500D01*
X170242500Y-107922500D02*
X170242500Y-110807500D01*
X170242500Y-110807500D02*
X169482500Y-110807500D01*
X171132500Y-105262500D02*
X171132500Y-107922500D01*
X173672500Y-105262500D02*
X173672500Y-107922500D01*
X174562500Y-102325429D02*
X174562500Y-102779571D01*
X174562500Y-104865429D02*
X174562500Y-105262500D01*
X174562500Y-110807500D02*
X174562500Y-107922500D01*
X175322500Y-102325429D02*
X175322500Y-102779571D01*
X175322500Y-104865429D02*
X175322500Y-105262500D01*
X175322500Y-107922500D02*
X175322500Y-110807500D01*
X175322500Y-110807500D02*
X174562500Y-110807500D01*
X176212500Y-105262500D02*
X176212500Y-107922500D01*
X178752500Y-105262500D02*
X178752500Y-107922500D01*
X179642500Y-102392500D02*
X179642500Y-102779571D01*
X179642500Y-104865429D02*
X179642500Y-105262500D01*
X180022500Y-100012500D02*
X181292500Y-100012500D01*
X180402500Y-102392500D02*
X180402500Y-102779571D01*
X180402500Y-104865429D02*
X180402500Y-105262500D01*
X181292500Y-100012500D02*
X181292500Y-101282500D01*
X181352500Y-105262500D02*
X168532500Y-105262500D01*
X181352500Y-107922500D02*
X181352500Y-105262500D01*
D12*
X180402500Y-107922500D02*
X179642500Y-107922500D01*
X179642500Y-110807500D01*
X180402500Y-110807500D01*
X180402500Y-107922500D01*
G36*
X180402500Y-107922500D02*
G01*
X179642500Y-107922500D01*
X179642500Y-110807500D01*
X180402500Y-110807500D01*
X180402500Y-107922500D01*
G37*
D11*
%TO.C,C1*%
X107505000Y-88300000D02*
X107505000Y-92040000D01*
X107505000Y-88300000D02*
X114745000Y-88300000D01*
X107505000Y-92040000D02*
X114745000Y-92040000D01*
X114745000Y-88300000D02*
X114745000Y-92040000D01*
%TO.C,J1*%
X97095000Y-105262500D02*
X97095000Y-107922500D01*
X97095000Y-107922500D02*
X107375000Y-107922500D01*
X98045000Y-102325429D02*
X98045000Y-102779571D01*
X98045000Y-104865429D02*
X98045000Y-105262500D01*
X98045000Y-110807500D02*
X98045000Y-107922500D01*
X98805000Y-102325429D02*
X98805000Y-102779571D01*
X98805000Y-104865429D02*
X98805000Y-105262500D01*
X98805000Y-107922500D02*
X98805000Y-110807500D01*
X98805000Y-110807500D02*
X98045000Y-110807500D01*
X99695000Y-105262500D02*
X99695000Y-107922500D01*
X100585000Y-102325429D02*
X100585000Y-102779571D01*
X100585000Y-104865429D02*
X100585000Y-105262500D01*
X100585000Y-110807500D02*
X100585000Y-107922500D01*
X101345000Y-102325429D02*
X101345000Y-102779571D01*
X101345000Y-104865429D02*
X101345000Y-105262500D01*
X101345000Y-107922500D02*
X101345000Y-110807500D01*
X101345000Y-110807500D02*
X100585000Y-110807500D01*
X102235000Y-105262500D02*
X102235000Y-107922500D01*
X103125000Y-102325429D02*
X103125000Y-102779571D01*
X103125000Y-104865429D02*
X103125000Y-105262500D01*
X103125000Y-110807500D02*
X103125000Y-107922500D01*
X103885000Y-102325429D02*
X103885000Y-102779571D01*
X103885000Y-104865429D02*
X103885000Y-105262500D01*
X103885000Y-107922500D02*
X103885000Y-110807500D01*
X103885000Y-110807500D02*
X103125000Y-110807500D01*
X104775000Y-105262500D02*
X104775000Y-107922500D01*
X105665000Y-102392500D02*
X105665000Y-102779571D01*
X105665000Y-104865429D02*
X105665000Y-105262500D01*
X106045000Y-100012500D02*
X107315000Y-100012500D01*
X106425000Y-102392500D02*
X106425000Y-102779571D01*
X106425000Y-104865429D02*
X106425000Y-105262500D01*
X107315000Y-100012500D02*
X107315000Y-101282500D01*
X107375000Y-105262500D02*
X97095000Y-105262500D01*
X107375000Y-107922500D02*
X107375000Y-105262500D01*
D12*
X106425000Y-107922500D02*
X105665000Y-107922500D01*
X105665000Y-110807500D01*
X106425000Y-110807500D01*
X106425000Y-107922500D01*
G36*
X106425000Y-107922500D02*
G01*
X105665000Y-107922500D01*
X105665000Y-110807500D01*
X106425000Y-110807500D01*
X106425000Y-107922500D01*
G37*
D11*
%TO.C,TP7*%
X97225000Y-68332500D02*
X97225000Y-70732500D01*
X97225000Y-70732500D02*
X102125000Y-70732500D01*
X102125000Y-68332500D02*
X97225000Y-68332500D01*
X102125000Y-70732500D02*
X102125000Y-68332500D01*
D12*
%TO.C,L1*%
X157099000Y-81280000D02*
G75*
G02*
X133731000Y-81280000I-11684000J0D01*
G01*
X133731000Y-81280000D02*
G75*
G02*
X157099000Y-81280000I11684000J0D01*
G01*
X152527000Y-81280000D02*
G75*
G02*
X138303000Y-81280000I-7112000J0D01*
G01*
X138303000Y-81280000D02*
G75*
G02*
X152527000Y-81280000I7112000J0D01*
G01*
D11*
%TO.C,R9*%
X183050000Y-77432500D02*
X183050000Y-89572500D01*
X183050000Y-89572500D02*
X187790000Y-89572500D01*
X185420000Y-74782500D02*
X185420000Y-77432500D01*
X185420000Y-92222500D02*
X185420000Y-89572500D01*
X187790000Y-77432500D02*
X183050000Y-77432500D01*
X187790000Y-89572500D02*
X187790000Y-77432500D01*
%TO.C,C4*%
X138147500Y-98932500D02*
X138147500Y-106172500D01*
X141887500Y-98932500D02*
X138147500Y-98932500D01*
X141887500Y-98932500D02*
X141887500Y-106172500D01*
X141887500Y-106172500D02*
X138147500Y-106172500D01*
%TO.C,TP5*%
X152192500Y-92780000D02*
X152192500Y-95180000D01*
X152192500Y-95180000D02*
X157092500Y-95180000D01*
X157092500Y-92780000D02*
X152192500Y-92780000D01*
X157092500Y-95180000D02*
X157092500Y-92780000D01*
%TO.C,Q1*%
X121880000Y-70590000D02*
X121880000Y-86480000D01*
X121880000Y-70590000D02*
X132120000Y-70590000D01*
X121880000Y-86480000D02*
X132120000Y-86480000D01*
X124460000Y-86480000D02*
X124460000Y-89020000D01*
X127000000Y-86480000D02*
X127000000Y-89020000D01*
X129540000Y-86480000D02*
X129540000Y-89020000D01*
X132120000Y-70590000D02*
X132120000Y-86480000D01*
%TO.C,JP7*%
X128585000Y-98742500D02*
G75*
G02*
X126685000Y-98742500I-950000J0D01*
G01*
X126685000Y-98742500D02*
G75*
G02*
X128585000Y-98742500I950000J0D01*
G01*
%TO.C,JP8*%
X136205000Y-98742500D02*
G75*
G02*
X134305000Y-98742500I-950000J0D01*
G01*
X134305000Y-98742500D02*
G75*
G02*
X136205000Y-98742500I950000J0D01*
G01*
%TO.C,R1*%
X102585000Y-84440000D02*
X102585000Y-88280000D01*
X102585000Y-88280000D02*
X104425000Y-88280000D01*
X103505000Y-83490000D02*
X103505000Y-84440000D01*
X103505000Y-89230000D02*
X103505000Y-88280000D01*
X104425000Y-84440000D02*
X102585000Y-84440000D01*
X104425000Y-88280000D02*
X104425000Y-84440000D01*
%TO.C,R2*%
X100045000Y-84440000D02*
X100045000Y-88280000D01*
X100045000Y-88280000D02*
X101885000Y-88280000D01*
X100965000Y-83490000D02*
X100965000Y-84440000D01*
X100965000Y-89230000D02*
X100965000Y-88280000D01*
X101885000Y-84440000D02*
X100045000Y-84440000D01*
X101885000Y-88280000D02*
X101885000Y-84440000D01*
%TO.C,C5*%
X155927500Y-98932500D02*
X155927500Y-106172500D01*
X159667500Y-98932500D02*
X155927500Y-98932500D01*
X159667500Y-98932500D02*
X159667500Y-106172500D01*
X159667500Y-106172500D02*
X155927500Y-106172500D01*
%TO.C,C11*%
X188197500Y-95615000D02*
X188197500Y-108855000D01*
X193437500Y-95615000D02*
X188197500Y-95615000D01*
X193437500Y-95615000D02*
X193437500Y-108855000D01*
X193437500Y-108855000D02*
X188197500Y-108855000D01*
%TO.C,C6*%
X152117500Y-98932500D02*
X152117500Y-106172500D01*
X155857500Y-98932500D02*
X152117500Y-98932500D01*
X155857500Y-98932500D02*
X155857500Y-106172500D01*
X155857500Y-106172500D02*
X152117500Y-106172500D01*
%TO.C,R5*%
X149892500Y-100632500D02*
X149892500Y-104472500D01*
X149892500Y-104472500D02*
X151732500Y-104472500D01*
X150812500Y-99682500D02*
X150812500Y-100632500D01*
X150812500Y-105422500D02*
X150812500Y-104472500D01*
X151732500Y-100632500D02*
X149892500Y-100632500D01*
X151732500Y-104472500D02*
X151732500Y-100632500D01*
%TO.C,R3*%
X117825000Y-84440000D02*
X117825000Y-88280000D01*
X117825000Y-88280000D02*
X119665000Y-88280000D01*
X118745000Y-83490000D02*
X118745000Y-84440000D01*
X118745000Y-89230000D02*
X118745000Y-88280000D01*
X119665000Y-84440000D02*
X117825000Y-84440000D01*
X119665000Y-88280000D02*
X119665000Y-84440000D01*
%TO.C,C3*%
X120380000Y-91360000D02*
X120380000Y-96600000D01*
X120380000Y-91360000D02*
X133620000Y-91360000D01*
X120380000Y-96600000D02*
X133620000Y-96600000D01*
X133620000Y-91360000D02*
X133620000Y-96600000D01*
%TO.C,TP6*%
X164892500Y-92780000D02*
X164892500Y-95180000D01*
X164892500Y-95180000D02*
X169792500Y-95180000D01*
X169792500Y-92780000D02*
X164892500Y-92780000D01*
X169792500Y-95180000D02*
X169792500Y-92780000D01*
%TO.C,C7*%
X114765000Y-105221000D02*
X109967000Y-105221000D01*
X114765000Y-105261000D02*
X109974000Y-105261000D01*
X114765000Y-105301000D02*
X109981000Y-105301000D01*
X114765000Y-105341000D02*
X109989000Y-105341000D01*
X114765000Y-105381000D02*
X109996000Y-105381000D01*
X114765000Y-105421000D02*
X110004000Y-105421000D01*
X114765000Y-105461000D02*
X110013000Y-105461000D01*
X114765000Y-105501000D02*
X110021000Y-105501000D01*
X114765000Y-105541000D02*
X110030000Y-105541000D01*
X114765000Y-105581000D02*
X110039000Y-105581000D01*
X114765000Y-105621000D02*
X110049000Y-105621000D01*
X114765000Y-105661000D02*
X110059000Y-105661000D01*
X114765000Y-105701000D02*
X110068000Y-105701000D01*
X114765000Y-105741000D02*
X110079000Y-105741000D01*
X114765000Y-105781000D02*
X110089000Y-105781000D01*
X114765000Y-105821000D02*
X110100000Y-105821000D01*
X114765000Y-105861000D02*
X110111000Y-105861000D01*
X114765000Y-105901000D02*
X110122000Y-105901000D01*
X114765000Y-105941000D02*
X110134000Y-105941000D01*
X114765000Y-105981000D02*
X110146000Y-105981000D01*
X114765000Y-106021000D02*
X110158000Y-106021000D01*
X114765000Y-106061000D02*
X110171000Y-106061000D01*
X114765000Y-106101000D02*
X110184000Y-106101000D01*
X114765000Y-106141000D02*
X110197000Y-106141000D01*
X114765000Y-106181000D02*
X110210000Y-106181000D01*
X114765000Y-106221000D02*
X110224000Y-106221000D01*
X114765000Y-106261000D02*
X110238000Y-106261000D01*
X114765000Y-106301000D02*
X110252000Y-106301000D01*
X114765000Y-106341000D02*
X110266000Y-106341000D01*
X114765000Y-106381000D02*
X110281000Y-106381000D01*
X114765000Y-106421000D02*
X110297000Y-106421000D01*
X114765000Y-106461000D02*
X110312000Y-106461000D01*
X114765000Y-106501000D02*
X110328000Y-106501000D01*
X114765000Y-106541000D02*
X110344000Y-106541000D01*
X114765000Y-106581000D02*
X110360000Y-106581000D01*
X114765000Y-106621000D02*
X110377000Y-106621000D01*
X114765000Y-106661000D02*
X110394000Y-106661000D01*
X114765000Y-106701000D02*
X110412000Y-106701000D01*
X114765000Y-106741000D02*
X110429000Y-106741000D01*
X114765000Y-106781000D02*
X110447000Y-106781000D01*
X114765000Y-106821000D02*
X110466000Y-106821000D01*
X114765000Y-106861000D02*
X110484000Y-106861000D01*
X114765000Y-106901000D02*
X110503000Y-106901000D01*
X114765000Y-106941000D02*
X110523000Y-106941000D01*
X114765000Y-106981000D02*
X110543000Y-106981000D01*
X114765000Y-107021000D02*
X110563000Y-107021000D01*
X114765000Y-107061000D02*
X110583000Y-107061000D01*
X114765000Y-107101000D02*
X110604000Y-107101000D01*
X114765000Y-107141000D02*
X110625000Y-107141000D01*
X114765000Y-107181000D02*
X110647000Y-107181000D01*
X114765000Y-107221000D02*
X110669000Y-107221000D01*
X114765000Y-107261000D02*
X110691000Y-107261000D01*
X114765000Y-107301000D02*
X110714000Y-107301000D01*
X114765000Y-107341000D02*
X110737000Y-107341000D01*
X114765000Y-107381000D02*
X110760000Y-107381000D01*
X114765000Y-107421000D02*
X110784000Y-107421000D01*
X114765000Y-107461000D02*
X110808000Y-107461000D01*
X114765000Y-107501000D02*
X110833000Y-107501000D01*
X114765000Y-107541000D02*
X110858000Y-107541000D01*
X114765000Y-107581000D02*
X110883000Y-107581000D01*
X114765000Y-107621000D02*
X110909000Y-107621000D01*
X114765000Y-107661000D02*
X110935000Y-107661000D01*
X114765000Y-107701000D02*
X110962000Y-107701000D01*
X114765000Y-107741000D02*
X110989000Y-107741000D01*
X114765000Y-107781000D02*
X111017000Y-107781000D01*
X114765000Y-107821000D02*
X111045000Y-107821000D01*
X114765000Y-107861000D02*
X111074000Y-107861000D01*
X114765000Y-107901000D02*
X111103000Y-107901000D01*
X114765000Y-107941000D02*
X111132000Y-107941000D01*
X114765000Y-107981000D02*
X111162000Y-107981000D01*
X114765000Y-108021000D02*
X111193000Y-108021000D01*
X114765000Y-108061000D02*
X111223000Y-108061000D01*
X116522000Y-110501000D02*
X115888000Y-110501000D01*
X116962000Y-110461000D02*
X115448000Y-110461000D01*
X117233000Y-110421000D02*
X115177000Y-110421000D01*
X117446000Y-110381000D02*
X114964000Y-110381000D01*
X117627000Y-110341000D02*
X114783000Y-110341000D01*
X117788000Y-110301000D02*
X114622000Y-110301000D01*
X117933000Y-110261000D02*
X114477000Y-110261000D01*
X118066000Y-110221000D02*
X114344000Y-110221000D01*
X118189000Y-110181000D02*
X114221000Y-110181000D01*
X118305000Y-110141000D02*
X114105000Y-110141000D01*
X118414000Y-110101000D02*
X113996000Y-110101000D01*
X118517000Y-110061000D02*
X113893000Y-110061000D01*
X118615000Y-110021000D02*
X113795000Y-110021000D01*
X118709000Y-109981000D02*
X113701000Y-109981000D01*
X118799000Y-109941000D02*
X113611000Y-109941000D01*
X118886000Y-109901000D02*
X113524000Y-109901000D01*
X118969000Y-109861000D02*
X113441000Y-109861000D01*
X119049000Y-109821000D02*
X113361000Y-109821000D01*
X119126000Y-109781000D02*
X113284000Y-109781000D01*
X119201000Y-109741000D02*
X113209000Y-109741000D01*
X119274000Y-109701000D02*
X113136000Y-109701000D01*
X119345000Y-109661000D02*
X113065000Y-109661000D01*
X119413000Y-109621000D02*
X112997000Y-109621000D01*
X119480000Y-109581000D02*
X112930000Y-109581000D01*
X119544000Y-109541000D02*
X112866000Y-109541000D01*
X119607000Y-109501000D02*
X112803000Y-109501000D01*
X119669000Y-109461000D02*
X112741000Y-109461000D01*
X119729000Y-109421000D02*
X112681000Y-109421000D01*
X119788000Y-109381000D02*
X112622000Y-109381000D01*
X119845000Y-109341000D02*
X112565000Y-109341000D01*
X119901000Y-109301000D02*
X112509000Y-109301000D01*
X119955000Y-109261000D02*
X112455000Y-109261000D01*
X120009000Y-109221000D02*
X112401000Y-109221000D01*
X120061000Y-109181000D02*
X112349000Y-109181000D01*
X120112000Y-109141000D02*
X112298000Y-109141000D01*
X120162000Y-109101000D02*
X112248000Y-109101000D01*
X120212000Y-109061000D02*
X112198000Y-109061000D01*
X120260000Y-109021000D02*
X112150000Y-109021000D01*
X120307000Y-108981000D02*
X112103000Y-108981000D01*
X120353000Y-108941000D02*
X112057000Y-108941000D01*
X120399000Y-108901000D02*
X112011000Y-108901000D01*
X120443000Y-108861000D02*
X111967000Y-108861000D01*
X120487000Y-108821000D02*
X111923000Y-108821000D01*
X120530000Y-108781000D02*
X111880000Y-108781000D01*
X120572000Y-108741000D02*
X111838000Y-108741000D01*
X120613000Y-108701000D02*
X111797000Y-108701000D01*
X120654000Y-108661000D02*
X111756000Y-108661000D01*
X120694000Y-108621000D02*
X111716000Y-108621000D01*
X120733000Y-108581000D02*
X111677000Y-108581000D01*
X120772000Y-108541000D02*
X111638000Y-108541000D01*
X120810000Y-108501000D02*
X111600000Y-108501000D01*
X120847000Y-108461000D02*
X111563000Y-108461000D01*
X120883000Y-108421000D02*
X111527000Y-108421000D01*
X120919000Y-108381000D02*
X111491000Y-108381000D01*
X120955000Y-108341000D02*
X111455000Y-108341000D01*
X120990000Y-108301000D02*
X111420000Y-108301000D01*
X121024000Y-108261000D02*
X111386000Y-108261000D01*
X121057000Y-108221000D02*
X111353000Y-108221000D01*
X121090000Y-108181000D02*
X111320000Y-108181000D01*
X121123000Y-108141000D02*
X111287000Y-108141000D01*
X121155000Y-108101000D02*
X111255000Y-108101000D01*
X121187000Y-108061000D02*
X117645000Y-108061000D01*
X121217000Y-108021000D02*
X117645000Y-108021000D01*
X121248000Y-107981000D02*
X117645000Y-107981000D01*
X121278000Y-107941000D02*
X117645000Y-107941000D01*
X121307000Y-107901000D02*
X117645000Y-107901000D01*
X121336000Y-107861000D02*
X117645000Y-107861000D01*
X121365000Y-107821000D02*
X117645000Y-107821000D01*
X121393000Y-107781000D02*
X117645000Y-107781000D01*
X121421000Y-107741000D02*
X117645000Y-107741000D01*
X121448000Y-107701000D02*
X117645000Y-107701000D01*
X121475000Y-107661000D02*
X117645000Y-107661000D01*
X121501000Y-107621000D02*
X117645000Y-107621000D01*
X121527000Y-107581000D02*
X117645000Y-107581000D01*
X121552000Y-107541000D02*
X117645000Y-107541000D01*
X121577000Y-107501000D02*
X117645000Y-107501000D01*
X121602000Y-107461000D02*
X117645000Y-107461000D01*
X121626000Y-107421000D02*
X117645000Y-107421000D01*
X121650000Y-107381000D02*
X117645000Y-107381000D01*
X121673000Y-107341000D02*
X117645000Y-107341000D01*
X121696000Y-107301000D02*
X117645000Y-107301000D01*
X121719000Y-107261000D02*
X117645000Y-107261000D01*
X121741000Y-107221000D02*
X117645000Y-107221000D01*
X121763000Y-107181000D02*
X117645000Y-107181000D01*
X121785000Y-107141000D02*
X117645000Y-107141000D01*
X121806000Y-107101000D02*
X117645000Y-107101000D01*
X121827000Y-107061000D02*
X117645000Y-107061000D01*
X121847000Y-107021000D02*
X117645000Y-107021000D01*
X121867000Y-106981000D02*
X117645000Y-106981000D01*
X121887000Y-106941000D02*
X117645000Y-106941000D01*
X121907000Y-106901000D02*
X117645000Y-106901000D01*
X121926000Y-106861000D02*
X117645000Y-106861000D01*
X121944000Y-106821000D02*
X117645000Y-106821000D01*
X121963000Y-106781000D02*
X117645000Y-106781000D01*
X121981000Y-106741000D02*
X117645000Y-106741000D01*
X121998000Y-106701000D02*
X117645000Y-106701000D01*
X122016000Y-106661000D02*
X117645000Y-106661000D01*
X122033000Y-106621000D02*
X117645000Y-106621000D01*
X122050000Y-106581000D02*
X117645000Y-106581000D01*
X122066000Y-106541000D02*
X117645000Y-106541000D01*
X122082000Y-106501000D02*
X117645000Y-106501000D01*
X122098000Y-106461000D02*
X117645000Y-106461000D01*
X122113000Y-106421000D02*
X117645000Y-106421000D01*
X122129000Y-106381000D02*
X117645000Y-106381000D01*
X122144000Y-106341000D02*
X117645000Y-106341000D01*
X122158000Y-106301000D02*
X117645000Y-106301000D01*
X122172000Y-106261000D02*
X117645000Y-106261000D01*
X122186000Y-106221000D02*
X117645000Y-106221000D01*
X122200000Y-106181000D02*
X117645000Y-106181000D01*
X122213000Y-106141000D02*
X117645000Y-106141000D01*
X122226000Y-106101000D02*
X117645000Y-106101000D01*
X122239000Y-106061000D02*
X117645000Y-106061000D01*
X122252000Y-106021000D02*
X117645000Y-106021000D01*
X122264000Y-105981000D02*
X117645000Y-105981000D01*
X122276000Y-105941000D02*
X117645000Y-105941000D01*
X122288000Y-105901000D02*
X117645000Y-105901000D01*
X122299000Y-105861000D02*
X117645000Y-105861000D01*
X122310000Y-105821000D02*
X117645000Y-105821000D01*
X122321000Y-105781000D02*
X117645000Y-105781000D01*
X122331000Y-105741000D02*
X117645000Y-105741000D01*
X122342000Y-105701000D02*
X117645000Y-105701000D01*
X122351000Y-105661000D02*
X117645000Y-105661000D01*
X122361000Y-105621000D02*
X117645000Y-105621000D01*
X122371000Y-105581000D02*
X117645000Y-105581000D01*
X122380000Y-105541000D02*
X117645000Y-105541000D01*
X122389000Y-105501000D02*
X117645000Y-105501000D01*
X122397000Y-105461000D02*
X117645000Y-105461000D01*
X122406000Y-105421000D02*
X117645000Y-105421000D01*
X122414000Y-105381000D02*
X117645000Y-105381000D01*
X122421000Y-105341000D02*
X117645000Y-105341000D01*
X122429000Y-105301000D02*
X117645000Y-105301000D01*
X122436000Y-105261000D02*
X117645000Y-105261000D01*
X122443000Y-105221000D02*
X117645000Y-105221000D01*
X122450000Y-105181000D02*
X109960000Y-105181000D01*
X122457000Y-105141000D02*
X109953000Y-105141000D01*
X122463000Y-105101000D02*
X109947000Y-105101000D01*
X122469000Y-105061000D02*
X109941000Y-105061000D01*
X122474000Y-105021000D02*
X109936000Y-105021000D01*
X122480000Y-104981000D02*
X109930000Y-104981000D01*
X122485000Y-104941000D02*
X109925000Y-104941000D01*
X122490000Y-104901000D02*
X109920000Y-104901000D01*
X122495000Y-104861000D02*
X109915000Y-104861000D01*
X122499000Y-104820000D02*
X109911000Y-104820000D01*
X122503000Y-104780000D02*
X109907000Y-104780000D01*
X122507000Y-104740000D02*
X109903000Y-104740000D01*
X122511000Y-104700000D02*
X109899000Y-104700000D01*
X122514000Y-104660000D02*
X109896000Y-104660000D01*
X122517000Y-104620000D02*
X109893000Y-104620000D01*
X122520000Y-104580000D02*
X109890000Y-104580000D01*
X122523000Y-104540000D02*
X109887000Y-104540000D01*
X122525000Y-104500000D02*
X109885000Y-104500000D01*
X122527000Y-104460000D02*
X109883000Y-104460000D01*
X122529000Y-104420000D02*
X109881000Y-104420000D01*
X122531000Y-104380000D02*
X109879000Y-104380000D01*
X122532000Y-104340000D02*
X109878000Y-104340000D01*
X122533000Y-104300000D02*
X109877000Y-104300000D01*
X122534000Y-104260000D02*
X109876000Y-104260000D01*
X122535000Y-104140000D02*
X109875000Y-104140000D01*
X122535000Y-104180000D02*
X109875000Y-104180000D01*
X122535000Y-104220000D02*
X109875000Y-104220000D01*
X122575000Y-104140000D02*
G75*
G02*
X109835000Y-104140000I-6370000J0D01*
G01*
X109835000Y-104140000D02*
G75*
G02*
X122575000Y-104140000I6370000J0D01*
G01*
%TO.C,TP2*%
X134095000Y-92780000D02*
X134095000Y-95180000D01*
X134095000Y-95180000D02*
X138995000Y-95180000D01*
X138995000Y-92780000D02*
X134095000Y-92780000D01*
X138995000Y-95180000D02*
X138995000Y-92780000D01*
%TO.C,U1*%
X105985000Y-76080000D02*
X105985000Y-86480000D01*
X105985000Y-86480000D02*
X116265000Y-86480000D01*
X108475000Y-76140000D02*
X108475000Y-86420000D01*
X108475000Y-86420000D02*
X110125000Y-86420000D01*
X112125000Y-86420000D02*
X113775000Y-86420000D01*
X113775000Y-76140000D02*
X108475000Y-76140000D01*
X113775000Y-86420000D02*
X113775000Y-76140000D01*
X116265000Y-76080000D02*
X105985000Y-76080000D01*
X116265000Y-86480000D02*
X116265000Y-76080000D01*
X110125000Y-86420000D02*
G75*
G02*
X112125000Y-86420000I1000000J0D01*
G01*
%TO.C,C8*%
X107505000Y-92110000D02*
X107505000Y-95850000D01*
X107505000Y-92110000D02*
X114745000Y-92110000D01*
X107505000Y-95850000D02*
X114745000Y-95850000D01*
X114745000Y-92110000D02*
X114745000Y-95850000D01*
%TO.C,R8*%
X188447500Y-77432500D02*
X188447500Y-89572500D01*
X188447500Y-89572500D02*
X193187500Y-89572500D01*
X190817500Y-74782500D02*
X190817500Y-77432500D01*
X190817500Y-92222500D02*
X190817500Y-89572500D01*
X193187500Y-77432500D02*
X188447500Y-77432500D01*
X193187500Y-89572500D02*
X193187500Y-77432500D01*
%TO.C,D2*%
X144812500Y-100907500D02*
X144812500Y-104187500D01*
X144812500Y-104187500D02*
X146652500Y-104187500D01*
X145732500Y-99727500D02*
X145732500Y-100907500D01*
X145732500Y-105367500D02*
X145732500Y-104187500D01*
X146652500Y-100907500D02*
X144812500Y-100907500D01*
X146652500Y-101363500D02*
X144812500Y-101363500D01*
X146652500Y-101483500D02*
X144812500Y-101483500D01*
X146652500Y-101603500D02*
X144812500Y-101603500D01*
X146652500Y-104187500D02*
X146652500Y-100907500D01*
%TO.C,D3*%
X147352500Y-100917500D02*
X147352500Y-104197500D01*
X147352500Y-103501500D02*
X149192500Y-103501500D01*
X147352500Y-103621500D02*
X149192500Y-103621500D01*
X147352500Y-103741500D02*
X149192500Y-103741500D01*
X147352500Y-104197500D02*
X149192500Y-104197500D01*
X148272500Y-99737500D02*
X148272500Y-100917500D01*
X148272500Y-105377500D02*
X148272500Y-104197500D01*
X149192500Y-100917500D02*
X147352500Y-100917500D01*
X149192500Y-104197500D02*
X149192500Y-100917500D01*
%TO.C,D1*%
X97305000Y-84235000D02*
X97305000Y-88475000D01*
X97305000Y-88475000D02*
X99545000Y-88475000D01*
X98425000Y-83585000D02*
X98425000Y-84235000D01*
X98425000Y-89125000D02*
X98425000Y-88475000D01*
X99545000Y-84235000D02*
X97305000Y-84235000D01*
X99545000Y-84835000D02*
X97305000Y-84835000D01*
X99545000Y-84955000D02*
X97305000Y-84955000D01*
X99545000Y-85075000D02*
X97305000Y-85075000D01*
X99545000Y-88475000D02*
X99545000Y-84235000D01*
%TO.C,TP1*%
X115005000Y-92780000D02*
X115005000Y-95180000D01*
X115005000Y-95180000D02*
X119905000Y-95180000D01*
X119905000Y-92780000D02*
X115005000Y-92780000D01*
X119905000Y-95180000D02*
X119905000Y-92780000D01*
%TO.C,R4*%
X142272500Y-100632500D02*
X142272500Y-104472500D01*
X142272500Y-104472500D02*
X144112500Y-104472500D01*
X143192500Y-99682500D02*
X143192500Y-100632500D01*
X143192500Y-105422500D02*
X143192500Y-104472500D01*
X144112500Y-100632500D02*
X142272500Y-100632500D01*
X144112500Y-104472500D02*
X144112500Y-100632500D01*
%TO.C,C2*%
X97345000Y-79340000D02*
X97345000Y-75600000D01*
X104585000Y-75600000D02*
X97345000Y-75600000D01*
X104585000Y-79340000D02*
X97345000Y-79340000D01*
X104585000Y-79340000D02*
X104585000Y-75600000D01*
%TO.C,RV1*%
X158432500Y-86555000D02*
X158432500Y-96325000D01*
X158607500Y-85035000D02*
X158607500Y-86554000D01*
X159822500Y-85035000D02*
X159822500Y-85794000D01*
X161037500Y-85035000D02*
X158607500Y-85035000D01*
X161037500Y-85035000D02*
X161037500Y-86554000D01*
X161037500Y-86554000D02*
X158607500Y-86554000D01*
X163502500Y-86555000D02*
X158432500Y-86555000D01*
X163502500Y-86555000D02*
X163502500Y-96325000D01*
X163502500Y-96325000D02*
X158432500Y-96325000D01*
%TD*%
M02*
