%TF.GenerationSoftware,KiCad,Pcbnew,8.0.4*%
%TF.CreationDate,2025-04-29T13:50:39+07:00*%
%TF.ProjectId,REM-4.0,52454d2d-342e-4302-9e6b-696361645f70,rev?*%
%TF.SameCoordinates,Original*%
%TF.FileFunction,Copper,L1,Top*%
%TF.FilePolarity,Positive*%
%FSLAX46Y46*%
G04 Gerber Fmt 4.6, Leading zero omitted, Abs format (unit mm)*
G04 Created by KiCad (PCBNEW 8.0.4) date 2025-04-29 13:50:39*
%MOMM*%
%LPD*%
G01*
G04 APERTURE LIST*
%TA.AperFunction,ComponentPad*%
%ADD10C,2.000000*%
%TD*%
%TA.AperFunction,ComponentPad*%
%ADD11R,2.000000X2.000000*%
%TD*%
%TA.AperFunction,ComponentPad*%
%ADD12O,2.000000X2.000000*%
%TD*%
%TA.AperFunction,ComponentPad*%
%ADD13C,1.600000*%
%TD*%
%TA.AperFunction,ComponentPad*%
%ADD14C,3.000000*%
%TD*%
%TA.AperFunction,ComponentPad*%
%ADD15C,2.400000*%
%TD*%
%TA.AperFunction,ComponentPad*%
%ADD16O,2.400000X2.400000*%
%TD*%
%TA.AperFunction,ComponentPad*%
%ADD17R,1.905000X2.000000*%
%TD*%
%TA.AperFunction,ComponentPad*%
%ADD18O,1.905000X2.000000*%
%TD*%
%TA.AperFunction,ComponentPad*%
%ADD19C,1.500000*%
%TD*%
%TA.AperFunction,ComponentPad*%
%ADD20C,1.400000*%
%TD*%
%TA.AperFunction,ComponentPad*%
%ADD21O,1.400000X1.400000*%
%TD*%
%TA.AperFunction,ComponentPad*%
%ADD22R,2.400000X2.400000*%
%TD*%
%TA.AperFunction,ComponentPad*%
%ADD23R,1.600000X1.600000*%
%TD*%
%TA.AperFunction,ComponentPad*%
%ADD24O,1.600000X1.600000*%
%TD*%
%TA.AperFunction,ComponentPad*%
%ADD25R,1.500000X1.500000*%
%TD*%
%TA.AperFunction,ComponentPad*%
%ADD26O,1.500000X1.500000*%
%TD*%
%TA.AperFunction,ComponentPad*%
%ADD27R,1.800000X1.800000*%
%TD*%
%TA.AperFunction,ComponentPad*%
%ADD28O,1.800000X1.800000*%
%TD*%
%TA.AperFunction,ComponentPad*%
%ADD29C,1.440000*%
%TD*%
%TA.AperFunction,Conductor*%
%ADD30C,0.635000*%
%TD*%
G04 APERTURE END LIST*
D10*
%TO.P,C12,1*%
%TO.N,Net-(J2-Pin_1)*%
X185420000Y-97235000D03*
%TO.P,C12,2*%
%TO.N,Net-(J2-Pin_3)*%
X185420000Y-107235000D03*
%TD*%
D11*
%TO.P,J2,1,Pin_1*%
%TO.N,Net-(J2-Pin_1)*%
X180022500Y-101282500D03*
D12*
X180022500Y-103822500D03*
%TO.P,J2,2,Pin_2*%
%TO.N,Net-(J2-Pin_2)*%
X174942500Y-101282500D03*
X174942500Y-103822500D03*
%TO.P,J2,3,Pin_3*%
%TO.N,Net-(J2-Pin_3)*%
X169862500Y-101282500D03*
X169862500Y-103822500D03*
%TD*%
D13*
%TO.P,C1,1*%
%TO.N,Net-(D1-K)*%
X108625000Y-90170000D03*
%TO.P,C1,2*%
%TO.N,GND*%
X113625000Y-90170000D03*
%TD*%
D11*
%TO.P,J1,1,Pin_1*%
%TO.N,Net-(J1-Pin_1)*%
X106045000Y-101282500D03*
D12*
X106045000Y-103822500D03*
%TO.P,J1,2,Pin_2*%
%TO.N,unconnected-(J1-Pin_2-Pad2)*%
X103505000Y-101282500D03*
X103505000Y-103822500D03*
%TO.P,J1,3,Pin_3*%
%TO.N,GND*%
X100965000Y-101282500D03*
X100965000Y-103822500D03*
%TO.P,J1,4,Pin_4*%
%TO.N,+5V*%
X98425000Y-101282500D03*
X98425000Y-103822500D03*
%TD*%
D10*
%TO.P,TP7,1,1*%
%TO.N,GND*%
X98425000Y-69532500D03*
X100965000Y-69532500D03*
%TD*%
D14*
%TO.P,L1,1,1*%
%TO.N,Net-(Q1-D)*%
X135255000Y-88900000D03*
%TO.P,L1,2,2*%
%TO.N,+5V*%
X150495000Y-83820000D03*
%TO.P,L1,3,3*%
%TO.N,Net-(L1-Pad3)*%
X142240000Y-76200000D03*
%TO.P,L1,4,4*%
%TO.N,Net-(L1-Pad4)*%
X148590000Y-69215000D03*
%TD*%
D15*
%TO.P,R9,1*%
%TO.N,Net-(J2-Pin_1)*%
X185420000Y-93662500D03*
D16*
%TO.P,R9,2*%
%TO.N,Net-(L1-Pad3)*%
X185420000Y-73342500D03*
%TD*%
D13*
%TO.P,C4,1*%
%TO.N,Net-(D2-K)*%
X140017500Y-100052500D03*
%TO.P,C4,2*%
%TO.N,Net-(Q1-D)*%
X140017500Y-105052500D03*
%TD*%
D11*
%TO.P,JP2,1,1*%
%TO.N,+5V*%
X114935000Y-87630000D03*
%TD*%
D10*
%TO.P,TP5,1,1*%
%TO.N,Net-(J1-Pin_1)*%
X155892500Y-93980000D03*
X153352500Y-93980000D03*
%TD*%
D17*
%TO.P,Q1,1,G*%
%TO.N,Net-(Q1-G)*%
X124460000Y-90170000D03*
D18*
%TO.P,Q1,2,D*%
%TO.N,Net-(Q1-D)*%
X127000000Y-90170000D03*
%TO.P,Q1,3,S*%
%TO.N,GND*%
X129540000Y-90170000D03*
%TD*%
D19*
%TO.P,JP7,1,1*%
%TO.N,+5V*%
X127635000Y-98742500D03*
%TD*%
%TO.P,JP8,1,1*%
%TO.N,+5V*%
X135255000Y-98742500D03*
%TD*%
D20*
%TO.P,R1,1*%
%TO.N,+5V*%
X103505000Y-90170000D03*
D21*
%TO.P,R1,2*%
%TO.N,Net-(D1-A)*%
X103505000Y-82550000D03*
%TD*%
D20*
%TO.P,R2,1*%
%TO.N,Net-(D1-A)*%
X100965000Y-90170000D03*
D21*
%TO.P,R2,2*%
%TO.N,Net-(D1-K)*%
X100965000Y-82550000D03*
%TD*%
D13*
%TO.P,C5,1*%
%TO.N,Net-(D3-K)*%
X157797500Y-100052500D03*
%TO.P,C5,2*%
%TO.N,GND*%
X157797500Y-105052500D03*
%TD*%
D10*
%TO.P,C11,1*%
%TO.N,Net-(J2-Pin_2)*%
X190817500Y-97235000D03*
%TO.P,C11,2*%
%TO.N,Net-(J2-Pin_3)*%
X190817500Y-107235000D03*
%TD*%
D13*
%TO.P,C6,1*%
%TO.N,Net-(J1-Pin_1)*%
X153987500Y-100052500D03*
%TO.P,C6,2*%
%TO.N,GND*%
X153987500Y-105052500D03*
%TD*%
D20*
%TO.P,R5,1*%
%TO.N,Net-(D3-K)*%
X150812500Y-106362500D03*
D21*
%TO.P,R5,2*%
%TO.N,Net-(J1-Pin_1)*%
X150812500Y-98742500D03*
%TD*%
D20*
%TO.P,R3,1*%
%TO.N,Net-(U1-Q)*%
X118745000Y-82550000D03*
D21*
%TO.P,R3,2*%
%TO.N,Net-(Q1-G)*%
X118745000Y-90170000D03*
%TD*%
D10*
%TO.P,C3,1*%
%TO.N,+5V*%
X122000000Y-93980000D03*
%TO.P,C3,2*%
%TO.N,Net-(Q1-D)*%
X132000000Y-93980000D03*
%TD*%
%TO.P,TP6,1,1*%
%TO.N,Net-(J1-Pin_1)*%
X168592500Y-93980000D03*
X166052500Y-93980000D03*
%TD*%
D22*
%TO.P,C7,1*%
%TO.N,+5V*%
X116205000Y-101640000D03*
D15*
%TO.P,C7,2*%
%TO.N,GND*%
X116205000Y-106640000D03*
%TD*%
D10*
%TO.P,TP2,1,1*%
%TO.N,Net-(Q1-D)*%
X137795000Y-93980000D03*
X135255000Y-93980000D03*
%TD*%
D23*
%TO.P,U1,1,GND*%
%TO.N,GND*%
X114935000Y-85090000D03*
D24*
%TO.P,U1,2,TR*%
%TO.N,Net-(D1-K)*%
X114935000Y-82550000D03*
%TO.P,U1,3,Q*%
%TO.N,Net-(U1-Q)*%
X114935000Y-80010000D03*
%TO.P,U1,4,R*%
%TO.N,+5V*%
X114935000Y-77470000D03*
%TO.P,U1,5,CV*%
%TO.N,Net-(U1-CV)*%
X107315000Y-77470000D03*
%TO.P,U1,6,THR*%
%TO.N,Net-(D1-K)*%
X107315000Y-80010000D03*
%TO.P,U1,7,DIS*%
%TO.N,Net-(D1-A)*%
X107315000Y-82550000D03*
%TO.P,U1,8,VCC*%
%TO.N,+5V*%
X107315000Y-85090000D03*
%TD*%
D13*
%TO.P,C8,1*%
%TO.N,+5V*%
X108625000Y-93980000D03*
%TO.P,C8,2*%
%TO.N,GND*%
X113625000Y-93980000D03*
%TD*%
D15*
%TO.P,R8,1*%
%TO.N,Net-(J2-Pin_2)*%
X190817500Y-93662500D03*
D16*
%TO.P,R8,2*%
%TO.N,Net-(L1-Pad4)*%
X190817500Y-73342500D03*
%TD*%
D25*
%TO.P,D2,1,K*%
%TO.N,Net-(D2-K)*%
X145732500Y-98737500D03*
D26*
%TO.P,D2,2,A*%
%TO.N,GND*%
X145732500Y-106357500D03*
%TD*%
D25*
%TO.P,D3,1,K*%
%TO.N,Net-(D3-K)*%
X148272500Y-106367500D03*
D26*
%TO.P,D3,2,A*%
%TO.N,Net-(D2-K)*%
X148272500Y-98747500D03*
%TD*%
D27*
%TO.P,D1,1,K*%
%TO.N,Net-(D1-K)*%
X98425000Y-82545000D03*
D28*
%TO.P,D1,2,A*%
%TO.N,Net-(D1-A)*%
X98425000Y-90165000D03*
%TD*%
D10*
%TO.P,TP1,1,1*%
%TO.N,+5V*%
X116205000Y-93980000D03*
X118745000Y-93980000D03*
%TD*%
D20*
%TO.P,R4,1*%
%TO.N,GND*%
X143192500Y-106362500D03*
D21*
%TO.P,R4,2*%
%TO.N,Net-(D2-K)*%
X143192500Y-98742500D03*
%TD*%
D13*
%TO.P,C2,1*%
%TO.N,Net-(U1-CV)*%
X103465000Y-77470000D03*
%TO.P,C2,2*%
%TO.N,GND*%
X98465000Y-77470000D03*
%TD*%
D29*
%TO.P,RV1,1,1*%
%TO.N,GND*%
X160972500Y-93980000D03*
%TO.P,RV1,2,2*%
X160972500Y-91440000D03*
%TO.P,RV1,3,3*%
%TO.N,Net-(J1-Pin_1)*%
X160972500Y-88900000D03*
%TD*%
D11*
%TO.P,JP1,1,1*%
%TO.N,+5V*%
X107315000Y-87630000D03*
%TD*%
D30*
%TO.N,+5V*%
X107315000Y-87630000D02*
X114935000Y-87630000D01*
%TD*%
M02*
