M48
; DRILL file {KiCad 8.0.4} date 2025-03-05T14:46:56+0700
; FORMAT={-:-/ absolute / inch / decimal}
; #@! TF.CreationDate,2025-03-05T14:46:56+07:00
; #@! TF.GenerationSoftware,Kicad,Pcbnew,8.0.4
; #@! TF.FileFunction,Plated,1,2,PTH
FMAT,2
INCH
; #@! TA.AperFunction,Plated,PTH,ComponentDrill
T1C0.0276
; #@! TA.AperFunction,Plated,PTH,ComponentDrill
T2C0.0295
; #@! TA.AperFunction,Plated,PTH,ComponentDrill
T3C0.0315
; #@! TA.AperFunction,Plated,PTH,ComponentDrill
T4C0.0394
; #@! TA.AperFunction,Plated,PTH,ComponentDrill
T5C0.0433
; #@! TA.AperFunction,Plated,PTH,ComponentDrill
T6C0.0591
%
G90
G05
T1
X3.225Y-1.875
X3.225Y-2.175
X3.325Y-1.875
X3.325Y-2.175
X3.925Y-1.875
X3.925Y-2.175
X6.15Y-2.0252
X6.15Y-2.3252
T2
X3.125Y-1.8748
X3.125Y-2.1748
X6.35Y-2.0252
X6.35Y-2.3252
X6.55Y-2.025
X6.55Y-2.325
T3
X3.1266Y-1.675
X3.3234Y-1.675
X3.475Y-1.675
X3.475Y-1.775
X3.475Y-1.875
X3.475Y-1.975
X3.5266Y-2.175
X3.5266Y-2.325
X3.7234Y-2.175
X3.7234Y-2.325
X3.775Y-1.675
X3.775Y-1.775
X3.775Y-1.875
X3.775Y-1.975
X5.5996Y-2.0252
X5.5996Y-2.1252
X5.5996Y-2.3252
X5.5996Y-2.4252
X5.8996Y-2.0252
X5.8996Y-2.1252
X5.8996Y-2.3252
X5.8996Y-2.4252
T4
X3.225Y-2.4625
X3.325Y-2.4625
X3.425Y-2.4625
X3.475Y-2.075
X3.525Y-2.4625
X3.775Y-2.075
X3.9Y-2.4
X4.0Y-2.4
X4.1343Y-2.4
X4.528Y-2.4
X4.6625Y-2.4
X4.7625Y-2.4
X6.1Y-1.55
X6.1531Y-1.825
X6.2Y-1.55
X6.35Y-2.4625
X6.5469Y-1.825
X6.55Y-2.4625
X6.7Y-1.55
X6.75Y-2.4625
X6.8Y-1.55
T5
X4.2312Y-2.175
X4.3312Y-2.175
X4.4312Y-2.175
T6
X4.925Y-1.6
X4.925Y-2.4
X5.325Y-1.6
X5.325Y-2.4
M30
