%TF.GenerationSoftware,KiCad,Pcbnew,8.0.4*%
%TF.CreationDate,2025-03-05T14:00:16+07:00*%
%TF.ProjectId,MSD-1.0,4d53442d-312e-4302-9e6b-696361645f70,rev?*%
%TF.SameCoordinates,Original*%
%TF.FileFunction,Copper,L1,Top*%
%TF.FilePolarity,Positive*%
%FSLAX46Y46*%
G04 Gerber Fmt 4.6, Leading zero omitted, Abs format (unit mm)*
G04 Created by KiCad (PCBNEW 8.0.4) date 2025-03-05 14:00:16*
%MOMM*%
%LPD*%
G01*
G04 APERTURE LIST*
%TA.AperFunction,ComponentPad*%
%ADD10R,1.500000X1.500000*%
%TD*%
%TA.AperFunction,ComponentPad*%
%ADD11O,1.500000X1.500000*%
%TD*%
%TA.AperFunction,ComponentPad*%
%ADD12C,2.000000*%
%TD*%
%TA.AperFunction,ComponentPad*%
%ADD13R,1.700000X1.700000*%
%TD*%
%TA.AperFunction,ComponentPad*%
%ADD14O,1.700000X1.700000*%
%TD*%
%TA.AperFunction,ComponentPad*%
%ADD15R,1.600000X1.600000*%
%TD*%
%TA.AperFunction,ComponentPad*%
%ADD16O,1.600000X1.600000*%
%TD*%
%TA.AperFunction,ComponentPad*%
%ADD17C,1.400000*%
%TD*%
%TA.AperFunction,ComponentPad*%
%ADD18O,1.400000X1.400000*%
%TD*%
%TA.AperFunction,ComponentPad*%
%ADD19C,1.600000*%
%TD*%
%TA.AperFunction,ComponentPad*%
%ADD20R,2.000000X2.000000*%
%TD*%
%TA.AperFunction,ComponentPad*%
%ADD21R,1.905000X2.000000*%
%TD*%
%TA.AperFunction,ComponentPad*%
%ADD22O,1.905000X2.000000*%
%TD*%
%TA.AperFunction,ComponentPad*%
%ADD23R,3.000000X3.000000*%
%TD*%
%TA.AperFunction,ComponentPad*%
%ADD24C,3.000000*%
%TD*%
G04 APERTURE END LIST*
D10*
%TO.P,D3,1,K*%
%TO.N,Net-(D3-K)*%
X161290000Y-59060000D03*
D11*
%TO.P,D3,2,A*%
%TO.N,Net-(D2-K)*%
X161290000Y-51440000D03*
%TD*%
D12*
%TO.P,TP2,1,1*%
%TO.N,Net-(Q1-D)*%
X118427500Y-60960000D03*
X120967500Y-60960000D03*
%TD*%
D13*
%TO.P,J2,1,Pin_1*%
%TO.N,Net-(J2-Pin_1)*%
X171450000Y-62547500D03*
D14*
%TO.P,J2,2,Pin_2*%
%TO.N,Net-(D2-A)*%
X166370000Y-62547500D03*
%TO.P,J2,3,Pin_3*%
%TO.N,Net-(D3-K)*%
X161290000Y-62547500D03*
%TD*%
D15*
%TO.P,U3,1*%
%TO.N,Net-(C5-Pad1)*%
X149850000Y-53980000D03*
D16*
%TO.P,U3,2*%
%TO.N,Net-(R4-Pad1)*%
X149850000Y-51440000D03*
%TO.P,U3,3*%
%TO.N,GND*%
X142230000Y-51440000D03*
%TO.P,U3,4*%
%TO.N,Net-(J1-Pin_1)*%
X142230000Y-53980000D03*
%TD*%
D12*
%TO.P,TP3,1,1*%
%TO.N,Net-(C5-Pad1)*%
X154940000Y-39370000D03*
X157480000Y-39370000D03*
%TD*%
D17*
%TO.P,R4,1*%
%TO.N,Net-(R4-Pad1)*%
X156210000Y-59060000D03*
D18*
%TO.P,R4,2*%
%TO.N,Net-(D2-K)*%
X156210000Y-51440000D03*
%TD*%
D19*
%TO.P,C2,1*%
%TO.N,Net-(U1-CV)*%
X84415000Y-42545000D03*
%TO.P,C2,2*%
%TO.N,GND*%
X79415000Y-42545000D03*
%TD*%
D20*
%TO.P,TP6,1,1*%
%TO.N,+12V*%
X95885000Y-52705000D03*
%TD*%
D10*
%TO.P,D1,1,K*%
%TO.N,Net-(D1-K)*%
X79375000Y-47620000D03*
D11*
%TO.P,D1,2,A*%
%TO.N,Net-(D1-A)*%
X79375000Y-55240000D03*
%TD*%
D17*
%TO.P,R1,1*%
%TO.N,+12V*%
X84455000Y-55245000D03*
D18*
%TO.P,R1,2*%
%TO.N,Net-(D1-A)*%
X84455000Y-47625000D03*
%TD*%
D10*
%TO.P,D2,1,K*%
%TO.N,Net-(D2-K)*%
X166370000Y-51435000D03*
D11*
%TO.P,D2,2,A*%
%TO.N,Net-(D2-A)*%
X166370000Y-59055000D03*
%TD*%
D12*
%TO.P,TP1,1,1*%
%TO.N,+12V*%
X99060000Y-60960000D03*
X101600000Y-60960000D03*
%TD*%
%TO.P,TP4,1,1*%
%TO.N,Net-(J2-Pin_1)*%
X170180000Y-39370000D03*
X172720000Y-39370000D03*
%TD*%
D20*
%TO.P,TP5,1,1*%
%TO.N,+12V*%
X88265000Y-52705000D03*
%TD*%
D12*
%TO.P,C3,1*%
%TO.N,+12V*%
X105011250Y-60960000D03*
%TO.P,C3,2*%
%TO.N,Net-(Q1-D)*%
X115011250Y-60960000D03*
%TD*%
D15*
%TO.P,U2,1*%
%TO.N,Net-(R4-Pad1)*%
X149850000Y-61600000D03*
D16*
%TO.P,U2,2*%
%TO.N,Net-(C5-Pad1)*%
X149850000Y-59060000D03*
%TO.P,U2,3*%
%TO.N,GND*%
X142230000Y-59060000D03*
%TO.P,U2,4*%
%TO.N,Net-(J1-Pin_2)*%
X142230000Y-61600000D03*
%TD*%
D15*
%TO.P,U1,1,GND*%
%TO.N,GND*%
X95885000Y-50165000D03*
D16*
%TO.P,U1,2,TR*%
%TO.N,Net-(D1-K)*%
X95885000Y-47625000D03*
%TO.P,U1,3,Q*%
%TO.N,Net-(U1-Q)*%
X95885000Y-45085000D03*
%TO.P,U1,4,R*%
%TO.N,+12V*%
X95885000Y-42545000D03*
%TO.P,U1,5,CV*%
%TO.N,Net-(U1-CV)*%
X88265000Y-42545000D03*
%TO.P,U1,6,THR*%
%TO.N,Net-(D1-K)*%
X88265000Y-45085000D03*
%TO.P,U1,7,DIS*%
%TO.N,Net-(D1-A)*%
X88265000Y-47625000D03*
%TO.P,U1,8,VCC*%
%TO.N,+12V*%
X88265000Y-50165000D03*
%TD*%
D17*
%TO.P,R3,1*%
%TO.N,Net-(U1-Q)*%
X99695000Y-47625000D03*
D18*
%TO.P,R3,2*%
%TO.N,Net-(Q1-G)*%
X99695000Y-55245000D03*
%TD*%
D12*
%TO.P,C5,1*%
%TO.N,Net-(C5-Pad1)*%
X156290000Y-46355000D03*
%TO.P,C5,2*%
%TO.N,Net-(D2-K)*%
X166290000Y-46355000D03*
%TD*%
D19*
%TO.P,C4,1*%
%TO.N,+12V*%
X89575000Y-59055000D03*
%TO.P,C4,2*%
%TO.N,GND*%
X94575000Y-59055000D03*
%TD*%
D21*
%TO.P,Q1,1,G*%
%TO.N,Net-(Q1-G)*%
X107471250Y-55245000D03*
D22*
%TO.P,Q1,2,D*%
%TO.N,Net-(Q1-D)*%
X110011250Y-55245000D03*
%TO.P,Q1,3,S*%
%TO.N,GND*%
X112551250Y-55245000D03*
%TD*%
D19*
%TO.P,C1,1*%
%TO.N,Net-(D1-K)*%
X89575000Y-55245000D03*
%TO.P,C1,2*%
%TO.N,GND*%
X94575000Y-55245000D03*
%TD*%
D23*
%TO.P,L1,1,1*%
%TO.N,Net-(Q1-D)*%
X125095000Y-60960000D03*
D24*
%TO.P,L1,2,2*%
%TO.N,+12V*%
X135255000Y-60960000D03*
%TO.P,L1,3,3*%
%TO.N,Net-(C5-Pad1)*%
X135255000Y-40640000D03*
%TO.P,L1,4,4*%
%TO.N,Net-(J2-Pin_1)*%
X125095000Y-40640000D03*
%TD*%
D17*
%TO.P,R2,1*%
%TO.N,Net-(D1-A)*%
X81915000Y-55245000D03*
D18*
%TO.P,R2,2*%
%TO.N,Net-(D1-K)*%
X81915000Y-47625000D03*
%TD*%
D13*
%TO.P,J1,1,Pin_1*%
%TO.N,Net-(J1-Pin_1)*%
X89535000Y-62547500D03*
D14*
%TO.P,J1,2,Pin_2*%
%TO.N,Net-(J1-Pin_2)*%
X86995000Y-62547500D03*
%TO.P,J1,3,Pin_3*%
%TO.N,GND*%
X84455000Y-62547500D03*
%TO.P,J1,4,Pin_4*%
%TO.N,+12V*%
X81915000Y-62547500D03*
%TD*%
M02*
