%TF.GenerationSoftware,KiCad,Pcbnew,8.0.4*%
%TF.CreationDate,2025-03-05T14:00:16+07:00*%
%TF.ProjectId,MSD-1.0,4d53442d-312e-4302-9e6b-696361645f70,rev?*%
%TF.SameCoordinates,Original*%
%TF.FileFunction,Copper,L2,Bot*%
%TF.FilePolarity,Positive*%
%FSLAX46Y46*%
G04 Gerber Fmt 4.6, Leading zero omitted, Abs format (unit mm)*
G04 Created by KiCad (PCBNEW 8.0.4) date 2025-03-05 14:00:16*
%MOMM*%
%LPD*%
G01*
G04 APERTURE LIST*
%TA.AperFunction,ComponentPad*%
%ADD10R,1.500000X1.500000*%
%TD*%
%TA.AperFunction,ComponentPad*%
%ADD11O,1.500000X1.500000*%
%TD*%
%TA.AperFunction,ComponentPad*%
%ADD12C,2.000000*%
%TD*%
%TA.AperFunction,ComponentPad*%
%ADD13R,1.700000X1.700000*%
%TD*%
%TA.AperFunction,ComponentPad*%
%ADD14O,1.700000X1.700000*%
%TD*%
%TA.AperFunction,ComponentPad*%
%ADD15R,1.600000X1.600000*%
%TD*%
%TA.AperFunction,ComponentPad*%
%ADD16O,1.600000X1.600000*%
%TD*%
%TA.AperFunction,ComponentPad*%
%ADD17C,1.400000*%
%TD*%
%TA.AperFunction,ComponentPad*%
%ADD18O,1.400000X1.400000*%
%TD*%
%TA.AperFunction,ComponentPad*%
%ADD19C,1.600000*%
%TD*%
%TA.AperFunction,ComponentPad*%
%ADD20R,2.000000X2.000000*%
%TD*%
%TA.AperFunction,ComponentPad*%
%ADD21R,1.905000X2.000000*%
%TD*%
%TA.AperFunction,ComponentPad*%
%ADD22O,1.905000X2.000000*%
%TD*%
%TA.AperFunction,ComponentPad*%
%ADD23R,3.000000X3.000000*%
%TD*%
%TA.AperFunction,ComponentPad*%
%ADD24C,3.000000*%
%TD*%
%TA.AperFunction,Conductor*%
%ADD25C,1.270000*%
%TD*%
%TA.AperFunction,Conductor*%
%ADD26C,0.635000*%
%TD*%
%TA.AperFunction,Conductor*%
%ADD27C,0.000000*%
%TD*%
%TA.AperFunction,Conductor*%
%ADD28C,0.317500*%
%TD*%
G04 APERTURE END LIST*
D10*
%TO.P,D3,1,K*%
%TO.N,Net-(D3-K)*%
X161290000Y-59060000D03*
D11*
%TO.P,D3,2,A*%
%TO.N,Net-(D2-K)*%
X161290000Y-51440000D03*
%TD*%
D12*
%TO.P,TP2,1,1*%
%TO.N,Net-(Q1-D)*%
X118427500Y-60960000D03*
X120967500Y-60960000D03*
%TD*%
D13*
%TO.P,J2,1,Pin_1*%
%TO.N,Net-(J2-Pin_1)*%
X171450000Y-62547500D03*
D14*
%TO.P,J2,2,Pin_2*%
%TO.N,Net-(D2-A)*%
X166370000Y-62547500D03*
%TO.P,J2,3,Pin_3*%
%TO.N,Net-(D3-K)*%
X161290000Y-62547500D03*
%TD*%
D15*
%TO.P,U3,1*%
%TO.N,Net-(C5-Pad1)*%
X149850000Y-53980000D03*
D16*
%TO.P,U3,2*%
%TO.N,Net-(R4-Pad1)*%
X149850000Y-51440000D03*
%TO.P,U3,3*%
%TO.N,GND*%
X142230000Y-51440000D03*
%TO.P,U3,4*%
%TO.N,Net-(J1-Pin_1)*%
X142230000Y-53980000D03*
%TD*%
D12*
%TO.P,TP3,1,1*%
%TO.N,Net-(C5-Pad1)*%
X154940000Y-39370000D03*
X157480000Y-39370000D03*
%TD*%
D17*
%TO.P,R4,1*%
%TO.N,Net-(R4-Pad1)*%
X156210000Y-59060000D03*
D18*
%TO.P,R4,2*%
%TO.N,Net-(D2-K)*%
X156210000Y-51440000D03*
%TD*%
D19*
%TO.P,C2,1*%
%TO.N,Net-(U1-CV)*%
X84415000Y-42545000D03*
%TO.P,C2,2*%
%TO.N,GND*%
X79415000Y-42545000D03*
%TD*%
D20*
%TO.P,TP6,1,1*%
%TO.N,+12V*%
X95885000Y-52705000D03*
%TD*%
D10*
%TO.P,D1,1,K*%
%TO.N,Net-(D1-K)*%
X79375000Y-47620000D03*
D11*
%TO.P,D1,2,A*%
%TO.N,Net-(D1-A)*%
X79375000Y-55240000D03*
%TD*%
D17*
%TO.P,R1,1*%
%TO.N,+12V*%
X84455000Y-55245000D03*
D18*
%TO.P,R1,2*%
%TO.N,Net-(D1-A)*%
X84455000Y-47625000D03*
%TD*%
D10*
%TO.P,D2,1,K*%
%TO.N,Net-(D2-K)*%
X166370000Y-51435000D03*
D11*
%TO.P,D2,2,A*%
%TO.N,Net-(D2-A)*%
X166370000Y-59055000D03*
%TD*%
D12*
%TO.P,TP1,1,1*%
%TO.N,+12V*%
X99060000Y-60960000D03*
X101600000Y-60960000D03*
%TD*%
%TO.P,TP4,1,1*%
%TO.N,Net-(J2-Pin_1)*%
X170180000Y-39370000D03*
X172720000Y-39370000D03*
%TD*%
D20*
%TO.P,TP5,1,1*%
%TO.N,+12V*%
X88265000Y-52705000D03*
%TD*%
D12*
%TO.P,C3,1*%
%TO.N,+12V*%
X105011250Y-60960000D03*
%TO.P,C3,2*%
%TO.N,Net-(Q1-D)*%
X115011250Y-60960000D03*
%TD*%
D15*
%TO.P,U2,1*%
%TO.N,Net-(R4-Pad1)*%
X149850000Y-61600000D03*
D16*
%TO.P,U2,2*%
%TO.N,Net-(C5-Pad1)*%
X149850000Y-59060000D03*
%TO.P,U2,3*%
%TO.N,GND*%
X142230000Y-59060000D03*
%TO.P,U2,4*%
%TO.N,Net-(J1-Pin_2)*%
X142230000Y-61600000D03*
%TD*%
D15*
%TO.P,U1,1,GND*%
%TO.N,GND*%
X95885000Y-50165000D03*
D16*
%TO.P,U1,2,TR*%
%TO.N,Net-(D1-K)*%
X95885000Y-47625000D03*
%TO.P,U1,3,Q*%
%TO.N,Net-(U1-Q)*%
X95885000Y-45085000D03*
%TO.P,U1,4,R*%
%TO.N,+12V*%
X95885000Y-42545000D03*
%TO.P,U1,5,CV*%
%TO.N,Net-(U1-CV)*%
X88265000Y-42545000D03*
%TO.P,U1,6,THR*%
%TO.N,Net-(D1-K)*%
X88265000Y-45085000D03*
%TO.P,U1,7,DIS*%
%TO.N,Net-(D1-A)*%
X88265000Y-47625000D03*
%TO.P,U1,8,VCC*%
%TO.N,+12V*%
X88265000Y-50165000D03*
%TD*%
D17*
%TO.P,R3,1*%
%TO.N,Net-(U1-Q)*%
X99695000Y-47625000D03*
D18*
%TO.P,R3,2*%
%TO.N,Net-(Q1-G)*%
X99695000Y-55245000D03*
%TD*%
D12*
%TO.P,C5,1*%
%TO.N,Net-(C5-Pad1)*%
X156290000Y-46355000D03*
%TO.P,C5,2*%
%TO.N,Net-(D2-K)*%
X166290000Y-46355000D03*
%TD*%
D19*
%TO.P,C4,1*%
%TO.N,+12V*%
X89575000Y-59055000D03*
%TO.P,C4,2*%
%TO.N,GND*%
X94575000Y-59055000D03*
%TD*%
D21*
%TO.P,Q1,1,G*%
%TO.N,Net-(Q1-G)*%
X107471250Y-55245000D03*
D22*
%TO.P,Q1,2,D*%
%TO.N,Net-(Q1-D)*%
X110011250Y-55245000D03*
%TO.P,Q1,3,S*%
%TO.N,GND*%
X112551250Y-55245000D03*
%TD*%
D19*
%TO.P,C1,1*%
%TO.N,Net-(D1-K)*%
X89575000Y-55245000D03*
%TO.P,C1,2*%
%TO.N,GND*%
X94575000Y-55245000D03*
%TD*%
D23*
%TO.P,L1,1,1*%
%TO.N,Net-(Q1-D)*%
X125095000Y-60960000D03*
D24*
%TO.P,L1,2,2*%
%TO.N,+12V*%
X135255000Y-60960000D03*
%TO.P,L1,3,3*%
%TO.N,Net-(C5-Pad1)*%
X135255000Y-40640000D03*
%TO.P,L1,4,4*%
%TO.N,Net-(J2-Pin_1)*%
X125095000Y-40640000D03*
%TD*%
D17*
%TO.P,R2,1*%
%TO.N,Net-(D1-A)*%
X81915000Y-55245000D03*
D18*
%TO.P,R2,2*%
%TO.N,Net-(D1-K)*%
X81915000Y-47625000D03*
%TD*%
D13*
%TO.P,J1,1,Pin_1*%
%TO.N,Net-(J1-Pin_1)*%
X89535000Y-62547500D03*
D14*
%TO.P,J1,2,Pin_2*%
%TO.N,Net-(J1-Pin_2)*%
X86995000Y-62547500D03*
%TO.P,J1,3,Pin_3*%
%TO.N,GND*%
X84455000Y-62547500D03*
%TO.P,J1,4,Pin_4*%
%TO.N,+12V*%
X81915000Y-62547500D03*
%TD*%
D25*
%TO.N,Net-(U1-CV)*%
X88255000Y-42535000D02*
X84425000Y-42535000D01*
X84425000Y-42535000D02*
X84415000Y-42545000D01*
%TO.N,Net-(Q1-D)*%
X120967500Y-60960000D02*
X125095000Y-60960000D01*
X110011250Y-57785000D02*
X113186250Y-60960000D01*
X115011250Y-60960000D02*
X121441250Y-60960000D01*
X110011250Y-55245000D02*
X110011250Y-57785000D01*
X113186250Y-60960000D02*
X115011250Y-60960000D01*
D26*
%TO.N,Net-(D1-A)*%
X81915000Y-50482500D02*
X84455000Y-47942500D01*
X80640000Y-55240000D02*
X80645000Y-55245000D01*
X79375000Y-55240000D02*
X81910000Y-55240000D01*
X84455000Y-47625000D02*
X88245000Y-47625000D01*
X88245000Y-47625000D02*
X88255000Y-47615000D01*
X81915000Y-55245000D02*
X81915000Y-50482500D01*
%TO.N,Net-(D1-K)*%
X91430000Y-47620000D02*
X91435000Y-47615000D01*
X90487500Y-54332500D02*
X90487500Y-48572500D01*
X79375000Y-47620000D02*
X81602500Y-47620000D01*
X91435000Y-47615000D02*
X90487500Y-46667500D01*
X90487500Y-47620000D02*
X91430000Y-47620000D01*
X81602500Y-47620000D02*
X84455000Y-44767500D01*
X87947500Y-44767500D02*
X88255000Y-45075000D01*
X91445000Y-47615000D02*
X91435000Y-47615000D01*
X91445000Y-47615000D02*
X95875000Y-47615000D01*
X88582500Y-44762500D02*
X90487500Y-46667500D01*
X89575000Y-55245000D02*
X90487500Y-54332500D01*
X90487500Y-46667500D02*
X90487500Y-47620000D01*
X84455000Y-44767500D02*
X87947500Y-44767500D01*
X90487500Y-47620000D02*
X90487500Y-48572500D01*
X90487500Y-48572500D02*
X91445000Y-47615000D01*
D25*
%TO.N,Net-(Q1-G)*%
X99695000Y-55245000D02*
X107471250Y-55245000D01*
D26*
%TO.N,Net-(U1-Q)*%
X95875000Y-45075000D02*
X98415000Y-45075000D01*
X99695000Y-46355000D02*
X99695000Y-47625000D01*
X98415000Y-45075000D02*
X99695000Y-46355000D01*
%TO.N,+12V*%
X131762500Y-64452500D02*
X111956250Y-64452500D01*
D25*
X98415000Y-42535000D02*
X95875000Y-42535000D01*
X97155000Y-53975000D02*
X97155000Y-53340000D01*
X84455000Y-51415000D02*
X84455000Y-56515000D01*
D26*
X111956250Y-64452500D02*
X108463750Y-60960000D01*
X88275000Y-52695000D02*
X88265000Y-52705000D01*
D25*
X99060000Y-60960000D02*
X101600000Y-60960000D01*
X97155000Y-59055000D02*
X97155000Y-53975000D01*
D26*
X108463750Y-60960000D02*
X105011250Y-60960000D01*
D25*
X88305000Y-57785000D02*
X89575000Y-59055000D01*
X101600000Y-48895000D02*
X101600000Y-45720000D01*
X97790000Y-52705000D02*
X97155000Y-53340000D01*
D26*
X88255000Y-52695000D02*
X88265000Y-52705000D01*
D25*
X99060000Y-60960000D02*
X97155000Y-59055000D01*
X84455000Y-56515000D02*
X84455000Y-57785000D01*
X81915000Y-62547500D02*
X81915000Y-60325000D01*
X101600000Y-60960000D02*
X105011250Y-60960000D01*
X85725000Y-50165000D02*
X88265000Y-50165000D01*
X97155000Y-52705000D02*
X95885000Y-52705000D01*
X101600000Y-48895000D02*
X97790000Y-52705000D01*
X88255000Y-50155000D02*
X88255000Y-52695000D01*
X84455000Y-57785000D02*
X85725000Y-57785000D01*
X97155000Y-53340000D02*
X97155000Y-52705000D01*
X85725000Y-57785000D02*
X88305000Y-57785000D01*
X95885000Y-52705000D02*
X97155000Y-53975000D01*
X97790000Y-52705000D02*
X97155000Y-52705000D01*
X81915000Y-60325000D02*
X84455000Y-57785000D01*
D26*
X108463750Y-60960000D02*
X105092500Y-60960000D01*
D25*
X85715000Y-50155000D02*
X84455000Y-51415000D01*
X101600000Y-45720000D02*
X98415000Y-42535000D01*
D27*
X88255000Y-50155000D02*
X85735000Y-50155000D01*
D25*
X84455000Y-56515000D02*
X85725000Y-57785000D01*
D26*
X135255000Y-60960000D02*
X131762500Y-64452500D01*
D28*
%TO.N,Net-(J1-Pin_1)*%
X89535000Y-62547500D02*
X89535000Y-64770000D01*
X140335000Y-55880000D02*
X142230000Y-53985000D01*
X139700000Y-65405000D02*
X140335000Y-64770000D01*
X140335000Y-64770000D02*
X140335000Y-55880000D01*
X90170000Y-65405000D02*
X139700000Y-65405000D01*
X89535000Y-64770000D02*
X90170000Y-65405000D01*
%TO.N,Net-(J1-Pin_2)*%
X86995000Y-64770000D02*
X86995000Y-62547500D01*
X142230000Y-61600000D02*
X140970000Y-62860000D01*
X140970000Y-65087500D02*
X140970000Y-62860000D01*
X140017500Y-66040000D02*
X88265000Y-66040000D01*
X140017500Y-66040000D02*
X140970000Y-65087500D01*
X88265000Y-66040000D02*
X86995000Y-64770000D01*
D25*
%TO.N,Net-(C5-Pad1)*%
X156290000Y-40720000D02*
X154940000Y-39370000D01*
X145415000Y-45402500D02*
X136525000Y-45402500D01*
X156290000Y-40720000D02*
X156290000Y-40560000D01*
X154940000Y-39370000D02*
X157480000Y-39370000D01*
X146685000Y-52705000D02*
X146685000Y-46672500D01*
X149850000Y-53980000D02*
X147960000Y-53980000D01*
X135255000Y-44132500D02*
X136525000Y-45402500D01*
X156210000Y-46355000D02*
X156290000Y-46355000D01*
X147960000Y-53980000D02*
X146685000Y-52705000D01*
X135255000Y-40640000D02*
X135255000Y-44132500D01*
X136525000Y-39370000D02*
X154940000Y-39370000D01*
X156290000Y-46355000D02*
X156290000Y-40720000D01*
X135255000Y-40640000D02*
X136525000Y-39370000D01*
X156290000Y-40560000D02*
X157480000Y-39370000D01*
X149850000Y-53980000D02*
X149850000Y-59060000D01*
X146685000Y-46672500D02*
X145415000Y-45402500D01*
%TO.N,Net-(D2-K)*%
X161290000Y-51440000D02*
X166365000Y-51440000D01*
X166365000Y-51440000D02*
X166370000Y-51435000D01*
X166330000Y-51395000D02*
X166370000Y-51435000D01*
X156210000Y-51440000D02*
X161290000Y-51440000D01*
X166330000Y-46355000D02*
X166330000Y-51395000D01*
%TO.N,Net-(R4-Pad1)*%
X156210000Y-59060000D02*
X156210000Y-55880000D01*
X151770000Y-51440000D02*
X149850000Y-51440000D01*
X155252500Y-61600000D02*
X156210000Y-60642500D01*
X156210000Y-60642500D02*
X156210000Y-59060000D01*
X155252500Y-61600000D02*
X149850000Y-61600000D01*
X156210000Y-55880000D02*
X151770000Y-51440000D01*
%TO.N,Net-(J2-Pin_1)*%
X171450000Y-40640000D02*
X170180000Y-39370000D01*
X171450000Y-40640000D02*
X172720000Y-39370000D01*
X171450000Y-62547500D02*
X171450000Y-40640000D01*
X125095000Y-40640000D02*
X129540000Y-36195000D01*
X129540000Y-36195000D02*
X167005000Y-36195000D01*
X172720000Y-39370000D02*
X170180000Y-39370000D01*
X167005000Y-36195000D02*
X170180000Y-39370000D01*
%TO.N,Net-(D2-A)*%
X166370000Y-59055000D02*
X166370000Y-62547500D01*
%TO.N,Net-(D3-K)*%
X161290000Y-59060000D02*
X161290000Y-62547500D01*
%TD*%
%TA.AperFunction,Conductor*%
%TO.N,GND*%
G36*
X103838431Y-35580002D02*
G01*
X103859405Y-35596905D01*
X104420595Y-36158095D01*
X104454621Y-36220407D01*
X104457500Y-36247190D01*
X104457500Y-48577501D01*
X106362498Y-50482499D01*
X106362500Y-50482500D01*
X141385894Y-50482500D01*
X141454015Y-50502502D01*
X141500508Y-50556158D01*
X141510612Y-50626432D01*
X141483294Y-50688433D01*
X141349389Y-50851598D01*
X141251519Y-51034698D01*
X141191248Y-51233388D01*
X141190597Y-51239998D01*
X141190598Y-51240000D01*
X141883589Y-51240000D01*
X141857259Y-51285606D01*
X141830000Y-51387339D01*
X141830000Y-51492661D01*
X141857259Y-51594394D01*
X141883590Y-51640000D01*
X141190598Y-51640000D01*
X141190597Y-51640001D01*
X141191248Y-51646611D01*
X141251519Y-51845301D01*
X141349389Y-52028401D01*
X141475088Y-52181567D01*
X141502841Y-52246914D01*
X141490859Y-52316893D01*
X141442946Y-52369284D01*
X141377688Y-52387500D01*
X141287498Y-52387500D01*
X137831905Y-55843095D01*
X137769593Y-55877121D01*
X137742810Y-55880000D01*
X113802373Y-55880000D01*
X113734252Y-55859998D01*
X113687759Y-55806342D01*
X113677655Y-55736068D01*
X113682540Y-55715064D01*
X113728040Y-55575027D01*
X113748636Y-55445000D01*
X113067062Y-55445000D01*
X113101250Y-55317409D01*
X113101250Y-55172591D01*
X113067062Y-55045000D01*
X113748635Y-55045000D01*
X113728040Y-54914972D01*
X113669359Y-54734369D01*
X113669356Y-54734363D01*
X113583139Y-54565152D01*
X113471515Y-54411515D01*
X113337234Y-54277234D01*
X113183597Y-54165610D01*
X113014386Y-54079393D01*
X113014380Y-54079390D01*
X112833778Y-54020709D01*
X112751250Y-54007637D01*
X112751250Y-54729188D01*
X112623659Y-54695000D01*
X112478841Y-54695000D01*
X112351250Y-54729188D01*
X112351250Y-54007637D01*
X112268721Y-54020709D01*
X112088119Y-54079390D01*
X112088107Y-54079395D01*
X111943202Y-54153228D01*
X111873425Y-54166332D01*
X111807641Y-54139631D01*
X111766735Y-54081604D01*
X111760000Y-54040961D01*
X111760000Y-53340000D01*
X111759999Y-53339998D01*
X110807501Y-52387500D01*
X110807500Y-52387500D01*
X106045000Y-52387500D01*
X106044998Y-52387500D01*
X104494405Y-53938095D01*
X104432093Y-53972120D01*
X104405310Y-53975000D01*
X101334690Y-53975000D01*
X101266569Y-53954998D01*
X101245595Y-53938095D01*
X100684405Y-53376905D01*
X100650379Y-53314593D01*
X100647500Y-53287810D01*
X100647500Y-51804690D01*
X100667502Y-51736569D01*
X100684405Y-51715595D01*
X102870000Y-49530000D01*
X102870000Y-45085000D01*
X102869999Y-45084998D01*
X98742501Y-40957500D01*
X98742500Y-40957500D01*
X82867500Y-40957500D01*
X82867498Y-40957500D01*
X77787500Y-46037498D01*
X77787500Y-46037500D01*
X77787500Y-56173449D01*
X78431853Y-56823225D01*
X79640854Y-56832120D01*
X79708826Y-56852623D01*
X79729022Y-56869022D01*
X80290595Y-57430595D01*
X80324621Y-57492907D01*
X80327500Y-57519690D01*
X80327500Y-63500001D01*
X80962498Y-64134999D01*
X80962500Y-64135000D01*
X82867500Y-64135000D01*
X83502500Y-63500000D01*
X83502500Y-63458438D01*
X83522502Y-63390317D01*
X83576158Y-63343824D01*
X83646432Y-63333720D01*
X83711012Y-63363214D01*
X83713386Y-63365323D01*
X83786838Y-63432284D01*
X83960796Y-63539993D01*
X83960803Y-63539996D01*
X84151577Y-63613903D01*
X84151575Y-63613903D01*
X84255000Y-63633236D01*
X84255000Y-63009379D01*
X84262007Y-63013425D01*
X84389174Y-63047500D01*
X84520826Y-63047500D01*
X84647993Y-63013425D01*
X84655000Y-63009379D01*
X84655000Y-63633236D01*
X84758423Y-63613903D01*
X84949196Y-63539996D01*
X84949203Y-63539993D01*
X85123161Y-63432284D01*
X85196614Y-63365323D01*
X85260431Y-63334212D01*
X85330937Y-63342542D01*
X85385748Y-63387668D01*
X85407460Y-63455263D01*
X85407500Y-63458438D01*
X85407500Y-65352810D01*
X85387498Y-65420931D01*
X85370595Y-65441905D01*
X84809405Y-66003095D01*
X84747093Y-66037121D01*
X84720310Y-66040000D01*
X77522190Y-66040000D01*
X77454069Y-66019998D01*
X77433095Y-66003095D01*
X76871905Y-65441905D01*
X76837879Y-65379593D01*
X76835000Y-65352810D01*
X76835000Y-42544996D01*
X78355900Y-42544996D01*
X78355900Y-42545003D01*
X78376248Y-42751611D01*
X78436519Y-42950301D01*
X78534389Y-43133402D01*
X78538611Y-43138546D01*
X79028629Y-42648528D01*
X79042259Y-42699394D01*
X79094920Y-42790606D01*
X79169394Y-42865080D01*
X79260606Y-42917741D01*
X79311471Y-42931370D01*
X78821452Y-43421388D01*
X78826588Y-43425603D01*
X78826600Y-43425611D01*
X79009698Y-43523480D01*
X79208388Y-43583751D01*
X79414997Y-43604100D01*
X79415003Y-43604100D01*
X79621611Y-43583751D01*
X79820301Y-43523480D01*
X80003401Y-43425610D01*
X80008545Y-43421388D01*
X79518528Y-42931370D01*
X79569394Y-42917741D01*
X79660606Y-42865080D01*
X79735080Y-42790606D01*
X79787741Y-42699394D01*
X79801370Y-42648527D01*
X80291388Y-43138545D01*
X80295610Y-43133401D01*
X80393480Y-42950301D01*
X80453751Y-42751611D01*
X80474100Y-42545003D01*
X80474100Y-42544996D01*
X80453751Y-42338388D01*
X80393480Y-42139698D01*
X80295611Y-41956600D01*
X80295603Y-41956588D01*
X80291388Y-41951452D01*
X79801370Y-42441470D01*
X79787741Y-42390606D01*
X79735080Y-42299394D01*
X79660606Y-42224920D01*
X79569394Y-42172259D01*
X79518528Y-42158629D01*
X80008546Y-41668611D01*
X80003402Y-41664389D01*
X79820301Y-41566519D01*
X79621611Y-41506248D01*
X79415003Y-41485900D01*
X79414997Y-41485900D01*
X79208388Y-41506248D01*
X79009700Y-41566519D01*
X78826592Y-41664393D01*
X78821453Y-41668610D01*
X79311472Y-42158629D01*
X79260606Y-42172259D01*
X79169394Y-42224920D01*
X79094920Y-42299394D01*
X79042259Y-42390606D01*
X79028629Y-42441471D01*
X78538610Y-41951453D01*
X78534393Y-41956592D01*
X78436519Y-42139700D01*
X78376248Y-42338388D01*
X78355900Y-42544996D01*
X76835000Y-42544996D01*
X76835000Y-36247190D01*
X76855002Y-36179069D01*
X76871905Y-36158095D01*
X77433095Y-35596905D01*
X77495407Y-35562879D01*
X77522190Y-35560000D01*
X103770310Y-35560000D01*
X103838431Y-35580002D01*
G37*
%TD.AperFunction*%
%TA.AperFunction,Conductor*%
G36*
X93360931Y-48597502D02*
G01*
X93381900Y-48614400D01*
X94297500Y-49530000D01*
X94705000Y-49530000D01*
X94773121Y-49550002D01*
X94819614Y-49603658D01*
X94831000Y-49656000D01*
X94831000Y-49965000D01*
X95538589Y-49965000D01*
X95512259Y-50010606D01*
X95485000Y-50112339D01*
X95485000Y-50217661D01*
X95512259Y-50319394D01*
X95538590Y-50365000D01*
X94831000Y-50365000D01*
X94831000Y-50849308D01*
X94810998Y-50917429D01*
X94794096Y-50938403D01*
X94297500Y-51434999D01*
X94297500Y-51435000D01*
X94297500Y-53657500D01*
X94615028Y-53975028D01*
X94649052Y-54037339D01*
X94643988Y-54108154D01*
X94601441Y-54164990D01*
X94538282Y-54189515D01*
X94368388Y-54206248D01*
X94169700Y-54266519D01*
X93986592Y-54364393D01*
X93981453Y-54368610D01*
X94471472Y-54858629D01*
X94420606Y-54872259D01*
X94329394Y-54924920D01*
X94254920Y-54999394D01*
X94202259Y-55090606D01*
X94188629Y-55141471D01*
X93698610Y-54651453D01*
X93694393Y-54656592D01*
X93596519Y-54839700D01*
X93536248Y-55038388D01*
X93515900Y-55244996D01*
X93515900Y-55245003D01*
X93536248Y-55451611D01*
X93596519Y-55650301D01*
X93694389Y-55833402D01*
X93698611Y-55838546D01*
X94188629Y-55348528D01*
X94202259Y-55399394D01*
X94254920Y-55490606D01*
X94329394Y-55565080D01*
X94420606Y-55617741D01*
X94471471Y-55631370D01*
X93981452Y-56121388D01*
X93986588Y-56125603D01*
X93986600Y-56125611D01*
X94169698Y-56223480D01*
X94368388Y-56283751D01*
X94574997Y-56304100D01*
X94575003Y-56304100D01*
X94781611Y-56283751D01*
X94980301Y-56223480D01*
X95163401Y-56125610D01*
X95168545Y-56121388D01*
X94678528Y-55631370D01*
X94729394Y-55617741D01*
X94820606Y-55565080D01*
X94895080Y-55490606D01*
X94947741Y-55399394D01*
X94961370Y-55348527D01*
X95457528Y-55844686D01*
X95504344Y-55855973D01*
X95553410Y-55907285D01*
X95567500Y-55965182D01*
X95567500Y-58334815D01*
X95547498Y-58402936D01*
X95493842Y-58449429D01*
X95456182Y-58456658D01*
X94961370Y-58951470D01*
X94947741Y-58900606D01*
X94895080Y-58809394D01*
X94820606Y-58734920D01*
X94729394Y-58682259D01*
X94678528Y-58668629D01*
X95168546Y-58178611D01*
X95163402Y-58174389D01*
X94980301Y-58076519D01*
X94781611Y-58016248D01*
X94575003Y-57995900D01*
X94574997Y-57995900D01*
X94368388Y-58016248D01*
X94169700Y-58076519D01*
X93986592Y-58174393D01*
X93981453Y-58178610D01*
X94471472Y-58668629D01*
X94420606Y-58682259D01*
X94329394Y-58734920D01*
X94254920Y-58809394D01*
X94202259Y-58900606D01*
X94188629Y-58951471D01*
X93698610Y-58461453D01*
X93694393Y-58466592D01*
X93596519Y-58649700D01*
X93536248Y-58848388D01*
X93515900Y-59054996D01*
X93515900Y-59055003D01*
X93536248Y-59261611D01*
X93596519Y-59460301D01*
X93694389Y-59643402D01*
X93698611Y-59648546D01*
X94188629Y-59158528D01*
X94202259Y-59209394D01*
X94254920Y-59300606D01*
X94329394Y-59375080D01*
X94420606Y-59427741D01*
X94471471Y-59441370D01*
X93981452Y-59931388D01*
X93986588Y-59935603D01*
X93986600Y-59935611D01*
X94169698Y-60033480D01*
X94368388Y-60093751D01*
X94574997Y-60114100D01*
X94575003Y-60114100D01*
X94781611Y-60093751D01*
X94980301Y-60033480D01*
X95163401Y-59935610D01*
X95168545Y-59931388D01*
X94678528Y-59441370D01*
X94729394Y-59427741D01*
X94820606Y-59375080D01*
X94895080Y-59300606D01*
X94947741Y-59209394D01*
X94961370Y-59158527D01*
X95457529Y-59654686D01*
X95504344Y-59665973D01*
X95553410Y-59717285D01*
X95567500Y-59775182D01*
X95567500Y-64082810D01*
X95547498Y-64150931D01*
X95530595Y-64171905D01*
X94969405Y-64733095D01*
X94907093Y-64767121D01*
X94880310Y-64770000D01*
X92127190Y-64770000D01*
X92059069Y-64749998D01*
X92038095Y-64733095D01*
X91476905Y-64171905D01*
X91442879Y-64109593D01*
X91440000Y-64082810D01*
X91440000Y-61595000D01*
X91439999Y-61594998D01*
X90805001Y-60960000D01*
X90805000Y-60960000D01*
X86042500Y-60960000D01*
X86042498Y-60960000D01*
X85407500Y-61594998D01*
X85407500Y-61636561D01*
X85387498Y-61704682D01*
X85333842Y-61751175D01*
X85263568Y-61761279D01*
X85198988Y-61731785D01*
X85196615Y-61729676D01*
X85123164Y-61662717D01*
X84949203Y-61555006D01*
X84949196Y-61555003D01*
X84758422Y-61481096D01*
X84758416Y-61481094D01*
X84655000Y-61461761D01*
X84655000Y-62085620D01*
X84647993Y-62081575D01*
X84520826Y-62047500D01*
X84389174Y-62047500D01*
X84262007Y-62081575D01*
X84255000Y-62085620D01*
X84255000Y-61461761D01*
X84254999Y-61461761D01*
X84151583Y-61481094D01*
X84151577Y-61481096D01*
X83960803Y-61555003D01*
X83960796Y-61555006D01*
X83786835Y-61662717D01*
X83713385Y-61729676D01*
X83649568Y-61760787D01*
X83579062Y-61752457D01*
X83524252Y-61707331D01*
X83502540Y-61639735D01*
X83502500Y-61636561D01*
X83502500Y-61329690D01*
X83522502Y-61261569D01*
X83539405Y-61240595D01*
X84100595Y-60679405D01*
X84162907Y-60645379D01*
X84189690Y-60642500D01*
X90487500Y-60642500D01*
X91440000Y-59690000D01*
X91440000Y-49264690D01*
X91460002Y-49196569D01*
X91476905Y-49175595D01*
X92038095Y-48614405D01*
X92100407Y-48580379D01*
X92127190Y-48577500D01*
X93292810Y-48577500D01*
X93360931Y-48597502D01*
G37*
%TD.AperFunction*%
%TA.AperFunction,Conductor*%
G36*
X143843431Y-50502502D02*
G01*
X143864405Y-50519405D01*
X144425595Y-51080595D01*
X144459621Y-51142907D01*
X144462500Y-51169690D01*
X144462500Y-59320310D01*
X144442498Y-59388431D01*
X144425595Y-59409405D01*
X143864405Y-59970595D01*
X143802093Y-60004621D01*
X143775310Y-60007500D01*
X143082312Y-60007500D01*
X143014191Y-59987498D01*
X142967698Y-59933842D01*
X142957594Y-59863568D01*
X142984912Y-59801567D01*
X143110610Y-59648401D01*
X143208480Y-59465301D01*
X143268751Y-59266611D01*
X143269402Y-59260001D01*
X143269402Y-59260000D01*
X142576410Y-59260000D01*
X142602741Y-59214394D01*
X142630000Y-59112661D01*
X142630000Y-59007339D01*
X142602741Y-58905606D01*
X142576411Y-58860000D01*
X143269402Y-58860000D01*
X143269402Y-58859998D01*
X143268751Y-58853388D01*
X143208480Y-58654698D01*
X143110610Y-58471598D01*
X142978896Y-58311103D01*
X142818401Y-58179389D01*
X142635301Y-58081519D01*
X142436617Y-58021249D01*
X142430000Y-58020596D01*
X142430000Y-58713589D01*
X142384394Y-58687259D01*
X142282661Y-58660000D01*
X142177339Y-58660000D01*
X142075606Y-58687259D01*
X142030000Y-58713589D01*
X142030000Y-58020596D01*
X142023383Y-58021249D01*
X142023381Y-58021249D01*
X141824698Y-58081519D01*
X141641598Y-58179389D01*
X141493433Y-58300984D01*
X141428085Y-58328737D01*
X141358107Y-58316755D01*
X141305716Y-58268842D01*
X141287500Y-58203584D01*
X141287500Y-56249690D01*
X141307502Y-56181569D01*
X141324405Y-56160595D01*
X141885595Y-55599405D01*
X141947907Y-55565379D01*
X141974690Y-55562500D01*
X143192500Y-55562500D01*
X143827500Y-54927500D01*
X143827500Y-53022500D01*
X143827499Y-53022498D01*
X143192501Y-52387500D01*
X143192500Y-52387500D01*
X143082312Y-52387500D01*
X143014191Y-52367498D01*
X142967698Y-52313842D01*
X142957594Y-52243568D01*
X142984912Y-52181567D01*
X143110610Y-52028401D01*
X143208480Y-51845301D01*
X143268751Y-51646611D01*
X143269402Y-51640001D01*
X143269402Y-51640000D01*
X142576410Y-51640000D01*
X142602741Y-51594394D01*
X142630000Y-51492661D01*
X142630000Y-51387339D01*
X142602741Y-51285606D01*
X142576411Y-51240000D01*
X143269402Y-51240000D01*
X143269402Y-51239998D01*
X143268751Y-51233388D01*
X143208480Y-51034698D01*
X143110610Y-50851598D01*
X142976706Y-50688433D01*
X142948953Y-50623085D01*
X142960935Y-50553107D01*
X143008848Y-50500716D01*
X143074106Y-50482500D01*
X143775310Y-50482500D01*
X143843431Y-50502502D01*
G37*
%TD.AperFunction*%
%TD*%
%TA.AperFunction,NonConductor*%
G36*
X113519427Y-35579685D02*
G01*
X113540069Y-35596319D01*
X114102431Y-36158681D01*
X114135916Y-36220004D01*
X114138750Y-36246362D01*
X114138750Y-48526138D01*
X114119065Y-48593177D01*
X114102431Y-48613819D01*
X113540069Y-49176181D01*
X113478746Y-49209666D01*
X113452388Y-49212500D01*
X106570112Y-49212500D01*
X106503073Y-49192815D01*
X106482431Y-49176181D01*
X105920069Y-48613819D01*
X105886584Y-48552496D01*
X105883750Y-48526138D01*
X105883750Y-38584998D01*
X108001630Y-38584998D01*
X108001630Y-38585001D01*
X108006434Y-38652168D01*
X108006750Y-38661014D01*
X108006750Y-38716389D01*
X108015631Y-38783839D01*
X108016376Y-38791179D01*
X108022085Y-38870999D01*
X108022086Y-38871010D01*
X108033702Y-38924407D01*
X108035475Y-38934575D01*
X108041047Y-38976894D01*
X108041050Y-38976905D01*
X108061940Y-39054871D01*
X108063331Y-39060605D01*
X108083032Y-39151169D01*
X108083034Y-39151176D01*
X108097698Y-39190492D01*
X108101290Y-39201728D01*
X108109055Y-39230706D01*
X108144791Y-39316980D01*
X108146408Y-39321090D01*
X108157933Y-39351989D01*
X108183235Y-39419827D01*
X108197263Y-39445517D01*
X108202990Y-39457487D01*
X108209608Y-39473465D01*
X108209610Y-39473468D01*
X108262639Y-39565318D01*
X108264083Y-39567889D01*
X108320650Y-39671483D01*
X108320654Y-39671488D01*
X108320655Y-39671490D01*
X108320655Y-39671491D01*
X108330574Y-39684740D01*
X108338693Y-39697048D01*
X108340990Y-39701027D01*
X108413311Y-39795277D01*
X108414202Y-39796453D01*
X108492474Y-39901013D01*
X108492488Y-39901028D01*
X108498207Y-39906747D01*
X108498236Y-39906778D01*
X108689852Y-40098395D01*
X108689891Y-40098431D01*
X108695229Y-40103769D01*
X108799861Y-40182095D01*
X108800932Y-40182907D01*
X108895220Y-40255257D01*
X108899196Y-40257552D01*
X108911499Y-40265667D01*
X108924767Y-40275600D01*
X108996553Y-40314798D01*
X109028358Y-40332165D01*
X109030931Y-40333610D01*
X109122780Y-40386639D01*
X109134568Y-40391521D01*
X109138758Y-40393257D01*
X109150730Y-40398984D01*
X109176424Y-40413015D01*
X109243699Y-40438107D01*
X109275138Y-40449833D01*
X109279258Y-40451454D01*
X109365532Y-40487190D01*
X109365542Y-40487194D01*
X109394529Y-40494960D01*
X109405742Y-40498545D01*
X109445075Y-40513216D01*
X109535679Y-40532925D01*
X109541362Y-40534304D01*
X109619352Y-40555202D01*
X109661669Y-40560773D01*
X109671824Y-40562542D01*
X109725251Y-40574165D01*
X109805072Y-40579873D01*
X109812391Y-40580615D01*
X109879868Y-40589500D01*
X109935235Y-40589500D01*
X109944081Y-40589816D01*
X110011249Y-40594620D01*
X110011250Y-40594620D01*
X110011251Y-40594620D01*
X110078419Y-40589816D01*
X110087265Y-40589500D01*
X110142626Y-40589500D01*
X110142632Y-40589500D01*
X110210114Y-40580614D01*
X110217423Y-40579873D01*
X110297249Y-40574165D01*
X110350670Y-40562543D01*
X110360832Y-40560772D01*
X110403148Y-40555202D01*
X110481141Y-40534302D01*
X110486803Y-40532928D01*
X110577425Y-40513216D01*
X110616761Y-40498543D01*
X110627987Y-40494955D01*
X110656958Y-40487194D01*
X110743307Y-40451426D01*
X110747300Y-40449855D01*
X110846076Y-40413015D01*
X110871778Y-40398979D01*
X110883745Y-40393255D01*
X110899720Y-40386639D01*
X110991651Y-40333561D01*
X110994096Y-40332189D01*
X111097733Y-40275600D01*
X111110998Y-40265668D01*
X111123308Y-40257549D01*
X111127280Y-40255257D01*
X111221652Y-40182841D01*
X111222529Y-40182176D01*
X111327271Y-40103769D01*
X111331389Y-40099650D01*
X111331415Y-40099628D01*
X111525878Y-39905165D01*
X111525900Y-39905139D01*
X111530019Y-39901021D01*
X111608426Y-39796279D01*
X111609091Y-39795402D01*
X111681507Y-39701030D01*
X111683806Y-39697048D01*
X111691918Y-39684748D01*
X111701850Y-39671483D01*
X111758439Y-39567846D01*
X111759811Y-39565401D01*
X111812889Y-39473470D01*
X111819509Y-39457487D01*
X111825229Y-39445528D01*
X111839265Y-39419826D01*
X111876105Y-39321050D01*
X111877676Y-39317057D01*
X111913444Y-39230708D01*
X111921209Y-39201728D01*
X111924793Y-39190511D01*
X111939466Y-39151175D01*
X111959178Y-39060553D01*
X111960558Y-39054871D01*
X111981452Y-38976898D01*
X111987024Y-38934575D01*
X111988795Y-38924412D01*
X111988796Y-38924407D01*
X112000415Y-38870999D01*
X112006123Y-38791173D01*
X112006864Y-38783864D01*
X112015750Y-38716382D01*
X112015750Y-38661014D01*
X112016066Y-38652168D01*
X112020870Y-38585001D01*
X112020870Y-38584998D01*
X112016066Y-38517830D01*
X112015750Y-38508984D01*
X112015750Y-38453623D01*
X112015749Y-38453617D01*
X112006865Y-38386141D01*
X112006122Y-38378811D01*
X112000415Y-38299001D01*
X111988792Y-38245574D01*
X111987022Y-38235413D01*
X111981452Y-38193105D01*
X111981452Y-38193102D01*
X111960554Y-38115112D01*
X111959168Y-38109398D01*
X111939466Y-38018825D01*
X111924795Y-37979492D01*
X111921210Y-37968279D01*
X111913444Y-37939292D01*
X111877704Y-37853008D01*
X111876083Y-37848888D01*
X111864357Y-37817449D01*
X111839265Y-37750174D01*
X111825232Y-37724475D01*
X111819507Y-37712508D01*
X111812892Y-37696538D01*
X111812889Y-37696530D01*
X111759860Y-37604681D01*
X111758415Y-37602108D01*
X111701853Y-37498523D01*
X111701851Y-37498519D01*
X111701850Y-37498517D01*
X111691916Y-37485247D01*
X111683802Y-37472946D01*
X111681507Y-37468970D01*
X111609157Y-37374682D01*
X111608327Y-37373587D01*
X111530019Y-37268979D01*
X111524681Y-37263641D01*
X111524645Y-37263602D01*
X111333028Y-37071986D01*
X111332997Y-37071957D01*
X111327278Y-37066238D01*
X111327271Y-37066231D01*
X111327267Y-37066228D01*
X111327263Y-37066224D01*
X111222703Y-36987952D01*
X111221527Y-36987061D01*
X111127277Y-36914740D01*
X111123298Y-36912443D01*
X111110990Y-36904324D01*
X111097741Y-36894405D01*
X111097736Y-36894402D01*
X111097733Y-36894400D01*
X110994132Y-36837829D01*
X110991568Y-36836389D01*
X110946233Y-36810215D01*
X110899720Y-36783361D01*
X110899718Y-36783360D01*
X110899715Y-36783358D01*
X110883737Y-36776740D01*
X110871767Y-36771013D01*
X110846077Y-36756985D01*
X110747349Y-36720162D01*
X110743230Y-36718541D01*
X110743220Y-36718537D01*
X110656958Y-36682806D01*
X110656959Y-36682806D01*
X110656956Y-36682805D01*
X110627978Y-36675040D01*
X110616742Y-36671448D01*
X110577426Y-36656784D01*
X110577419Y-36656782D01*
X110486855Y-36637081D01*
X110481121Y-36635690D01*
X110403155Y-36614800D01*
X110403144Y-36614797D01*
X110360825Y-36609225D01*
X110350657Y-36607452D01*
X110297260Y-36595836D01*
X110297249Y-36595835D01*
X110217429Y-36590126D01*
X110210092Y-36589381D01*
X110202794Y-36588420D01*
X110142639Y-36580500D01*
X110142632Y-36580500D01*
X110087265Y-36580500D01*
X110078419Y-36580184D01*
X110011251Y-36575380D01*
X110011249Y-36575380D01*
X109944081Y-36580184D01*
X109935235Y-36580500D01*
X109879867Y-36580500D01*
X109812408Y-36589381D01*
X109805070Y-36590126D01*
X109725254Y-36595834D01*
X109725244Y-36595836D01*
X109671832Y-36607454D01*
X109661667Y-36609226D01*
X109632470Y-36613070D01*
X109619352Y-36614798D01*
X109619349Y-36614798D01*
X109619343Y-36614800D01*
X109541381Y-36635689D01*
X109535648Y-36637080D01*
X109445078Y-36656782D01*
X109445076Y-36656783D01*
X109405749Y-36671451D01*
X109394514Y-36675042D01*
X109365550Y-36682803D01*
X109365530Y-36682810D01*
X109279276Y-36718537D01*
X109275159Y-36720157D01*
X109176432Y-36756981D01*
X109176420Y-36756986D01*
X109150725Y-36771017D01*
X109138757Y-36776743D01*
X109122781Y-36783360D01*
X109122770Y-36783366D01*
X109030933Y-36836386D01*
X109028364Y-36837829D01*
X108924771Y-36894397D01*
X108911497Y-36904333D01*
X108899210Y-36912438D01*
X108895222Y-36914741D01*
X108801010Y-36987031D01*
X108799837Y-36987920D01*
X108695231Y-37066228D01*
X108688238Y-37073221D01*
X108688111Y-37073345D01*
X108499595Y-37261861D01*
X108499471Y-37261988D01*
X108492478Y-37268981D01*
X108414170Y-37373587D01*
X108413281Y-37374760D01*
X108340991Y-37468972D01*
X108338688Y-37472960D01*
X108330583Y-37485247D01*
X108320647Y-37498521D01*
X108264079Y-37602114D01*
X108262636Y-37604683D01*
X108209616Y-37696520D01*
X108209610Y-37696531D01*
X108204656Y-37708491D01*
X108202991Y-37712510D01*
X108197267Y-37724475D01*
X108183236Y-37750170D01*
X108183231Y-37750182D01*
X108146407Y-37848909D01*
X108144787Y-37853026D01*
X108109060Y-37939280D01*
X108109053Y-37939300D01*
X108101292Y-37968264D01*
X108097701Y-37979499D01*
X108083033Y-38018826D01*
X108083032Y-38018828D01*
X108063330Y-38109398D01*
X108061939Y-38115131D01*
X108041050Y-38193093D01*
X108041048Y-38193103D01*
X108035476Y-38235417D01*
X108033704Y-38245582D01*
X108022086Y-38298994D01*
X108022084Y-38299004D01*
X108016376Y-38378820D01*
X108015631Y-38386158D01*
X108006750Y-38453617D01*
X108006750Y-38508984D01*
X108006434Y-38517830D01*
X108001630Y-38584998D01*
X105883750Y-38584998D01*
X105883750Y-36246362D01*
X105903435Y-36179323D01*
X105920069Y-36158681D01*
X106482431Y-35596319D01*
X106543754Y-35562834D01*
X106570112Y-35560000D01*
X113452388Y-35560000D01*
X113519427Y-35579685D01*
G37*
%TD.AperFunction*%
M02*
