  0
SECTION
  2
HEADER
  9
$ANGBASE
  50
0.0
  9
$ANGDIR
  70
1
  9
$MEASUREMENT
  70
1
  0
ENDSEC
  0
SECTION
  2
TABLES
  0
TABLE
  2
LTYPE
  70
4
  0
LTYPE
  5
40F
  2
CONTINUOUS
  70
0
  3
Solid line
  72
65
  73
0
  40
0.0
  0
LTYPE
  5
410
  2
DASHDOT
 70
0
  3
Dash Dot ____ _ ____ _
 72
65
 73
4
 40
2.0
 49
1.25
 49
-0.25
 49
0.25
 49
-0.25
  0
LTYPE
  5
411
  2
DASHED
 70
0
  3
Dashed __ __ __ __ __
 72
65
 73
2
 40
0.75
 49
0.5
 49
-0.25
  0
LTYPE
  5
43B
  2
DOTTED
 70
0
  3
Dotted .  .  .  .
 72
65
 73
2
 40
0.2
 49
0.0
 49
-0.2
  0
ENDTAB
  0
TABLE
  2
STYLE
  70
4
  0
STYLE
  2
KICAD
  70
0
  40
0
  41
1
  42
1
  50
0
  71
0
  3
isocp.shx
  0
STYLE
  2
KICADB
  70
0
  40
0
  41
1
  42
1
  50
0
  71
0
  3
isocp.shx
  0
STYLE
  2
KICADI
  70
0
  40
0
  41
1
  42
1
  50
15
  71
0
  3
isocp.shx
  0
STYLE
  2
KICADBI
  70
0
  40
0
  41
1
  42
1
  50
15
  71
0
  3
isocp.shx
  0
ENDTAB
  0
TABLE
  2
LAYER
  70
1
  0
LAYER
  2
BLACK
  70
0
  62
7
  6
CONTINUOUS
  0
ENDTAB
  0
ENDSEC
  0
SECTION
  2
ENTITIES
0
LINE
8
BLACK
6
CONTINUOUS
10
146.6091830000000016
20
-99.339539000000002
11
146.6137499999999818
21
-99.3624999999999972
0
LINE
8
BLACK
6
CONTINUOUS
10
146.6137499999999818
20
-99.3624999999999972
11
146.6137489999999843
21
-100.0124999999999886
0
LINE
8
BLACK
6
CONTINUOUS
10
146.6137489999999843
20
-100.0124999999999886
11
146.6137499999999818
21
-100.6624999999999943
0
LINE
8
BLACK
6
CONTINUOUS
10
146.6137499999999818
20
-100.6624999999999943
11
146.6091830000000016
21
-100.6854609999999894
0
LINE
8
BLACK
6
CONTINUOUS
10
146.6091830000000016
20
-100.6854609999999894
11
146.5767109999999889
21
-100.7179330000000022
0
LINE
8
BLACK
6
CONTINUOUS
10
146.5767109999999889
20
-100.7179330000000022
11
146.5307889999999986
21
-100.7179330000000022
0
LINE
8
BLACK
6
CONTINUOUS
10
146.5307889999999986
20
-100.7179330000000022
11
146.4983169999999859
21
-100.6854609999999894
0
LINE
8
BLACK
6
CONTINUOUS
10
146.4983169999999859
20
-100.6854609999999894
11
146.4937500000000057
21
-100.6624999999999943
0
LINE
8
BLACK
6
CONTINUOUS
10
146.4937500000000057
20
-100.6624999999999943
11
146.4937489999999798
21
-100.0124999999999886
0
LINE
8
BLACK
6
CONTINUOUS
10
146.4937489999999798
20
-100.0124999999999886
11
146.4937500000000057
21
-99.3624999999999972
0
LINE
8
BLACK
6
CONTINUOUS
10
146.4937500000000057
20
-99.3624999999999972
11
146.4983169999999859
21
-99.339539000000002
0
LINE
8
BLACK
6
CONTINUOUS
10
146.4983169999999859
20
-99.339539000000002
11
146.5307889999999986
21
-99.3070669999999893
0
LINE
8
BLACK
6
CONTINUOUS
10
146.5307889999999986
20
-99.3070669999999893
11
146.5767109999999889
21
-99.3070669999999893
0
LINE
8
BLACK
6
CONTINUOUS
10
146.5767109999999889
20
-99.3070669999999893
11
146.6091830000000016
21
-99.339539000000002
0
LINE
8
BLACK
6
CONTINUOUS
10
149.7291830000000061
20
-99.339539000000002
11
149.7337499999999864
21
-99.3624999999999972
0
LINE
8
BLACK
6
CONTINUOUS
10
149.7337499999999864
20
-99.3624999999999972
11
149.7337509999999838
21
-100.0124999999999886
0
LINE
8
BLACK
6
CONTINUOUS
10
149.7337509999999838
20
-100.0124999999999886
11
149.7337499999999864
21
-100.6624999999999943
0
LINE
8
BLACK
6
CONTINUOUS
10
149.7337499999999864
20
-100.6624999999999943
11
149.7291830000000061
21
-100.6854609999999894
0
LINE
8
BLACK
6
CONTINUOUS
10
149.7291830000000061
20
-100.6854609999999894
11
149.6967109999999934
21
-100.7179330000000022
0
LINE
8
BLACK
6
CONTINUOUS
10
149.6967109999999934
20
-100.7179330000000022
11
149.6507890000000032
21
-100.7179330000000022
0
LINE
8
BLACK
6
CONTINUOUS
10
149.6507890000000032
20
-100.7179330000000022
11
149.6183169999999905
21
-100.6854609999999894
0
LINE
8
BLACK
6
CONTINUOUS
10
149.6183169999999905
20
-100.6854609999999894
11
149.6137499999999818
21
-100.6624999999999943
0
LINE
8
BLACK
6
CONTINUOUS
10
149.6137499999999818
20
-100.6624999999999943
11
149.6137509999999793
21
-100.0124999999999886
0
LINE
8
BLACK
6
CONTINUOUS
10
149.6137509999999793
20
-100.0124999999999886
11
149.6137499999999818
21
-99.3624999999999972
0
LINE
8
BLACK
6
CONTINUOUS
10
149.6137499999999818
20
-99.3624999999999972
11
149.6183169999999905
21
-99.339539000000002
0
LINE
8
BLACK
6
CONTINUOUS
10
149.6183169999999905
20
-99.339539000000002
11
149.6507890000000032
21
-99.3070669999999893
0
LINE
8
BLACK
6
CONTINUOUS
10
149.6507890000000032
20
-99.3070669999999893
11
149.6967109999999934
21
-99.3070669999999893
0
LINE
8
BLACK
6
CONTINUOUS
10
149.6967109999999934
20
-99.3070669999999893
11
149.7291830000000061
21
-99.339539000000002
0
LINE
8
BLACK
6
CONTINUOUS
10
146.3090399999999818
20
-98.561475999999999
11
146.6390399999999943
21
-98.8014759999999939
0
LINE
8
BLACK
6
CONTINUOUS
10
146.6390399999999943
20
-98.8014759999999939
11
146.6630159999999989
21
-98.8406420000000026
0
LINE
8
BLACK
6
CONTINUOUS
10
146.6630159999999989
20
-98.8406420000000026
11
146.6522740000000056
21
-98.8852899999999977
0
LINE
8
BLACK
6
CONTINUOUS
10
146.6522740000000056
20
-98.8852899999999977
11
146.6390399999999943
21
-98.8985239999999948
0
LINE
8
BLACK
6
CONTINUOUS
10
146.6390399999999943
20
-98.8985239999999948
11
146.3090409999999792
21
-99.1385239999999897
0
LINE
8
BLACK
6
CONTINUOUS
10
146.3090409999999792
20
-99.1385239999999897
11
146.2643929999999841
21
-99.1492659999999972
0
LINE
8
BLACK
6
CONTINUOUS
10
146.2643929999999841
20
-99.1492659999999972
11
146.2252269999999896
21
-99.1252899999999926
0
LINE
8
BLACK
6
CONTINUOUS
10
146.2252269999999896
20
-99.1252899999999926
11
146.213751000000002
21
-99.0899999999999892
0
LINE
8
BLACK
6
CONTINUOUS
10
146.213751000000002
20
-99.0899999999999892
11
146.2137500000000045
21
-98.6099999999999994
0
LINE
8
BLACK
6
CONTINUOUS
10
146.2137500000000045
20
-98.6099999999999994
11
146.2313240000000008
21
-98.5675739999999934
0
LINE
8
BLACK
6
CONTINUOUS
10
146.2313240000000008
20
-98.5675739999999934
11
146.2737500000000068
21
-98.5499999999999972
0
LINE
8
BLACK
6
CONTINUOUS
10
146.2737500000000068
20
-98.5499999999999972
11
146.3090399999999818
21
-98.561475999999999
0
LINE
8
BLACK
6
CONTINUOUS
10
193.684566999999987
20
-66.6519029999999901
11
193.69809699999999
21
-66.6654329999999931
0
LINE
8
BLACK
6
CONTINUOUS
10
193.69809699999999
20
-66.6654329999999931
11
193.6999999999999886
21
-66.6749999999999972
0
LINE
8
BLACK
6
CONTINUOUS
10
193.6999999999999886
20
-66.6749999999999972
11
193.6999999999999886
21
-111.125
0
LINE
8
BLACK
6
CONTINUOUS
10
193.6999999999999886
20
-111.125
11
193.69809699999999
21
-111.1345669999999899
0
LINE
8
BLACK
6
CONTINUOUS
10
193.69809699999999
20
-111.1345669999999899
11
193.684566999999987
21
-111.1480969999999928
0
LINE
8
BLACK
6
CONTINUOUS
10
193.684566999999987
20
-111.1480969999999928
11
193.6749999999999829
21
-111.1499999999999915
0
LINE
8
BLACK
6
CONTINUOUS
10
193.6749999999999829
20
-111.1499999999999915
11
95.25
21
-111.1499999999999915
0
LINE
8
BLACK
6
CONTINUOUS
10
95.25
20
-111.1499999999999915
11
95.2404329999999959
21
-111.1480969999999928
0
LINE
8
BLACK
6
CONTINUOUS
10
95.2404329999999959
20
-111.1480969999999928
11
95.226902999999993
21
-111.1345669999999899
0
LINE
8
BLACK
6
CONTINUOUS
10
95.226902999999993
20
-111.1345669999999899
11
95.2249999999999943
21
-111.125
0
LINE
8
BLACK
6
CONTINUOUS
10
95.2249999999999943
20
-111.125
11
95.2249999999999943
21
-66.6749999999999972
0
LINE
8
BLACK
6
CONTINUOUS
10
95.2249999999999943
20
-66.6749999999999972
11
95.226902999999993
21
-66.6654329999999931
0
LINE
8
BLACK
6
CONTINUOUS
10
95.226902999999993
20
-66.6654329999999931
11
95.2404329999999959
21
-66.6519029999999901
0
LINE
8
BLACK
6
CONTINUOUS
10
95.2404329999999959
20
-66.6519029999999901
11
95.25
21
-66.6499999999999915
0
LINE
8
BLACK
6
CONTINUOUS
10
95.25
20
-66.6499999999999915
11
193.6749999999999829
21
-66.6499999999999915
0
LINE
8
BLACK
6
CONTINUOUS
10
193.6749999999999829
20
-66.6499999999999915
11
193.684566999999987
21
-66.6519029999999901
0
LINE
8
BLACK
6
CONTINUOUS
10
95.2749999999999915
20
-66.7000000000000028
11
95.2749999999999915
21
-111.0999999999999943
0
LINE
8
BLACK
6
CONTINUOUS
10
95.2749999999999915
20
-111.0999999999999943
11
193.6499999999999773
21
-111.0999999999999943
0
LINE
8
BLACK
6
CONTINUOUS
10
193.6499999999999773
20
-111.0999999999999943
11
193.6499999999999773
21
-66.7000000000000028
0
LINE
8
BLACK
6
CONTINUOUS
10
193.6499999999999773
20
-66.7000000000000028
11
95.2749999999999915
21
-66.7000000000000028
  0
ENDSEC
  0
EOF
