  0
SECTION
  2
HEADER
  9
$ANGBASE
  50
0.0
  9
$ANGDIR
  70
1
  9
$MEASUREMENT
  70
1
  0
ENDSEC
  0
SECTION
  2
TABLES
  0
TABLE
  2
LTYPE
  70
4
  0
LTYPE
  5
40F
  2
CONTINUOUS
  70
0
  3
Solid line
  72
65
  73
0
  40
0.0
  0
LTYPE
  5
410
  2
DASHDOT
 70
0
  3
Dash Dot ____ _ ____ _
 72
65
 73
4
 40
2.0
 49
1.25
 49
-0.25
 49
0.25
 49
-0.25
  0
LTYPE
  5
411
  2
DASHED
 70
0
  3
Dashed __ __ __ __ __
 72
65
 73
2
 40
0.75
 49
0.5
 49
-0.25
  0
LTYPE
  5
43B
  2
DOTTED
 70
0
  3
Dotted .  .  .  .
 72
65
 73
2
 40
0.2
 49
0.0
 49
-0.2
  0
ENDTAB
  0
TABLE
  2
STYLE
  70
4
  0
STYLE
  2
KICAD
  70
0
  40
0
  41
1
  42
1
  50
0
  71
0
  3
isocp.shx
  0
STYLE
  2
KICADB
  70
0
  40
0
  41
1
  42
1
  50
0
  71
0
  3
isocp.shx
  0
STYLE
  2
KICADI
  70
0
  40
0
  41
1
  42
1
  50
15
  71
0
  3
isocp.shx
  0
STYLE
  2
KICADBI
  70
0
  40
0
  41
1
  42
1
  50
15
  71
0
  3
isocp.shx
  0
ENDTAB
  0
TABLE
  2
LAYER
  70
1
  0
LAYER
  2
BLACK
  70
0
  62
7
  6
CONTINUOUS
  0
ENDTAB
  0
ENDSEC
  0
SECTION
  2
ENTITIES
0
LINE
8
BLACK
6
CONTINUOUS
10
148.4312500000000057
20
-101.7592499999999944
11
147.7962499999999864
21
-101.7592499999999944
0
LINE
8
BLACK
6
CONTINUOUS
10
147.7962499999999864
20
-101.7592499999999944
11
147.7962499999999864
21
-100.4892499999999984
0
LINE
8
BLACK
6
CONTINUOUS
10
147.7962499999999864
20
-100.4892499999999984
11
148.4312500000000057
21
-100.4892499999999984
0
LINE
8
BLACK
6
CONTINUOUS
10
148.4312500000000057
20
-100.4892499999999984
11
148.4312500000000057
21
-101.7592499999999944
0
LINE
8
BLACK
6
CONTINUOUS
10
147.4812509999999861
20
-99.5357499999999931
11
146.8462509999999952
21
-99.5357499999999931
0
LINE
8
BLACK
6
CONTINUOUS
10
146.8462509999999952
20
-99.5357499999999931
11
146.8462509999999952
21
-98.265749999999997
0
LINE
8
BLACK
6
CONTINUOUS
10
146.8462509999999952
20
-98.265749999999997
11
147.4812509999999861
21
-98.265749999999997
0
LINE
8
BLACK
6
CONTINUOUS
10
147.4812509999999861
20
-98.265749999999997
11
147.4812509999999861
21
-99.5357499999999931
0
LINE
8
BLACK
6
CONTINUOUS
10
149.3812489999999968
20
-99.5357499999999931
11
148.7462490000000059
21
-99.5357499999999931
0
LINE
8
BLACK
6
CONTINUOUS
10
148.7462490000000059
20
-99.5357499999999931
11
148.7462490000000059
21
-98.265749999999997
0
LINE
8
BLACK
6
CONTINUOUS
10
148.7462490000000059
20
-98.265749999999997
11
149.3812489999999968
21
-98.265749999999997
0
LINE
8
BLACK
6
CONTINUOUS
10
149.3812489999999968
20
-98.265749999999997
11
149.3812489999999968
21
-99.5357499999999931
0
LINE
8
BLACK
6
CONTINUOUS
10
193.684566999999987
20
-66.6519029999999901
11
193.69809699999999
21
-66.6654329999999931
0
LINE
8
BLACK
6
CONTINUOUS
10
193.69809699999999
20
-66.6654329999999931
11
193.6999999999999886
21
-66.6749999999999972
0
LINE
8
BLACK
6
CONTINUOUS
10
193.6999999999999886
20
-66.6749999999999972
11
193.6999999999999886
21
-111.125
0
LINE
8
BLACK
6
CONTINUOUS
10
193.6999999999999886
20
-111.125
11
193.69809699999999
21
-111.1345669999999899
0
LINE
8
BLACK
6
CONTINUOUS
10
193.69809699999999
20
-111.1345669999999899
11
193.684566999999987
21
-111.1480969999999928
0
LINE
8
BLACK
6
CONTINUOUS
10
193.684566999999987
20
-111.1480969999999928
11
193.6749999999999829
21
-111.1499999999999915
0
LINE
8
BLACK
6
CONTINUOUS
10
193.6749999999999829
20
-111.1499999999999915
11
95.25
21
-111.1499999999999915
0
LINE
8
BLACK
6
CONTINUOUS
10
95.25
20
-111.1499999999999915
11
95.2404329999999959
21
-111.1480969999999928
0
LINE
8
BLACK
6
CONTINUOUS
10
95.2404329999999959
20
-111.1480969999999928
11
95.226902999999993
21
-111.1345669999999899
0
LINE
8
BLACK
6
CONTINUOUS
10
95.226902999999993
20
-111.1345669999999899
11
95.2249999999999943
21
-111.125
0
LINE
8
BLACK
6
CONTINUOUS
10
95.2249999999999943
20
-111.125
11
95.2249999999999943
21
-66.6749999999999972
0
LINE
8
BLACK
6
CONTINUOUS
10
95.2249999999999943
20
-66.6749999999999972
11
95.226902999999993
21
-66.6654329999999931
0
LINE
8
BLACK
6
CONTINUOUS
10
95.226902999999993
20
-66.6654329999999931
11
95.2404329999999959
21
-66.6519029999999901
0
LINE
8
BLACK
6
CONTINUOUS
10
95.2404329999999959
20
-66.6519029999999901
11
95.25
21
-66.6499999999999915
0
LINE
8
BLACK
6
CONTINUOUS
10
95.25
20
-66.6499999999999915
11
193.6749999999999829
21
-66.6499999999999915
0
LINE
8
BLACK
6
CONTINUOUS
10
193.6749999999999829
20
-66.6499999999999915
11
193.684566999999987
21
-66.6519029999999901
0
LINE
8
BLACK
6
CONTINUOUS
10
95.2749999999999915
20
-66.7000000000000028
11
95.2749999999999915
21
-111.0999999999999943
0
LINE
8
BLACK
6
CONTINUOUS
10
95.2749999999999915
20
-111.0999999999999943
11
193.6499999999999773
21
-111.0999999999999943
0
LINE
8
BLACK
6
CONTINUOUS
10
193.6499999999999773
20
-111.0999999999999943
11
193.6499999999999773
21
-66.7000000000000028
0
LINE
8
BLACK
6
CONTINUOUS
10
193.6499999999999773
20
-66.7000000000000028
11
95.2749999999999915
21
-66.7000000000000028
  0
ENDSEC
  0
EOF
