  0
SECTION
  2
HEADER
  9
$ANGBASE
  50
0.0
  9
$ANGDIR
  70
1
  9
$MEASUREMENT
  70
1
  0
ENDSEC
  0
SECTION
  2
TABLES
  0
TABLE
  2
LTYPE
  70
4
  0
LTYPE
  5
40F
  2
CONTINUOUS
  70
0
  3
Solid line
  72
65
  73
0
  40
0.0
  0
LTYPE
  5
410
  2
DASHDOT
 70
0
  3
Dash Dot ____ _ ____ _
 72
65
 73
4
 40
2.0
 49
1.25
 49
-0.25
 49
0.25
 49
-0.25
  0
LTYPE
  5
411
  2
DASHED
 70
0
  3
Dashed __ __ __ __ __
 72
65
 73
2
 40
0.75
 49
0.5
 49
-0.25
  0
LTYPE
  5
43B
  2
DOTTED
 70
0
  3
Dotted .  .  .  .
 72
65
 73
2
 40
0.2
 49
0.0
 49
-0.2
  0
ENDTAB
  0
TABLE
  2
STYLE
  70
4
  0
STYLE
  2
KICAD
  70
0
  40
0
  41
1
  42
1
  50
0
  71
0
  3
isocp.shx
  0
STYLE
  2
KICADB
  70
0
  40
0
  41
1
  42
1
  50
0
  71
0
  3
isocp.shx
  0
STYLE
  2
KICADI
  70
0
  40
0
  41
1
  42
1
  50
15
  71
0
  3
isocp.shx
  0
STYLE
  2
KICADBI
  70
0
  40
0
  41
1
  42
1
  50
15
  71
0
  3
isocp.shx
  0
ENDTAB
  0
TABLE
  2
LAYER
  70
1
  0
LAYER
  2
BLACK
  70
0
  62
7
  6
CONTINUOUS
  0
ENDTAB
  0
ENDSEC
  0
SECTION
  2
ENTITIES
0
LINE
8
BLACK
6
CONTINUOUS
10
193.6749999999999829
20
-111.125
11
193.6749999999999829
21
-66.6749999999999972
0
LINE
8
BLACK
6
CONTINUOUS
10
95.25
20
-111.125
11
95.25
21
-66.6749999999999972
0
LINE
8
BLACK
6
CONTINUOUS
10
95.25
20
-66.6749999999999972
11
193.6749999999999829
21
-66.6749999999999972
0
LINE
8
BLACK
6
CONTINUOUS
10
193.6749999999999829
20
-111.125
11
95.25
21
-111.125
0
LINE
8
BLACK
6
CONTINUOUS
10
123.9599999999999937
20
-99.5124999999999886
11
124.9599999999999937
21
-100.5124999999999886
0
LINE
8
BLACK
6
CONTINUOUS
10
124.9599999999999937
20
-99.5124999999999886
11
123.9599999999999937
21
-100.5124999999999886
0
LINE
8
BLACK
6
CONTINUOUS
10
129.039999999999992
20
-99.5124999999999886
11
130.039999999999992
21
-100.5124999999999886
0
LINE
8
BLACK
6
CONTINUOUS
10
130.039999999999992
20
-99.5124999999999886
11
129.039999999999992
21
-100.5124999999999886
0
CIRCLE
8
BLACK
10
97.789999999999992
20
-80.0099999999999909
40
0.5
0
CIRCLE
8
BLACK
10
97.789999999999992
20
-87.6299999999999955
40
0.5
0
CIRCLE
8
BLACK
10
98.4249999999999972
20
-69.5324999999999989
40
0.5
0
CIRCLE
8
BLACK
10
98.4249999999999972
20
-74.9299999999999926
40
0.5
0
CIRCLE
8
BLACK
10
98.4249999999999972
20
-101.2824999999999989
40
0.5
0
CIRCLE
8
BLACK
10
98.4249999999999972
20
-103.8224999999999909
40
0.5
0
CIRCLE
8
BLACK
10
100.9649999999999892
20
-69.5324999999999989
40
0.5
0
CIRCLE
8
BLACK
10
100.9649999999999892
20
-80.0099999999999909
40
0.5
0
CIRCLE
8
BLACK
10
100.9649999999999892
20
-87.6299999999999955
40
0.5
0
CIRCLE
8
BLACK
10
100.9649999999999892
20
-101.2824999999999989
40
0.5
0
CIRCLE
8
BLACK
10
100.9649999999999892
20
-103.8224999999999909
40
0.5
0
CIRCLE
8
BLACK
10
103.5049999999999955
20
-74.9299999999999926
40
0.5
0
CIRCLE
8
BLACK
10
103.5049999999999955
20
-101.2824999999999989
40
0.5
0
CIRCLE
8
BLACK
10
103.5049999999999955
20
-103.8224999999999909
40
0.5
0
CIRCLE
8
BLACK
10
104.1400000000000006
20
-80.0099999999999909
40
0.5
0
CIRCLE
8
BLACK
10
104.1400000000000006
20
-87.6299999999999955
40
0.5
0
CIRCLE
8
BLACK
10
106.0450000000000017
20
-101.2824999999999989
40
0.5
0
CIRCLE
8
BLACK
10
106.0450000000000017
20
-103.8224999999999909
40
0.5
0
CIRCLE
8
BLACK
10
107.3149999999999977
20
-74.9299999999999926
40
0.5
0
CIRCLE
8
BLACK
10
107.3149999999999977
20
-77.4699999999999989
40
0.5
0
CIRCLE
8
BLACK
10
107.3149999999999977
20
-80.0099999999999909
40
0.5
0
CIRCLE
8
BLACK
10
107.3149999999999977
20
-82.5499999999999972
40
0.5
0
CIRCLE
8
BLACK
10
108.5849999999999937
20
-87.6299999999999955
40
0.5
0
CIRCLE
8
BLACK
10
108.5849999999999937
20
-92.7099999999999937
40
0.5
0
CIRCLE
8
BLACK
10
113.664999999999992
20
-87.6299999999999955
40
0.5
0
CIRCLE
8
BLACK
10
113.664999999999992
20
-92.7099999999999937
40
0.5
0
CIRCLE
8
BLACK
10
114.9349999999999881
20
-74.9299999999999926
40
0.5
0
CIRCLE
8
BLACK
10
114.9349999999999881
20
-77.4699999999999989
40
0.5
0
CIRCLE
8
BLACK
10
114.9349999999999881
20
-80.0099999999999909
40
0.5
0
CIRCLE
8
BLACK
10
114.9349999999999881
20
-82.5499999999999972
40
0.5
0
CIRCLE
8
BLACK
10
118.1099999999999994
20
-80.0099999999999909
40
0.5
0
CIRCLE
8
BLACK
10
118.1099999999999994
20
-87.6299999999999955
40
0.5
0
CIRCLE
8
BLACK
10
121.9199999999999875
20
-92.7099999999999937
40
0.5
0
CIRCLE
8
BLACK
10
121.9199999999999875
20
-97.4724999999999966
40
0.5
0
CIRCLE
8
BLACK
10
124.4599999999999937
20
-87.6299999999999955
40
0.5
0
CIRCLE
8
BLACK
10
124.4599999999999937
20
-97.4724999999999966
40
0.5
0
CIRCLE
8
BLACK
10
127.
20
-87.6299999999999955
40
0.5
0
CIRCLE
8
BLACK
10
129.539999999999992
20
-87.6299999999999955
40
0.5
0
CIRCLE
8
BLACK
10
129.539999999999992
20
-97.4724999999999966
40
0.5
0
CIRCLE
8
BLACK
10
132.0799999999999841
20
-92.7099999999999937
40
0.5
0
CIRCLE
8
BLACK
10
132.0799999999999841
20
-97.4724999999999966
40
0.5
0
CIRCLE
8
BLACK
10
138.7475000000000023
20
-97.4724999999999966
40
0.5
0
CIRCLE
8
BLACK
10
138.7475000000000023
20
-102.5524999999999949
40
0.5
0
CIRCLE
8
BLACK
10
143.1924999999999955
20
-96.2025000000000006
40
0.5
0
CIRCLE
8
BLACK
10
143.1924999999999955
20
-103.8224999999999909
40
0.5
0
CIRCLE
8
BLACK
10
146.5262500000000045
20
-96.1974999999999909
40
0.5
0
CIRCLE
8
BLACK
10
146.5262500000000045
20
-103.8174999999999955
40
0.5
0
CIRCLE
8
BLACK
10
149.7012499999999875
20
-96.207499999999996
40
0.5
0
CIRCLE
8
BLACK
10
149.7012499999999875
20
-103.8275000000000006
40
0.5
0
CIRCLE
8
BLACK
10
152.8762499999999989
20
-96.2025000000000006
40
0.5
0
CIRCLE
8
BLACK
10
152.8762499999999989
20
-103.8224999999999909
40
0.5
0
CIRCLE
8
BLACK
10
157.321249999999992
20
-97.4724999999999966
40
0.5
0
CIRCLE
8
BLACK
10
157.321249999999992
20
-102.5524999999999949
40
0.5
0
CIRCLE
8
BLACK
10
157.9562499999999829
20
-106.2037499999999994
40
0.5
0
CIRCLE
8
BLACK
10
160.4962500000000034
20
-106.2037499999999994
40
0.5
0
CIRCLE
8
BLACK
10
161.1312499999999943
20
-87.6299999999999955
40
0.5
0
CIRCLE
8
BLACK
10
161.1312499999999943
20
-90.1700000000000017
40
0.5
0
CIRCLE
8
BLACK
10
161.1312499999999943
20
-92.7099999999999937
40
0.5
0
CIRCLE
8
BLACK
10
161.1312499999999943
20
-97.4724999999999966
40
0.5
0
CIRCLE
8
BLACK
10
161.1312499999999943
20
-102.5524999999999949
40
0.5
0
CIRCLE
8
BLACK
10
165.5762499999999875
20
-92.8687499999999915
40
0.5
0
CIRCLE
8
BLACK
10
168.1162499999999795
20
-92.8687499999999915
40
0.5
0
CIRCLE
8
BLACK
10
169.8624999999999829
20
-101.2824999999999989
40
0.5
0
CIRCLE
8
BLACK
10
169.8624999999999829
20
-103.8224999999999909
40
0.5
0
CIRCLE
8
BLACK
10
174.9424999999999955
20
-101.2824999999999989
40
0.5
0
CIRCLE
8
BLACK
10
174.9424999999999955
20
-103.8224999999999909
40
0.5
0
CIRCLE
8
BLACK
10
180.0224999999999795
20
-101.2824999999999989
40
0.5
0
CIRCLE
8
BLACK
10
180.0224999999999795
20
-103.8224999999999909
40
0.5
0
CIRCLE
8
BLACK
10
185.4199999999999875
20
-96.9962499999999892
40
0.5
0
CIRCLE
8
BLACK
10
185.4199999999999875
20
-107.15625
40
0.5
0
CIRCLE
8
BLACK
10
190.8174999999999955
20
-96.9962499999999892
40
0.5
0
CIRCLE
8
BLACK
10
190.8174999999999955
20
-107.15625
40
0.5
0
LINE
8
BLACK
6
CONTINUOUS
10
115.5699999999999932
20
-100.5637499999999989
11
115.5699999999999932
21
-101.7637500000000017
0
LINE
8
BLACK
6
CONTINUOUS
10
114.9699999999999989
20
-101.1637499999999932
11
116.1700000000000017
21
-101.1637499999999932
0
LINE
8
BLACK
6
CONTINUOUS
10
115.5699999999999932
20
-105.5637499999999989
11
115.5699999999999932
21
-106.7637500000000017
0
LINE
8
BLACK
6
CONTINUOUS
10
114.9699999999999989
20
-106.1637499999999932
11
116.1700000000000017
21
-106.1637499999999932
0
LINE
8
BLACK
6
CONTINUOUS
10
177.6412499999999852
20
-72.4249999999999972
11
177.6412499999999852
21
-73.625
0
LINE
8
BLACK
6
CONTINUOUS
10
177.0412499999999909
20
-73.0249999999999915
11
178.2412499999999795
21
-73.0249999999999915
0
LINE
8
BLACK
6
CONTINUOUS
10
177.6412499999999852
20
-92.7449999999999903
11
177.6412499999999852
21
-93.9449999999999932
0
LINE
8
BLACK
6
CONTINUOUS
10
177.0412499999999909
20
-93.3449999999999989
11
178.2412499999999795
21
-93.3449999999999989
0
LINE
8
BLACK
6
CONTINUOUS
10
185.4199999999999875
20
-72.4249999999999972
11
185.4199999999999875
21
-73.625
0
LINE
8
BLACK
6
CONTINUOUS
10
184.8199999999999932
20
-73.0249999999999915
11
186.0199999999999818
21
-73.0249999999999915
0
LINE
8
BLACK
6
CONTINUOUS
10
185.4199999999999875
20
-92.7449999999999903
11
185.4199999999999875
21
-93.9449999999999932
0
LINE
8
BLACK
6
CONTINUOUS
10
184.8199999999999932
20
-93.3449999999999989
11
186.0199999999999818
21
-93.3449999999999989
0
LINE
8
BLACK
6
CONTINUOUS
10
190.8174999999999955
20
-72.4249999999999972
11
190.8174999999999955
21
-73.625
0
LINE
8
BLACK
6
CONTINUOUS
10
190.2175000000000011
20
-73.0249999999999915
11
191.4174999999999898
21
-73.0249999999999915
0
LINE
8
BLACK
6
CONTINUOUS
10
190.8174999999999955
20
-92.7449999999999903
11
190.8174999999999955
21
-93.9449999999999932
0
LINE
8
BLACK
6
CONTINUOUS
10
190.2175000000000011
20
-93.3449999999999989
11
191.4174999999999898
21
-93.3449999999999989
0
LINE
8
BLACK
6
CONTINUOUS
10
136.9650790000000029
20
-91.4255909999999972
11
136.9650790000000029
21
-90.3649209999999954
0
LINE
8
BLACK
6
CONTINUOUS
10
136.9650790000000029
20
-90.3649209999999954
11
135.9044089999999869
21
-90.3649209999999954
0
LINE
8
BLACK
6
CONTINUOUS
10
135.9044089999999869
20
-90.3649209999999954
11
135.9044089999999869
21
-91.4255909999999972
0
LINE
8
BLACK
6
CONTINUOUS
10
135.9044089999999869
20
-91.4255909999999972
11
136.9650790000000029
21
-91.4255909999999972
0
LINE
8
BLACK
6
CONTINUOUS
10
141.4552070000000015
20
-86.9354629999999986
11
141.4552070000000015
21
-85.8747929999999968
0
LINE
8
BLACK
6
CONTINUOUS
10
141.4552070000000015
20
-85.8747929999999968
11
140.3945369999999855
21
-85.8747929999999968
0
LINE
8
BLACK
6
CONTINUOUS
10
140.3945369999999855
20
-85.8747929999999968
11
140.3945369999999855
21
-86.9354629999999986
0
LINE
8
BLACK
6
CONTINUOUS
10
140.3945369999999855
20
-86.9354629999999986
11
141.4552070000000015
21
-86.9354629999999986
0
LINE
8
BLACK
6
CONTINUOUS
10
150.4354629999999986
20
-77.9552070000000015
11
150.4354629999999986
21
-76.8945369999999997
0
LINE
8
BLACK
6
CONTINUOUS
10
150.4354629999999986
20
-76.8945369999999997
11
149.3747929999999826
21
-76.8945369999999997
0
LINE
8
BLACK
6
CONTINUOUS
10
149.3747929999999826
20
-76.8945369999999997
11
149.3747929999999826
21
-77.9552070000000015
0
LINE
8
BLACK
6
CONTINUOUS
10
149.3747929999999826
20
-77.9552070000000015
11
150.4354629999999986
21
-77.9552070000000015
0
LINE
8
BLACK
6
CONTINUOUS
10
154.9255909999999972
20
-73.4650790000000029
11
154.9255909999999972
21
-72.4044090000000011
0
LINE
8
BLACK
6
CONTINUOUS
10
154.9255909999999972
20
-72.4044090000000011
11
153.8649209999999812
21
-72.4044090000000011
0
LINE
8
BLACK
6
CONTINUOUS
10
153.8649209999999812
20
-72.4044090000000011
11
153.8649209999999812
21
-73.4650790000000029
0
LINE
8
BLACK
6
CONTINUOUS
10
153.8649209999999812
20
-73.4650790000000029
11
154.9255909999999972
21
-73.4650790000000029
0
LINE
8
BLACK
6
CONTINUOUS
10
97.8327680000000015
20
-114.2648379999999975
11
97.8327680000000015
21
-112.2648379999999975
0
LINE
8
BLACK
6
CONTINUOUS
10
97.8327680000000015
20
-112.2648379999999975
11
98.3089579999999899
21
-112.2648379999999975
0
LINE
8
BLACK
6
CONTINUOUS
10
98.3089579999999899
20
-112.2648379999999975
11
98.5946730000000002
21
-112.3600759999999923
0
LINE
8
BLACK
6
CONTINUOUS
10
98.5946730000000002
20
-112.3600759999999923
11
98.7851489999999899
21
-112.5505519999999962
0
LINE
8
BLACK
6
CONTINUOUS
10
98.7851489999999899
20
-112.5505519999999962
11
98.8803869999999989
21
-112.741028
0
LINE
8
BLACK
6
CONTINUOUS
10
98.8803869999999989
20
-112.741028
11
98.9756249999999937
21
-113.1219799999999935
0
LINE
8
BLACK
6
CONTINUOUS
10
98.9756249999999937
20
-113.1219799999999935
11
98.9756249999999937
21
-113.4076949999999897
0
LINE
8
BLACK
6
CONTINUOUS
10
98.9756249999999937
20
-113.4076949999999897
11
98.8803869999999989
21
-113.7886469999999974
0
LINE
8
BLACK
6
CONTINUOUS
10
98.8803869999999989
20
-113.7886469999999974
11
98.7851489999999899
21
-113.9791230000000013
0
LINE
8
BLACK
6
CONTINUOUS
10
98.7851489999999899
20
-113.9791230000000013
11
98.5946730000000002
21
-114.1695999999999884
0
LINE
8
BLACK
6
CONTINUOUS
10
98.5946730000000002
20
-114.1695999999999884
11
98.3089579999999899
21
-114.2648379999999975
0
LINE
8
BLACK
6
CONTINUOUS
10
98.3089579999999899
20
-114.2648379999999975
11
97.8327680000000015
21
-114.2648379999999975
0
LINE
8
BLACK
6
CONTINUOUS
10
99.8327680000000015
20
-114.2648379999999975
11
99.8327680000000015
21
-112.9315039999999897
0
LINE
8
BLACK
6
CONTINUOUS
10
99.8327680000000015
20
-113.3124569999999949
11
99.9280059999999963
21
-113.1219799999999935
0
LINE
8
BLACK
6
CONTINUOUS
10
99.9280059999999963
20
-113.1219799999999935
11
100.0232439999999912
21
-113.0267419999999987
0
LINE
8
BLACK
6
CONTINUOUS
10
100.0232439999999912
20
-113.0267419999999987
11
100.213719999999995
21
-112.9315039999999897
0
LINE
8
BLACK
6
CONTINUOUS
10
100.213719999999995
20
-112.9315039999999897
11
100.4041969999999964
21
-112.9315039999999897
0
LINE
8
BLACK
6
CONTINUOUS
10
101.0708629999999886
20
-114.2648379999999975
11
101.0708629999999886
21
-112.9315039999999897
0
LINE
8
BLACK
6
CONTINUOUS
10
101.0708629999999886
20
-112.2648379999999975
11
100.9756249999999937
21
-112.3600759999999923
0
LINE
8
BLACK
6
CONTINUOUS
10
100.9756249999999937
20
-112.3600759999999923
11
101.0708629999999886
21
-112.4553140000000013
0
LINE
8
BLACK
6
CONTINUOUS
10
101.0708629999999886
20
-112.4553140000000013
11
101.1661009999999976
21
-112.3600759999999923
0
LINE
8
BLACK
6
CONTINUOUS
10
101.1661009999999976
20
-112.3600759999999923
11
101.0708629999999886
21
-112.2648379999999975
0
LINE
8
BLACK
6
CONTINUOUS
10
101.0708629999999886
20
-112.2648379999999975
11
101.0708629999999886
21
-112.4553140000000013
0
LINE
8
BLACK
6
CONTINUOUS
10
102.3089579999999899
20
-114.2648379999999975
11
102.1184820000000002
21
-114.1695999999999884
0
LINE
8
BLACK
6
CONTINUOUS
10
102.1184820000000002
20
-114.1695999999999884
11
102.0232439999999912
21
-113.9791230000000013
0
LINE
8
BLACK
6
CONTINUOUS
10
102.0232439999999912
20
-113.9791230000000013
11
102.0232439999999912
21
-112.2648379999999975
0
LINE
8
BLACK
6
CONTINUOUS
10
103.3565770000000015
20
-114.2648379999999975
11
103.1661009999999976
21
-114.1695999999999884
0
LINE
8
BLACK
6
CONTINUOUS
10
103.1661009999999976
20
-114.1695999999999884
11
103.0708629999999886
21
-113.9791230000000013
0
LINE
8
BLACK
6
CONTINUOUS
10
103.0708629999999886
20
-113.9791230000000013
11
103.0708629999999886
21
-112.2648379999999975
0
LINE
8
BLACK
6
CONTINUOUS
10
105.6422919999999976
20
-114.2648379999999975
11
105.6422919999999976
21
-112.2648379999999975
0
LINE
8
BLACK
6
CONTINUOUS
10
105.6422919999999976
20
-112.2648379999999975
11
106.3089590000000015
21
-113.6934089999999884
0
LINE
8
BLACK
6
CONTINUOUS
10
106.3089590000000015
20
-113.6934089999999884
11
106.9756249999999937
21
-112.2648379999999975
0
LINE
8
BLACK
6
CONTINUOUS
10
106.9756249999999937
20
-112.2648379999999975
11
106.9756249999999937
21
-114.2648379999999975
0
LINE
8
BLACK
6
CONTINUOUS
10
108.7851489999999899
20
-114.2648379999999975
11
108.7851489999999899
21
-113.2172190000000001
0
LINE
8
BLACK
6
CONTINUOUS
10
108.7851489999999899
20
-113.2172190000000001
11
108.6899109999999951
21
-113.0267419999999987
0
LINE
8
BLACK
6
CONTINUOUS
10
108.6899109999999951
20
-113.0267419999999987
11
108.4994349999999912
21
-112.9315039999999897
0
LINE
8
BLACK
6
CONTINUOUS
10
108.4994349999999912
20
-112.9315039999999897
11
108.1184820000000002
21
-112.9315039999999897
0
LINE
8
BLACK
6
CONTINUOUS
10
108.1184820000000002
20
-112.9315039999999897
11
107.9280059999999963
21
-113.0267419999999987
0
LINE
8
BLACK
6
CONTINUOUS
10
108.7851489999999899
20
-114.1695999999999884
11
108.5946730000000002
21
-114.2648379999999975
0
LINE
8
BLACK
6
CONTINUOUS
10
108.5946730000000002
20
-114.2648379999999975
11
108.1184820000000002
21
-114.2648379999999975
0
LINE
8
BLACK
6
CONTINUOUS
10
108.1184820000000002
20
-114.2648379999999975
11
107.9280059999999963
21
-114.1695999999999884
0
LINE
8
BLACK
6
CONTINUOUS
10
107.9280059999999963
20
-114.1695999999999884
11
107.8327680000000015
21
-113.9791230000000013
0
LINE
8
BLACK
6
CONTINUOUS
10
107.8327680000000015
20
-113.9791230000000013
11
107.8327680000000015
21
-113.7886469999999974
0
LINE
8
BLACK
6
CONTINUOUS
10
107.8327680000000015
20
-113.7886469999999974
11
107.9280059999999963
21
-113.5981709999999936
0
LINE
8
BLACK
6
CONTINUOUS
10
107.9280059999999963
20
-113.5981709999999936
11
108.1184820000000002
21
-113.5029329999999987
0
LINE
8
BLACK
6
CONTINUOUS
10
108.1184820000000002
20
-113.5029329999999987
11
108.5946730000000002
21
-113.5029329999999987
0
LINE
8
BLACK
6
CONTINUOUS
10
108.5946730000000002
20
-113.5029329999999987
11
108.7851489999999899
21
-113.4076949999999897
0
LINE
8
BLACK
6
CONTINUOUS
10
109.7375299999999925
20
-112.9315039999999897
11
109.7375299999999925
21
-114.9315039999999897
0
LINE
8
BLACK
6
CONTINUOUS
10
109.7375299999999925
20
-113.0267419999999987
11
109.9280059999999963
21
-112.9315039999999897
0
LINE
8
BLACK
6
CONTINUOUS
10
109.9280059999999963
20
-112.9315039999999897
11
110.3089590000000015
21
-112.9315039999999897
0
LINE
8
BLACK
6
CONTINUOUS
10
110.3089590000000015
20
-112.9315039999999897
11
110.4994349999999912
21
-113.0267419999999987
0
LINE
8
BLACK
6
CONTINUOUS
10
110.4994349999999912
20
-113.0267419999999987
11
110.5946730000000002
21
-113.1219799999999935
0
LINE
8
BLACK
6
CONTINUOUS
10
110.5946730000000002
20
-113.1219799999999935
11
110.6899109999999951
21
-113.3124569999999949
0
LINE
8
BLACK
6
CONTINUOUS
10
110.6899109999999951
20
-113.3124569999999949
11
110.6899109999999951
21
-113.8838849999999923
0
LINE
8
BLACK
6
CONTINUOUS
10
110.6899109999999951
20
-113.8838849999999923
11
110.5946730000000002
21
-114.0743609999999961
0
LINE
8
BLACK
6
CONTINUOUS
10
110.5946730000000002
20
-114.0743609999999961
11
110.4994349999999912
21
-114.1695999999999884
0
LINE
8
BLACK
6
CONTINUOUS
10
110.4994349999999912
20
-114.1695999999999884
11
110.3089590000000015
21
-114.2648379999999975
0
LINE
8
BLACK
6
CONTINUOUS
10
110.3089590000000015
20
-114.2648379999999975
11
109.9280059999999963
21
-114.2648379999999975
0
LINE
8
BLACK
6
CONTINUOUS
10
109.9280059999999963
20
-114.2648379999999975
11
109.7375299999999925
21
-114.1695999999999884
0
LINE
8
BLACK
6
CONTINUOUS
10
111.5470539999999886
20
-114.0743609999999961
11
111.6422919999999976
21
-114.1695999999999884
0
LINE
8
BLACK
6
CONTINUOUS
10
111.6422919999999976
20
-114.1695999999999884
11
111.5470539999999886
21
-114.2648379999999975
0
LINE
8
BLACK
6
CONTINUOUS
10
111.5470539999999886
20
-114.2648379999999975
11
111.4518159999999938
21
-114.1695999999999884
0
LINE
8
BLACK
6
CONTINUOUS
10
111.4518159999999938
20
-114.1695999999999884
11
111.5470539999999886
21
-114.0743609999999961
0
LINE
8
BLACK
6
CONTINUOUS
10
111.5470539999999886
20
-114.0743609999999961
11
111.5470539999999886
21
-114.2648379999999975
0
LINE
8
BLACK
6
CONTINUOUS
10
111.5470539999999886
20
-113.0267419999999987
11
111.6422919999999976
21
-113.1219799999999935
0
LINE
8
BLACK
6
CONTINUOUS
10
111.6422919999999976
20
-113.1219799999999935
11
111.5470539999999886
21
-113.2172190000000001
0
LINE
8
BLACK
6
CONTINUOUS
10
111.5470539999999886
20
-113.2172190000000001
11
111.4518159999999938
21
-113.1219799999999935
0
LINE
8
BLACK
6
CONTINUOUS
10
111.4518159999999938
20
-113.1219799999999935
11
111.5470539999999886
21
-113.0267419999999987
0
LINE
8
BLACK
6
CONTINUOUS
10
111.5470539999999886
20
-113.0267419999999987
11
111.5470539999999886
21
-113.2172190000000001
0
LINE
8
BLACK
6
CONTINUOUS
10
94.2249999999999943
20
-117.0499999999999972
11
95.2249999999999943
21
-118.0499999999999972
0
LINE
8
BLACK
6
CONTINUOUS
10
95.2249999999999943
20
-117.0499999999999972
11
94.2249999999999943
21
-118.0499999999999972
0
LINE
8
BLACK
6
CONTINUOUS
10
98.8803869999999989
20
-118.4648380000000003
11
97.7375299999999925
21
-118.4648380000000003
0
LINE
8
BLACK
6
CONTINUOUS
10
98.3089579999999899
20
-118.4648380000000003
11
98.3089579999999899
21
-116.4648380000000003
0
LINE
8
BLACK
6
CONTINUOUS
10
98.3089579999999899
20
-116.4648380000000003
11
98.1184820000000002
21
-116.750551999999999
0
LINE
8
BLACK
6
CONTINUOUS
10
98.1184820000000002
20
-116.750551999999999
11
97.9280059999999963
21
-116.9410279999999887
0
LINE
8
BLACK
6
CONTINUOUS
10
97.9280059999999963
20
-116.9410279999999887
11
97.7375299999999925
21
-117.0362659999999977
0
LINE
8
BLACK
6
CONTINUOUS
10
99.7375299999999925
20
-118.274360999999999
11
99.8327680000000015
21
-118.3695999999999913
0
LINE
8
BLACK
6
CONTINUOUS
10
99.8327680000000015
20
-118.3695999999999913
11
99.7375299999999925
21
-118.4648380000000003
0
LINE
8
BLACK
6
CONTINUOUS
10
99.7375299999999925
20
-118.4648380000000003
11
99.6422919999999976
21
-118.3695999999999913
0
LINE
8
BLACK
6
CONTINUOUS
10
99.6422919999999976
20
-118.3695999999999913
11
99.7375299999999925
21
-118.274360999999999
0
LINE
8
BLACK
6
CONTINUOUS
10
99.7375299999999925
20
-118.274360999999999
11
99.7375299999999925
21
-118.4648380000000003
0
LINE
8
BLACK
6
CONTINUOUS
10
101.0708629999999886
20
-116.4648380000000003
11
101.2613399999999899
21
-116.4648380000000003
0
LINE
8
BLACK
6
CONTINUOUS
10
101.2613399999999899
20
-116.4648380000000003
11
101.4518159999999938
21
-116.5600759999999951
0
LINE
8
BLACK
6
CONTINUOUS
10
101.4518159999999938
20
-116.5600759999999951
11
101.5470539999999886
21
-116.65531399999999
0
LINE
8
BLACK
6
CONTINUOUS
10
101.5470539999999886
20
-116.65531399999999
11
101.6422919999999976
21
-116.8457899999999938
0
LINE
8
BLACK
6
CONTINUOUS
10
101.6422919999999976
20
-116.8457899999999938
11
101.7375299999999925
21
-117.2267420000000016
0
LINE
8
BLACK
6
CONTINUOUS
10
101.7375299999999925
20
-117.2267420000000016
11
101.7375299999999925
21
-117.7029330000000016
0
LINE
8
BLACK
6
CONTINUOUS
10
101.7375299999999925
20
-117.7029330000000016
11
101.6422919999999976
21
-118.0838849999999951
0
LINE
8
BLACK
6
CONTINUOUS
10
101.6422919999999976
20
-118.0838849999999951
11
101.5470539999999886
21
-118.274360999999999
0
LINE
8
BLACK
6
CONTINUOUS
10
101.5470539999999886
20
-118.274360999999999
11
101.4518159999999938
21
-118.3695999999999913
0
LINE
8
BLACK
6
CONTINUOUS
10
101.4518159999999938
20
-118.3695999999999913
11
101.2613399999999899
21
-118.4648380000000003
0
LINE
8
BLACK
6
CONTINUOUS
10
101.2613399999999899
20
-118.4648380000000003
11
101.0708629999999886
21
-118.4648380000000003
0
LINE
8
BLACK
6
CONTINUOUS
10
101.0708629999999886
20
-118.4648380000000003
11
100.8803869999999989
21
-118.3695999999999913
0
LINE
8
BLACK
6
CONTINUOUS
10
100.8803869999999989
20
-118.3695999999999913
11
100.7851489999999899
21
-118.274360999999999
0
LINE
8
BLACK
6
CONTINUOUS
10
100.7851489999999899
20
-118.274360999999999
11
100.6899109999999951
21
-118.0838849999999951
0
LINE
8
BLACK
6
CONTINUOUS
10
100.6899109999999951
20
-118.0838849999999951
11
100.5946730000000002
21
-117.7029330000000016
0
LINE
8
BLACK
6
CONTINUOUS
10
100.5946730000000002
20
-117.7029330000000016
11
100.5946730000000002
21
-117.2267420000000016
0
LINE
8
BLACK
6
CONTINUOUS
10
100.5946730000000002
20
-117.2267420000000016
11
100.6899109999999951
21
-116.8457899999999938
0
LINE
8
BLACK
6
CONTINUOUS
10
100.6899109999999951
20
-116.8457899999999938
11
100.7851489999999899
21
-116.65531399999999
0
LINE
8
BLACK
6
CONTINUOUS
10
100.7851489999999899
20
-116.65531399999999
11
100.8803869999999989
21
-116.5600759999999951
0
LINE
8
BLACK
6
CONTINUOUS
10
100.8803869999999989
20
-116.5600759999999951
11
101.0708629999999886
21
-116.4648380000000003
0
LINE
8
BLACK
6
CONTINUOUS
10
102.9756249999999937
20
-116.4648380000000003
11
103.1661019999999951
21
-116.4648380000000003
0
LINE
8
BLACK
6
CONTINUOUS
10
103.1661019999999951
20
-116.4648380000000003
11
103.356577999999999
21
-116.5600759999999951
0
LINE
8
BLACK
6
CONTINUOUS
10
103.356577999999999
20
-116.5600759999999951
11
103.4518159999999938
21
-116.65531399999999
0
LINE
8
BLACK
6
CONTINUOUS
10
103.4518159999999938
20
-116.65531399999999
11
103.5470539999999886
21
-116.8457899999999938
0
LINE
8
BLACK
6
CONTINUOUS
10
103.5470539999999886
20
-116.8457899999999938
11
103.6422919999999976
21
-117.2267420000000016
0
LINE
8
BLACK
6
CONTINUOUS
10
103.6422919999999976
20
-117.2267420000000016
11
103.6422919999999976
21
-117.7029330000000016
0
LINE
8
BLACK
6
CONTINUOUS
10
103.6422919999999976
20
-117.7029330000000016
11
103.5470539999999886
21
-118.0838849999999951
0
LINE
8
BLACK
6
CONTINUOUS
10
103.5470539999999886
20
-118.0838849999999951
11
103.4518159999999938
21
-118.274360999999999
0
LINE
8
BLACK
6
CONTINUOUS
10
103.4518159999999938
20
-118.274360999999999
11
103.356577999999999
21
-118.3695999999999913
0
LINE
8
BLACK
6
CONTINUOUS
10
103.356577999999999
20
-118.3695999999999913
11
103.1661019999999951
21
-118.4648380000000003
0
LINE
8
BLACK
6
CONTINUOUS
10
103.1661019999999951
20
-118.4648380000000003
11
102.9756249999999937
21
-118.4648380000000003
0
LINE
8
BLACK
6
CONTINUOUS
10
102.9756249999999937
20
-118.4648380000000003
11
102.7851489999999899
21
-118.3695999999999913
0
LINE
8
BLACK
6
CONTINUOUS
10
102.7851489999999899
20
-118.3695999999999913
11
102.6899109999999951
21
-118.274360999999999
0
LINE
8
BLACK
6
CONTINUOUS
10
102.6899109999999951
20
-118.274360999999999
11
102.5946730000000002
21
-118.0838849999999951
0
LINE
8
BLACK
6
CONTINUOUS
10
102.5946730000000002
20
-118.0838849999999951
11
102.4994349999999912
21
-117.7029330000000016
0
LINE
8
BLACK
6
CONTINUOUS
10
102.4994349999999912
20
-117.7029330000000016
11
102.4994349999999912
21
-117.2267420000000016
0
LINE
8
BLACK
6
CONTINUOUS
10
102.4994349999999912
20
-117.2267420000000016
11
102.5946730000000002
21
-116.8457899999999938
0
LINE
8
BLACK
6
CONTINUOUS
10
102.5946730000000002
20
-116.8457899999999938
11
102.6899109999999951
21
-116.65531399999999
0
LINE
8
BLACK
6
CONTINUOUS
10
102.6899109999999951
20
-116.65531399999999
11
102.7851489999999899
21
-116.5600759999999951
0
LINE
8
BLACK
6
CONTINUOUS
10
102.7851489999999899
20
-116.5600759999999951
11
102.9756249999999937
21
-116.4648380000000003
0
LINE
8
BLACK
6
CONTINUOUS
10
104.8803869999999989
20
-116.4648380000000003
11
105.0708640000000003
21
-116.4648380000000003
0
LINE
8
BLACK
6
CONTINUOUS
10
105.0708640000000003
20
-116.4648380000000003
11
105.2613399999999899
21
-116.5600759999999951
0
LINE
8
BLACK
6
CONTINUOUS
10
105.2613399999999899
20
-116.5600759999999951
11
105.356577999999999
21
-116.65531399999999
0
LINE
8
BLACK
6
CONTINUOUS
10
105.356577999999999
20
-116.65531399999999
11
105.4518159999999938
21
-116.8457899999999938
0
LINE
8
BLACK
6
CONTINUOUS
10
105.4518159999999938
20
-116.8457899999999938
11
105.5470539999999886
21
-117.2267420000000016
0
LINE
8
BLACK
6
CONTINUOUS
10
105.5470539999999886
20
-117.2267420000000016
11
105.5470539999999886
21
-117.7029330000000016
0
LINE
8
BLACK
6
CONTINUOUS
10
105.5470539999999886
20
-117.7029330000000016
11
105.4518159999999938
21
-118.0838849999999951
0
LINE
8
BLACK
6
CONTINUOUS
10
105.4518159999999938
20
-118.0838849999999951
11
105.356577999999999
21
-118.274360999999999
0
LINE
8
BLACK
6
CONTINUOUS
10
105.356577999999999
20
-118.274360999999999
11
105.2613399999999899
21
-118.3695999999999913
0
LINE
8
BLACK
6
CONTINUOUS
10
105.2613399999999899
20
-118.3695999999999913
11
105.0708640000000003
21
-118.4648380000000003
0
LINE
8
BLACK
6
CONTINUOUS
10
105.0708640000000003
20
-118.4648380000000003
11
104.8803869999999989
21
-118.4648380000000003
0
LINE
8
BLACK
6
CONTINUOUS
10
104.8803869999999989
20
-118.4648380000000003
11
104.6899109999999951
21
-118.3695999999999913
0
LINE
8
BLACK
6
CONTINUOUS
10
104.6899109999999951
20
-118.3695999999999913
11
104.5946730000000002
21
-118.274360999999999
0
LINE
8
BLACK
6
CONTINUOUS
10
104.5946730000000002
20
-118.274360999999999
11
104.4994349999999912
21
-118.0838849999999951
0
LINE
8
BLACK
6
CONTINUOUS
10
104.4994349999999912
20
-118.0838849999999951
11
104.4041969999999964
21
-117.7029330000000016
0
LINE
8
BLACK
6
CONTINUOUS
10
104.4041969999999964
20
-117.7029330000000016
11
104.4041969999999964
21
-117.2267420000000016
0
LINE
8
BLACK
6
CONTINUOUS
10
104.4041969999999964
20
-117.2267420000000016
11
104.4994349999999912
21
-116.8457899999999938
0
LINE
8
BLACK
6
CONTINUOUS
10
104.4994349999999912
20
-116.8457899999999938
11
104.5946730000000002
21
-116.65531399999999
0
LINE
8
BLACK
6
CONTINUOUS
10
104.5946730000000002
20
-116.65531399999999
11
104.6899109999999951
21
-116.5600759999999951
0
LINE
8
BLACK
6
CONTINUOUS
10
104.6899109999999951
20
-116.5600759999999951
11
104.8803869999999989
21
-116.4648380000000003
0
LINE
8
BLACK
6
CONTINUOUS
10
106.4041969999999964
20
-118.4648380000000003
11
106.4041969999999964
21
-117.1315039999999925
0
LINE
8
BLACK
6
CONTINUOUS
10
106.4041969999999964
20
-117.3219799999999964
11
106.4994349999999912
21
-117.2267420000000016
0
LINE
8
BLACK
6
CONTINUOUS
10
106.4994349999999912
20
-117.2267420000000016
11
106.6899109999999951
21
-117.1315039999999925
0
LINE
8
BLACK
6
CONTINUOUS
10
106.6899109999999951
20
-117.1315039999999925
11
106.9756259999999912
21
-117.1315039999999925
0
LINE
8
BLACK
6
CONTINUOUS
10
106.9756259999999912
20
-117.1315039999999925
11
107.1661019999999951
21
-117.2267420000000016
0
LINE
8
BLACK
6
CONTINUOUS
10
107.1661019999999951
20
-117.2267420000000016
11
107.2613399999999899
21
-117.4172189999999887
0
LINE
8
BLACK
6
CONTINUOUS
10
107.2613399999999899
20
-117.4172189999999887
11
107.2613399999999899
21
-118.4648380000000003
0
LINE
8
BLACK
6
CONTINUOUS
10
107.2613399999999899
20
-117.4172189999999887
11
107.356577999999999
21
-117.2267420000000016
0
LINE
8
BLACK
6
CONTINUOUS
10
107.356577999999999
20
-117.2267420000000016
11
107.5470539999999886
21
-117.1315039999999925
0
LINE
8
BLACK
6
CONTINUOUS
10
107.5470539999999886
20
-117.1315039999999925
11
107.8327680000000015
21
-117.1315039999999925
0
LINE
8
BLACK
6
CONTINUOUS
10
107.8327680000000015
20
-117.1315039999999925
11
108.0232449999999886
21
-117.2267420000000016
0
LINE
8
BLACK
6
CONTINUOUS
10
108.0232449999999886
20
-117.2267420000000016
11
108.1184829999999977
21
-117.4172189999999887
0
LINE
8
BLACK
6
CONTINUOUS
10
108.1184829999999977
20
-117.4172189999999887
11
108.1184829999999977
21
-118.4648380000000003
0
LINE
8
BLACK
6
CONTINUOUS
10
109.0708640000000003
20
-118.4648380000000003
11
109.0708640000000003
21
-117.1315039999999925
0
LINE
8
BLACK
6
CONTINUOUS
10
109.0708640000000003
20
-117.3219799999999964
11
109.1661019999999951
21
-117.2267420000000016
0
LINE
8
BLACK
6
CONTINUOUS
10
109.1661019999999951
20
-117.2267420000000016
11
109.356577999999999
21
-117.1315039999999925
0
LINE
8
BLACK
6
CONTINUOUS
10
109.356577999999999
20
-117.1315039999999925
11
109.6422929999999951
21
-117.1315039999999925
0
LINE
8
BLACK
6
CONTINUOUS
10
109.6422929999999951
20
-117.1315039999999925
11
109.832768999999999
21
-117.2267420000000016
0
LINE
8
BLACK
6
CONTINUOUS
10
109.832768999999999
20
-117.2267420000000016
11
109.9280069999999938
21
-117.4172189999999887
0
LINE
8
BLACK
6
CONTINUOUS
10
109.9280069999999938
20
-117.4172189999999887
11
109.9280069999999938
21
-118.4648380000000003
0
LINE
8
BLACK
6
CONTINUOUS
10
109.9280069999999938
20
-117.4172189999999887
11
110.0232449999999886
21
-117.2267420000000016
0
LINE
8
BLACK
6
CONTINUOUS
10
110.0232449999999886
20
-117.2267420000000016
11
110.2137209999999925
21
-117.1315039999999925
0
LINE
8
BLACK
6
CONTINUOUS
10
110.2137209999999925
20
-117.1315039999999925
11
110.4994349999999912
21
-117.1315039999999925
0
LINE
8
BLACK
6
CONTINUOUS
10
110.4994349999999912
20
-117.1315039999999925
11
110.6899119999999925
21
-117.2267420000000016
0
LINE
8
BLACK
6
CONTINUOUS
10
110.6899119999999925
20
-117.2267420000000016
11
110.7851500000000016
21
-117.4172189999999887
0
LINE
8
BLACK
6
CONTINUOUS
10
110.7851500000000016
20
-117.4172189999999887
11
110.7851500000000016
21
-118.4648380000000003
0
LINE
8
BLACK
6
CONTINUOUS
10
114.6899119999999925
20
-116.3695999999999913
11
112.9756269999999887
21
-118.9410279999999887
0
LINE
8
BLACK
6
CONTINUOUS
10
117.2613410000000016
20
-116.4648380000000003
11
117.4518179999999887
21
-116.4648380000000003
0
LINE
8
BLACK
6
CONTINUOUS
10
117.4518179999999887
20
-116.4648380000000003
11
117.6422939999999926
21
-116.5600759999999951
0
LINE
8
BLACK
6
CONTINUOUS
10
117.6422939999999926
20
-116.5600759999999951
11
117.7375320000000016
21
-116.65531399999999
0
LINE
8
BLACK
6
CONTINUOUS
10
117.7375320000000016
20
-116.65531399999999
11
117.8327699999999965
21
-116.8457899999999938
0
LINE
8
BLACK
6
CONTINUOUS
10
117.8327699999999965
20
-116.8457899999999938
11
117.9280079999999913
21
-117.2267420000000016
0
LINE
8
BLACK
6
CONTINUOUS
10
117.9280079999999913
20
-117.2267420000000016
11
117.9280079999999913
21
-117.7029330000000016
0
LINE
8
BLACK
6
CONTINUOUS
10
117.9280079999999913
20
-117.7029330000000016
11
117.8327699999999965
21
-118.0838849999999951
0
LINE
8
BLACK
6
CONTINUOUS
10
117.8327699999999965
20
-118.0838849999999951
11
117.7375320000000016
21
-118.274360999999999
0
LINE
8
BLACK
6
CONTINUOUS
10
117.7375320000000016
20
-118.274360999999999
11
117.6422939999999926
21
-118.3695999999999913
0
LINE
8
BLACK
6
CONTINUOUS
10
117.6422939999999926
20
-118.3695999999999913
11
117.4518179999999887
21
-118.4648380000000003
0
LINE
8
BLACK
6
CONTINUOUS
10
117.4518179999999887
20
-118.4648380000000003
11
117.2613410000000016
21
-118.4648380000000003
0
LINE
8
BLACK
6
CONTINUOUS
10
117.2613410000000016
20
-118.4648380000000003
11
117.0708649999999977
21
-118.3695999999999913
0
LINE
8
BLACK
6
CONTINUOUS
10
117.0708649999999977
20
-118.3695999999999913
11
116.9756269999999887
21
-118.274360999999999
0
LINE
8
BLACK
6
CONTINUOUS
10
116.9756269999999887
20
-118.274360999999999
11
116.8803889999999939
21
-118.0838849999999951
0
LINE
8
BLACK
6
CONTINUOUS
10
116.8803889999999939
20
-118.0838849999999951
11
116.785150999999999
21
-117.7029330000000016
0
LINE
8
BLACK
6
CONTINUOUS
10
116.785150999999999
20
-117.7029330000000016
11
116.785150999999999
21
-117.2267420000000016
0
LINE
8
BLACK
6
CONTINUOUS
10
116.785150999999999
20
-117.2267420000000016
11
116.8803889999999939
21
-116.8457899999999938
0
LINE
8
BLACK
6
CONTINUOUS
10
116.8803889999999939
20
-116.8457899999999938
11
116.9756269999999887
21
-116.65531399999999
0
LINE
8
BLACK
6
CONTINUOUS
10
116.9756269999999887
20
-116.65531399999999
11
117.0708649999999977
21
-116.5600759999999951
0
LINE
8
BLACK
6
CONTINUOUS
10
117.0708649999999977
20
-116.5600759999999951
11
117.2613410000000016
21
-116.4648380000000003
0
LINE
8
BLACK
6
CONTINUOUS
10
118.785150999999999
20
-118.274360999999999
11
118.8803889999999939
21
-118.3695999999999913
0
LINE
8
BLACK
6
CONTINUOUS
10
118.8803889999999939
20
-118.3695999999999913
11
118.785150999999999
21
-118.4648380000000003
0
LINE
8
BLACK
6
CONTINUOUS
10
118.785150999999999
20
-118.4648380000000003
11
118.68991299999999
21
-118.3695999999999913
0
LINE
8
BLACK
6
CONTINUOUS
10
118.68991299999999
20
-118.3695999999999913
11
118.785150999999999
21
-118.274360999999999
0
LINE
8
BLACK
6
CONTINUOUS
10
118.785150999999999
20
-118.274360999999999
11
118.785150999999999
21
-118.4648380000000003
0
LINE
8
BLACK
6
CONTINUOUS
10
120.1184839999999951
20
-116.4648380000000003
11
120.3089609999999965
21
-116.4648380000000003
0
LINE
8
BLACK
6
CONTINUOUS
10
120.3089609999999965
20
-116.4648380000000003
11
120.4994370000000004
21
-116.5600759999999951
0
LINE
8
BLACK
6
CONTINUOUS
10
120.4994370000000004
20
-116.5600759999999951
11
120.5946749999999952
21
-116.65531399999999
0
LINE
8
BLACK
6
CONTINUOUS
10
120.5946749999999952
20
-116.65531399999999
11
120.68991299999999
21
-116.8457899999999938
0
LINE
8
BLACK
6
CONTINUOUS
10
120.68991299999999
20
-116.8457899999999938
11
120.785150999999999
21
-117.2267420000000016
0
LINE
8
BLACK
6
CONTINUOUS
10
120.785150999999999
20
-117.2267420000000016
11
120.785150999999999
21
-117.7029330000000016
0
LINE
8
BLACK
6
CONTINUOUS
10
120.785150999999999
20
-117.7029330000000016
11
120.68991299999999
21
-118.0838849999999951
0
LINE
8
BLACK
6
CONTINUOUS
10
120.68991299999999
20
-118.0838849999999951
11
120.5946749999999952
21
-118.274360999999999
0
LINE
8
BLACK
6
CONTINUOUS
10
120.5946749999999952
20
-118.274360999999999
11
120.4994370000000004
21
-118.3695999999999913
0
LINE
8
BLACK
6
CONTINUOUS
10
120.4994370000000004
20
-118.3695999999999913
11
120.3089609999999965
21
-118.4648380000000003
0
LINE
8
BLACK
6
CONTINUOUS
10
120.3089609999999965
20
-118.4648380000000003
11
120.1184839999999951
21
-118.4648380000000003
0
LINE
8
BLACK
6
CONTINUOUS
10
120.1184839999999951
20
-118.4648380000000003
11
119.9280079999999913
21
-118.3695999999999913
0
LINE
8
BLACK
6
CONTINUOUS
10
119.9280079999999913
20
-118.3695999999999913
11
119.8327699999999965
21
-118.274360999999999
0
LINE
8
BLACK
6
CONTINUOUS
10
119.8327699999999965
20
-118.274360999999999
11
119.7375320000000016
21
-118.0838849999999951
0
LINE
8
BLACK
6
CONTINUOUS
10
119.7375320000000016
20
-118.0838849999999951
11
119.6422939999999926
21
-117.7029330000000016
0
LINE
8
BLACK
6
CONTINUOUS
10
119.6422939999999926
20
-117.7029330000000016
11
119.6422939999999926
21
-117.2267420000000016
0
LINE
8
BLACK
6
CONTINUOUS
10
119.6422939999999926
20
-117.2267420000000016
11
119.7375320000000016
21
-116.8457899999999938
0
LINE
8
BLACK
6
CONTINUOUS
10
119.7375320000000016
20
-116.8457899999999938
11
119.8327699999999965
21
-116.65531399999999
0
LINE
8
BLACK
6
CONTINUOUS
10
119.8327699999999965
20
-116.65531399999999
11
119.9280079999999913
21
-116.5600759999999951
0
LINE
8
BLACK
6
CONTINUOUS
10
119.9280079999999913
20
-116.5600759999999951
11
120.1184839999999951
21
-116.4648380000000003
0
LINE
8
BLACK
6
CONTINUOUS
10
121.4518179999999887
20
-116.4648380000000003
11
122.68991299999999
21
-116.4648380000000003
0
LINE
8
BLACK
6
CONTINUOUS
10
122.68991299999999
20
-116.4648380000000003
11
122.0232460000000003
21
-117.2267420000000016
0
LINE
8
BLACK
6
CONTINUOUS
10
122.0232460000000003
20
-117.2267420000000016
11
122.3089609999999965
21
-117.2267420000000016
0
LINE
8
BLACK
6
CONTINUOUS
10
122.3089609999999965
20
-117.2267420000000016
11
122.4994370000000004
21
-117.3219799999999964
0
LINE
8
BLACK
6
CONTINUOUS
10
122.4994370000000004
20
-117.3219799999999964
11
122.5946749999999952
21
-117.4172189999999887
0
LINE
8
BLACK
6
CONTINUOUS
10
122.5946749999999952
20
-117.4172189999999887
11
122.68991299999999
21
-117.6076949999999925
0
LINE
8
BLACK
6
CONTINUOUS
10
122.68991299999999
20
-117.6076949999999925
11
122.68991299999999
21
-118.0838849999999951
0
LINE
8
BLACK
6
CONTINUOUS
10
122.68991299999999
20
-118.0838849999999951
11
122.5946749999999952
21
-118.274360999999999
0
LINE
8
BLACK
6
CONTINUOUS
10
122.5946749999999952
20
-118.274360999999999
11
122.4994370000000004
21
-118.3695999999999913
0
LINE
8
BLACK
6
CONTINUOUS
10
122.4994370000000004
20
-118.3695999999999913
11
122.3089609999999965
21
-118.4648380000000003
0
LINE
8
BLACK
6
CONTINUOUS
10
122.3089609999999965
20
-118.4648380000000003
11
121.7375319999999874
21
-118.4648380000000003
0
LINE
8
BLACK
6
CONTINUOUS
10
121.7375319999999874
20
-118.4648380000000003
11
121.5470559999999978
21
-118.3695999999999913
0
LINE
8
BLACK
6
CONTINUOUS
10
121.5470559999999978
20
-118.3695999999999913
11
121.4518179999999887
21
-118.274360999999999
0
LINE
8
BLACK
6
CONTINUOUS
10
123.6422939999999926
20
-118.4648380000000003
11
124.0232460000000003
21
-118.4648380000000003
0
LINE
8
BLACK
6
CONTINUOUS
10
124.0232460000000003
20
-118.4648380000000003
11
124.2137229999999875
21
-118.3695999999999913
0
LINE
8
BLACK
6
CONTINUOUS
10
124.2137229999999875
20
-118.3695999999999913
11
124.3089609999999965
21
-118.274360999999999
0
LINE
8
BLACK
6
CONTINUOUS
10
124.3089609999999965
20
-118.274360999999999
11
124.4994370000000004
21
-117.9886470000000003
0
LINE
8
BLACK
6
CONTINUOUS
10
124.4994370000000004
20
-117.9886470000000003
11
124.5946749999999952
21
-117.6076949999999925
0
LINE
8
BLACK
6
CONTINUOUS
10
124.5946749999999952
20
-117.6076949999999925
11
124.5946749999999952
21
-116.8457899999999938
0
LINE
8
BLACK
6
CONTINUOUS
10
124.5946749999999952
20
-116.8457899999999938
11
124.4994370000000004
21
-116.65531399999999
0
LINE
8
BLACK
6
CONTINUOUS
10
124.4994370000000004
20
-116.65531399999999
11
124.4041989999999913
21
-116.5600759999999951
0
LINE
8
BLACK
6
CONTINUOUS
10
124.4041989999999913
20
-116.5600759999999951
11
124.2137229999999875
21
-116.4648380000000003
0
LINE
8
BLACK
6
CONTINUOUS
10
124.2137229999999875
20
-116.4648380000000003
11
123.8327699999999965
21
-116.4648380000000003
0
LINE
8
BLACK
6
CONTINUOUS
10
123.8327699999999965
20
-116.4648380000000003
11
123.6422939999999926
21
-116.5600759999999951
0
LINE
8
BLACK
6
CONTINUOUS
10
123.6422939999999926
20
-116.5600759999999951
11
123.5470559999999978
21
-116.65531399999999
0
LINE
8
BLACK
6
CONTINUOUS
10
123.5470559999999978
20
-116.65531399999999
11
123.4518179999999887
21
-116.8457899999999938
0
LINE
8
BLACK
6
CONTINUOUS
10
123.4518179999999887
20
-116.8457899999999938
11
123.4518179999999887
21
-117.3219799999999964
0
LINE
8
BLACK
6
CONTINUOUS
10
123.4518179999999887
20
-117.3219799999999964
11
123.5470559999999978
21
-117.5124569999999977
0
LINE
8
BLACK
6
CONTINUOUS
10
123.5470559999999978
20
-117.5124569999999977
11
123.6422939999999926
21
-117.6076949999999925
0
LINE
8
BLACK
6
CONTINUOUS
10
123.6422939999999926
20
-117.6076949999999925
11
123.8327699999999965
21
-117.7029330000000016
0
LINE
8
BLACK
6
CONTINUOUS
10
123.8327699999999965
20
-117.7029330000000016
11
124.2137229999999875
21
-117.7029330000000016
0
LINE
8
BLACK
6
CONTINUOUS
10
124.2137229999999875
20
-117.7029330000000016
11
124.4041989999999913
21
-117.6076949999999925
0
LINE
8
BLACK
6
CONTINUOUS
10
124.4041989999999913
20
-117.6076949999999925
11
124.4994370000000004
21
-117.5124569999999977
0
LINE
8
BLACK
6
CONTINUOUS
10
124.4994370000000004
20
-117.5124569999999977
11
124.5946749999999952
21
-117.3219799999999964
0
LINE
8
BLACK
6
CONTINUOUS
10
126.3089609999999965
20
-117.1315039999999925
11
126.3089609999999965
21
-118.4648380000000003
0
LINE
8
BLACK
6
CONTINUOUS
10
125.8327699999999965
20
-116.3695999999999913
11
125.3565799999999939
21
-117.7981709999999964
0
LINE
8
BLACK
6
CONTINUOUS
10
125.3565799999999939
20
-117.7981709999999964
11
126.5946749999999952
21
-117.7981709999999964
0
LINE
8
BLACK
6
CONTINUOUS
10
127.2613419999999991
20
-116.4648380000000003
11
127.2613419999999991
21
-116.8457899999999938
0
LINE
8
BLACK
6
CONTINUOUS
10
128.0232469999999978
20
-116.4648380000000003
11
128.0232469999999978
21
-116.8457899999999938
0
LINE
8
BLACK
6
CONTINUOUS
10
130.9756289999999979
20
-119.2267420000000016
11
130.8803900000000056
21
-119.1315039999999925
0
LINE
8
BLACK
6
CONTINUOUS
10
130.8803900000000056
20
-119.1315039999999925
11
130.6899139999999875
21
-118.8457899999999938
0
LINE
8
BLACK
6
CONTINUOUS
10
130.6899139999999875
20
-118.8457899999999938
11
130.5946759999999927
21
-118.65531399999999
0
LINE
8
BLACK
6
CONTINUOUS
10
130.5946759999999927
20
-118.65531399999999
11
130.4994379999999978
21
-118.3695999999999913
0
LINE
8
BLACK
6
CONTINUOUS
10
130.4994379999999978
20
-118.3695999999999913
11
130.404200000000003
21
-117.8934089999999912
0
LINE
8
BLACK
6
CONTINUOUS
10
130.404200000000003
20
-117.8934089999999912
11
130.404200000000003
21
-117.5124569999999977
0
LINE
8
BLACK
6
CONTINUOUS
10
130.404200000000003
20
-117.5124569999999977
11
130.4994379999999978
21
-117.0362659999999977
0
LINE
8
BLACK
6
CONTINUOUS
10
130.4994379999999978
20
-117.0362659999999977
11
130.5946759999999927
21
-116.750551999999999
0
LINE
8
BLACK
6
CONTINUOUS
10
130.5946759999999927
20
-116.750551999999999
11
130.6899139999999875
21
-116.5600759999999951
0
LINE
8
BLACK
6
CONTINUOUS
10
130.6899139999999875
20
-116.5600759999999951
11
130.8803900000000056
21
-116.274360999999999
0
LINE
8
BLACK
6
CONTINUOUS
10
130.8803900000000056
20
-116.274360999999999
11
130.9756289999999979
21
-116.1791229999999899
0
LINE
8
BLACK
6
CONTINUOUS
10
131.6422949999999901
20
-116.65531399999999
11
131.7375329999999849
21
-116.5600759999999951
0
LINE
8
BLACK
6
CONTINUOUS
10
131.7375329999999849
20
-116.5600759999999951
11
131.928009000000003
21
-116.4648380000000003
0
LINE
8
BLACK
6
CONTINUOUS
10
131.928009000000003
20
-116.4648380000000003
11
132.404200000000003
21
-116.4648380000000003
0
LINE
8
BLACK
6
CONTINUOUS
10
132.404200000000003
20
-116.4648380000000003
11
132.5946759999999927
21
-116.5600759999999951
0
LINE
8
BLACK
6
CONTINUOUS
10
132.5946759999999927
20
-116.5600759999999951
11
132.6899139999999875
21
-116.65531399999999
0
LINE
8
BLACK
6
CONTINUOUS
10
132.6899139999999875
20
-116.65531399999999
11
132.7851519999999823
21
-116.8457899999999938
0
LINE
8
BLACK
6
CONTINUOUS
10
132.7851519999999823
20
-116.8457899999999938
11
132.7851519999999823
21
-117.0362659999999977
0
LINE
8
BLACK
6
CONTINUOUS
10
132.7851519999999823
20
-117.0362659999999977
11
132.6899139999999875
21
-117.3219799999999964
0
LINE
8
BLACK
6
CONTINUOUS
10
132.6899139999999875
20
-117.3219799999999964
11
131.5470569999999952
21
-118.4648380000000003
0
LINE
8
BLACK
6
CONTINUOUS
10
131.5470569999999952
20
-118.4648380000000003
11
132.7851519999999823
21
-118.4648380000000003
0
LINE
8
BLACK
6
CONTINUOUS
10
135.1661049999999875
20
-118.4648380000000003
11
135.1661049999999875
21
-116.4648380000000003
0
LINE
8
BLACK
6
CONTINUOUS
10
136.0232479999999953
20
-118.4648380000000003
11
136.0232479999999953
21
-117.4172189999999887
0
LINE
8
BLACK
6
CONTINUOUS
10
136.0232479999999953
20
-117.4172189999999887
11
135.9280100000000004
21
-117.2267420000000016
0
LINE
8
BLACK
6
CONTINUOUS
10
135.9280100000000004
20
-117.2267420000000016
11
135.7375339999999824
21
-117.1315039999999925
0
LINE
8
BLACK
6
CONTINUOUS
10
135.7375339999999824
20
-117.1315039999999925
11
135.4518190000000004
21
-117.1315039999999925
0
LINE
8
BLACK
6
CONTINUOUS
10
135.4518190000000004
20
-117.1315039999999925
11
135.2613429999999823
21
-117.2267420000000016
0
LINE
8
BLACK
6
CONTINUOUS
10
135.2613429999999823
20
-117.2267420000000016
11
135.1661049999999875
21
-117.3219799999999964
0
LINE
8
BLACK
6
CONTINUOUS
10
137.2613429999999823
20
-118.4648380000000003
11
137.0708669999999927
21
-118.3695999999999913
0
LINE
8
BLACK
6
CONTINUOUS
10
137.0708669999999927
20
-118.3695999999999913
11
136.9756289999999979
21
-118.274360999999999
0
LINE
8
BLACK
6
CONTINUOUS
10
136.9756289999999979
20
-118.274360999999999
11
136.880391000000003
21
-118.0838849999999951
0
LINE
8
BLACK
6
CONTINUOUS
10
136.880391000000003
20
-118.0838849999999951
11
136.880391000000003
21
-117.5124569999999977
0
LINE
8
BLACK
6
CONTINUOUS
10
136.880391000000003
20
-117.5124569999999977
11
136.9756289999999979
21
-117.3219799999999964
0
LINE
8
BLACK
6
CONTINUOUS
10
136.9756289999999979
20
-117.3219799999999964
11
137.0708669999999927
21
-117.2267420000000016
0
LINE
8
BLACK
6
CONTINUOUS
10
137.0708669999999927
20
-117.2267420000000016
11
137.2613429999999823
21
-117.1315039999999925
0
LINE
8
BLACK
6
CONTINUOUS
10
137.2613429999999823
20
-117.1315039999999925
11
137.5470579999999927
21
-117.1315039999999925
0
LINE
8
BLACK
6
CONTINUOUS
10
137.5470579999999927
20
-117.1315039999999925
11
137.7375339999999824
21
-117.2267420000000016
0
LINE
8
BLACK
6
CONTINUOUS
10
137.7375339999999824
20
-117.2267420000000016
11
137.8327720000000056
21
-117.3219799999999964
0
LINE
8
BLACK
6
CONTINUOUS
10
137.8327720000000056
20
-117.3219799999999964
11
137.9280100000000004
21
-117.5124569999999977
0
LINE
8
BLACK
6
CONTINUOUS
10
137.9280100000000004
20
-117.5124569999999977
11
137.9280100000000004
21
-118.0838849999999951
0
LINE
8
BLACK
6
CONTINUOUS
10
137.9280100000000004
20
-118.0838849999999951
11
137.8327720000000056
21
-118.274360999999999
0
LINE
8
BLACK
6
CONTINUOUS
10
137.8327720000000056
20
-118.274360999999999
11
137.7375339999999824
21
-118.3695999999999913
0
LINE
8
BLACK
6
CONTINUOUS
10
137.7375339999999824
20
-118.3695999999999913
11
137.5470579999999927
21
-118.4648380000000003
0
LINE
8
BLACK
6
CONTINUOUS
10
137.5470579999999927
20
-118.4648380000000003
11
137.2613429999999823
21
-118.4648380000000003
0
LINE
8
BLACK
6
CONTINUOUS
10
139.0708669999999927
20
-118.4648380000000003
11
138.880391000000003
21
-118.3695999999999913
0
LINE
8
BLACK
6
CONTINUOUS
10
138.880391000000003
20
-118.3695999999999913
11
138.7851529999999798
21
-118.1791229999999899
0
LINE
8
BLACK
6
CONTINUOUS
10
138.7851529999999798
20
-118.1791229999999899
11
138.7851529999999798
21
-116.4648380000000003
0
LINE
8
BLACK
6
CONTINUOUS
10
140.5946769999999901
20
-118.3695999999999913
11
140.4042010000000005
21
-118.4648380000000003
0
LINE
8
BLACK
6
CONTINUOUS
10
140.4042010000000005
20
-118.4648380000000003
11
140.0232479999999953
21
-118.4648380000000003
0
LINE
8
BLACK
6
CONTINUOUS
10
140.0232479999999953
20
-118.4648380000000003
11
139.8327720000000056
21
-118.3695999999999913
0
LINE
8
BLACK
6
CONTINUOUS
10
139.8327720000000056
20
-118.3695999999999913
11
139.7375339999999824
21
-118.1791229999999899
0
LINE
8
BLACK
6
CONTINUOUS
10
139.7375339999999824
20
-118.1791229999999899
11
139.7375339999999824
21
-117.4172189999999887
0
LINE
8
BLACK
6
CONTINUOUS
10
139.7375339999999824
20
-117.4172189999999887
11
139.8327720000000056
21
-117.2267420000000016
0
LINE
8
BLACK
6
CONTINUOUS
10
139.8327720000000056
20
-117.2267420000000016
11
140.0232479999999953
21
-117.1315039999999925
0
LINE
8
BLACK
6
CONTINUOUS
10
140.0232479999999953
20
-117.1315039999999925
11
140.4042010000000005
21
-117.1315039999999925
0
LINE
8
BLACK
6
CONTINUOUS
10
140.4042010000000005
20
-117.1315039999999925
11
140.5946769999999901
21
-117.2267420000000016
0
LINE
8
BLACK
6
CONTINUOUS
10
140.5946769999999901
20
-117.2267420000000016
11
140.689914999999985
21
-117.4172189999999887
0
LINE
8
BLACK
6
CONTINUOUS
10
140.689914999999985
20
-117.4172189999999887
11
140.689914999999985
21
-117.6076949999999925
0
LINE
8
BLACK
6
CONTINUOUS
10
140.689914999999985
20
-117.6076949999999925
11
139.7375339999999824
21
-117.7981709999999964
0
LINE
8
BLACK
6
CONTINUOUS
10
141.4518199999999979
20
-118.3695999999999913
11
141.6422959999999875
21
-118.4648380000000003
0
LINE
8
BLACK
6
CONTINUOUS
10
141.6422959999999875
20
-118.4648380000000003
11
142.0232479999999953
21
-118.4648380000000003
0
LINE
8
BLACK
6
CONTINUOUS
10
142.0232479999999953
20
-118.4648380000000003
11
142.2137249999999824
21
-118.3695999999999913
0
LINE
8
BLACK
6
CONTINUOUS
10
142.2137249999999824
20
-118.3695999999999913
11
142.3089630000000056
21
-118.1791229999999899
0
LINE
8
BLACK
6
CONTINUOUS
10
142.3089630000000056
20
-118.1791229999999899
11
142.3089630000000056
21
-118.0838849999999951
0
LINE
8
BLACK
6
CONTINUOUS
10
142.3089630000000056
20
-118.0838849999999951
11
142.2137249999999824
21
-117.8934089999999912
0
LINE
8
BLACK
6
CONTINUOUS
10
142.2137249999999824
20
-117.8934089999999912
11
142.0232479999999953
21
-117.7981709999999964
0
LINE
8
BLACK
6
CONTINUOUS
10
142.0232479999999953
20
-117.7981709999999964
11
141.7375339999999824
21
-117.7981709999999964
0
LINE
8
BLACK
6
CONTINUOUS
10
141.7375339999999824
20
-117.7981709999999964
11
141.5470579999999927
21
-117.7029330000000016
0
LINE
8
BLACK
6
CONTINUOUS
10
141.5470579999999927
20
-117.7029330000000016
11
141.4518199999999979
21
-117.5124569999999977
0
LINE
8
BLACK
6
CONTINUOUS
10
141.4518199999999979
20
-117.5124569999999977
11
141.4518199999999979
21
-117.4172189999999887
0
LINE
8
BLACK
6
CONTINUOUS
10
141.4518199999999979
20
-117.4172189999999887
11
141.5470579999999927
21
-117.2267420000000016
0
LINE
8
BLACK
6
CONTINUOUS
10
141.5470579999999927
20
-117.2267420000000016
11
141.7375339999999824
21
-117.1315039999999925
0
LINE
8
BLACK
6
CONTINUOUS
10
141.7375339999999824
20
-117.1315039999999925
11
142.0232479999999953
21
-117.1315039999999925
0
LINE
8
BLACK
6
CONTINUOUS
10
142.0232479999999953
20
-117.1315039999999925
11
142.2137249999999824
21
-117.2267420000000016
0
LINE
8
BLACK
6
CONTINUOUS
10
142.9756299999999953
20
-119.2267420000000016
11
143.0708679999999902
21
-119.1315039999999925
0
LINE
8
BLACK
6
CONTINUOUS
10
143.0708679999999902
20
-119.1315039999999925
11
143.2613439999999798
21
-118.8457899999999938
0
LINE
8
BLACK
6
CONTINUOUS
10
143.2613439999999798
20
-118.8457899999999938
11
143.3565820000000031
21
-118.65531399999999
0
LINE
8
BLACK
6
CONTINUOUS
10
143.3565820000000031
20
-118.65531399999999
11
143.4518199999999979
21
-118.3695999999999913
0
LINE
8
BLACK
6
CONTINUOUS
10
143.4518199999999979
20
-118.3695999999999913
11
143.5470579999999927
21
-117.8934089999999912
0
LINE
8
BLACK
6
CONTINUOUS
10
143.5470579999999927
20
-117.8934089999999912
11
143.5470579999999927
21
-117.5124569999999977
0
LINE
8
BLACK
6
CONTINUOUS
10
143.5470579999999927
20
-117.5124569999999977
11
143.4518199999999979
21
-117.0362659999999977
0
LINE
8
BLACK
6
CONTINUOUS
10
143.4518199999999979
20
-117.0362659999999977
11
143.3565820000000031
21
-116.750551999999999
0
LINE
8
BLACK
6
CONTINUOUS
10
143.3565820000000031
20
-116.750551999999999
11
143.2613439999999798
21
-116.5600759999999951
0
LINE
8
BLACK
6
CONTINUOUS
10
143.2613439999999798
20
-116.5600759999999951
11
143.0708679999999902
21
-116.274360999999999
0
LINE
8
BLACK
6
CONTINUOUS
10
143.0708679999999902
20
-116.274360999999999
11
142.9756299999999953
21
-116.1791229999999899
0
CIRCLE
8
BLACK
10
94.7249999999999943
20
-120.1899999999999977
40
0.5
0
LINE
8
BLACK
6
CONTINUOUS
10
98.8803869999999989
20
-121.1048380000000009
11
97.7375299999999925
21
-121.1048380000000009
0
LINE
8
BLACK
6
CONTINUOUS
10
98.3089579999999899
20
-121.1048380000000009
11
98.3089579999999899
21
-119.1048380000000009
0
LINE
8
BLACK
6
CONTINUOUS
10
98.3089579999999899
20
-119.1048380000000009
11
98.1184820000000002
21
-119.3905519999999996
0
LINE
8
BLACK
6
CONTINUOUS
10
98.1184820000000002
20
-119.3905519999999996
11
97.9280059999999963
21
-119.5810279999999892
0
LINE
8
BLACK
6
CONTINUOUS
10
97.9280059999999963
20
-119.5810279999999892
11
97.7375299999999925
21
-119.6762659999999983
0
LINE
8
BLACK
6
CONTINUOUS
10
99.7375299999999925
20
-120.9143609999999995
11
99.8327680000000015
21
-121.0095999999999918
0
LINE
8
BLACK
6
CONTINUOUS
10
99.8327680000000015
20
-121.0095999999999918
11
99.7375299999999925
21
-121.1048380000000009
0
LINE
8
BLACK
6
CONTINUOUS
10
99.7375299999999925
20
-121.1048380000000009
11
99.6422919999999976
21
-121.0095999999999918
0
LINE
8
BLACK
6
CONTINUOUS
10
99.6422919999999976
20
-121.0095999999999918
11
99.7375299999999925
21
-120.9143609999999995
0
LINE
8
BLACK
6
CONTINUOUS
10
99.7375299999999925
20
-120.9143609999999995
11
99.7375299999999925
21
-121.1048380000000009
0
LINE
8
BLACK
6
CONTINUOUS
10
101.0708629999999886
20
-119.1048380000000009
11
101.2613399999999899
21
-119.1048380000000009
0
LINE
8
BLACK
6
CONTINUOUS
10
101.2613399999999899
20
-119.1048380000000009
11
101.4518159999999938
21
-119.2000759999999957
0
LINE
8
BLACK
6
CONTINUOUS
10
101.4518159999999938
20
-119.2000759999999957
11
101.5470539999999886
21
-119.2953139999999905
0
LINE
8
BLACK
6
CONTINUOUS
10
101.5470539999999886
20
-119.2953139999999905
11
101.6422919999999976
21
-119.4857899999999944
0
LINE
8
BLACK
6
CONTINUOUS
10
101.6422919999999976
20
-119.4857899999999944
11
101.7375299999999925
21
-119.8667419999999879
0
LINE
8
BLACK
6
CONTINUOUS
10
101.7375299999999925
20
-119.8667419999999879
11
101.7375299999999925
21
-120.3429329999999879
0
LINE
8
BLACK
6
CONTINUOUS
10
101.7375299999999925
20
-120.3429329999999879
11
101.6422919999999976
21
-120.7238849999999957
0
LINE
8
BLACK
6
CONTINUOUS
10
101.6422919999999976
20
-120.7238849999999957
11
101.5470539999999886
21
-120.9143609999999995
0
LINE
8
BLACK
6
CONTINUOUS
10
101.5470539999999886
20
-120.9143609999999995
11
101.4518159999999938
21
-121.0095999999999918
0
LINE
8
BLACK
6
CONTINUOUS
10
101.4518159999999938
20
-121.0095999999999918
11
101.2613399999999899
21
-121.1048380000000009
0
LINE
8
BLACK
6
CONTINUOUS
10
101.2613399999999899
20
-121.1048380000000009
11
101.0708629999999886
21
-121.1048380000000009
0
LINE
8
BLACK
6
CONTINUOUS
10
101.0708629999999886
20
-121.1048380000000009
11
100.8803869999999989
21
-121.0095999999999918
0
LINE
8
BLACK
6
CONTINUOUS
10
100.8803869999999989
20
-121.0095999999999918
11
100.7851489999999899
21
-120.9143609999999995
0
LINE
8
BLACK
6
CONTINUOUS
10
100.7851489999999899
20
-120.9143609999999995
11
100.6899109999999951
21
-120.7238849999999957
0
LINE
8
BLACK
6
CONTINUOUS
10
100.6899109999999951
20
-120.7238849999999957
11
100.5946730000000002
21
-120.3429329999999879
0
LINE
8
BLACK
6
CONTINUOUS
10
100.5946730000000002
20
-120.3429329999999879
11
100.5946730000000002
21
-119.8667419999999879
0
LINE
8
BLACK
6
CONTINUOUS
10
100.5946730000000002
20
-119.8667419999999879
11
100.6899109999999951
21
-119.4857899999999944
0
LINE
8
BLACK
6
CONTINUOUS
10
100.6899109999999951
20
-119.4857899999999944
11
100.7851489999999899
21
-119.2953139999999905
0
LINE
8
BLACK
6
CONTINUOUS
10
100.7851489999999899
20
-119.2953139999999905
11
100.8803869999999989
21
-119.2000759999999957
0
LINE
8
BLACK
6
CONTINUOUS
10
100.8803869999999989
20
-119.2000759999999957
11
101.0708629999999886
21
-119.1048380000000009
0
LINE
8
BLACK
6
CONTINUOUS
10
102.9756249999999937
20
-119.1048380000000009
11
103.1661019999999951
21
-119.1048380000000009
0
LINE
8
BLACK
6
CONTINUOUS
10
103.1661019999999951
20
-119.1048380000000009
11
103.356577999999999
21
-119.2000759999999957
0
LINE
8
BLACK
6
CONTINUOUS
10
103.356577999999999
20
-119.2000759999999957
11
103.4518159999999938
21
-119.2953139999999905
0
LINE
8
BLACK
6
CONTINUOUS
10
103.4518159999999938
20
-119.2953139999999905
11
103.5470539999999886
21
-119.4857899999999944
0
LINE
8
BLACK
6
CONTINUOUS
10
103.5470539999999886
20
-119.4857899999999944
11
103.6422919999999976
21
-119.8667419999999879
0
LINE
8
BLACK
6
CONTINUOUS
10
103.6422919999999976
20
-119.8667419999999879
11
103.6422919999999976
21
-120.3429329999999879
0
LINE
8
BLACK
6
CONTINUOUS
10
103.6422919999999976
20
-120.3429329999999879
11
103.5470539999999886
21
-120.7238849999999957
0
LINE
8
BLACK
6
CONTINUOUS
10
103.5470539999999886
20
-120.7238849999999957
11
103.4518159999999938
21
-120.9143609999999995
0
LINE
8
BLACK
6
CONTINUOUS
10
103.4518159999999938
20
-120.9143609999999995
11
103.356577999999999
21
-121.0095999999999918
0
LINE
8
BLACK
6
CONTINUOUS
10
103.356577999999999
20
-121.0095999999999918
11
103.1661019999999951
21
-121.1048380000000009
0
LINE
8
BLACK
6
CONTINUOUS
10
103.1661019999999951
20
-121.1048380000000009
11
102.9756249999999937
21
-121.1048380000000009
0
LINE
8
BLACK
6
CONTINUOUS
10
102.9756249999999937
20
-121.1048380000000009
11
102.7851489999999899
21
-121.0095999999999918
0
LINE
8
BLACK
6
CONTINUOUS
10
102.7851489999999899
20
-121.0095999999999918
11
102.6899109999999951
21
-120.9143609999999995
0
LINE
8
BLACK
6
CONTINUOUS
10
102.6899109999999951
20
-120.9143609999999995
11
102.5946730000000002
21
-120.7238849999999957
0
LINE
8
BLACK
6
CONTINUOUS
10
102.5946730000000002
20
-120.7238849999999957
11
102.4994349999999912
21
-120.3429329999999879
0
LINE
8
BLACK
6
CONTINUOUS
10
102.4994349999999912
20
-120.3429329999999879
11
102.4994349999999912
21
-119.8667419999999879
0
LINE
8
BLACK
6
CONTINUOUS
10
102.4994349999999912
20
-119.8667419999999879
11
102.5946730000000002
21
-119.4857899999999944
0
LINE
8
BLACK
6
CONTINUOUS
10
102.5946730000000002
20
-119.4857899999999944
11
102.6899109999999951
21
-119.2953139999999905
0
LINE
8
BLACK
6
CONTINUOUS
10
102.6899109999999951
20
-119.2953139999999905
11
102.7851489999999899
21
-119.2000759999999957
0
LINE
8
BLACK
6
CONTINUOUS
10
102.7851489999999899
20
-119.2000759999999957
11
102.9756249999999937
21
-119.1048380000000009
0
LINE
8
BLACK
6
CONTINUOUS
10
104.8803869999999989
20
-119.1048380000000009
11
105.0708640000000003
21
-119.1048380000000009
0
LINE
8
BLACK
6
CONTINUOUS
10
105.0708640000000003
20
-119.1048380000000009
11
105.2613399999999899
21
-119.2000759999999957
0
LINE
8
BLACK
6
CONTINUOUS
10
105.2613399999999899
20
-119.2000759999999957
11
105.356577999999999
21
-119.2953139999999905
0
LINE
8
BLACK
6
CONTINUOUS
10
105.356577999999999
20
-119.2953139999999905
11
105.4518159999999938
21
-119.4857899999999944
0
LINE
8
BLACK
6
CONTINUOUS
10
105.4518159999999938
20
-119.4857899999999944
11
105.5470539999999886
21
-119.8667419999999879
0
LINE
8
BLACK
6
CONTINUOUS
10
105.5470539999999886
20
-119.8667419999999879
11
105.5470539999999886
21
-120.3429329999999879
0
LINE
8
BLACK
6
CONTINUOUS
10
105.5470539999999886
20
-120.3429329999999879
11
105.4518159999999938
21
-120.7238849999999957
0
LINE
8
BLACK
6
CONTINUOUS
10
105.4518159999999938
20
-120.7238849999999957
11
105.356577999999999
21
-120.9143609999999995
0
LINE
8
BLACK
6
CONTINUOUS
10
105.356577999999999
20
-120.9143609999999995
11
105.2613399999999899
21
-121.0095999999999918
0
LINE
8
BLACK
6
CONTINUOUS
10
105.2613399999999899
20
-121.0095999999999918
11
105.0708640000000003
21
-121.1048380000000009
0
LINE
8
BLACK
6
CONTINUOUS
10
105.0708640000000003
20
-121.1048380000000009
11
104.8803869999999989
21
-121.1048380000000009
0
LINE
8
BLACK
6
CONTINUOUS
10
104.8803869999999989
20
-121.1048380000000009
11
104.6899109999999951
21
-121.0095999999999918
0
LINE
8
BLACK
6
CONTINUOUS
10
104.6899109999999951
20
-121.0095999999999918
11
104.5946730000000002
21
-120.9143609999999995
0
LINE
8
BLACK
6
CONTINUOUS
10
104.5946730000000002
20
-120.9143609999999995
11
104.4994349999999912
21
-120.7238849999999957
0
LINE
8
BLACK
6
CONTINUOUS
10
104.4994349999999912
20
-120.7238849999999957
11
104.4041969999999964
21
-120.3429329999999879
0
LINE
8
BLACK
6
CONTINUOUS
10
104.4041969999999964
20
-120.3429329999999879
11
104.4041969999999964
21
-119.8667419999999879
0
LINE
8
BLACK
6
CONTINUOUS
10
104.4041969999999964
20
-119.8667419999999879
11
104.4994349999999912
21
-119.4857899999999944
0
LINE
8
BLACK
6
CONTINUOUS
10
104.4994349999999912
20
-119.4857899999999944
11
104.5946730000000002
21
-119.2953139999999905
0
LINE
8
BLACK
6
CONTINUOUS
10
104.5946730000000002
20
-119.2953139999999905
11
104.6899109999999951
21
-119.2000759999999957
0
LINE
8
BLACK
6
CONTINUOUS
10
104.6899109999999951
20
-119.2000759999999957
11
104.8803869999999989
21
-119.1048380000000009
0
LINE
8
BLACK
6
CONTINUOUS
10
106.4041969999999964
20
-121.1048380000000009
11
106.4041969999999964
21
-119.7715039999999931
0
LINE
8
BLACK
6
CONTINUOUS
10
106.4041969999999964
20
-119.9619799999999969
11
106.4994349999999912
21
-119.8667419999999879
0
LINE
8
BLACK
6
CONTINUOUS
10
106.4994349999999912
20
-119.8667419999999879
11
106.6899109999999951
21
-119.7715039999999931
0
LINE
8
BLACK
6
CONTINUOUS
10
106.6899109999999951
20
-119.7715039999999931
11
106.9756259999999912
21
-119.7715039999999931
0
LINE
8
BLACK
6
CONTINUOUS
10
106.9756259999999912
20
-119.7715039999999931
11
107.1661019999999951
21
-119.8667419999999879
0
LINE
8
BLACK
6
CONTINUOUS
10
107.1661019999999951
20
-119.8667419999999879
11
107.2613399999999899
21
-120.0572189999999893
0
LINE
8
BLACK
6
CONTINUOUS
10
107.2613399999999899
20
-120.0572189999999893
11
107.2613399999999899
21
-121.1048380000000009
0
LINE
8
BLACK
6
CONTINUOUS
10
107.2613399999999899
20
-120.0572189999999893
11
107.356577999999999
21
-119.8667419999999879
0
LINE
8
BLACK
6
CONTINUOUS
10
107.356577999999999
20
-119.8667419999999879
11
107.5470539999999886
21
-119.7715039999999931
0
LINE
8
BLACK
6
CONTINUOUS
10
107.5470539999999886
20
-119.7715039999999931
11
107.8327680000000015
21
-119.7715039999999931
0
LINE
8
BLACK
6
CONTINUOUS
10
107.8327680000000015
20
-119.7715039999999931
11
108.0232449999999886
21
-119.8667419999999879
0
LINE
8
BLACK
6
CONTINUOUS
10
108.0232449999999886
20
-119.8667419999999879
11
108.1184829999999977
21
-120.0572189999999893
0
LINE
8
BLACK
6
CONTINUOUS
10
108.1184829999999977
20
-120.0572189999999893
11
108.1184829999999977
21
-121.1048380000000009
0
LINE
8
BLACK
6
CONTINUOUS
10
109.0708640000000003
20
-121.1048380000000009
11
109.0708640000000003
21
-119.7715039999999931
0
LINE
8
BLACK
6
CONTINUOUS
10
109.0708640000000003
20
-119.9619799999999969
11
109.1661019999999951
21
-119.8667419999999879
0
LINE
8
BLACK
6
CONTINUOUS
10
109.1661019999999951
20
-119.8667419999999879
11
109.356577999999999
21
-119.7715039999999931
0
LINE
8
BLACK
6
CONTINUOUS
10
109.356577999999999
20
-119.7715039999999931
11
109.6422929999999951
21
-119.7715039999999931
0
LINE
8
BLACK
6
CONTINUOUS
10
109.6422929999999951
20
-119.7715039999999931
11
109.832768999999999
21
-119.8667419999999879
0
LINE
8
BLACK
6
CONTINUOUS
10
109.832768999999999
20
-119.8667419999999879
11
109.9280069999999938
21
-120.0572189999999893
0
LINE
8
BLACK
6
CONTINUOUS
10
109.9280069999999938
20
-120.0572189999999893
11
109.9280069999999938
21
-121.1048380000000009
0
LINE
8
BLACK
6
CONTINUOUS
10
109.9280069999999938
20
-120.0572189999999893
11
110.0232449999999886
21
-119.8667419999999879
0
LINE
8
BLACK
6
CONTINUOUS
10
110.0232449999999886
20
-119.8667419999999879
11
110.2137209999999925
21
-119.7715039999999931
0
LINE
8
BLACK
6
CONTINUOUS
10
110.2137209999999925
20
-119.7715039999999931
11
110.4994349999999912
21
-119.7715039999999931
0
LINE
8
BLACK
6
CONTINUOUS
10
110.4994349999999912
20
-119.7715039999999931
11
110.6899119999999925
21
-119.8667419999999879
0
LINE
8
BLACK
6
CONTINUOUS
10
110.6899119999999925
20
-119.8667419999999879
11
110.7851500000000016
21
-120.0572189999999893
0
LINE
8
BLACK
6
CONTINUOUS
10
110.7851500000000016
20
-120.0572189999999893
11
110.7851500000000016
21
-121.1048380000000009
0
LINE
8
BLACK
6
CONTINUOUS
10
114.6899119999999925
20
-119.0095999999999918
11
112.9756269999999887
21
-121.5810279999999892
0
LINE
8
BLACK
6
CONTINUOUS
10
117.2613410000000016
20
-119.1048380000000009
11
117.4518179999999887
21
-119.1048380000000009
0
LINE
8
BLACK
6
CONTINUOUS
10
117.4518179999999887
20
-119.1048380000000009
11
117.6422939999999926
21
-119.2000759999999957
0
LINE
8
BLACK
6
CONTINUOUS
10
117.6422939999999926
20
-119.2000759999999957
11
117.7375320000000016
21
-119.2953139999999905
0
LINE
8
BLACK
6
CONTINUOUS
10
117.7375320000000016
20
-119.2953139999999905
11
117.8327699999999965
21
-119.4857899999999944
0
LINE
8
BLACK
6
CONTINUOUS
10
117.8327699999999965
20
-119.4857899999999944
11
117.9280079999999913
21
-119.8667419999999879
0
LINE
8
BLACK
6
CONTINUOUS
10
117.9280079999999913
20
-119.8667419999999879
11
117.9280079999999913
21
-120.3429329999999879
0
LINE
8
BLACK
6
CONTINUOUS
10
117.9280079999999913
20
-120.3429329999999879
11
117.8327699999999965
21
-120.7238849999999957
0
LINE
8
BLACK
6
CONTINUOUS
10
117.8327699999999965
20
-120.7238849999999957
11
117.7375320000000016
21
-120.9143609999999995
0
LINE
8
BLACK
6
CONTINUOUS
10
117.7375320000000016
20
-120.9143609999999995
11
117.6422939999999926
21
-121.0095999999999918
0
LINE
8
BLACK
6
CONTINUOUS
10
117.6422939999999926
20
-121.0095999999999918
11
117.4518179999999887
21
-121.1048380000000009
0
LINE
8
BLACK
6
CONTINUOUS
10
117.4518179999999887
20
-121.1048380000000009
11
117.2613410000000016
21
-121.1048380000000009
0
LINE
8
BLACK
6
CONTINUOUS
10
117.2613410000000016
20
-121.1048380000000009
11
117.0708649999999977
21
-121.0095999999999918
0
LINE
8
BLACK
6
CONTINUOUS
10
117.0708649999999977
20
-121.0095999999999918
11
116.9756269999999887
21
-120.9143609999999995
0
LINE
8
BLACK
6
CONTINUOUS
10
116.9756269999999887
20
-120.9143609999999995
11
116.8803889999999939
21
-120.7238849999999957
0
LINE
8
BLACK
6
CONTINUOUS
10
116.8803889999999939
20
-120.7238849999999957
11
116.785150999999999
21
-120.3429329999999879
0
LINE
8
BLACK
6
CONTINUOUS
10
116.785150999999999
20
-120.3429329999999879
11
116.785150999999999
21
-119.8667419999999879
0
LINE
8
BLACK
6
CONTINUOUS
10
116.785150999999999
20
-119.8667419999999879
11
116.8803889999999939
21
-119.4857899999999944
0
LINE
8
BLACK
6
CONTINUOUS
10
116.8803889999999939
20
-119.4857899999999944
11
116.9756269999999887
21
-119.2953139999999905
0
LINE
8
BLACK
6
CONTINUOUS
10
116.9756269999999887
20
-119.2953139999999905
11
117.0708649999999977
21
-119.2000759999999957
0
LINE
8
BLACK
6
CONTINUOUS
10
117.0708649999999977
20
-119.2000759999999957
11
117.2613410000000016
21
-119.1048380000000009
0
LINE
8
BLACK
6
CONTINUOUS
10
118.785150999999999
20
-120.9143609999999995
11
118.8803889999999939
21
-121.0095999999999918
0
LINE
8
BLACK
6
CONTINUOUS
10
118.8803889999999939
20
-121.0095999999999918
11
118.785150999999999
21
-121.1048380000000009
0
LINE
8
BLACK
6
CONTINUOUS
10
118.785150999999999
20
-121.1048380000000009
11
118.68991299999999
21
-121.0095999999999918
0
LINE
8
BLACK
6
CONTINUOUS
10
118.68991299999999
20
-121.0095999999999918
11
118.785150999999999
21
-120.9143609999999995
0
LINE
8
BLACK
6
CONTINUOUS
10
118.785150999999999
20
-120.9143609999999995
11
118.785150999999999
21
-121.1048380000000009
0
LINE
8
BLACK
6
CONTINUOUS
10
120.1184839999999951
20
-119.1048380000000009
11
120.3089609999999965
21
-119.1048380000000009
0
LINE
8
BLACK
6
CONTINUOUS
10
120.3089609999999965
20
-119.1048380000000009
11
120.4994370000000004
21
-119.2000759999999957
0
LINE
8
BLACK
6
CONTINUOUS
10
120.4994370000000004
20
-119.2000759999999957
11
120.5946749999999952
21
-119.2953139999999905
0
LINE
8
BLACK
6
CONTINUOUS
10
120.5946749999999952
20
-119.2953139999999905
11
120.68991299999999
21
-119.4857899999999944
0
LINE
8
BLACK
6
CONTINUOUS
10
120.68991299999999
20
-119.4857899999999944
11
120.785150999999999
21
-119.8667419999999879
0
LINE
8
BLACK
6
CONTINUOUS
10
120.785150999999999
20
-119.8667419999999879
11
120.785150999999999
21
-120.3429329999999879
0
LINE
8
BLACK
6
CONTINUOUS
10
120.785150999999999
20
-120.3429329999999879
11
120.68991299999999
21
-120.7238849999999957
0
LINE
8
BLACK
6
CONTINUOUS
10
120.68991299999999
20
-120.7238849999999957
11
120.5946749999999952
21
-120.9143609999999995
0
LINE
8
BLACK
6
CONTINUOUS
10
120.5946749999999952
20
-120.9143609999999995
11
120.4994370000000004
21
-121.0095999999999918
0
LINE
8
BLACK
6
CONTINUOUS
10
120.4994370000000004
20
-121.0095999999999918
11
120.3089609999999965
21
-121.1048380000000009
0
LINE
8
BLACK
6
CONTINUOUS
10
120.3089609999999965
20
-121.1048380000000009
11
120.1184839999999951
21
-121.1048380000000009
0
LINE
8
BLACK
6
CONTINUOUS
10
120.1184839999999951
20
-121.1048380000000009
11
119.9280079999999913
21
-121.0095999999999918
0
LINE
8
BLACK
6
CONTINUOUS
10
119.9280079999999913
20
-121.0095999999999918
11
119.8327699999999965
21
-120.9143609999999995
0
LINE
8
BLACK
6
CONTINUOUS
10
119.8327699999999965
20
-120.9143609999999995
11
119.7375320000000016
21
-120.7238849999999957
0
LINE
8
BLACK
6
CONTINUOUS
10
119.7375320000000016
20
-120.7238849999999957
11
119.6422939999999926
21
-120.3429329999999879
0
LINE
8
BLACK
6
CONTINUOUS
10
119.6422939999999926
20
-120.3429329999999879
11
119.6422939999999926
21
-119.8667419999999879
0
LINE
8
BLACK
6
CONTINUOUS
10
119.6422939999999926
20
-119.8667419999999879
11
119.7375320000000016
21
-119.4857899999999944
0
LINE
8
BLACK
6
CONTINUOUS
10
119.7375320000000016
20
-119.4857899999999944
11
119.8327699999999965
21
-119.2953139999999905
0
LINE
8
BLACK
6
CONTINUOUS
10
119.8327699999999965
20
-119.2953139999999905
11
119.9280079999999913
21
-119.2000759999999957
0
LINE
8
BLACK
6
CONTINUOUS
10
119.9280079999999913
20
-119.2000759999999957
11
120.1184839999999951
21
-119.1048380000000009
0
LINE
8
BLACK
6
CONTINUOUS
10
121.4518179999999887
20
-119.1048380000000009
11
122.68991299999999
21
-119.1048380000000009
0
LINE
8
BLACK
6
CONTINUOUS
10
122.68991299999999
20
-119.1048380000000009
11
122.0232460000000003
21
-119.8667419999999879
0
LINE
8
BLACK
6
CONTINUOUS
10
122.0232460000000003
20
-119.8667419999999879
11
122.3089609999999965
21
-119.8667419999999879
0
LINE
8
BLACK
6
CONTINUOUS
10
122.3089609999999965
20
-119.8667419999999879
11
122.4994370000000004
21
-119.9619799999999969
0
LINE
8
BLACK
6
CONTINUOUS
10
122.4994370000000004
20
-119.9619799999999969
11
122.5946749999999952
21
-120.0572189999999893
0
LINE
8
BLACK
6
CONTINUOUS
10
122.5946749999999952
20
-120.0572189999999893
11
122.68991299999999
21
-120.2476949999999931
0
LINE
8
BLACK
6
CONTINUOUS
10
122.68991299999999
20
-120.2476949999999931
11
122.68991299999999
21
-120.7238849999999957
0
LINE
8
BLACK
6
CONTINUOUS
10
122.68991299999999
20
-120.7238849999999957
11
122.5946749999999952
21
-120.9143609999999995
0
LINE
8
BLACK
6
CONTINUOUS
10
122.5946749999999952
20
-120.9143609999999995
11
122.4994370000000004
21
-121.0095999999999918
0
LINE
8
BLACK
6
CONTINUOUS
10
122.4994370000000004
20
-121.0095999999999918
11
122.3089609999999965
21
-121.1048380000000009
0
LINE
8
BLACK
6
CONTINUOUS
10
122.3089609999999965
20
-121.1048380000000009
11
121.7375319999999874
21
-121.1048380000000009
0
LINE
8
BLACK
6
CONTINUOUS
10
121.7375319999999874
20
-121.1048380000000009
11
121.5470559999999978
21
-121.0095999999999918
0
LINE
8
BLACK
6
CONTINUOUS
10
121.5470559999999978
20
-121.0095999999999918
11
121.4518179999999887
21
-120.9143609999999995
0
LINE
8
BLACK
6
CONTINUOUS
10
123.6422939999999926
20
-121.1048380000000009
11
124.0232460000000003
21
-121.1048380000000009
0
LINE
8
BLACK
6
CONTINUOUS
10
124.0232460000000003
20
-121.1048380000000009
11
124.2137229999999875
21
-121.0095999999999918
0
LINE
8
BLACK
6
CONTINUOUS
10
124.2137229999999875
20
-121.0095999999999918
11
124.3089609999999965
21
-120.9143609999999995
0
LINE
8
BLACK
6
CONTINUOUS
10
124.3089609999999965
20
-120.9143609999999995
11
124.4994370000000004
21
-120.6286470000000008
0
LINE
8
BLACK
6
CONTINUOUS
10
124.4994370000000004
20
-120.6286470000000008
11
124.5946749999999952
21
-120.2476949999999931
0
LINE
8
BLACK
6
CONTINUOUS
10
124.5946749999999952
20
-120.2476949999999931
11
124.5946749999999952
21
-119.4857899999999944
0
LINE
8
BLACK
6
CONTINUOUS
10
124.5946749999999952
20
-119.4857899999999944
11
124.4994370000000004
21
-119.2953139999999905
0
LINE
8
BLACK
6
CONTINUOUS
10
124.4994370000000004
20
-119.2953139999999905
11
124.4041989999999913
21
-119.2000759999999957
0
LINE
8
BLACK
6
CONTINUOUS
10
124.4041989999999913
20
-119.2000759999999957
11
124.2137229999999875
21
-119.1048380000000009
0
LINE
8
BLACK
6
CONTINUOUS
10
124.2137229999999875
20
-119.1048380000000009
11
123.8327699999999965
21
-119.1048380000000009
0
LINE
8
BLACK
6
CONTINUOUS
10
123.8327699999999965
20
-119.1048380000000009
11
123.6422939999999926
21
-119.2000759999999957
0
LINE
8
BLACK
6
CONTINUOUS
10
123.6422939999999926
20
-119.2000759999999957
11
123.5470559999999978
21
-119.2953139999999905
0
LINE
8
BLACK
6
CONTINUOUS
10
123.5470559999999978
20
-119.2953139999999905
11
123.4518179999999887
21
-119.4857899999999944
0
LINE
8
BLACK
6
CONTINUOUS
10
123.4518179999999887
20
-119.4857899999999944
11
123.4518179999999887
21
-119.9619799999999969
0
LINE
8
BLACK
6
CONTINUOUS
10
123.4518179999999887
20
-119.9619799999999969
11
123.5470559999999978
21
-120.1524569999999983
0
LINE
8
BLACK
6
CONTINUOUS
10
123.5470559999999978
20
-120.1524569999999983
11
123.6422939999999926
21
-120.2476949999999931
0
LINE
8
BLACK
6
CONTINUOUS
10
123.6422939999999926
20
-120.2476949999999931
11
123.8327699999999965
21
-120.3429329999999879
0
LINE
8
BLACK
6
CONTINUOUS
10
123.8327699999999965
20
-120.3429329999999879
11
124.2137229999999875
21
-120.3429329999999879
0
LINE
8
BLACK
6
CONTINUOUS
10
124.2137229999999875
20
-120.3429329999999879
11
124.4041989999999913
21
-120.2476949999999931
0
LINE
8
BLACK
6
CONTINUOUS
10
124.4041989999999913
20
-120.2476949999999931
11
124.4994370000000004
21
-120.1524569999999983
0
LINE
8
BLACK
6
CONTINUOUS
10
124.4994370000000004
20
-120.1524569999999983
11
124.5946749999999952
21
-119.9619799999999969
0
LINE
8
BLACK
6
CONTINUOUS
10
126.3089609999999965
20
-119.7715039999999931
11
126.3089609999999965
21
-121.1048380000000009
0
LINE
8
BLACK
6
CONTINUOUS
10
125.8327699999999965
20
-119.0095999999999918
11
125.3565799999999939
21
-120.438170999999997
0
LINE
8
BLACK
6
CONTINUOUS
10
125.3565799999999939
20
-120.438170999999997
11
126.5946749999999952
21
-120.438170999999997
0
LINE
8
BLACK
6
CONTINUOUS
10
127.2613419999999991
20
-119.1048380000000009
11
127.2613419999999991
21
-119.4857899999999944
0
LINE
8
BLACK
6
CONTINUOUS
10
128.0232469999999978
20
-119.1048380000000009
11
128.0232469999999978
21
-119.4857899999999944
0
LINE
8
BLACK
6
CONTINUOUS
10
130.9756289999999979
20
-121.8667419999999879
11
130.8803900000000056
21
-121.7715039999999931
0
LINE
8
BLACK
6
CONTINUOUS
10
130.8803900000000056
20
-121.7715039999999931
11
130.6899139999999875
21
-121.4857899999999944
0
LINE
8
BLACK
6
CONTINUOUS
10
130.6899139999999875
20
-121.4857899999999944
11
130.5946759999999927
21
-121.2953139999999905
0
LINE
8
BLACK
6
CONTINUOUS
10
130.5946759999999927
20
-121.2953139999999905
11
130.4994379999999978
21
-121.0095999999999918
0
LINE
8
BLACK
6
CONTINUOUS
10
130.4994379999999978
20
-121.0095999999999918
11
130.404200000000003
21
-120.5334089999999918
0
LINE
8
BLACK
6
CONTINUOUS
10
130.404200000000003
20
-120.5334089999999918
11
130.404200000000003
21
-120.1524569999999983
0
LINE
8
BLACK
6
CONTINUOUS
10
130.404200000000003
20
-120.1524569999999983
11
130.4994379999999978
21
-119.6762659999999983
0
LINE
8
BLACK
6
CONTINUOUS
10
130.4994379999999978
20
-119.6762659999999983
11
130.5946759999999927
21
-119.3905519999999996
0
LINE
8
BLACK
6
CONTINUOUS
10
130.5946759999999927
20
-119.3905519999999996
11
130.6899139999999875
21
-119.2000759999999957
0
LINE
8
BLACK
6
CONTINUOUS
10
130.6899139999999875
20
-119.2000759999999957
11
130.8803900000000056
21
-118.9143609999999995
0
LINE
8
BLACK
6
CONTINUOUS
10
130.8803900000000056
20
-118.9143609999999995
11
130.9756289999999979
21
-118.8191229999999905
0
LINE
8
BLACK
6
CONTINUOUS
10
131.5470569999999952
20
-119.1048380000000009
11
132.8803900000000056
21
-119.1048380000000009
0
LINE
8
BLACK
6
CONTINUOUS
10
132.8803900000000056
20
-119.1048380000000009
11
132.0232469999999978
21
-121.1048380000000009
0
LINE
8
BLACK
6
CONTINUOUS
10
133.5470569999999952
20
-119.2953139999999905
11
133.6422949999999901
21
-119.2000759999999957
0
LINE
8
BLACK
6
CONTINUOUS
10
133.6422949999999901
20
-119.2000759999999957
11
133.8327710000000081
21
-119.1048380000000009
0
LINE
8
BLACK
6
CONTINUOUS
10
133.8327710000000081
20
-119.1048380000000009
11
134.3089619999999798
21
-119.1048380000000009
0
LINE
8
BLACK
6
CONTINUOUS
10
134.3089619999999798
20
-119.1048380000000009
11
134.4994379999999978
21
-119.2000759999999957
0
LINE
8
BLACK
6
CONTINUOUS
10
134.4994379999999978
20
-119.2000759999999957
11
134.5946759999999927
21
-119.2953139999999905
0
LINE
8
BLACK
6
CONTINUOUS
10
134.5946759999999927
20
-119.2953139999999905
11
134.6899139999999875
21
-119.4857899999999944
0
LINE
8
BLACK
6
CONTINUOUS
10
134.6899139999999875
20
-119.4857899999999944
11
134.6899139999999875
21
-119.6762659999999983
0
LINE
8
BLACK
6
CONTINUOUS
10
134.6899139999999875
20
-119.6762659999999983
11
134.5946759999999927
21
-119.9619799999999969
0
LINE
8
BLACK
6
CONTINUOUS
10
134.5946759999999927
20
-119.9619799999999969
11
133.4518190000000004
21
-121.1048380000000009
0
LINE
8
BLACK
6
CONTINUOUS
10
133.4518190000000004
20
-121.1048380000000009
11
134.6899139999999875
21
-121.1048380000000009
0
LINE
8
BLACK
6
CONTINUOUS
10
137.0708669999999927
20
-121.1048380000000009
11
137.0708669999999927
21
-119.1048380000000009
0
LINE
8
BLACK
6
CONTINUOUS
10
137.9280100000000004
20
-121.1048380000000009
11
137.9280100000000004
21
-120.0572189999999893
0
LINE
8
BLACK
6
CONTINUOUS
10
137.9280100000000004
20
-120.0572189999999893
11
137.8327720000000056
21
-119.8667419999999879
0
LINE
8
BLACK
6
CONTINUOUS
10
137.8327720000000056
20
-119.8667419999999879
11
137.6422959999999875
21
-119.7715039999999931
0
LINE
8
BLACK
6
CONTINUOUS
10
137.6422959999999875
20
-119.7715039999999931
11
137.3565810000000056
21
-119.7715039999999931
0
LINE
8
BLACK
6
CONTINUOUS
10
137.3565810000000056
20
-119.7715039999999931
11
137.1661049999999875
21
-119.8667419999999879
0
LINE
8
BLACK
6
CONTINUOUS
10
137.1661049999999875
20
-119.8667419999999879
11
137.0708669999999927
21
-119.9619799999999969
0
LINE
8
BLACK
6
CONTINUOUS
10
139.1661049999999875
20
-121.1048380000000009
11
138.9756289999999979
21
-121.0095999999999918
0
LINE
8
BLACK
6
CONTINUOUS
10
138.9756289999999979
20
-121.0095999999999918
11
138.880391000000003
21
-120.9143609999999995
0
LINE
8
BLACK
6
CONTINUOUS
10
138.880391000000003
20
-120.9143609999999995
11
138.7851529999999798
21
-120.7238849999999957
0
LINE
8
BLACK
6
CONTINUOUS
10
138.7851529999999798
20
-120.7238849999999957
11
138.7851529999999798
21
-120.1524569999999983
0
LINE
8
BLACK
6
CONTINUOUS
10
138.7851529999999798
20
-120.1524569999999983
11
138.880391000000003
21
-119.9619799999999969
0
LINE
8
BLACK
6
CONTINUOUS
10
138.880391000000003
20
-119.9619799999999969
11
138.9756289999999979
21
-119.8667419999999879
0
LINE
8
BLACK
6
CONTINUOUS
10
138.9756289999999979
20
-119.8667419999999879
11
139.1661049999999875
21
-119.7715039999999931
0
LINE
8
BLACK
6
CONTINUOUS
10
139.1661049999999875
20
-119.7715039999999931
11
139.4518199999999979
21
-119.7715039999999931
0
LINE
8
BLACK
6
CONTINUOUS
10
139.4518199999999979
20
-119.7715039999999931
11
139.6422959999999875
21
-119.8667419999999879
0
LINE
8
BLACK
6
CONTINUOUS
10
139.6422959999999875
20
-119.8667419999999879
11
139.7375339999999824
21
-119.9619799999999969
0
LINE
8
BLACK
6
CONTINUOUS
10
139.7375339999999824
20
-119.9619799999999969
11
139.8327720000000056
21
-120.1524569999999983
0
LINE
8
BLACK
6
CONTINUOUS
10
139.8327720000000056
20
-120.1524569999999983
11
139.8327720000000056
21
-120.7238849999999957
0
LINE
8
BLACK
6
CONTINUOUS
10
139.8327720000000056
20
-120.7238849999999957
11
139.7375339999999824
21
-120.9143609999999995
0
LINE
8
BLACK
6
CONTINUOUS
10
139.7375339999999824
20
-120.9143609999999995
11
139.6422959999999875
21
-121.0095999999999918
0
LINE
8
BLACK
6
CONTINUOUS
10
139.6422959999999875
20
-121.0095999999999918
11
139.4518199999999979
21
-121.1048380000000009
0
LINE
8
BLACK
6
CONTINUOUS
10
139.4518199999999979
20
-121.1048380000000009
11
139.1661049999999875
21
-121.1048380000000009
0
LINE
8
BLACK
6
CONTINUOUS
10
140.9756289999999979
20
-121.1048380000000009
11
140.7851529999999798
21
-121.0095999999999918
0
LINE
8
BLACK
6
CONTINUOUS
10
140.7851529999999798
20
-121.0095999999999918
11
140.689914999999985
21
-120.8191229999999905
0
LINE
8
BLACK
6
CONTINUOUS
10
140.689914999999985
20
-120.8191229999999905
11
140.689914999999985
21
-119.1048380000000009
0
LINE
8
BLACK
6
CONTINUOUS
10
142.4994389999999953
20
-121.0095999999999918
11
142.3089630000000056
21
-121.1048380000000009
0
LINE
8
BLACK
6
CONTINUOUS
10
142.3089630000000056
20
-121.1048380000000009
11
141.9280100000000004
21
-121.1048380000000009
0
LINE
8
BLACK
6
CONTINUOUS
10
141.9280100000000004
20
-121.1048380000000009
11
141.7375339999999824
21
-121.0095999999999918
0
LINE
8
BLACK
6
CONTINUOUS
10
141.7375339999999824
20
-121.0095999999999918
11
141.6422959999999875
21
-120.8191229999999905
0
LINE
8
BLACK
6
CONTINUOUS
10
141.6422959999999875
20
-120.8191229999999905
11
141.6422959999999875
21
-120.0572189999999893
0
LINE
8
BLACK
6
CONTINUOUS
10
141.6422959999999875
20
-120.0572189999999893
11
141.7375339999999824
21
-119.8667419999999879
0
LINE
8
BLACK
6
CONTINUOUS
10
141.7375339999999824
20
-119.8667419999999879
11
141.9280100000000004
21
-119.7715039999999931
0
LINE
8
BLACK
6
CONTINUOUS
10
141.9280100000000004
20
-119.7715039999999931
11
142.3089630000000056
21
-119.7715039999999931
0
LINE
8
BLACK
6
CONTINUOUS
10
142.3089630000000056
20
-119.7715039999999931
11
142.4994389999999953
21
-119.8667419999999879
0
LINE
8
BLACK
6
CONTINUOUS
10
142.4994389999999953
20
-119.8667419999999879
11
142.5946769999999901
21
-120.0572189999999893
0
LINE
8
BLACK
6
CONTINUOUS
10
142.5946769999999901
20
-120.0572189999999893
11
142.5946769999999901
21
-120.2476949999999931
0
LINE
8
BLACK
6
CONTINUOUS
10
142.5946769999999901
20
-120.2476949999999931
11
141.6422959999999875
21
-120.438170999999997
0
LINE
8
BLACK
6
CONTINUOUS
10
143.3565820000000031
20
-121.0095999999999918
11
143.5470579999999927
21
-121.1048380000000009
0
LINE
8
BLACK
6
CONTINUOUS
10
143.5470579999999927
20
-121.1048380000000009
11
143.9280100000000004
21
-121.1048380000000009
0
LINE
8
BLACK
6
CONTINUOUS
10
143.9280100000000004
20
-121.1048380000000009
11
144.1184869999999876
21
-121.0095999999999918
0
LINE
8
BLACK
6
CONTINUOUS
10
144.1184869999999876
20
-121.0095999999999918
11
144.2137249999999824
21
-120.8191229999999905
0
LINE
8
BLACK
6
CONTINUOUS
10
144.2137249999999824
20
-120.8191229999999905
11
144.2137249999999824
21
-120.7238849999999957
0
LINE
8
BLACK
6
CONTINUOUS
10
144.2137249999999824
20
-120.7238849999999957
11
144.1184869999999876
21
-120.5334089999999918
0
LINE
8
BLACK
6
CONTINUOUS
10
144.1184869999999876
20
-120.5334089999999918
11
143.9280100000000004
21
-120.438170999999997
0
LINE
8
BLACK
6
CONTINUOUS
10
143.9280100000000004
20
-120.438170999999997
11
143.6422959999999875
21
-120.438170999999997
0
LINE
8
BLACK
6
CONTINUOUS
10
143.6422959999999875
20
-120.438170999999997
11
143.4518199999999979
21
-120.3429329999999879
0
LINE
8
BLACK
6
CONTINUOUS
10
143.4518199999999979
20
-120.3429329999999879
11
143.3565820000000031
21
-120.1524569999999983
0
LINE
8
BLACK
6
CONTINUOUS
10
143.3565820000000031
20
-120.1524569999999983
11
143.3565820000000031
21
-120.0572189999999893
0
LINE
8
BLACK
6
CONTINUOUS
10
143.3565820000000031
20
-120.0572189999999893
11
143.4518199999999979
21
-119.8667419999999879
0
LINE
8
BLACK
6
CONTINUOUS
10
143.4518199999999979
20
-119.8667419999999879
11
143.6422959999999875
21
-119.7715039999999931
0
LINE
8
BLACK
6
CONTINUOUS
10
143.6422959999999875
20
-119.7715039999999931
11
143.9280100000000004
21
-119.7715039999999931
0
LINE
8
BLACK
6
CONTINUOUS
10
143.9280100000000004
20
-119.7715039999999931
11
144.1184869999999876
21
-119.8667419999999879
0
LINE
8
BLACK
6
CONTINUOUS
10
144.8803920000000005
20
-121.8667419999999879
11
144.9756299999999953
21
-121.7715039999999931
0
LINE
8
BLACK
6
CONTINUOUS
10
144.9756299999999953
20
-121.7715039999999931
11
145.166105999999985
21
-121.4857899999999944
0
LINE
8
BLACK
6
CONTINUOUS
10
145.166105999999985
20
-121.4857899999999944
11
145.2613439999999798
21
-121.2953139999999905
0
LINE
8
BLACK
6
CONTINUOUS
10
145.2613439999999798
20
-121.2953139999999905
11
145.3565820000000031
21
-121.0095999999999918
0
LINE
8
BLACK
6
CONTINUOUS
10
145.3565820000000031
20
-121.0095999999999918
11
145.4518199999999979
21
-120.5334089999999918
0
LINE
8
BLACK
6
CONTINUOUS
10
145.4518199999999979
20
-120.5334089999999918
11
145.4518199999999979
21
-120.1524569999999983
0
LINE
8
BLACK
6
CONTINUOUS
10
145.4518199999999979
20
-120.1524569999999983
11
145.3565820000000031
21
-119.6762659999999983
0
LINE
8
BLACK
6
CONTINUOUS
10
145.3565820000000031
20
-119.6762659999999983
11
145.2613439999999798
21
-119.3905519999999996
0
LINE
8
BLACK
6
CONTINUOUS
10
145.2613439999999798
20
-119.3905519999999996
11
145.166105999999985
21
-119.2000759999999957
0
LINE
8
BLACK
6
CONTINUOUS
10
145.166105999999985
20
-119.2000759999999957
11
144.9756299999999953
21
-118.9143609999999995
0
LINE
8
BLACK
6
CONTINUOUS
10
144.9756299999999953
20
-118.9143609999999995
11
144.8803920000000005
21
-118.8191229999999905
0
LINE
8
BLACK
6
CONTINUOUS
10
94.625
20
-122.2299999999999898
11
94.625
21
-123.4299999999999926
0
LINE
8
BLACK
6
CONTINUOUS
10
94.0249999999999915
20
-122.8299999999999983
11
95.2249999999999943
21
-122.8299999999999983
0
LINE
8
BLACK
6
CONTINUOUS
10
98.8803869999999989
20
-123.7448380000000014
11
97.7375299999999925
21
-123.7448380000000014
0
LINE
8
BLACK
6
CONTINUOUS
10
98.3089579999999899
20
-123.7448380000000014
11
98.3089579999999899
21
-121.7448380000000014
0
LINE
8
BLACK
6
CONTINUOUS
10
98.3089579999999899
20
-121.7448380000000014
11
98.1184820000000002
21
-122.0305520000000001
0
LINE
8
BLACK
6
CONTINUOUS
10
98.1184820000000002
20
-122.0305520000000001
11
97.9280059999999963
21
-122.2210279999999898
0
LINE
8
BLACK
6
CONTINUOUS
10
97.9280059999999963
20
-122.2210279999999898
11
97.7375299999999925
21
-122.3162659999999988
0
LINE
8
BLACK
6
CONTINUOUS
10
99.7375299999999925
20
-123.5543610000000001
11
99.8327680000000015
21
-123.6495999999999924
0
LINE
8
BLACK
6
CONTINUOUS
10
99.8327680000000015
20
-123.6495999999999924
11
99.7375299999999925
21
-123.7448380000000014
0
LINE
8
BLACK
6
CONTINUOUS
10
99.7375299999999925
20
-123.7448380000000014
11
99.6422919999999976
21
-123.6495999999999924
0
LINE
8
BLACK
6
CONTINUOUS
10
99.6422919999999976
20
-123.6495999999999924
11
99.7375299999999925
21
-123.5543610000000001
0
LINE
8
BLACK
6
CONTINUOUS
10
99.7375299999999925
20
-123.5543610000000001
11
99.7375299999999925
21
-123.7448380000000014
0
LINE
8
BLACK
6
CONTINUOUS
10
100.5946730000000002
20
-121.9353139999999911
11
100.6899109999999951
21
-121.8400759999999963
0
LINE
8
BLACK
6
CONTINUOUS
10
100.6899109999999951
20
-121.8400759999999963
11
100.8803869999999989
21
-121.7448380000000014
0
LINE
8
BLACK
6
CONTINUOUS
10
100.8803869999999989
20
-121.7448380000000014
11
101.356577999999999
21
-121.7448380000000014
0
LINE
8
BLACK
6
CONTINUOUS
10
101.356577999999999
20
-121.7448380000000014
11
101.5470539999999886
21
-121.8400759999999963
0
LINE
8
BLACK
6
CONTINUOUS
10
101.5470539999999886
20
-121.8400759999999963
11
101.6422919999999976
21
-121.9353139999999911
0
LINE
8
BLACK
6
CONTINUOUS
10
101.6422919999999976
20
-121.9353139999999911
11
101.7375299999999925
21
-122.125789999999995
0
LINE
8
BLACK
6
CONTINUOUS
10
101.7375299999999925
20
-122.125789999999995
11
101.7375299999999925
21
-122.3162659999999988
0
LINE
8
BLACK
6
CONTINUOUS
10
101.7375299999999925
20
-122.3162659999999988
11
101.6422919999999976
21
-122.6019799999999975
0
LINE
8
BLACK
6
CONTINUOUS
10
101.6422919999999976
20
-122.6019799999999975
11
100.4994349999999912
21
-123.7448380000000014
0
LINE
8
BLACK
6
CONTINUOUS
10
100.4994349999999912
20
-123.7448380000000014
11
101.7375299999999925
21
-123.7448380000000014
0
LINE
8
BLACK
6
CONTINUOUS
10
102.9756249999999937
20
-121.7448380000000014
11
103.1661019999999951
21
-121.7448380000000014
0
LINE
8
BLACK
6
CONTINUOUS
10
103.1661019999999951
20
-121.7448380000000014
11
103.356577999999999
21
-121.8400759999999963
0
LINE
8
BLACK
6
CONTINUOUS
10
103.356577999999999
20
-121.8400759999999963
11
103.4518159999999938
21
-121.9353139999999911
0
LINE
8
BLACK
6
CONTINUOUS
10
103.4518159999999938
20
-121.9353139999999911
11
103.5470539999999886
21
-122.125789999999995
0
LINE
8
BLACK
6
CONTINUOUS
10
103.5470539999999886
20
-122.125789999999995
11
103.6422919999999976
21
-122.5067419999999885
0
LINE
8
BLACK
6
CONTINUOUS
10
103.6422919999999976
20
-122.5067419999999885
11
103.6422919999999976
21
-122.9829329999999885
0
LINE
8
BLACK
6
CONTINUOUS
10
103.6422919999999976
20
-122.9829329999999885
11
103.5470539999999886
21
-123.3638849999999962
0
LINE
8
BLACK
6
CONTINUOUS
10
103.5470539999999886
20
-123.3638849999999962
11
103.4518159999999938
21
-123.5543610000000001
0
LINE
8
BLACK
6
CONTINUOUS
10
103.4518159999999938
20
-123.5543610000000001
11
103.356577999999999
21
-123.6495999999999924
0
LINE
8
BLACK
6
CONTINUOUS
10
103.356577999999999
20
-123.6495999999999924
11
103.1661019999999951
21
-123.7448380000000014
0
LINE
8
BLACK
6
CONTINUOUS
10
103.1661019999999951
20
-123.7448380000000014
11
102.9756249999999937
21
-123.7448380000000014
0
LINE
8
BLACK
6
CONTINUOUS
10
102.9756249999999937
20
-123.7448380000000014
11
102.7851489999999899
21
-123.6495999999999924
0
LINE
8
BLACK
6
CONTINUOUS
10
102.7851489999999899
20
-123.6495999999999924
11
102.6899109999999951
21
-123.5543610000000001
0
LINE
8
BLACK
6
CONTINUOUS
10
102.6899109999999951
20
-123.5543610000000001
11
102.5946730000000002
21
-123.3638849999999962
0
LINE
8
BLACK
6
CONTINUOUS
10
102.5946730000000002
20
-123.3638849999999962
11
102.4994349999999912
21
-122.9829329999999885
0
LINE
8
BLACK
6
CONTINUOUS
10
102.4994349999999912
20
-122.9829329999999885
11
102.4994349999999912
21
-122.5067419999999885
0
LINE
8
BLACK
6
CONTINUOUS
10
102.4994349999999912
20
-122.5067419999999885
11
102.5946730000000002
21
-122.125789999999995
0
LINE
8
BLACK
6
CONTINUOUS
10
102.5946730000000002
20
-122.125789999999995
11
102.6899109999999951
21
-121.9353139999999911
0
LINE
8
BLACK
6
CONTINUOUS
10
102.6899109999999951
20
-121.9353139999999911
11
102.7851489999999899
21
-121.8400759999999963
0
LINE
8
BLACK
6
CONTINUOUS
10
102.7851489999999899
20
-121.8400759999999963
11
102.9756249999999937
21
-121.7448380000000014
0
LINE
8
BLACK
6
CONTINUOUS
10
104.8803869999999989
20
-121.7448380000000014
11
105.0708640000000003
21
-121.7448380000000014
0
LINE
8
BLACK
6
CONTINUOUS
10
105.0708640000000003
20
-121.7448380000000014
11
105.2613399999999899
21
-121.8400759999999963
0
LINE
8
BLACK
6
CONTINUOUS
10
105.2613399999999899
20
-121.8400759999999963
11
105.356577999999999
21
-121.9353139999999911
0
LINE
8
BLACK
6
CONTINUOUS
10
105.356577999999999
20
-121.9353139999999911
11
105.4518159999999938
21
-122.125789999999995
0
LINE
8
BLACK
6
CONTINUOUS
10
105.4518159999999938
20
-122.125789999999995
11
105.5470539999999886
21
-122.5067419999999885
0
LINE
8
BLACK
6
CONTINUOUS
10
105.5470539999999886
20
-122.5067419999999885
11
105.5470539999999886
21
-122.9829329999999885
0
LINE
8
BLACK
6
CONTINUOUS
10
105.5470539999999886
20
-122.9829329999999885
11
105.4518159999999938
21
-123.3638849999999962
0
LINE
8
BLACK
6
CONTINUOUS
10
105.4518159999999938
20
-123.3638849999999962
11
105.356577999999999
21
-123.5543610000000001
0
LINE
8
BLACK
6
CONTINUOUS
10
105.356577999999999
20
-123.5543610000000001
11
105.2613399999999899
21
-123.6495999999999924
0
LINE
8
BLACK
6
CONTINUOUS
10
105.2613399999999899
20
-123.6495999999999924
11
105.0708640000000003
21
-123.7448380000000014
0
LINE
8
BLACK
6
CONTINUOUS
10
105.0708640000000003
20
-123.7448380000000014
11
104.8803869999999989
21
-123.7448380000000014
0
LINE
8
BLACK
6
CONTINUOUS
10
104.8803869999999989
20
-123.7448380000000014
11
104.6899109999999951
21
-123.6495999999999924
0
LINE
8
BLACK
6
CONTINUOUS
10
104.6899109999999951
20
-123.6495999999999924
11
104.5946730000000002
21
-123.5543610000000001
0
LINE
8
BLACK
6
CONTINUOUS
10
104.5946730000000002
20
-123.5543610000000001
11
104.4994349999999912
21
-123.3638849999999962
0
LINE
8
BLACK
6
CONTINUOUS
10
104.4994349999999912
20
-123.3638849999999962
11
104.4041969999999964
21
-122.9829329999999885
0
LINE
8
BLACK
6
CONTINUOUS
10
104.4041969999999964
20
-122.9829329999999885
11
104.4041969999999964
21
-122.5067419999999885
0
LINE
8
BLACK
6
CONTINUOUS
10
104.4041969999999964
20
-122.5067419999999885
11
104.4994349999999912
21
-122.125789999999995
0
LINE
8
BLACK
6
CONTINUOUS
10
104.4994349999999912
20
-122.125789999999995
11
104.5946730000000002
21
-121.9353139999999911
0
LINE
8
BLACK
6
CONTINUOUS
10
104.5946730000000002
20
-121.9353139999999911
11
104.6899109999999951
21
-121.8400759999999963
0
LINE
8
BLACK
6
CONTINUOUS
10
104.6899109999999951
20
-121.8400759999999963
11
104.8803869999999989
21
-121.7448380000000014
0
LINE
8
BLACK
6
CONTINUOUS
10
106.4041969999999964
20
-123.7448380000000014
11
106.4041969999999964
21
-122.4115039999999937
0
LINE
8
BLACK
6
CONTINUOUS
10
106.4041969999999964
20
-122.6019799999999975
11
106.4994349999999912
21
-122.5067419999999885
0
LINE
8
BLACK
6
CONTINUOUS
10
106.4994349999999912
20
-122.5067419999999885
11
106.6899109999999951
21
-122.4115039999999937
0
LINE
8
BLACK
6
CONTINUOUS
10
106.6899109999999951
20
-122.4115039999999937
11
106.9756259999999912
21
-122.4115039999999937
0
LINE
8
BLACK
6
CONTINUOUS
10
106.9756259999999912
20
-122.4115039999999937
11
107.1661019999999951
21
-122.5067419999999885
0
LINE
8
BLACK
6
CONTINUOUS
10
107.1661019999999951
20
-122.5067419999999885
11
107.2613399999999899
21
-122.6972189999999898
0
LINE
8
BLACK
6
CONTINUOUS
10
107.2613399999999899
20
-122.6972189999999898
11
107.2613399999999899
21
-123.7448380000000014
0
LINE
8
BLACK
6
CONTINUOUS
10
107.2613399999999899
20
-122.6972189999999898
11
107.356577999999999
21
-122.5067419999999885
0
LINE
8
BLACK
6
CONTINUOUS
10
107.356577999999999
20
-122.5067419999999885
11
107.5470539999999886
21
-122.4115039999999937
0
LINE
8
BLACK
6
CONTINUOUS
10
107.5470539999999886
20
-122.4115039999999937
11
107.8327680000000015
21
-122.4115039999999937
0
LINE
8
BLACK
6
CONTINUOUS
10
107.8327680000000015
20
-122.4115039999999937
11
108.0232449999999886
21
-122.5067419999999885
0
LINE
8
BLACK
6
CONTINUOUS
10
108.0232449999999886
20
-122.5067419999999885
11
108.1184829999999977
21
-122.6972189999999898
0
LINE
8
BLACK
6
CONTINUOUS
10
108.1184829999999977
20
-122.6972189999999898
11
108.1184829999999977
21
-123.7448380000000014
0
LINE
8
BLACK
6
CONTINUOUS
10
109.0708640000000003
20
-123.7448380000000014
11
109.0708640000000003
21
-122.4115039999999937
0
LINE
8
BLACK
6
CONTINUOUS
10
109.0708640000000003
20
-122.6019799999999975
11
109.1661019999999951
21
-122.5067419999999885
0
LINE
8
BLACK
6
CONTINUOUS
10
109.1661019999999951
20
-122.5067419999999885
11
109.356577999999999
21
-122.4115039999999937
0
LINE
8
BLACK
6
CONTINUOUS
10
109.356577999999999
20
-122.4115039999999937
11
109.6422929999999951
21
-122.4115039999999937
0
LINE
8
BLACK
6
CONTINUOUS
10
109.6422929999999951
20
-122.4115039999999937
11
109.832768999999999
21
-122.5067419999999885
0
LINE
8
BLACK
6
CONTINUOUS
10
109.832768999999999
20
-122.5067419999999885
11
109.9280069999999938
21
-122.6972189999999898
0
LINE
8
BLACK
6
CONTINUOUS
10
109.9280069999999938
20
-122.6972189999999898
11
109.9280069999999938
21
-123.7448380000000014
0
LINE
8
BLACK
6
CONTINUOUS
10
109.9280069999999938
20
-122.6972189999999898
11
110.0232449999999886
21
-122.5067419999999885
0
LINE
8
BLACK
6
CONTINUOUS
10
110.0232449999999886
20
-122.5067419999999885
11
110.2137209999999925
21
-122.4115039999999937
0
LINE
8
BLACK
6
CONTINUOUS
10
110.2137209999999925
20
-122.4115039999999937
11
110.4994349999999912
21
-122.4115039999999937
0
LINE
8
BLACK
6
CONTINUOUS
10
110.4994349999999912
20
-122.4115039999999937
11
110.6899119999999925
21
-122.5067419999999885
0
LINE
8
BLACK
6
CONTINUOUS
10
110.6899119999999925
20
-122.5067419999999885
11
110.7851500000000016
21
-122.6972189999999898
0
LINE
8
BLACK
6
CONTINUOUS
10
110.7851500000000016
20
-122.6972189999999898
11
110.7851500000000016
21
-123.7448380000000014
0
LINE
8
BLACK
6
CONTINUOUS
10
114.6899119999999925
20
-121.6495999999999924
11
112.9756269999999887
21
-124.2210279999999898
0
LINE
8
BLACK
6
CONTINUOUS
10
117.2613410000000016
20
-121.7448380000000014
11
117.4518179999999887
21
-121.7448380000000014
0
LINE
8
BLACK
6
CONTINUOUS
10
117.4518179999999887
20
-121.7448380000000014
11
117.6422939999999926
21
-121.8400759999999963
0
LINE
8
BLACK
6
CONTINUOUS
10
117.6422939999999926
20
-121.8400759999999963
11
117.7375320000000016
21
-121.9353139999999911
0
LINE
8
BLACK
6
CONTINUOUS
10
117.7375320000000016
20
-121.9353139999999911
11
117.8327699999999965
21
-122.125789999999995
0
LINE
8
BLACK
6
CONTINUOUS
10
117.8327699999999965
20
-122.125789999999995
11
117.9280079999999913
21
-122.5067419999999885
0
LINE
8
BLACK
6
CONTINUOUS
10
117.9280079999999913
20
-122.5067419999999885
11
117.9280079999999913
21
-122.9829329999999885
0
LINE
8
BLACK
6
CONTINUOUS
10
117.9280079999999913
20
-122.9829329999999885
11
117.8327699999999965
21
-123.3638849999999962
0
LINE
8
BLACK
6
CONTINUOUS
10
117.8327699999999965
20
-123.3638849999999962
11
117.7375320000000016
21
-123.5543610000000001
0
LINE
8
BLACK
6
CONTINUOUS
10
117.7375320000000016
20
-123.5543610000000001
11
117.6422939999999926
21
-123.6495999999999924
0
LINE
8
BLACK
6
CONTINUOUS
10
117.6422939999999926
20
-123.6495999999999924
11
117.4518179999999887
21
-123.7448380000000014
0
LINE
8
BLACK
6
CONTINUOUS
10
117.4518179999999887
20
-123.7448380000000014
11
117.2613410000000016
21
-123.7448380000000014
0
LINE
8
BLACK
6
CONTINUOUS
10
117.2613410000000016
20
-123.7448380000000014
11
117.0708649999999977
21
-123.6495999999999924
0
LINE
8
BLACK
6
CONTINUOUS
10
117.0708649999999977
20
-123.6495999999999924
11
116.9756269999999887
21
-123.5543610000000001
0
LINE
8
BLACK
6
CONTINUOUS
10
116.9756269999999887
20
-123.5543610000000001
11
116.8803889999999939
21
-123.3638849999999962
0
LINE
8
BLACK
6
CONTINUOUS
10
116.8803889999999939
20
-123.3638849999999962
11
116.785150999999999
21
-122.9829329999999885
0
LINE
8
BLACK
6
CONTINUOUS
10
116.785150999999999
20
-122.9829329999999885
11
116.785150999999999
21
-122.5067419999999885
0
LINE
8
BLACK
6
CONTINUOUS
10
116.785150999999999
20
-122.5067419999999885
11
116.8803889999999939
21
-122.125789999999995
0
LINE
8
BLACK
6
CONTINUOUS
10
116.8803889999999939
20
-122.125789999999995
11
116.9756269999999887
21
-121.9353139999999911
0
LINE
8
BLACK
6
CONTINUOUS
10
116.9756269999999887
20
-121.9353139999999911
11
117.0708649999999977
21
-121.8400759999999963
0
LINE
8
BLACK
6
CONTINUOUS
10
117.0708649999999977
20
-121.8400759999999963
11
117.2613410000000016
21
-121.7448380000000014
0
LINE
8
BLACK
6
CONTINUOUS
10
118.785150999999999
20
-123.5543610000000001
11
118.8803889999999939
21
-123.6495999999999924
0
LINE
8
BLACK
6
CONTINUOUS
10
118.8803889999999939
20
-123.6495999999999924
11
118.785150999999999
21
-123.7448380000000014
0
LINE
8
BLACK
6
CONTINUOUS
10
118.785150999999999
20
-123.7448380000000014
11
118.68991299999999
21
-123.6495999999999924
0
LINE
8
BLACK
6
CONTINUOUS
10
118.68991299999999
20
-123.6495999999999924
11
118.785150999999999
21
-123.5543610000000001
0
LINE
8
BLACK
6
CONTINUOUS
10
118.785150999999999
20
-123.5543610000000001
11
118.785150999999999
21
-123.7448380000000014
0
LINE
8
BLACK
6
CONTINUOUS
10
120.1184839999999951
20
-121.7448380000000014
11
120.3089609999999965
21
-121.7448380000000014
0
LINE
8
BLACK
6
CONTINUOUS
10
120.3089609999999965
20
-121.7448380000000014
11
120.4994370000000004
21
-121.8400759999999963
0
LINE
8
BLACK
6
CONTINUOUS
10
120.4994370000000004
20
-121.8400759999999963
11
120.5946749999999952
21
-121.9353139999999911
0
LINE
8
BLACK
6
CONTINUOUS
10
120.5946749999999952
20
-121.9353139999999911
11
120.68991299999999
21
-122.125789999999995
0
LINE
8
BLACK
6
CONTINUOUS
10
120.68991299999999
20
-122.125789999999995
11
120.785150999999999
21
-122.5067419999999885
0
LINE
8
BLACK
6
CONTINUOUS
10
120.785150999999999
20
-122.5067419999999885
11
120.785150999999999
21
-122.9829329999999885
0
LINE
8
BLACK
6
CONTINUOUS
10
120.785150999999999
20
-122.9829329999999885
11
120.68991299999999
21
-123.3638849999999962
0
LINE
8
BLACK
6
CONTINUOUS
10
120.68991299999999
20
-123.3638849999999962
11
120.5946749999999952
21
-123.5543610000000001
0
LINE
8
BLACK
6
CONTINUOUS
10
120.5946749999999952
20
-123.5543610000000001
11
120.4994370000000004
21
-123.6495999999999924
0
LINE
8
BLACK
6
CONTINUOUS
10
120.4994370000000004
20
-123.6495999999999924
11
120.3089609999999965
21
-123.7448380000000014
0
LINE
8
BLACK
6
CONTINUOUS
10
120.3089609999999965
20
-123.7448380000000014
11
120.1184839999999951
21
-123.7448380000000014
0
LINE
8
BLACK
6
CONTINUOUS
10
120.1184839999999951
20
-123.7448380000000014
11
119.9280079999999913
21
-123.6495999999999924
0
LINE
8
BLACK
6
CONTINUOUS
10
119.9280079999999913
20
-123.6495999999999924
11
119.8327699999999965
21
-123.5543610000000001
0
LINE
8
BLACK
6
CONTINUOUS
10
119.8327699999999965
20
-123.5543610000000001
11
119.7375320000000016
21
-123.3638849999999962
0
LINE
8
BLACK
6
CONTINUOUS
10
119.7375320000000016
20
-123.3638849999999962
11
119.6422939999999926
21
-122.9829329999999885
0
LINE
8
BLACK
6
CONTINUOUS
10
119.6422939999999926
20
-122.9829329999999885
11
119.6422939999999926
21
-122.5067419999999885
0
LINE
8
BLACK
6
CONTINUOUS
10
119.6422939999999926
20
-122.5067419999999885
11
119.7375320000000016
21
-122.125789999999995
0
LINE
8
BLACK
6
CONTINUOUS
10
119.7375320000000016
20
-122.125789999999995
11
119.8327699999999965
21
-121.9353139999999911
0
LINE
8
BLACK
6
CONTINUOUS
10
119.8327699999999965
20
-121.9353139999999911
11
119.9280079999999913
21
-121.8400759999999963
0
LINE
8
BLACK
6
CONTINUOUS
10
119.9280079999999913
20
-121.8400759999999963
11
120.1184839999999951
21
-121.7448380000000014
0
LINE
8
BLACK
6
CONTINUOUS
10
122.4994370000000004
20
-122.4115039999999937
11
122.4994370000000004
21
-123.7448380000000014
0
LINE
8
BLACK
6
CONTINUOUS
10
122.0232460000000003
20
-121.6495999999999924
11
121.5470559999999978
21
-123.0781709999999975
0
LINE
8
BLACK
6
CONTINUOUS
10
121.5470559999999978
20
-123.0781709999999975
11
122.785150999999999
21
-123.0781709999999975
0
LINE
8
BLACK
6
CONTINUOUS
10
123.3565799999999939
20
-121.7448380000000014
11
124.68991299999999
21
-121.7448380000000014
0
LINE
8
BLACK
6
CONTINUOUS
10
124.68991299999999
20
-121.7448380000000014
11
123.8327699999999965
21
-123.7448380000000014
0
LINE
8
BLACK
6
CONTINUOUS
10
125.3565799999999939
20
-121.9353139999999911
11
125.4518179999999887
21
-121.8400759999999963
0
LINE
8
BLACK
6
CONTINUOUS
10
125.4518179999999887
20
-121.8400759999999963
11
125.6422939999999926
21
-121.7448380000000014
0
LINE
8
BLACK
6
CONTINUOUS
10
125.6422939999999926
20
-121.7448380000000014
11
126.1184849999999926
21
-121.7448380000000014
0
LINE
8
BLACK
6
CONTINUOUS
10
126.1184849999999926
20
-121.7448380000000014
11
126.3089609999999965
21
-121.8400759999999963
0
LINE
8
BLACK
6
CONTINUOUS
10
126.3089609999999965
20
-121.8400759999999963
11
126.4041989999999913
21
-121.9353139999999911
0
LINE
8
BLACK
6
CONTINUOUS
10
126.4041989999999913
20
-121.9353139999999911
11
126.4994370000000004
21
-122.125789999999995
0
LINE
8
BLACK
6
CONTINUOUS
10
126.4994370000000004
20
-122.125789999999995
11
126.4994370000000004
21
-122.3162659999999988
0
LINE
8
BLACK
6
CONTINUOUS
10
126.4994370000000004
20
-122.3162659999999988
11
126.4041989999999913
21
-122.6019799999999975
0
LINE
8
BLACK
6
CONTINUOUS
10
126.4041989999999913
20
-122.6019799999999975
11
125.2613419999999991
21
-123.7448380000000014
0
LINE
8
BLACK
6
CONTINUOUS
10
125.2613419999999991
20
-123.7448380000000014
11
126.4994370000000004
21
-123.7448380000000014
0
LINE
8
BLACK
6
CONTINUOUS
10
127.2613419999999991
20
-121.7448380000000014
11
127.2613419999999991
21
-122.125789999999995
0
LINE
8
BLACK
6
CONTINUOUS
10
128.0232469999999978
20
-121.7448380000000014
11
128.0232469999999978
21
-122.125789999999995
0
LINE
8
BLACK
6
CONTINUOUS
10
130.9756289999999979
20
-124.5067419999999885
11
130.8803900000000056
21
-124.4115039999999937
0
LINE
8
BLACK
6
CONTINUOUS
10
130.8803900000000056
20
-124.4115039999999937
11
130.6899139999999875
21
-124.125789999999995
0
LINE
8
BLACK
6
CONTINUOUS
10
130.6899139999999875
20
-124.125789999999995
11
130.5946759999999927
21
-123.9353139999999911
0
LINE
8
BLACK
6
CONTINUOUS
10
130.5946759999999927
20
-123.9353139999999911
11
130.4994379999999978
21
-123.6495999999999924
0
LINE
8
BLACK
6
CONTINUOUS
10
130.4994379999999978
20
-123.6495999999999924
11
130.404200000000003
21
-123.1734089999999924
0
LINE
8
BLACK
6
CONTINUOUS
10
130.404200000000003
20
-123.1734089999999924
11
130.404200000000003
21
-122.7924569999999989
0
LINE
8
BLACK
6
CONTINUOUS
10
130.404200000000003
20
-122.7924569999999989
11
130.4994379999999978
21
-122.3162659999999988
0
LINE
8
BLACK
6
CONTINUOUS
10
130.4994379999999978
20
-122.3162659999999988
11
130.5946759999999927
21
-122.0305520000000001
0
LINE
8
BLACK
6
CONTINUOUS
10
130.5946759999999927
20
-122.0305520000000001
11
130.6899139999999875
21
-121.8400759999999963
0
LINE
8
BLACK
6
CONTINUOUS
10
130.6899139999999875
20
-121.8400759999999963
11
130.8803900000000056
21
-121.5543610000000001
0
LINE
8
BLACK
6
CONTINUOUS
10
130.8803900000000056
20
-121.5543610000000001
11
130.9756289999999979
21
-121.4591229999999911
0
LINE
8
BLACK
6
CONTINUOUS
10
132.0232469999999978
20
-122.6019799999999975
11
131.8327710000000081
21
-122.5067419999999885
0
LINE
8
BLACK
6
CONTINUOUS
10
131.8327710000000081
20
-122.5067419999999885
11
131.7375329999999849
21
-122.4115039999999937
0
LINE
8
BLACK
6
CONTINUOUS
10
131.7375329999999849
20
-122.4115039999999937
11
131.6422949999999901
21
-122.2210279999999898
0
LINE
8
BLACK
6
CONTINUOUS
10
131.6422949999999901
20
-122.2210279999999898
11
131.6422949999999901
21
-122.125789999999995
0
LINE
8
BLACK
6
CONTINUOUS
10
131.6422949999999901
20
-122.125789999999995
11
131.7375329999999849
21
-121.9353139999999911
0
LINE
8
BLACK
6
CONTINUOUS
10
131.7375329999999849
20
-121.9353139999999911
11
131.8327710000000081
21
-121.8400759999999963
0
LINE
8
BLACK
6
CONTINUOUS
10
131.8327710000000081
20
-121.8400759999999963
11
132.0232469999999978
21
-121.7448380000000014
0
LINE
8
BLACK
6
CONTINUOUS
10
132.0232469999999978
20
-121.7448380000000014
11
132.404200000000003
21
-121.7448380000000014
0
LINE
8
BLACK
6
CONTINUOUS
10
132.404200000000003
20
-121.7448380000000014
11
132.5946759999999927
21
-121.8400759999999963
0
LINE
8
BLACK
6
CONTINUOUS
10
132.5946759999999927
20
-121.8400759999999963
11
132.6899139999999875
21
-121.9353139999999911
0
LINE
8
BLACK
6
CONTINUOUS
10
132.6899139999999875
20
-121.9353139999999911
11
132.7851519999999823
21
-122.125789999999995
0
LINE
8
BLACK
6
CONTINUOUS
10
132.7851519999999823
20
-122.125789999999995
11
132.7851519999999823
21
-122.2210279999999898
0
LINE
8
BLACK
6
CONTINUOUS
10
132.7851519999999823
20
-122.2210279999999898
11
132.6899139999999875
21
-122.4115039999999937
0
LINE
8
BLACK
6
CONTINUOUS
10
132.6899139999999875
20
-122.4115039999999937
11
132.5946759999999927
21
-122.5067419999999885
0
LINE
8
BLACK
6
CONTINUOUS
10
132.5946759999999927
20
-122.5067419999999885
11
132.404200000000003
21
-122.6019799999999975
0
LINE
8
BLACK
6
CONTINUOUS
10
132.404200000000003
20
-122.6019799999999975
11
132.0232469999999978
21
-122.6019799999999975
0
LINE
8
BLACK
6
CONTINUOUS
10
132.0232469999999978
20
-122.6019799999999975
11
131.8327710000000081
21
-122.6972189999999898
0
LINE
8
BLACK
6
CONTINUOUS
10
131.8327710000000081
20
-122.6972189999999898
11
131.7375329999999849
21
-122.7924569999999989
0
LINE
8
BLACK
6
CONTINUOUS
10
131.7375329999999849
20
-122.7924569999999989
11
131.6422949999999901
21
-122.9829329999999885
0
LINE
8
BLACK
6
CONTINUOUS
10
131.6422949999999901
20
-122.9829329999999885
11
131.6422949999999901
21
-123.3638849999999962
0
LINE
8
BLACK
6
CONTINUOUS
10
131.6422949999999901
20
-123.3638849999999962
11
131.7375329999999849
21
-123.5543610000000001
0
LINE
8
BLACK
6
CONTINUOUS
10
131.7375329999999849
20
-123.5543610000000001
11
131.8327710000000081
21
-123.6495999999999924
0
LINE
8
BLACK
6
CONTINUOUS
10
131.8327710000000081
20
-123.6495999999999924
11
132.0232469999999978
21
-123.7448380000000014
0
LINE
8
BLACK
6
CONTINUOUS
10
132.0232469999999978
20
-123.7448380000000014
11
132.404200000000003
21
-123.7448380000000014
0
LINE
8
BLACK
6
CONTINUOUS
10
132.404200000000003
20
-123.7448380000000014
11
132.5946759999999927
21
-123.6495999999999924
0
LINE
8
BLACK
6
CONTINUOUS
10
132.5946759999999927
20
-123.6495999999999924
11
132.6899139999999875
21
-123.5543610000000001
0
LINE
8
BLACK
6
CONTINUOUS
10
132.6899139999999875
20
-123.5543610000000001
11
132.7851519999999823
21
-123.3638849999999962
0
LINE
8
BLACK
6
CONTINUOUS
10
132.7851519999999823
20
-123.3638849999999962
11
132.7851519999999823
21
-122.9829329999999885
0
LINE
8
BLACK
6
CONTINUOUS
10
132.7851519999999823
20
-122.9829329999999885
11
132.6899139999999875
21
-122.7924569999999989
0
LINE
8
BLACK
6
CONTINUOUS
10
132.6899139999999875
20
-122.7924569999999989
11
132.5946759999999927
21
-122.6972189999999898
0
LINE
8
BLACK
6
CONTINUOUS
10
132.5946759999999927
20
-122.6972189999999898
11
132.404200000000003
21
-122.6019799999999975
0
LINE
8
BLACK
6
CONTINUOUS
10
135.1661049999999875
20
-123.7448380000000014
11
135.1661049999999875
21
-121.7448380000000014
0
LINE
8
BLACK
6
CONTINUOUS
10
136.0232479999999953
20
-123.7448380000000014
11
136.0232479999999953
21
-122.6972189999999898
0
LINE
8
BLACK
6
CONTINUOUS
10
136.0232479999999953
20
-122.6972189999999898
11
135.9280100000000004
21
-122.5067419999999885
0
LINE
8
BLACK
6
CONTINUOUS
10
135.9280100000000004
20
-122.5067419999999885
11
135.7375339999999824
21
-122.4115039999999937
0
LINE
8
BLACK
6
CONTINUOUS
10
135.7375339999999824
20
-122.4115039999999937
11
135.4518190000000004
21
-122.4115039999999937
0
LINE
8
BLACK
6
CONTINUOUS
10
135.4518190000000004
20
-122.4115039999999937
11
135.2613429999999823
21
-122.5067419999999885
0
LINE
8
BLACK
6
CONTINUOUS
10
135.2613429999999823
20
-122.5067419999999885
11
135.1661049999999875
21
-122.6019799999999975
0
LINE
8
BLACK
6
CONTINUOUS
10
137.2613429999999823
20
-123.7448380000000014
11
137.0708669999999927
21
-123.6495999999999924
0
LINE
8
BLACK
6
CONTINUOUS
10
137.0708669999999927
20
-123.6495999999999924
11
136.9756289999999979
21
-123.5543610000000001
0
LINE
8
BLACK
6
CONTINUOUS
10
136.9756289999999979
20
-123.5543610000000001
11
136.880391000000003
21
-123.3638849999999962
0
LINE
8
BLACK
6
CONTINUOUS
10
136.880391000000003
20
-123.3638849999999962
11
136.880391000000003
21
-122.7924569999999989
0
LINE
8
BLACK
6
CONTINUOUS
10
136.880391000000003
20
-122.7924569999999989
11
136.9756289999999979
21
-122.6019799999999975
0
LINE
8
BLACK
6
CONTINUOUS
10
136.9756289999999979
20
-122.6019799999999975
11
137.0708669999999927
21
-122.5067419999999885
0
LINE
8
BLACK
6
CONTINUOUS
10
137.0708669999999927
20
-122.5067419999999885
11
137.2613429999999823
21
-122.4115039999999937
0
LINE
8
BLACK
6
CONTINUOUS
10
137.2613429999999823
20
-122.4115039999999937
11
137.5470579999999927
21
-122.4115039999999937
0
LINE
8
BLACK
6
CONTINUOUS
10
137.5470579999999927
20
-122.4115039999999937
11
137.7375339999999824
21
-122.5067419999999885
0
LINE
8
BLACK
6
CONTINUOUS
10
137.7375339999999824
20
-122.5067419999999885
11
137.8327720000000056
21
-122.6019799999999975
0
LINE
8
BLACK
6
CONTINUOUS
10
137.8327720000000056
20
-122.6019799999999975
11
137.9280100000000004
21
-122.7924569999999989
0
LINE
8
BLACK
6
CONTINUOUS
10
137.9280100000000004
20
-122.7924569999999989
11
137.9280100000000004
21
-123.3638849999999962
0
LINE
8
BLACK
6
CONTINUOUS
10
137.9280100000000004
20
-123.3638849999999962
11
137.8327720000000056
21
-123.5543610000000001
0
LINE
8
BLACK
6
CONTINUOUS
10
137.8327720000000056
20
-123.5543610000000001
11
137.7375339999999824
21
-123.6495999999999924
0
LINE
8
BLACK
6
CONTINUOUS
10
137.7375339999999824
20
-123.6495999999999924
11
137.5470579999999927
21
-123.7448380000000014
0
LINE
8
BLACK
6
CONTINUOUS
10
137.5470579999999927
20
-123.7448380000000014
11
137.2613429999999823
21
-123.7448380000000014
0
LINE
8
BLACK
6
CONTINUOUS
10
139.0708669999999927
20
-123.7448380000000014
11
138.880391000000003
21
-123.6495999999999924
0
LINE
8
BLACK
6
CONTINUOUS
10
138.880391000000003
20
-123.6495999999999924
11
138.7851529999999798
21
-123.4591229999999911
0
LINE
8
BLACK
6
CONTINUOUS
10
138.7851529999999798
20
-123.4591229999999911
11
138.7851529999999798
21
-121.7448380000000014
0
LINE
8
BLACK
6
CONTINUOUS
10
140.5946769999999901
20
-123.6495999999999924
11
140.4042010000000005
21
-123.7448380000000014
0
LINE
8
BLACK
6
CONTINUOUS
10
140.4042010000000005
20
-123.7448380000000014
11
140.0232479999999953
21
-123.7448380000000014
0
LINE
8
BLACK
6
CONTINUOUS
10
140.0232479999999953
20
-123.7448380000000014
11
139.8327720000000056
21
-123.6495999999999924
0
LINE
8
BLACK
6
CONTINUOUS
10
139.8327720000000056
20
-123.6495999999999924
11
139.7375339999999824
21
-123.4591229999999911
0
LINE
8
BLACK
6
CONTINUOUS
10
139.7375339999999824
20
-123.4591229999999911
11
139.7375339999999824
21
-122.6972189999999898
0
LINE
8
BLACK
6
CONTINUOUS
10
139.7375339999999824
20
-122.6972189999999898
11
139.8327720000000056
21
-122.5067419999999885
0
LINE
8
BLACK
6
CONTINUOUS
10
139.8327720000000056
20
-122.5067419999999885
11
140.0232479999999953
21
-122.4115039999999937
0
LINE
8
BLACK
6
CONTINUOUS
10
140.0232479999999953
20
-122.4115039999999937
11
140.4042010000000005
21
-122.4115039999999937
0
LINE
8
BLACK
6
CONTINUOUS
10
140.4042010000000005
20
-122.4115039999999937
11
140.5946769999999901
21
-122.5067419999999885
0
LINE
8
BLACK
6
CONTINUOUS
10
140.5946769999999901
20
-122.5067419999999885
11
140.689914999999985
21
-122.6972189999999898
0
LINE
8
BLACK
6
CONTINUOUS
10
140.689914999999985
20
-122.6972189999999898
11
140.689914999999985
21
-122.8876949999999937
0
LINE
8
BLACK
6
CONTINUOUS
10
140.689914999999985
20
-122.8876949999999937
11
139.7375339999999824
21
-123.0781709999999975
0
LINE
8
BLACK
6
CONTINUOUS
10
141.4518199999999979
20
-123.6495999999999924
11
141.6422959999999875
21
-123.7448380000000014
0
LINE
8
BLACK
6
CONTINUOUS
10
141.6422959999999875
20
-123.7448380000000014
11
142.0232479999999953
21
-123.7448380000000014
0
LINE
8
BLACK
6
CONTINUOUS
10
142.0232479999999953
20
-123.7448380000000014
11
142.2137249999999824
21
-123.6495999999999924
0
LINE
8
BLACK
6
CONTINUOUS
10
142.2137249999999824
20
-123.6495999999999924
11
142.3089630000000056
21
-123.4591229999999911
0
LINE
8
BLACK
6
CONTINUOUS
10
142.3089630000000056
20
-123.4591229999999911
11
142.3089630000000056
21
-123.3638849999999962
0
LINE
8
BLACK
6
CONTINUOUS
10
142.3089630000000056
20
-123.3638849999999962
11
142.2137249999999824
21
-123.1734089999999924
0
LINE
8
BLACK
6
CONTINUOUS
10
142.2137249999999824
20
-123.1734089999999924
11
142.0232479999999953
21
-123.0781709999999975
0
LINE
8
BLACK
6
CONTINUOUS
10
142.0232479999999953
20
-123.0781709999999975
11
141.7375339999999824
21
-123.0781709999999975
0
LINE
8
BLACK
6
CONTINUOUS
10
141.7375339999999824
20
-123.0781709999999975
11
141.5470579999999927
21
-122.9829329999999885
0
LINE
8
BLACK
6
CONTINUOUS
10
141.5470579999999927
20
-122.9829329999999885
11
141.4518199999999979
21
-122.7924569999999989
0
LINE
8
BLACK
6
CONTINUOUS
10
141.4518199999999979
20
-122.7924569999999989
11
141.4518199999999979
21
-122.6972189999999898
0
LINE
8
BLACK
6
CONTINUOUS
10
141.4518199999999979
20
-122.6972189999999898
11
141.5470579999999927
21
-122.5067419999999885
0
LINE
8
BLACK
6
CONTINUOUS
10
141.5470579999999927
20
-122.5067419999999885
11
141.7375339999999824
21
-122.4115039999999937
0
LINE
8
BLACK
6
CONTINUOUS
10
141.7375339999999824
20
-122.4115039999999937
11
142.0232479999999953
21
-122.4115039999999937
0
LINE
8
BLACK
6
CONTINUOUS
10
142.0232479999999953
20
-122.4115039999999937
11
142.2137249999999824
21
-122.5067419999999885
0
LINE
8
BLACK
6
CONTINUOUS
10
142.9756299999999953
20
-124.5067419999999885
11
143.0708679999999902
21
-124.4115039999999937
0
LINE
8
BLACK
6
CONTINUOUS
10
143.0708679999999902
20
-124.4115039999999937
11
143.2613439999999798
21
-124.125789999999995
0
LINE
8
BLACK
6
CONTINUOUS
10
143.2613439999999798
20
-124.125789999999995
11
143.3565820000000031
21
-123.9353139999999911
0
LINE
8
BLACK
6
CONTINUOUS
10
143.3565820000000031
20
-123.9353139999999911
11
143.4518199999999979
21
-123.6495999999999924
0
LINE
8
BLACK
6
CONTINUOUS
10
143.4518199999999979
20
-123.6495999999999924
11
143.5470579999999927
21
-123.1734089999999924
0
LINE
8
BLACK
6
CONTINUOUS
10
143.5470579999999927
20
-123.1734089999999924
11
143.5470579999999927
21
-122.7924569999999989
0
LINE
8
BLACK
6
CONTINUOUS
10
143.5470579999999927
20
-122.7924569999999989
11
143.4518199999999979
21
-122.3162659999999988
0
LINE
8
BLACK
6
CONTINUOUS
10
143.4518199999999979
20
-122.3162659999999988
11
143.3565820000000031
21
-122.0305520000000001
0
LINE
8
BLACK
6
CONTINUOUS
10
143.3565820000000031
20
-122.0305520000000001
11
143.2613439999999798
21
-121.8400759999999963
0
LINE
8
BLACK
6
CONTINUOUS
10
143.2613439999999798
20
-121.8400759999999963
11
143.0708679999999902
21
-121.5543610000000001
0
LINE
8
BLACK
6
CONTINUOUS
10
143.0708679999999902
20
-121.5543610000000001
11
142.9756299999999953
21
-121.4591229999999911
0
LINE
8
BLACK
6
CONTINUOUS
10
95.0053350000000023
20
-126.0003349999999926
11
95.0053350000000023
21
-124.9396649999999909
0
LINE
8
BLACK
6
CONTINUOUS
10
95.0053350000000023
20
-124.9396649999999909
11
93.9446650000000005
21
-124.9396649999999909
0
LINE
8
BLACK
6
CONTINUOUS
10
93.9446650000000005
20
-124.9396649999999909
11
93.9446650000000005
21
-126.0003349999999926
0
LINE
8
BLACK
6
CONTINUOUS
10
93.9446650000000005
20
-126.0003349999999926
11
95.0053350000000023
21
-126.0003349999999926
0
LINE
8
BLACK
6
CONTINUOUS
10
98.8803869999999989
20
-126.3848379999999878
11
97.7375299999999925
21
-126.3848379999999878
0
LINE
8
BLACK
6
CONTINUOUS
10
98.3089579999999899
20
-126.3848379999999878
11
98.3089579999999899
21
-124.3848379999999878
0
LINE
8
BLACK
6
CONTINUOUS
10
98.3089579999999899
20
-124.3848379999999878
11
98.1184820000000002
21
-124.6705520000000007
0
LINE
8
BLACK
6
CONTINUOUS
10
98.1184820000000002
20
-124.6705520000000007
11
97.9280059999999963
21
-124.8610279999999904
0
LINE
8
BLACK
6
CONTINUOUS
10
97.9280059999999963
20
-124.8610279999999904
11
97.7375299999999925
21
-124.9562659999999994
0
LINE
8
BLACK
6
CONTINUOUS
10
99.7375299999999925
20
-126.1943610000000007
11
99.8327680000000015
21
-126.289599999999993
0
LINE
8
BLACK
6
CONTINUOUS
10
99.8327680000000015
20
-126.289599999999993
11
99.7375299999999925
21
-126.3848379999999878
0
LINE
8
BLACK
6
CONTINUOUS
10
99.7375299999999925
20
-126.3848379999999878
11
99.6422919999999976
21
-126.289599999999993
0
LINE
8
BLACK
6
CONTINUOUS
10
99.6422919999999976
20
-126.289599999999993
11
99.7375299999999925
21
-126.1943610000000007
0
LINE
8
BLACK
6
CONTINUOUS
10
99.7375299999999925
20
-126.1943610000000007
11
99.7375299999999925
21
-126.3848379999999878
0
LINE
8
BLACK
6
CONTINUOUS
10
101.6422919999999976
20
-124.3848379999999878
11
100.6899109999999951
21
-124.3848379999999878
0
LINE
8
BLACK
6
CONTINUOUS
10
100.6899109999999951
20
-124.3848379999999878
11
100.5946730000000002
21
-125.3372189999999904
0
LINE
8
BLACK
6
CONTINUOUS
10
100.5946730000000002
20
-125.3372189999999904
11
100.6899109999999951
21
-125.2419799999999981
0
LINE
8
BLACK
6
CONTINUOUS
10
100.6899109999999951
20
-125.2419799999999981
11
100.8803869999999989
21
-125.146741999999989
0
LINE
8
BLACK
6
CONTINUOUS
10
100.8803869999999989
20
-125.146741999999989
11
101.356577999999999
21
-125.146741999999989
0
LINE
8
BLACK
6
CONTINUOUS
10
101.356577999999999
20
-125.146741999999989
11
101.5470539999999886
21
-125.2419799999999981
0
LINE
8
BLACK
6
CONTINUOUS
10
101.5470539999999886
20
-125.2419799999999981
11
101.6422919999999976
21
-125.3372189999999904
0
LINE
8
BLACK
6
CONTINUOUS
10
101.6422919999999976
20
-125.3372189999999904
11
101.7375299999999925
21
-125.5276949999999943
0
LINE
8
BLACK
6
CONTINUOUS
10
101.7375299999999925
20
-125.5276949999999943
11
101.7375299999999925
21
-126.0038849999999968
0
LINE
8
BLACK
6
CONTINUOUS
10
101.7375299999999925
20
-126.0038849999999968
11
101.6422919999999976
21
-126.1943610000000007
0
LINE
8
BLACK
6
CONTINUOUS
10
101.6422919999999976
20
-126.1943610000000007
11
101.5470539999999886
21
-126.289599999999993
0
LINE
8
BLACK
6
CONTINUOUS
10
101.5470539999999886
20
-126.289599999999993
11
101.356577999999999
21
-126.3848379999999878
0
LINE
8
BLACK
6
CONTINUOUS
10
101.356577999999999
20
-126.3848379999999878
11
100.8803869999999989
21
-126.3848379999999878
0
LINE
8
BLACK
6
CONTINUOUS
10
100.8803869999999989
20
-126.3848379999999878
11
100.6899109999999951
21
-126.289599999999993
0
LINE
8
BLACK
6
CONTINUOUS
10
100.6899109999999951
20
-126.289599999999993
11
100.5946730000000002
21
-126.1943610000000007
0
LINE
8
BLACK
6
CONTINUOUS
10
102.9756249999999937
20
-124.3848379999999878
11
103.1661019999999951
21
-124.3848379999999878
0
LINE
8
BLACK
6
CONTINUOUS
10
103.1661019999999951
20
-124.3848379999999878
11
103.356577999999999
21
-124.4800759999999968
0
LINE
8
BLACK
6
CONTINUOUS
10
103.356577999999999
20
-124.4800759999999968
11
103.4518159999999938
21
-124.5753139999999917
0
LINE
8
BLACK
6
CONTINUOUS
10
103.4518159999999938
20
-124.5753139999999917
11
103.5470539999999886
21
-124.7657899999999955
0
LINE
8
BLACK
6
CONTINUOUS
10
103.5470539999999886
20
-124.7657899999999955
11
103.6422919999999976
21
-125.146741999999989
0
LINE
8
BLACK
6
CONTINUOUS
10
103.6422919999999976
20
-125.146741999999989
11
103.6422919999999976
21
-125.6229329999999891
0
LINE
8
BLACK
6
CONTINUOUS
10
103.6422919999999976
20
-125.6229329999999891
11
103.5470539999999886
21
-126.0038849999999968
0
LINE
8
BLACK
6
CONTINUOUS
10
103.5470539999999886
20
-126.0038849999999968
11
103.4518159999999938
21
-126.1943610000000007
0
LINE
8
BLACK
6
CONTINUOUS
10
103.4518159999999938
20
-126.1943610000000007
11
103.356577999999999
21
-126.289599999999993
0
LINE
8
BLACK
6
CONTINUOUS
10
103.356577999999999
20
-126.289599999999993
11
103.1661019999999951
21
-126.3848379999999878
0
LINE
8
BLACK
6
CONTINUOUS
10
103.1661019999999951
20
-126.3848379999999878
11
102.9756249999999937
21
-126.3848379999999878
0
LINE
8
BLACK
6
CONTINUOUS
10
102.9756249999999937
20
-126.3848379999999878
11
102.7851489999999899
21
-126.289599999999993
0
LINE
8
BLACK
6
CONTINUOUS
10
102.7851489999999899
20
-126.289599999999993
11
102.6899109999999951
21
-126.1943610000000007
0
LINE
8
BLACK
6
CONTINUOUS
10
102.6899109999999951
20
-126.1943610000000007
11
102.5946730000000002
21
-126.0038849999999968
0
LINE
8
BLACK
6
CONTINUOUS
10
102.5946730000000002
20
-126.0038849999999968
11
102.4994349999999912
21
-125.6229329999999891
0
LINE
8
BLACK
6
CONTINUOUS
10
102.4994349999999912
20
-125.6229329999999891
11
102.4994349999999912
21
-125.146741999999989
0
LINE
8
BLACK
6
CONTINUOUS
10
102.4994349999999912
20
-125.146741999999989
11
102.5946730000000002
21
-124.7657899999999955
0
LINE
8
BLACK
6
CONTINUOUS
10
102.5946730000000002
20
-124.7657899999999955
11
102.6899109999999951
21
-124.5753139999999917
0
LINE
8
BLACK
6
CONTINUOUS
10
102.6899109999999951
20
-124.5753139999999917
11
102.7851489999999899
21
-124.4800759999999968
0
LINE
8
BLACK
6
CONTINUOUS
10
102.7851489999999899
20
-124.4800759999999968
11
102.9756249999999937
21
-124.3848379999999878
0
LINE
8
BLACK
6
CONTINUOUS
10
104.8803869999999989
20
-124.3848379999999878
11
105.0708640000000003
21
-124.3848379999999878
0
LINE
8
BLACK
6
CONTINUOUS
10
105.0708640000000003
20
-124.3848379999999878
11
105.2613399999999899
21
-124.4800759999999968
0
LINE
8
BLACK
6
CONTINUOUS
10
105.2613399999999899
20
-124.4800759999999968
11
105.356577999999999
21
-124.5753139999999917
0
LINE
8
BLACK
6
CONTINUOUS
10
105.356577999999999
20
-124.5753139999999917
11
105.4518159999999938
21
-124.7657899999999955
0
LINE
8
BLACK
6
CONTINUOUS
10
105.4518159999999938
20
-124.7657899999999955
11
105.5470539999999886
21
-125.146741999999989
0
LINE
8
BLACK
6
CONTINUOUS
10
105.5470539999999886
20
-125.146741999999989
11
105.5470539999999886
21
-125.6229329999999891
0
LINE
8
BLACK
6
CONTINUOUS
10
105.5470539999999886
20
-125.6229329999999891
11
105.4518159999999938
21
-126.0038849999999968
0
LINE
8
BLACK
6
CONTINUOUS
10
105.4518159999999938
20
-126.0038849999999968
11
105.356577999999999
21
-126.1943610000000007
0
LINE
8
BLACK
6
CONTINUOUS
10
105.356577999999999
20
-126.1943610000000007
11
105.2613399999999899
21
-126.289599999999993
0
LINE
8
BLACK
6
CONTINUOUS
10
105.2613399999999899
20
-126.289599999999993
11
105.0708640000000003
21
-126.3848379999999878
0
LINE
8
BLACK
6
CONTINUOUS
10
105.0708640000000003
20
-126.3848379999999878
11
104.8803869999999989
21
-126.3848379999999878
0
LINE
8
BLACK
6
CONTINUOUS
10
104.8803869999999989
20
-126.3848379999999878
11
104.6899109999999951
21
-126.289599999999993
0
LINE
8
BLACK
6
CONTINUOUS
10
104.6899109999999951
20
-126.289599999999993
11
104.5946730000000002
21
-126.1943610000000007
0
LINE
8
BLACK
6
CONTINUOUS
10
104.5946730000000002
20
-126.1943610000000007
11
104.4994349999999912
21
-126.0038849999999968
0
LINE
8
BLACK
6
CONTINUOUS
10
104.4994349999999912
20
-126.0038849999999968
11
104.4041969999999964
21
-125.6229329999999891
0
LINE
8
BLACK
6
CONTINUOUS
10
104.4041969999999964
20
-125.6229329999999891
11
104.4041969999999964
21
-125.146741999999989
0
LINE
8
BLACK
6
CONTINUOUS
10
104.4041969999999964
20
-125.146741999999989
11
104.4994349999999912
21
-124.7657899999999955
0
LINE
8
BLACK
6
CONTINUOUS
10
104.4994349999999912
20
-124.7657899999999955
11
104.5946730000000002
21
-124.5753139999999917
0
LINE
8
BLACK
6
CONTINUOUS
10
104.5946730000000002
20
-124.5753139999999917
11
104.6899109999999951
21
-124.4800759999999968
0
LINE
8
BLACK
6
CONTINUOUS
10
104.6899109999999951
20
-124.4800759999999968
11
104.8803869999999989
21
-124.3848379999999878
0
LINE
8
BLACK
6
CONTINUOUS
10
106.4041969999999964
20
-126.3848379999999878
11
106.4041969999999964
21
-125.0515039999999942
0
LINE
8
BLACK
6
CONTINUOUS
10
106.4041969999999964
20
-125.2419799999999981
11
106.4994349999999912
21
-125.146741999999989
0
LINE
8
BLACK
6
CONTINUOUS
10
106.4994349999999912
20
-125.146741999999989
11
106.6899109999999951
21
-125.0515039999999942
0
LINE
8
BLACK
6
CONTINUOUS
10
106.6899109999999951
20
-125.0515039999999942
11
106.9756259999999912
21
-125.0515039999999942
0
LINE
8
BLACK
6
CONTINUOUS
10
106.9756259999999912
20
-125.0515039999999942
11
107.1661019999999951
21
-125.146741999999989
0
LINE
8
BLACK
6
CONTINUOUS
10
107.1661019999999951
20
-125.146741999999989
11
107.2613399999999899
21
-125.3372189999999904
0
LINE
8
BLACK
6
CONTINUOUS
10
107.2613399999999899
20
-125.3372189999999904
11
107.2613399999999899
21
-126.3848379999999878
0
LINE
8
BLACK
6
CONTINUOUS
10
107.2613399999999899
20
-125.3372189999999904
11
107.356577999999999
21
-125.146741999999989
0
LINE
8
BLACK
6
CONTINUOUS
10
107.356577999999999
20
-125.146741999999989
11
107.5470539999999886
21
-125.0515039999999942
0
LINE
8
BLACK
6
CONTINUOUS
10
107.5470539999999886
20
-125.0515039999999942
11
107.8327680000000015
21
-125.0515039999999942
0
LINE
8
BLACK
6
CONTINUOUS
10
107.8327680000000015
20
-125.0515039999999942
11
108.0232449999999886
21
-125.146741999999989
0
LINE
8
BLACK
6
CONTINUOUS
10
108.0232449999999886
20
-125.146741999999989
11
108.1184829999999977
21
-125.3372189999999904
0
LINE
8
BLACK
6
CONTINUOUS
10
108.1184829999999977
20
-125.3372189999999904
11
108.1184829999999977
21
-126.3848379999999878
0
LINE
8
BLACK
6
CONTINUOUS
10
109.0708640000000003
20
-126.3848379999999878
11
109.0708640000000003
21
-125.0515039999999942
0
LINE
8
BLACK
6
CONTINUOUS
10
109.0708640000000003
20
-125.2419799999999981
11
109.1661019999999951
21
-125.146741999999989
0
LINE
8
BLACK
6
CONTINUOUS
10
109.1661019999999951
20
-125.146741999999989
11
109.356577999999999
21
-125.0515039999999942
0
LINE
8
BLACK
6
CONTINUOUS
10
109.356577999999999
20
-125.0515039999999942
11
109.6422929999999951
21
-125.0515039999999942
0
LINE
8
BLACK
6
CONTINUOUS
10
109.6422929999999951
20
-125.0515039999999942
11
109.832768999999999
21
-125.146741999999989
0
LINE
8
BLACK
6
CONTINUOUS
10
109.832768999999999
20
-125.146741999999989
11
109.9280069999999938
21
-125.3372189999999904
0
LINE
8
BLACK
6
CONTINUOUS
10
109.9280069999999938
20
-125.3372189999999904
11
109.9280069999999938
21
-126.3848379999999878
0
LINE
8
BLACK
6
CONTINUOUS
10
109.9280069999999938
20
-125.3372189999999904
11
110.0232449999999886
21
-125.146741999999989
0
LINE
8
BLACK
6
CONTINUOUS
10
110.0232449999999886
20
-125.146741999999989
11
110.2137209999999925
21
-125.0515039999999942
0
LINE
8
BLACK
6
CONTINUOUS
10
110.2137209999999925
20
-125.0515039999999942
11
110.4994349999999912
21
-125.0515039999999942
0
LINE
8
BLACK
6
CONTINUOUS
10
110.4994349999999912
20
-125.0515039999999942
11
110.6899119999999925
21
-125.146741999999989
0
LINE
8
BLACK
6
CONTINUOUS
10
110.6899119999999925
20
-125.146741999999989
11
110.7851500000000016
21
-125.3372189999999904
0
LINE
8
BLACK
6
CONTINUOUS
10
110.7851500000000016
20
-125.3372189999999904
11
110.7851500000000016
21
-126.3848379999999878
0
LINE
8
BLACK
6
CONTINUOUS
10
114.6899119999999925
20
-124.289599999999993
11
112.9756269999999887
21
-126.8610279999999904
0
LINE
8
BLACK
6
CONTINUOUS
10
117.2613410000000016
20
-124.3848379999999878
11
117.4518179999999887
21
-124.3848379999999878
0
LINE
8
BLACK
6
CONTINUOUS
10
117.4518179999999887
20
-124.3848379999999878
11
117.6422939999999926
21
-124.4800759999999968
0
LINE
8
BLACK
6
CONTINUOUS
10
117.6422939999999926
20
-124.4800759999999968
11
117.7375320000000016
21
-124.5753139999999917
0
LINE
8
BLACK
6
CONTINUOUS
10
117.7375320000000016
20
-124.5753139999999917
11
117.8327699999999965
21
-124.7657899999999955
0
LINE
8
BLACK
6
CONTINUOUS
10
117.8327699999999965
20
-124.7657899999999955
11
117.9280079999999913
21
-125.146741999999989
0
LINE
8
BLACK
6
CONTINUOUS
10
117.9280079999999913
20
-125.146741999999989
11
117.9280079999999913
21
-125.6229329999999891
0
LINE
8
BLACK
6
CONTINUOUS
10
117.9280079999999913
20
-125.6229329999999891
11
117.8327699999999965
21
-126.0038849999999968
0
LINE
8
BLACK
6
CONTINUOUS
10
117.8327699999999965
20
-126.0038849999999968
11
117.7375320000000016
21
-126.1943610000000007
0
LINE
8
BLACK
6
CONTINUOUS
10
117.7375320000000016
20
-126.1943610000000007
11
117.6422939999999926
21
-126.289599999999993
0
LINE
8
BLACK
6
CONTINUOUS
10
117.6422939999999926
20
-126.289599999999993
11
117.4518179999999887
21
-126.3848379999999878
0
LINE
8
BLACK
6
CONTINUOUS
10
117.4518179999999887
20
-126.3848379999999878
11
117.2613410000000016
21
-126.3848379999999878
0
LINE
8
BLACK
6
CONTINUOUS
10
117.2613410000000016
20
-126.3848379999999878
11
117.0708649999999977
21
-126.289599999999993
0
LINE
8
BLACK
6
CONTINUOUS
10
117.0708649999999977
20
-126.289599999999993
11
116.9756269999999887
21
-126.1943610000000007
0
LINE
8
BLACK
6
CONTINUOUS
10
116.9756269999999887
20
-126.1943610000000007
11
116.8803889999999939
21
-126.0038849999999968
0
LINE
8
BLACK
6
CONTINUOUS
10
116.8803889999999939
20
-126.0038849999999968
11
116.785150999999999
21
-125.6229329999999891
0
LINE
8
BLACK
6
CONTINUOUS
10
116.785150999999999
20
-125.6229329999999891
11
116.785150999999999
21
-125.146741999999989
0
LINE
8
BLACK
6
CONTINUOUS
10
116.785150999999999
20
-125.146741999999989
11
116.8803889999999939
21
-124.7657899999999955
0
LINE
8
BLACK
6
CONTINUOUS
10
116.8803889999999939
20
-124.7657899999999955
11
116.9756269999999887
21
-124.5753139999999917
0
LINE
8
BLACK
6
CONTINUOUS
10
116.9756269999999887
20
-124.5753139999999917
11
117.0708649999999977
21
-124.4800759999999968
0
LINE
8
BLACK
6
CONTINUOUS
10
117.0708649999999977
20
-124.4800759999999968
11
117.2613410000000016
21
-124.3848379999999878
0
LINE
8
BLACK
6
CONTINUOUS
10
118.785150999999999
20
-126.1943610000000007
11
118.8803889999999939
21
-126.289599999999993
0
LINE
8
BLACK
6
CONTINUOUS
10
118.8803889999999939
20
-126.289599999999993
11
118.785150999999999
21
-126.3848379999999878
0
LINE
8
BLACK
6
CONTINUOUS
10
118.785150999999999
20
-126.3848379999999878
11
118.68991299999999
21
-126.289599999999993
0
LINE
8
BLACK
6
CONTINUOUS
10
118.68991299999999
20
-126.289599999999993
11
118.785150999999999
21
-126.1943610000000007
0
LINE
8
BLACK
6
CONTINUOUS
10
118.785150999999999
20
-126.1943610000000007
11
118.785150999999999
21
-126.3848379999999878
0
LINE
8
BLACK
6
CONTINUOUS
10
120.1184839999999951
20
-124.3848379999999878
11
120.3089609999999965
21
-124.3848379999999878
0
LINE
8
BLACK
6
CONTINUOUS
10
120.3089609999999965
20
-124.3848379999999878
11
120.4994370000000004
21
-124.4800759999999968
0
LINE
8
BLACK
6
CONTINUOUS
10
120.4994370000000004
20
-124.4800759999999968
11
120.5946749999999952
21
-124.5753139999999917
0
LINE
8
BLACK
6
CONTINUOUS
10
120.5946749999999952
20
-124.5753139999999917
11
120.68991299999999
21
-124.7657899999999955
0
LINE
8
BLACK
6
CONTINUOUS
10
120.68991299999999
20
-124.7657899999999955
11
120.785150999999999
21
-125.146741999999989
0
LINE
8
BLACK
6
CONTINUOUS
10
120.785150999999999
20
-125.146741999999989
11
120.785150999999999
21
-125.6229329999999891
0
LINE
8
BLACK
6
CONTINUOUS
10
120.785150999999999
20
-125.6229329999999891
11
120.68991299999999
21
-126.0038849999999968
0
LINE
8
BLACK
6
CONTINUOUS
10
120.68991299999999
20
-126.0038849999999968
11
120.5946749999999952
21
-126.1943610000000007
0
LINE
8
BLACK
6
CONTINUOUS
10
120.5946749999999952
20
-126.1943610000000007
11
120.4994370000000004
21
-126.289599999999993
0
LINE
8
BLACK
6
CONTINUOUS
10
120.4994370000000004
20
-126.289599999999993
11
120.3089609999999965
21
-126.3848379999999878
0
LINE
8
BLACK
6
CONTINUOUS
10
120.3089609999999965
20
-126.3848379999999878
11
120.1184839999999951
21
-126.3848379999999878
0
LINE
8
BLACK
6
CONTINUOUS
10
120.1184839999999951
20
-126.3848379999999878
11
119.9280079999999913
21
-126.289599999999993
0
LINE
8
BLACK
6
CONTINUOUS
10
119.9280079999999913
20
-126.289599999999993
11
119.8327699999999965
21
-126.1943610000000007
0
LINE
8
BLACK
6
CONTINUOUS
10
119.8327699999999965
20
-126.1943610000000007
11
119.7375320000000016
21
-126.0038849999999968
0
LINE
8
BLACK
6
CONTINUOUS
10
119.7375320000000016
20
-126.0038849999999968
11
119.6422939999999926
21
-125.6229329999999891
0
LINE
8
BLACK
6
CONTINUOUS
10
119.6422939999999926
20
-125.6229329999999891
11
119.6422939999999926
21
-125.146741999999989
0
LINE
8
BLACK
6
CONTINUOUS
10
119.6422939999999926
20
-125.146741999999989
11
119.7375320000000016
21
-124.7657899999999955
0
LINE
8
BLACK
6
CONTINUOUS
10
119.7375320000000016
20
-124.7657899999999955
11
119.8327699999999965
21
-124.5753139999999917
0
LINE
8
BLACK
6
CONTINUOUS
10
119.8327699999999965
20
-124.5753139999999917
11
119.9280079999999913
21
-124.4800759999999968
0
LINE
8
BLACK
6
CONTINUOUS
10
119.9280079999999913
20
-124.4800759999999968
11
120.1184839999999951
21
-124.3848379999999878
0
LINE
8
BLACK
6
CONTINUOUS
10
122.5946749999999952
20
-124.3848379999999878
11
121.6422939999999926
21
-124.3848379999999878
0
LINE
8
BLACK
6
CONTINUOUS
10
121.6422939999999926
20
-124.3848379999999878
11
121.5470559999999978
21
-125.3372189999999904
0
LINE
8
BLACK
6
CONTINUOUS
10
121.5470559999999978
20
-125.3372189999999904
11
121.6422939999999926
21
-125.2419799999999981
0
LINE
8
BLACK
6
CONTINUOUS
10
121.6422939999999926
20
-125.2419799999999981
11
121.8327699999999965
21
-125.146741999999989
0
LINE
8
BLACK
6
CONTINUOUS
10
121.8327699999999965
20
-125.146741999999989
11
122.3089609999999965
21
-125.146741999999989
0
LINE
8
BLACK
6
CONTINUOUS
10
122.3089609999999965
20
-125.146741999999989
11
122.4994370000000004
21
-125.2419799999999981
0
LINE
8
BLACK
6
CONTINUOUS
10
122.4994370000000004
20
-125.2419799999999981
11
122.5946749999999952
21
-125.3372189999999904
0
LINE
8
BLACK
6
CONTINUOUS
10
122.5946749999999952
20
-125.3372189999999904
11
122.68991299999999
21
-125.5276949999999943
0
LINE
8
BLACK
6
CONTINUOUS
10
122.68991299999999
20
-125.5276949999999943
11
122.68991299999999
21
-126.0038849999999968
0
LINE
8
BLACK
6
CONTINUOUS
10
122.68991299999999
20
-126.0038849999999968
11
122.5946749999999952
21
-126.1943610000000007
0
LINE
8
BLACK
6
CONTINUOUS
10
122.5946749999999952
20
-126.1943610000000007
11
122.4994370000000004
21
-126.289599999999993
0
LINE
8
BLACK
6
CONTINUOUS
10
122.4994370000000004
20
-126.289599999999993
11
122.3089609999999965
21
-126.3848379999999878
0
LINE
8
BLACK
6
CONTINUOUS
10
122.3089609999999965
20
-126.3848379999999878
11
121.8327699999999965
21
-126.3848379999999878
0
LINE
8
BLACK
6
CONTINUOUS
10
121.8327699999999965
20
-126.3848379999999878
11
121.6422939999999926
21
-126.289599999999993
0
LINE
8
BLACK
6
CONTINUOUS
10
121.6422939999999926
20
-126.289599999999993
11
121.5470559999999978
21
-126.1943610000000007
0
LINE
8
BLACK
6
CONTINUOUS
10
123.6422939999999926
20
-126.3848379999999878
11
124.0232460000000003
21
-126.3848379999999878
0
LINE
8
BLACK
6
CONTINUOUS
10
124.0232460000000003
20
-126.3848379999999878
11
124.2137229999999875
21
-126.289599999999993
0
LINE
8
BLACK
6
CONTINUOUS
10
124.2137229999999875
20
-126.289599999999993
11
124.3089609999999965
21
-126.1943610000000007
0
LINE
8
BLACK
6
CONTINUOUS
10
124.3089609999999965
20
-126.1943610000000007
11
124.4994370000000004
21
-125.9086469999999878
0
LINE
8
BLACK
6
CONTINUOUS
10
124.4994370000000004
20
-125.9086469999999878
11
124.5946749999999952
21
-125.5276949999999943
0
LINE
8
BLACK
6
CONTINUOUS
10
124.5946749999999952
20
-125.5276949999999943
11
124.5946749999999952
21
-124.7657899999999955
0
LINE
8
BLACK
6
CONTINUOUS
10
124.5946749999999952
20
-124.7657899999999955
11
124.4994370000000004
21
-124.5753139999999917
0
LINE
8
BLACK
6
CONTINUOUS
10
124.4994370000000004
20
-124.5753139999999917
11
124.4041989999999913
21
-124.4800759999999968
0
LINE
8
BLACK
6
CONTINUOUS
10
124.4041989999999913
20
-124.4800759999999968
11
124.2137229999999875
21
-124.3848379999999878
0
LINE
8
BLACK
6
CONTINUOUS
10
124.2137229999999875
20
-124.3848379999999878
11
123.8327699999999965
21
-124.3848379999999878
0
LINE
8
BLACK
6
CONTINUOUS
10
123.8327699999999965
20
-124.3848379999999878
11
123.6422939999999926
21
-124.4800759999999968
0
LINE
8
BLACK
6
CONTINUOUS
10
123.6422939999999926
20
-124.4800759999999968
11
123.5470559999999978
21
-124.5753139999999917
0
LINE
8
BLACK
6
CONTINUOUS
10
123.5470559999999978
20
-124.5753139999999917
11
123.4518179999999887
21
-124.7657899999999955
0
LINE
8
BLACK
6
CONTINUOUS
10
123.4518179999999887
20
-124.7657899999999955
11
123.4518179999999887
21
-125.2419799999999981
0
LINE
8
BLACK
6
CONTINUOUS
10
123.4518179999999887
20
-125.2419799999999981
11
123.5470559999999978
21
-125.4324569999999994
0
LINE
8
BLACK
6
CONTINUOUS
10
123.5470559999999978
20
-125.4324569999999994
11
123.6422939999999926
21
-125.5276949999999943
0
LINE
8
BLACK
6
CONTINUOUS
10
123.6422939999999926
20
-125.5276949999999943
11
123.8327699999999965
21
-125.6229329999999891
0
LINE
8
BLACK
6
CONTINUOUS
10
123.8327699999999965
20
-125.6229329999999891
11
124.2137229999999875
21
-125.6229329999999891
0
LINE
8
BLACK
6
CONTINUOUS
10
124.2137229999999875
20
-125.6229329999999891
11
124.4041989999999913
21
-125.5276949999999943
0
LINE
8
BLACK
6
CONTINUOUS
10
124.4041989999999913
20
-125.5276949999999943
11
124.4994370000000004
21
-125.4324569999999994
0
LINE
8
BLACK
6
CONTINUOUS
10
124.4994370000000004
20
-125.4324569999999994
11
124.5946749999999952
21
-125.2419799999999981
0
LINE
8
BLACK
6
CONTINUOUS
10
126.4994370000000004
20
-126.3848379999999878
11
125.3565799999999939
21
-126.3848379999999878
0
LINE
8
BLACK
6
CONTINUOUS
10
125.9280079999999913
20
-126.3848379999999878
11
125.9280079999999913
21
-124.3848379999999878
0
LINE
8
BLACK
6
CONTINUOUS
10
125.9280079999999913
20
-124.3848379999999878
11
125.7375319999999874
21
-124.6705520000000007
0
LINE
8
BLACK
6
CONTINUOUS
10
125.7375319999999874
20
-124.6705520000000007
11
125.5470559999999978
21
-124.8610279999999904
0
LINE
8
BLACK
6
CONTINUOUS
10
125.5470559999999978
20
-124.8610279999999904
11
125.3565799999999939
21
-124.9562659999999994
0
LINE
8
BLACK
6
CONTINUOUS
10
127.2613419999999991
20
-124.3848379999999878
11
127.2613419999999991
21
-124.7657899999999955
0
LINE
8
BLACK
6
CONTINUOUS
10
128.0232469999999978
20
-124.3848379999999878
11
128.0232469999999978
21
-124.7657899999999955
0
LINE
8
BLACK
6
CONTINUOUS
10
130.9756289999999979
20
-127.146741999999989
11
130.8803900000000056
21
-127.0515039999999942
0
LINE
8
BLACK
6
CONTINUOUS
10
130.8803900000000056
20
-127.0515039999999942
11
130.6899139999999875
21
-126.7657899999999955
0
LINE
8
BLACK
6
CONTINUOUS
10
130.6899139999999875
20
-126.7657899999999955
11
130.5946759999999927
21
-126.5753139999999917
0
LINE
8
BLACK
6
CONTINUOUS
10
130.5946759999999927
20
-126.5753139999999917
11
130.4994379999999978
21
-126.289599999999993
0
LINE
8
BLACK
6
CONTINUOUS
10
130.4994379999999978
20
-126.289599999999993
11
130.404200000000003
21
-125.8134089999999929
0
LINE
8
BLACK
6
CONTINUOUS
10
130.404200000000003
20
-125.8134089999999929
11
130.404200000000003
21
-125.4324569999999994
0
LINE
8
BLACK
6
CONTINUOUS
10
130.404200000000003
20
-125.4324569999999994
11
130.4994379999999978
21
-124.9562659999999994
0
LINE
8
BLACK
6
CONTINUOUS
10
130.4994379999999978
20
-124.9562659999999994
11
130.5946759999999927
21
-124.6705520000000007
0
LINE
8
BLACK
6
CONTINUOUS
10
130.5946759999999927
20
-124.6705520000000007
11
130.6899139999999875
21
-124.4800759999999968
0
LINE
8
BLACK
6
CONTINUOUS
10
130.6899139999999875
20
-124.4800759999999968
11
130.8803900000000056
21
-124.1943610000000007
0
LINE
8
BLACK
6
CONTINUOUS
10
130.8803900000000056
20
-124.1943610000000007
11
130.9756289999999979
21
-124.0991229999999916
0
LINE
8
BLACK
6
CONTINUOUS
10
132.5946759999999927
20
-125.0515039999999942
11
132.5946759999999927
21
-126.3848379999999878
0
LINE
8
BLACK
6
CONTINUOUS
10
132.1184849999999926
20
-124.289599999999993
11
131.6422949999999901
21
-125.7181709999999981
0
LINE
8
BLACK
6
CONTINUOUS
10
131.6422949999999901
20
-125.7181709999999981
11
132.8803900000000056
21
-125.7181709999999981
0
LINE
8
BLACK
6
CONTINUOUS
10
135.1661049999999875
20
-126.3848379999999878
11
135.1661049999999875
21
-124.3848379999999878
0
LINE
8
BLACK
6
CONTINUOUS
10
136.0232479999999953
20
-126.3848379999999878
11
136.0232479999999953
21
-125.3372189999999904
0
LINE
8
BLACK
6
CONTINUOUS
10
136.0232479999999953
20
-125.3372189999999904
11
135.9280100000000004
21
-125.146741999999989
0
LINE
8
BLACK
6
CONTINUOUS
10
135.9280100000000004
20
-125.146741999999989
11
135.7375339999999824
21
-125.0515039999999942
0
LINE
8
BLACK
6
CONTINUOUS
10
135.7375339999999824
20
-125.0515039999999942
11
135.4518190000000004
21
-125.0515039999999942
0
LINE
8
BLACK
6
CONTINUOUS
10
135.4518190000000004
20
-125.0515039999999942
11
135.2613429999999823
21
-125.146741999999989
0
LINE
8
BLACK
6
CONTINUOUS
10
135.2613429999999823
20
-125.146741999999989
11
135.1661049999999875
21
-125.2419799999999981
0
LINE
8
BLACK
6
CONTINUOUS
10
137.2613429999999823
20
-126.3848379999999878
11
137.0708669999999927
21
-126.289599999999993
0
LINE
8
BLACK
6
CONTINUOUS
10
137.0708669999999927
20
-126.289599999999993
11
136.9756289999999979
21
-126.1943610000000007
0
LINE
8
BLACK
6
CONTINUOUS
10
136.9756289999999979
20
-126.1943610000000007
11
136.880391000000003
21
-126.0038849999999968
0
LINE
8
BLACK
6
CONTINUOUS
10
136.880391000000003
20
-126.0038849999999968
11
136.880391000000003
21
-125.4324569999999994
0
LINE
8
BLACK
6
CONTINUOUS
10
136.880391000000003
20
-125.4324569999999994
11
136.9756289999999979
21
-125.2419799999999981
0
LINE
8
BLACK
6
CONTINUOUS
10
136.9756289999999979
20
-125.2419799999999981
11
137.0708669999999927
21
-125.146741999999989
0
LINE
8
BLACK
6
CONTINUOUS
10
137.0708669999999927
20
-125.146741999999989
11
137.2613429999999823
21
-125.0515039999999942
0
LINE
8
BLACK
6
CONTINUOUS
10
137.2613429999999823
20
-125.0515039999999942
11
137.5470579999999927
21
-125.0515039999999942
0
LINE
8
BLACK
6
CONTINUOUS
10
137.5470579999999927
20
-125.0515039999999942
11
137.7375339999999824
21
-125.146741999999989
0
LINE
8
BLACK
6
CONTINUOUS
10
137.7375339999999824
20
-125.146741999999989
11
137.8327720000000056
21
-125.2419799999999981
0
LINE
8
BLACK
6
CONTINUOUS
10
137.8327720000000056
20
-125.2419799999999981
11
137.9280100000000004
21
-125.4324569999999994
0
LINE
8
BLACK
6
CONTINUOUS
10
137.9280100000000004
20
-125.4324569999999994
11
137.9280100000000004
21
-126.0038849999999968
0
LINE
8
BLACK
6
CONTINUOUS
10
137.9280100000000004
20
-126.0038849999999968
11
137.8327720000000056
21
-126.1943610000000007
0
LINE
8
BLACK
6
CONTINUOUS
10
137.8327720000000056
20
-126.1943610000000007
11
137.7375339999999824
21
-126.289599999999993
0
LINE
8
BLACK
6
CONTINUOUS
10
137.7375339999999824
20
-126.289599999999993
11
137.5470579999999927
21
-126.3848379999999878
0
LINE
8
BLACK
6
CONTINUOUS
10
137.5470579999999927
20
-126.3848379999999878
11
137.2613429999999823
21
-126.3848379999999878
0
LINE
8
BLACK
6
CONTINUOUS
10
139.0708669999999927
20
-126.3848379999999878
11
138.880391000000003
21
-126.289599999999993
0
LINE
8
BLACK
6
CONTINUOUS
10
138.880391000000003
20
-126.289599999999993
11
138.7851529999999798
21
-126.0991229999999916
0
LINE
8
BLACK
6
CONTINUOUS
10
138.7851529999999798
20
-126.0991229999999916
11
138.7851529999999798
21
-124.3848379999999878
0
LINE
8
BLACK
6
CONTINUOUS
10
140.5946769999999901
20
-126.289599999999993
11
140.4042010000000005
21
-126.3848379999999878
0
LINE
8
BLACK
6
CONTINUOUS
10
140.4042010000000005
20
-126.3848379999999878
11
140.0232479999999953
21
-126.3848379999999878
0
LINE
8
BLACK
6
CONTINUOUS
10
140.0232479999999953
20
-126.3848379999999878
11
139.8327720000000056
21
-126.289599999999993
0
LINE
8
BLACK
6
CONTINUOUS
10
139.8327720000000056
20
-126.289599999999993
11
139.7375339999999824
21
-126.0991229999999916
0
LINE
8
BLACK
6
CONTINUOUS
10
139.7375339999999824
20
-126.0991229999999916
11
139.7375339999999824
21
-125.3372189999999904
0
LINE
8
BLACK
6
CONTINUOUS
10
139.7375339999999824
20
-125.3372189999999904
11
139.8327720000000056
21
-125.146741999999989
0
LINE
8
BLACK
6
CONTINUOUS
10
139.8327720000000056
20
-125.146741999999989
11
140.0232479999999953
21
-125.0515039999999942
0
LINE
8
BLACK
6
CONTINUOUS
10
140.0232479999999953
20
-125.0515039999999942
11
140.4042010000000005
21
-125.0515039999999942
0
LINE
8
BLACK
6
CONTINUOUS
10
140.4042010000000005
20
-125.0515039999999942
11
140.5946769999999901
21
-125.146741999999989
0
LINE
8
BLACK
6
CONTINUOUS
10
140.5946769999999901
20
-125.146741999999989
11
140.689914999999985
21
-125.3372189999999904
0
LINE
8
BLACK
6
CONTINUOUS
10
140.689914999999985
20
-125.3372189999999904
11
140.689914999999985
21
-125.5276949999999943
0
LINE
8
BLACK
6
CONTINUOUS
10
140.689914999999985
20
-125.5276949999999943
11
139.7375339999999824
21
-125.7181709999999981
0
LINE
8
BLACK
6
CONTINUOUS
10
141.4518199999999979
20
-126.289599999999993
11
141.6422959999999875
21
-126.3848379999999878
0
LINE
8
BLACK
6
CONTINUOUS
10
141.6422959999999875
20
-126.3848379999999878
11
142.0232479999999953
21
-126.3848379999999878
0
LINE
8
BLACK
6
CONTINUOUS
10
142.0232479999999953
20
-126.3848379999999878
11
142.2137249999999824
21
-126.289599999999993
0
LINE
8
BLACK
6
CONTINUOUS
10
142.2137249999999824
20
-126.289599999999993
11
142.3089630000000056
21
-126.0991229999999916
0
LINE
8
BLACK
6
CONTINUOUS
10
142.3089630000000056
20
-126.0991229999999916
11
142.3089630000000056
21
-126.0038849999999968
0
LINE
8
BLACK
6
CONTINUOUS
10
142.3089630000000056
20
-126.0038849999999968
11
142.2137249999999824
21
-125.8134089999999929
0
LINE
8
BLACK
6
CONTINUOUS
10
142.2137249999999824
20
-125.8134089999999929
11
142.0232479999999953
21
-125.7181709999999981
0
LINE
8
BLACK
6
CONTINUOUS
10
142.0232479999999953
20
-125.7181709999999981
11
141.7375339999999824
21
-125.7181709999999981
0
LINE
8
BLACK
6
CONTINUOUS
10
141.7375339999999824
20
-125.7181709999999981
11
141.5470579999999927
21
-125.6229329999999891
0
LINE
8
BLACK
6
CONTINUOUS
10
141.5470579999999927
20
-125.6229329999999891
11
141.4518199999999979
21
-125.4324569999999994
0
LINE
8
BLACK
6
CONTINUOUS
10
141.4518199999999979
20
-125.4324569999999994
11
141.4518199999999979
21
-125.3372189999999904
0
LINE
8
BLACK
6
CONTINUOUS
10
141.4518199999999979
20
-125.3372189999999904
11
141.5470579999999927
21
-125.146741999999989
0
LINE
8
BLACK
6
CONTINUOUS
10
141.5470579999999927
20
-125.146741999999989
11
141.7375339999999824
21
-125.0515039999999942
0
LINE
8
BLACK
6
CONTINUOUS
10
141.7375339999999824
20
-125.0515039999999942
11
142.0232479999999953
21
-125.0515039999999942
0
LINE
8
BLACK
6
CONTINUOUS
10
142.0232479999999953
20
-125.0515039999999942
11
142.2137249999999824
21
-125.146741999999989
0
LINE
8
BLACK
6
CONTINUOUS
10
142.9756299999999953
20
-127.146741999999989
11
143.0708679999999902
21
-127.0515039999999942
0
LINE
8
BLACK
6
CONTINUOUS
10
143.0708679999999902
20
-127.0515039999999942
11
143.2613439999999798
21
-126.7657899999999955
0
LINE
8
BLACK
6
CONTINUOUS
10
143.2613439999999798
20
-126.7657899999999955
11
143.3565820000000031
21
-126.5753139999999917
0
LINE
8
BLACK
6
CONTINUOUS
10
143.3565820000000031
20
-126.5753139999999917
11
143.4518199999999979
21
-126.289599999999993
0
LINE
8
BLACK
6
CONTINUOUS
10
143.4518199999999979
20
-126.289599999999993
11
143.5470579999999927
21
-125.8134089999999929
0
LINE
8
BLACK
6
CONTINUOUS
10
143.5470579999999927
20
-125.8134089999999929
11
143.5470579999999927
21
-125.4324569999999994
0
LINE
8
BLACK
6
CONTINUOUS
10
143.5470579999999927
20
-125.4324569999999994
11
143.4518199999999979
21
-124.9562659999999994
0
LINE
8
BLACK
6
CONTINUOUS
10
143.4518199999999979
20
-124.9562659999999994
11
143.3565820000000031
21
-124.6705520000000007
0
LINE
8
BLACK
6
CONTINUOUS
10
143.3565820000000031
20
-124.6705520000000007
11
143.2613439999999798
21
-124.4800759999999968
0
LINE
8
BLACK
6
CONTINUOUS
10
143.2613439999999798
20
-124.4800759999999968
11
143.0708679999999902
21
-124.1943610000000007
0
LINE
8
BLACK
6
CONTINUOUS
10
143.0708679999999902
20
-124.1943610000000007
11
142.9756299999999953
21
-124.0991229999999916
  0
ENDSEC
  0
EOF
