%TF.GenerationSoftware,KiCad,Pcbnew,8.0.4*%
%TF.CreationDate,2026-04-06T10:47:53+07:00*%
%TF.ProjectId,REM-4.0,52454d2d-342e-4302-9e6b-696361645f70,rev?*%
%TF.SameCoordinates,Original*%
%TF.FileFunction,Copper,L1,Top*%
%TF.FilePolarity,Positive*%
%FSLAX46Y46*%
G04 Gerber Fmt 4.6, Leading zero omitted, Abs format (unit mm)*
G04 Created by KiCad (PCBNEW 8.0.4) date 2026-04-06 10:47:53*
%MOMM*%
%LPD*%
G01*
G04 APERTURE LIST*
G04 Aperture macros list*
%AMOutline4P*
0 Free polygon, 4 corners , with rotation*
0 The origin of the aperture is its center*
0 number of corners: always 4*
0 $1 to $8 corner X, Y*
0 $9 Rotation angle, in degrees counterclockwise*
0 create outline with 4 corners*
4,1,4,$1,$2,$3,$4,$5,$6,$7,$8,$1,$2,$9*%
G04 Aperture macros list end*
%TA.AperFunction,ComponentPad*%
%ADD10C,1.905000*%
%TD*%
%TA.AperFunction,ComponentPad*%
%ADD11C,2.400000*%
%TD*%
%TA.AperFunction,ComponentPad*%
%ADD12O,2.400000X2.400000*%
%TD*%
%TA.AperFunction,ComponentPad*%
%ADD13C,3.000000*%
%TD*%
%TA.AperFunction,ComponentPad*%
%ADD14Outline4P,-0.952500X-0.952500X0.952500X-0.952500X0.952500X0.952500X-0.952500X0.952500X270.000000*%
%TD*%
%TA.AperFunction,ComponentPad*%
%ADD15C,2.540000*%
%TD*%
%TA.AperFunction,ComponentPad*%
%ADD16R,1.905000X1.905000*%
%TD*%
%TA.AperFunction,ComponentPad*%
%ADD17O,1.905000X1.905000*%
%TD*%
%TA.AperFunction,ViaPad*%
%ADD18C,1.905000*%
%TD*%
%TA.AperFunction,Profile*%
%ADD19C,0.050000*%
%TD*%
G04 APERTURE END LIST*
D10*
%TO.P,C12,1*%
%TO.N,Net-(J2-Pin_1)*%
X185420000Y-96996250D03*
%TO.P,C12,2*%
%TO.N,Net-(J2-Pin_3)*%
X185420000Y-107156250D03*
%TD*%
%TO.P,TP3,1,1*%
%TO.N,GND*%
X157956250Y-106203750D03*
X160496250Y-106203750D03*
%TD*%
%TO.P,J2,1,Pin_1*%
%TO.N,Net-(J2-Pin_1)*%
X180022500Y-101282500D03*
X180022500Y-103822500D03*
%TO.P,J2,2,Pin_2*%
%TO.N,Net-(J2-Pin_2)*%
X174942500Y-101282500D03*
X174942500Y-103822500D03*
%TO.P,J2,3,Pin_3*%
%TO.N,Net-(J2-Pin_3)*%
X169862500Y-101282500D03*
X169862500Y-103822500D03*
%TD*%
%TO.P,C1,1*%
%TO.N,Net-(D1-K)*%
X108585000Y-87630000D03*
%TO.P,C1,2*%
%TO.N,GND*%
X113665000Y-87630000D03*
%TD*%
D11*
%TO.P,R6,1*%
%TO.N,Net-(L1-Pad4)*%
X177641250Y-73025000D03*
D12*
%TO.P,R6,2*%
%TO.N,Net-(L1-Pad3)*%
X177641250Y-93345000D03*
%TD*%
D10*
%TO.P,J1,1,Pin_1*%
%TO.N,Net-(J1-Pin_1)*%
X106045000Y-101282500D03*
X106045000Y-103822500D03*
%TO.P,J1,2,Pin_2*%
%TO.N,unconnected-(J1-Pin_2-Pad2)*%
X103505000Y-101282500D03*
X103505000Y-103822500D03*
%TO.P,J1,3,Pin_3*%
%TO.N,GND*%
X100965000Y-101282500D03*
X100965000Y-103822500D03*
%TO.P,J1,4,Pin_4*%
%TO.N,+5V*%
X98425000Y-101282500D03*
X98425000Y-103822500D03*
%TD*%
%TO.P,TP7,1,1*%
%TO.N,GND*%
X98425000Y-69532500D03*
X100965000Y-69532500D03*
%TD*%
D13*
%TO.P,L1,1,1*%
%TO.N,Net-(Q1-D)*%
X136434744Y-90895256D03*
%TO.P,L1,2,2*%
%TO.N,+5V*%
X140924872Y-86405128D03*
%TO.P,L1,3,3*%
%TO.N,Net-(L1-Pad3)*%
X149905128Y-77424872D03*
%TO.P,L1,4,4*%
%TO.N,Net-(L1-Pad4)*%
X154395256Y-72934744D03*
%TD*%
D11*
%TO.P,R9,1*%
%TO.N,Net-(J2-Pin_1)*%
X185420000Y-93345000D03*
D12*
%TO.P,R9,2*%
%TO.N,Net-(L1-Pad3)*%
X185420000Y-73025000D03*
%TD*%
D10*
%TO.P,C4,1*%
%TO.N,Net-(D2-K)*%
X138747500Y-97472500D03*
%TO.P,C4,2*%
%TO.N,Net-(Q1-D)*%
X138747500Y-102552500D03*
%TD*%
%TO.P,TP5,1,1*%
%TO.N,Net-(J1-Pin_1)*%
X168116250Y-92868750D03*
X165576250Y-92868750D03*
%TD*%
%TO.P,Q1,1,G*%
%TO.N,Net-(Q1-G)*%
X124460000Y-87630000D03*
%TO.P,Q1,2,D*%
%TO.N,Net-(Q1-D)*%
X127000000Y-87630000D03*
%TO.P,Q1,3,S*%
%TO.N,GND*%
X129540000Y-87630000D03*
%TD*%
%TO.P,R1,1*%
%TO.N,+5V*%
X104140000Y-87630000D03*
%TO.P,R1,2*%
%TO.N,Net-(D1-A)*%
X104140000Y-80010000D03*
%TD*%
%TO.P,R2,1*%
%TO.N,Net-(D1-A)*%
X100965000Y-87630000D03*
%TO.P,R2,2*%
%TO.N,Net-(D1-K)*%
X100965000Y-80010000D03*
%TD*%
%TO.P,C5,1*%
%TO.N,Net-(D3-K)*%
X161131250Y-97472500D03*
%TO.P,C5,2*%
%TO.N,GND*%
X161131250Y-102552500D03*
%TD*%
%TO.P,C11,1*%
%TO.N,Net-(J2-Pin_2)*%
X190817500Y-96996250D03*
%TO.P,C11,2*%
%TO.N,Net-(J2-Pin_3)*%
X190817500Y-107156250D03*
%TD*%
%TO.P,C6,1*%
%TO.N,Net-(J1-Pin_1)*%
X157321250Y-97472500D03*
%TO.P,C6,2*%
%TO.N,GND*%
X157321250Y-102552500D03*
%TD*%
%TO.P,R5,1*%
%TO.N,Net-(D3-K)*%
X152876250Y-103822500D03*
%TO.P,R5,2*%
%TO.N,Net-(J1-Pin_1)*%
X152876250Y-96202500D03*
%TD*%
%TO.P,R3,1*%
%TO.N,Net-(U1-Q)*%
X118110000Y-80010000D03*
%TO.P,R3,2*%
%TO.N,Net-(Q1-G)*%
X118110000Y-87630000D03*
%TD*%
%TO.P,C3,1*%
%TO.N,+5V*%
X121920000Y-92710000D03*
%TO.P,C3,2*%
%TO.N,Net-(Q1-D)*%
X132080000Y-92710000D03*
%TD*%
D14*
%TO.P,C7,1*%
%TO.N,+5V*%
X115570000Y-101163750D03*
D15*
%TO.P,C7,2*%
%TO.N,GND*%
X115570000Y-106163750D03*
%TD*%
D10*
%TO.P,TP2,1,1*%
%TO.N,Net-(Q1-D)*%
X132080000Y-97472500D03*
X129540000Y-97472500D03*
%TD*%
%TO.P,U1,1,GND*%
%TO.N,GND*%
X114935000Y-82550000D03*
%TO.P,U1,2,TR*%
%TO.N,Net-(D1-K)*%
X114935000Y-80010000D03*
%TO.P,U1,3,Q*%
%TO.N,Net-(U1-Q)*%
X114935000Y-77470000D03*
%TO.P,U1,4,R*%
%TO.N,+5V*%
X114935000Y-74930000D03*
%TO.P,U1,5,CV*%
%TO.N,Net-(U1-CV)*%
X107315000Y-74930000D03*
%TO.P,U1,6,THR*%
%TO.N,Net-(D1-K)*%
X107315000Y-77470000D03*
%TO.P,U1,7,DIS*%
%TO.N,Net-(D1-A)*%
X107315000Y-80010000D03*
%TO.P,U1,8,VCC*%
%TO.N,+5V*%
X107315000Y-82550000D03*
%TD*%
%TO.P,C8,1*%
%TO.N,+5V*%
X108585000Y-92710000D03*
%TO.P,C8,2*%
%TO.N,GND*%
X113665000Y-92710000D03*
%TD*%
D11*
%TO.P,R8,1*%
%TO.N,Net-(J2-Pin_2)*%
X190817500Y-93345000D03*
D12*
%TO.P,R8,2*%
%TO.N,Net-(L1-Pad4)*%
X190817500Y-73025000D03*
%TD*%
D10*
%TO.P,D2,1,K*%
%TO.N,Net-(D2-K)*%
X146526250Y-96197500D03*
%TO.P,D2,2,A*%
%TO.N,GND*%
X146526250Y-103817500D03*
%TD*%
%TO.P,D3,1,K*%
%TO.N,Net-(D3-K)*%
X149701250Y-103827500D03*
%TO.P,D3,2,A*%
%TO.N,Net-(D2-K)*%
X149701250Y-96207500D03*
%TD*%
D16*
%TO.P,D1,1,K*%
%TO.N,Net-(D1-K)*%
X97790000Y-80010000D03*
D17*
%TO.P,D1,2,A*%
%TO.N,Net-(D1-A)*%
X97790000Y-87630000D03*
%TD*%
D10*
%TO.P,TP1,1,1*%
%TO.N,+5V*%
X121920000Y-97472500D03*
X124460000Y-97472500D03*
%TD*%
%TO.P,R4,1*%
%TO.N,GND*%
X143192500Y-103822500D03*
%TO.P,R4,2*%
%TO.N,Net-(D2-K)*%
X143192500Y-96202500D03*
%TD*%
%TO.P,C2,1*%
%TO.N,Net-(U1-CV)*%
X103505000Y-74930000D03*
%TO.P,C2,2*%
%TO.N,GND*%
X98425000Y-74930000D03*
%TD*%
%TO.P,RV1,1,1*%
%TO.N,GND*%
X161131250Y-92710000D03*
%TO.P,RV1,2,2*%
X161131250Y-90170000D03*
%TO.P,RV1,3,3*%
%TO.N,Net-(J1-Pin_1)*%
X161131250Y-87630000D03*
%TD*%
D18*
%TO.N,GND*%
X129540000Y-100012500D03*
X124460000Y-100012500D03*
%TD*%
D19*
X193675000Y-111125000D02*
X193675000Y-66675000D01*
X95250000Y-111125000D02*
X95250000Y-66675000D01*
X95250000Y-66675000D02*
X193675000Y-66675000D01*
X193675000Y-111125000D02*
X95250000Y-111125000D01*
M02*
