%TF.GenerationSoftware,KiCad,Pcbnew,8.0.4*%
%TF.CreationDate,2026-04-06T10:47:54+07:00*%
%TF.ProjectId,REM-4.0,52454d2d-342e-4302-9e6b-696361645f70,rev?*%
%TF.SameCoordinates,Original*%
%TF.FileFunction,Legend,Top*%
%TF.FilePolarity,Positive*%
%FSLAX46Y46*%
G04 Gerber Fmt 4.6, Leading zero omitted, Abs format (unit mm)*
G04 Created by KiCad (PCBNEW 8.0.4) date 2026-04-06 10:47:54*
%MOMM*%
%LPD*%
G01*
G04 APERTURE LIST*
%ADD10C,0.150000*%
%ADD11C,0.120000*%
%ADD12C,0.100000*%
%TA.AperFunction,Profile*%
%ADD13C,0.050000*%
%TD*%
G04 APERTURE END LIST*
D10*
X184905714Y-102362354D02*
X184867618Y-102400450D01*
X184867618Y-102400450D02*
X184753333Y-102438545D01*
X184753333Y-102438545D02*
X184677142Y-102438545D01*
X184677142Y-102438545D02*
X184562856Y-102400450D01*
X184562856Y-102400450D02*
X184486666Y-102324259D01*
X184486666Y-102324259D02*
X184448571Y-102248069D01*
X184448571Y-102248069D02*
X184410475Y-102095688D01*
X184410475Y-102095688D02*
X184410475Y-101981402D01*
X184410475Y-101981402D02*
X184448571Y-101829021D01*
X184448571Y-101829021D02*
X184486666Y-101752830D01*
X184486666Y-101752830D02*
X184562856Y-101676640D01*
X184562856Y-101676640D02*
X184677142Y-101638545D01*
X184677142Y-101638545D02*
X184753333Y-101638545D01*
X184753333Y-101638545D02*
X184867618Y-101676640D01*
X184867618Y-101676640D02*
X184905714Y-101714735D01*
X185667618Y-102438545D02*
X185210475Y-102438545D01*
X185439047Y-102438545D02*
X185439047Y-101638545D01*
X185439047Y-101638545D02*
X185362856Y-101752830D01*
X185362856Y-101752830D02*
X185286666Y-101829021D01*
X185286666Y-101829021D02*
X185210475Y-101867116D01*
X185972380Y-101714735D02*
X186010476Y-101676640D01*
X186010476Y-101676640D02*
X186086666Y-101638545D01*
X186086666Y-101638545D02*
X186277142Y-101638545D01*
X186277142Y-101638545D02*
X186353333Y-101676640D01*
X186353333Y-101676640D02*
X186391428Y-101714735D01*
X186391428Y-101714735D02*
X186429523Y-101790926D01*
X186429523Y-101790926D02*
X186429523Y-101867116D01*
X186429523Y-101867116D02*
X186391428Y-101981402D01*
X186391428Y-101981402D02*
X185934285Y-102438545D01*
X185934285Y-102438545D02*
X186429523Y-102438545D01*
X113491667Y-87916104D02*
X113453571Y-87954200D01*
X113453571Y-87954200D02*
X113339286Y-87992295D01*
X113339286Y-87992295D02*
X113263095Y-87992295D01*
X113263095Y-87992295D02*
X113148809Y-87954200D01*
X113148809Y-87954200D02*
X113072619Y-87878009D01*
X113072619Y-87878009D02*
X113034524Y-87801819D01*
X113034524Y-87801819D02*
X112996428Y-87649438D01*
X112996428Y-87649438D02*
X112996428Y-87535152D01*
X112996428Y-87535152D02*
X113034524Y-87382771D01*
X113034524Y-87382771D02*
X113072619Y-87306580D01*
X113072619Y-87306580D02*
X113148809Y-87230390D01*
X113148809Y-87230390D02*
X113263095Y-87192295D01*
X113263095Y-87192295D02*
X113339286Y-87192295D01*
X113339286Y-87192295D02*
X113453571Y-87230390D01*
X113453571Y-87230390D02*
X113491667Y-87268485D01*
X114253571Y-87992295D02*
X113796428Y-87992295D01*
X114025000Y-87992295D02*
X114025000Y-87192295D01*
X114025000Y-87192295D02*
X113948809Y-87306580D01*
X113948809Y-87306580D02*
X113872619Y-87382771D01*
X113872619Y-87382771D02*
X113796428Y-87420866D01*
X177507917Y-83547295D02*
X177241250Y-83166342D01*
X177050774Y-83547295D02*
X177050774Y-82747295D01*
X177050774Y-82747295D02*
X177355536Y-82747295D01*
X177355536Y-82747295D02*
X177431726Y-82785390D01*
X177431726Y-82785390D02*
X177469821Y-82823485D01*
X177469821Y-82823485D02*
X177507917Y-82899676D01*
X177507917Y-82899676D02*
X177507917Y-83013961D01*
X177507917Y-83013961D02*
X177469821Y-83090152D01*
X177469821Y-83090152D02*
X177431726Y-83128247D01*
X177431726Y-83128247D02*
X177355536Y-83166342D01*
X177355536Y-83166342D02*
X177050774Y-83166342D01*
X178193631Y-82747295D02*
X178041250Y-82747295D01*
X178041250Y-82747295D02*
X177965059Y-82785390D01*
X177965059Y-82785390D02*
X177926964Y-82823485D01*
X177926964Y-82823485D02*
X177850774Y-82937771D01*
X177850774Y-82937771D02*
X177812678Y-83090152D01*
X177812678Y-83090152D02*
X177812678Y-83394914D01*
X177812678Y-83394914D02*
X177850774Y-83471104D01*
X177850774Y-83471104D02*
X177888869Y-83509200D01*
X177888869Y-83509200D02*
X177965059Y-83547295D01*
X177965059Y-83547295D02*
X178117440Y-83547295D01*
X178117440Y-83547295D02*
X178193631Y-83509200D01*
X178193631Y-83509200D02*
X178231726Y-83471104D01*
X178231726Y-83471104D02*
X178269821Y-83394914D01*
X178269821Y-83394914D02*
X178269821Y-83204438D01*
X178269821Y-83204438D02*
X178231726Y-83128247D01*
X178231726Y-83128247D02*
X178193631Y-83090152D01*
X178193631Y-83090152D02*
X178117440Y-83052057D01*
X178117440Y-83052057D02*
X177965059Y-83052057D01*
X177965059Y-83052057D02*
X177888869Y-83090152D01*
X177888869Y-83090152D02*
X177850774Y-83128247D01*
X177850774Y-83128247D02*
X177812678Y-83204438D01*
X145281666Y-82277295D02*
X144900714Y-82277295D01*
X144900714Y-82277295D02*
X144900714Y-81477295D01*
X145967380Y-82277295D02*
X145510237Y-82277295D01*
X145738809Y-82277295D02*
X145738809Y-81477295D01*
X145738809Y-81477295D02*
X145662618Y-81591580D01*
X145662618Y-81591580D02*
X145586428Y-81667771D01*
X145586428Y-81667771D02*
X145510237Y-81705866D01*
X185286667Y-83547295D02*
X185020000Y-83166342D01*
X184829524Y-83547295D02*
X184829524Y-82747295D01*
X184829524Y-82747295D02*
X185134286Y-82747295D01*
X185134286Y-82747295D02*
X185210476Y-82785390D01*
X185210476Y-82785390D02*
X185248571Y-82823485D01*
X185248571Y-82823485D02*
X185286667Y-82899676D01*
X185286667Y-82899676D02*
X185286667Y-83013961D01*
X185286667Y-83013961D02*
X185248571Y-83090152D01*
X185248571Y-83090152D02*
X185210476Y-83128247D01*
X185210476Y-83128247D02*
X185134286Y-83166342D01*
X185134286Y-83166342D02*
X184829524Y-83166342D01*
X185667619Y-83547295D02*
X185820000Y-83547295D01*
X185820000Y-83547295D02*
X185896190Y-83509200D01*
X185896190Y-83509200D02*
X185934286Y-83471104D01*
X185934286Y-83471104D02*
X186010476Y-83356819D01*
X186010476Y-83356819D02*
X186048571Y-83204438D01*
X186048571Y-83204438D02*
X186048571Y-82899676D01*
X186048571Y-82899676D02*
X186010476Y-82823485D01*
X186010476Y-82823485D02*
X185972381Y-82785390D01*
X185972381Y-82785390D02*
X185896190Y-82747295D01*
X185896190Y-82747295D02*
X185743809Y-82747295D01*
X185743809Y-82747295D02*
X185667619Y-82785390D01*
X185667619Y-82785390D02*
X185629524Y-82823485D01*
X185629524Y-82823485D02*
X185591428Y-82899676D01*
X185591428Y-82899676D02*
X185591428Y-83090152D01*
X185591428Y-83090152D02*
X185629524Y-83166342D01*
X185629524Y-83166342D02*
X185667619Y-83204438D01*
X185667619Y-83204438D02*
X185743809Y-83242533D01*
X185743809Y-83242533D02*
X185896190Y-83242533D01*
X185896190Y-83242533D02*
X185972381Y-83204438D01*
X185972381Y-83204438D02*
X186010476Y-83166342D01*
X186010476Y-83166342D02*
X186048571Y-83090152D01*
X126904761Y-82782557D02*
X126809523Y-82734938D01*
X126809523Y-82734938D02*
X126714285Y-82639700D01*
X126714285Y-82639700D02*
X126571428Y-82496842D01*
X126571428Y-82496842D02*
X126476190Y-82449223D01*
X126476190Y-82449223D02*
X126380952Y-82449223D01*
X126428571Y-82687319D02*
X126333333Y-82639700D01*
X126333333Y-82639700D02*
X126238095Y-82544461D01*
X126238095Y-82544461D02*
X126190476Y-82353985D01*
X126190476Y-82353985D02*
X126190476Y-82020652D01*
X126190476Y-82020652D02*
X126238095Y-81830176D01*
X126238095Y-81830176D02*
X126333333Y-81734938D01*
X126333333Y-81734938D02*
X126428571Y-81687319D01*
X126428571Y-81687319D02*
X126619047Y-81687319D01*
X126619047Y-81687319D02*
X126714285Y-81734938D01*
X126714285Y-81734938D02*
X126809523Y-81830176D01*
X126809523Y-81830176D02*
X126857142Y-82020652D01*
X126857142Y-82020652D02*
X126857142Y-82353985D01*
X126857142Y-82353985D02*
X126809523Y-82544461D01*
X126809523Y-82544461D02*
X126714285Y-82639700D01*
X126714285Y-82639700D02*
X126619047Y-82687319D01*
X126619047Y-82687319D02*
X126428571Y-82687319D01*
X127809523Y-82687319D02*
X127238095Y-82687319D01*
X127523809Y-82687319D02*
X127523809Y-81687319D01*
X127523809Y-81687319D02*
X127428571Y-81830176D01*
X127428571Y-81830176D02*
X127333333Y-81925414D01*
X127333333Y-81925414D02*
X127238095Y-81973033D01*
X104006667Y-84182295D02*
X103740000Y-83801342D01*
X103549524Y-84182295D02*
X103549524Y-83382295D01*
X103549524Y-83382295D02*
X103854286Y-83382295D01*
X103854286Y-83382295D02*
X103930476Y-83420390D01*
X103930476Y-83420390D02*
X103968571Y-83458485D01*
X103968571Y-83458485D02*
X104006667Y-83534676D01*
X104006667Y-83534676D02*
X104006667Y-83648961D01*
X104006667Y-83648961D02*
X103968571Y-83725152D01*
X103968571Y-83725152D02*
X103930476Y-83763247D01*
X103930476Y-83763247D02*
X103854286Y-83801342D01*
X103854286Y-83801342D02*
X103549524Y-83801342D01*
X104768571Y-84182295D02*
X104311428Y-84182295D01*
X104540000Y-84182295D02*
X104540000Y-83382295D01*
X104540000Y-83382295D02*
X104463809Y-83496580D01*
X104463809Y-83496580D02*
X104387619Y-83572771D01*
X104387619Y-83572771D02*
X104311428Y-83610866D01*
X100831667Y-84182295D02*
X100565000Y-83801342D01*
X100374524Y-84182295D02*
X100374524Y-83382295D01*
X100374524Y-83382295D02*
X100679286Y-83382295D01*
X100679286Y-83382295D02*
X100755476Y-83420390D01*
X100755476Y-83420390D02*
X100793571Y-83458485D01*
X100793571Y-83458485D02*
X100831667Y-83534676D01*
X100831667Y-83534676D02*
X100831667Y-83648961D01*
X100831667Y-83648961D02*
X100793571Y-83725152D01*
X100793571Y-83725152D02*
X100755476Y-83763247D01*
X100755476Y-83763247D02*
X100679286Y-83801342D01*
X100679286Y-83801342D02*
X100374524Y-83801342D01*
X101136428Y-83458485D02*
X101174524Y-83420390D01*
X101174524Y-83420390D02*
X101250714Y-83382295D01*
X101250714Y-83382295D02*
X101441190Y-83382295D01*
X101441190Y-83382295D02*
X101517381Y-83420390D01*
X101517381Y-83420390D02*
X101555476Y-83458485D01*
X101555476Y-83458485D02*
X101593571Y-83534676D01*
X101593571Y-83534676D02*
X101593571Y-83610866D01*
X101593571Y-83610866D02*
X101555476Y-83725152D01*
X101555476Y-83725152D02*
X101098333Y-84182295D01*
X101098333Y-84182295D02*
X101593571Y-84182295D01*
X160997917Y-102798604D02*
X160959821Y-102836700D01*
X160959821Y-102836700D02*
X160845536Y-102874795D01*
X160845536Y-102874795D02*
X160769345Y-102874795D01*
X160769345Y-102874795D02*
X160655059Y-102836700D01*
X160655059Y-102836700D02*
X160578869Y-102760509D01*
X160578869Y-102760509D02*
X160540774Y-102684319D01*
X160540774Y-102684319D02*
X160502678Y-102531938D01*
X160502678Y-102531938D02*
X160502678Y-102417652D01*
X160502678Y-102417652D02*
X160540774Y-102265271D01*
X160540774Y-102265271D02*
X160578869Y-102189080D01*
X160578869Y-102189080D02*
X160655059Y-102112890D01*
X160655059Y-102112890D02*
X160769345Y-102074795D01*
X160769345Y-102074795D02*
X160845536Y-102074795D01*
X160845536Y-102074795D02*
X160959821Y-102112890D01*
X160959821Y-102112890D02*
X160997917Y-102150985D01*
X161721726Y-102074795D02*
X161340774Y-102074795D01*
X161340774Y-102074795D02*
X161302678Y-102455747D01*
X161302678Y-102455747D02*
X161340774Y-102417652D01*
X161340774Y-102417652D02*
X161416964Y-102379557D01*
X161416964Y-102379557D02*
X161607440Y-102379557D01*
X161607440Y-102379557D02*
X161683631Y-102417652D01*
X161683631Y-102417652D02*
X161721726Y-102455747D01*
X161721726Y-102455747D02*
X161759821Y-102531938D01*
X161759821Y-102531938D02*
X161759821Y-102722414D01*
X161759821Y-102722414D02*
X161721726Y-102798604D01*
X161721726Y-102798604D02*
X161683631Y-102836700D01*
X161683631Y-102836700D02*
X161607440Y-102874795D01*
X161607440Y-102874795D02*
X161416964Y-102874795D01*
X161416964Y-102874795D02*
X161340774Y-102836700D01*
X161340774Y-102836700D02*
X161302678Y-102798604D01*
X190303214Y-102362354D02*
X190265118Y-102400450D01*
X190265118Y-102400450D02*
X190150833Y-102438545D01*
X190150833Y-102438545D02*
X190074642Y-102438545D01*
X190074642Y-102438545D02*
X189960356Y-102400450D01*
X189960356Y-102400450D02*
X189884166Y-102324259D01*
X189884166Y-102324259D02*
X189846071Y-102248069D01*
X189846071Y-102248069D02*
X189807975Y-102095688D01*
X189807975Y-102095688D02*
X189807975Y-101981402D01*
X189807975Y-101981402D02*
X189846071Y-101829021D01*
X189846071Y-101829021D02*
X189884166Y-101752830D01*
X189884166Y-101752830D02*
X189960356Y-101676640D01*
X189960356Y-101676640D02*
X190074642Y-101638545D01*
X190074642Y-101638545D02*
X190150833Y-101638545D01*
X190150833Y-101638545D02*
X190265118Y-101676640D01*
X190265118Y-101676640D02*
X190303214Y-101714735D01*
X191065118Y-102438545D02*
X190607975Y-102438545D01*
X190836547Y-102438545D02*
X190836547Y-101638545D01*
X190836547Y-101638545D02*
X190760356Y-101752830D01*
X190760356Y-101752830D02*
X190684166Y-101829021D01*
X190684166Y-101829021D02*
X190607975Y-101867116D01*
X191827023Y-102438545D02*
X191369880Y-102438545D01*
X191598452Y-102438545D02*
X191598452Y-101638545D01*
X191598452Y-101638545D02*
X191522261Y-101752830D01*
X191522261Y-101752830D02*
X191446071Y-101829021D01*
X191446071Y-101829021D02*
X191369880Y-101867116D01*
X157187917Y-102798604D02*
X157149821Y-102836700D01*
X157149821Y-102836700D02*
X157035536Y-102874795D01*
X157035536Y-102874795D02*
X156959345Y-102874795D01*
X156959345Y-102874795D02*
X156845059Y-102836700D01*
X156845059Y-102836700D02*
X156768869Y-102760509D01*
X156768869Y-102760509D02*
X156730774Y-102684319D01*
X156730774Y-102684319D02*
X156692678Y-102531938D01*
X156692678Y-102531938D02*
X156692678Y-102417652D01*
X156692678Y-102417652D02*
X156730774Y-102265271D01*
X156730774Y-102265271D02*
X156768869Y-102189080D01*
X156768869Y-102189080D02*
X156845059Y-102112890D01*
X156845059Y-102112890D02*
X156959345Y-102074795D01*
X156959345Y-102074795D02*
X157035536Y-102074795D01*
X157035536Y-102074795D02*
X157149821Y-102112890D01*
X157149821Y-102112890D02*
X157187917Y-102150985D01*
X157873631Y-102074795D02*
X157721250Y-102074795D01*
X157721250Y-102074795D02*
X157645059Y-102112890D01*
X157645059Y-102112890D02*
X157606964Y-102150985D01*
X157606964Y-102150985D02*
X157530774Y-102265271D01*
X157530774Y-102265271D02*
X157492678Y-102417652D01*
X157492678Y-102417652D02*
X157492678Y-102722414D01*
X157492678Y-102722414D02*
X157530774Y-102798604D01*
X157530774Y-102798604D02*
X157568869Y-102836700D01*
X157568869Y-102836700D02*
X157645059Y-102874795D01*
X157645059Y-102874795D02*
X157797440Y-102874795D01*
X157797440Y-102874795D02*
X157873631Y-102836700D01*
X157873631Y-102836700D02*
X157911726Y-102798604D01*
X157911726Y-102798604D02*
X157949821Y-102722414D01*
X157949821Y-102722414D02*
X157949821Y-102531938D01*
X157949821Y-102531938D02*
X157911726Y-102455747D01*
X157911726Y-102455747D02*
X157873631Y-102417652D01*
X157873631Y-102417652D02*
X157797440Y-102379557D01*
X157797440Y-102379557D02*
X157645059Y-102379557D01*
X157645059Y-102379557D02*
X157568869Y-102417652D01*
X157568869Y-102417652D02*
X157530774Y-102455747D01*
X157530774Y-102455747D02*
X157492678Y-102531938D01*
X152742917Y-100374795D02*
X152476250Y-99993842D01*
X152285774Y-100374795D02*
X152285774Y-99574795D01*
X152285774Y-99574795D02*
X152590536Y-99574795D01*
X152590536Y-99574795D02*
X152666726Y-99612890D01*
X152666726Y-99612890D02*
X152704821Y-99650985D01*
X152704821Y-99650985D02*
X152742917Y-99727176D01*
X152742917Y-99727176D02*
X152742917Y-99841461D01*
X152742917Y-99841461D02*
X152704821Y-99917652D01*
X152704821Y-99917652D02*
X152666726Y-99955747D01*
X152666726Y-99955747D02*
X152590536Y-99993842D01*
X152590536Y-99993842D02*
X152285774Y-99993842D01*
X153466726Y-99574795D02*
X153085774Y-99574795D01*
X153085774Y-99574795D02*
X153047678Y-99955747D01*
X153047678Y-99955747D02*
X153085774Y-99917652D01*
X153085774Y-99917652D02*
X153161964Y-99879557D01*
X153161964Y-99879557D02*
X153352440Y-99879557D01*
X153352440Y-99879557D02*
X153428631Y-99917652D01*
X153428631Y-99917652D02*
X153466726Y-99955747D01*
X153466726Y-99955747D02*
X153504821Y-100031938D01*
X153504821Y-100031938D02*
X153504821Y-100222414D01*
X153504821Y-100222414D02*
X153466726Y-100298604D01*
X153466726Y-100298604D02*
X153428631Y-100336700D01*
X153428631Y-100336700D02*
X153352440Y-100374795D01*
X153352440Y-100374795D02*
X153161964Y-100374795D01*
X153161964Y-100374795D02*
X153085774Y-100336700D01*
X153085774Y-100336700D02*
X153047678Y-100298604D01*
X117976667Y-84182295D02*
X117710000Y-83801342D01*
X117519524Y-84182295D02*
X117519524Y-83382295D01*
X117519524Y-83382295D02*
X117824286Y-83382295D01*
X117824286Y-83382295D02*
X117900476Y-83420390D01*
X117900476Y-83420390D02*
X117938571Y-83458485D01*
X117938571Y-83458485D02*
X117976667Y-83534676D01*
X117976667Y-83534676D02*
X117976667Y-83648961D01*
X117976667Y-83648961D02*
X117938571Y-83725152D01*
X117938571Y-83725152D02*
X117900476Y-83763247D01*
X117900476Y-83763247D02*
X117824286Y-83801342D01*
X117824286Y-83801342D02*
X117519524Y-83801342D01*
X118243333Y-83382295D02*
X118738571Y-83382295D01*
X118738571Y-83382295D02*
X118471905Y-83687057D01*
X118471905Y-83687057D02*
X118586190Y-83687057D01*
X118586190Y-83687057D02*
X118662381Y-83725152D01*
X118662381Y-83725152D02*
X118700476Y-83763247D01*
X118700476Y-83763247D02*
X118738571Y-83839438D01*
X118738571Y-83839438D02*
X118738571Y-84029914D01*
X118738571Y-84029914D02*
X118700476Y-84106104D01*
X118700476Y-84106104D02*
X118662381Y-84144200D01*
X118662381Y-84144200D02*
X118586190Y-84182295D01*
X118586190Y-84182295D02*
X118357619Y-84182295D01*
X118357619Y-84182295D02*
X118281428Y-84144200D01*
X118281428Y-84144200D02*
X118243333Y-84106104D01*
X126866667Y-92996104D02*
X126828571Y-93034200D01*
X126828571Y-93034200D02*
X126714286Y-93072295D01*
X126714286Y-93072295D02*
X126638095Y-93072295D01*
X126638095Y-93072295D02*
X126523809Y-93034200D01*
X126523809Y-93034200D02*
X126447619Y-92958009D01*
X126447619Y-92958009D02*
X126409524Y-92881819D01*
X126409524Y-92881819D02*
X126371428Y-92729438D01*
X126371428Y-92729438D02*
X126371428Y-92615152D01*
X126371428Y-92615152D02*
X126409524Y-92462771D01*
X126409524Y-92462771D02*
X126447619Y-92386580D01*
X126447619Y-92386580D02*
X126523809Y-92310390D01*
X126523809Y-92310390D02*
X126638095Y-92272295D01*
X126638095Y-92272295D02*
X126714286Y-92272295D01*
X126714286Y-92272295D02*
X126828571Y-92310390D01*
X126828571Y-92310390D02*
X126866667Y-92348485D01*
X127133333Y-92272295D02*
X127628571Y-92272295D01*
X127628571Y-92272295D02*
X127361905Y-92577057D01*
X127361905Y-92577057D02*
X127476190Y-92577057D01*
X127476190Y-92577057D02*
X127552381Y-92615152D01*
X127552381Y-92615152D02*
X127590476Y-92653247D01*
X127590476Y-92653247D02*
X127628571Y-92729438D01*
X127628571Y-92729438D02*
X127628571Y-92919914D01*
X127628571Y-92919914D02*
X127590476Y-92996104D01*
X127590476Y-92996104D02*
X127552381Y-93034200D01*
X127552381Y-93034200D02*
X127476190Y-93072295D01*
X127476190Y-93072295D02*
X127247619Y-93072295D01*
X127247619Y-93072295D02*
X127171428Y-93034200D01*
X127171428Y-93034200D02*
X127133333Y-92996104D01*
X118578333Y-101668507D02*
X118530714Y-101716127D01*
X118530714Y-101716127D02*
X118387857Y-101763746D01*
X118387857Y-101763746D02*
X118292619Y-101763746D01*
X118292619Y-101763746D02*
X118149762Y-101716127D01*
X118149762Y-101716127D02*
X118054524Y-101620888D01*
X118054524Y-101620888D02*
X118006905Y-101525650D01*
X118006905Y-101525650D02*
X117959286Y-101335174D01*
X117959286Y-101335174D02*
X117959286Y-101192317D01*
X117959286Y-101192317D02*
X118006905Y-101001841D01*
X118006905Y-101001841D02*
X118054524Y-100906603D01*
X118054524Y-100906603D02*
X118149762Y-100811365D01*
X118149762Y-100811365D02*
X118292619Y-100763746D01*
X118292619Y-100763746D02*
X118387857Y-100763746D01*
X118387857Y-100763746D02*
X118530714Y-100811365D01*
X118530714Y-100811365D02*
X118578333Y-100858984D01*
X118911667Y-100763746D02*
X119578333Y-100763746D01*
X119578333Y-100763746D02*
X119149762Y-101763746D01*
X110515476Y-78302295D02*
X110515476Y-78949914D01*
X110515476Y-78949914D02*
X110553571Y-79026104D01*
X110553571Y-79026104D02*
X110591666Y-79064200D01*
X110591666Y-79064200D02*
X110667857Y-79102295D01*
X110667857Y-79102295D02*
X110820238Y-79102295D01*
X110820238Y-79102295D02*
X110896428Y-79064200D01*
X110896428Y-79064200D02*
X110934523Y-79026104D01*
X110934523Y-79026104D02*
X110972619Y-78949914D01*
X110972619Y-78949914D02*
X110972619Y-78302295D01*
X111772618Y-79102295D02*
X111315475Y-79102295D01*
X111544047Y-79102295D02*
X111544047Y-78302295D01*
X111544047Y-78302295D02*
X111467856Y-78416580D01*
X111467856Y-78416580D02*
X111391666Y-78492771D01*
X111391666Y-78492771D02*
X111315475Y-78530866D01*
X113491667Y-92996104D02*
X113453571Y-93034200D01*
X113453571Y-93034200D02*
X113339286Y-93072295D01*
X113339286Y-93072295D02*
X113263095Y-93072295D01*
X113263095Y-93072295D02*
X113148809Y-93034200D01*
X113148809Y-93034200D02*
X113072619Y-92958009D01*
X113072619Y-92958009D02*
X113034524Y-92881819D01*
X113034524Y-92881819D02*
X112996428Y-92729438D01*
X112996428Y-92729438D02*
X112996428Y-92615152D01*
X112996428Y-92615152D02*
X113034524Y-92462771D01*
X113034524Y-92462771D02*
X113072619Y-92386580D01*
X113072619Y-92386580D02*
X113148809Y-92310390D01*
X113148809Y-92310390D02*
X113263095Y-92272295D01*
X113263095Y-92272295D02*
X113339286Y-92272295D01*
X113339286Y-92272295D02*
X113453571Y-92310390D01*
X113453571Y-92310390D02*
X113491667Y-92348485D01*
X113948809Y-92615152D02*
X113872619Y-92577057D01*
X113872619Y-92577057D02*
X113834524Y-92538961D01*
X113834524Y-92538961D02*
X113796428Y-92462771D01*
X113796428Y-92462771D02*
X113796428Y-92424676D01*
X113796428Y-92424676D02*
X113834524Y-92348485D01*
X113834524Y-92348485D02*
X113872619Y-92310390D01*
X113872619Y-92310390D02*
X113948809Y-92272295D01*
X113948809Y-92272295D02*
X114101190Y-92272295D01*
X114101190Y-92272295D02*
X114177381Y-92310390D01*
X114177381Y-92310390D02*
X114215476Y-92348485D01*
X114215476Y-92348485D02*
X114253571Y-92424676D01*
X114253571Y-92424676D02*
X114253571Y-92462771D01*
X114253571Y-92462771D02*
X114215476Y-92538961D01*
X114215476Y-92538961D02*
X114177381Y-92577057D01*
X114177381Y-92577057D02*
X114101190Y-92615152D01*
X114101190Y-92615152D02*
X113948809Y-92615152D01*
X113948809Y-92615152D02*
X113872619Y-92653247D01*
X113872619Y-92653247D02*
X113834524Y-92691342D01*
X113834524Y-92691342D02*
X113796428Y-92767533D01*
X113796428Y-92767533D02*
X113796428Y-92919914D01*
X113796428Y-92919914D02*
X113834524Y-92996104D01*
X113834524Y-92996104D02*
X113872619Y-93034200D01*
X113872619Y-93034200D02*
X113948809Y-93072295D01*
X113948809Y-93072295D02*
X114101190Y-93072295D01*
X114101190Y-93072295D02*
X114177381Y-93034200D01*
X114177381Y-93034200D02*
X114215476Y-92996104D01*
X114215476Y-92996104D02*
X114253571Y-92919914D01*
X114253571Y-92919914D02*
X114253571Y-92767533D01*
X114253571Y-92767533D02*
X114215476Y-92691342D01*
X114215476Y-92691342D02*
X114177381Y-92653247D01*
X114177381Y-92653247D02*
X114101190Y-92615152D01*
X190684167Y-83547295D02*
X190417500Y-83166342D01*
X190227024Y-83547295D02*
X190227024Y-82747295D01*
X190227024Y-82747295D02*
X190531786Y-82747295D01*
X190531786Y-82747295D02*
X190607976Y-82785390D01*
X190607976Y-82785390D02*
X190646071Y-82823485D01*
X190646071Y-82823485D02*
X190684167Y-82899676D01*
X190684167Y-82899676D02*
X190684167Y-83013961D01*
X190684167Y-83013961D02*
X190646071Y-83090152D01*
X190646071Y-83090152D02*
X190607976Y-83128247D01*
X190607976Y-83128247D02*
X190531786Y-83166342D01*
X190531786Y-83166342D02*
X190227024Y-83166342D01*
X191141309Y-83090152D02*
X191065119Y-83052057D01*
X191065119Y-83052057D02*
X191027024Y-83013961D01*
X191027024Y-83013961D02*
X190988928Y-82937771D01*
X190988928Y-82937771D02*
X190988928Y-82899676D01*
X190988928Y-82899676D02*
X191027024Y-82823485D01*
X191027024Y-82823485D02*
X191065119Y-82785390D01*
X191065119Y-82785390D02*
X191141309Y-82747295D01*
X191141309Y-82747295D02*
X191293690Y-82747295D01*
X191293690Y-82747295D02*
X191369881Y-82785390D01*
X191369881Y-82785390D02*
X191407976Y-82823485D01*
X191407976Y-82823485D02*
X191446071Y-82899676D01*
X191446071Y-82899676D02*
X191446071Y-82937771D01*
X191446071Y-82937771D02*
X191407976Y-83013961D01*
X191407976Y-83013961D02*
X191369881Y-83052057D01*
X191369881Y-83052057D02*
X191293690Y-83090152D01*
X191293690Y-83090152D02*
X191141309Y-83090152D01*
X191141309Y-83090152D02*
X191065119Y-83128247D01*
X191065119Y-83128247D02*
X191027024Y-83166342D01*
X191027024Y-83166342D02*
X190988928Y-83242533D01*
X190988928Y-83242533D02*
X190988928Y-83394914D01*
X190988928Y-83394914D02*
X191027024Y-83471104D01*
X191027024Y-83471104D02*
X191065119Y-83509200D01*
X191065119Y-83509200D02*
X191141309Y-83547295D01*
X191141309Y-83547295D02*
X191293690Y-83547295D01*
X191293690Y-83547295D02*
X191369881Y-83509200D01*
X191369881Y-83509200D02*
X191407976Y-83471104D01*
X191407976Y-83471104D02*
X191446071Y-83394914D01*
X191446071Y-83394914D02*
X191446071Y-83242533D01*
X191446071Y-83242533D02*
X191407976Y-83166342D01*
X191407976Y-83166342D02*
X191369881Y-83128247D01*
X191369881Y-83128247D02*
X191293690Y-83090152D01*
X145935774Y-100374795D02*
X145935774Y-99574795D01*
X145935774Y-99574795D02*
X146126250Y-99574795D01*
X146126250Y-99574795D02*
X146240536Y-99612890D01*
X146240536Y-99612890D02*
X146316726Y-99689080D01*
X146316726Y-99689080D02*
X146354821Y-99765271D01*
X146354821Y-99765271D02*
X146392917Y-99917652D01*
X146392917Y-99917652D02*
X146392917Y-100031938D01*
X146392917Y-100031938D02*
X146354821Y-100184319D01*
X146354821Y-100184319D02*
X146316726Y-100260509D01*
X146316726Y-100260509D02*
X146240536Y-100336700D01*
X146240536Y-100336700D02*
X146126250Y-100374795D01*
X146126250Y-100374795D02*
X145935774Y-100374795D01*
X146697678Y-99650985D02*
X146735774Y-99612890D01*
X146735774Y-99612890D02*
X146811964Y-99574795D01*
X146811964Y-99574795D02*
X147002440Y-99574795D01*
X147002440Y-99574795D02*
X147078631Y-99612890D01*
X147078631Y-99612890D02*
X147116726Y-99650985D01*
X147116726Y-99650985D02*
X147154821Y-99727176D01*
X147154821Y-99727176D02*
X147154821Y-99803366D01*
X147154821Y-99803366D02*
X147116726Y-99917652D01*
X147116726Y-99917652D02*
X146659583Y-100374795D01*
X146659583Y-100374795D02*
X147154821Y-100374795D01*
X149110774Y-100374795D02*
X149110774Y-99574795D01*
X149110774Y-99574795D02*
X149301250Y-99574795D01*
X149301250Y-99574795D02*
X149415536Y-99612890D01*
X149415536Y-99612890D02*
X149491726Y-99689080D01*
X149491726Y-99689080D02*
X149529821Y-99765271D01*
X149529821Y-99765271D02*
X149567917Y-99917652D01*
X149567917Y-99917652D02*
X149567917Y-100031938D01*
X149567917Y-100031938D02*
X149529821Y-100184319D01*
X149529821Y-100184319D02*
X149491726Y-100260509D01*
X149491726Y-100260509D02*
X149415536Y-100336700D01*
X149415536Y-100336700D02*
X149301250Y-100374795D01*
X149301250Y-100374795D02*
X149110774Y-100374795D01*
X149834583Y-99574795D02*
X150329821Y-99574795D01*
X150329821Y-99574795D02*
X150063155Y-99879557D01*
X150063155Y-99879557D02*
X150177440Y-99879557D01*
X150177440Y-99879557D02*
X150253631Y-99917652D01*
X150253631Y-99917652D02*
X150291726Y-99955747D01*
X150291726Y-99955747D02*
X150329821Y-100031938D01*
X150329821Y-100031938D02*
X150329821Y-100222414D01*
X150329821Y-100222414D02*
X150291726Y-100298604D01*
X150291726Y-100298604D02*
X150253631Y-100336700D01*
X150253631Y-100336700D02*
X150177440Y-100374795D01*
X150177440Y-100374795D02*
X149948869Y-100374795D01*
X149948869Y-100374795D02*
X149872678Y-100336700D01*
X149872678Y-100336700D02*
X149834583Y-100298604D01*
X97199524Y-84182295D02*
X97199524Y-83382295D01*
X97199524Y-83382295D02*
X97390000Y-83382295D01*
X97390000Y-83382295D02*
X97504286Y-83420390D01*
X97504286Y-83420390D02*
X97580476Y-83496580D01*
X97580476Y-83496580D02*
X97618571Y-83572771D01*
X97618571Y-83572771D02*
X97656667Y-83725152D01*
X97656667Y-83725152D02*
X97656667Y-83839438D01*
X97656667Y-83839438D02*
X97618571Y-83991819D01*
X97618571Y-83991819D02*
X97580476Y-84068009D01*
X97580476Y-84068009D02*
X97504286Y-84144200D01*
X97504286Y-84144200D02*
X97390000Y-84182295D01*
X97390000Y-84182295D02*
X97199524Y-84182295D01*
X98418571Y-84182295D02*
X97961428Y-84182295D01*
X98190000Y-84182295D02*
X98190000Y-83382295D01*
X98190000Y-83382295D02*
X98113809Y-83496580D01*
X98113809Y-83496580D02*
X98037619Y-83572771D01*
X98037619Y-83572771D02*
X97961428Y-83610866D01*
X143059167Y-100374795D02*
X142792500Y-99993842D01*
X142602024Y-100374795D02*
X142602024Y-99574795D01*
X142602024Y-99574795D02*
X142906786Y-99574795D01*
X142906786Y-99574795D02*
X142982976Y-99612890D01*
X142982976Y-99612890D02*
X143021071Y-99650985D01*
X143021071Y-99650985D02*
X143059167Y-99727176D01*
X143059167Y-99727176D02*
X143059167Y-99841461D01*
X143059167Y-99841461D02*
X143021071Y-99917652D01*
X143021071Y-99917652D02*
X142982976Y-99955747D01*
X142982976Y-99955747D02*
X142906786Y-99993842D01*
X142906786Y-99993842D02*
X142602024Y-99993842D01*
X143744881Y-99841461D02*
X143744881Y-100374795D01*
X143554405Y-99536700D02*
X143363928Y-100108128D01*
X143363928Y-100108128D02*
X143859167Y-100108128D01*
X98331667Y-75216104D02*
X98293571Y-75254200D01*
X98293571Y-75254200D02*
X98179286Y-75292295D01*
X98179286Y-75292295D02*
X98103095Y-75292295D01*
X98103095Y-75292295D02*
X97988809Y-75254200D01*
X97988809Y-75254200D02*
X97912619Y-75178009D01*
X97912619Y-75178009D02*
X97874524Y-75101819D01*
X97874524Y-75101819D02*
X97836428Y-74949438D01*
X97836428Y-74949438D02*
X97836428Y-74835152D01*
X97836428Y-74835152D02*
X97874524Y-74682771D01*
X97874524Y-74682771D02*
X97912619Y-74606580D01*
X97912619Y-74606580D02*
X97988809Y-74530390D01*
X97988809Y-74530390D02*
X98103095Y-74492295D01*
X98103095Y-74492295D02*
X98179286Y-74492295D01*
X98179286Y-74492295D02*
X98293571Y-74530390D01*
X98293571Y-74530390D02*
X98331667Y-74568485D01*
X98636428Y-74568485D02*
X98674524Y-74530390D01*
X98674524Y-74530390D02*
X98750714Y-74492295D01*
X98750714Y-74492295D02*
X98941190Y-74492295D01*
X98941190Y-74492295D02*
X99017381Y-74530390D01*
X99017381Y-74530390D02*
X99055476Y-74568485D01*
X99055476Y-74568485D02*
X99093571Y-74644676D01*
X99093571Y-74644676D02*
X99093571Y-74720866D01*
X99093571Y-74720866D02*
X99055476Y-74835152D01*
X99055476Y-74835152D02*
X98598333Y-75292295D01*
X98598333Y-75292295D02*
X99093571Y-75292295D01*
D11*
%TO.C,C12*%
X182800000Y-95456250D02*
X182800000Y-108696250D01*
X188040000Y-95456250D02*
X182800000Y-95456250D01*
X188040000Y-95456250D02*
X188040000Y-108696250D01*
X188040000Y-108696250D02*
X182800000Y-108696250D01*
%TO.C,TP3*%
X156756250Y-105003750D02*
X156756250Y-107403750D01*
X156756250Y-107403750D02*
X161656250Y-107403750D01*
X161656250Y-105003750D02*
X156756250Y-105003750D01*
X161656250Y-107403750D02*
X161656250Y-105003750D01*
%TO.C,J2*%
X168532500Y-105262500D02*
X168532500Y-107922500D01*
X168532500Y-107922500D02*
X181352500Y-107922500D01*
X169482500Y-102325429D02*
X169482500Y-102779571D01*
X169482500Y-104865429D02*
X169482500Y-105262500D01*
X169482500Y-110807500D02*
X169482500Y-107922500D01*
X170242500Y-102325429D02*
X170242500Y-102779571D01*
X170242500Y-104865429D02*
X170242500Y-105262500D01*
X170242500Y-107922500D02*
X170242500Y-110807500D01*
X170242500Y-110807500D02*
X169482500Y-110807500D01*
X171132500Y-105262500D02*
X171132500Y-107922500D01*
X173672500Y-105262500D02*
X173672500Y-107922500D01*
X174562500Y-102325429D02*
X174562500Y-102779571D01*
X174562500Y-104865429D02*
X174562500Y-105262500D01*
X174562500Y-110807500D02*
X174562500Y-107922500D01*
X175322500Y-102325429D02*
X175322500Y-102779571D01*
X175322500Y-104865429D02*
X175322500Y-105262500D01*
X175322500Y-107922500D02*
X175322500Y-110807500D01*
X175322500Y-110807500D02*
X174562500Y-110807500D01*
X176212500Y-105262500D02*
X176212500Y-107922500D01*
X178752500Y-105262500D02*
X178752500Y-107922500D01*
X179642500Y-102392500D02*
X179642500Y-102779571D01*
X179642500Y-104865429D02*
X179642500Y-105262500D01*
X180022500Y-100012500D02*
X181292500Y-100012500D01*
X180402500Y-102392500D02*
X180402500Y-102779571D01*
X180402500Y-104865429D02*
X180402500Y-105262500D01*
X181292500Y-100012500D02*
X181292500Y-101282500D01*
X181352500Y-105262500D02*
X168532500Y-105262500D01*
X181352500Y-107922500D02*
X181352500Y-105262500D01*
D12*
X180402500Y-107922500D02*
X179642500Y-107922500D01*
X179642500Y-110807500D01*
X180402500Y-110807500D01*
X180402500Y-107922500D01*
G36*
X180402500Y-107922500D02*
G01*
X179642500Y-107922500D01*
X179642500Y-110807500D01*
X180402500Y-110807500D01*
X180402500Y-107922500D01*
G37*
D11*
%TO.C,C1*%
X107505000Y-85760000D02*
X107505000Y-89500000D01*
X107505000Y-85760000D02*
X114745000Y-85760000D01*
X107505000Y-89500000D02*
X114745000Y-89500000D01*
X114745000Y-85760000D02*
X114745000Y-89500000D01*
%TO.C,R6*%
X175271250Y-77115000D02*
X175271250Y-89255000D01*
X175271250Y-89255000D02*
X180011250Y-89255000D01*
X177641250Y-74465000D02*
X177641250Y-77115000D01*
X177641250Y-91905000D02*
X177641250Y-89255000D01*
X180011250Y-77115000D02*
X175271250Y-77115000D01*
X180011250Y-89255000D02*
X180011250Y-77115000D01*
%TO.C,J1*%
X97095000Y-105262500D02*
X97095000Y-107922500D01*
X97095000Y-107922500D02*
X107375000Y-107922500D01*
X98045000Y-102325429D02*
X98045000Y-102779571D01*
X98045000Y-104865429D02*
X98045000Y-105262500D01*
X98045000Y-110807500D02*
X98045000Y-107922500D01*
X98805000Y-102325429D02*
X98805000Y-102779571D01*
X98805000Y-104865429D02*
X98805000Y-105262500D01*
X98805000Y-107922500D02*
X98805000Y-110807500D01*
X98805000Y-110807500D02*
X98045000Y-110807500D01*
X99695000Y-105262500D02*
X99695000Y-107922500D01*
X100585000Y-102325429D02*
X100585000Y-102779571D01*
X100585000Y-104865429D02*
X100585000Y-105262500D01*
X100585000Y-110807500D02*
X100585000Y-107922500D01*
X101345000Y-102325429D02*
X101345000Y-102779571D01*
X101345000Y-104865429D02*
X101345000Y-105262500D01*
X101345000Y-107922500D02*
X101345000Y-110807500D01*
X101345000Y-110807500D02*
X100585000Y-110807500D01*
X102235000Y-105262500D02*
X102235000Y-107922500D01*
X103125000Y-102325429D02*
X103125000Y-102779571D01*
X103125000Y-104865429D02*
X103125000Y-105262500D01*
X103125000Y-110807500D02*
X103125000Y-107922500D01*
X103885000Y-102325429D02*
X103885000Y-102779571D01*
X103885000Y-104865429D02*
X103885000Y-105262500D01*
X103885000Y-107922500D02*
X103885000Y-110807500D01*
X103885000Y-110807500D02*
X103125000Y-110807500D01*
X104775000Y-105262500D02*
X104775000Y-107922500D01*
X105665000Y-102392500D02*
X105665000Y-102779571D01*
X105665000Y-104865429D02*
X105665000Y-105262500D01*
X106045000Y-100012500D02*
X107315000Y-100012500D01*
X106425000Y-102392500D02*
X106425000Y-102779571D01*
X106425000Y-104865429D02*
X106425000Y-105262500D01*
X107315000Y-100012500D02*
X107315000Y-101282500D01*
X107375000Y-105262500D02*
X97095000Y-105262500D01*
X107375000Y-107922500D02*
X107375000Y-105262500D01*
D12*
X106425000Y-107922500D02*
X105665000Y-107922500D01*
X105665000Y-110807500D01*
X106425000Y-110807500D01*
X106425000Y-107922500D01*
G36*
X106425000Y-107922500D02*
G01*
X105665000Y-107922500D01*
X105665000Y-110807500D01*
X106425000Y-110807500D01*
X106425000Y-107922500D01*
G37*
D11*
%TO.C,TP7*%
X97225000Y-68332500D02*
X97225000Y-70732500D01*
X97225000Y-70732500D02*
X102125000Y-70732500D01*
X102125000Y-68332500D02*
X97225000Y-68332500D01*
X102125000Y-70732500D02*
X102125000Y-68332500D01*
D10*
%TO.C,L1*%
X157099001Y-81915000D02*
G75*
G02*
X133730999Y-81915000I-11684001J0D01*
G01*
X133730999Y-81915000D02*
G75*
G02*
X157099001Y-81915000I11684001J0D01*
G01*
X152526999Y-81915000D02*
G75*
G02*
X138303001Y-81915000I-7111999J0D01*
G01*
X138303001Y-81915000D02*
G75*
G02*
X152526999Y-81915000I7111999J0D01*
G01*
D11*
%TO.C,R9*%
X183050000Y-77115000D02*
X183050000Y-89255000D01*
X183050000Y-89255000D02*
X187790000Y-89255000D01*
X185420000Y-74465000D02*
X185420000Y-77115000D01*
X185420000Y-91905000D02*
X185420000Y-89255000D01*
X187790000Y-77115000D02*
X183050000Y-77115000D01*
X187790000Y-89255000D02*
X187790000Y-77115000D01*
%TO.C,C4*%
X136877500Y-96392500D02*
X136877500Y-103632500D01*
X140617500Y-96392500D02*
X136877500Y-96392500D01*
X140617500Y-96392500D02*
X140617500Y-103632500D01*
X140617500Y-103632500D02*
X136877500Y-103632500D01*
%TO.C,TP5*%
X164416250Y-91668750D02*
X164416250Y-94068750D01*
X164416250Y-94068750D02*
X169316250Y-94068750D01*
X169316250Y-91668750D02*
X164416250Y-91668750D01*
X169316250Y-94068750D02*
X169316250Y-91668750D01*
%TO.C,Q1*%
X121880000Y-68050000D02*
X121880000Y-83940000D01*
X121880000Y-68050000D02*
X132120000Y-68050000D01*
X121880000Y-83940000D02*
X132120000Y-83940000D01*
X124460000Y-83940000D02*
X124460000Y-86480000D01*
X127000000Y-83940000D02*
X127000000Y-86480000D01*
X129540000Y-83940000D02*
X129540000Y-86480000D01*
X132120000Y-68050000D02*
X132120000Y-83940000D01*
%TO.C,R1*%
X103220000Y-81900000D02*
X103220000Y-85740000D01*
X103220000Y-85740000D02*
X105060000Y-85740000D01*
X104140000Y-80950000D02*
X104140000Y-81900000D01*
X104140000Y-86690000D02*
X104140000Y-85740000D01*
X105060000Y-81900000D02*
X103220000Y-81900000D01*
X105060000Y-85740000D02*
X105060000Y-81900000D01*
%TO.C,R2*%
X100045000Y-81900000D02*
X100045000Y-85740000D01*
X100045000Y-85740000D02*
X101885000Y-85740000D01*
X100965000Y-80950000D02*
X100965000Y-81900000D01*
X100965000Y-86690000D02*
X100965000Y-85740000D01*
X101885000Y-81900000D02*
X100045000Y-81900000D01*
X101885000Y-85740000D02*
X101885000Y-81900000D01*
%TO.C,C5*%
X159261250Y-96392500D02*
X159261250Y-103632500D01*
X163001250Y-96392500D02*
X159261250Y-96392500D01*
X163001250Y-96392500D02*
X163001250Y-103632500D01*
X163001250Y-103632500D02*
X159261250Y-103632500D01*
%TO.C,C11*%
X188197500Y-95456250D02*
X188197500Y-108696250D01*
X193437500Y-95456250D02*
X188197500Y-95456250D01*
X193437500Y-95456250D02*
X193437500Y-108696250D01*
X193437500Y-108696250D02*
X188197500Y-108696250D01*
%TO.C,C6*%
X155451250Y-96392500D02*
X155451250Y-103632500D01*
X159191250Y-96392500D02*
X155451250Y-96392500D01*
X159191250Y-96392500D02*
X159191250Y-103632500D01*
X159191250Y-103632500D02*
X155451250Y-103632500D01*
%TO.C,R5*%
X151956250Y-98092500D02*
X151956250Y-101932500D01*
X151956250Y-101932500D02*
X153796250Y-101932500D01*
X152876250Y-97142500D02*
X152876250Y-98092500D01*
X152876250Y-102882500D02*
X152876250Y-101932500D01*
X153796250Y-98092500D02*
X151956250Y-98092500D01*
X153796250Y-101932500D02*
X153796250Y-98092500D01*
%TO.C,R3*%
X117190000Y-81900000D02*
X117190000Y-85740000D01*
X117190000Y-85740000D02*
X119030000Y-85740000D01*
X118110000Y-80950000D02*
X118110000Y-81900000D01*
X118110000Y-86690000D02*
X118110000Y-85740000D01*
X119030000Y-81900000D02*
X117190000Y-81900000D01*
X119030000Y-85740000D02*
X119030000Y-81900000D01*
%TO.C,C3*%
X120380000Y-90090000D02*
X120380000Y-95330000D01*
X120380000Y-90090000D02*
X133620000Y-90090000D01*
X120380000Y-95330000D02*
X133620000Y-95330000D01*
X133620000Y-90090000D02*
X133620000Y-95330000D01*
%TO.C,C7*%
X114130000Y-104744750D02*
X109332000Y-104744750D01*
X114130000Y-104784750D02*
X109339000Y-104784750D01*
X114130000Y-104824750D02*
X109346000Y-104824750D01*
X114130000Y-104864750D02*
X109354000Y-104864750D01*
X114130000Y-104904750D02*
X109361000Y-104904750D01*
X114130000Y-104944750D02*
X109369000Y-104944750D01*
X114130000Y-104984750D02*
X109378000Y-104984750D01*
X114130000Y-105024750D02*
X109386000Y-105024750D01*
X114130000Y-105064750D02*
X109395000Y-105064750D01*
X114130000Y-105104750D02*
X109404000Y-105104750D01*
X114130000Y-105144750D02*
X109414000Y-105144750D01*
X114130000Y-105184750D02*
X109424000Y-105184750D01*
X114130000Y-105224750D02*
X109433000Y-105224750D01*
X114130000Y-105264750D02*
X109444000Y-105264750D01*
X114130000Y-105304750D02*
X109454000Y-105304750D01*
X114130000Y-105344750D02*
X109465000Y-105344750D01*
X114130000Y-105384750D02*
X109476000Y-105384750D01*
X114130000Y-105424750D02*
X109487000Y-105424750D01*
X114130000Y-105464750D02*
X109499000Y-105464750D01*
X114130000Y-105504750D02*
X109511000Y-105504750D01*
X114130000Y-105544750D02*
X109523000Y-105544750D01*
X114130000Y-105584750D02*
X109536000Y-105584750D01*
X114130000Y-105624750D02*
X109549000Y-105624750D01*
X114130000Y-105664750D02*
X109562000Y-105664750D01*
X114130000Y-105704750D02*
X109575000Y-105704750D01*
X114130000Y-105744750D02*
X109589000Y-105744750D01*
X114130000Y-105784750D02*
X109603000Y-105784750D01*
X114130000Y-105824750D02*
X109617000Y-105824750D01*
X114130000Y-105864750D02*
X109631000Y-105864750D01*
X114130000Y-105904750D02*
X109646000Y-105904750D01*
X114130000Y-105944750D02*
X109662000Y-105944750D01*
X114130000Y-105984750D02*
X109677000Y-105984750D01*
X114130000Y-106024750D02*
X109693000Y-106024750D01*
X114130000Y-106064750D02*
X109709000Y-106064750D01*
X114130000Y-106104750D02*
X109725000Y-106104750D01*
X114130000Y-106144750D02*
X109742000Y-106144750D01*
X114130000Y-106184750D02*
X109759000Y-106184750D01*
X114130000Y-106224750D02*
X109777000Y-106224750D01*
X114130000Y-106264750D02*
X109794000Y-106264750D01*
X114130000Y-106304750D02*
X109812000Y-106304750D01*
X114130000Y-106344750D02*
X109831000Y-106344750D01*
X114130000Y-106384750D02*
X109849000Y-106384750D01*
X114130000Y-106424750D02*
X109868000Y-106424750D01*
X114130000Y-106464750D02*
X109888000Y-106464750D01*
X114130000Y-106504750D02*
X109908000Y-106504750D01*
X114130000Y-106544750D02*
X109928000Y-106544750D01*
X114130000Y-106584750D02*
X109948000Y-106584750D01*
X114130000Y-106624750D02*
X109969000Y-106624750D01*
X114130000Y-106664750D02*
X109990000Y-106664750D01*
X114130000Y-106704750D02*
X110012000Y-106704750D01*
X114130000Y-106744750D02*
X110034000Y-106744750D01*
X114130000Y-106784750D02*
X110056000Y-106784750D01*
X114130000Y-106824750D02*
X110079000Y-106824750D01*
X114130000Y-106864750D02*
X110102000Y-106864750D01*
X114130000Y-106904750D02*
X110125000Y-106904750D01*
X114130000Y-106944750D02*
X110149000Y-106944750D01*
X114130000Y-106984750D02*
X110173000Y-106984750D01*
X114130000Y-107024750D02*
X110198000Y-107024750D01*
X114130000Y-107064750D02*
X110223000Y-107064750D01*
X114130000Y-107104750D02*
X110248000Y-107104750D01*
X114130000Y-107144750D02*
X110274000Y-107144750D01*
X114130000Y-107184750D02*
X110300000Y-107184750D01*
X114130000Y-107224750D02*
X110327000Y-107224750D01*
X114130000Y-107264750D02*
X110354000Y-107264750D01*
X114130000Y-107304750D02*
X110382000Y-107304750D01*
X114130000Y-107344750D02*
X110410000Y-107344750D01*
X114130000Y-107384750D02*
X110439000Y-107384750D01*
X114130000Y-107424750D02*
X110468000Y-107424750D01*
X114130000Y-107464750D02*
X110497000Y-107464750D01*
X114130000Y-107504750D02*
X110527000Y-107504750D01*
X114130000Y-107544750D02*
X110558000Y-107544750D01*
X114130000Y-107584750D02*
X110588000Y-107584750D01*
X115887000Y-110024750D02*
X115253000Y-110024750D01*
X116327000Y-109984750D02*
X114813000Y-109984750D01*
X116598000Y-109944750D02*
X114542000Y-109944750D01*
X116811000Y-109904750D02*
X114329000Y-109904750D01*
X116992000Y-109864750D02*
X114148000Y-109864750D01*
X117153000Y-109824750D02*
X113987000Y-109824750D01*
X117298000Y-109784750D02*
X113842000Y-109784750D01*
X117431000Y-109744750D02*
X113709000Y-109744750D01*
X117554000Y-109704750D02*
X113586000Y-109704750D01*
X117670000Y-109664750D02*
X113470000Y-109664750D01*
X117779000Y-109624750D02*
X113361000Y-109624750D01*
X117882000Y-109584750D02*
X113258000Y-109584750D01*
X117980000Y-109544750D02*
X113160000Y-109544750D01*
X118074000Y-109504750D02*
X113066000Y-109504750D01*
X118164000Y-109464750D02*
X112976000Y-109464750D01*
X118251000Y-109424750D02*
X112889000Y-109424750D01*
X118334000Y-109384750D02*
X112806000Y-109384750D01*
X118414000Y-109344750D02*
X112726000Y-109344750D01*
X118491000Y-109304750D02*
X112649000Y-109304750D01*
X118566000Y-109264750D02*
X112574000Y-109264750D01*
X118639000Y-109224750D02*
X112501000Y-109224750D01*
X118710000Y-109184750D02*
X112430000Y-109184750D01*
X118778000Y-109144750D02*
X112362000Y-109144750D01*
X118845000Y-109104750D02*
X112295000Y-109104750D01*
X118909000Y-109064750D02*
X112231000Y-109064750D01*
X118972000Y-109024750D02*
X112168000Y-109024750D01*
X119034000Y-108984750D02*
X112106000Y-108984750D01*
X119094000Y-108944750D02*
X112046000Y-108944750D01*
X119153000Y-108904750D02*
X111987000Y-108904750D01*
X119210000Y-108864750D02*
X111930000Y-108864750D01*
X119266000Y-108824750D02*
X111874000Y-108824750D01*
X119320000Y-108784750D02*
X111820000Y-108784750D01*
X119374000Y-108744750D02*
X111766000Y-108744750D01*
X119426000Y-108704750D02*
X111714000Y-108704750D01*
X119477000Y-108664750D02*
X111663000Y-108664750D01*
X119527000Y-108624750D02*
X111613000Y-108624750D01*
X119577000Y-108584750D02*
X111563000Y-108584750D01*
X119625000Y-108544750D02*
X111515000Y-108544750D01*
X119672000Y-108504750D02*
X111468000Y-108504750D01*
X119718000Y-108464750D02*
X111422000Y-108464750D01*
X119764000Y-108424750D02*
X111376000Y-108424750D01*
X119808000Y-108384750D02*
X111332000Y-108384750D01*
X119852000Y-108344750D02*
X111288000Y-108344750D01*
X119895000Y-108304750D02*
X111245000Y-108304750D01*
X119937000Y-108264750D02*
X111203000Y-108264750D01*
X119978000Y-108224750D02*
X111162000Y-108224750D01*
X120019000Y-108184750D02*
X111121000Y-108184750D01*
X120059000Y-108144750D02*
X111081000Y-108144750D01*
X120098000Y-108104750D02*
X111042000Y-108104750D01*
X120137000Y-108064750D02*
X111003000Y-108064750D01*
X120175000Y-108024750D02*
X110965000Y-108024750D01*
X120212000Y-107984750D02*
X110928000Y-107984750D01*
X120248000Y-107944750D02*
X110892000Y-107944750D01*
X120284000Y-107904750D02*
X110856000Y-107904750D01*
X120320000Y-107864750D02*
X110820000Y-107864750D01*
X120355000Y-107824750D02*
X110785000Y-107824750D01*
X120389000Y-107784750D02*
X110751000Y-107784750D01*
X120422000Y-107744750D02*
X110718000Y-107744750D01*
X120455000Y-107704750D02*
X110685000Y-107704750D01*
X120488000Y-107664750D02*
X110652000Y-107664750D01*
X120520000Y-107624750D02*
X110620000Y-107624750D01*
X120552000Y-107584750D02*
X117010000Y-107584750D01*
X120582000Y-107544750D02*
X117010000Y-107544750D01*
X120613000Y-107504750D02*
X117010000Y-107504750D01*
X120643000Y-107464750D02*
X117010000Y-107464750D01*
X120672000Y-107424750D02*
X117010000Y-107424750D01*
X120701000Y-107384750D02*
X117010000Y-107384750D01*
X120730000Y-107344750D02*
X117010000Y-107344750D01*
X120758000Y-107304750D02*
X117010000Y-107304750D01*
X120786000Y-107264750D02*
X117010000Y-107264750D01*
X120813000Y-107224750D02*
X117010000Y-107224750D01*
X120840000Y-107184750D02*
X117010000Y-107184750D01*
X120866000Y-107144750D02*
X117010000Y-107144750D01*
X120892000Y-107104750D02*
X117010000Y-107104750D01*
X120917000Y-107064750D02*
X117010000Y-107064750D01*
X120942000Y-107024750D02*
X117010000Y-107024750D01*
X120967000Y-106984750D02*
X117010000Y-106984750D01*
X120991000Y-106944750D02*
X117010000Y-106944750D01*
X121015000Y-106904750D02*
X117010000Y-106904750D01*
X121038000Y-106864750D02*
X117010000Y-106864750D01*
X121061000Y-106824750D02*
X117010000Y-106824750D01*
X121084000Y-106784750D02*
X117010000Y-106784750D01*
X121106000Y-106744750D02*
X117010000Y-106744750D01*
X121128000Y-106704750D02*
X117010000Y-106704750D01*
X121150000Y-106664750D02*
X117010000Y-106664750D01*
X121171000Y-106624750D02*
X117010000Y-106624750D01*
X121192000Y-106584750D02*
X117010000Y-106584750D01*
X121212000Y-106544750D02*
X117010000Y-106544750D01*
X121232000Y-106504750D02*
X117010000Y-106504750D01*
X121252000Y-106464750D02*
X117010000Y-106464750D01*
X121272000Y-106424750D02*
X117010000Y-106424750D01*
X121291000Y-106384750D02*
X117010000Y-106384750D01*
X121309000Y-106344750D02*
X117010000Y-106344750D01*
X121328000Y-106304750D02*
X117010000Y-106304750D01*
X121346000Y-106264750D02*
X117010000Y-106264750D01*
X121363000Y-106224750D02*
X117010000Y-106224750D01*
X121381000Y-106184750D02*
X117010000Y-106184750D01*
X121398000Y-106144750D02*
X117010000Y-106144750D01*
X121415000Y-106104750D02*
X117010000Y-106104750D01*
X121431000Y-106064750D02*
X117010000Y-106064750D01*
X121447000Y-106024750D02*
X117010000Y-106024750D01*
X121463000Y-105984750D02*
X117010000Y-105984750D01*
X121478000Y-105944750D02*
X117010000Y-105944750D01*
X121494000Y-105904750D02*
X117010000Y-105904750D01*
X121509000Y-105864750D02*
X117010000Y-105864750D01*
X121523000Y-105824750D02*
X117010000Y-105824750D01*
X121537000Y-105784750D02*
X117010000Y-105784750D01*
X121551000Y-105744750D02*
X117010000Y-105744750D01*
X121565000Y-105704750D02*
X117010000Y-105704750D01*
X121578000Y-105664750D02*
X117010000Y-105664750D01*
X121591000Y-105624750D02*
X117010000Y-105624750D01*
X121604000Y-105584750D02*
X117010000Y-105584750D01*
X121617000Y-105544750D02*
X117010000Y-105544750D01*
X121629000Y-105504750D02*
X117010000Y-105504750D01*
X121641000Y-105464750D02*
X117010000Y-105464750D01*
X121653000Y-105424750D02*
X117010000Y-105424750D01*
X121664000Y-105384750D02*
X117010000Y-105384750D01*
X121675000Y-105344750D02*
X117010000Y-105344750D01*
X121686000Y-105304750D02*
X117010000Y-105304750D01*
X121696000Y-105264750D02*
X117010000Y-105264750D01*
X121707000Y-105224750D02*
X117010000Y-105224750D01*
X121716000Y-105184750D02*
X117010000Y-105184750D01*
X121726000Y-105144750D02*
X117010000Y-105144750D01*
X121736000Y-105104750D02*
X117010000Y-105104750D01*
X121745000Y-105064750D02*
X117010000Y-105064750D01*
X121754000Y-105024750D02*
X117010000Y-105024750D01*
X121762000Y-104984750D02*
X117010000Y-104984750D01*
X121771000Y-104944750D02*
X117010000Y-104944750D01*
X121779000Y-104904750D02*
X117010000Y-104904750D01*
X121786000Y-104864750D02*
X117010000Y-104864750D01*
X121794000Y-104824750D02*
X117010000Y-104824750D01*
X121801000Y-104784750D02*
X117010000Y-104784750D01*
X121808000Y-104744750D02*
X117010000Y-104744750D01*
X121815000Y-104704750D02*
X109325000Y-104704750D01*
X121822000Y-104664750D02*
X109318000Y-104664750D01*
X121828000Y-104624750D02*
X109312000Y-104624750D01*
X121834000Y-104584750D02*
X109306000Y-104584750D01*
X121839000Y-104544750D02*
X109301000Y-104544750D01*
X121845000Y-104504750D02*
X109295000Y-104504750D01*
X121850000Y-104464750D02*
X109290000Y-104464750D01*
X121855000Y-104424750D02*
X109285000Y-104424750D01*
X121860000Y-104384750D02*
X109280000Y-104384750D01*
X121864000Y-104343750D02*
X109276000Y-104343750D01*
X121868000Y-104303750D02*
X109272000Y-104303750D01*
X121872000Y-104263750D02*
X109268000Y-104263750D01*
X121876000Y-104223750D02*
X109264000Y-104223750D01*
X121879000Y-104183750D02*
X109261000Y-104183750D01*
X121882000Y-104143750D02*
X109258000Y-104143750D01*
X121885000Y-104103750D02*
X109255000Y-104103750D01*
X121888000Y-104063750D02*
X109252000Y-104063750D01*
X121890000Y-104023750D02*
X109250000Y-104023750D01*
X121892000Y-103983750D02*
X109248000Y-103983750D01*
X121894000Y-103943750D02*
X109246000Y-103943750D01*
X121896000Y-103903750D02*
X109244000Y-103903750D01*
X121897000Y-103863750D02*
X109243000Y-103863750D01*
X121898000Y-103823750D02*
X109242000Y-103823750D01*
X121899000Y-103783750D02*
X109241000Y-103783750D01*
X121900000Y-103663750D02*
X109240000Y-103663750D01*
X121900000Y-103703750D02*
X109240000Y-103703750D01*
X121900000Y-103743750D02*
X109240000Y-103743750D01*
X121940000Y-103663750D02*
G75*
G02*
X109200000Y-103663750I-6370000J0D01*
G01*
X109200000Y-103663750D02*
G75*
G02*
X121940000Y-103663750I6370000J0D01*
G01*
%TO.C,TP2*%
X128380000Y-96272500D02*
X128380000Y-98672500D01*
X128380000Y-98672500D02*
X133280000Y-98672500D01*
X133280000Y-96272500D02*
X128380000Y-96272500D01*
X133280000Y-98672500D02*
X133280000Y-96272500D01*
%TO.C,U1*%
X105985000Y-73540000D02*
X105985000Y-83940000D01*
X105985000Y-83940000D02*
X116265000Y-83940000D01*
X108475000Y-73600000D02*
X108475000Y-83880000D01*
X108475000Y-83880000D02*
X110125000Y-83880000D01*
X112125000Y-83880000D02*
X113775000Y-83880000D01*
X113775000Y-73600000D02*
X108475000Y-73600000D01*
X113775000Y-83880000D02*
X113775000Y-73600000D01*
X116265000Y-73540000D02*
X105985000Y-73540000D01*
X116265000Y-83940000D02*
X116265000Y-73540000D01*
X110125000Y-83880000D02*
G75*
G02*
X112125000Y-83880000I1000000J0D01*
G01*
%TO.C,C8*%
X107505000Y-90840000D02*
X107505000Y-94580000D01*
X107505000Y-90840000D02*
X114745000Y-90840000D01*
X107505000Y-94580000D02*
X114745000Y-94580000D01*
X114745000Y-90840000D02*
X114745000Y-94580000D01*
%TO.C,R8*%
X188447500Y-77115000D02*
X188447500Y-89255000D01*
X188447500Y-89255000D02*
X193187500Y-89255000D01*
X190817500Y-74465000D02*
X190817500Y-77115000D01*
X190817500Y-91905000D02*
X190817500Y-89255000D01*
X193187500Y-77115000D02*
X188447500Y-77115000D01*
X193187500Y-89255000D02*
X193187500Y-77115000D01*
%TO.C,D2*%
X145606250Y-98367500D02*
X145606250Y-101647500D01*
X145606250Y-101647500D02*
X147446250Y-101647500D01*
X146526250Y-97187500D02*
X146526250Y-98367500D01*
X146526250Y-102827500D02*
X146526250Y-101647500D01*
X147446250Y-98367500D02*
X145606250Y-98367500D01*
X147446250Y-98823500D02*
X145606250Y-98823500D01*
X147446250Y-98943500D02*
X145606250Y-98943500D01*
X147446250Y-99063500D02*
X145606250Y-99063500D01*
X147446250Y-101647500D02*
X147446250Y-98367500D01*
%TO.C,D3*%
X148781250Y-98377500D02*
X148781250Y-101657500D01*
X148781250Y-100961500D02*
X150621250Y-100961500D01*
X148781250Y-101081500D02*
X150621250Y-101081500D01*
X148781250Y-101201500D02*
X150621250Y-101201500D01*
X148781250Y-101657500D02*
X150621250Y-101657500D01*
X149701250Y-97197500D02*
X149701250Y-98377500D01*
X149701250Y-102837500D02*
X149701250Y-101657500D01*
X150621250Y-98377500D02*
X148781250Y-98377500D01*
X150621250Y-101657500D02*
X150621250Y-98377500D01*
%TO.C,D1*%
X96670000Y-81700000D02*
X96670000Y-85940000D01*
X96670000Y-85940000D02*
X98910000Y-85940000D01*
X97790000Y-81050000D02*
X97790000Y-81700000D01*
X97790000Y-86590000D02*
X97790000Y-85940000D01*
X98910000Y-81700000D02*
X96670000Y-81700000D01*
X98910000Y-82300000D02*
X96670000Y-82300000D01*
X98910000Y-82420000D02*
X96670000Y-82420000D01*
X98910000Y-82540000D02*
X96670000Y-82540000D01*
X98910000Y-85940000D02*
X98910000Y-81700000D01*
%TO.C,TP1*%
X120720000Y-96272500D02*
X120720000Y-98672500D01*
X120720000Y-98672500D02*
X125620000Y-98672500D01*
X125620000Y-96272500D02*
X120720000Y-96272500D01*
X125620000Y-98672500D02*
X125620000Y-96272500D01*
%TO.C,R4*%
X142272500Y-98092500D02*
X142272500Y-101932500D01*
X142272500Y-101932500D02*
X144112500Y-101932500D01*
X143192500Y-97142500D02*
X143192500Y-98092500D01*
X143192500Y-102882500D02*
X143192500Y-101932500D01*
X144112500Y-98092500D02*
X142272500Y-98092500D01*
X144112500Y-101932500D02*
X144112500Y-98092500D01*
%TO.C,C2*%
X97345000Y-76800000D02*
X97345000Y-73060000D01*
X104585000Y-73060000D02*
X97345000Y-73060000D01*
X104585000Y-76800000D02*
X97345000Y-76800000D01*
X104585000Y-76800000D02*
X104585000Y-73060000D01*
%TO.C,RV1*%
X158591250Y-85285000D02*
X158591250Y-95055000D01*
X158766250Y-83765000D02*
X158766250Y-85284000D01*
X159981250Y-83765000D02*
X159981250Y-84524000D01*
X161196250Y-83765000D02*
X158766250Y-83765000D01*
X161196250Y-83765000D02*
X161196250Y-85284000D01*
X161196250Y-85284000D02*
X158766250Y-85284000D01*
X163661250Y-85285000D02*
X158591250Y-85285000D01*
X163661250Y-85285000D02*
X163661250Y-95055000D01*
X163661250Y-95055000D02*
X158591250Y-95055000D01*
%TD*%
D13*
X193675000Y-111125000D02*
X193675000Y-66675000D01*
X95250000Y-111125000D02*
X95250000Y-66675000D01*
X95250000Y-66675000D02*
X193675000Y-66675000D01*
X193675000Y-111125000D02*
X95250000Y-111125000D01*
M02*
