  0
SECTION
  2
HEADER
  9
$ANGBASE
  50
0.0
  9
$ANGDIR
  70
1
  9
$MEASUREMENT
  70
1
  0
ENDSEC
  0
SECTION
  2
TABLES
  0
TABLE
  2
LTYPE
  70
4
  0
LTYPE
  5
40F
  2
CONTINUOUS
  70
0
  3
Solid line
  72
65
  73
0
  40
0.0
  0
LTYPE
  5
410
  2
DASHDOT
 70
0
  3
Dash Dot ____ _ ____ _
 72
65
 73
4
 40
2.0
 49
1.25
 49
-0.25
 49
0.25
 49
-0.25
  0
LTYPE
  5
411
  2
DASHED
 70
0
  3
Dashed __ __ __ __ __
 72
65
 73
2
 40
0.75
 49
0.5
 49
-0.25
  0
LTYPE
  5
43B
  2
DOTTED
 70
0
  3
Dotted .  .  .  .
 72
65
 73
2
 40
0.2
 49
0.0
 49
-0.2
  0
ENDTAB
  0
TABLE
  2
STYLE
  70
4
  0
STYLE
  2
KICAD
  70
0
  40
0
  41
1
  42
1
  50
0
  71
0
  3
isocp.shx
  0
STYLE
  2
KICADB
  70
0
  40
0
  41
1
  42
1
  50
0
  71
0
  3
isocp.shx
  0
STYLE
  2
KICADI
  70
0
  40
0
  41
1
  42
1
  50
15
  71
0
  3
isocp.shx
  0
STYLE
  2
KICADBI
  70
0
  40
0
  41
1
  42
1
  50
15
  71
0
  3
isocp.shx
  0
ENDTAB
  0
TABLE
  2
LAYER
  70
1
  0
LAYER
  2
BLACK
  70
0
  62
7
  6
CONTINUOUS
  0
ENDTAB
  0
ENDSEC
  0
SECTION
  2
ENTITIES
0
LINE
8
BLACK
6
CONTINUOUS
10
193.6749999999999829
20
-111.125
11
193.6749999999999829
21
-66.6749999999999972
0
LINE
8
BLACK
6
CONTINUOUS
10
95.25
20
-111.125
11
95.25
21
-66.6749999999999972
0
LINE
8
BLACK
6
CONTINUOUS
10
95.25
20
-66.6749999999999972
11
193.6749999999999829
21
-66.6749999999999972
0
LINE
8
BLACK
6
CONTINUOUS
10
193.6749999999999829
20
-111.125
11
95.25
21
-111.125
0
LINE
8
BLACK
6
CONTINUOUS
10
125.25
20
-69.2199999999999989
11
128.75
21
-72.7199999999999989
0
LINE
8
BLACK
6
CONTINUOUS
10
128.75
20
-69.2199999999999989
11
125.25
21
-72.7199999999999989
0
LINE
8
BLACK
6
CONTINUOUS
10
97.8327680000000015
20
-114.2648379999999975
11
97.8327680000000015
21
-112.2648379999999975
0
LINE
8
BLACK
6
CONTINUOUS
10
97.8327680000000015
20
-112.2648379999999975
11
98.3089579999999899
21
-112.2648379999999975
0
LINE
8
BLACK
6
CONTINUOUS
10
98.3089579999999899
20
-112.2648379999999975
11
98.5946730000000002
21
-112.3600759999999923
0
LINE
8
BLACK
6
CONTINUOUS
10
98.5946730000000002
20
-112.3600759999999923
11
98.7851489999999899
21
-112.5505519999999962
0
LINE
8
BLACK
6
CONTINUOUS
10
98.7851489999999899
20
-112.5505519999999962
11
98.8803869999999989
21
-112.741028
0
LINE
8
BLACK
6
CONTINUOUS
10
98.8803869999999989
20
-112.741028
11
98.9756249999999937
21
-113.1219799999999935
0
LINE
8
BLACK
6
CONTINUOUS
10
98.9756249999999937
20
-113.1219799999999935
11
98.9756249999999937
21
-113.4076949999999897
0
LINE
8
BLACK
6
CONTINUOUS
10
98.9756249999999937
20
-113.4076949999999897
11
98.8803869999999989
21
-113.7886469999999974
0
LINE
8
BLACK
6
CONTINUOUS
10
98.8803869999999989
20
-113.7886469999999974
11
98.7851489999999899
21
-113.9791230000000013
0
LINE
8
BLACK
6
CONTINUOUS
10
98.7851489999999899
20
-113.9791230000000013
11
98.5946730000000002
21
-114.1695999999999884
0
LINE
8
BLACK
6
CONTINUOUS
10
98.5946730000000002
20
-114.1695999999999884
11
98.3089579999999899
21
-114.2648379999999975
0
LINE
8
BLACK
6
CONTINUOUS
10
98.3089579999999899
20
-114.2648379999999975
11
97.8327680000000015
21
-114.2648379999999975
0
LINE
8
BLACK
6
CONTINUOUS
10
99.8327680000000015
20
-114.2648379999999975
11
99.8327680000000015
21
-112.9315039999999897
0
LINE
8
BLACK
6
CONTINUOUS
10
99.8327680000000015
20
-113.3124569999999949
11
99.9280059999999963
21
-113.1219799999999935
0
LINE
8
BLACK
6
CONTINUOUS
10
99.9280059999999963
20
-113.1219799999999935
11
100.0232439999999912
21
-113.0267419999999987
0
LINE
8
BLACK
6
CONTINUOUS
10
100.0232439999999912
20
-113.0267419999999987
11
100.213719999999995
21
-112.9315039999999897
0
LINE
8
BLACK
6
CONTINUOUS
10
100.213719999999995
20
-112.9315039999999897
11
100.4041969999999964
21
-112.9315039999999897
0
LINE
8
BLACK
6
CONTINUOUS
10
101.0708629999999886
20
-114.2648379999999975
11
101.0708629999999886
21
-112.9315039999999897
0
LINE
8
BLACK
6
CONTINUOUS
10
101.0708629999999886
20
-112.2648379999999975
11
100.9756249999999937
21
-112.3600759999999923
0
LINE
8
BLACK
6
CONTINUOUS
10
100.9756249999999937
20
-112.3600759999999923
11
101.0708629999999886
21
-112.4553140000000013
0
LINE
8
BLACK
6
CONTINUOUS
10
101.0708629999999886
20
-112.4553140000000013
11
101.1661009999999976
21
-112.3600759999999923
0
LINE
8
BLACK
6
CONTINUOUS
10
101.1661009999999976
20
-112.3600759999999923
11
101.0708629999999886
21
-112.2648379999999975
0
LINE
8
BLACK
6
CONTINUOUS
10
101.0708629999999886
20
-112.2648379999999975
11
101.0708629999999886
21
-112.4553140000000013
0
LINE
8
BLACK
6
CONTINUOUS
10
102.3089579999999899
20
-114.2648379999999975
11
102.1184820000000002
21
-114.1695999999999884
0
LINE
8
BLACK
6
CONTINUOUS
10
102.1184820000000002
20
-114.1695999999999884
11
102.0232439999999912
21
-113.9791230000000013
0
LINE
8
BLACK
6
CONTINUOUS
10
102.0232439999999912
20
-113.9791230000000013
11
102.0232439999999912
21
-112.2648379999999975
0
LINE
8
BLACK
6
CONTINUOUS
10
103.3565770000000015
20
-114.2648379999999975
11
103.1661009999999976
21
-114.1695999999999884
0
LINE
8
BLACK
6
CONTINUOUS
10
103.1661009999999976
20
-114.1695999999999884
11
103.0708629999999886
21
-113.9791230000000013
0
LINE
8
BLACK
6
CONTINUOUS
10
103.0708629999999886
20
-113.9791230000000013
11
103.0708629999999886
21
-112.2648379999999975
0
LINE
8
BLACK
6
CONTINUOUS
10
105.6422919999999976
20
-114.2648379999999975
11
105.6422919999999976
21
-112.2648379999999975
0
LINE
8
BLACK
6
CONTINUOUS
10
105.6422919999999976
20
-112.2648379999999975
11
106.3089590000000015
21
-113.6934089999999884
0
LINE
8
BLACK
6
CONTINUOUS
10
106.3089590000000015
20
-113.6934089999999884
11
106.9756249999999937
21
-112.2648379999999975
0
LINE
8
BLACK
6
CONTINUOUS
10
106.9756249999999937
20
-112.2648379999999975
11
106.9756249999999937
21
-114.2648379999999975
0
LINE
8
BLACK
6
CONTINUOUS
10
108.7851489999999899
20
-114.2648379999999975
11
108.7851489999999899
21
-113.2172190000000001
0
LINE
8
BLACK
6
CONTINUOUS
10
108.7851489999999899
20
-113.2172190000000001
11
108.6899109999999951
21
-113.0267419999999987
0
LINE
8
BLACK
6
CONTINUOUS
10
108.6899109999999951
20
-113.0267419999999987
11
108.4994349999999912
21
-112.9315039999999897
0
LINE
8
BLACK
6
CONTINUOUS
10
108.4994349999999912
20
-112.9315039999999897
11
108.1184820000000002
21
-112.9315039999999897
0
LINE
8
BLACK
6
CONTINUOUS
10
108.1184820000000002
20
-112.9315039999999897
11
107.9280059999999963
21
-113.0267419999999987
0
LINE
8
BLACK
6
CONTINUOUS
10
108.7851489999999899
20
-114.1695999999999884
11
108.5946730000000002
21
-114.2648379999999975
0
LINE
8
BLACK
6
CONTINUOUS
10
108.5946730000000002
20
-114.2648379999999975
11
108.1184820000000002
21
-114.2648379999999975
0
LINE
8
BLACK
6
CONTINUOUS
10
108.1184820000000002
20
-114.2648379999999975
11
107.9280059999999963
21
-114.1695999999999884
0
LINE
8
BLACK
6
CONTINUOUS
10
107.9280059999999963
20
-114.1695999999999884
11
107.8327680000000015
21
-113.9791230000000013
0
LINE
8
BLACK
6
CONTINUOUS
10
107.8327680000000015
20
-113.9791230000000013
11
107.8327680000000015
21
-113.7886469999999974
0
LINE
8
BLACK
6
CONTINUOUS
10
107.8327680000000015
20
-113.7886469999999974
11
107.9280059999999963
21
-113.5981709999999936
0
LINE
8
BLACK
6
CONTINUOUS
10
107.9280059999999963
20
-113.5981709999999936
11
108.1184820000000002
21
-113.5029329999999987
0
LINE
8
BLACK
6
CONTINUOUS
10
108.1184820000000002
20
-113.5029329999999987
11
108.5946730000000002
21
-113.5029329999999987
0
LINE
8
BLACK
6
CONTINUOUS
10
108.5946730000000002
20
-113.5029329999999987
11
108.7851489999999899
21
-113.4076949999999897
0
LINE
8
BLACK
6
CONTINUOUS
10
109.7375299999999925
20
-112.9315039999999897
11
109.7375299999999925
21
-114.9315039999999897
0
LINE
8
BLACK
6
CONTINUOUS
10
109.7375299999999925
20
-113.0267419999999987
11
109.9280059999999963
21
-112.9315039999999897
0
LINE
8
BLACK
6
CONTINUOUS
10
109.9280059999999963
20
-112.9315039999999897
11
110.3089590000000015
21
-112.9315039999999897
0
LINE
8
BLACK
6
CONTINUOUS
10
110.3089590000000015
20
-112.9315039999999897
11
110.4994349999999912
21
-113.0267419999999987
0
LINE
8
BLACK
6
CONTINUOUS
10
110.4994349999999912
20
-113.0267419999999987
11
110.5946730000000002
21
-113.1219799999999935
0
LINE
8
BLACK
6
CONTINUOUS
10
110.5946730000000002
20
-113.1219799999999935
11
110.6899109999999951
21
-113.3124569999999949
0
LINE
8
BLACK
6
CONTINUOUS
10
110.6899109999999951
20
-113.3124569999999949
11
110.6899109999999951
21
-113.8838849999999923
0
LINE
8
BLACK
6
CONTINUOUS
10
110.6899109999999951
20
-113.8838849999999923
11
110.5946730000000002
21
-114.0743609999999961
0
LINE
8
BLACK
6
CONTINUOUS
10
110.5946730000000002
20
-114.0743609999999961
11
110.4994349999999912
21
-114.1695999999999884
0
LINE
8
BLACK
6
CONTINUOUS
10
110.4994349999999912
20
-114.1695999999999884
11
110.3089590000000015
21
-114.2648379999999975
0
LINE
8
BLACK
6
CONTINUOUS
10
110.3089590000000015
20
-114.2648379999999975
11
109.9280059999999963
21
-114.2648379999999975
0
LINE
8
BLACK
6
CONTINUOUS
10
109.9280059999999963
20
-114.2648379999999975
11
109.7375299999999925
21
-114.1695999999999884
0
LINE
8
BLACK
6
CONTINUOUS
10
111.5470539999999886
20
-114.0743609999999961
11
111.6422919999999976
21
-114.1695999999999884
0
LINE
8
BLACK
6
CONTINUOUS
10
111.6422919999999976
20
-114.1695999999999884
11
111.5470539999999886
21
-114.2648379999999975
0
LINE
8
BLACK
6
CONTINUOUS
10
111.5470539999999886
20
-114.2648379999999975
11
111.4518159999999938
21
-114.1695999999999884
0
LINE
8
BLACK
6
CONTINUOUS
10
111.4518159999999938
20
-114.1695999999999884
11
111.5470539999999886
21
-114.0743609999999961
0
LINE
8
BLACK
6
CONTINUOUS
10
111.5470539999999886
20
-114.0743609999999961
11
111.5470539999999886
21
-114.2648379999999975
0
LINE
8
BLACK
6
CONTINUOUS
10
111.5470539999999886
20
-113.0267419999999987
11
111.6422919999999976
21
-113.1219799999999935
0
LINE
8
BLACK
6
CONTINUOUS
10
111.6422919999999976
20
-113.1219799999999935
11
111.5470539999999886
21
-113.2172190000000001
0
LINE
8
BLACK
6
CONTINUOUS
10
111.5470539999999886
20
-113.2172190000000001
11
111.4518159999999938
21
-113.1219799999999935
0
LINE
8
BLACK
6
CONTINUOUS
10
111.4518159999999938
20
-113.1219799999999935
11
111.5470539999999886
21
-113.0267419999999987
0
LINE
8
BLACK
6
CONTINUOUS
10
111.5470539999999886
20
-113.0267419999999987
11
111.5470539999999886
21
-113.2172190000000001
0
LINE
8
BLACK
6
CONTINUOUS
10
93.2249999999999943
20
-116.5499999999999972
11
95.2249999999999943
21
-118.5499999999999972
0
LINE
8
BLACK
6
CONTINUOUS
10
95.2249999999999943
20
-116.5499999999999972
11
93.2249999999999943
21
-118.5499999999999972
0
LINE
8
BLACK
6
CONTINUOUS
10
97.6422919999999976
20
-116.4648380000000003
11
98.8803869999999989
21
-116.4648380000000003
0
LINE
8
BLACK
6
CONTINUOUS
10
98.8803869999999989
20
-116.4648380000000003
11
98.213719999999995
21
-117.2267420000000016
0
LINE
8
BLACK
6
CONTINUOUS
10
98.213719999999995
20
-117.2267420000000016
11
98.4994349999999912
21
-117.2267420000000016
0
LINE
8
BLACK
6
CONTINUOUS
10
98.4994349999999912
20
-117.2267420000000016
11
98.6899109999999951
21
-117.3219799999999964
0
LINE
8
BLACK
6
CONTINUOUS
10
98.6899109999999951
20
-117.3219799999999964
11
98.7851489999999899
21
-117.4172189999999887
0
LINE
8
BLACK
6
CONTINUOUS
10
98.7851489999999899
20
-117.4172189999999887
11
98.8803869999999989
21
-117.6076949999999925
0
LINE
8
BLACK
6
CONTINUOUS
10
98.8803869999999989
20
-117.6076949999999925
11
98.8803869999999989
21
-118.0838849999999951
0
LINE
8
BLACK
6
CONTINUOUS
10
98.8803869999999989
20
-118.0838849999999951
11
98.7851489999999899
21
-118.274360999999999
0
LINE
8
BLACK
6
CONTINUOUS
10
98.7851489999999899
20
-118.274360999999999
11
98.6899109999999951
21
-118.3695999999999913
0
LINE
8
BLACK
6
CONTINUOUS
10
98.6899109999999951
20
-118.3695999999999913
11
98.4994349999999912
21
-118.4648380000000003
0
LINE
8
BLACK
6
CONTINUOUS
10
98.4994349999999912
20
-118.4648380000000003
11
97.9280059999999963
21
-118.4648380000000003
0
LINE
8
BLACK
6
CONTINUOUS
10
97.9280059999999963
20
-118.4648380000000003
11
97.7375299999999925
21
-118.3695999999999913
0
LINE
8
BLACK
6
CONTINUOUS
10
97.7375299999999925
20
-118.3695999999999913
11
97.6422919999999976
21
-118.274360999999999
0
LINE
8
BLACK
6
CONTINUOUS
10
99.7375299999999925
20
-118.274360999999999
11
99.8327680000000015
21
-118.3695999999999913
0
LINE
8
BLACK
6
CONTINUOUS
10
99.8327680000000015
20
-118.3695999999999913
11
99.7375299999999925
21
-118.4648380000000003
0
LINE
8
BLACK
6
CONTINUOUS
10
99.7375299999999925
20
-118.4648380000000003
11
99.6422919999999976
21
-118.3695999999999913
0
LINE
8
BLACK
6
CONTINUOUS
10
99.6422919999999976
20
-118.3695999999999913
11
99.7375299999999925
21
-118.274360999999999
0
LINE
8
BLACK
6
CONTINUOUS
10
99.7375299999999925
20
-118.274360999999999
11
99.7375299999999925
21
-118.4648380000000003
0
LINE
8
BLACK
6
CONTINUOUS
10
101.6422919999999976
20
-116.4648380000000003
11
100.6899109999999951
21
-116.4648380000000003
0
LINE
8
BLACK
6
CONTINUOUS
10
100.6899109999999951
20
-116.4648380000000003
11
100.5946730000000002
21
-117.4172189999999887
0
LINE
8
BLACK
6
CONTINUOUS
10
100.5946730000000002
20
-117.4172189999999887
11
100.6899109999999951
21
-117.3219799999999964
0
LINE
8
BLACK
6
CONTINUOUS
10
100.6899109999999951
20
-117.3219799999999964
11
100.8803869999999989
21
-117.2267420000000016
0
LINE
8
BLACK
6
CONTINUOUS
10
100.8803869999999989
20
-117.2267420000000016
11
101.356577999999999
21
-117.2267420000000016
0
LINE
8
BLACK
6
CONTINUOUS
10
101.356577999999999
20
-117.2267420000000016
11
101.5470539999999886
21
-117.3219799999999964
0
LINE
8
BLACK
6
CONTINUOUS
10
101.5470539999999886
20
-117.3219799999999964
11
101.6422919999999976
21
-117.4172189999999887
0
LINE
8
BLACK
6
CONTINUOUS
10
101.6422919999999976
20
-117.4172189999999887
11
101.7375299999999925
21
-117.6076949999999925
0
LINE
8
BLACK
6
CONTINUOUS
10
101.7375299999999925
20
-117.6076949999999925
11
101.7375299999999925
21
-118.0838849999999951
0
LINE
8
BLACK
6
CONTINUOUS
10
101.7375299999999925
20
-118.0838849999999951
11
101.6422919999999976
21
-118.274360999999999
0
LINE
8
BLACK
6
CONTINUOUS
10
101.6422919999999976
20
-118.274360999999999
11
101.5470539999999886
21
-118.3695999999999913
0
LINE
8
BLACK
6
CONTINUOUS
10
101.5470539999999886
20
-118.3695999999999913
11
101.356577999999999
21
-118.4648380000000003
0
LINE
8
BLACK
6
CONTINUOUS
10
101.356577999999999
20
-118.4648380000000003
11
100.8803869999999989
21
-118.4648380000000003
0
LINE
8
BLACK
6
CONTINUOUS
10
100.8803869999999989
20
-118.4648380000000003
11
100.6899109999999951
21
-118.3695999999999913
0
LINE
8
BLACK
6
CONTINUOUS
10
100.6899109999999951
20
-118.3695999999999913
11
100.5946730000000002
21
-118.274360999999999
0
LINE
8
BLACK
6
CONTINUOUS
10
102.9756249999999937
20
-116.4648380000000003
11
103.1661019999999951
21
-116.4648380000000003
0
LINE
8
BLACK
6
CONTINUOUS
10
103.1661019999999951
20
-116.4648380000000003
11
103.356577999999999
21
-116.5600759999999951
0
LINE
8
BLACK
6
CONTINUOUS
10
103.356577999999999
20
-116.5600759999999951
11
103.4518159999999938
21
-116.65531399999999
0
LINE
8
BLACK
6
CONTINUOUS
10
103.4518159999999938
20
-116.65531399999999
11
103.5470539999999886
21
-116.8457899999999938
0
LINE
8
BLACK
6
CONTINUOUS
10
103.5470539999999886
20
-116.8457899999999938
11
103.6422919999999976
21
-117.2267420000000016
0
LINE
8
BLACK
6
CONTINUOUS
10
103.6422919999999976
20
-117.2267420000000016
11
103.6422919999999976
21
-117.7029330000000016
0
LINE
8
BLACK
6
CONTINUOUS
10
103.6422919999999976
20
-117.7029330000000016
11
103.5470539999999886
21
-118.0838849999999951
0
LINE
8
BLACK
6
CONTINUOUS
10
103.5470539999999886
20
-118.0838849999999951
11
103.4518159999999938
21
-118.274360999999999
0
LINE
8
BLACK
6
CONTINUOUS
10
103.4518159999999938
20
-118.274360999999999
11
103.356577999999999
21
-118.3695999999999913
0
LINE
8
BLACK
6
CONTINUOUS
10
103.356577999999999
20
-118.3695999999999913
11
103.1661019999999951
21
-118.4648380000000003
0
LINE
8
BLACK
6
CONTINUOUS
10
103.1661019999999951
20
-118.4648380000000003
11
102.9756249999999937
21
-118.4648380000000003
0
LINE
8
BLACK
6
CONTINUOUS
10
102.9756249999999937
20
-118.4648380000000003
11
102.7851489999999899
21
-118.3695999999999913
0
LINE
8
BLACK
6
CONTINUOUS
10
102.7851489999999899
20
-118.3695999999999913
11
102.6899109999999951
21
-118.274360999999999
0
LINE
8
BLACK
6
CONTINUOUS
10
102.6899109999999951
20
-118.274360999999999
11
102.5946730000000002
21
-118.0838849999999951
0
LINE
8
BLACK
6
CONTINUOUS
10
102.5946730000000002
20
-118.0838849999999951
11
102.4994349999999912
21
-117.7029330000000016
0
LINE
8
BLACK
6
CONTINUOUS
10
102.4994349999999912
20
-117.7029330000000016
11
102.4994349999999912
21
-117.2267420000000016
0
LINE
8
BLACK
6
CONTINUOUS
10
102.4994349999999912
20
-117.2267420000000016
11
102.5946730000000002
21
-116.8457899999999938
0
LINE
8
BLACK
6
CONTINUOUS
10
102.5946730000000002
20
-116.8457899999999938
11
102.6899109999999951
21
-116.65531399999999
0
LINE
8
BLACK
6
CONTINUOUS
10
102.6899109999999951
20
-116.65531399999999
11
102.7851489999999899
21
-116.5600759999999951
0
LINE
8
BLACK
6
CONTINUOUS
10
102.7851489999999899
20
-116.5600759999999951
11
102.9756249999999937
21
-116.4648380000000003
0
LINE
8
BLACK
6
CONTINUOUS
10
104.8803869999999989
20
-116.4648380000000003
11
105.0708640000000003
21
-116.4648380000000003
0
LINE
8
BLACK
6
CONTINUOUS
10
105.0708640000000003
20
-116.4648380000000003
11
105.2613399999999899
21
-116.5600759999999951
0
LINE
8
BLACK
6
CONTINUOUS
10
105.2613399999999899
20
-116.5600759999999951
11
105.356577999999999
21
-116.65531399999999
0
LINE
8
BLACK
6
CONTINUOUS
10
105.356577999999999
20
-116.65531399999999
11
105.4518159999999938
21
-116.8457899999999938
0
LINE
8
BLACK
6
CONTINUOUS
10
105.4518159999999938
20
-116.8457899999999938
11
105.5470539999999886
21
-117.2267420000000016
0
LINE
8
BLACK
6
CONTINUOUS
10
105.5470539999999886
20
-117.2267420000000016
11
105.5470539999999886
21
-117.7029330000000016
0
LINE
8
BLACK
6
CONTINUOUS
10
105.5470539999999886
20
-117.7029330000000016
11
105.4518159999999938
21
-118.0838849999999951
0
LINE
8
BLACK
6
CONTINUOUS
10
105.4518159999999938
20
-118.0838849999999951
11
105.356577999999999
21
-118.274360999999999
0
LINE
8
BLACK
6
CONTINUOUS
10
105.356577999999999
20
-118.274360999999999
11
105.2613399999999899
21
-118.3695999999999913
0
LINE
8
BLACK
6
CONTINUOUS
10
105.2613399999999899
20
-118.3695999999999913
11
105.0708640000000003
21
-118.4648380000000003
0
LINE
8
BLACK
6
CONTINUOUS
10
105.0708640000000003
20
-118.4648380000000003
11
104.8803869999999989
21
-118.4648380000000003
0
LINE
8
BLACK
6
CONTINUOUS
10
104.8803869999999989
20
-118.4648380000000003
11
104.6899109999999951
21
-118.3695999999999913
0
LINE
8
BLACK
6
CONTINUOUS
10
104.6899109999999951
20
-118.3695999999999913
11
104.5946730000000002
21
-118.274360999999999
0
LINE
8
BLACK
6
CONTINUOUS
10
104.5946730000000002
20
-118.274360999999999
11
104.4994349999999912
21
-118.0838849999999951
0
LINE
8
BLACK
6
CONTINUOUS
10
104.4994349999999912
20
-118.0838849999999951
11
104.4041969999999964
21
-117.7029330000000016
0
LINE
8
BLACK
6
CONTINUOUS
10
104.4041969999999964
20
-117.7029330000000016
11
104.4041969999999964
21
-117.2267420000000016
0
LINE
8
BLACK
6
CONTINUOUS
10
104.4041969999999964
20
-117.2267420000000016
11
104.4994349999999912
21
-116.8457899999999938
0
LINE
8
BLACK
6
CONTINUOUS
10
104.4994349999999912
20
-116.8457899999999938
11
104.5946730000000002
21
-116.65531399999999
0
LINE
8
BLACK
6
CONTINUOUS
10
104.5946730000000002
20
-116.65531399999999
11
104.6899109999999951
21
-116.5600759999999951
0
LINE
8
BLACK
6
CONTINUOUS
10
104.6899109999999951
20
-116.5600759999999951
11
104.8803869999999989
21
-116.4648380000000003
0
LINE
8
BLACK
6
CONTINUOUS
10
106.4041969999999964
20
-118.4648380000000003
11
106.4041969999999964
21
-117.1315039999999925
0
LINE
8
BLACK
6
CONTINUOUS
10
106.4041969999999964
20
-117.3219799999999964
11
106.4994349999999912
21
-117.2267420000000016
0
LINE
8
BLACK
6
CONTINUOUS
10
106.4994349999999912
20
-117.2267420000000016
11
106.6899109999999951
21
-117.1315039999999925
0
LINE
8
BLACK
6
CONTINUOUS
10
106.6899109999999951
20
-117.1315039999999925
11
106.9756259999999912
21
-117.1315039999999925
0
LINE
8
BLACK
6
CONTINUOUS
10
106.9756259999999912
20
-117.1315039999999925
11
107.1661019999999951
21
-117.2267420000000016
0
LINE
8
BLACK
6
CONTINUOUS
10
107.1661019999999951
20
-117.2267420000000016
11
107.2613399999999899
21
-117.4172189999999887
0
LINE
8
BLACK
6
CONTINUOUS
10
107.2613399999999899
20
-117.4172189999999887
11
107.2613399999999899
21
-118.4648380000000003
0
LINE
8
BLACK
6
CONTINUOUS
10
107.2613399999999899
20
-117.4172189999999887
11
107.356577999999999
21
-117.2267420000000016
0
LINE
8
BLACK
6
CONTINUOUS
10
107.356577999999999
20
-117.2267420000000016
11
107.5470539999999886
21
-117.1315039999999925
0
LINE
8
BLACK
6
CONTINUOUS
10
107.5470539999999886
20
-117.1315039999999925
11
107.8327680000000015
21
-117.1315039999999925
0
LINE
8
BLACK
6
CONTINUOUS
10
107.8327680000000015
20
-117.1315039999999925
11
108.0232449999999886
21
-117.2267420000000016
0
LINE
8
BLACK
6
CONTINUOUS
10
108.0232449999999886
20
-117.2267420000000016
11
108.1184829999999977
21
-117.4172189999999887
0
LINE
8
BLACK
6
CONTINUOUS
10
108.1184829999999977
20
-117.4172189999999887
11
108.1184829999999977
21
-118.4648380000000003
0
LINE
8
BLACK
6
CONTINUOUS
10
109.0708640000000003
20
-118.4648380000000003
11
109.0708640000000003
21
-117.1315039999999925
0
LINE
8
BLACK
6
CONTINUOUS
10
109.0708640000000003
20
-117.3219799999999964
11
109.1661019999999951
21
-117.2267420000000016
0
LINE
8
BLACK
6
CONTINUOUS
10
109.1661019999999951
20
-117.2267420000000016
11
109.356577999999999
21
-117.1315039999999925
0
LINE
8
BLACK
6
CONTINUOUS
10
109.356577999999999
20
-117.1315039999999925
11
109.6422929999999951
21
-117.1315039999999925
0
LINE
8
BLACK
6
CONTINUOUS
10
109.6422929999999951
20
-117.1315039999999925
11
109.832768999999999
21
-117.2267420000000016
0
LINE
8
BLACK
6
CONTINUOUS
10
109.832768999999999
20
-117.2267420000000016
11
109.9280069999999938
21
-117.4172189999999887
0
LINE
8
BLACK
6
CONTINUOUS
10
109.9280069999999938
20
-117.4172189999999887
11
109.9280069999999938
21
-118.4648380000000003
0
LINE
8
BLACK
6
CONTINUOUS
10
109.9280069999999938
20
-117.4172189999999887
11
110.0232449999999886
21
-117.2267420000000016
0
LINE
8
BLACK
6
CONTINUOUS
10
110.0232449999999886
20
-117.2267420000000016
11
110.2137209999999925
21
-117.1315039999999925
0
LINE
8
BLACK
6
CONTINUOUS
10
110.2137209999999925
20
-117.1315039999999925
11
110.4994349999999912
21
-117.1315039999999925
0
LINE
8
BLACK
6
CONTINUOUS
10
110.4994349999999912
20
-117.1315039999999925
11
110.6899119999999925
21
-117.2267420000000016
0
LINE
8
BLACK
6
CONTINUOUS
10
110.6899119999999925
20
-117.2267420000000016
11
110.7851500000000016
21
-117.4172189999999887
0
LINE
8
BLACK
6
CONTINUOUS
10
110.7851500000000016
20
-117.4172189999999887
11
110.7851500000000016
21
-118.4648380000000003
0
LINE
8
BLACK
6
CONTINUOUS
10
114.6899119999999925
20
-116.3695999999999913
11
112.9756269999999887
21
-118.9410279999999887
0
LINE
8
BLACK
6
CONTINUOUS
10
117.2613410000000016
20
-116.4648380000000003
11
117.4518179999999887
21
-116.4648380000000003
0
LINE
8
BLACK
6
CONTINUOUS
10
117.4518179999999887
20
-116.4648380000000003
11
117.6422939999999926
21
-116.5600759999999951
0
LINE
8
BLACK
6
CONTINUOUS
10
117.6422939999999926
20
-116.5600759999999951
11
117.7375320000000016
21
-116.65531399999999
0
LINE
8
BLACK
6
CONTINUOUS
10
117.7375320000000016
20
-116.65531399999999
11
117.8327699999999965
21
-116.8457899999999938
0
LINE
8
BLACK
6
CONTINUOUS
10
117.8327699999999965
20
-116.8457899999999938
11
117.9280079999999913
21
-117.2267420000000016
0
LINE
8
BLACK
6
CONTINUOUS
10
117.9280079999999913
20
-117.2267420000000016
11
117.9280079999999913
21
-117.7029330000000016
0
LINE
8
BLACK
6
CONTINUOUS
10
117.9280079999999913
20
-117.7029330000000016
11
117.8327699999999965
21
-118.0838849999999951
0
LINE
8
BLACK
6
CONTINUOUS
10
117.8327699999999965
20
-118.0838849999999951
11
117.7375320000000016
21
-118.274360999999999
0
LINE
8
BLACK
6
CONTINUOUS
10
117.7375320000000016
20
-118.274360999999999
11
117.6422939999999926
21
-118.3695999999999913
0
LINE
8
BLACK
6
CONTINUOUS
10
117.6422939999999926
20
-118.3695999999999913
11
117.4518179999999887
21
-118.4648380000000003
0
LINE
8
BLACK
6
CONTINUOUS
10
117.4518179999999887
20
-118.4648380000000003
11
117.2613410000000016
21
-118.4648380000000003
0
LINE
8
BLACK
6
CONTINUOUS
10
117.2613410000000016
20
-118.4648380000000003
11
117.0708649999999977
21
-118.3695999999999913
0
LINE
8
BLACK
6
CONTINUOUS
10
117.0708649999999977
20
-118.3695999999999913
11
116.9756269999999887
21
-118.274360999999999
0
LINE
8
BLACK
6
CONTINUOUS
10
116.9756269999999887
20
-118.274360999999999
11
116.8803889999999939
21
-118.0838849999999951
0
LINE
8
BLACK
6
CONTINUOUS
10
116.8803889999999939
20
-118.0838849999999951
11
116.785150999999999
21
-117.7029330000000016
0
LINE
8
BLACK
6
CONTINUOUS
10
116.785150999999999
20
-117.7029330000000016
11
116.785150999999999
21
-117.2267420000000016
0
LINE
8
BLACK
6
CONTINUOUS
10
116.785150999999999
20
-117.2267420000000016
11
116.8803889999999939
21
-116.8457899999999938
0
LINE
8
BLACK
6
CONTINUOUS
10
116.8803889999999939
20
-116.8457899999999938
11
116.9756269999999887
21
-116.65531399999999
0
LINE
8
BLACK
6
CONTINUOUS
10
116.9756269999999887
20
-116.65531399999999
11
117.0708649999999977
21
-116.5600759999999951
0
LINE
8
BLACK
6
CONTINUOUS
10
117.0708649999999977
20
-116.5600759999999951
11
117.2613410000000016
21
-116.4648380000000003
0
LINE
8
BLACK
6
CONTINUOUS
10
118.785150999999999
20
-118.274360999999999
11
118.8803889999999939
21
-118.3695999999999913
0
LINE
8
BLACK
6
CONTINUOUS
10
118.8803889999999939
20
-118.3695999999999913
11
118.785150999999999
21
-118.4648380000000003
0
LINE
8
BLACK
6
CONTINUOUS
10
118.785150999999999
20
-118.4648380000000003
11
118.68991299999999
21
-118.3695999999999913
0
LINE
8
BLACK
6
CONTINUOUS
10
118.68991299999999
20
-118.3695999999999913
11
118.785150999999999
21
-118.274360999999999
0
LINE
8
BLACK
6
CONTINUOUS
10
118.785150999999999
20
-118.274360999999999
11
118.785150999999999
21
-118.4648380000000003
0
LINE
8
BLACK
6
CONTINUOUS
10
120.785150999999999
20
-118.4648380000000003
11
119.6422939999999926
21
-118.4648380000000003
0
LINE
8
BLACK
6
CONTINUOUS
10
120.21372199999999
20
-118.4648380000000003
11
120.21372199999999
21
-116.4648380000000003
0
LINE
8
BLACK
6
CONTINUOUS
10
120.21372199999999
20
-116.4648380000000003
11
120.0232460000000003
21
-116.750551999999999
0
LINE
8
BLACK
6
CONTINUOUS
10
120.0232460000000003
20
-116.750551999999999
11
119.8327699999999965
21
-116.9410279999999887
0
LINE
8
BLACK
6
CONTINUOUS
10
119.8327699999999965
20
-116.9410279999999887
11
119.6422939999999926
21
-117.0362659999999977
0
LINE
8
BLACK
6
CONTINUOUS
10
121.4518179999999887
20
-116.4648380000000003
11
122.68991299999999
21
-116.4648380000000003
0
LINE
8
BLACK
6
CONTINUOUS
10
122.68991299999999
20
-116.4648380000000003
11
122.0232460000000003
21
-117.2267420000000016
0
LINE
8
BLACK
6
CONTINUOUS
10
122.0232460000000003
20
-117.2267420000000016
11
122.3089609999999965
21
-117.2267420000000016
0
LINE
8
BLACK
6
CONTINUOUS
10
122.3089609999999965
20
-117.2267420000000016
11
122.4994370000000004
21
-117.3219799999999964
0
LINE
8
BLACK
6
CONTINUOUS
10
122.4994370000000004
20
-117.3219799999999964
11
122.5946749999999952
21
-117.4172189999999887
0
LINE
8
BLACK
6
CONTINUOUS
10
122.5946749999999952
20
-117.4172189999999887
11
122.68991299999999
21
-117.6076949999999925
0
LINE
8
BLACK
6
CONTINUOUS
10
122.68991299999999
20
-117.6076949999999925
11
122.68991299999999
21
-118.0838849999999951
0
LINE
8
BLACK
6
CONTINUOUS
10
122.68991299999999
20
-118.0838849999999951
11
122.5946749999999952
21
-118.274360999999999
0
LINE
8
BLACK
6
CONTINUOUS
10
122.5946749999999952
20
-118.274360999999999
11
122.4994370000000004
21
-118.3695999999999913
0
LINE
8
BLACK
6
CONTINUOUS
10
122.4994370000000004
20
-118.3695999999999913
11
122.3089609999999965
21
-118.4648380000000003
0
LINE
8
BLACK
6
CONTINUOUS
10
122.3089609999999965
20
-118.4648380000000003
11
121.7375319999999874
21
-118.4648380000000003
0
LINE
8
BLACK
6
CONTINUOUS
10
121.7375319999999874
20
-118.4648380000000003
11
121.5470559999999978
21
-118.3695999999999913
0
LINE
8
BLACK
6
CONTINUOUS
10
121.5470559999999978
20
-118.3695999999999913
11
121.4518179999999887
21
-118.274360999999999
0
LINE
8
BLACK
6
CONTINUOUS
10
123.3565799999999939
20
-116.4648380000000003
11
124.68991299999999
21
-116.4648380000000003
0
LINE
8
BLACK
6
CONTINUOUS
10
124.68991299999999
20
-116.4648380000000003
11
123.8327699999999965
21
-118.4648380000000003
0
LINE
8
BLACK
6
CONTINUOUS
10
125.7375319999999874
20
-117.3219799999999964
11
125.5470559999999978
21
-117.2267420000000016
0
LINE
8
BLACK
6
CONTINUOUS
10
125.5470559999999978
20
-117.2267420000000016
11
125.4518179999999887
21
-117.1315039999999925
0
LINE
8
BLACK
6
CONTINUOUS
10
125.4518179999999887
20
-117.1315039999999925
11
125.3565799999999939
21
-116.9410279999999887
0
LINE
8
BLACK
6
CONTINUOUS
10
125.3565799999999939
20
-116.9410279999999887
11
125.3565799999999939
21
-116.8457899999999938
0
LINE
8
BLACK
6
CONTINUOUS
10
125.3565799999999939
20
-116.8457899999999938
11
125.4518179999999887
21
-116.65531399999999
0
LINE
8
BLACK
6
CONTINUOUS
10
125.4518179999999887
20
-116.65531399999999
11
125.5470559999999978
21
-116.5600759999999951
0
LINE
8
BLACK
6
CONTINUOUS
10
125.5470559999999978
20
-116.5600759999999951
11
125.7375319999999874
21
-116.4648380000000003
0
LINE
8
BLACK
6
CONTINUOUS
10
125.7375319999999874
20
-116.4648380000000003
11
126.1184849999999926
21
-116.4648380000000003
0
LINE
8
BLACK
6
CONTINUOUS
10
126.1184849999999926
20
-116.4648380000000003
11
126.3089609999999965
21
-116.5600759999999951
0
LINE
8
BLACK
6
CONTINUOUS
10
126.3089609999999965
20
-116.5600759999999951
11
126.4041989999999913
21
-116.65531399999999
0
LINE
8
BLACK
6
CONTINUOUS
10
126.4041989999999913
20
-116.65531399999999
11
126.4994370000000004
21
-116.8457899999999938
0
LINE
8
BLACK
6
CONTINUOUS
10
126.4994370000000004
20
-116.8457899999999938
11
126.4994370000000004
21
-116.9410279999999887
0
LINE
8
BLACK
6
CONTINUOUS
10
126.4994370000000004
20
-116.9410279999999887
11
126.4041989999999913
21
-117.1315039999999925
0
LINE
8
BLACK
6
CONTINUOUS
10
126.4041989999999913
20
-117.1315039999999925
11
126.3089609999999965
21
-117.2267420000000016
0
LINE
8
BLACK
6
CONTINUOUS
10
126.3089609999999965
20
-117.2267420000000016
11
126.1184849999999926
21
-117.3219799999999964
0
LINE
8
BLACK
6
CONTINUOUS
10
126.1184849999999926
20
-117.3219799999999964
11
125.7375319999999874
21
-117.3219799999999964
0
LINE
8
BLACK
6
CONTINUOUS
10
125.7375319999999874
20
-117.3219799999999964
11
125.5470559999999978
21
-117.4172189999999887
0
LINE
8
BLACK
6
CONTINUOUS
10
125.5470559999999978
20
-117.4172189999999887
11
125.4518179999999887
21
-117.5124569999999977
0
LINE
8
BLACK
6
CONTINUOUS
10
125.4518179999999887
20
-117.5124569999999977
11
125.3565799999999939
21
-117.7029330000000016
0
LINE
8
BLACK
6
CONTINUOUS
10
125.3565799999999939
20
-117.7029330000000016
11
125.3565799999999939
21
-118.0838849999999951
0
LINE
8
BLACK
6
CONTINUOUS
10
125.3565799999999939
20
-118.0838849999999951
11
125.4518179999999887
21
-118.274360999999999
0
LINE
8
BLACK
6
CONTINUOUS
10
125.4518179999999887
20
-118.274360999999999
11
125.5470559999999978
21
-118.3695999999999913
0
LINE
8
BLACK
6
CONTINUOUS
10
125.5470559999999978
20
-118.3695999999999913
11
125.7375319999999874
21
-118.4648380000000003
0
LINE
8
BLACK
6
CONTINUOUS
10
125.7375319999999874
20
-118.4648380000000003
11
126.1184849999999926
21
-118.4648380000000003
0
LINE
8
BLACK
6
CONTINUOUS
10
126.1184849999999926
20
-118.4648380000000003
11
126.3089609999999965
21
-118.3695999999999913
0
LINE
8
BLACK
6
CONTINUOUS
10
126.3089609999999965
20
-118.3695999999999913
11
126.4041989999999913
21
-118.274360999999999
0
LINE
8
BLACK
6
CONTINUOUS
10
126.4041989999999913
20
-118.274360999999999
11
126.4994370000000004
21
-118.0838849999999951
0
LINE
8
BLACK
6
CONTINUOUS
10
126.4994370000000004
20
-118.0838849999999951
11
126.4994370000000004
21
-117.7029330000000016
0
LINE
8
BLACK
6
CONTINUOUS
10
126.4994370000000004
20
-117.7029330000000016
11
126.4041989999999913
21
-117.5124569999999977
0
LINE
8
BLACK
6
CONTINUOUS
10
126.4041989999999913
20
-117.5124569999999977
11
126.3089609999999965
21
-117.4172189999999887
0
LINE
8
BLACK
6
CONTINUOUS
10
126.3089609999999965
20
-117.4172189999999887
11
126.1184849999999926
21
-117.3219799999999964
0
LINE
8
BLACK
6
CONTINUOUS
10
127.2613419999999991
20
-116.4648380000000003
11
127.2613419999999991
21
-116.8457899999999938
0
LINE
8
BLACK
6
CONTINUOUS
10
128.0232469999999978
20
-116.4648380000000003
11
128.0232469999999978
21
-116.8457899999999938
0
LINE
8
BLACK
6
CONTINUOUS
10
130.9756289999999979
20
-119.2267420000000016
11
130.8803900000000056
21
-119.1315039999999925
0
LINE
8
BLACK
6
CONTINUOUS
10
130.8803900000000056
20
-119.1315039999999925
11
130.6899139999999875
21
-118.8457899999999938
0
LINE
8
BLACK
6
CONTINUOUS
10
130.6899139999999875
20
-118.8457899999999938
11
130.5946759999999927
21
-118.65531399999999
0
LINE
8
BLACK
6
CONTINUOUS
10
130.5946759999999927
20
-118.65531399999999
11
130.4994379999999978
21
-118.3695999999999913
0
LINE
8
BLACK
6
CONTINUOUS
10
130.4994379999999978
20
-118.3695999999999913
11
130.404200000000003
21
-117.8934089999999912
0
LINE
8
BLACK
6
CONTINUOUS
10
130.404200000000003
20
-117.8934089999999912
11
130.404200000000003
21
-117.5124569999999977
0
LINE
8
BLACK
6
CONTINUOUS
10
130.404200000000003
20
-117.5124569999999977
11
130.4994379999999978
21
-117.0362659999999977
0
LINE
8
BLACK
6
CONTINUOUS
10
130.4994379999999978
20
-117.0362659999999977
11
130.5946759999999927
21
-116.750551999999999
0
LINE
8
BLACK
6
CONTINUOUS
10
130.5946759999999927
20
-116.750551999999999
11
130.6899139999999875
21
-116.5600759999999951
0
LINE
8
BLACK
6
CONTINUOUS
10
130.6899139999999875
20
-116.5600759999999951
11
130.8803900000000056
21
-116.274360999999999
0
LINE
8
BLACK
6
CONTINUOUS
10
130.8803900000000056
20
-116.274360999999999
11
130.9756289999999979
21
-116.1791229999999899
0
LINE
8
BLACK
6
CONTINUOUS
10
132.7851519999999823
20
-118.4648380000000003
11
131.6422949999999901
21
-118.4648380000000003
0
LINE
8
BLACK
6
CONTINUOUS
10
132.2137229999999875
20
-118.4648380000000003
11
132.2137229999999875
21
-116.4648380000000003
0
LINE
8
BLACK
6
CONTINUOUS
10
132.2137229999999875
20
-116.4648380000000003
11
132.0232469999999978
21
-116.750551999999999
0
LINE
8
BLACK
6
CONTINUOUS
10
132.0232469999999978
20
-116.750551999999999
11
131.8327710000000081
21
-116.9410279999999887
0
LINE
8
BLACK
6
CONTINUOUS
10
131.8327710000000081
20
-116.9410279999999887
11
131.6422949999999901
21
-117.0362659999999977
0
LINE
8
BLACK
6
CONTINUOUS
10
135.1661049999999875
20
-118.4648380000000003
11
135.1661049999999875
21
-116.4648380000000003
0
LINE
8
BLACK
6
CONTINUOUS
10
136.0232479999999953
20
-118.4648380000000003
11
136.0232479999999953
21
-117.4172189999999887
0
LINE
8
BLACK
6
CONTINUOUS
10
136.0232479999999953
20
-117.4172189999999887
11
135.9280100000000004
21
-117.2267420000000016
0
LINE
8
BLACK
6
CONTINUOUS
10
135.9280100000000004
20
-117.2267420000000016
11
135.7375339999999824
21
-117.1315039999999925
0
LINE
8
BLACK
6
CONTINUOUS
10
135.7375339999999824
20
-117.1315039999999925
11
135.4518190000000004
21
-117.1315039999999925
0
LINE
8
BLACK
6
CONTINUOUS
10
135.4518190000000004
20
-117.1315039999999925
11
135.2613429999999823
21
-117.2267420000000016
0
LINE
8
BLACK
6
CONTINUOUS
10
135.2613429999999823
20
-117.2267420000000016
11
135.1661049999999875
21
-117.3219799999999964
0
LINE
8
BLACK
6
CONTINUOUS
10
137.2613429999999823
20
-118.4648380000000003
11
137.0708669999999927
21
-118.3695999999999913
0
LINE
8
BLACK
6
CONTINUOUS
10
137.0708669999999927
20
-118.3695999999999913
11
136.9756289999999979
21
-118.274360999999999
0
LINE
8
BLACK
6
CONTINUOUS
10
136.9756289999999979
20
-118.274360999999999
11
136.880391000000003
21
-118.0838849999999951
0
LINE
8
BLACK
6
CONTINUOUS
10
136.880391000000003
20
-118.0838849999999951
11
136.880391000000003
21
-117.5124569999999977
0
LINE
8
BLACK
6
CONTINUOUS
10
136.880391000000003
20
-117.5124569999999977
11
136.9756289999999979
21
-117.3219799999999964
0
LINE
8
BLACK
6
CONTINUOUS
10
136.9756289999999979
20
-117.3219799999999964
11
137.0708669999999927
21
-117.2267420000000016
0
LINE
8
BLACK
6
CONTINUOUS
10
137.0708669999999927
20
-117.2267420000000016
11
137.2613429999999823
21
-117.1315039999999925
0
LINE
8
BLACK
6
CONTINUOUS
10
137.2613429999999823
20
-117.1315039999999925
11
137.5470579999999927
21
-117.1315039999999925
0
LINE
8
BLACK
6
CONTINUOUS
10
137.5470579999999927
20
-117.1315039999999925
11
137.7375339999999824
21
-117.2267420000000016
0
LINE
8
BLACK
6
CONTINUOUS
10
137.7375339999999824
20
-117.2267420000000016
11
137.8327720000000056
21
-117.3219799999999964
0
LINE
8
BLACK
6
CONTINUOUS
10
137.8327720000000056
20
-117.3219799999999964
11
137.9280100000000004
21
-117.5124569999999977
0
LINE
8
BLACK
6
CONTINUOUS
10
137.9280100000000004
20
-117.5124569999999977
11
137.9280100000000004
21
-118.0838849999999951
0
LINE
8
BLACK
6
CONTINUOUS
10
137.9280100000000004
20
-118.0838849999999951
11
137.8327720000000056
21
-118.274360999999999
0
LINE
8
BLACK
6
CONTINUOUS
10
137.8327720000000056
20
-118.274360999999999
11
137.7375339999999824
21
-118.3695999999999913
0
LINE
8
BLACK
6
CONTINUOUS
10
137.7375339999999824
20
-118.3695999999999913
11
137.5470579999999927
21
-118.4648380000000003
0
LINE
8
BLACK
6
CONTINUOUS
10
137.5470579999999927
20
-118.4648380000000003
11
137.2613429999999823
21
-118.4648380000000003
0
LINE
8
BLACK
6
CONTINUOUS
10
139.0708669999999927
20
-118.4648380000000003
11
138.880391000000003
21
-118.3695999999999913
0
LINE
8
BLACK
6
CONTINUOUS
10
138.880391000000003
20
-118.3695999999999913
11
138.7851529999999798
21
-118.1791229999999899
0
LINE
8
BLACK
6
CONTINUOUS
10
138.7851529999999798
20
-118.1791229999999899
11
138.7851529999999798
21
-116.4648380000000003
0
LINE
8
BLACK
6
CONTINUOUS
10
140.5946769999999901
20
-118.3695999999999913
11
140.4042010000000005
21
-118.4648380000000003
0
LINE
8
BLACK
6
CONTINUOUS
10
140.4042010000000005
20
-118.4648380000000003
11
140.0232479999999953
21
-118.4648380000000003
0
LINE
8
BLACK
6
CONTINUOUS
10
140.0232479999999953
20
-118.4648380000000003
11
139.8327720000000056
21
-118.3695999999999913
0
LINE
8
BLACK
6
CONTINUOUS
10
139.8327720000000056
20
-118.3695999999999913
11
139.7375339999999824
21
-118.1791229999999899
0
LINE
8
BLACK
6
CONTINUOUS
10
139.7375339999999824
20
-118.1791229999999899
11
139.7375339999999824
21
-117.4172189999999887
0
LINE
8
BLACK
6
CONTINUOUS
10
139.7375339999999824
20
-117.4172189999999887
11
139.8327720000000056
21
-117.2267420000000016
0
LINE
8
BLACK
6
CONTINUOUS
10
139.8327720000000056
20
-117.2267420000000016
11
140.0232479999999953
21
-117.1315039999999925
0
LINE
8
BLACK
6
CONTINUOUS
10
140.0232479999999953
20
-117.1315039999999925
11
140.4042010000000005
21
-117.1315039999999925
0
LINE
8
BLACK
6
CONTINUOUS
10
140.4042010000000005
20
-117.1315039999999925
11
140.5946769999999901
21
-117.2267420000000016
0
LINE
8
BLACK
6
CONTINUOUS
10
140.5946769999999901
20
-117.2267420000000016
11
140.689914999999985
21
-117.4172189999999887
0
LINE
8
BLACK
6
CONTINUOUS
10
140.689914999999985
20
-117.4172189999999887
11
140.689914999999985
21
-117.6076949999999925
0
LINE
8
BLACK
6
CONTINUOUS
10
140.689914999999985
20
-117.6076949999999925
11
139.7375339999999824
21
-117.7981709999999964
0
LINE
8
BLACK
6
CONTINUOUS
10
141.3565820000000031
20
-119.2267420000000016
11
141.4518199999999979
21
-119.1315039999999925
0
LINE
8
BLACK
6
CONTINUOUS
10
141.4518199999999979
20
-119.1315039999999925
11
141.6422959999999875
21
-118.8457899999999938
0
LINE
8
BLACK
6
CONTINUOUS
10
141.6422959999999875
20
-118.8457899999999938
11
141.7375339999999824
21
-118.65531399999999
0
LINE
8
BLACK
6
CONTINUOUS
10
141.7375339999999824
20
-118.65531399999999
11
141.8327720000000056
21
-118.3695999999999913
0
LINE
8
BLACK
6
CONTINUOUS
10
141.8327720000000056
20
-118.3695999999999913
11
141.9280100000000004
21
-117.8934089999999912
0
LINE
8
BLACK
6
CONTINUOUS
10
141.9280100000000004
20
-117.8934089999999912
11
141.9280100000000004
21
-117.5124569999999977
0
LINE
8
BLACK
6
CONTINUOUS
10
141.9280100000000004
20
-117.5124569999999977
11
141.8327720000000056
21
-117.0362659999999977
0
LINE
8
BLACK
6
CONTINUOUS
10
141.8327720000000056
20
-117.0362659999999977
11
141.7375339999999824
21
-116.750551999999999
0
LINE
8
BLACK
6
CONTINUOUS
10
141.7375339999999824
20
-116.750551999999999
11
141.6422959999999875
21
-116.5600759999999951
0
LINE
8
BLACK
6
CONTINUOUS
10
141.6422959999999875
20
-116.5600759999999951
11
141.4518199999999979
21
-116.274360999999999
0
LINE
8
BLACK
6
CONTINUOUS
10
141.4518199999999979
20
-116.274360999999999
11
141.3565820000000031
21
-116.1791229999999899
0
LINE
8
BLACK
6
CONTINUOUS
10
144.9756299999999953
20
-119.2267420000000016
11
144.880391000000003
21
-119.1315039999999925
0
LINE
8
BLACK
6
CONTINUOUS
10
144.880391000000003
20
-119.1315039999999925
11
144.689914999999985
21
-118.8457899999999938
0
LINE
8
BLACK
6
CONTINUOUS
10
144.689914999999985
20
-118.8457899999999938
11
144.5946769999999901
21
-118.65531399999999
0
LINE
8
BLACK
6
CONTINUOUS
10
144.5946769999999901
20
-118.65531399999999
11
144.4994389999999953
21
-118.3695999999999913
0
LINE
8
BLACK
6
CONTINUOUS
10
144.4994389999999953
20
-118.3695999999999913
11
144.4042010000000005
21
-117.8934089999999912
0
LINE
8
BLACK
6
CONTINUOUS
10
144.4042010000000005
20
-117.8934089999999912
11
144.4042010000000005
21
-117.5124569999999977
0
LINE
8
BLACK
6
CONTINUOUS
10
144.4042010000000005
20
-117.5124569999999977
11
144.4994389999999953
21
-117.0362659999999977
0
LINE
8
BLACK
6
CONTINUOUS
10
144.4994389999999953
20
-117.0362659999999977
11
144.5946769999999901
21
-116.750551999999999
0
LINE
8
BLACK
6
CONTINUOUS
10
144.5946769999999901
20
-116.750551999999999
11
144.689914999999985
21
-116.5600759999999951
0
LINE
8
BLACK
6
CONTINUOUS
10
144.689914999999985
20
-116.5600759999999951
11
144.880391000000003
21
-116.274360999999999
0
LINE
8
BLACK
6
CONTINUOUS
10
144.880391000000003
20
-116.274360999999999
11
144.9756299999999953
21
-116.1791229999999899
0
LINE
8
BLACK
6
CONTINUOUS
10
145.7375339999999824
20
-117.1315039999999925
11
145.7375339999999824
21
-118.4648380000000003
0
LINE
8
BLACK
6
CONTINUOUS
10
145.7375339999999824
20
-117.3219799999999964
11
145.8327720000000056
21
-117.2267420000000016
0
LINE
8
BLACK
6
CONTINUOUS
10
145.8327720000000056
20
-117.2267420000000016
11
146.0232479999999953
21
-117.1315039999999925
0
LINE
8
BLACK
6
CONTINUOUS
10
146.0232479999999953
20
-117.1315039999999925
11
146.3089630000000056
21
-117.1315039999999925
0
LINE
8
BLACK
6
CONTINUOUS
10
146.3089630000000056
20
-117.1315039999999925
11
146.4994389999999953
21
-117.2267420000000016
0
LINE
8
BLACK
6
CONTINUOUS
10
146.4994389999999953
20
-117.2267420000000016
11
146.5946769999999901
21
-117.4172189999999887
0
LINE
8
BLACK
6
CONTINUOUS
10
146.5946769999999901
20
-117.4172189999999887
11
146.5946769999999901
21
-118.4648380000000003
0
LINE
8
BLACK
6
CONTINUOUS
10
147.8327720000000056
20
-118.4648380000000003
11
147.6422959999999875
21
-118.3695999999999913
0
LINE
8
BLACK
6
CONTINUOUS
10
147.6422959999999875
20
-118.3695999999999913
11
147.5470579999999927
21
-118.274360999999999
0
LINE
8
BLACK
6
CONTINUOUS
10
147.5470579999999927
20
-118.274360999999999
11
147.4518199999999979
21
-118.0838849999999951
0
LINE
8
BLACK
6
CONTINUOUS
10
147.4518199999999979
20
-118.0838849999999951
11
147.4518199999999979
21
-117.5124569999999977
0
LINE
8
BLACK
6
CONTINUOUS
10
147.4518199999999979
20
-117.5124569999999977
11
147.5470579999999927
21
-117.3219799999999964
0
LINE
8
BLACK
6
CONTINUOUS
10
147.5470579999999927
20
-117.3219799999999964
11
147.6422959999999875
21
-117.2267420000000016
0
LINE
8
BLACK
6
CONTINUOUS
10
147.6422959999999875
20
-117.2267420000000016
11
147.8327720000000056
21
-117.1315039999999925
0
LINE
8
BLACK
6
CONTINUOUS
10
147.8327720000000056
20
-117.1315039999999925
11
148.1184869999999876
21
-117.1315039999999925
0
LINE
8
BLACK
6
CONTINUOUS
10
148.1184869999999876
20
-117.1315039999999925
11
148.3089630000000056
21
-117.2267420000000016
0
LINE
8
BLACK
6
CONTINUOUS
10
148.3089630000000056
20
-117.2267420000000016
11
148.4042010000000005
21
-117.3219799999999964
0
LINE
8
BLACK
6
CONTINUOUS
10
148.4042010000000005
20
-117.3219799999999964
11
148.4994389999999953
21
-117.5124569999999977
0
LINE
8
BLACK
6
CONTINUOUS
10
148.4994389999999953
20
-117.5124569999999977
11
148.4994389999999953
21
-118.0838849999999951
0
LINE
8
BLACK
6
CONTINUOUS
10
148.4994389999999953
20
-118.0838849999999951
11
148.4042010000000005
21
-118.274360999999999
0
LINE
8
BLACK
6
CONTINUOUS
10
148.4042010000000005
20
-118.274360999999999
11
148.3089630000000056
21
-118.3695999999999913
0
LINE
8
BLACK
6
CONTINUOUS
10
148.3089630000000056
20
-118.3695999999999913
11
148.1184869999999876
21
-118.4648380000000003
0
LINE
8
BLACK
6
CONTINUOUS
10
148.1184869999999876
20
-118.4648380000000003
11
147.8327720000000056
21
-118.4648380000000003
0
LINE
8
BLACK
6
CONTINUOUS
10
149.0708679999999902
20
-117.1315039999999925
11
149.8327720000000056
21
-117.1315039999999925
0
LINE
8
BLACK
6
CONTINUOUS
10
149.3565820000000031
20
-116.4648380000000003
11
149.3565820000000031
21
-118.1791229999999899
0
LINE
8
BLACK
6
CONTINUOUS
10
149.3565820000000031
20
-118.1791229999999899
11
149.4518199999999979
21
-118.3695999999999913
0
LINE
8
BLACK
6
CONTINUOUS
10
149.4518199999999979
20
-118.3695999999999913
11
149.6422959999999875
21
-118.4648380000000003
0
LINE
8
BLACK
6
CONTINUOUS
10
149.6422959999999875
20
-118.4648380000000003
11
149.8327720000000056
21
-118.4648380000000003
0
LINE
8
BLACK
6
CONTINUOUS
10
152.0232489999999927
20
-117.1315039999999925
11
152.0232489999999927
21
-119.1315039999999925
0
LINE
8
BLACK
6
CONTINUOUS
10
152.0232489999999927
20
-117.2267420000000016
11
152.2137249999999824
21
-117.1315039999999925
0
LINE
8
BLACK
6
CONTINUOUS
10
152.2137249999999824
20
-117.1315039999999925
11
152.5946779999999876
21
-117.1315039999999925
0
LINE
8
BLACK
6
CONTINUOUS
10
152.5946779999999876
20
-117.1315039999999925
11
152.7851540000000057
21
-117.2267420000000016
0
LINE
8
BLACK
6
CONTINUOUS
10
152.7851540000000057
20
-117.2267420000000016
11
152.8803920000000005
21
-117.3219799999999964
0
LINE
8
BLACK
6
CONTINUOUS
10
152.8803920000000005
20
-117.3219799999999964
11
152.9756299999999953
21
-117.5124569999999977
0
LINE
8
BLACK
6
CONTINUOUS
10
152.9756299999999953
20
-117.5124569999999977
11
152.9756299999999953
21
-118.0838849999999951
0
LINE
8
BLACK
6
CONTINUOUS
10
152.9756299999999953
20
-118.0838849999999951
11
152.8803920000000005
21
-118.274360999999999
0
LINE
8
BLACK
6
CONTINUOUS
10
152.8803920000000005
20
-118.274360999999999
11
152.7851540000000057
21
-118.3695999999999913
0
LINE
8
BLACK
6
CONTINUOUS
10
152.7851540000000057
20
-118.3695999999999913
11
152.5946779999999876
21
-118.4648380000000003
0
LINE
8
BLACK
6
CONTINUOUS
10
152.5946779999999876
20
-118.4648380000000003
11
152.2137249999999824
21
-118.4648380000000003
0
LINE
8
BLACK
6
CONTINUOUS
10
152.2137249999999824
20
-118.4648380000000003
11
152.0232489999999927
21
-118.3695999999999913
0
LINE
8
BLACK
6
CONTINUOUS
10
154.1184869999999876
20
-118.4648380000000003
11
153.9280109999999979
21
-118.3695999999999913
0
LINE
8
BLACK
6
CONTINUOUS
10
153.9280109999999979
20
-118.3695999999999913
11
153.8327730000000031
21
-118.1791229999999899
0
LINE
8
BLACK
6
CONTINUOUS
10
153.8327730000000031
20
-118.1791229999999899
11
153.8327730000000031
21
-116.4648380000000003
0
LINE
8
BLACK
6
CONTINUOUS
10
155.7375349999999798
20
-118.4648380000000003
11
155.7375349999999798
21
-117.4172189999999887
0
LINE
8
BLACK
6
CONTINUOUS
10
155.7375349999999798
20
-117.4172189999999887
11
155.642296999999985
21
-117.2267420000000016
0
LINE
8
BLACK
6
CONTINUOUS
10
155.642296999999985
20
-117.2267420000000016
11
155.4518209999999954
21
-117.1315039999999925
0
LINE
8
BLACK
6
CONTINUOUS
10
155.4518209999999954
20
-117.1315039999999925
11
155.0708679999999902
21
-117.1315039999999925
0
LINE
8
BLACK
6
CONTINUOUS
10
155.0708679999999902
20
-117.1315039999999925
11
154.8803920000000005
21
-117.2267420000000016
0
LINE
8
BLACK
6
CONTINUOUS
10
155.7375349999999798
20
-118.3695999999999913
11
155.5470589999999902
21
-118.4648380000000003
0
LINE
8
BLACK
6
CONTINUOUS
10
155.5470589999999902
20
-118.4648380000000003
11
155.0708679999999902
21
-118.4648380000000003
0
LINE
8
BLACK
6
CONTINUOUS
10
155.0708679999999902
20
-118.4648380000000003
11
154.8803920000000005
21
-118.3695999999999913
0
LINE
8
BLACK
6
CONTINUOUS
10
154.8803920000000005
20
-118.3695999999999913
11
154.7851540000000057
21
-118.1791229999999899
0
LINE
8
BLACK
6
CONTINUOUS
10
154.7851540000000057
20
-118.1791229999999899
11
154.7851540000000057
21
-117.9886470000000003
0
LINE
8
BLACK
6
CONTINUOUS
10
154.7851540000000057
20
-117.9886470000000003
11
154.8803920000000005
21
-117.7981709999999964
0
LINE
8
BLACK
6
CONTINUOUS
10
154.8803920000000005
20
-117.7981709999999964
11
155.0708679999999902
21
-117.7029330000000016
0
LINE
8
BLACK
6
CONTINUOUS
10
155.0708679999999902
20
-117.7029330000000016
11
155.5470589999999902
21
-117.7029330000000016
0
LINE
8
BLACK
6
CONTINUOUS
10
155.5470589999999902
20
-117.7029330000000016
11
155.7375349999999798
21
-117.6076949999999925
0
LINE
8
BLACK
6
CONTINUOUS
10
156.404201999999998
20
-117.1315039999999925
11
157.166105999999985
21
-117.1315039999999925
0
LINE
8
BLACK
6
CONTINUOUS
10
156.6899159999999824
20
-116.4648380000000003
11
156.6899159999999824
21
-118.1791229999999899
0
LINE
8
BLACK
6
CONTINUOUS
10
156.6899159999999824
20
-118.1791229999999899
11
156.7851540000000057
21
-118.3695999999999913
0
LINE
8
BLACK
6
CONTINUOUS
10
156.7851540000000057
20
-118.3695999999999913
11
156.9756299999999953
21
-118.4648380000000003
0
LINE
8
BLACK
6
CONTINUOUS
10
156.9756299999999953
20
-118.4648380000000003
11
157.166105999999985
21
-118.4648380000000003
0
LINE
8
BLACK
6
CONTINUOUS
10
158.5946779999999876
20
-118.3695999999999913
11
158.404201999999998
21
-118.4648380000000003
0
LINE
8
BLACK
6
CONTINUOUS
10
158.404201999999998
20
-118.4648380000000003
11
158.0232489999999927
21
-118.4648380000000003
0
LINE
8
BLACK
6
CONTINUOUS
10
158.0232489999999927
20
-118.4648380000000003
11
157.8327730000000031
21
-118.3695999999999913
0
LINE
8
BLACK
6
CONTINUOUS
10
157.8327730000000031
20
-118.3695999999999913
11
157.7375349999999798
21
-118.1791229999999899
0
LINE
8
BLACK
6
CONTINUOUS
10
157.7375349999999798
20
-118.1791229999999899
11
157.7375349999999798
21
-117.4172189999999887
0
LINE
8
BLACK
6
CONTINUOUS
10
157.7375349999999798
20
-117.4172189999999887
11
157.8327730000000031
21
-117.2267420000000016
0
LINE
8
BLACK
6
CONTINUOUS
10
157.8327730000000031
20
-117.2267420000000016
11
158.0232489999999927
21
-117.1315039999999925
0
LINE
8
BLACK
6
CONTINUOUS
10
158.0232489999999927
20
-117.1315039999999925
11
158.404201999999998
21
-117.1315039999999925
0
LINE
8
BLACK
6
CONTINUOUS
10
158.404201999999998
20
-117.1315039999999925
11
158.5946779999999876
21
-117.2267420000000016
0
LINE
8
BLACK
6
CONTINUOUS
10
158.5946779999999876
20
-117.2267420000000016
11
158.6899159999999824
21
-117.4172189999999887
0
LINE
8
BLACK
6
CONTINUOUS
10
158.6899159999999824
20
-117.4172189999999887
11
158.6899159999999824
21
-117.6076949999999925
0
LINE
8
BLACK
6
CONTINUOUS
10
158.6899159999999824
20
-117.6076949999999925
11
157.7375349999999798
21
-117.7981709999999964
0
LINE
8
BLACK
6
CONTINUOUS
10
160.404201999999998
20
-118.4648380000000003
11
160.404201999999998
21
-116.4648380000000003
0
LINE
8
BLACK
6
CONTINUOUS
10
160.404201999999998
20
-118.3695999999999913
11
160.2137259999999799
21
-118.4648380000000003
0
LINE
8
BLACK
6
CONTINUOUS
10
160.2137259999999799
20
-118.4648380000000003
11
159.8327730000000031
21
-118.4648380000000003
0
LINE
8
BLACK
6
CONTINUOUS
10
159.8327730000000031
20
-118.4648380000000003
11
159.642296999999985
21
-118.3695999999999913
0
LINE
8
BLACK
6
CONTINUOUS
10
159.642296999999985
20
-118.3695999999999913
11
159.5470589999999902
21
-118.274360999999999
0
LINE
8
BLACK
6
CONTINUOUS
10
159.5470589999999902
20
-118.274360999999999
11
159.4518209999999954
21
-118.0838849999999951
0
LINE
8
BLACK
6
CONTINUOUS
10
159.4518209999999954
20
-118.0838849999999951
11
159.4518209999999954
21
-117.5124569999999977
0
LINE
8
BLACK
6
CONTINUOUS
10
159.4518209999999954
20
-117.5124569999999977
11
159.5470589999999902
21
-117.3219799999999964
0
LINE
8
BLACK
6
CONTINUOUS
10
159.5470589999999902
20
-117.3219799999999964
11
159.642296999999985
21
-117.2267420000000016
0
LINE
8
BLACK
6
CONTINUOUS
10
159.642296999999985
20
-117.2267420000000016
11
159.8327730000000031
21
-117.1315039999999925
0
LINE
8
BLACK
6
CONTINUOUS
10
159.8327730000000031
20
-117.1315039999999925
11
160.2137259999999799
21
-117.1315039999999925
0
LINE
8
BLACK
6
CONTINUOUS
10
160.2137259999999799
20
-117.1315039999999925
11
160.404201999999998
21
-117.2267420000000016
0
LINE
8
BLACK
6
CONTINUOUS
10
161.1661069999999825
20
-119.2267420000000016
11
161.2613450000000057
21
-119.1315039999999925
0
LINE
8
BLACK
6
CONTINUOUS
10
161.2613450000000057
20
-119.1315039999999925
11
161.4518209999999954
21
-118.8457899999999938
0
LINE
8
BLACK
6
CONTINUOUS
10
161.4518209999999954
20
-118.8457899999999938
11
161.5470589999999902
21
-118.65531399999999
0
LINE
8
BLACK
6
CONTINUOUS
10
161.5470589999999902
20
-118.65531399999999
11
161.642296999999985
21
-118.3695999999999913
0
LINE
8
BLACK
6
CONTINUOUS
10
161.642296999999985
20
-118.3695999999999913
11
161.7375349999999798
21
-117.8934089999999912
0
LINE
8
BLACK
6
CONTINUOUS
10
161.7375349999999798
20
-117.8934089999999912
11
161.7375349999999798
21
-117.5124569999999977
0
LINE
8
BLACK
6
CONTINUOUS
10
161.7375349999999798
20
-117.5124569999999977
11
161.642296999999985
21
-117.0362659999999977
0
LINE
8
BLACK
6
CONTINUOUS
10
161.642296999999985
20
-117.0362659999999977
11
161.5470589999999902
21
-116.750551999999999
0
LINE
8
BLACK
6
CONTINUOUS
10
161.5470589999999902
20
-116.750551999999999
11
161.4518209999999954
21
-116.5600759999999951
0
LINE
8
BLACK
6
CONTINUOUS
10
161.4518209999999954
20
-116.5600759999999951
11
161.2613450000000057
21
-116.274360999999999
0
LINE
8
BLACK
6
CONTINUOUS
10
161.2613450000000057
20
-116.274360999999999
11
161.1661069999999825
21
-116.1791229999999899
  0
ENDSEC
  0
EOF
