  0
SECTION
  2
HEADER
  9
$ANGBASE
  50
0.0
  9
$ANGDIR
  70
1
  9
$MEASUREMENT
  70
1
  0
ENDSEC
  0
SECTION
  2
TABLES
  0
TABLE
  2
LTYPE
  70
4
  0
LTYPE
  5
40F
  2
CONTINUOUS
  70
0
  3
Solid line
  72
65
  73
0
  40
0.0
  0
LTYPE
  5
410
  2
DASHDOT
 70
0
  3
Dash Dot ____ _ ____ _
 72
65
 73
4
 40
2.0
 49
1.25
 49
-0.25
 49
0.25
 49
-0.25
  0
LTYPE
  5
411
  2
DASHED
 70
0
  3
Dashed __ __ __ __ __
 72
65
 73
2
 40
0.75
 49
0.5
 49
-0.25
  0
LTYPE
  5
43B
  2
DOTTED
 70
0
  3
Dotted .  .  .  .
 72
65
 73
2
 40
0.2
 49
0.0
 49
-0.2
  0
ENDTAB
  0
TABLE
  2
STYLE
  70
4
  0
STYLE
  2
KICAD
  70
0
  40
0
  41
1
  42
1
  50
0
  71
0
  3
isocp.shx
  0
STYLE
  2
KICADB
  70
0
  40
0
  41
1
  42
1
  50
0
  71
0
  3
isocp.shx
  0
STYLE
  2
KICADI
  70
0
  40
0
  41
1
  42
1
  50
15
  71
0
  3
isocp.shx
  0
STYLE
  2
KICADBI
  70
0
  40
0
  41
1
  42
1
  50
15
  71
0
  3
isocp.shx
  0
ENDTAB
  0
TABLE
  2
LAYER
  70
1
  0
LAYER
  2
BLACK
  70
0
  62
7
  6
CONTINUOUS
  0
ENDTAB
  0
ENDSEC
  0
SECTION
  2
ENTITIES
0
LINE
8
BLACK
6
CONTINUOUS
10
51.9383239999999944
20
-80.3458019999999919
11
52.1170059999999964
21
-80.4000049999999931
0
LINE
8
BLACK
6
CONTINUOUS
10
52.1170059999999964
20
-80.4000049999999931
11
52.281680999999999
21
-80.4880249999999933
0
LINE
8
BLACK
6
CONTINUOUS
10
52.281680999999999
20
-80.4880249999999933
11
52.4260189999999966
21
-80.6064810000000023
0
LINE
8
BLACK
6
CONTINUOUS
10
52.4260189999999966
20
-80.6064810000000023
11
52.5444749999999985
21
-80.7508189999999928
0
LINE
8
BLACK
6
CONTINUOUS
10
52.5444749999999985
20
-80.7508189999999928
11
52.6324949999999987
21
-80.9154939999999954
0
LINE
8
BLACK
6
CONTINUOUS
10
52.6324949999999987
20
-80.9154939999999954
11
52.6866979999999998
21
-81.0941759999999903
0
LINE
8
BLACK
6
CONTINUOUS
10
52.6866979999999998
20
-81.0941759999999903
11
52.7049999999999983
21
-81.2800000000000011
0
LINE
8
BLACK
6
CONTINUOUS
10
52.7049999999999983
20
-81.2800000000000011
11
52.6866979999999998
21
-81.4658239999999978
0
LINE
8
BLACK
6
CONTINUOUS
10
52.6866979999999998
20
-81.4658239999999978
11
52.6324949999999987
21
-81.6445059999999927
0
LINE
8
BLACK
6
CONTINUOUS
10
52.6324949999999987
20
-81.6445059999999927
11
52.5444749999999985
21
-81.8091809999999953
0
LINE
8
BLACK
6
CONTINUOUS
10
52.5444749999999985
20
-81.8091809999999953
11
52.4260189999999966
21
-81.953519
0
LINE
8
BLACK
6
CONTINUOUS
10
52.4260189999999966
20
-81.953519
11
52.281680999999999
21
-82.0719749999999948
0
LINE
8
BLACK
6
CONTINUOUS
10
52.281680999999999
20
-82.0719749999999948
11
52.1170059999999964
21
-82.159994999999995
0
LINE
8
BLACK
6
CONTINUOUS
10
52.1170059999999964
20
-82.159994999999995
11
51.9383239999999944
21
-82.2141979999999961
0
LINE
8
BLACK
6
CONTINUOUS
10
51.9383239999999944
20
-82.2141979999999961
11
51.7524999999999977
21
-82.2325000000000017
0
LINE
8
BLACK
6
CONTINUOUS
10
51.7524999999999977
20
-82.2325000000000017
11
51.5666760000000011
21
-82.2141979999999961
0
LINE
8
BLACK
6
CONTINUOUS
10
51.5666760000000011
20
-82.2141979999999961
11
51.3879939999999991
21
-82.159994999999995
0
LINE
8
BLACK
6
CONTINUOUS
10
51.3879939999999991
20
-82.159994999999995
11
51.2233189999999965
21
-82.0719749999999948
0
LINE
8
BLACK
6
CONTINUOUS
10
51.2233189999999965
20
-82.0719749999999948
11
51.0789809999999989
21
-81.953519
0
LINE
8
BLACK
6
CONTINUOUS
10
51.0789809999999989
20
-81.953519
11
50.960524999999997
21
-81.8091809999999953
0
LINE
8
BLACK
6
CONTINUOUS
10
50.960524999999997
20
-81.8091809999999953
11
50.8725049999999968
21
-81.6445059999999927
0
LINE
8
BLACK
6
CONTINUOUS
10
50.8725049999999968
20
-81.6445059999999927
11
50.8183019999999956
21
-81.4658239999999978
0
LINE
8
BLACK
6
CONTINUOUS
10
50.8183019999999956
20
-81.4658239999999978
11
50.7999999999999972
21
-81.2800000000000011
0
LINE
8
BLACK
6
CONTINUOUS
10
50.7999999999999972
20
-81.2800000000000011
11
50.8183019999999956
21
-81.0941759999999903
0
LINE
8
BLACK
6
CONTINUOUS
10
50.8183019999999956
20
-81.0941759999999903
11
50.8725049999999968
21
-80.9154939999999954
0
LINE
8
BLACK
6
CONTINUOUS
10
50.8725049999999968
20
-80.9154939999999954
11
50.960524999999997
21
-80.7508189999999928
0
LINE
8
BLACK
6
CONTINUOUS
10
50.960524999999997
20
-80.7508189999999928
11
51.0789809999999989
21
-80.6064810000000023
0
LINE
8
BLACK
6
CONTINUOUS
10
51.0789809999999989
20
-80.6064810000000023
11
51.2233189999999965
21
-80.4880249999999933
0
LINE
8
BLACK
6
CONTINUOUS
10
51.2233189999999965
20
-80.4880249999999933
11
51.3879939999999991
21
-80.4000049999999931
0
LINE
8
BLACK
6
CONTINUOUS
10
51.3879939999999991
20
-80.4000049999999931
11
51.5666760000000011
21
-80.3458019999999919
0
LINE
8
BLACK
6
CONTINUOUS
10
51.5666760000000011
20
-80.3458019999999919
11
51.7524999999999977
21
-80.3275000000000006
0
LINE
8
BLACK
6
CONTINUOUS
10
51.7524999999999977
20
-80.3275000000000006
11
51.9383239999999944
21
-80.3458019999999919
0
LINE
8
BLACK
6
CONTINUOUS
10
54.4783240000000006
20
-80.3458019999999919
11
54.6570059999999955
21
-80.4000049999999931
0
LINE
8
BLACK
6
CONTINUOUS
10
54.6570059999999955
20
-80.4000049999999931
11
54.8216809999999981
21
-80.4880249999999933
0
LINE
8
BLACK
6
CONTINUOUS
10
54.8216809999999981
20
-80.4880249999999933
11
54.9660189999999957
21
-80.6064810000000023
0
LINE
8
BLACK
6
CONTINUOUS
10
54.9660189999999957
20
-80.6064810000000023
11
55.0844749999999976
21
-80.7508189999999928
0
LINE
8
BLACK
6
CONTINUOUS
10
55.0844749999999976
20
-80.7508189999999928
11
55.1724949999999978
21
-80.9154939999999954
0
LINE
8
BLACK
6
CONTINUOUS
10
55.1724949999999978
20
-80.9154939999999954
11
55.226697999999999
21
-81.0941759999999903
0
LINE
8
BLACK
6
CONTINUOUS
10
55.226697999999999
20
-81.0941759999999903
11
55.2449999999999974
21
-81.2800000000000011
0
LINE
8
BLACK
6
CONTINUOUS
10
55.2449999999999974
20
-81.2800000000000011
11
55.226697999999999
21
-81.4658239999999978
0
LINE
8
BLACK
6
CONTINUOUS
10
55.226697999999999
20
-81.4658239999999978
11
55.1724949999999978
21
-81.6445059999999927
0
LINE
8
BLACK
6
CONTINUOUS
10
55.1724949999999978
20
-81.6445059999999927
11
55.0844749999999976
21
-81.8091809999999953
0
LINE
8
BLACK
6
CONTINUOUS
10
55.0844749999999976
20
-81.8091809999999953
11
54.9660189999999957
21
-81.953519
0
LINE
8
BLACK
6
CONTINUOUS
10
54.9660189999999957
20
-81.953519
11
54.8216809999999981
21
-82.0719749999999948
0
LINE
8
BLACK
6
CONTINUOUS
10
54.8216809999999981
20
-82.0719749999999948
11
54.6570059999999955
21
-82.159994999999995
0
LINE
8
BLACK
6
CONTINUOUS
10
54.6570059999999955
20
-82.159994999999995
11
54.4783240000000006
21
-82.2141979999999961
0
LINE
8
BLACK
6
CONTINUOUS
10
54.4783240000000006
20
-82.2141979999999961
11
54.2924999999999969
21
-82.2325000000000017
0
LINE
8
BLACK
6
CONTINUOUS
10
54.2924999999999969
20
-82.2325000000000017
11
54.1066760000000002
21
-82.2141979999999961
0
LINE
8
BLACK
6
CONTINUOUS
10
54.1066760000000002
20
-82.2141979999999961
11
53.9279939999999982
21
-82.159994999999995
0
LINE
8
BLACK
6
CONTINUOUS
10
53.9279939999999982
20
-82.159994999999995
11
53.7633189999999956
21
-82.0719749999999948
0
LINE
8
BLACK
6
CONTINUOUS
10
53.7633189999999956
20
-82.0719749999999948
11
53.618980999999998
21
-81.953519
0
LINE
8
BLACK
6
CONTINUOUS
10
53.618980999999998
20
-81.953519
11
53.5005249999999961
21
-81.8091809999999953
0
LINE
8
BLACK
6
CONTINUOUS
10
53.5005249999999961
20
-81.8091809999999953
11
53.4125049999999959
21
-81.6445059999999927
0
LINE
8
BLACK
6
CONTINUOUS
10
53.4125049999999959
20
-81.6445059999999927
11
53.3583019999999948
21
-81.4658239999999978
0
LINE
8
BLACK
6
CONTINUOUS
10
53.3583019999999948
20
-81.4658239999999978
11
53.3399999999999963
21
-81.2800000000000011
0
LINE
8
BLACK
6
CONTINUOUS
10
53.3399999999999963
20
-81.2800000000000011
11
53.3583019999999948
21
-81.0941759999999903
0
LINE
8
BLACK
6
CONTINUOUS
10
53.3583019999999948
20
-81.0941759999999903
11
53.4125049999999959
21
-80.9154939999999954
0
LINE
8
BLACK
6
CONTINUOUS
10
53.4125049999999959
20
-80.9154939999999954
11
53.5005249999999961
21
-80.7508189999999928
0
LINE
8
BLACK
6
CONTINUOUS
10
53.5005249999999961
20
-80.7508189999999928
11
53.618980999999998
21
-80.6064810000000023
0
LINE
8
BLACK
6
CONTINUOUS
10
53.618980999999998
20
-80.6064810000000023
11
53.7633189999999956
21
-80.4880249999999933
0
LINE
8
BLACK
6
CONTINUOUS
10
53.7633189999999956
20
-80.4880249999999933
11
53.9279939999999982
21
-80.4000049999999931
0
LINE
8
BLACK
6
CONTINUOUS
10
53.9279939999999982
20
-80.4000049999999931
11
54.1066760000000002
21
-80.3458019999999919
0
LINE
8
BLACK
6
CONTINUOUS
10
54.1066760000000002
20
-80.3458019999999919
11
54.2924999999999969
21
-80.3275000000000006
0
LINE
8
BLACK
6
CONTINUOUS
10
54.2924999999999969
20
-80.3275000000000006
11
54.4783240000000006
21
-80.3458019999999919
0
LINE
8
BLACK
6
CONTINUOUS
10
57.0183239999999998
20
-80.3458019999999919
11
57.1970059999999947
21
-80.4000049999999931
0
LINE
8
BLACK
6
CONTINUOUS
10
57.1970059999999947
20
-80.4000049999999931
11
57.3616809999999973
21
-80.4880249999999933
0
LINE
8
BLACK
6
CONTINUOUS
10
57.3616809999999973
20
-80.4880249999999933
11
57.5060189999999949
21
-80.6064810000000023
0
LINE
8
BLACK
6
CONTINUOUS
10
57.5060189999999949
20
-80.6064810000000023
11
57.6244749999999968
21
-80.7508189999999928
0
LINE
8
BLACK
6
CONTINUOUS
10
57.6244749999999968
20
-80.7508189999999928
11
57.712494999999997
21
-80.9154939999999954
0
LINE
8
BLACK
6
CONTINUOUS
10
57.712494999999997
20
-80.9154939999999954
11
57.7666979999999981
21
-81.0941759999999903
0
LINE
8
BLACK
6
CONTINUOUS
10
57.7666979999999981
20
-81.0941759999999903
11
57.7849999999999966
21
-81.2800000000000011
0
LINE
8
BLACK
6
CONTINUOUS
10
57.7849999999999966
20
-81.2800000000000011
11
57.7666979999999981
21
-81.4658239999999978
0
LINE
8
BLACK
6
CONTINUOUS
10
57.7666979999999981
20
-81.4658239999999978
11
57.712494999999997
21
-81.6445059999999927
0
LINE
8
BLACK
6
CONTINUOUS
10
57.712494999999997
20
-81.6445059999999927
11
57.6244749999999968
21
-81.8091809999999953
0
LINE
8
BLACK
6
CONTINUOUS
10
57.6244749999999968
20
-81.8091809999999953
11
57.5060189999999949
21
-81.953519
0
LINE
8
BLACK
6
CONTINUOUS
10
57.5060189999999949
20
-81.953519
11
57.3616809999999973
21
-82.0719749999999948
0
LINE
8
BLACK
6
CONTINUOUS
10
57.3616809999999973
20
-82.0719749999999948
11
57.1970059999999947
21
-82.159994999999995
0
LINE
8
BLACK
6
CONTINUOUS
10
57.1970059999999947
20
-82.159994999999995
11
57.0183239999999998
21
-82.2141979999999961
0
LINE
8
BLACK
6
CONTINUOUS
10
57.0183239999999998
20
-82.2141979999999961
11
56.832499999999996
21
-82.2325000000000017
0
LINE
8
BLACK
6
CONTINUOUS
10
56.832499999999996
20
-82.2325000000000017
11
56.6466759999999994
21
-82.2141979999999961
0
LINE
8
BLACK
6
CONTINUOUS
10
56.6466759999999994
20
-82.2141979999999961
11
56.4679939999999974
21
-82.159994999999995
0
LINE
8
BLACK
6
CONTINUOUS
10
56.4679939999999974
20
-82.159994999999995
11
56.3033189999999948
21
-82.0719749999999948
0
LINE
8
BLACK
6
CONTINUOUS
10
56.3033189999999948
20
-82.0719749999999948
11
56.1589809999999972
21
-81.953519
0
LINE
8
BLACK
6
CONTINUOUS
10
56.1589809999999972
20
-81.953519
11
56.0405249999999953
21
-81.8091809999999953
0
LINE
8
BLACK
6
CONTINUOUS
10
56.0405249999999953
20
-81.8091809999999953
11
55.9525049999999951
21
-81.6445059999999927
0
LINE
8
BLACK
6
CONTINUOUS
10
55.9525049999999951
20
-81.6445059999999927
11
55.8983019999999939
21
-81.4658239999999978
0
LINE
8
BLACK
6
CONTINUOUS
10
55.8983019999999939
20
-81.4658239999999978
11
55.8799999999999955
21
-81.2800000000000011
0
LINE
8
BLACK
6
CONTINUOUS
10
55.8799999999999955
20
-81.2800000000000011
11
55.8983019999999939
21
-81.0941759999999903
0
LINE
8
BLACK
6
CONTINUOUS
10
55.8983019999999939
20
-81.0941759999999903
11
55.9525049999999951
21
-80.9154939999999954
0
LINE
8
BLACK
6
CONTINUOUS
10
55.9525049999999951
20
-80.9154939999999954
11
56.0405249999999953
21
-80.7508189999999928
0
LINE
8
BLACK
6
CONTINUOUS
10
56.0405249999999953
20
-80.7508189999999928
11
56.1589809999999972
21
-80.6064810000000023
0
LINE
8
BLACK
6
CONTINUOUS
10
56.1589809999999972
20
-80.6064810000000023
11
56.3033189999999948
21
-80.4880249999999933
0
LINE
8
BLACK
6
CONTINUOUS
10
56.3033189999999948
20
-80.4880249999999933
11
56.4679939999999974
21
-80.4000049999999931
0
LINE
8
BLACK
6
CONTINUOUS
10
56.4679939999999974
20
-80.4000049999999931
11
56.6466759999999994
21
-80.3458019999999919
0
LINE
8
BLACK
6
CONTINUOUS
10
56.6466759999999994
20
-80.3458019999999919
11
56.832499999999996
21
-80.3275000000000006
0
LINE
8
BLACK
6
CONTINUOUS
10
56.832499999999996
20
-80.3275000000000006
11
57.0183239999999998
21
-80.3458019999999919
0
LINE
8
BLACK
6
CONTINUOUS
10
59.5583239999999989
20
-80.3458019999999919
11
59.7370059999999938
21
-80.4000049999999931
0
LINE
8
BLACK
6
CONTINUOUS
10
59.7370059999999938
20
-80.4000049999999931
11
59.9016809999999964
21
-80.4880249999999933
0
LINE
8
BLACK
6
CONTINUOUS
10
59.9016809999999964
20
-80.4880249999999933
11
60.046018999999994
21
-80.6064810000000023
0
LINE
8
BLACK
6
CONTINUOUS
10
60.046018999999994
20
-80.6064810000000023
11
60.1644749999999959
21
-80.7508189999999928
0
LINE
8
BLACK
6
CONTINUOUS
10
60.1644749999999959
20
-80.7508189999999928
11
60.2524949999999961
21
-80.9154939999999954
0
LINE
8
BLACK
6
CONTINUOUS
10
60.2524949999999961
20
-80.9154939999999954
11
60.3066979999999973
21
-81.0941759999999903
0
LINE
8
BLACK
6
CONTINUOUS
10
60.3066979999999973
20
-81.0941759999999903
11
60.3249999999999957
21
-81.2800000000000011
0
LINE
8
BLACK
6
CONTINUOUS
10
60.3249999999999957
20
-81.2800000000000011
11
60.3066979999999973
21
-81.4658239999999978
0
LINE
8
BLACK
6
CONTINUOUS
10
60.3066979999999973
20
-81.4658239999999978
11
60.2524949999999961
21
-81.6445059999999927
0
LINE
8
BLACK
6
CONTINUOUS
10
60.2524949999999961
20
-81.6445059999999927
11
60.1644749999999959
21
-81.8091809999999953
0
LINE
8
BLACK
6
CONTINUOUS
10
60.1644749999999959
20
-81.8091809999999953
11
60.046018999999994
21
-81.953519
0
LINE
8
BLACK
6
CONTINUOUS
10
60.046018999999994
20
-81.953519
11
59.9016809999999964
21
-82.0719749999999948
0
LINE
8
BLACK
6
CONTINUOUS
10
59.9016809999999964
20
-82.0719749999999948
11
59.7370059999999938
21
-82.159994999999995
0
LINE
8
BLACK
6
CONTINUOUS
10
59.7370059999999938
20
-82.159994999999995
11
59.5583239999999989
21
-82.2141979999999961
0
LINE
8
BLACK
6
CONTINUOUS
10
59.5583239999999989
20
-82.2141979999999961
11
59.3724999999999952
21
-82.2325000000000017
0
LINE
8
BLACK
6
CONTINUOUS
10
59.3724999999999952
20
-82.2325000000000017
11
59.1866759999999985
21
-82.2141979999999961
0
LINE
8
BLACK
6
CONTINUOUS
10
59.1866759999999985
20
-82.2141979999999961
11
59.0079939999999965
21
-82.159994999999995
0
LINE
8
BLACK
6
CONTINUOUS
10
59.0079939999999965
20
-82.159994999999995
11
58.8433189999999939
21
-82.0719749999999948
0
LINE
8
BLACK
6
CONTINUOUS
10
58.8433189999999939
20
-82.0719749999999948
11
58.6989809999999963
21
-81.953519
0
LINE
8
BLACK
6
CONTINUOUS
10
58.6989809999999963
20
-81.953519
11
58.5805249999999944
21
-81.8091809999999953
0
LINE
8
BLACK
6
CONTINUOUS
10
58.5805249999999944
20
-81.8091809999999953
11
58.4925049999999942
21
-81.6445059999999927
0
LINE
8
BLACK
6
CONTINUOUS
10
58.4925049999999942
20
-81.6445059999999927
11
58.4383020000000002
21
-81.4658239999999978
0
LINE
8
BLACK
6
CONTINUOUS
10
58.4383020000000002
20
-81.4658239999999978
11
58.4199999999999946
21
-81.2800000000000011
0
LINE
8
BLACK
6
CONTINUOUS
10
58.4199999999999946
20
-81.2800000000000011
11
58.4383020000000002
21
-81.0941759999999903
0
LINE
8
BLACK
6
CONTINUOUS
10
58.4383020000000002
20
-81.0941759999999903
11
58.4925049999999942
21
-80.9154939999999954
0
LINE
8
BLACK
6
CONTINUOUS
10
58.4925049999999942
20
-80.9154939999999954
11
58.5805249999999944
21
-80.7508189999999928
0
LINE
8
BLACK
6
CONTINUOUS
10
58.5805249999999944
20
-80.7508189999999928
11
58.6989809999999963
21
-80.6064810000000023
0
LINE
8
BLACK
6
CONTINUOUS
10
58.6989809999999963
20
-80.6064810000000023
11
58.8433189999999939
21
-80.4880249999999933
0
LINE
8
BLACK
6
CONTINUOUS
10
58.8433189999999939
20
-80.4880249999999933
11
59.0079939999999965
21
-80.4000049999999931
0
LINE
8
BLACK
6
CONTINUOUS
10
59.0079939999999965
20
-80.4000049999999931
11
59.1866759999999985
21
-80.3458019999999919
0
LINE
8
BLACK
6
CONTINUOUS
10
59.1866759999999985
20
-80.3458019999999919
11
59.3724999999999952
21
-80.3275000000000006
0
LINE
8
BLACK
6
CONTINUOUS
10
59.3724999999999952
20
-80.3275000000000006
11
59.5583239999999989
21
-80.3458019999999919
0
LINE
8
BLACK
6
CONTINUOUS
10
62.0983239999999981
20
-80.3458019999999919
11
62.2770060000000001
21
-80.4000049999999931
0
LINE
8
BLACK
6
CONTINUOUS
10
62.2770060000000001
20
-80.4000049999999931
11
62.4416809999999955
21
-80.4880249999999933
0
LINE
8
BLACK
6
CONTINUOUS
10
62.4416809999999955
20
-80.4880249999999933
11
62.5860190000000003
21
-80.6064810000000023
0
LINE
8
BLACK
6
CONTINUOUS
10
62.5860190000000003
20
-80.6064810000000023
11
62.7044749999999951
21
-80.7508189999999928
0
LINE
8
BLACK
6
CONTINUOUS
10
62.7044749999999951
20
-80.7508189999999928
11
62.7924949999999953
21
-80.9154939999999954
0
LINE
8
BLACK
6
CONTINUOUS
10
62.7924949999999953
20
-80.9154939999999954
11
62.8466979999999964
21
-81.0941759999999903
0
LINE
8
BLACK
6
CONTINUOUS
10
62.8466979999999964
20
-81.0941759999999903
11
62.8649999999999949
21
-81.2800000000000011
0
LINE
8
BLACK
6
CONTINUOUS
10
62.8649999999999949
20
-81.2800000000000011
11
62.8466979999999964
21
-81.4658239999999978
0
LINE
8
BLACK
6
CONTINUOUS
10
62.8466979999999964
20
-81.4658239999999978
11
62.7924949999999953
21
-81.6445059999999927
0
LINE
8
BLACK
6
CONTINUOUS
10
62.7924949999999953
20
-81.6445059999999927
11
62.7044749999999951
21
-81.8091809999999953
0
LINE
8
BLACK
6
CONTINUOUS
10
62.7044749999999951
20
-81.8091809999999953
11
62.5860190000000003
21
-81.953519
0
LINE
8
BLACK
6
CONTINUOUS
10
62.5860190000000003
20
-81.953519
11
62.4416809999999955
21
-82.0719749999999948
0
LINE
8
BLACK
6
CONTINUOUS
10
62.4416809999999955
20
-82.0719749999999948
11
62.2770060000000001
21
-82.159994999999995
0
LINE
8
BLACK
6
CONTINUOUS
10
62.2770060000000001
20
-82.159994999999995
11
62.0983239999999981
21
-82.2141979999999961
0
LINE
8
BLACK
6
CONTINUOUS
10
62.0983239999999981
20
-82.2141979999999961
11
61.9124999999999943
21
-82.2325000000000017
0
LINE
8
BLACK
6
CONTINUOUS
10
61.9124999999999943
20
-82.2325000000000017
11
61.7266759999999977
21
-82.2141979999999961
0
LINE
8
BLACK
6
CONTINUOUS
10
61.7266759999999977
20
-82.2141979999999961
11
61.5479939999999957
21
-82.159994999999995
0
LINE
8
BLACK
6
CONTINUOUS
10
61.5479939999999957
20
-82.159994999999995
11
61.3833190000000002
21
-82.0719749999999948
0
LINE
8
BLACK
6
CONTINUOUS
10
61.3833190000000002
20
-82.0719749999999948
11
61.2389809999999954
21
-81.953519
0
LINE
8
BLACK
6
CONTINUOUS
10
61.2389809999999954
20
-81.953519
11
61.1205250000000007
21
-81.8091809999999953
0
LINE
8
BLACK
6
CONTINUOUS
10
61.1205250000000007
20
-81.8091809999999953
11
61.0325050000000005
21
-81.6445059999999927
0
LINE
8
BLACK
6
CONTINUOUS
10
61.0325050000000005
20
-81.6445059999999927
11
60.9783019999999993
21
-81.4658239999999978
0
LINE
8
BLACK
6
CONTINUOUS
10
60.9783019999999993
20
-81.4658239999999978
11
60.9599999999999937
21
-81.2800000000000011
0
LINE
8
BLACK
6
CONTINUOUS
10
60.9599999999999937
20
-81.2800000000000011
11
60.9783019999999993
21
-81.0941759999999903
0
LINE
8
BLACK
6
CONTINUOUS
10
60.9783019999999993
20
-81.0941759999999903
11
61.0325050000000005
21
-80.9154939999999954
0
LINE
8
BLACK
6
CONTINUOUS
10
61.0325050000000005
20
-80.9154939999999954
11
61.1205250000000007
21
-80.7508189999999928
0
LINE
8
BLACK
6
CONTINUOUS
10
61.1205250000000007
20
-80.7508189999999928
11
61.2389809999999954
21
-80.6064810000000023
0
LINE
8
BLACK
6
CONTINUOUS
10
61.2389809999999954
20
-80.6064810000000023
11
61.3833190000000002
21
-80.4880249999999933
0
LINE
8
BLACK
6
CONTINUOUS
10
61.3833190000000002
20
-80.4880249999999933
11
61.5479939999999957
21
-80.4000049999999931
0
LINE
8
BLACK
6
CONTINUOUS
10
61.5479939999999957
20
-80.4000049999999931
11
61.7266759999999977
21
-80.3458019999999919
0
LINE
8
BLACK
6
CONTINUOUS
10
61.7266759999999977
20
-80.3458019999999919
11
61.9124999999999943
21
-80.3275000000000006
0
LINE
8
BLACK
6
CONTINUOUS
10
61.9124999999999943
20
-80.3275000000000006
11
62.0983239999999981
21
-80.3458019999999919
0
LINE
8
BLACK
6
CONTINUOUS
10
64.6383239999999972
20
-80.3458019999999919
11
64.8170059999999921
21
-80.4000049999999931
0
LINE
8
BLACK
6
CONTINUOUS
10
64.8170059999999921
20
-80.4000049999999931
11
64.9816809999999947
21
-80.4880249999999933
0
LINE
8
BLACK
6
CONTINUOUS
10
64.9816809999999947
20
-80.4880249999999933
11
65.1260189999999994
21
-80.6064810000000023
0
LINE
8
BLACK
6
CONTINUOUS
10
65.1260189999999994
20
-80.6064810000000023
11
65.2444749999999942
21
-80.7508189999999928
0
LINE
8
BLACK
6
CONTINUOUS
10
65.2444749999999942
20
-80.7508189999999928
11
65.3324949999999944
21
-80.9154939999999954
0
LINE
8
BLACK
6
CONTINUOUS
10
65.3324949999999944
20
-80.9154939999999954
11
65.3866979999999955
21
-81.0941759999999903
0
LINE
8
BLACK
6
CONTINUOUS
10
65.3866979999999955
20
-81.0941759999999903
11
65.4050000000000011
21
-81.2800000000000011
0
LINE
8
BLACK
6
CONTINUOUS
10
65.4050000000000011
20
-81.2800000000000011
11
65.3866979999999955
21
-81.4658239999999978
0
LINE
8
BLACK
6
CONTINUOUS
10
65.3866979999999955
20
-81.4658239999999978
11
65.3324949999999944
21
-81.6445059999999927
0
LINE
8
BLACK
6
CONTINUOUS
10
65.3324949999999944
20
-81.6445059999999927
11
65.2444749999999942
21
-81.8091809999999953
0
LINE
8
BLACK
6
CONTINUOUS
10
65.2444749999999942
20
-81.8091809999999953
11
65.1260189999999994
21
-81.953519
0
LINE
8
BLACK
6
CONTINUOUS
10
65.1260189999999994
20
-81.953519
11
64.9816809999999947
21
-82.0719749999999948
0
LINE
8
BLACK
6
CONTINUOUS
10
64.9816809999999947
20
-82.0719749999999948
11
64.8170059999999921
21
-82.159994999999995
0
LINE
8
BLACK
6
CONTINUOUS
10
64.8170059999999921
20
-82.159994999999995
11
64.6383239999999972
21
-82.2141979999999961
0
LINE
8
BLACK
6
CONTINUOUS
10
64.6383239999999972
20
-82.2141979999999961
11
64.4525000000000006
21
-82.2325000000000017
0
LINE
8
BLACK
6
CONTINUOUS
10
64.4525000000000006
20
-82.2325000000000017
11
64.2666760000000039
21
-82.2141979999999961
0
LINE
8
BLACK
6
CONTINUOUS
10
64.2666760000000039
20
-82.2141979999999961
11
64.0879939999999948
21
-82.159994999999995
0
LINE
8
BLACK
6
CONTINUOUS
10
64.0879939999999948
20
-82.159994999999995
11
63.9233189999999993
21
-82.0719749999999948
0
LINE
8
BLACK
6
CONTINUOUS
10
63.9233189999999993
20
-82.0719749999999948
11
63.7789809999999946
21
-81.953519
0
LINE
8
BLACK
6
CONTINUOUS
10
63.7789809999999946
20
-81.953519
11
63.6605249999999998
21
-81.8091809999999953
0
LINE
8
BLACK
6
CONTINUOUS
10
63.6605249999999998
20
-81.8091809999999953
11
63.5725049999999996
21
-81.6445059999999927
0
LINE
8
BLACK
6
CONTINUOUS
10
63.5725049999999996
20
-81.6445059999999927
11
63.5183019999999985
21
-81.4658239999999978
0
LINE
8
BLACK
6
CONTINUOUS
10
63.5183019999999985
20
-81.4658239999999978
11
63.5
21
-81.2800000000000011
0
LINE
8
BLACK
6
CONTINUOUS
10
63.5
20
-81.2800000000000011
11
63.5183019999999985
21
-81.0941759999999903
0
LINE
8
BLACK
6
CONTINUOUS
10
63.5183019999999985
20
-81.0941759999999903
11
63.5725049999999996
21
-80.9154939999999954
0
LINE
8
BLACK
6
CONTINUOUS
10
63.5725049999999996
20
-80.9154939999999954
11
63.6605249999999998
21
-80.7508189999999928
0
LINE
8
BLACK
6
CONTINUOUS
10
63.6605249999999998
20
-80.7508189999999928
11
63.7789809999999946
21
-80.6064810000000023
0
LINE
8
BLACK
6
CONTINUOUS
10
63.7789809999999946
20
-80.6064810000000023
11
63.9233189999999993
21
-80.4880249999999933
0
LINE
8
BLACK
6
CONTINUOUS
10
63.9233189999999993
20
-80.4880249999999933
11
64.0879939999999948
21
-80.4000049999999931
0
LINE
8
BLACK
6
CONTINUOUS
10
64.0879939999999948
20
-80.4000049999999931
11
64.2666760000000039
21
-80.3458019999999919
0
LINE
8
BLACK
6
CONTINUOUS
10
64.2666760000000039
20
-80.3458019999999919
11
64.4525000000000006
21
-80.3275000000000006
0
LINE
8
BLACK
6
CONTINUOUS
10
64.4525000000000006
20
-80.3275000000000006
11
64.6383239999999972
21
-80.3458019999999919
0
LINE
8
BLACK
6
CONTINUOUS
10
57.0183249999999973
20
-71.4558019999999914
11
57.1970069999999993
21
-71.5100049999999925
0
LINE
8
BLACK
6
CONTINUOUS
10
57.1970069999999993
20
-71.5100049999999925
11
57.3616819999999947
21
-71.5980249999999927
0
LINE
8
BLACK
6
CONTINUOUS
10
57.3616819999999947
20
-71.5980249999999927
11
57.5060199999999995
21
-71.7164810000000017
0
LINE
8
BLACK
6
CONTINUOUS
10
57.5060199999999995
20
-71.7164810000000017
11
57.6244759999999943
21
-71.8608189999999922
0
LINE
8
BLACK
6
CONTINUOUS
10
57.6244759999999943
20
-71.8608189999999922
11
57.7124959999999945
21
-72.0254939999999948
0
LINE
8
BLACK
6
CONTINUOUS
10
57.7124959999999945
20
-72.0254939999999948
11
57.7666989999999956
21
-72.2041759999999897
0
LINE
8
BLACK
6
CONTINUOUS
10
57.7666989999999956
20
-72.2041759999999897
11
57.7850009999999941
21
-72.3900000000000006
0
LINE
8
BLACK
6
CONTINUOUS
10
57.7850009999999941
20
-72.3900000000000006
11
57.7666989999999956
21
-72.5758239999999972
0
LINE
8
BLACK
6
CONTINUOUS
10
57.7666989999999956
20
-72.5758239999999972
11
57.7124959999999945
21
-72.7545059999999921
0
LINE
8
BLACK
6
CONTINUOUS
10
57.7124959999999945
20
-72.7545059999999921
11
57.6244759999999943
21
-72.9191809999999947
0
LINE
8
BLACK
6
CONTINUOUS
10
57.6244759999999943
20
-72.9191809999999947
11
57.5060199999999995
21
-73.0635189999999994
0
LINE
8
BLACK
6
CONTINUOUS
10
57.5060199999999995
20
-73.0635189999999994
11
57.3616819999999947
21
-73.1819749999999942
0
LINE
8
BLACK
6
CONTINUOUS
10
57.3616819999999947
20
-73.1819749999999942
11
57.1970069999999993
21
-73.2699949999999944
0
LINE
8
BLACK
6
CONTINUOUS
10
57.1970069999999993
20
-73.2699949999999944
11
57.0183249999999973
21
-73.3241979999999955
0
LINE
8
BLACK
6
CONTINUOUS
10
57.0183249999999973
20
-73.3241979999999955
11
56.8325010000000006
21
-73.3425000000000011
0
LINE
8
BLACK
6
CONTINUOUS
10
56.8325010000000006
20
-73.3425000000000011
11
56.6466769999999968
21
-73.3241979999999955
0
LINE
8
BLACK
6
CONTINUOUS
10
56.6466769999999968
20
-73.3241979999999955
11
56.4679949999999948
21
-73.2699949999999944
0
LINE
8
BLACK
6
CONTINUOUS
10
56.4679949999999948
20
-73.2699949999999944
11
56.3033199999999994
21
-73.1819749999999942
0
LINE
8
BLACK
6
CONTINUOUS
10
56.3033199999999994
20
-73.1819749999999942
11
56.1589819999999946
21
-73.0635189999999994
0
LINE
8
BLACK
6
CONTINUOUS
10
56.1589819999999946
20
-73.0635189999999994
11
56.0405259999999998
21
-72.9191809999999947
0
LINE
8
BLACK
6
CONTINUOUS
10
56.0405259999999998
20
-72.9191809999999947
11
55.9525059999999996
21
-72.7545059999999921
0
LINE
8
BLACK
6
CONTINUOUS
10
55.9525059999999996
20
-72.7545059999999921
11
55.8983029999999985
21
-72.5758239999999972
0
LINE
8
BLACK
6
CONTINUOUS
10
55.8983029999999985
20
-72.5758239999999972
11
55.880001
21
-72.3900000000000006
0
LINE
8
BLACK
6
CONTINUOUS
10
55.880001
20
-72.3900000000000006
11
55.8983029999999985
21
-72.2041759999999897
0
LINE
8
BLACK
6
CONTINUOUS
10
55.8983029999999985
20
-72.2041759999999897
11
55.9525059999999996
21
-72.0254939999999948
0
LINE
8
BLACK
6
CONTINUOUS
10
55.9525059999999996
20
-72.0254939999999948
11
56.0405259999999998
21
-71.8608189999999922
0
LINE
8
BLACK
6
CONTINUOUS
10
56.0405259999999998
20
-71.8608189999999922
11
56.1589819999999946
21
-71.7164810000000017
0
LINE
8
BLACK
6
CONTINUOUS
10
56.1589819999999946
20
-71.7164810000000017
11
56.3033199999999994
21
-71.5980249999999927
0
LINE
8
BLACK
6
CONTINUOUS
10
56.3033199999999994
20
-71.5980249999999927
11
56.4679949999999948
21
-71.5100049999999925
0
LINE
8
BLACK
6
CONTINUOUS
10
56.4679949999999948
20
-71.5100049999999925
11
56.6466769999999968
21
-71.4558019999999914
0
LINE
8
BLACK
6
CONTINUOUS
10
56.6466769999999968
20
-71.4558019999999914
11
56.8325010000000006
21
-71.4375
0
LINE
8
BLACK
6
CONTINUOUS
10
56.8325010000000006
20
-71.4375
11
57.0183249999999973
21
-71.4558019999999914
0
LINE
8
BLACK
6
CONTINUOUS
10
62.0983239999999981
20
-71.4558019999999914
11
62.2770060000000001
21
-71.5100049999999925
0
LINE
8
BLACK
6
CONTINUOUS
10
62.2770060000000001
20
-71.5100049999999925
11
62.4416809999999955
21
-71.5980249999999927
0
LINE
8
BLACK
6
CONTINUOUS
10
62.4416809999999955
20
-71.5980249999999927
11
62.5860190000000003
21
-71.7164810000000017
0
LINE
8
BLACK
6
CONTINUOUS
10
62.5860190000000003
20
-71.7164810000000017
11
62.7044749999999951
21
-71.8608189999999922
0
LINE
8
BLACK
6
CONTINUOUS
10
62.7044749999999951
20
-71.8608189999999922
11
62.7924949999999953
21
-72.0254939999999948
0
LINE
8
BLACK
6
CONTINUOUS
10
62.7924949999999953
20
-72.0254939999999948
11
62.8466979999999964
21
-72.2041759999999897
0
LINE
8
BLACK
6
CONTINUOUS
10
62.8466979999999964
20
-72.2041759999999897
11
62.8649999999999949
21
-72.3900000000000006
0
LINE
8
BLACK
6
CONTINUOUS
10
62.8649999999999949
20
-72.3900000000000006
11
62.8466979999999964
21
-72.5758239999999972
0
LINE
8
BLACK
6
CONTINUOUS
10
62.8466979999999964
20
-72.5758239999999972
11
62.7924949999999953
21
-72.7545059999999921
0
LINE
8
BLACK
6
CONTINUOUS
10
62.7924949999999953
20
-72.7545059999999921
11
62.7044749999999951
21
-72.9191809999999947
0
LINE
8
BLACK
6
CONTINUOUS
10
62.7044749999999951
20
-72.9191809999999947
11
62.5860190000000003
21
-73.0635189999999994
0
LINE
8
BLACK
6
CONTINUOUS
10
62.5860190000000003
20
-73.0635189999999994
11
62.4416809999999955
21
-73.1819749999999942
0
LINE
8
BLACK
6
CONTINUOUS
10
62.4416809999999955
20
-73.1819749999999942
11
62.2770060000000001
21
-73.2699949999999944
0
LINE
8
BLACK
6
CONTINUOUS
10
62.2770060000000001
20
-73.2699949999999944
11
62.0983239999999981
21
-73.3241979999999955
0
LINE
8
BLACK
6
CONTINUOUS
10
62.0983239999999981
20
-73.3241979999999955
11
61.9124999999999943
21
-73.3425000000000011
0
LINE
8
BLACK
6
CONTINUOUS
10
61.9124999999999943
20
-73.3425000000000011
11
61.7266759999999977
21
-73.3241979999999955
0
LINE
8
BLACK
6
CONTINUOUS
10
61.7266759999999977
20
-73.3241979999999955
11
61.5479939999999957
21
-73.2699949999999944
0
LINE
8
BLACK
6
CONTINUOUS
10
61.5479939999999957
20
-73.2699949999999944
11
61.3833190000000002
21
-73.1819749999999942
0
LINE
8
BLACK
6
CONTINUOUS
10
61.3833190000000002
20
-73.1819749999999942
11
61.2389809999999954
21
-73.0635189999999994
0
LINE
8
BLACK
6
CONTINUOUS
10
61.2389809999999954
20
-73.0635189999999994
11
61.1205250000000007
21
-72.9191809999999947
0
LINE
8
BLACK
6
CONTINUOUS
10
61.1205250000000007
20
-72.9191809999999947
11
61.0325050000000005
21
-72.7545059999999921
0
LINE
8
BLACK
6
CONTINUOUS
10
61.0325050000000005
20
-72.7545059999999921
11
60.9783019999999993
21
-72.5758239999999972
0
LINE
8
BLACK
6
CONTINUOUS
10
60.9783019999999993
20
-72.5758239999999972
11
60.9599999999999937
21
-72.3900000000000006
0
LINE
8
BLACK
6
CONTINUOUS
10
60.9599999999999937
20
-72.3900000000000006
11
60.9783019999999993
21
-72.2041759999999897
0
LINE
8
BLACK
6
CONTINUOUS
10
60.9783019999999993
20
-72.2041759999999897
11
61.0325050000000005
21
-72.0254939999999948
0
LINE
8
BLACK
6
CONTINUOUS
10
61.0325050000000005
20
-72.0254939999999948
11
61.1205250000000007
21
-71.8608189999999922
0
LINE
8
BLACK
6
CONTINUOUS
10
61.1205250000000007
20
-71.8608189999999922
11
61.2389809999999954
21
-71.7164810000000017
0
LINE
8
BLACK
6
CONTINUOUS
10
61.2389809999999954
20
-71.7164810000000017
11
61.3833190000000002
21
-71.5980249999999927
0
LINE
8
BLACK
6
CONTINUOUS
10
61.3833190000000002
20
-71.5980249999999927
11
61.5479939999999957
21
-71.5100049999999925
0
LINE
8
BLACK
6
CONTINUOUS
10
61.5479939999999957
20
-71.5100049999999925
11
61.7266759999999977
21
-71.4558019999999914
0
LINE
8
BLACK
6
CONTINUOUS
10
61.7266759999999977
20
-71.4558019999999914
11
61.9124999999999943
21
-71.4375
0
LINE
8
BLACK
6
CONTINUOUS
10
61.9124999999999943
20
-71.4375
11
62.0983239999999981
21
-71.4558019999999914
0
LINE
8
BLACK
6
CONTINUOUS
10
46.8583239999999961
20
-68.9158019999999993
11
47.0370059999999981
21
-68.9700050000000005
0
LINE
8
BLACK
6
CONTINUOUS
10
47.0370059999999981
20
-68.9700050000000005
11
47.2016810000000007
21
-69.0580250000000007
0
LINE
8
BLACK
6
CONTINUOUS
10
47.2016810000000007
20
-69.0580250000000007
11
47.3460189999999983
21
-69.1764809999999954
0
LINE
8
BLACK
6
CONTINUOUS
10
47.3460189999999983
20
-69.1764809999999954
11
47.4644750000000002
21
-69.3208190000000002
0
LINE
8
BLACK
6
CONTINUOUS
10
47.4644750000000002
20
-69.3208190000000002
11
47.5524950000000004
21
-69.4854940000000028
0
LINE
8
BLACK
6
CONTINUOUS
10
47.5524950000000004
20
-69.4854940000000028
11
47.6066979999999944
21
-69.6641759999999977
0
LINE
8
BLACK
6
CONTINUOUS
10
47.6066979999999944
20
-69.6641759999999977
11
47.625
21
-69.8499999999999943
0
LINE
8
BLACK
6
CONTINUOUS
10
47.625
20
-69.8499999999999943
11
47.6066979999999944
21
-70.035823999999991
0
LINE
8
BLACK
6
CONTINUOUS
10
47.6066979999999944
20
-70.035823999999991
11
47.5524950000000004
21
-70.2145060000000001
0
LINE
8
BLACK
6
CONTINUOUS
10
47.5524950000000004
20
-70.2145060000000001
11
47.4644750000000002
21
-70.3791810000000027
0
LINE
8
BLACK
6
CONTINUOUS
10
47.4644750000000002
20
-70.3791810000000027
11
47.3460189999999983
21
-70.5235189999999932
0
LINE
8
BLACK
6
CONTINUOUS
10
47.3460189999999983
20
-70.5235189999999932
11
47.2016810000000007
21
-70.6419750000000022
0
LINE
8
BLACK
6
CONTINUOUS
10
47.2016810000000007
20
-70.6419750000000022
11
47.0370059999999981
21
-70.7299950000000024
0
LINE
8
BLACK
6
CONTINUOUS
10
47.0370059999999981
20
-70.7299950000000024
11
46.8583239999999961
21
-70.7841980000000035
0
LINE
8
BLACK
6
CONTINUOUS
10
46.8583239999999961
20
-70.7841980000000035
11
46.6724999999999994
21
-70.8024999999999949
0
LINE
8
BLACK
6
CONTINUOUS
10
46.6724999999999994
20
-70.8024999999999949
11
46.4866759999999957
21
-70.7841980000000035
0
LINE
8
BLACK
6
CONTINUOUS
10
46.4866759999999957
20
-70.7841980000000035
11
46.3079940000000008
21
-70.7299950000000024
0
LINE
8
BLACK
6
CONTINUOUS
10
46.3079940000000008
20
-70.7299950000000024
11
46.1433189999999982
21
-70.6419750000000022
0
LINE
8
BLACK
6
CONTINUOUS
10
46.1433189999999982
20
-70.6419750000000022
11
45.9989810000000006
21
-70.5235189999999932
0
LINE
8
BLACK
6
CONTINUOUS
10
45.9989810000000006
20
-70.5235189999999932
11
45.8805249999999987
21
-70.3791810000000027
0
LINE
8
BLACK
6
CONTINUOUS
10
45.8805249999999987
20
-70.3791810000000027
11
45.7925049999999985
21
-70.2145060000000001
0
LINE
8
BLACK
6
CONTINUOUS
10
45.7925049999999985
20
-70.2145060000000001
11
45.7383019999999973
21
-70.035823999999991
0
LINE
8
BLACK
6
CONTINUOUS
10
45.7383019999999973
20
-70.035823999999991
11
45.7199999999999989
21
-69.8499999999999943
0
LINE
8
BLACK
6
CONTINUOUS
10
45.7199999999999989
20
-69.8499999999999943
11
45.7383019999999973
21
-69.6641759999999977
0
LINE
8
BLACK
6
CONTINUOUS
10
45.7383019999999973
20
-69.6641759999999977
11
45.7925049999999985
21
-69.4854940000000028
0
LINE
8
BLACK
6
CONTINUOUS
10
45.7925049999999985
20
-69.4854940000000028
11
45.8805249999999987
21
-69.3208190000000002
0
LINE
8
BLACK
6
CONTINUOUS
10
45.8805249999999987
20
-69.3208190000000002
11
45.9989810000000006
21
-69.1764809999999954
0
LINE
8
BLACK
6
CONTINUOUS
10
45.9989810000000006
20
-69.1764809999999954
11
46.1433189999999982
21
-69.0580250000000007
0
LINE
8
BLACK
6
CONTINUOUS
10
46.1433189999999982
20
-69.0580250000000007
11
46.3079940000000008
21
-68.9700050000000005
0
LINE
8
BLACK
6
CONTINUOUS
10
46.3079940000000008
20
-68.9700050000000005
11
46.4866759999999957
21
-68.9158019999999993
0
LINE
8
BLACK
6
CONTINUOUS
10
46.4866759999999957
20
-68.9158019999999993
11
46.6724999999999994
21
-68.8974999999999937
0
LINE
8
BLACK
6
CONTINUOUS
10
46.6724999999999994
20
-68.8974999999999937
11
46.8583239999999961
21
-68.9158019999999993
0
LINE
8
BLACK
6
CONTINUOUS
10
54.4783240000000006
20
-68.9158019999999993
11
54.6570059999999955
21
-68.9700050000000005
0
LINE
8
BLACK
6
CONTINUOUS
10
54.6570059999999955
20
-68.9700050000000005
11
54.8216809999999981
21
-69.0580250000000007
0
LINE
8
BLACK
6
CONTINUOUS
10
54.8216809999999981
20
-69.0580250000000007
11
54.9660189999999957
21
-69.1764809999999954
0
LINE
8
BLACK
6
CONTINUOUS
10
54.9660189999999957
20
-69.1764809999999954
11
55.0844749999999976
21
-69.3208190000000002
0
LINE
8
BLACK
6
CONTINUOUS
10
55.0844749999999976
20
-69.3208190000000002
11
55.1724949999999978
21
-69.4854940000000028
0
LINE
8
BLACK
6
CONTINUOUS
10
55.1724949999999978
20
-69.4854940000000028
11
55.226697999999999
21
-69.6641759999999977
0
LINE
8
BLACK
6
CONTINUOUS
10
55.226697999999999
20
-69.6641759999999977
11
55.2449999999999974
21
-69.8499999999999943
0
LINE
8
BLACK
6
CONTINUOUS
10
55.2449999999999974
20
-69.8499999999999943
11
55.226697999999999
21
-70.035823999999991
0
LINE
8
BLACK
6
CONTINUOUS
10
55.226697999999999
20
-70.035823999999991
11
55.1724949999999978
21
-70.2145060000000001
0
LINE
8
BLACK
6
CONTINUOUS
10
55.1724949999999978
20
-70.2145060000000001
11
55.0844749999999976
21
-70.3791810000000027
0
LINE
8
BLACK
6
CONTINUOUS
10
55.0844749999999976
20
-70.3791810000000027
11
54.9660189999999957
21
-70.5235189999999932
0
LINE
8
BLACK
6
CONTINUOUS
10
54.9660189999999957
20
-70.5235189999999932
11
54.8216809999999981
21
-70.6419750000000022
0
LINE
8
BLACK
6
CONTINUOUS
10
54.8216809999999981
20
-70.6419750000000022
11
54.6570059999999955
21
-70.7299950000000024
0
LINE
8
BLACK
6
CONTINUOUS
10
54.6570059999999955
20
-70.7299950000000024
11
54.4783240000000006
21
-70.7841980000000035
0
LINE
8
BLACK
6
CONTINUOUS
10
54.4783240000000006
20
-70.7841980000000035
11
54.2924999999999969
21
-70.8024999999999949
0
LINE
8
BLACK
6
CONTINUOUS
10
54.2924999999999969
20
-70.8024999999999949
11
54.1066760000000002
21
-70.7841980000000035
0
LINE
8
BLACK
6
CONTINUOUS
10
54.1066760000000002
20
-70.7841980000000035
11
53.9279939999999982
21
-70.7299950000000024
0
LINE
8
BLACK
6
CONTINUOUS
10
53.9279939999999982
20
-70.7299950000000024
11
53.7633189999999956
21
-70.6419750000000022
0
LINE
8
BLACK
6
CONTINUOUS
10
53.7633189999999956
20
-70.6419750000000022
11
53.618980999999998
21
-70.5235189999999932
0
LINE
8
BLACK
6
CONTINUOUS
10
53.618980999999998
20
-70.5235189999999932
11
53.5005249999999961
21
-70.3791810000000027
0
LINE
8
BLACK
6
CONTINUOUS
10
53.5005249999999961
20
-70.3791810000000027
11
53.4125049999999959
21
-70.2145060000000001
0
LINE
8
BLACK
6
CONTINUOUS
10
53.4125049999999959
20
-70.2145060000000001
11
53.3583019999999948
21
-70.035823999999991
0
LINE
8
BLACK
6
CONTINUOUS
10
53.3583019999999948
20
-70.035823999999991
11
53.3399999999999963
21
-69.8499999999999943
0
LINE
8
BLACK
6
CONTINUOUS
10
53.3399999999999963
20
-69.8499999999999943
11
53.3583019999999948
21
-69.6641759999999977
0
LINE
8
BLACK
6
CONTINUOUS
10
53.3583019999999948
20
-69.6641759999999977
11
53.4125049999999959
21
-69.4854940000000028
0
LINE
8
BLACK
6
CONTINUOUS
10
53.4125049999999959
20
-69.4854940000000028
11
53.5005249999999961
21
-69.3208190000000002
0
LINE
8
BLACK
6
CONTINUOUS
10
53.5005249999999961
20
-69.3208190000000002
11
53.618980999999998
21
-69.1764809999999954
0
LINE
8
BLACK
6
CONTINUOUS
10
53.618980999999998
20
-69.1764809999999954
11
53.7633189999999956
21
-69.0580250000000007
0
LINE
8
BLACK
6
CONTINUOUS
10
53.7633189999999956
20
-69.0580250000000007
11
53.9279939999999982
21
-68.9700050000000005
0
LINE
8
BLACK
6
CONTINUOUS
10
53.9279939999999982
20
-68.9700050000000005
11
54.1066760000000002
21
-68.9158019999999993
0
LINE
8
BLACK
6
CONTINUOUS
10
54.1066760000000002
20
-68.9158019999999993
11
54.2924999999999969
21
-68.8974999999999937
0
LINE
8
BLACK
6
CONTINUOUS
10
54.2924999999999969
20
-68.8974999999999937
11
54.4783240000000006
21
-68.9158019999999993
0
LINE
8
BLACK
6
CONTINUOUS
10
57.0183239999999998
20
-68.9158019999999993
11
57.1970059999999947
21
-68.9700050000000005
0
LINE
8
BLACK
6
CONTINUOUS
10
57.1970059999999947
20
-68.9700050000000005
11
57.3616809999999973
21
-69.0580250000000007
0
LINE
8
BLACK
6
CONTINUOUS
10
57.3616809999999973
20
-69.0580250000000007
11
57.5060189999999949
21
-69.1764809999999954
0
LINE
8
BLACK
6
CONTINUOUS
10
57.5060189999999949
20
-69.1764809999999954
11
57.6244749999999968
21
-69.3208190000000002
0
LINE
8
BLACK
6
CONTINUOUS
10
57.6244749999999968
20
-69.3208190000000002
11
57.712494999999997
21
-69.4854940000000028
0
LINE
8
BLACK
6
CONTINUOUS
10
57.712494999999997
20
-69.4854940000000028
11
57.7666979999999981
21
-69.6641759999999977
0
LINE
8
BLACK
6
CONTINUOUS
10
57.7666979999999981
20
-69.6641759999999977
11
57.7849999999999966
21
-69.8499999999999943
0
LINE
8
BLACK
6
CONTINUOUS
10
57.7849999999999966
20
-69.8499999999999943
11
57.7666979999999981
21
-70.035823999999991
0
LINE
8
BLACK
6
CONTINUOUS
10
57.7666979999999981
20
-70.035823999999991
11
57.712494999999997
21
-70.2145060000000001
0
LINE
8
BLACK
6
CONTINUOUS
10
57.712494999999997
20
-70.2145060000000001
11
57.6244749999999968
21
-70.3791810000000027
0
LINE
8
BLACK
6
CONTINUOUS
10
57.6244749999999968
20
-70.3791810000000027
11
57.5060189999999949
21
-70.5235189999999932
0
LINE
8
BLACK
6
CONTINUOUS
10
57.5060189999999949
20
-70.5235189999999932
11
57.3616809999999973
21
-70.6419750000000022
0
LINE
8
BLACK
6
CONTINUOUS
10
57.3616809999999973
20
-70.6419750000000022
11
57.1970059999999947
21
-70.7299950000000024
0
LINE
8
BLACK
6
CONTINUOUS
10
57.1970059999999947
20
-70.7299950000000024
11
57.0183239999999998
21
-70.7841980000000035
0
LINE
8
BLACK
6
CONTINUOUS
10
57.0183239999999998
20
-70.7841980000000035
11
56.832499999999996
21
-70.8024999999999949
0
LINE
8
BLACK
6
CONTINUOUS
10
56.832499999999996
20
-70.8024999999999949
11
56.6466759999999994
21
-70.7841980000000035
0
LINE
8
BLACK
6
CONTINUOUS
10
56.6466759999999994
20
-70.7841980000000035
11
56.4679939999999974
21
-70.7299950000000024
0
LINE
8
BLACK
6
CONTINUOUS
10
56.4679939999999974
20
-70.7299950000000024
11
56.3033189999999948
21
-70.6419750000000022
0
LINE
8
BLACK
6
CONTINUOUS
10
56.3033189999999948
20
-70.6419750000000022
11
56.1589809999999972
21
-70.5235189999999932
0
LINE
8
BLACK
6
CONTINUOUS
10
56.1589809999999972
20
-70.5235189999999932
11
56.0405249999999953
21
-70.3791810000000027
0
LINE
8
BLACK
6
CONTINUOUS
10
56.0405249999999953
20
-70.3791810000000027
11
55.9525049999999951
21
-70.2145060000000001
0
LINE
8
BLACK
6
CONTINUOUS
10
55.9525049999999951
20
-70.2145060000000001
11
55.8983019999999939
21
-70.035823999999991
0
LINE
8
BLACK
6
CONTINUOUS
10
55.8983019999999939
20
-70.035823999999991
11
55.8799999999999955
21
-69.8499999999999943
0
LINE
8
BLACK
6
CONTINUOUS
10
55.8799999999999955
20
-69.8499999999999943
11
55.8983019999999939
21
-69.6641759999999977
0
LINE
8
BLACK
6
CONTINUOUS
10
55.8983019999999939
20
-69.6641759999999977
11
55.9525049999999951
21
-69.4854940000000028
0
LINE
8
BLACK
6
CONTINUOUS
10
55.9525049999999951
20
-69.4854940000000028
11
56.0405249999999953
21
-69.3208190000000002
0
LINE
8
BLACK
6
CONTINUOUS
10
56.0405249999999953
20
-69.3208190000000002
11
56.1589809999999972
21
-69.1764809999999954
0
LINE
8
BLACK
6
CONTINUOUS
10
56.1589809999999972
20
-69.1764809999999954
11
56.3033189999999948
21
-69.0580250000000007
0
LINE
8
BLACK
6
CONTINUOUS
10
56.3033189999999948
20
-69.0580250000000007
11
56.4679939999999974
21
-68.9700050000000005
0
LINE
8
BLACK
6
CONTINUOUS
10
56.4679939999999974
20
-68.9700050000000005
11
56.6466759999999994
21
-68.9158019999999993
0
LINE
8
BLACK
6
CONTINUOUS
10
56.6466759999999994
20
-68.9158019999999993
11
56.832499999999996
21
-68.8974999999999937
0
LINE
8
BLACK
6
CONTINUOUS
10
56.832499999999996
20
-68.8974999999999937
11
57.0183239999999998
21
-68.9158019999999993
0
LINE
8
BLACK
6
CONTINUOUS
10
62.0983239999999981
20
-68.9158019999999993
11
62.2770060000000001
21
-68.9700050000000005
0
LINE
8
BLACK
6
CONTINUOUS
10
62.2770060000000001
20
-68.9700050000000005
11
62.4416809999999955
21
-69.0580250000000007
0
LINE
8
BLACK
6
CONTINUOUS
10
62.4416809999999955
20
-69.0580250000000007
11
62.5860190000000003
21
-69.1764809999999954
0
LINE
8
BLACK
6
CONTINUOUS
10
62.5860190000000003
20
-69.1764809999999954
11
62.7044749999999951
21
-69.3208190000000002
0
LINE
8
BLACK
6
CONTINUOUS
10
62.7044749999999951
20
-69.3208190000000002
11
62.7924949999999953
21
-69.4854940000000028
0
LINE
8
BLACK
6
CONTINUOUS
10
62.7924949999999953
20
-69.4854940000000028
11
62.8466979999999964
21
-69.6641759999999977
0
LINE
8
BLACK
6
CONTINUOUS
10
62.8466979999999964
20
-69.6641759999999977
11
62.8649999999999949
21
-69.8499999999999943
0
LINE
8
BLACK
6
CONTINUOUS
10
62.8649999999999949
20
-69.8499999999999943
11
62.8466979999999964
21
-70.035823999999991
0
LINE
8
BLACK
6
CONTINUOUS
10
62.8466979999999964
20
-70.035823999999991
11
62.7924949999999953
21
-70.2145060000000001
0
LINE
8
BLACK
6
CONTINUOUS
10
62.7924949999999953
20
-70.2145060000000001
11
62.7044749999999951
21
-70.3791810000000027
0
LINE
8
BLACK
6
CONTINUOUS
10
62.7044749999999951
20
-70.3791810000000027
11
62.5860190000000003
21
-70.5235189999999932
0
LINE
8
BLACK
6
CONTINUOUS
10
62.5860190000000003
20
-70.5235189999999932
11
62.4416809999999955
21
-70.6419750000000022
0
LINE
8
BLACK
6
CONTINUOUS
10
62.4416809999999955
20
-70.6419750000000022
11
62.2770060000000001
21
-70.7299950000000024
0
LINE
8
BLACK
6
CONTINUOUS
10
62.2770060000000001
20
-70.7299950000000024
11
62.0983239999999981
21
-70.7841980000000035
0
LINE
8
BLACK
6
CONTINUOUS
10
62.0983239999999981
20
-70.7841980000000035
11
61.9124999999999943
21
-70.8024999999999949
0
LINE
8
BLACK
6
CONTINUOUS
10
61.9124999999999943
20
-70.8024999999999949
11
61.7266759999999977
21
-70.7841980000000035
0
LINE
8
BLACK
6
CONTINUOUS
10
61.7266759999999977
20
-70.7841980000000035
11
61.5479939999999957
21
-70.7299950000000024
0
LINE
8
BLACK
6
CONTINUOUS
10
61.5479939999999957
20
-70.7299950000000024
11
61.3833190000000002
21
-70.6419750000000022
0
LINE
8
BLACK
6
CONTINUOUS
10
61.3833190000000002
20
-70.6419750000000022
11
61.2389809999999954
21
-70.5235189999999932
0
LINE
8
BLACK
6
CONTINUOUS
10
61.2389809999999954
20
-70.5235189999999932
11
61.1205250000000007
21
-70.3791810000000027
0
LINE
8
BLACK
6
CONTINUOUS
10
61.1205250000000007
20
-70.3791810000000027
11
61.0325050000000005
21
-70.2145060000000001
0
LINE
8
BLACK
6
CONTINUOUS
10
61.0325050000000005
20
-70.2145060000000001
11
60.9783019999999993
21
-70.035823999999991
0
LINE
8
BLACK
6
CONTINUOUS
10
60.9783019999999993
20
-70.035823999999991
11
60.9599999999999937
21
-69.8499999999999943
0
LINE
8
BLACK
6
CONTINUOUS
10
60.9599999999999937
20
-69.8499999999999943
11
60.9783019999999993
21
-69.6641759999999977
0
LINE
8
BLACK
6
CONTINUOUS
10
60.9783019999999993
20
-69.6641759999999977
11
61.0325050000000005
21
-69.4854940000000028
0
LINE
8
BLACK
6
CONTINUOUS
10
61.0325050000000005
20
-69.4854940000000028
11
61.1205250000000007
21
-69.3208190000000002
0
LINE
8
BLACK
6
CONTINUOUS
10
61.1205250000000007
20
-69.3208190000000002
11
61.2389809999999954
21
-69.1764809999999954
0
LINE
8
BLACK
6
CONTINUOUS
10
61.2389809999999954
20
-69.1764809999999954
11
61.3833190000000002
21
-69.0580250000000007
0
LINE
8
BLACK
6
CONTINUOUS
10
61.3833190000000002
20
-69.0580250000000007
11
61.5479939999999957
21
-68.9700050000000005
0
LINE
8
BLACK
6
CONTINUOUS
10
61.5479939999999957
20
-68.9700050000000005
11
61.7266759999999977
21
-68.9158019999999993
0
LINE
8
BLACK
6
CONTINUOUS
10
61.7266759999999977
20
-68.9158019999999993
11
61.9124999999999943
21
-68.8974999999999937
0
LINE
8
BLACK
6
CONTINUOUS
10
61.9124999999999943
20
-68.8974999999999937
11
62.0983239999999981
21
-68.9158019999999993
0
LINE
8
BLACK
6
CONTINUOUS
10
46.8583239999999961
20
-66.3758019999999931
11
47.0370059999999981
21
-66.4300049999999942
0
LINE
8
BLACK
6
CONTINUOUS
10
47.0370059999999981
20
-66.4300049999999942
11
47.2016810000000007
21
-66.5180249999999944
0
LINE
8
BLACK
6
CONTINUOUS
10
47.2016810000000007
20
-66.5180249999999944
11
47.3460189999999983
21
-66.6364810000000034
0
LINE
8
BLACK
6
CONTINUOUS
10
47.3460189999999983
20
-66.6364810000000034
11
47.4644750000000002
21
-66.7808189999999939
0
LINE
8
BLACK
6
CONTINUOUS
10
47.4644750000000002
20
-66.7808189999999939
11
47.5524950000000004
21
-66.9454939999999965
0
LINE
8
BLACK
6
CONTINUOUS
10
47.5524950000000004
20
-66.9454939999999965
11
47.6066979999999944
21
-67.1241759999999914
0
LINE
8
BLACK
6
CONTINUOUS
10
47.6066979999999944
20
-67.1241759999999914
11
47.625
21
-67.3100000000000023
0
LINE
8
BLACK
6
CONTINUOUS
10
47.625
20
-67.3100000000000023
11
47.6066979999999944
21
-67.4958239999999989
0
LINE
8
BLACK
6
CONTINUOUS
10
47.6066979999999944
20
-67.4958239999999989
11
47.5524950000000004
21
-67.6745059999999938
0
LINE
8
BLACK
6
CONTINUOUS
10
47.5524950000000004
20
-67.6745059999999938
11
47.4644750000000002
21
-67.8391809999999964
0
LINE
8
BLACK
6
CONTINUOUS
10
47.4644750000000002
20
-67.8391809999999964
11
47.3460189999999983
21
-67.9835190000000011
0
LINE
8
BLACK
6
CONTINUOUS
10
47.3460189999999983
20
-67.9835190000000011
11
47.2016810000000007
21
-68.1019749999999959
0
LINE
8
BLACK
6
CONTINUOUS
10
47.2016810000000007
20
-68.1019749999999959
11
47.0370059999999981
21
-68.1899949999999961
0
LINE
8
BLACK
6
CONTINUOUS
10
47.0370059999999981
20
-68.1899949999999961
11
46.8583239999999961
21
-68.2441979999999973
0
LINE
8
BLACK
6
CONTINUOUS
10
46.8583239999999961
20
-68.2441979999999973
11
46.6724999999999994
21
-68.2625000000000028
0
LINE
8
BLACK
6
CONTINUOUS
10
46.6724999999999994
20
-68.2625000000000028
11
46.4866759999999957
21
-68.2441979999999973
0
LINE
8
BLACK
6
CONTINUOUS
10
46.4866759999999957
20
-68.2441979999999973
11
46.3079940000000008
21
-68.1899949999999961
0
LINE
8
BLACK
6
CONTINUOUS
10
46.3079940000000008
20
-68.1899949999999961
11
46.1433189999999982
21
-68.1019749999999959
0
LINE
8
BLACK
6
CONTINUOUS
10
46.1433189999999982
20
-68.1019749999999959
11
45.9989810000000006
21
-67.9835190000000011
0
LINE
8
BLACK
6
CONTINUOUS
10
45.9989810000000006
20
-67.9835190000000011
11
45.8805249999999987
21
-67.8391809999999964
0
LINE
8
BLACK
6
CONTINUOUS
10
45.8805249999999987
20
-67.8391809999999964
11
45.7925049999999985
21
-67.6745059999999938
0
LINE
8
BLACK
6
CONTINUOUS
10
45.7925049999999985
20
-67.6745059999999938
11
45.7383019999999973
21
-67.4958239999999989
0
LINE
8
BLACK
6
CONTINUOUS
10
45.7383019999999973
20
-67.4958239999999989
11
45.7199999999999989
21
-67.3100000000000023
0
LINE
8
BLACK
6
CONTINUOUS
10
45.7199999999999989
20
-67.3100000000000023
11
45.7383019999999973
21
-67.1241759999999914
0
LINE
8
BLACK
6
CONTINUOUS
10
45.7383019999999973
20
-67.1241759999999914
11
45.7925049999999985
21
-66.9454939999999965
0
LINE
8
BLACK
6
CONTINUOUS
10
45.7925049999999985
20
-66.9454939999999965
11
45.8805249999999987
21
-66.7808189999999939
0
LINE
8
BLACK
6
CONTINUOUS
10
45.8805249999999987
20
-66.7808189999999939
11
45.9989810000000006
21
-66.6364810000000034
0
LINE
8
BLACK
6
CONTINUOUS
10
45.9989810000000006
20
-66.6364810000000034
11
46.1433189999999982
21
-66.5180249999999944
0
LINE
8
BLACK
6
CONTINUOUS
10
46.1433189999999982
20
-66.5180249999999944
11
46.3079940000000008
21
-66.4300049999999942
0
LINE
8
BLACK
6
CONTINUOUS
10
46.3079940000000008
20
-66.4300049999999942
11
46.4866759999999957
21
-66.3758019999999931
0
LINE
8
BLACK
6
CONTINUOUS
10
46.4866759999999957
20
-66.3758019999999931
11
46.6724999999999994
21
-66.3575000000000017
0
LINE
8
BLACK
6
CONTINUOUS
10
46.6724999999999994
20
-66.3575000000000017
11
46.8583239999999961
21
-66.3758019999999931
0
LINE
8
BLACK
6
CONTINUOUS
10
54.4783240000000006
20
-66.3758019999999931
11
54.6570059999999955
21
-66.4300049999999942
0
LINE
8
BLACK
6
CONTINUOUS
10
54.6570059999999955
20
-66.4300049999999942
11
54.8216809999999981
21
-66.5180249999999944
0
LINE
8
BLACK
6
CONTINUOUS
10
54.8216809999999981
20
-66.5180249999999944
11
54.9660189999999957
21
-66.6364810000000034
0
LINE
8
BLACK
6
CONTINUOUS
10
54.9660189999999957
20
-66.6364810000000034
11
55.0844749999999976
21
-66.7808189999999939
0
LINE
8
BLACK
6
CONTINUOUS
10
55.0844749999999976
20
-66.7808189999999939
11
55.1724949999999978
21
-66.9454939999999965
0
LINE
8
BLACK
6
CONTINUOUS
10
55.1724949999999978
20
-66.9454939999999965
11
55.226697999999999
21
-67.1241759999999914
0
LINE
8
BLACK
6
CONTINUOUS
10
55.226697999999999
20
-67.1241759999999914
11
55.2449999999999974
21
-67.3100000000000023
0
LINE
8
BLACK
6
CONTINUOUS
10
55.2449999999999974
20
-67.3100000000000023
11
55.226697999999999
21
-67.4958239999999989
0
LINE
8
BLACK
6
CONTINUOUS
10
55.226697999999999
20
-67.4958239999999989
11
55.1724949999999978
21
-67.6745059999999938
0
LINE
8
BLACK
6
CONTINUOUS
10
55.1724949999999978
20
-67.6745059999999938
11
55.0844749999999976
21
-67.8391809999999964
0
LINE
8
BLACK
6
CONTINUOUS
10
55.0844749999999976
20
-67.8391809999999964
11
54.9660189999999957
21
-67.9835190000000011
0
LINE
8
BLACK
6
CONTINUOUS
10
54.9660189999999957
20
-67.9835190000000011
11
54.8216809999999981
21
-68.1019749999999959
0
LINE
8
BLACK
6
CONTINUOUS
10
54.8216809999999981
20
-68.1019749999999959
11
54.6570059999999955
21
-68.1899949999999961
0
LINE
8
BLACK
6
CONTINUOUS
10
54.6570059999999955
20
-68.1899949999999961
11
54.4783240000000006
21
-68.2441979999999973
0
LINE
8
BLACK
6
CONTINUOUS
10
54.4783240000000006
20
-68.2441979999999973
11
54.2924999999999969
21
-68.2625000000000028
0
LINE
8
BLACK
6
CONTINUOUS
10
54.2924999999999969
20
-68.2625000000000028
11
54.1066760000000002
21
-68.2441979999999973
0
LINE
8
BLACK
6
CONTINUOUS
10
54.1066760000000002
20
-68.2441979999999973
11
53.9279939999999982
21
-68.1899949999999961
0
LINE
8
BLACK
6
CONTINUOUS
10
53.9279939999999982
20
-68.1899949999999961
11
53.7633189999999956
21
-68.1019749999999959
0
LINE
8
BLACK
6
CONTINUOUS
10
53.7633189999999956
20
-68.1019749999999959
11
53.618980999999998
21
-67.9835190000000011
0
LINE
8
BLACK
6
CONTINUOUS
10
53.618980999999998
20
-67.9835190000000011
11
53.5005249999999961
21
-67.8391809999999964
0
LINE
8
BLACK
6
CONTINUOUS
10
53.5005249999999961
20
-67.8391809999999964
11
53.4125049999999959
21
-67.6745059999999938
0
LINE
8
BLACK
6
CONTINUOUS
10
53.4125049999999959
20
-67.6745059999999938
11
53.3583019999999948
21
-67.4958239999999989
0
LINE
8
BLACK
6
CONTINUOUS
10
53.3583019999999948
20
-67.4958239999999989
11
53.3399999999999963
21
-67.3100000000000023
0
LINE
8
BLACK
6
CONTINUOUS
10
53.3399999999999963
20
-67.3100000000000023
11
53.3583019999999948
21
-67.1241759999999914
0
LINE
8
BLACK
6
CONTINUOUS
10
53.3583019999999948
20
-67.1241759999999914
11
53.4125049999999959
21
-66.9454939999999965
0
LINE
8
BLACK
6
CONTINUOUS
10
53.4125049999999959
20
-66.9454939999999965
11
53.5005249999999961
21
-66.7808189999999939
0
LINE
8
BLACK
6
CONTINUOUS
10
53.5005249999999961
20
-66.7808189999999939
11
53.618980999999998
21
-66.6364810000000034
0
LINE
8
BLACK
6
CONTINUOUS
10
53.618980999999998
20
-66.6364810000000034
11
53.7633189999999956
21
-66.5180249999999944
0
LINE
8
BLACK
6
CONTINUOUS
10
53.7633189999999956
20
-66.5180249999999944
11
53.9279939999999982
21
-66.4300049999999942
0
LINE
8
BLACK
6
CONTINUOUS
10
53.9279939999999982
20
-66.4300049999999942
11
54.1066760000000002
21
-66.3758019999999931
0
LINE
8
BLACK
6
CONTINUOUS
10
54.1066760000000002
20
-66.3758019999999931
11
54.2924999999999969
21
-66.3575000000000017
0
LINE
8
BLACK
6
CONTINUOUS
10
54.2924999999999969
20
-66.3575000000000017
11
54.4783240000000006
21
-66.3758019999999931
0
LINE
8
BLACK
6
CONTINUOUS
10
57.0183249999999973
20
-66.3758019999999931
11
57.1970069999999993
21
-66.4300049999999942
0
LINE
8
BLACK
6
CONTINUOUS
10
57.1970069999999993
20
-66.4300049999999942
11
57.3616819999999947
21
-66.5180249999999944
0
LINE
8
BLACK
6
CONTINUOUS
10
57.3616819999999947
20
-66.5180249999999944
11
57.5060199999999995
21
-66.6364810000000034
0
LINE
8
BLACK
6
CONTINUOUS
10
57.5060199999999995
20
-66.6364810000000034
11
57.6244759999999943
21
-66.7808189999999939
0
LINE
8
BLACK
6
CONTINUOUS
10
57.6244759999999943
20
-66.7808189999999939
11
57.7124959999999945
21
-66.9454939999999965
0
LINE
8
BLACK
6
CONTINUOUS
10
57.7124959999999945
20
-66.9454939999999965
11
57.7666989999999956
21
-67.1241759999999914
0
LINE
8
BLACK
6
CONTINUOUS
10
57.7666989999999956
20
-67.1241759999999914
11
57.7850009999999941
21
-67.3100000000000023
0
LINE
8
BLACK
6
CONTINUOUS
10
57.7850009999999941
20
-67.3100000000000023
11
57.7666989999999956
21
-67.4958239999999989
0
LINE
8
BLACK
6
CONTINUOUS
10
57.7666989999999956
20
-67.4958239999999989
11
57.7124959999999945
21
-67.6745059999999938
0
LINE
8
BLACK
6
CONTINUOUS
10
57.7124959999999945
20
-67.6745059999999938
11
57.6244759999999943
21
-67.8391809999999964
0
LINE
8
BLACK
6
CONTINUOUS
10
57.6244759999999943
20
-67.8391809999999964
11
57.5060199999999995
21
-67.9835190000000011
0
LINE
8
BLACK
6
CONTINUOUS
10
57.5060199999999995
20
-67.9835190000000011
11
57.3616819999999947
21
-68.1019749999999959
0
LINE
8
BLACK
6
CONTINUOUS
10
57.3616819999999947
20
-68.1019749999999959
11
57.1970069999999993
21
-68.1899949999999961
0
LINE
8
BLACK
6
CONTINUOUS
10
57.1970069999999993
20
-68.1899949999999961
11
57.0183249999999973
21
-68.2441979999999973
0
LINE
8
BLACK
6
CONTINUOUS
10
57.0183249999999973
20
-68.2441979999999973
11
56.8325010000000006
21
-68.2625000000000028
0
LINE
8
BLACK
6
CONTINUOUS
10
56.8325010000000006
20
-68.2625000000000028
11
56.6466769999999968
21
-68.2441979999999973
0
LINE
8
BLACK
6
CONTINUOUS
10
56.6466769999999968
20
-68.2441979999999973
11
56.4679949999999948
21
-68.1899949999999961
0
LINE
8
BLACK
6
CONTINUOUS
10
56.4679949999999948
20
-68.1899949999999961
11
56.3033199999999994
21
-68.1019749999999959
0
LINE
8
BLACK
6
CONTINUOUS
10
56.3033199999999994
20
-68.1019749999999959
11
56.1589819999999946
21
-67.9835190000000011
0
LINE
8
BLACK
6
CONTINUOUS
10
56.1589819999999946
20
-67.9835190000000011
11
56.0405259999999998
21
-67.8391809999999964
0
LINE
8
BLACK
6
CONTINUOUS
10
56.0405259999999998
20
-67.8391809999999964
11
55.9525059999999996
21
-67.6745059999999938
0
LINE
8
BLACK
6
CONTINUOUS
10
55.9525059999999996
20
-67.6745059999999938
11
55.8983029999999985
21
-67.4958239999999989
0
LINE
8
BLACK
6
CONTINUOUS
10
55.8983029999999985
20
-67.4958239999999989
11
55.880001
21
-67.3100000000000023
0
LINE
8
BLACK
6
CONTINUOUS
10
55.880001
20
-67.3100000000000023
11
55.8983029999999985
21
-67.1241759999999914
0
LINE
8
BLACK
6
CONTINUOUS
10
55.8983029999999985
20
-67.1241759999999914
11
55.9525059999999996
21
-66.9454939999999965
0
LINE
8
BLACK
6
CONTINUOUS
10
55.9525059999999996
20
-66.9454939999999965
11
56.0405259999999998
21
-66.7808189999999939
0
LINE
8
BLACK
6
CONTINUOUS
10
56.0405259999999998
20
-66.7808189999999939
11
56.1589819999999946
21
-66.6364810000000034
0
LINE
8
BLACK
6
CONTINUOUS
10
56.1589819999999946
20
-66.6364810000000034
11
56.3033199999999994
21
-66.5180249999999944
0
LINE
8
BLACK
6
CONTINUOUS
10
56.3033199999999994
20
-66.5180249999999944
11
56.4679949999999948
21
-66.4300049999999942
0
LINE
8
BLACK
6
CONTINUOUS
10
56.4679949999999948
20
-66.4300049999999942
11
56.6466769999999968
21
-66.3758019999999931
0
LINE
8
BLACK
6
CONTINUOUS
10
56.6466769999999968
20
-66.3758019999999931
11
56.8325010000000006
21
-66.3575000000000017
0
LINE
8
BLACK
6
CONTINUOUS
10
56.8325010000000006
20
-66.3575000000000017
11
57.0183249999999973
21
-66.3758019999999931
0
LINE
8
BLACK
6
CONTINUOUS
10
62.0983239999999981
20
-66.3758019999999931
11
62.2770060000000001
21
-66.4300049999999942
0
LINE
8
BLACK
6
CONTINUOUS
10
62.2770060000000001
20
-66.4300049999999942
11
62.4416809999999955
21
-66.5180249999999944
0
LINE
8
BLACK
6
CONTINUOUS
10
62.4416809999999955
20
-66.5180249999999944
11
62.5860190000000003
21
-66.6364810000000034
0
LINE
8
BLACK
6
CONTINUOUS
10
62.5860190000000003
20
-66.6364810000000034
11
62.7044749999999951
21
-66.7808189999999939
0
LINE
8
BLACK
6
CONTINUOUS
10
62.7044749999999951
20
-66.7808189999999939
11
62.7924949999999953
21
-66.9454939999999965
0
LINE
8
BLACK
6
CONTINUOUS
10
62.7924949999999953
20
-66.9454939999999965
11
62.8466979999999964
21
-67.1241759999999914
0
LINE
8
BLACK
6
CONTINUOUS
10
62.8466979999999964
20
-67.1241759999999914
11
62.8649999999999949
21
-67.3100000000000023
0
LINE
8
BLACK
6
CONTINUOUS
10
62.8649999999999949
20
-67.3100000000000023
11
62.8466979999999964
21
-67.4958239999999989
0
LINE
8
BLACK
6
CONTINUOUS
10
62.8466979999999964
20
-67.4958239999999989
11
62.7924949999999953
21
-67.6745059999999938
0
LINE
8
BLACK
6
CONTINUOUS
10
62.7924949999999953
20
-67.6745059999999938
11
62.7044749999999951
21
-67.8391809999999964
0
LINE
8
BLACK
6
CONTINUOUS
10
62.7044749999999951
20
-67.8391809999999964
11
62.5860190000000003
21
-67.9835190000000011
0
LINE
8
BLACK
6
CONTINUOUS
10
62.5860190000000003
20
-67.9835190000000011
11
62.4416809999999955
21
-68.1019749999999959
0
LINE
8
BLACK
6
CONTINUOUS
10
62.4416809999999955
20
-68.1019749999999959
11
62.2770060000000001
21
-68.1899949999999961
0
LINE
8
BLACK
6
CONTINUOUS
10
62.2770060000000001
20
-68.1899949999999961
11
62.0983239999999981
21
-68.2441979999999973
0
LINE
8
BLACK
6
CONTINUOUS
10
62.0983239999999981
20
-68.2441979999999973
11
61.9124999999999943
21
-68.2625000000000028
0
LINE
8
BLACK
6
CONTINUOUS
10
61.9124999999999943
20
-68.2625000000000028
11
61.7266759999999977
21
-68.2441979999999973
0
LINE
8
BLACK
6
CONTINUOUS
10
61.7266759999999977
20
-68.2441979999999973
11
61.5479939999999957
21
-68.1899949999999961
0
LINE
8
BLACK
6
CONTINUOUS
10
61.5479939999999957
20
-68.1899949999999961
11
61.3833190000000002
21
-68.1019749999999959
0
LINE
8
BLACK
6
CONTINUOUS
10
61.3833190000000002
20
-68.1019749999999959
11
61.2389809999999954
21
-67.9835190000000011
0
LINE
8
BLACK
6
CONTINUOUS
10
61.2389809999999954
20
-67.9835190000000011
11
61.1205250000000007
21
-67.8391809999999964
0
LINE
8
BLACK
6
CONTINUOUS
10
61.1205250000000007
20
-67.8391809999999964
11
61.0325050000000005
21
-67.6745059999999938
0
LINE
8
BLACK
6
CONTINUOUS
10
61.0325050000000005
20
-67.6745059999999938
11
60.9783019999999993
21
-67.4958239999999989
0
LINE
8
BLACK
6
CONTINUOUS
10
60.9783019999999993
20
-67.4958239999999989
11
60.9599999999999937
21
-67.3100000000000023
0
LINE
8
BLACK
6
CONTINUOUS
10
60.9599999999999937
20
-67.3100000000000023
11
60.9783019999999993
21
-67.1241759999999914
0
LINE
8
BLACK
6
CONTINUOUS
10
60.9783019999999993
20
-67.1241759999999914
11
61.0325050000000005
21
-66.9454939999999965
0
LINE
8
BLACK
6
CONTINUOUS
10
61.0325050000000005
20
-66.9454939999999965
11
61.1205250000000007
21
-66.7808189999999939
0
LINE
8
BLACK
6
CONTINUOUS
10
61.1205250000000007
20
-66.7808189999999939
11
61.2389809999999954
21
-66.6364810000000034
0
LINE
8
BLACK
6
CONTINUOUS
10
61.2389809999999954
20
-66.6364810000000034
11
61.3833190000000002
21
-66.5180249999999944
0
LINE
8
BLACK
6
CONTINUOUS
10
61.3833190000000002
20
-66.5180249999999944
11
61.5479939999999957
21
-66.4300049999999942
0
LINE
8
BLACK
6
CONTINUOUS
10
61.5479939999999957
20
-66.4300049999999942
11
61.7266759999999977
21
-66.3758019999999931
0
LINE
8
BLACK
6
CONTINUOUS
10
61.7266759999999977
20
-66.3758019999999931
11
61.9124999999999943
21
-66.3575000000000017
0
LINE
8
BLACK
6
CONTINUOUS
10
61.9124999999999943
20
-66.3575000000000017
11
62.0983239999999981
21
-66.3758019999999931
0
LINE
8
BLACK
6
CONTINUOUS
10
39.2383249999999961
20
-63.8358019999999939
11
39.4170069999999981
21
-63.8900049999999951
0
LINE
8
BLACK
6
CONTINUOUS
10
39.4170069999999981
20
-63.8900049999999951
11
39.5816820000000007
21
-63.9780249999999953
0
LINE
8
BLACK
6
CONTINUOUS
10
39.5816820000000007
20
-63.9780249999999953
11
39.7260199999999983
21
-64.0964809999999972
0
LINE
8
BLACK
6
CONTINUOUS
10
39.7260199999999983
20
-64.0964809999999972
11
39.8444760000000002
21
-64.2408190000000019
0
LINE
8
BLACK
6
CONTINUOUS
10
39.8444760000000002
20
-64.2408190000000019
11
39.9324960000000004
21
-64.4054939999999903
0
LINE
8
BLACK
6
CONTINUOUS
10
39.9324960000000004
20
-64.4054939999999903
11
39.9866990000000015
21
-64.5841759999999994
0
LINE
8
BLACK
6
CONTINUOUS
10
39.9866990000000015
20
-64.5841759999999994
11
40.005001
21
-64.769999999999996
0
LINE
8
BLACK
6
CONTINUOUS
10
40.005001
20
-64.769999999999996
11
39.9866990000000015
21
-64.9558239999999927
0
LINE
8
BLACK
6
CONTINUOUS
10
39.9866990000000015
20
-64.9558239999999927
11
39.9324960000000004
21
-65.1345060000000018
0
LINE
8
BLACK
6
CONTINUOUS
10
39.9324960000000004
20
-65.1345060000000018
11
39.8444760000000002
21
-65.2991809999999901
0
LINE
8
BLACK
6
CONTINUOUS
10
39.8444760000000002
20
-65.2991809999999901
11
39.7260199999999983
21
-65.4435189999999949
0
LINE
8
BLACK
6
CONTINUOUS
10
39.7260199999999983
20
-65.4435189999999949
11
39.5816820000000007
21
-65.5619750000000039
0
LINE
8
BLACK
6
CONTINUOUS
10
39.5816820000000007
20
-65.5619750000000039
11
39.4170069999999981
21
-65.6499950000000041
0
LINE
8
BLACK
6
CONTINUOUS
10
39.4170069999999981
20
-65.6499950000000041
11
39.2383249999999961
21
-65.704197999999991
0
LINE
8
BLACK
6
CONTINUOUS
10
39.2383249999999961
20
-65.704197999999991
11
39.0525009999999995
21
-65.7224999999999966
0
LINE
8
BLACK
6
CONTINUOUS
10
39.0525009999999995
20
-65.7224999999999966
11
38.8666769999999957
21
-65.704197999999991
0
LINE
8
BLACK
6
CONTINUOUS
10
38.8666769999999957
20
-65.704197999999991
11
38.6879950000000008
21
-65.6499950000000041
0
LINE
8
BLACK
6
CONTINUOUS
10
38.6879950000000008
20
-65.6499950000000041
11
38.5233199999999982
21
-65.5619750000000039
0
LINE
8
BLACK
6
CONTINUOUS
10
38.5233199999999982
20
-65.5619750000000039
11
38.3789820000000006
21
-65.4435189999999949
0
LINE
8
BLACK
6
CONTINUOUS
10
38.3789820000000006
20
-65.4435189999999949
11
38.2605259999999987
21
-65.2991809999999901
0
LINE
8
BLACK
6
CONTINUOUS
10
38.2605259999999987
20
-65.2991809999999901
11
38.1725059999999985
21
-65.1345060000000018
0
LINE
8
BLACK
6
CONTINUOUS
10
38.1725059999999985
20
-65.1345060000000018
11
38.1183029999999974
21
-64.9558239999999927
0
LINE
8
BLACK
6
CONTINUOUS
10
38.1183029999999974
20
-64.9558239999999927
11
38.1000009999999989
21
-64.769999999999996
0
LINE
8
BLACK
6
CONTINUOUS
10
38.1000009999999989
20
-64.769999999999996
11
38.1183029999999974
21
-64.5841759999999994
0
LINE
8
BLACK
6
CONTINUOUS
10
38.1183029999999974
20
-64.5841759999999994
11
38.1725059999999985
21
-64.4054939999999903
0
LINE
8
BLACK
6
CONTINUOUS
10
38.1725059999999985
20
-64.4054939999999903
11
38.2605259999999987
21
-64.2408190000000019
0
LINE
8
BLACK
6
CONTINUOUS
10
38.2605259999999987
20
-64.2408190000000019
11
38.3789820000000006
21
-64.0964809999999972
0
LINE
8
BLACK
6
CONTINUOUS
10
38.3789820000000006
20
-64.0964809999999972
11
38.5233199999999982
21
-63.9780249999999953
0
LINE
8
BLACK
6
CONTINUOUS
10
38.5233199999999982
20
-63.9780249999999953
11
38.6879950000000008
21
-63.8900049999999951
0
LINE
8
BLACK
6
CONTINUOUS
10
38.6879950000000008
20
-63.8900049999999951
11
38.8666769999999957
21
-63.8358019999999939
0
LINE
8
BLACK
6
CONTINUOUS
10
38.8666769999999957
20
-63.8358019999999939
11
39.0525009999999995
21
-63.8174999999999955
0
LINE
8
BLACK
6
CONTINUOUS
10
39.0525009999999995
20
-63.8174999999999955
11
39.2383249999999961
21
-63.8358019999999939
0
LINE
8
BLACK
6
CONTINUOUS
10
44.3183239999999969
20
-63.8358019999999939
11
44.4970059999999989
21
-63.8900049999999951
0
LINE
8
BLACK
6
CONTINUOUS
10
44.4970059999999989
20
-63.8900049999999951
11
44.6616810000000015
21
-63.9780249999999953
0
LINE
8
BLACK
6
CONTINUOUS
10
44.6616810000000015
20
-63.9780249999999953
11
44.8060189999999992
21
-64.0964809999999972
0
LINE
8
BLACK
6
CONTINUOUS
10
44.8060189999999992
20
-64.0964809999999972
11
44.924475000000001
21
-64.2408190000000019
0
LINE
8
BLACK
6
CONTINUOUS
10
44.924475000000001
20
-64.2408190000000019
11
45.0124950000000013
21
-64.4054939999999903
0
LINE
8
BLACK
6
CONTINUOUS
10
45.0124950000000013
20
-64.4054939999999903
11
45.0666979999999953
21
-64.5841759999999994
0
LINE
8
BLACK
6
CONTINUOUS
10
45.0666979999999953
20
-64.5841759999999994
11
45.0850000000000009
21
-64.769999999999996
0
LINE
8
BLACK
6
CONTINUOUS
10
45.0850000000000009
20
-64.769999999999996
11
45.0666979999999953
21
-64.9558239999999927
0
LINE
8
BLACK
6
CONTINUOUS
10
45.0666979999999953
20
-64.9558239999999927
11
45.0124950000000013
21
-65.1345060000000018
0
LINE
8
BLACK
6
CONTINUOUS
10
45.0124950000000013
20
-65.1345060000000018
11
44.924475000000001
21
-65.2991809999999901
0
LINE
8
BLACK
6
CONTINUOUS
10
44.924475000000001
20
-65.2991809999999901
11
44.8060189999999992
21
-65.4435189999999949
0
LINE
8
BLACK
6
CONTINUOUS
10
44.8060189999999992
20
-65.4435189999999949
11
44.6616810000000015
21
-65.5619750000000039
0
LINE
8
BLACK
6
CONTINUOUS
10
44.6616810000000015
20
-65.5619750000000039
11
44.4970059999999989
21
-65.6499950000000041
0
LINE
8
BLACK
6
CONTINUOUS
10
44.4970059999999989
20
-65.6499950000000041
11
44.3183239999999969
21
-65.704197999999991
0
LINE
8
BLACK
6
CONTINUOUS
10
44.3183239999999969
20
-65.704197999999991
11
44.1325000000000003
21
-65.7224999999999966
0
LINE
8
BLACK
6
CONTINUOUS
10
44.1325000000000003
20
-65.7224999999999966
11
43.9466759999999965
21
-65.704197999999991
0
LINE
8
BLACK
6
CONTINUOUS
10
43.9466759999999965
20
-65.704197999999991
11
43.7679939999999945
21
-65.6499950000000041
0
LINE
8
BLACK
6
CONTINUOUS
10
43.7679939999999945
20
-65.6499950000000041
11
43.6033189999999991
21
-65.5619750000000039
0
LINE
8
BLACK
6
CONTINUOUS
10
43.6033189999999991
20
-65.5619750000000039
11
43.4589810000000014
21
-65.4435189999999949
0
LINE
8
BLACK
6
CONTINUOUS
10
43.4589810000000014
20
-65.4435189999999949
11
43.3405249999999995
21
-65.2991809999999901
0
LINE
8
BLACK
6
CONTINUOUS
10
43.3405249999999995
20
-65.2991809999999901
11
43.2525049999999993
21
-65.1345060000000018
0
LINE
8
BLACK
6
CONTINUOUS
10
43.2525049999999993
20
-65.1345060000000018
11
43.1983019999999982
21
-64.9558239999999927
0
LINE
8
BLACK
6
CONTINUOUS
10
43.1983019999999982
20
-64.9558239999999927
11
43.1799999999999997
21
-64.769999999999996
0
LINE
8
BLACK
6
CONTINUOUS
10
43.1799999999999997
20
-64.769999999999996
11
43.1983019999999982
21
-64.5841759999999994
0
LINE
8
BLACK
6
CONTINUOUS
10
43.1983019999999982
20
-64.5841759999999994
11
43.2525049999999993
21
-64.4054939999999903
0
LINE
8
BLACK
6
CONTINUOUS
10
43.2525049999999993
20
-64.4054939999999903
11
43.3405249999999995
21
-64.2408190000000019
0
LINE
8
BLACK
6
CONTINUOUS
10
43.3405249999999995
20
-64.2408190000000019
11
43.4589810000000014
21
-64.0964809999999972
0
LINE
8
BLACK
6
CONTINUOUS
10
43.4589810000000014
20
-64.0964809999999972
11
43.6033189999999991
21
-63.9780249999999953
0
LINE
8
BLACK
6
CONTINUOUS
10
43.6033189999999991
20
-63.9780249999999953
11
43.7679939999999945
21
-63.8900049999999951
0
LINE
8
BLACK
6
CONTINUOUS
10
43.7679939999999945
20
-63.8900049999999951
11
43.9466759999999965
21
-63.8358019999999939
0
LINE
8
BLACK
6
CONTINUOUS
10
43.9466759999999965
20
-63.8358019999999939
11
44.1325000000000003
21
-63.8174999999999955
0
LINE
8
BLACK
6
CONTINUOUS
10
44.1325000000000003
20
-63.8174999999999955
11
44.3183239999999969
21
-63.8358019999999939
0
LINE
8
BLACK
6
CONTINUOUS
10
46.8583239999999961
20
-63.8358019999999939
11
47.0370059999999981
21
-63.8900049999999951
0
LINE
8
BLACK
6
CONTINUOUS
10
47.0370059999999981
20
-63.8900049999999951
11
47.2016810000000007
21
-63.9780249999999953
0
LINE
8
BLACK
6
CONTINUOUS
10
47.2016810000000007
20
-63.9780249999999953
11
47.3460189999999983
21
-64.0964809999999972
0
LINE
8
BLACK
6
CONTINUOUS
10
47.3460189999999983
20
-64.0964809999999972
11
47.4644750000000002
21
-64.2408190000000019
0
LINE
8
BLACK
6
CONTINUOUS
10
47.4644750000000002
20
-64.2408190000000019
11
47.5524950000000004
21
-64.4054939999999903
0
LINE
8
BLACK
6
CONTINUOUS
10
47.5524950000000004
20
-64.4054939999999903
11
47.6066979999999944
21
-64.5841759999999994
0
LINE
8
BLACK
6
CONTINUOUS
10
47.6066979999999944
20
-64.5841759999999994
11
47.625
21
-64.769999999999996
0
LINE
8
BLACK
6
CONTINUOUS
10
47.625
20
-64.769999999999996
11
47.6066979999999944
21
-64.9558239999999927
0
LINE
8
BLACK
6
CONTINUOUS
10
47.6066979999999944
20
-64.9558239999999927
11
47.5524950000000004
21
-65.1345060000000018
0
LINE
8
BLACK
6
CONTINUOUS
10
47.5524950000000004
20
-65.1345060000000018
11
47.4644750000000002
21
-65.2991809999999901
0
LINE
8
BLACK
6
CONTINUOUS
10
47.4644750000000002
20
-65.2991809999999901
11
47.3460189999999983
21
-65.4435189999999949
0
LINE
8
BLACK
6
CONTINUOUS
10
47.3460189999999983
20
-65.4435189999999949
11
47.2016810000000007
21
-65.5619750000000039
0
LINE
8
BLACK
6
CONTINUOUS
10
47.2016810000000007
20
-65.5619750000000039
11
47.0370059999999981
21
-65.6499950000000041
0
LINE
8
BLACK
6
CONTINUOUS
10
47.0370059999999981
20
-65.6499950000000041
11
46.8583239999999961
21
-65.704197999999991
0
LINE
8
BLACK
6
CONTINUOUS
10
46.8583239999999961
20
-65.704197999999991
11
46.6724999999999994
21
-65.7224999999999966
0
LINE
8
BLACK
6
CONTINUOUS
10
46.6724999999999994
20
-65.7224999999999966
11
46.4866759999999957
21
-65.704197999999991
0
LINE
8
BLACK
6
CONTINUOUS
10
46.4866759999999957
20
-65.704197999999991
11
46.3079940000000008
21
-65.6499950000000041
0
LINE
8
BLACK
6
CONTINUOUS
10
46.3079940000000008
20
-65.6499950000000041
11
46.1433189999999982
21
-65.5619750000000039
0
LINE
8
BLACK
6
CONTINUOUS
10
46.1433189999999982
20
-65.5619750000000039
11
45.9989810000000006
21
-65.4435189999999949
0
LINE
8
BLACK
6
CONTINUOUS
10
45.9989810000000006
20
-65.4435189999999949
11
45.8805249999999987
21
-65.2991809999999901
0
LINE
8
BLACK
6
CONTINUOUS
10
45.8805249999999987
20
-65.2991809999999901
11
45.7925049999999985
21
-65.1345060000000018
0
LINE
8
BLACK
6
CONTINUOUS
10
45.7925049999999985
20
-65.1345060000000018
11
45.7383019999999973
21
-64.9558239999999927
0
LINE
8
BLACK
6
CONTINUOUS
10
45.7383019999999973
20
-64.9558239999999927
11
45.7199999999999989
21
-64.769999999999996
0
LINE
8
BLACK
6
CONTINUOUS
10
45.7199999999999989
20
-64.769999999999996
11
45.7383019999999973
21
-64.5841759999999994
0
LINE
8
BLACK
6
CONTINUOUS
10
45.7383019999999973
20
-64.5841759999999994
11
45.7925049999999985
21
-64.4054939999999903
0
LINE
8
BLACK
6
CONTINUOUS
10
45.7925049999999985
20
-64.4054939999999903
11
45.8805249999999987
21
-64.2408190000000019
0
LINE
8
BLACK
6
CONTINUOUS
10
45.8805249999999987
20
-64.2408190000000019
11
45.9989810000000006
21
-64.0964809999999972
0
LINE
8
BLACK
6
CONTINUOUS
10
45.9989810000000006
20
-64.0964809999999972
11
46.1433189999999982
21
-63.9780249999999953
0
LINE
8
BLACK
6
CONTINUOUS
10
46.1433189999999982
20
-63.9780249999999953
11
46.3079940000000008
21
-63.8900049999999951
0
LINE
8
BLACK
6
CONTINUOUS
10
46.3079940000000008
20
-63.8900049999999951
11
46.4866759999999957
21
-63.8358019999999939
0
LINE
8
BLACK
6
CONTINUOUS
10
46.4866759999999957
20
-63.8358019999999939
11
46.6724999999999994
21
-63.8174999999999955
0
LINE
8
BLACK
6
CONTINUOUS
10
46.6724999999999994
20
-63.8174999999999955
11
46.8583239999999961
21
-63.8358019999999939
0
LINE
8
BLACK
6
CONTINUOUS
10
54.4783240000000006
20
-63.8358019999999939
11
54.6570059999999955
21
-63.8900049999999951
0
LINE
8
BLACK
6
CONTINUOUS
10
54.6570059999999955
20
-63.8900049999999951
11
54.8216809999999981
21
-63.9780249999999953
0
LINE
8
BLACK
6
CONTINUOUS
10
54.8216809999999981
20
-63.9780249999999953
11
54.9660189999999957
21
-64.0964809999999972
0
LINE
8
BLACK
6
CONTINUOUS
10
54.9660189999999957
20
-64.0964809999999972
11
55.0844749999999976
21
-64.2408190000000019
0
LINE
8
BLACK
6
CONTINUOUS
10
55.0844749999999976
20
-64.2408190000000019
11
55.1724949999999978
21
-64.4054939999999903
0
LINE
8
BLACK
6
CONTINUOUS
10
55.1724949999999978
20
-64.4054939999999903
11
55.226697999999999
21
-64.5841759999999994
0
LINE
8
BLACK
6
CONTINUOUS
10
55.226697999999999
20
-64.5841759999999994
11
55.2449999999999974
21
-64.769999999999996
0
LINE
8
BLACK
6
CONTINUOUS
10
55.2449999999999974
20
-64.769999999999996
11
55.226697999999999
21
-64.9558239999999927
0
LINE
8
BLACK
6
CONTINUOUS
10
55.226697999999999
20
-64.9558239999999927
11
55.1724949999999978
21
-65.1345060000000018
0
LINE
8
BLACK
6
CONTINUOUS
10
55.1724949999999978
20
-65.1345060000000018
11
55.0844749999999976
21
-65.2991809999999901
0
LINE
8
BLACK
6
CONTINUOUS
10
55.0844749999999976
20
-65.2991809999999901
11
54.9660189999999957
21
-65.4435189999999949
0
LINE
8
BLACK
6
CONTINUOUS
10
54.9660189999999957
20
-65.4435189999999949
11
54.8216809999999981
21
-65.5619750000000039
0
LINE
8
BLACK
6
CONTINUOUS
10
54.8216809999999981
20
-65.5619750000000039
11
54.6570059999999955
21
-65.6499950000000041
0
LINE
8
BLACK
6
CONTINUOUS
10
54.6570059999999955
20
-65.6499950000000041
11
54.4783240000000006
21
-65.704197999999991
0
LINE
8
BLACK
6
CONTINUOUS
10
54.4783240000000006
20
-65.704197999999991
11
54.2924999999999969
21
-65.7224999999999966
0
LINE
8
BLACK
6
CONTINUOUS
10
54.2924999999999969
20
-65.7224999999999966
11
54.1066760000000002
21
-65.704197999999991
0
LINE
8
BLACK
6
CONTINUOUS
10
54.1066760000000002
20
-65.704197999999991
11
53.9279939999999982
21
-65.6499950000000041
0
LINE
8
BLACK
6
CONTINUOUS
10
53.9279939999999982
20
-65.6499950000000041
11
53.7633189999999956
21
-65.5619750000000039
0
LINE
8
BLACK
6
CONTINUOUS
10
53.7633189999999956
20
-65.5619750000000039
11
53.618980999999998
21
-65.4435189999999949
0
LINE
8
BLACK
6
CONTINUOUS
10
53.618980999999998
20
-65.4435189999999949
11
53.5005249999999961
21
-65.2991809999999901
0
LINE
8
BLACK
6
CONTINUOUS
10
53.5005249999999961
20
-65.2991809999999901
11
53.4125049999999959
21
-65.1345060000000018
0
LINE
8
BLACK
6
CONTINUOUS
10
53.4125049999999959
20
-65.1345060000000018
11
53.3583019999999948
21
-64.9558239999999927
0
LINE
8
BLACK
6
CONTINUOUS
10
53.3583019999999948
20
-64.9558239999999927
11
53.3399999999999963
21
-64.769999999999996
0
LINE
8
BLACK
6
CONTINUOUS
10
53.3399999999999963
20
-64.769999999999996
11
53.3583019999999948
21
-64.5841759999999994
0
LINE
8
BLACK
6
CONTINUOUS
10
53.3583019999999948
20
-64.5841759999999994
11
53.4125049999999959
21
-64.4054939999999903
0
LINE
8
BLACK
6
CONTINUOUS
10
53.4125049999999959
20
-64.4054939999999903
11
53.5005249999999961
21
-64.2408190000000019
0
LINE
8
BLACK
6
CONTINUOUS
10
53.5005249999999961
20
-64.2408190000000019
11
53.618980999999998
21
-64.0964809999999972
0
LINE
8
BLACK
6
CONTINUOUS
10
53.618980999999998
20
-64.0964809999999972
11
53.7633189999999956
21
-63.9780249999999953
0
LINE
8
BLACK
6
CONTINUOUS
10
53.7633189999999956
20
-63.9780249999999953
11
53.9279939999999982
21
-63.8900049999999951
0
LINE
8
BLACK
6
CONTINUOUS
10
53.9279939999999982
20
-63.8900049999999951
11
54.1066760000000002
21
-63.8358019999999939
0
LINE
8
BLACK
6
CONTINUOUS
10
54.1066760000000002
20
-63.8358019999999939
11
54.2924999999999969
21
-63.8174999999999955
0
LINE
8
BLACK
6
CONTINUOUS
10
54.2924999999999969
20
-63.8174999999999955
11
54.4783240000000006
21
-63.8358019999999939
0
LINE
8
BLACK
6
CONTINUOUS
10
57.0183249999999973
20
-63.8358019999999939
11
57.1970069999999993
21
-63.8900049999999951
0
LINE
8
BLACK
6
CONTINUOUS
10
57.1970069999999993
20
-63.8900049999999951
11
57.3616819999999947
21
-63.9780249999999953
0
LINE
8
BLACK
6
CONTINUOUS
10
57.3616819999999947
20
-63.9780249999999953
11
57.5060199999999995
21
-64.0964809999999972
0
LINE
8
BLACK
6
CONTINUOUS
10
57.5060199999999995
20
-64.0964809999999972
11
57.6244759999999943
21
-64.2408190000000019
0
LINE
8
BLACK
6
CONTINUOUS
10
57.6244759999999943
20
-64.2408190000000019
11
57.7124959999999945
21
-64.4054939999999903
0
LINE
8
BLACK
6
CONTINUOUS
10
57.7124959999999945
20
-64.4054939999999903
11
57.7666989999999956
21
-64.5841759999999994
0
LINE
8
BLACK
6
CONTINUOUS
10
57.7666989999999956
20
-64.5841759999999994
11
57.7850009999999941
21
-64.769999999999996
0
LINE
8
BLACK
6
CONTINUOUS
10
57.7850009999999941
20
-64.769999999999996
11
57.7666989999999956
21
-64.9558239999999927
0
LINE
8
BLACK
6
CONTINUOUS
10
57.7666989999999956
20
-64.9558239999999927
11
57.7124959999999945
21
-65.1345060000000018
0
LINE
8
BLACK
6
CONTINUOUS
10
57.7124959999999945
20
-65.1345060000000018
11
57.6244759999999943
21
-65.2991809999999901
0
LINE
8
BLACK
6
CONTINUOUS
10
57.6244759999999943
20
-65.2991809999999901
11
57.5060199999999995
21
-65.4435189999999949
0
LINE
8
BLACK
6
CONTINUOUS
10
57.5060199999999995
20
-65.4435189999999949
11
57.3616819999999947
21
-65.5619750000000039
0
LINE
8
BLACK
6
CONTINUOUS
10
57.3616819999999947
20
-65.5619750000000039
11
57.1970069999999993
21
-65.6499950000000041
0
LINE
8
BLACK
6
CONTINUOUS
10
57.1970069999999993
20
-65.6499950000000041
11
57.0183249999999973
21
-65.704197999999991
0
LINE
8
BLACK
6
CONTINUOUS
10
57.0183249999999973
20
-65.704197999999991
11
56.8325010000000006
21
-65.7224999999999966
0
LINE
8
BLACK
6
CONTINUOUS
10
56.8325010000000006
20
-65.7224999999999966
11
56.6466769999999968
21
-65.704197999999991
0
LINE
8
BLACK
6
CONTINUOUS
10
56.6466769999999968
20
-65.704197999999991
11
56.4679949999999948
21
-65.6499950000000041
0
LINE
8
BLACK
6
CONTINUOUS
10
56.4679949999999948
20
-65.6499950000000041
11
56.3033199999999994
21
-65.5619750000000039
0
LINE
8
BLACK
6
CONTINUOUS
10
56.3033199999999994
20
-65.5619750000000039
11
56.1589819999999946
21
-65.4435189999999949
0
LINE
8
BLACK
6
CONTINUOUS
10
56.1589819999999946
20
-65.4435189999999949
11
56.0405259999999998
21
-65.2991809999999901
0
LINE
8
BLACK
6
CONTINUOUS
10
56.0405259999999998
20
-65.2991809999999901
11
55.9525059999999996
21
-65.1345060000000018
0
LINE
8
BLACK
6
CONTINUOUS
10
55.9525059999999996
20
-65.1345060000000018
11
55.8983029999999985
21
-64.9558239999999927
0
LINE
8
BLACK
6
CONTINUOUS
10
55.8983029999999985
20
-64.9558239999999927
11
55.880001
21
-64.769999999999996
0
LINE
8
BLACK
6
CONTINUOUS
10
55.880001
20
-64.769999999999996
11
55.8983029999999985
21
-64.5841759999999994
0
LINE
8
BLACK
6
CONTINUOUS
10
55.8983029999999985
20
-64.5841759999999994
11
55.9525059999999996
21
-64.4054939999999903
0
LINE
8
BLACK
6
CONTINUOUS
10
55.9525059999999996
20
-64.4054939999999903
11
56.0405259999999998
21
-64.2408190000000019
0
LINE
8
BLACK
6
CONTINUOUS
10
56.0405259999999998
20
-64.2408190000000019
11
56.1589819999999946
21
-64.0964809999999972
0
LINE
8
BLACK
6
CONTINUOUS
10
56.1589819999999946
20
-64.0964809999999972
11
56.3033199999999994
21
-63.9780249999999953
0
LINE
8
BLACK
6
CONTINUOUS
10
56.3033199999999994
20
-63.9780249999999953
11
56.4679949999999948
21
-63.8900049999999951
0
LINE
8
BLACK
6
CONTINUOUS
10
56.4679949999999948
20
-63.8900049999999951
11
56.6466769999999968
21
-63.8358019999999939
0
LINE
8
BLACK
6
CONTINUOUS
10
56.6466769999999968
20
-63.8358019999999939
11
56.8325010000000006
21
-63.8174999999999955
0
LINE
8
BLACK
6
CONTINUOUS
10
56.8325010000000006
20
-63.8174999999999955
11
57.0183249999999973
21
-63.8358019999999939
0
LINE
8
BLACK
6
CONTINUOUS
10
62.0983239999999981
20
-63.8358019999999939
11
62.2770060000000001
21
-63.8900049999999951
0
LINE
8
BLACK
6
CONTINUOUS
10
62.2770060000000001
20
-63.8900049999999951
11
62.4416809999999955
21
-63.9780249999999953
0
LINE
8
BLACK
6
CONTINUOUS
10
62.4416809999999955
20
-63.9780249999999953
11
62.5860190000000003
21
-64.0964809999999972
0
LINE
8
BLACK
6
CONTINUOUS
10
62.5860190000000003
20
-64.0964809999999972
11
62.7044749999999951
21
-64.2408190000000019
0
LINE
8
BLACK
6
CONTINUOUS
10
62.7044749999999951
20
-64.2408190000000019
11
62.7924949999999953
21
-64.4054939999999903
0
LINE
8
BLACK
6
CONTINUOUS
10
62.7924949999999953
20
-64.4054939999999903
11
62.8466979999999964
21
-64.5841759999999994
0
LINE
8
BLACK
6
CONTINUOUS
10
62.8466979999999964
20
-64.5841759999999994
11
62.8649999999999949
21
-64.769999999999996
0
LINE
8
BLACK
6
CONTINUOUS
10
62.8649999999999949
20
-64.769999999999996
11
62.8466979999999964
21
-64.9558239999999927
0
LINE
8
BLACK
6
CONTINUOUS
10
62.8466979999999964
20
-64.9558239999999927
11
62.7924949999999953
21
-65.1345060000000018
0
LINE
8
BLACK
6
CONTINUOUS
10
62.7924949999999953
20
-65.1345060000000018
11
62.7044749999999951
21
-65.2991809999999901
0
LINE
8
BLACK
6
CONTINUOUS
10
62.7044749999999951
20
-65.2991809999999901
11
62.5860190000000003
21
-65.4435189999999949
0
LINE
8
BLACK
6
CONTINUOUS
10
62.5860190000000003
20
-65.4435189999999949
11
62.4416809999999955
21
-65.5619750000000039
0
LINE
8
BLACK
6
CONTINUOUS
10
62.4416809999999955
20
-65.5619750000000039
11
62.2770060000000001
21
-65.6499950000000041
0
LINE
8
BLACK
6
CONTINUOUS
10
62.2770060000000001
20
-65.6499950000000041
11
62.0983239999999981
21
-65.704197999999991
0
LINE
8
BLACK
6
CONTINUOUS
10
62.0983239999999981
20
-65.704197999999991
11
61.9124999999999943
21
-65.7224999999999966
0
LINE
8
BLACK
6
CONTINUOUS
10
61.9124999999999943
20
-65.7224999999999966
11
61.7266759999999977
21
-65.704197999999991
0
LINE
8
BLACK
6
CONTINUOUS
10
61.7266759999999977
20
-65.704197999999991
11
61.5479939999999957
21
-65.6499950000000041
0
LINE
8
BLACK
6
CONTINUOUS
10
61.5479939999999957
20
-65.6499950000000041
11
61.3833190000000002
21
-65.5619750000000039
0
LINE
8
BLACK
6
CONTINUOUS
10
61.3833190000000002
20
-65.5619750000000039
11
61.2389809999999954
21
-65.4435189999999949
0
LINE
8
BLACK
6
CONTINUOUS
10
61.2389809999999954
20
-65.4435189999999949
11
61.1205250000000007
21
-65.2991809999999901
0
LINE
8
BLACK
6
CONTINUOUS
10
61.1205250000000007
20
-65.2991809999999901
11
61.0325050000000005
21
-65.1345060000000018
0
LINE
8
BLACK
6
CONTINUOUS
10
61.0325050000000005
20
-65.1345060000000018
11
60.9783019999999993
21
-64.9558239999999927
0
LINE
8
BLACK
6
CONTINUOUS
10
60.9783019999999993
20
-64.9558239999999927
11
60.9599999999999937
21
-64.769999999999996
0
LINE
8
BLACK
6
CONTINUOUS
10
60.9599999999999937
20
-64.769999999999996
11
60.9783019999999993
21
-64.5841759999999994
0
LINE
8
BLACK
6
CONTINUOUS
10
60.9783019999999993
20
-64.5841759999999994
11
61.0325050000000005
21
-64.4054939999999903
0
LINE
8
BLACK
6
CONTINUOUS
10
61.0325050000000005
20
-64.4054939999999903
11
61.1205250000000007
21
-64.2408190000000019
0
LINE
8
BLACK
6
CONTINUOUS
10
61.1205250000000007
20
-64.2408190000000019
11
61.2389809999999954
21
-64.0964809999999972
0
LINE
8
BLACK
6
CONTINUOUS
10
61.2389809999999954
20
-64.0964809999999972
11
61.3833190000000002
21
-63.9780249999999953
0
LINE
8
BLACK
6
CONTINUOUS
10
61.3833190000000002
20
-63.9780249999999953
11
61.5479939999999957
21
-63.8900049999999951
0
LINE
8
BLACK
6
CONTINUOUS
10
61.5479939999999957
20
-63.8900049999999951
11
61.7266759999999977
21
-63.8358019999999939
0
LINE
8
BLACK
6
CONTINUOUS
10
61.7266759999999977
20
-63.8358019999999939
11
61.9124999999999943
21
-63.8174999999999955
0
LINE
8
BLACK
6
CONTINUOUS
10
61.9124999999999943
20
-63.8174999999999955
11
62.0983239999999981
21
-63.8358019999999939
0
LINE
8
BLACK
6
CONTINUOUS
10
46.8583239999999961
20
-61.2958019999999948
11
47.0370059999999981
21
-61.3500049999999959
0
LINE
8
BLACK
6
CONTINUOUS
10
47.0370059999999981
20
-61.3500049999999959
11
47.2016810000000007
21
-61.4380249999999961
0
LINE
8
BLACK
6
CONTINUOUS
10
47.2016810000000007
20
-61.4380249999999961
11
47.3460189999999983
21
-61.556480999999998
0
LINE
8
BLACK
6
CONTINUOUS
10
47.3460189999999983
20
-61.556480999999998
11
47.4644750000000002
21
-61.7008189999999956
0
LINE
8
BLACK
6
CONTINUOUS
10
47.4644750000000002
20
-61.7008189999999956
11
47.5524950000000004
21
-61.8654939999999982
0
LINE
8
BLACK
6
CONTINUOUS
10
47.5524950000000004
20
-61.8654939999999982
11
47.6066979999999944
21
-62.0441760000000002
0
LINE
8
BLACK
6
CONTINUOUS
10
47.6066979999999944
20
-62.0441760000000002
11
47.625
21
-62.2299999999999969
0
LINE
8
BLACK
6
CONTINUOUS
10
47.625
20
-62.2299999999999969
11
47.6066979999999944
21
-62.4158240000000006
0
LINE
8
BLACK
6
CONTINUOUS
10
47.6066979999999944
20
-62.4158240000000006
11
47.5524950000000004
21
-62.5945059999999955
0
LINE
8
BLACK
6
CONTINUOUS
10
47.5524950000000004
20
-62.5945059999999955
11
47.4644750000000002
21
-62.7591809999999981
0
LINE
8
BLACK
6
CONTINUOUS
10
47.4644750000000002
20
-62.7591809999999981
11
47.3460189999999983
21
-62.9035189999999957
0
LINE
8
BLACK
6
CONTINUOUS
10
47.3460189999999983
20
-62.9035189999999957
11
47.2016810000000007
21
-63.0219749999999976
0
LINE
8
BLACK
6
CONTINUOUS
10
47.2016810000000007
20
-63.0219749999999976
11
47.0370059999999981
21
-63.1099949999999978
0
LINE
8
BLACK
6
CONTINUOUS
10
47.0370059999999981
20
-63.1099949999999978
11
46.8583239999999961
21
-63.164197999999999
0
LINE
8
BLACK
6
CONTINUOUS
10
46.8583239999999961
20
-63.164197999999999
11
46.6724999999999994
21
-63.1824999999999974
0
LINE
8
BLACK
6
CONTINUOUS
10
46.6724999999999994
20
-63.1824999999999974
11
46.4866759999999957
21
-63.164197999999999
0
LINE
8
BLACK
6
CONTINUOUS
10
46.4866759999999957
20
-63.164197999999999
11
46.3079940000000008
21
-63.1099949999999978
0
LINE
8
BLACK
6
CONTINUOUS
10
46.3079940000000008
20
-63.1099949999999978
11
46.1433189999999982
21
-63.0219749999999976
0
LINE
8
BLACK
6
CONTINUOUS
10
46.1433189999999982
20
-63.0219749999999976
11
45.9989810000000006
21
-62.9035189999999957
0
LINE
8
BLACK
6
CONTINUOUS
10
45.9989810000000006
20
-62.9035189999999957
11
45.8805249999999987
21
-62.7591809999999981
0
LINE
8
BLACK
6
CONTINUOUS
10
45.8805249999999987
20
-62.7591809999999981
11
45.7925049999999985
21
-62.5945059999999955
0
LINE
8
BLACK
6
CONTINUOUS
10
45.7925049999999985
20
-62.5945059999999955
11
45.7383019999999973
21
-62.4158240000000006
0
LINE
8
BLACK
6
CONTINUOUS
10
45.7383019999999973
20
-62.4158240000000006
11
45.7199999999999989
21
-62.2299999999999969
0
LINE
8
BLACK
6
CONTINUOUS
10
45.7199999999999989
20
-62.2299999999999969
11
45.7383019999999973
21
-62.0441760000000002
0
LINE
8
BLACK
6
CONTINUOUS
10
45.7383019999999973
20
-62.0441760000000002
11
45.7925049999999985
21
-61.8654939999999982
0
LINE
8
BLACK
6
CONTINUOUS
10
45.7925049999999985
20
-61.8654939999999982
11
45.8805249999999987
21
-61.7008189999999956
0
LINE
8
BLACK
6
CONTINUOUS
10
45.8805249999999987
20
-61.7008189999999956
11
45.9989810000000006
21
-61.556480999999998
0
LINE
8
BLACK
6
CONTINUOUS
10
45.9989810000000006
20
-61.556480999999998
11
46.1433189999999982
21
-61.4380249999999961
0
LINE
8
BLACK
6
CONTINUOUS
10
46.1433189999999982
20
-61.4380249999999961
11
46.3079940000000008
21
-61.3500049999999959
0
LINE
8
BLACK
6
CONTINUOUS
10
46.3079940000000008
20
-61.3500049999999959
11
46.4866759999999957
21
-61.2958019999999948
0
LINE
8
BLACK
6
CONTINUOUS
10
46.4866759999999957
20
-61.2958019999999948
11
46.6724999999999994
21
-61.2774999999999963
0
LINE
8
BLACK
6
CONTINUOUS
10
46.6724999999999994
20
-61.2774999999999963
11
46.8583239999999961
21
-61.2958019999999948
0
LINE
8
BLACK
6
CONTINUOUS
10
54.4783240000000006
20
-61.2958019999999948
11
54.6570059999999955
21
-61.3500049999999959
0
LINE
8
BLACK
6
CONTINUOUS
10
54.6570059999999955
20
-61.3500049999999959
11
54.8216809999999981
21
-61.4380249999999961
0
LINE
8
BLACK
6
CONTINUOUS
10
54.8216809999999981
20
-61.4380249999999961
11
54.9660189999999957
21
-61.556480999999998
0
LINE
8
BLACK
6
CONTINUOUS
10
54.9660189999999957
20
-61.556480999999998
11
55.0844749999999976
21
-61.7008189999999956
0
LINE
8
BLACK
6
CONTINUOUS
10
55.0844749999999976
20
-61.7008189999999956
11
55.1724949999999978
21
-61.8654939999999982
0
LINE
8
BLACK
6
CONTINUOUS
10
55.1724949999999978
20
-61.8654939999999982
11
55.226697999999999
21
-62.0441760000000002
0
LINE
8
BLACK
6
CONTINUOUS
10
55.226697999999999
20
-62.0441760000000002
11
55.2449999999999974
21
-62.2299999999999969
0
LINE
8
BLACK
6
CONTINUOUS
10
55.2449999999999974
20
-62.2299999999999969
11
55.226697999999999
21
-62.4158240000000006
0
LINE
8
BLACK
6
CONTINUOUS
10
55.226697999999999
20
-62.4158240000000006
11
55.1724949999999978
21
-62.5945059999999955
0
LINE
8
BLACK
6
CONTINUOUS
10
55.1724949999999978
20
-62.5945059999999955
11
55.0844749999999976
21
-62.7591809999999981
0
LINE
8
BLACK
6
CONTINUOUS
10
55.0844749999999976
20
-62.7591809999999981
11
54.9660189999999957
21
-62.9035189999999957
0
LINE
8
BLACK
6
CONTINUOUS
10
54.9660189999999957
20
-62.9035189999999957
11
54.8216809999999981
21
-63.0219749999999976
0
LINE
8
BLACK
6
CONTINUOUS
10
54.8216809999999981
20
-63.0219749999999976
11
54.6570059999999955
21
-63.1099949999999978
0
LINE
8
BLACK
6
CONTINUOUS
10
54.6570059999999955
20
-63.1099949999999978
11
54.4783240000000006
21
-63.164197999999999
0
LINE
8
BLACK
6
CONTINUOUS
10
54.4783240000000006
20
-63.164197999999999
11
54.2924999999999969
21
-63.1824999999999974
0
LINE
8
BLACK
6
CONTINUOUS
10
54.2924999999999969
20
-63.1824999999999974
11
54.1066760000000002
21
-63.164197999999999
0
LINE
8
BLACK
6
CONTINUOUS
10
54.1066760000000002
20
-63.164197999999999
11
53.9279939999999982
21
-63.1099949999999978
0
LINE
8
BLACK
6
CONTINUOUS
10
53.9279939999999982
20
-63.1099949999999978
11
53.7633189999999956
21
-63.0219749999999976
0
LINE
8
BLACK
6
CONTINUOUS
10
53.7633189999999956
20
-63.0219749999999976
11
53.618980999999998
21
-62.9035189999999957
0
LINE
8
BLACK
6
CONTINUOUS
10
53.618980999999998
20
-62.9035189999999957
11
53.5005249999999961
21
-62.7591809999999981
0
LINE
8
BLACK
6
CONTINUOUS
10
53.5005249999999961
20
-62.7591809999999981
11
53.4125049999999959
21
-62.5945059999999955
0
LINE
8
BLACK
6
CONTINUOUS
10
53.4125049999999959
20
-62.5945059999999955
11
53.3583019999999948
21
-62.4158240000000006
0
LINE
8
BLACK
6
CONTINUOUS
10
53.3583019999999948
20
-62.4158240000000006
11
53.3399999999999963
21
-62.2299999999999969
0
LINE
8
BLACK
6
CONTINUOUS
10
53.3399999999999963
20
-62.2299999999999969
11
53.3583019999999948
21
-62.0441760000000002
0
LINE
8
BLACK
6
CONTINUOUS
10
53.3583019999999948
20
-62.0441760000000002
11
53.4125049999999959
21
-61.8654939999999982
0
LINE
8
BLACK
6
CONTINUOUS
10
53.4125049999999959
20
-61.8654939999999982
11
53.5005249999999961
21
-61.7008189999999956
0
LINE
8
BLACK
6
CONTINUOUS
10
53.5005249999999961
20
-61.7008189999999956
11
53.618980999999998
21
-61.556480999999998
0
LINE
8
BLACK
6
CONTINUOUS
10
53.618980999999998
20
-61.556480999999998
11
53.7633189999999956
21
-61.4380249999999961
0
LINE
8
BLACK
6
CONTINUOUS
10
53.7633189999999956
20
-61.4380249999999961
11
53.9279939999999982
21
-61.3500049999999959
0
LINE
8
BLACK
6
CONTINUOUS
10
53.9279939999999982
20
-61.3500049999999959
11
54.1066760000000002
21
-61.2958019999999948
0
LINE
8
BLACK
6
CONTINUOUS
10
54.1066760000000002
20
-61.2958019999999948
11
54.2924999999999969
21
-61.2774999999999963
0
LINE
8
BLACK
6
CONTINUOUS
10
54.2924999999999969
20
-61.2774999999999963
11
54.4783240000000006
21
-61.2958019999999948
0
LINE
8
BLACK
6
CONTINUOUS
10
57.0183239999999998
20
-61.2958019999999948
11
57.1970059999999947
21
-61.3500049999999959
0
LINE
8
BLACK
6
CONTINUOUS
10
57.1970059999999947
20
-61.3500049999999959
11
57.3616809999999973
21
-61.4380249999999961
0
LINE
8
BLACK
6
CONTINUOUS
10
57.3616809999999973
20
-61.4380249999999961
11
57.5060189999999949
21
-61.556480999999998
0
LINE
8
BLACK
6
CONTINUOUS
10
57.5060189999999949
20
-61.556480999999998
11
57.6244749999999968
21
-61.7008189999999956
0
LINE
8
BLACK
6
CONTINUOUS
10
57.6244749999999968
20
-61.7008189999999956
11
57.712494999999997
21
-61.8654939999999982
0
LINE
8
BLACK
6
CONTINUOUS
10
57.712494999999997
20
-61.8654939999999982
11
57.7666979999999981
21
-62.0441760000000002
0
LINE
8
BLACK
6
CONTINUOUS
10
57.7666979999999981
20
-62.0441760000000002
11
57.7849999999999966
21
-62.2299999999999969
0
LINE
8
BLACK
6
CONTINUOUS
10
57.7849999999999966
20
-62.2299999999999969
11
57.7666979999999981
21
-62.4158240000000006
0
LINE
8
BLACK
6
CONTINUOUS
10
57.7666979999999981
20
-62.4158240000000006
11
57.712494999999997
21
-62.5945059999999955
0
LINE
8
BLACK
6
CONTINUOUS
10
57.712494999999997
20
-62.5945059999999955
11
57.6244749999999968
21
-62.7591809999999981
0
LINE
8
BLACK
6
CONTINUOUS
10
57.6244749999999968
20
-62.7591809999999981
11
57.5060189999999949
21
-62.9035189999999957
0
LINE
8
BLACK
6
CONTINUOUS
10
57.5060189999999949
20
-62.9035189999999957
11
57.3616809999999973
21
-63.0219749999999976
0
LINE
8
BLACK
6
CONTINUOUS
10
57.3616809999999973
20
-63.0219749999999976
11
57.1970059999999947
21
-63.1099949999999978
0
LINE
8
BLACK
6
CONTINUOUS
10
57.1970059999999947
20
-63.1099949999999978
11
57.0183239999999998
21
-63.164197999999999
0
LINE
8
BLACK
6
CONTINUOUS
10
57.0183239999999998
20
-63.164197999999999
11
56.832499999999996
21
-63.1824999999999974
0
LINE
8
BLACK
6
CONTINUOUS
10
56.832499999999996
20
-63.1824999999999974
11
56.6466759999999994
21
-63.164197999999999
0
LINE
8
BLACK
6
CONTINUOUS
10
56.6466759999999994
20
-63.164197999999999
11
56.4679939999999974
21
-63.1099949999999978
0
LINE
8
BLACK
6
CONTINUOUS
10
56.4679939999999974
20
-63.1099949999999978
11
56.3033189999999948
21
-63.0219749999999976
0
LINE
8
BLACK
6
CONTINUOUS
10
56.3033189999999948
20
-63.0219749999999976
11
56.1589809999999972
21
-62.9035189999999957
0
LINE
8
BLACK
6
CONTINUOUS
10
56.1589809999999972
20
-62.9035189999999957
11
56.0405249999999953
21
-62.7591809999999981
0
LINE
8
BLACK
6
CONTINUOUS
10
56.0405249999999953
20
-62.7591809999999981
11
55.9525049999999951
21
-62.5945059999999955
0
LINE
8
BLACK
6
CONTINUOUS
10
55.9525049999999951
20
-62.5945059999999955
11
55.8983019999999939
21
-62.4158240000000006
0
LINE
8
BLACK
6
CONTINUOUS
10
55.8983019999999939
20
-62.4158240000000006
11
55.8799999999999955
21
-62.2299999999999969
0
LINE
8
BLACK
6
CONTINUOUS
10
55.8799999999999955
20
-62.2299999999999969
11
55.8983019999999939
21
-62.0441760000000002
0
LINE
8
BLACK
6
CONTINUOUS
10
55.8983019999999939
20
-62.0441760000000002
11
55.9525049999999951
21
-61.8654939999999982
0
LINE
8
BLACK
6
CONTINUOUS
10
55.9525049999999951
20
-61.8654939999999982
11
56.0405249999999953
21
-61.7008189999999956
0
LINE
8
BLACK
6
CONTINUOUS
10
56.0405249999999953
20
-61.7008189999999956
11
56.1589809999999972
21
-61.556480999999998
0
LINE
8
BLACK
6
CONTINUOUS
10
56.1589809999999972
20
-61.556480999999998
11
56.3033189999999948
21
-61.4380249999999961
0
LINE
8
BLACK
6
CONTINUOUS
10
56.3033189999999948
20
-61.4380249999999961
11
56.4679939999999974
21
-61.3500049999999959
0
LINE
8
BLACK
6
CONTINUOUS
10
56.4679939999999974
20
-61.3500049999999959
11
56.6466759999999994
21
-61.2958019999999948
0
LINE
8
BLACK
6
CONTINUOUS
10
56.6466759999999994
20
-61.2958019999999948
11
56.832499999999996
21
-61.2774999999999963
0
LINE
8
BLACK
6
CONTINUOUS
10
56.832499999999996
20
-61.2774999999999963
11
57.0183239999999998
21
-61.2958019999999948
0
LINE
8
BLACK
6
CONTINUOUS
10
62.0983239999999981
20
-61.2958019999999948
11
62.2770060000000001
21
-61.3500049999999959
0
LINE
8
BLACK
6
CONTINUOUS
10
62.2770060000000001
20
-61.3500049999999959
11
62.4416809999999955
21
-61.4380249999999961
0
LINE
8
BLACK
6
CONTINUOUS
10
62.4416809999999955
20
-61.4380249999999961
11
62.5860190000000003
21
-61.556480999999998
0
LINE
8
BLACK
6
CONTINUOUS
10
62.5860190000000003
20
-61.556480999999998
11
62.7044749999999951
21
-61.7008189999999956
0
LINE
8
BLACK
6
CONTINUOUS
10
62.7044749999999951
20
-61.7008189999999956
11
62.7924949999999953
21
-61.8654939999999982
0
LINE
8
BLACK
6
CONTINUOUS
10
62.7924949999999953
20
-61.8654939999999982
11
62.8466979999999964
21
-62.0441760000000002
0
LINE
8
BLACK
6
CONTINUOUS
10
62.8466979999999964
20
-62.0441760000000002
11
62.8649999999999949
21
-62.2299999999999969
0
LINE
8
BLACK
6
CONTINUOUS
10
62.8649999999999949
20
-62.2299999999999969
11
62.8466979999999964
21
-62.4158240000000006
0
LINE
8
BLACK
6
CONTINUOUS
10
62.8466979999999964
20
-62.4158240000000006
11
62.7924949999999953
21
-62.5945059999999955
0
LINE
8
BLACK
6
CONTINUOUS
10
62.7924949999999953
20
-62.5945059999999955
11
62.7044749999999951
21
-62.7591809999999981
0
LINE
8
BLACK
6
CONTINUOUS
10
62.7044749999999951
20
-62.7591809999999981
11
62.5860190000000003
21
-62.9035189999999957
0
LINE
8
BLACK
6
CONTINUOUS
10
62.5860190000000003
20
-62.9035189999999957
11
62.4416809999999955
21
-63.0219749999999976
0
LINE
8
BLACK
6
CONTINUOUS
10
62.4416809999999955
20
-63.0219749999999976
11
62.2770060000000001
21
-63.1099949999999978
0
LINE
8
BLACK
6
CONTINUOUS
10
62.2770060000000001
20
-63.1099949999999978
11
62.0983239999999981
21
-63.164197999999999
0
LINE
8
BLACK
6
CONTINUOUS
10
62.0983239999999981
20
-63.164197999999999
11
61.9124999999999943
21
-63.1824999999999974
0
LINE
8
BLACK
6
CONTINUOUS
10
61.9124999999999943
20
-63.1824999999999974
11
61.7266759999999977
21
-63.164197999999999
0
LINE
8
BLACK
6
CONTINUOUS
10
61.7266759999999977
20
-63.164197999999999
11
61.5479939999999957
21
-63.1099949999999978
0
LINE
8
BLACK
6
CONTINUOUS
10
61.5479939999999957
20
-63.1099949999999978
11
61.3833190000000002
21
-63.0219749999999976
0
LINE
8
BLACK
6
CONTINUOUS
10
61.3833190000000002
20
-63.0219749999999976
11
61.2389809999999954
21
-62.9035189999999957
0
LINE
8
BLACK
6
CONTINUOUS
10
61.2389809999999954
20
-62.9035189999999957
11
61.1205250000000007
21
-62.7591809999999981
0
LINE
8
BLACK
6
CONTINUOUS
10
61.1205250000000007
20
-62.7591809999999981
11
61.0325050000000005
21
-62.5945059999999955
0
LINE
8
BLACK
6
CONTINUOUS
10
61.0325050000000005
20
-62.5945059999999955
11
60.9783019999999993
21
-62.4158240000000006
0
LINE
8
BLACK
6
CONTINUOUS
10
60.9783019999999993
20
-62.4158240000000006
11
60.9599999999999937
21
-62.2299999999999969
0
LINE
8
BLACK
6
CONTINUOUS
10
60.9599999999999937
20
-62.2299999999999969
11
60.9783019999999993
21
-62.0441760000000002
0
LINE
8
BLACK
6
CONTINUOUS
10
60.9783019999999993
20
-62.0441760000000002
11
61.0325050000000005
21
-61.8654939999999982
0
LINE
8
BLACK
6
CONTINUOUS
10
61.0325050000000005
20
-61.8654939999999982
11
61.1205250000000007
21
-61.7008189999999956
0
LINE
8
BLACK
6
CONTINUOUS
10
61.1205250000000007
20
-61.7008189999999956
11
61.2389809999999954
21
-61.556480999999998
0
LINE
8
BLACK
6
CONTINUOUS
10
61.2389809999999954
20
-61.556480999999998
11
61.3833190000000002
21
-61.4380249999999961
0
LINE
8
BLACK
6
CONTINUOUS
10
61.3833190000000002
20
-61.4380249999999961
11
61.5479939999999957
21
-61.3500049999999959
0
LINE
8
BLACK
6
CONTINUOUS
10
61.5479939999999957
20
-61.3500049999999959
11
61.7266759999999977
21
-61.2958019999999948
0
LINE
8
BLACK
6
CONTINUOUS
10
61.7266759999999977
20
-61.2958019999999948
11
61.9124999999999943
21
-61.2774999999999963
0
LINE
8
BLACK
6
CONTINUOUS
10
61.9124999999999943
20
-61.2774999999999963
11
62.0983239999999981
21
-61.2958019999999948
0
LINE
8
BLACK
6
CONTINUOUS
10
39.2383239999999986
20
-56.8508019999999945
11
39.4170060000000007
21
-56.9050049999999956
0
LINE
8
BLACK
6
CONTINUOUS
10
39.4170060000000007
20
-56.9050049999999956
11
39.5816809999999961
21
-56.9930249999999958
0
LINE
8
BLACK
6
CONTINUOUS
10
39.5816809999999961
20
-56.9930249999999958
11
39.7260190000000009
21
-57.1114809999999977
0
LINE
8
BLACK
6
CONTINUOUS
10
39.7260190000000009
20
-57.1114809999999977
11
39.8444749999999956
21
-57.2558189999999954
0
LINE
8
BLACK
6
CONTINUOUS
10
39.8444749999999956
20
-57.2558189999999954
11
39.9324949999999959
21
-57.4204939999999979
0
LINE
8
BLACK
6
CONTINUOUS
10
39.9324949999999959
20
-57.4204939999999979
11
39.986697999999997
21
-57.5991759999999999
0
LINE
8
BLACK
6
CONTINUOUS
10
39.986697999999997
20
-57.5991759999999999
11
40.0049999999999955
21
-57.7849999999999966
0
LINE
8
BLACK
6
CONTINUOUS
10
40.0049999999999955
20
-57.7849999999999966
11
39.986697999999997
21
-57.9708240000000004
0
LINE
8
BLACK
6
CONTINUOUS
10
39.986697999999997
20
-57.9708240000000004
11
39.9324949999999959
21
-58.1495059999999953
0
LINE
8
BLACK
6
CONTINUOUS
10
39.9324949999999959
20
-58.1495059999999953
11
39.8444749999999956
21
-58.3141809999999978
0
LINE
8
BLACK
6
CONTINUOUS
10
39.8444749999999956
20
-58.3141809999999978
11
39.7260190000000009
21
-58.4585189999999955
0
LINE
8
BLACK
6
CONTINUOUS
10
39.7260190000000009
20
-58.4585189999999955
11
39.5816809999999961
21
-58.5769749999999974
0
LINE
8
BLACK
6
CONTINUOUS
10
39.5816809999999961
20
-58.5769749999999974
11
39.4170060000000007
21
-58.6649949999999976
0
LINE
8
BLACK
6
CONTINUOUS
10
39.4170060000000007
20
-58.6649949999999976
11
39.2383239999999986
21
-58.7191979999999987
0
LINE
8
BLACK
6
CONTINUOUS
10
39.2383239999999986
20
-58.7191979999999987
11
39.0524999999999949
21
-58.7374999999999972
0
LINE
8
BLACK
6
CONTINUOUS
10
39.0524999999999949
20
-58.7374999999999972
11
38.8666759999999982
21
-58.7191979999999987
0
LINE
8
BLACK
6
CONTINUOUS
10
38.8666759999999982
20
-58.7191979999999987
11
38.6879939999999962
21
-58.6649949999999976
0
LINE
8
BLACK
6
CONTINUOUS
10
38.6879939999999962
20
-58.6649949999999976
11
38.5233190000000008
21
-58.5769749999999974
0
LINE
8
BLACK
6
CONTINUOUS
10
38.5233190000000008
20
-58.5769749999999974
11
38.378980999999996
21
-58.4585189999999955
0
LINE
8
BLACK
6
CONTINUOUS
10
38.378980999999996
20
-58.4585189999999955
11
38.2605250000000012
21
-58.3141809999999978
0
LINE
8
BLACK
6
CONTINUOUS
10
38.2605250000000012
20
-58.3141809999999978
11
38.172505000000001
21
-58.1495059999999953
0
LINE
8
BLACK
6
CONTINUOUS
10
38.172505000000001
20
-58.1495059999999953
11
38.1183019999999999
21
-57.9708240000000004
0
LINE
8
BLACK
6
CONTINUOUS
10
38.1183019999999999
20
-57.9708240000000004
11
38.1000000000000014
21
-57.7849999999999966
0
LINE
8
BLACK
6
CONTINUOUS
10
38.1000000000000014
20
-57.7849999999999966
11
38.1183019999999999
21
-57.5991759999999999
0
LINE
8
BLACK
6
CONTINUOUS
10
38.1183019999999999
20
-57.5991759999999999
11
38.172505000000001
21
-57.4204939999999979
0
LINE
8
BLACK
6
CONTINUOUS
10
38.172505000000001
20
-57.4204939999999979
11
38.2605250000000012
21
-57.2558189999999954
0
LINE
8
BLACK
6
CONTINUOUS
10
38.2605250000000012
20
-57.2558189999999954
11
38.378980999999996
21
-57.1114809999999977
0
LINE
8
BLACK
6
CONTINUOUS
10
38.378980999999996
20
-57.1114809999999977
11
38.5233190000000008
21
-56.9930249999999958
0
LINE
8
BLACK
6
CONTINUOUS
10
38.5233190000000008
20
-56.9930249999999958
11
38.6879939999999962
21
-56.9050049999999956
0
LINE
8
BLACK
6
CONTINUOUS
10
38.6879939999999962
20
-56.9050049999999956
11
38.8666759999999982
21
-56.8508019999999945
0
LINE
8
BLACK
6
CONTINUOUS
10
38.8666759999999982
20
-56.8508019999999945
11
39.0524999999999949
21
-56.832499999999996
0
LINE
8
BLACK
6
CONTINUOUS
10
39.0524999999999949
20
-56.832499999999996
11
39.2383239999999986
21
-56.8508019999999945
0
LINE
8
BLACK
6
CONTINUOUS
10
44.3183229999999995
20
-56.8508019999999945
11
44.4970050000000015
21
-56.9050049999999956
0
LINE
8
BLACK
6
CONTINUOUS
10
44.4970050000000015
20
-56.9050049999999956
11
44.6616799999999969
21
-56.9930249999999958
0
LINE
8
BLACK
6
CONTINUOUS
10
44.6616799999999969
20
-56.9930249999999958
11
44.8060179999999946
21
-57.1114809999999977
0
LINE
8
BLACK
6
CONTINUOUS
10
44.8060179999999946
20
-57.1114809999999977
11
44.9244739999999965
21
-57.2558189999999954
0
LINE
8
BLACK
6
CONTINUOUS
10
44.9244739999999965
20
-57.2558189999999954
11
45.0124939999999967
21
-57.4204939999999979
0
LINE
8
BLACK
6
CONTINUOUS
10
45.0124939999999967
20
-57.4204939999999979
11
45.0666969999999978
21
-57.5991759999999999
0
LINE
8
BLACK
6
CONTINUOUS
10
45.0666969999999978
20
-57.5991759999999999
11
45.0849989999999963
21
-57.7849999999999966
0
LINE
8
BLACK
6
CONTINUOUS
10
45.0849989999999963
20
-57.7849999999999966
11
45.0666969999999978
21
-57.9708240000000004
0
LINE
8
BLACK
6
CONTINUOUS
10
45.0666969999999978
20
-57.9708240000000004
11
45.0124939999999967
21
-58.1495059999999953
0
LINE
8
BLACK
6
CONTINUOUS
10
45.0124939999999967
20
-58.1495059999999953
11
44.9244739999999965
21
-58.3141809999999978
0
LINE
8
BLACK
6
CONTINUOUS
10
44.9244739999999965
20
-58.3141809999999978
11
44.8060179999999946
21
-58.4585189999999955
0
LINE
8
BLACK
6
CONTINUOUS
10
44.8060179999999946
20
-58.4585189999999955
11
44.6616799999999969
21
-58.5769749999999974
0
LINE
8
BLACK
6
CONTINUOUS
10
44.6616799999999969
20
-58.5769749999999974
11
44.4970050000000015
21
-58.6649949999999976
0
LINE
8
BLACK
6
CONTINUOUS
10
44.4970050000000015
20
-58.6649949999999976
11
44.3183229999999995
21
-58.7191979999999987
0
LINE
8
BLACK
6
CONTINUOUS
10
44.3183229999999995
20
-58.7191979999999987
11
44.1324989999999957
21
-58.7374999999999972
0
LINE
8
BLACK
6
CONTINUOUS
10
44.1324989999999957
20
-58.7374999999999972
11
43.946674999999999
21
-58.7191979999999987
0
LINE
8
BLACK
6
CONTINUOUS
10
43.946674999999999
20
-58.7191979999999987
11
43.767992999999997
21
-58.6649949999999976
0
LINE
8
BLACK
6
CONTINUOUS
10
43.767992999999997
20
-58.6649949999999976
11
43.6033180000000016
21
-58.5769749999999974
0
LINE
8
BLACK
6
CONTINUOUS
10
43.6033180000000016
20
-58.5769749999999974
11
43.4589799999999968
21
-58.4585189999999955
0
LINE
8
BLACK
6
CONTINUOUS
10
43.4589799999999968
20
-58.4585189999999955
11
43.3405239999999949
21
-58.3141809999999978
0
LINE
8
BLACK
6
CONTINUOUS
10
43.3405239999999949
20
-58.3141809999999978
11
43.2525039999999947
21
-58.1495059999999953
0
LINE
8
BLACK
6
CONTINUOUS
10
43.2525039999999947
20
-58.1495059999999953
11
43.1983010000000007
21
-57.9708240000000004
0
LINE
8
BLACK
6
CONTINUOUS
10
43.1983010000000007
20
-57.9708240000000004
11
43.1799989999999951
21
-57.7849999999999966
0
LINE
8
BLACK
6
CONTINUOUS
10
43.1799989999999951
20
-57.7849999999999966
11
43.1983010000000007
21
-57.5991759999999999
0
LINE
8
BLACK
6
CONTINUOUS
10
43.1983010000000007
20
-57.5991759999999999
11
43.2525039999999947
21
-57.4204939999999979
0
LINE
8
BLACK
6
CONTINUOUS
10
43.2525039999999947
20
-57.4204939999999979
11
43.3405239999999949
21
-57.2558189999999954
0
LINE
8
BLACK
6
CONTINUOUS
10
43.3405239999999949
20
-57.2558189999999954
11
43.4589799999999968
21
-57.1114809999999977
0
LINE
8
BLACK
6
CONTINUOUS
10
43.4589799999999968
20
-57.1114809999999977
11
43.6033180000000016
21
-56.9930249999999958
0
LINE
8
BLACK
6
CONTINUOUS
10
43.6033180000000016
20
-56.9930249999999958
11
43.767992999999997
21
-56.9050049999999956
0
LINE
8
BLACK
6
CONTINUOUS
10
43.767992999999997
20
-56.9050049999999956
11
43.946674999999999
21
-56.8508019999999945
0
LINE
8
BLACK
6
CONTINUOUS
10
43.946674999999999
20
-56.8508019999999945
11
44.1324989999999957
21
-56.832499999999996
0
LINE
8
BLACK
6
CONTINUOUS
10
44.1324989999999957
20
-56.832499999999996
11
44.3183229999999995
21
-56.8508019999999945
0
LINE
8
BLACK
6
CONTINUOUS
10
46.8583239999999961
20
-56.8508019999999945
11
47.0370059999999981
21
-56.9050049999999956
0
LINE
8
BLACK
6
CONTINUOUS
10
47.0370059999999981
20
-56.9050049999999956
11
47.2016810000000007
21
-56.9930249999999958
0
LINE
8
BLACK
6
CONTINUOUS
10
47.2016810000000007
20
-56.9930249999999958
11
47.3460189999999983
21
-57.1114809999999977
0
LINE
8
BLACK
6
CONTINUOUS
10
47.3460189999999983
20
-57.1114809999999977
11
47.4644750000000002
21
-57.2558189999999954
0
LINE
8
BLACK
6
CONTINUOUS
10
47.4644750000000002
20
-57.2558189999999954
11
47.5524950000000004
21
-57.4204939999999979
0
LINE
8
BLACK
6
CONTINUOUS
10
47.5524950000000004
20
-57.4204939999999979
11
47.6066979999999944
21
-57.5991759999999999
0
LINE
8
BLACK
6
CONTINUOUS
10
47.6066979999999944
20
-57.5991759999999999
11
47.625
21
-57.7849999999999966
0
LINE
8
BLACK
6
CONTINUOUS
10
47.625
20
-57.7849999999999966
11
47.6066979999999944
21
-57.9708240000000004
0
LINE
8
BLACK
6
CONTINUOUS
10
47.6066979999999944
20
-57.9708240000000004
11
47.5524950000000004
21
-58.1495059999999953
0
LINE
8
BLACK
6
CONTINUOUS
10
47.5524950000000004
20
-58.1495059999999953
11
47.4644750000000002
21
-58.3141809999999978
0
LINE
8
BLACK
6
CONTINUOUS
10
47.4644750000000002
20
-58.3141809999999978
11
47.3460189999999983
21
-58.4585189999999955
0
LINE
8
BLACK
6
CONTINUOUS
10
47.3460189999999983
20
-58.4585189999999955
11
47.2016810000000007
21
-58.5769749999999974
0
LINE
8
BLACK
6
CONTINUOUS
10
47.2016810000000007
20
-58.5769749999999974
11
47.0370059999999981
21
-58.6649949999999976
0
LINE
8
BLACK
6
CONTINUOUS
10
47.0370059999999981
20
-58.6649949999999976
11
46.8583239999999961
21
-58.7191979999999987
0
LINE
8
BLACK
6
CONTINUOUS
10
46.8583239999999961
20
-58.7191979999999987
11
46.6724999999999994
21
-58.7374999999999972
0
LINE
8
BLACK
6
CONTINUOUS
10
46.6724999999999994
20
-58.7374999999999972
11
46.4866759999999957
21
-58.7191979999999987
0
LINE
8
BLACK
6
CONTINUOUS
10
46.4866759999999957
20
-58.7191979999999987
11
46.3079940000000008
21
-58.6649949999999976
0
LINE
8
BLACK
6
CONTINUOUS
10
46.3079940000000008
20
-58.6649949999999976
11
46.1433189999999982
21
-58.5769749999999974
0
LINE
8
BLACK
6
CONTINUOUS
10
46.1433189999999982
20
-58.5769749999999974
11
45.9989810000000006
21
-58.4585189999999955
0
LINE
8
BLACK
6
CONTINUOUS
10
45.9989810000000006
20
-58.4585189999999955
11
45.8805249999999987
21
-58.3141809999999978
0
LINE
8
BLACK
6
CONTINUOUS
10
45.8805249999999987
20
-58.3141809999999978
11
45.7925049999999985
21
-58.1495059999999953
0
LINE
8
BLACK
6
CONTINUOUS
10
45.7925049999999985
20
-58.1495059999999953
11
45.7383019999999973
21
-57.9708240000000004
0
LINE
8
BLACK
6
CONTINUOUS
10
45.7383019999999973
20
-57.9708240000000004
11
45.7199999999999989
21
-57.7849999999999966
0
LINE
8
BLACK
6
CONTINUOUS
10
45.7199999999999989
20
-57.7849999999999966
11
45.7383019999999973
21
-57.5991759999999999
0
LINE
8
BLACK
6
CONTINUOUS
10
45.7383019999999973
20
-57.5991759999999999
11
45.7925049999999985
21
-57.4204939999999979
0
LINE
8
BLACK
6
CONTINUOUS
10
45.7925049999999985
20
-57.4204939999999979
11
45.8805249999999987
21
-57.2558189999999954
0
LINE
8
BLACK
6
CONTINUOUS
10
45.8805249999999987
20
-57.2558189999999954
11
45.9989810000000006
21
-57.1114809999999977
0
LINE
8
BLACK
6
CONTINUOUS
10
45.9989810000000006
20
-57.1114809999999977
11
46.1433189999999982
21
-56.9930249999999958
0
LINE
8
BLACK
6
CONTINUOUS
10
46.1433189999999982
20
-56.9930249999999958
11
46.3079940000000008
21
-56.9050049999999956
0
LINE
8
BLACK
6
CONTINUOUS
10
46.3079940000000008
20
-56.9050049999999956
11
46.4866759999999957
21
-56.8508019999999945
0
LINE
8
BLACK
6
CONTINUOUS
10
46.4866759999999957
20
-56.8508019999999945
11
46.6724999999999994
21
-56.832499999999996
0
LINE
8
BLACK
6
CONTINUOUS
10
46.6724999999999994
20
-56.832499999999996
11
46.8583239999999961
21
-56.8508019999999945
0
LINE
8
BLACK
6
CONTINUOUS
10
54.4783240000000006
20
-56.8508019999999945
11
54.6570059999999955
21
-56.9050049999999956
0
LINE
8
BLACK
6
CONTINUOUS
10
54.6570059999999955
20
-56.9050049999999956
11
54.8216809999999981
21
-56.9930249999999958
0
LINE
8
BLACK
6
CONTINUOUS
10
54.8216809999999981
20
-56.9930249999999958
11
54.9660189999999957
21
-57.1114809999999977
0
LINE
8
BLACK
6
CONTINUOUS
10
54.9660189999999957
20
-57.1114809999999977
11
55.0844749999999976
21
-57.2558189999999954
0
LINE
8
BLACK
6
CONTINUOUS
10
55.0844749999999976
20
-57.2558189999999954
11
55.1724949999999978
21
-57.4204939999999979
0
LINE
8
BLACK
6
CONTINUOUS
10
55.1724949999999978
20
-57.4204939999999979
11
55.226697999999999
21
-57.5991759999999999
0
LINE
8
BLACK
6
CONTINUOUS
10
55.226697999999999
20
-57.5991759999999999
11
55.2449999999999974
21
-57.7849999999999966
0
LINE
8
BLACK
6
CONTINUOUS
10
55.2449999999999974
20
-57.7849999999999966
11
55.226697999999999
21
-57.9708240000000004
0
LINE
8
BLACK
6
CONTINUOUS
10
55.226697999999999
20
-57.9708240000000004
11
55.1724949999999978
21
-58.1495059999999953
0
LINE
8
BLACK
6
CONTINUOUS
10
55.1724949999999978
20
-58.1495059999999953
11
55.0844749999999976
21
-58.3141809999999978
0
LINE
8
BLACK
6
CONTINUOUS
10
55.0844749999999976
20
-58.3141809999999978
11
54.9660189999999957
21
-58.4585189999999955
0
LINE
8
BLACK
6
CONTINUOUS
10
54.9660189999999957
20
-58.4585189999999955
11
54.8216809999999981
21
-58.5769749999999974
0
LINE
8
BLACK
6
CONTINUOUS
10
54.8216809999999981
20
-58.5769749999999974
11
54.6570059999999955
21
-58.6649949999999976
0
LINE
8
BLACK
6
CONTINUOUS
10
54.6570059999999955
20
-58.6649949999999976
11
54.4783240000000006
21
-58.7191979999999987
0
LINE
8
BLACK
6
CONTINUOUS
10
54.4783240000000006
20
-58.7191979999999987
11
54.2924999999999969
21
-58.7374999999999972
0
LINE
8
BLACK
6
CONTINUOUS
10
54.2924999999999969
20
-58.7374999999999972
11
54.1066760000000002
21
-58.7191979999999987
0
LINE
8
BLACK
6
CONTINUOUS
10
54.1066760000000002
20
-58.7191979999999987
11
53.9279939999999982
21
-58.6649949999999976
0
LINE
8
BLACK
6
CONTINUOUS
10
53.9279939999999982
20
-58.6649949999999976
11
53.7633189999999956
21
-58.5769749999999974
0
LINE
8
BLACK
6
CONTINUOUS
10
53.7633189999999956
20
-58.5769749999999974
11
53.618980999999998
21
-58.4585189999999955
0
LINE
8
BLACK
6
CONTINUOUS
10
53.618980999999998
20
-58.4585189999999955
11
53.5005249999999961
21
-58.3141809999999978
0
LINE
8
BLACK
6
CONTINUOUS
10
53.5005249999999961
20
-58.3141809999999978
11
53.4125049999999959
21
-58.1495059999999953
0
LINE
8
BLACK
6
CONTINUOUS
10
53.4125049999999959
20
-58.1495059999999953
11
53.3583019999999948
21
-57.9708240000000004
0
LINE
8
BLACK
6
CONTINUOUS
10
53.3583019999999948
20
-57.9708240000000004
11
53.3399999999999963
21
-57.7849999999999966
0
LINE
8
BLACK
6
CONTINUOUS
10
53.3399999999999963
20
-57.7849999999999966
11
53.3583019999999948
21
-57.5991759999999999
0
LINE
8
BLACK
6
CONTINUOUS
10
53.3583019999999948
20
-57.5991759999999999
11
53.4125049999999959
21
-57.4204939999999979
0
LINE
8
BLACK
6
CONTINUOUS
10
53.4125049999999959
20
-57.4204939999999979
11
53.5005249999999961
21
-57.2558189999999954
0
LINE
8
BLACK
6
CONTINUOUS
10
53.5005249999999961
20
-57.2558189999999954
11
53.618980999999998
21
-57.1114809999999977
0
LINE
8
BLACK
6
CONTINUOUS
10
53.618980999999998
20
-57.1114809999999977
11
53.7633189999999956
21
-56.9930249999999958
0
LINE
8
BLACK
6
CONTINUOUS
10
53.7633189999999956
20
-56.9930249999999958
11
53.9279939999999982
21
-56.9050049999999956
0
LINE
8
BLACK
6
CONTINUOUS
10
53.9279939999999982
20
-56.9050049999999956
11
54.1066760000000002
21
-56.8508019999999945
0
LINE
8
BLACK
6
CONTINUOUS
10
54.1066760000000002
20
-56.8508019999999945
11
54.2924999999999969
21
-56.832499999999996
0
LINE
8
BLACK
6
CONTINUOUS
10
54.2924999999999969
20
-56.832499999999996
11
54.4783240000000006
21
-56.8508019999999945
0
LINE
8
BLACK
6
CONTINUOUS
10
39.2383239999999986
20
-54.3108019999999954
11
39.4170060000000007
21
-54.3650049999999965
0
LINE
8
BLACK
6
CONTINUOUS
10
39.4170060000000007
20
-54.3650049999999965
11
39.5816809999999961
21
-54.4530249999999967
0
LINE
8
BLACK
6
CONTINUOUS
10
39.5816809999999961
20
-54.4530249999999967
11
39.7260190000000009
21
-54.5714809999999986
0
LINE
8
BLACK
6
CONTINUOUS
10
39.7260190000000009
20
-54.5714809999999986
11
39.8444749999999956
21
-54.7158189999999962
0
LINE
8
BLACK
6
CONTINUOUS
10
39.8444749999999956
20
-54.7158189999999962
11
39.9324949999999959
21
-54.8804939999999988
0
LINE
8
BLACK
6
CONTINUOUS
10
39.9324949999999959
20
-54.8804939999999988
11
39.986697999999997
21
-55.0591760000000008
0
LINE
8
BLACK
6
CONTINUOUS
10
39.986697999999997
20
-55.0591760000000008
11
40.0049999999999955
21
-55.2449999999999974
0
LINE
8
BLACK
6
CONTINUOUS
10
40.0049999999999955
20
-55.2449999999999974
11
39.986697999999997
21
-55.4308239999999941
0
LINE
8
BLACK
6
CONTINUOUS
10
39.986697999999997
20
-55.4308239999999941
11
39.9324949999999959
21
-55.6095059999999961
0
LINE
8
BLACK
6
CONTINUOUS
10
39.9324949999999959
20
-55.6095059999999961
11
39.8444749999999956
21
-55.7741809999999987
0
LINE
8
BLACK
6
CONTINUOUS
10
39.8444749999999956
20
-55.7741809999999987
11
39.7260190000000009
21
-55.9185189999999963
0
LINE
8
BLACK
6
CONTINUOUS
10
39.7260190000000009
20
-55.9185189999999963
11
39.5816809999999961
21
-56.0369749999999982
0
LINE
8
BLACK
6
CONTINUOUS
10
39.5816809999999961
20
-56.0369749999999982
11
39.4170060000000007
21
-56.1249949999999984
0
LINE
8
BLACK
6
CONTINUOUS
10
39.4170060000000007
20
-56.1249949999999984
11
39.2383239999999986
21
-56.1791979999999995
0
LINE
8
BLACK
6
CONTINUOUS
10
39.2383239999999986
20
-56.1791979999999995
11
39.0524999999999949
21
-56.197499999999998
0
LINE
8
BLACK
6
CONTINUOUS
10
39.0524999999999949
20
-56.197499999999998
11
38.8666759999999982
21
-56.1791979999999995
0
LINE
8
BLACK
6
CONTINUOUS
10
38.8666759999999982
20
-56.1791979999999995
11
38.6879939999999962
21
-56.1249949999999984
0
LINE
8
BLACK
6
CONTINUOUS
10
38.6879939999999962
20
-56.1249949999999984
11
38.5233190000000008
21
-56.0369749999999982
0
LINE
8
BLACK
6
CONTINUOUS
10
38.5233190000000008
20
-56.0369749999999982
11
38.378980999999996
21
-55.9185189999999963
0
LINE
8
BLACK
6
CONTINUOUS
10
38.378980999999996
20
-55.9185189999999963
11
38.2605250000000012
21
-55.7741809999999987
0
LINE
8
BLACK
6
CONTINUOUS
10
38.2605250000000012
20
-55.7741809999999987
11
38.172505000000001
21
-55.6095059999999961
0
LINE
8
BLACK
6
CONTINUOUS
10
38.172505000000001
20
-55.6095059999999961
11
38.1183019999999999
21
-55.4308239999999941
0
LINE
8
BLACK
6
CONTINUOUS
10
38.1183019999999999
20
-55.4308239999999941
11
38.1000000000000014
21
-55.2449999999999974
0
LINE
8
BLACK
6
CONTINUOUS
10
38.1000000000000014
20
-55.2449999999999974
11
38.1183019999999999
21
-55.0591760000000008
0
LINE
8
BLACK
6
CONTINUOUS
10
38.1183019999999999
20
-55.0591760000000008
11
38.172505000000001
21
-54.8804939999999988
0
LINE
8
BLACK
6
CONTINUOUS
10
38.172505000000001
20
-54.8804939999999988
11
38.2605250000000012
21
-54.7158189999999962
0
LINE
8
BLACK
6
CONTINUOUS
10
38.2605250000000012
20
-54.7158189999999962
11
38.378980999999996
21
-54.5714809999999986
0
LINE
8
BLACK
6
CONTINUOUS
10
38.378980999999996
20
-54.5714809999999986
11
38.5233190000000008
21
-54.4530249999999967
0
LINE
8
BLACK
6
CONTINUOUS
10
38.5233190000000008
20
-54.4530249999999967
11
38.6879939999999962
21
-54.3650049999999965
0
LINE
8
BLACK
6
CONTINUOUS
10
38.6879939999999962
20
-54.3650049999999965
11
38.8666759999999982
21
-54.3108019999999954
0
LINE
8
BLACK
6
CONTINUOUS
10
38.8666759999999982
20
-54.3108019999999954
11
39.0524999999999949
21
-54.2924999999999969
0
LINE
8
BLACK
6
CONTINUOUS
10
39.0524999999999949
20
-54.2924999999999969
11
39.2383239999999986
21
-54.3108019999999954
0
LINE
8
BLACK
6
CONTINUOUS
10
44.3183229999999995
20
-54.3108019999999954
11
44.4970050000000015
21
-54.3650049999999965
0
LINE
8
BLACK
6
CONTINUOUS
10
44.4970050000000015
20
-54.3650049999999965
11
44.6616799999999969
21
-54.4530249999999967
0
LINE
8
BLACK
6
CONTINUOUS
10
44.6616799999999969
20
-54.4530249999999967
11
44.8060179999999946
21
-54.5714809999999986
0
LINE
8
BLACK
6
CONTINUOUS
10
44.8060179999999946
20
-54.5714809999999986
11
44.9244739999999965
21
-54.7158189999999962
0
LINE
8
BLACK
6
CONTINUOUS
10
44.9244739999999965
20
-54.7158189999999962
11
45.0124939999999967
21
-54.8804939999999988
0
LINE
8
BLACK
6
CONTINUOUS
10
45.0124939999999967
20
-54.8804939999999988
11
45.0666969999999978
21
-55.0591760000000008
0
LINE
8
BLACK
6
CONTINUOUS
10
45.0666969999999978
20
-55.0591760000000008
11
45.0849989999999963
21
-55.2449999999999974
0
LINE
8
BLACK
6
CONTINUOUS
10
45.0849989999999963
20
-55.2449999999999974
11
45.0666969999999978
21
-55.4308239999999941
0
LINE
8
BLACK
6
CONTINUOUS
10
45.0666969999999978
20
-55.4308239999999941
11
45.0124939999999967
21
-55.6095059999999961
0
LINE
8
BLACK
6
CONTINUOUS
10
45.0124939999999967
20
-55.6095059999999961
11
44.9244739999999965
21
-55.7741809999999987
0
LINE
8
BLACK
6
CONTINUOUS
10
44.9244739999999965
20
-55.7741809999999987
11
44.8060179999999946
21
-55.9185189999999963
0
LINE
8
BLACK
6
CONTINUOUS
10
44.8060179999999946
20
-55.9185189999999963
11
44.6616799999999969
21
-56.0369749999999982
0
LINE
8
BLACK
6
CONTINUOUS
10
44.6616799999999969
20
-56.0369749999999982
11
44.4970050000000015
21
-56.1249949999999984
0
LINE
8
BLACK
6
CONTINUOUS
10
44.4970050000000015
20
-56.1249949999999984
11
44.3183229999999995
21
-56.1791979999999995
0
LINE
8
BLACK
6
CONTINUOUS
10
44.3183229999999995
20
-56.1791979999999995
11
44.1324989999999957
21
-56.197499999999998
0
LINE
8
BLACK
6
CONTINUOUS
10
44.1324989999999957
20
-56.197499999999998
11
43.946674999999999
21
-56.1791979999999995
0
LINE
8
BLACK
6
CONTINUOUS
10
43.946674999999999
20
-56.1791979999999995
11
43.767992999999997
21
-56.1249949999999984
0
LINE
8
BLACK
6
CONTINUOUS
10
43.767992999999997
20
-56.1249949999999984
11
43.6033180000000016
21
-56.0369749999999982
0
LINE
8
BLACK
6
CONTINUOUS
10
43.6033180000000016
20
-56.0369749999999982
11
43.4589799999999968
21
-55.9185189999999963
0
LINE
8
BLACK
6
CONTINUOUS
10
43.4589799999999968
20
-55.9185189999999963
11
43.3405239999999949
21
-55.7741809999999987
0
LINE
8
BLACK
6
CONTINUOUS
10
43.3405239999999949
20
-55.7741809999999987
11
43.2525039999999947
21
-55.6095059999999961
0
LINE
8
BLACK
6
CONTINUOUS
10
43.2525039999999947
20
-55.6095059999999961
11
43.1983010000000007
21
-55.4308239999999941
0
LINE
8
BLACK
6
CONTINUOUS
10
43.1983010000000007
20
-55.4308239999999941
11
43.1799989999999951
21
-55.2449999999999974
0
LINE
8
BLACK
6
CONTINUOUS
10
43.1799989999999951
20
-55.2449999999999974
11
43.1983010000000007
21
-55.0591760000000008
0
LINE
8
BLACK
6
CONTINUOUS
10
43.1983010000000007
20
-55.0591760000000008
11
43.2525039999999947
21
-54.8804939999999988
0
LINE
8
BLACK
6
CONTINUOUS
10
43.2525039999999947
20
-54.8804939999999988
11
43.3405239999999949
21
-54.7158189999999962
0
LINE
8
BLACK
6
CONTINUOUS
10
43.3405239999999949
20
-54.7158189999999962
11
43.4589799999999968
21
-54.5714809999999986
0
LINE
8
BLACK
6
CONTINUOUS
10
43.4589799999999968
20
-54.5714809999999986
11
43.6033180000000016
21
-54.4530249999999967
0
LINE
8
BLACK
6
CONTINUOUS
10
43.6033180000000016
20
-54.4530249999999967
11
43.767992999999997
21
-54.3650049999999965
0
LINE
8
BLACK
6
CONTINUOUS
10
43.767992999999997
20
-54.3650049999999965
11
43.946674999999999
21
-54.3108019999999954
0
LINE
8
BLACK
6
CONTINUOUS
10
43.946674999999999
20
-54.3108019999999954
11
44.1324989999999957
21
-54.2924999999999969
0
LINE
8
BLACK
6
CONTINUOUS
10
44.1324989999999957
20
-54.2924999999999969
11
44.3183229999999995
21
-54.3108019999999954
0
LINE
8
BLACK
6
CONTINUOUS
10
46.8583239999999961
20
-54.3108019999999954
11
47.0370059999999981
21
-54.3650049999999965
0
LINE
8
BLACK
6
CONTINUOUS
10
47.0370059999999981
20
-54.3650049999999965
11
47.2016810000000007
21
-54.4530249999999967
0
LINE
8
BLACK
6
CONTINUOUS
10
47.2016810000000007
20
-54.4530249999999967
11
47.3460189999999983
21
-54.5714809999999986
0
LINE
8
BLACK
6
CONTINUOUS
10
47.3460189999999983
20
-54.5714809999999986
11
47.4644750000000002
21
-54.7158189999999962
0
LINE
8
BLACK
6
CONTINUOUS
10
47.4644750000000002
20
-54.7158189999999962
11
47.5524950000000004
21
-54.8804939999999988
0
LINE
8
BLACK
6
CONTINUOUS
10
47.5524950000000004
20
-54.8804939999999988
11
47.6066979999999944
21
-55.0591760000000008
0
LINE
8
BLACK
6
CONTINUOUS
10
47.6066979999999944
20
-55.0591760000000008
11
47.625
21
-55.2449999999999974
0
LINE
8
BLACK
6
CONTINUOUS
10
47.625
20
-55.2449999999999974
11
47.6066979999999944
21
-55.4308239999999941
0
LINE
8
BLACK
6
CONTINUOUS
10
47.6066979999999944
20
-55.4308239999999941
11
47.5524950000000004
21
-55.6095059999999961
0
LINE
8
BLACK
6
CONTINUOUS
10
47.5524950000000004
20
-55.6095059999999961
11
47.4644750000000002
21
-55.7741809999999987
0
LINE
8
BLACK
6
CONTINUOUS
10
47.4644750000000002
20
-55.7741809999999987
11
47.3460189999999983
21
-55.9185189999999963
0
LINE
8
BLACK
6
CONTINUOUS
10
47.3460189999999983
20
-55.9185189999999963
11
47.2016810000000007
21
-56.0369749999999982
0
LINE
8
BLACK
6
CONTINUOUS
10
47.2016810000000007
20
-56.0369749999999982
11
47.0370059999999981
21
-56.1249949999999984
0
LINE
8
BLACK
6
CONTINUOUS
10
47.0370059999999981
20
-56.1249949999999984
11
46.8583239999999961
21
-56.1791979999999995
0
LINE
8
BLACK
6
CONTINUOUS
10
46.8583239999999961
20
-56.1791979999999995
11
46.6724999999999994
21
-56.197499999999998
0
LINE
8
BLACK
6
CONTINUOUS
10
46.6724999999999994
20
-56.197499999999998
11
46.4866759999999957
21
-56.1791979999999995
0
LINE
8
BLACK
6
CONTINUOUS
10
46.4866759999999957
20
-56.1791979999999995
11
46.3079940000000008
21
-56.1249949999999984
0
LINE
8
BLACK
6
CONTINUOUS
10
46.3079940000000008
20
-56.1249949999999984
11
46.1433189999999982
21
-56.0369749999999982
0
LINE
8
BLACK
6
CONTINUOUS
10
46.1433189999999982
20
-56.0369749999999982
11
45.9989810000000006
21
-55.9185189999999963
0
LINE
8
BLACK
6
CONTINUOUS
10
45.9989810000000006
20
-55.9185189999999963
11
45.8805249999999987
21
-55.7741809999999987
0
LINE
8
BLACK
6
CONTINUOUS
10
45.8805249999999987
20
-55.7741809999999987
11
45.7925049999999985
21
-55.6095059999999961
0
LINE
8
BLACK
6
CONTINUOUS
10
45.7925049999999985
20
-55.6095059999999961
11
45.7383019999999973
21
-55.4308239999999941
0
LINE
8
BLACK
6
CONTINUOUS
10
45.7383019999999973
20
-55.4308239999999941
11
45.7199999999999989
21
-55.2449999999999974
0
LINE
8
BLACK
6
CONTINUOUS
10
45.7199999999999989
20
-55.2449999999999974
11
45.7383019999999973
21
-55.0591760000000008
0
LINE
8
BLACK
6
CONTINUOUS
10
45.7383019999999973
20
-55.0591760000000008
11
45.7925049999999985
21
-54.8804939999999988
0
LINE
8
BLACK
6
CONTINUOUS
10
45.7925049999999985
20
-54.8804939999999988
11
45.8805249999999987
21
-54.7158189999999962
0
LINE
8
BLACK
6
CONTINUOUS
10
45.8805249999999987
20
-54.7158189999999962
11
45.9989810000000006
21
-54.5714809999999986
0
LINE
8
BLACK
6
CONTINUOUS
10
45.9989810000000006
20
-54.5714809999999986
11
46.1433189999999982
21
-54.4530249999999967
0
LINE
8
BLACK
6
CONTINUOUS
10
46.1433189999999982
20
-54.4530249999999967
11
46.3079940000000008
21
-54.3650049999999965
0
LINE
8
BLACK
6
CONTINUOUS
10
46.3079940000000008
20
-54.3650049999999965
11
46.4866759999999957
21
-54.3108019999999954
0
LINE
8
BLACK
6
CONTINUOUS
10
46.4866759999999957
20
-54.3108019999999954
11
46.6724999999999994
21
-54.2924999999999969
0
LINE
8
BLACK
6
CONTINUOUS
10
46.6724999999999994
20
-54.2924999999999969
11
46.8583239999999961
21
-54.3108019999999954
0
LINE
8
BLACK
6
CONTINUOUS
10
54.4783240000000006
20
-54.3108019999999954
11
54.6570059999999955
21
-54.3650049999999965
0
LINE
8
BLACK
6
CONTINUOUS
10
54.6570059999999955
20
-54.3650049999999965
11
54.8216809999999981
21
-54.4530249999999967
0
LINE
8
BLACK
6
CONTINUOUS
10
54.8216809999999981
20
-54.4530249999999967
11
54.9660189999999957
21
-54.5714809999999986
0
LINE
8
BLACK
6
CONTINUOUS
10
54.9660189999999957
20
-54.5714809999999986
11
55.0844749999999976
21
-54.7158189999999962
0
LINE
8
BLACK
6
CONTINUOUS
10
55.0844749999999976
20
-54.7158189999999962
11
55.1724949999999978
21
-54.8804939999999988
0
LINE
8
BLACK
6
CONTINUOUS
10
55.1724949999999978
20
-54.8804939999999988
11
55.226697999999999
21
-55.0591760000000008
0
LINE
8
BLACK
6
CONTINUOUS
10
55.226697999999999
20
-55.0591760000000008
11
55.2449999999999974
21
-55.2449999999999974
0
LINE
8
BLACK
6
CONTINUOUS
10
55.2449999999999974
20
-55.2449999999999974
11
55.226697999999999
21
-55.4308239999999941
0
LINE
8
BLACK
6
CONTINUOUS
10
55.226697999999999
20
-55.4308239999999941
11
55.1724949999999978
21
-55.6095059999999961
0
LINE
8
BLACK
6
CONTINUOUS
10
55.1724949999999978
20
-55.6095059999999961
11
55.0844749999999976
21
-55.7741809999999987
0
LINE
8
BLACK
6
CONTINUOUS
10
55.0844749999999976
20
-55.7741809999999987
11
54.9660189999999957
21
-55.9185189999999963
0
LINE
8
BLACK
6
CONTINUOUS
10
54.9660189999999957
20
-55.9185189999999963
11
54.8216809999999981
21
-56.0369749999999982
0
LINE
8
BLACK
6
CONTINUOUS
10
54.8216809999999981
20
-56.0369749999999982
11
54.6570059999999955
21
-56.1249949999999984
0
LINE
8
BLACK
6
CONTINUOUS
10
54.6570059999999955
20
-56.1249949999999984
11
54.4783240000000006
21
-56.1791979999999995
0
LINE
8
BLACK
6
CONTINUOUS
10
54.4783240000000006
20
-56.1791979999999995
11
54.2924999999999969
21
-56.197499999999998
0
LINE
8
BLACK
6
CONTINUOUS
10
54.2924999999999969
20
-56.197499999999998
11
54.1066760000000002
21
-56.1791979999999995
0
LINE
8
BLACK
6
CONTINUOUS
10
54.1066760000000002
20
-56.1791979999999995
11
53.9279939999999982
21
-56.1249949999999984
0
LINE
8
BLACK
6
CONTINUOUS
10
53.9279939999999982
20
-56.1249949999999984
11
53.7633189999999956
21
-56.0369749999999982
0
LINE
8
BLACK
6
CONTINUOUS
10
53.7633189999999956
20
-56.0369749999999982
11
53.618980999999998
21
-55.9185189999999963
0
LINE
8
BLACK
6
CONTINUOUS
10
53.618980999999998
20
-55.9185189999999963
11
53.5005249999999961
21
-55.7741809999999987
0
LINE
8
BLACK
6
CONTINUOUS
10
53.5005249999999961
20
-55.7741809999999987
11
53.4125049999999959
21
-55.6095059999999961
0
LINE
8
BLACK
6
CONTINUOUS
10
53.4125049999999959
20
-55.6095059999999961
11
53.3583019999999948
21
-55.4308239999999941
0
LINE
8
BLACK
6
CONTINUOUS
10
53.3583019999999948
20
-55.4308239999999941
11
53.3399999999999963
21
-55.2449999999999974
0
LINE
8
BLACK
6
CONTINUOUS
10
53.3399999999999963
20
-55.2449999999999974
11
53.3583019999999948
21
-55.0591760000000008
0
LINE
8
BLACK
6
CONTINUOUS
10
53.3583019999999948
20
-55.0591760000000008
11
53.4125049999999959
21
-54.8804939999999988
0
LINE
8
BLACK
6
CONTINUOUS
10
53.4125049999999959
20
-54.8804939999999988
11
53.5005249999999961
21
-54.7158189999999962
0
LINE
8
BLACK
6
CONTINUOUS
10
53.5005249999999961
20
-54.7158189999999962
11
53.618980999999998
21
-54.5714809999999986
0
LINE
8
BLACK
6
CONTINUOUS
10
53.618980999999998
20
-54.5714809999999986
11
53.7633189999999956
21
-54.4530249999999967
0
LINE
8
BLACK
6
CONTINUOUS
10
53.7633189999999956
20
-54.4530249999999967
11
53.9279939999999982
21
-54.3650049999999965
0
LINE
8
BLACK
6
CONTINUOUS
10
53.9279939999999982
20
-54.3650049999999965
11
54.1066760000000002
21
-54.3108019999999954
0
LINE
8
BLACK
6
CONTINUOUS
10
54.1066760000000002
20
-54.3108019999999954
11
54.2924999999999969
21
-54.2924999999999969
0
LINE
8
BLACK
6
CONTINUOUS
10
54.2924999999999969
20
-54.2924999999999969
11
54.4783240000000006
21
-54.3108019999999954
0
LINE
8
BLACK
6
CONTINUOUS
10
57.0183239999999998
20
-54.3108019999999954
11
57.1970059999999947
21
-54.3650049999999965
0
LINE
8
BLACK
6
CONTINUOUS
10
57.1970059999999947
20
-54.3650049999999965
11
57.3616809999999973
21
-54.4530249999999967
0
LINE
8
BLACK
6
CONTINUOUS
10
57.3616809999999973
20
-54.4530249999999967
11
57.5060189999999949
21
-54.5714809999999986
0
LINE
8
BLACK
6
CONTINUOUS
10
57.5060189999999949
20
-54.5714809999999986
11
57.6244749999999968
21
-54.7158189999999962
0
LINE
8
BLACK
6
CONTINUOUS
10
57.6244749999999968
20
-54.7158189999999962
11
57.712494999999997
21
-54.8804939999999988
0
LINE
8
BLACK
6
CONTINUOUS
10
57.712494999999997
20
-54.8804939999999988
11
57.7666979999999981
21
-55.0591760000000008
0
LINE
8
BLACK
6
CONTINUOUS
10
57.7666979999999981
20
-55.0591760000000008
11
57.7849999999999966
21
-55.2449999999999974
0
LINE
8
BLACK
6
CONTINUOUS
10
57.7849999999999966
20
-55.2449999999999974
11
57.7666979999999981
21
-55.4308239999999941
0
LINE
8
BLACK
6
CONTINUOUS
10
57.7666979999999981
20
-55.4308239999999941
11
57.712494999999997
21
-55.6095059999999961
0
LINE
8
BLACK
6
CONTINUOUS
10
57.712494999999997
20
-55.6095059999999961
11
57.6244749999999968
21
-55.7741809999999987
0
LINE
8
BLACK
6
CONTINUOUS
10
57.6244749999999968
20
-55.7741809999999987
11
57.5060189999999949
21
-55.9185189999999963
0
LINE
8
BLACK
6
CONTINUOUS
10
57.5060189999999949
20
-55.9185189999999963
11
57.3616809999999973
21
-56.0369749999999982
0
LINE
8
BLACK
6
CONTINUOUS
10
57.3616809999999973
20
-56.0369749999999982
11
57.1970059999999947
21
-56.1249949999999984
0
LINE
8
BLACK
6
CONTINUOUS
10
57.1970059999999947
20
-56.1249949999999984
11
57.0183239999999998
21
-56.1791979999999995
0
LINE
8
BLACK
6
CONTINUOUS
10
57.0183239999999998
20
-56.1791979999999995
11
56.832499999999996
21
-56.197499999999998
0
LINE
8
BLACK
6
CONTINUOUS
10
56.832499999999996
20
-56.197499999999998
11
56.6466759999999994
21
-56.1791979999999995
0
LINE
8
BLACK
6
CONTINUOUS
10
56.6466759999999994
20
-56.1791979999999995
11
56.4679939999999974
21
-56.1249949999999984
0
LINE
8
BLACK
6
CONTINUOUS
10
56.4679939999999974
20
-56.1249949999999984
11
56.3033189999999948
21
-56.0369749999999982
0
LINE
8
BLACK
6
CONTINUOUS
10
56.3033189999999948
20
-56.0369749999999982
11
56.1589809999999972
21
-55.9185189999999963
0
LINE
8
BLACK
6
CONTINUOUS
10
56.1589809999999972
20
-55.9185189999999963
11
56.0405249999999953
21
-55.7741809999999987
0
LINE
8
BLACK
6
CONTINUOUS
10
56.0405249999999953
20
-55.7741809999999987
11
55.9525049999999951
21
-55.6095059999999961
0
LINE
8
BLACK
6
CONTINUOUS
10
55.9525049999999951
20
-55.6095059999999961
11
55.8983019999999939
21
-55.4308239999999941
0
LINE
8
BLACK
6
CONTINUOUS
10
55.8983019999999939
20
-55.4308239999999941
11
55.8799999999999955
21
-55.2449999999999974
0
LINE
8
BLACK
6
CONTINUOUS
10
55.8799999999999955
20
-55.2449999999999974
11
55.8983019999999939
21
-55.0591760000000008
0
LINE
8
BLACK
6
CONTINUOUS
10
55.8983019999999939
20
-55.0591760000000008
11
55.9525049999999951
21
-54.8804939999999988
0
LINE
8
BLACK
6
CONTINUOUS
10
55.9525049999999951
20
-54.8804939999999988
11
56.0405249999999953
21
-54.7158189999999962
0
LINE
8
BLACK
6
CONTINUOUS
10
56.0405249999999953
20
-54.7158189999999962
11
56.1589809999999972
21
-54.5714809999999986
0
LINE
8
BLACK
6
CONTINUOUS
10
56.1589809999999972
20
-54.5714809999999986
11
56.3033189999999948
21
-54.4530249999999967
0
LINE
8
BLACK
6
CONTINUOUS
10
56.3033189999999948
20
-54.4530249999999967
11
56.4679939999999974
21
-54.3650049999999965
0
LINE
8
BLACK
6
CONTINUOUS
10
56.4679939999999974
20
-54.3650049999999965
11
56.6466759999999994
21
-54.3108019999999954
0
LINE
8
BLACK
6
CONTINUOUS
10
56.6466759999999994
20
-54.3108019999999954
11
56.832499999999996
21
-54.2924999999999969
0
LINE
8
BLACK
6
CONTINUOUS
10
56.832499999999996
20
-54.2924999999999969
11
57.0183239999999998
21
-54.3108019999999954
0
LINE
8
BLACK
6
CONTINUOUS
10
62.0983239999999981
20
-54.3108019999999954
11
62.2770060000000001
21
-54.3650049999999965
0
LINE
8
BLACK
6
CONTINUOUS
10
62.2770060000000001
20
-54.3650049999999965
11
62.4416809999999955
21
-54.4530249999999967
0
LINE
8
BLACK
6
CONTINUOUS
10
62.4416809999999955
20
-54.4530249999999967
11
62.5860190000000003
21
-54.5714809999999986
0
LINE
8
BLACK
6
CONTINUOUS
10
62.5860190000000003
20
-54.5714809999999986
11
62.7044749999999951
21
-54.7158189999999962
0
LINE
8
BLACK
6
CONTINUOUS
10
62.7044749999999951
20
-54.7158189999999962
11
62.7924949999999953
21
-54.8804939999999988
0
LINE
8
BLACK
6
CONTINUOUS
10
62.7924949999999953
20
-54.8804939999999988
11
62.8466979999999964
21
-55.0591760000000008
0
LINE
8
BLACK
6
CONTINUOUS
10
62.8466979999999964
20
-55.0591760000000008
11
62.8649999999999949
21
-55.2449999999999974
0
LINE
8
BLACK
6
CONTINUOUS
10
62.8649999999999949
20
-55.2449999999999974
11
62.8466979999999964
21
-55.4308239999999941
0
LINE
8
BLACK
6
CONTINUOUS
10
62.8466979999999964
20
-55.4308239999999941
11
62.7924949999999953
21
-55.6095059999999961
0
LINE
8
BLACK
6
CONTINUOUS
10
62.7924949999999953
20
-55.6095059999999961
11
62.7044749999999951
21
-55.7741809999999987
0
LINE
8
BLACK
6
CONTINUOUS
10
62.7044749999999951
20
-55.7741809999999987
11
62.5860190000000003
21
-55.9185189999999963
0
LINE
8
BLACK
6
CONTINUOUS
10
62.5860190000000003
20
-55.9185189999999963
11
62.4416809999999955
21
-56.0369749999999982
0
LINE
8
BLACK
6
CONTINUOUS
10
62.4416809999999955
20
-56.0369749999999982
11
62.2770060000000001
21
-56.1249949999999984
0
LINE
8
BLACK
6
CONTINUOUS
10
62.2770060000000001
20
-56.1249949999999984
11
62.0983239999999981
21
-56.1791979999999995
0
LINE
8
BLACK
6
CONTINUOUS
10
62.0983239999999981
20
-56.1791979999999995
11
61.9124999999999943
21
-56.197499999999998
0
LINE
8
BLACK
6
CONTINUOUS
10
61.9124999999999943
20
-56.197499999999998
11
61.7266759999999977
21
-56.1791979999999995
0
LINE
8
BLACK
6
CONTINUOUS
10
61.7266759999999977
20
-56.1791979999999995
11
61.5479939999999957
21
-56.1249949999999984
0
LINE
8
BLACK
6
CONTINUOUS
10
61.5479939999999957
20
-56.1249949999999984
11
61.3833190000000002
21
-56.0369749999999982
0
LINE
8
BLACK
6
CONTINUOUS
10
61.3833190000000002
20
-56.0369749999999982
11
61.2389809999999954
21
-55.9185189999999963
0
LINE
8
BLACK
6
CONTINUOUS
10
61.2389809999999954
20
-55.9185189999999963
11
61.1205250000000007
21
-55.7741809999999987
0
LINE
8
BLACK
6
CONTINUOUS
10
61.1205250000000007
20
-55.7741809999999987
11
61.0325050000000005
21
-55.6095059999999961
0
LINE
8
BLACK
6
CONTINUOUS
10
61.0325050000000005
20
-55.6095059999999961
11
60.9783019999999993
21
-55.4308239999999941
0
LINE
8
BLACK
6
CONTINUOUS
10
60.9783019999999993
20
-55.4308239999999941
11
60.9599999999999937
21
-55.2449999999999974
0
LINE
8
BLACK
6
CONTINUOUS
10
60.9599999999999937
20
-55.2449999999999974
11
60.9783019999999993
21
-55.0591760000000008
0
LINE
8
BLACK
6
CONTINUOUS
10
60.9783019999999993
20
-55.0591760000000008
11
61.0325050000000005
21
-54.8804939999999988
0
LINE
8
BLACK
6
CONTINUOUS
10
61.0325050000000005
20
-54.8804939999999988
11
61.1205250000000007
21
-54.7158189999999962
0
LINE
8
BLACK
6
CONTINUOUS
10
61.1205250000000007
20
-54.7158189999999962
11
61.2389809999999954
21
-54.5714809999999986
0
LINE
8
BLACK
6
CONTINUOUS
10
61.2389809999999954
20
-54.5714809999999986
11
61.3833190000000002
21
-54.4530249999999967
0
LINE
8
BLACK
6
CONTINUOUS
10
61.3833190000000002
20
-54.4530249999999967
11
61.5479939999999957
21
-54.3650049999999965
0
LINE
8
BLACK
6
CONTINUOUS
10
61.5479939999999957
20
-54.3650049999999965
11
61.7266759999999977
21
-54.3108019999999954
0
LINE
8
BLACK
6
CONTINUOUS
10
61.7266759999999977
20
-54.3108019999999954
11
61.9124999999999943
21
-54.2924999999999969
0
LINE
8
BLACK
6
CONTINUOUS
10
61.9124999999999943
20
-54.2924999999999969
11
62.0983239999999981
21
-54.3108019999999954
0
LINE
8
BLACK
6
CONTINUOUS
10
39.2383239999999986
20
-51.7708019999999962
11
39.4170060000000007
21
-51.8250049999999973
0
LINE
8
BLACK
6
CONTINUOUS
10
39.4170060000000007
20
-51.8250049999999973
11
39.5816809999999961
21
-51.9130249999999975
0
LINE
8
BLACK
6
CONTINUOUS
10
39.5816809999999961
20
-51.9130249999999975
11
39.7260190000000009
21
-52.0314809999999994
0
LINE
8
BLACK
6
CONTINUOUS
10
39.7260190000000009
20
-52.0314809999999994
11
39.8444749999999956
21
-52.1758189999999971
0
LINE
8
BLACK
6
CONTINUOUS
10
39.8444749999999956
20
-52.1758189999999971
11
39.9324949999999959
21
-52.3404939999999996
0
LINE
8
BLACK
6
CONTINUOUS
10
39.9324949999999959
20
-52.3404939999999996
11
39.986697999999997
21
-52.5191759999999945
0
LINE
8
BLACK
6
CONTINUOUS
10
39.986697999999997
20
-52.5191759999999945
11
40.0049999999999955
21
-52.7049999999999983
0
LINE
8
BLACK
6
CONTINUOUS
10
40.0049999999999955
20
-52.7049999999999983
11
39.986697999999997
21
-52.890823999999995
0
LINE
8
BLACK
6
CONTINUOUS
10
39.986697999999997
20
-52.890823999999995
11
39.9324949999999959
21
-53.069505999999997
0
LINE
8
BLACK
6
CONTINUOUS
10
39.9324949999999959
20
-53.069505999999997
11
39.8444749999999956
21
-53.2341809999999995
0
LINE
8
BLACK
6
CONTINUOUS
10
39.8444749999999956
20
-53.2341809999999995
11
39.7260190000000009
21
-53.3785189999999972
0
LINE
8
BLACK
6
CONTINUOUS
10
39.7260190000000009
20
-53.3785189999999972
11
39.5816809999999961
21
-53.4969749999999991
0
LINE
8
BLACK
6
CONTINUOUS
10
39.5816809999999961
20
-53.4969749999999991
11
39.4170060000000007
21
-53.5849949999999993
0
LINE
8
BLACK
6
CONTINUOUS
10
39.4170060000000007
20
-53.5849949999999993
11
39.2383239999999986
21
-53.6391980000000004
0
LINE
8
BLACK
6
CONTINUOUS
10
39.2383239999999986
20
-53.6391980000000004
11
39.0524999999999949
21
-53.6574999999999989
0
LINE
8
BLACK
6
CONTINUOUS
10
39.0524999999999949
20
-53.6574999999999989
11
38.8666759999999982
21
-53.6391980000000004
0
LINE
8
BLACK
6
CONTINUOUS
10
38.8666759999999982
20
-53.6391980000000004
11
38.6879939999999962
21
-53.5849949999999993
0
LINE
8
BLACK
6
CONTINUOUS
10
38.6879939999999962
20
-53.5849949999999993
11
38.5233190000000008
21
-53.4969749999999991
0
LINE
8
BLACK
6
CONTINUOUS
10
38.5233190000000008
20
-53.4969749999999991
11
38.378980999999996
21
-53.3785189999999972
0
LINE
8
BLACK
6
CONTINUOUS
10
38.378980999999996
20
-53.3785189999999972
11
38.2605250000000012
21
-53.2341809999999995
0
LINE
8
BLACK
6
CONTINUOUS
10
38.2605250000000012
20
-53.2341809999999995
11
38.172505000000001
21
-53.069505999999997
0
LINE
8
BLACK
6
CONTINUOUS
10
38.172505000000001
20
-53.069505999999997
11
38.1183019999999999
21
-52.890823999999995
0
LINE
8
BLACK
6
CONTINUOUS
10
38.1183019999999999
20
-52.890823999999995
11
38.1000000000000014
21
-52.7049999999999983
0
LINE
8
BLACK
6
CONTINUOUS
10
38.1000000000000014
20
-52.7049999999999983
11
38.1183019999999999
21
-52.5191759999999945
0
LINE
8
BLACK
6
CONTINUOUS
10
38.1183019999999999
20
-52.5191759999999945
11
38.172505000000001
21
-52.3404939999999996
0
LINE
8
BLACK
6
CONTINUOUS
10
38.172505000000001
20
-52.3404939999999996
11
38.2605250000000012
21
-52.1758189999999971
0
LINE
8
BLACK
6
CONTINUOUS
10
38.2605250000000012
20
-52.1758189999999971
11
38.378980999999996
21
-52.0314809999999994
0
LINE
8
BLACK
6
CONTINUOUS
10
38.378980999999996
20
-52.0314809999999994
11
38.5233190000000008
21
-51.9130249999999975
0
LINE
8
BLACK
6
CONTINUOUS
10
38.5233190000000008
20
-51.9130249999999975
11
38.6879939999999962
21
-51.8250049999999973
0
LINE
8
BLACK
6
CONTINUOUS
10
38.6879939999999962
20
-51.8250049999999973
11
38.8666759999999982
21
-51.7708019999999962
0
LINE
8
BLACK
6
CONTINUOUS
10
38.8666759999999982
20
-51.7708019999999962
11
39.0524999999999949
21
-51.7524999999999977
0
LINE
8
BLACK
6
CONTINUOUS
10
39.0524999999999949
20
-51.7524999999999977
11
39.2383239999999986
21
-51.7708019999999962
0
LINE
8
BLACK
6
CONTINUOUS
10
44.3183229999999995
20
-51.7708019999999962
11
44.4970050000000015
21
-51.8250049999999973
0
LINE
8
BLACK
6
CONTINUOUS
10
44.4970050000000015
20
-51.8250049999999973
11
44.6616799999999969
21
-51.9130249999999975
0
LINE
8
BLACK
6
CONTINUOUS
10
44.6616799999999969
20
-51.9130249999999975
11
44.8060179999999946
21
-52.0314809999999994
0
LINE
8
BLACK
6
CONTINUOUS
10
44.8060179999999946
20
-52.0314809999999994
11
44.9244739999999965
21
-52.1758189999999971
0
LINE
8
BLACK
6
CONTINUOUS
10
44.9244739999999965
20
-52.1758189999999971
11
45.0124939999999967
21
-52.3404939999999996
0
LINE
8
BLACK
6
CONTINUOUS
10
45.0124939999999967
20
-52.3404939999999996
11
45.0666969999999978
21
-52.5191759999999945
0
LINE
8
BLACK
6
CONTINUOUS
10
45.0666969999999978
20
-52.5191759999999945
11
45.0849989999999963
21
-52.7049999999999983
0
LINE
8
BLACK
6
CONTINUOUS
10
45.0849989999999963
20
-52.7049999999999983
11
45.0666969999999978
21
-52.890823999999995
0
LINE
8
BLACK
6
CONTINUOUS
10
45.0666969999999978
20
-52.890823999999995
11
45.0124939999999967
21
-53.069505999999997
0
LINE
8
BLACK
6
CONTINUOUS
10
45.0124939999999967
20
-53.069505999999997
11
44.9244739999999965
21
-53.2341809999999995
0
LINE
8
BLACK
6
CONTINUOUS
10
44.9244739999999965
20
-53.2341809999999995
11
44.8060179999999946
21
-53.3785189999999972
0
LINE
8
BLACK
6
CONTINUOUS
10
44.8060179999999946
20
-53.3785189999999972
11
44.6616799999999969
21
-53.4969749999999991
0
LINE
8
BLACK
6
CONTINUOUS
10
44.6616799999999969
20
-53.4969749999999991
11
44.4970050000000015
21
-53.5849949999999993
0
LINE
8
BLACK
6
CONTINUOUS
10
44.4970050000000015
20
-53.5849949999999993
11
44.3183229999999995
21
-53.6391980000000004
0
LINE
8
BLACK
6
CONTINUOUS
10
44.3183229999999995
20
-53.6391980000000004
11
44.1324989999999957
21
-53.6574999999999989
0
LINE
8
BLACK
6
CONTINUOUS
10
44.1324989999999957
20
-53.6574999999999989
11
43.946674999999999
21
-53.6391980000000004
0
LINE
8
BLACK
6
CONTINUOUS
10
43.946674999999999
20
-53.6391980000000004
11
43.767992999999997
21
-53.5849949999999993
0
LINE
8
BLACK
6
CONTINUOUS
10
43.767992999999997
20
-53.5849949999999993
11
43.6033180000000016
21
-53.4969749999999991
0
LINE
8
BLACK
6
CONTINUOUS
10
43.6033180000000016
20
-53.4969749999999991
11
43.4589799999999968
21
-53.3785189999999972
0
LINE
8
BLACK
6
CONTINUOUS
10
43.4589799999999968
20
-53.3785189999999972
11
43.3405239999999949
21
-53.2341809999999995
0
LINE
8
BLACK
6
CONTINUOUS
10
43.3405239999999949
20
-53.2341809999999995
11
43.2525039999999947
21
-53.069505999999997
0
LINE
8
BLACK
6
CONTINUOUS
10
43.2525039999999947
20
-53.069505999999997
11
43.1983010000000007
21
-52.890823999999995
0
LINE
8
BLACK
6
CONTINUOUS
10
43.1983010000000007
20
-52.890823999999995
11
43.1799989999999951
21
-52.7049999999999983
0
LINE
8
BLACK
6
CONTINUOUS
10
43.1799989999999951
20
-52.7049999999999983
11
43.1983010000000007
21
-52.5191759999999945
0
LINE
8
BLACK
6
CONTINUOUS
10
43.1983010000000007
20
-52.5191759999999945
11
43.2525039999999947
21
-52.3404939999999996
0
LINE
8
BLACK
6
CONTINUOUS
10
43.2525039999999947
20
-52.3404939999999996
11
43.3405239999999949
21
-52.1758189999999971
0
LINE
8
BLACK
6
CONTINUOUS
10
43.3405239999999949
20
-52.1758189999999971
11
43.4589799999999968
21
-52.0314809999999994
0
LINE
8
BLACK
6
CONTINUOUS
10
43.4589799999999968
20
-52.0314809999999994
11
43.6033180000000016
21
-51.9130249999999975
0
LINE
8
BLACK
6
CONTINUOUS
10
43.6033180000000016
20
-51.9130249999999975
11
43.767992999999997
21
-51.8250049999999973
0
LINE
8
BLACK
6
CONTINUOUS
10
43.767992999999997
20
-51.8250049999999973
11
43.946674999999999
21
-51.7708019999999962
0
LINE
8
BLACK
6
CONTINUOUS
10
43.946674999999999
20
-51.7708019999999962
11
44.1324989999999957
21
-51.7524999999999977
0
LINE
8
BLACK
6
CONTINUOUS
10
44.1324989999999957
20
-51.7524999999999977
11
44.3183229999999995
21
-51.7708019999999962
0
LINE
8
BLACK
6
CONTINUOUS
10
46.8583239999999961
20
-51.7708019999999962
11
47.0370059999999981
21
-51.8250049999999973
0
LINE
8
BLACK
6
CONTINUOUS
10
47.0370059999999981
20
-51.8250049999999973
11
47.2016810000000007
21
-51.9130249999999975
0
LINE
8
BLACK
6
CONTINUOUS
10
47.2016810000000007
20
-51.9130249999999975
11
47.3460189999999983
21
-52.0314809999999994
0
LINE
8
BLACK
6
CONTINUOUS
10
47.3460189999999983
20
-52.0314809999999994
11
47.4644750000000002
21
-52.1758189999999971
0
LINE
8
BLACK
6
CONTINUOUS
10
47.4644750000000002
20
-52.1758189999999971
11
47.5524950000000004
21
-52.3404939999999996
0
LINE
8
BLACK
6
CONTINUOUS
10
47.5524950000000004
20
-52.3404939999999996
11
47.6066979999999944
21
-52.5191759999999945
0
LINE
8
BLACK
6
CONTINUOUS
10
47.6066979999999944
20
-52.5191759999999945
11
47.625
21
-52.7049999999999983
0
LINE
8
BLACK
6
CONTINUOUS
10
47.625
20
-52.7049999999999983
11
47.6066979999999944
21
-52.890823999999995
0
LINE
8
BLACK
6
CONTINUOUS
10
47.6066979999999944
20
-52.890823999999995
11
47.5524950000000004
21
-53.069505999999997
0
LINE
8
BLACK
6
CONTINUOUS
10
47.5524950000000004
20
-53.069505999999997
11
47.4644750000000002
21
-53.2341809999999995
0
LINE
8
BLACK
6
CONTINUOUS
10
47.4644750000000002
20
-53.2341809999999995
11
47.3460189999999983
21
-53.3785189999999972
0
LINE
8
BLACK
6
CONTINUOUS
10
47.3460189999999983
20
-53.3785189999999972
11
47.2016810000000007
21
-53.4969749999999991
0
LINE
8
BLACK
6
CONTINUOUS
10
47.2016810000000007
20
-53.4969749999999991
11
47.0370059999999981
21
-53.5849949999999993
0
LINE
8
BLACK
6
CONTINUOUS
10
47.0370059999999981
20
-53.5849949999999993
11
46.8583239999999961
21
-53.6391980000000004
0
LINE
8
BLACK
6
CONTINUOUS
10
46.8583239999999961
20
-53.6391980000000004
11
46.6724999999999994
21
-53.6574999999999989
0
LINE
8
BLACK
6
CONTINUOUS
10
46.6724999999999994
20
-53.6574999999999989
11
46.4866759999999957
21
-53.6391980000000004
0
LINE
8
BLACK
6
CONTINUOUS
10
46.4866759999999957
20
-53.6391980000000004
11
46.3079940000000008
21
-53.5849949999999993
0
LINE
8
BLACK
6
CONTINUOUS
10
46.3079940000000008
20
-53.5849949999999993
11
46.1433189999999982
21
-53.4969749999999991
0
LINE
8
BLACK
6
CONTINUOUS
10
46.1433189999999982
20
-53.4969749999999991
11
45.9989810000000006
21
-53.3785189999999972
0
LINE
8
BLACK
6
CONTINUOUS
10
45.9989810000000006
20
-53.3785189999999972
11
45.8805249999999987
21
-53.2341809999999995
0
LINE
8
BLACK
6
CONTINUOUS
10
45.8805249999999987
20
-53.2341809999999995
11
45.7925049999999985
21
-53.069505999999997
0
LINE
8
BLACK
6
CONTINUOUS
10
45.7925049999999985
20
-53.069505999999997
11
45.7383019999999973
21
-52.890823999999995
0
LINE
8
BLACK
6
CONTINUOUS
10
45.7383019999999973
20
-52.890823999999995
11
45.7199999999999989
21
-52.7049999999999983
0
LINE
8
BLACK
6
CONTINUOUS
10
45.7199999999999989
20
-52.7049999999999983
11
45.7383019999999973
21
-52.5191759999999945
0
LINE
8
BLACK
6
CONTINUOUS
10
45.7383019999999973
20
-52.5191759999999945
11
45.7925049999999985
21
-52.3404939999999996
0
LINE
8
BLACK
6
CONTINUOUS
10
45.7925049999999985
20
-52.3404939999999996
11
45.8805249999999987
21
-52.1758189999999971
0
LINE
8
BLACK
6
CONTINUOUS
10
45.8805249999999987
20
-52.1758189999999971
11
45.9989810000000006
21
-52.0314809999999994
0
LINE
8
BLACK
6
CONTINUOUS
10
45.9989810000000006
20
-52.0314809999999994
11
46.1433189999999982
21
-51.9130249999999975
0
LINE
8
BLACK
6
CONTINUOUS
10
46.1433189999999982
20
-51.9130249999999975
11
46.3079940000000008
21
-51.8250049999999973
0
LINE
8
BLACK
6
CONTINUOUS
10
46.3079940000000008
20
-51.8250049999999973
11
46.4866759999999957
21
-51.7708019999999962
0
LINE
8
BLACK
6
CONTINUOUS
10
46.4866759999999957
20
-51.7708019999999962
11
46.6724999999999994
21
-51.7524999999999977
0
LINE
8
BLACK
6
CONTINUOUS
10
46.6724999999999994
20
-51.7524999999999977
11
46.8583239999999961
21
-51.7708019999999962
0
LINE
8
BLACK
6
CONTINUOUS
10
54.4783240000000006
20
-51.7708019999999962
11
54.6570059999999955
21
-51.8250049999999973
0
LINE
8
BLACK
6
CONTINUOUS
10
54.6570059999999955
20
-51.8250049999999973
11
54.8216809999999981
21
-51.9130249999999975
0
LINE
8
BLACK
6
CONTINUOUS
10
54.8216809999999981
20
-51.9130249999999975
11
54.9660189999999957
21
-52.0314809999999994
0
LINE
8
BLACK
6
CONTINUOUS
10
54.9660189999999957
20
-52.0314809999999994
11
55.0844749999999976
21
-52.1758189999999971
0
LINE
8
BLACK
6
CONTINUOUS
10
55.0844749999999976
20
-52.1758189999999971
11
55.1724949999999978
21
-52.3404939999999996
0
LINE
8
BLACK
6
CONTINUOUS
10
55.1724949999999978
20
-52.3404939999999996
11
55.226697999999999
21
-52.5191759999999945
0
LINE
8
BLACK
6
CONTINUOUS
10
55.226697999999999
20
-52.5191759999999945
11
55.2449999999999974
21
-52.7049999999999983
0
LINE
8
BLACK
6
CONTINUOUS
10
55.2449999999999974
20
-52.7049999999999983
11
55.226697999999999
21
-52.890823999999995
0
LINE
8
BLACK
6
CONTINUOUS
10
55.226697999999999
20
-52.890823999999995
11
55.1724949999999978
21
-53.069505999999997
0
LINE
8
BLACK
6
CONTINUOUS
10
55.1724949999999978
20
-53.069505999999997
11
55.0844749999999976
21
-53.2341809999999995
0
LINE
8
BLACK
6
CONTINUOUS
10
55.0844749999999976
20
-53.2341809999999995
11
54.9660189999999957
21
-53.3785189999999972
0
LINE
8
BLACK
6
CONTINUOUS
10
54.9660189999999957
20
-53.3785189999999972
11
54.8216809999999981
21
-53.4969749999999991
0
LINE
8
BLACK
6
CONTINUOUS
10
54.8216809999999981
20
-53.4969749999999991
11
54.6570059999999955
21
-53.5849949999999993
0
LINE
8
BLACK
6
CONTINUOUS
10
54.6570059999999955
20
-53.5849949999999993
11
54.4783240000000006
21
-53.6391980000000004
0
LINE
8
BLACK
6
CONTINUOUS
10
54.4783240000000006
20
-53.6391980000000004
11
54.2924999999999969
21
-53.6574999999999989
0
LINE
8
BLACK
6
CONTINUOUS
10
54.2924999999999969
20
-53.6574999999999989
11
54.1066760000000002
21
-53.6391980000000004
0
LINE
8
BLACK
6
CONTINUOUS
10
54.1066760000000002
20
-53.6391980000000004
11
53.9279939999999982
21
-53.5849949999999993
0
LINE
8
BLACK
6
CONTINUOUS
10
53.9279939999999982
20
-53.5849949999999993
11
53.7633189999999956
21
-53.4969749999999991
0
LINE
8
BLACK
6
CONTINUOUS
10
53.7633189999999956
20
-53.4969749999999991
11
53.618980999999998
21
-53.3785189999999972
0
LINE
8
BLACK
6
CONTINUOUS
10
53.618980999999998
20
-53.3785189999999972
11
53.5005249999999961
21
-53.2341809999999995
0
LINE
8
BLACK
6
CONTINUOUS
10
53.5005249999999961
20
-53.2341809999999995
11
53.4125049999999959
21
-53.069505999999997
0
LINE
8
BLACK
6
CONTINUOUS
10
53.4125049999999959
20
-53.069505999999997
11
53.3583019999999948
21
-52.890823999999995
0
LINE
8
BLACK
6
CONTINUOUS
10
53.3583019999999948
20
-52.890823999999995
11
53.3399999999999963
21
-52.7049999999999983
0
LINE
8
BLACK
6
CONTINUOUS
10
53.3399999999999963
20
-52.7049999999999983
11
53.3583019999999948
21
-52.5191759999999945
0
LINE
8
BLACK
6
CONTINUOUS
10
53.3583019999999948
20
-52.5191759999999945
11
53.4125049999999959
21
-52.3404939999999996
0
LINE
8
BLACK
6
CONTINUOUS
10
53.4125049999999959
20
-52.3404939999999996
11
53.5005249999999961
21
-52.1758189999999971
0
LINE
8
BLACK
6
CONTINUOUS
10
53.5005249999999961
20
-52.1758189999999971
11
53.618980999999998
21
-52.0314809999999994
0
LINE
8
BLACK
6
CONTINUOUS
10
53.618980999999998
20
-52.0314809999999994
11
53.7633189999999956
21
-51.9130249999999975
0
LINE
8
BLACK
6
CONTINUOUS
10
53.7633189999999956
20
-51.9130249999999975
11
53.9279939999999982
21
-51.8250049999999973
0
LINE
8
BLACK
6
CONTINUOUS
10
53.9279939999999982
20
-51.8250049999999973
11
54.1066760000000002
21
-51.7708019999999962
0
LINE
8
BLACK
6
CONTINUOUS
10
54.1066760000000002
20
-51.7708019999999962
11
54.2924999999999969
21
-51.7524999999999977
0
LINE
8
BLACK
6
CONTINUOUS
10
54.2924999999999969
20
-51.7524999999999977
11
54.4783240000000006
21
-51.7708019999999962
0
LINE
8
BLACK
6
CONTINUOUS
10
39.2383239999999986
20
-49.2308019999999971
11
39.4170060000000007
21
-49.2850049999999982
0
LINE
8
BLACK
6
CONTINUOUS
10
39.4170060000000007
20
-49.2850049999999982
11
39.5816809999999961
21
-49.3730249999999984
0
LINE
8
BLACK
6
CONTINUOUS
10
39.5816809999999961
20
-49.3730249999999984
11
39.7260190000000009
21
-49.4914810000000003
0
LINE
8
BLACK
6
CONTINUOUS
10
39.7260190000000009
20
-49.4914810000000003
11
39.8444749999999956
21
-49.6358189999999979
0
LINE
8
BLACK
6
CONTINUOUS
10
39.8444749999999956
20
-49.6358189999999979
11
39.9324949999999959
21
-49.8004940000000005
0
LINE
8
BLACK
6
CONTINUOUS
10
39.9324949999999959
20
-49.8004940000000005
11
39.986697999999997
21
-49.9791759999999954
0
LINE
8
BLACK
6
CONTINUOUS
10
39.986697999999997
20
-49.9791759999999954
11
40.0049999999999955
21
-50.1649999999999991
0
LINE
8
BLACK
6
CONTINUOUS
10
40.0049999999999955
20
-50.1649999999999991
11
39.986697999999997
21
-50.3508239999999958
0
LINE
8
BLACK
6
CONTINUOUS
10
39.986697999999997
20
-50.3508239999999958
11
39.9324949999999959
21
-50.5295059999999978
0
LINE
8
BLACK
6
CONTINUOUS
10
39.9324949999999959
20
-50.5295059999999978
11
39.8444749999999956
21
-50.6941810000000004
0
LINE
8
BLACK
6
CONTINUOUS
10
39.8444749999999956
20
-50.6941810000000004
11
39.7260190000000009
21
-50.838518999999998
0
LINE
8
BLACK
6
CONTINUOUS
10
39.7260190000000009
20
-50.838518999999998
11
39.5816809999999961
21
-50.9569749999999999
0
LINE
8
BLACK
6
CONTINUOUS
10
39.5816809999999961
20
-50.9569749999999999
11
39.4170060000000007
21
-51.0449950000000001
0
LINE
8
BLACK
6
CONTINUOUS
10
39.4170060000000007
20
-51.0449950000000001
11
39.2383239999999986
21
-51.0991980000000012
0
LINE
8
BLACK
6
CONTINUOUS
10
39.2383239999999986
20
-51.0991980000000012
11
39.0524999999999949
21
-51.1174999999999997
0
LINE
8
BLACK
6
CONTINUOUS
10
39.0524999999999949
20
-51.1174999999999997
11
38.8666759999999982
21
-51.0991980000000012
0
LINE
8
BLACK
6
CONTINUOUS
10
38.8666759999999982
20
-51.0991980000000012
11
38.6879939999999962
21
-51.0449950000000001
0
LINE
8
BLACK
6
CONTINUOUS
10
38.6879939999999962
20
-51.0449950000000001
11
38.5233190000000008
21
-50.9569749999999999
0
LINE
8
BLACK
6
CONTINUOUS
10
38.5233190000000008
20
-50.9569749999999999
11
38.378980999999996
21
-50.838518999999998
0
LINE
8
BLACK
6
CONTINUOUS
10
38.378980999999996
20
-50.838518999999998
11
38.2605250000000012
21
-50.6941810000000004
0
LINE
8
BLACK
6
CONTINUOUS
10
38.2605250000000012
20
-50.6941810000000004
11
38.172505000000001
21
-50.5295059999999978
0
LINE
8
BLACK
6
CONTINUOUS
10
38.172505000000001
20
-50.5295059999999978
11
38.1183019999999999
21
-50.3508239999999958
0
LINE
8
BLACK
6
CONTINUOUS
10
38.1183019999999999
20
-50.3508239999999958
11
38.1000000000000014
21
-50.1649999999999991
0
LINE
8
BLACK
6
CONTINUOUS
10
38.1000000000000014
20
-50.1649999999999991
11
38.1183019999999999
21
-49.9791759999999954
0
LINE
8
BLACK
6
CONTINUOUS
10
38.1183019999999999
20
-49.9791759999999954
11
38.172505000000001
21
-49.8004940000000005
0
LINE
8
BLACK
6
CONTINUOUS
10
38.172505000000001
20
-49.8004940000000005
11
38.2605250000000012
21
-49.6358189999999979
0
LINE
8
BLACK
6
CONTINUOUS
10
38.2605250000000012
20
-49.6358189999999979
11
38.378980999999996
21
-49.4914810000000003
0
LINE
8
BLACK
6
CONTINUOUS
10
38.378980999999996
20
-49.4914810000000003
11
38.5233190000000008
21
-49.3730249999999984
0
LINE
8
BLACK
6
CONTINUOUS
10
38.5233190000000008
20
-49.3730249999999984
11
38.6879939999999962
21
-49.2850049999999982
0
LINE
8
BLACK
6
CONTINUOUS
10
38.6879939999999962
20
-49.2850049999999982
11
38.8666759999999982
21
-49.2308019999999971
0
LINE
8
BLACK
6
CONTINUOUS
10
38.8666759999999982
20
-49.2308019999999971
11
39.0524999999999949
21
-49.2124999999999986
0
LINE
8
BLACK
6
CONTINUOUS
10
39.0524999999999949
20
-49.2124999999999986
11
39.2383239999999986
21
-49.2308019999999971
0
LINE
8
BLACK
6
CONTINUOUS
10
44.3183229999999995
20
-49.2308019999999971
11
44.4970050000000015
21
-49.2850049999999982
0
LINE
8
BLACK
6
CONTINUOUS
10
44.4970050000000015
20
-49.2850049999999982
11
44.6616799999999969
21
-49.3730249999999984
0
LINE
8
BLACK
6
CONTINUOUS
10
44.6616799999999969
20
-49.3730249999999984
11
44.8060179999999946
21
-49.4914810000000003
0
LINE
8
BLACK
6
CONTINUOUS
10
44.8060179999999946
20
-49.4914810000000003
11
44.9244739999999965
21
-49.6358189999999979
0
LINE
8
BLACK
6
CONTINUOUS
10
44.9244739999999965
20
-49.6358189999999979
11
45.0124939999999967
21
-49.8004940000000005
0
LINE
8
BLACK
6
CONTINUOUS
10
45.0124939999999967
20
-49.8004940000000005
11
45.0666969999999978
21
-49.9791759999999954
0
LINE
8
BLACK
6
CONTINUOUS
10
45.0666969999999978
20
-49.9791759999999954
11
45.0849989999999963
21
-50.1649999999999991
0
LINE
8
BLACK
6
CONTINUOUS
10
45.0849989999999963
20
-50.1649999999999991
11
45.0666969999999978
21
-50.3508239999999958
0
LINE
8
BLACK
6
CONTINUOUS
10
45.0666969999999978
20
-50.3508239999999958
11
45.0124939999999967
21
-50.5295059999999978
0
LINE
8
BLACK
6
CONTINUOUS
10
45.0124939999999967
20
-50.5295059999999978
11
44.9244739999999965
21
-50.6941810000000004
0
LINE
8
BLACK
6
CONTINUOUS
10
44.9244739999999965
20
-50.6941810000000004
11
44.8060179999999946
21
-50.838518999999998
0
LINE
8
BLACK
6
CONTINUOUS
10
44.8060179999999946
20
-50.838518999999998
11
44.6616799999999969
21
-50.9569749999999999
0
LINE
8
BLACK
6
CONTINUOUS
10
44.6616799999999969
20
-50.9569749999999999
11
44.4970050000000015
21
-51.0449950000000001
0
LINE
8
BLACK
6
CONTINUOUS
10
44.4970050000000015
20
-51.0449950000000001
11
44.3183229999999995
21
-51.0991980000000012
0
LINE
8
BLACK
6
CONTINUOUS
10
44.3183229999999995
20
-51.0991980000000012
11
44.1324989999999957
21
-51.1174999999999997
0
LINE
8
BLACK
6
CONTINUOUS
10
44.1324989999999957
20
-51.1174999999999997
11
43.946674999999999
21
-51.0991980000000012
0
LINE
8
BLACK
6
CONTINUOUS
10
43.946674999999999
20
-51.0991980000000012
11
43.767992999999997
21
-51.0449950000000001
0
LINE
8
BLACK
6
CONTINUOUS
10
43.767992999999997
20
-51.0449950000000001
11
43.6033180000000016
21
-50.9569749999999999
0
LINE
8
BLACK
6
CONTINUOUS
10
43.6033180000000016
20
-50.9569749999999999
11
43.4589799999999968
21
-50.838518999999998
0
LINE
8
BLACK
6
CONTINUOUS
10
43.4589799999999968
20
-50.838518999999998
11
43.3405239999999949
21
-50.6941810000000004
0
LINE
8
BLACK
6
CONTINUOUS
10
43.3405239999999949
20
-50.6941810000000004
11
43.2525039999999947
21
-50.5295059999999978
0
LINE
8
BLACK
6
CONTINUOUS
10
43.2525039999999947
20
-50.5295059999999978
11
43.1983010000000007
21
-50.3508239999999958
0
LINE
8
BLACK
6
CONTINUOUS
10
43.1983010000000007
20
-50.3508239999999958
11
43.1799989999999951
21
-50.1649999999999991
0
LINE
8
BLACK
6
CONTINUOUS
10
43.1799989999999951
20
-50.1649999999999991
11
43.1983010000000007
21
-49.9791759999999954
0
LINE
8
BLACK
6
CONTINUOUS
10
43.1983010000000007
20
-49.9791759999999954
11
43.2525039999999947
21
-49.8004940000000005
0
LINE
8
BLACK
6
CONTINUOUS
10
43.2525039999999947
20
-49.8004940000000005
11
43.3405239999999949
21
-49.6358189999999979
0
LINE
8
BLACK
6
CONTINUOUS
10
43.3405239999999949
20
-49.6358189999999979
11
43.4589799999999968
21
-49.4914810000000003
0
LINE
8
BLACK
6
CONTINUOUS
10
43.4589799999999968
20
-49.4914810000000003
11
43.6033180000000016
21
-49.3730249999999984
0
LINE
8
BLACK
6
CONTINUOUS
10
43.6033180000000016
20
-49.3730249999999984
11
43.767992999999997
21
-49.2850049999999982
0
LINE
8
BLACK
6
CONTINUOUS
10
43.767992999999997
20
-49.2850049999999982
11
43.946674999999999
21
-49.2308019999999971
0
LINE
8
BLACK
6
CONTINUOUS
10
43.946674999999999
20
-49.2308019999999971
11
44.1324989999999957
21
-49.2124999999999986
0
LINE
8
BLACK
6
CONTINUOUS
10
44.1324989999999957
20
-49.2124999999999986
11
44.3183229999999995
21
-49.2308019999999971
0
LINE
8
BLACK
6
CONTINUOUS
10
46.8583239999999961
20
-49.2308019999999971
11
47.0370059999999981
21
-49.2850049999999982
0
LINE
8
BLACK
6
CONTINUOUS
10
47.0370059999999981
20
-49.2850049999999982
11
47.2016810000000007
21
-49.3730249999999984
0
LINE
8
BLACK
6
CONTINUOUS
10
47.2016810000000007
20
-49.3730249999999984
11
47.3460189999999983
21
-49.4914810000000003
0
LINE
8
BLACK
6
CONTINUOUS
10
47.3460189999999983
20
-49.4914810000000003
11
47.4644750000000002
21
-49.6358189999999979
0
LINE
8
BLACK
6
CONTINUOUS
10
47.4644750000000002
20
-49.6358189999999979
11
47.5524950000000004
21
-49.8004940000000005
0
LINE
8
BLACK
6
CONTINUOUS
10
47.5524950000000004
20
-49.8004940000000005
11
47.6066979999999944
21
-49.9791759999999954
0
LINE
8
BLACK
6
CONTINUOUS
10
47.6066979999999944
20
-49.9791759999999954
11
47.625
21
-50.1649999999999991
0
LINE
8
BLACK
6
CONTINUOUS
10
47.625
20
-50.1649999999999991
11
47.6066979999999944
21
-50.3508239999999958
0
LINE
8
BLACK
6
CONTINUOUS
10
47.6066979999999944
20
-50.3508239999999958
11
47.5524950000000004
21
-50.5295059999999978
0
LINE
8
BLACK
6
CONTINUOUS
10
47.5524950000000004
20
-50.5295059999999978
11
47.4644750000000002
21
-50.6941810000000004
0
LINE
8
BLACK
6
CONTINUOUS
10
47.4644750000000002
20
-50.6941810000000004
11
47.3460189999999983
21
-50.838518999999998
0
LINE
8
BLACK
6
CONTINUOUS
10
47.3460189999999983
20
-50.838518999999998
11
47.2016810000000007
21
-50.9569749999999999
0
LINE
8
BLACK
6
CONTINUOUS
10
47.2016810000000007
20
-50.9569749999999999
11
47.0370059999999981
21
-51.0449950000000001
0
LINE
8
BLACK
6
CONTINUOUS
10
47.0370059999999981
20
-51.0449950000000001
11
46.8583239999999961
21
-51.0991980000000012
0
LINE
8
BLACK
6
CONTINUOUS
10
46.8583239999999961
20
-51.0991980000000012
11
46.6724999999999994
21
-51.1174999999999997
0
LINE
8
BLACK
6
CONTINUOUS
10
46.6724999999999994
20
-51.1174999999999997
11
46.4866759999999957
21
-51.0991980000000012
0
LINE
8
BLACK
6
CONTINUOUS
10
46.4866759999999957
20
-51.0991980000000012
11
46.3079940000000008
21
-51.0449950000000001
0
LINE
8
BLACK
6
CONTINUOUS
10
46.3079940000000008
20
-51.0449950000000001
11
46.1433189999999982
21
-50.9569749999999999
0
LINE
8
BLACK
6
CONTINUOUS
10
46.1433189999999982
20
-50.9569749999999999
11
45.9989810000000006
21
-50.838518999999998
0
LINE
8
BLACK
6
CONTINUOUS
10
45.9989810000000006
20
-50.838518999999998
11
45.8805249999999987
21
-50.6941810000000004
0
LINE
8
BLACK
6
CONTINUOUS
10
45.8805249999999987
20
-50.6941810000000004
11
45.7925049999999985
21
-50.5295059999999978
0
LINE
8
BLACK
6
CONTINUOUS
10
45.7925049999999985
20
-50.5295059999999978
11
45.7383019999999973
21
-50.3508239999999958
0
LINE
8
BLACK
6
CONTINUOUS
10
45.7383019999999973
20
-50.3508239999999958
11
45.7199999999999989
21
-50.1649999999999991
0
LINE
8
BLACK
6
CONTINUOUS
10
45.7199999999999989
20
-50.1649999999999991
11
45.7383019999999973
21
-49.9791759999999954
0
LINE
8
BLACK
6
CONTINUOUS
10
45.7383019999999973
20
-49.9791759999999954
11
45.7925049999999985
21
-49.8004940000000005
0
LINE
8
BLACK
6
CONTINUOUS
10
45.7925049999999985
20
-49.8004940000000005
11
45.8805249999999987
21
-49.6358189999999979
0
LINE
8
BLACK
6
CONTINUOUS
10
45.8805249999999987
20
-49.6358189999999979
11
45.9989810000000006
21
-49.4914810000000003
0
LINE
8
BLACK
6
CONTINUOUS
10
45.9989810000000006
20
-49.4914810000000003
11
46.1433189999999982
21
-49.3730249999999984
0
LINE
8
BLACK
6
CONTINUOUS
10
46.1433189999999982
20
-49.3730249999999984
11
46.3079940000000008
21
-49.2850049999999982
0
LINE
8
BLACK
6
CONTINUOUS
10
46.3079940000000008
20
-49.2850049999999982
11
46.4866759999999957
21
-49.2308019999999971
0
LINE
8
BLACK
6
CONTINUOUS
10
46.4866759999999957
20
-49.2308019999999971
11
46.6724999999999994
21
-49.2124999999999986
0
LINE
8
BLACK
6
CONTINUOUS
10
46.6724999999999994
20
-49.2124999999999986
11
46.8583239999999961
21
-49.2308019999999971
0
LINE
8
BLACK
6
CONTINUOUS
10
54.4783240000000006
20
-49.2308019999999971
11
54.6570059999999955
21
-49.2850049999999982
0
LINE
8
BLACK
6
CONTINUOUS
10
54.6570059999999955
20
-49.2850049999999982
11
54.8216809999999981
21
-49.3730249999999984
0
LINE
8
BLACK
6
CONTINUOUS
10
54.8216809999999981
20
-49.3730249999999984
11
54.9660189999999957
21
-49.4914810000000003
0
LINE
8
BLACK
6
CONTINUOUS
10
54.9660189999999957
20
-49.4914810000000003
11
55.0844749999999976
21
-49.6358189999999979
0
LINE
8
BLACK
6
CONTINUOUS
10
55.0844749999999976
20
-49.6358189999999979
11
55.1724949999999978
21
-49.8004940000000005
0
LINE
8
BLACK
6
CONTINUOUS
10
55.1724949999999978
20
-49.8004940000000005
11
55.226697999999999
21
-49.9791759999999954
0
LINE
8
BLACK
6
CONTINUOUS
10
55.226697999999999
20
-49.9791759999999954
11
55.2449999999999974
21
-50.1649999999999991
0
LINE
8
BLACK
6
CONTINUOUS
10
55.2449999999999974
20
-50.1649999999999991
11
55.226697999999999
21
-50.3508239999999958
0
LINE
8
BLACK
6
CONTINUOUS
10
55.226697999999999
20
-50.3508239999999958
11
55.1724949999999978
21
-50.5295059999999978
0
LINE
8
BLACK
6
CONTINUOUS
10
55.1724949999999978
20
-50.5295059999999978
11
55.0844749999999976
21
-50.6941810000000004
0
LINE
8
BLACK
6
CONTINUOUS
10
55.0844749999999976
20
-50.6941810000000004
11
54.9660189999999957
21
-50.838518999999998
0
LINE
8
BLACK
6
CONTINUOUS
10
54.9660189999999957
20
-50.838518999999998
11
54.8216809999999981
21
-50.9569749999999999
0
LINE
8
BLACK
6
CONTINUOUS
10
54.8216809999999981
20
-50.9569749999999999
11
54.6570059999999955
21
-51.0449950000000001
0
LINE
8
BLACK
6
CONTINUOUS
10
54.6570059999999955
20
-51.0449950000000001
11
54.4783240000000006
21
-51.0991980000000012
0
LINE
8
BLACK
6
CONTINUOUS
10
54.4783240000000006
20
-51.0991980000000012
11
54.2924999999999969
21
-51.1174999999999997
0
LINE
8
BLACK
6
CONTINUOUS
10
54.2924999999999969
20
-51.1174999999999997
11
54.1066760000000002
21
-51.0991980000000012
0
LINE
8
BLACK
6
CONTINUOUS
10
54.1066760000000002
20
-51.0991980000000012
11
53.9279939999999982
21
-51.0449950000000001
0
LINE
8
BLACK
6
CONTINUOUS
10
53.9279939999999982
20
-51.0449950000000001
11
53.7633189999999956
21
-50.9569749999999999
0
LINE
8
BLACK
6
CONTINUOUS
10
53.7633189999999956
20
-50.9569749999999999
11
53.618980999999998
21
-50.838518999999998
0
LINE
8
BLACK
6
CONTINUOUS
10
53.618980999999998
20
-50.838518999999998
11
53.5005249999999961
21
-50.6941810000000004
0
LINE
8
BLACK
6
CONTINUOUS
10
53.5005249999999961
20
-50.6941810000000004
11
53.4125049999999959
21
-50.5295059999999978
0
LINE
8
BLACK
6
CONTINUOUS
10
53.4125049999999959
20
-50.5295059999999978
11
53.3583019999999948
21
-50.3508239999999958
0
LINE
8
BLACK
6
CONTINUOUS
10
53.3583019999999948
20
-50.3508239999999958
11
53.3399999999999963
21
-50.1649999999999991
0
LINE
8
BLACK
6
CONTINUOUS
10
53.3399999999999963
20
-50.1649999999999991
11
53.3583019999999948
21
-49.9791759999999954
0
LINE
8
BLACK
6
CONTINUOUS
10
53.3583019999999948
20
-49.9791759999999954
11
53.4125049999999959
21
-49.8004940000000005
0
LINE
8
BLACK
6
CONTINUOUS
10
53.4125049999999959
20
-49.8004940000000005
11
53.5005249999999961
21
-49.6358189999999979
0
LINE
8
BLACK
6
CONTINUOUS
10
53.5005249999999961
20
-49.6358189999999979
11
53.618980999999998
21
-49.4914810000000003
0
LINE
8
BLACK
6
CONTINUOUS
10
53.618980999999998
20
-49.4914810000000003
11
53.7633189999999956
21
-49.3730249999999984
0
LINE
8
BLACK
6
CONTINUOUS
10
53.7633189999999956
20
-49.3730249999999984
11
53.9279939999999982
21
-49.2850049999999982
0
LINE
8
BLACK
6
CONTINUOUS
10
53.9279939999999982
20
-49.2850049999999982
11
54.1066760000000002
21
-49.2308019999999971
0
LINE
8
BLACK
6
CONTINUOUS
10
54.1066760000000002
20
-49.2308019999999971
11
54.2924999999999969
21
-49.2124999999999986
0
LINE
8
BLACK
6
CONTINUOUS
10
54.2924999999999969
20
-49.2124999999999986
11
54.4783240000000006
21
-49.2308019999999971
0
LINE
8
BLACK
6
CONTINUOUS
10
57.0183239999999998
20
-49.2308019999999971
11
57.1970059999999947
21
-49.2850049999999982
0
LINE
8
BLACK
6
CONTINUOUS
10
57.1970059999999947
20
-49.2850049999999982
11
57.3616809999999973
21
-49.3730249999999984
0
LINE
8
BLACK
6
CONTINUOUS
10
57.3616809999999973
20
-49.3730249999999984
11
57.5060189999999949
21
-49.4914810000000003
0
LINE
8
BLACK
6
CONTINUOUS
10
57.5060189999999949
20
-49.4914810000000003
11
57.6244749999999968
21
-49.6358189999999979
0
LINE
8
BLACK
6
CONTINUOUS
10
57.6244749999999968
20
-49.6358189999999979
11
57.712494999999997
21
-49.8004940000000005
0
LINE
8
BLACK
6
CONTINUOUS
10
57.712494999999997
20
-49.8004940000000005
11
57.7666979999999981
21
-49.9791759999999954
0
LINE
8
BLACK
6
CONTINUOUS
10
57.7666979999999981
20
-49.9791759999999954
11
57.7849999999999966
21
-50.1649999999999991
0
LINE
8
BLACK
6
CONTINUOUS
10
57.7849999999999966
20
-50.1649999999999991
11
57.7666979999999981
21
-50.3508239999999958
0
LINE
8
BLACK
6
CONTINUOUS
10
57.7666979999999981
20
-50.3508239999999958
11
57.712494999999997
21
-50.5295059999999978
0
LINE
8
BLACK
6
CONTINUOUS
10
57.712494999999997
20
-50.5295059999999978
11
57.6244749999999968
21
-50.6941810000000004
0
LINE
8
BLACK
6
CONTINUOUS
10
57.6244749999999968
20
-50.6941810000000004
11
57.5060189999999949
21
-50.838518999999998
0
LINE
8
BLACK
6
CONTINUOUS
10
57.5060189999999949
20
-50.838518999999998
11
57.3616809999999973
21
-50.9569749999999999
0
LINE
8
BLACK
6
CONTINUOUS
10
57.3616809999999973
20
-50.9569749999999999
11
57.1970059999999947
21
-51.0449950000000001
0
LINE
8
BLACK
6
CONTINUOUS
10
57.1970059999999947
20
-51.0449950000000001
11
57.0183239999999998
21
-51.0991980000000012
0
LINE
8
BLACK
6
CONTINUOUS
10
57.0183239999999998
20
-51.0991980000000012
11
56.832499999999996
21
-51.1174999999999997
0
LINE
8
BLACK
6
CONTINUOUS
10
56.832499999999996
20
-51.1174999999999997
11
56.6466759999999994
21
-51.0991980000000012
0
LINE
8
BLACK
6
CONTINUOUS
10
56.6466759999999994
20
-51.0991980000000012
11
56.4679939999999974
21
-51.0449950000000001
0
LINE
8
BLACK
6
CONTINUOUS
10
56.4679939999999974
20
-51.0449950000000001
11
56.3033189999999948
21
-50.9569749999999999
0
LINE
8
BLACK
6
CONTINUOUS
10
56.3033189999999948
20
-50.9569749999999999
11
56.1589809999999972
21
-50.838518999999998
0
LINE
8
BLACK
6
CONTINUOUS
10
56.1589809999999972
20
-50.838518999999998
11
56.0405249999999953
21
-50.6941810000000004
0
LINE
8
BLACK
6
CONTINUOUS
10
56.0405249999999953
20
-50.6941810000000004
11
55.9525049999999951
21
-50.5295059999999978
0
LINE
8
BLACK
6
CONTINUOUS
10
55.9525049999999951
20
-50.5295059999999978
11
55.8983019999999939
21
-50.3508239999999958
0
LINE
8
BLACK
6
CONTINUOUS
10
55.8983019999999939
20
-50.3508239999999958
11
55.8799999999999955
21
-50.1649999999999991
0
LINE
8
BLACK
6
CONTINUOUS
10
55.8799999999999955
20
-50.1649999999999991
11
55.8983019999999939
21
-49.9791759999999954
0
LINE
8
BLACK
6
CONTINUOUS
10
55.8983019999999939
20
-49.9791759999999954
11
55.9525049999999951
21
-49.8004940000000005
0
LINE
8
BLACK
6
CONTINUOUS
10
55.9525049999999951
20
-49.8004940000000005
11
56.0405249999999953
21
-49.6358189999999979
0
LINE
8
BLACK
6
CONTINUOUS
10
56.0405249999999953
20
-49.6358189999999979
11
56.1589809999999972
21
-49.4914810000000003
0
LINE
8
BLACK
6
CONTINUOUS
10
56.1589809999999972
20
-49.4914810000000003
11
56.3033189999999948
21
-49.3730249999999984
0
LINE
8
BLACK
6
CONTINUOUS
10
56.3033189999999948
20
-49.3730249999999984
11
56.4679939999999974
21
-49.2850049999999982
0
LINE
8
BLACK
6
CONTINUOUS
10
56.4679939999999974
20
-49.2850049999999982
11
56.6466759999999994
21
-49.2308019999999971
0
LINE
8
BLACK
6
CONTINUOUS
10
56.6466759999999994
20
-49.2308019999999971
11
56.832499999999996
21
-49.2124999999999986
0
LINE
8
BLACK
6
CONTINUOUS
10
56.832499999999996
20
-49.2124999999999986
11
57.0183239999999998
21
-49.2308019999999971
0
LINE
8
BLACK
6
CONTINUOUS
10
62.0983239999999981
20
-49.2308019999999971
11
62.2770060000000001
21
-49.2850049999999982
0
LINE
8
BLACK
6
CONTINUOUS
10
62.2770060000000001
20
-49.2850049999999982
11
62.4416809999999955
21
-49.3730249999999984
0
LINE
8
BLACK
6
CONTINUOUS
10
62.4416809999999955
20
-49.3730249999999984
11
62.5860190000000003
21
-49.4914810000000003
0
LINE
8
BLACK
6
CONTINUOUS
10
62.5860190000000003
20
-49.4914810000000003
11
62.7044749999999951
21
-49.6358189999999979
0
LINE
8
BLACK
6
CONTINUOUS
10
62.7044749999999951
20
-49.6358189999999979
11
62.7924949999999953
21
-49.8004940000000005
0
LINE
8
BLACK
6
CONTINUOUS
10
62.7924949999999953
20
-49.8004940000000005
11
62.8466979999999964
21
-49.9791759999999954
0
LINE
8
BLACK
6
CONTINUOUS
10
62.8466979999999964
20
-49.9791759999999954
11
62.8649999999999949
21
-50.1649999999999991
0
LINE
8
BLACK
6
CONTINUOUS
10
62.8649999999999949
20
-50.1649999999999991
11
62.8466979999999964
21
-50.3508239999999958
0
LINE
8
BLACK
6
CONTINUOUS
10
62.8466979999999964
20
-50.3508239999999958
11
62.7924949999999953
21
-50.5295059999999978
0
LINE
8
BLACK
6
CONTINUOUS
10
62.7924949999999953
20
-50.5295059999999978
11
62.7044749999999951
21
-50.6941810000000004
0
LINE
8
BLACK
6
CONTINUOUS
10
62.7044749999999951
20
-50.6941810000000004
11
62.5860190000000003
21
-50.838518999999998
0
LINE
8
BLACK
6
CONTINUOUS
10
62.5860190000000003
20
-50.838518999999998
11
62.4416809999999955
21
-50.9569749999999999
0
LINE
8
BLACK
6
CONTINUOUS
10
62.4416809999999955
20
-50.9569749999999999
11
62.2770060000000001
21
-51.0449950000000001
0
LINE
8
BLACK
6
CONTINUOUS
10
62.2770060000000001
20
-51.0449950000000001
11
62.0983239999999981
21
-51.0991980000000012
0
LINE
8
BLACK
6
CONTINUOUS
10
62.0983239999999981
20
-51.0991980000000012
11
61.9124999999999943
21
-51.1174999999999997
0
LINE
8
BLACK
6
CONTINUOUS
10
61.9124999999999943
20
-51.1174999999999997
11
61.7266759999999977
21
-51.0991980000000012
0
LINE
8
BLACK
6
CONTINUOUS
10
61.7266759999999977
20
-51.0991980000000012
11
61.5479939999999957
21
-51.0449950000000001
0
LINE
8
BLACK
6
CONTINUOUS
10
61.5479939999999957
20
-51.0449950000000001
11
61.3833190000000002
21
-50.9569749999999999
0
LINE
8
BLACK
6
CONTINUOUS
10
61.3833190000000002
20
-50.9569749999999999
11
61.2389809999999954
21
-50.838518999999998
0
LINE
8
BLACK
6
CONTINUOUS
10
61.2389809999999954
20
-50.838518999999998
11
61.1205250000000007
21
-50.6941810000000004
0
LINE
8
BLACK
6
CONTINUOUS
10
61.1205250000000007
20
-50.6941810000000004
11
61.0325050000000005
21
-50.5295059999999978
0
LINE
8
BLACK
6
CONTINUOUS
10
61.0325050000000005
20
-50.5295059999999978
11
60.9783019999999993
21
-50.3508239999999958
0
LINE
8
BLACK
6
CONTINUOUS
10
60.9783019999999993
20
-50.3508239999999958
11
60.9599999999999937
21
-50.1649999999999991
0
LINE
8
BLACK
6
CONTINUOUS
10
60.9599999999999937
20
-50.1649999999999991
11
60.9783019999999993
21
-49.9791759999999954
0
LINE
8
BLACK
6
CONTINUOUS
10
60.9783019999999993
20
-49.9791759999999954
11
61.0325050000000005
21
-49.8004940000000005
0
LINE
8
BLACK
6
CONTINUOUS
10
61.0325050000000005
20
-49.8004940000000005
11
61.1205250000000007
21
-49.6358189999999979
0
LINE
8
BLACK
6
CONTINUOUS
10
61.1205250000000007
20
-49.6358189999999979
11
61.2389809999999954
21
-49.4914810000000003
0
LINE
8
BLACK
6
CONTINUOUS
10
61.2389809999999954
20
-49.4914810000000003
11
61.3833190000000002
21
-49.3730249999999984
0
LINE
8
BLACK
6
CONTINUOUS
10
61.3833190000000002
20
-49.3730249999999984
11
61.5479939999999957
21
-49.2850049999999982
0
LINE
8
BLACK
6
CONTINUOUS
10
61.5479939999999957
20
-49.2850049999999982
11
61.7266759999999977
21
-49.2308019999999971
0
LINE
8
BLACK
6
CONTINUOUS
10
61.7266759999999977
20
-49.2308019999999971
11
61.9124999999999943
21
-49.2124999999999986
0
LINE
8
BLACK
6
CONTINUOUS
10
61.9124999999999943
20
-49.2124999999999986
11
62.0983239999999981
21
-49.2308019999999971
0
CIRCLE
8
BLACK
10
61.9124999999999943
20
-55.2449999999999974
40
0.3
0
CIRCLE
8
BLACK
10
56.832499999999996
20
-55.2449999999999974
40
0.3
  0
ENDSEC
  0
EOF
