  0
SECTION
  2
HEADER
  9
$ANGBASE
  50
0.0
  9
$ANGDIR
  70
1
  9
$MEASUREMENT
  70
1
  0
ENDSEC
  0
SECTION
  2
TABLES
  0
TABLE
  2
LTYPE
  70
4
  0
LTYPE
  5
40F
  2
CONTINUOUS
  70
0
  3
Solid line
  72
65
  73
0
  40
0.0
  0
LTYPE
  5
410
  2
DASHDOT
 70
0
  3
Dash Dot ____ _ ____ _
 72
65
 73
4
 40
2.0
 49
1.25
 49
-0.25
 49
0.25
 49
-0.25
  0
LTYPE
  5
411
  2
DASHED
 70
0
  3
Dashed __ __ __ __ __
 72
65
 73
2
 40
0.75
 49
0.5
 49
-0.25
  0
LTYPE
  5
43B
  2
DOTTED
 70
0
  3
Dotted .  .  .  .
 72
65
 73
2
 40
0.2
 49
0.0
 49
-0.2
  0
ENDTAB
  0
TABLE
  2
STYLE
  70
4
  0
STYLE
  2
KICAD
  70
0
  40
0
  41
1
  42
1
  50
0
  71
0
  3
isocp.shx
  0
STYLE
  2
KICADB
  70
0
  40
0
  41
1
  42
1
  50
0
  71
0
  3
isocp.shx
  0
STYLE
  2
KICADI
  70
0
  40
0
  41
1
  42
1
  50
15
  71
0
  3
isocp.shx
  0
STYLE
  2
KICADBI
  70
0
  40
0
  41
1
  42
1
  50
15
  71
0
  3
isocp.shx
  0
ENDTAB
  0
TABLE
  2
LAYER
  70
1
  0
LAYER
  2
BLACK
  70
0
  62
7
  6
CONTINUOUS
  0
ENDTAB
  0
ENDSEC
  0
SECTION
  2
ENTITIES
0
LINE
8
BLACK
6
CONTINUOUS
10
33.3374999999999986
20
-44.4499999999999957
11
70.1674999999999898
21
-44.4499999999999957
0
LINE
8
BLACK
6
CONTINUOUS
10
70.1674999999999898
20
-44.4499999999999957
11
70.1674999999999898
21
-82.5499999999999972
0
LINE
8
BLACK
6
CONTINUOUS
10
33.3374999999999986
20
-44.4499999999999957
11
33.3374999999999986
21
-82.5499999999999972
0
LINE
8
BLACK
6
CONTINUOUS
10
33.3374999999999986
20
-82.5499999999999972
11
70.1674999999999898
21
-82.5499999999999972
0
LINE
8
BLACK
6
CONTINUOUS
10
56.5324999999999989
20
-54.9450000000000003
11
57.1325000000000003
21
-55.5449999999999946
0
LINE
8
BLACK
6
CONTINUOUS
10
57.1325000000000003
20
-54.9450000000000003
11
56.5324999999999989
21
-55.5449999999999946
0
LINE
8
BLACK
6
CONTINUOUS
10
61.6124999999999972
20
-54.9450000000000003
11
62.2124999999999986
21
-55.5449999999999946
0
LINE
8
BLACK
6
CONTINUOUS
10
62.2124999999999986
20
-54.9450000000000003
11
61.6124999999999972
21
-55.5449999999999946
0
CIRCLE
8
BLACK
10
39.0524999999999949
20
-50.1649999999999991
40
0.4
0
CIRCLE
8
BLACK
10
39.0524999999999949
20
-52.7049999999999983
40
0.4
0
CIRCLE
8
BLACK
10
39.0524999999999949
20
-55.2449999999999974
40
0.4
0
CIRCLE
8
BLACK
10
39.0524999999999949
20
-57.7849999999999966
40
0.4
0
CIRCLE
8
BLACK
10
39.0525009999999995
20
-64.769999999999996
40
0.4
0
CIRCLE
8
BLACK
10
44.1324989999999957
20
-50.1649999999999991
40
0.4
0
CIRCLE
8
BLACK
10
44.1324989999999957
20
-52.7049999999999983
40
0.4
0
CIRCLE
8
BLACK
10
44.1324989999999957
20
-55.2449999999999974
40
0.4
0
CIRCLE
8
BLACK
10
44.1324989999999957
20
-57.7849999999999966
40
0.4
0
CIRCLE
8
BLACK
10
44.1325000000000003
20
-64.769999999999996
40
0.4
0
CIRCLE
8
BLACK
10
56.832499999999996
20
-50.1649999999999991
40
0.4
0
CIRCLE
8
BLACK
10
56.832499999999996
20
-62.2299999999999969
40
0.4
0
CIRCLE
8
BLACK
10
56.832499999999996
20
-69.8499999999999943
40
0.4
0
CIRCLE
8
BLACK
10
56.8325010000000006
20
-64.769999999999996
40
0.4
0
CIRCLE
8
BLACK
10
56.8325010000000006
20
-67.3100000000000023
40
0.4
0
CIRCLE
8
BLACK
10
56.8325010000000006
20
-72.3900000000000006
40
0.4
0
CIRCLE
8
BLACK
10
61.9124999999999943
20
-50.1649999999999991
40
0.4
0
CIRCLE
8
BLACK
10
61.9124999999999943
20
-62.2299999999999969
40
0.4
0
CIRCLE
8
BLACK
10
61.9124999999999943
20
-64.769999999999996
40
0.4
0
CIRCLE
8
BLACK
10
61.9124999999999943
20
-67.3100000000000023
40
0.4
0
CIRCLE
8
BLACK
10
61.9124999999999943
20
-69.8499999999999943
40
0.4
0
CIRCLE
8
BLACK
10
61.9124999999999943
20
-72.3900000000000006
40
0.4
0
LINE
8
BLACK
6
CONTINUOUS
10
46.6724999999999994
20
-49.6649999999999991
11
46.6724999999999994
21
-50.6649999999999991
0
LINE
8
BLACK
6
CONTINUOUS
10
46.1724999999999994
20
-50.1649999999999991
11
47.1724999999999994
21
-50.1649999999999991
0
LINE
8
BLACK
6
CONTINUOUS
10
46.6724999999999994
20
-52.2049999999999983
11
46.6724999999999994
21
-53.2049999999999983
0
LINE
8
BLACK
6
CONTINUOUS
10
46.1724999999999994
20
-52.7049999999999983
11
47.1724999999999994
21
-52.7049999999999983
0
LINE
8
BLACK
6
CONTINUOUS
10
46.6724999999999994
20
-54.7449999999999974
11
46.6724999999999994
21
-55.7449999999999974
0
LINE
8
BLACK
6
CONTINUOUS
10
46.1724999999999994
20
-55.2449999999999974
11
47.1724999999999994
21
-55.2449999999999974
0
LINE
8
BLACK
6
CONTINUOUS
10
46.6724999999999994
20
-57.2849999999999966
11
46.6724999999999994
21
-58.2849999999999966
0
LINE
8
BLACK
6
CONTINUOUS
10
46.1724999999999994
20
-57.7849999999999966
11
47.1724999999999994
21
-57.7849999999999966
0
LINE
8
BLACK
6
CONTINUOUS
10
46.6724999999999994
20
-61.7299999999999969
11
46.6724999999999994
21
-62.7299999999999969
0
LINE
8
BLACK
6
CONTINUOUS
10
46.1724999999999994
20
-62.2299999999999969
11
47.1724999999999994
21
-62.2299999999999969
0
LINE
8
BLACK
6
CONTINUOUS
10
46.6724999999999994
20
-64.269999999999996
11
46.6724999999999994
21
-65.269999999999996
0
LINE
8
BLACK
6
CONTINUOUS
10
46.1724999999999994
20
-64.769999999999996
11
47.1724999999999994
21
-64.769999999999996
0
LINE
8
BLACK
6
CONTINUOUS
10
46.6724999999999994
20
-66.8100000000000023
11
46.6724999999999994
21
-67.8100000000000023
0
LINE
8
BLACK
6
CONTINUOUS
10
46.1724999999999994
20
-67.3100000000000023
11
47.1724999999999994
21
-67.3100000000000023
0
LINE
8
BLACK
6
CONTINUOUS
10
46.6724999999999994
20
-69.3499999999999943
11
46.6724999999999994
21
-70.3499999999999943
0
LINE
8
BLACK
6
CONTINUOUS
10
46.1724999999999994
20
-69.8499999999999943
11
47.1724999999999994
21
-69.8499999999999943
0
LINE
8
BLACK
6
CONTINUOUS
10
51.7524999999999977
20
-80.7800000000000011
11
51.7524999999999977
21
-81.7800000000000011
0
LINE
8
BLACK
6
CONTINUOUS
10
51.2524999999999977
20
-81.2800000000000011
11
52.2524999999999977
21
-81.2800000000000011
0
LINE
8
BLACK
6
CONTINUOUS
10
54.2924999999999969
20
-49.6649999999999991
11
54.2924999999999969
21
-50.6649999999999991
0
LINE
8
BLACK
6
CONTINUOUS
10
53.7924999999999969
20
-50.1649999999999991
11
54.7924999999999969
21
-50.1649999999999991
0
LINE
8
BLACK
6
CONTINUOUS
10
54.2924999999999969
20
-52.2049999999999983
11
54.2924999999999969
21
-53.2049999999999983
0
LINE
8
BLACK
6
CONTINUOUS
10
53.7924999999999969
20
-52.7049999999999983
11
54.7924999999999969
21
-52.7049999999999983
0
LINE
8
BLACK
6
CONTINUOUS
10
54.2924999999999969
20
-54.7449999999999974
11
54.2924999999999969
21
-55.7449999999999974
0
LINE
8
BLACK
6
CONTINUOUS
10
53.7924999999999969
20
-55.2449999999999974
11
54.7924999999999969
21
-55.2449999999999974
0
LINE
8
BLACK
6
CONTINUOUS
10
54.2924999999999969
20
-57.2849999999999966
11
54.2924999999999969
21
-58.2849999999999966
0
LINE
8
BLACK
6
CONTINUOUS
10
53.7924999999999969
20
-57.7849999999999966
11
54.7924999999999969
21
-57.7849999999999966
0
LINE
8
BLACK
6
CONTINUOUS
10
54.2924999999999969
20
-61.7299999999999969
11
54.2924999999999969
21
-62.7299999999999969
0
LINE
8
BLACK
6
CONTINUOUS
10
53.7924999999999969
20
-62.2299999999999969
11
54.7924999999999969
21
-62.2299999999999969
0
LINE
8
BLACK
6
CONTINUOUS
10
54.2924999999999969
20
-64.269999999999996
11
54.2924999999999969
21
-65.269999999999996
0
LINE
8
BLACK
6
CONTINUOUS
10
53.7924999999999969
20
-64.769999999999996
11
54.7924999999999969
21
-64.769999999999996
0
LINE
8
BLACK
6
CONTINUOUS
10
54.2924999999999969
20
-66.8100000000000023
11
54.2924999999999969
21
-67.8100000000000023
0
LINE
8
BLACK
6
CONTINUOUS
10
53.7924999999999969
20
-67.3100000000000023
11
54.7924999999999969
21
-67.3100000000000023
0
LINE
8
BLACK
6
CONTINUOUS
10
54.2924999999999969
20
-69.3499999999999943
11
54.2924999999999969
21
-70.3499999999999943
0
LINE
8
BLACK
6
CONTINUOUS
10
53.7924999999999969
20
-69.8499999999999943
11
54.7924999999999969
21
-69.8499999999999943
0
LINE
8
BLACK
6
CONTINUOUS
10
54.2924999999999969
20
-80.7800000000000011
11
54.2924999999999969
21
-81.7800000000000011
0
LINE
8
BLACK
6
CONTINUOUS
10
53.7924999999999969
20
-81.2800000000000011
11
54.7924999999999969
21
-81.2800000000000011
0
LINE
8
BLACK
6
CONTINUOUS
10
56.832499999999996
20
-80.7800000000000011
11
56.832499999999996
21
-81.7800000000000011
0
LINE
8
BLACK
6
CONTINUOUS
10
56.332499999999996
20
-81.2800000000000011
11
57.332499999999996
21
-81.2800000000000011
0
LINE
8
BLACK
6
CONTINUOUS
10
59.3724999999999952
20
-80.7800000000000011
11
59.3724999999999952
21
-81.7800000000000011
0
LINE
8
BLACK
6
CONTINUOUS
10
58.8724999999999952
20
-81.2800000000000011
11
59.8724999999999952
21
-81.2800000000000011
0
LINE
8
BLACK
6
CONTINUOUS
10
61.9124999999999943
20
-80.7800000000000011
11
61.9124999999999943
21
-81.7800000000000011
0
LINE
8
BLACK
6
CONTINUOUS
10
61.4124999999999943
20
-81.2800000000000011
11
62.4124999999999943
21
-81.2800000000000011
0
LINE
8
BLACK
6
CONTINUOUS
10
64.4525000000000006
20
-80.7800000000000011
11
64.4525000000000006
21
-81.7800000000000011
0
LINE
8
BLACK
6
CONTINUOUS
10
63.9525000000000006
20
-81.2800000000000011
11
64.9525000000000006
21
-81.2800000000000011
0
LINE
8
BLACK
6
CONTINUOUS
10
35.9452679999999987
20
-85.6648380000000031
11
35.9452679999999987
21
-83.6648380000000031
0
LINE
8
BLACK
6
CONTINUOUS
10
35.9452679999999987
20
-83.6648380000000031
11
36.4214580000000012
21
-83.6648380000000031
0
LINE
8
BLACK
6
CONTINUOUS
10
36.4214580000000012
20
-83.6648380000000031
11
36.7071729999999974
21
-83.760075999999998
0
LINE
8
BLACK
6
CONTINUOUS
10
36.7071729999999974
20
-83.760075999999998
11
36.8976490000000013
21
-83.9505520000000018
0
LINE
8
BLACK
6
CONTINUOUS
10
36.8976490000000013
20
-83.9505520000000018
11
36.9928869999999961
21
-84.1410279999999915
0
LINE
8
BLACK
6
CONTINUOUS
10
36.9928869999999961
20
-84.1410279999999915
11
37.088124999999998
21
-84.5219799999999992
0
LINE
8
BLACK
6
CONTINUOUS
10
37.088124999999998
20
-84.5219799999999992
11
37.088124999999998
21
-84.8076949999999954
0
LINE
8
BLACK
6
CONTINUOUS
10
37.088124999999998
20
-84.8076949999999954
11
36.9928869999999961
21
-85.1886470000000031
0
LINE
8
BLACK
6
CONTINUOUS
10
36.9928869999999961
20
-85.1886470000000031
11
36.8976490000000013
21
-85.3791229999999928
0
LINE
8
BLACK
6
CONTINUOUS
10
36.8976490000000013
20
-85.3791229999999928
11
36.7071729999999974
21
-85.5695999999999941
0
LINE
8
BLACK
6
CONTINUOUS
10
36.7071729999999974
20
-85.5695999999999941
11
36.4214580000000012
21
-85.6648380000000031
0
LINE
8
BLACK
6
CONTINUOUS
10
36.4214580000000012
20
-85.6648380000000031
11
35.9452679999999987
21
-85.6648380000000031
0
LINE
8
BLACK
6
CONTINUOUS
10
37.9452679999999987
20
-85.6648380000000031
11
37.9452679999999987
21
-84.3315039999999954
0
LINE
8
BLACK
6
CONTINUOUS
10
37.9452679999999987
20
-84.7124570000000006
11
38.0405060000000006
21
-84.5219799999999992
0
LINE
8
BLACK
6
CONTINUOUS
10
38.0405060000000006
20
-84.5219799999999992
11
38.1357439999999954
21
-84.4267419999999902
0
LINE
8
BLACK
6
CONTINUOUS
10
38.1357439999999954
20
-84.4267419999999902
11
38.3262199999999993
21
-84.3315039999999954
0
LINE
8
BLACK
6
CONTINUOUS
10
38.3262199999999993
20
-84.3315039999999954
11
38.5166970000000006
21
-84.3315039999999954
0
LINE
8
BLACK
6
CONTINUOUS
10
39.1833629999999999
20
-85.6648380000000031
11
39.1833629999999999
21
-84.3315039999999954
0
LINE
8
BLACK
6
CONTINUOUS
10
39.1833629999999999
20
-83.6648380000000031
11
39.088124999999998
21
-83.760075999999998
0
LINE
8
BLACK
6
CONTINUOUS
10
39.088124999999998
20
-83.760075999999998
11
39.1833629999999999
21
-83.8553139999999928
0
LINE
8
BLACK
6
CONTINUOUS
10
39.1833629999999999
20
-83.8553139999999928
11
39.2786009999999948
21
-83.760075999999998
0
LINE
8
BLACK
6
CONTINUOUS
10
39.2786009999999948
20
-83.760075999999998
11
39.1833629999999999
21
-83.6648380000000031
0
LINE
8
BLACK
6
CONTINUOUS
10
39.1833629999999999
20
-83.6648380000000031
11
39.1833629999999999
21
-83.8553139999999928
0
LINE
8
BLACK
6
CONTINUOUS
10
40.4214580000000012
20
-85.6648380000000031
11
40.2309819999999974
21
-85.5695999999999941
0
LINE
8
BLACK
6
CONTINUOUS
10
40.2309819999999974
20
-85.5695999999999941
11
40.1357439999999954
21
-85.3791229999999928
0
LINE
8
BLACK
6
CONTINUOUS
10
40.1357439999999954
20
-85.3791229999999928
11
40.1357439999999954
21
-83.6648380000000031
0
LINE
8
BLACK
6
CONTINUOUS
10
41.4690769999999986
20
-85.6648380000000031
11
41.2786009999999948
21
-85.5695999999999941
0
LINE
8
BLACK
6
CONTINUOUS
10
41.2786009999999948
20
-85.5695999999999941
11
41.1833629999999999
21
-85.3791229999999928
0
LINE
8
BLACK
6
CONTINUOUS
10
41.1833629999999999
20
-85.3791229999999928
11
41.1833629999999999
21
-83.6648380000000031
0
LINE
8
BLACK
6
CONTINUOUS
10
43.7547919999999948
20
-85.6648380000000031
11
43.7547919999999948
21
-83.6648380000000031
0
LINE
8
BLACK
6
CONTINUOUS
10
43.7547919999999948
20
-83.6648380000000031
11
44.4214589999999987
21
-85.0934089999999941
0
LINE
8
BLACK
6
CONTINUOUS
10
44.4214589999999987
20
-85.0934089999999941
11
45.088124999999998
21
-83.6648380000000031
0
LINE
8
BLACK
6
CONTINUOUS
10
45.088124999999998
20
-83.6648380000000031
11
45.088124999999998
21
-85.6648380000000031
0
LINE
8
BLACK
6
CONTINUOUS
10
46.8976490000000013
20
-85.6648380000000031
11
46.8976490000000013
21
-84.6172189999999915
0
LINE
8
BLACK
6
CONTINUOUS
10
46.8976490000000013
20
-84.6172189999999915
11
46.8024109999999993
21
-84.4267419999999902
0
LINE
8
BLACK
6
CONTINUOUS
10
46.8024109999999993
20
-84.4267419999999902
11
46.6119349999999955
21
-84.3315039999999954
0
LINE
8
BLACK
6
CONTINUOUS
10
46.6119349999999955
20
-84.3315039999999954
11
46.2309819999999974
21
-84.3315039999999954
0
LINE
8
BLACK
6
CONTINUOUS
10
46.2309819999999974
20
-84.3315039999999954
11
46.0405060000000006
21
-84.4267419999999902
0
LINE
8
BLACK
6
CONTINUOUS
10
46.8976490000000013
20
-85.5695999999999941
11
46.7071729999999974
21
-85.6648380000000031
0
LINE
8
BLACK
6
CONTINUOUS
10
46.7071729999999974
20
-85.6648380000000031
11
46.2309819999999974
21
-85.6648380000000031
0
LINE
8
BLACK
6
CONTINUOUS
10
46.2309819999999974
20
-85.6648380000000031
11
46.0405060000000006
21
-85.5695999999999941
0
LINE
8
BLACK
6
CONTINUOUS
10
46.0405060000000006
20
-85.5695999999999941
11
45.9452679999999987
21
-85.3791229999999928
0
LINE
8
BLACK
6
CONTINUOUS
10
45.9452679999999987
20
-85.3791229999999928
11
45.9452679999999987
21
-85.1886470000000031
0
LINE
8
BLACK
6
CONTINUOUS
10
45.9452679999999987
20
-85.1886470000000031
11
46.0405060000000006
21
-84.9981709999999993
0
LINE
8
BLACK
6
CONTINUOUS
10
46.0405060000000006
20
-84.9981709999999993
11
46.2309819999999974
21
-84.9029329999999902
0
LINE
8
BLACK
6
CONTINUOUS
10
46.2309819999999974
20
-84.9029329999999902
11
46.7071729999999974
21
-84.9029329999999902
0
LINE
8
BLACK
6
CONTINUOUS
10
46.7071729999999974
20
-84.9029329999999902
11
46.8976490000000013
21
-84.8076949999999954
0
LINE
8
BLACK
6
CONTINUOUS
10
47.8500299999999967
20
-84.3315039999999954
11
47.8500299999999967
21
-86.3315039999999954
0
LINE
8
BLACK
6
CONTINUOUS
10
47.8500299999999967
20
-84.4267419999999902
11
48.0405060000000006
21
-84.3315039999999954
0
LINE
8
BLACK
6
CONTINUOUS
10
48.0405060000000006
20
-84.3315039999999954
11
48.4214589999999987
21
-84.3315039999999954
0
LINE
8
BLACK
6
CONTINUOUS
10
48.4214589999999987
20
-84.3315039999999954
11
48.6119349999999955
21
-84.4267419999999902
0
LINE
8
BLACK
6
CONTINUOUS
10
48.6119349999999955
20
-84.4267419999999902
11
48.7071729999999974
21
-84.5219799999999992
0
LINE
8
BLACK
6
CONTINUOUS
10
48.7071729999999974
20
-84.5219799999999992
11
48.8024109999999993
21
-84.7124570000000006
0
LINE
8
BLACK
6
CONTINUOUS
10
48.8024109999999993
20
-84.7124570000000006
11
48.8024109999999993
21
-85.2838849999999979
0
LINE
8
BLACK
6
CONTINUOUS
10
48.8024109999999993
20
-85.2838849999999979
11
48.7071729999999974
21
-85.4743610000000018
0
LINE
8
BLACK
6
CONTINUOUS
10
48.7071729999999974
20
-85.4743610000000018
11
48.6119349999999955
21
-85.5695999999999941
0
LINE
8
BLACK
6
CONTINUOUS
10
48.6119349999999955
20
-85.5695999999999941
11
48.4214589999999987
21
-85.6648380000000031
0
LINE
8
BLACK
6
CONTINUOUS
10
48.4214589999999987
20
-85.6648380000000031
11
48.0405060000000006
21
-85.6648380000000031
0
LINE
8
BLACK
6
CONTINUOUS
10
48.0405060000000006
20
-85.6648380000000031
11
47.8500299999999967
21
-85.5695999999999941
0
LINE
8
BLACK
6
CONTINUOUS
10
49.659554
20
-85.4743610000000018
11
49.7547919999999948
21
-85.5695999999999941
0
LINE
8
BLACK
6
CONTINUOUS
10
49.7547919999999948
20
-85.5695999999999941
11
49.659554
21
-85.6648380000000031
0
LINE
8
BLACK
6
CONTINUOUS
10
49.659554
20
-85.6648380000000031
11
49.564315999999998
21
-85.5695999999999941
0
LINE
8
BLACK
6
CONTINUOUS
10
49.564315999999998
20
-85.5695999999999941
11
49.659554
21
-85.4743610000000018
0
LINE
8
BLACK
6
CONTINUOUS
10
49.659554
20
-85.4743610000000018
11
49.659554
21
-85.6648380000000031
0
LINE
8
BLACK
6
CONTINUOUS
10
49.659554
20
-84.4267419999999902
11
49.7547919999999948
21
-84.5219799999999992
0
LINE
8
BLACK
6
CONTINUOUS
10
49.7547919999999948
20
-84.5219799999999992
11
49.659554
21
-84.6172189999999915
0
LINE
8
BLACK
6
CONTINUOUS
10
49.659554
20
-84.6172189999999915
11
49.564315999999998
21
-84.5219799999999992
0
LINE
8
BLACK
6
CONTINUOUS
10
49.564315999999998
20
-84.5219799999999992
11
49.659554
21
-84.4267419999999902
0
LINE
8
BLACK
6
CONTINUOUS
10
49.659554
20
-84.4267419999999902
11
49.659554
21
-84.6172189999999915
0
LINE
8
BLACK
6
CONTINUOUS
10
32.7374999999999972
20
-88.6499999999999915
11
33.3374999999999986
21
-89.25
0
LINE
8
BLACK
6
CONTINUOUS
10
33.3374999999999986
20
-88.6499999999999915
11
32.7374999999999972
21
-89.25
0
LINE
8
BLACK
6
CONTINUOUS
10
36.3262199999999993
20
-87.8648379999999918
11
36.5166970000000006
21
-87.8648379999999918
0
LINE
8
BLACK
6
CONTINUOUS
10
36.5166970000000006
20
-87.8648379999999918
11
36.7071729999999974
21
-87.9600760000000008
0
LINE
8
BLACK
6
CONTINUOUS
10
36.7071729999999974
20
-87.9600760000000008
11
36.8024109999999993
21
-88.0553139999999956
0
LINE
8
BLACK
6
CONTINUOUS
10
36.8024109999999993
20
-88.0553139999999956
11
36.8976490000000013
21
-88.2457899999999995
0
LINE
8
BLACK
6
CONTINUOUS
10
36.8976490000000013
20
-88.2457899999999995
11
36.9928869999999961
21
-88.626741999999993
0
LINE
8
BLACK
6
CONTINUOUS
10
36.9928869999999961
20
-88.626741999999993
11
36.9928869999999961
21
-89.1029329999999931
0
LINE
8
BLACK
6
CONTINUOUS
10
36.9928869999999961
20
-89.1029329999999931
11
36.8976490000000013
21
-89.4838850000000008
0
LINE
8
BLACK
6
CONTINUOUS
10
36.8976490000000013
20
-89.4838850000000008
11
36.8024109999999993
21
-89.6743609999999904
0
LINE
8
BLACK
6
CONTINUOUS
10
36.8024109999999993
20
-89.6743609999999904
11
36.7071729999999974
21
-89.769599999999997
0
LINE
8
BLACK
6
CONTINUOUS
10
36.7071729999999974
20
-89.769599999999997
11
36.5166970000000006
21
-89.8648379999999918
0
LINE
8
BLACK
6
CONTINUOUS
10
36.5166970000000006
20
-89.8648379999999918
11
36.3262199999999993
21
-89.8648379999999918
0
LINE
8
BLACK
6
CONTINUOUS
10
36.3262199999999993
20
-89.8648379999999918
11
36.1357439999999954
21
-89.769599999999997
0
LINE
8
BLACK
6
CONTINUOUS
10
36.1357439999999954
20
-89.769599999999997
11
36.0405060000000006
21
-89.6743609999999904
0
LINE
8
BLACK
6
CONTINUOUS
10
36.0405060000000006
20
-89.6743609999999904
11
35.9452679999999987
21
-89.4838850000000008
0
LINE
8
BLACK
6
CONTINUOUS
10
35.9452679999999987
20
-89.4838850000000008
11
35.8500299999999967
21
-89.1029329999999931
0
LINE
8
BLACK
6
CONTINUOUS
10
35.8500299999999967
20
-89.1029329999999931
11
35.8500299999999967
21
-88.626741999999993
0
LINE
8
BLACK
6
CONTINUOUS
10
35.8500299999999967
20
-88.626741999999993
11
35.9452679999999987
21
-88.2457899999999995
0
LINE
8
BLACK
6
CONTINUOUS
10
35.9452679999999987
20
-88.2457899999999995
11
36.0405060000000006
21
-88.0553139999999956
0
LINE
8
BLACK
6
CONTINUOUS
10
36.0405060000000006
20
-88.0553139999999956
11
36.1357439999999954
21
-87.9600760000000008
0
LINE
8
BLACK
6
CONTINUOUS
10
36.1357439999999954
20
-87.9600760000000008
11
36.3262199999999993
21
-87.8648379999999918
0
LINE
8
BLACK
6
CONTINUOUS
10
37.8500299999999967
20
-89.6743609999999904
11
37.9452679999999987
21
-89.769599999999997
0
LINE
8
BLACK
6
CONTINUOUS
10
37.9452679999999987
20
-89.769599999999997
11
37.8500299999999967
21
-89.8648379999999918
0
LINE
8
BLACK
6
CONTINUOUS
10
37.8500299999999967
20
-89.8648379999999918
11
37.7547919999999948
21
-89.769599999999997
0
LINE
8
BLACK
6
CONTINUOUS
10
37.7547919999999948
20
-89.769599999999997
11
37.8500299999999967
21
-89.6743609999999904
0
LINE
8
BLACK
6
CONTINUOUS
10
37.8500299999999967
20
-89.6743609999999904
11
37.8500299999999967
21
-89.8648379999999918
0
LINE
8
BLACK
6
CONTINUOUS
10
39.659554
20
-87.8648379999999918
11
39.2786009999999948
21
-87.8648379999999918
0
LINE
8
BLACK
6
CONTINUOUS
10
39.2786009999999948
20
-87.8648379999999918
11
39.088124999999998
21
-87.9600760000000008
0
LINE
8
BLACK
6
CONTINUOUS
10
39.088124999999998
20
-87.9600760000000008
11
38.9928869999999961
21
-88.0553139999999956
0
LINE
8
BLACK
6
CONTINUOUS
10
38.9928869999999961
20
-88.0553139999999956
11
38.8024109999999993
21
-88.3410279999999943
0
LINE
8
BLACK
6
CONTINUOUS
10
38.8024109999999993
20
-88.3410279999999943
11
38.7071729999999974
21
-88.7219800000000021
0
LINE
8
BLACK
6
CONTINUOUS
10
38.7071729999999974
20
-88.7219800000000021
11
38.7071729999999974
21
-89.4838850000000008
0
LINE
8
BLACK
6
CONTINUOUS
10
38.7071729999999974
20
-89.4838850000000008
11
38.8024109999999993
21
-89.6743609999999904
0
LINE
8
BLACK
6
CONTINUOUS
10
38.8024109999999993
20
-89.6743609999999904
11
38.8976490000000013
21
-89.769599999999997
0
LINE
8
BLACK
6
CONTINUOUS
10
38.8976490000000013
20
-89.769599999999997
11
39.088124999999998
21
-89.8648379999999918
0
LINE
8
BLACK
6
CONTINUOUS
10
39.088124999999998
20
-89.8648379999999918
11
39.4690779999999961
21
-89.8648379999999918
0
LINE
8
BLACK
6
CONTINUOUS
10
39.4690779999999961
20
-89.8648379999999918
11
39.659554
21
-89.769599999999997
0
LINE
8
BLACK
6
CONTINUOUS
10
39.659554
20
-89.769599999999997
11
39.7547919999999948
21
-89.6743609999999904
0
LINE
8
BLACK
6
CONTINUOUS
10
39.7547919999999948
20
-89.6743609999999904
11
39.8500299999999967
21
-89.4838850000000008
0
LINE
8
BLACK
6
CONTINUOUS
10
39.8500299999999967
20
-89.4838850000000008
11
39.8500299999999967
21
-89.0076949999999982
0
LINE
8
BLACK
6
CONTINUOUS
10
39.8500299999999967
20
-89.0076949999999982
11
39.7547919999999948
21
-88.8172189999999944
0
LINE
8
BLACK
6
CONTINUOUS
10
39.7547919999999948
20
-88.8172189999999944
11
39.659554
21
-88.7219800000000021
0
LINE
8
BLACK
6
CONTINUOUS
10
39.659554
20
-88.7219800000000021
11
39.4690779999999961
21
-88.626741999999993
0
LINE
8
BLACK
6
CONTINUOUS
10
39.4690779999999961
20
-88.626741999999993
11
39.088124999999998
21
-88.626741999999993
0
LINE
8
BLACK
6
CONTINUOUS
10
39.088124999999998
20
-88.626741999999993
11
38.8976490000000013
21
-88.7219800000000021
0
LINE
8
BLACK
6
CONTINUOUS
10
38.8976490000000013
20
-88.7219800000000021
11
38.8024109999999993
21
-88.8172189999999944
0
LINE
8
BLACK
6
CONTINUOUS
10
38.8024109999999993
20
-88.8172189999999944
11
38.7071729999999974
21
-89.0076949999999982
0
LINE
8
BLACK
6
CONTINUOUS
10
41.088124999999998
20
-87.8648379999999918
11
41.2786019999999994
21
-87.8648379999999918
0
LINE
8
BLACK
6
CONTINUOUS
10
41.2786019999999994
20
-87.8648379999999918
11
41.4690779999999961
21
-87.9600760000000008
0
LINE
8
BLACK
6
CONTINUOUS
10
41.4690779999999961
20
-87.9600760000000008
11
41.564315999999998
21
-88.0553139999999956
0
LINE
8
BLACK
6
CONTINUOUS
10
41.564315999999998
20
-88.0553139999999956
11
41.659554
21
-88.2457899999999995
0
LINE
8
BLACK
6
CONTINUOUS
10
41.659554
20
-88.2457899999999995
11
41.7547919999999948
21
-88.626741999999993
0
LINE
8
BLACK
6
CONTINUOUS
10
41.7547919999999948
20
-88.626741999999993
11
41.7547919999999948
21
-89.1029329999999931
0
LINE
8
BLACK
6
CONTINUOUS
10
41.7547919999999948
20
-89.1029329999999931
11
41.659554
21
-89.4838850000000008
0
LINE
8
BLACK
6
CONTINUOUS
10
41.659554
20
-89.4838850000000008
11
41.564315999999998
21
-89.6743609999999904
0
LINE
8
BLACK
6
CONTINUOUS
10
41.564315999999998
20
-89.6743609999999904
11
41.4690779999999961
21
-89.769599999999997
0
LINE
8
BLACK
6
CONTINUOUS
10
41.4690779999999961
20
-89.769599999999997
11
41.2786019999999994
21
-89.8648379999999918
0
LINE
8
BLACK
6
CONTINUOUS
10
41.2786019999999994
20
-89.8648379999999918
11
41.088124999999998
21
-89.8648379999999918
0
LINE
8
BLACK
6
CONTINUOUS
10
41.088124999999998
20
-89.8648379999999918
11
40.8976490000000013
21
-89.769599999999997
0
LINE
8
BLACK
6
CONTINUOUS
10
40.8976490000000013
20
-89.769599999999997
11
40.8024109999999993
21
-89.6743609999999904
0
LINE
8
BLACK
6
CONTINUOUS
10
40.8024109999999993
20
-89.6743609999999904
11
40.7071729999999974
21
-89.4838850000000008
0
LINE
8
BLACK
6
CONTINUOUS
10
40.7071729999999974
20
-89.4838850000000008
11
40.6119349999999955
21
-89.1029329999999931
0
LINE
8
BLACK
6
CONTINUOUS
10
40.6119349999999955
20
-89.1029329999999931
11
40.6119349999999955
21
-88.626741999999993
0
LINE
8
BLACK
6
CONTINUOUS
10
40.6119349999999955
20
-88.626741999999993
11
40.7071729999999974
21
-88.2457899999999995
0
LINE
8
BLACK
6
CONTINUOUS
10
40.7071729999999974
20
-88.2457899999999995
11
40.8024109999999993
21
-88.0553139999999956
0
LINE
8
BLACK
6
CONTINUOUS
10
40.8024109999999993
20
-88.0553139999999956
11
40.8976490000000013
21
-87.9600760000000008
0
LINE
8
BLACK
6
CONTINUOUS
10
40.8976490000000013
20
-87.9600760000000008
11
41.088124999999998
21
-87.8648379999999918
0
LINE
8
BLACK
6
CONTINUOUS
10
42.9928869999999961
20
-87.8648379999999918
11
43.1833639999999974
21
-87.8648379999999918
0
LINE
8
BLACK
6
CONTINUOUS
10
43.1833639999999974
20
-87.8648379999999918
11
43.3738400000000013
21
-87.9600760000000008
0
LINE
8
BLACK
6
CONTINUOUS
10
43.3738400000000013
20
-87.9600760000000008
11
43.4690779999999961
21
-88.0553139999999956
0
LINE
8
BLACK
6
CONTINUOUS
10
43.4690779999999961
20
-88.0553139999999956
11
43.564315999999998
21
-88.2457899999999995
0
LINE
8
BLACK
6
CONTINUOUS
10
43.564315999999998
20
-88.2457899999999995
11
43.659554
21
-88.626741999999993
0
LINE
8
BLACK
6
CONTINUOUS
10
43.659554
20
-88.626741999999993
11
43.659554
21
-89.1029329999999931
0
LINE
8
BLACK
6
CONTINUOUS
10
43.659554
20
-89.1029329999999931
11
43.564315999999998
21
-89.4838850000000008
0
LINE
8
BLACK
6
CONTINUOUS
10
43.564315999999998
20
-89.4838850000000008
11
43.4690779999999961
21
-89.6743609999999904
0
LINE
8
BLACK
6
CONTINUOUS
10
43.4690779999999961
20
-89.6743609999999904
11
43.3738400000000013
21
-89.769599999999997
0
LINE
8
BLACK
6
CONTINUOUS
10
43.3738400000000013
20
-89.769599999999997
11
43.1833639999999974
21
-89.8648379999999918
0
LINE
8
BLACK
6
CONTINUOUS
10
43.1833639999999974
20
-89.8648379999999918
11
42.9928869999999961
21
-89.8648379999999918
0
LINE
8
BLACK
6
CONTINUOUS
10
42.9928869999999961
20
-89.8648379999999918
11
42.8024109999999993
21
-89.769599999999997
0
LINE
8
BLACK
6
CONTINUOUS
10
42.8024109999999993
20
-89.769599999999997
11
42.7071729999999974
21
-89.6743609999999904
0
LINE
8
BLACK
6
CONTINUOUS
10
42.7071729999999974
20
-89.6743609999999904
11
42.6119349999999955
21
-89.4838850000000008
0
LINE
8
BLACK
6
CONTINUOUS
10
42.6119349999999955
20
-89.4838850000000008
11
42.5166970000000006
21
-89.1029329999999931
0
LINE
8
BLACK
6
CONTINUOUS
10
42.5166970000000006
20
-89.1029329999999931
11
42.5166970000000006
21
-88.626741999999993
0
LINE
8
BLACK
6
CONTINUOUS
10
42.5166970000000006
20
-88.626741999999993
11
42.6119349999999955
21
-88.2457899999999995
0
LINE
8
BLACK
6
CONTINUOUS
10
42.6119349999999955
20
-88.2457899999999995
11
42.7071729999999974
21
-88.0553139999999956
0
LINE
8
BLACK
6
CONTINUOUS
10
42.7071729999999974
20
-88.0553139999999956
11
42.8024109999999993
21
-87.9600760000000008
0
LINE
8
BLACK
6
CONTINUOUS
10
42.8024109999999993
20
-87.9600760000000008
11
42.9928869999999961
21
-87.8648379999999918
0
LINE
8
BLACK
6
CONTINUOUS
10
44.5166970000000006
20
-89.8648379999999918
11
44.5166970000000006
21
-88.5315039999999982
0
LINE
8
BLACK
6
CONTINUOUS
10
44.5166970000000006
20
-88.7219800000000021
11
44.6119349999999955
21
-88.626741999999993
0
LINE
8
BLACK
6
CONTINUOUS
10
44.6119349999999955
20
-88.626741999999993
11
44.8024109999999993
21
-88.5315039999999982
0
LINE
8
BLACK
6
CONTINUOUS
10
44.8024109999999993
20
-88.5315039999999982
11
45.0881259999999955
21
-88.5315039999999982
0
LINE
8
BLACK
6
CONTINUOUS
10
45.0881259999999955
20
-88.5315039999999982
11
45.2786019999999994
21
-88.626741999999993
0
LINE
8
BLACK
6
CONTINUOUS
10
45.2786019999999994
20
-88.626741999999993
11
45.3738400000000013
21
-88.8172189999999944
0
LINE
8
BLACK
6
CONTINUOUS
10
45.3738400000000013
20
-88.8172189999999944
11
45.3738400000000013
21
-89.8648379999999918
0
LINE
8
BLACK
6
CONTINUOUS
10
45.3738400000000013
20
-88.8172189999999944
11
45.4690779999999961
21
-88.626741999999993
0
LINE
8
BLACK
6
CONTINUOUS
10
45.4690779999999961
20
-88.626741999999993
11
45.659554
21
-88.5315039999999982
0
LINE
8
BLACK
6
CONTINUOUS
10
45.659554
20
-88.5315039999999982
11
45.9452679999999987
21
-88.5315039999999982
0
LINE
8
BLACK
6
CONTINUOUS
10
45.9452679999999987
20
-88.5315039999999982
11
46.135745
21
-88.626741999999993
0
LINE
8
BLACK
6
CONTINUOUS
10
46.135745
20
-88.626741999999993
11
46.2309829999999948
21
-88.8172189999999944
0
LINE
8
BLACK
6
CONTINUOUS
10
46.2309829999999948
20
-88.8172189999999944
11
46.2309829999999948
21
-89.8648379999999918
0
LINE
8
BLACK
6
CONTINUOUS
10
47.1833639999999974
20
-89.8648379999999918
11
47.1833639999999974
21
-88.5315039999999982
0
LINE
8
BLACK
6
CONTINUOUS
10
47.1833639999999974
20
-88.7219800000000021
11
47.2786019999999994
21
-88.626741999999993
0
LINE
8
BLACK
6
CONTINUOUS
10
47.2786019999999994
20
-88.626741999999993
11
47.4690779999999961
21
-88.5315039999999982
0
LINE
8
BLACK
6
CONTINUOUS
10
47.4690779999999961
20
-88.5315039999999982
11
47.7547929999999994
21
-88.5315039999999982
0
LINE
8
BLACK
6
CONTINUOUS
10
47.7547929999999994
20
-88.5315039999999982
11
47.9452689999999961
21
-88.626741999999993
0
LINE
8
BLACK
6
CONTINUOUS
10
47.9452689999999961
20
-88.626741999999993
11
48.0405069999999981
21
-88.8172189999999944
0
LINE
8
BLACK
6
CONTINUOUS
10
48.0405069999999981
20
-88.8172189999999944
11
48.0405069999999981
21
-89.8648379999999918
0
LINE
8
BLACK
6
CONTINUOUS
10
48.0405069999999981
20
-88.8172189999999944
11
48.135745
21
-88.626741999999993
0
LINE
8
BLACK
6
CONTINUOUS
10
48.135745
20
-88.626741999999993
11
48.3262209999999968
21
-88.5315039999999982
0
LINE
8
BLACK
6
CONTINUOUS
10
48.3262209999999968
20
-88.5315039999999982
11
48.6119349999999955
21
-88.5315039999999982
0
LINE
8
BLACK
6
CONTINUOUS
10
48.6119349999999955
20
-88.5315039999999982
11
48.8024119999999968
21
-88.626741999999993
0
LINE
8
BLACK
6
CONTINUOUS
10
48.8024119999999968
20
-88.626741999999993
11
48.8976499999999987
21
-88.8172189999999944
0
LINE
8
BLACK
6
CONTINUOUS
10
48.8976499999999987
20
-88.8172189999999944
11
48.8976499999999987
21
-89.8648379999999918
0
LINE
8
BLACK
6
CONTINUOUS
10
52.8024119999999968
20
-87.769599999999997
11
51.0881270000000001
21
-90.3410279999999943
0
LINE
8
BLACK
6
CONTINUOUS
10
55.3738409999999988
20
-87.8648379999999918
11
55.5643180000000001
21
-87.8648379999999918
0
LINE
8
BLACK
6
CONTINUOUS
10
55.5643180000000001
20
-87.8648379999999918
11
55.7547939999999969
21
-87.9600760000000008
0
LINE
8
BLACK
6
CONTINUOUS
10
55.7547939999999969
20
-87.9600760000000008
11
55.8500319999999988
21
-88.0553139999999956
0
LINE
8
BLACK
6
CONTINUOUS
10
55.8500319999999988
20
-88.0553139999999956
11
55.9452700000000007
21
-88.2457899999999995
0
LINE
8
BLACK
6
CONTINUOUS
10
55.9452700000000007
20
-88.2457899999999995
11
56.0405079999999955
21
-88.626741999999993
0
LINE
8
BLACK
6
CONTINUOUS
10
56.0405079999999955
20
-88.626741999999993
11
56.0405079999999955
21
-89.1029329999999931
0
LINE
8
BLACK
6
CONTINUOUS
10
56.0405079999999955
20
-89.1029329999999931
11
55.9452700000000007
21
-89.4838850000000008
0
LINE
8
BLACK
6
CONTINUOUS
10
55.9452700000000007
20
-89.4838850000000008
11
55.8500319999999988
21
-89.6743609999999904
0
LINE
8
BLACK
6
CONTINUOUS
10
55.8500319999999988
20
-89.6743609999999904
11
55.7547939999999969
21
-89.769599999999997
0
LINE
8
BLACK
6
CONTINUOUS
10
55.7547939999999969
20
-89.769599999999997
11
55.5643180000000001
21
-89.8648379999999918
0
LINE
8
BLACK
6
CONTINUOUS
10
55.5643180000000001
20
-89.8648379999999918
11
55.3738409999999988
21
-89.8648379999999918
0
LINE
8
BLACK
6
CONTINUOUS
10
55.3738409999999988
20
-89.8648379999999918
11
55.1833649999999949
21
-89.769599999999997
0
LINE
8
BLACK
6
CONTINUOUS
10
55.1833649999999949
20
-89.769599999999997
11
55.0881270000000001
21
-89.6743609999999904
0
LINE
8
BLACK
6
CONTINUOUS
10
55.0881270000000001
20
-89.6743609999999904
11
54.9928889999999981
21
-89.4838850000000008
0
LINE
8
BLACK
6
CONTINUOUS
10
54.9928889999999981
20
-89.4838850000000008
11
54.8976509999999962
21
-89.1029329999999931
0
LINE
8
BLACK
6
CONTINUOUS
10
54.8976509999999962
20
-89.1029329999999931
11
54.8976509999999962
21
-88.626741999999993
0
LINE
8
BLACK
6
CONTINUOUS
10
54.8976509999999962
20
-88.626741999999993
11
54.9928889999999981
21
-88.2457899999999995
0
LINE
8
BLACK
6
CONTINUOUS
10
54.9928889999999981
20
-88.2457899999999995
11
55.0881270000000001
21
-88.0553139999999956
0
LINE
8
BLACK
6
CONTINUOUS
10
55.0881270000000001
20
-88.0553139999999956
11
55.1833649999999949
21
-87.9600760000000008
0
LINE
8
BLACK
6
CONTINUOUS
10
55.1833649999999949
20
-87.9600760000000008
11
55.3738409999999988
21
-87.8648379999999918
0
LINE
8
BLACK
6
CONTINUOUS
10
56.8976509999999962
20
-89.6743609999999904
11
56.9928889999999981
21
-89.769599999999997
0
LINE
8
BLACK
6
CONTINUOUS
10
56.9928889999999981
20
-89.769599999999997
11
56.8976509999999962
21
-89.8648379999999918
0
LINE
8
BLACK
6
CONTINUOUS
10
56.8976509999999962
20
-89.8648379999999918
11
56.8024129999999943
21
-89.769599999999997
0
LINE
8
BLACK
6
CONTINUOUS
10
56.8024129999999943
20
-89.769599999999997
11
56.8976509999999962
21
-89.6743609999999904
0
LINE
8
BLACK
6
CONTINUOUS
10
56.8976509999999962
20
-89.6743609999999904
11
56.8976509999999962
21
-89.8648379999999918
0
LINE
8
BLACK
6
CONTINUOUS
10
58.2309839999999994
20
-87.8648379999999918
11
58.4214610000000008
21
-87.8648379999999918
0
LINE
8
BLACK
6
CONTINUOUS
10
58.4214610000000008
20
-87.8648379999999918
11
58.6119369999999975
21
-87.9600760000000008
0
LINE
8
BLACK
6
CONTINUOUS
10
58.6119369999999975
20
-87.9600760000000008
11
58.7071749999999994
21
-88.0553139999999956
0
LINE
8
BLACK
6
CONTINUOUS
10
58.7071749999999994
20
-88.0553139999999956
11
58.8024129999999943
21
-88.2457899999999995
0
LINE
8
BLACK
6
CONTINUOUS
10
58.8024129999999943
20
-88.2457899999999995
11
58.8976509999999962
21
-88.626741999999993
0
LINE
8
BLACK
6
CONTINUOUS
10
58.8976509999999962
20
-88.626741999999993
11
58.8976509999999962
21
-89.1029329999999931
0
LINE
8
BLACK
6
CONTINUOUS
10
58.8976509999999962
20
-89.1029329999999931
11
58.8024129999999943
21
-89.4838850000000008
0
LINE
8
BLACK
6
CONTINUOUS
10
58.8024129999999943
20
-89.4838850000000008
11
58.7071749999999994
21
-89.6743609999999904
0
LINE
8
BLACK
6
CONTINUOUS
10
58.7071749999999994
20
-89.6743609999999904
11
58.6119369999999975
21
-89.769599999999997
0
LINE
8
BLACK
6
CONTINUOUS
10
58.6119369999999975
20
-89.769599999999997
11
58.4214610000000008
21
-89.8648379999999918
0
LINE
8
BLACK
6
CONTINUOUS
10
58.4214610000000008
20
-89.8648379999999918
11
58.2309839999999994
21
-89.8648379999999918
0
LINE
8
BLACK
6
CONTINUOUS
10
58.2309839999999994
20
-89.8648379999999918
11
58.0405079999999955
21
-89.769599999999997
0
LINE
8
BLACK
6
CONTINUOUS
10
58.0405079999999955
20
-89.769599999999997
11
57.9452700000000007
21
-89.6743609999999904
0
LINE
8
BLACK
6
CONTINUOUS
10
57.9452700000000007
20
-89.6743609999999904
11
57.8500319999999988
21
-89.4838850000000008
0
LINE
8
BLACK
6
CONTINUOUS
10
57.8500319999999988
20
-89.4838850000000008
11
57.7547939999999969
21
-89.1029329999999931
0
LINE
8
BLACK
6
CONTINUOUS
10
57.7547939999999969
20
-89.1029329999999931
11
57.7547939999999969
21
-88.626741999999993
0
LINE
8
BLACK
6
CONTINUOUS
10
57.7547939999999969
20
-88.626741999999993
11
57.8500319999999988
21
-88.2457899999999995
0
LINE
8
BLACK
6
CONTINUOUS
10
57.8500319999999988
20
-88.2457899999999995
11
57.9452700000000007
21
-88.0553139999999956
0
LINE
8
BLACK
6
CONTINUOUS
10
57.9452700000000007
20
-88.0553139999999956
11
58.0405079999999955
21
-87.9600760000000008
0
LINE
8
BLACK
6
CONTINUOUS
10
58.0405079999999955
20
-87.9600760000000008
11
58.2309839999999994
21
-87.8648379999999918
0
LINE
8
BLACK
6
CONTINUOUS
10
59.6595559999999949
20
-88.0553139999999956
11
59.7547939999999969
21
-87.9600760000000008
0
LINE
8
BLACK
6
CONTINUOUS
10
59.7547939999999969
20
-87.9600760000000008
11
59.9452700000000007
21
-87.8648379999999918
0
LINE
8
BLACK
6
CONTINUOUS
10
59.9452700000000007
20
-87.8648379999999918
11
60.4214610000000008
21
-87.8648379999999918
0
LINE
8
BLACK
6
CONTINUOUS
10
60.4214610000000008
20
-87.8648379999999918
11
60.6119369999999975
21
-87.9600760000000008
0
LINE
8
BLACK
6
CONTINUOUS
10
60.6119369999999975
20
-87.9600760000000008
11
60.7071749999999994
21
-88.0553139999999956
0
LINE
8
BLACK
6
CONTINUOUS
10
60.7071749999999994
20
-88.0553139999999956
11
60.8024129999999943
21
-88.2457899999999995
0
LINE
8
BLACK
6
CONTINUOUS
10
60.8024129999999943
20
-88.2457899999999995
11
60.8024129999999943
21
-88.4362659999999892
0
LINE
8
BLACK
6
CONTINUOUS
10
60.8024129999999943
20
-88.4362659999999892
11
60.7071749999999994
21
-88.7219800000000021
0
LINE
8
BLACK
6
CONTINUOUS
10
60.7071749999999994
20
-88.7219800000000021
11
59.5643180000000001
21
-89.8648379999999918
0
LINE
8
BLACK
6
CONTINUOUS
10
59.5643180000000001
20
-89.8648379999999918
11
60.8024129999999943
21
-89.8648379999999918
0
LINE
8
BLACK
6
CONTINUOUS
10
61.4690799999999982
20
-87.8648379999999918
11
62.7071749999999994
21
-87.8648379999999918
0
LINE
8
BLACK
6
CONTINUOUS
10
62.7071749999999994
20
-87.8648379999999918
11
62.0405079999999955
21
-88.626741999999993
0
LINE
8
BLACK
6
CONTINUOUS
10
62.0405079999999955
20
-88.626741999999993
11
62.3262229999999988
21
-88.626741999999993
0
LINE
8
BLACK
6
CONTINUOUS
10
62.3262229999999988
20
-88.626741999999993
11
62.5166989999999956
21
-88.7219800000000021
0
LINE
8
BLACK
6
CONTINUOUS
10
62.5166989999999956
20
-88.7219800000000021
11
62.6119369999999975
21
-88.8172189999999944
0
LINE
8
BLACK
6
CONTINUOUS
10
62.6119369999999975
20
-88.8172189999999944
11
62.7071749999999994
21
-89.0076949999999982
0
LINE
8
BLACK
6
CONTINUOUS
10
62.7071749999999994
20
-89.0076949999999982
11
62.7071749999999994
21
-89.4838850000000008
0
LINE
8
BLACK
6
CONTINUOUS
10
62.7071749999999994
20
-89.4838850000000008
11
62.6119369999999975
21
-89.6743609999999904
0
LINE
8
BLACK
6
CONTINUOUS
10
62.6119369999999975
20
-89.6743609999999904
11
62.5166989999999956
21
-89.769599999999997
0
LINE
8
BLACK
6
CONTINUOUS
10
62.5166989999999956
20
-89.769599999999997
11
62.3262229999999988
21
-89.8648379999999918
0
LINE
8
BLACK
6
CONTINUOUS
10
62.3262229999999988
20
-89.8648379999999918
11
61.7547939999999969
21
-89.8648379999999918
0
LINE
8
BLACK
6
CONTINUOUS
10
61.7547939999999969
20
-89.8648379999999918
11
61.5643180000000001
21
-89.769599999999997
0
LINE
8
BLACK
6
CONTINUOUS
10
61.5643180000000001
20
-89.769599999999997
11
61.4690799999999982
21
-89.6743609999999904
0
LINE
8
BLACK
6
CONTINUOUS
10
64.4214609999999936
20
-87.8648379999999918
11
64.0405080000000027
21
-87.8648379999999918
0
LINE
8
BLACK
6
CONTINUOUS
10
64.0405080000000027
20
-87.8648379999999918
11
63.8500319999999988
21
-87.9600760000000008
0
LINE
8
BLACK
6
CONTINUOUS
10
63.8500319999999988
20
-87.9600760000000008
11
63.7547939999999969
21
-88.0553139999999956
0
LINE
8
BLACK
6
CONTINUOUS
10
63.7547939999999969
20
-88.0553139999999956
11
63.5643180000000001
21
-88.3410279999999943
0
LINE
8
BLACK
6
CONTINUOUS
10
63.5643180000000001
20
-88.3410279999999943
11
63.4690799999999982
21
-88.7219800000000021
0
LINE
8
BLACK
6
CONTINUOUS
10
63.4690799999999982
20
-88.7219800000000021
11
63.4690799999999982
21
-89.4838850000000008
0
LINE
8
BLACK
6
CONTINUOUS
10
63.4690799999999982
20
-89.4838850000000008
11
63.5643180000000001
21
-89.6743609999999904
0
LINE
8
BLACK
6
CONTINUOUS
10
63.5643180000000001
20
-89.6743609999999904
11
63.6595559999999949
21
-89.769599999999997
0
LINE
8
BLACK
6
CONTINUOUS
10
63.6595559999999949
20
-89.769599999999997
11
63.8500319999999988
21
-89.8648379999999918
0
LINE
8
BLACK
6
CONTINUOUS
10
63.8500319999999988
20
-89.8648379999999918
11
64.230985000000004
21
-89.8648379999999918
0
LINE
8
BLACK
6
CONTINUOUS
10
64.230985000000004
20
-89.8648379999999918
11
64.4214609999999936
21
-89.769599999999997
0
LINE
8
BLACK
6
CONTINUOUS
10
64.4214609999999936
20
-89.769599999999997
11
64.5166990000000027
21
-89.6743609999999904
0
LINE
8
BLACK
6
CONTINUOUS
10
64.5166990000000027
20
-89.6743609999999904
11
64.6119369999999975
21
-89.4838850000000008
0
LINE
8
BLACK
6
CONTINUOUS
10
64.6119369999999975
20
-89.4838850000000008
11
64.6119369999999975
21
-89.0076949999999982
0
LINE
8
BLACK
6
CONTINUOUS
10
64.6119369999999975
20
-89.0076949999999982
11
64.5166990000000027
21
-88.8172189999999944
0
LINE
8
BLACK
6
CONTINUOUS
10
64.5166990000000027
20
-88.8172189999999944
11
64.4214609999999936
21
-88.7219800000000021
0
LINE
8
BLACK
6
CONTINUOUS
10
64.4214609999999936
20
-88.7219800000000021
11
64.230985000000004
21
-88.626741999999993
0
LINE
8
BLACK
6
CONTINUOUS
10
64.230985000000004
20
-88.626741999999993
11
63.8500319999999988
21
-88.626741999999993
0
LINE
8
BLACK
6
CONTINUOUS
10
63.8500319999999988
20
-88.626741999999993
11
63.6595559999999949
21
-88.7219800000000021
0
LINE
8
BLACK
6
CONTINUOUS
10
63.6595559999999949
20
-88.7219800000000021
11
63.5643180000000001
21
-88.8172189999999944
0
LINE
8
BLACK
6
CONTINUOUS
10
63.5643180000000001
20
-88.8172189999999944
11
63.4690799999999982
21
-89.0076949999999982
0
LINE
8
BLACK
6
CONTINUOUS
10
65.3738419999999962
20
-87.8648379999999918
11
65.3738419999999962
21
-88.2457899999999995
0
LINE
8
BLACK
6
CONTINUOUS
10
66.135746999999995
20
-87.8648379999999918
11
66.135746999999995
21
-88.2457899999999995
0
LINE
8
BLACK
6
CONTINUOUS
10
69.088128999999995
20
-90.626741999999993
11
68.9928900000000027
21
-90.5315039999999982
0
LINE
8
BLACK
6
CONTINUOUS
10
68.9928900000000027
20
-90.5315039999999982
11
68.8024139999999989
21
-90.2457899999999995
0
LINE
8
BLACK
6
CONTINUOUS
10
68.8024139999999989
20
-90.2457899999999995
11
68.7071759999999898
21
-90.0553139999999956
0
LINE
8
BLACK
6
CONTINUOUS
10
68.7071759999999898
20
-90.0553139999999956
11
68.611937999999995
21
-89.769599999999997
0
LINE
8
BLACK
6
CONTINUOUS
10
68.611937999999995
20
-89.769599999999997
11
68.5167000000000002
21
-89.2934089999999969
0
LINE
8
BLACK
6
CONTINUOUS
10
68.5167000000000002
20
-89.2934089999999969
11
68.5167000000000002
21
-88.9124569999999892
0
LINE
8
BLACK
6
CONTINUOUS
10
68.5167000000000002
20
-88.9124569999999892
11
68.611937999999995
21
-88.4362659999999892
0
LINE
8
BLACK
6
CONTINUOUS
10
68.611937999999995
20
-88.4362659999999892
11
68.7071759999999898
21
-88.1505519999999905
0
LINE
8
BLACK
6
CONTINUOUS
10
68.7071759999999898
20
-88.1505519999999905
11
68.8024139999999989
21
-87.9600760000000008
0
LINE
8
BLACK
6
CONTINUOUS
10
68.8024139999999989
20
-87.9600760000000008
11
68.9928900000000027
21
-87.6743609999999904
0
LINE
8
BLACK
6
CONTINUOUS
10
68.9928900000000027
20
-87.6743609999999904
11
69.088128999999995
21
-87.5791229999999956
0
LINE
8
BLACK
6
CONTINUOUS
10
69.7547950000000014
20
-88.0553139999999956
11
69.8500329999999963
21
-87.9600760000000008
0
LINE
8
BLACK
6
CONTINUOUS
10
69.8500329999999963
20
-87.9600760000000008
11
70.0405090000000001
21
-87.8648379999999918
0
LINE
8
BLACK
6
CONTINUOUS
10
70.0405090000000001
20
-87.8648379999999918
11
70.5167000000000002
21
-87.8648379999999918
0
LINE
8
BLACK
6
CONTINUOUS
10
70.5167000000000002
20
-87.8648379999999918
11
70.7071759999999898
21
-87.9600760000000008
0
LINE
8
BLACK
6
CONTINUOUS
10
70.7071759999999898
20
-87.9600760000000008
11
70.8024139999999989
21
-88.0553139999999956
0
LINE
8
BLACK
6
CONTINUOUS
10
70.8024139999999989
20
-88.0553139999999956
11
70.8976519999999937
21
-88.2457899999999995
0
LINE
8
BLACK
6
CONTINUOUS
10
70.8976519999999937
20
-88.2457899999999995
11
70.8976519999999937
21
-88.4362659999999892
0
LINE
8
BLACK
6
CONTINUOUS
10
70.8976519999999937
20
-88.4362659999999892
11
70.8024139999999989
21
-88.7219800000000021
0
LINE
8
BLACK
6
CONTINUOUS
10
70.8024139999999989
20
-88.7219800000000021
11
69.6595569999999924
21
-89.8648379999999918
0
LINE
8
BLACK
6
CONTINUOUS
10
69.6595569999999924
20
-89.8648379999999918
11
70.8976519999999937
21
-89.8648379999999918
0
LINE
8
BLACK
6
CONTINUOUS
10
73.2786049999999989
20
-89.8648379999999918
11
73.2786049999999989
21
-87.8648379999999918
0
LINE
8
BLACK
6
CONTINUOUS
10
74.1357479999999924
20
-89.8648379999999918
11
74.1357479999999924
21
-88.8172189999999944
0
LINE
8
BLACK
6
CONTINUOUS
10
74.1357479999999924
20
-88.8172189999999944
11
74.0405099999999976
21
-88.626741999999993
0
LINE
8
BLACK
6
CONTINUOUS
10
74.0405099999999976
20
-88.626741999999993
11
73.8500339999999937
21
-88.5315039999999982
0
LINE
8
BLACK
6
CONTINUOUS
10
73.8500339999999937
20
-88.5315039999999982
11
73.5643189999999976
21
-88.5315039999999982
0
LINE
8
BLACK
6
CONTINUOUS
10
73.5643189999999976
20
-88.5315039999999982
11
73.3738429999999937
21
-88.626741999999993
0
LINE
8
BLACK
6
CONTINUOUS
10
73.3738429999999937
20
-88.626741999999993
11
73.2786049999999989
21
-88.7219800000000021
0
LINE
8
BLACK
6
CONTINUOUS
10
75.3738429999999937
20
-89.8648379999999918
11
75.1833669999999898
21
-89.769599999999997
0
LINE
8
BLACK
6
CONTINUOUS
10
75.1833669999999898
20
-89.769599999999997
11
75.088128999999995
21
-89.6743609999999904
0
LINE
8
BLACK
6
CONTINUOUS
10
75.088128999999995
20
-89.6743609999999904
11
74.9928910000000002
21
-89.4838850000000008
0
LINE
8
BLACK
6
CONTINUOUS
10
74.9928910000000002
20
-89.4838850000000008
11
74.9928910000000002
21
-88.9124569999999892
0
LINE
8
BLACK
6
CONTINUOUS
10
74.9928910000000002
20
-88.9124569999999892
11
75.088128999999995
21
-88.7219800000000021
0
LINE
8
BLACK
6
CONTINUOUS
10
75.088128999999995
20
-88.7219800000000021
11
75.1833669999999898
21
-88.626741999999993
0
LINE
8
BLACK
6
CONTINUOUS
10
75.1833669999999898
20
-88.626741999999993
11
75.3738429999999937
21
-88.5315039999999982
0
LINE
8
BLACK
6
CONTINUOUS
10
75.3738429999999937
20
-88.5315039999999982
11
75.6595579999999899
21
-88.5315039999999982
0
LINE
8
BLACK
6
CONTINUOUS
10
75.6595579999999899
20
-88.5315039999999982
11
75.8500339999999937
21
-88.626741999999993
0
LINE
8
BLACK
6
CONTINUOUS
10
75.8500339999999937
20
-88.626741999999993
11
75.9452720000000028
21
-88.7219800000000021
0
LINE
8
BLACK
6
CONTINUOUS
10
75.9452720000000028
20
-88.7219800000000021
11
76.0405099999999976
21
-88.9124569999999892
0
LINE
8
BLACK
6
CONTINUOUS
10
76.0405099999999976
20
-88.9124569999999892
11
76.0405099999999976
21
-89.4838850000000008
0
LINE
8
BLACK
6
CONTINUOUS
10
76.0405099999999976
20
-89.4838850000000008
11
75.9452720000000028
21
-89.6743609999999904
0
LINE
8
BLACK
6
CONTINUOUS
10
75.9452720000000028
20
-89.6743609999999904
11
75.8500339999999937
21
-89.769599999999997
0
LINE
8
BLACK
6
CONTINUOUS
10
75.8500339999999937
20
-89.769599999999997
11
75.6595579999999899
21
-89.8648379999999918
0
LINE
8
BLACK
6
CONTINUOUS
10
75.6595579999999899
20
-89.8648379999999918
11
75.3738429999999937
21
-89.8648379999999918
0
LINE
8
BLACK
6
CONTINUOUS
10
77.1833669999999898
20
-89.8648379999999918
11
76.9928910000000002
21
-89.769599999999997
0
LINE
8
BLACK
6
CONTINUOUS
10
76.9928910000000002
20
-89.769599999999997
11
76.8976529999999912
21
-89.5791229999999956
0
LINE
8
BLACK
6
CONTINUOUS
10
76.8976529999999912
20
-89.5791229999999956
11
76.8976529999999912
21
-87.8648379999999918
0
LINE
8
BLACK
6
CONTINUOUS
10
78.7071770000000015
20
-89.769599999999997
11
78.5167009999999976
21
-89.8648379999999918
0
LINE
8
BLACK
6
CONTINUOUS
10
78.5167009999999976
20
-89.8648379999999918
11
78.1357479999999924
21
-89.8648379999999918
0
LINE
8
BLACK
6
CONTINUOUS
10
78.1357479999999924
20
-89.8648379999999918
11
77.9452720000000028
21
-89.769599999999997
0
LINE
8
BLACK
6
CONTINUOUS
10
77.9452720000000028
20
-89.769599999999997
11
77.8500339999999937
21
-89.5791229999999956
0
LINE
8
BLACK
6
CONTINUOUS
10
77.8500339999999937
20
-89.5791229999999956
11
77.8500339999999937
21
-88.8172189999999944
0
LINE
8
BLACK
6
CONTINUOUS
10
77.8500339999999937
20
-88.8172189999999944
11
77.9452720000000028
21
-88.626741999999993
0
LINE
8
BLACK
6
CONTINUOUS
10
77.9452720000000028
20
-88.626741999999993
11
78.1357479999999924
21
-88.5315039999999982
0
LINE
8
BLACK
6
CONTINUOUS
10
78.1357479999999924
20
-88.5315039999999982
11
78.5167009999999976
21
-88.5315039999999982
0
LINE
8
BLACK
6
CONTINUOUS
10
78.5167009999999976
20
-88.5315039999999982
11
78.7071770000000015
21
-88.626741999999993
0
LINE
8
BLACK
6
CONTINUOUS
10
78.7071770000000015
20
-88.626741999999993
11
78.8024149999999963
21
-88.8172189999999944
0
LINE
8
BLACK
6
CONTINUOUS
10
78.8024149999999963
20
-88.8172189999999944
11
78.8024149999999963
21
-89.0076949999999982
0
LINE
8
BLACK
6
CONTINUOUS
10
78.8024149999999963
20
-89.0076949999999982
11
77.8500339999999937
21
-89.1981710000000021
0
LINE
8
BLACK
6
CONTINUOUS
10
79.564319999999995
20
-89.769599999999997
11
79.7547959999999989
21
-89.8648379999999918
0
LINE
8
BLACK
6
CONTINUOUS
10
79.7547959999999989
20
-89.8648379999999918
11
80.1357479999999924
21
-89.8648379999999918
0
LINE
8
BLACK
6
CONTINUOUS
10
80.1357479999999924
20
-89.8648379999999918
11
80.3262249999999938
21
-89.769599999999997
0
LINE
8
BLACK
6
CONTINUOUS
10
80.3262249999999938
20
-89.769599999999997
11
80.4214630000000028
21
-89.5791229999999956
0
LINE
8
BLACK
6
CONTINUOUS
10
80.4214630000000028
20
-89.5791229999999956
11
80.4214630000000028
21
-89.4838850000000008
0
LINE
8
BLACK
6
CONTINUOUS
10
80.4214630000000028
20
-89.4838850000000008
11
80.3262249999999938
21
-89.2934089999999969
0
LINE
8
BLACK
6
CONTINUOUS
10
80.3262249999999938
20
-89.2934089999999969
11
80.1357479999999924
21
-89.1981710000000021
0
LINE
8
BLACK
6
CONTINUOUS
10
80.1357479999999924
20
-89.1981710000000021
11
79.8500339999999937
21
-89.1981710000000021
0
LINE
8
BLACK
6
CONTINUOUS
10
79.8500339999999937
20
-89.1981710000000021
11
79.6595579999999899
21
-89.1029329999999931
0
LINE
8
BLACK
6
CONTINUOUS
10
79.6595579999999899
20
-89.1029329999999931
11
79.564319999999995
21
-88.9124569999999892
0
LINE
8
BLACK
6
CONTINUOUS
10
79.564319999999995
20
-88.9124569999999892
11
79.564319999999995
21
-88.8172189999999944
0
LINE
8
BLACK
6
CONTINUOUS
10
79.564319999999995
20
-88.8172189999999944
11
79.6595579999999899
21
-88.626741999999993
0
LINE
8
BLACK
6
CONTINUOUS
10
79.6595579999999899
20
-88.626741999999993
11
79.8500339999999937
21
-88.5315039999999982
0
LINE
8
BLACK
6
CONTINUOUS
10
79.8500339999999937
20
-88.5315039999999982
11
80.1357479999999924
21
-88.5315039999999982
0
LINE
8
BLACK
6
CONTINUOUS
10
80.1357479999999924
20
-88.5315039999999982
11
80.3262249999999938
21
-88.626741999999993
0
LINE
8
BLACK
6
CONTINUOUS
10
81.0881299999999925
20
-90.626741999999993
11
81.1833680000000015
21
-90.5315039999999982
0
LINE
8
BLACK
6
CONTINUOUS
10
81.1833680000000015
20
-90.5315039999999982
11
81.3738439999999912
21
-90.2457899999999995
0
LINE
8
BLACK
6
CONTINUOUS
10
81.3738439999999912
20
-90.2457899999999995
11
81.4690820000000002
21
-90.0553139999999956
0
LINE
8
BLACK
6
CONTINUOUS
10
81.4690820000000002
20
-90.0553139999999956
11
81.564319999999995
21
-89.769599999999997
0
LINE
8
BLACK
6
CONTINUOUS
10
81.564319999999995
20
-89.769599999999997
11
81.6595579999999899
21
-89.2934089999999969
0
LINE
8
BLACK
6
CONTINUOUS
10
81.6595579999999899
20
-89.2934089999999969
11
81.6595579999999899
21
-88.9124569999999892
0
LINE
8
BLACK
6
CONTINUOUS
10
81.6595579999999899
20
-88.9124569999999892
11
81.564319999999995
21
-88.4362659999999892
0
LINE
8
BLACK
6
CONTINUOUS
10
81.564319999999995
20
-88.4362659999999892
11
81.4690820000000002
21
-88.1505519999999905
0
LINE
8
BLACK
6
CONTINUOUS
10
81.4690820000000002
20
-88.1505519999999905
11
81.3738439999999912
21
-87.9600760000000008
0
LINE
8
BLACK
6
CONTINUOUS
10
81.3738439999999912
20
-87.9600760000000008
11
81.1833680000000015
21
-87.6743609999999904
0
LINE
8
BLACK
6
CONTINUOUS
10
81.1833680000000015
20
-87.6743609999999904
11
81.0881299999999925
21
-87.5791229999999956
0
CIRCLE
8
BLACK
10
32.9375
20
-91.5899999999999892
40
0.4
0
LINE
8
BLACK
6
CONTINUOUS
10
36.3262199999999993
20
-90.5048379999999923
11
36.5166970000000006
21
-90.5048379999999923
0
LINE
8
BLACK
6
CONTINUOUS
10
36.5166970000000006
20
-90.5048379999999923
11
36.7071729999999974
21
-90.6000760000000014
0
LINE
8
BLACK
6
CONTINUOUS
10
36.7071729999999974
20
-90.6000760000000014
11
36.8024109999999993
21
-90.6953139999999962
0
LINE
8
BLACK
6
CONTINUOUS
10
36.8024109999999993
20
-90.6953139999999962
11
36.8976490000000013
21
-90.8857900000000001
0
LINE
8
BLACK
6
CONTINUOUS
10
36.8976490000000013
20
-90.8857900000000001
11
36.9928869999999961
21
-91.2667419999999936
0
LINE
8
BLACK
6
CONTINUOUS
10
36.9928869999999961
20
-91.2667419999999936
11
36.9928869999999961
21
-91.7429329999999936
0
LINE
8
BLACK
6
CONTINUOUS
10
36.9928869999999961
20
-91.7429329999999936
11
36.8976490000000013
21
-92.1238850000000014
0
LINE
8
BLACK
6
CONTINUOUS
10
36.8976490000000013
20
-92.1238850000000014
11
36.8024109999999993
21
-92.314360999999991
0
LINE
8
BLACK
6
CONTINUOUS
10
36.8024109999999993
20
-92.314360999999991
11
36.7071729999999974
21
-92.4095999999999975
0
LINE
8
BLACK
6
CONTINUOUS
10
36.7071729999999974
20
-92.4095999999999975
11
36.5166970000000006
21
-92.5048379999999923
0
LINE
8
BLACK
6
CONTINUOUS
10
36.5166970000000006
20
-92.5048379999999923
11
36.3262199999999993
21
-92.5048379999999923
0
LINE
8
BLACK
6
CONTINUOUS
10
36.3262199999999993
20
-92.5048379999999923
11
36.1357439999999954
21
-92.4095999999999975
0
LINE
8
BLACK
6
CONTINUOUS
10
36.1357439999999954
20
-92.4095999999999975
11
36.0405060000000006
21
-92.314360999999991
0
LINE
8
BLACK
6
CONTINUOUS
10
36.0405060000000006
20
-92.314360999999991
11
35.9452679999999987
21
-92.1238850000000014
0
LINE
8
BLACK
6
CONTINUOUS
10
35.9452679999999987
20
-92.1238850000000014
11
35.8500299999999967
21
-91.7429329999999936
0
LINE
8
BLACK
6
CONTINUOUS
10
35.8500299999999967
20
-91.7429329999999936
11
35.8500299999999967
21
-91.2667419999999936
0
LINE
8
BLACK
6
CONTINUOUS
10
35.8500299999999967
20
-91.2667419999999936
11
35.9452679999999987
21
-90.8857900000000001
0
LINE
8
BLACK
6
CONTINUOUS
10
35.9452679999999987
20
-90.8857900000000001
11
36.0405060000000006
21
-90.6953139999999962
0
LINE
8
BLACK
6
CONTINUOUS
10
36.0405060000000006
20
-90.6953139999999962
11
36.1357439999999954
21
-90.6000760000000014
0
LINE
8
BLACK
6
CONTINUOUS
10
36.1357439999999954
20
-90.6000760000000014
11
36.3262199999999993
21
-90.5048379999999923
0
LINE
8
BLACK
6
CONTINUOUS
10
37.8500299999999967
20
-92.314360999999991
11
37.9452679999999987
21
-92.4095999999999975
0
LINE
8
BLACK
6
CONTINUOUS
10
37.9452679999999987
20
-92.4095999999999975
11
37.8500299999999967
21
-92.5048379999999923
0
LINE
8
BLACK
6
CONTINUOUS
10
37.8500299999999967
20
-92.5048379999999923
11
37.7547919999999948
21
-92.4095999999999975
0
LINE
8
BLACK
6
CONTINUOUS
10
37.7547919999999948
20
-92.4095999999999975
11
37.8500299999999967
21
-92.314360999999991
0
LINE
8
BLACK
6
CONTINUOUS
10
37.8500299999999967
20
-92.314360999999991
11
37.8500299999999967
21
-92.5048379999999923
0
LINE
8
BLACK
6
CONTINUOUS
10
39.088124999999998
20
-91.3619800000000026
11
38.8976490000000013
21
-91.2667419999999936
0
LINE
8
BLACK
6
CONTINUOUS
10
38.8976490000000013
20
-91.2667419999999936
11
38.8024109999999993
21
-91.1715039999999988
0
LINE
8
BLACK
6
CONTINUOUS
10
38.8024109999999993
20
-91.1715039999999988
11
38.7071729999999974
21
-90.9810279999999949
0
LINE
8
BLACK
6
CONTINUOUS
10
38.7071729999999974
20
-90.9810279999999949
11
38.7071729999999974
21
-90.8857900000000001
0
LINE
8
BLACK
6
CONTINUOUS
10
38.7071729999999974
20
-90.8857900000000001
11
38.8024109999999993
21
-90.6953139999999962
0
LINE
8
BLACK
6
CONTINUOUS
10
38.8024109999999993
20
-90.6953139999999962
11
38.8976490000000013
21
-90.6000760000000014
0
LINE
8
BLACK
6
CONTINUOUS
10
38.8976490000000013
20
-90.6000760000000014
11
39.088124999999998
21
-90.5048379999999923
0
LINE
8
BLACK
6
CONTINUOUS
10
39.088124999999998
20
-90.5048379999999923
11
39.4690779999999961
21
-90.5048379999999923
0
LINE
8
BLACK
6
CONTINUOUS
10
39.4690779999999961
20
-90.5048379999999923
11
39.659554
21
-90.6000760000000014
0
LINE
8
BLACK
6
CONTINUOUS
10
39.659554
20
-90.6000760000000014
11
39.7547919999999948
21
-90.6953139999999962
0
LINE
8
BLACK
6
CONTINUOUS
10
39.7547919999999948
20
-90.6953139999999962
11
39.8500299999999967
21
-90.8857900000000001
0
LINE
8
BLACK
6
CONTINUOUS
10
39.8500299999999967
20
-90.8857900000000001
11
39.8500299999999967
21
-90.9810279999999949
0
LINE
8
BLACK
6
CONTINUOUS
10
39.8500299999999967
20
-90.9810279999999949
11
39.7547919999999948
21
-91.1715039999999988
0
LINE
8
BLACK
6
CONTINUOUS
10
39.7547919999999948
20
-91.1715039999999988
11
39.659554
21
-91.2667419999999936
0
LINE
8
BLACK
6
CONTINUOUS
10
39.659554
20
-91.2667419999999936
11
39.4690779999999961
21
-91.3619800000000026
0
LINE
8
BLACK
6
CONTINUOUS
10
39.4690779999999961
20
-91.3619800000000026
11
39.088124999999998
21
-91.3619800000000026
0
LINE
8
BLACK
6
CONTINUOUS
10
39.088124999999998
20
-91.3619800000000026
11
38.8976490000000013
21
-91.4572189999999949
0
LINE
8
BLACK
6
CONTINUOUS
10
38.8976490000000013
20
-91.4572189999999949
11
38.8024109999999993
21
-91.5524569999999898
0
LINE
8
BLACK
6
CONTINUOUS
10
38.8024109999999993
20
-91.5524569999999898
11
38.7071729999999974
21
-91.7429329999999936
0
LINE
8
BLACK
6
CONTINUOUS
10
38.7071729999999974
20
-91.7429329999999936
11
38.7071729999999974
21
-92.1238850000000014
0
LINE
8
BLACK
6
CONTINUOUS
10
38.7071729999999974
20
-92.1238850000000014
11
38.8024109999999993
21
-92.314360999999991
0
LINE
8
BLACK
6
CONTINUOUS
10
38.8024109999999993
20
-92.314360999999991
11
38.8976490000000013
21
-92.4095999999999975
0
LINE
8
BLACK
6
CONTINUOUS
10
38.8976490000000013
20
-92.4095999999999975
11
39.088124999999998
21
-92.5048379999999923
0
LINE
8
BLACK
6
CONTINUOUS
10
39.088124999999998
20
-92.5048379999999923
11
39.4690779999999961
21
-92.5048379999999923
0
LINE
8
BLACK
6
CONTINUOUS
10
39.4690779999999961
20
-92.5048379999999923
11
39.659554
21
-92.4095999999999975
0
LINE
8
BLACK
6
CONTINUOUS
10
39.659554
20
-92.4095999999999975
11
39.7547919999999948
21
-92.314360999999991
0
LINE
8
BLACK
6
CONTINUOUS
10
39.7547919999999948
20
-92.314360999999991
11
39.8500299999999967
21
-92.1238850000000014
0
LINE
8
BLACK
6
CONTINUOUS
10
39.8500299999999967
20
-92.1238850000000014
11
39.8500299999999967
21
-91.7429329999999936
0
LINE
8
BLACK
6
CONTINUOUS
10
39.8500299999999967
20
-91.7429329999999936
11
39.7547919999999948
21
-91.5524569999999898
0
LINE
8
BLACK
6
CONTINUOUS
10
39.7547919999999948
20
-91.5524569999999898
11
39.659554
21
-91.4572189999999949
0
LINE
8
BLACK
6
CONTINUOUS
10
39.659554
20
-91.4572189999999949
11
39.4690779999999961
21
-91.3619800000000026
0
LINE
8
BLACK
6
CONTINUOUS
10
41.088124999999998
20
-90.5048379999999923
11
41.2786019999999994
21
-90.5048379999999923
0
LINE
8
BLACK
6
CONTINUOUS
10
41.2786019999999994
20
-90.5048379999999923
11
41.4690779999999961
21
-90.6000760000000014
0
LINE
8
BLACK
6
CONTINUOUS
10
41.4690779999999961
20
-90.6000760000000014
11
41.564315999999998
21
-90.6953139999999962
0
LINE
8
BLACK
6
CONTINUOUS
10
41.564315999999998
20
-90.6953139999999962
11
41.659554
21
-90.8857900000000001
0
LINE
8
BLACK
6
CONTINUOUS
10
41.659554
20
-90.8857900000000001
11
41.7547919999999948
21
-91.2667419999999936
0
LINE
8
BLACK
6
CONTINUOUS
10
41.7547919999999948
20
-91.2667419999999936
11
41.7547919999999948
21
-91.7429329999999936
0
LINE
8
BLACK
6
CONTINUOUS
10
41.7547919999999948
20
-91.7429329999999936
11
41.659554
21
-92.1238850000000014
0
LINE
8
BLACK
6
CONTINUOUS
10
41.659554
20
-92.1238850000000014
11
41.564315999999998
21
-92.314360999999991
0
LINE
8
BLACK
6
CONTINUOUS
10
41.564315999999998
20
-92.314360999999991
11
41.4690779999999961
21
-92.4095999999999975
0
LINE
8
BLACK
6
CONTINUOUS
10
41.4690779999999961
20
-92.4095999999999975
11
41.2786019999999994
21
-92.5048379999999923
0
LINE
8
BLACK
6
CONTINUOUS
10
41.2786019999999994
20
-92.5048379999999923
11
41.088124999999998
21
-92.5048379999999923
0
LINE
8
BLACK
6
CONTINUOUS
10
41.088124999999998
20
-92.5048379999999923
11
40.8976490000000013
21
-92.4095999999999975
0
LINE
8
BLACK
6
CONTINUOUS
10
40.8976490000000013
20
-92.4095999999999975
11
40.8024109999999993
21
-92.314360999999991
0
LINE
8
BLACK
6
CONTINUOUS
10
40.8024109999999993
20
-92.314360999999991
11
40.7071729999999974
21
-92.1238850000000014
0
LINE
8
BLACK
6
CONTINUOUS
10
40.7071729999999974
20
-92.1238850000000014
11
40.6119349999999955
21
-91.7429329999999936
0
LINE
8
BLACK
6
CONTINUOUS
10
40.6119349999999955
20
-91.7429329999999936
11
40.6119349999999955
21
-91.2667419999999936
0
LINE
8
BLACK
6
CONTINUOUS
10
40.6119349999999955
20
-91.2667419999999936
11
40.7071729999999974
21
-90.8857900000000001
0
LINE
8
BLACK
6
CONTINUOUS
10
40.7071729999999974
20
-90.8857900000000001
11
40.8024109999999993
21
-90.6953139999999962
0
LINE
8
BLACK
6
CONTINUOUS
10
40.8024109999999993
20
-90.6953139999999962
11
40.8976490000000013
21
-90.6000760000000014
0
LINE
8
BLACK
6
CONTINUOUS
10
40.8976490000000013
20
-90.6000760000000014
11
41.088124999999998
21
-90.5048379999999923
0
LINE
8
BLACK
6
CONTINUOUS
10
42.9928869999999961
20
-90.5048379999999923
11
43.1833639999999974
21
-90.5048379999999923
0
LINE
8
BLACK
6
CONTINUOUS
10
43.1833639999999974
20
-90.5048379999999923
11
43.3738400000000013
21
-90.6000760000000014
0
LINE
8
BLACK
6
CONTINUOUS
10
43.3738400000000013
20
-90.6000760000000014
11
43.4690779999999961
21
-90.6953139999999962
0
LINE
8
BLACK
6
CONTINUOUS
10
43.4690779999999961
20
-90.6953139999999962
11
43.564315999999998
21
-90.8857900000000001
0
LINE
8
BLACK
6
CONTINUOUS
10
43.564315999999998
20
-90.8857900000000001
11
43.659554
21
-91.2667419999999936
0
LINE
8
BLACK
6
CONTINUOUS
10
43.659554
20
-91.2667419999999936
11
43.659554
21
-91.7429329999999936
0
LINE
8
BLACK
6
CONTINUOUS
10
43.659554
20
-91.7429329999999936
11
43.564315999999998
21
-92.1238850000000014
0
LINE
8
BLACK
6
CONTINUOUS
10
43.564315999999998
20
-92.1238850000000014
11
43.4690779999999961
21
-92.314360999999991
0
LINE
8
BLACK
6
CONTINUOUS
10
43.4690779999999961
20
-92.314360999999991
11
43.3738400000000013
21
-92.4095999999999975
0
LINE
8
BLACK
6
CONTINUOUS
10
43.3738400000000013
20
-92.4095999999999975
11
43.1833639999999974
21
-92.5048379999999923
0
LINE
8
BLACK
6
CONTINUOUS
10
43.1833639999999974
20
-92.5048379999999923
11
42.9928869999999961
21
-92.5048379999999923
0
LINE
8
BLACK
6
CONTINUOUS
10
42.9928869999999961
20
-92.5048379999999923
11
42.8024109999999993
21
-92.4095999999999975
0
LINE
8
BLACK
6
CONTINUOUS
10
42.8024109999999993
20
-92.4095999999999975
11
42.7071729999999974
21
-92.314360999999991
0
LINE
8
BLACK
6
CONTINUOUS
10
42.7071729999999974
20
-92.314360999999991
11
42.6119349999999955
21
-92.1238850000000014
0
LINE
8
BLACK
6
CONTINUOUS
10
42.6119349999999955
20
-92.1238850000000014
11
42.5166970000000006
21
-91.7429329999999936
0
LINE
8
BLACK
6
CONTINUOUS
10
42.5166970000000006
20
-91.7429329999999936
11
42.5166970000000006
21
-91.2667419999999936
0
LINE
8
BLACK
6
CONTINUOUS
10
42.5166970000000006
20
-91.2667419999999936
11
42.6119349999999955
21
-90.8857900000000001
0
LINE
8
BLACK
6
CONTINUOUS
10
42.6119349999999955
20
-90.8857900000000001
11
42.7071729999999974
21
-90.6953139999999962
0
LINE
8
BLACK
6
CONTINUOUS
10
42.7071729999999974
20
-90.6953139999999962
11
42.8024109999999993
21
-90.6000760000000014
0
LINE
8
BLACK
6
CONTINUOUS
10
42.8024109999999993
20
-90.6000760000000014
11
42.9928869999999961
21
-90.5048379999999923
0
LINE
8
BLACK
6
CONTINUOUS
10
44.5166970000000006
20
-92.5048379999999923
11
44.5166970000000006
21
-91.1715039999999988
0
LINE
8
BLACK
6
CONTINUOUS
10
44.5166970000000006
20
-91.3619800000000026
11
44.6119349999999955
21
-91.2667419999999936
0
LINE
8
BLACK
6
CONTINUOUS
10
44.6119349999999955
20
-91.2667419999999936
11
44.8024109999999993
21
-91.1715039999999988
0
LINE
8
BLACK
6
CONTINUOUS
10
44.8024109999999993
20
-91.1715039999999988
11
45.0881259999999955
21
-91.1715039999999988
0
LINE
8
BLACK
6
CONTINUOUS
10
45.0881259999999955
20
-91.1715039999999988
11
45.2786019999999994
21
-91.2667419999999936
0
LINE
8
BLACK
6
CONTINUOUS
10
45.2786019999999994
20
-91.2667419999999936
11
45.3738400000000013
21
-91.4572189999999949
0
LINE
8
BLACK
6
CONTINUOUS
10
45.3738400000000013
20
-91.4572189999999949
11
45.3738400000000013
21
-92.5048379999999923
0
LINE
8
BLACK
6
CONTINUOUS
10
45.3738400000000013
20
-91.4572189999999949
11
45.4690779999999961
21
-91.2667419999999936
0
LINE
8
BLACK
6
CONTINUOUS
10
45.4690779999999961
20
-91.2667419999999936
11
45.659554
21
-91.1715039999999988
0
LINE
8
BLACK
6
CONTINUOUS
10
45.659554
20
-91.1715039999999988
11
45.9452679999999987
21
-91.1715039999999988
0
LINE
8
BLACK
6
CONTINUOUS
10
45.9452679999999987
20
-91.1715039999999988
11
46.135745
21
-91.2667419999999936
0
LINE
8
BLACK
6
CONTINUOUS
10
46.135745
20
-91.2667419999999936
11
46.2309829999999948
21
-91.4572189999999949
0
LINE
8
BLACK
6
CONTINUOUS
10
46.2309829999999948
20
-91.4572189999999949
11
46.2309829999999948
21
-92.5048379999999923
0
LINE
8
BLACK
6
CONTINUOUS
10
47.1833639999999974
20
-92.5048379999999923
11
47.1833639999999974
21
-91.1715039999999988
0
LINE
8
BLACK
6
CONTINUOUS
10
47.1833639999999974
20
-91.3619800000000026
11
47.2786019999999994
21
-91.2667419999999936
0
LINE
8
BLACK
6
CONTINUOUS
10
47.2786019999999994
20
-91.2667419999999936
11
47.4690779999999961
21
-91.1715039999999988
0
LINE
8
BLACK
6
CONTINUOUS
10
47.4690779999999961
20
-91.1715039999999988
11
47.7547929999999994
21
-91.1715039999999988
0
LINE
8
BLACK
6
CONTINUOUS
10
47.7547929999999994
20
-91.1715039999999988
11
47.9452689999999961
21
-91.2667419999999936
0
LINE
8
BLACK
6
CONTINUOUS
10
47.9452689999999961
20
-91.2667419999999936
11
48.0405069999999981
21
-91.4572189999999949
0
LINE
8
BLACK
6
CONTINUOUS
10
48.0405069999999981
20
-91.4572189999999949
11
48.0405069999999981
21
-92.5048379999999923
0
LINE
8
BLACK
6
CONTINUOUS
10
48.0405069999999981
20
-91.4572189999999949
11
48.135745
21
-91.2667419999999936
0
LINE
8
BLACK
6
CONTINUOUS
10
48.135745
20
-91.2667419999999936
11
48.3262209999999968
21
-91.1715039999999988
0
LINE
8
BLACK
6
CONTINUOUS
10
48.3262209999999968
20
-91.1715039999999988
11
48.6119349999999955
21
-91.1715039999999988
0
LINE
8
BLACK
6
CONTINUOUS
10
48.6119349999999955
20
-91.1715039999999988
11
48.8024119999999968
21
-91.2667419999999936
0
LINE
8
BLACK
6
CONTINUOUS
10
48.8024119999999968
20
-91.2667419999999936
11
48.8976499999999987
21
-91.4572189999999949
0
LINE
8
BLACK
6
CONTINUOUS
10
48.8976499999999987
20
-91.4572189999999949
11
48.8976499999999987
21
-92.5048379999999923
0
LINE
8
BLACK
6
CONTINUOUS
10
52.8024119999999968
20
-90.4095999999999975
11
51.0881270000000001
21
-92.9810279999999949
0
LINE
8
BLACK
6
CONTINUOUS
10
55.3738409999999988
20
-90.5048379999999923
11
55.5643180000000001
21
-90.5048379999999923
0
LINE
8
BLACK
6
CONTINUOUS
10
55.5643180000000001
20
-90.5048379999999923
11
55.7547939999999969
21
-90.6000760000000014
0
LINE
8
BLACK
6
CONTINUOUS
10
55.7547939999999969
20
-90.6000760000000014
11
55.8500319999999988
21
-90.6953139999999962
0
LINE
8
BLACK
6
CONTINUOUS
10
55.8500319999999988
20
-90.6953139999999962
11
55.9452700000000007
21
-90.8857900000000001
0
LINE
8
BLACK
6
CONTINUOUS
10
55.9452700000000007
20
-90.8857900000000001
11
56.0405079999999955
21
-91.2667419999999936
0
LINE
8
BLACK
6
CONTINUOUS
10
56.0405079999999955
20
-91.2667419999999936
11
56.0405079999999955
21
-91.7429329999999936
0
LINE
8
BLACK
6
CONTINUOUS
10
56.0405079999999955
20
-91.7429329999999936
11
55.9452700000000007
21
-92.1238850000000014
0
LINE
8
BLACK
6
CONTINUOUS
10
55.9452700000000007
20
-92.1238850000000014
11
55.8500319999999988
21
-92.314360999999991
0
LINE
8
BLACK
6
CONTINUOUS
10
55.8500319999999988
20
-92.314360999999991
11
55.7547939999999969
21
-92.4095999999999975
0
LINE
8
BLACK
6
CONTINUOUS
10
55.7547939999999969
20
-92.4095999999999975
11
55.5643180000000001
21
-92.5048379999999923
0
LINE
8
BLACK
6
CONTINUOUS
10
55.5643180000000001
20
-92.5048379999999923
11
55.3738409999999988
21
-92.5048379999999923
0
LINE
8
BLACK
6
CONTINUOUS
10
55.3738409999999988
20
-92.5048379999999923
11
55.1833649999999949
21
-92.4095999999999975
0
LINE
8
BLACK
6
CONTINUOUS
10
55.1833649999999949
20
-92.4095999999999975
11
55.0881270000000001
21
-92.314360999999991
0
LINE
8
BLACK
6
CONTINUOUS
10
55.0881270000000001
20
-92.314360999999991
11
54.9928889999999981
21
-92.1238850000000014
0
LINE
8
BLACK
6
CONTINUOUS
10
54.9928889999999981
20
-92.1238850000000014
11
54.8976509999999962
21
-91.7429329999999936
0
LINE
8
BLACK
6
CONTINUOUS
10
54.8976509999999962
20
-91.7429329999999936
11
54.8976509999999962
21
-91.2667419999999936
0
LINE
8
BLACK
6
CONTINUOUS
10
54.8976509999999962
20
-91.2667419999999936
11
54.9928889999999981
21
-90.8857900000000001
0
LINE
8
BLACK
6
CONTINUOUS
10
54.9928889999999981
20
-90.8857900000000001
11
55.0881270000000001
21
-90.6953139999999962
0
LINE
8
BLACK
6
CONTINUOUS
10
55.0881270000000001
20
-90.6953139999999962
11
55.1833649999999949
21
-90.6000760000000014
0
LINE
8
BLACK
6
CONTINUOUS
10
55.1833649999999949
20
-90.6000760000000014
11
55.3738409999999988
21
-90.5048379999999923
0
LINE
8
BLACK
6
CONTINUOUS
10
56.8976509999999962
20
-92.314360999999991
11
56.9928889999999981
21
-92.4095999999999975
0
LINE
8
BLACK
6
CONTINUOUS
10
56.9928889999999981
20
-92.4095999999999975
11
56.8976509999999962
21
-92.5048379999999923
0
LINE
8
BLACK
6
CONTINUOUS
10
56.8976509999999962
20
-92.5048379999999923
11
56.8024129999999943
21
-92.4095999999999975
0
LINE
8
BLACK
6
CONTINUOUS
10
56.8024129999999943
20
-92.4095999999999975
11
56.8976509999999962
21
-92.314360999999991
0
LINE
8
BLACK
6
CONTINUOUS
10
56.8976509999999962
20
-92.314360999999991
11
56.8976509999999962
21
-92.5048379999999923
0
LINE
8
BLACK
6
CONTINUOUS
10
58.2309839999999994
20
-90.5048379999999923
11
58.4214610000000008
21
-90.5048379999999923
0
LINE
8
BLACK
6
CONTINUOUS
10
58.4214610000000008
20
-90.5048379999999923
11
58.6119369999999975
21
-90.6000760000000014
0
LINE
8
BLACK
6
CONTINUOUS
10
58.6119369999999975
20
-90.6000760000000014
11
58.7071749999999994
21
-90.6953139999999962
0
LINE
8
BLACK
6
CONTINUOUS
10
58.7071749999999994
20
-90.6953139999999962
11
58.8024129999999943
21
-90.8857900000000001
0
LINE
8
BLACK
6
CONTINUOUS
10
58.8024129999999943
20
-90.8857900000000001
11
58.8976509999999962
21
-91.2667419999999936
0
LINE
8
BLACK
6
CONTINUOUS
10
58.8976509999999962
20
-91.2667419999999936
11
58.8976509999999962
21
-91.7429329999999936
0
LINE
8
BLACK
6
CONTINUOUS
10
58.8976509999999962
20
-91.7429329999999936
11
58.8024129999999943
21
-92.1238850000000014
0
LINE
8
BLACK
6
CONTINUOUS
10
58.8024129999999943
20
-92.1238850000000014
11
58.7071749999999994
21
-92.314360999999991
0
LINE
8
BLACK
6
CONTINUOUS
10
58.7071749999999994
20
-92.314360999999991
11
58.6119369999999975
21
-92.4095999999999975
0
LINE
8
BLACK
6
CONTINUOUS
10
58.6119369999999975
20
-92.4095999999999975
11
58.4214610000000008
21
-92.5048379999999923
0
LINE
8
BLACK
6
CONTINUOUS
10
58.4214610000000008
20
-92.5048379999999923
11
58.2309839999999994
21
-92.5048379999999923
0
LINE
8
BLACK
6
CONTINUOUS
10
58.2309839999999994
20
-92.5048379999999923
11
58.0405079999999955
21
-92.4095999999999975
0
LINE
8
BLACK
6
CONTINUOUS
10
58.0405079999999955
20
-92.4095999999999975
11
57.9452700000000007
21
-92.314360999999991
0
LINE
8
BLACK
6
CONTINUOUS
10
57.9452700000000007
20
-92.314360999999991
11
57.8500319999999988
21
-92.1238850000000014
0
LINE
8
BLACK
6
CONTINUOUS
10
57.8500319999999988
20
-92.1238850000000014
11
57.7547939999999969
21
-91.7429329999999936
0
LINE
8
BLACK
6
CONTINUOUS
10
57.7547939999999969
20
-91.7429329999999936
11
57.7547939999999969
21
-91.2667419999999936
0
LINE
8
BLACK
6
CONTINUOUS
10
57.7547939999999969
20
-91.2667419999999936
11
57.8500319999999988
21
-90.8857900000000001
0
LINE
8
BLACK
6
CONTINUOUS
10
57.8500319999999988
20
-90.8857900000000001
11
57.9452700000000007
21
-90.6953139999999962
0
LINE
8
BLACK
6
CONTINUOUS
10
57.9452700000000007
20
-90.6953139999999962
11
58.0405079999999955
21
-90.6000760000000014
0
LINE
8
BLACK
6
CONTINUOUS
10
58.0405079999999955
20
-90.6000760000000014
11
58.2309839999999994
21
-90.5048379999999923
0
LINE
8
BLACK
6
CONTINUOUS
10
59.5643180000000001
20
-90.5048379999999923
11
60.8024129999999943
21
-90.5048379999999923
0
LINE
8
BLACK
6
CONTINUOUS
10
60.8024129999999943
20
-90.5048379999999923
11
60.1357459999999975
21
-91.2667419999999936
0
LINE
8
BLACK
6
CONTINUOUS
10
60.1357459999999975
20
-91.2667419999999936
11
60.4214610000000008
21
-91.2667419999999936
0
LINE
8
BLACK
6
CONTINUOUS
10
60.4214610000000008
20
-91.2667419999999936
11
60.6119369999999975
21
-91.3619800000000026
0
LINE
8
BLACK
6
CONTINUOUS
10
60.6119369999999975
20
-91.3619800000000026
11
60.7071749999999994
21
-91.4572189999999949
0
LINE
8
BLACK
6
CONTINUOUS
10
60.7071749999999994
20
-91.4572189999999949
11
60.8024129999999943
21
-91.6476949999999988
0
LINE
8
BLACK
6
CONTINUOUS
10
60.8024129999999943
20
-91.6476949999999988
11
60.8024129999999943
21
-92.1238850000000014
0
LINE
8
BLACK
6
CONTINUOUS
10
60.8024129999999943
20
-92.1238850000000014
11
60.7071749999999994
21
-92.314360999999991
0
LINE
8
BLACK
6
CONTINUOUS
10
60.7071749999999994
20
-92.314360999999991
11
60.6119369999999975
21
-92.4095999999999975
0
LINE
8
BLACK
6
CONTINUOUS
10
60.6119369999999975
20
-92.4095999999999975
11
60.4214610000000008
21
-92.5048379999999923
0
LINE
8
BLACK
6
CONTINUOUS
10
60.4214610000000008
20
-92.5048379999999923
11
59.8500319999999988
21
-92.5048379999999923
0
LINE
8
BLACK
6
CONTINUOUS
10
59.8500319999999988
20
-92.5048379999999923
11
59.6595559999999949
21
-92.4095999999999975
0
LINE
8
BLACK
6
CONTINUOUS
10
59.6595559999999949
20
-92.4095999999999975
11
59.5643180000000001
21
-92.314360999999991
0
LINE
8
BLACK
6
CONTINUOUS
10
62.7071749999999994
20
-92.5048379999999923
11
61.5643180000000001
21
-92.5048379999999923
0
LINE
8
BLACK
6
CONTINUOUS
10
62.1357459999999975
20
-92.5048379999999923
11
62.1357459999999975
21
-90.5048379999999923
0
LINE
8
BLACK
6
CONTINUOUS
10
62.1357459999999975
20
-90.5048379999999923
11
61.9452700000000007
21
-90.790551999999991
0
LINE
8
BLACK
6
CONTINUOUS
10
61.9452700000000007
20
-90.790551999999991
11
61.7547939999999969
21
-90.9810279999999949
0
LINE
8
BLACK
6
CONTINUOUS
10
61.7547939999999969
20
-90.9810279999999949
11
61.5643180000000001
21
-91.0762659999999897
0
LINE
8
BLACK
6
CONTINUOUS
10
64.5166990000000027
20
-90.5048379999999923
11
63.5643180000000001
21
-90.5048379999999923
0
LINE
8
BLACK
6
CONTINUOUS
10
63.5643180000000001
20
-90.5048379999999923
11
63.4690799999999982
21
-91.4572189999999949
0
LINE
8
BLACK
6
CONTINUOUS
10
63.4690799999999982
20
-91.4572189999999949
11
63.5643180000000001
21
-91.3619800000000026
0
LINE
8
BLACK
6
CONTINUOUS
10
63.5643180000000001
20
-91.3619800000000026
11
63.7547939999999969
21
-91.2667419999999936
0
LINE
8
BLACK
6
CONTINUOUS
10
63.7547939999999969
20
-91.2667419999999936
11
64.230985000000004
21
-91.2667419999999936
0
LINE
8
BLACK
6
CONTINUOUS
10
64.230985000000004
20
-91.2667419999999936
11
64.4214609999999936
21
-91.3619800000000026
0
LINE
8
BLACK
6
CONTINUOUS
10
64.4214609999999936
20
-91.3619800000000026
11
64.5166990000000027
21
-91.4572189999999949
0
LINE
8
BLACK
6
CONTINUOUS
10
64.5166990000000027
20
-91.4572189999999949
11
64.6119369999999975
21
-91.6476949999999988
0
LINE
8
BLACK
6
CONTINUOUS
10
64.6119369999999975
20
-91.6476949999999988
11
64.6119369999999975
21
-92.1238850000000014
0
LINE
8
BLACK
6
CONTINUOUS
10
64.6119369999999975
20
-92.1238850000000014
11
64.5166990000000027
21
-92.314360999999991
0
LINE
8
BLACK
6
CONTINUOUS
10
64.5166990000000027
20
-92.314360999999991
11
64.4214609999999936
21
-92.4095999999999975
0
LINE
8
BLACK
6
CONTINUOUS
10
64.4214609999999936
20
-92.4095999999999975
11
64.230985000000004
21
-92.5048379999999923
0
LINE
8
BLACK
6
CONTINUOUS
10
64.230985000000004
20
-92.5048379999999923
11
63.7547939999999969
21
-92.5048379999999923
0
LINE
8
BLACK
6
CONTINUOUS
10
63.7547939999999969
20
-92.5048379999999923
11
63.5643180000000001
21
-92.4095999999999975
0
LINE
8
BLACK
6
CONTINUOUS
10
63.5643180000000001
20
-92.4095999999999975
11
63.4690799999999982
21
-92.314360999999991
0
LINE
8
BLACK
6
CONTINUOUS
10
65.3738419999999962
20
-90.5048379999999923
11
65.3738419999999962
21
-90.8857900000000001
0
LINE
8
BLACK
6
CONTINUOUS
10
66.135746999999995
20
-90.5048379999999923
11
66.135746999999995
21
-90.8857900000000001
0
LINE
8
BLACK
6
CONTINUOUS
10
69.088128999999995
20
-93.2667419999999936
11
68.9928900000000027
21
-93.1715039999999988
0
LINE
8
BLACK
6
CONTINUOUS
10
68.9928900000000027
20
-93.1715039999999988
11
68.8024139999999989
21
-92.8857900000000001
0
LINE
8
BLACK
6
CONTINUOUS
10
68.8024139999999989
20
-92.8857900000000001
11
68.7071759999999898
21
-92.6953139999999962
0
LINE
8
BLACK
6
CONTINUOUS
10
68.7071759999999898
20
-92.6953139999999962
11
68.611937999999995
21
-92.4095999999999975
0
LINE
8
BLACK
6
CONTINUOUS
10
68.611937999999995
20
-92.4095999999999975
11
68.5167000000000002
21
-91.9334089999999975
0
LINE
8
BLACK
6
CONTINUOUS
10
68.5167000000000002
20
-91.9334089999999975
11
68.5167000000000002
21
-91.5524569999999898
0
LINE
8
BLACK
6
CONTINUOUS
10
68.5167000000000002
20
-91.5524569999999898
11
68.611937999999995
21
-91.0762659999999897
0
LINE
8
BLACK
6
CONTINUOUS
10
68.611937999999995
20
-91.0762659999999897
11
68.7071759999999898
21
-90.790551999999991
0
LINE
8
BLACK
6
CONTINUOUS
10
68.7071759999999898
20
-90.790551999999991
11
68.8024139999999989
21
-90.6000760000000014
0
LINE
8
BLACK
6
CONTINUOUS
10
68.8024139999999989
20
-90.6000760000000014
11
68.9928900000000027
21
-90.314360999999991
0
LINE
8
BLACK
6
CONTINUOUS
10
68.9928900000000027
20
-90.314360999999991
11
69.088128999999995
21
-90.2191229999999962
0
LINE
8
BLACK
6
CONTINUOUS
10
69.7547950000000014
20
-90.6953139999999962
11
69.8500329999999963
21
-90.6000760000000014
0
LINE
8
BLACK
6
CONTINUOUS
10
69.8500329999999963
20
-90.6000760000000014
11
70.0405090000000001
21
-90.5048379999999923
0
LINE
8
BLACK
6
CONTINUOUS
10
70.0405090000000001
20
-90.5048379999999923
11
70.5167000000000002
21
-90.5048379999999923
0
LINE
8
BLACK
6
CONTINUOUS
10
70.5167000000000002
20
-90.5048379999999923
11
70.7071759999999898
21
-90.6000760000000014
0
LINE
8
BLACK
6
CONTINUOUS
10
70.7071759999999898
20
-90.6000760000000014
11
70.8024139999999989
21
-90.6953139999999962
0
LINE
8
BLACK
6
CONTINUOUS
10
70.8024139999999989
20
-90.6953139999999962
11
70.8976519999999937
21
-90.8857900000000001
0
LINE
8
BLACK
6
CONTINUOUS
10
70.8976519999999937
20
-90.8857900000000001
11
70.8976519999999937
21
-91.0762659999999897
0
LINE
8
BLACK
6
CONTINUOUS
10
70.8976519999999937
20
-91.0762659999999897
11
70.8024139999999989
21
-91.3619800000000026
0
LINE
8
BLACK
6
CONTINUOUS
10
70.8024139999999989
20
-91.3619800000000026
11
69.6595569999999924
21
-92.5048379999999923
0
LINE
8
BLACK
6
CONTINUOUS
10
69.6595569999999924
20
-92.5048379999999923
11
70.8976519999999937
21
-92.5048379999999923
0
LINE
8
BLACK
6
CONTINUOUS
10
71.6595569999999924
20
-90.6953139999999962
11
71.7547950000000014
21
-90.6000760000000014
0
LINE
8
BLACK
6
CONTINUOUS
10
71.7547950000000014
20
-90.6000760000000014
11
71.9452709999999911
21
-90.5048379999999923
0
LINE
8
BLACK
6
CONTINUOUS
10
71.9452709999999911
20
-90.5048379999999923
11
72.4214619999999911
21
-90.5048379999999923
0
LINE
8
BLACK
6
CONTINUOUS
10
72.4214619999999911
20
-90.5048379999999923
11
72.611937999999995
21
-90.6000760000000014
0
LINE
8
BLACK
6
CONTINUOUS
10
72.611937999999995
20
-90.6000760000000014
11
72.7071759999999898
21
-90.6953139999999962
0
LINE
8
BLACK
6
CONTINUOUS
10
72.7071759999999898
20
-90.6953139999999962
11
72.8024139999999989
21
-90.8857900000000001
0
LINE
8
BLACK
6
CONTINUOUS
10
72.8024139999999989
20
-90.8857900000000001
11
72.8024139999999989
21
-91.0762659999999897
0
LINE
8
BLACK
6
CONTINUOUS
10
72.8024139999999989
20
-91.0762659999999897
11
72.7071759999999898
21
-91.3619800000000026
0
LINE
8
BLACK
6
CONTINUOUS
10
72.7071759999999898
20
-91.3619800000000026
11
71.5643189999999976
21
-92.5048379999999923
0
LINE
8
BLACK
6
CONTINUOUS
10
71.5643189999999976
20
-92.5048379999999923
11
72.8024139999999989
21
-92.5048379999999923
0
LINE
8
BLACK
6
CONTINUOUS
10
75.1833669999999898
20
-92.5048379999999923
11
75.1833669999999898
21
-90.5048379999999923
0
LINE
8
BLACK
6
CONTINUOUS
10
76.0405099999999976
20
-92.5048379999999923
11
76.0405099999999976
21
-91.4572189999999949
0
LINE
8
BLACK
6
CONTINUOUS
10
76.0405099999999976
20
-91.4572189999999949
11
75.9452720000000028
21
-91.2667419999999936
0
LINE
8
BLACK
6
CONTINUOUS
10
75.9452720000000028
20
-91.2667419999999936
11
75.7547959999999989
21
-91.1715039999999988
0
LINE
8
BLACK
6
CONTINUOUS
10
75.7547959999999989
20
-91.1715039999999988
11
75.4690810000000027
21
-91.1715039999999988
0
LINE
8
BLACK
6
CONTINUOUS
10
75.4690810000000027
20
-91.1715039999999988
11
75.2786049999999989
21
-91.2667419999999936
0
LINE
8
BLACK
6
CONTINUOUS
10
75.2786049999999989
20
-91.2667419999999936
11
75.1833669999999898
21
-91.3619800000000026
0
LINE
8
BLACK
6
CONTINUOUS
10
77.2786049999999989
20
-92.5048379999999923
11
77.088128999999995
21
-92.4095999999999975
0
LINE
8
BLACK
6
CONTINUOUS
10
77.088128999999995
20
-92.4095999999999975
11
76.9928910000000002
21
-92.314360999999991
0
LINE
8
BLACK
6
CONTINUOUS
10
76.9928910000000002
20
-92.314360999999991
11
76.8976529999999912
21
-92.1238850000000014
0
LINE
8
BLACK
6
CONTINUOUS
10
76.8976529999999912
20
-92.1238850000000014
11
76.8976529999999912
21
-91.5524569999999898
0
LINE
8
BLACK
6
CONTINUOUS
10
76.8976529999999912
20
-91.5524569999999898
11
76.9928910000000002
21
-91.3619800000000026
0
LINE
8
BLACK
6
CONTINUOUS
10
76.9928910000000002
20
-91.3619800000000026
11
77.088128999999995
21
-91.2667419999999936
0
LINE
8
BLACK
6
CONTINUOUS
10
77.088128999999995
20
-91.2667419999999936
11
77.2786049999999989
21
-91.1715039999999988
0
LINE
8
BLACK
6
CONTINUOUS
10
77.2786049999999989
20
-91.1715039999999988
11
77.564319999999995
21
-91.1715039999999988
0
LINE
8
BLACK
6
CONTINUOUS
10
77.564319999999995
20
-91.1715039999999988
11
77.7547959999999989
21
-91.2667419999999936
0
LINE
8
BLACK
6
CONTINUOUS
10
77.7547959999999989
20
-91.2667419999999936
11
77.8500339999999937
21
-91.3619800000000026
0
LINE
8
BLACK
6
CONTINUOUS
10
77.8500339999999937
20
-91.3619800000000026
11
77.9452720000000028
21
-91.5524569999999898
0
LINE
8
BLACK
6
CONTINUOUS
10
77.9452720000000028
20
-91.5524569999999898
11
77.9452720000000028
21
-92.1238850000000014
0
LINE
8
BLACK
6
CONTINUOUS
10
77.9452720000000028
20
-92.1238850000000014
11
77.8500339999999937
21
-92.314360999999991
0
LINE
8
BLACK
6
CONTINUOUS
10
77.8500339999999937
20
-92.314360999999991
11
77.7547959999999989
21
-92.4095999999999975
0
LINE
8
BLACK
6
CONTINUOUS
10
77.7547959999999989
20
-92.4095999999999975
11
77.564319999999995
21
-92.5048379999999923
0
LINE
8
BLACK
6
CONTINUOUS
10
77.564319999999995
20
-92.5048379999999923
11
77.2786049999999989
21
-92.5048379999999923
0
LINE
8
BLACK
6
CONTINUOUS
10
79.088128999999995
20
-92.5048379999999923
11
78.8976529999999912
21
-92.4095999999999975
0
LINE
8
BLACK
6
CONTINUOUS
10
78.8976529999999912
20
-92.4095999999999975
11
78.8024149999999963
21
-92.2191229999999962
0
LINE
8
BLACK
6
CONTINUOUS
10
78.8024149999999963
20
-92.2191229999999962
11
78.8024149999999963
21
-90.5048379999999923
0
LINE
8
BLACK
6
CONTINUOUS
10
80.6119389999999925
20
-92.4095999999999975
11
80.4214630000000028
21
-92.5048379999999923
0
LINE
8
BLACK
6
CONTINUOUS
10
80.4214630000000028
20
-92.5048379999999923
11
80.0405099999999976
21
-92.5048379999999923
0
LINE
8
BLACK
6
CONTINUOUS
10
80.0405099999999976
20
-92.5048379999999923
11
79.8500339999999937
21
-92.4095999999999975
0
LINE
8
BLACK
6
CONTINUOUS
10
79.8500339999999937
20
-92.4095999999999975
11
79.7547959999999989
21
-92.2191229999999962
0
LINE
8
BLACK
6
CONTINUOUS
10
79.7547959999999989
20
-92.2191229999999962
11
79.7547959999999989
21
-91.4572189999999949
0
LINE
8
BLACK
6
CONTINUOUS
10
79.7547959999999989
20
-91.4572189999999949
11
79.8500339999999937
21
-91.2667419999999936
0
LINE
8
BLACK
6
CONTINUOUS
10
79.8500339999999937
20
-91.2667419999999936
11
80.0405099999999976
21
-91.1715039999999988
0
LINE
8
BLACK
6
CONTINUOUS
10
80.0405099999999976
20
-91.1715039999999988
11
80.4214630000000028
21
-91.1715039999999988
0
LINE
8
BLACK
6
CONTINUOUS
10
80.4214630000000028
20
-91.1715039999999988
11
80.6119389999999925
21
-91.2667419999999936
0
LINE
8
BLACK
6
CONTINUOUS
10
80.6119389999999925
20
-91.2667419999999936
11
80.7071770000000015
21
-91.4572189999999949
0
LINE
8
BLACK
6
CONTINUOUS
10
80.7071770000000015
20
-91.4572189999999949
11
80.7071770000000015
21
-91.6476949999999988
0
LINE
8
BLACK
6
CONTINUOUS
10
80.7071770000000015
20
-91.6476949999999988
11
79.7547959999999989
21
-91.8381710000000027
0
LINE
8
BLACK
6
CONTINUOUS
10
81.4690820000000002
20
-92.4095999999999975
11
81.6595579999999899
21
-92.5048379999999923
0
LINE
8
BLACK
6
CONTINUOUS
10
81.6595579999999899
20
-92.5048379999999923
11
82.0405099999999976
21
-92.5048379999999923
0
LINE
8
BLACK
6
CONTINUOUS
10
82.0405099999999976
20
-92.5048379999999923
11
82.2309869999999989
21
-92.4095999999999975
0
LINE
8
BLACK
6
CONTINUOUS
10
82.2309869999999989
20
-92.4095999999999975
11
82.3262249999999938
21
-92.2191229999999962
0
LINE
8
BLACK
6
CONTINUOUS
10
82.3262249999999938
20
-92.2191229999999962
11
82.3262249999999938
21
-92.1238850000000014
0
LINE
8
BLACK
6
CONTINUOUS
10
82.3262249999999938
20
-92.1238850000000014
11
82.2309869999999989
21
-91.9334089999999975
0
LINE
8
BLACK
6
CONTINUOUS
10
82.2309869999999989
20
-91.9334089999999975
11
82.0405099999999976
21
-91.8381710000000027
0
LINE
8
BLACK
6
CONTINUOUS
10
82.0405099999999976
20
-91.8381710000000027
11
81.7547959999999989
21
-91.8381710000000027
0
LINE
8
BLACK
6
CONTINUOUS
10
81.7547959999999989
20
-91.8381710000000027
11
81.564319999999995
21
-91.7429329999999936
0
LINE
8
BLACK
6
CONTINUOUS
10
81.564319999999995
20
-91.7429329999999936
11
81.4690820000000002
21
-91.5524569999999898
0
LINE
8
BLACK
6
CONTINUOUS
10
81.4690820000000002
20
-91.5524569999999898
11
81.4690820000000002
21
-91.4572189999999949
0
LINE
8
BLACK
6
CONTINUOUS
10
81.4690820000000002
20
-91.4572189999999949
11
81.564319999999995
21
-91.2667419999999936
0
LINE
8
BLACK
6
CONTINUOUS
10
81.564319999999995
20
-91.2667419999999936
11
81.7547959999999989
21
-91.1715039999999988
0
LINE
8
BLACK
6
CONTINUOUS
10
81.7547959999999989
20
-91.1715039999999988
11
82.0405099999999976
21
-91.1715039999999988
0
LINE
8
BLACK
6
CONTINUOUS
10
82.0405099999999976
20
-91.1715039999999988
11
82.2309869999999989
21
-91.2667419999999936
0
LINE
8
BLACK
6
CONTINUOUS
10
82.9928919999999977
20
-93.2667419999999936
11
83.0881299999999925
21
-93.1715039999999988
0
LINE
8
BLACK
6
CONTINUOUS
10
83.0881299999999925
20
-93.1715039999999988
11
83.2786059999999964
21
-92.8857900000000001
0
LINE
8
BLACK
6
CONTINUOUS
10
83.2786059999999964
20
-92.8857900000000001
11
83.3738439999999912
21
-92.6953139999999962
0
LINE
8
BLACK
6
CONTINUOUS
10
83.3738439999999912
20
-92.6953139999999962
11
83.4690820000000002
21
-92.4095999999999975
0
LINE
8
BLACK
6
CONTINUOUS
10
83.4690820000000002
20
-92.4095999999999975
11
83.564319999999995
21
-91.9334089999999975
0
LINE
8
BLACK
6
CONTINUOUS
10
83.564319999999995
20
-91.9334089999999975
11
83.564319999999995
21
-91.5524569999999898
0
LINE
8
BLACK
6
CONTINUOUS
10
83.564319999999995
20
-91.5524569999999898
11
83.4690820000000002
21
-91.0762659999999897
0
LINE
8
BLACK
6
CONTINUOUS
10
83.4690820000000002
20
-91.0762659999999897
11
83.3738439999999912
21
-90.790551999999991
0
LINE
8
BLACK
6
CONTINUOUS
10
83.3738439999999912
20
-90.790551999999991
11
83.2786059999999964
21
-90.6000760000000014
0
LINE
8
BLACK
6
CONTINUOUS
10
83.2786059999999964
20
-90.6000760000000014
11
83.0881299999999925
21
-90.314360999999991
0
LINE
8
BLACK
6
CONTINUOUS
10
83.0881299999999925
20
-90.314360999999991
11
82.9928919999999977
21
-90.2191229999999962
0
LINE
8
BLACK
6
CONTINUOUS
10
32.8374999999999986
20
-93.7299999999999898
11
32.8374999999999986
21
-94.7299999999999898
0
LINE
8
BLACK
6
CONTINUOUS
10
32.3374999999999986
20
-94.2299999999999898
11
33.3374999999999986
21
-94.2299999999999898
0
LINE
8
BLACK
6
CONTINUOUS
10
36.9928869999999961
20
-95.1448379999999929
11
35.8500299999999967
21
-95.1448379999999929
0
LINE
8
BLACK
6
CONTINUOUS
10
36.4214580000000012
20
-95.1448379999999929
11
36.4214580000000012
21
-93.1448379999999929
0
LINE
8
BLACK
6
CONTINUOUS
10
36.4214580000000012
20
-93.1448379999999929
11
36.2309819999999974
21
-93.4305519999999916
0
LINE
8
BLACK
6
CONTINUOUS
10
36.2309819999999974
20
-93.4305519999999916
11
36.0405060000000006
21
-93.6210279999999955
0
LINE
8
BLACK
6
CONTINUOUS
10
36.0405060000000006
20
-93.6210279999999955
11
35.8500299999999967
21
-93.7162659999999903
0
LINE
8
BLACK
6
CONTINUOUS
10
37.8500299999999967
20
-94.9543609999999916
11
37.9452679999999987
21
-95.0495999999999981
0
LINE
8
BLACK
6
CONTINUOUS
10
37.9452679999999987
20
-95.0495999999999981
11
37.8500299999999967
21
-95.1448379999999929
0
LINE
8
BLACK
6
CONTINUOUS
10
37.8500299999999967
20
-95.1448379999999929
11
37.7547919999999948
21
-95.0495999999999981
0
LINE
8
BLACK
6
CONTINUOUS
10
37.7547919999999948
20
-95.0495999999999981
11
37.8500299999999967
21
-94.9543609999999916
0
LINE
8
BLACK
6
CONTINUOUS
10
37.8500299999999967
20
-94.9543609999999916
11
37.8500299999999967
21
-95.1448379999999929
0
LINE
8
BLACK
6
CONTINUOUS
10
39.1833629999999999
20
-93.1448379999999929
11
39.3738400000000013
21
-93.1448379999999929
0
LINE
8
BLACK
6
CONTINUOUS
10
39.3738400000000013
20
-93.1448379999999929
11
39.564315999999998
21
-93.240076000000002
0
LINE
8
BLACK
6
CONTINUOUS
10
39.564315999999998
20
-93.240076000000002
11
39.659554
21
-93.3353139999999968
0
LINE
8
BLACK
6
CONTINUOUS
10
39.659554
20
-93.3353139999999968
11
39.7547919999999948
21
-93.5257900000000006
0
LINE
8
BLACK
6
CONTINUOUS
10
39.7547919999999948
20
-93.5257900000000006
11
39.8500299999999967
21
-93.9067419999999942
0
LINE
8
BLACK
6
CONTINUOUS
10
39.8500299999999967
20
-93.9067419999999942
11
39.8500299999999967
21
-94.3829329999999942
0
LINE
8
BLACK
6
CONTINUOUS
10
39.8500299999999967
20
-94.3829329999999942
11
39.7547919999999948
21
-94.7638850000000019
0
LINE
8
BLACK
6
CONTINUOUS
10
39.7547919999999948
20
-94.7638850000000019
11
39.659554
21
-94.9543609999999916
0
LINE
8
BLACK
6
CONTINUOUS
10
39.659554
20
-94.9543609999999916
11
39.564315999999998
21
-95.0495999999999981
0
LINE
8
BLACK
6
CONTINUOUS
10
39.564315999999998
20
-95.0495999999999981
11
39.3738400000000013
21
-95.1448379999999929
0
LINE
8
BLACK
6
CONTINUOUS
10
39.3738400000000013
20
-95.1448379999999929
11
39.1833629999999999
21
-95.1448379999999929
0
LINE
8
BLACK
6
CONTINUOUS
10
39.1833629999999999
20
-95.1448379999999929
11
38.9928869999999961
21
-95.0495999999999981
0
LINE
8
BLACK
6
CONTINUOUS
10
38.9928869999999961
20
-95.0495999999999981
11
38.8976490000000013
21
-94.9543609999999916
0
LINE
8
BLACK
6
CONTINUOUS
10
38.8976490000000013
20
-94.9543609999999916
11
38.8024109999999993
21
-94.7638850000000019
0
LINE
8
BLACK
6
CONTINUOUS
10
38.8024109999999993
20
-94.7638850000000019
11
38.7071729999999974
21
-94.3829329999999942
0
LINE
8
BLACK
6
CONTINUOUS
10
38.7071729999999974
20
-94.3829329999999942
11
38.7071729999999974
21
-93.9067419999999942
0
LINE
8
BLACK
6
CONTINUOUS
10
38.7071729999999974
20
-93.9067419999999942
11
38.8024109999999993
21
-93.5257900000000006
0
LINE
8
BLACK
6
CONTINUOUS
10
38.8024109999999993
20
-93.5257900000000006
11
38.8976490000000013
21
-93.3353139999999968
0
LINE
8
BLACK
6
CONTINUOUS
10
38.8976490000000013
20
-93.3353139999999968
11
38.9928869999999961
21
-93.240076000000002
0
LINE
8
BLACK
6
CONTINUOUS
10
38.9928869999999961
20
-93.240076000000002
11
39.1833629999999999
21
-93.1448379999999929
0
LINE
8
BLACK
6
CONTINUOUS
10
41.088124999999998
20
-93.1448379999999929
11
41.2786019999999994
21
-93.1448379999999929
0
LINE
8
BLACK
6
CONTINUOUS
10
41.2786019999999994
20
-93.1448379999999929
11
41.4690779999999961
21
-93.240076000000002
0
LINE
8
BLACK
6
CONTINUOUS
10
41.4690779999999961
20
-93.240076000000002
11
41.564315999999998
21
-93.3353139999999968
0
LINE
8
BLACK
6
CONTINUOUS
10
41.564315999999998
20
-93.3353139999999968
11
41.659554
21
-93.5257900000000006
0
LINE
8
BLACK
6
CONTINUOUS
10
41.659554
20
-93.5257900000000006
11
41.7547919999999948
21
-93.9067419999999942
0
LINE
8
BLACK
6
CONTINUOUS
10
41.7547919999999948
20
-93.9067419999999942
11
41.7547919999999948
21
-94.3829329999999942
0
LINE
8
BLACK
6
CONTINUOUS
10
41.7547919999999948
20
-94.3829329999999942
11
41.659554
21
-94.7638850000000019
0
LINE
8
BLACK
6
CONTINUOUS
10
41.659554
20
-94.7638850000000019
11
41.564315999999998
21
-94.9543609999999916
0
LINE
8
BLACK
6
CONTINUOUS
10
41.564315999999998
20
-94.9543609999999916
11
41.4690779999999961
21
-95.0495999999999981
0
LINE
8
BLACK
6
CONTINUOUS
10
41.4690779999999961
20
-95.0495999999999981
11
41.2786019999999994
21
-95.1448379999999929
0
LINE
8
BLACK
6
CONTINUOUS
10
41.2786019999999994
20
-95.1448379999999929
11
41.088124999999998
21
-95.1448379999999929
0
LINE
8
BLACK
6
CONTINUOUS
10
41.088124999999998
20
-95.1448379999999929
11
40.8976490000000013
21
-95.0495999999999981
0
LINE
8
BLACK
6
CONTINUOUS
10
40.8976490000000013
20
-95.0495999999999981
11
40.8024109999999993
21
-94.9543609999999916
0
LINE
8
BLACK
6
CONTINUOUS
10
40.8024109999999993
20
-94.9543609999999916
11
40.7071729999999974
21
-94.7638850000000019
0
LINE
8
BLACK
6
CONTINUOUS
10
40.7071729999999974
20
-94.7638850000000019
11
40.6119349999999955
21
-94.3829329999999942
0
LINE
8
BLACK
6
CONTINUOUS
10
40.6119349999999955
20
-94.3829329999999942
11
40.6119349999999955
21
-93.9067419999999942
0
LINE
8
BLACK
6
CONTINUOUS
10
40.6119349999999955
20
-93.9067419999999942
11
40.7071729999999974
21
-93.5257900000000006
0
LINE
8
BLACK
6
CONTINUOUS
10
40.7071729999999974
20
-93.5257900000000006
11
40.8024109999999993
21
-93.3353139999999968
0
LINE
8
BLACK
6
CONTINUOUS
10
40.8024109999999993
20
-93.3353139999999968
11
40.8976490000000013
21
-93.240076000000002
0
LINE
8
BLACK
6
CONTINUOUS
10
40.8976490000000013
20
-93.240076000000002
11
41.088124999999998
21
-93.1448379999999929
0
LINE
8
BLACK
6
CONTINUOUS
10
42.9928869999999961
20
-93.1448379999999929
11
43.1833639999999974
21
-93.1448379999999929
0
LINE
8
BLACK
6
CONTINUOUS
10
43.1833639999999974
20
-93.1448379999999929
11
43.3738400000000013
21
-93.240076000000002
0
LINE
8
BLACK
6
CONTINUOUS
10
43.3738400000000013
20
-93.240076000000002
11
43.4690779999999961
21
-93.3353139999999968
0
LINE
8
BLACK
6
CONTINUOUS
10
43.4690779999999961
20
-93.3353139999999968
11
43.564315999999998
21
-93.5257900000000006
0
LINE
8
BLACK
6
CONTINUOUS
10
43.564315999999998
20
-93.5257900000000006
11
43.659554
21
-93.9067419999999942
0
LINE
8
BLACK
6
CONTINUOUS
10
43.659554
20
-93.9067419999999942
11
43.659554
21
-94.3829329999999942
0
LINE
8
BLACK
6
CONTINUOUS
10
43.659554
20
-94.3829329999999942
11
43.564315999999998
21
-94.7638850000000019
0
LINE
8
BLACK
6
CONTINUOUS
10
43.564315999999998
20
-94.7638850000000019
11
43.4690779999999961
21
-94.9543609999999916
0
LINE
8
BLACK
6
CONTINUOUS
10
43.4690779999999961
20
-94.9543609999999916
11
43.3738400000000013
21
-95.0495999999999981
0
LINE
8
BLACK
6
CONTINUOUS
10
43.3738400000000013
20
-95.0495999999999981
11
43.1833639999999974
21
-95.1448379999999929
0
LINE
8
BLACK
6
CONTINUOUS
10
43.1833639999999974
20
-95.1448379999999929
11
42.9928869999999961
21
-95.1448379999999929
0
LINE
8
BLACK
6
CONTINUOUS
10
42.9928869999999961
20
-95.1448379999999929
11
42.8024109999999993
21
-95.0495999999999981
0
LINE
8
BLACK
6
CONTINUOUS
10
42.8024109999999993
20
-95.0495999999999981
11
42.7071729999999974
21
-94.9543609999999916
0
LINE
8
BLACK
6
CONTINUOUS
10
42.7071729999999974
20
-94.9543609999999916
11
42.6119349999999955
21
-94.7638850000000019
0
LINE
8
BLACK
6
CONTINUOUS
10
42.6119349999999955
20
-94.7638850000000019
11
42.5166970000000006
21
-94.3829329999999942
0
LINE
8
BLACK
6
CONTINUOUS
10
42.5166970000000006
20
-94.3829329999999942
11
42.5166970000000006
21
-93.9067419999999942
0
LINE
8
BLACK
6
CONTINUOUS
10
42.5166970000000006
20
-93.9067419999999942
11
42.6119349999999955
21
-93.5257900000000006
0
LINE
8
BLACK
6
CONTINUOUS
10
42.6119349999999955
20
-93.5257900000000006
11
42.7071729999999974
21
-93.3353139999999968
0
LINE
8
BLACK
6
CONTINUOUS
10
42.7071729999999974
20
-93.3353139999999968
11
42.8024109999999993
21
-93.240076000000002
0
LINE
8
BLACK
6
CONTINUOUS
10
42.8024109999999993
20
-93.240076000000002
11
42.9928869999999961
21
-93.1448379999999929
0
LINE
8
BLACK
6
CONTINUOUS
10
44.5166970000000006
20
-95.1448379999999929
11
44.5166970000000006
21
-93.8115039999999993
0
LINE
8
BLACK
6
CONTINUOUS
10
44.5166970000000006
20
-94.001979999999989
11
44.6119349999999955
21
-93.9067419999999942
0
LINE
8
BLACK
6
CONTINUOUS
10
44.6119349999999955
20
-93.9067419999999942
11
44.8024109999999993
21
-93.8115039999999993
0
LINE
8
BLACK
6
CONTINUOUS
10
44.8024109999999993
20
-93.8115039999999993
11
45.0881259999999955
21
-93.8115039999999993
0
LINE
8
BLACK
6
CONTINUOUS
10
45.0881259999999955
20
-93.8115039999999993
11
45.2786019999999994
21
-93.9067419999999942
0
LINE
8
BLACK
6
CONTINUOUS
10
45.2786019999999994
20
-93.9067419999999942
11
45.3738400000000013
21
-94.0972189999999955
0
LINE
8
BLACK
6
CONTINUOUS
10
45.3738400000000013
20
-94.0972189999999955
11
45.3738400000000013
21
-95.1448379999999929
0
LINE
8
BLACK
6
CONTINUOUS
10
45.3738400000000013
20
-94.0972189999999955
11
45.4690779999999961
21
-93.9067419999999942
0
LINE
8
BLACK
6
CONTINUOUS
10
45.4690779999999961
20
-93.9067419999999942
11
45.659554
21
-93.8115039999999993
0
LINE
8
BLACK
6
CONTINUOUS
10
45.659554
20
-93.8115039999999993
11
45.9452679999999987
21
-93.8115039999999993
0
LINE
8
BLACK
6
CONTINUOUS
10
45.9452679999999987
20
-93.8115039999999993
11
46.135745
21
-93.9067419999999942
0
LINE
8
BLACK
6
CONTINUOUS
10
46.135745
20
-93.9067419999999942
11
46.2309829999999948
21
-94.0972189999999955
0
LINE
8
BLACK
6
CONTINUOUS
10
46.2309829999999948
20
-94.0972189999999955
11
46.2309829999999948
21
-95.1448379999999929
0
LINE
8
BLACK
6
CONTINUOUS
10
47.1833639999999974
20
-95.1448379999999929
11
47.1833639999999974
21
-93.8115039999999993
0
LINE
8
BLACK
6
CONTINUOUS
10
47.1833639999999974
20
-94.001979999999989
11
47.2786019999999994
21
-93.9067419999999942
0
LINE
8
BLACK
6
CONTINUOUS
10
47.2786019999999994
20
-93.9067419999999942
11
47.4690779999999961
21
-93.8115039999999993
0
LINE
8
BLACK
6
CONTINUOUS
10
47.4690779999999961
20
-93.8115039999999993
11
47.7547929999999994
21
-93.8115039999999993
0
LINE
8
BLACK
6
CONTINUOUS
10
47.7547929999999994
20
-93.8115039999999993
11
47.9452689999999961
21
-93.9067419999999942
0
LINE
8
BLACK
6
CONTINUOUS
10
47.9452689999999961
20
-93.9067419999999942
11
48.0405069999999981
21
-94.0972189999999955
0
LINE
8
BLACK
6
CONTINUOUS
10
48.0405069999999981
20
-94.0972189999999955
11
48.0405069999999981
21
-95.1448379999999929
0
LINE
8
BLACK
6
CONTINUOUS
10
48.0405069999999981
20
-94.0972189999999955
11
48.135745
21
-93.9067419999999942
0
LINE
8
BLACK
6
CONTINUOUS
10
48.135745
20
-93.9067419999999942
11
48.3262209999999968
21
-93.8115039999999993
0
LINE
8
BLACK
6
CONTINUOUS
10
48.3262209999999968
20
-93.8115039999999993
11
48.6119349999999955
21
-93.8115039999999993
0
LINE
8
BLACK
6
CONTINUOUS
10
48.6119349999999955
20
-93.8115039999999993
11
48.8024119999999968
21
-93.9067419999999942
0
LINE
8
BLACK
6
CONTINUOUS
10
48.8024119999999968
20
-93.9067419999999942
11
48.8976499999999987
21
-94.0972189999999955
0
LINE
8
BLACK
6
CONTINUOUS
10
48.8976499999999987
20
-94.0972189999999955
11
48.8976499999999987
21
-95.1448379999999929
0
LINE
8
BLACK
6
CONTINUOUS
10
52.8024119999999968
20
-93.0495999999999981
11
51.0881270000000001
21
-95.6210279999999955
0
LINE
8
BLACK
6
CONTINUOUS
10
55.3738409999999988
20
-93.1448379999999929
11
55.5643180000000001
21
-93.1448379999999929
0
LINE
8
BLACK
6
CONTINUOUS
10
55.5643180000000001
20
-93.1448379999999929
11
55.7547939999999969
21
-93.240076000000002
0
LINE
8
BLACK
6
CONTINUOUS
10
55.7547939999999969
20
-93.240076000000002
11
55.8500319999999988
21
-93.3353139999999968
0
LINE
8
BLACK
6
CONTINUOUS
10
55.8500319999999988
20
-93.3353139999999968
11
55.9452700000000007
21
-93.5257900000000006
0
LINE
8
BLACK
6
CONTINUOUS
10
55.9452700000000007
20
-93.5257900000000006
11
56.0405079999999955
21
-93.9067419999999942
0
LINE
8
BLACK
6
CONTINUOUS
10
56.0405079999999955
20
-93.9067419999999942
11
56.0405079999999955
21
-94.3829329999999942
0
LINE
8
BLACK
6
CONTINUOUS
10
56.0405079999999955
20
-94.3829329999999942
11
55.9452700000000007
21
-94.7638850000000019
0
LINE
8
BLACK
6
CONTINUOUS
10
55.9452700000000007
20
-94.7638850000000019
11
55.8500319999999988
21
-94.9543609999999916
0
LINE
8
BLACK
6
CONTINUOUS
10
55.8500319999999988
20
-94.9543609999999916
11
55.7547939999999969
21
-95.0495999999999981
0
LINE
8
BLACK
6
CONTINUOUS
10
55.7547939999999969
20
-95.0495999999999981
11
55.5643180000000001
21
-95.1448379999999929
0
LINE
8
BLACK
6
CONTINUOUS
10
55.5643180000000001
20
-95.1448379999999929
11
55.3738409999999988
21
-95.1448379999999929
0
LINE
8
BLACK
6
CONTINUOUS
10
55.3738409999999988
20
-95.1448379999999929
11
55.1833649999999949
21
-95.0495999999999981
0
LINE
8
BLACK
6
CONTINUOUS
10
55.1833649999999949
20
-95.0495999999999981
11
55.0881270000000001
21
-94.9543609999999916
0
LINE
8
BLACK
6
CONTINUOUS
10
55.0881270000000001
20
-94.9543609999999916
11
54.9928889999999981
21
-94.7638850000000019
0
LINE
8
BLACK
6
CONTINUOUS
10
54.9928889999999981
20
-94.7638850000000019
11
54.8976509999999962
21
-94.3829329999999942
0
LINE
8
BLACK
6
CONTINUOUS
10
54.8976509999999962
20
-94.3829329999999942
11
54.8976509999999962
21
-93.9067419999999942
0
LINE
8
BLACK
6
CONTINUOUS
10
54.8976509999999962
20
-93.9067419999999942
11
54.9928889999999981
21
-93.5257900000000006
0
LINE
8
BLACK
6
CONTINUOUS
10
54.9928889999999981
20
-93.5257900000000006
11
55.0881270000000001
21
-93.3353139999999968
0
LINE
8
BLACK
6
CONTINUOUS
10
55.0881270000000001
20
-93.3353139999999968
11
55.1833649999999949
21
-93.240076000000002
0
LINE
8
BLACK
6
CONTINUOUS
10
55.1833649999999949
20
-93.240076000000002
11
55.3738409999999988
21
-93.1448379999999929
0
LINE
8
BLACK
6
CONTINUOUS
10
56.8976509999999962
20
-94.9543609999999916
11
56.9928889999999981
21
-95.0495999999999981
0
LINE
8
BLACK
6
CONTINUOUS
10
56.9928889999999981
20
-95.0495999999999981
11
56.8976509999999962
21
-95.1448379999999929
0
LINE
8
BLACK
6
CONTINUOUS
10
56.8976509999999962
20
-95.1448379999999929
11
56.8024129999999943
21
-95.0495999999999981
0
LINE
8
BLACK
6
CONTINUOUS
10
56.8024129999999943
20
-95.0495999999999981
11
56.8976509999999962
21
-94.9543609999999916
0
LINE
8
BLACK
6
CONTINUOUS
10
56.8976509999999962
20
-94.9543609999999916
11
56.8976509999999962
21
-95.1448379999999929
0
LINE
8
BLACK
6
CONTINUOUS
10
58.2309839999999994
20
-93.1448379999999929
11
58.4214610000000008
21
-93.1448379999999929
0
LINE
8
BLACK
6
CONTINUOUS
10
58.4214610000000008
20
-93.1448379999999929
11
58.6119369999999975
21
-93.240076000000002
0
LINE
8
BLACK
6
CONTINUOUS
10
58.6119369999999975
20
-93.240076000000002
11
58.7071749999999994
21
-93.3353139999999968
0
LINE
8
BLACK
6
CONTINUOUS
10
58.7071749999999994
20
-93.3353139999999968
11
58.8024129999999943
21
-93.5257900000000006
0
LINE
8
BLACK
6
CONTINUOUS
10
58.8024129999999943
20
-93.5257900000000006
11
58.8976509999999962
21
-93.9067419999999942
0
LINE
8
BLACK
6
CONTINUOUS
10
58.8976509999999962
20
-93.9067419999999942
11
58.8976509999999962
21
-94.3829329999999942
0
LINE
8
BLACK
6
CONTINUOUS
10
58.8976509999999962
20
-94.3829329999999942
11
58.8024129999999943
21
-94.7638850000000019
0
LINE
8
BLACK
6
CONTINUOUS
10
58.8024129999999943
20
-94.7638850000000019
11
58.7071749999999994
21
-94.9543609999999916
0
LINE
8
BLACK
6
CONTINUOUS
10
58.7071749999999994
20
-94.9543609999999916
11
58.6119369999999975
21
-95.0495999999999981
0
LINE
8
BLACK
6
CONTINUOUS
10
58.6119369999999975
20
-95.0495999999999981
11
58.4214610000000008
21
-95.1448379999999929
0
LINE
8
BLACK
6
CONTINUOUS
10
58.4214610000000008
20
-95.1448379999999929
11
58.2309839999999994
21
-95.1448379999999929
0
LINE
8
BLACK
6
CONTINUOUS
10
58.2309839999999994
20
-95.1448379999999929
11
58.0405079999999955
21
-95.0495999999999981
0
LINE
8
BLACK
6
CONTINUOUS
10
58.0405079999999955
20
-95.0495999999999981
11
57.9452700000000007
21
-94.9543609999999916
0
LINE
8
BLACK
6
CONTINUOUS
10
57.9452700000000007
20
-94.9543609999999916
11
57.8500319999999988
21
-94.7638850000000019
0
LINE
8
BLACK
6
CONTINUOUS
10
57.8500319999999988
20
-94.7638850000000019
11
57.7547939999999969
21
-94.3829329999999942
0
LINE
8
BLACK
6
CONTINUOUS
10
57.7547939999999969
20
-94.3829329999999942
11
57.7547939999999969
21
-93.9067419999999942
0
LINE
8
BLACK
6
CONTINUOUS
10
57.7547939999999969
20
-93.9067419999999942
11
57.8500319999999988
21
-93.5257900000000006
0
LINE
8
BLACK
6
CONTINUOUS
10
57.8500319999999988
20
-93.5257900000000006
11
57.9452700000000007
21
-93.3353139999999968
0
LINE
8
BLACK
6
CONTINUOUS
10
57.9452700000000007
20
-93.3353139999999968
11
58.0405079999999955
21
-93.240076000000002
0
LINE
8
BLACK
6
CONTINUOUS
10
58.0405079999999955
20
-93.240076000000002
11
58.2309839999999994
21
-93.1448379999999929
0
LINE
8
BLACK
6
CONTINUOUS
10
59.5643180000000001
20
-93.1448379999999929
11
60.8024129999999943
21
-93.1448379999999929
0
LINE
8
BLACK
6
CONTINUOUS
10
60.8024129999999943
20
-93.1448379999999929
11
60.1357459999999975
21
-93.9067419999999942
0
LINE
8
BLACK
6
CONTINUOUS
10
60.1357459999999975
20
-93.9067419999999942
11
60.4214610000000008
21
-93.9067419999999942
0
LINE
8
BLACK
6
CONTINUOUS
10
60.4214610000000008
20
-93.9067419999999942
11
60.6119369999999975
21
-94.001979999999989
0
LINE
8
BLACK
6
CONTINUOUS
10
60.6119369999999975
20
-94.001979999999989
11
60.7071749999999994
21
-94.0972189999999955
0
LINE
8
BLACK
6
CONTINUOUS
10
60.7071749999999994
20
-94.0972189999999955
11
60.8024129999999943
21
-94.2876949999999994
0
LINE
8
BLACK
6
CONTINUOUS
10
60.8024129999999943
20
-94.2876949999999994
11
60.8024129999999943
21
-94.7638850000000019
0
LINE
8
BLACK
6
CONTINUOUS
10
60.8024129999999943
20
-94.7638850000000019
11
60.7071749999999994
21
-94.9543609999999916
0
LINE
8
BLACK
6
CONTINUOUS
10
60.7071749999999994
20
-94.9543609999999916
11
60.6119369999999975
21
-95.0495999999999981
0
LINE
8
BLACK
6
CONTINUOUS
10
60.6119369999999975
20
-95.0495999999999981
11
60.4214610000000008
21
-95.1448379999999929
0
LINE
8
BLACK
6
CONTINUOUS
10
60.4214610000000008
20
-95.1448379999999929
11
59.8500319999999988
21
-95.1448379999999929
0
LINE
8
BLACK
6
CONTINUOUS
10
59.8500319999999988
20
-95.1448379999999929
11
59.6595559999999949
21
-95.0495999999999981
0
LINE
8
BLACK
6
CONTINUOUS
10
59.6595559999999949
20
-95.0495999999999981
11
59.5643180000000001
21
-94.9543609999999916
0
LINE
8
BLACK
6
CONTINUOUS
10
61.7547939999999969
20
-95.1448379999999929
11
62.1357459999999975
21
-95.1448379999999929
0
LINE
8
BLACK
6
CONTINUOUS
10
62.1357459999999975
20
-95.1448379999999929
11
62.3262229999999988
21
-95.0495999999999981
0
LINE
8
BLACK
6
CONTINUOUS
10
62.3262229999999988
20
-95.0495999999999981
11
62.4214609999999936
21
-94.9543609999999916
0
LINE
8
BLACK
6
CONTINUOUS
10
62.4214609999999936
20
-94.9543609999999916
11
62.6119369999999975
21
-94.6686469999999929
0
LINE
8
BLACK
6
CONTINUOUS
10
62.6119369999999975
20
-94.6686469999999929
11
62.7071749999999994
21
-94.2876949999999994
0
LINE
8
BLACK
6
CONTINUOUS
10
62.7071749999999994
20
-94.2876949999999994
11
62.7071749999999994
21
-93.5257900000000006
0
LINE
8
BLACK
6
CONTINUOUS
10
62.7071749999999994
20
-93.5257900000000006
11
62.6119369999999975
21
-93.3353139999999968
0
LINE
8
BLACK
6
CONTINUOUS
10
62.6119369999999975
20
-93.3353139999999968
11
62.5166989999999956
21
-93.240076000000002
0
LINE
8
BLACK
6
CONTINUOUS
10
62.5166989999999956
20
-93.240076000000002
11
62.3262229999999988
21
-93.1448379999999929
0
LINE
8
BLACK
6
CONTINUOUS
10
62.3262229999999988
20
-93.1448379999999929
11
61.9452700000000007
21
-93.1448379999999929
0
LINE
8
BLACK
6
CONTINUOUS
10
61.9452700000000007
20
-93.1448379999999929
11
61.7547939999999969
21
-93.240076000000002
0
LINE
8
BLACK
6
CONTINUOUS
10
61.7547939999999969
20
-93.240076000000002
11
61.6595559999999949
21
-93.3353139999999968
0
LINE
8
BLACK
6
CONTINUOUS
10
61.6595559999999949
20
-93.3353139999999968
11
61.5643180000000001
21
-93.5257900000000006
0
LINE
8
BLACK
6
CONTINUOUS
10
61.5643180000000001
20
-93.5257900000000006
11
61.5643180000000001
21
-94.001979999999989
0
LINE
8
BLACK
6
CONTINUOUS
10
61.5643180000000001
20
-94.001979999999989
11
61.6595559999999949
21
-94.1924569999999903
0
LINE
8
BLACK
6
CONTINUOUS
10
61.6595559999999949
20
-94.1924569999999903
11
61.7547939999999969
21
-94.2876949999999994
0
LINE
8
BLACK
6
CONTINUOUS
10
61.7547939999999969
20
-94.2876949999999994
11
61.9452700000000007
21
-94.3829329999999942
0
LINE
8
BLACK
6
CONTINUOUS
10
61.9452700000000007
20
-94.3829329999999942
11
62.3262229999999988
21
-94.3829329999999942
0
LINE
8
BLACK
6
CONTINUOUS
10
62.3262229999999988
20
-94.3829329999999942
11
62.5166989999999956
21
-94.2876949999999994
0
LINE
8
BLACK
6
CONTINUOUS
10
62.5166989999999956
20
-94.2876949999999994
11
62.6119369999999975
21
-94.1924569999999903
0
LINE
8
BLACK
6
CONTINUOUS
10
62.6119369999999975
20
-94.1924569999999903
11
62.7071749999999994
21
-94.001979999999989
0
LINE
8
BLACK
6
CONTINUOUS
10
64.4214609999999936
20
-93.8115039999999993
11
64.4214609999999936
21
-95.1448379999999929
0
LINE
8
BLACK
6
CONTINUOUS
10
63.9452699999999936
20
-93.0495999999999981
11
63.4690799999999982
21
-94.478170999999989
0
LINE
8
BLACK
6
CONTINUOUS
10
63.4690799999999982
20
-94.478170999999989
11
64.7071749999999923
21
-94.478170999999989
0
LINE
8
BLACK
6
CONTINUOUS
10
65.3738419999999962
20
-93.1448379999999929
11
65.3738419999999962
21
-93.5257900000000006
0
LINE
8
BLACK
6
CONTINUOUS
10
66.135746999999995
20
-93.1448379999999929
11
66.135746999999995
21
-93.5257900000000006
0
LINE
8
BLACK
6
CONTINUOUS
10
69.088128999999995
20
-95.9067419999999942
11
68.9928900000000027
21
-95.8115039999999993
0
LINE
8
BLACK
6
CONTINUOUS
10
68.9928900000000027
20
-95.8115039999999993
11
68.8024139999999989
21
-95.5257900000000006
0
LINE
8
BLACK
6
CONTINUOUS
10
68.8024139999999989
20
-95.5257900000000006
11
68.7071759999999898
21
-95.3353139999999968
0
LINE
8
BLACK
6
CONTINUOUS
10
68.7071759999999898
20
-95.3353139999999968
11
68.611937999999995
21
-95.0495999999999981
0
LINE
8
BLACK
6
CONTINUOUS
10
68.611937999999995
20
-95.0495999999999981
11
68.5167000000000002
21
-94.5734089999999981
0
LINE
8
BLACK
6
CONTINUOUS
10
68.5167000000000002
20
-94.5734089999999981
11
68.5167000000000002
21
-94.1924569999999903
0
LINE
8
BLACK
6
CONTINUOUS
10
68.5167000000000002
20
-94.1924569999999903
11
68.611937999999995
21
-93.7162659999999903
0
LINE
8
BLACK
6
CONTINUOUS
10
68.611937999999995
20
-93.7162659999999903
11
68.7071759999999898
21
-93.4305519999999916
0
LINE
8
BLACK
6
CONTINUOUS
10
68.7071759999999898
20
-93.4305519999999916
11
68.8024139999999989
21
-93.240076000000002
0
LINE
8
BLACK
6
CONTINUOUS
10
68.8024139999999989
20
-93.240076000000002
11
68.9928900000000027
21
-92.9543609999999916
0
LINE
8
BLACK
6
CONTINUOUS
10
68.9928900000000027
20
-92.9543609999999916
11
69.088128999999995
21
-92.8591229999999968
0
LINE
8
BLACK
6
CONTINUOUS
10
69.7547950000000014
20
-93.3353139999999968
11
69.8500329999999963
21
-93.240076000000002
0
LINE
8
BLACK
6
CONTINUOUS
10
69.8500329999999963
20
-93.240076000000002
11
70.0405090000000001
21
-93.1448379999999929
0
LINE
8
BLACK
6
CONTINUOUS
10
70.0405090000000001
20
-93.1448379999999929
11
70.5167000000000002
21
-93.1448379999999929
0
LINE
8
BLACK
6
CONTINUOUS
10
70.5167000000000002
20
-93.1448379999999929
11
70.7071759999999898
21
-93.240076000000002
0
LINE
8
BLACK
6
CONTINUOUS
10
70.7071759999999898
20
-93.240076000000002
11
70.8024139999999989
21
-93.3353139999999968
0
LINE
8
BLACK
6
CONTINUOUS
10
70.8024139999999989
20
-93.3353139999999968
11
70.8976519999999937
21
-93.5257900000000006
0
LINE
8
BLACK
6
CONTINUOUS
10
70.8976519999999937
20
-93.5257900000000006
11
70.8976519999999937
21
-93.7162659999999903
0
LINE
8
BLACK
6
CONTINUOUS
10
70.8976519999999937
20
-93.7162659999999903
11
70.8024139999999989
21
-94.001979999999989
0
LINE
8
BLACK
6
CONTINUOUS
10
70.8024139999999989
20
-94.001979999999989
11
69.6595569999999924
21
-95.1448379999999929
0
LINE
8
BLACK
6
CONTINUOUS
10
69.6595569999999924
20
-95.1448379999999929
11
70.8976519999999937
21
-95.1448379999999929
0
LINE
8
BLACK
6
CONTINUOUS
10
71.6595569999999924
20
-93.3353139999999968
11
71.7547950000000014
21
-93.240076000000002
0
LINE
8
BLACK
6
CONTINUOUS
10
71.7547950000000014
20
-93.240076000000002
11
71.9452709999999911
21
-93.1448379999999929
0
LINE
8
BLACK
6
CONTINUOUS
10
71.9452709999999911
20
-93.1448379999999929
11
72.4214619999999911
21
-93.1448379999999929
0
LINE
8
BLACK
6
CONTINUOUS
10
72.4214619999999911
20
-93.1448379999999929
11
72.611937999999995
21
-93.240076000000002
0
LINE
8
BLACK
6
CONTINUOUS
10
72.611937999999995
20
-93.240076000000002
11
72.7071759999999898
21
-93.3353139999999968
0
LINE
8
BLACK
6
CONTINUOUS
10
72.7071759999999898
20
-93.3353139999999968
11
72.8024139999999989
21
-93.5257900000000006
0
LINE
8
BLACK
6
CONTINUOUS
10
72.8024139999999989
20
-93.5257900000000006
11
72.8024139999999989
21
-93.7162659999999903
0
LINE
8
BLACK
6
CONTINUOUS
10
72.8024139999999989
20
-93.7162659999999903
11
72.7071759999999898
21
-94.001979999999989
0
LINE
8
BLACK
6
CONTINUOUS
10
72.7071759999999898
20
-94.001979999999989
11
71.5643189999999976
21
-95.1448379999999929
0
LINE
8
BLACK
6
CONTINUOUS
10
71.5643189999999976
20
-95.1448379999999929
11
72.8024139999999989
21
-95.1448379999999929
0
LINE
8
BLACK
6
CONTINUOUS
10
75.1833669999999898
20
-95.1448379999999929
11
75.1833669999999898
21
-93.1448379999999929
0
LINE
8
BLACK
6
CONTINUOUS
10
76.0405099999999976
20
-95.1448379999999929
11
76.0405099999999976
21
-94.0972189999999955
0
LINE
8
BLACK
6
CONTINUOUS
10
76.0405099999999976
20
-94.0972189999999955
11
75.9452720000000028
21
-93.9067419999999942
0
LINE
8
BLACK
6
CONTINUOUS
10
75.9452720000000028
20
-93.9067419999999942
11
75.7547959999999989
21
-93.8115039999999993
0
LINE
8
BLACK
6
CONTINUOUS
10
75.7547959999999989
20
-93.8115039999999993
11
75.4690810000000027
21
-93.8115039999999993
0
LINE
8
BLACK
6
CONTINUOUS
10
75.4690810000000027
20
-93.8115039999999993
11
75.2786049999999989
21
-93.9067419999999942
0
LINE
8
BLACK
6
CONTINUOUS
10
75.2786049999999989
20
-93.9067419999999942
11
75.1833669999999898
21
-94.001979999999989
0
LINE
8
BLACK
6
CONTINUOUS
10
77.2786049999999989
20
-95.1448379999999929
11
77.088128999999995
21
-95.0495999999999981
0
LINE
8
BLACK
6
CONTINUOUS
10
77.088128999999995
20
-95.0495999999999981
11
76.9928910000000002
21
-94.9543609999999916
0
LINE
8
BLACK
6
CONTINUOUS
10
76.9928910000000002
20
-94.9543609999999916
11
76.8976529999999912
21
-94.7638850000000019
0
LINE
8
BLACK
6
CONTINUOUS
10
76.8976529999999912
20
-94.7638850000000019
11
76.8976529999999912
21
-94.1924569999999903
0
LINE
8
BLACK
6
CONTINUOUS
10
76.8976529999999912
20
-94.1924569999999903
11
76.9928910000000002
21
-94.001979999999989
0
LINE
8
BLACK
6
CONTINUOUS
10
76.9928910000000002
20
-94.001979999999989
11
77.088128999999995
21
-93.9067419999999942
0
LINE
8
BLACK
6
CONTINUOUS
10
77.088128999999995
20
-93.9067419999999942
11
77.2786049999999989
21
-93.8115039999999993
0
LINE
8
BLACK
6
CONTINUOUS
10
77.2786049999999989
20
-93.8115039999999993
11
77.564319999999995
21
-93.8115039999999993
0
LINE
8
BLACK
6
CONTINUOUS
10
77.564319999999995
20
-93.8115039999999993
11
77.7547959999999989
21
-93.9067419999999942
0
LINE
8
BLACK
6
CONTINUOUS
10
77.7547959999999989
20
-93.9067419999999942
11
77.8500339999999937
21
-94.001979999999989
0
LINE
8
BLACK
6
CONTINUOUS
10
77.8500339999999937
20
-94.001979999999989
11
77.9452720000000028
21
-94.1924569999999903
0
LINE
8
BLACK
6
CONTINUOUS
10
77.9452720000000028
20
-94.1924569999999903
11
77.9452720000000028
21
-94.7638850000000019
0
LINE
8
BLACK
6
CONTINUOUS
10
77.9452720000000028
20
-94.7638850000000019
11
77.8500339999999937
21
-94.9543609999999916
0
LINE
8
BLACK
6
CONTINUOUS
10
77.8500339999999937
20
-94.9543609999999916
11
77.7547959999999989
21
-95.0495999999999981
0
LINE
8
BLACK
6
CONTINUOUS
10
77.7547959999999989
20
-95.0495999999999981
11
77.564319999999995
21
-95.1448379999999929
0
LINE
8
BLACK
6
CONTINUOUS
10
77.564319999999995
20
-95.1448379999999929
11
77.2786049999999989
21
-95.1448379999999929
0
LINE
8
BLACK
6
CONTINUOUS
10
79.088128999999995
20
-95.1448379999999929
11
78.8976529999999912
21
-95.0495999999999981
0
LINE
8
BLACK
6
CONTINUOUS
10
78.8976529999999912
20
-95.0495999999999981
11
78.8024149999999963
21
-94.8591229999999968
0
LINE
8
BLACK
6
CONTINUOUS
10
78.8024149999999963
20
-94.8591229999999968
11
78.8024149999999963
21
-93.1448379999999929
0
LINE
8
BLACK
6
CONTINUOUS
10
80.6119389999999925
20
-95.0495999999999981
11
80.4214630000000028
21
-95.1448379999999929
0
LINE
8
BLACK
6
CONTINUOUS
10
80.4214630000000028
20
-95.1448379999999929
11
80.0405099999999976
21
-95.1448379999999929
0
LINE
8
BLACK
6
CONTINUOUS
10
80.0405099999999976
20
-95.1448379999999929
11
79.8500339999999937
21
-95.0495999999999981
0
LINE
8
BLACK
6
CONTINUOUS
10
79.8500339999999937
20
-95.0495999999999981
11
79.7547959999999989
21
-94.8591229999999968
0
LINE
8
BLACK
6
CONTINUOUS
10
79.7547959999999989
20
-94.8591229999999968
11
79.7547959999999989
21
-94.0972189999999955
0
LINE
8
BLACK
6
CONTINUOUS
10
79.7547959999999989
20
-94.0972189999999955
11
79.8500339999999937
21
-93.9067419999999942
0
LINE
8
BLACK
6
CONTINUOUS
10
79.8500339999999937
20
-93.9067419999999942
11
80.0405099999999976
21
-93.8115039999999993
0
LINE
8
BLACK
6
CONTINUOUS
10
80.0405099999999976
20
-93.8115039999999993
11
80.4214630000000028
21
-93.8115039999999993
0
LINE
8
BLACK
6
CONTINUOUS
10
80.4214630000000028
20
-93.8115039999999993
11
80.6119389999999925
21
-93.9067419999999942
0
LINE
8
BLACK
6
CONTINUOUS
10
80.6119389999999925
20
-93.9067419999999942
11
80.7071770000000015
21
-94.0972189999999955
0
LINE
8
BLACK
6
CONTINUOUS
10
80.7071770000000015
20
-94.0972189999999955
11
80.7071770000000015
21
-94.2876949999999994
0
LINE
8
BLACK
6
CONTINUOUS
10
80.7071770000000015
20
-94.2876949999999994
11
79.7547959999999989
21
-94.478170999999989
0
LINE
8
BLACK
6
CONTINUOUS
10
81.4690820000000002
20
-95.0495999999999981
11
81.6595579999999899
21
-95.1448379999999929
0
LINE
8
BLACK
6
CONTINUOUS
10
81.6595579999999899
20
-95.1448379999999929
11
82.0405099999999976
21
-95.1448379999999929
0
LINE
8
BLACK
6
CONTINUOUS
10
82.0405099999999976
20
-95.1448379999999929
11
82.2309869999999989
21
-95.0495999999999981
0
LINE
8
BLACK
6
CONTINUOUS
10
82.2309869999999989
20
-95.0495999999999981
11
82.3262249999999938
21
-94.8591229999999968
0
LINE
8
BLACK
6
CONTINUOUS
10
82.3262249999999938
20
-94.8591229999999968
11
82.3262249999999938
21
-94.7638850000000019
0
LINE
8
BLACK
6
CONTINUOUS
10
82.3262249999999938
20
-94.7638850000000019
11
82.2309869999999989
21
-94.5734089999999981
0
LINE
8
BLACK
6
CONTINUOUS
10
82.2309869999999989
20
-94.5734089999999981
11
82.0405099999999976
21
-94.478170999999989
0
LINE
8
BLACK
6
CONTINUOUS
10
82.0405099999999976
20
-94.478170999999989
11
81.7547959999999989
21
-94.478170999999989
0
LINE
8
BLACK
6
CONTINUOUS
10
81.7547959999999989
20
-94.478170999999989
11
81.564319999999995
21
-94.3829329999999942
0
LINE
8
BLACK
6
CONTINUOUS
10
81.564319999999995
20
-94.3829329999999942
11
81.4690820000000002
21
-94.1924569999999903
0
LINE
8
BLACK
6
CONTINUOUS
10
81.4690820000000002
20
-94.1924569999999903
11
81.4690820000000002
21
-94.0972189999999955
0
LINE
8
BLACK
6
CONTINUOUS
10
81.4690820000000002
20
-94.0972189999999955
11
81.564319999999995
21
-93.9067419999999942
0
LINE
8
BLACK
6
CONTINUOUS
10
81.564319999999995
20
-93.9067419999999942
11
81.7547959999999989
21
-93.8115039999999993
0
LINE
8
BLACK
6
CONTINUOUS
10
81.7547959999999989
20
-93.8115039999999993
11
82.0405099999999976
21
-93.8115039999999993
0
LINE
8
BLACK
6
CONTINUOUS
10
82.0405099999999976
20
-93.8115039999999993
11
82.2309869999999989
21
-93.9067419999999942
0
LINE
8
BLACK
6
CONTINUOUS
10
82.9928919999999977
20
-95.9067419999999942
11
83.0881299999999925
21
-95.8115039999999993
0
LINE
8
BLACK
6
CONTINUOUS
10
83.0881299999999925
20
-95.8115039999999993
11
83.2786059999999964
21
-95.5257900000000006
0
LINE
8
BLACK
6
CONTINUOUS
10
83.2786059999999964
20
-95.5257900000000006
11
83.3738439999999912
21
-95.3353139999999968
0
LINE
8
BLACK
6
CONTINUOUS
10
83.3738439999999912
20
-95.3353139999999968
11
83.4690820000000002
21
-95.0495999999999981
0
LINE
8
BLACK
6
CONTINUOUS
10
83.4690820000000002
20
-95.0495999999999981
11
83.564319999999995
21
-94.5734089999999981
0
LINE
8
BLACK
6
CONTINUOUS
10
83.564319999999995
20
-94.5734089999999981
11
83.564319999999995
21
-94.1924569999999903
0
LINE
8
BLACK
6
CONTINUOUS
10
83.564319999999995
20
-94.1924569999999903
11
83.4690820000000002
21
-93.7162659999999903
0
LINE
8
BLACK
6
CONTINUOUS
10
83.4690820000000002
20
-93.7162659999999903
11
83.3738439999999912
21
-93.4305519999999916
0
LINE
8
BLACK
6
CONTINUOUS
10
83.3738439999999912
20
-93.4305519999999916
11
83.2786059999999964
21
-93.240076000000002
0
LINE
8
BLACK
6
CONTINUOUS
10
83.2786059999999964
20
-93.240076000000002
11
83.0881299999999925
21
-92.9543609999999916
0
LINE
8
BLACK
6
CONTINUOUS
10
83.0881299999999925
20
-92.9543609999999916
11
82.9928919999999977
21
-92.8591229999999968
  0
ENDSEC
  0
EOF
