  0
SECTION
  2
HEADER
  9
$ANGBASE
  50
0.0
  9
$ANGDIR
  70
1
  9
$MEASUREMENT
  70
1
  0
ENDSEC
  0
SECTION
  2
TABLES
  0
TABLE
  2
LTYPE
  70
4
  0
LTYPE
  5
40F
  2
CONTINUOUS
  70
0
  3
Solid line
  72
65
  73
0
  40
0.0
  0
LTYPE
  5
410
  2
DASHDOT
 70
0
  3
Dash Dot ____ _ ____ _
 72
65
 73
4
 40
2.0
 49
1.25
 49
-0.25
 49
0.25
 49
-0.25
  0
LTYPE
  5
411
  2
DASHED
 70
0
  3
Dashed __ __ __ __ __
 72
65
 73
2
 40
0.75
 49
0.5
 49
-0.25
  0
LTYPE
  5
43B
  2
DOTTED
 70
0
  3
Dotted .  .  .  .
 72
65
 73
2
 40
0.2
 49
0.0
 49
-0.2
  0
ENDTAB
  0
TABLE
  2
STYLE
  70
4
  0
STYLE
  2
KICAD
  70
0
  40
0
  41
1
  42
1
  50
0
  71
0
  3
isocp.shx
  0
STYLE
  2
KICADB
  70
0
  40
0
  41
1
  42
1
  50
0
  71
0
  3
isocp.shx
  0
STYLE
  2
KICADI
  70
0
  40
0
  41
1
  42
1
  50
15
  71
0
  3
isocp.shx
  0
STYLE
  2
KICADBI
  70
0
  40
0
  41
1
  42
1
  50
15
  71
0
  3
isocp.shx
  0
ENDTAB
  0
TABLE
  2
LAYER
  70
1
  0
LAYER
  2
BLACK
  70
0
  62
7
  6
CONTINUOUS
  0
ENDTAB
  0
ENDSEC
  0
SECTION
  2
ENTITIES
0
LINE
8
BLACK
6
CONTINUOUS
10
33.3374999999999986
20
-44.4499999999999957
11
70.1674999999999898
21
-44.4499999999999957
0
LINE
8
BLACK
6
CONTINUOUS
10
70.1674999999999898
20
-44.4499999999999957
11
70.1674999999999898
21
-82.5499999999999972
0
LINE
8
BLACK
6
CONTINUOUS
10
33.3374999999999986
20
-44.4499999999999957
11
33.3374999999999986
21
-82.5499999999999972
0
LINE
8
BLACK
6
CONTINUOUS
10
33.3374999999999986
20
-82.5499999999999972
11
70.1674999999999898
21
-82.5499999999999972
0
LINE
8
BLACK
6
CONTINUOUS
10
35.9452679999999987
20
-85.6648380000000031
11
35.9452679999999987
21
-83.6648380000000031
0
LINE
8
BLACK
6
CONTINUOUS
10
35.9452679999999987
20
-83.6648380000000031
11
36.4214580000000012
21
-83.6648380000000031
0
LINE
8
BLACK
6
CONTINUOUS
10
36.4214580000000012
20
-83.6648380000000031
11
36.7071729999999974
21
-83.760075999999998
0
LINE
8
BLACK
6
CONTINUOUS
10
36.7071729999999974
20
-83.760075999999998
11
36.8976490000000013
21
-83.9505520000000018
0
LINE
8
BLACK
6
CONTINUOUS
10
36.8976490000000013
20
-83.9505520000000018
11
36.9928869999999961
21
-84.1410279999999915
0
LINE
8
BLACK
6
CONTINUOUS
10
36.9928869999999961
20
-84.1410279999999915
11
37.088124999999998
21
-84.5219799999999992
0
LINE
8
BLACK
6
CONTINUOUS
10
37.088124999999998
20
-84.5219799999999992
11
37.088124999999998
21
-84.8076949999999954
0
LINE
8
BLACK
6
CONTINUOUS
10
37.088124999999998
20
-84.8076949999999954
11
36.9928869999999961
21
-85.1886470000000031
0
LINE
8
BLACK
6
CONTINUOUS
10
36.9928869999999961
20
-85.1886470000000031
11
36.8976490000000013
21
-85.3791229999999928
0
LINE
8
BLACK
6
CONTINUOUS
10
36.8976490000000013
20
-85.3791229999999928
11
36.7071729999999974
21
-85.5695999999999941
0
LINE
8
BLACK
6
CONTINUOUS
10
36.7071729999999974
20
-85.5695999999999941
11
36.4214580000000012
21
-85.6648380000000031
0
LINE
8
BLACK
6
CONTINUOUS
10
36.4214580000000012
20
-85.6648380000000031
11
35.9452679999999987
21
-85.6648380000000031
0
LINE
8
BLACK
6
CONTINUOUS
10
37.9452679999999987
20
-85.6648380000000031
11
37.9452679999999987
21
-84.3315039999999954
0
LINE
8
BLACK
6
CONTINUOUS
10
37.9452679999999987
20
-84.7124570000000006
11
38.0405060000000006
21
-84.5219799999999992
0
LINE
8
BLACK
6
CONTINUOUS
10
38.0405060000000006
20
-84.5219799999999992
11
38.1357439999999954
21
-84.4267419999999902
0
LINE
8
BLACK
6
CONTINUOUS
10
38.1357439999999954
20
-84.4267419999999902
11
38.3262199999999993
21
-84.3315039999999954
0
LINE
8
BLACK
6
CONTINUOUS
10
38.3262199999999993
20
-84.3315039999999954
11
38.5166970000000006
21
-84.3315039999999954
0
LINE
8
BLACK
6
CONTINUOUS
10
39.1833629999999999
20
-85.6648380000000031
11
39.1833629999999999
21
-84.3315039999999954
0
LINE
8
BLACK
6
CONTINUOUS
10
39.1833629999999999
20
-83.6648380000000031
11
39.088124999999998
21
-83.760075999999998
0
LINE
8
BLACK
6
CONTINUOUS
10
39.088124999999998
20
-83.760075999999998
11
39.1833629999999999
21
-83.8553139999999928
0
LINE
8
BLACK
6
CONTINUOUS
10
39.1833629999999999
20
-83.8553139999999928
11
39.2786009999999948
21
-83.760075999999998
0
LINE
8
BLACK
6
CONTINUOUS
10
39.2786009999999948
20
-83.760075999999998
11
39.1833629999999999
21
-83.6648380000000031
0
LINE
8
BLACK
6
CONTINUOUS
10
39.1833629999999999
20
-83.6648380000000031
11
39.1833629999999999
21
-83.8553139999999928
0
LINE
8
BLACK
6
CONTINUOUS
10
40.4214580000000012
20
-85.6648380000000031
11
40.2309819999999974
21
-85.5695999999999941
0
LINE
8
BLACK
6
CONTINUOUS
10
40.2309819999999974
20
-85.5695999999999941
11
40.1357439999999954
21
-85.3791229999999928
0
LINE
8
BLACK
6
CONTINUOUS
10
40.1357439999999954
20
-85.3791229999999928
11
40.1357439999999954
21
-83.6648380000000031
0
LINE
8
BLACK
6
CONTINUOUS
10
41.4690769999999986
20
-85.6648380000000031
11
41.2786009999999948
21
-85.5695999999999941
0
LINE
8
BLACK
6
CONTINUOUS
10
41.2786009999999948
20
-85.5695999999999941
11
41.1833629999999999
21
-85.3791229999999928
0
LINE
8
BLACK
6
CONTINUOUS
10
41.1833629999999999
20
-85.3791229999999928
11
41.1833629999999999
21
-83.6648380000000031
0
LINE
8
BLACK
6
CONTINUOUS
10
43.7547919999999948
20
-85.6648380000000031
11
43.7547919999999948
21
-83.6648380000000031
0
LINE
8
BLACK
6
CONTINUOUS
10
43.7547919999999948
20
-83.6648380000000031
11
44.4214589999999987
21
-85.0934089999999941
0
LINE
8
BLACK
6
CONTINUOUS
10
44.4214589999999987
20
-85.0934089999999941
11
45.088124999999998
21
-83.6648380000000031
0
LINE
8
BLACK
6
CONTINUOUS
10
45.088124999999998
20
-83.6648380000000031
11
45.088124999999998
21
-85.6648380000000031
0
LINE
8
BLACK
6
CONTINUOUS
10
46.8976490000000013
20
-85.6648380000000031
11
46.8976490000000013
21
-84.6172189999999915
0
LINE
8
BLACK
6
CONTINUOUS
10
46.8976490000000013
20
-84.6172189999999915
11
46.8024109999999993
21
-84.4267419999999902
0
LINE
8
BLACK
6
CONTINUOUS
10
46.8024109999999993
20
-84.4267419999999902
11
46.6119349999999955
21
-84.3315039999999954
0
LINE
8
BLACK
6
CONTINUOUS
10
46.6119349999999955
20
-84.3315039999999954
11
46.2309819999999974
21
-84.3315039999999954
0
LINE
8
BLACK
6
CONTINUOUS
10
46.2309819999999974
20
-84.3315039999999954
11
46.0405060000000006
21
-84.4267419999999902
0
LINE
8
BLACK
6
CONTINUOUS
10
46.8976490000000013
20
-85.5695999999999941
11
46.7071729999999974
21
-85.6648380000000031
0
LINE
8
BLACK
6
CONTINUOUS
10
46.7071729999999974
20
-85.6648380000000031
11
46.2309819999999974
21
-85.6648380000000031
0
LINE
8
BLACK
6
CONTINUOUS
10
46.2309819999999974
20
-85.6648380000000031
11
46.0405060000000006
21
-85.5695999999999941
0
LINE
8
BLACK
6
CONTINUOUS
10
46.0405060000000006
20
-85.5695999999999941
11
45.9452679999999987
21
-85.3791229999999928
0
LINE
8
BLACK
6
CONTINUOUS
10
45.9452679999999987
20
-85.3791229999999928
11
45.9452679999999987
21
-85.1886470000000031
0
LINE
8
BLACK
6
CONTINUOUS
10
45.9452679999999987
20
-85.1886470000000031
11
46.0405060000000006
21
-84.9981709999999993
0
LINE
8
BLACK
6
CONTINUOUS
10
46.0405060000000006
20
-84.9981709999999993
11
46.2309819999999974
21
-84.9029329999999902
0
LINE
8
BLACK
6
CONTINUOUS
10
46.2309819999999974
20
-84.9029329999999902
11
46.7071729999999974
21
-84.9029329999999902
0
LINE
8
BLACK
6
CONTINUOUS
10
46.7071729999999974
20
-84.9029329999999902
11
46.8976490000000013
21
-84.8076949999999954
0
LINE
8
BLACK
6
CONTINUOUS
10
47.8500299999999967
20
-84.3315039999999954
11
47.8500299999999967
21
-86.3315039999999954
0
LINE
8
BLACK
6
CONTINUOUS
10
47.8500299999999967
20
-84.4267419999999902
11
48.0405060000000006
21
-84.3315039999999954
0
LINE
8
BLACK
6
CONTINUOUS
10
48.0405060000000006
20
-84.3315039999999954
11
48.4214589999999987
21
-84.3315039999999954
0
LINE
8
BLACK
6
CONTINUOUS
10
48.4214589999999987
20
-84.3315039999999954
11
48.6119349999999955
21
-84.4267419999999902
0
LINE
8
BLACK
6
CONTINUOUS
10
48.6119349999999955
20
-84.4267419999999902
11
48.7071729999999974
21
-84.5219799999999992
0
LINE
8
BLACK
6
CONTINUOUS
10
48.7071729999999974
20
-84.5219799999999992
11
48.8024109999999993
21
-84.7124570000000006
0
LINE
8
BLACK
6
CONTINUOUS
10
48.8024109999999993
20
-84.7124570000000006
11
48.8024109999999993
21
-85.2838849999999979
0
LINE
8
BLACK
6
CONTINUOUS
10
48.8024109999999993
20
-85.2838849999999979
11
48.7071729999999974
21
-85.4743610000000018
0
LINE
8
BLACK
6
CONTINUOUS
10
48.7071729999999974
20
-85.4743610000000018
11
48.6119349999999955
21
-85.5695999999999941
0
LINE
8
BLACK
6
CONTINUOUS
10
48.6119349999999955
20
-85.5695999999999941
11
48.4214589999999987
21
-85.6648380000000031
0
LINE
8
BLACK
6
CONTINUOUS
10
48.4214589999999987
20
-85.6648380000000031
11
48.0405060000000006
21
-85.6648380000000031
0
LINE
8
BLACK
6
CONTINUOUS
10
48.0405060000000006
20
-85.6648380000000031
11
47.8500299999999967
21
-85.5695999999999941
0
LINE
8
BLACK
6
CONTINUOUS
10
49.659554
20
-85.4743610000000018
11
49.7547919999999948
21
-85.5695999999999941
0
LINE
8
BLACK
6
CONTINUOUS
10
49.7547919999999948
20
-85.5695999999999941
11
49.659554
21
-85.6648380000000031
0
LINE
8
BLACK
6
CONTINUOUS
10
49.659554
20
-85.6648380000000031
11
49.564315999999998
21
-85.5695999999999941
0
LINE
8
BLACK
6
CONTINUOUS
10
49.564315999999998
20
-85.5695999999999941
11
49.659554
21
-85.4743610000000018
0
LINE
8
BLACK
6
CONTINUOUS
10
49.659554
20
-85.4743610000000018
11
49.659554
21
-85.6648380000000031
0
LINE
8
BLACK
6
CONTINUOUS
10
49.659554
20
-84.4267419999999902
11
49.7547919999999948
21
-84.5219799999999992
0
LINE
8
BLACK
6
CONTINUOUS
10
49.7547919999999948
20
-84.5219799999999992
11
49.659554
21
-84.6172189999999915
0
LINE
8
BLACK
6
CONTINUOUS
10
49.659554
20
-84.6172189999999915
11
49.564315999999998
21
-84.5219799999999992
0
LINE
8
BLACK
6
CONTINUOUS
10
49.564315999999998
20
-84.5219799999999992
11
49.659554
21
-84.4267419999999902
0
LINE
8
BLACK
6
CONTINUOUS
10
49.659554
20
-84.4267419999999902
11
49.659554
21
-84.6172189999999915
  0
ENDSEC
  0
EOF
