%TF.GenerationSoftware,KiCad,Pcbnew,8.0.4*%
%TF.CreationDate,2025-08-12T13:16:13+07:00*%
%TF.ProjectId,XF-1.0,58462d31-2e30-42e6-9b69-6361645f7063,rev?*%
%TF.SameCoordinates,Original*%
%TF.FileFunction,Legend,Top*%
%TF.FilePolarity,Positive*%
%FSLAX46Y46*%
G04 Gerber Fmt 4.6, Leading zero omitted, Abs format (unit mm)*
G04 Created by KiCad (PCBNEW 8.0.4) date 2025-08-12 13:16:13*
%MOMM*%
%LPD*%
G01*
G04 APERTURE LIST*
%ADD10C,0.150000*%
%ADD11C,0.120000*%
%ADD12C,0.200000*%
G04 APERTURE END LIST*
D10*
X50537976Y-136165419D02*
X50585595Y-136117800D01*
X50585595Y-136117800D02*
X50728452Y-136070180D01*
X50728452Y-136070180D02*
X50823690Y-136070180D01*
X50823690Y-136070180D02*
X50966547Y-136117800D01*
X50966547Y-136117800D02*
X51061785Y-136213038D01*
X51061785Y-136213038D02*
X51109404Y-136308276D01*
X51109404Y-136308276D02*
X51157023Y-136498752D01*
X51157023Y-136498752D02*
X51157023Y-136641609D01*
X51157023Y-136641609D02*
X51109404Y-136832085D01*
X51109404Y-136832085D02*
X51061785Y-136927323D01*
X51061785Y-136927323D02*
X50966547Y-137022561D01*
X50966547Y-137022561D02*
X50823690Y-137070180D01*
X50823690Y-137070180D02*
X50728452Y-137070180D01*
X50728452Y-137070180D02*
X50585595Y-137022561D01*
X50585595Y-137022561D02*
X50537976Y-136974942D01*
X50109404Y-136070180D02*
X50109404Y-137070180D01*
X50109404Y-137070180D02*
X49537976Y-136070180D01*
X49537976Y-136070180D02*
X49537976Y-137070180D01*
X49109404Y-136974942D02*
X49061785Y-137022561D01*
X49061785Y-137022561D02*
X48966547Y-137070180D01*
X48966547Y-137070180D02*
X48728452Y-137070180D01*
X48728452Y-137070180D02*
X48633214Y-137022561D01*
X48633214Y-137022561D02*
X48585595Y-136974942D01*
X48585595Y-136974942D02*
X48537976Y-136879704D01*
X48537976Y-136879704D02*
X48537976Y-136784466D01*
X48537976Y-136784466D02*
X48585595Y-136641609D01*
X48585595Y-136641609D02*
X49157023Y-136070180D01*
X49157023Y-136070180D02*
X48537976Y-136070180D01*
X39412080Y-56046666D02*
X39459700Y-56094285D01*
X39459700Y-56094285D02*
X39507319Y-56237142D01*
X39507319Y-56237142D02*
X39507319Y-56332380D01*
X39507319Y-56332380D02*
X39459700Y-56475237D01*
X39459700Y-56475237D02*
X39364461Y-56570475D01*
X39364461Y-56570475D02*
X39269223Y-56618094D01*
X39269223Y-56618094D02*
X39078747Y-56665713D01*
X39078747Y-56665713D02*
X38935890Y-56665713D01*
X38935890Y-56665713D02*
X38745414Y-56618094D01*
X38745414Y-56618094D02*
X38650176Y-56570475D01*
X38650176Y-56570475D02*
X38554938Y-56475237D01*
X38554938Y-56475237D02*
X38507319Y-56332380D01*
X38507319Y-56332380D02*
X38507319Y-56237142D01*
X38507319Y-56237142D02*
X38554938Y-56094285D01*
X38554938Y-56094285D02*
X38602557Y-56046666D01*
X38507319Y-55189523D02*
X38507319Y-55379999D01*
X38507319Y-55379999D02*
X38554938Y-55475237D01*
X38554938Y-55475237D02*
X38602557Y-55522856D01*
X38602557Y-55522856D02*
X38745414Y-55618094D01*
X38745414Y-55618094D02*
X38935890Y-55665713D01*
X38935890Y-55665713D02*
X39316842Y-55665713D01*
X39316842Y-55665713D02*
X39412080Y-55618094D01*
X39412080Y-55618094D02*
X39459700Y-55570475D01*
X39459700Y-55570475D02*
X39507319Y-55475237D01*
X39507319Y-55475237D02*
X39507319Y-55284761D01*
X39507319Y-55284761D02*
X39459700Y-55189523D01*
X39459700Y-55189523D02*
X39412080Y-55141904D01*
X39412080Y-55141904D02*
X39316842Y-55094285D01*
X39316842Y-55094285D02*
X39078747Y-55094285D01*
X39078747Y-55094285D02*
X38983509Y-55141904D01*
X38983509Y-55141904D02*
X38935890Y-55189523D01*
X38935890Y-55189523D02*
X38888271Y-55284761D01*
X38888271Y-55284761D02*
X38888271Y-55475237D01*
X38888271Y-55475237D02*
X38935890Y-55570475D01*
X38935890Y-55570475D02*
X38983509Y-55618094D01*
X38983509Y-55618094D02*
X39078747Y-55665713D01*
X102607976Y-136165419D02*
X102655595Y-136117800D01*
X102655595Y-136117800D02*
X102798452Y-136070180D01*
X102798452Y-136070180D02*
X102893690Y-136070180D01*
X102893690Y-136070180D02*
X103036547Y-136117800D01*
X103036547Y-136117800D02*
X103131785Y-136213038D01*
X103131785Y-136213038D02*
X103179404Y-136308276D01*
X103179404Y-136308276D02*
X103227023Y-136498752D01*
X103227023Y-136498752D02*
X103227023Y-136641609D01*
X103227023Y-136641609D02*
X103179404Y-136832085D01*
X103179404Y-136832085D02*
X103131785Y-136927323D01*
X103131785Y-136927323D02*
X103036547Y-137022561D01*
X103036547Y-137022561D02*
X102893690Y-137070180D01*
X102893690Y-137070180D02*
X102798452Y-137070180D01*
X102798452Y-137070180D02*
X102655595Y-137022561D01*
X102655595Y-137022561D02*
X102607976Y-136974942D01*
X102179404Y-136070180D02*
X102179404Y-137070180D01*
X102179404Y-137070180D02*
X101607976Y-136070180D01*
X101607976Y-136070180D02*
X101607976Y-137070180D01*
X100607976Y-136070180D02*
X101179404Y-136070180D01*
X100893690Y-136070180D02*
X100893690Y-137070180D01*
X100893690Y-137070180D02*
X100988928Y-136927323D01*
X100988928Y-136927323D02*
X101084166Y-136832085D01*
X101084166Y-136832085D02*
X101179404Y-136784466D01*
X91482080Y-56046666D02*
X91529700Y-56094285D01*
X91529700Y-56094285D02*
X91577319Y-56237142D01*
X91577319Y-56237142D02*
X91577319Y-56332380D01*
X91577319Y-56332380D02*
X91529700Y-56475237D01*
X91529700Y-56475237D02*
X91434461Y-56570475D01*
X91434461Y-56570475D02*
X91339223Y-56618094D01*
X91339223Y-56618094D02*
X91148747Y-56665713D01*
X91148747Y-56665713D02*
X91005890Y-56665713D01*
X91005890Y-56665713D02*
X90815414Y-56618094D01*
X90815414Y-56618094D02*
X90720176Y-56570475D01*
X90720176Y-56570475D02*
X90624938Y-56475237D01*
X90624938Y-56475237D02*
X90577319Y-56332380D01*
X90577319Y-56332380D02*
X90577319Y-56237142D01*
X90577319Y-56237142D02*
X90624938Y-56094285D01*
X90624938Y-56094285D02*
X90672557Y-56046666D01*
X90577319Y-55713332D02*
X90577319Y-55094285D01*
X90577319Y-55094285D02*
X90958271Y-55427618D01*
X90958271Y-55427618D02*
X90958271Y-55284761D01*
X90958271Y-55284761D02*
X91005890Y-55189523D01*
X91005890Y-55189523D02*
X91053509Y-55141904D01*
X91053509Y-55141904D02*
X91148747Y-55094285D01*
X91148747Y-55094285D02*
X91386842Y-55094285D01*
X91386842Y-55094285D02*
X91482080Y-55141904D01*
X91482080Y-55141904D02*
X91529700Y-55189523D01*
X91529700Y-55189523D02*
X91577319Y-55284761D01*
X91577319Y-55284761D02*
X91577319Y-55570475D01*
X91577319Y-55570475D02*
X91529700Y-55665713D01*
X91529700Y-55665713D02*
X91482080Y-55713332D01*
X75192023Y-133709580D02*
X75144404Y-133757200D01*
X75144404Y-133757200D02*
X75001547Y-133804819D01*
X75001547Y-133804819D02*
X74906309Y-133804819D01*
X74906309Y-133804819D02*
X74763452Y-133757200D01*
X74763452Y-133757200D02*
X74668214Y-133661961D01*
X74668214Y-133661961D02*
X74620595Y-133566723D01*
X74620595Y-133566723D02*
X74572976Y-133376247D01*
X74572976Y-133376247D02*
X74572976Y-133233390D01*
X74572976Y-133233390D02*
X74620595Y-133042914D01*
X74620595Y-133042914D02*
X74668214Y-132947676D01*
X74668214Y-132947676D02*
X74763452Y-132852438D01*
X74763452Y-132852438D02*
X74906309Y-132804819D01*
X74906309Y-132804819D02*
X75001547Y-132804819D01*
X75001547Y-132804819D02*
X75144404Y-132852438D01*
X75144404Y-132852438D02*
X75192023Y-132900057D01*
X75620595Y-133804819D02*
X75620595Y-132804819D01*
X75620595Y-132804819D02*
X76192023Y-133804819D01*
X76192023Y-133804819D02*
X76192023Y-132804819D01*
X76572976Y-132804819D02*
X77192023Y-132804819D01*
X77192023Y-132804819D02*
X76858690Y-133185771D01*
X76858690Y-133185771D02*
X77001547Y-133185771D01*
X77001547Y-133185771D02*
X77096785Y-133233390D01*
X77096785Y-133233390D02*
X77144404Y-133281009D01*
X77144404Y-133281009D02*
X77192023Y-133376247D01*
X77192023Y-133376247D02*
X77192023Y-133614342D01*
X77192023Y-133614342D02*
X77144404Y-133709580D01*
X77144404Y-133709580D02*
X77096785Y-133757200D01*
X77096785Y-133757200D02*
X77001547Y-133804819D01*
X77001547Y-133804819D02*
X76715833Y-133804819D01*
X76715833Y-133804819D02*
X76620595Y-133757200D01*
X76620595Y-133757200D02*
X76572976Y-133709580D01*
X75192023Y-61954580D02*
X75144404Y-62002200D01*
X75144404Y-62002200D02*
X75001547Y-62049819D01*
X75001547Y-62049819D02*
X74906309Y-62049819D01*
X74906309Y-62049819D02*
X74763452Y-62002200D01*
X74763452Y-62002200D02*
X74668214Y-61906961D01*
X74668214Y-61906961D02*
X74620595Y-61811723D01*
X74620595Y-61811723D02*
X74572976Y-61621247D01*
X74572976Y-61621247D02*
X74572976Y-61478390D01*
X74572976Y-61478390D02*
X74620595Y-61287914D01*
X74620595Y-61287914D02*
X74668214Y-61192676D01*
X74668214Y-61192676D02*
X74763452Y-61097438D01*
X74763452Y-61097438D02*
X74906309Y-61049819D01*
X74906309Y-61049819D02*
X75001547Y-61049819D01*
X75001547Y-61049819D02*
X75144404Y-61097438D01*
X75144404Y-61097438D02*
X75192023Y-61145057D01*
X75620595Y-62049819D02*
X75620595Y-61049819D01*
X75620595Y-61049819D02*
X76192023Y-62049819D01*
X76192023Y-62049819D02*
X76192023Y-61049819D01*
X77096785Y-61049819D02*
X76906309Y-61049819D01*
X76906309Y-61049819D02*
X76811071Y-61097438D01*
X76811071Y-61097438D02*
X76763452Y-61145057D01*
X76763452Y-61145057D02*
X76668214Y-61287914D01*
X76668214Y-61287914D02*
X76620595Y-61478390D01*
X76620595Y-61478390D02*
X76620595Y-61859342D01*
X76620595Y-61859342D02*
X76668214Y-61954580D01*
X76668214Y-61954580D02*
X76715833Y-62002200D01*
X76715833Y-62002200D02*
X76811071Y-62049819D01*
X76811071Y-62049819D02*
X77001547Y-62049819D01*
X77001547Y-62049819D02*
X77096785Y-62002200D01*
X77096785Y-62002200D02*
X77144404Y-61954580D01*
X77144404Y-61954580D02*
X77192023Y-61859342D01*
X77192023Y-61859342D02*
X77192023Y-61621247D01*
X77192023Y-61621247D02*
X77144404Y-61526009D01*
X77144404Y-61526009D02*
X77096785Y-61478390D01*
X77096785Y-61478390D02*
X77001547Y-61430771D01*
X77001547Y-61430771D02*
X76811071Y-61430771D01*
X76811071Y-61430771D02*
X76715833Y-61478390D01*
X76715833Y-61478390D02*
X76668214Y-61526009D01*
X76668214Y-61526009D02*
X76620595Y-61621247D01*
X48609405Y-112484819D02*
X49276071Y-113484819D01*
X49276071Y-112484819D02*
X48609405Y-113484819D01*
X49990357Y-112961009D02*
X49657024Y-112961009D01*
X49657024Y-113484819D02*
X49657024Y-112484819D01*
X49657024Y-112484819D02*
X50133214Y-112484819D01*
X50466548Y-112580057D02*
X50514167Y-112532438D01*
X50514167Y-112532438D02*
X50609405Y-112484819D01*
X50609405Y-112484819D02*
X50847500Y-112484819D01*
X50847500Y-112484819D02*
X50942738Y-112532438D01*
X50942738Y-112532438D02*
X50990357Y-112580057D01*
X50990357Y-112580057D02*
X51037976Y-112675295D01*
X51037976Y-112675295D02*
X51037976Y-112770533D01*
X51037976Y-112770533D02*
X50990357Y-112913390D01*
X50990357Y-112913390D02*
X50418929Y-113484819D01*
X50418929Y-113484819D02*
X51037976Y-113484819D01*
X92212319Y-82081666D02*
X92212319Y-82557856D01*
X92212319Y-82557856D02*
X91212319Y-82557856D01*
X91307557Y-81795951D02*
X91259938Y-81748332D01*
X91259938Y-81748332D02*
X91212319Y-81653094D01*
X91212319Y-81653094D02*
X91212319Y-81414999D01*
X91212319Y-81414999D02*
X91259938Y-81319761D01*
X91259938Y-81319761D02*
X91307557Y-81272142D01*
X91307557Y-81272142D02*
X91402795Y-81224523D01*
X91402795Y-81224523D02*
X91498033Y-81224523D01*
X91498033Y-81224523D02*
X91640890Y-81272142D01*
X91640890Y-81272142D02*
X92212319Y-81843570D01*
X92212319Y-81843570D02*
X92212319Y-81224523D01*
X61002080Y-56046666D02*
X61049700Y-56094285D01*
X61049700Y-56094285D02*
X61097319Y-56237142D01*
X61097319Y-56237142D02*
X61097319Y-56332380D01*
X61097319Y-56332380D02*
X61049700Y-56475237D01*
X61049700Y-56475237D02*
X60954461Y-56570475D01*
X60954461Y-56570475D02*
X60859223Y-56618094D01*
X60859223Y-56618094D02*
X60668747Y-56665713D01*
X60668747Y-56665713D02*
X60525890Y-56665713D01*
X60525890Y-56665713D02*
X60335414Y-56618094D01*
X60335414Y-56618094D02*
X60240176Y-56570475D01*
X60240176Y-56570475D02*
X60144938Y-56475237D01*
X60144938Y-56475237D02*
X60097319Y-56332380D01*
X60097319Y-56332380D02*
X60097319Y-56237142D01*
X60097319Y-56237142D02*
X60144938Y-56094285D01*
X60144938Y-56094285D02*
X60192557Y-56046666D01*
X60097319Y-55141904D02*
X60097319Y-55618094D01*
X60097319Y-55618094D02*
X60573509Y-55665713D01*
X60573509Y-55665713D02*
X60525890Y-55618094D01*
X60525890Y-55618094D02*
X60478271Y-55522856D01*
X60478271Y-55522856D02*
X60478271Y-55284761D01*
X60478271Y-55284761D02*
X60525890Y-55189523D01*
X60525890Y-55189523D02*
X60573509Y-55141904D01*
X60573509Y-55141904D02*
X60668747Y-55094285D01*
X60668747Y-55094285D02*
X60906842Y-55094285D01*
X60906842Y-55094285D02*
X61002080Y-55141904D01*
X61002080Y-55141904D02*
X61049700Y-55189523D01*
X61049700Y-55189523D02*
X61097319Y-55284761D01*
X61097319Y-55284761D02*
X61097319Y-55522856D01*
X61097319Y-55522856D02*
X61049700Y-55618094D01*
X61049700Y-55618094D02*
X61002080Y-55665713D01*
X113072080Y-56046666D02*
X113119700Y-56094285D01*
X113119700Y-56094285D02*
X113167319Y-56237142D01*
X113167319Y-56237142D02*
X113167319Y-56332380D01*
X113167319Y-56332380D02*
X113119700Y-56475237D01*
X113119700Y-56475237D02*
X113024461Y-56570475D01*
X113024461Y-56570475D02*
X112929223Y-56618094D01*
X112929223Y-56618094D02*
X112738747Y-56665713D01*
X112738747Y-56665713D02*
X112595890Y-56665713D01*
X112595890Y-56665713D02*
X112405414Y-56618094D01*
X112405414Y-56618094D02*
X112310176Y-56570475D01*
X112310176Y-56570475D02*
X112214938Y-56475237D01*
X112214938Y-56475237D02*
X112167319Y-56332380D01*
X112167319Y-56332380D02*
X112167319Y-56237142D01*
X112167319Y-56237142D02*
X112214938Y-56094285D01*
X112214938Y-56094285D02*
X112262557Y-56046666D01*
X112262557Y-55665713D02*
X112214938Y-55618094D01*
X112214938Y-55618094D02*
X112167319Y-55522856D01*
X112167319Y-55522856D02*
X112167319Y-55284761D01*
X112167319Y-55284761D02*
X112214938Y-55189523D01*
X112214938Y-55189523D02*
X112262557Y-55141904D01*
X112262557Y-55141904D02*
X112357795Y-55094285D01*
X112357795Y-55094285D02*
X112453033Y-55094285D01*
X112453033Y-55094285D02*
X112595890Y-55141904D01*
X112595890Y-55141904D02*
X113167319Y-55713332D01*
X113167319Y-55713332D02*
X113167319Y-55094285D01*
X50537976Y-61235419D02*
X50585595Y-61187800D01*
X50585595Y-61187800D02*
X50728452Y-61140180D01*
X50728452Y-61140180D02*
X50823690Y-61140180D01*
X50823690Y-61140180D02*
X50966547Y-61187800D01*
X50966547Y-61187800D02*
X51061785Y-61283038D01*
X51061785Y-61283038D02*
X51109404Y-61378276D01*
X51109404Y-61378276D02*
X51157023Y-61568752D01*
X51157023Y-61568752D02*
X51157023Y-61711609D01*
X51157023Y-61711609D02*
X51109404Y-61902085D01*
X51109404Y-61902085D02*
X51061785Y-61997323D01*
X51061785Y-61997323D02*
X50966547Y-62092561D01*
X50966547Y-62092561D02*
X50823690Y-62140180D01*
X50823690Y-62140180D02*
X50728452Y-62140180D01*
X50728452Y-62140180D02*
X50585595Y-62092561D01*
X50585595Y-62092561D02*
X50537976Y-62044942D01*
X50109404Y-61140180D02*
X50109404Y-62140180D01*
X50109404Y-62140180D02*
X49537976Y-61140180D01*
X49537976Y-61140180D02*
X49537976Y-62140180D01*
X49157023Y-62140180D02*
X48490357Y-62140180D01*
X48490357Y-62140180D02*
X48918928Y-61140180D01*
X40142319Y-82081666D02*
X40142319Y-82557856D01*
X40142319Y-82557856D02*
X39142319Y-82557856D01*
X39475652Y-81319761D02*
X40142319Y-81319761D01*
X39094700Y-81557856D02*
X39808985Y-81795951D01*
X39808985Y-81795951D02*
X39808985Y-81176904D01*
X112532319Y-82081666D02*
X112532319Y-82557856D01*
X112532319Y-82557856D02*
X111532319Y-82557856D01*
X112532319Y-81224523D02*
X112532319Y-81795951D01*
X112532319Y-81510237D02*
X111532319Y-81510237D01*
X111532319Y-81510237D02*
X111675176Y-81605475D01*
X111675176Y-81605475D02*
X111770414Y-81700713D01*
X111770414Y-81700713D02*
X111818033Y-81795951D01*
X49680833Y-68939580D02*
X49633214Y-68987200D01*
X49633214Y-68987200D02*
X49490357Y-69034819D01*
X49490357Y-69034819D02*
X49395119Y-69034819D01*
X49395119Y-69034819D02*
X49252262Y-68987200D01*
X49252262Y-68987200D02*
X49157024Y-68891961D01*
X49157024Y-68891961D02*
X49109405Y-68796723D01*
X49109405Y-68796723D02*
X49061786Y-68606247D01*
X49061786Y-68606247D02*
X49061786Y-68463390D01*
X49061786Y-68463390D02*
X49109405Y-68272914D01*
X49109405Y-68272914D02*
X49157024Y-68177676D01*
X49157024Y-68177676D02*
X49252262Y-68082438D01*
X49252262Y-68082438D02*
X49395119Y-68034819D01*
X49395119Y-68034819D02*
X49490357Y-68034819D01*
X49490357Y-68034819D02*
X49633214Y-68082438D01*
X49633214Y-68082438D02*
X49680833Y-68130057D01*
X50537976Y-68368152D02*
X50537976Y-69034819D01*
X50299881Y-67987200D02*
X50061786Y-68701485D01*
X50061786Y-68701485D02*
X50680833Y-68701485D01*
X60462319Y-82081666D02*
X60462319Y-82557856D01*
X60462319Y-82557856D02*
X59462319Y-82557856D01*
X59462319Y-81843570D02*
X59462319Y-81224523D01*
X59462319Y-81224523D02*
X59843271Y-81557856D01*
X59843271Y-81557856D02*
X59843271Y-81414999D01*
X59843271Y-81414999D02*
X59890890Y-81319761D01*
X59890890Y-81319761D02*
X59938509Y-81272142D01*
X59938509Y-81272142D02*
X60033747Y-81224523D01*
X60033747Y-81224523D02*
X60271842Y-81224523D01*
X60271842Y-81224523D02*
X60367080Y-81272142D01*
X60367080Y-81272142D02*
X60414700Y-81319761D01*
X60414700Y-81319761D02*
X60462319Y-81414999D01*
X60462319Y-81414999D02*
X60462319Y-81700713D01*
X60462319Y-81700713D02*
X60414700Y-81795951D01*
X60414700Y-81795951D02*
X60367080Y-81843570D01*
X101750833Y-68939580D02*
X101703214Y-68987200D01*
X101703214Y-68987200D02*
X101560357Y-69034819D01*
X101560357Y-69034819D02*
X101465119Y-69034819D01*
X101465119Y-69034819D02*
X101322262Y-68987200D01*
X101322262Y-68987200D02*
X101227024Y-68891961D01*
X101227024Y-68891961D02*
X101179405Y-68796723D01*
X101179405Y-68796723D02*
X101131786Y-68606247D01*
X101131786Y-68606247D02*
X101131786Y-68463390D01*
X101131786Y-68463390D02*
X101179405Y-68272914D01*
X101179405Y-68272914D02*
X101227024Y-68177676D01*
X101227024Y-68177676D02*
X101322262Y-68082438D01*
X101322262Y-68082438D02*
X101465119Y-68034819D01*
X101465119Y-68034819D02*
X101560357Y-68034819D01*
X101560357Y-68034819D02*
X101703214Y-68082438D01*
X101703214Y-68082438D02*
X101750833Y-68130057D01*
X102703214Y-69034819D02*
X102131786Y-69034819D01*
X102417500Y-69034819D02*
X102417500Y-68034819D01*
X102417500Y-68034819D02*
X102322262Y-68177676D01*
X102322262Y-68177676D02*
X102227024Y-68272914D01*
X102227024Y-68272914D02*
X102131786Y-68320533D01*
X75192023Y-76242080D02*
X75144404Y-76289700D01*
X75144404Y-76289700D02*
X75001547Y-76337319D01*
X75001547Y-76337319D02*
X74906309Y-76337319D01*
X74906309Y-76337319D02*
X74763452Y-76289700D01*
X74763452Y-76289700D02*
X74668214Y-76194461D01*
X74668214Y-76194461D02*
X74620595Y-76099223D01*
X74620595Y-76099223D02*
X74572976Y-75908747D01*
X74572976Y-75908747D02*
X74572976Y-75765890D01*
X74572976Y-75765890D02*
X74620595Y-75575414D01*
X74620595Y-75575414D02*
X74668214Y-75480176D01*
X74668214Y-75480176D02*
X74763452Y-75384938D01*
X74763452Y-75384938D02*
X74906309Y-75337319D01*
X74906309Y-75337319D02*
X75001547Y-75337319D01*
X75001547Y-75337319D02*
X75144404Y-75384938D01*
X75144404Y-75384938D02*
X75192023Y-75432557D01*
X75620595Y-76337319D02*
X75620595Y-75337319D01*
X75620595Y-75337319D02*
X76192023Y-76337319D01*
X76192023Y-76337319D02*
X76192023Y-75337319D01*
X77096785Y-75670652D02*
X77096785Y-76337319D01*
X76858690Y-75289700D02*
X76620595Y-76003985D01*
X76620595Y-76003985D02*
X77239642Y-76003985D01*
X100679405Y-112484819D02*
X101346071Y-113484819D01*
X101346071Y-112484819D02*
X100679405Y-113484819D01*
X102060357Y-112961009D02*
X101727024Y-112961009D01*
X101727024Y-113484819D02*
X101727024Y-112484819D01*
X101727024Y-112484819D02*
X102203214Y-112484819D01*
X103107976Y-113484819D02*
X102536548Y-113484819D01*
X102822262Y-113484819D02*
X102822262Y-112484819D01*
X102822262Y-112484819D02*
X102727024Y-112627676D01*
X102727024Y-112627676D02*
X102631786Y-112722914D01*
X102631786Y-112722914D02*
X102536548Y-112770533D01*
X102607976Y-61235419D02*
X102655595Y-61187800D01*
X102655595Y-61187800D02*
X102798452Y-61140180D01*
X102798452Y-61140180D02*
X102893690Y-61140180D01*
X102893690Y-61140180D02*
X103036547Y-61187800D01*
X103036547Y-61187800D02*
X103131785Y-61283038D01*
X103131785Y-61283038D02*
X103179404Y-61378276D01*
X103179404Y-61378276D02*
X103227023Y-61568752D01*
X103227023Y-61568752D02*
X103227023Y-61711609D01*
X103227023Y-61711609D02*
X103179404Y-61902085D01*
X103179404Y-61902085D02*
X103131785Y-61997323D01*
X103131785Y-61997323D02*
X103036547Y-62092561D01*
X103036547Y-62092561D02*
X102893690Y-62140180D01*
X102893690Y-62140180D02*
X102798452Y-62140180D01*
X102798452Y-62140180D02*
X102655595Y-62092561D01*
X102655595Y-62092561D02*
X102607976Y-62044942D01*
X102179404Y-61140180D02*
X102179404Y-62140180D01*
X102179404Y-62140180D02*
X101607976Y-61140180D01*
X101607976Y-61140180D02*
X101607976Y-62140180D01*
X100655595Y-62140180D02*
X101131785Y-62140180D01*
X101131785Y-62140180D02*
X101179404Y-61663990D01*
X101179404Y-61663990D02*
X101131785Y-61711609D01*
X101131785Y-61711609D02*
X101036547Y-61759228D01*
X101036547Y-61759228D02*
X100798452Y-61759228D01*
X100798452Y-61759228D02*
X100703214Y-61711609D01*
X100703214Y-61711609D02*
X100655595Y-61663990D01*
X100655595Y-61663990D02*
X100607976Y-61568752D01*
X100607976Y-61568752D02*
X100607976Y-61330657D01*
X100607976Y-61330657D02*
X100655595Y-61235419D01*
X100655595Y-61235419D02*
X100703214Y-61187800D01*
X100703214Y-61187800D02*
X100798452Y-61140180D01*
X100798452Y-61140180D02*
X101036547Y-61140180D01*
X101036547Y-61140180D02*
X101131785Y-61187800D01*
X101131785Y-61187800D02*
X101179404Y-61235419D01*
D11*
%TO.C,CN2*%
X43887500Y-138560000D02*
X43887500Y-142560000D01*
X44177500Y-134850000D02*
X46457500Y-134850000D01*
X44177500Y-144820000D02*
X44177500Y-134850000D01*
X44177500Y-144820000D02*
X55517500Y-144820000D01*
X44177500Y-145820000D02*
X44177500Y-144820000D01*
X46457500Y-134850000D02*
X46457500Y-135250000D01*
X46457500Y-135250000D02*
X49157500Y-135250000D01*
X49157500Y-134850000D02*
X55517500Y-134850000D01*
X49157500Y-135250000D02*
X49157500Y-134850000D01*
X55517500Y-134850000D02*
X55517500Y-145820000D01*
X55517500Y-145820000D02*
X44177500Y-145820000D01*
%TO.C,C6*%
X34932500Y-49260000D02*
X43172500Y-49260000D01*
X34932500Y-62500000D02*
X34932500Y-49260000D01*
X34932500Y-62500000D02*
X43172500Y-62500000D01*
X43172500Y-62500000D02*
X43172500Y-49260000D01*
%TO.C,CN1*%
X95957500Y-138560000D02*
X95957500Y-142560000D01*
X96247500Y-134850000D02*
X98527500Y-134850000D01*
X96247500Y-144820000D02*
X96247500Y-134850000D01*
X96247500Y-144820000D02*
X107587500Y-144820000D01*
X96247500Y-145820000D02*
X96247500Y-144820000D01*
X98527500Y-134850000D02*
X98527500Y-135250000D01*
X98527500Y-135250000D02*
X101227500Y-135250000D01*
X101227500Y-134850000D02*
X107587500Y-134850000D01*
X101227500Y-135250000D02*
X101227500Y-134850000D01*
X107587500Y-134850000D02*
X107587500Y-145820000D01*
X107587500Y-145820000D02*
X96247500Y-145820000D01*
%TO.C,C3*%
X87002500Y-49260000D02*
X95242500Y-49260000D01*
X87002500Y-62500000D02*
X87002500Y-49260000D01*
X87002500Y-62500000D02*
X95242500Y-62500000D01*
X95242500Y-62500000D02*
X95242500Y-49260000D01*
%TO.C,CN3*%
X65962500Y-138560000D02*
X65962500Y-142560000D01*
X66252500Y-134850000D02*
X68532500Y-134850000D01*
X66252500Y-144820000D02*
X66252500Y-134850000D01*
X66252500Y-144820000D02*
X85512500Y-144820000D01*
X66252500Y-145820000D02*
X66252500Y-144820000D01*
X68532500Y-134850000D02*
X68532500Y-135250000D01*
X68532500Y-135250000D02*
X71232500Y-135250000D01*
X71232500Y-134850000D02*
X85512500Y-134850000D01*
X71232500Y-135250000D02*
X71232500Y-134850000D01*
X85512500Y-134850000D02*
X85512500Y-145820000D01*
X85512500Y-145820000D02*
X66252500Y-145820000D01*
%TO.C,CN6*%
X85802500Y-56385000D02*
X85802500Y-52385000D01*
X85512500Y-60095000D02*
X83232500Y-60095000D01*
X85512500Y-50125000D02*
X85512500Y-60095000D01*
X85512500Y-50125000D02*
X66252500Y-50125000D01*
X85512500Y-49125000D02*
X85512500Y-50125000D01*
X83232500Y-60095000D02*
X83232500Y-59695000D01*
X83232500Y-59695000D02*
X80532500Y-59695000D01*
X80532500Y-60095000D02*
X66252500Y-60095000D01*
X80532500Y-59695000D02*
X80532500Y-60095000D01*
X66252500Y-60095000D02*
X66252500Y-49125000D01*
X66252500Y-49125000D02*
X85512500Y-49125000D01*
D12*
%TO.C,XF2*%
X33183757Y-101127326D02*
G75*
G02*
X66511243Y-101127326I16663743J-11902674D01*
G01*
X39687500Y-130809999D02*
G75*
G02*
X29527501Y-115570000I10160000J17779999D01*
G01*
X70167499Y-115570000D02*
G75*
G02*
X60007500Y-130809999I-20320000J2540000D01*
G01*
X61595000Y-113030000D02*
G75*
G02*
X38100000Y-113030000I-11747500J0D01*
G01*
X38100000Y-113030000D02*
G75*
G02*
X61595000Y-113030000I11747500J0D01*
G01*
D10*
%TO.C,L2*%
X89852500Y-85407499D02*
G75*
G02*
X93662500Y-85407499I1905000J3492499D01*
G01*
X93662500Y-73977501D02*
G75*
G02*
X89852500Y-73977501I-1905000J-7937499D01*
G01*
D11*
%TO.C,C5*%
X56522500Y-49260000D02*
X64762500Y-49260000D01*
X56522500Y-62500000D02*
X56522500Y-49260000D01*
X56522500Y-62500000D02*
X64762500Y-62500000D01*
X64762500Y-62500000D02*
X64762500Y-49260000D01*
%TO.C,C2*%
X108592500Y-49260000D02*
X116832500Y-49260000D01*
X108592500Y-62500000D02*
X108592500Y-49260000D01*
X108592500Y-62500000D02*
X116832500Y-62500000D01*
X116832500Y-62500000D02*
X116832500Y-49260000D01*
%TO.C,CN7*%
X44177500Y-49125000D02*
X55517500Y-49125000D01*
X44177500Y-60095000D02*
X44177500Y-49125000D01*
X50537500Y-59695000D02*
X50537500Y-60095000D01*
X50537500Y-60095000D02*
X44177500Y-60095000D01*
X53237500Y-59695000D02*
X50537500Y-59695000D01*
X53237500Y-60095000D02*
X53237500Y-59695000D01*
X55517500Y-49125000D02*
X55517500Y-50125000D01*
X55517500Y-50125000D02*
X44177500Y-50125000D01*
X55517500Y-50125000D02*
X55517500Y-60095000D01*
X55517500Y-60095000D02*
X53237500Y-60095000D01*
X55807500Y-56385000D02*
X55807500Y-52385000D01*
D10*
%TO.C,L4*%
X37782500Y-85407499D02*
G75*
G02*
X41592500Y-85407499I1905000J3492499D01*
G01*
X41592500Y-73977501D02*
G75*
G02*
X37782500Y-73977501I-1905000J-7937499D01*
G01*
%TO.C,L1*%
X110172500Y-85407499D02*
G75*
G02*
X113982500Y-85407499I1905000J3492499D01*
G01*
X113982500Y-73977501D02*
G75*
G02*
X110172500Y-73977501I-1905000J-7937499D01*
G01*
D11*
%TO.C,C4*%
X40887500Y-68580000D02*
X43727500Y-68580000D01*
X43727500Y-65210000D02*
X43727500Y-71950000D01*
X43727500Y-71950000D02*
X55967500Y-71950000D01*
X55967500Y-65210000D02*
X43727500Y-65210000D01*
X55967500Y-71950000D02*
X55967500Y-65210000D01*
X58807500Y-68580000D02*
X55967500Y-68580000D01*
D10*
%TO.C,L3*%
X58102500Y-85407499D02*
G75*
G02*
X61912500Y-85407499I1905000J3492499D01*
G01*
X61912500Y-73977501D02*
G75*
G02*
X58102500Y-73977501I-1905000J-7937499D01*
G01*
D11*
%TO.C,C1*%
X92957500Y-68580000D02*
X95797500Y-68580000D01*
X95797500Y-65210000D02*
X95797500Y-71950000D01*
X95797500Y-71950000D02*
X108037500Y-71950000D01*
X108037500Y-65210000D02*
X95797500Y-65210000D01*
X108037500Y-71950000D02*
X108037500Y-65210000D01*
X110877500Y-68580000D02*
X108037500Y-68580000D01*
%TO.C,CN4*%
X85512500Y-74065000D02*
X66252500Y-74065000D01*
X85512500Y-63095000D02*
X85512500Y-74065000D01*
X71232500Y-63495000D02*
X71232500Y-63095000D01*
X71232500Y-63095000D02*
X85512500Y-63095000D01*
X68532500Y-63495000D02*
X71232500Y-63495000D01*
X68532500Y-63095000D02*
X68532500Y-63495000D01*
X66252500Y-74065000D02*
X66252500Y-73065000D01*
X66252500Y-73065000D02*
X85512500Y-73065000D01*
X66252500Y-73065000D02*
X66252500Y-63095000D01*
X66252500Y-63095000D02*
X68532500Y-63095000D01*
X65962500Y-66805000D02*
X65962500Y-70805000D01*
D12*
%TO.C,XF1*%
X85253757Y-101127326D02*
G75*
G02*
X118581243Y-101127326I16663743J-11902674D01*
G01*
X91757500Y-130809999D02*
G75*
G02*
X81597501Y-115570000I10160000J17779999D01*
G01*
X122237499Y-115570000D02*
G75*
G02*
X112077500Y-130809999I-20320000J2540000D01*
G01*
X113665000Y-113030000D02*
G75*
G02*
X90170000Y-113030000I-11747500J0D01*
G01*
X90170000Y-113030000D02*
G75*
G02*
X113665000Y-113030000I11747500J0D01*
G01*
D11*
%TO.C,CN5*%
X96247500Y-49125000D02*
X107587500Y-49125000D01*
X96247500Y-60095000D02*
X96247500Y-49125000D01*
X102607500Y-59695000D02*
X102607500Y-60095000D01*
X102607500Y-60095000D02*
X96247500Y-60095000D01*
X105307500Y-59695000D02*
X102607500Y-59695000D01*
X105307500Y-60095000D02*
X105307500Y-59695000D01*
X107587500Y-49125000D02*
X107587500Y-50125000D01*
X107587500Y-50125000D02*
X96247500Y-50125000D01*
X107587500Y-50125000D02*
X107587500Y-60095000D01*
X107587500Y-60095000D02*
X105307500Y-60095000D01*
X107877500Y-56385000D02*
X107877500Y-52385000D01*
%TD*%
M02*
