M48
; DRILL file {KiCad 8.0.4} date 2025-08-12T13:21:17+0700
; FORMAT={-:-/ absolute / metric / decimal}
; #@! TF.CreationDate,2025-08-12T13:21:17+07:00
; #@! TF.GenerationSoftware,Kicad,Pcbnew,8.0.4
; #@! TF.FileFunction,Plated,1,2,PTH
FMAT,2
METRIC
; #@! TA.AperFunction,Plated,PTH,ViaDrill
T1C1.000
; #@! TA.AperFunction,Plated,PTH,ComponentDrill
T2C1.000
; #@! TA.AperFunction,Plated,PTH,ComponentDrill
T3C1.300
; #@! TA.AperFunction,Plated,PTH,ComponentDrill
T4C1.800
; #@! TA.AperFunction,Plated,PTH,ComponentDrill
T5C3.000
%
G90
G05
T1
X39.052Y-48.26
X39.052Y-63.5
X42.227Y-68.58
X44.847Y-68.58
X54.847Y-68.58
X57.467Y-68.58
X60.642Y-48.26
X60.642Y-63.5
X91.123Y-48.26
X91.123Y-63.5
X94.297Y-68.58
X96.917Y-68.58
X106.917Y-68.58
X109.537Y-68.58
X112.712Y-48.26
X112.712Y-63.5
T2
X39.052Y-50.88
X39.052Y-60.88
X39.688Y-68.58
X60.008Y-68.58
X60.642Y-50.88
X60.642Y-60.88
X91.123Y-50.88
X91.123Y-60.88
X91.757Y-68.58
X112.078Y-68.58
X112.712Y-50.88
X112.712Y-60.88
T3
X28.892Y-113.03
X31.75Y-102.552
X39.688Y-73.66
X39.688Y-86.36
X41.91Y-132.08
X57.785Y-132.08
X60.008Y-73.66
X60.008Y-86.36
X67.945Y-102.552
X70.802Y-113.03
X80.962Y-113.03
X83.82Y-102.552
X91.757Y-73.66
X91.757Y-86.36
X93.98Y-132.08
X109.855Y-132.08
X112.078Y-73.66
X112.078Y-86.36
X120.015Y-102.552
X122.872Y-113.03
T4
X45.887Y-54.385
X45.887Y-140.56
X53.807Y-54.385
X53.807Y-140.56
X67.962Y-54.385
X67.962Y-68.805
X67.962Y-140.56
X75.882Y-54.385
X75.882Y-68.805
X75.882Y-140.56
X83.802Y-54.385
X83.802Y-68.805
X83.802Y-140.56
X97.957Y-54.385
X97.957Y-140.56
X105.877Y-54.385
X105.877Y-140.56
T5
X31.115Y-52.387
X31.115Y-131.762
X120.65Y-52.387
X120.65Y-131.762
M30
