%TF.GenerationSoftware,KiCad,Pcbnew,8.0.4*%
%TF.CreationDate,2025-08-12T13:16:13+07:00*%
%TF.ProjectId,XF-1.0,58462d31-2e30-42e6-9b69-6361645f7063,rev?*%
%TF.SameCoordinates,Original*%
%TF.FileFunction,Soldermask,Bot*%
%TF.FilePolarity,Negative*%
%FSLAX46Y46*%
G04 Gerber Fmt 4.6, Leading zero omitted, Abs format (unit mm)*
G04 Created by KiCad (PCBNEW 8.0.4) date 2025-08-12 13:16:13*
%MOMM*%
%LPD*%
G01*
G04 APERTURE LIST*
G04 Aperture macros list*
%AMRoundRect*
0 Rectangle with rounded corners*
0 $1 Rounding radius*
0 $2 $3 $4 $5 $6 $7 $8 $9 X,Y pos of 4 corners*
0 Add a 4 corners polygon primitive as box body*
4,1,4,$2,$3,$4,$5,$6,$7,$8,$9,$2,$3,0*
0 Add four circle primitives for the rounded corners*
1,1,$1+$1,$2,$3*
1,1,$1+$1,$4,$5*
1,1,$1+$1,$6,$7*
1,1,$1+$1,$8,$9*
0 Add four rect primitives between the rounded corners*
20,1,$1+$1,$2,$3,$4,$5,0*
20,1,$1+$1,$4,$5,$6,$7,0*
20,1,$1+$1,$6,$7,$8,$9,0*
20,1,$1+$1,$8,$9,$2,$3,0*%
G04 Aperture macros list end*
%ADD10C,1.000000*%
%ADD11RoundRect,0.250000X-1.330000X-1.850000X1.330000X-1.850000X1.330000X1.850000X-1.330000X1.850000X0*%
%ADD12O,3.160000X4.200000*%
%ADD13C,2.000000*%
%ADD14C,6.000000*%
%ADD15RoundRect,0.250000X1.330000X1.850000X-1.330000X1.850000X-1.330000X-1.850000X1.330000X-1.850000X0*%
%ADD16C,2.540000*%
%ADD17C,2.600000*%
G04 APERTURE END LIST*
D10*
X113212500Y-48260000D02*
G75*
G02*
X112212500Y-48260000I-500000J0D01*
G01*
X112212500Y-48260000D02*
G75*
G02*
X113212500Y-48260000I500000J0D01*
G01*
X55347500Y-68580000D02*
G75*
G02*
X54347500Y-68580000I-500000J0D01*
G01*
X54347500Y-68580000D02*
G75*
G02*
X55347500Y-68580000I500000J0D01*
G01*
X110037500Y-68580000D02*
G75*
G02*
X109037500Y-68580000I-500000J0D01*
G01*
X109037500Y-68580000D02*
G75*
G02*
X110037500Y-68580000I500000J0D01*
G01*
X45347500Y-68580000D02*
G75*
G02*
X44347500Y-68580000I-500000J0D01*
G01*
X44347500Y-68580000D02*
G75*
G02*
X45347500Y-68580000I500000J0D01*
G01*
X57967500Y-68580000D02*
G75*
G02*
X56967500Y-68580000I-500000J0D01*
G01*
X56967500Y-68580000D02*
G75*
G02*
X57967500Y-68580000I500000J0D01*
G01*
X91622500Y-63500000D02*
G75*
G02*
X90622500Y-63500000I-500000J0D01*
G01*
X90622500Y-63500000D02*
G75*
G02*
X91622500Y-63500000I500000J0D01*
G01*
X61142500Y-63500000D02*
G75*
G02*
X60142500Y-63500000I-500000J0D01*
G01*
X60142500Y-63500000D02*
G75*
G02*
X61142500Y-63500000I500000J0D01*
G01*
X97417500Y-68580000D02*
G75*
G02*
X96417500Y-68580000I-500000J0D01*
G01*
X96417500Y-68580000D02*
G75*
G02*
X97417500Y-68580000I500000J0D01*
G01*
X61142500Y-48260000D02*
G75*
G02*
X60142500Y-48260000I-500000J0D01*
G01*
X60142500Y-48260000D02*
G75*
G02*
X61142500Y-48260000I500000J0D01*
G01*
X39552500Y-48260000D02*
G75*
G02*
X38552500Y-48260000I-500000J0D01*
G01*
X38552500Y-48260000D02*
G75*
G02*
X39552500Y-48260000I500000J0D01*
G01*
X94797500Y-68580000D02*
G75*
G02*
X93797500Y-68580000I-500000J0D01*
G01*
X93797500Y-68580000D02*
G75*
G02*
X94797500Y-68580000I500000J0D01*
G01*
X42727500Y-68580000D02*
G75*
G02*
X41727500Y-68580000I-500000J0D01*
G01*
X41727500Y-68580000D02*
G75*
G02*
X42727500Y-68580000I500000J0D01*
G01*
X39552500Y-63500000D02*
G75*
G02*
X38552500Y-63500000I-500000J0D01*
G01*
X38552500Y-63500000D02*
G75*
G02*
X39552500Y-63500000I500000J0D01*
G01*
X113212500Y-63500000D02*
G75*
G02*
X112212500Y-63500000I-500000J0D01*
G01*
X112212500Y-63500000D02*
G75*
G02*
X113212500Y-63500000I500000J0D01*
G01*
X107417500Y-68580000D02*
G75*
G02*
X106417500Y-68580000I-500000J0D01*
G01*
X106417500Y-68580000D02*
G75*
G02*
X107417500Y-68580000I500000J0D01*
G01*
X91622500Y-48260000D02*
G75*
G02*
X90622500Y-48260000I-500000J0D01*
G01*
X90622500Y-48260000D02*
G75*
G02*
X91622500Y-48260000I500000J0D01*
G01*
D11*
%TO.C,CN2*%
X45887500Y-140560000D03*
D12*
X53807500Y-140560000D03*
%TD*%
D13*
%TO.C,C6*%
X39052500Y-60880000D03*
X39052500Y-50880000D03*
%TD*%
D11*
%TO.C,CN1*%
X97957500Y-140560000D03*
D12*
X105877500Y-140560000D03*
%TD*%
D13*
%TO.C,C3*%
X91122500Y-60880000D03*
X91122500Y-50880000D03*
%TD*%
D14*
%TO.C,H4*%
X120650000Y-131762500D03*
%TD*%
D11*
%TO.C,CN3*%
X67962500Y-140560000D03*
D12*
X75882500Y-140560000D03*
X83802500Y-140560000D03*
%TD*%
%TO.C,CN6*%
X67962500Y-54385000D03*
X75882500Y-54385000D03*
D15*
X83802500Y-54385000D03*
%TD*%
D16*
%TO.C,XF2*%
X41910000Y-132080000D03*
X57785000Y-132080000D03*
X28892500Y-113030000D03*
X31750000Y-102552500D03*
X67945000Y-102552500D03*
X70802500Y-113030000D03*
%TD*%
D14*
%TO.C,H2*%
X31115000Y-52387500D03*
%TD*%
D17*
%TO.C,L2*%
X91757500Y-86360000D03*
X91757500Y-73660000D03*
%TD*%
D13*
%TO.C,C5*%
X60642500Y-60880000D03*
X60642500Y-50880000D03*
%TD*%
%TO.C,C2*%
X112712500Y-60880000D03*
X112712500Y-50880000D03*
%TD*%
D15*
%TO.C,CN7*%
X53807500Y-54385000D03*
D12*
X45887500Y-54385000D03*
%TD*%
D17*
%TO.C,L4*%
X39687500Y-86360000D03*
X39687500Y-73660000D03*
%TD*%
D14*
%TO.C,H3*%
X31115000Y-131762500D03*
%TD*%
D17*
%TO.C,L1*%
X112077500Y-86360000D03*
X112077500Y-73660000D03*
%TD*%
D13*
%TO.C,C4*%
X60007500Y-68580000D03*
X39687500Y-68580000D03*
%TD*%
D17*
%TO.C,L3*%
X60007500Y-86360000D03*
X60007500Y-73660000D03*
%TD*%
D13*
%TO.C,C1*%
X112077500Y-68580000D03*
X91757500Y-68580000D03*
%TD*%
D12*
%TO.C,CN4*%
X83802500Y-68805000D03*
X75882500Y-68805000D03*
D11*
X67962500Y-68805000D03*
%TD*%
D14*
%TO.C,H1*%
X120650000Y-52387500D03*
%TD*%
D16*
%TO.C,XF1*%
X93980000Y-132080000D03*
X109855000Y-132080000D03*
X80962500Y-113030000D03*
X83820000Y-102552500D03*
X120015000Y-102552500D03*
X122872500Y-113030000D03*
%TD*%
D15*
%TO.C,CN5*%
X105877500Y-54385000D03*
D12*
X97957500Y-54385000D03*
%TD*%
M02*
