%TF.GenerationSoftware,KiCad,Pcbnew,8.0.4*%
%TF.CreationDate,2025-08-12T13:16:13+07:00*%
%TF.ProjectId,XF-1.0,58462d31-2e30-42e6-9b69-6361645f7063,rev?*%
%TF.SameCoordinates,Original*%
%TF.FileFunction,Copper,L2,Bot*%
%TF.FilePolarity,Positive*%
%FSLAX46Y46*%
G04 Gerber Fmt 4.6, Leading zero omitted, Abs format (unit mm)*
G04 Created by KiCad (PCBNEW 8.0.4) date 2025-08-12 13:16:13*
%MOMM*%
%LPD*%
G01*
G04 APERTURE LIST*
G04 Aperture macros list*
%AMRoundRect*
0 Rectangle with rounded corners*
0 $1 Rounding radius*
0 $2 $3 $4 $5 $6 $7 $8 $9 X,Y pos of 4 corners*
0 Add a 4 corners polygon primitive as box body*
4,1,4,$2,$3,$4,$5,$6,$7,$8,$9,$2,$3,0*
0 Add four circle primitives for the rounded corners*
1,1,$1+$1,$2,$3*
1,1,$1+$1,$4,$5*
1,1,$1+$1,$6,$7*
1,1,$1+$1,$8,$9*
0 Add four rect primitives between the rounded corners*
20,1,$1+$1,$2,$3,$4,$5,0*
20,1,$1+$1,$4,$5,$6,$7,0*
20,1,$1+$1,$6,$7,$8,$9,0*
20,1,$1+$1,$8,$9,$2,$3,0*%
G04 Aperture macros list end*
%TA.AperFunction,ComponentPad*%
%ADD10RoundRect,0.250000X-1.330000X-1.850000X1.330000X-1.850000X1.330000X1.850000X-1.330000X1.850000X0*%
%TD*%
%TA.AperFunction,ComponentPad*%
%ADD11O,3.160000X4.200000*%
%TD*%
%TA.AperFunction,ComponentPad*%
%ADD12C,2.000000*%
%TD*%
%TA.AperFunction,ComponentPad*%
%ADD13C,6.000000*%
%TD*%
%TA.AperFunction,ComponentPad*%
%ADD14RoundRect,0.250000X1.330000X1.850000X-1.330000X1.850000X-1.330000X-1.850000X1.330000X-1.850000X0*%
%TD*%
%TA.AperFunction,ComponentPad*%
%ADD15C,2.540000*%
%TD*%
%TA.AperFunction,ComponentPad*%
%ADD16C,2.600000*%
%TD*%
%TA.AperFunction,ViaPad*%
%ADD17C,2.000000*%
%TD*%
%TA.AperFunction,Conductor*%
%ADD18C,2.000000*%
%TD*%
%TA.AperFunction,Conductor*%
%ADD19C,1.016000*%
%TD*%
G04 APERTURE END LIST*
D10*
%TO.P,CN2,1,Pin_1*%
%TO.N,Net-(CN2-Pin_1)*%
X45887500Y-140560000D03*
D11*
%TO.P,CN2,2,Pin_2*%
%TO.N,Net-(CN2-Pin_2)*%
X53807500Y-140560000D03*
%TD*%
D12*
%TO.P,C6,1*%
%TO.N,Net-(C4-Pad2)*%
X39052500Y-60880000D03*
%TO.P,C6,2*%
%TO.N,Net-(CN3-Pin_1)*%
X39052500Y-50880000D03*
%TD*%
D10*
%TO.P,CN1,1,Pin_1*%
%TO.N,Net-(CN1-Pin_1)*%
X97957500Y-140560000D03*
D11*
%TO.P,CN1,2,Pin_2*%
%TO.N,Net-(CN1-Pin_2)*%
X105877500Y-140560000D03*
%TD*%
D12*
%TO.P,C3,1*%
%TO.N,Net-(C1-Pad2)*%
X91122500Y-60880000D03*
%TO.P,C3,2*%
%TO.N,Net-(CN5-Pin_2)*%
X91122500Y-50880000D03*
%TD*%
D13*
%TO.P,H4,1,1*%
%TO.N,unconnected-(H4-Pad1)*%
X120650000Y-131762500D03*
%TD*%
D10*
%TO.P,CN3,1,Pin_1*%
%TO.N,Net-(CN3-Pin_1)*%
X67962500Y-140560000D03*
D11*
%TO.P,CN3,2,Pin_2*%
%TO.N,Net-(CN3-Pin_2)*%
X75882500Y-140560000D03*
%TO.P,CN3,3,Pin_3*%
%TO.N,Net-(CN3-Pin_3)*%
X83802500Y-140560000D03*
%TD*%
%TO.P,CN6,3,Pin_3*%
%TO.N,Net-(CN4-Pin_1)*%
X67962500Y-54385000D03*
%TO.P,CN6,2,Pin_2*%
%TO.N,Net-(CN4-Pin_2)*%
X75882500Y-54385000D03*
D14*
%TO.P,CN6,1,Pin_1*%
%TO.N,Net-(CN4-Pin_3)*%
X83802500Y-54385000D03*
%TD*%
D15*
%TO.P,XF2,1*%
%TO.N,Net-(CN2-Pin_1)*%
X41910000Y-132080000D03*
%TO.P,XF2,2*%
%TO.N,Net-(CN2-Pin_2)*%
X57785000Y-132080000D03*
%TO.P,XF2,3*%
%TO.N,Net-(L4-Pad1)*%
X28892500Y-113030000D03*
X31750000Y-102552500D03*
%TO.P,XF2,4*%
%TO.N,Net-(L3-Pad1)*%
X67945000Y-102552500D03*
X70802500Y-113030000D03*
%TD*%
D13*
%TO.P,H2,1,1*%
%TO.N,unconnected-(H2-Pad1)*%
X31115000Y-52387500D03*
%TD*%
D16*
%TO.P,L2,1,1*%
%TO.N,Net-(L2-Pad1)*%
X91757500Y-86360000D03*
%TO.P,L2,2,2*%
%TO.N,Net-(C1-Pad2)*%
X91757500Y-73660000D03*
%TD*%
D12*
%TO.P,C5,1*%
%TO.N,Net-(C4-Pad1)*%
X60642500Y-60880000D03*
%TO.P,C5,2*%
%TO.N,Net-(CN4-Pin_3)*%
X60642500Y-50880000D03*
%TD*%
%TO.P,C2,1*%
%TO.N,Net-(C1-Pad1)*%
X112712500Y-60880000D03*
%TO.P,C2,2*%
%TO.N,Net-(CN5-Pin_1)*%
X112712500Y-50880000D03*
%TD*%
D14*
%TO.P,CN7,1,Pin_1*%
%TO.N,Net-(CN3-Pin_3)*%
X53807500Y-54385000D03*
D11*
%TO.P,CN7,2,Pin_2*%
%TO.N,Net-(CN3-Pin_2)*%
X45887500Y-54385000D03*
%TD*%
D16*
%TO.P,L4,1,1*%
%TO.N,Net-(L4-Pad1)*%
X39687500Y-86360000D03*
%TO.P,L4,2,2*%
%TO.N,Net-(C4-Pad2)*%
X39687500Y-73660000D03*
%TD*%
D13*
%TO.P,H3,1,1*%
%TO.N,unconnected-(H3-Pad1)*%
X31115000Y-131762500D03*
%TD*%
D16*
%TO.P,L1,1,1*%
%TO.N,Net-(L1-Pad1)*%
X112077500Y-86360000D03*
%TO.P,L1,2,2*%
%TO.N,Net-(C1-Pad1)*%
X112077500Y-73660000D03*
%TD*%
D12*
%TO.P,C4,1*%
%TO.N,Net-(C4-Pad1)*%
X60007500Y-68580000D03*
%TO.P,C4,2*%
%TO.N,Net-(C4-Pad2)*%
X39687500Y-68580000D03*
%TD*%
D16*
%TO.P,L3,1,1*%
%TO.N,Net-(L3-Pad1)*%
X60007500Y-86360000D03*
%TO.P,L3,2,2*%
%TO.N,Net-(C4-Pad1)*%
X60007500Y-73660000D03*
%TD*%
D12*
%TO.P,C1,1*%
%TO.N,Net-(C1-Pad1)*%
X112077500Y-68580000D03*
%TO.P,C1,2*%
%TO.N,Net-(C1-Pad2)*%
X91757500Y-68580000D03*
%TD*%
D11*
%TO.P,CN4,3,Pin_3*%
%TO.N,Net-(CN4-Pin_3)*%
X83802500Y-68805000D03*
%TO.P,CN4,2,Pin_2*%
%TO.N,Net-(CN4-Pin_2)*%
X75882500Y-68805000D03*
D10*
%TO.P,CN4,1,Pin_1*%
%TO.N,Net-(CN4-Pin_1)*%
X67962500Y-68805000D03*
%TD*%
D13*
%TO.P,H1,1,1*%
%TO.N,unconnected-(H1-Pad1)*%
X120650000Y-52387500D03*
%TD*%
D15*
%TO.P,XF1,1*%
%TO.N,Net-(CN1-Pin_1)*%
X93980000Y-132080000D03*
%TO.P,XF1,2*%
%TO.N,Net-(CN1-Pin_2)*%
X109855000Y-132080000D03*
%TO.P,XF1,3*%
%TO.N,Net-(L2-Pad1)*%
X80962500Y-113030000D03*
X83820000Y-102552500D03*
%TO.P,XF1,4*%
%TO.N,Net-(L1-Pad1)*%
X120015000Y-102552500D03*
X122872500Y-113030000D03*
%TD*%
D14*
%TO.P,CN5,1,Pin_1*%
%TO.N,Net-(CN5-Pin_1)*%
X105877500Y-54385000D03*
D11*
%TO.P,CN5,2,Pin_2*%
%TO.N,Net-(CN5-Pin_2)*%
X97957500Y-54385000D03*
%TD*%
D17*
%TO.N,Net-(CN5-Pin_1)*%
X112712500Y-48260000D03*
%TO.N,Net-(CN5-Pin_2)*%
X91122500Y-48260000D03*
%TO.N,Net-(C1-Pad2)*%
X91122500Y-63500000D03*
X96917500Y-68580000D03*
X94297500Y-68580000D03*
%TO.N,Net-(C1-Pad1)*%
X112712500Y-63500000D03*
X106917500Y-68580000D03*
X109537500Y-68580000D03*
%TO.N,Net-(C4-Pad1)*%
X54847500Y-68580000D03*
X60642500Y-63500000D03*
X57467500Y-68580000D03*
%TO.N,Net-(C4-Pad2)*%
X44847500Y-68580000D03*
X39052500Y-63500000D03*
X42227500Y-68580000D03*
%TO.N,Net-(CN4-Pin_3)*%
X60642500Y-48260000D03*
%TO.N,Net-(CN3-Pin_1)*%
X39052500Y-48260000D03*
%TD*%
D18*
%TO.N,Net-(L1-Pad1)*%
X122872500Y-105410000D02*
X122872500Y-113030000D01*
X112077500Y-86360000D02*
X112077500Y-94615000D01*
X120015000Y-102552500D02*
X122872500Y-105410000D01*
X112077500Y-94615000D02*
X120015000Y-102552500D01*
%TO.N,Net-(L2-Pad1)*%
X91757500Y-94615000D02*
X83820000Y-102552500D01*
X83820000Y-102552500D02*
X80962500Y-105410000D01*
X80962500Y-105410000D02*
X80962500Y-113030000D01*
X91757500Y-86360000D02*
X91757500Y-94615000D01*
%TO.N,Net-(CN2-Pin_1)*%
X45887500Y-140560000D02*
X45887500Y-136057500D01*
X45887500Y-136057500D02*
X41910000Y-132080000D01*
%TO.N,Net-(CN2-Pin_2)*%
X53807500Y-136057500D02*
X57785000Y-132080000D01*
X53807500Y-140560000D02*
X53807500Y-136057500D01*
%TO.N,Net-(L3-Pad1)*%
X70802500Y-105410000D02*
X67945000Y-102552500D01*
X70802500Y-113030000D02*
X70802500Y-105410000D01*
X67945000Y-102552500D02*
X60007500Y-94615000D01*
X60007500Y-94615000D02*
X60007500Y-86360000D01*
%TO.N,Net-(L4-Pad1)*%
X39687500Y-94615000D02*
X39687500Y-86360000D01*
X31750000Y-102552500D02*
X39687500Y-94615000D01*
X28892500Y-105410000D02*
X28892500Y-113030000D01*
X31750000Y-102552500D02*
X28892500Y-105410000D01*
%TO.N,Net-(CN5-Pin_1)*%
X107950000Y-48260000D02*
X112712500Y-48260000D01*
X105877500Y-54385000D02*
X105877500Y-50332500D01*
X105877500Y-50332500D02*
X107950000Y-48260000D01*
X112712500Y-50880000D02*
X112712500Y-48260000D01*
%TO.N,Net-(CN5-Pin_2)*%
X95885000Y-48260000D02*
X91122500Y-48260000D01*
X97957500Y-54385000D02*
X97957500Y-50332500D01*
X97957500Y-50332500D02*
X95885000Y-48260000D01*
X91122500Y-48260000D02*
X91122500Y-50880000D01*
D19*
%TO.N,Net-(CN4-Pin_1)*%
X67962500Y-54385000D02*
X67962500Y-68805000D01*
%TO.N,Net-(CN3-Pin_3)*%
X51117500Y-63500000D02*
X53807500Y-60810000D01*
X51117500Y-73660000D02*
X51117500Y-63500000D01*
X53657500Y-105092500D02*
X53657500Y-76200000D01*
X53657500Y-76200000D02*
X51117500Y-73660000D01*
X53807500Y-60810000D02*
X53807500Y-54385000D01*
X83802500Y-135237500D02*
X53657500Y-105092500D01*
X83802500Y-140560000D02*
X83802500Y-135237500D01*
D18*
%TO.N,Net-(CN1-Pin_2)*%
X105877500Y-140560000D02*
X105877500Y-136057500D01*
X105877500Y-136057500D02*
X109855000Y-132080000D01*
%TO.N,Net-(CN1-Pin_1)*%
X97957500Y-136057500D02*
X93980000Y-132080000D01*
X97957500Y-140560000D02*
X97957500Y-136057500D01*
%TO.N,Net-(C1-Pad2)*%
X91122500Y-60880000D02*
X91122500Y-63500000D01*
X91122500Y-63500000D02*
X91122500Y-65405000D01*
X91122500Y-67945000D02*
X91757500Y-68580000D01*
X94297500Y-68580000D02*
X91122500Y-65405000D01*
X94297500Y-68580000D02*
X91757500Y-71120000D01*
X96917500Y-68580000D02*
X94297500Y-68580000D01*
X94297500Y-68580000D02*
X91757500Y-68580000D01*
X91122500Y-65405000D02*
X91122500Y-67945000D01*
X91757500Y-73660000D02*
X91757500Y-71120000D01*
X91757500Y-71120000D02*
X91757500Y-68580000D01*
%TO.N,Net-(C1-Pad1)*%
X109537500Y-68580000D02*
X112712500Y-65405000D01*
X112712500Y-65405000D02*
X112077500Y-66040000D01*
X112712500Y-60880000D02*
X112712500Y-63500000D01*
X112712500Y-63500000D02*
X112712500Y-65405000D01*
X112077500Y-71120000D02*
X112077500Y-73660000D01*
X112077500Y-66040000D02*
X112077500Y-69850000D01*
X109537500Y-68580000D02*
X112077500Y-71120000D01*
X112077500Y-68580000D02*
X109537500Y-68580000D01*
X112077500Y-73660000D02*
X112077500Y-68580000D01*
X109537500Y-68580000D02*
X106917500Y-68580000D01*
%TO.N,Net-(C4-Pad1)*%
X60007500Y-73660000D02*
X60007500Y-71120000D01*
X57467500Y-68580000D02*
X60007500Y-71120000D01*
X57467500Y-68580000D02*
X60642500Y-65405000D01*
X60642500Y-63500000D02*
X60642500Y-65405000D01*
X57467500Y-68580000D02*
X54847500Y-68580000D01*
X60642500Y-60880000D02*
X60642500Y-63500000D01*
X60642500Y-65405000D02*
X60642500Y-67945000D01*
X60007500Y-68580000D02*
X57467500Y-68580000D01*
X60642500Y-67945000D02*
X60007500Y-68580000D01*
X60007500Y-71120000D02*
X60007500Y-68580000D01*
%TO.N,Net-(C4-Pad2)*%
X39052500Y-65405000D02*
X39052500Y-67945000D01*
X39687500Y-73660000D02*
X39687500Y-71120000D01*
X39052500Y-67945000D02*
X39687500Y-68580000D01*
X42227500Y-68580000D02*
X39687500Y-71120000D01*
X42227500Y-68580000D02*
X39687500Y-68580000D01*
X39052500Y-63500000D02*
X39052500Y-65405000D01*
X39687500Y-71120000D02*
X39687500Y-68580000D01*
X42227500Y-68580000D02*
X39052500Y-65405000D01*
X44847500Y-68580000D02*
X42227500Y-68580000D01*
X39052500Y-60880000D02*
X39052500Y-63500000D01*
D19*
%TO.N,Net-(CN4-Pin_2)*%
X75882500Y-54385000D02*
X75882500Y-68805000D01*
D18*
%TO.N,Net-(CN4-Pin_3)*%
X80962500Y-48260000D02*
X83802500Y-51100000D01*
X60642500Y-48260000D02*
X80962500Y-48260000D01*
X83802500Y-51100000D02*
X83802500Y-54385000D01*
X60642500Y-50880000D02*
X60642500Y-48260000D01*
X83802500Y-54385000D02*
X83802500Y-68805000D01*
D19*
%TO.N,Net-(CN3-Pin_2)*%
X48577500Y-63500000D02*
X45887500Y-60810000D01*
X48577500Y-75247500D02*
X48577500Y-63500000D01*
X75882500Y-140560000D02*
X75882500Y-131127500D01*
X75882500Y-131127500D02*
X51117500Y-106362500D01*
X51117500Y-106362500D02*
X51117500Y-77787500D01*
X51117500Y-77787500D02*
X48577500Y-75247500D01*
X45887500Y-60810000D02*
X45887500Y-54385000D01*
D18*
%TO.N,Net-(CN3-Pin_1)*%
X45720000Y-82550000D02*
X43180000Y-80010000D01*
X31750000Y-77470000D02*
X31750000Y-61912500D01*
X39052500Y-48260000D02*
X39052500Y-50880000D01*
X31750000Y-61912500D02*
X39052500Y-54610000D01*
X34290000Y-80010000D02*
X31750000Y-77470000D01*
X39052500Y-54610000D02*
X39052500Y-50880000D01*
X67962500Y-140560000D02*
X67962500Y-131780000D01*
X67962500Y-131780000D02*
X45720000Y-109537500D01*
X45720000Y-109537500D02*
X45720000Y-82550000D01*
X43180000Y-80010000D02*
X34290000Y-80010000D01*
%TD*%
M02*
