%TF.GenerationSoftware,KiCad,Pcbnew,8.0.4*%
%TF.CreationDate,2025-03-05T14:00:16+07:00*%
%TF.ProjectId,MSD-1.0,4d53442d-312e-4302-9e6b-696361645f70,rev?*%
%TF.SameCoordinates,Original*%
%TF.FileFunction,Soldermask,Top*%
%TF.FilePolarity,Negative*%
%FSLAX46Y46*%
G04 Gerber Fmt 4.6, Leading zero omitted, Abs format (unit mm)*
G04 Created by KiCad (PCBNEW 8.0.4) date 2025-03-05 14:00:16*
%MOMM*%
%LPD*%
G01*
G04 APERTURE LIST*
%ADD10R,1.500000X1.500000*%
%ADD11O,1.500000X1.500000*%
%ADD12C,2.000000*%
%ADD13R,1.700000X1.700000*%
%ADD14O,1.700000X1.700000*%
%ADD15R,1.600000X1.600000*%
%ADD16O,1.600000X1.600000*%
%ADD17C,1.400000*%
%ADD18O,1.400000X1.400000*%
%ADD19C,1.600000*%
%ADD20R,2.000000X2.000000*%
%ADD21O,3.500000X3.500000*%
%ADD22R,1.905000X2.000000*%
%ADD23O,1.905000X2.000000*%
%ADD24R,3.000000X3.000000*%
%ADD25C,3.000000*%
G04 APERTURE END LIST*
D10*
%TO.C,D3*%
X161290000Y-59060000D03*
D11*
X161290000Y-51440000D03*
%TD*%
D12*
%TO.C,TP2*%
X118427500Y-60960000D03*
X120967500Y-60960000D03*
%TD*%
D13*
%TO.C,J2*%
X171450000Y-62547500D03*
D14*
X166370000Y-62547500D03*
X161290000Y-62547500D03*
%TD*%
D15*
%TO.C,U3*%
X149850000Y-53980000D03*
D16*
X149850000Y-51440000D03*
X142230000Y-51440000D03*
X142230000Y-53980000D03*
%TD*%
D12*
%TO.C,TP3*%
X154940000Y-39370000D03*
X157480000Y-39370000D03*
%TD*%
D17*
%TO.C,R4*%
X156210000Y-59060000D03*
D18*
X156210000Y-51440000D03*
%TD*%
D19*
%TO.C,C2*%
X84415000Y-42545000D03*
X79415000Y-42545000D03*
%TD*%
D20*
%TO.C,TP6*%
X95885000Y-52705000D03*
%TD*%
D10*
%TO.C,D1*%
X79375000Y-47620000D03*
D11*
X79375000Y-55240000D03*
%TD*%
D17*
%TO.C,R1*%
X84455000Y-55245000D03*
D18*
X84455000Y-47625000D03*
%TD*%
D10*
%TO.C,D2*%
X166370000Y-51435000D03*
D11*
X166370000Y-59055000D03*
%TD*%
D12*
%TO.C,TP1*%
X99060000Y-60960000D03*
X101600000Y-60960000D03*
%TD*%
%TO.C,TP4*%
X170180000Y-39370000D03*
X172720000Y-39370000D03*
%TD*%
D20*
%TO.C,TP5*%
X88265000Y-52705000D03*
%TD*%
D12*
%TO.C,C3*%
X105011250Y-60960000D03*
X115011250Y-60960000D03*
%TD*%
D15*
%TO.C,U2*%
X149850000Y-61600000D03*
D16*
X149850000Y-59060000D03*
X142230000Y-59060000D03*
X142230000Y-61600000D03*
%TD*%
D15*
%TO.C,U1*%
X95885000Y-50165000D03*
D16*
X95885000Y-47625000D03*
X95885000Y-45085000D03*
X95885000Y-42545000D03*
X88265000Y-42545000D03*
X88265000Y-45085000D03*
X88265000Y-47625000D03*
X88265000Y-50165000D03*
%TD*%
D17*
%TO.C,R3*%
X99695000Y-47625000D03*
D18*
X99695000Y-55245000D03*
%TD*%
D12*
%TO.C,C5*%
X156290000Y-46355000D03*
X166290000Y-46355000D03*
%TD*%
D19*
%TO.C,C4*%
X89575000Y-59055000D03*
X94575000Y-59055000D03*
%TD*%
D21*
%TO.C,Q1*%
X110011250Y-38585000D03*
D22*
X107471250Y-55245000D03*
D23*
X110011250Y-55245000D03*
X112551250Y-55245000D03*
%TD*%
D19*
%TO.C,C1*%
X89575000Y-55245000D03*
X94575000Y-55245000D03*
%TD*%
D24*
%TO.C,L1*%
X125095000Y-60960000D03*
D25*
X135255000Y-60960000D03*
X135255000Y-40640000D03*
X125095000Y-40640000D03*
%TD*%
D17*
%TO.C,R2*%
X81915000Y-55245000D03*
D18*
X81915000Y-47625000D03*
%TD*%
D13*
%TO.C,J1*%
X89535000Y-62547500D03*
D14*
X86995000Y-62547500D03*
X84455000Y-62547500D03*
X81915000Y-62547500D03*
%TD*%
M02*
