%TF.GenerationSoftware,KiCad,Pcbnew,8.0.4*%
%TF.CreationDate,2025-04-29T13:49:45+07:00*%
%TF.ProjectId,MSD-1.0,4d53442d-312e-4302-9e6b-696361645f70,rev?*%
%TF.SameCoordinates,Original*%
%TF.FileFunction,Legend,Top*%
%TF.FilePolarity,Positive*%
%FSLAX46Y46*%
G04 Gerber Fmt 4.6, Leading zero omitted, Abs format (unit mm)*
G04 Created by KiCad (PCBNEW 8.0.4) date 2025-04-29 13:49:45*
%MOMM*%
%LPD*%
G01*
G04 APERTURE LIST*
%ADD10C,0.150000*%
%ADD11C,0.120000*%
%ADD12C,0.100000*%
G04 APERTURE END LIST*
D10*
X151174795Y-52600475D02*
X150374795Y-52600475D01*
X150374795Y-52600475D02*
X150374795Y-52409999D01*
X150374795Y-52409999D02*
X150412890Y-52295713D01*
X150412890Y-52295713D02*
X150489080Y-52219523D01*
X150489080Y-52219523D02*
X150565271Y-52181428D01*
X150565271Y-52181428D02*
X150717652Y-52143332D01*
X150717652Y-52143332D02*
X150831938Y-52143332D01*
X150831938Y-52143332D02*
X150984319Y-52181428D01*
X150984319Y-52181428D02*
X151060509Y-52219523D01*
X151060509Y-52219523D02*
X151136700Y-52295713D01*
X151136700Y-52295713D02*
X151174795Y-52409999D01*
X151174795Y-52409999D02*
X151174795Y-52600475D01*
X150374795Y-51876666D02*
X150374795Y-51381428D01*
X150374795Y-51381428D02*
X150679557Y-51648094D01*
X150679557Y-51648094D02*
X150679557Y-51533809D01*
X150679557Y-51533809D02*
X150717652Y-51457618D01*
X150717652Y-51457618D02*
X150755747Y-51419523D01*
X150755747Y-51419523D02*
X150831938Y-51381428D01*
X150831938Y-51381428D02*
X151022414Y-51381428D01*
X151022414Y-51381428D02*
X151098604Y-51419523D01*
X151098604Y-51419523D02*
X151136700Y-51457618D01*
X151136700Y-51457618D02*
X151174795Y-51533809D01*
X151174795Y-51533809D02*
X151174795Y-51762380D01*
X151174795Y-51762380D02*
X151136700Y-51838571D01*
X151136700Y-51838571D02*
X151098604Y-51876666D01*
X160705833Y-64967295D02*
X160705833Y-65538723D01*
X160705833Y-65538723D02*
X160667738Y-65653009D01*
X160667738Y-65653009D02*
X160591547Y-65729200D01*
X160591547Y-65729200D02*
X160477262Y-65767295D01*
X160477262Y-65767295D02*
X160401071Y-65767295D01*
X161048690Y-65043485D02*
X161086786Y-65005390D01*
X161086786Y-65005390D02*
X161162976Y-64967295D01*
X161162976Y-64967295D02*
X161353452Y-64967295D01*
X161353452Y-64967295D02*
X161429643Y-65005390D01*
X161429643Y-65005390D02*
X161467738Y-65043485D01*
X161467738Y-65043485D02*
X161505833Y-65119676D01*
X161505833Y-65119676D02*
X161505833Y-65195866D01*
X161505833Y-65195866D02*
X161467738Y-65310152D01*
X161467738Y-65310152D02*
X161010595Y-65767295D01*
X161010595Y-65767295D02*
X161505833Y-65767295D01*
X129872976Y-56712295D02*
X129872976Y-57359914D01*
X129872976Y-57359914D02*
X129911071Y-57436104D01*
X129911071Y-57436104D02*
X129949166Y-57474200D01*
X129949166Y-57474200D02*
X130025357Y-57512295D01*
X130025357Y-57512295D02*
X130177738Y-57512295D01*
X130177738Y-57512295D02*
X130253928Y-57474200D01*
X130253928Y-57474200D02*
X130292023Y-57436104D01*
X130292023Y-57436104D02*
X130330119Y-57359914D01*
X130330119Y-57359914D02*
X130330119Y-56712295D01*
X130634880Y-56712295D02*
X131130118Y-56712295D01*
X131130118Y-56712295D02*
X130863452Y-57017057D01*
X130863452Y-57017057D02*
X130977737Y-57017057D01*
X130977737Y-57017057D02*
X131053928Y-57055152D01*
X131053928Y-57055152D02*
X131092023Y-57093247D01*
X131092023Y-57093247D02*
X131130118Y-57169438D01*
X131130118Y-57169438D02*
X131130118Y-57359914D01*
X131130118Y-57359914D02*
X131092023Y-57436104D01*
X131092023Y-57436104D02*
X131053928Y-57474200D01*
X131053928Y-57474200D02*
X130977737Y-57512295D01*
X130977737Y-57512295D02*
X130749166Y-57512295D01*
X130749166Y-57512295D02*
X130672975Y-57474200D01*
X130672975Y-57474200D02*
X130634880Y-57436104D01*
X146094795Y-52203332D02*
X145713842Y-52469999D01*
X146094795Y-52660475D02*
X145294795Y-52660475D01*
X145294795Y-52660475D02*
X145294795Y-52355713D01*
X145294795Y-52355713D02*
X145332890Y-52279523D01*
X145332890Y-52279523D02*
X145370985Y-52241428D01*
X145370985Y-52241428D02*
X145447176Y-52203332D01*
X145447176Y-52203332D02*
X145561461Y-52203332D01*
X145561461Y-52203332D02*
X145637652Y-52241428D01*
X145637652Y-52241428D02*
X145675747Y-52279523D01*
X145675747Y-52279523D02*
X145713842Y-52355713D01*
X145713842Y-52355713D02*
X145713842Y-52660475D01*
X145561461Y-51517618D02*
X146094795Y-51517618D01*
X145256700Y-51708094D02*
X145828128Y-51898571D01*
X145828128Y-51898571D02*
X145828128Y-51403332D01*
X81781667Y-36481104D02*
X81743571Y-36519200D01*
X81743571Y-36519200D02*
X81629286Y-36557295D01*
X81629286Y-36557295D02*
X81553095Y-36557295D01*
X81553095Y-36557295D02*
X81438809Y-36519200D01*
X81438809Y-36519200D02*
X81362619Y-36443009D01*
X81362619Y-36443009D02*
X81324524Y-36366819D01*
X81324524Y-36366819D02*
X81286428Y-36214438D01*
X81286428Y-36214438D02*
X81286428Y-36100152D01*
X81286428Y-36100152D02*
X81324524Y-35947771D01*
X81324524Y-35947771D02*
X81362619Y-35871580D01*
X81362619Y-35871580D02*
X81438809Y-35795390D01*
X81438809Y-35795390D02*
X81553095Y-35757295D01*
X81553095Y-35757295D02*
X81629286Y-35757295D01*
X81629286Y-35757295D02*
X81743571Y-35795390D01*
X81743571Y-35795390D02*
X81781667Y-35833485D01*
X82086428Y-35833485D02*
X82124524Y-35795390D01*
X82124524Y-35795390D02*
X82200714Y-35757295D01*
X82200714Y-35757295D02*
X82391190Y-35757295D01*
X82391190Y-35757295D02*
X82467381Y-35795390D01*
X82467381Y-35795390D02*
X82505476Y-35833485D01*
X82505476Y-35833485D02*
X82543571Y-35909676D01*
X82543571Y-35909676D02*
X82543571Y-35985866D01*
X82543571Y-35985866D02*
X82505476Y-36100152D01*
X82505476Y-36100152D02*
X82048333Y-36557295D01*
X82048333Y-36557295D02*
X82543571Y-36557295D01*
X78784524Y-45442295D02*
X78784524Y-44642295D01*
X78784524Y-44642295D02*
X78975000Y-44642295D01*
X78975000Y-44642295D02*
X79089286Y-44680390D01*
X79089286Y-44680390D02*
X79165476Y-44756580D01*
X79165476Y-44756580D02*
X79203571Y-44832771D01*
X79203571Y-44832771D02*
X79241667Y-44985152D01*
X79241667Y-44985152D02*
X79241667Y-45099438D01*
X79241667Y-45099438D02*
X79203571Y-45251819D01*
X79203571Y-45251819D02*
X79165476Y-45328009D01*
X79165476Y-45328009D02*
X79089286Y-45404200D01*
X79089286Y-45404200D02*
X78975000Y-45442295D01*
X78975000Y-45442295D02*
X78784524Y-45442295D01*
X80003571Y-45442295D02*
X79546428Y-45442295D01*
X79775000Y-45442295D02*
X79775000Y-44642295D01*
X79775000Y-44642295D02*
X79698809Y-44756580D01*
X79698809Y-44756580D02*
X79622619Y-44832771D01*
X79622619Y-44832771D02*
X79546428Y-44870866D01*
X84321667Y-45447295D02*
X84055000Y-45066342D01*
X83864524Y-45447295D02*
X83864524Y-44647295D01*
X83864524Y-44647295D02*
X84169286Y-44647295D01*
X84169286Y-44647295D02*
X84245476Y-44685390D01*
X84245476Y-44685390D02*
X84283571Y-44723485D01*
X84283571Y-44723485D02*
X84321667Y-44799676D01*
X84321667Y-44799676D02*
X84321667Y-44913961D01*
X84321667Y-44913961D02*
X84283571Y-44990152D01*
X84283571Y-44990152D02*
X84245476Y-45028247D01*
X84245476Y-45028247D02*
X84169286Y-45066342D01*
X84169286Y-45066342D02*
X83864524Y-45066342D01*
X85083571Y-45447295D02*
X84626428Y-45447295D01*
X84855000Y-45447295D02*
X84855000Y-44647295D01*
X84855000Y-44647295D02*
X84778809Y-44761580D01*
X84778809Y-44761580D02*
X84702619Y-44837771D01*
X84702619Y-44837771D02*
X84626428Y-44875866D01*
X156304795Y-52655475D02*
X155504795Y-52655475D01*
X155504795Y-52655475D02*
X155504795Y-52464999D01*
X155504795Y-52464999D02*
X155542890Y-52350713D01*
X155542890Y-52350713D02*
X155619080Y-52274523D01*
X155619080Y-52274523D02*
X155695271Y-52236428D01*
X155695271Y-52236428D02*
X155847652Y-52198332D01*
X155847652Y-52198332D02*
X155961938Y-52198332D01*
X155961938Y-52198332D02*
X156114319Y-52236428D01*
X156114319Y-52236428D02*
X156190509Y-52274523D01*
X156190509Y-52274523D02*
X156266700Y-52350713D01*
X156266700Y-52350713D02*
X156304795Y-52464999D01*
X156304795Y-52464999D02*
X156304795Y-52655475D01*
X155580985Y-51893571D02*
X155542890Y-51855475D01*
X155542890Y-51855475D02*
X155504795Y-51779285D01*
X155504795Y-51779285D02*
X155504795Y-51588809D01*
X155504795Y-51588809D02*
X155542890Y-51512618D01*
X155542890Y-51512618D02*
X155580985Y-51474523D01*
X155580985Y-51474523D02*
X155657176Y-51436428D01*
X155657176Y-51436428D02*
X155733366Y-51436428D01*
X155733366Y-51436428D02*
X155847652Y-51474523D01*
X155847652Y-51474523D02*
X156304795Y-51931666D01*
X156304795Y-51931666D02*
X156304795Y-51436428D01*
X126549166Y-40367295D02*
X126168214Y-40367295D01*
X126168214Y-40367295D02*
X126168214Y-39567295D01*
X127234880Y-40367295D02*
X126777737Y-40367295D01*
X127006309Y-40367295D02*
X127006309Y-39567295D01*
X127006309Y-39567295D02*
X126930118Y-39681580D01*
X126930118Y-39681580D02*
X126853928Y-39757771D01*
X126853928Y-39757771D02*
X126777737Y-39795866D01*
X107939583Y-53064580D02*
X107891964Y-53112200D01*
X107891964Y-53112200D02*
X107749107Y-53159819D01*
X107749107Y-53159819D02*
X107653869Y-53159819D01*
X107653869Y-53159819D02*
X107511012Y-53112200D01*
X107511012Y-53112200D02*
X107415774Y-53016961D01*
X107415774Y-53016961D02*
X107368155Y-52921723D01*
X107368155Y-52921723D02*
X107320536Y-52731247D01*
X107320536Y-52731247D02*
X107320536Y-52588390D01*
X107320536Y-52588390D02*
X107368155Y-52397914D01*
X107368155Y-52397914D02*
X107415774Y-52302676D01*
X107415774Y-52302676D02*
X107511012Y-52207438D01*
X107511012Y-52207438D02*
X107653869Y-52159819D01*
X107653869Y-52159819D02*
X107749107Y-52159819D01*
X107749107Y-52159819D02*
X107891964Y-52207438D01*
X107891964Y-52207438D02*
X107939583Y-52255057D01*
X108272917Y-52159819D02*
X108891964Y-52159819D01*
X108891964Y-52159819D02*
X108558631Y-52540771D01*
X108558631Y-52540771D02*
X108701488Y-52540771D01*
X108701488Y-52540771D02*
X108796726Y-52588390D01*
X108796726Y-52588390D02*
X108844345Y-52636009D01*
X108844345Y-52636009D02*
X108891964Y-52731247D01*
X108891964Y-52731247D02*
X108891964Y-52969342D01*
X108891964Y-52969342D02*
X108844345Y-53064580D01*
X108844345Y-53064580D02*
X108796726Y-53112200D01*
X108796726Y-53112200D02*
X108701488Y-53159819D01*
X108701488Y-53159819D02*
X108415774Y-53159819D01*
X108415774Y-53159819D02*
X108320536Y-53112200D01*
X108320536Y-53112200D02*
X108272917Y-53064580D01*
X129872976Y-64332295D02*
X129872976Y-64979914D01*
X129872976Y-64979914D02*
X129911071Y-65056104D01*
X129911071Y-65056104D02*
X129949166Y-65094200D01*
X129949166Y-65094200D02*
X130025357Y-65132295D01*
X130025357Y-65132295D02*
X130177738Y-65132295D01*
X130177738Y-65132295D02*
X130253928Y-65094200D01*
X130253928Y-65094200D02*
X130292023Y-65056104D01*
X130292023Y-65056104D02*
X130330119Y-64979914D01*
X130330119Y-64979914D02*
X130330119Y-64332295D01*
X130672975Y-64408485D02*
X130711071Y-64370390D01*
X130711071Y-64370390D02*
X130787261Y-64332295D01*
X130787261Y-64332295D02*
X130977737Y-64332295D01*
X130977737Y-64332295D02*
X131053928Y-64370390D01*
X131053928Y-64370390D02*
X131092023Y-64408485D01*
X131092023Y-64408485D02*
X131130118Y-64484676D01*
X131130118Y-64484676D02*
X131130118Y-64560866D01*
X131130118Y-64560866D02*
X131092023Y-64675152D01*
X131092023Y-64675152D02*
X130634880Y-65132295D01*
X130634880Y-65132295D02*
X131130118Y-65132295D01*
X91465476Y-39567295D02*
X91465476Y-40214914D01*
X91465476Y-40214914D02*
X91503571Y-40291104D01*
X91503571Y-40291104D02*
X91541666Y-40329200D01*
X91541666Y-40329200D02*
X91617857Y-40367295D01*
X91617857Y-40367295D02*
X91770238Y-40367295D01*
X91770238Y-40367295D02*
X91846428Y-40329200D01*
X91846428Y-40329200D02*
X91884523Y-40291104D01*
X91884523Y-40291104D02*
X91922619Y-40214914D01*
X91922619Y-40214914D02*
X91922619Y-39567295D01*
X92722618Y-40367295D02*
X92265475Y-40367295D01*
X92494047Y-40367295D02*
X92494047Y-39567295D01*
X92494047Y-39567295D02*
X92417856Y-39681580D01*
X92417856Y-39681580D02*
X92341666Y-39757771D01*
X92341666Y-39757771D02*
X92265475Y-39795866D01*
X99561667Y-45447295D02*
X99295000Y-45066342D01*
X99104524Y-45447295D02*
X99104524Y-44647295D01*
X99104524Y-44647295D02*
X99409286Y-44647295D01*
X99409286Y-44647295D02*
X99485476Y-44685390D01*
X99485476Y-44685390D02*
X99523571Y-44723485D01*
X99523571Y-44723485D02*
X99561667Y-44799676D01*
X99561667Y-44799676D02*
X99561667Y-44913961D01*
X99561667Y-44913961D02*
X99523571Y-44990152D01*
X99523571Y-44990152D02*
X99485476Y-45028247D01*
X99485476Y-45028247D02*
X99409286Y-45066342D01*
X99409286Y-45066342D02*
X99104524Y-45066342D01*
X99828333Y-44647295D02*
X100323571Y-44647295D01*
X100323571Y-44647295D02*
X100056905Y-44952057D01*
X100056905Y-44952057D02*
X100171190Y-44952057D01*
X100171190Y-44952057D02*
X100247381Y-44990152D01*
X100247381Y-44990152D02*
X100285476Y-45028247D01*
X100285476Y-45028247D02*
X100323571Y-45104438D01*
X100323571Y-45104438D02*
X100323571Y-45294914D01*
X100323571Y-45294914D02*
X100285476Y-45371104D01*
X100285476Y-45371104D02*
X100247381Y-45409200D01*
X100247381Y-45409200D02*
X100171190Y-45447295D01*
X100171190Y-45447295D02*
X99942619Y-45447295D01*
X99942619Y-45447295D02*
X99866428Y-45409200D01*
X99866428Y-45409200D02*
X99828333Y-45371104D01*
X150679167Y-40608604D02*
X150641071Y-40646700D01*
X150641071Y-40646700D02*
X150526786Y-40684795D01*
X150526786Y-40684795D02*
X150450595Y-40684795D01*
X150450595Y-40684795D02*
X150336309Y-40646700D01*
X150336309Y-40646700D02*
X150260119Y-40570509D01*
X150260119Y-40570509D02*
X150222024Y-40494319D01*
X150222024Y-40494319D02*
X150183928Y-40341938D01*
X150183928Y-40341938D02*
X150183928Y-40227652D01*
X150183928Y-40227652D02*
X150222024Y-40075271D01*
X150222024Y-40075271D02*
X150260119Y-39999080D01*
X150260119Y-39999080D02*
X150336309Y-39922890D01*
X150336309Y-39922890D02*
X150450595Y-39884795D01*
X150450595Y-39884795D02*
X150526786Y-39884795D01*
X150526786Y-39884795D02*
X150641071Y-39922890D01*
X150641071Y-39922890D02*
X150679167Y-39960985D01*
X151402976Y-39884795D02*
X151022024Y-39884795D01*
X151022024Y-39884795D02*
X150983928Y-40265747D01*
X150983928Y-40265747D02*
X151022024Y-40227652D01*
X151022024Y-40227652D02*
X151098214Y-40189557D01*
X151098214Y-40189557D02*
X151288690Y-40189557D01*
X151288690Y-40189557D02*
X151364881Y-40227652D01*
X151364881Y-40227652D02*
X151402976Y-40265747D01*
X151402976Y-40265747D02*
X151441071Y-40341938D01*
X151441071Y-40341938D02*
X151441071Y-40532414D01*
X151441071Y-40532414D02*
X151402976Y-40608604D01*
X151402976Y-40608604D02*
X151364881Y-40646700D01*
X151364881Y-40646700D02*
X151288690Y-40684795D01*
X151288690Y-40684795D02*
X151098214Y-40684795D01*
X151098214Y-40684795D02*
X151022024Y-40646700D01*
X151022024Y-40646700D02*
X150983928Y-40608604D01*
X91941667Y-52991104D02*
X91903571Y-53029200D01*
X91903571Y-53029200D02*
X91789286Y-53067295D01*
X91789286Y-53067295D02*
X91713095Y-53067295D01*
X91713095Y-53067295D02*
X91598809Y-53029200D01*
X91598809Y-53029200D02*
X91522619Y-52953009D01*
X91522619Y-52953009D02*
X91484524Y-52876819D01*
X91484524Y-52876819D02*
X91446428Y-52724438D01*
X91446428Y-52724438D02*
X91446428Y-52610152D01*
X91446428Y-52610152D02*
X91484524Y-52457771D01*
X91484524Y-52457771D02*
X91522619Y-52381580D01*
X91522619Y-52381580D02*
X91598809Y-52305390D01*
X91598809Y-52305390D02*
X91713095Y-52267295D01*
X91713095Y-52267295D02*
X91789286Y-52267295D01*
X91789286Y-52267295D02*
X91903571Y-52305390D01*
X91903571Y-52305390D02*
X91941667Y-52343485D01*
X92627381Y-52533961D02*
X92627381Y-53067295D01*
X92436905Y-52229200D02*
X92246428Y-52800628D01*
X92246428Y-52800628D02*
X92741667Y-52800628D01*
X107854761Y-44047557D02*
X107759523Y-43999938D01*
X107759523Y-43999938D02*
X107664285Y-43904700D01*
X107664285Y-43904700D02*
X107521428Y-43761842D01*
X107521428Y-43761842D02*
X107426190Y-43714223D01*
X107426190Y-43714223D02*
X107330952Y-43714223D01*
X107378571Y-43952319D02*
X107283333Y-43904700D01*
X107283333Y-43904700D02*
X107188095Y-43809461D01*
X107188095Y-43809461D02*
X107140476Y-43618985D01*
X107140476Y-43618985D02*
X107140476Y-43285652D01*
X107140476Y-43285652D02*
X107188095Y-43095176D01*
X107188095Y-43095176D02*
X107283333Y-42999938D01*
X107283333Y-42999938D02*
X107378571Y-42952319D01*
X107378571Y-42952319D02*
X107569047Y-42952319D01*
X107569047Y-42952319D02*
X107664285Y-42999938D01*
X107664285Y-42999938D02*
X107759523Y-43095176D01*
X107759523Y-43095176D02*
X107807142Y-43285652D01*
X107807142Y-43285652D02*
X107807142Y-43618985D01*
X107807142Y-43618985D02*
X107759523Y-43809461D01*
X107759523Y-43809461D02*
X107664285Y-43904700D01*
X107664285Y-43904700D02*
X107569047Y-43952319D01*
X107569047Y-43952319D02*
X107378571Y-43952319D01*
X108759523Y-43952319D02*
X108188095Y-43952319D01*
X108473809Y-43952319D02*
X108473809Y-42952319D01*
X108473809Y-42952319D02*
X108378571Y-43095176D01*
X108378571Y-43095176D02*
X108283333Y-43190414D01*
X108283333Y-43190414D02*
X108188095Y-43238033D01*
X91941667Y-49181104D02*
X91903571Y-49219200D01*
X91903571Y-49219200D02*
X91789286Y-49257295D01*
X91789286Y-49257295D02*
X91713095Y-49257295D01*
X91713095Y-49257295D02*
X91598809Y-49219200D01*
X91598809Y-49219200D02*
X91522619Y-49143009D01*
X91522619Y-49143009D02*
X91484524Y-49066819D01*
X91484524Y-49066819D02*
X91446428Y-48914438D01*
X91446428Y-48914438D02*
X91446428Y-48800152D01*
X91446428Y-48800152D02*
X91484524Y-48647771D01*
X91484524Y-48647771D02*
X91522619Y-48571580D01*
X91522619Y-48571580D02*
X91598809Y-48495390D01*
X91598809Y-48495390D02*
X91713095Y-48457295D01*
X91713095Y-48457295D02*
X91789286Y-48457295D01*
X91789286Y-48457295D02*
X91903571Y-48495390D01*
X91903571Y-48495390D02*
X91941667Y-48533485D01*
X92703571Y-49257295D02*
X92246428Y-49257295D01*
X92475000Y-49257295D02*
X92475000Y-48457295D01*
X92475000Y-48457295D02*
X92398809Y-48571580D01*
X92398809Y-48571580D02*
X92322619Y-48647771D01*
X92322619Y-48647771D02*
X92246428Y-48685866D01*
X93495833Y-60327080D02*
X93448214Y-60374700D01*
X93448214Y-60374700D02*
X93305357Y-60422319D01*
X93305357Y-60422319D02*
X93210119Y-60422319D01*
X93210119Y-60422319D02*
X93067262Y-60374700D01*
X93067262Y-60374700D02*
X92972024Y-60279461D01*
X92972024Y-60279461D02*
X92924405Y-60184223D01*
X92924405Y-60184223D02*
X92876786Y-59993747D01*
X92876786Y-59993747D02*
X92876786Y-59850890D01*
X92876786Y-59850890D02*
X92924405Y-59660414D01*
X92924405Y-59660414D02*
X92972024Y-59565176D01*
X92972024Y-59565176D02*
X93067262Y-59469938D01*
X93067262Y-59469938D02*
X93210119Y-59422319D01*
X93210119Y-59422319D02*
X93305357Y-59422319D01*
X93305357Y-59422319D02*
X93448214Y-59469938D01*
X93448214Y-59469938D02*
X93495833Y-59517557D01*
X94352976Y-59422319D02*
X94162500Y-59422319D01*
X94162500Y-59422319D02*
X94067262Y-59469938D01*
X94067262Y-59469938D02*
X94019643Y-59517557D01*
X94019643Y-59517557D02*
X93924405Y-59660414D01*
X93924405Y-59660414D02*
X93876786Y-59850890D01*
X93876786Y-59850890D02*
X93876786Y-60231842D01*
X93876786Y-60231842D02*
X93924405Y-60327080D01*
X93924405Y-60327080D02*
X93972024Y-60374700D01*
X93972024Y-60374700D02*
X94067262Y-60422319D01*
X94067262Y-60422319D02*
X94257738Y-60422319D01*
X94257738Y-60422319D02*
X94352976Y-60374700D01*
X94352976Y-60374700D02*
X94400595Y-60327080D01*
X94400595Y-60327080D02*
X94448214Y-60231842D01*
X94448214Y-60231842D02*
X94448214Y-59993747D01*
X94448214Y-59993747D02*
X94400595Y-59898509D01*
X94400595Y-59898509D02*
X94352976Y-59850890D01*
X94352976Y-59850890D02*
X94257738Y-59803271D01*
X94257738Y-59803271D02*
X94067262Y-59803271D01*
X94067262Y-59803271D02*
X93972024Y-59850890D01*
X93972024Y-59850890D02*
X93924405Y-59898509D01*
X93924405Y-59898509D02*
X93876786Y-59993747D01*
X81781667Y-45447295D02*
X81515000Y-45066342D01*
X81324524Y-45447295D02*
X81324524Y-44647295D01*
X81324524Y-44647295D02*
X81629286Y-44647295D01*
X81629286Y-44647295D02*
X81705476Y-44685390D01*
X81705476Y-44685390D02*
X81743571Y-44723485D01*
X81743571Y-44723485D02*
X81781667Y-44799676D01*
X81781667Y-44799676D02*
X81781667Y-44913961D01*
X81781667Y-44913961D02*
X81743571Y-44990152D01*
X81743571Y-44990152D02*
X81705476Y-45028247D01*
X81705476Y-45028247D02*
X81629286Y-45066342D01*
X81629286Y-45066342D02*
X81324524Y-45066342D01*
X82086428Y-44723485D02*
X82124524Y-44685390D01*
X82124524Y-44685390D02*
X82200714Y-44647295D01*
X82200714Y-44647295D02*
X82391190Y-44647295D01*
X82391190Y-44647295D02*
X82467381Y-44685390D01*
X82467381Y-44685390D02*
X82505476Y-44723485D01*
X82505476Y-44723485D02*
X82543571Y-44799676D01*
X82543571Y-44799676D02*
X82543571Y-44875866D01*
X82543571Y-44875866D02*
X82505476Y-44990152D01*
X82505476Y-44990152D02*
X82048333Y-45447295D01*
X82048333Y-45447295D02*
X82543571Y-45447295D01*
X86728333Y-64967295D02*
X86728333Y-65538723D01*
X86728333Y-65538723D02*
X86690238Y-65653009D01*
X86690238Y-65653009D02*
X86614047Y-65729200D01*
X86614047Y-65729200D02*
X86499762Y-65767295D01*
X86499762Y-65767295D02*
X86423571Y-65767295D01*
X87528333Y-65767295D02*
X87071190Y-65767295D01*
X87299762Y-65767295D02*
X87299762Y-64967295D01*
X87299762Y-64967295D02*
X87223571Y-65081580D01*
X87223571Y-65081580D02*
X87147381Y-65157771D01*
X87147381Y-65157771D02*
X87071190Y-65195866D01*
D11*
%TO.C,D3*%
X149892500Y-50430000D02*
X149892500Y-53710000D01*
X149892500Y-53014000D02*
X151732500Y-53014000D01*
X149892500Y-53134000D02*
X151732500Y-53134000D01*
X149892500Y-53254000D02*
X151732500Y-53254000D01*
X149892500Y-53710000D02*
X151732500Y-53710000D01*
X150812500Y-49250000D02*
X150812500Y-50430000D01*
X150812500Y-54890000D02*
X150812500Y-53710000D01*
X151732500Y-50430000D02*
X149892500Y-50430000D01*
X151732500Y-53710000D02*
X151732500Y-50430000D01*
%TO.C,TP2*%
X115322500Y-51505000D02*
X115322500Y-53905000D01*
X115322500Y-53905000D02*
X120222500Y-53905000D01*
X120222500Y-51505000D02*
X115322500Y-51505000D01*
X120222500Y-53905000D02*
X120222500Y-51505000D01*
%TO.C,J2*%
X149482500Y-63987500D02*
X149482500Y-66647500D01*
X149482500Y-66647500D02*
X162302500Y-66647500D01*
X150432500Y-61050429D02*
X150432500Y-61504571D01*
X150432500Y-63590429D02*
X150432500Y-63987500D01*
X150432500Y-69532500D02*
X150432500Y-66647500D01*
X151192500Y-61050429D02*
X151192500Y-61504571D01*
X151192500Y-63590429D02*
X151192500Y-63987500D01*
X151192500Y-66647500D02*
X151192500Y-69532500D01*
X151192500Y-69532500D02*
X150432500Y-69532500D01*
X152082500Y-63987500D02*
X152082500Y-66647500D01*
X154622500Y-63987500D02*
X154622500Y-66647500D01*
X155512500Y-61050429D02*
X155512500Y-61504571D01*
X155512500Y-63590429D02*
X155512500Y-63987500D01*
X155512500Y-69532500D02*
X155512500Y-66647500D01*
X156272500Y-61050429D02*
X156272500Y-61504571D01*
X156272500Y-63590429D02*
X156272500Y-63987500D01*
X156272500Y-66647500D02*
X156272500Y-69532500D01*
X156272500Y-69532500D02*
X155512500Y-69532500D01*
X157162500Y-63987500D02*
X157162500Y-66647500D01*
X159702500Y-63987500D02*
X159702500Y-66647500D01*
X160592500Y-61117500D02*
X160592500Y-61504571D01*
X160592500Y-63590429D02*
X160592500Y-63987500D01*
X160972500Y-58737500D02*
X162242500Y-58737500D01*
X161352500Y-61117500D02*
X161352500Y-61504571D01*
X161352500Y-63590429D02*
X161352500Y-63987500D01*
X162242500Y-58737500D02*
X162242500Y-60007500D01*
X162302500Y-63987500D02*
X149482500Y-63987500D01*
X162302500Y-66647500D02*
X162302500Y-63987500D01*
D12*
X161352500Y-66647500D02*
X160592500Y-66647500D01*
X160592500Y-69532500D01*
X161352500Y-69532500D01*
X161352500Y-66647500D01*
G36*
X161352500Y-66647500D02*
G01*
X160592500Y-66647500D01*
X160592500Y-69532500D01*
X161352500Y-69532500D01*
X161352500Y-66647500D01*
G37*
D11*
%TO.C,U3*%
X125342500Y-54495000D02*
X125342500Y-59815000D01*
X125342500Y-59815000D02*
X135622500Y-59815000D01*
X127832500Y-54555000D02*
X127832500Y-59755000D01*
X127832500Y-59755000D02*
X129482500Y-59755000D01*
X131482500Y-59755000D02*
X133132500Y-59755000D01*
X133132500Y-54555000D02*
X127832500Y-54555000D01*
X133132500Y-59755000D02*
X133132500Y-54555000D01*
X135622500Y-54495000D02*
X125342500Y-54495000D01*
X135622500Y-59815000D02*
X135622500Y-54495000D01*
X129482500Y-59755000D02*
G75*
G02*
X131482500Y-59755000I1000000J0D01*
G01*
%TO.C,TP3*%
X143262500Y-31820000D02*
X143262500Y-34220000D01*
X143262500Y-34220000D02*
X148162500Y-34220000D01*
X148162500Y-31820000D02*
X143262500Y-31820000D01*
X148162500Y-34220000D02*
X148162500Y-31820000D01*
%TO.C,R4*%
X144812500Y-50150000D02*
X144812500Y-53990000D01*
X144812500Y-53990000D02*
X146652500Y-53990000D01*
X145732500Y-49200000D02*
X145732500Y-50150000D01*
X145732500Y-54940000D02*
X145732500Y-53990000D01*
X146652500Y-50150000D02*
X144812500Y-50150000D01*
X146652500Y-53990000D02*
X146652500Y-50150000D01*
%TO.C,C2*%
X78295000Y-38065000D02*
X78295000Y-34325000D01*
X85535000Y-34325000D02*
X78295000Y-34325000D01*
X85535000Y-38065000D02*
X78295000Y-38065000D01*
X85535000Y-38065000D02*
X85535000Y-34325000D01*
%TO.C,D1*%
X78255000Y-42960000D02*
X78255000Y-47200000D01*
X78255000Y-47200000D02*
X80495000Y-47200000D01*
X79375000Y-42310000D02*
X79375000Y-42960000D01*
X79375000Y-47850000D02*
X79375000Y-47200000D01*
X80495000Y-42960000D02*
X78255000Y-42960000D01*
X80495000Y-43560000D02*
X78255000Y-43560000D01*
X80495000Y-43680000D02*
X78255000Y-43680000D01*
X80495000Y-43800000D02*
X78255000Y-43800000D01*
X80495000Y-47200000D02*
X80495000Y-42960000D01*
%TO.C,R1*%
X83535000Y-43165000D02*
X83535000Y-47005000D01*
X83535000Y-47005000D02*
X85375000Y-47005000D01*
X84455000Y-42215000D02*
X84455000Y-43165000D01*
X84455000Y-47955000D02*
X84455000Y-47005000D01*
X85375000Y-43165000D02*
X83535000Y-43165000D01*
X85375000Y-47005000D02*
X85375000Y-43165000D01*
%TO.C,D2*%
X154972500Y-50425000D02*
X154972500Y-53705000D01*
X154972500Y-53705000D02*
X156812500Y-53705000D01*
X155892500Y-49245000D02*
X155892500Y-50425000D01*
X155892500Y-54885000D02*
X155892500Y-53705000D01*
X156812500Y-50425000D02*
X154972500Y-50425000D01*
X156812500Y-50881000D02*
X154972500Y-50881000D01*
X156812500Y-51001000D02*
X154972500Y-51001000D01*
X156812500Y-51121000D02*
X154972500Y-51121000D01*
X156812500Y-53705000D02*
X156812500Y-50425000D01*
%TO.C,TP1*%
X95955000Y-51505000D02*
X95955000Y-53905000D01*
X95955000Y-53905000D02*
X100855000Y-53905000D01*
X100855000Y-51505000D02*
X95955000Y-51505000D01*
X100855000Y-53905000D02*
X100855000Y-51505000D01*
D12*
%TO.C,L1*%
X138366500Y-40005000D02*
G75*
G02*
X114998500Y-40005000I-11684000J0D01*
G01*
X114998500Y-40005000D02*
G75*
G02*
X138366500Y-40005000I11684000J0D01*
G01*
X133794500Y-40005000D02*
G75*
G02*
X119570500Y-40005000I-7112000J0D01*
G01*
X119570500Y-40005000D02*
G75*
G02*
X133794500Y-40005000I7112000J0D01*
G01*
D11*
%TO.C,TP4*%
X153422500Y-31820000D02*
X153422500Y-34220000D01*
X153422500Y-34220000D02*
X158322500Y-34220000D01*
X158322500Y-31820000D02*
X153422500Y-31820000D01*
X158322500Y-34220000D02*
X158322500Y-31820000D01*
%TO.C,C3*%
X101486250Y-50085000D02*
X101486250Y-55325000D01*
X101486250Y-50085000D02*
X114726250Y-50085000D01*
X101486250Y-55325000D02*
X114726250Y-55325000D01*
X114726250Y-50085000D02*
X114726250Y-55325000D01*
%TO.C,U2*%
X125342500Y-62115000D02*
X125342500Y-67435000D01*
X125342500Y-67435000D02*
X135622500Y-67435000D01*
X127832500Y-62175000D02*
X127832500Y-67375000D01*
X127832500Y-67375000D02*
X129482500Y-67375000D01*
X131482500Y-67375000D02*
X133132500Y-67375000D01*
X133132500Y-62175000D02*
X127832500Y-62175000D01*
X133132500Y-67375000D02*
X133132500Y-62175000D01*
X135622500Y-62115000D02*
X125342500Y-62115000D01*
X135622500Y-67435000D02*
X135622500Y-62115000D01*
X129482500Y-67375000D02*
G75*
G02*
X131482500Y-67375000I1000000J0D01*
G01*
%TO.C,U1*%
X86935000Y-34805000D02*
X86935000Y-45205000D01*
X86935000Y-45205000D02*
X97215000Y-45205000D01*
X89425000Y-34865000D02*
X89425000Y-45145000D01*
X89425000Y-45145000D02*
X91075000Y-45145000D01*
X93075000Y-45145000D02*
X94725000Y-45145000D01*
X94725000Y-34865000D02*
X89425000Y-34865000D01*
X94725000Y-45145000D02*
X94725000Y-34865000D01*
X97215000Y-34805000D02*
X86935000Y-34805000D01*
X97215000Y-45205000D02*
X97215000Y-34805000D01*
X91075000Y-45145000D02*
G75*
G02*
X93075000Y-45145000I1000000J0D01*
G01*
%TO.C,R3*%
X98775000Y-43165000D02*
X98775000Y-47005000D01*
X98775000Y-47005000D02*
X100615000Y-47005000D01*
X99695000Y-42215000D02*
X99695000Y-43165000D01*
X99695000Y-47955000D02*
X99695000Y-47005000D01*
X100615000Y-43165000D02*
X98775000Y-43165000D01*
X100615000Y-47005000D02*
X100615000Y-43165000D01*
%TO.C,C5*%
X144192500Y-37702500D02*
X144192500Y-42942500D01*
X144192500Y-37702500D02*
X157432500Y-37702500D01*
X144192500Y-42942500D02*
X157432500Y-42942500D01*
X157432500Y-37702500D02*
X157432500Y-42942500D01*
%TO.C,C4*%
X88455000Y-50835000D02*
X88455000Y-54575000D01*
X88455000Y-50835000D02*
X95695000Y-50835000D01*
X88455000Y-54575000D02*
X95695000Y-54575000D01*
X95695000Y-50835000D02*
X95695000Y-54575000D01*
%TO.C,Q1*%
X102830000Y-29315000D02*
X102830000Y-45205000D01*
X102830000Y-29315000D02*
X113070000Y-29315000D01*
X102830000Y-45205000D02*
X113070000Y-45205000D01*
X105410000Y-45205000D02*
X105410000Y-47745000D01*
X107950000Y-45205000D02*
X107950000Y-47745000D01*
X110490000Y-45205000D02*
X110490000Y-47745000D01*
X113070000Y-29315000D02*
X113070000Y-45205000D01*
%TO.C,C1*%
X88455000Y-47025000D02*
X88455000Y-50765000D01*
X88455000Y-47025000D02*
X95695000Y-47025000D01*
X88455000Y-50765000D02*
X95695000Y-50765000D01*
X95695000Y-47025000D02*
X95695000Y-50765000D01*
%TO.C,C6*%
X95715000Y-63628500D02*
X90917000Y-63628500D01*
X95715000Y-63668500D02*
X90924000Y-63668500D01*
X95715000Y-63708500D02*
X90931000Y-63708500D01*
X95715000Y-63748500D02*
X90939000Y-63748500D01*
X95715000Y-63788500D02*
X90946000Y-63788500D01*
X95715000Y-63828500D02*
X90954000Y-63828500D01*
X95715000Y-63868500D02*
X90963000Y-63868500D01*
X95715000Y-63908500D02*
X90971000Y-63908500D01*
X95715000Y-63948500D02*
X90980000Y-63948500D01*
X95715000Y-63988500D02*
X90989000Y-63988500D01*
X95715000Y-64028500D02*
X90999000Y-64028500D01*
X95715000Y-64068500D02*
X91009000Y-64068500D01*
X95715000Y-64108500D02*
X91018000Y-64108500D01*
X95715000Y-64148500D02*
X91029000Y-64148500D01*
X95715000Y-64188500D02*
X91039000Y-64188500D01*
X95715000Y-64228500D02*
X91050000Y-64228500D01*
X95715000Y-64268500D02*
X91061000Y-64268500D01*
X95715000Y-64308500D02*
X91072000Y-64308500D01*
X95715000Y-64348500D02*
X91084000Y-64348500D01*
X95715000Y-64388500D02*
X91096000Y-64388500D01*
X95715000Y-64428500D02*
X91108000Y-64428500D01*
X95715000Y-64468500D02*
X91121000Y-64468500D01*
X95715000Y-64508500D02*
X91134000Y-64508500D01*
X95715000Y-64548500D02*
X91147000Y-64548500D01*
X95715000Y-64588500D02*
X91160000Y-64588500D01*
X95715000Y-64628500D02*
X91174000Y-64628500D01*
X95715000Y-64668500D02*
X91188000Y-64668500D01*
X95715000Y-64708500D02*
X91202000Y-64708500D01*
X95715000Y-64748500D02*
X91216000Y-64748500D01*
X95715000Y-64788500D02*
X91231000Y-64788500D01*
X95715000Y-64828500D02*
X91247000Y-64828500D01*
X95715000Y-64868500D02*
X91262000Y-64868500D01*
X95715000Y-64908500D02*
X91278000Y-64908500D01*
X95715000Y-64948500D02*
X91294000Y-64948500D01*
X95715000Y-64988500D02*
X91310000Y-64988500D01*
X95715000Y-65028500D02*
X91327000Y-65028500D01*
X95715000Y-65068500D02*
X91344000Y-65068500D01*
X95715000Y-65108500D02*
X91362000Y-65108500D01*
X95715000Y-65148500D02*
X91379000Y-65148500D01*
X95715000Y-65188500D02*
X91397000Y-65188500D01*
X95715000Y-65228500D02*
X91416000Y-65228500D01*
X95715000Y-65268500D02*
X91434000Y-65268500D01*
X95715000Y-65308500D02*
X91453000Y-65308500D01*
X95715000Y-65348500D02*
X91473000Y-65348500D01*
X95715000Y-65388500D02*
X91493000Y-65388500D01*
X95715000Y-65428500D02*
X91513000Y-65428500D01*
X95715000Y-65468500D02*
X91533000Y-65468500D01*
X95715000Y-65508500D02*
X91554000Y-65508500D01*
X95715000Y-65548500D02*
X91575000Y-65548500D01*
X95715000Y-65588500D02*
X91597000Y-65588500D01*
X95715000Y-65628500D02*
X91619000Y-65628500D01*
X95715000Y-65668500D02*
X91641000Y-65668500D01*
X95715000Y-65708500D02*
X91664000Y-65708500D01*
X95715000Y-65748500D02*
X91687000Y-65748500D01*
X95715000Y-65788500D02*
X91710000Y-65788500D01*
X95715000Y-65828500D02*
X91734000Y-65828500D01*
X95715000Y-65868500D02*
X91758000Y-65868500D01*
X95715000Y-65908500D02*
X91783000Y-65908500D01*
X95715000Y-65948500D02*
X91808000Y-65948500D01*
X95715000Y-65988500D02*
X91833000Y-65988500D01*
X95715000Y-66028500D02*
X91859000Y-66028500D01*
X95715000Y-66068500D02*
X91885000Y-66068500D01*
X95715000Y-66108500D02*
X91912000Y-66108500D01*
X95715000Y-66148500D02*
X91939000Y-66148500D01*
X95715000Y-66188500D02*
X91967000Y-66188500D01*
X95715000Y-66228500D02*
X91995000Y-66228500D01*
X95715000Y-66268500D02*
X92024000Y-66268500D01*
X95715000Y-66308500D02*
X92053000Y-66308500D01*
X95715000Y-66348500D02*
X92082000Y-66348500D01*
X95715000Y-66388500D02*
X92112000Y-66388500D01*
X95715000Y-66428500D02*
X92143000Y-66428500D01*
X95715000Y-66468500D02*
X92173000Y-66468500D01*
X97472000Y-68908500D02*
X96838000Y-68908500D01*
X97912000Y-68868500D02*
X96398000Y-68868500D01*
X98183000Y-68828500D02*
X96127000Y-68828500D01*
X98396000Y-68788500D02*
X95914000Y-68788500D01*
X98577000Y-68748500D02*
X95733000Y-68748500D01*
X98738000Y-68708500D02*
X95572000Y-68708500D01*
X98883000Y-68668500D02*
X95427000Y-68668500D01*
X99016000Y-68628500D02*
X95294000Y-68628500D01*
X99139000Y-68588500D02*
X95171000Y-68588500D01*
X99255000Y-68548500D02*
X95055000Y-68548500D01*
X99364000Y-68508500D02*
X94946000Y-68508500D01*
X99467000Y-68468500D02*
X94843000Y-68468500D01*
X99565000Y-68428500D02*
X94745000Y-68428500D01*
X99659000Y-68388500D02*
X94651000Y-68388500D01*
X99749000Y-68348500D02*
X94561000Y-68348500D01*
X99836000Y-68308500D02*
X94474000Y-68308500D01*
X99919000Y-68268500D02*
X94391000Y-68268500D01*
X99999000Y-68228500D02*
X94311000Y-68228500D01*
X100076000Y-68188500D02*
X94234000Y-68188500D01*
X100151000Y-68148500D02*
X94159000Y-68148500D01*
X100224000Y-68108500D02*
X94086000Y-68108500D01*
X100295000Y-68068500D02*
X94015000Y-68068500D01*
X100363000Y-68028500D02*
X93947000Y-68028500D01*
X100430000Y-67988500D02*
X93880000Y-67988500D01*
X100494000Y-67948500D02*
X93816000Y-67948500D01*
X100557000Y-67908500D02*
X93753000Y-67908500D01*
X100619000Y-67868500D02*
X93691000Y-67868500D01*
X100679000Y-67828500D02*
X93631000Y-67828500D01*
X100738000Y-67788500D02*
X93572000Y-67788500D01*
X100795000Y-67748500D02*
X93515000Y-67748500D01*
X100851000Y-67708500D02*
X93459000Y-67708500D01*
X100905000Y-67668500D02*
X93405000Y-67668500D01*
X100959000Y-67628500D02*
X93351000Y-67628500D01*
X101011000Y-67588500D02*
X93299000Y-67588500D01*
X101062000Y-67548500D02*
X93248000Y-67548500D01*
X101112000Y-67508500D02*
X93198000Y-67508500D01*
X101162000Y-67468500D02*
X93148000Y-67468500D01*
X101210000Y-67428500D02*
X93100000Y-67428500D01*
X101257000Y-67388500D02*
X93053000Y-67388500D01*
X101303000Y-67348500D02*
X93007000Y-67348500D01*
X101349000Y-67308500D02*
X92961000Y-67308500D01*
X101393000Y-67268500D02*
X92917000Y-67268500D01*
X101437000Y-67228500D02*
X92873000Y-67228500D01*
X101480000Y-67188500D02*
X92830000Y-67188500D01*
X101522000Y-67148500D02*
X92788000Y-67148500D01*
X101563000Y-67108500D02*
X92747000Y-67108500D01*
X101604000Y-67068500D02*
X92706000Y-67068500D01*
X101644000Y-67028500D02*
X92666000Y-67028500D01*
X101683000Y-66988500D02*
X92627000Y-66988500D01*
X101722000Y-66948500D02*
X92588000Y-66948500D01*
X101760000Y-66908500D02*
X92550000Y-66908500D01*
X101797000Y-66868500D02*
X92513000Y-66868500D01*
X101833000Y-66828500D02*
X92477000Y-66828500D01*
X101869000Y-66788500D02*
X92441000Y-66788500D01*
X101905000Y-66748500D02*
X92405000Y-66748500D01*
X101940000Y-66708500D02*
X92370000Y-66708500D01*
X101974000Y-66668500D02*
X92336000Y-66668500D01*
X102007000Y-66628500D02*
X92303000Y-66628500D01*
X102040000Y-66588500D02*
X92270000Y-66588500D01*
X102073000Y-66548500D02*
X92237000Y-66548500D01*
X102105000Y-66508500D02*
X92205000Y-66508500D01*
X102137000Y-66468500D02*
X98595000Y-66468500D01*
X102167000Y-66428500D02*
X98595000Y-66428500D01*
X102198000Y-66388500D02*
X98595000Y-66388500D01*
X102228000Y-66348500D02*
X98595000Y-66348500D01*
X102257000Y-66308500D02*
X98595000Y-66308500D01*
X102286000Y-66268500D02*
X98595000Y-66268500D01*
X102315000Y-66228500D02*
X98595000Y-66228500D01*
X102343000Y-66188500D02*
X98595000Y-66188500D01*
X102371000Y-66148500D02*
X98595000Y-66148500D01*
X102398000Y-66108500D02*
X98595000Y-66108500D01*
X102425000Y-66068500D02*
X98595000Y-66068500D01*
X102451000Y-66028500D02*
X98595000Y-66028500D01*
X102477000Y-65988500D02*
X98595000Y-65988500D01*
X102502000Y-65948500D02*
X98595000Y-65948500D01*
X102527000Y-65908500D02*
X98595000Y-65908500D01*
X102552000Y-65868500D02*
X98595000Y-65868500D01*
X102576000Y-65828500D02*
X98595000Y-65828500D01*
X102600000Y-65788500D02*
X98595000Y-65788500D01*
X102623000Y-65748500D02*
X98595000Y-65748500D01*
X102646000Y-65708500D02*
X98595000Y-65708500D01*
X102669000Y-65668500D02*
X98595000Y-65668500D01*
X102691000Y-65628500D02*
X98595000Y-65628500D01*
X102713000Y-65588500D02*
X98595000Y-65588500D01*
X102735000Y-65548500D02*
X98595000Y-65548500D01*
X102756000Y-65508500D02*
X98595000Y-65508500D01*
X102777000Y-65468500D02*
X98595000Y-65468500D01*
X102797000Y-65428500D02*
X98595000Y-65428500D01*
X102817000Y-65388500D02*
X98595000Y-65388500D01*
X102837000Y-65348500D02*
X98595000Y-65348500D01*
X102857000Y-65308500D02*
X98595000Y-65308500D01*
X102876000Y-65268500D02*
X98595000Y-65268500D01*
X102894000Y-65228500D02*
X98595000Y-65228500D01*
X102913000Y-65188500D02*
X98595000Y-65188500D01*
X102931000Y-65148500D02*
X98595000Y-65148500D01*
X102948000Y-65108500D02*
X98595000Y-65108500D01*
X102966000Y-65068500D02*
X98595000Y-65068500D01*
X102983000Y-65028500D02*
X98595000Y-65028500D01*
X103000000Y-64988500D02*
X98595000Y-64988500D01*
X103016000Y-64948500D02*
X98595000Y-64948500D01*
X103032000Y-64908500D02*
X98595000Y-64908500D01*
X103048000Y-64868500D02*
X98595000Y-64868500D01*
X103063000Y-64828500D02*
X98595000Y-64828500D01*
X103079000Y-64788500D02*
X98595000Y-64788500D01*
X103094000Y-64748500D02*
X98595000Y-64748500D01*
X103108000Y-64708500D02*
X98595000Y-64708500D01*
X103122000Y-64668500D02*
X98595000Y-64668500D01*
X103136000Y-64628500D02*
X98595000Y-64628500D01*
X103150000Y-64588500D02*
X98595000Y-64588500D01*
X103163000Y-64548500D02*
X98595000Y-64548500D01*
X103176000Y-64508500D02*
X98595000Y-64508500D01*
X103189000Y-64468500D02*
X98595000Y-64468500D01*
X103202000Y-64428500D02*
X98595000Y-64428500D01*
X103214000Y-64388500D02*
X98595000Y-64388500D01*
X103226000Y-64348500D02*
X98595000Y-64348500D01*
X103238000Y-64308500D02*
X98595000Y-64308500D01*
X103249000Y-64268500D02*
X98595000Y-64268500D01*
X103260000Y-64228500D02*
X98595000Y-64228500D01*
X103271000Y-64188500D02*
X98595000Y-64188500D01*
X103281000Y-64148500D02*
X98595000Y-64148500D01*
X103292000Y-64108500D02*
X98595000Y-64108500D01*
X103301000Y-64068500D02*
X98595000Y-64068500D01*
X103311000Y-64028500D02*
X98595000Y-64028500D01*
X103321000Y-63988500D02*
X98595000Y-63988500D01*
X103330000Y-63948500D02*
X98595000Y-63948500D01*
X103339000Y-63908500D02*
X98595000Y-63908500D01*
X103347000Y-63868500D02*
X98595000Y-63868500D01*
X103356000Y-63828500D02*
X98595000Y-63828500D01*
X103364000Y-63788500D02*
X98595000Y-63788500D01*
X103371000Y-63748500D02*
X98595000Y-63748500D01*
X103379000Y-63708500D02*
X98595000Y-63708500D01*
X103386000Y-63668500D02*
X98595000Y-63668500D01*
X103393000Y-63628500D02*
X98595000Y-63628500D01*
X103400000Y-63588500D02*
X90910000Y-63588500D01*
X103407000Y-63548500D02*
X90903000Y-63548500D01*
X103413000Y-63508500D02*
X90897000Y-63508500D01*
X103419000Y-63468500D02*
X90891000Y-63468500D01*
X103424000Y-63428500D02*
X90886000Y-63428500D01*
X103430000Y-63388500D02*
X90880000Y-63388500D01*
X103435000Y-63348500D02*
X90875000Y-63348500D01*
X103440000Y-63308500D02*
X90870000Y-63308500D01*
X103445000Y-63268500D02*
X90865000Y-63268500D01*
X103449000Y-63227500D02*
X90861000Y-63227500D01*
X103453000Y-63187500D02*
X90857000Y-63187500D01*
X103457000Y-63147500D02*
X90853000Y-63147500D01*
X103461000Y-63107500D02*
X90849000Y-63107500D01*
X103464000Y-63067500D02*
X90846000Y-63067500D01*
X103467000Y-63027500D02*
X90843000Y-63027500D01*
X103470000Y-62987500D02*
X90840000Y-62987500D01*
X103473000Y-62947500D02*
X90837000Y-62947500D01*
X103475000Y-62907500D02*
X90835000Y-62907500D01*
X103477000Y-62867500D02*
X90833000Y-62867500D01*
X103479000Y-62827500D02*
X90831000Y-62827500D01*
X103481000Y-62787500D02*
X90829000Y-62787500D01*
X103482000Y-62747500D02*
X90828000Y-62747500D01*
X103483000Y-62707500D02*
X90827000Y-62707500D01*
X103484000Y-62667500D02*
X90826000Y-62667500D01*
X103485000Y-62547500D02*
X90825000Y-62547500D01*
X103485000Y-62587500D02*
X90825000Y-62587500D01*
X103485000Y-62627500D02*
X90825000Y-62627500D01*
X103525000Y-62547500D02*
G75*
G02*
X90785000Y-62547500I-6370000J0D01*
G01*
X90785000Y-62547500D02*
G75*
G02*
X103525000Y-62547500I6370000J0D01*
G01*
%TO.C,R2*%
X80995000Y-43165000D02*
X80995000Y-47005000D01*
X80995000Y-47005000D02*
X82835000Y-47005000D01*
X81915000Y-42215000D02*
X81915000Y-43165000D01*
X81915000Y-47955000D02*
X81915000Y-47005000D01*
X82835000Y-43165000D02*
X80995000Y-43165000D01*
X82835000Y-47005000D02*
X82835000Y-43165000D01*
%TO.C,TP7*%
X78175000Y-26422500D02*
X78175000Y-28822500D01*
X78175000Y-28822500D02*
X83075000Y-28822500D01*
X83075000Y-26422500D02*
X78175000Y-26422500D01*
X83075000Y-28822500D02*
X83075000Y-26422500D01*
%TO.C,J1*%
X78045000Y-63987500D02*
X78045000Y-66647500D01*
X78045000Y-66647500D02*
X88325000Y-66647500D01*
X78995000Y-61050429D02*
X78995000Y-61504571D01*
X78995000Y-63590429D02*
X78995000Y-63987500D01*
X78995000Y-69532500D02*
X78995000Y-66647500D01*
X79755000Y-61050429D02*
X79755000Y-61504571D01*
X79755000Y-63590429D02*
X79755000Y-63987500D01*
X79755000Y-66647500D02*
X79755000Y-69532500D01*
X79755000Y-69532500D02*
X78995000Y-69532500D01*
X80645000Y-63987500D02*
X80645000Y-66647500D01*
X81535000Y-61050429D02*
X81535000Y-61504571D01*
X81535000Y-63590429D02*
X81535000Y-63987500D01*
X81535000Y-69532500D02*
X81535000Y-66647500D01*
X82295000Y-61050429D02*
X82295000Y-61504571D01*
X82295000Y-63590429D02*
X82295000Y-63987500D01*
X82295000Y-66647500D02*
X82295000Y-69532500D01*
X82295000Y-69532500D02*
X81535000Y-69532500D01*
X83185000Y-63987500D02*
X83185000Y-66647500D01*
X84075000Y-61050429D02*
X84075000Y-61504571D01*
X84075000Y-63590429D02*
X84075000Y-63987500D01*
X84075000Y-69532500D02*
X84075000Y-66647500D01*
X84835000Y-61050429D02*
X84835000Y-61504571D01*
X84835000Y-63590429D02*
X84835000Y-63987500D01*
X84835000Y-66647500D02*
X84835000Y-69532500D01*
X84835000Y-69532500D02*
X84075000Y-69532500D01*
X85725000Y-63987500D02*
X85725000Y-66647500D01*
X86615000Y-61117500D02*
X86615000Y-61504571D01*
X86615000Y-63590429D02*
X86615000Y-63987500D01*
X86995000Y-58737500D02*
X88265000Y-58737500D01*
X87375000Y-61117500D02*
X87375000Y-61504571D01*
X87375000Y-63590429D02*
X87375000Y-63987500D01*
X88265000Y-58737500D02*
X88265000Y-60007500D01*
X88325000Y-63987500D02*
X78045000Y-63987500D01*
X88325000Y-66647500D02*
X88325000Y-63987500D01*
D12*
X87375000Y-66647500D02*
X86615000Y-66647500D01*
X86615000Y-69532500D01*
X87375000Y-69532500D01*
X87375000Y-66647500D01*
G36*
X87375000Y-66647500D02*
G01*
X86615000Y-66647500D01*
X86615000Y-69532500D01*
X87375000Y-69532500D01*
X87375000Y-66647500D01*
G37*
%TD*%
M02*
