%TF.GenerationSoftware,KiCad,Pcbnew,8.0.4*%
%TF.CreationDate,2025-04-29T13:49:44+07:00*%
%TF.ProjectId,MSD-1.0,4d53442d-312e-4302-9e6b-696361645f70,rev?*%
%TF.SameCoordinates,Original*%
%TF.FileFunction,Copper,L1,Top*%
%TF.FilePolarity,Positive*%
%FSLAX46Y46*%
G04 Gerber Fmt 4.6, Leading zero omitted, Abs format (unit mm)*
G04 Created by KiCad (PCBNEW 8.0.4) date 2025-04-29 13:49:44*
%MOMM*%
%LPD*%
G01*
G04 APERTURE LIST*
%TA.AperFunction,ComponentPad*%
%ADD10R,1.500000X1.500000*%
%TD*%
%TA.AperFunction,ComponentPad*%
%ADD11O,1.500000X1.500000*%
%TD*%
%TA.AperFunction,ComponentPad*%
%ADD12C,2.000000*%
%TD*%
%TA.AperFunction,ComponentPad*%
%ADD13R,2.000000X2.000000*%
%TD*%
%TA.AperFunction,ComponentPad*%
%ADD14O,2.000000X2.000000*%
%TD*%
%TA.AperFunction,ComponentPad*%
%ADD15R,1.600000X1.600000*%
%TD*%
%TA.AperFunction,ComponentPad*%
%ADD16O,1.600000X1.600000*%
%TD*%
%TA.AperFunction,ComponentPad*%
%ADD17C,1.400000*%
%TD*%
%TA.AperFunction,ComponentPad*%
%ADD18O,1.400000X1.400000*%
%TD*%
%TA.AperFunction,ComponentPad*%
%ADD19C,1.600000*%
%TD*%
%TA.AperFunction,ComponentPad*%
%ADD20R,1.800000X1.800000*%
%TD*%
%TA.AperFunction,ComponentPad*%
%ADD21O,1.800000X1.800000*%
%TD*%
%TA.AperFunction,ComponentPad*%
%ADD22C,3.000000*%
%TD*%
%TA.AperFunction,ComponentPad*%
%ADD23R,1.905000X2.000000*%
%TD*%
%TA.AperFunction,ComponentPad*%
%ADD24O,1.905000X2.000000*%
%TD*%
%TA.AperFunction,ComponentPad*%
%ADD25R,2.400000X2.400000*%
%TD*%
%TA.AperFunction,ComponentPad*%
%ADD26C,2.400000*%
%TD*%
%TA.AperFunction,Conductor*%
%ADD27C,0.635000*%
%TD*%
G04 APERTURE END LIST*
D10*
%TO.P,D3,1,K*%
%TO.N,Net-(D3-K)*%
X150812500Y-55880000D03*
D11*
%TO.P,D3,2,A*%
%TO.N,Net-(D2-K)*%
X150812500Y-48260000D03*
%TD*%
D12*
%TO.P,TP2,1,1*%
%TO.N,Net-(Q1-D)*%
X116522500Y-52705000D03*
X119062500Y-52705000D03*
%TD*%
D13*
%TO.P,J2,1,Pin_1*%
%TO.N,Net-(J2-Pin_1)*%
X160972500Y-60007500D03*
D14*
X160972500Y-62547500D03*
%TO.P,J2,2,Pin_2*%
%TO.N,Net-(D2-A)*%
X155892500Y-60007500D03*
X155892500Y-62547500D03*
%TO.P,J2,3,Pin_3*%
%TO.N,Net-(D3-K)*%
X150812500Y-60007500D03*
X150812500Y-62547500D03*
%TD*%
D15*
%TO.P,U3,1*%
%TO.N,Net-(C5-Pad1)*%
X134292500Y-58425000D03*
D16*
%TO.P,U3,2*%
%TO.N,Net-(R4-Pad1)*%
X134292500Y-55885000D03*
%TO.P,U3,3*%
%TO.N,GND*%
X126672500Y-55885000D03*
%TO.P,U3,4*%
%TO.N,Net-(J1-Pin_1)*%
X126672500Y-58425000D03*
%TD*%
D12*
%TO.P,TP3,1,1*%
%TO.N,Net-(C5-Pad1)*%
X144462500Y-33020000D03*
X147002500Y-33020000D03*
%TD*%
D17*
%TO.P,R4,1*%
%TO.N,Net-(R4-Pad1)*%
X145732500Y-55880000D03*
D18*
%TO.P,R4,2*%
%TO.N,Net-(D2-K)*%
X145732500Y-48260000D03*
%TD*%
D19*
%TO.P,C2,1*%
%TO.N,Net-(U1-CV)*%
X84415000Y-36195000D03*
%TO.P,C2,2*%
%TO.N,GND*%
X79415000Y-36195000D03*
%TD*%
D13*
%TO.P,TP6,1,1*%
%TO.N,+12V*%
X95885000Y-46355000D03*
%TD*%
D20*
%TO.P,D1,1,K*%
%TO.N,Net-(D1-K)*%
X79375000Y-41270000D03*
D21*
%TO.P,D1,2,A*%
%TO.N,Net-(D1-A)*%
X79375000Y-48890000D03*
%TD*%
D17*
%TO.P,R1,1*%
%TO.N,+12V*%
X84455000Y-48895000D03*
D18*
%TO.P,R1,2*%
%TO.N,Net-(D1-A)*%
X84455000Y-41275000D03*
%TD*%
D10*
%TO.P,D2,1,K*%
%TO.N,Net-(D2-K)*%
X155892500Y-48255000D03*
D11*
%TO.P,D2,2,A*%
%TO.N,Net-(D2-A)*%
X155892500Y-55875000D03*
%TD*%
D12*
%TO.P,TP1,1,1*%
%TO.N,+12V*%
X97155000Y-52705000D03*
X99695000Y-52705000D03*
%TD*%
D22*
%TO.P,L1,1,1*%
%TO.N,Net-(Q1-D)*%
X116522500Y-47625000D03*
%TO.P,L1,2,2*%
%TO.N,+12V*%
X131762500Y-42545000D03*
%TO.P,L1,3,3*%
%TO.N,Net-(C5-Pad1)*%
X123507500Y-34925000D03*
%TO.P,L1,4,4*%
%TO.N,Net-(J2-Pin_1)*%
X129857500Y-27940000D03*
%TD*%
D12*
%TO.P,TP4,1,1*%
%TO.N,Net-(J2-Pin_1)*%
X154622500Y-33020000D03*
X157162500Y-33020000D03*
%TD*%
D13*
%TO.P,TP5,1,1*%
%TO.N,+12V*%
X88265000Y-46355000D03*
%TD*%
D12*
%TO.P,C3,1*%
%TO.N,+12V*%
X103106250Y-52705000D03*
%TO.P,C3,2*%
%TO.N,Net-(Q1-D)*%
X113106250Y-52705000D03*
%TD*%
D15*
%TO.P,U2,1*%
%TO.N,Net-(R4-Pad1)*%
X134292500Y-66045000D03*
D16*
%TO.P,U2,2*%
%TO.N,Net-(C5-Pad1)*%
X134292500Y-63505000D03*
%TO.P,U2,3*%
%TO.N,GND*%
X126672500Y-63505000D03*
%TO.P,U2,4*%
%TO.N,Net-(J1-Pin_2)*%
X126672500Y-66045000D03*
%TD*%
D15*
%TO.P,U1,1,GND*%
%TO.N,GND*%
X95885000Y-43815000D03*
D16*
%TO.P,U1,2,TR*%
%TO.N,Net-(D1-K)*%
X95885000Y-41275000D03*
%TO.P,U1,3,Q*%
%TO.N,Net-(U1-Q)*%
X95885000Y-38735000D03*
%TO.P,U1,4,R*%
%TO.N,+12V*%
X95885000Y-36195000D03*
%TO.P,U1,5,CV*%
%TO.N,Net-(U1-CV)*%
X88265000Y-36195000D03*
%TO.P,U1,6,THR*%
%TO.N,Net-(D1-K)*%
X88265000Y-38735000D03*
%TO.P,U1,7,DIS*%
%TO.N,Net-(D1-A)*%
X88265000Y-41275000D03*
%TO.P,U1,8,VCC*%
%TO.N,+12V*%
X88265000Y-43815000D03*
%TD*%
D17*
%TO.P,R3,1*%
%TO.N,Net-(U1-Q)*%
X99695000Y-41275000D03*
D18*
%TO.P,R3,2*%
%TO.N,Net-(Q1-G)*%
X99695000Y-48895000D03*
%TD*%
D12*
%TO.P,C5,1*%
%TO.N,Net-(C5-Pad1)*%
X145812500Y-40322500D03*
%TO.P,C5,2*%
%TO.N,Net-(D2-K)*%
X155812500Y-40322500D03*
%TD*%
D19*
%TO.P,C4,1*%
%TO.N,+12V*%
X89575000Y-52705000D03*
%TO.P,C4,2*%
%TO.N,GND*%
X94575000Y-52705000D03*
%TD*%
D23*
%TO.P,Q1,1,G*%
%TO.N,Net-(Q1-G)*%
X105410000Y-48895000D03*
D24*
%TO.P,Q1,2,D*%
%TO.N,Net-(Q1-D)*%
X107950000Y-48895000D03*
%TO.P,Q1,3,S*%
%TO.N,GND*%
X110490000Y-48895000D03*
%TD*%
D19*
%TO.P,C1,1*%
%TO.N,Net-(D1-K)*%
X89575000Y-48895000D03*
%TO.P,C1,2*%
%TO.N,GND*%
X94575000Y-48895000D03*
%TD*%
D25*
%TO.P,C6,1*%
%TO.N,+12V*%
X97155000Y-60047500D03*
D26*
%TO.P,C6,2*%
%TO.N,GND*%
X97155000Y-65047500D03*
%TD*%
D17*
%TO.P,R2,1*%
%TO.N,Net-(D1-A)*%
X81915000Y-48895000D03*
D18*
%TO.P,R2,2*%
%TO.N,Net-(D1-K)*%
X81915000Y-41275000D03*
%TD*%
D12*
%TO.P,TP7,1,1*%
%TO.N,GND*%
X79375000Y-27622500D03*
X81915000Y-27622500D03*
%TD*%
D13*
%TO.P,J1,1,Pin_1*%
%TO.N,Net-(J1-Pin_1)*%
X86995000Y-60007500D03*
D14*
X86995000Y-62547500D03*
%TO.P,J1,2,Pin_2*%
%TO.N,Net-(J1-Pin_2)*%
X84455000Y-60007500D03*
X84455000Y-62547500D03*
%TO.P,J1,3,Pin_3*%
%TO.N,GND*%
X81915000Y-60007500D03*
X81915000Y-62547500D03*
%TO.P,J1,4,Pin_4*%
%TO.N,+12V*%
X79375000Y-60007500D03*
X79375000Y-62547500D03*
%TD*%
D27*
%TO.N,+12V*%
X88265000Y-46355000D02*
X95885000Y-46355000D01*
%TD*%
M02*
