M48
; DRILL file {KiCad 8.0.4} date 2025-04-29T13:50:05+0700
; FORMAT={-:-/ absolute / metric / decimal}
; #@! TF.CreationDate,2025-04-29T13:50:05+07:00
; #@! TF.GenerationSoftware,Kicad,Pcbnew,8.0.4
; #@! TF.FileFunction,Plated,1,2,PTH
FMAT,2
METRIC
; #@! TA.AperFunction,Plated,PTH,ComponentDrill
T1C0.700
; #@! TA.AperFunction,Plated,PTH,ComponentDrill
T2C0.750
; #@! TA.AperFunction,Plated,PTH,ComponentDrill
T3C0.800
; #@! TA.AperFunction,Plated,PTH,ComponentDrill
T4C1.000
; #@! TA.AperFunction,Plated,PTH,ComponentDrill
T5C1.100
; #@! TA.AperFunction,Plated,PTH,ComponentDrill
T6C1.200
; #@! TA.AperFunction,Plated,PTH,ComponentDrill
T7C1.500
%
G90
G05
T1
X81.915Y-41.275
X81.915Y-48.895
X84.455Y-41.275
X84.455Y-48.895
X99.695Y-41.275
X99.695Y-48.895
X145.732Y-48.26
X145.732Y-55.88
T2
X150.812Y-48.26
X150.812Y-55.88
X155.892Y-48.255
X155.892Y-55.875
T3
X79.415Y-36.195
X84.415Y-36.195
X88.265Y-36.195
X88.265Y-38.735
X88.265Y-41.275
X88.265Y-43.815
X89.575Y-48.895
X89.575Y-52.705
X94.575Y-48.895
X94.575Y-52.705
X95.885Y-36.195
X95.885Y-38.735
X95.885Y-41.275
X95.885Y-43.815
X126.672Y-55.885
X126.672Y-58.425
X126.672Y-63.505
X126.672Y-66.045
X134.292Y-55.885
X134.292Y-58.425
X134.292Y-63.505
X134.292Y-66.045
T4
X79.375Y-27.622
X79.375Y-41.27
X79.375Y-48.89
X79.375Y-60.008
X79.375Y-62.547
X81.915Y-27.622
X81.915Y-60.008
X81.915Y-62.547
X84.455Y-60.008
X84.455Y-62.547
X86.995Y-60.008
X86.995Y-62.547
X88.265Y-46.355
X95.885Y-46.355
X97.155Y-52.705
X99.695Y-52.705
X103.106Y-52.705
X113.106Y-52.705
X116.522Y-52.705
X119.062Y-52.705
X144.463Y-33.02
X145.812Y-40.322
X147.002Y-33.02
X150.812Y-60.008
X150.812Y-62.547
X154.623Y-33.02
X155.812Y-40.322
X155.892Y-60.008
X155.892Y-62.547
X157.162Y-33.02
X160.972Y-60.008
X160.972Y-62.547
T5
X105.41Y-48.895
X107.95Y-48.895
X110.49Y-48.895
T6
X97.155Y-60.047
X97.155Y-65.047
T7
X116.522Y-47.625
X123.507Y-34.925
X129.857Y-27.94
X131.762Y-42.545
M30
