%TF.GenerationSoftware,KiCad,Pcbnew,8.0.4*%
%TF.CreationDate,2026-01-19T09:32:26+07:00*%
%TF.ProjectId,PS-5.1,50532d35-2e31-42e6-9b69-6361645f7063,rev?*%
%TF.SameCoordinates,Original*%
%TF.FileFunction,Soldermask,Top*%
%TF.FilePolarity,Negative*%
%FSLAX46Y46*%
G04 Gerber Fmt 4.6, Leading zero omitted, Abs format (unit mm)*
G04 Created by KiCad (PCBNEW 8.0.4) date 2026-01-19 09:32:26*
%MOMM*%
%LPD*%
G01*
G04 APERTURE LIST*
%ADD10C,0.635000*%
%ADD11C,0.952500*%
%ADD12C,0.800000*%
%ADD13O,2.000000X2.000000*%
%ADD14C,2.000000*%
%ADD15O,4.500000X2.500000*%
%ADD16O,4.500000X2.540000*%
%ADD17C,5.500000*%
%ADD18C,3.810000*%
%ADD19C,2.540000*%
%ADD20C,2.600000*%
%ADD21O,1.905000X1.905000*%
%ADD22C,1.905000*%
%ADD23O,2.200000X2.200000*%
%ADD24C,2.200000*%
%ADD25O,2.400000X2.400000*%
%ADD26C,2.400000*%
%ADD27O,2.600000X2.600000*%
%ADD28C,6.000000*%
%ADD29C,1.587500*%
%ADD30O,4.127500X1.587500*%
%ADD31C,4.000000*%
%ADD32C,3.175000*%
%ADD33C,5.080000*%
%ADD34C,3.000000*%
G04 APERTURE END LIST*
D10*
X161290000Y-113665000D02*
G75*
G02*
X160655000Y-113665000I-317500J0D01*
G01*
X160655000Y-113665000D02*
G75*
G02*
X161290000Y-113665000I317500J0D01*
G01*
D11*
X144938750Y-113665000D02*
G75*
G02*
X143986250Y-113665000I-476250J0D01*
G01*
X143986250Y-113665000D02*
G75*
G02*
X144938750Y-113665000I476250J0D01*
G01*
D12*
X178200000Y-133667500D02*
G75*
G02*
X177400000Y-133667500I-400000J0D01*
G01*
X177400000Y-133667500D02*
G75*
G02*
X178200000Y-133667500I400000J0D01*
G01*
D13*
%TO.C,L1*%
X172720000Y-118427500D03*
D14*
X187960000Y-118427500D03*
%TD*%
D15*
%TO.C,Q3*%
X200025000Y-42280000D03*
D16*
X200025000Y-36830000D03*
D15*
X200025000Y-31380000D03*
%TD*%
D17*
%TO.C,H1*%
X206375000Y-20955000D03*
%TD*%
D18*
%TO.C,CN3*%
X18825000Y-56347500D03*
X18825000Y-48427500D03*
%TD*%
D19*
%TO.C,L8*%
X36830000Y-34290000D03*
X49530000Y-34290000D03*
%TD*%
D18*
%TO.C,D7*%
X195897500Y-177482500D03*
D20*
X180657500Y-177482500D03*
%TD*%
D19*
%TO.C,C8*%
X30162500Y-25717500D03*
X30162500Y-40957500D03*
%TD*%
D15*
%TO.C,Q1*%
X200025000Y-118480000D03*
D16*
X200025000Y-113030000D03*
D15*
X200025000Y-107580000D03*
%TD*%
D13*
%TO.C,L5*%
X172725000Y-42227500D03*
D14*
X187965000Y-42227500D03*
%TD*%
D19*
%TO.C,C11*%
X30162500Y-92392500D03*
X30162500Y-107632500D03*
%TD*%
D17*
%TO.C,H6*%
X187960000Y-100330000D03*
%TD*%
D21*
%TO.C,D9*%
X159385000Y-74325000D03*
D22*
X159385000Y-66705000D03*
%TD*%
D23*
%TO.C,D2*%
X193675000Y-80327500D03*
D24*
X193675000Y-69532500D03*
%TD*%
D25*
%TO.C,R1*%
X172720000Y-107632500D03*
D26*
X187960000Y-107632500D03*
%TD*%
D27*
%TO.C,D5*%
X187960000Y-49530000D03*
D20*
X172720000Y-49530000D03*
%TD*%
D19*
%TO.C,C9*%
X30162500Y-79057500D03*
X30162500Y-63817500D03*
%TD*%
D28*
%TO.C,H7*%
X18415000Y-20955000D03*
%TD*%
D19*
%TO.C,C10*%
X30162500Y-111442500D03*
X30162500Y-126682500D03*
%TD*%
D29*
%TO.C,R4*%
X180345000Y-195272500D03*
X180345000Y-202892500D03*
%TD*%
D25*
%TO.C,R2*%
X172715000Y-69532500D03*
D26*
X187955000Y-69532500D03*
%TD*%
D17*
%TO.C,H2*%
X206375000Y-208280000D03*
%TD*%
D14*
%TO.C,C6*%
X115570000Y-86310000D03*
X115570000Y-76310000D03*
%TD*%
D29*
%TO.C,U2*%
X119380000Y-199390000D03*
D30*
X118110000Y-199390000D03*
D29*
X119380000Y-194310000D03*
D30*
X118110000Y-194310000D03*
D29*
X119380000Y-189230000D03*
D30*
X118110000Y-189230000D03*
D29*
X119380000Y-125412500D03*
D30*
X118110000Y-125412500D03*
D29*
X119380000Y-122872500D03*
D30*
X118110000Y-122872500D03*
D29*
X119380000Y-120332500D03*
D30*
X118110000Y-120332500D03*
D29*
X119380000Y-117792500D03*
D30*
X118110000Y-117792500D03*
%TD*%
D22*
%TO.C,CR2*%
X145420000Y-34290000D03*
X145420000Y-36830000D03*
X145420000Y-39370000D03*
%TD*%
D19*
%TO.C,C12*%
X30162500Y-145732500D03*
X30162500Y-130492500D03*
%TD*%
D23*
%TO.C,D1*%
X193675000Y-118427500D03*
D24*
X193675000Y-107632500D03*
%TD*%
D28*
%TO.C,H11*%
X18415000Y-208280000D03*
%TD*%
D29*
%TO.C,U4*%
X175260000Y-195262500D03*
X177800000Y-195262500D03*
X177800000Y-202882500D03*
X175260000Y-202882500D03*
%TD*%
D25*
%TO.C,R3*%
X172720000Y-31432500D03*
D26*
X187960000Y-31432500D03*
%TD*%
D17*
%TO.C,H4*%
X98425000Y-208280000D03*
%TD*%
D19*
%TO.C,L11*%
X36830000Y-137160000D03*
X49530000Y-137160000D03*
%TD*%
D29*
%TO.C,C1*%
X171450000Y-124182500D03*
X171450000Y-129182500D03*
%TD*%
%TO.C,U1*%
X175260000Y-122872500D03*
X177800000Y-122872500D03*
X180340000Y-122872500D03*
X182880000Y-122872500D03*
X182880000Y-130492500D03*
X180340000Y-130492500D03*
X177800000Y-130492500D03*
X175260000Y-130492500D03*
%TD*%
D19*
%TO.C,L9*%
X36830000Y-70485000D03*
X49530000Y-70485000D03*
%TD*%
D21*
%TO.C,D8*%
X159385000Y-103187500D03*
D22*
X159385000Y-95567500D03*
%TD*%
D27*
%TO.C,D6*%
X172720000Y-55880000D03*
D20*
X187960000Y-55880000D03*
%TD*%
D19*
%TO.C,L4*%
X172720000Y-74930000D03*
X187960000Y-74930000D03*
%TD*%
D31*
%TO.C,C2*%
X199244501Y-150177500D03*
X189244501Y-150177500D03*
%TD*%
D29*
%TO.C,U3*%
X149860000Y-199390000D03*
D30*
X148590000Y-199390000D03*
D29*
X149860000Y-194310000D03*
D30*
X148590000Y-194310000D03*
D29*
X149860000Y-189230000D03*
D30*
X148590000Y-189230000D03*
D29*
X149860000Y-125412500D03*
D30*
X148590000Y-125412500D03*
D29*
X149860000Y-122872500D03*
D30*
X148590000Y-122872500D03*
D29*
X149860000Y-120332500D03*
D30*
X148590000Y-120332500D03*
D29*
X149860000Y-117792500D03*
D30*
X148590000Y-117792500D03*
%TD*%
D29*
%TO.C,J1*%
X166370000Y-210502500D03*
D30*
X165100000Y-210502500D03*
D29*
X166370000Y-207962500D03*
D30*
X165100000Y-207962500D03*
D29*
X166370000Y-205422500D03*
D30*
X165100000Y-205422500D03*
D29*
X166370000Y-202882500D03*
D30*
X165100000Y-202882500D03*
D29*
X166370000Y-200342500D03*
D30*
X165100000Y-200342500D03*
D29*
X166370000Y-197802500D03*
D30*
X165100000Y-197802500D03*
D29*
X166370000Y-195262500D03*
D30*
X165100000Y-195262500D03*
D29*
X166370000Y-192722500D03*
D30*
X165100000Y-192722500D03*
D29*
X166370000Y-190182500D03*
D30*
X165100000Y-190182500D03*
D29*
X166370000Y-187642500D03*
D30*
X165100000Y-187642500D03*
D29*
X166370000Y-185102500D03*
D30*
X165100000Y-185102500D03*
D29*
X166370000Y-182562500D03*
D30*
X165100000Y-182562500D03*
D29*
X166370000Y-180022500D03*
D30*
X165100000Y-180022500D03*
D29*
X166370000Y-177482500D03*
D30*
X165100000Y-177482500D03*
D29*
X166370000Y-174942500D03*
D30*
X165100000Y-174942500D03*
D29*
X166370000Y-172402500D03*
D30*
X165100000Y-172402500D03*
%TD*%
D23*
%TO.C,D3*%
X193675000Y-42227500D03*
D24*
X193675000Y-31432500D03*
%TD*%
D29*
%TO.C,C3*%
X171450000Y-148630000D03*
X171450000Y-153630000D03*
%TD*%
D13*
%TO.C,L3*%
X172720000Y-80327500D03*
D14*
X187960000Y-80327500D03*
%TD*%
D32*
%TO.C,CN-1-2*%
X195897500Y-200025001D03*
X195897500Y-203985001D03*
X195897500Y-207945001D03*
X195897500Y-211905001D03*
%TD*%
%TO.C,XF2*%
X63500000Y-137160000D03*
X73977500Y-140017500D03*
X73977500Y-98107500D03*
X63500000Y-100965000D03*
D33*
X93027500Y-111442500D03*
X93027500Y-126682500D03*
%TD*%
D19*
%TO.C,L6*%
X172725000Y-36830000D03*
X187965000Y-36830000D03*
%TD*%
%TO.C,L10*%
X36830000Y-100965000D03*
X49530000Y-100965000D03*
%TD*%
D17*
%TO.C,H5*%
X-104925000Y11262500D03*
%TD*%
D34*
%TO.C,K1*%
X150485000Y-95567500D03*
X150485000Y-105767500D03*
D18*
X135285000Y-91767500D03*
X127685000Y-91767500D03*
X137825000Y-109567500D03*
D34*
X153025000Y-100667500D03*
%TD*%
D29*
%TO.C,C4*%
X171450000Y-143470000D03*
X171450000Y-138470000D03*
%TD*%
D13*
%TO.C,L7*%
X175577500Y-164787500D03*
D14*
X175577500Y-177487500D03*
%TD*%
D19*
%TO.C,L2*%
X172720000Y-113030000D03*
X187960000Y-113030000D03*
%TD*%
D14*
%TO.C,C5*%
X121950000Y-86310000D03*
X121950000Y-76310000D03*
%TD*%
D32*
%TO.C,XF1*%
X63500000Y-70485000D03*
X73977500Y-73342500D03*
X73977500Y-31432500D03*
X63500000Y-34290000D03*
D33*
X93027500Y-44767500D03*
X93027500Y-60007500D03*
%TD*%
D27*
%TO.C,D4*%
X172720000Y-62230000D03*
D20*
X187960000Y-62230000D03*
%TD*%
D32*
%TO.C,CN-1-1*%
X195897500Y-182880001D03*
X195897500Y-186840001D03*
X195897500Y-190800001D03*
X195897500Y-194760001D03*
%TD*%
D19*
%TO.C,C7*%
X30162500Y-60007500D03*
X30162500Y-44767500D03*
%TD*%
D17*
%TO.C,H3*%
X98425000Y-20955000D03*
%TD*%
D18*
%TO.C,CN4*%
X18825000Y-126982500D03*
X18825000Y-119062500D03*
X18825000Y-111142500D03*
%TD*%
D15*
%TO.C,Q2*%
X200025000Y-80380000D03*
D16*
X200025000Y-74930000D03*
D15*
X200025000Y-69480000D03*
%TD*%
D22*
%TO.C,CR1*%
X128910000Y-34290000D03*
X128910000Y-36830000D03*
X128910000Y-39370000D03*
%TD*%
D25*
%TO.C,R5*%
X180657500Y-171132500D03*
D26*
X200977500Y-171132500D03*
%TD*%
D18*
%TO.C,CN5*%
X18825000Y-183347500D03*
X18825000Y-175427500D03*
%TD*%
D34*
%TO.C,K2*%
X150485000Y-66675000D03*
X150485000Y-76875000D03*
D18*
X135285000Y-62875000D03*
X127685000Y-62875000D03*
X137825000Y-80675000D03*
D34*
X153025000Y-71775000D03*
%TD*%
M02*
