  0
SECTION
  2
HEADER
  9
$ANGBASE
  50
0.0
  9
$ANGDIR
  70
1
  9
$MEASUREMENT
  70
1
  0
ENDSEC
  0
SECTION
  2
TABLES
  0
TABLE
  2
LTYPE
  70
4
  0
LTYPE
  5
40F
  2
CONTINUOUS
  70
0
  3
Solid line
  72
65
  73
0
  40
0.0
  0
LTYPE
  5
410
  2
DASHDOT
 70
0
  3
Dash Dot ____ _ ____ _
 72
65
 73
4
 40
2.0
 49
1.25
 49
-0.25
 49
0.25
 49
-0.25
  0
LTYPE
  5
411
  2
DASHED
 70
0
  3
Dashed __ __ __ __ __
 72
65
 73
2
 40
0.75
 49
0.5
 49
-0.25
  0
LTYPE
  5
43B
  2
DOTTED
 70
0
  3
Dotted .  .  .  .
 72
65
 73
2
 40
0.2
 49
0.0
 49
-0.2
  0
ENDTAB
  0
TABLE
  2
STYLE
  70
4
  0
STYLE
  2
KICAD
  70
0
  40
0
  41
1
  42
1
  50
0
  71
0
  3
isocp.shx
  0
STYLE
  2
KICADB
  70
0
  40
0
  41
1
  42
1
  50
0
  71
0
  3
isocp.shx
  0
STYLE
  2
KICADI
  70
0
  40
0
  41
1
  42
1
  50
15
  71
0
  3
isocp.shx
  0
STYLE
  2
KICADBI
  70
0
  40
0
  41
1
  42
1
  50
15
  71
0
  3
isocp.shx
  0
ENDTAB
  0
TABLE
  2
LAYER
  70
1
  0
LAYER
  2
BLACK
  70
0
  62
7
  6
CONTINUOUS
  0
ENDTAB
  0
ENDSEC
  0
SECTION
  2
ENTITIES
0
LINE
8
BLACK
6
CONTINUOUS
10
212.0900000000000034
20
-14.9224999999999994
11
12.6999999999999993
21
-14.9224999999999994
0
LINE
8
BLACK
6
CONTINUOUS
10
12.6999999999999993
20
-214.3125
11
12.6999999999999993
21
-14.9224999999999994
0
LINE
8
BLACK
6
CONTINUOUS
10
212.0900000000000034
20
-214.3125
11
12.6999999999999993
21
-214.3125
0
LINE
8
BLACK
6
CONTINUOUS
10
212.0900000000000034
20
-14.9224999999999994
11
212.0900000000000034
21
-214.3125
0
LINE
8
BLACK
6
CONTINUOUS
10
15.282767999999999
20
-217.4523379999999975
11
15.282767999999999
21
-215.4523379999999975
0
LINE
8
BLACK
6
CONTINUOUS
10
15.282767999999999
20
-215.4523379999999975
11
15.7589579999999998
21
-215.4523379999999975
0
LINE
8
BLACK
6
CONTINUOUS
10
15.7589579999999998
20
-215.4523379999999975
11
16.0446729999999995
21
-215.5475759999999923
0
LINE
8
BLACK
6
CONTINUOUS
10
16.0446729999999995
20
-215.5475759999999923
11
16.2351489999999998
21
-215.7380519999999819
0
LINE
8
BLACK
6
CONTINUOUS
10
16.2351489999999998
20
-215.7380519999999819
11
16.3303869999999982
21
-215.928528
0
LINE
8
BLACK
6
CONTINUOUS
10
16.3303869999999982
20
-215.928528
11
16.4256250000000001
21
-216.3094799999999793
0
LINE
8
BLACK
6
CONTINUOUS
10
16.4256250000000001
20
-216.3094799999999793
11
16.4256250000000001
21
-216.5951949999999897
0
LINE
8
BLACK
6
CONTINUOUS
10
16.4256250000000001
20
-216.5951949999999897
11
16.3303869999999982
21
-216.9761469999999974
0
LINE
8
BLACK
6
CONTINUOUS
10
16.3303869999999982
20
-216.9761469999999974
11
16.2351489999999998
21
-217.1666229999999871
0
LINE
8
BLACK
6
CONTINUOUS
10
16.2351489999999998
20
-217.1666229999999871
11
16.0446729999999995
21
-217.3571000000000026
0
LINE
8
BLACK
6
CONTINUOUS
10
16.0446729999999995
20
-217.3571000000000026
11
15.7589579999999998
21
-217.4523379999999975
0
LINE
8
BLACK
6
CONTINUOUS
10
15.7589579999999998
20
-217.4523379999999975
11
15.282767999999999
21
-217.4523379999999975
0
LINE
8
BLACK
6
CONTINUOUS
10
17.2827680000000008
20
-217.4523379999999975
11
17.2827680000000008
21
-216.1190039999999897
0
LINE
8
BLACK
6
CONTINUOUS
10
17.2827680000000008
20
-216.4999569999999949
11
17.3780059999999992
21
-216.3094799999999793
0
LINE
8
BLACK
6
CONTINUOUS
10
17.3780059999999992
20
-216.3094799999999793
11
17.4732439999999976
21
-216.2142419999999845
0
LINE
8
BLACK
6
CONTINUOUS
10
17.4732439999999976
20
-216.2142419999999845
11
17.6637199999999979
21
-216.1190039999999897
0
LINE
8
BLACK
6
CONTINUOUS
10
17.6637199999999979
20
-216.1190039999999897
11
17.8541969999999992
21
-216.1190039999999897
0
LINE
8
BLACK
6
CONTINUOUS
10
18.5208629999999985
20
-217.4523379999999975
11
18.5208629999999985
21
-216.1190039999999897
0
LINE
8
BLACK
6
CONTINUOUS
10
18.5208629999999985
20
-215.4523379999999975
11
18.4256250000000001
21
-215.5475759999999923
0
LINE
8
BLACK
6
CONTINUOUS
10
18.4256250000000001
20
-215.5475759999999923
11
18.5208629999999985
21
-215.6428139999999871
0
LINE
8
BLACK
6
CONTINUOUS
10
18.5208629999999985
20
-215.6428139999999871
11
18.6161010000000005
21
-215.5475759999999923
0
LINE
8
BLACK
6
CONTINUOUS
10
18.6161010000000005
20
-215.5475759999999923
11
18.5208629999999985
21
-215.4523379999999975
0
LINE
8
BLACK
6
CONTINUOUS
10
18.5208629999999985
20
-215.4523379999999975
11
18.5208629999999985
21
-215.6428139999999871
0
LINE
8
BLACK
6
CONTINUOUS
10
19.7589579999999998
20
-217.4523379999999975
11
19.5684819999999995
21
-217.3571000000000026
0
LINE
8
BLACK
6
CONTINUOUS
10
19.5684819999999995
20
-217.3571000000000026
11
19.4732439999999976
21
-217.1666229999999871
0
LINE
8
BLACK
6
CONTINUOUS
10
19.4732439999999976
20
-217.1666229999999871
11
19.4732439999999976
21
-215.4523379999999975
0
LINE
8
BLACK
6
CONTINUOUS
10
20.8065770000000008
20
-217.4523379999999975
11
20.6161010000000005
21
-217.3571000000000026
0
LINE
8
BLACK
6
CONTINUOUS
10
20.6161010000000005
20
-217.3571000000000026
11
20.5208629999999985
21
-217.1666229999999871
0
LINE
8
BLACK
6
CONTINUOUS
10
20.5208629999999985
20
-217.1666229999999871
11
20.5208629999999985
21
-215.4523379999999975
0
LINE
8
BLACK
6
CONTINUOUS
10
23.0922920000000005
20
-217.4523379999999975
11
23.0922920000000005
21
-215.4523379999999975
0
LINE
8
BLACK
6
CONTINUOUS
10
23.0922920000000005
20
-215.4523379999999975
11
23.7589589999999973
21
-216.8809090000000026
0
LINE
8
BLACK
6
CONTINUOUS
10
23.7589589999999973
20
-216.8809090000000026
11
24.4256250000000001
21
-215.4523379999999975
0
LINE
8
BLACK
6
CONTINUOUS
10
24.4256250000000001
20
-215.4523379999999975
11
24.4256250000000001
21
-217.4523379999999975
0
LINE
8
BLACK
6
CONTINUOUS
10
26.2351489999999998
20
-217.4523379999999975
11
26.2351489999999998
21
-216.4047190000000001
0
LINE
8
BLACK
6
CONTINUOUS
10
26.2351489999999998
20
-216.4047190000000001
11
26.1399109999999979
21
-216.2142419999999845
0
LINE
8
BLACK
6
CONTINUOUS
10
26.1399109999999979
20
-216.2142419999999845
11
25.9494349999999976
21
-216.1190039999999897
0
LINE
8
BLACK
6
CONTINUOUS
10
25.9494349999999976
20
-216.1190039999999897
11
25.5684819999999995
21
-216.1190039999999897
0
LINE
8
BLACK
6
CONTINUOUS
10
25.5684819999999995
20
-216.1190039999999897
11
25.3780059999999992
21
-216.2142419999999845
0
LINE
8
BLACK
6
CONTINUOUS
10
26.2351489999999998
20
-217.3571000000000026
11
26.0446729999999995
21
-217.4523379999999975
0
LINE
8
BLACK
6
CONTINUOUS
10
26.0446729999999995
20
-217.4523379999999975
11
25.5684819999999995
21
-217.4523379999999975
0
LINE
8
BLACK
6
CONTINUOUS
10
25.5684819999999995
20
-217.4523379999999975
11
25.3780059999999992
21
-217.3571000000000026
0
LINE
8
BLACK
6
CONTINUOUS
10
25.3780059999999992
20
-217.3571000000000026
11
25.2827679999999972
21
-217.1666229999999871
0
LINE
8
BLACK
6
CONTINUOUS
10
25.2827679999999972
20
-217.1666229999999871
11
25.2827679999999972
21
-216.9761469999999974
0
LINE
8
BLACK
6
CONTINUOUS
10
25.2827679999999972
20
-216.9761469999999974
11
25.3780059999999992
21
-216.7856709999999794
0
LINE
8
BLACK
6
CONTINUOUS
10
25.3780059999999992
20
-216.7856709999999794
11
25.5684819999999995
21
-216.6904329999999845
0
LINE
8
BLACK
6
CONTINUOUS
10
25.5684819999999995
20
-216.6904329999999845
11
26.0446729999999995
21
-216.6904329999999845
0
LINE
8
BLACK
6
CONTINUOUS
10
26.0446729999999995
20
-216.6904329999999845
11
26.2351489999999998
21
-216.5951949999999897
0
LINE
8
BLACK
6
CONTINUOUS
10
27.1875299999999989
20
-216.1190039999999897
11
27.1875299999999989
21
-218.1190039999999897
0
LINE
8
BLACK
6
CONTINUOUS
10
27.1875299999999989
20
-216.2142419999999845
11
27.3780059999999992
21
-216.1190039999999897
0
LINE
8
BLACK
6
CONTINUOUS
10
27.3780059999999992
20
-216.1190039999999897
11
27.7589589999999973
21
-216.1190039999999897
0
LINE
8
BLACK
6
CONTINUOUS
10
27.7589589999999973
20
-216.1190039999999897
11
27.9494349999999976
21
-216.2142419999999845
0
LINE
8
BLACK
6
CONTINUOUS
10
27.9494349999999976
20
-216.2142419999999845
11
28.0446729999999995
21
-216.3094799999999793
0
LINE
8
BLACK
6
CONTINUOUS
10
28.0446729999999995
20
-216.3094799999999793
11
28.1399109999999979
21
-216.4999569999999949
0
LINE
8
BLACK
6
CONTINUOUS
10
28.1399109999999979
20
-216.4999569999999949
11
28.1399109999999979
21
-217.0713849999999923
0
LINE
8
BLACK
6
CONTINUOUS
10
28.1399109999999979
20
-217.0713849999999923
11
28.0446729999999995
21
-217.2618609999999819
0
LINE
8
BLACK
6
CONTINUOUS
10
28.0446729999999995
20
-217.2618609999999819
11
27.9494349999999976
21
-217.3571000000000026
0
LINE
8
BLACK
6
CONTINUOUS
10
27.9494349999999976
20
-217.3571000000000026
11
27.7589589999999973
21
-217.4523379999999975
0
LINE
8
BLACK
6
CONTINUOUS
10
27.7589589999999973
20
-217.4523379999999975
11
27.3780059999999992
21
-217.4523379999999975
0
LINE
8
BLACK
6
CONTINUOUS
10
27.3780059999999992
20
-217.4523379999999975
11
27.1875299999999989
21
-217.3571000000000026
0
LINE
8
BLACK
6
CONTINUOUS
10
28.9970539999999986
20
-217.2618609999999819
11
29.0922919999999969
21
-217.3571000000000026
0
LINE
8
BLACK
6
CONTINUOUS
10
29.0922919999999969
20
-217.3571000000000026
11
28.9970539999999986
21
-217.4523379999999975
0
LINE
8
BLACK
6
CONTINUOUS
10
28.9970539999999986
20
-217.4523379999999975
11
28.9018160000000002
21
-217.3571000000000026
0
LINE
8
BLACK
6
CONTINUOUS
10
28.9018160000000002
20
-217.3571000000000026
11
28.9970539999999986
21
-217.2618609999999819
0
LINE
8
BLACK
6
CONTINUOUS
10
28.9970539999999986
20
-217.2618609999999819
11
28.9970539999999986
21
-217.4523379999999975
0
LINE
8
BLACK
6
CONTINUOUS
10
28.9970539999999986
20
-216.2142419999999845
11
29.0922919999999969
21
-216.3094799999999793
0
LINE
8
BLACK
6
CONTINUOUS
10
29.0922919999999969
20
-216.3094799999999793
11
28.9970539999999986
21
-216.4047190000000001
0
LINE
8
BLACK
6
CONTINUOUS
10
28.9970539999999986
20
-216.4047190000000001
11
28.9018160000000002
21
-216.3094799999999793
0
LINE
8
BLACK
6
CONTINUOUS
10
28.9018160000000002
20
-216.3094799999999793
11
28.9970539999999986
21
-216.2142419999999845
0
LINE
8
BLACK
6
CONTINUOUS
10
28.9970539999999986
20
-216.2142419999999845
11
28.9970539999999986
21
-216.4047190000000001
  0
ENDSEC
  0
EOF
