M48
; DRILL file {KiCad 8.0.4} date 2026-01-19T09:33:37+0700
; FORMAT={-:-/ absolute / metric / decimal}
; #@! TF.CreationDate,2026-01-19T09:33:37+07:00
; #@! TF.GenerationSoftware,Kicad,Pcbnew,8.0.4
; #@! TF.FileFunction,Plated,1,2,PTH
FMAT,2
METRIC
; #@! TA.AperFunction,Plated,PTH,ViaDrill
T1C0.600
; #@! TA.AperFunction,Plated,PTH,ViaDrill
T2C0.635
; #@! TA.AperFunction,Plated,PTH,ViaDrill
T3C0.800
; #@! TA.AperFunction,Plated,PTH,ComponentDrill
T4C0.800
; #@! TA.AperFunction,Plated,PTH,ViaDrill
T5C1.000
; #@! TA.AperFunction,Plated,PTH,ComponentDrill
T6C1.000
; #@! TA.AperFunction,Plated,PTH,ComponentDrill
T7C1.100
; #@! TA.AperFunction,Plated,PTH,ComponentDrill
T8C1.200
; #@! TA.AperFunction,Plated,PTH,ComponentDrill
T9C1.300
; #@! TA.AperFunction,Plated,PTH,ComponentDrill
T10C1.500
; #@! TA.AperFunction,Plated,PTH,ComponentDrill
T11C1.600
; #@! TA.AperFunction,Plated,PTH,ComponentDrill
T12C1.800
; #@! TA.AperFunction,Plated,PTH,ComponentDrill
T13C2.000
; #@! TA.AperFunction,Plated,PTH,ComponentDrill
T14C3.000
; #@! TA.AperFunction,Plated,PTH,ComponentDrill
T15C3.200
%
G90
G05
T1
X163.195Y-169.862
X167.005Y-169.862
X175.26Y-132.398
X177.8Y-128.588
X180.34Y-132.398
T2
X160.972Y-113.665
T3
X177.8Y-133.667
T4
X171.45Y-124.182
X171.45Y-129.183
X171.45Y-138.47
X171.45Y-143.47
X171.45Y-148.63
X171.45Y-153.63
X175.26Y-122.872
X175.26Y-130.493
X175.26Y-195.262
X175.26Y-202.882
X177.8Y-122.872
X177.8Y-130.493
X177.8Y-195.262
X177.8Y-202.882
X180.34Y-122.872
X180.34Y-130.493
X180.345Y-195.272
X180.345Y-202.892
X182.88Y-122.872
X182.88Y-130.493
T5
X144.463Y-113.665
T6
X115.57Y-76.31
X115.57Y-86.31
X116.84Y-117.792
X116.84Y-120.332
X116.84Y-122.872
X116.84Y-125.412
X116.84Y-189.23
X116.84Y-194.31
X116.84Y-199.39
X119.38Y-117.792
X119.38Y-120.332
X119.38Y-122.872
X119.38Y-125.412
X119.38Y-189.23
X119.38Y-194.31
X119.38Y-199.39
X121.95Y-76.31
X121.95Y-86.31
X147.32Y-117.792
X147.32Y-120.332
X147.32Y-122.872
X147.32Y-125.412
X147.32Y-189.23
X147.32Y-194.31
X147.32Y-199.39
X149.86Y-117.792
X149.86Y-120.332
X149.86Y-122.872
X149.86Y-125.412
X149.86Y-189.23
X149.86Y-194.31
X149.86Y-199.39
X159.385Y-66.705
X159.385Y-74.325
X159.385Y-95.567
X159.385Y-103.188
X163.83Y-172.403
X163.83Y-174.942
X163.83Y-177.482
X163.83Y-180.022
X163.83Y-182.562
X163.83Y-185.102
X163.83Y-187.642
X163.83Y-190.183
X163.83Y-192.722
X163.83Y-195.262
X163.83Y-197.802
X163.83Y-200.343
X163.83Y-202.882
X163.83Y-205.422
X163.83Y-207.962
X163.83Y-210.502
X166.37Y-172.403
X166.37Y-174.942
X166.37Y-177.482
X166.37Y-180.022
X166.37Y-182.562
X166.37Y-185.102
X166.37Y-187.642
X166.37Y-190.183
X166.37Y-192.722
X166.37Y-195.262
X166.37Y-197.802
X166.37Y-200.343
X166.37Y-202.882
X166.37Y-205.422
X166.37Y-207.962
X166.37Y-210.502
X172.72Y-74.93
X172.72Y-80.328
X172.72Y-113.03
X172.72Y-118.427
X172.725Y-36.83
X172.725Y-42.227
X175.577Y-164.787
X175.577Y-177.487
X187.96Y-74.93
X187.96Y-80.328
X187.96Y-113.03
X187.96Y-118.427
X187.965Y-36.83
X187.965Y-42.227
T7
X128.91Y-34.29
X128.91Y-36.83
X128.91Y-39.37
X145.42Y-34.29
X145.42Y-36.83
X145.42Y-39.37
X193.675Y-31.432
X193.675Y-42.227
X193.675Y-69.532
X193.675Y-80.328
X193.675Y-107.632
X193.675Y-118.427
T8
X30.162Y-25.717
X30.162Y-40.957
X30.162Y-44.767
X30.162Y-60.008
X30.162Y-63.817
X30.162Y-79.057
X30.162Y-92.392
X30.162Y-107.632
X30.162Y-111.442
X30.162Y-126.682
X30.162Y-130.493
X30.162Y-145.732
X172.715Y-69.532
X172.72Y-31.432
X172.72Y-107.632
X180.657Y-171.132
X187.955Y-69.532
X187.96Y-31.432
X187.96Y-107.632
X200.977Y-171.132
T9
X36.83Y-34.29
X36.83Y-70.485
X36.83Y-100.965
X36.83Y-137.16
X49.53Y-34.29
X49.53Y-70.485
X49.53Y-100.965
X49.53Y-137.16
X172.72Y-49.53
X172.72Y-55.88
X172.72Y-62.23
X180.657Y-177.482
X187.96Y-49.53
X187.96Y-55.88
X187.96Y-62.23
X195.897Y-177.482
T10
X63.5Y-34.29
X63.5Y-70.485
X63.5Y-100.965
X63.5Y-137.16
X73.977Y-31.432
X73.977Y-73.343
X73.977Y-98.108
X73.977Y-140.017
X200.025Y-31.38
X200.025Y-36.83
X200.025Y-42.28
X200.025Y-69.48
X200.025Y-74.93
X200.025Y-80.38
X200.025Y-107.58
X200.025Y-113.03
X200.025Y-118.48
T11
X150.485Y-66.675
X150.485Y-76.875
X150.485Y-95.567
X150.485Y-105.767
X153.025Y-71.775
X153.025Y-100.667
T12
X18.825Y-48.427
X18.825Y-56.347
X18.825Y-111.142
X18.825Y-119.062
X18.825Y-126.982
X18.825Y-175.427
X18.825Y-183.347
X195.897Y-182.88
X195.897Y-186.84
X195.897Y-190.8
X195.897Y-194.76
X195.897Y-200.025
X195.897Y-203.985
X195.897Y-207.945
X195.897Y-211.905
T13
X127.685Y-62.875
X127.685Y-91.767
X135.285Y-62.875
X135.285Y-91.767
X137.825Y-80.675
X137.825Y-109.567
X189.245Y-150.177
X199.245Y-150.177
T14
X18.415Y-20.955
X18.415Y-208.28
X93.027Y-44.767
X93.027Y-60.008
X93.027Y-111.442
X93.027Y-126.682
T15
X-104.925Y11.262
X98.425Y-20.955
X98.425Y-208.28
X187.96Y-100.33
X206.375Y-20.955
X206.375Y-208.28
M30
