%TF.GenerationSoftware,KiCad,Pcbnew,8.0.4*%
%TF.CreationDate,2026-01-19T09:32:25+07:00*%
%TF.ProjectId,PS-5.1,50532d35-2e31-42e6-9b69-6361645f7063,rev?*%
%TF.SameCoordinates,Original*%
%TF.FileFunction,Legend,Top*%
%TF.FilePolarity,Positive*%
%FSLAX46Y46*%
G04 Gerber Fmt 4.6, Leading zero omitted, Abs format (unit mm)*
G04 Created by KiCad (PCBNEW 8.0.4) date 2026-01-19 09:32:25*
%MOMM*%
%LPD*%
G01*
G04 APERTURE LIST*
%ADD10C,0.200000*%
%ADD11C,0.150000*%
%ADD12C,0.100000*%
%ADD13C,0.120000*%
G04 APERTURE END LIST*
D10*
X202565000Y-74930000D02*
X205105000Y-74930000D01*
X202565000Y-113030000D02*
X205105000Y-113030000D01*
X202565000Y-17780000D02*
X202565000Y-132080000D01*
X202565000Y-36830000D02*
X205105000Y-36830000D01*
X99377500Y-52387500D02*
G75*
G02*
X48577500Y-52387500I-25400000J0D01*
G01*
X48577500Y-52387500D02*
G75*
G02*
X99377500Y-52387500I25400000J0D01*
G01*
X202565000Y-132080000D02*
X210820000Y-132080000D01*
X99377500Y-119062500D02*
G75*
G02*
X48577500Y-119062500I-25400000J0D01*
G01*
X48577500Y-119062500D02*
G75*
G02*
X99377500Y-119062500I25400000J0D01*
G01*
X210820000Y-17780000D02*
X202565000Y-17780000D01*
D11*
G36*
X210585498Y-74046022D02*
G01*
X210585498Y-75526086D01*
X210393336Y-75720575D01*
X209497202Y-75720575D01*
X209305040Y-75526086D01*
X209305040Y-74160482D01*
X209558619Y-74160482D01*
X209558619Y-75413953D01*
X209640974Y-75496774D01*
X210249098Y-75496774D01*
X210331919Y-75413953D01*
X210331919Y-74160482D01*
X210249098Y-74077662D01*
X209640974Y-74077662D01*
X209558619Y-74160482D01*
X209305040Y-74160482D01*
X209305040Y-74046022D01*
X209497202Y-73853861D01*
X210393336Y-73853861D01*
X210585498Y-74046022D01*
G37*
G36*
X206792514Y-112775084D02*
G01*
X206408656Y-112775084D01*
X206408656Y-112996559D01*
X206792514Y-112996559D01*
X206907439Y-113113810D01*
X206907439Y-113513953D01*
X206824618Y-113596774D01*
X206216494Y-113596774D01*
X206134139Y-113513953D01*
X206134139Y-113250138D01*
X205880560Y-113250138D01*
X205880560Y-113626086D01*
X206072722Y-113820575D01*
X206968856Y-113820575D01*
X207161018Y-113626086D01*
X207161018Y-113060768D01*
X206968856Y-112884426D01*
X207161018Y-112711341D01*
X207161018Y-112146022D01*
X206968856Y-111953861D01*
X206072722Y-111953861D01*
X205880560Y-112146022D01*
X205880560Y-112521971D01*
X206134139Y-112521971D01*
X206134139Y-112260482D01*
X206216494Y-112177662D01*
X206824618Y-112177662D01*
X206907439Y-112260482D01*
X206907439Y-112657833D01*
X206792514Y-112775084D01*
G37*
G36*
X208909085Y-112146022D02*
G01*
X208909085Y-112695056D01*
X208716923Y-112868606D01*
X208909085Y-113044483D01*
X208909085Y-113626086D01*
X208716923Y-113820575D01*
X207820788Y-113820575D01*
X207626300Y-113626086D01*
X207626300Y-113097991D01*
X207879414Y-113097991D01*
X207879414Y-113513953D01*
X207965026Y-113596774D01*
X208573150Y-113596774D01*
X208655971Y-113513953D01*
X208655971Y-113097991D01*
X208538254Y-112980739D01*
X207997131Y-112980739D01*
X207879414Y-113097991D01*
X207626300Y-113097991D01*
X207626300Y-113044483D01*
X207818462Y-112868606D01*
X207626300Y-112695056D01*
X207626300Y-112260482D01*
X207879414Y-112260482D01*
X207879414Y-112642014D01*
X207997131Y-112756473D01*
X208538254Y-112756473D01*
X208655971Y-112642014D01*
X208655971Y-112260482D01*
X208573150Y-112177662D01*
X207965026Y-112177662D01*
X207879414Y-112260482D01*
X207626300Y-112260482D01*
X207626300Y-112146022D01*
X207820788Y-111953861D01*
X208716923Y-111953861D01*
X208909085Y-112146022D01*
G37*
G36*
X209359013Y-113553968D02*
G01*
X209359013Y-113820575D01*
X209625620Y-113820575D01*
X209625620Y-113553968D01*
X209359013Y-113553968D01*
G37*
G36*
X210257474Y-112177662D02*
G01*
X210257474Y-113820575D01*
X210511053Y-113820575D01*
X210511053Y-111953861D01*
X210257474Y-111953861D01*
X209857796Y-112071112D01*
X209857796Y-112177662D01*
X210257474Y-112177662D01*
G37*
G36*
X206792514Y-36575084D02*
G01*
X206408656Y-36575084D01*
X206408656Y-36796559D01*
X206792514Y-36796559D01*
X206907439Y-36913810D01*
X206907439Y-37313953D01*
X206824618Y-37396774D01*
X206216494Y-37396774D01*
X206134139Y-37313953D01*
X206134139Y-37050138D01*
X205880560Y-37050138D01*
X205880560Y-37426086D01*
X206072722Y-37620575D01*
X206968856Y-37620575D01*
X207161018Y-37426086D01*
X207161018Y-36860768D01*
X206968856Y-36684426D01*
X207161018Y-36511341D01*
X207161018Y-35946022D01*
X206968856Y-35753861D01*
X206072722Y-35753861D01*
X205880560Y-35946022D01*
X205880560Y-36321971D01*
X206134139Y-36321971D01*
X206134139Y-36060482D01*
X206216494Y-35977662D01*
X206824618Y-35977662D01*
X206907439Y-36060482D01*
X206907439Y-36457833D01*
X206792514Y-36575084D01*
G37*
G36*
X208909085Y-35946022D02*
G01*
X208909085Y-36495056D01*
X208716923Y-36668606D01*
X208909085Y-36844483D01*
X208909085Y-37426086D01*
X208716923Y-37620575D01*
X207820788Y-37620575D01*
X207626300Y-37426086D01*
X207626300Y-36897991D01*
X207879414Y-36897991D01*
X207879414Y-37313953D01*
X207965026Y-37396774D01*
X208573150Y-37396774D01*
X208655971Y-37313953D01*
X208655971Y-36897991D01*
X208538254Y-36780739D01*
X207997131Y-36780739D01*
X207879414Y-36897991D01*
X207626300Y-36897991D01*
X207626300Y-36844483D01*
X207818462Y-36668606D01*
X207626300Y-36495056D01*
X207626300Y-36060482D01*
X207879414Y-36060482D01*
X207879414Y-36442014D01*
X207997131Y-36556473D01*
X208538254Y-36556473D01*
X208655971Y-36442014D01*
X208655971Y-36060482D01*
X208573150Y-35977662D01*
X207965026Y-35977662D01*
X207879414Y-36060482D01*
X207626300Y-36060482D01*
X207626300Y-35946022D01*
X207820788Y-35753861D01*
X208716923Y-35753861D01*
X208909085Y-35946022D01*
G37*
G36*
X209359013Y-37353968D02*
G01*
X209359013Y-37620575D01*
X209625620Y-37620575D01*
X209625620Y-37353968D01*
X209359013Y-37353968D01*
G37*
G36*
X210257474Y-35977662D02*
G01*
X210257474Y-37620575D01*
X210511053Y-37620575D01*
X210511053Y-35753861D01*
X210257474Y-35753861D01*
X209857796Y-35871112D01*
X209857796Y-35977662D01*
X210257474Y-35977662D01*
G37*
G36*
X205005363Y-129322662D02*
G01*
X205005363Y-130965575D01*
X205258942Y-130965575D01*
X205258942Y-129098861D01*
X205005363Y-129098861D01*
X204605686Y-129216112D01*
X204605686Y-129322662D01*
X205005363Y-129322662D01*
G37*
G36*
X205967568Y-129322662D02*
G01*
X205967568Y-130965575D01*
X206221147Y-130965575D01*
X206221147Y-129098861D01*
X205967568Y-129098861D01*
X205567890Y-129216112D01*
X205567890Y-129322662D01*
X205967568Y-129322662D01*
G37*
G36*
X206764597Y-130408166D02*
G01*
X206956759Y-130600328D01*
X207791476Y-130600328D01*
X207791476Y-130965575D01*
X208045055Y-130965575D01*
X208045055Y-129101652D01*
X207791476Y-129101652D01*
X207791476Y-130376527D01*
X207100531Y-130376527D01*
X207018176Y-130293706D01*
X207018176Y-129101652D01*
X206764597Y-129101652D01*
X206764597Y-130408166D01*
G37*
G36*
X208556866Y-130698968D02*
G01*
X208556866Y-130965575D01*
X208823472Y-130965575D01*
X208823472Y-130698968D01*
X208556866Y-130698968D01*
G37*
G36*
X210202105Y-129920084D02*
G01*
X209818247Y-129920084D01*
X209818247Y-130141559D01*
X210202105Y-130141559D01*
X210317030Y-130258810D01*
X210317030Y-130658953D01*
X210234209Y-130741774D01*
X209626085Y-130741774D01*
X209543730Y-130658953D01*
X209543730Y-130395138D01*
X209290151Y-130395138D01*
X209290151Y-130771086D01*
X209482313Y-130965575D01*
X210378447Y-130965575D01*
X210570609Y-130771086D01*
X210570609Y-130205768D01*
X210378447Y-130029426D01*
X210570609Y-129856341D01*
X210570609Y-129291022D01*
X210378447Y-129098861D01*
X209482313Y-129098861D01*
X209290151Y-129291022D01*
X209290151Y-129666971D01*
X209543730Y-129666971D01*
X209543730Y-129405482D01*
X209626085Y-129322662D01*
X210234209Y-129322662D01*
X210317030Y-129405482D01*
X210317030Y-129802833D01*
X210202105Y-129920084D01*
G37*
X180201666Y-118789795D02*
X179820714Y-118789795D01*
X179820714Y-118789795D02*
X179820714Y-117989795D01*
X180887380Y-118789795D02*
X180430237Y-118789795D01*
X180658809Y-118789795D02*
X180658809Y-117989795D01*
X180658809Y-117989795D02*
X180582618Y-118104080D01*
X180582618Y-118104080D02*
X180506428Y-118180271D01*
X180506428Y-118180271D02*
X180430237Y-118218366D01*
X199929761Y-46905057D02*
X199834523Y-46857438D01*
X199834523Y-46857438D02*
X199739285Y-46762200D01*
X199739285Y-46762200D02*
X199596428Y-46619342D01*
X199596428Y-46619342D02*
X199501190Y-46571723D01*
X199501190Y-46571723D02*
X199405952Y-46571723D01*
X199453571Y-46809819D02*
X199358333Y-46762200D01*
X199358333Y-46762200D02*
X199263095Y-46666961D01*
X199263095Y-46666961D02*
X199215476Y-46476485D01*
X199215476Y-46476485D02*
X199215476Y-46143152D01*
X199215476Y-46143152D02*
X199263095Y-45952676D01*
X199263095Y-45952676D02*
X199358333Y-45857438D01*
X199358333Y-45857438D02*
X199453571Y-45809819D01*
X199453571Y-45809819D02*
X199644047Y-45809819D01*
X199644047Y-45809819D02*
X199739285Y-45857438D01*
X199739285Y-45857438D02*
X199834523Y-45952676D01*
X199834523Y-45952676D02*
X199882142Y-46143152D01*
X199882142Y-46143152D02*
X199882142Y-46476485D01*
X199882142Y-46476485D02*
X199834523Y-46666961D01*
X199834523Y-46666961D02*
X199739285Y-46762200D01*
X199739285Y-46762200D02*
X199644047Y-46809819D01*
X199644047Y-46809819D02*
X199453571Y-46809819D01*
X200215476Y-45809819D02*
X200834523Y-45809819D01*
X200834523Y-45809819D02*
X200501190Y-46190771D01*
X200501190Y-46190771D02*
X200644047Y-46190771D01*
X200644047Y-46190771D02*
X200739285Y-46238390D01*
X200739285Y-46238390D02*
X200786904Y-46286009D01*
X200786904Y-46286009D02*
X200834523Y-46381247D01*
X200834523Y-46381247D02*
X200834523Y-46619342D01*
X200834523Y-46619342D02*
X200786904Y-46714580D01*
X200786904Y-46714580D02*
X200739285Y-46762200D01*
X200739285Y-46762200D02*
X200644047Y-46809819D01*
X200644047Y-46809819D02*
X200358333Y-46809819D01*
X200358333Y-46809819D02*
X200263095Y-46762200D01*
X200263095Y-46762200D02*
X200215476Y-46714580D01*
X22500419Y-51697023D02*
X22452800Y-51649404D01*
X22452800Y-51649404D02*
X22405180Y-51506547D01*
X22405180Y-51506547D02*
X22405180Y-51411309D01*
X22405180Y-51411309D02*
X22452800Y-51268452D01*
X22452800Y-51268452D02*
X22548038Y-51173214D01*
X22548038Y-51173214D02*
X22643276Y-51125595D01*
X22643276Y-51125595D02*
X22833752Y-51077976D01*
X22833752Y-51077976D02*
X22976609Y-51077976D01*
X22976609Y-51077976D02*
X23167085Y-51125595D01*
X23167085Y-51125595D02*
X23262323Y-51173214D01*
X23262323Y-51173214D02*
X23357561Y-51268452D01*
X23357561Y-51268452D02*
X23405180Y-51411309D01*
X23405180Y-51411309D02*
X23405180Y-51506547D01*
X23405180Y-51506547D02*
X23357561Y-51649404D01*
X23357561Y-51649404D02*
X23309942Y-51697023D01*
X22405180Y-52125595D02*
X23405180Y-52125595D01*
X23405180Y-52125595D02*
X22405180Y-52697023D01*
X22405180Y-52697023D02*
X23405180Y-52697023D01*
X23405180Y-53077976D02*
X23405180Y-53697023D01*
X23405180Y-53697023D02*
X23024228Y-53363690D01*
X23024228Y-53363690D02*
X23024228Y-53506547D01*
X23024228Y-53506547D02*
X22976609Y-53601785D01*
X22976609Y-53601785D02*
X22928990Y-53649404D01*
X22928990Y-53649404D02*
X22833752Y-53697023D01*
X22833752Y-53697023D02*
X22595657Y-53697023D01*
X22595657Y-53697023D02*
X22500419Y-53649404D01*
X22500419Y-53649404D02*
X22452800Y-53601785D01*
X22452800Y-53601785D02*
X22405180Y-53506547D01*
X22405180Y-53506547D02*
X22405180Y-53220833D01*
X22405180Y-53220833D02*
X22452800Y-53125595D01*
X22452800Y-53125595D02*
X22500419Y-53077976D01*
X44918333Y-34744819D02*
X44442143Y-34744819D01*
X44442143Y-34744819D02*
X44442143Y-33744819D01*
X45394524Y-34173390D02*
X45299286Y-34125771D01*
X45299286Y-34125771D02*
X45251667Y-34078152D01*
X45251667Y-34078152D02*
X45204048Y-33982914D01*
X45204048Y-33982914D02*
X45204048Y-33935295D01*
X45204048Y-33935295D02*
X45251667Y-33840057D01*
X45251667Y-33840057D02*
X45299286Y-33792438D01*
X45299286Y-33792438D02*
X45394524Y-33744819D01*
X45394524Y-33744819D02*
X45585000Y-33744819D01*
X45585000Y-33744819D02*
X45680238Y-33792438D01*
X45680238Y-33792438D02*
X45727857Y-33840057D01*
X45727857Y-33840057D02*
X45775476Y-33935295D01*
X45775476Y-33935295D02*
X45775476Y-33982914D01*
X45775476Y-33982914D02*
X45727857Y-34078152D01*
X45727857Y-34078152D02*
X45680238Y-34125771D01*
X45680238Y-34125771D02*
X45585000Y-34173390D01*
X45585000Y-34173390D02*
X45394524Y-34173390D01*
X45394524Y-34173390D02*
X45299286Y-34221009D01*
X45299286Y-34221009D02*
X45251667Y-34268628D01*
X45251667Y-34268628D02*
X45204048Y-34363866D01*
X45204048Y-34363866D02*
X45204048Y-34554342D01*
X45204048Y-34554342D02*
X45251667Y-34649580D01*
X45251667Y-34649580D02*
X45299286Y-34697200D01*
X45299286Y-34697200D02*
X45394524Y-34744819D01*
X45394524Y-34744819D02*
X45585000Y-34744819D01*
X45585000Y-34744819D02*
X45680238Y-34697200D01*
X45680238Y-34697200D02*
X45727857Y-34649580D01*
X45727857Y-34649580D02*
X45775476Y-34554342D01*
X45775476Y-34554342D02*
X45775476Y-34363866D01*
X45775476Y-34363866D02*
X45727857Y-34268628D01*
X45727857Y-34268628D02*
X45680238Y-34221009D01*
X45680238Y-34221009D02*
X45585000Y-34173390D01*
X188639795Y-178072975D02*
X187839795Y-178072975D01*
X187839795Y-178072975D02*
X187839795Y-177882499D01*
X187839795Y-177882499D02*
X187877890Y-177768213D01*
X187877890Y-177768213D02*
X187954080Y-177692023D01*
X187954080Y-177692023D02*
X188030271Y-177653928D01*
X188030271Y-177653928D02*
X188182652Y-177615832D01*
X188182652Y-177615832D02*
X188296938Y-177615832D01*
X188296938Y-177615832D02*
X188449319Y-177653928D01*
X188449319Y-177653928D02*
X188525509Y-177692023D01*
X188525509Y-177692023D02*
X188601700Y-177768213D01*
X188601700Y-177768213D02*
X188639795Y-177882499D01*
X188639795Y-177882499D02*
X188639795Y-178072975D01*
X187839795Y-177349166D02*
X187839795Y-176815832D01*
X187839795Y-176815832D02*
X188639795Y-177158690D01*
X30544580Y-33504166D02*
X30592200Y-33551785D01*
X30592200Y-33551785D02*
X30639819Y-33694642D01*
X30639819Y-33694642D02*
X30639819Y-33789880D01*
X30639819Y-33789880D02*
X30592200Y-33932737D01*
X30592200Y-33932737D02*
X30496961Y-34027975D01*
X30496961Y-34027975D02*
X30401723Y-34075594D01*
X30401723Y-34075594D02*
X30211247Y-34123213D01*
X30211247Y-34123213D02*
X30068390Y-34123213D01*
X30068390Y-34123213D02*
X29877914Y-34075594D01*
X29877914Y-34075594D02*
X29782676Y-34027975D01*
X29782676Y-34027975D02*
X29687438Y-33932737D01*
X29687438Y-33932737D02*
X29639819Y-33789880D01*
X29639819Y-33789880D02*
X29639819Y-33694642D01*
X29639819Y-33694642D02*
X29687438Y-33551785D01*
X29687438Y-33551785D02*
X29735057Y-33504166D01*
X30068390Y-32932737D02*
X30020771Y-33027975D01*
X30020771Y-33027975D02*
X29973152Y-33075594D01*
X29973152Y-33075594D02*
X29877914Y-33123213D01*
X29877914Y-33123213D02*
X29830295Y-33123213D01*
X29830295Y-33123213D02*
X29735057Y-33075594D01*
X29735057Y-33075594D02*
X29687438Y-33027975D01*
X29687438Y-33027975D02*
X29639819Y-32932737D01*
X29639819Y-32932737D02*
X29639819Y-32742261D01*
X29639819Y-32742261D02*
X29687438Y-32647023D01*
X29687438Y-32647023D02*
X29735057Y-32599404D01*
X29735057Y-32599404D02*
X29830295Y-32551785D01*
X29830295Y-32551785D02*
X29877914Y-32551785D01*
X29877914Y-32551785D02*
X29973152Y-32599404D01*
X29973152Y-32599404D02*
X30020771Y-32647023D01*
X30020771Y-32647023D02*
X30068390Y-32742261D01*
X30068390Y-32742261D02*
X30068390Y-32932737D01*
X30068390Y-32932737D02*
X30116009Y-33027975D01*
X30116009Y-33027975D02*
X30163628Y-33075594D01*
X30163628Y-33075594D02*
X30258866Y-33123213D01*
X30258866Y-33123213D02*
X30449342Y-33123213D01*
X30449342Y-33123213D02*
X30544580Y-33075594D01*
X30544580Y-33075594D02*
X30592200Y-33027975D01*
X30592200Y-33027975D02*
X30639819Y-32932737D01*
X30639819Y-32932737D02*
X30639819Y-32742261D01*
X30639819Y-32742261D02*
X30592200Y-32647023D01*
X30592200Y-32647023D02*
X30544580Y-32599404D01*
X30544580Y-32599404D02*
X30449342Y-32551785D01*
X30449342Y-32551785D02*
X30258866Y-32551785D01*
X30258866Y-32551785D02*
X30163628Y-32599404D01*
X30163628Y-32599404D02*
X30116009Y-32647023D01*
X30116009Y-32647023D02*
X30068390Y-32742261D01*
X199934761Y-123105057D02*
X199839523Y-123057438D01*
X199839523Y-123057438D02*
X199744285Y-122962200D01*
X199744285Y-122962200D02*
X199601428Y-122819342D01*
X199601428Y-122819342D02*
X199506190Y-122771723D01*
X199506190Y-122771723D02*
X199410952Y-122771723D01*
X199458571Y-123009819D02*
X199363333Y-122962200D01*
X199363333Y-122962200D02*
X199268095Y-122866961D01*
X199268095Y-122866961D02*
X199220476Y-122676485D01*
X199220476Y-122676485D02*
X199220476Y-122343152D01*
X199220476Y-122343152D02*
X199268095Y-122152676D01*
X199268095Y-122152676D02*
X199363333Y-122057438D01*
X199363333Y-122057438D02*
X199458571Y-122009819D01*
X199458571Y-122009819D02*
X199649047Y-122009819D01*
X199649047Y-122009819D02*
X199744285Y-122057438D01*
X199744285Y-122057438D02*
X199839523Y-122152676D01*
X199839523Y-122152676D02*
X199887142Y-122343152D01*
X199887142Y-122343152D02*
X199887142Y-122676485D01*
X199887142Y-122676485D02*
X199839523Y-122866961D01*
X199839523Y-122866961D02*
X199744285Y-122962200D01*
X199744285Y-122962200D02*
X199649047Y-123009819D01*
X199649047Y-123009819D02*
X199458571Y-123009819D01*
X200839523Y-123009819D02*
X200268095Y-123009819D01*
X200553809Y-123009819D02*
X200553809Y-122009819D01*
X200553809Y-122009819D02*
X200458571Y-122152676D01*
X200458571Y-122152676D02*
X200363333Y-122247914D01*
X200363333Y-122247914D02*
X200268095Y-122295533D01*
X180206666Y-42589795D02*
X179825714Y-42589795D01*
X179825714Y-42589795D02*
X179825714Y-41789795D01*
X180854285Y-41789795D02*
X180473333Y-41789795D01*
X180473333Y-41789795D02*
X180435237Y-42170747D01*
X180435237Y-42170747D02*
X180473333Y-42132652D01*
X180473333Y-42132652D02*
X180549523Y-42094557D01*
X180549523Y-42094557D02*
X180739999Y-42094557D01*
X180739999Y-42094557D02*
X180816190Y-42132652D01*
X180816190Y-42132652D02*
X180854285Y-42170747D01*
X180854285Y-42170747D02*
X180892380Y-42246938D01*
X180892380Y-42246938D02*
X180892380Y-42437414D01*
X180892380Y-42437414D02*
X180854285Y-42513604D01*
X180854285Y-42513604D02*
X180816190Y-42551700D01*
X180816190Y-42551700D02*
X180739999Y-42589795D01*
X180739999Y-42589795D02*
X180549523Y-42589795D01*
X180549523Y-42589795D02*
X180473333Y-42551700D01*
X180473333Y-42551700D02*
X180435237Y-42513604D01*
X30544580Y-100655357D02*
X30592200Y-100702976D01*
X30592200Y-100702976D02*
X30639819Y-100845833D01*
X30639819Y-100845833D02*
X30639819Y-100941071D01*
X30639819Y-100941071D02*
X30592200Y-101083928D01*
X30592200Y-101083928D02*
X30496961Y-101179166D01*
X30496961Y-101179166D02*
X30401723Y-101226785D01*
X30401723Y-101226785D02*
X30211247Y-101274404D01*
X30211247Y-101274404D02*
X30068390Y-101274404D01*
X30068390Y-101274404D02*
X29877914Y-101226785D01*
X29877914Y-101226785D02*
X29782676Y-101179166D01*
X29782676Y-101179166D02*
X29687438Y-101083928D01*
X29687438Y-101083928D02*
X29639819Y-100941071D01*
X29639819Y-100941071D02*
X29639819Y-100845833D01*
X29639819Y-100845833D02*
X29687438Y-100702976D01*
X29687438Y-100702976D02*
X29735057Y-100655357D01*
X30639819Y-99702976D02*
X30639819Y-100274404D01*
X30639819Y-99988690D02*
X29639819Y-99988690D01*
X29639819Y-99988690D02*
X29782676Y-100083928D01*
X29782676Y-100083928D02*
X29877914Y-100179166D01*
X29877914Y-100179166D02*
X29925533Y-100274404D01*
X30639819Y-98750595D02*
X30639819Y-99322023D01*
X30639819Y-99036309D02*
X29639819Y-99036309D01*
X29639819Y-99036309D02*
X29782676Y-99131547D01*
X29782676Y-99131547D02*
X29877914Y-99226785D01*
X29877914Y-99226785D02*
X29925533Y-99322023D01*
X159747295Y-71105475D02*
X158947295Y-71105475D01*
X158947295Y-71105475D02*
X158947295Y-70914999D01*
X158947295Y-70914999D02*
X158985390Y-70800713D01*
X158985390Y-70800713D02*
X159061580Y-70724523D01*
X159061580Y-70724523D02*
X159137771Y-70686428D01*
X159137771Y-70686428D02*
X159290152Y-70648332D01*
X159290152Y-70648332D02*
X159404438Y-70648332D01*
X159404438Y-70648332D02*
X159556819Y-70686428D01*
X159556819Y-70686428D02*
X159633009Y-70724523D01*
X159633009Y-70724523D02*
X159709200Y-70800713D01*
X159709200Y-70800713D02*
X159747295Y-70914999D01*
X159747295Y-70914999D02*
X159747295Y-71105475D01*
X159747295Y-70267380D02*
X159747295Y-70114999D01*
X159747295Y-70114999D02*
X159709200Y-70038809D01*
X159709200Y-70038809D02*
X159671104Y-70000713D01*
X159671104Y-70000713D02*
X159556819Y-69924523D01*
X159556819Y-69924523D02*
X159404438Y-69886428D01*
X159404438Y-69886428D02*
X159099676Y-69886428D01*
X159099676Y-69886428D02*
X159023485Y-69924523D01*
X159023485Y-69924523D02*
X158985390Y-69962618D01*
X158985390Y-69962618D02*
X158947295Y-70038809D01*
X158947295Y-70038809D02*
X158947295Y-70191190D01*
X158947295Y-70191190D02*
X158985390Y-70267380D01*
X158985390Y-70267380D02*
X159023485Y-70305475D01*
X159023485Y-70305475D02*
X159099676Y-70343571D01*
X159099676Y-70343571D02*
X159290152Y-70343571D01*
X159290152Y-70343571D02*
X159366342Y-70305475D01*
X159366342Y-70305475D02*
X159404438Y-70267380D01*
X159404438Y-70267380D02*
X159442533Y-70191190D01*
X159442533Y-70191190D02*
X159442533Y-70038809D01*
X159442533Y-70038809D02*
X159404438Y-69962618D01*
X159404438Y-69962618D02*
X159366342Y-69924523D01*
X159366342Y-69924523D02*
X159290152Y-69886428D01*
X161639819Y-66966904D02*
X160639819Y-66966904D01*
X161639819Y-66395476D02*
X161068390Y-66824047D01*
X160639819Y-66395476D02*
X161211247Y-66966904D01*
X193084524Y-75292295D02*
X193084524Y-74492295D01*
X193084524Y-74492295D02*
X193275000Y-74492295D01*
X193275000Y-74492295D02*
X193389286Y-74530390D01*
X193389286Y-74530390D02*
X193465476Y-74606580D01*
X193465476Y-74606580D02*
X193503571Y-74682771D01*
X193503571Y-74682771D02*
X193541667Y-74835152D01*
X193541667Y-74835152D02*
X193541667Y-74949438D01*
X193541667Y-74949438D02*
X193503571Y-75101819D01*
X193503571Y-75101819D02*
X193465476Y-75178009D01*
X193465476Y-75178009D02*
X193389286Y-75254200D01*
X193389286Y-75254200D02*
X193275000Y-75292295D01*
X193275000Y-75292295D02*
X193084524Y-75292295D01*
X193846428Y-74568485D02*
X193884524Y-74530390D01*
X193884524Y-74530390D02*
X193960714Y-74492295D01*
X193960714Y-74492295D02*
X194151190Y-74492295D01*
X194151190Y-74492295D02*
X194227381Y-74530390D01*
X194227381Y-74530390D02*
X194265476Y-74568485D01*
X194265476Y-74568485D02*
X194303571Y-74644676D01*
X194303571Y-74644676D02*
X194303571Y-74720866D01*
X194303571Y-74720866D02*
X194265476Y-74835152D01*
X194265476Y-74835152D02*
X193808333Y-75292295D01*
X193808333Y-75292295D02*
X194303571Y-75292295D01*
X180206667Y-107994795D02*
X179940000Y-107613842D01*
X179749524Y-107994795D02*
X179749524Y-107194795D01*
X179749524Y-107194795D02*
X180054286Y-107194795D01*
X180054286Y-107194795D02*
X180130476Y-107232890D01*
X180130476Y-107232890D02*
X180168571Y-107270985D01*
X180168571Y-107270985D02*
X180206667Y-107347176D01*
X180206667Y-107347176D02*
X180206667Y-107461461D01*
X180206667Y-107461461D02*
X180168571Y-107537652D01*
X180168571Y-107537652D02*
X180130476Y-107575747D01*
X180130476Y-107575747D02*
X180054286Y-107613842D01*
X180054286Y-107613842D02*
X179749524Y-107613842D01*
X180968571Y-107994795D02*
X180511428Y-107994795D01*
X180740000Y-107994795D02*
X180740000Y-107194795D01*
X180740000Y-107194795D02*
X180663809Y-107309080D01*
X180663809Y-107309080D02*
X180587619Y-107385271D01*
X180587619Y-107385271D02*
X180511428Y-107423366D01*
X179749524Y-49892295D02*
X179749524Y-49092295D01*
X179749524Y-49092295D02*
X179940000Y-49092295D01*
X179940000Y-49092295D02*
X180054286Y-49130390D01*
X180054286Y-49130390D02*
X180130476Y-49206580D01*
X180130476Y-49206580D02*
X180168571Y-49282771D01*
X180168571Y-49282771D02*
X180206667Y-49435152D01*
X180206667Y-49435152D02*
X180206667Y-49549438D01*
X180206667Y-49549438D02*
X180168571Y-49701819D01*
X180168571Y-49701819D02*
X180130476Y-49778009D01*
X180130476Y-49778009D02*
X180054286Y-49854200D01*
X180054286Y-49854200D02*
X179940000Y-49892295D01*
X179940000Y-49892295D02*
X179749524Y-49892295D01*
X180930476Y-49092295D02*
X180549524Y-49092295D01*
X180549524Y-49092295D02*
X180511428Y-49473247D01*
X180511428Y-49473247D02*
X180549524Y-49435152D01*
X180549524Y-49435152D02*
X180625714Y-49397057D01*
X180625714Y-49397057D02*
X180816190Y-49397057D01*
X180816190Y-49397057D02*
X180892381Y-49435152D01*
X180892381Y-49435152D02*
X180930476Y-49473247D01*
X180930476Y-49473247D02*
X180968571Y-49549438D01*
X180968571Y-49549438D02*
X180968571Y-49739914D01*
X180968571Y-49739914D02*
X180930476Y-49816104D01*
X180930476Y-49816104D02*
X180892381Y-49854200D01*
X180892381Y-49854200D02*
X180816190Y-49892295D01*
X180816190Y-49892295D02*
X180625714Y-49892295D01*
X180625714Y-49892295D02*
X180549524Y-49854200D01*
X180549524Y-49854200D02*
X180511428Y-49816104D01*
X30499580Y-71604166D02*
X30547200Y-71651785D01*
X30547200Y-71651785D02*
X30594819Y-71794642D01*
X30594819Y-71794642D02*
X30594819Y-71889880D01*
X30594819Y-71889880D02*
X30547200Y-72032737D01*
X30547200Y-72032737D02*
X30451961Y-72127975D01*
X30451961Y-72127975D02*
X30356723Y-72175594D01*
X30356723Y-72175594D02*
X30166247Y-72223213D01*
X30166247Y-72223213D02*
X30023390Y-72223213D01*
X30023390Y-72223213D02*
X29832914Y-72175594D01*
X29832914Y-72175594D02*
X29737676Y-72127975D01*
X29737676Y-72127975D02*
X29642438Y-72032737D01*
X29642438Y-72032737D02*
X29594819Y-71889880D01*
X29594819Y-71889880D02*
X29594819Y-71794642D01*
X29594819Y-71794642D02*
X29642438Y-71651785D01*
X29642438Y-71651785D02*
X29690057Y-71604166D01*
X30594819Y-71127975D02*
X30594819Y-70937499D01*
X30594819Y-70937499D02*
X30547200Y-70842261D01*
X30547200Y-70842261D02*
X30499580Y-70794642D01*
X30499580Y-70794642D02*
X30356723Y-70699404D01*
X30356723Y-70699404D02*
X30166247Y-70651785D01*
X30166247Y-70651785D02*
X29785295Y-70651785D01*
X29785295Y-70651785D02*
X29690057Y-70699404D01*
X29690057Y-70699404D02*
X29642438Y-70747023D01*
X29642438Y-70747023D02*
X29594819Y-70842261D01*
X29594819Y-70842261D02*
X29594819Y-71032737D01*
X29594819Y-71032737D02*
X29642438Y-71127975D01*
X29642438Y-71127975D02*
X29690057Y-71175594D01*
X29690057Y-71175594D02*
X29785295Y-71223213D01*
X29785295Y-71223213D02*
X30023390Y-71223213D01*
X30023390Y-71223213D02*
X30118628Y-71175594D01*
X30118628Y-71175594D02*
X30166247Y-71127975D01*
X30166247Y-71127975D02*
X30213866Y-71032737D01*
X30213866Y-71032737D02*
X30213866Y-70842261D01*
X30213866Y-70842261D02*
X30166247Y-70747023D01*
X30166247Y-70747023D02*
X30118628Y-70699404D01*
X30118628Y-70699404D02*
X30023390Y-70651785D01*
X30544580Y-119705357D02*
X30592200Y-119752976D01*
X30592200Y-119752976D02*
X30639819Y-119895833D01*
X30639819Y-119895833D02*
X30639819Y-119991071D01*
X30639819Y-119991071D02*
X30592200Y-120133928D01*
X30592200Y-120133928D02*
X30496961Y-120229166D01*
X30496961Y-120229166D02*
X30401723Y-120276785D01*
X30401723Y-120276785D02*
X30211247Y-120324404D01*
X30211247Y-120324404D02*
X30068390Y-120324404D01*
X30068390Y-120324404D02*
X29877914Y-120276785D01*
X29877914Y-120276785D02*
X29782676Y-120229166D01*
X29782676Y-120229166D02*
X29687438Y-120133928D01*
X29687438Y-120133928D02*
X29639819Y-119991071D01*
X29639819Y-119991071D02*
X29639819Y-119895833D01*
X29639819Y-119895833D02*
X29687438Y-119752976D01*
X29687438Y-119752976D02*
X29735057Y-119705357D01*
X30639819Y-118752976D02*
X30639819Y-119324404D01*
X30639819Y-119038690D02*
X29639819Y-119038690D01*
X29639819Y-119038690D02*
X29782676Y-119133928D01*
X29782676Y-119133928D02*
X29877914Y-119229166D01*
X29877914Y-119229166D02*
X29925533Y-119324404D01*
X29639819Y-118133928D02*
X29639819Y-118038690D01*
X29639819Y-118038690D02*
X29687438Y-117943452D01*
X29687438Y-117943452D02*
X29735057Y-117895833D01*
X29735057Y-117895833D02*
X29830295Y-117848214D01*
X29830295Y-117848214D02*
X30020771Y-117800595D01*
X30020771Y-117800595D02*
X30258866Y-117800595D01*
X30258866Y-117800595D02*
X30449342Y-117848214D01*
X30449342Y-117848214D02*
X30544580Y-117895833D01*
X30544580Y-117895833D02*
X30592200Y-117943452D01*
X30592200Y-117943452D02*
X30639819Y-118038690D01*
X30639819Y-118038690D02*
X30639819Y-118133928D01*
X30639819Y-118133928D02*
X30592200Y-118229166D01*
X30592200Y-118229166D02*
X30544580Y-118276785D01*
X30544580Y-118276785D02*
X30449342Y-118324404D01*
X30449342Y-118324404D02*
X30258866Y-118372023D01*
X30258866Y-118372023D02*
X30020771Y-118372023D01*
X30020771Y-118372023D02*
X29830295Y-118324404D01*
X29830295Y-118324404D02*
X29735057Y-118276785D01*
X29735057Y-118276785D02*
X29687438Y-118229166D01*
X29687438Y-118229166D02*
X29639819Y-118133928D01*
X180707295Y-199215832D02*
X180326342Y-199482499D01*
X180707295Y-199672975D02*
X179907295Y-199672975D01*
X179907295Y-199672975D02*
X179907295Y-199368213D01*
X179907295Y-199368213D02*
X179945390Y-199292023D01*
X179945390Y-199292023D02*
X179983485Y-199253928D01*
X179983485Y-199253928D02*
X180059676Y-199215832D01*
X180059676Y-199215832D02*
X180173961Y-199215832D01*
X180173961Y-199215832D02*
X180250152Y-199253928D01*
X180250152Y-199253928D02*
X180288247Y-199292023D01*
X180288247Y-199292023D02*
X180326342Y-199368213D01*
X180326342Y-199368213D02*
X180326342Y-199672975D01*
X180173961Y-198530118D02*
X180707295Y-198530118D01*
X179869200Y-198720594D02*
X180440628Y-198911071D01*
X180440628Y-198911071D02*
X180440628Y-198415832D01*
X180201667Y-69894795D02*
X179935000Y-69513842D01*
X179744524Y-69894795D02*
X179744524Y-69094795D01*
X179744524Y-69094795D02*
X180049286Y-69094795D01*
X180049286Y-69094795D02*
X180125476Y-69132890D01*
X180125476Y-69132890D02*
X180163571Y-69170985D01*
X180163571Y-69170985D02*
X180201667Y-69247176D01*
X180201667Y-69247176D02*
X180201667Y-69361461D01*
X180201667Y-69361461D02*
X180163571Y-69437652D01*
X180163571Y-69437652D02*
X180125476Y-69475747D01*
X180125476Y-69475747D02*
X180049286Y-69513842D01*
X180049286Y-69513842D02*
X179744524Y-69513842D01*
X180506428Y-69170985D02*
X180544524Y-69132890D01*
X180544524Y-69132890D02*
X180620714Y-69094795D01*
X180620714Y-69094795D02*
X180811190Y-69094795D01*
X180811190Y-69094795D02*
X180887381Y-69132890D01*
X180887381Y-69132890D02*
X180925476Y-69170985D01*
X180925476Y-69170985D02*
X180963571Y-69247176D01*
X180963571Y-69247176D02*
X180963571Y-69323366D01*
X180963571Y-69323366D02*
X180925476Y-69437652D01*
X180925476Y-69437652D02*
X180468333Y-69894795D01*
X180468333Y-69894795D02*
X180963571Y-69894795D01*
X115929580Y-81476666D02*
X115977200Y-81524285D01*
X115977200Y-81524285D02*
X116024819Y-81667142D01*
X116024819Y-81667142D02*
X116024819Y-81762380D01*
X116024819Y-81762380D02*
X115977200Y-81905237D01*
X115977200Y-81905237D02*
X115881961Y-82000475D01*
X115881961Y-82000475D02*
X115786723Y-82048094D01*
X115786723Y-82048094D02*
X115596247Y-82095713D01*
X115596247Y-82095713D02*
X115453390Y-82095713D01*
X115453390Y-82095713D02*
X115262914Y-82048094D01*
X115262914Y-82048094D02*
X115167676Y-82000475D01*
X115167676Y-82000475D02*
X115072438Y-81905237D01*
X115072438Y-81905237D02*
X115024819Y-81762380D01*
X115024819Y-81762380D02*
X115024819Y-81667142D01*
X115024819Y-81667142D02*
X115072438Y-81524285D01*
X115072438Y-81524285D02*
X115120057Y-81476666D01*
X115024819Y-80619523D02*
X115024819Y-80809999D01*
X115024819Y-80809999D02*
X115072438Y-80905237D01*
X115072438Y-80905237D02*
X115120057Y-80952856D01*
X115120057Y-80952856D02*
X115262914Y-81048094D01*
X115262914Y-81048094D02*
X115453390Y-81095713D01*
X115453390Y-81095713D02*
X115834342Y-81095713D01*
X115834342Y-81095713D02*
X115929580Y-81048094D01*
X115929580Y-81048094D02*
X115977200Y-81000475D01*
X115977200Y-81000475D02*
X116024819Y-80905237D01*
X116024819Y-80905237D02*
X116024819Y-80714761D01*
X116024819Y-80714761D02*
X115977200Y-80619523D01*
X115977200Y-80619523D02*
X115929580Y-80571904D01*
X115929580Y-80571904D02*
X115834342Y-80524285D01*
X115834342Y-80524285D02*
X115596247Y-80524285D01*
X115596247Y-80524285D02*
X115501009Y-80571904D01*
X115501009Y-80571904D02*
X115453390Y-80619523D01*
X115453390Y-80619523D02*
X115405771Y-80714761D01*
X115405771Y-80714761D02*
X115405771Y-80905237D01*
X115405771Y-80905237D02*
X115453390Y-81000475D01*
X115453390Y-81000475D02*
X115501009Y-81048094D01*
X115501009Y-81048094D02*
X115596247Y-81095713D01*
D12*
X121945476Y-115452395D02*
X121945476Y-116100014D01*
X121945476Y-116100014D02*
X121983571Y-116176204D01*
X121983571Y-116176204D02*
X122021666Y-116214300D01*
X122021666Y-116214300D02*
X122097857Y-116252395D01*
X122097857Y-116252395D02*
X122250238Y-116252395D01*
X122250238Y-116252395D02*
X122326428Y-116214300D01*
X122326428Y-116214300D02*
X122364523Y-116176204D01*
X122364523Y-116176204D02*
X122402619Y-116100014D01*
X122402619Y-116100014D02*
X122402619Y-115452395D01*
X122745475Y-115528585D02*
X122783571Y-115490490D01*
X122783571Y-115490490D02*
X122859761Y-115452395D01*
X122859761Y-115452395D02*
X123050237Y-115452395D01*
X123050237Y-115452395D02*
X123126428Y-115490490D01*
X123126428Y-115490490D02*
X123164523Y-115528585D01*
X123164523Y-115528585D02*
X123202618Y-115604776D01*
X123202618Y-115604776D02*
X123202618Y-115680966D01*
X123202618Y-115680966D02*
X123164523Y-115795252D01*
X123164523Y-115795252D02*
X122707380Y-116252395D01*
X122707380Y-116252395D02*
X123202618Y-116252395D01*
D11*
X143166104Y-37363332D02*
X143204200Y-37401428D01*
X143204200Y-37401428D02*
X143242295Y-37515713D01*
X143242295Y-37515713D02*
X143242295Y-37591904D01*
X143242295Y-37591904D02*
X143204200Y-37706190D01*
X143204200Y-37706190D02*
X143128009Y-37782380D01*
X143128009Y-37782380D02*
X143051819Y-37820475D01*
X143051819Y-37820475D02*
X142899438Y-37858571D01*
X142899438Y-37858571D02*
X142785152Y-37858571D01*
X142785152Y-37858571D02*
X142632771Y-37820475D01*
X142632771Y-37820475D02*
X142556580Y-37782380D01*
X142556580Y-37782380D02*
X142480390Y-37706190D01*
X142480390Y-37706190D02*
X142442295Y-37591904D01*
X142442295Y-37591904D02*
X142442295Y-37515713D01*
X142442295Y-37515713D02*
X142480390Y-37401428D01*
X142480390Y-37401428D02*
X142518485Y-37363332D01*
X143242295Y-36563332D02*
X142861342Y-36829999D01*
X143242295Y-37020475D02*
X142442295Y-37020475D01*
X142442295Y-37020475D02*
X142442295Y-36715713D01*
X142442295Y-36715713D02*
X142480390Y-36639523D01*
X142480390Y-36639523D02*
X142518485Y-36601428D01*
X142518485Y-36601428D02*
X142594676Y-36563332D01*
X142594676Y-36563332D02*
X142708961Y-36563332D01*
X142708961Y-36563332D02*
X142785152Y-36601428D01*
X142785152Y-36601428D02*
X142823247Y-36639523D01*
X142823247Y-36639523D02*
X142861342Y-36715713D01*
X142861342Y-36715713D02*
X142861342Y-37020475D01*
X142518485Y-36258571D02*
X142480390Y-36220475D01*
X142480390Y-36220475D02*
X142442295Y-36144285D01*
X142442295Y-36144285D02*
X142442295Y-35953809D01*
X142442295Y-35953809D02*
X142480390Y-35877618D01*
X142480390Y-35877618D02*
X142518485Y-35839523D01*
X142518485Y-35839523D02*
X142594676Y-35801428D01*
X142594676Y-35801428D02*
X142670866Y-35801428D01*
X142670866Y-35801428D02*
X142785152Y-35839523D01*
X142785152Y-35839523D02*
X143242295Y-36296666D01*
X143242295Y-36296666D02*
X143242295Y-35801428D01*
X30499580Y-138755357D02*
X30547200Y-138802976D01*
X30547200Y-138802976D02*
X30594819Y-138945833D01*
X30594819Y-138945833D02*
X30594819Y-139041071D01*
X30594819Y-139041071D02*
X30547200Y-139183928D01*
X30547200Y-139183928D02*
X30451961Y-139279166D01*
X30451961Y-139279166D02*
X30356723Y-139326785D01*
X30356723Y-139326785D02*
X30166247Y-139374404D01*
X30166247Y-139374404D02*
X30023390Y-139374404D01*
X30023390Y-139374404D02*
X29832914Y-139326785D01*
X29832914Y-139326785D02*
X29737676Y-139279166D01*
X29737676Y-139279166D02*
X29642438Y-139183928D01*
X29642438Y-139183928D02*
X29594819Y-139041071D01*
X29594819Y-139041071D02*
X29594819Y-138945833D01*
X29594819Y-138945833D02*
X29642438Y-138802976D01*
X29642438Y-138802976D02*
X29690057Y-138755357D01*
X30594819Y-137802976D02*
X30594819Y-138374404D01*
X30594819Y-138088690D02*
X29594819Y-138088690D01*
X29594819Y-138088690D02*
X29737676Y-138183928D01*
X29737676Y-138183928D02*
X29832914Y-138279166D01*
X29832914Y-138279166D02*
X29880533Y-138374404D01*
X29690057Y-137422023D02*
X29642438Y-137374404D01*
X29642438Y-137374404D02*
X29594819Y-137279166D01*
X29594819Y-137279166D02*
X29594819Y-137041071D01*
X29594819Y-137041071D02*
X29642438Y-136945833D01*
X29642438Y-136945833D02*
X29690057Y-136898214D01*
X29690057Y-136898214D02*
X29785295Y-136850595D01*
X29785295Y-136850595D02*
X29880533Y-136850595D01*
X29880533Y-136850595D02*
X30023390Y-136898214D01*
X30023390Y-136898214D02*
X30594819Y-137469642D01*
X30594819Y-137469642D02*
X30594819Y-136850595D01*
X193084524Y-113392295D02*
X193084524Y-112592295D01*
X193084524Y-112592295D02*
X193275000Y-112592295D01*
X193275000Y-112592295D02*
X193389286Y-112630390D01*
X193389286Y-112630390D02*
X193465476Y-112706580D01*
X193465476Y-112706580D02*
X193503571Y-112782771D01*
X193503571Y-112782771D02*
X193541667Y-112935152D01*
X193541667Y-112935152D02*
X193541667Y-113049438D01*
X193541667Y-113049438D02*
X193503571Y-113201819D01*
X193503571Y-113201819D02*
X193465476Y-113278009D01*
X193465476Y-113278009D02*
X193389286Y-113354200D01*
X193389286Y-113354200D02*
X193275000Y-113392295D01*
X193275000Y-113392295D02*
X193084524Y-113392295D01*
X194303571Y-113392295D02*
X193846428Y-113392295D01*
X194075000Y-113392295D02*
X194075000Y-112592295D01*
X194075000Y-112592295D02*
X193998809Y-112706580D01*
X193998809Y-112706580D02*
X193922619Y-112782771D01*
X193922619Y-112782771D02*
X193846428Y-112820866D01*
X176097295Y-199692023D02*
X176744914Y-199692023D01*
X176744914Y-199692023D02*
X176821104Y-199653928D01*
X176821104Y-199653928D02*
X176859200Y-199615833D01*
X176859200Y-199615833D02*
X176897295Y-199539642D01*
X176897295Y-199539642D02*
X176897295Y-199387261D01*
X176897295Y-199387261D02*
X176859200Y-199311071D01*
X176859200Y-199311071D02*
X176821104Y-199272976D01*
X176821104Y-199272976D02*
X176744914Y-199234880D01*
X176744914Y-199234880D02*
X176097295Y-199234880D01*
X176363961Y-198511071D02*
X176897295Y-198511071D01*
X176059200Y-198701547D02*
X176630628Y-198892024D01*
X176630628Y-198892024D02*
X176630628Y-198396785D01*
X180206667Y-31794795D02*
X179940000Y-31413842D01*
X179749524Y-31794795D02*
X179749524Y-30994795D01*
X179749524Y-30994795D02*
X180054286Y-30994795D01*
X180054286Y-30994795D02*
X180130476Y-31032890D01*
X180130476Y-31032890D02*
X180168571Y-31070985D01*
X180168571Y-31070985D02*
X180206667Y-31147176D01*
X180206667Y-31147176D02*
X180206667Y-31261461D01*
X180206667Y-31261461D02*
X180168571Y-31337652D01*
X180168571Y-31337652D02*
X180130476Y-31375747D01*
X180130476Y-31375747D02*
X180054286Y-31413842D01*
X180054286Y-31413842D02*
X179749524Y-31413842D01*
X180473333Y-30994795D02*
X180968571Y-30994795D01*
X180968571Y-30994795D02*
X180701905Y-31299557D01*
X180701905Y-31299557D02*
X180816190Y-31299557D01*
X180816190Y-31299557D02*
X180892381Y-31337652D01*
X180892381Y-31337652D02*
X180930476Y-31375747D01*
X180930476Y-31375747D02*
X180968571Y-31451938D01*
X180968571Y-31451938D02*
X180968571Y-31642414D01*
X180968571Y-31642414D02*
X180930476Y-31718604D01*
X180930476Y-31718604D02*
X180892381Y-31756700D01*
X180892381Y-31756700D02*
X180816190Y-31794795D01*
X180816190Y-31794795D02*
X180587619Y-31794795D01*
X180587619Y-31794795D02*
X180511428Y-31756700D01*
X180511428Y-31756700D02*
X180473333Y-31718604D01*
X44442142Y-137614819D02*
X43965952Y-137614819D01*
X43965952Y-137614819D02*
X43965952Y-136614819D01*
X45299285Y-137614819D02*
X44727857Y-137614819D01*
X45013571Y-137614819D02*
X45013571Y-136614819D01*
X45013571Y-136614819D02*
X44918333Y-136757676D01*
X44918333Y-136757676D02*
X44823095Y-136852914D01*
X44823095Y-136852914D02*
X44727857Y-136900533D01*
X46251666Y-137614819D02*
X45680238Y-137614819D01*
X45965952Y-137614819D02*
X45965952Y-136614819D01*
X45965952Y-136614819D02*
X45870714Y-136757676D01*
X45870714Y-136757676D02*
X45775476Y-136852914D01*
X45775476Y-136852914D02*
X45680238Y-136900533D01*
X171316667Y-126968604D02*
X171278571Y-127006700D01*
X171278571Y-127006700D02*
X171164286Y-127044795D01*
X171164286Y-127044795D02*
X171088095Y-127044795D01*
X171088095Y-127044795D02*
X170973809Y-127006700D01*
X170973809Y-127006700D02*
X170897619Y-126930509D01*
X170897619Y-126930509D02*
X170859524Y-126854319D01*
X170859524Y-126854319D02*
X170821428Y-126701938D01*
X170821428Y-126701938D02*
X170821428Y-126587652D01*
X170821428Y-126587652D02*
X170859524Y-126435271D01*
X170859524Y-126435271D02*
X170897619Y-126359080D01*
X170897619Y-126359080D02*
X170973809Y-126282890D01*
X170973809Y-126282890D02*
X171088095Y-126244795D01*
X171088095Y-126244795D02*
X171164286Y-126244795D01*
X171164286Y-126244795D02*
X171278571Y-126282890D01*
X171278571Y-126282890D02*
X171316667Y-126320985D01*
X172078571Y-127044795D02*
X171621428Y-127044795D01*
X171850000Y-127044795D02*
X171850000Y-126244795D01*
X171850000Y-126244795D02*
X171773809Y-126359080D01*
X171773809Y-126359080D02*
X171697619Y-126435271D01*
X171697619Y-126435271D02*
X171621428Y-126473366D01*
X178622295Y-127302023D02*
X179269914Y-127302023D01*
X179269914Y-127302023D02*
X179346104Y-127263928D01*
X179346104Y-127263928D02*
X179384200Y-127225833D01*
X179384200Y-127225833D02*
X179422295Y-127149642D01*
X179422295Y-127149642D02*
X179422295Y-126997261D01*
X179422295Y-126997261D02*
X179384200Y-126921071D01*
X179384200Y-126921071D02*
X179346104Y-126882976D01*
X179346104Y-126882976D02*
X179269914Y-126844880D01*
X179269914Y-126844880D02*
X178622295Y-126844880D01*
X179422295Y-126044881D02*
X179422295Y-126502024D01*
X179422295Y-126273452D02*
X178622295Y-126273452D01*
X178622295Y-126273452D02*
X178736580Y-126349643D01*
X178736580Y-126349643D02*
X178812771Y-126425833D01*
X178812771Y-126425833D02*
X178850866Y-126502024D01*
X44918333Y-70939819D02*
X44442143Y-70939819D01*
X44442143Y-70939819D02*
X44442143Y-69939819D01*
X45299286Y-70939819D02*
X45489762Y-70939819D01*
X45489762Y-70939819D02*
X45585000Y-70892200D01*
X45585000Y-70892200D02*
X45632619Y-70844580D01*
X45632619Y-70844580D02*
X45727857Y-70701723D01*
X45727857Y-70701723D02*
X45775476Y-70511247D01*
X45775476Y-70511247D02*
X45775476Y-70130295D01*
X45775476Y-70130295D02*
X45727857Y-70035057D01*
X45727857Y-70035057D02*
X45680238Y-69987438D01*
X45680238Y-69987438D02*
X45585000Y-69939819D01*
X45585000Y-69939819D02*
X45394524Y-69939819D01*
X45394524Y-69939819D02*
X45299286Y-69987438D01*
X45299286Y-69987438D02*
X45251667Y-70035057D01*
X45251667Y-70035057D02*
X45204048Y-70130295D01*
X45204048Y-70130295D02*
X45204048Y-70368390D01*
X45204048Y-70368390D02*
X45251667Y-70463628D01*
X45251667Y-70463628D02*
X45299286Y-70511247D01*
X45299286Y-70511247D02*
X45394524Y-70558866D01*
X45394524Y-70558866D02*
X45585000Y-70558866D01*
X45585000Y-70558866D02*
X45680238Y-70511247D01*
X45680238Y-70511247D02*
X45727857Y-70463628D01*
X45727857Y-70463628D02*
X45775476Y-70368390D01*
X159747295Y-99967975D02*
X158947295Y-99967975D01*
X158947295Y-99967975D02*
X158947295Y-99777499D01*
X158947295Y-99777499D02*
X158985390Y-99663213D01*
X158985390Y-99663213D02*
X159061580Y-99587023D01*
X159061580Y-99587023D02*
X159137771Y-99548928D01*
X159137771Y-99548928D02*
X159290152Y-99510832D01*
X159290152Y-99510832D02*
X159404438Y-99510832D01*
X159404438Y-99510832D02*
X159556819Y-99548928D01*
X159556819Y-99548928D02*
X159633009Y-99587023D01*
X159633009Y-99587023D02*
X159709200Y-99663213D01*
X159709200Y-99663213D02*
X159747295Y-99777499D01*
X159747295Y-99777499D02*
X159747295Y-99967975D01*
X159290152Y-99053690D02*
X159252057Y-99129880D01*
X159252057Y-99129880D02*
X159213961Y-99167975D01*
X159213961Y-99167975D02*
X159137771Y-99206071D01*
X159137771Y-99206071D02*
X159099676Y-99206071D01*
X159099676Y-99206071D02*
X159023485Y-99167975D01*
X159023485Y-99167975D02*
X158985390Y-99129880D01*
X158985390Y-99129880D02*
X158947295Y-99053690D01*
X158947295Y-99053690D02*
X158947295Y-98901309D01*
X158947295Y-98901309D02*
X158985390Y-98825118D01*
X158985390Y-98825118D02*
X159023485Y-98787023D01*
X159023485Y-98787023D02*
X159099676Y-98748928D01*
X159099676Y-98748928D02*
X159137771Y-98748928D01*
X159137771Y-98748928D02*
X159213961Y-98787023D01*
X159213961Y-98787023D02*
X159252057Y-98825118D01*
X159252057Y-98825118D02*
X159290152Y-98901309D01*
X159290152Y-98901309D02*
X159290152Y-99053690D01*
X159290152Y-99053690D02*
X159328247Y-99129880D01*
X159328247Y-99129880D02*
X159366342Y-99167975D01*
X159366342Y-99167975D02*
X159442533Y-99206071D01*
X159442533Y-99206071D02*
X159594914Y-99206071D01*
X159594914Y-99206071D02*
X159671104Y-99167975D01*
X159671104Y-99167975D02*
X159709200Y-99129880D01*
X159709200Y-99129880D02*
X159747295Y-99053690D01*
X159747295Y-99053690D02*
X159747295Y-98901309D01*
X159747295Y-98901309D02*
X159709200Y-98825118D01*
X159709200Y-98825118D02*
X159671104Y-98787023D01*
X159671104Y-98787023D02*
X159594914Y-98748928D01*
X159594914Y-98748928D02*
X159442533Y-98748928D01*
X159442533Y-98748928D02*
X159366342Y-98787023D01*
X159366342Y-98787023D02*
X159328247Y-98825118D01*
X159328247Y-98825118D02*
X159290152Y-98901309D01*
X161639819Y-95829404D02*
X160639819Y-95829404D01*
X161639819Y-95257976D02*
X161068390Y-95686547D01*
X160639819Y-95257976D02*
X161211247Y-95829404D01*
X179749524Y-56242295D02*
X179749524Y-55442295D01*
X179749524Y-55442295D02*
X179940000Y-55442295D01*
X179940000Y-55442295D02*
X180054286Y-55480390D01*
X180054286Y-55480390D02*
X180130476Y-55556580D01*
X180130476Y-55556580D02*
X180168571Y-55632771D01*
X180168571Y-55632771D02*
X180206667Y-55785152D01*
X180206667Y-55785152D02*
X180206667Y-55899438D01*
X180206667Y-55899438D02*
X180168571Y-56051819D01*
X180168571Y-56051819D02*
X180130476Y-56128009D01*
X180130476Y-56128009D02*
X180054286Y-56204200D01*
X180054286Y-56204200D02*
X179940000Y-56242295D01*
X179940000Y-56242295D02*
X179749524Y-56242295D01*
X180892381Y-55442295D02*
X180740000Y-55442295D01*
X180740000Y-55442295D02*
X180663809Y-55480390D01*
X180663809Y-55480390D02*
X180625714Y-55518485D01*
X180625714Y-55518485D02*
X180549524Y-55632771D01*
X180549524Y-55632771D02*
X180511428Y-55785152D01*
X180511428Y-55785152D02*
X180511428Y-56089914D01*
X180511428Y-56089914D02*
X180549524Y-56166104D01*
X180549524Y-56166104D02*
X180587619Y-56204200D01*
X180587619Y-56204200D02*
X180663809Y-56242295D01*
X180663809Y-56242295D02*
X180816190Y-56242295D01*
X180816190Y-56242295D02*
X180892381Y-56204200D01*
X180892381Y-56204200D02*
X180930476Y-56166104D01*
X180930476Y-56166104D02*
X180968571Y-56089914D01*
X180968571Y-56089914D02*
X180968571Y-55899438D01*
X180968571Y-55899438D02*
X180930476Y-55823247D01*
X180930476Y-55823247D02*
X180892381Y-55785152D01*
X180892381Y-55785152D02*
X180816190Y-55747057D01*
X180816190Y-55747057D02*
X180663809Y-55747057D01*
X180663809Y-55747057D02*
X180587619Y-55785152D01*
X180587619Y-55785152D02*
X180549524Y-55823247D01*
X180549524Y-55823247D02*
X180511428Y-55899438D01*
X180201666Y-75292295D02*
X179820714Y-75292295D01*
X179820714Y-75292295D02*
X179820714Y-74492295D01*
X180811190Y-74758961D02*
X180811190Y-75292295D01*
X180620714Y-74454200D02*
X180430237Y-75025628D01*
X180430237Y-75025628D02*
X180925476Y-75025628D01*
X189063333Y-145774580D02*
X189015714Y-145822200D01*
X189015714Y-145822200D02*
X188872857Y-145869819D01*
X188872857Y-145869819D02*
X188777619Y-145869819D01*
X188777619Y-145869819D02*
X188634762Y-145822200D01*
X188634762Y-145822200D02*
X188539524Y-145726961D01*
X188539524Y-145726961D02*
X188491905Y-145631723D01*
X188491905Y-145631723D02*
X188444286Y-145441247D01*
X188444286Y-145441247D02*
X188444286Y-145298390D01*
X188444286Y-145298390D02*
X188491905Y-145107914D01*
X188491905Y-145107914D02*
X188539524Y-145012676D01*
X188539524Y-145012676D02*
X188634762Y-144917438D01*
X188634762Y-144917438D02*
X188777619Y-144869819D01*
X188777619Y-144869819D02*
X188872857Y-144869819D01*
X188872857Y-144869819D02*
X189015714Y-144917438D01*
X189015714Y-144917438D02*
X189063333Y-144965057D01*
X189444286Y-144965057D02*
X189491905Y-144917438D01*
X189491905Y-144917438D02*
X189587143Y-144869819D01*
X189587143Y-144869819D02*
X189825238Y-144869819D01*
X189825238Y-144869819D02*
X189920476Y-144917438D01*
X189920476Y-144917438D02*
X189968095Y-144965057D01*
X189968095Y-144965057D02*
X190015714Y-145060295D01*
X190015714Y-145060295D02*
X190015714Y-145155533D01*
X190015714Y-145155533D02*
X189968095Y-145298390D01*
X189968095Y-145298390D02*
X189396667Y-145869819D01*
X189396667Y-145869819D02*
X190015714Y-145869819D01*
D12*
X152425476Y-115452395D02*
X152425476Y-116100014D01*
X152425476Y-116100014D02*
X152463571Y-116176204D01*
X152463571Y-116176204D02*
X152501666Y-116214300D01*
X152501666Y-116214300D02*
X152577857Y-116252395D01*
X152577857Y-116252395D02*
X152730238Y-116252395D01*
X152730238Y-116252395D02*
X152806428Y-116214300D01*
X152806428Y-116214300D02*
X152844523Y-116176204D01*
X152844523Y-116176204D02*
X152882619Y-116100014D01*
X152882619Y-116100014D02*
X152882619Y-115452395D01*
X153187380Y-115452395D02*
X153682618Y-115452395D01*
X153682618Y-115452395D02*
X153415952Y-115757157D01*
X153415952Y-115757157D02*
X153530237Y-115757157D01*
X153530237Y-115757157D02*
X153606428Y-115795252D01*
X153606428Y-115795252D02*
X153644523Y-115833347D01*
X153644523Y-115833347D02*
X153682618Y-115909538D01*
X153682618Y-115909538D02*
X153682618Y-116100014D01*
X153682618Y-116100014D02*
X153644523Y-116176204D01*
X153644523Y-116176204D02*
X153606428Y-116214300D01*
X153606428Y-116214300D02*
X153530237Y-116252395D01*
X153530237Y-116252395D02*
X153301666Y-116252395D01*
X153301666Y-116252395D02*
X153225475Y-116214300D01*
X153225475Y-116214300D02*
X153187380Y-116176204D01*
D11*
X164766666Y-169087319D02*
X164766666Y-169801604D01*
X164766666Y-169801604D02*
X164719047Y-169944461D01*
X164719047Y-169944461D02*
X164623809Y-170039700D01*
X164623809Y-170039700D02*
X164480952Y-170087319D01*
X164480952Y-170087319D02*
X164385714Y-170087319D01*
X165766666Y-170087319D02*
X165195238Y-170087319D01*
X165480952Y-170087319D02*
X165480952Y-169087319D01*
X165480952Y-169087319D02*
X165385714Y-169230176D01*
X165385714Y-169230176D02*
X165290476Y-169325414D01*
X165290476Y-169325414D02*
X165195238Y-169373033D01*
X193084524Y-37192295D02*
X193084524Y-36392295D01*
X193084524Y-36392295D02*
X193275000Y-36392295D01*
X193275000Y-36392295D02*
X193389286Y-36430390D01*
X193389286Y-36430390D02*
X193465476Y-36506580D01*
X193465476Y-36506580D02*
X193503571Y-36582771D01*
X193503571Y-36582771D02*
X193541667Y-36735152D01*
X193541667Y-36735152D02*
X193541667Y-36849438D01*
X193541667Y-36849438D02*
X193503571Y-37001819D01*
X193503571Y-37001819D02*
X193465476Y-37078009D01*
X193465476Y-37078009D02*
X193389286Y-37154200D01*
X193389286Y-37154200D02*
X193275000Y-37192295D01*
X193275000Y-37192295D02*
X193084524Y-37192295D01*
X193808333Y-36392295D02*
X194303571Y-36392295D01*
X194303571Y-36392295D02*
X194036905Y-36697057D01*
X194036905Y-36697057D02*
X194151190Y-36697057D01*
X194151190Y-36697057D02*
X194227381Y-36735152D01*
X194227381Y-36735152D02*
X194265476Y-36773247D01*
X194265476Y-36773247D02*
X194303571Y-36849438D01*
X194303571Y-36849438D02*
X194303571Y-37039914D01*
X194303571Y-37039914D02*
X194265476Y-37116104D01*
X194265476Y-37116104D02*
X194227381Y-37154200D01*
X194227381Y-37154200D02*
X194151190Y-37192295D01*
X194151190Y-37192295D02*
X193922619Y-37192295D01*
X193922619Y-37192295D02*
X193846428Y-37154200D01*
X193846428Y-37154200D02*
X193808333Y-37116104D01*
X171316667Y-151416104D02*
X171278571Y-151454200D01*
X171278571Y-151454200D02*
X171164286Y-151492295D01*
X171164286Y-151492295D02*
X171088095Y-151492295D01*
X171088095Y-151492295D02*
X170973809Y-151454200D01*
X170973809Y-151454200D02*
X170897619Y-151378009D01*
X170897619Y-151378009D02*
X170859524Y-151301819D01*
X170859524Y-151301819D02*
X170821428Y-151149438D01*
X170821428Y-151149438D02*
X170821428Y-151035152D01*
X170821428Y-151035152D02*
X170859524Y-150882771D01*
X170859524Y-150882771D02*
X170897619Y-150806580D01*
X170897619Y-150806580D02*
X170973809Y-150730390D01*
X170973809Y-150730390D02*
X171088095Y-150692295D01*
X171088095Y-150692295D02*
X171164286Y-150692295D01*
X171164286Y-150692295D02*
X171278571Y-150730390D01*
X171278571Y-150730390D02*
X171316667Y-150768485D01*
X171583333Y-150692295D02*
X172078571Y-150692295D01*
X172078571Y-150692295D02*
X171811905Y-150997057D01*
X171811905Y-150997057D02*
X171926190Y-150997057D01*
X171926190Y-150997057D02*
X172002381Y-151035152D01*
X172002381Y-151035152D02*
X172040476Y-151073247D01*
X172040476Y-151073247D02*
X172078571Y-151149438D01*
X172078571Y-151149438D02*
X172078571Y-151339914D01*
X172078571Y-151339914D02*
X172040476Y-151416104D01*
X172040476Y-151416104D02*
X172002381Y-151454200D01*
X172002381Y-151454200D02*
X171926190Y-151492295D01*
X171926190Y-151492295D02*
X171697619Y-151492295D01*
X171697619Y-151492295D02*
X171621428Y-151454200D01*
X171621428Y-151454200D02*
X171583333Y-151416104D01*
X180201666Y-80689795D02*
X179820714Y-80689795D01*
X179820714Y-80689795D02*
X179820714Y-79889795D01*
X180392142Y-79889795D02*
X180887380Y-79889795D01*
X180887380Y-79889795D02*
X180620714Y-80194557D01*
X180620714Y-80194557D02*
X180734999Y-80194557D01*
X180734999Y-80194557D02*
X180811190Y-80232652D01*
X180811190Y-80232652D02*
X180849285Y-80270747D01*
X180849285Y-80270747D02*
X180887380Y-80346938D01*
X180887380Y-80346938D02*
X180887380Y-80537414D01*
X180887380Y-80537414D02*
X180849285Y-80613604D01*
X180849285Y-80613604D02*
X180811190Y-80651700D01*
X180811190Y-80651700D02*
X180734999Y-80689795D01*
X180734999Y-80689795D02*
X180506428Y-80689795D01*
X180506428Y-80689795D02*
X180430237Y-80651700D01*
X180430237Y-80651700D02*
X180392142Y-80613604D01*
X192447080Y-208462261D02*
X192494700Y-208509880D01*
X192494700Y-208509880D02*
X192542319Y-208652737D01*
X192542319Y-208652737D02*
X192542319Y-208747975D01*
X192542319Y-208747975D02*
X192494700Y-208890832D01*
X192494700Y-208890832D02*
X192399461Y-208986070D01*
X192399461Y-208986070D02*
X192304223Y-209033689D01*
X192304223Y-209033689D02*
X192113747Y-209081308D01*
X192113747Y-209081308D02*
X191970890Y-209081308D01*
X191970890Y-209081308D02*
X191780414Y-209033689D01*
X191780414Y-209033689D02*
X191685176Y-208986070D01*
X191685176Y-208986070D02*
X191589938Y-208890832D01*
X191589938Y-208890832D02*
X191542319Y-208747975D01*
X191542319Y-208747975D02*
X191542319Y-208652737D01*
X191542319Y-208652737D02*
X191589938Y-208509880D01*
X191589938Y-208509880D02*
X191637557Y-208462261D01*
X192542319Y-208033689D02*
X191542319Y-208033689D01*
X191542319Y-208033689D02*
X192542319Y-207462261D01*
X192542319Y-207462261D02*
X191542319Y-207462261D01*
X192161366Y-206986070D02*
X192161366Y-206224166D01*
X192542319Y-205224166D02*
X192542319Y-205795594D01*
X192542319Y-205509880D02*
X191542319Y-205509880D01*
X191542319Y-205509880D02*
X191685176Y-205605118D01*
X191685176Y-205605118D02*
X191780414Y-205700356D01*
X191780414Y-205700356D02*
X191828033Y-205795594D01*
X192161366Y-204795594D02*
X192161366Y-204033690D01*
X191637557Y-203605118D02*
X191589938Y-203557499D01*
X191589938Y-203557499D02*
X191542319Y-203462261D01*
X191542319Y-203462261D02*
X191542319Y-203224166D01*
X191542319Y-203224166D02*
X191589938Y-203128928D01*
X191589938Y-203128928D02*
X191637557Y-203081309D01*
X191637557Y-203081309D02*
X191732795Y-203033690D01*
X191732795Y-203033690D02*
X191828033Y-203033690D01*
X191828033Y-203033690D02*
X191970890Y-203081309D01*
X191970890Y-203081309D02*
X192542319Y-203652737D01*
X192542319Y-203652737D02*
X192542319Y-203033690D01*
X73432319Y-120300594D02*
X74432319Y-119633928D01*
X73432319Y-119633928D02*
X74432319Y-120300594D01*
X73908509Y-118919642D02*
X73908509Y-119252975D01*
X74432319Y-119252975D02*
X73432319Y-119252975D01*
X73432319Y-119252975D02*
X73432319Y-118776785D01*
X73527557Y-118443451D02*
X73479938Y-118395832D01*
X73479938Y-118395832D02*
X73432319Y-118300594D01*
X73432319Y-118300594D02*
X73432319Y-118062499D01*
X73432319Y-118062499D02*
X73479938Y-117967261D01*
X73479938Y-117967261D02*
X73527557Y-117919642D01*
X73527557Y-117919642D02*
X73622795Y-117872023D01*
X73622795Y-117872023D02*
X73718033Y-117872023D01*
X73718033Y-117872023D02*
X73860890Y-117919642D01*
X73860890Y-117919642D02*
X74432319Y-118491070D01*
X74432319Y-118491070D02*
X74432319Y-117872023D01*
X180206666Y-37192295D02*
X179825714Y-37192295D01*
X179825714Y-37192295D02*
X179825714Y-36392295D01*
X180816190Y-36392295D02*
X180663809Y-36392295D01*
X180663809Y-36392295D02*
X180587618Y-36430390D01*
X180587618Y-36430390D02*
X180549523Y-36468485D01*
X180549523Y-36468485D02*
X180473333Y-36582771D01*
X180473333Y-36582771D02*
X180435237Y-36735152D01*
X180435237Y-36735152D02*
X180435237Y-37039914D01*
X180435237Y-37039914D02*
X180473333Y-37116104D01*
X180473333Y-37116104D02*
X180511428Y-37154200D01*
X180511428Y-37154200D02*
X180587618Y-37192295D01*
X180587618Y-37192295D02*
X180739999Y-37192295D01*
X180739999Y-37192295D02*
X180816190Y-37154200D01*
X180816190Y-37154200D02*
X180854285Y-37116104D01*
X180854285Y-37116104D02*
X180892380Y-37039914D01*
X180892380Y-37039914D02*
X180892380Y-36849438D01*
X180892380Y-36849438D02*
X180854285Y-36773247D01*
X180854285Y-36773247D02*
X180816190Y-36735152D01*
X180816190Y-36735152D02*
X180739999Y-36697057D01*
X180739999Y-36697057D02*
X180587618Y-36697057D01*
X180587618Y-36697057D02*
X180511428Y-36735152D01*
X180511428Y-36735152D02*
X180473333Y-36773247D01*
X180473333Y-36773247D02*
X180435237Y-36849438D01*
X44442142Y-101419819D02*
X43965952Y-101419819D01*
X43965952Y-101419819D02*
X43965952Y-100419819D01*
X45299285Y-101419819D02*
X44727857Y-101419819D01*
X45013571Y-101419819D02*
X45013571Y-100419819D01*
X45013571Y-100419819D02*
X44918333Y-100562676D01*
X44918333Y-100562676D02*
X44823095Y-100657914D01*
X44823095Y-100657914D02*
X44727857Y-100705533D01*
X45918333Y-100419819D02*
X46013571Y-100419819D01*
X46013571Y-100419819D02*
X46108809Y-100467438D01*
X46108809Y-100467438D02*
X46156428Y-100515057D01*
X46156428Y-100515057D02*
X46204047Y-100610295D01*
X46204047Y-100610295D02*
X46251666Y-100800771D01*
X46251666Y-100800771D02*
X46251666Y-101038866D01*
X46251666Y-101038866D02*
X46204047Y-101229342D01*
X46204047Y-101229342D02*
X46156428Y-101324580D01*
X46156428Y-101324580D02*
X46108809Y-101372200D01*
X46108809Y-101372200D02*
X46013571Y-101419819D01*
X46013571Y-101419819D02*
X45918333Y-101419819D01*
X45918333Y-101419819D02*
X45823095Y-101372200D01*
X45823095Y-101372200D02*
X45775476Y-101324580D01*
X45775476Y-101324580D02*
X45727857Y-101229342D01*
X45727857Y-101229342D02*
X45680238Y-101038866D01*
X45680238Y-101038866D02*
X45680238Y-100800771D01*
X45680238Y-100800771D02*
X45727857Y-100610295D01*
X45727857Y-100610295D02*
X45775476Y-100515057D01*
X45775476Y-100515057D02*
X45823095Y-100467438D01*
X45823095Y-100467438D02*
X45918333Y-100419819D01*
X-105686904Y14557680D02*
X-105686904Y15557680D01*
X-105686904Y15081490D02*
X-105115476Y15081490D01*
X-105115476Y14557680D02*
X-105115476Y15557680D01*
X-104163095Y15557680D02*
X-104639285Y15557680D01*
X-104639285Y15557680D02*
X-104686904Y15081490D01*
X-104686904Y15081490D02*
X-104639285Y15129109D01*
X-104639285Y15129109D02*
X-104544047Y15176728D01*
X-104544047Y15176728D02*
X-104305952Y15176728D01*
X-104305952Y15176728D02*
X-104210714Y15129109D01*
X-104210714Y15129109D02*
X-104163095Y15081490D01*
X-104163095Y15081490D02*
X-104115476Y14986252D01*
X-104115476Y14986252D02*
X-104115476Y14748157D01*
X-104115476Y14748157D02*
X-104163095Y14652919D01*
X-104163095Y14652919D02*
X-104210714Y14605300D01*
X-104210714Y14605300D02*
X-104305952Y14557680D01*
X-104305952Y14557680D02*
X-104544047Y14557680D01*
X-104544047Y14557680D02*
X-104639285Y14605300D01*
X-104639285Y14605300D02*
X-104686904Y14652919D01*
X154826905Y-110667319D02*
X154826905Y-109667319D01*
X155398333Y-110667319D02*
X154969762Y-110095890D01*
X155398333Y-109667319D02*
X154826905Y-110238747D01*
X156350714Y-110667319D02*
X155779286Y-110667319D01*
X156065000Y-110667319D02*
X156065000Y-109667319D01*
X156065000Y-109667319D02*
X155969762Y-109810176D01*
X155969762Y-109810176D02*
X155874524Y-109905414D01*
X155874524Y-109905414D02*
X155779286Y-109953033D01*
X171316667Y-141256104D02*
X171278571Y-141294200D01*
X171278571Y-141294200D02*
X171164286Y-141332295D01*
X171164286Y-141332295D02*
X171088095Y-141332295D01*
X171088095Y-141332295D02*
X170973809Y-141294200D01*
X170973809Y-141294200D02*
X170897619Y-141218009D01*
X170897619Y-141218009D02*
X170859524Y-141141819D01*
X170859524Y-141141819D02*
X170821428Y-140989438D01*
X170821428Y-140989438D02*
X170821428Y-140875152D01*
X170821428Y-140875152D02*
X170859524Y-140722771D01*
X170859524Y-140722771D02*
X170897619Y-140646580D01*
X170897619Y-140646580D02*
X170973809Y-140570390D01*
X170973809Y-140570390D02*
X171088095Y-140532295D01*
X171088095Y-140532295D02*
X171164286Y-140532295D01*
X171164286Y-140532295D02*
X171278571Y-140570390D01*
X171278571Y-140570390D02*
X171316667Y-140608485D01*
X172002381Y-140798961D02*
X172002381Y-141332295D01*
X171811905Y-140494200D02*
X171621428Y-141065628D01*
X171621428Y-141065628D02*
X172116667Y-141065628D01*
X176032319Y-171304166D02*
X176032319Y-171780356D01*
X176032319Y-171780356D02*
X175032319Y-171780356D01*
X175032319Y-171066070D02*
X175032319Y-170399404D01*
X175032319Y-170399404D02*
X176032319Y-170827975D01*
X180201666Y-113392295D02*
X179820714Y-113392295D01*
X179820714Y-113392295D02*
X179820714Y-112592295D01*
X180430237Y-112668485D02*
X180468333Y-112630390D01*
X180468333Y-112630390D02*
X180544523Y-112592295D01*
X180544523Y-112592295D02*
X180734999Y-112592295D01*
X180734999Y-112592295D02*
X180811190Y-112630390D01*
X180811190Y-112630390D02*
X180849285Y-112668485D01*
X180849285Y-112668485D02*
X180887380Y-112744676D01*
X180887380Y-112744676D02*
X180887380Y-112820866D01*
X180887380Y-112820866D02*
X180849285Y-112935152D01*
X180849285Y-112935152D02*
X180392142Y-113392295D01*
X180392142Y-113392295D02*
X180887380Y-113392295D01*
X122309580Y-81476666D02*
X122357200Y-81524285D01*
X122357200Y-81524285D02*
X122404819Y-81667142D01*
X122404819Y-81667142D02*
X122404819Y-81762380D01*
X122404819Y-81762380D02*
X122357200Y-81905237D01*
X122357200Y-81905237D02*
X122261961Y-82000475D01*
X122261961Y-82000475D02*
X122166723Y-82048094D01*
X122166723Y-82048094D02*
X121976247Y-82095713D01*
X121976247Y-82095713D02*
X121833390Y-82095713D01*
X121833390Y-82095713D02*
X121642914Y-82048094D01*
X121642914Y-82048094D02*
X121547676Y-82000475D01*
X121547676Y-82000475D02*
X121452438Y-81905237D01*
X121452438Y-81905237D02*
X121404819Y-81762380D01*
X121404819Y-81762380D02*
X121404819Y-81667142D01*
X121404819Y-81667142D02*
X121452438Y-81524285D01*
X121452438Y-81524285D02*
X121500057Y-81476666D01*
X121404819Y-80571904D02*
X121404819Y-81048094D01*
X121404819Y-81048094D02*
X121881009Y-81095713D01*
X121881009Y-81095713D02*
X121833390Y-81048094D01*
X121833390Y-81048094D02*
X121785771Y-80952856D01*
X121785771Y-80952856D02*
X121785771Y-80714761D01*
X121785771Y-80714761D02*
X121833390Y-80619523D01*
X121833390Y-80619523D02*
X121881009Y-80571904D01*
X121881009Y-80571904D02*
X121976247Y-80524285D01*
X121976247Y-80524285D02*
X122214342Y-80524285D01*
X122214342Y-80524285D02*
X122309580Y-80571904D01*
X122309580Y-80571904D02*
X122357200Y-80619523D01*
X122357200Y-80619523D02*
X122404819Y-80714761D01*
X122404819Y-80714761D02*
X122404819Y-80952856D01*
X122404819Y-80952856D02*
X122357200Y-81048094D01*
X122357200Y-81048094D02*
X122309580Y-81095713D01*
X73432319Y-53625594D02*
X74432319Y-52958928D01*
X73432319Y-52958928D02*
X74432319Y-53625594D01*
X73908509Y-52244642D02*
X73908509Y-52577975D01*
X74432319Y-52577975D02*
X73432319Y-52577975D01*
X73432319Y-52577975D02*
X73432319Y-52101785D01*
X74432319Y-51197023D02*
X74432319Y-51768451D01*
X74432319Y-51482737D02*
X73432319Y-51482737D01*
X73432319Y-51482737D02*
X73575176Y-51577975D01*
X73575176Y-51577975D02*
X73670414Y-51673213D01*
X73670414Y-51673213D02*
X73718033Y-51768451D01*
X179601905Y-62684819D02*
X179601905Y-61684819D01*
X179601905Y-61684819D02*
X179840000Y-61684819D01*
X179840000Y-61684819D02*
X179982857Y-61732438D01*
X179982857Y-61732438D02*
X180078095Y-61827676D01*
X180078095Y-61827676D02*
X180125714Y-61922914D01*
X180125714Y-61922914D02*
X180173333Y-62113390D01*
X180173333Y-62113390D02*
X180173333Y-62256247D01*
X180173333Y-62256247D02*
X180125714Y-62446723D01*
X180125714Y-62446723D02*
X180078095Y-62541961D01*
X180078095Y-62541961D02*
X179982857Y-62637200D01*
X179982857Y-62637200D02*
X179840000Y-62684819D01*
X179840000Y-62684819D02*
X179601905Y-62684819D01*
X181030476Y-62018152D02*
X181030476Y-62684819D01*
X180792381Y-61637200D02*
X180554286Y-62351485D01*
X180554286Y-62351485D02*
X181173333Y-62351485D01*
X192447080Y-191317261D02*
X192494700Y-191364880D01*
X192494700Y-191364880D02*
X192542319Y-191507737D01*
X192542319Y-191507737D02*
X192542319Y-191602975D01*
X192542319Y-191602975D02*
X192494700Y-191745832D01*
X192494700Y-191745832D02*
X192399461Y-191841070D01*
X192399461Y-191841070D02*
X192304223Y-191888689D01*
X192304223Y-191888689D02*
X192113747Y-191936308D01*
X192113747Y-191936308D02*
X191970890Y-191936308D01*
X191970890Y-191936308D02*
X191780414Y-191888689D01*
X191780414Y-191888689D02*
X191685176Y-191841070D01*
X191685176Y-191841070D02*
X191589938Y-191745832D01*
X191589938Y-191745832D02*
X191542319Y-191602975D01*
X191542319Y-191602975D02*
X191542319Y-191507737D01*
X191542319Y-191507737D02*
X191589938Y-191364880D01*
X191589938Y-191364880D02*
X191637557Y-191317261D01*
X192542319Y-190888689D02*
X191542319Y-190888689D01*
X191542319Y-190888689D02*
X192542319Y-190317261D01*
X192542319Y-190317261D02*
X191542319Y-190317261D01*
X192161366Y-189841070D02*
X192161366Y-189079166D01*
X192542319Y-188079166D02*
X192542319Y-188650594D01*
X192542319Y-188364880D02*
X191542319Y-188364880D01*
X191542319Y-188364880D02*
X191685176Y-188460118D01*
X191685176Y-188460118D02*
X191780414Y-188555356D01*
X191780414Y-188555356D02*
X191828033Y-188650594D01*
X192161366Y-187650594D02*
X192161366Y-186888690D01*
X192542319Y-185888690D02*
X192542319Y-186460118D01*
X192542319Y-186174404D02*
X191542319Y-186174404D01*
X191542319Y-186174404D02*
X191685176Y-186269642D01*
X191685176Y-186269642D02*
X191780414Y-186364880D01*
X191780414Y-186364880D02*
X191828033Y-186460118D01*
X30499580Y-52554166D02*
X30547200Y-52601785D01*
X30547200Y-52601785D02*
X30594819Y-52744642D01*
X30594819Y-52744642D02*
X30594819Y-52839880D01*
X30594819Y-52839880D02*
X30547200Y-52982737D01*
X30547200Y-52982737D02*
X30451961Y-53077975D01*
X30451961Y-53077975D02*
X30356723Y-53125594D01*
X30356723Y-53125594D02*
X30166247Y-53173213D01*
X30166247Y-53173213D02*
X30023390Y-53173213D01*
X30023390Y-53173213D02*
X29832914Y-53125594D01*
X29832914Y-53125594D02*
X29737676Y-53077975D01*
X29737676Y-53077975D02*
X29642438Y-52982737D01*
X29642438Y-52982737D02*
X29594819Y-52839880D01*
X29594819Y-52839880D02*
X29594819Y-52744642D01*
X29594819Y-52744642D02*
X29642438Y-52601785D01*
X29642438Y-52601785D02*
X29690057Y-52554166D01*
X29594819Y-52220832D02*
X29594819Y-51554166D01*
X29594819Y-51554166D02*
X30594819Y-51982737D01*
X22817919Y-118372023D02*
X22770300Y-118324404D01*
X22770300Y-118324404D02*
X22722680Y-118181547D01*
X22722680Y-118181547D02*
X22722680Y-118086309D01*
X22722680Y-118086309D02*
X22770300Y-117943452D01*
X22770300Y-117943452D02*
X22865538Y-117848214D01*
X22865538Y-117848214D02*
X22960776Y-117800595D01*
X22960776Y-117800595D02*
X23151252Y-117752976D01*
X23151252Y-117752976D02*
X23294109Y-117752976D01*
X23294109Y-117752976D02*
X23484585Y-117800595D01*
X23484585Y-117800595D02*
X23579823Y-117848214D01*
X23579823Y-117848214D02*
X23675061Y-117943452D01*
X23675061Y-117943452D02*
X23722680Y-118086309D01*
X23722680Y-118086309D02*
X23722680Y-118181547D01*
X23722680Y-118181547D02*
X23675061Y-118324404D01*
X23675061Y-118324404D02*
X23627442Y-118372023D01*
X22722680Y-118800595D02*
X23722680Y-118800595D01*
X23722680Y-118800595D02*
X22722680Y-119372023D01*
X22722680Y-119372023D02*
X23722680Y-119372023D01*
X23389347Y-120276785D02*
X22722680Y-120276785D01*
X23770300Y-120038690D02*
X23056014Y-119800595D01*
X23056014Y-119800595D02*
X23056014Y-120419642D01*
X199934761Y-85005057D02*
X199839523Y-84957438D01*
X199839523Y-84957438D02*
X199744285Y-84862200D01*
X199744285Y-84862200D02*
X199601428Y-84719342D01*
X199601428Y-84719342D02*
X199506190Y-84671723D01*
X199506190Y-84671723D02*
X199410952Y-84671723D01*
X199458571Y-84909819D02*
X199363333Y-84862200D01*
X199363333Y-84862200D02*
X199268095Y-84766961D01*
X199268095Y-84766961D02*
X199220476Y-84576485D01*
X199220476Y-84576485D02*
X199220476Y-84243152D01*
X199220476Y-84243152D02*
X199268095Y-84052676D01*
X199268095Y-84052676D02*
X199363333Y-83957438D01*
X199363333Y-83957438D02*
X199458571Y-83909819D01*
X199458571Y-83909819D02*
X199649047Y-83909819D01*
X199649047Y-83909819D02*
X199744285Y-83957438D01*
X199744285Y-83957438D02*
X199839523Y-84052676D01*
X199839523Y-84052676D02*
X199887142Y-84243152D01*
X199887142Y-84243152D02*
X199887142Y-84576485D01*
X199887142Y-84576485D02*
X199839523Y-84766961D01*
X199839523Y-84766961D02*
X199744285Y-84862200D01*
X199744285Y-84862200D02*
X199649047Y-84909819D01*
X199649047Y-84909819D02*
X199458571Y-84909819D01*
X200268095Y-84005057D02*
X200315714Y-83957438D01*
X200315714Y-83957438D02*
X200410952Y-83909819D01*
X200410952Y-83909819D02*
X200649047Y-83909819D01*
X200649047Y-83909819D02*
X200744285Y-83957438D01*
X200744285Y-83957438D02*
X200791904Y-84005057D01*
X200791904Y-84005057D02*
X200839523Y-84100295D01*
X200839523Y-84100295D02*
X200839523Y-84195533D01*
X200839523Y-84195533D02*
X200791904Y-84338390D01*
X200791904Y-84338390D02*
X200220476Y-84909819D01*
X200220476Y-84909819D02*
X200839523Y-84909819D01*
X126656104Y-37363332D02*
X126694200Y-37401428D01*
X126694200Y-37401428D02*
X126732295Y-37515713D01*
X126732295Y-37515713D02*
X126732295Y-37591904D01*
X126732295Y-37591904D02*
X126694200Y-37706190D01*
X126694200Y-37706190D02*
X126618009Y-37782380D01*
X126618009Y-37782380D02*
X126541819Y-37820475D01*
X126541819Y-37820475D02*
X126389438Y-37858571D01*
X126389438Y-37858571D02*
X126275152Y-37858571D01*
X126275152Y-37858571D02*
X126122771Y-37820475D01*
X126122771Y-37820475D02*
X126046580Y-37782380D01*
X126046580Y-37782380D02*
X125970390Y-37706190D01*
X125970390Y-37706190D02*
X125932295Y-37591904D01*
X125932295Y-37591904D02*
X125932295Y-37515713D01*
X125932295Y-37515713D02*
X125970390Y-37401428D01*
X125970390Y-37401428D02*
X126008485Y-37363332D01*
X126732295Y-36563332D02*
X126351342Y-36829999D01*
X126732295Y-37020475D02*
X125932295Y-37020475D01*
X125932295Y-37020475D02*
X125932295Y-36715713D01*
X125932295Y-36715713D02*
X125970390Y-36639523D01*
X125970390Y-36639523D02*
X126008485Y-36601428D01*
X126008485Y-36601428D02*
X126084676Y-36563332D01*
X126084676Y-36563332D02*
X126198961Y-36563332D01*
X126198961Y-36563332D02*
X126275152Y-36601428D01*
X126275152Y-36601428D02*
X126313247Y-36639523D01*
X126313247Y-36639523D02*
X126351342Y-36715713D01*
X126351342Y-36715713D02*
X126351342Y-37020475D01*
X126732295Y-35801428D02*
X126732295Y-36258571D01*
X126732295Y-36029999D02*
X125932295Y-36029999D01*
X125932295Y-36029999D02*
X126046580Y-36106190D01*
X126046580Y-36106190D02*
X126122771Y-36182380D01*
X126122771Y-36182380D02*
X126160866Y-36258571D01*
X191272319Y-171299166D02*
X190796128Y-171632499D01*
X191272319Y-171870594D02*
X190272319Y-171870594D01*
X190272319Y-171870594D02*
X190272319Y-171489642D01*
X190272319Y-171489642D02*
X190319938Y-171394404D01*
X190319938Y-171394404D02*
X190367557Y-171346785D01*
X190367557Y-171346785D02*
X190462795Y-171299166D01*
X190462795Y-171299166D02*
X190605652Y-171299166D01*
X190605652Y-171299166D02*
X190700890Y-171346785D01*
X190700890Y-171346785D02*
X190748509Y-171394404D01*
X190748509Y-171394404D02*
X190796128Y-171489642D01*
X190796128Y-171489642D02*
X190796128Y-171870594D01*
X190272319Y-170394404D02*
X190272319Y-170870594D01*
X190272319Y-170870594D02*
X190748509Y-170918213D01*
X190748509Y-170918213D02*
X190700890Y-170870594D01*
X190700890Y-170870594D02*
X190653271Y-170775356D01*
X190653271Y-170775356D02*
X190653271Y-170537261D01*
X190653271Y-170537261D02*
X190700890Y-170442023D01*
X190700890Y-170442023D02*
X190748509Y-170394404D01*
X190748509Y-170394404D02*
X190843747Y-170346785D01*
X190843747Y-170346785D02*
X191081842Y-170346785D01*
X191081842Y-170346785D02*
X191177080Y-170394404D01*
X191177080Y-170394404D02*
X191224700Y-170442023D01*
X191224700Y-170442023D02*
X191272319Y-170537261D01*
X191272319Y-170537261D02*
X191272319Y-170775356D01*
X191272319Y-170775356D02*
X191224700Y-170870594D01*
X191224700Y-170870594D02*
X191177080Y-170918213D01*
X22182919Y-178697023D02*
X22135300Y-178649404D01*
X22135300Y-178649404D02*
X22087680Y-178506547D01*
X22087680Y-178506547D02*
X22087680Y-178411309D01*
X22087680Y-178411309D02*
X22135300Y-178268452D01*
X22135300Y-178268452D02*
X22230538Y-178173214D01*
X22230538Y-178173214D02*
X22325776Y-178125595D01*
X22325776Y-178125595D02*
X22516252Y-178077976D01*
X22516252Y-178077976D02*
X22659109Y-178077976D01*
X22659109Y-178077976D02*
X22849585Y-178125595D01*
X22849585Y-178125595D02*
X22944823Y-178173214D01*
X22944823Y-178173214D02*
X23040061Y-178268452D01*
X23040061Y-178268452D02*
X23087680Y-178411309D01*
X23087680Y-178411309D02*
X23087680Y-178506547D01*
X23087680Y-178506547D02*
X23040061Y-178649404D01*
X23040061Y-178649404D02*
X22992442Y-178697023D01*
X22087680Y-179125595D02*
X23087680Y-179125595D01*
X23087680Y-179125595D02*
X22087680Y-179697023D01*
X22087680Y-179697023D02*
X23087680Y-179697023D01*
X23087680Y-180649404D02*
X23087680Y-180173214D01*
X23087680Y-180173214D02*
X22611490Y-180125595D01*
X22611490Y-180125595D02*
X22659109Y-180173214D01*
X22659109Y-180173214D02*
X22706728Y-180268452D01*
X22706728Y-180268452D02*
X22706728Y-180506547D01*
X22706728Y-180506547D02*
X22659109Y-180601785D01*
X22659109Y-180601785D02*
X22611490Y-180649404D01*
X22611490Y-180649404D02*
X22516252Y-180697023D01*
X22516252Y-180697023D02*
X22278157Y-180697023D01*
X22278157Y-180697023D02*
X22182919Y-180649404D01*
X22182919Y-180649404D02*
X22135300Y-180601785D01*
X22135300Y-180601785D02*
X22087680Y-180506547D01*
X22087680Y-180506547D02*
X22087680Y-180268452D01*
X22087680Y-180268452D02*
X22135300Y-180173214D01*
X22135300Y-180173214D02*
X22182919Y-180125595D01*
X154826905Y-81774819D02*
X154826905Y-80774819D01*
X155398333Y-81774819D02*
X154969762Y-81203390D01*
X155398333Y-80774819D02*
X154826905Y-81346247D01*
X155779286Y-80870057D02*
X155826905Y-80822438D01*
X155826905Y-80822438D02*
X155922143Y-80774819D01*
X155922143Y-80774819D02*
X156160238Y-80774819D01*
X156160238Y-80774819D02*
X156255476Y-80822438D01*
X156255476Y-80822438D02*
X156303095Y-80870057D01*
X156303095Y-80870057D02*
X156350714Y-80965295D01*
X156350714Y-80965295D02*
X156350714Y-81060533D01*
X156350714Y-81060533D02*
X156303095Y-81203390D01*
X156303095Y-81203390D02*
X155731667Y-81774819D01*
X155731667Y-81774819D02*
X156350714Y-81774819D01*
D13*
%TO.C,L1*%
X186720000Y-118427500D02*
X185210000Y-118427500D01*
X185210000Y-120547500D02*
X185210000Y-116307500D01*
X185210000Y-116307500D02*
X175470000Y-116307500D01*
X175470000Y-120547500D02*
X185210000Y-120547500D01*
X175470000Y-116307500D02*
X175470000Y-120547500D01*
X173960000Y-118427500D02*
X175470000Y-118427500D01*
%TO.C,Q3*%
X202476000Y-44900000D02*
X197205000Y-44900000D01*
X202476000Y-38635000D02*
X197205000Y-38635000D01*
X202476000Y-35026000D02*
X197205000Y-35026000D01*
X202476000Y-28760000D02*
X202476000Y-44900000D01*
X202476000Y-28760000D02*
X197205000Y-28760000D01*
X197205000Y-28760000D02*
X197205000Y-44900000D01*
%TO.C,CN3*%
X24535000Y-58057500D02*
X13565000Y-58057500D01*
X24535000Y-51697500D02*
X24535000Y-58057500D01*
X24535000Y-48997500D02*
X24135000Y-48997500D01*
X24535000Y-46717500D02*
X24535000Y-48997500D01*
X24135000Y-51697500D02*
X24535000Y-51697500D01*
X24135000Y-48997500D02*
X24135000Y-51697500D01*
X20825000Y-46427500D02*
X16825000Y-46427500D01*
X14565000Y-46717500D02*
X24535000Y-46717500D01*
X14565000Y-46717500D02*
X14565000Y-58057500D01*
X13565000Y-58057500D02*
X13565000Y-46717500D01*
X13565000Y-46717500D02*
X14565000Y-46717500D01*
D11*
%TO.C,L8*%
X48577499Y-36195000D02*
G75*
G02*
X48577499Y-32385000I-3492499J1905000D01*
G01*
X37147501Y-32385000D02*
G75*
G02*
X37147501Y-36195000I7937499J-1905000D01*
G01*
%TO.C,HS2*%
X152827500Y-44330000D02*
X152827500Y-52830000D01*
X152827500Y-29330000D02*
X152827500Y-20830000D01*
X150827500Y-52830000D02*
X152827500Y-52830000D01*
X150827500Y-47330000D02*
X150827500Y-52830000D01*
X150827500Y-26330000D02*
X150827500Y-20830000D01*
X150827500Y-20830000D02*
X152827500Y-20830000D01*
X148827500Y-52830000D02*
X148827500Y-47330000D01*
X148827500Y-47330000D02*
X150827500Y-47330000D01*
X148827500Y-26330000D02*
X150827500Y-26330000D01*
X148827500Y-26330000D02*
X148827500Y-20830000D01*
X146827500Y-52830000D02*
X148827500Y-52830000D01*
X146827500Y-47330000D02*
X146827500Y-52830000D01*
X146827500Y-26330000D02*
X146827500Y-20830000D01*
X146827500Y-20830000D02*
X148827500Y-20830000D01*
X144827500Y-52830000D02*
X144827500Y-47330000D01*
X144827500Y-47330000D02*
X146827500Y-47330000D01*
X144827500Y-44330000D02*
X152827500Y-44330000D01*
X144827500Y-29330000D02*
X152827500Y-29330000D01*
X144827500Y-26330000D02*
X146827500Y-26330000D01*
X144827500Y-26330000D02*
X144827500Y-20830000D01*
X142827500Y-52830000D02*
X144827500Y-52830000D01*
X142827500Y-47330000D02*
X142827500Y-52830000D01*
X142827500Y-26330000D02*
X142827500Y-20830000D01*
X142827500Y-20830000D02*
X144827500Y-20830000D01*
X141827500Y-44330000D02*
X142827500Y-44330000D01*
X141827500Y-44330000D02*
X141827500Y-29330000D01*
X141827500Y-29330000D02*
X142827500Y-29330000D01*
X141577500Y-38580000D02*
X141827500Y-38580000D01*
X141577500Y-35080000D02*
X141827500Y-35080000D01*
X140577500Y-52830000D02*
X138827500Y-52830000D01*
X140577500Y-47330000D02*
X142827500Y-47330000D01*
X140577500Y-47330000D02*
X140577500Y-52830000D01*
X140577500Y-38580000D02*
X141077500Y-38580000D01*
X140577500Y-35080000D02*
X141077500Y-35080000D01*
X140577500Y-26330000D02*
X142827500Y-26330000D01*
X140577500Y-26330000D02*
X140577500Y-20830000D01*
X139577500Y-38580000D02*
X140077500Y-38580000D01*
X139577500Y-35080000D02*
X140077500Y-35080000D01*
X139077500Y-38580000D02*
X138827500Y-38580000D01*
X139077500Y-35080000D02*
X138827500Y-35080000D01*
X138827500Y-52830000D02*
X138827500Y-20830000D01*
X138827500Y-20830000D02*
X140577500Y-20830000D01*
D13*
%TO.C,D7*%
X194357500Y-177482500D02*
X192897500Y-177482500D01*
X192897500Y-180252500D02*
X192897500Y-174712500D01*
X192897500Y-174712500D02*
X183657500Y-174712500D01*
X185247500Y-174712500D02*
X185247500Y-180252500D01*
X185127500Y-174712500D02*
X185127500Y-180252500D01*
X185007500Y-174712500D02*
X185007500Y-180252500D01*
X183657500Y-180252500D02*
X192897500Y-180252500D01*
X183657500Y-174712500D02*
X183657500Y-180252500D01*
X182197500Y-177482500D02*
X183657500Y-177482500D01*
%TO.C,C8*%
X33782500Y-42457500D02*
X33782500Y-24217500D01*
X26542500Y-42457500D02*
X33782500Y-42457500D01*
X26542500Y-42457500D02*
X26542500Y-24217500D01*
X26542500Y-24217500D02*
X33782500Y-24217500D01*
%TO.C,Q1*%
X202476000Y-121100000D02*
X197205000Y-121100000D01*
X202476000Y-114835000D02*
X197205000Y-114835000D01*
X202476000Y-111226000D02*
X197205000Y-111226000D01*
X202476000Y-104960000D02*
X202476000Y-121100000D01*
X202476000Y-104960000D02*
X197205000Y-104960000D01*
X197205000Y-104960000D02*
X197205000Y-121100000D01*
%TO.C,L5*%
X186725000Y-42227500D02*
X185215000Y-42227500D01*
X185215000Y-44347500D02*
X185215000Y-40107500D01*
X185215000Y-40107500D02*
X175475000Y-40107500D01*
X175475000Y-44347500D02*
X185215000Y-44347500D01*
X175475000Y-40107500D02*
X175475000Y-44347500D01*
X173965000Y-42227500D02*
X175475000Y-42227500D01*
%TO.C,C11*%
X33782500Y-109132500D02*
X33782500Y-90892500D01*
X26542500Y-109132500D02*
X33782500Y-109132500D01*
X26542500Y-109132500D02*
X26542500Y-90892500D01*
X26542500Y-90892500D02*
X33782500Y-90892500D01*
%TO.C,D9*%
X160505000Y-72635000D02*
X160505000Y-68395000D01*
X160505000Y-69235000D02*
X158265000Y-69235000D01*
X160505000Y-69115000D02*
X158265000Y-69115000D01*
X160505000Y-68995000D02*
X158265000Y-68995000D01*
X160505000Y-68395000D02*
X158265000Y-68395000D01*
X159385000Y-73285000D02*
X159385000Y-72635000D01*
X159385000Y-67745000D02*
X159385000Y-68395000D01*
X158265000Y-72635000D02*
X160505000Y-72635000D01*
X158265000Y-68395000D02*
X158265000Y-72635000D01*
%TO.C,D2*%
X195145000Y-77650000D02*
X195145000Y-72210000D01*
X195145000Y-73230000D02*
X192205000Y-73230000D01*
X195145000Y-73110000D02*
X192205000Y-73110000D01*
X195145000Y-72990000D02*
X192205000Y-72990000D01*
X195145000Y-72210000D02*
X192205000Y-72210000D01*
X193675000Y-78670000D02*
X193675000Y-77650000D01*
X193675000Y-71190000D02*
X193675000Y-72210000D01*
X192205000Y-77650000D02*
X195145000Y-77650000D01*
X192205000Y-72210000D02*
X192205000Y-77650000D01*
%TO.C,R1*%
X186520000Y-107632500D02*
X185410000Y-107632500D01*
X185410000Y-109552500D02*
X185410000Y-105712500D01*
X185410000Y-105712500D02*
X175270000Y-105712500D01*
X175270000Y-109552500D02*
X185410000Y-109552500D01*
X175270000Y-105712500D02*
X175270000Y-109552500D01*
X174160000Y-107632500D02*
X175270000Y-107632500D01*
%TO.C,D5*%
X186420000Y-49530000D02*
X184960000Y-49530000D01*
X184960000Y-52300000D02*
X184960000Y-46760000D01*
X184960000Y-46760000D02*
X175720000Y-46760000D01*
X177310000Y-46760000D02*
X177310000Y-52300000D01*
X177190000Y-46760000D02*
X177190000Y-52300000D01*
X177070000Y-46760000D02*
X177070000Y-52300000D01*
X175720000Y-52300000D02*
X184960000Y-52300000D01*
X175720000Y-46760000D02*
X175720000Y-52300000D01*
X174260000Y-49530000D02*
X175720000Y-49530000D01*
%TO.C,C9*%
X33782500Y-80557500D02*
X26542500Y-80557500D01*
X33782500Y-62317500D02*
X33782500Y-80557500D01*
X33782500Y-62317500D02*
X26542500Y-62317500D01*
X26542500Y-62317500D02*
X26542500Y-80557500D01*
%TO.C,C10*%
X33782500Y-128182500D02*
X33782500Y-109942500D01*
X26542500Y-128182500D02*
X33782500Y-128182500D01*
X26542500Y-128182500D02*
X26542500Y-109942500D01*
X26542500Y-109942500D02*
X33782500Y-109942500D01*
%TO.C,R4*%
X181265000Y-201002500D02*
X181265000Y-197162500D01*
X181265000Y-197162500D02*
X179425000Y-197162500D01*
X180345000Y-201952500D02*
X180345000Y-201002500D01*
X180345000Y-196212500D02*
X180345000Y-197162500D01*
X179425000Y-201002500D02*
X181265000Y-201002500D01*
X179425000Y-197162500D02*
X179425000Y-201002500D01*
%TO.C,R2*%
X186515000Y-69532500D02*
X185405000Y-69532500D01*
X185405000Y-71452500D02*
X185405000Y-67612500D01*
X185405000Y-67612500D02*
X175265000Y-67612500D01*
X175265000Y-71452500D02*
X185405000Y-71452500D01*
X175265000Y-67612500D02*
X175265000Y-71452500D01*
X174155000Y-69532500D02*
X175265000Y-69532500D01*
D11*
%TO.C,HS1*%
X136317500Y-44330000D02*
X136317500Y-52830000D01*
X136317500Y-29330000D02*
X136317500Y-20830000D01*
X134317500Y-52830000D02*
X136317500Y-52830000D01*
X134317500Y-47330000D02*
X134317500Y-52830000D01*
X134317500Y-26330000D02*
X134317500Y-20830000D01*
X134317500Y-20830000D02*
X136317500Y-20830000D01*
X132317500Y-52830000D02*
X132317500Y-47330000D01*
X132317500Y-47330000D02*
X134317500Y-47330000D01*
X132317500Y-26330000D02*
X134317500Y-26330000D01*
X132317500Y-26330000D02*
X132317500Y-20830000D01*
X130317500Y-52830000D02*
X132317500Y-52830000D01*
X130317500Y-47330000D02*
X130317500Y-52830000D01*
X130317500Y-26330000D02*
X130317500Y-20830000D01*
X130317500Y-20830000D02*
X132317500Y-20830000D01*
X128317500Y-52830000D02*
X128317500Y-47330000D01*
X128317500Y-47330000D02*
X130317500Y-47330000D01*
X128317500Y-44330000D02*
X136317500Y-44330000D01*
X128317500Y-29330000D02*
X136317500Y-29330000D01*
X128317500Y-26330000D02*
X130317500Y-26330000D01*
X128317500Y-26330000D02*
X128317500Y-20830000D01*
X126317500Y-52830000D02*
X128317500Y-52830000D01*
X126317500Y-47330000D02*
X126317500Y-52830000D01*
X126317500Y-26330000D02*
X126317500Y-20830000D01*
X126317500Y-20830000D02*
X128317500Y-20830000D01*
X125317500Y-44330000D02*
X126317500Y-44330000D01*
X125317500Y-44330000D02*
X125317500Y-29330000D01*
X125317500Y-29330000D02*
X126317500Y-29330000D01*
X125067500Y-38580000D02*
X125317500Y-38580000D01*
X125067500Y-35080000D02*
X125317500Y-35080000D01*
X124067500Y-52830000D02*
X122317500Y-52830000D01*
X124067500Y-47330000D02*
X126317500Y-47330000D01*
X124067500Y-47330000D02*
X124067500Y-52830000D01*
X124067500Y-38580000D02*
X124567500Y-38580000D01*
X124067500Y-35080000D02*
X124567500Y-35080000D01*
X124067500Y-26330000D02*
X126317500Y-26330000D01*
X124067500Y-26330000D02*
X124067500Y-20830000D01*
X123067500Y-38580000D02*
X123567500Y-38580000D01*
X123067500Y-35080000D02*
X123567500Y-35080000D01*
X122567500Y-38580000D02*
X122317500Y-38580000D01*
X122567500Y-35080000D02*
X122317500Y-35080000D01*
X122317500Y-52830000D02*
X122317500Y-20830000D01*
X122317500Y-20830000D02*
X124067500Y-20830000D01*
D13*
%TO.C,C6*%
X118690000Y-87930000D02*
X112450000Y-87930000D01*
X118690000Y-74690000D02*
X118690000Y-87930000D01*
X118690000Y-74690000D02*
X112450000Y-74690000D01*
X112450000Y-74690000D02*
X112450000Y-87930000D01*
D12*
%TO.C,U2*%
X124460000Y-213042500D02*
X107950000Y-213042500D01*
X124460000Y-114617500D02*
X124460000Y-213042500D01*
X124460000Y-114617500D02*
X107950000Y-114617500D01*
X120650000Y-187960000D02*
X115570000Y-187960000D01*
X120650000Y-126682500D02*
X120650000Y-187960000D01*
X120650000Y-116522500D02*
X115570000Y-116522500D01*
X120650000Y-114617500D02*
X120650000Y-213042500D01*
X115570000Y-200660000D02*
X120650000Y-200660000D01*
X115570000Y-187960000D02*
X115570000Y-200660000D01*
X115570000Y-126682500D02*
X120650000Y-126682500D01*
X115570000Y-116522500D02*
X115570000Y-126682500D01*
X107950000Y-142557500D02*
X107950000Y-213042500D01*
X107950000Y-142557500D02*
X97790000Y-142557500D01*
X107950000Y-128587500D02*
X107950000Y-114617500D01*
X97790000Y-142557500D02*
X97790000Y-128587500D01*
X97790000Y-128587500D02*
X107950000Y-128587500D01*
D13*
%TO.C,CR2*%
X146791000Y-41950000D02*
X146791000Y-31710000D01*
X143660000Y-41950000D02*
X143660000Y-31710000D01*
X142150000Y-41950000D02*
X146791000Y-41950000D01*
X142150000Y-41950000D02*
X142150000Y-31710000D01*
X142150000Y-38680000D02*
X143660000Y-38680000D01*
X142150000Y-34979000D02*
X143660000Y-34979000D01*
X142150000Y-31710000D02*
X146791000Y-31710000D01*
%TO.C,C12*%
X33782500Y-147232500D02*
X26542500Y-147232500D01*
X33782500Y-128992500D02*
X33782500Y-147232500D01*
X33782500Y-128992500D02*
X26542500Y-128992500D01*
X26542500Y-128992500D02*
X26542500Y-147232500D01*
%TO.C,D1*%
X195145000Y-115750000D02*
X195145000Y-110310000D01*
X195145000Y-111330000D02*
X192205000Y-111330000D01*
X195145000Y-111210000D02*
X192205000Y-111210000D01*
X195145000Y-111090000D02*
X192205000Y-111090000D01*
X195145000Y-110310000D02*
X192205000Y-110310000D01*
X193675000Y-116770000D02*
X193675000Y-115750000D01*
X193675000Y-109290000D02*
X193675000Y-110310000D01*
X192205000Y-115750000D02*
X195145000Y-115750000D01*
X192205000Y-110310000D02*
X192205000Y-115750000D01*
%TO.C,U4*%
X179190000Y-204212500D02*
X179190000Y-193932500D01*
X179190000Y-193932500D02*
X173870000Y-193932500D01*
X179130000Y-201722500D02*
X179130000Y-196422500D01*
X179130000Y-196422500D02*
X173930000Y-196422500D01*
X173930000Y-201722500D02*
X179130000Y-201722500D01*
X173930000Y-200072500D02*
X173930000Y-201722500D01*
X173930000Y-196422500D02*
X173930000Y-198072500D01*
X173870000Y-204212500D02*
X179190000Y-204212500D01*
X173870000Y-193932500D02*
X173870000Y-204212500D01*
%TO.C,R3*%
X186520000Y-31432500D02*
X185410000Y-31432500D01*
X185410000Y-33352500D02*
X185410000Y-29512500D01*
X185410000Y-29512500D02*
X175270000Y-29512500D01*
X175270000Y-33352500D02*
X185410000Y-33352500D01*
X175270000Y-29512500D02*
X175270000Y-33352500D01*
X174160000Y-31432500D02*
X175270000Y-31432500D01*
D11*
%TO.C,L11*%
X48577499Y-139065000D02*
G75*
G02*
X48577499Y-135255000I-3492499J1905000D01*
G01*
X37147501Y-135255000D02*
G75*
G02*
X37147501Y-139065000I7937499J-1905000D01*
G01*
D13*
%TO.C,C1*%
X173320000Y-130402500D02*
X173320000Y-122962500D01*
X169580000Y-130402500D02*
X173320000Y-130402500D01*
X169580000Y-130402500D02*
X169580000Y-122962500D01*
X169580000Y-122962500D02*
X173320000Y-122962500D01*
%TO.C,U1*%
X173930000Y-125682500D02*
G75*
G02*
X173930000Y-127682500I0J-1000000D01*
G01*
X184210000Y-129332500D02*
X184210000Y-124032500D01*
X184210000Y-124032500D02*
X173930000Y-124032500D01*
X173930000Y-129332500D02*
X184210000Y-129332500D01*
X173930000Y-127682500D02*
X173930000Y-129332500D01*
X173930000Y-124032500D02*
X173930000Y-125682500D01*
D11*
%TO.C,L9*%
X48577499Y-72390000D02*
G75*
G02*
X48577499Y-68580000I-3492499J1905000D01*
G01*
X37147501Y-68580000D02*
G75*
G02*
X37147501Y-72390000I7937499J-1905000D01*
G01*
D13*
%TO.C,D8*%
X160505000Y-101497500D02*
X160505000Y-97257500D01*
X160505000Y-98097500D02*
X158265000Y-98097500D01*
X160505000Y-97977500D02*
X158265000Y-97977500D01*
X160505000Y-97857500D02*
X158265000Y-97857500D01*
X160505000Y-97257500D02*
X158265000Y-97257500D01*
X159385000Y-102147500D02*
X159385000Y-101497500D01*
X159385000Y-96607500D02*
X159385000Y-97257500D01*
X158265000Y-101497500D02*
X160505000Y-101497500D01*
X158265000Y-97257500D02*
X158265000Y-101497500D01*
%TO.C,D6*%
X186420000Y-55880000D02*
X184960000Y-55880000D01*
X184960000Y-58650000D02*
X184960000Y-53110000D01*
X184960000Y-53110000D02*
X175720000Y-53110000D01*
X183610000Y-58650000D02*
X183610000Y-53110000D01*
X183490000Y-58650000D02*
X183490000Y-53110000D01*
X183370000Y-58650000D02*
X183370000Y-53110000D01*
X175720000Y-58650000D02*
X184960000Y-58650000D01*
X175720000Y-53110000D02*
X175720000Y-58650000D01*
X174260000Y-55880000D02*
X175720000Y-55880000D01*
%TO.C,L4*%
X186720000Y-74930000D02*
X185210000Y-74930000D01*
X185210000Y-77050000D02*
X185210000Y-72810000D01*
X185210000Y-72810000D02*
X175470000Y-72810000D01*
X175470000Y-77050000D02*
X185210000Y-77050000D01*
X175470000Y-72810000D02*
X175470000Y-77050000D01*
X173960000Y-74930000D02*
X175470000Y-74930000D01*
%TO.C,C2*%
X211864501Y-150177500D02*
G75*
G02*
X176624501Y-150177500I-17620000J0D01*
G01*
X176624501Y-150177500D02*
G75*
G02*
X211864501Y-150177500I17620000J0D01*
G01*
X211844501Y-149377500D02*
X211844501Y-150977500D01*
X211804501Y-148764500D02*
X211804501Y-151590500D01*
X211764501Y-148342500D02*
X211764501Y-152012500D01*
X211724501Y-148000500D02*
X211724501Y-152354500D01*
X211684501Y-147704500D02*
X211684501Y-152650500D01*
X211644501Y-147441500D02*
X211644501Y-152913500D01*
X211604501Y-147201500D02*
X211604501Y-153153500D01*
X211564501Y-146979500D02*
X211564501Y-153375500D01*
X211524501Y-146772500D02*
X211524501Y-153582500D01*
X211484501Y-146577500D02*
X211484501Y-153777500D01*
X211444501Y-146392500D02*
X211444501Y-153962500D01*
X211404501Y-146217500D02*
X211404501Y-154137500D01*
X211364501Y-146049500D02*
X211364501Y-154305500D01*
X211324501Y-145888500D02*
X211324501Y-154466500D01*
X211284501Y-145733500D02*
X211284501Y-154621500D01*
X211244501Y-145584500D02*
X211244501Y-154770500D01*
X211204501Y-145439500D02*
X211204501Y-154915500D01*
X211164501Y-145299500D02*
X211164501Y-155055500D01*
X211124501Y-145164500D02*
X211124501Y-155190500D01*
X211084501Y-145032500D02*
X211084501Y-155322500D01*
X211044501Y-144904500D02*
X211044501Y-155450500D01*
X211004501Y-144779500D02*
X211004501Y-155575500D01*
X210964501Y-144657500D02*
X210964501Y-155697500D01*
X210924501Y-144538500D02*
X210924501Y-155816500D01*
X210884501Y-144422500D02*
X210884501Y-155932500D01*
X210844501Y-144309500D02*
X210844501Y-156045500D01*
X210804501Y-144197500D02*
X210804501Y-156157500D01*
X210764501Y-144088500D02*
X210764501Y-156266500D01*
X210724501Y-143982500D02*
X210724501Y-156372500D01*
X210684501Y-143877500D02*
X210684501Y-156477500D01*
X210644501Y-143774500D02*
X210644501Y-156580500D01*
X210604501Y-143673500D02*
X210604501Y-156681500D01*
X210564501Y-143574500D02*
X210564501Y-156780500D01*
X210524501Y-143477500D02*
X210524501Y-156877500D01*
X210484501Y-143381500D02*
X210484501Y-156973500D01*
X210444501Y-143287500D02*
X210444501Y-157067500D01*
X210404501Y-143194500D02*
X210404501Y-157160500D01*
X210364501Y-143102500D02*
X210364501Y-157252500D01*
X210324501Y-143012500D02*
X210324501Y-157342500D01*
X210284501Y-142924500D02*
X210284501Y-157430500D01*
X210244501Y-142836500D02*
X210244501Y-157518500D01*
X210204501Y-142750500D02*
X210204501Y-157604500D01*
X210164501Y-142665500D02*
X210164501Y-157689500D01*
X210124501Y-142582500D02*
X210124501Y-157772500D01*
X210084501Y-142499500D02*
X210084501Y-157855500D01*
X210044501Y-142418500D02*
X210044501Y-157936500D01*
X210004501Y-142337500D02*
X210004501Y-158017500D01*
X209964501Y-142257500D02*
X209964501Y-158097500D01*
X209924501Y-142179500D02*
X209924501Y-158175500D01*
X209884501Y-142101500D02*
X209884501Y-158253500D01*
X209844501Y-142025500D02*
X209844501Y-158329500D01*
X209804501Y-141949500D02*
X209804501Y-158405500D01*
X209764501Y-141874500D02*
X209764501Y-158480500D01*
X209724501Y-141800500D02*
X209724501Y-158554500D01*
X209684501Y-141727500D02*
X209684501Y-158627500D01*
X209644501Y-141655500D02*
X209644501Y-158699500D01*
X209604501Y-141583500D02*
X209604501Y-158771500D01*
X209564501Y-141512500D02*
X209564501Y-158842500D01*
X209524501Y-141442500D02*
X209524501Y-158912500D01*
X209484501Y-141373500D02*
X209484501Y-158981500D01*
X209444501Y-141304500D02*
X209444501Y-159050500D01*
X209404501Y-141237500D02*
X209404501Y-159117500D01*
X209364501Y-141169500D02*
X209364501Y-159185500D01*
X209324501Y-141103500D02*
X209324501Y-159251500D01*
X209284501Y-141037500D02*
X209284501Y-159317500D01*
X209244501Y-140972500D02*
X209244501Y-159382500D01*
X209204501Y-140907500D02*
X209204501Y-159447500D01*
X209164501Y-140843500D02*
X209164501Y-159511500D01*
X209124501Y-140780500D02*
X209124501Y-159574500D01*
X209084501Y-140717500D02*
X209084501Y-159637500D01*
X209044501Y-140655500D02*
X209044501Y-159699500D01*
X209004501Y-140593500D02*
X209004501Y-159761500D01*
X208964501Y-140532500D02*
X208964501Y-159822500D01*
X208924501Y-140472500D02*
X208924501Y-159882500D01*
X208884501Y-140412500D02*
X208884501Y-159942500D01*
X208844501Y-140352500D02*
X208844501Y-160002500D01*
X208804501Y-140293500D02*
X208804501Y-160061500D01*
X208764501Y-140235500D02*
X208764501Y-160119500D01*
X208724501Y-140177500D02*
X208724501Y-160177500D01*
X208684501Y-140119500D02*
X208684501Y-160235500D01*
X208644501Y-140062500D02*
X208644501Y-160292500D01*
X208604501Y-140006500D02*
X208604501Y-160348500D01*
X208564501Y-139950500D02*
X208564501Y-160404500D01*
X208524501Y-139894500D02*
X208524501Y-160460500D01*
X208484501Y-139839500D02*
X208484501Y-160515500D01*
X208444501Y-139785500D02*
X208444501Y-160569500D01*
X208404501Y-139730500D02*
X208404501Y-160624500D01*
X208364501Y-139677500D02*
X208364501Y-160677500D01*
X208324501Y-139623500D02*
X208324501Y-160731500D01*
X208284501Y-139570500D02*
X208284501Y-160784500D01*
X208244501Y-139518500D02*
X208244501Y-160836500D01*
X208204501Y-139466500D02*
X208204501Y-160888500D01*
X208164501Y-139414500D02*
X208164501Y-160940500D01*
X208124501Y-139362500D02*
X208124501Y-160992500D01*
X208084501Y-139312500D02*
X208084501Y-161042500D01*
X208044501Y-139261500D02*
X208044501Y-161093500D01*
X208004501Y-139211500D02*
X208004501Y-161143500D01*
X207964501Y-139161500D02*
X207964501Y-161193500D01*
X207924501Y-139111500D02*
X207924501Y-161243500D01*
X207884501Y-139062500D02*
X207884501Y-161292500D01*
X207844501Y-139014500D02*
X207844501Y-161340500D01*
X207804501Y-138965500D02*
X207804501Y-161389500D01*
X207764501Y-138917500D02*
X207764501Y-161437500D01*
X207724501Y-138870500D02*
X207724501Y-161484500D01*
X207684501Y-138822500D02*
X207684501Y-161532500D01*
X207644501Y-138775500D02*
X207644501Y-161579500D01*
X207604501Y-138728500D02*
X207604501Y-161626500D01*
X207564501Y-138682500D02*
X207564501Y-161672500D01*
X207524501Y-138636500D02*
X207524501Y-161718500D01*
X207484501Y-138590500D02*
X207484501Y-161764500D01*
X207444501Y-138545500D02*
X207444501Y-161809500D01*
X207404501Y-138500500D02*
X207404501Y-161854500D01*
X207364501Y-138455500D02*
X207364501Y-161899500D01*
X207324501Y-138411500D02*
X207324501Y-161943500D01*
X207284501Y-138366500D02*
X207284501Y-161988500D01*
X207244501Y-138323500D02*
X207244501Y-162031500D01*
X207204501Y-138279500D02*
X207204501Y-162075500D01*
X207164501Y-138236500D02*
X207164501Y-162118500D01*
X207124501Y-138193500D02*
X207124501Y-162161500D01*
X207084501Y-138150500D02*
X207084501Y-162204500D01*
X207044501Y-138108500D02*
X207044501Y-162246500D01*
X207004501Y-138066500D02*
X207004501Y-162288500D01*
X206964501Y-138024500D02*
X206964501Y-162330500D01*
X206924501Y-137982500D02*
X206924501Y-162372500D01*
X206884501Y-137941500D02*
X206884501Y-162413500D01*
X206844501Y-137900500D02*
X206844501Y-162454500D01*
X206804501Y-137859500D02*
X206804501Y-162495500D01*
X206764501Y-137818500D02*
X206764501Y-162536500D01*
X206724501Y-137778500D02*
X206724501Y-162576500D01*
X206684501Y-137738500D02*
X206684501Y-162616500D01*
X206644501Y-137698500D02*
X206644501Y-162656500D01*
X206604501Y-137659500D02*
X206604501Y-162695500D01*
X206564501Y-137620500D02*
X206564501Y-162734500D01*
X206524501Y-137581500D02*
X206524501Y-162773500D01*
X206484501Y-137542500D02*
X206484501Y-162812500D01*
X206444501Y-137503500D02*
X206444501Y-162851500D01*
X206404501Y-137465500D02*
X206404501Y-162889500D01*
X206364501Y-137427500D02*
X206364501Y-162927500D01*
X206324501Y-137389500D02*
X206324501Y-162965500D01*
X206284501Y-137352500D02*
X206284501Y-163002500D01*
X206244501Y-137314500D02*
X206244501Y-163040500D01*
X206204501Y-137277500D02*
X206204501Y-163077500D01*
X206164501Y-137240500D02*
X206164501Y-163114500D01*
X206124501Y-137204500D02*
X206124501Y-163150500D01*
X206084501Y-137167500D02*
X206084501Y-163187500D01*
X206044501Y-137131500D02*
X206044501Y-163223500D01*
X206004501Y-137095500D02*
X206004501Y-163259500D01*
X205964501Y-137060500D02*
X205964501Y-163294500D01*
X205924501Y-137024500D02*
X205924501Y-163330500D01*
X205884501Y-136989500D02*
X205884501Y-163365500D01*
X205844501Y-136954500D02*
X205844501Y-163400500D01*
X205804501Y-136919500D02*
X205804501Y-163435500D01*
X205764501Y-136884500D02*
X205764501Y-163470500D01*
X205724501Y-136850500D02*
X205724501Y-163504500D01*
X205684501Y-136815500D02*
X205684501Y-163539500D01*
X205644501Y-136781500D02*
X205644501Y-163573500D01*
X205604501Y-136747500D02*
X205604501Y-163607500D01*
X205564501Y-136714500D02*
X205564501Y-163640500D01*
X205524501Y-136680500D02*
X205524501Y-163674500D01*
X205484501Y-136647500D02*
X205484501Y-163707500D01*
X205444501Y-136614500D02*
X205444501Y-163740500D01*
X205404501Y-136581500D02*
X205404501Y-163773500D01*
X205364501Y-136549500D02*
X205364501Y-163805500D01*
X205324501Y-136516500D02*
X205324501Y-163838500D01*
X205284501Y-136484500D02*
X205284501Y-163870500D01*
X205244501Y-136452500D02*
X205244501Y-163902500D01*
X205204501Y-136420500D02*
X205204501Y-163934500D01*
X205164501Y-136388500D02*
X205164501Y-163966500D01*
X205124501Y-136357500D02*
X205124501Y-163997500D01*
X205084501Y-136326500D02*
X205084501Y-164028500D01*
X205044501Y-136294500D02*
X205044501Y-164060500D01*
X205004501Y-136263500D02*
X205004501Y-164091500D01*
X204964501Y-136233500D02*
X204964501Y-164121500D01*
X204924501Y-136202500D02*
X204924501Y-164152500D01*
X204884501Y-136172500D02*
X204884501Y-164182500D01*
X204844501Y-136142500D02*
X204844501Y-164212500D01*
X204804501Y-136112500D02*
X204804501Y-164242500D01*
X204764501Y-136082500D02*
X204764501Y-164272500D01*
X204724501Y-136052500D02*
X204724501Y-164302500D01*
X204684501Y-136022500D02*
X204684501Y-164332500D01*
X204644501Y-135993500D02*
X204644501Y-164361500D01*
X204604501Y-135964500D02*
X204604501Y-164390500D01*
X204564501Y-135935500D02*
X204564501Y-164419500D01*
X204524501Y-135906500D02*
X204524501Y-164448500D01*
X204484501Y-135878500D02*
X204484501Y-164476500D01*
X204444501Y-135849500D02*
X204444501Y-164505500D01*
X204404501Y-135821500D02*
X204404501Y-164533500D01*
X204364501Y-135793500D02*
X204364501Y-164561500D01*
X204324501Y-135765500D02*
X204324501Y-164589500D01*
X204284501Y-135737500D02*
X204284501Y-164617500D01*
X204244501Y-135709500D02*
X204244501Y-164645500D01*
X204204501Y-135682500D02*
X204204501Y-164672500D01*
X204164501Y-135654500D02*
X204164501Y-164700500D01*
X204124501Y-135627500D02*
X204124501Y-164727500D01*
X204084501Y-135600500D02*
X204084501Y-164754500D01*
X204044501Y-135573500D02*
X204044501Y-164781500D01*
X204004501Y-135547500D02*
X204004501Y-164807500D01*
X203964501Y-135520500D02*
X203964501Y-164834500D01*
X203924501Y-135494500D02*
X203924501Y-164860500D01*
X203884501Y-135467500D02*
X203884501Y-164887500D01*
X203844501Y-135441500D02*
X203844501Y-164913500D01*
X203804501Y-135415500D02*
X203804501Y-164939500D01*
X203764501Y-135390500D02*
X203764501Y-164964500D01*
X203724501Y-135364500D02*
X203724501Y-164990500D01*
X203684501Y-135339500D02*
X203684501Y-165015500D01*
X203644501Y-135313500D02*
X203644501Y-165041500D01*
X203604501Y-135288500D02*
X203604501Y-165066500D01*
X203564501Y-135263500D02*
X203564501Y-165091500D01*
X203524501Y-135238500D02*
X203524501Y-165116500D01*
X203484501Y-135214500D02*
X203484501Y-165140500D01*
X203444501Y-135189500D02*
X203444501Y-165165500D01*
X203404501Y-135165500D02*
X203404501Y-165189500D01*
X203364501Y-135140500D02*
X203364501Y-165214500D01*
X203324501Y-135116500D02*
X203324501Y-165238500D01*
X203284501Y-135092500D02*
X203284501Y-165262500D01*
X203244501Y-135068500D02*
X203244501Y-165286500D01*
X203204501Y-135045500D02*
X203204501Y-165309500D01*
X203164501Y-135021500D02*
X203164501Y-165333500D01*
X203124501Y-134998500D02*
X203124501Y-165356500D01*
X203084501Y-134974500D02*
X203084501Y-165380500D01*
X203044501Y-134951500D02*
X203044501Y-165403500D01*
X203004501Y-134928500D02*
X203004501Y-165426500D01*
X202964501Y-134906500D02*
X202964501Y-165448500D01*
X202924501Y-134883500D02*
X202924501Y-165471500D01*
X202884501Y-134860500D02*
X202884501Y-165494500D01*
X202844501Y-134838500D02*
X202844501Y-165516500D01*
X202804501Y-134816500D02*
X202804501Y-165538500D01*
X202764501Y-134793500D02*
X202764501Y-165561500D01*
X202724501Y-134771500D02*
X202724501Y-165583500D01*
X202684501Y-134749500D02*
X202684501Y-165605500D01*
X202644501Y-134728500D02*
X202644501Y-165626500D01*
X202604501Y-134706500D02*
X202604501Y-165648500D01*
X202564501Y-134685500D02*
X202564501Y-165669500D01*
X202524501Y-134663500D02*
X202524501Y-165691500D01*
X202484501Y-134642500D02*
X202484501Y-165712500D01*
X202444501Y-134621500D02*
X202444501Y-165733500D01*
X202405501Y-134600500D02*
X202405501Y-165754500D01*
X202365501Y-134579500D02*
X202365501Y-165775500D01*
X202325501Y-134558500D02*
X202325501Y-165796500D01*
X202285501Y-134538500D02*
X202285501Y-165816500D01*
X202245501Y-134517500D02*
X202245501Y-165837500D01*
X202205501Y-134497500D02*
X202205501Y-165857500D01*
X202165501Y-134477500D02*
X202165501Y-165877500D01*
X202125501Y-134457500D02*
X202125501Y-165897500D01*
X202085501Y-134437500D02*
X202085501Y-165917500D01*
X202045501Y-134417500D02*
X202045501Y-165937500D01*
X202005501Y-134397500D02*
X202005501Y-165957500D01*
X201965501Y-134378500D02*
X201965501Y-165976500D01*
X201925501Y-134358500D02*
X201925501Y-165996500D01*
X201885501Y-134339500D02*
X201885501Y-166015500D01*
X201845501Y-134320500D02*
X201845501Y-166034500D01*
X201805501Y-134301500D02*
X201805501Y-166053500D01*
X201765501Y-134282500D02*
X201765501Y-166072500D01*
X201725501Y-134263500D02*
X201725501Y-166091500D01*
X201685501Y-134244500D02*
X201685501Y-166110500D01*
X201645501Y-134226500D02*
X201645501Y-166128500D01*
X201605501Y-134207500D02*
X201605501Y-166147500D01*
X201565501Y-134189500D02*
X201565501Y-166165500D01*
X201525501Y-134171500D02*
X201525501Y-166183500D01*
X201485501Y-134153500D02*
X201485501Y-166201500D01*
X201445501Y-152417500D02*
X201445501Y-166219500D01*
X201445501Y-134135500D02*
X201445501Y-147937500D01*
X201405501Y-152417500D02*
X201405501Y-166237500D01*
X201405501Y-134117500D02*
X201405501Y-147937500D01*
X201365501Y-152417500D02*
X201365501Y-166255500D01*
X201365501Y-134099500D02*
X201365501Y-147937500D01*
X201325501Y-152417500D02*
X201325501Y-166272500D01*
X201325501Y-134082500D02*
X201325501Y-147937500D01*
X201285501Y-152417500D02*
X201285501Y-166290500D01*
X201285501Y-134064500D02*
X201285501Y-147937500D01*
X201245501Y-152417500D02*
X201245501Y-166307500D01*
X201245501Y-134047500D02*
X201245501Y-147937500D01*
X201205501Y-152417500D02*
X201205501Y-166325500D01*
X201205501Y-134029500D02*
X201205501Y-147937500D01*
X201165501Y-152417500D02*
X201165501Y-166342500D01*
X201165501Y-134012500D02*
X201165501Y-147937500D01*
X201125501Y-152417500D02*
X201125501Y-166359500D01*
X201125501Y-133995500D02*
X201125501Y-147937500D01*
X201085501Y-152417500D02*
X201085501Y-166376500D01*
X201085501Y-133978500D02*
X201085501Y-147937500D01*
X201045501Y-152417500D02*
X201045501Y-166392500D01*
X201045501Y-133962500D02*
X201045501Y-147937500D01*
X201005501Y-152417500D02*
X201005501Y-166409500D01*
X201005501Y-133945500D02*
X201005501Y-147937500D01*
X200965501Y-152417500D02*
X200965501Y-166426500D01*
X200965501Y-133928500D02*
X200965501Y-147937500D01*
X200925501Y-152417500D02*
X200925501Y-166442500D01*
X200925501Y-133912500D02*
X200925501Y-147937500D01*
X200885501Y-152417500D02*
X200885501Y-166458500D01*
X200885501Y-133896500D02*
X200885501Y-147937500D01*
X200845501Y-152417500D02*
X200845501Y-166475500D01*
X200845501Y-133879500D02*
X200845501Y-147937500D01*
X200805501Y-152417500D02*
X200805501Y-166491500D01*
X200805501Y-133863500D02*
X200805501Y-147937500D01*
X200765501Y-152417500D02*
X200765501Y-166507500D01*
X200765501Y-133847500D02*
X200765501Y-147937500D01*
X200725501Y-152417500D02*
X200725501Y-166523500D01*
X200725501Y-133831500D02*
X200725501Y-147937500D01*
X200685501Y-152417500D02*
X200685501Y-166538500D01*
X200685501Y-133816500D02*
X200685501Y-147937500D01*
X200645501Y-152417500D02*
X200645501Y-166554500D01*
X200645501Y-133800500D02*
X200645501Y-147937500D01*
X200605501Y-152417500D02*
X200605501Y-166570500D01*
X200605501Y-133784500D02*
X200605501Y-147937500D01*
X200565501Y-152417500D02*
X200565501Y-166585500D01*
X200565501Y-133769500D02*
X200565501Y-147937500D01*
X200525501Y-152417500D02*
X200525501Y-166600500D01*
X200525501Y-133754500D02*
X200525501Y-147937500D01*
X200485501Y-152417500D02*
X200485501Y-166616500D01*
X200485501Y-133738500D02*
X200485501Y-147937500D01*
X200445501Y-152417500D02*
X200445501Y-166631500D01*
X200445501Y-133723500D02*
X200445501Y-147937500D01*
X200405501Y-152417500D02*
X200405501Y-166646500D01*
X200405501Y-133708500D02*
X200405501Y-147937500D01*
X200365501Y-152417500D02*
X200365501Y-166661500D01*
X200365501Y-133693500D02*
X200365501Y-147937500D01*
X200325501Y-152417500D02*
X200325501Y-166675500D01*
X200325501Y-133679500D02*
X200325501Y-147937500D01*
X200285501Y-152417500D02*
X200285501Y-166690500D01*
X200285501Y-133664500D02*
X200285501Y-147937500D01*
X200245501Y-152417500D02*
X200245501Y-166704500D01*
X200245501Y-133650500D02*
X200245501Y-147937500D01*
X200205501Y-152417500D02*
X200205501Y-166719500D01*
X200205501Y-133635500D02*
X200205501Y-147937500D01*
X200165501Y-152417500D02*
X200165501Y-166733500D01*
X200165501Y-133621500D02*
X200165501Y-147937500D01*
X200125501Y-152417500D02*
X200125501Y-166747500D01*
X200125501Y-133607500D02*
X200125501Y-147937500D01*
X200085501Y-152417500D02*
X200085501Y-166762500D01*
X200085501Y-133592500D02*
X200085501Y-147937500D01*
X200045501Y-152417500D02*
X200045501Y-166776500D01*
X200045501Y-133578500D02*
X200045501Y-147937500D01*
X200005501Y-152417500D02*
X200005501Y-166789500D01*
X200005501Y-133565500D02*
X200005501Y-147937500D01*
X199965501Y-152417500D02*
X199965501Y-166803500D01*
X199965501Y-133551500D02*
X199965501Y-147937500D01*
X199925501Y-152417500D02*
X199925501Y-166817500D01*
X199925501Y-133537500D02*
X199925501Y-147937500D01*
X199885501Y-152417500D02*
X199885501Y-166830500D01*
X199885501Y-133524500D02*
X199885501Y-147937500D01*
X199845501Y-152417500D02*
X199845501Y-166844500D01*
X199845501Y-133510500D02*
X199845501Y-147937500D01*
X199805501Y-152417500D02*
X199805501Y-166857500D01*
X199805501Y-133497500D02*
X199805501Y-147937500D01*
X199765501Y-152417500D02*
X199765501Y-166871500D01*
X199765501Y-133483500D02*
X199765501Y-147937500D01*
X199725501Y-152417500D02*
X199725501Y-166884500D01*
X199725501Y-133470500D02*
X199725501Y-147937500D01*
X199685501Y-152417500D02*
X199685501Y-166897500D01*
X199685501Y-133457500D02*
X199685501Y-147937500D01*
X199645501Y-152417500D02*
X199645501Y-166910500D01*
X199645501Y-133444500D02*
X199645501Y-147937500D01*
X199605501Y-152417500D02*
X199605501Y-166922500D01*
X199605501Y-133432500D02*
X199605501Y-147937500D01*
X199565501Y-152417500D02*
X199565501Y-166935500D01*
X199565501Y-133419500D02*
X199565501Y-147937500D01*
X199525501Y-152417500D02*
X199525501Y-166948500D01*
X199525501Y-133406500D02*
X199525501Y-147937500D01*
X199485501Y-152417500D02*
X199485501Y-166960500D01*
X199485501Y-133394500D02*
X199485501Y-147937500D01*
X199445501Y-152417500D02*
X199445501Y-166973500D01*
X199445501Y-133381500D02*
X199445501Y-147937500D01*
X199405501Y-152417500D02*
X199405501Y-166985500D01*
X199405501Y-133369500D02*
X199405501Y-147937500D01*
X199365501Y-152417500D02*
X199365501Y-166997500D01*
X199365501Y-133357500D02*
X199365501Y-147937500D01*
X199325501Y-152417500D02*
X199325501Y-167009500D01*
X199325501Y-133345500D02*
X199325501Y-147937500D01*
X199285501Y-152417500D02*
X199285501Y-167021500D01*
X199285501Y-133333500D02*
X199285501Y-147937500D01*
X199245501Y-152417500D02*
X199245501Y-167033500D01*
X199245501Y-133321500D02*
X199245501Y-147937500D01*
X199205501Y-152417500D02*
X199205501Y-167045500D01*
X199205501Y-133309500D02*
X199205501Y-147937500D01*
X199165501Y-152417500D02*
X199165501Y-167057500D01*
X199165501Y-133297500D02*
X199165501Y-147937500D01*
X199125501Y-152417500D02*
X199125501Y-167068500D01*
X199125501Y-133286500D02*
X199125501Y-147937500D01*
X199085501Y-152417500D02*
X199085501Y-167080500D01*
X199085501Y-133274500D02*
X199085501Y-147937500D01*
X199045501Y-152417500D02*
X199045501Y-167091500D01*
X199045501Y-133263500D02*
X199045501Y-147937500D01*
X199005501Y-152417500D02*
X199005501Y-167102500D01*
X199005501Y-133252500D02*
X199005501Y-147937500D01*
X198965501Y-152417500D02*
X198965501Y-167114500D01*
X198965501Y-133240500D02*
X198965501Y-147937500D01*
X198925501Y-152417500D02*
X198925501Y-167125500D01*
X198925501Y-133229500D02*
X198925501Y-147937500D01*
X198885501Y-152417500D02*
X198885501Y-167136500D01*
X198885501Y-133218500D02*
X198885501Y-147937500D01*
X198845501Y-152417500D02*
X198845501Y-167146500D01*
X198845501Y-133208500D02*
X198845501Y-147937500D01*
X198805501Y-152417500D02*
X198805501Y-167157500D01*
X198805501Y-133197500D02*
X198805501Y-147937500D01*
X198765501Y-152417500D02*
X198765501Y-167168500D01*
X198765501Y-133186500D02*
X198765501Y-147937500D01*
X198725501Y-152417500D02*
X198725501Y-167178500D01*
X198725501Y-133176500D02*
X198725501Y-147937500D01*
X198685501Y-152417500D02*
X198685501Y-167189500D01*
X198685501Y-133165500D02*
X198685501Y-147937500D01*
X198645501Y-152417500D02*
X198645501Y-167199500D01*
X198645501Y-133155500D02*
X198645501Y-147937500D01*
X198605501Y-152417500D02*
X198605501Y-167210500D01*
X198605501Y-133144500D02*
X198605501Y-147937500D01*
X198565501Y-152417500D02*
X198565501Y-167220500D01*
X198565501Y-133134500D02*
X198565501Y-147937500D01*
X198525501Y-152417500D02*
X198525501Y-167230500D01*
X198525501Y-133124500D02*
X198525501Y-147937500D01*
X198485501Y-152417500D02*
X198485501Y-167240500D01*
X198485501Y-133114500D02*
X198485501Y-147937500D01*
X198445501Y-152417500D02*
X198445501Y-167250500D01*
X198445501Y-133104500D02*
X198445501Y-147937500D01*
X198405501Y-152417500D02*
X198405501Y-167259500D01*
X198405501Y-133095500D02*
X198405501Y-147937500D01*
X198365501Y-152417500D02*
X198365501Y-167269500D01*
X198365501Y-133085500D02*
X198365501Y-147937500D01*
X198325501Y-152417500D02*
X198325501Y-167279500D01*
X198325501Y-133075500D02*
X198325501Y-147937500D01*
X198285501Y-152417500D02*
X198285501Y-167288500D01*
X198285501Y-133066500D02*
X198285501Y-147937500D01*
X198245501Y-152417500D02*
X198245501Y-167297500D01*
X198245501Y-133057500D02*
X198245501Y-147937500D01*
X198205501Y-152417500D02*
X198205501Y-167307500D01*
X198205501Y-133047500D02*
X198205501Y-147937500D01*
X198165501Y-152417500D02*
X198165501Y-167316500D01*
X198165501Y-133038500D02*
X198165501Y-147937500D01*
X198125501Y-152417500D02*
X198125501Y-167325500D01*
X198125501Y-133029500D02*
X198125501Y-147937500D01*
X198085501Y-152417500D02*
X198085501Y-167334500D01*
X198085501Y-133020500D02*
X198085501Y-147937500D01*
X198045501Y-152417500D02*
X198045501Y-167343500D01*
X198045501Y-133011500D02*
X198045501Y-147937500D01*
X198005501Y-152417500D02*
X198005501Y-167352500D01*
X198005501Y-133002500D02*
X198005501Y-147937500D01*
X197965501Y-152417500D02*
X197965501Y-167360500D01*
X197965501Y-132994500D02*
X197965501Y-147937500D01*
X197925501Y-152417500D02*
X197925501Y-167369500D01*
X197925501Y-132985500D02*
X197925501Y-147937500D01*
X197885501Y-152417500D02*
X197885501Y-167377500D01*
X197885501Y-132977500D02*
X197885501Y-147937500D01*
X197845501Y-152417500D02*
X197845501Y-167386500D01*
X197845501Y-132968500D02*
X197845501Y-147937500D01*
X197805501Y-152417500D02*
X197805501Y-167394500D01*
X197805501Y-132960500D02*
X197805501Y-147937500D01*
X197765501Y-152417500D02*
X197765501Y-167402500D01*
X197765501Y-132952500D02*
X197765501Y-147937500D01*
X197725501Y-152417500D02*
X197725501Y-167410500D01*
X197725501Y-132944500D02*
X197725501Y-147937500D01*
X197685501Y-152417500D02*
X197685501Y-167418500D01*
X197685501Y-132936500D02*
X197685501Y-147937500D01*
X197645501Y-152417500D02*
X197645501Y-167426500D01*
X197645501Y-132928500D02*
X197645501Y-147937500D01*
X197605501Y-152417500D02*
X197605501Y-167434500D01*
X197605501Y-132920500D02*
X197605501Y-147937500D01*
X197565501Y-152417500D02*
X197565501Y-167442500D01*
X197565501Y-132912500D02*
X197565501Y-147937500D01*
X197525501Y-152417500D02*
X197525501Y-167450500D01*
X197525501Y-132904500D02*
X197525501Y-147937500D01*
X197485501Y-152417500D02*
X197485501Y-167457500D01*
X197485501Y-132897500D02*
X197485501Y-147937500D01*
X197445501Y-152417500D02*
X197445501Y-167464500D01*
X197445501Y-132890500D02*
X197445501Y-147937500D01*
X197405501Y-152417500D02*
X197405501Y-167472500D01*
X197405501Y-132882500D02*
X197405501Y-147937500D01*
X197365501Y-152417500D02*
X197365501Y-167479500D01*
X197365501Y-132875500D02*
X197365501Y-147937500D01*
X197325501Y-152417500D02*
X197325501Y-167486500D01*
X197325501Y-132868500D02*
X197325501Y-147937500D01*
X197285501Y-152417500D02*
X197285501Y-167493500D01*
X197285501Y-132861500D02*
X197285501Y-147937500D01*
X197245501Y-152417500D02*
X197245501Y-167500500D01*
X197245501Y-132854500D02*
X197245501Y-147937500D01*
X197205501Y-152417500D02*
X197205501Y-167507500D01*
X197205501Y-132847500D02*
X197205501Y-147937500D01*
X197165501Y-152417500D02*
X197165501Y-167514500D01*
X197165501Y-132840500D02*
X197165501Y-147937500D01*
X197125501Y-152417500D02*
X197125501Y-167521500D01*
X197125501Y-132833500D02*
X197125501Y-147937500D01*
X197085501Y-152417500D02*
X197085501Y-167527500D01*
X197085501Y-132827500D02*
X197085501Y-147937500D01*
X197045501Y-152417500D02*
X197045501Y-167534500D01*
X197045501Y-132820500D02*
X197045501Y-147937500D01*
X197005501Y-152417500D02*
X197005501Y-167540500D01*
X197005501Y-132814500D02*
X197005501Y-147937500D01*
X196965501Y-132808500D02*
X196965501Y-167546500D01*
X196925501Y-132802500D02*
X196925501Y-167552500D01*
X196885501Y-132795500D02*
X196885501Y-167559500D01*
X196845501Y-132789500D02*
X196845501Y-167565500D01*
X196805501Y-132783500D02*
X196805501Y-167571500D01*
X196765501Y-132778500D02*
X196765501Y-167576500D01*
X196725501Y-132772500D02*
X196725501Y-167582500D01*
X196685501Y-132766500D02*
X196685501Y-167588500D01*
X196645501Y-132761500D02*
X196645501Y-167593500D01*
X196605501Y-132755500D02*
X196605501Y-167599500D01*
X196565501Y-132750500D02*
X196565501Y-167604500D01*
X196525501Y-132745500D02*
X196525501Y-167609500D01*
X196485501Y-132739500D02*
X196485501Y-167615500D01*
X196445501Y-132734500D02*
X196445501Y-167620500D01*
X196405501Y-132729500D02*
X196405501Y-167625500D01*
X196365501Y-132725500D02*
X196365501Y-167629500D01*
X196325501Y-132720500D02*
X196325501Y-167634500D01*
X196285501Y-132715500D02*
X196285501Y-167639500D01*
X196245501Y-132710500D02*
X196245501Y-167644500D01*
X196205501Y-132706500D02*
X196205501Y-167648500D01*
X196165501Y-132701500D02*
X196165501Y-167653500D01*
X196125501Y-132697500D02*
X196125501Y-167657500D01*
X196085501Y-132693500D02*
X196085501Y-167661500D01*
X196045501Y-132689500D02*
X196045501Y-167665500D01*
X196005501Y-132685500D02*
X196005501Y-167669500D01*
X195965501Y-132681500D02*
X195965501Y-167673500D01*
X195925501Y-132677500D02*
X195925501Y-167677500D01*
X195885501Y-132673500D02*
X195885501Y-167681500D01*
X195845501Y-132669500D02*
X195845501Y-167685500D01*
X195805501Y-132666500D02*
X195805501Y-167688500D01*
X195765501Y-132662500D02*
X195765501Y-167692500D01*
X195725501Y-132659500D02*
X195725501Y-167695500D01*
X195685501Y-132655500D02*
X195685501Y-167699500D01*
X195645501Y-132652500D02*
X195645501Y-167702500D01*
X195605501Y-132649500D02*
X195605501Y-167705500D01*
X195565501Y-132646500D02*
X195565501Y-167708500D01*
X195525501Y-132643500D02*
X195525501Y-167711500D01*
X195485501Y-132640500D02*
X195485501Y-167714500D01*
X195445501Y-132637500D02*
X195445501Y-167717500D01*
X195405501Y-132635500D02*
X195405501Y-167719500D01*
X195365501Y-132632500D02*
X195365501Y-167722500D01*
X195325501Y-132630500D02*
X195325501Y-167724500D01*
X195285501Y-132627500D02*
X195285501Y-167727500D01*
X195245501Y-132625500D02*
X195245501Y-167729500D01*
X195205501Y-132623500D02*
X195205501Y-167731500D01*
X195165501Y-132621500D02*
X195165501Y-167733500D01*
X195125501Y-132618500D02*
X195125501Y-167736500D01*
X195085501Y-132617500D02*
X195085501Y-167737500D01*
X195045501Y-132615500D02*
X195045501Y-167739500D01*
X195005501Y-132613500D02*
X195005501Y-167741500D01*
X194965501Y-132611500D02*
X194965501Y-167743500D01*
X194924501Y-132610500D02*
X194924501Y-167744500D01*
X194884501Y-132608500D02*
X194884501Y-167746500D01*
X194844501Y-132607500D02*
X194844501Y-167747500D01*
X194804501Y-132605500D02*
X194804501Y-167749500D01*
X194764501Y-132604500D02*
X194764501Y-167750500D01*
X194724501Y-132603500D02*
X194724501Y-167751500D01*
X194684501Y-132602500D02*
X194684501Y-167752500D01*
X194644501Y-132601500D02*
X194644501Y-167753500D01*
X194604501Y-132600500D02*
X194604501Y-167754500D01*
X194564501Y-132599500D02*
X194564501Y-167755500D01*
X194524501Y-132599500D02*
X194524501Y-167755500D01*
X194484501Y-132598500D02*
X194484501Y-167756500D01*
X194444501Y-132598500D02*
X194444501Y-167756500D01*
X194404501Y-132597500D02*
X194404501Y-167757500D01*
X194364501Y-132597500D02*
X194364501Y-167757500D01*
X194324501Y-132597500D02*
X194324501Y-167757500D01*
X194284501Y-132597500D02*
X194284501Y-167757500D01*
X194244501Y-132597500D02*
X194244501Y-167757500D01*
D11*
%TO.C,U3*%
X154940000Y-213042500D02*
X138430000Y-213042500D01*
X154940000Y-114617500D02*
X154940000Y-213042500D01*
X154940000Y-114617500D02*
X138430000Y-114617500D01*
X151130000Y-187960000D02*
X146050000Y-187960000D01*
X151130000Y-116522500D02*
X146050000Y-116522500D01*
X151130000Y-114617500D02*
X151130000Y-213042500D01*
X146050000Y-200660000D02*
X151130000Y-200660000D01*
X146050000Y-187960000D02*
X146050000Y-200660000D01*
X146050000Y-126682500D02*
X151130000Y-126682500D01*
X146050000Y-116522500D02*
X146050000Y-126682500D01*
X138430000Y-142875000D02*
X138430000Y-213042500D01*
X138430000Y-128587500D02*
X128270000Y-128587500D01*
X138430000Y-114617500D02*
X138430000Y-128587500D01*
X128270000Y-142875000D02*
X138430000Y-142875000D01*
X128270000Y-128587500D02*
X128270000Y-142875000D01*
D13*
%TO.C,J1*%
X167700000Y-173672500D02*
X167700000Y-211832500D01*
X167700000Y-171072500D02*
X167700000Y-172402500D01*
X166370000Y-171072500D02*
X167700000Y-171072500D01*
X162500000Y-211832500D02*
X167700000Y-211832500D01*
X162500000Y-171072500D02*
X165100000Y-171072500D01*
X162500000Y-171072500D02*
X162500000Y-211832500D01*
%TO.C,D3*%
X195145000Y-39550000D02*
X195145000Y-34110000D01*
X195145000Y-35130000D02*
X192205000Y-35130000D01*
X195145000Y-35010000D02*
X192205000Y-35010000D01*
X195145000Y-34890000D02*
X192205000Y-34890000D01*
X195145000Y-34110000D02*
X192205000Y-34110000D01*
X193675000Y-40570000D02*
X193675000Y-39550000D01*
X193675000Y-33090000D02*
X193675000Y-34110000D01*
X192205000Y-39550000D02*
X195145000Y-39550000D01*
X192205000Y-34110000D02*
X192205000Y-39550000D01*
%TO.C,C3*%
X173320000Y-154850000D02*
X173320000Y-147410000D01*
X169580000Y-154850000D02*
X173320000Y-154850000D01*
X169580000Y-154850000D02*
X169580000Y-147410000D01*
X169580000Y-147410000D02*
X173320000Y-147410000D01*
%TO.C,L3*%
X186720000Y-80327500D02*
X185210000Y-80327500D01*
X185210000Y-82447500D02*
X185210000Y-78207500D01*
X185210000Y-78207500D02*
X175470000Y-78207500D01*
X175470000Y-82447500D02*
X185210000Y-82447500D01*
X175470000Y-78207500D02*
X175470000Y-82447500D01*
X173960000Y-80327500D02*
X175470000Y-80327500D01*
%TO.C,CN-1-2*%
X201157500Y-213615001D02*
X200157500Y-213615001D01*
X201157500Y-198315001D02*
X201157500Y-213615001D01*
X200157500Y-213615001D02*
X200157500Y-198315001D01*
X200157500Y-213615001D02*
X190187500Y-213615001D01*
X193897500Y-213905001D02*
X197897500Y-213905001D01*
X190587500Y-211335001D02*
X190587500Y-208635001D01*
X190587500Y-208635001D02*
X190187500Y-208635001D01*
X190187500Y-213615001D02*
X190187500Y-211335001D01*
X190187500Y-211335001D02*
X190587500Y-211335001D01*
X190187500Y-208635001D02*
X190187500Y-198315001D01*
X190187500Y-198315001D02*
X201157500Y-198315001D01*
D10*
%TO.C,XF2*%
X85725000Y-119062500D02*
G75*
G02*
X62230000Y-119062500I-11747500J0D01*
G01*
X62230000Y-119062500D02*
G75*
G02*
X85725000Y-119062500I11747500J0D01*
G01*
X91757499Y-129222500D02*
G75*
G02*
X76517500Y-139382499I-17779999J10160000D01*
G01*
X76517500Y-98742501D02*
G75*
G02*
X91757499Y-108902500I-2540000J-20320000D01*
G01*
X62074826Y-135726243D02*
G75*
G02*
X62074826Y-102398757I11902674J16663743D01*
G01*
D13*
%TO.C,L6*%
X186725000Y-36830000D02*
X185215000Y-36830000D01*
X185215000Y-38950000D02*
X185215000Y-34710000D01*
X185215000Y-34710000D02*
X175475000Y-34710000D01*
X175475000Y-38950000D02*
X185215000Y-38950000D01*
X175475000Y-34710000D02*
X175475000Y-38950000D01*
X173965000Y-36830000D02*
X175475000Y-36830000D01*
D11*
%TO.C,L10*%
X48577499Y-102870000D02*
G75*
G02*
X48577499Y-99060000I-3492499J1905000D01*
G01*
X37147501Y-99060000D02*
G75*
G02*
X37147501Y-102870000I7937499J-1905000D01*
G01*
D13*
%TO.C,K1*%
X131562000Y-103207500D02*
G75*
G02*
X131308000Y-103207500I-127000J0D01*
G01*
X131308000Y-103207500D02*
G75*
G02*
X131562000Y-103207500I127000J0D01*
G01*
X157095000Y-110607500D02*
G75*
G02*
X156225000Y-111477500I-870000J0D01*
G01*
X156225000Y-91657500D02*
G75*
G02*
X157095000Y-92527500I0J-870000D01*
G01*
X147690998Y-98889503D02*
G75*
G02*
X147183203Y-99905766I2J-634997D01*
G01*
X147183200Y-101429233D02*
G75*
G02*
X147691000Y-102445500I507800J-381267D01*
G01*
X147182735Y-100667855D02*
G75*
G02*
X147183001Y-101429500I508265J-380645D01*
G01*
X147182734Y-99905856D02*
G75*
G02*
X147183001Y-100667500I508266J-380644D01*
G01*
X142895000Y-113107500D02*
G75*
G02*
X142025000Y-113977500I-870000J0D01*
G01*
X142895000Y-112127500D02*
G75*
G02*
X143545000Y-111477500I650000J0D01*
G01*
X138545000Y-91657500D02*
G75*
G02*
X137895000Y-91007500I0J650000D01*
G01*
X137025000Y-86357500D02*
G75*
G02*
X137895000Y-87227500I0J-870000D01*
G01*
X125945000Y-113977500D02*
G75*
G02*
X125075000Y-113107500I0J870000D01*
G01*
X125075000Y-87227500D02*
G75*
G02*
X125945000Y-86357500I870000J0D01*
G01*
X157095000Y-110607500D02*
X157095000Y-92527500D01*
X156225000Y-111477500D02*
X143545000Y-111477500D01*
X156225000Y-91657500D02*
X138545000Y-91657500D01*
X153025000Y-109567500D02*
X153025000Y-102953500D01*
X153025000Y-109567500D02*
X140071000Y-109567500D01*
X148961000Y-105772900D02*
X147691000Y-105772900D01*
X147691000Y-102445500D02*
X147691000Y-105772900D01*
X147691000Y-95562100D02*
X148961000Y-95562100D01*
X147690998Y-95562103D02*
X147690998Y-98889503D01*
X142895000Y-113107500D02*
X142895000Y-112127500D01*
X142025000Y-113977500D02*
X125945000Y-113977500D01*
X137895000Y-91007500D02*
X137895000Y-87227500D01*
X137025000Y-86357500D02*
X125945000Y-86357500D01*
X135285000Y-98889500D02*
X133721000Y-98889500D01*
X135285000Y-94063500D02*
X135285000Y-98889500D01*
X133721000Y-99651500D02*
X133721000Y-98127500D01*
X133721000Y-98127500D02*
X132705000Y-98889500D01*
X132705000Y-98889500D02*
X133721000Y-99651500D01*
X131435000Y-109567500D02*
X135499000Y-109567500D01*
X131435000Y-103207500D02*
X131435000Y-109567500D01*
X131435000Y-103207500D02*
X130215800Y-98635500D01*
X130165000Y-98889500D02*
X129149000Y-99651500D01*
X129149000Y-98889500D02*
X127685000Y-98889500D01*
X129149000Y-98127500D02*
X130165000Y-98889500D01*
X129149000Y-98127500D02*
X129149000Y-99651500D01*
X127685000Y-98889500D02*
X127685000Y-94063500D01*
X125075000Y-113107500D02*
X125075000Y-87227500D01*
%TO.C,C4*%
X173320000Y-144690000D02*
X169580000Y-144690000D01*
X173320000Y-137250000D02*
X173320000Y-144690000D01*
X173320000Y-137250000D02*
X169580000Y-137250000D01*
X169580000Y-137250000D02*
X169580000Y-144690000D01*
%TO.C,L7*%
X177697500Y-176007500D02*
X177697500Y-166267500D01*
X177697500Y-166267500D02*
X173457500Y-166267500D01*
X175577500Y-176247500D02*
X175577500Y-176007500D01*
X175577500Y-166027500D02*
X175577500Y-166267500D01*
X173457500Y-176007500D02*
X177697500Y-176007500D01*
X173457500Y-166267500D02*
X173457500Y-176007500D01*
%TO.C,L2*%
X186720000Y-113030000D02*
X185210000Y-113030000D01*
X185210000Y-115150000D02*
X185210000Y-110910000D01*
X185210000Y-110910000D02*
X175470000Y-110910000D01*
X175470000Y-115150000D02*
X185210000Y-115150000D01*
X175470000Y-110910000D02*
X175470000Y-115150000D01*
X173960000Y-113030000D02*
X175470000Y-113030000D01*
%TO.C,C5*%
X125070000Y-87930000D02*
X118830000Y-87930000D01*
X125070000Y-74690000D02*
X125070000Y-87930000D01*
X125070000Y-74690000D02*
X118830000Y-74690000D01*
X118830000Y-74690000D02*
X118830000Y-87930000D01*
D10*
%TO.C,XF1*%
X85725000Y-52387500D02*
G75*
G02*
X62230000Y-52387500I-11747500J0D01*
G01*
X62230000Y-52387500D02*
G75*
G02*
X85725000Y-52387500I11747500J0D01*
G01*
X91757499Y-62547500D02*
G75*
G02*
X76517500Y-72707499I-17779999J10160000D01*
G01*
X76517500Y-32067501D02*
G75*
G02*
X91757499Y-42227500I-2540000J-20320000D01*
G01*
X62074826Y-69051243D02*
G75*
G02*
X62074826Y-35723757I11902674J16663743D01*
G01*
D13*
%TO.C,D4*%
X186420000Y-62230000D02*
X184960000Y-62230000D01*
X184960000Y-65000000D02*
X184960000Y-59460000D01*
X184960000Y-59460000D02*
X175720000Y-59460000D01*
X183610000Y-65000000D02*
X183610000Y-59460000D01*
X183490000Y-65000000D02*
X183490000Y-59460000D01*
X183370000Y-65000000D02*
X183370000Y-59460000D01*
X175720000Y-65000000D02*
X184960000Y-65000000D01*
X175720000Y-59460000D02*
X175720000Y-65000000D01*
X174260000Y-62230000D02*
X175720000Y-62230000D01*
%TO.C,CN-1-1*%
X201157500Y-196470001D02*
X200157500Y-196470001D01*
X201157500Y-181170001D02*
X201157500Y-196470001D01*
X200157500Y-196470001D02*
X200157500Y-181170001D01*
X200157500Y-196470001D02*
X190187500Y-196470001D01*
X193897500Y-196760001D02*
X197897500Y-196760001D01*
X190587500Y-194190001D02*
X190587500Y-191490001D01*
X190587500Y-191490001D02*
X190187500Y-191490001D01*
X190187500Y-196470001D02*
X190187500Y-194190001D01*
X190187500Y-194190001D02*
X190587500Y-194190001D01*
X190187500Y-191490001D02*
X190187500Y-181170001D01*
X190187500Y-181170001D02*
X201157500Y-181170001D01*
%TO.C,C7*%
X33782500Y-61507500D02*
X26542500Y-61507500D01*
X33782500Y-43267500D02*
X33782500Y-61507500D01*
X33782500Y-43267500D02*
X26542500Y-43267500D01*
X26542500Y-43267500D02*
X26542500Y-61507500D01*
%TO.C,CN4*%
X24535000Y-128692500D02*
X13565000Y-128692500D01*
X24535000Y-114412500D02*
X24535000Y-128692500D01*
X24535000Y-111712500D02*
X24135000Y-111712500D01*
X24535000Y-109432500D02*
X24535000Y-111712500D01*
X24135000Y-114412500D02*
X24535000Y-114412500D01*
X24135000Y-111712500D02*
X24135000Y-114412500D01*
X20825000Y-109142500D02*
X16825000Y-109142500D01*
X14565000Y-109432500D02*
X24535000Y-109432500D01*
X14565000Y-109432500D02*
X14565000Y-128692500D01*
X13565000Y-128692500D02*
X13565000Y-109432500D01*
X13565000Y-109432500D02*
X14565000Y-109432500D01*
%TO.C,Q2*%
X202476000Y-83000000D02*
X197205000Y-83000000D01*
X202476000Y-76735000D02*
X197205000Y-76735000D01*
X202476000Y-73126000D02*
X197205000Y-73126000D01*
X202476000Y-66860000D02*
X202476000Y-83000000D01*
X202476000Y-66860000D02*
X197205000Y-66860000D01*
X197205000Y-66860000D02*
X197205000Y-83000000D01*
%TO.C,CR1*%
X130281000Y-41950000D02*
X130281000Y-31710000D01*
X127150000Y-41950000D02*
X127150000Y-31710000D01*
X125640000Y-41950000D02*
X130281000Y-41950000D01*
X125640000Y-41950000D02*
X125640000Y-31710000D01*
X125640000Y-38680000D02*
X127150000Y-38680000D01*
X125640000Y-34979000D02*
X127150000Y-34979000D01*
X125640000Y-31710000D02*
X130281000Y-31710000D01*
%TO.C,R5*%
X199537500Y-171132500D02*
X198687500Y-171132500D01*
X198687500Y-173752500D02*
X198687500Y-168512500D01*
X198687500Y-168512500D02*
X182947500Y-168512500D01*
X182947500Y-173752500D02*
X198687500Y-173752500D01*
X182947500Y-168512500D02*
X182947500Y-173752500D01*
X182097500Y-171132500D02*
X182947500Y-171132500D01*
%TO.C,CN5*%
X24535000Y-185057500D02*
X13565000Y-185057500D01*
X24535000Y-178697500D02*
X24535000Y-185057500D01*
X24535000Y-175997500D02*
X24135000Y-175997500D01*
X24535000Y-173717500D02*
X24535000Y-175997500D01*
X24135000Y-178697500D02*
X24535000Y-178697500D01*
X24135000Y-175997500D02*
X24135000Y-178697500D01*
X20825000Y-173427500D02*
X16825000Y-173427500D01*
X14565000Y-173717500D02*
X24535000Y-173717500D01*
X14565000Y-173717500D02*
X14565000Y-185057500D01*
X13565000Y-185057500D02*
X13565000Y-173717500D01*
X13565000Y-173717500D02*
X14565000Y-173717500D01*
%TO.C,K2*%
X131562000Y-74315000D02*
G75*
G02*
X131308000Y-74315000I-127000J0D01*
G01*
X131308000Y-74315000D02*
G75*
G02*
X131562000Y-74315000I127000J0D01*
G01*
X157095000Y-81715000D02*
G75*
G02*
X156225000Y-82585000I-870000J0D01*
G01*
X156225000Y-62765000D02*
G75*
G02*
X157095000Y-63635000I0J-870000D01*
G01*
X147690998Y-69997003D02*
G75*
G02*
X147183203Y-71013266I2J-634997D01*
G01*
X147183200Y-72536733D02*
G75*
G02*
X147691000Y-73553000I507800J-381267D01*
G01*
X147182735Y-71775355D02*
G75*
G02*
X147183001Y-72537000I508265J-380645D01*
G01*
X147182734Y-71013356D02*
G75*
G02*
X147183001Y-71775000I508266J-380644D01*
G01*
X142895000Y-84215000D02*
G75*
G02*
X142025000Y-85085000I-870000J0D01*
G01*
X142895000Y-83235000D02*
G75*
G02*
X143545000Y-82585000I650000J0D01*
G01*
X138545000Y-62765000D02*
G75*
G02*
X137895000Y-62115000I0J650000D01*
G01*
X137025000Y-57465000D02*
G75*
G02*
X137895000Y-58335000I0J-870000D01*
G01*
X125945000Y-85085000D02*
G75*
G02*
X125075000Y-84215000I0J870000D01*
G01*
X125075000Y-58335000D02*
G75*
G02*
X125945000Y-57465000I870000J0D01*
G01*
X157095000Y-81715000D02*
X157095000Y-63635000D01*
X156225000Y-82585000D02*
X143545000Y-82585000D01*
X156225000Y-62765000D02*
X138545000Y-62765000D01*
X153025000Y-80675000D02*
X153025000Y-74061000D01*
X153025000Y-80675000D02*
X140071000Y-80675000D01*
X148961000Y-76880400D02*
X147691000Y-76880400D01*
X147691000Y-73553000D02*
X147691000Y-76880400D01*
X147691000Y-66669600D02*
X148961000Y-66669600D01*
X147690998Y-66669603D02*
X147690998Y-69997003D01*
X142895000Y-84215000D02*
X142895000Y-83235000D01*
X142025000Y-85085000D02*
X125945000Y-85085000D01*
X137895000Y-62115000D02*
X137895000Y-58335000D01*
X137025000Y-57465000D02*
X125945000Y-57465000D01*
X135285000Y-69997000D02*
X133721000Y-69997000D01*
X135285000Y-65171000D02*
X135285000Y-69997000D01*
X133721000Y-70759000D02*
X133721000Y-69235000D01*
X133721000Y-69235000D02*
X132705000Y-69997000D01*
X132705000Y-69997000D02*
X133721000Y-70759000D01*
X131435000Y-80675000D02*
X135499000Y-80675000D01*
X131435000Y-74315000D02*
X131435000Y-80675000D01*
X131435000Y-74315000D02*
X130215800Y-69743000D01*
X130165000Y-69997000D02*
X129149000Y-70759000D01*
X129149000Y-69997000D02*
X127685000Y-69997000D01*
X129149000Y-69235000D02*
X130165000Y-69997000D01*
X129149000Y-69235000D02*
X129149000Y-70759000D01*
X127685000Y-69997000D02*
X127685000Y-65171000D01*
X125075000Y-84215000D02*
X125075000Y-58335000D01*
%TD*%
M02*
