  0
SECTION
  2
HEADER
  9
$ANGBASE
  50
0.0
  9
$ANGDIR
  70
1
  9
$MEASUREMENT
  70
1
  9
$INSUNITS
  70
4
  0
ENDSEC
  0
SECTION
  2
TABLES
  0
TABLE
  2
LTYPE
  70
4
  0
LTYPE
  5
40F
  2
CONTINUOUS
  70
0
  3
Solid line
  72
65
  73
0
  40
0.0
  0
LTYPE
  5
410
  2
DASHDOT
 70
0
  3
Dash Dot ____ _ ____ _
 72
65
 73
4
 40
2.0
 49
1.25
 49
-0.25
 49
0.25
 49
-0.25
  0
LTYPE
  5
411
  2
DASHED
 70
0
  3
Dashed __ __ __ __ __
 72
65
 73
2
 40
0.75
 49
0.5
 49
-0.25
  0
LTYPE
  5
43B
  2
DOTTED
 70
0
  3
Dotted .  .  .  .
 72
65
 73
2
 40
0.2
 49
0.0
 49
-0.2
  0
ENDTAB
  0
TABLE
  2
STYLE
  70
4
  0
STYLE
  2
KICAD
  70
0
  40
0
  41
1
  42
1
  50
0
  71
0
  3
isocp.shx
  0
STYLE
  2
KICADB
  70
0
  40
0
  41
1
  42
1
  50
0
  71
0
  3
isocp.shx
  0
STYLE
  2
KICADI
  70
0
  40
0
  41
1
  42
1
  50
15
  71
0
  3
isocp.shx
  0
STYLE
  2
KICADBI
  70
0
  40
0
  41
1
  42
1
  50
15
  71
0
  3
isocp.shx
  0
ENDTAB
  0
TABLE
  2
LAYER
  70
3
  0
LAYER
  2
F.Cu
  70
0
  62
11
  420
14377611
  6
CONTINUOUS
  0
LAYER
  2
B.Cu
  70
0
  62
9
  420
10986950
  6
CONTINUOUS
  0
LAYER
  2
Edge.Cuts
  70
0
  62
250
  420
16777215
  6
CONTINUOUS
  0
ENDTAB
  0
ENDSEC
  0
SECTION
  2
ENTITIES
0
LINE
8
Edge.Cuts
6
CONTINUOUS
10
73.0249999999999915
20
-146.0499999999999829
11
73.0249999999999915
21
-114.2999999999999972
0
LINE
8
Edge.Cuts
6
CONTINUOUS
10
171.4499999999999886
20
-114.2999999999999972
11
73.0249999999999915
21
-114.2999999999999972
0
LINE
8
Edge.Cuts
6
CONTINUOUS
10
171.4499999999999886
20
-114.2999999999999972
11
171.4499999999999886
21
-146.0499999999999829
0
LINE
8
Edge.Cuts
6
CONTINUOUS
10
171.4499999999999886
20
-146.0499999999999829
11
73.0249999999999915
21
-146.0499999999999829
0
CIRCLE
8
Edge.Cuts
10
160.8137499999999989
20
-128.9050000000000011
40
0.175
0
CIRCLE
8
Edge.Cuts
10
150.6537500000000023
20
-128.9050000000000011
40
0.175
0
CIRCLE
8
Edge.Cuts
10
160.8137499999999989
20
-122.5549999999999926
40
0.175
0
CIRCLE
8
Edge.Cuts
10
150.6537500000000023
20
-122.5549999999999926
40
0.175
0
CIRCLE
8
Edge.Cuts
10
85.7249999999999943
20
-141.6049999999999898
40
0.175
0
CIRCLE
8
Edge.Cuts
10
83.1850000000000023
20
-141.6049999999999898
40
0.175
0
CIRCLE
8
Edge.Cuts
10
80.644999999999996
20
-141.6049999999999898
40
0.175
0
CIRCLE
8
Edge.Cuts
10
78.1049999999999898
20
-141.6049999999999898
40
0.175
0
CIRCLE
8
Edge.Cuts
10
145.5737499999999898
20
-133.9849999999999852
40
0.175
0
CIRCLE
8
Edge.Cuts
10
165.8937499999999829
20
-133.9849999999999852
40
0.175
0
CIRCLE
8
Edge.Cuts
10
145.5737499999999898
20
-117.4749999999999943
40
0.175
0
CIRCLE
8
Edge.Cuts
10
165.8937499999999829
20
-117.4749999999999943
40
0.175
0
CIRCLE
8
Edge.Cuts
10
160.8137499999999989
20
-141.6049999999999898
40
0.175
0
CIRCLE
8
Edge.Cuts
10
158.2737500000000068
20
-141.6049999999999898
40
0.175
0
CIRCLE
8
Edge.Cuts
10
155.7337499999999864
20
-141.6049999999999898
40
0.175
0
CIRCLE
8
Edge.Cuts
10
153.1937499999999943
20
-141.6049999999999898
40
0.175
0
CIRCLE
8
Edge.Cuts
10
150.6537500000000023
20
-141.6049999999999898
40
0.175
0
CIRCLE
8
Edge.Cuts
10
120.8746649999999931
20
-132.0732329999999877
40
0.175
0
CIRCLE
8
Edge.Cuts
10
119.0786139999999875
20
-130.2771809999999846
40
0.175
0
CIRCLE
8
Edge.Cuts
10
133.3338860000000068
20
-130.3903190000000052
40
0.175
0
CIRCLE
8
Edge.Cuts
10
131.5378350000000012
20
-128.5942670000000021
40
0.175
0
CIRCLE
8
Edge.Cuts
10
126.1496810000000011
20
-123.2061139999999995
40
0.175
0
CIRCLE
8
Edge.Cuts
10
127.9457329999999899
20
-125.0021649999999909
40
0.175
0
CIRCLE
8
Edge.Cuts
10
124.4667669999999902
20
-135.6653349999999989
40
0.175
0
CIRCLE
8
Edge.Cuts
10
126.2628189999999933
20
-137.4613860000000045
40
0.175
0
CIRCLE
8
Edge.Cuts
10
82.5499999999999972
20
-125.4074999999999989
40
0.175
0
CIRCLE
8
Edge.Cuts
10
80.0099999999999909
20
-125.4074999999999989
40
0.175
0
CIRCLE
8
Edge.Cuts
10
77.4699999999999989
20
-125.4074999999999989
40
0.175
  0
ENDSEC
  0
EOF
