  0
SECTION
  2
HEADER
  9
$ANGBASE
  50
0.0
  9
$ANGDIR
  70
1
  9
$MEASUREMENT
  70
1
  0
ENDSEC
  0
SECTION
  2
TABLES
  0
TABLE
  2
LTYPE
  70
4
  0
LTYPE
  5
40F
  2
CONTINUOUS
  70
0
  3
Solid line
  72
65
  73
0
  40
0.0
  0
LTYPE
  5
410
  2
DASHDOT
 70
0
  3
Dash Dot ____ _ ____ _
 72
65
 73
4
 40
2.0
 49
1.25
 49
-0.25
 49
0.25
 49
-0.25
  0
LTYPE
  5
411
  2
DASHED
 70
0
  3
Dashed __ __ __ __ __
 72
65
 73
2
 40
0.75
 49
0.5
 49
-0.25
  0
LTYPE
  5
43B
  2
DOTTED
 70
0
  3
Dotted .  .  .  .
 72
65
 73
2
 40
0.2
 49
0.0
 49
-0.2
  0
ENDTAB
  0
TABLE
  2
STYLE
  70
4
  0
STYLE
  2
KICAD
  70
0
  40
0
  41
1
  42
1
  50
0
  71
0
  3
isocp.shx
  0
STYLE
  2
KICADB
  70
0
  40
0
  41
1
  42
1
  50
0
  71
0
  3
isocp.shx
  0
STYLE
  2
KICADI
  70
0
  40
0
  41
1
  42
1
  50
15
  71
0
  3
isocp.shx
  0
STYLE
  2
KICADBI
  70
0
  40
0
  41
1
  42
1
  50
15
  71
0
  3
isocp.shx
  0
ENDTAB
  0
TABLE
  2
LAYER
  70
1
  0
LAYER
  2
BLACK
  70
0
  62
7
  6
CONTINUOUS
  0
ENDTAB
  0
ENDSEC
  0
SECTION
  2
ENTITIES
0
LINE
8
BLACK
6
CONTINUOUS
10
95.25
20
-50.7999999999999972
11
124.7774999999999892
21
-50.7999999999999972
0
LINE
8
BLACK
6
CONTINUOUS
10
124.7774999999999892
20
-75.2475000000000023
11
95.25
21
-75.2475000000000023
0
LINE
8
BLACK
6
CONTINUOUS
10
95.25
20
-50.7999999999999972
11
95.25
21
-75.2475000000000023
0
LINE
8
BLACK
6
CONTINUOUS
10
124.7774999999999892
20
-75.2475000000000023
11
124.7774999999999892
21
-50.7999999999999972
0
LINE
8
BLACK
6
CONTINUOUS
10
105.7037499999999994
20
-62.8412499999999952
11
106.7037499999999994
21
-63.8412499999999952
0
LINE
8
BLACK
6
CONTINUOUS
10
106.7037499999999994
20
-62.8412499999999952
11
105.7037499999999994
21
-63.8412499999999952
0
LINE
8
BLACK
6
CONTINUOUS
10
105.7037499999999994
20
-71.7312500000000028
11
106.7037499999999994
21
-72.7312500000000028
0
LINE
8
BLACK
6
CONTINUOUS
10
106.7037499999999994
20
-71.7312500000000028
11
105.7037499999999994
21
-72.7312500000000028
0
LINE
8
BLACK
6
CONTINUOUS
10
114.59375
20
-58.3962499999999949
11
115.59375
21
-59.3962499999999949
0
LINE
8
BLACK
6
CONTINUOUS
10
115.59375
20
-58.3962499999999949
11
114.59375
21
-59.3962499999999949
0
LINE
8
BLACK
6
CONTINUOUS
10
114.59375
20
-67.2862499999999955
11
115.59375
21
-68.2862499999999955
0
LINE
8
BLACK
6
CONTINUOUS
10
115.59375
20
-67.2862499999999955
11
114.59375
21
-68.2862499999999955
0
CIRCLE
8
BLACK
10
118.1099999999999994
20
-60.6425009999999958
40
0.5
0
CIRCLE
8
BLACK
10
118.1099999999999994
20
-63.1825009999999949
40
0.5
0
CIRCLE
8
BLACK
10
118.1099999999999994
20
-65.7224999999999966
40
0.5
0
CIRCLE
8
BLACK
10
118.1099999999999994
20
-68.2625010000000003
40
0.5
0
CIRCLE
8
BLACK
10
118.1099999999999994
20
-70.8025009999999924
40
0.5
0
CIRCLE
8
BLACK
10
120.6499999999999915
20
-60.6425009999999958
40
0.5
0
CIRCLE
8
BLACK
10
120.6499999999999915
20
-63.1825009999999949
40
0.5
0
CIRCLE
8
BLACK
10
120.6499999999999915
20
-65.7225009999999941
40
0.5
0
CIRCLE
8
BLACK
10
120.6499999999999915
20
-68.2625010000000003
40
0.5
0
CIRCLE
8
BLACK
10
120.6499999999999915
20
-70.8025009999999924
40
0.5
0
LINE
8
BLACK
6
CONTINUOUS
10
97.857767999999993
20
-78.3623379999999941
11
97.857767999999993
21
-76.3623379999999941
0
LINE
8
BLACK
6
CONTINUOUS
10
97.857767999999993
20
-76.3623379999999941
11
98.3339579999999955
21
-76.3623379999999941
0
LINE
8
BLACK
6
CONTINUOUS
10
98.3339579999999955
20
-76.3623379999999941
11
98.6196729999999917
21
-76.4575760000000031
0
LINE
8
BLACK
6
CONTINUOUS
10
98.6196729999999917
20
-76.4575760000000031
11
98.8101489999999956
21
-76.6480519999999927
0
LINE
8
BLACK
6
CONTINUOUS
10
98.8101489999999956
20
-76.6480519999999927
11
98.9053869999999904
21
-76.8385279999999966
0
LINE
8
BLACK
6
CONTINUOUS
10
98.9053869999999904
20
-76.8385279999999966
11
99.0006249999999994
21
-77.2194799999999901
0
LINE
8
BLACK
6
CONTINUOUS
10
99.0006249999999994
20
-77.2194799999999901
11
99.0006249999999994
21
-77.5051950000000005
0
LINE
8
BLACK
6
CONTINUOUS
10
99.0006249999999994
20
-77.5051950000000005
11
98.9053869999999904
21
-77.886146999999994
0
LINE
8
BLACK
6
CONTINUOUS
10
98.9053869999999904
20
-77.886146999999994
11
98.8101489999999956
21
-78.0766229999999979
0
LINE
8
BLACK
6
CONTINUOUS
10
98.8101489999999956
20
-78.0766229999999979
11
98.6196729999999917
21
-78.2670999999999992
0
LINE
8
BLACK
6
CONTINUOUS
10
98.6196729999999917
20
-78.2670999999999992
11
98.3339579999999955
21
-78.3623379999999941
0
LINE
8
BLACK
6
CONTINUOUS
10
98.3339579999999955
20
-78.3623379999999941
11
97.857767999999993
21
-78.3623379999999941
0
LINE
8
BLACK
6
CONTINUOUS
10
99.857767999999993
20
-78.3623379999999941
11
99.857767999999993
21
-77.0290040000000005
0
LINE
8
BLACK
6
CONTINUOUS
10
99.857767999999993
20
-77.4099569999999915
11
99.953006000000002
21
-77.2194799999999901
0
LINE
8
BLACK
6
CONTINUOUS
10
99.953006000000002
20
-77.2194799999999901
11
100.0482439999999968
21
-77.1242419999999953
0
LINE
8
BLACK
6
CONTINUOUS
10
100.0482439999999968
20
-77.1242419999999953
11
100.2387200000000007
21
-77.0290040000000005
0
LINE
8
BLACK
6
CONTINUOUS
10
100.2387200000000007
20
-77.0290040000000005
11
100.429197000000002
21
-77.0290040000000005
0
LINE
8
BLACK
6
CONTINUOUS
10
101.0958629999999943
20
-78.3623379999999941
11
101.0958629999999943
21
-77.0290040000000005
0
LINE
8
BLACK
6
CONTINUOUS
10
101.0958629999999943
20
-76.3623379999999941
11
101.0006249999999994
21
-76.4575760000000031
0
LINE
8
BLACK
6
CONTINUOUS
10
101.0006249999999994
20
-76.4575760000000031
11
101.0958629999999943
21
-76.5528139999999979
0
LINE
8
BLACK
6
CONTINUOUS
10
101.0958629999999943
20
-76.5528139999999979
11
101.1911009999999891
21
-76.4575760000000031
0
LINE
8
BLACK
6
CONTINUOUS
10
101.1911009999999891
20
-76.4575760000000031
11
101.0958629999999943
21
-76.3623379999999941
0
LINE
8
BLACK
6
CONTINUOUS
10
101.0958629999999943
20
-76.3623379999999941
11
101.0958629999999943
21
-76.5528139999999979
0
LINE
8
BLACK
6
CONTINUOUS
10
102.3339579999999955
20
-78.3623379999999941
11
102.1434819999999917
21
-78.2670999999999992
0
LINE
8
BLACK
6
CONTINUOUS
10
102.1434819999999917
20
-78.2670999999999992
11
102.0482439999999968
21
-78.0766229999999979
0
LINE
8
BLACK
6
CONTINUOUS
10
102.0482439999999968
20
-78.0766229999999979
11
102.0482439999999968
21
-76.3623379999999941
0
LINE
8
BLACK
6
CONTINUOUS
10
103.3815769999999929
20
-78.3623379999999941
11
103.1911009999999891
21
-78.2670999999999992
0
LINE
8
BLACK
6
CONTINUOUS
10
103.1911009999999891
20
-78.2670999999999992
11
103.0958629999999943
21
-78.0766229999999979
0
LINE
8
BLACK
6
CONTINUOUS
10
103.0958629999999943
20
-78.0766229999999979
11
103.0958629999999943
21
-76.3623379999999941
0
LINE
8
BLACK
6
CONTINUOUS
10
105.6672919999999891
20
-78.3623379999999941
11
105.6672919999999891
21
-76.3623379999999941
0
LINE
8
BLACK
6
CONTINUOUS
10
105.6672919999999891
20
-76.3623379999999941
11
106.333958999999993
21
-77.7909089999999992
0
LINE
8
BLACK
6
CONTINUOUS
10
106.333958999999993
20
-77.7909089999999992
11
107.0006249999999994
21
-76.3623379999999941
0
LINE
8
BLACK
6
CONTINUOUS
10
107.0006249999999994
20
-76.3623379999999941
11
107.0006249999999994
21
-78.3623379999999941
0
LINE
8
BLACK
6
CONTINUOUS
10
108.8101489999999956
20
-78.3623379999999941
11
108.8101489999999956
21
-77.3147189999999966
0
LINE
8
BLACK
6
CONTINUOUS
10
108.8101489999999956
20
-77.3147189999999966
11
108.7149110000000007
21
-77.1242419999999953
0
LINE
8
BLACK
6
CONTINUOUS
10
108.7149110000000007
20
-77.1242419999999953
11
108.5244349999999969
21
-77.0290040000000005
0
LINE
8
BLACK
6
CONTINUOUS
10
108.5244349999999969
20
-77.0290040000000005
11
108.1434819999999917
21
-77.0290040000000005
0
LINE
8
BLACK
6
CONTINUOUS
10
108.1434819999999917
20
-77.0290040000000005
11
107.953006000000002
21
-77.1242419999999953
0
LINE
8
BLACK
6
CONTINUOUS
10
108.8101489999999956
20
-78.2670999999999992
11
108.6196729999999917
21
-78.3623379999999941
0
LINE
8
BLACK
6
CONTINUOUS
10
108.6196729999999917
20
-78.3623379999999941
11
108.1434819999999917
21
-78.3623379999999941
0
LINE
8
BLACK
6
CONTINUOUS
10
108.1434819999999917
20
-78.3623379999999941
11
107.953006000000002
21
-78.2670999999999992
0
LINE
8
BLACK
6
CONTINUOUS
10
107.953006000000002
20
-78.2670999999999992
11
107.857767999999993
21
-78.0766229999999979
0
LINE
8
BLACK
6
CONTINUOUS
10
107.857767999999993
20
-78.0766229999999979
11
107.857767999999993
21
-77.886146999999994
0
LINE
8
BLACK
6
CONTINUOUS
10
107.857767999999993
20
-77.886146999999994
11
107.953006000000002
21
-77.6956709999999902
0
LINE
8
BLACK
6
CONTINUOUS
10
107.953006000000002
20
-77.6956709999999902
11
108.1434819999999917
21
-77.6004329999999953
0
LINE
8
BLACK
6
CONTINUOUS
10
108.1434819999999917
20
-77.6004329999999953
11
108.6196729999999917
21
-77.6004329999999953
0
LINE
8
BLACK
6
CONTINUOUS
10
108.6196729999999917
20
-77.6004329999999953
11
108.8101489999999956
21
-77.5051950000000005
0
LINE
8
BLACK
6
CONTINUOUS
10
109.7625299999999982
20
-77.0290040000000005
11
109.7625299999999982
21
-79.0290040000000005
0
LINE
8
BLACK
6
CONTINUOUS
10
109.7625299999999982
20
-77.1242419999999953
11
109.953006000000002
21
-77.0290040000000005
0
LINE
8
BLACK
6
CONTINUOUS
10
109.953006000000002
20
-77.0290040000000005
11
110.333958999999993
21
-77.0290040000000005
0
LINE
8
BLACK
6
CONTINUOUS
10
110.333958999999993
20
-77.0290040000000005
11
110.5244349999999969
21
-77.1242419999999953
0
LINE
8
BLACK
6
CONTINUOUS
10
110.5244349999999969
20
-77.1242419999999953
11
110.6196729999999917
21
-77.2194799999999901
0
LINE
8
BLACK
6
CONTINUOUS
10
110.6196729999999917
20
-77.2194799999999901
11
110.7149110000000007
21
-77.4099569999999915
0
LINE
8
BLACK
6
CONTINUOUS
10
110.7149110000000007
20
-77.4099569999999915
11
110.7149110000000007
21
-77.9813850000000031
0
LINE
8
BLACK
6
CONTINUOUS
10
110.7149110000000007
20
-77.9813850000000031
11
110.6196729999999917
21
-78.1718609999999927
0
LINE
8
BLACK
6
CONTINUOUS
10
110.6196729999999917
20
-78.1718609999999927
11
110.5244349999999969
21
-78.2670999999999992
0
LINE
8
BLACK
6
CONTINUOUS
10
110.5244349999999969
20
-78.2670999999999992
11
110.333958999999993
21
-78.3623379999999941
0
LINE
8
BLACK
6
CONTINUOUS
10
110.333958999999993
20
-78.3623379999999941
11
109.953006000000002
21
-78.3623379999999941
0
LINE
8
BLACK
6
CONTINUOUS
10
109.953006000000002
20
-78.3623379999999941
11
109.7625299999999982
21
-78.2670999999999992
0
LINE
8
BLACK
6
CONTINUOUS
10
111.5720539999999943
20
-78.1718609999999927
11
111.6672919999999891
21
-78.2670999999999992
0
LINE
8
BLACK
6
CONTINUOUS
10
111.6672919999999891
20
-78.2670999999999992
11
111.5720539999999943
21
-78.3623379999999941
0
LINE
8
BLACK
6
CONTINUOUS
10
111.5720539999999943
20
-78.3623379999999941
11
111.4768159999999995
21
-78.2670999999999992
0
LINE
8
BLACK
6
CONTINUOUS
10
111.4768159999999995
20
-78.2670999999999992
11
111.5720539999999943
21
-78.1718609999999927
0
LINE
8
BLACK
6
CONTINUOUS
10
111.5720539999999943
20
-78.1718609999999927
11
111.5720539999999943
21
-78.3623379999999941
0
LINE
8
BLACK
6
CONTINUOUS
10
111.5720539999999943
20
-77.1242419999999953
11
111.6672919999999891
21
-77.2194799999999901
0
LINE
8
BLACK
6
CONTINUOUS
10
111.6672919999999891
20
-77.2194799999999901
11
111.5720539999999943
21
-77.3147189999999966
0
LINE
8
BLACK
6
CONTINUOUS
10
111.5720539999999943
20
-77.3147189999999966
11
111.4768159999999995
21
-77.2194799999999901
0
LINE
8
BLACK
6
CONTINUOUS
10
111.4768159999999995
20
-77.2194799999999901
11
111.5720539999999943
21
-77.1242419999999953
0
LINE
8
BLACK
6
CONTINUOUS
10
111.5720539999999943
20
-77.1242419999999953
11
111.5720539999999943
21
-77.3147189999999966
0
LINE
8
BLACK
6
CONTINUOUS
10
94.25
20
-81.1474999999999937
11
95.25
21
-82.1474999999999937
0
LINE
8
BLACK
6
CONTINUOUS
10
95.25
20
-81.1474999999999937
11
94.25
21
-82.1474999999999937
0
LINE
8
BLACK
6
CONTINUOUS
10
98.9053869999999904
20
-82.5623379999999969
11
97.7625299999999982
21
-82.5623379999999969
0
LINE
8
BLACK
6
CONTINUOUS
10
98.3339579999999955
20
-82.5623379999999969
11
98.3339579999999955
21
-80.5623379999999969
0
LINE
8
BLACK
6
CONTINUOUS
10
98.3339579999999955
20
-80.5623379999999969
11
98.1434819999999917
21
-80.8480519999999956
0
LINE
8
BLACK
6
CONTINUOUS
10
98.1434819999999917
20
-80.8480519999999956
11
97.953006000000002
21
-81.0385279999999995
0
LINE
8
BLACK
6
CONTINUOUS
10
97.953006000000002
20
-81.0385279999999995
11
97.7625299999999982
21
-81.1337659999999943
0
LINE
8
BLACK
6
CONTINUOUS
10
99.7625299999999982
20
-82.3718609999999956
11
99.857767999999993
21
-82.4671000000000021
0
LINE
8
BLACK
6
CONTINUOUS
10
99.857767999999993
20
-82.4671000000000021
11
99.7625299999999982
21
-82.5623379999999969
0
LINE
8
BLACK
6
CONTINUOUS
10
99.7625299999999982
20
-82.5623379999999969
11
99.6672919999999891
21
-82.4671000000000021
0
LINE
8
BLACK
6
CONTINUOUS
10
99.6672919999999891
20
-82.4671000000000021
11
99.7625299999999982
21
-82.3718609999999956
0
LINE
8
BLACK
6
CONTINUOUS
10
99.7625299999999982
20
-82.3718609999999956
11
99.7625299999999982
21
-82.5623379999999969
0
LINE
8
BLACK
6
CONTINUOUS
10
101.0958629999999943
20
-80.5623379999999969
11
101.2863399999999956
21
-80.5623379999999969
0
LINE
8
BLACK
6
CONTINUOUS
10
101.2863399999999956
20
-80.5623379999999969
11
101.4768159999999995
21
-80.6575759999999917
0
LINE
8
BLACK
6
CONTINUOUS
10
101.4768159999999995
20
-80.6575759999999917
11
101.5720539999999943
21
-80.7528140000000008
0
LINE
8
BLACK
6
CONTINUOUS
10
101.5720539999999943
20
-80.7528140000000008
11
101.6672919999999891
21
-80.9432899999999904
0
LINE
8
BLACK
6
CONTINUOUS
10
101.6672919999999891
20
-80.9432899999999904
11
101.7625299999999982
21
-81.3242419999999981
0
LINE
8
BLACK
6
CONTINUOUS
10
101.7625299999999982
20
-81.3242419999999981
11
101.7625299999999982
21
-81.8004329999999982
0
LINE
8
BLACK
6
CONTINUOUS
10
101.7625299999999982
20
-81.8004329999999982
11
101.6672919999999891
21
-82.1813849999999917
0
LINE
8
BLACK
6
CONTINUOUS
10
101.6672919999999891
20
-82.1813849999999917
11
101.5720539999999943
21
-82.3718609999999956
0
LINE
8
BLACK
6
CONTINUOUS
10
101.5720539999999943
20
-82.3718609999999956
11
101.4768159999999995
21
-82.4671000000000021
0
LINE
8
BLACK
6
CONTINUOUS
10
101.4768159999999995
20
-82.4671000000000021
11
101.2863399999999956
21
-82.5623379999999969
0
LINE
8
BLACK
6
CONTINUOUS
10
101.2863399999999956
20
-82.5623379999999969
11
101.0958629999999943
21
-82.5623379999999969
0
LINE
8
BLACK
6
CONTINUOUS
10
101.0958629999999943
20
-82.5623379999999969
11
100.9053869999999904
21
-82.4671000000000021
0
LINE
8
BLACK
6
CONTINUOUS
10
100.9053869999999904
20
-82.4671000000000021
11
100.8101489999999956
21
-82.3718609999999956
0
LINE
8
BLACK
6
CONTINUOUS
10
100.8101489999999956
20
-82.3718609999999956
11
100.7149110000000007
21
-82.1813849999999917
0
LINE
8
BLACK
6
CONTINUOUS
10
100.7149110000000007
20
-82.1813849999999917
11
100.6196729999999917
21
-81.8004329999999982
0
LINE
8
BLACK
6
CONTINUOUS
10
100.6196729999999917
20
-81.8004329999999982
11
100.6196729999999917
21
-81.3242419999999981
0
LINE
8
BLACK
6
CONTINUOUS
10
100.6196729999999917
20
-81.3242419999999981
11
100.7149110000000007
21
-80.9432899999999904
0
LINE
8
BLACK
6
CONTINUOUS
10
100.7149110000000007
20
-80.9432899999999904
11
100.8101489999999956
21
-80.7528140000000008
0
LINE
8
BLACK
6
CONTINUOUS
10
100.8101489999999956
20
-80.7528140000000008
11
100.9053869999999904
21
-80.6575759999999917
0
LINE
8
BLACK
6
CONTINUOUS
10
100.9053869999999904
20
-80.6575759999999917
11
101.0958629999999943
21
-80.5623379999999969
0
LINE
8
BLACK
6
CONTINUOUS
10
103.0006249999999994
20
-80.5623379999999969
11
103.1911020000000008
21
-80.5623379999999969
0
LINE
8
BLACK
6
CONTINUOUS
10
103.1911020000000008
20
-80.5623379999999969
11
103.3815779999999904
21
-80.6575759999999917
0
LINE
8
BLACK
6
CONTINUOUS
10
103.3815779999999904
20
-80.6575759999999917
11
103.4768159999999995
21
-80.7528140000000008
0
LINE
8
BLACK
6
CONTINUOUS
10
103.4768159999999995
20
-80.7528140000000008
11
103.5720539999999943
21
-80.9432899999999904
0
LINE
8
BLACK
6
CONTINUOUS
10
103.5720539999999943
20
-80.9432899999999904
11
103.6672919999999891
21
-81.3242419999999981
0
LINE
8
BLACK
6
CONTINUOUS
10
103.6672919999999891
20
-81.3242419999999981
11
103.6672919999999891
21
-81.8004329999999982
0
LINE
8
BLACK
6
CONTINUOUS
10
103.6672919999999891
20
-81.8004329999999982
11
103.5720539999999943
21
-82.1813849999999917
0
LINE
8
BLACK
6
CONTINUOUS
10
103.5720539999999943
20
-82.1813849999999917
11
103.4768159999999995
21
-82.3718609999999956
0
LINE
8
BLACK
6
CONTINUOUS
10
103.4768159999999995
20
-82.3718609999999956
11
103.3815779999999904
21
-82.4671000000000021
0
LINE
8
BLACK
6
CONTINUOUS
10
103.3815779999999904
20
-82.4671000000000021
11
103.1911020000000008
21
-82.5623379999999969
0
LINE
8
BLACK
6
CONTINUOUS
10
103.1911020000000008
20
-82.5623379999999969
11
103.0006249999999994
21
-82.5623379999999969
0
LINE
8
BLACK
6
CONTINUOUS
10
103.0006249999999994
20
-82.5623379999999969
11
102.8101489999999956
21
-82.4671000000000021
0
LINE
8
BLACK
6
CONTINUOUS
10
102.8101489999999956
20
-82.4671000000000021
11
102.7149110000000007
21
-82.3718609999999956
0
LINE
8
BLACK
6
CONTINUOUS
10
102.7149110000000007
20
-82.3718609999999956
11
102.6196729999999917
21
-82.1813849999999917
0
LINE
8
BLACK
6
CONTINUOUS
10
102.6196729999999917
20
-82.1813849999999917
11
102.5244349999999969
21
-81.8004329999999982
0
LINE
8
BLACK
6
CONTINUOUS
10
102.5244349999999969
20
-81.8004329999999982
11
102.5244349999999969
21
-81.3242419999999981
0
LINE
8
BLACK
6
CONTINUOUS
10
102.5244349999999969
20
-81.3242419999999981
11
102.6196729999999917
21
-80.9432899999999904
0
LINE
8
BLACK
6
CONTINUOUS
10
102.6196729999999917
20
-80.9432899999999904
11
102.7149110000000007
21
-80.7528140000000008
0
LINE
8
BLACK
6
CONTINUOUS
10
102.7149110000000007
20
-80.7528140000000008
11
102.8101489999999956
21
-80.6575759999999917
0
LINE
8
BLACK
6
CONTINUOUS
10
102.8101489999999956
20
-80.6575759999999917
11
103.0006249999999994
21
-80.5623379999999969
0
LINE
8
BLACK
6
CONTINUOUS
10
104.9053869999999904
20
-80.5623379999999969
11
105.0958639999999917
21
-80.5623379999999969
0
LINE
8
BLACK
6
CONTINUOUS
10
105.0958639999999917
20
-80.5623379999999969
11
105.2863399999999956
21
-80.6575759999999917
0
LINE
8
BLACK
6
CONTINUOUS
10
105.2863399999999956
20
-80.6575759999999917
11
105.3815779999999904
21
-80.7528140000000008
0
LINE
8
BLACK
6
CONTINUOUS
10
105.3815779999999904
20
-80.7528140000000008
11
105.4768159999999995
21
-80.9432899999999904
0
LINE
8
BLACK
6
CONTINUOUS
10
105.4768159999999995
20
-80.9432899999999904
11
105.5720539999999943
21
-81.3242419999999981
0
LINE
8
BLACK
6
CONTINUOUS
10
105.5720539999999943
20
-81.3242419999999981
11
105.5720539999999943
21
-81.8004329999999982
0
LINE
8
BLACK
6
CONTINUOUS
10
105.5720539999999943
20
-81.8004329999999982
11
105.4768159999999995
21
-82.1813849999999917
0
LINE
8
BLACK
6
CONTINUOUS
10
105.4768159999999995
20
-82.1813849999999917
11
105.3815779999999904
21
-82.3718609999999956
0
LINE
8
BLACK
6
CONTINUOUS
10
105.3815779999999904
20
-82.3718609999999956
11
105.2863399999999956
21
-82.4671000000000021
0
LINE
8
BLACK
6
CONTINUOUS
10
105.2863399999999956
20
-82.4671000000000021
11
105.0958639999999917
21
-82.5623379999999969
0
LINE
8
BLACK
6
CONTINUOUS
10
105.0958639999999917
20
-82.5623379999999969
11
104.9053869999999904
21
-82.5623379999999969
0
LINE
8
BLACK
6
CONTINUOUS
10
104.9053869999999904
20
-82.5623379999999969
11
104.7149110000000007
21
-82.4671000000000021
0
LINE
8
BLACK
6
CONTINUOUS
10
104.7149110000000007
20
-82.4671000000000021
11
104.6196729999999917
21
-82.3718609999999956
0
LINE
8
BLACK
6
CONTINUOUS
10
104.6196729999999917
20
-82.3718609999999956
11
104.5244349999999969
21
-82.1813849999999917
0
LINE
8
BLACK
6
CONTINUOUS
10
104.5244349999999969
20
-82.1813849999999917
11
104.429197000000002
21
-81.8004329999999982
0
LINE
8
BLACK
6
CONTINUOUS
10
104.429197000000002
20
-81.8004329999999982
11
104.429197000000002
21
-81.3242419999999981
0
LINE
8
BLACK
6
CONTINUOUS
10
104.429197000000002
20
-81.3242419999999981
11
104.5244349999999969
21
-80.9432899999999904
0
LINE
8
BLACK
6
CONTINUOUS
10
104.5244349999999969
20
-80.9432899999999904
11
104.6196729999999917
21
-80.7528140000000008
0
LINE
8
BLACK
6
CONTINUOUS
10
104.6196729999999917
20
-80.7528140000000008
11
104.7149110000000007
21
-80.6575759999999917
0
LINE
8
BLACK
6
CONTINUOUS
10
104.7149110000000007
20
-80.6575759999999917
11
104.9053869999999904
21
-80.5623379999999969
0
LINE
8
BLACK
6
CONTINUOUS
10
106.429197000000002
20
-82.5623379999999969
11
106.429197000000002
21
-81.2290040000000033
0
LINE
8
BLACK
6
CONTINUOUS
10
106.429197000000002
20
-81.419479999999993
11
106.5244349999999969
21
-81.3242419999999981
0
LINE
8
BLACK
6
CONTINUOUS
10
106.5244349999999969
20
-81.3242419999999981
11
106.7149110000000007
21
-81.2290040000000033
0
LINE
8
BLACK
6
CONTINUOUS
10
106.7149110000000007
20
-81.2290040000000033
11
107.0006259999999969
21
-81.2290040000000033
0
LINE
8
BLACK
6
CONTINUOUS
10
107.0006259999999969
20
-81.2290040000000033
11
107.1911020000000008
21
-81.3242419999999981
0
LINE
8
BLACK
6
CONTINUOUS
10
107.1911020000000008
20
-81.3242419999999981
11
107.2863399999999956
21
-81.5147189999999995
0
LINE
8
BLACK
6
CONTINUOUS
10
107.2863399999999956
20
-81.5147189999999995
11
107.2863399999999956
21
-82.5623379999999969
0
LINE
8
BLACK
6
CONTINUOUS
10
107.2863399999999956
20
-81.5147189999999995
11
107.3815779999999904
21
-81.3242419999999981
0
LINE
8
BLACK
6
CONTINUOUS
10
107.3815779999999904
20
-81.3242419999999981
11
107.5720539999999943
21
-81.2290040000000033
0
LINE
8
BLACK
6
CONTINUOUS
10
107.5720539999999943
20
-81.2290040000000033
11
107.857767999999993
21
-81.2290040000000033
0
LINE
8
BLACK
6
CONTINUOUS
10
107.857767999999993
20
-81.2290040000000033
11
108.0482449999999943
21
-81.3242419999999981
0
LINE
8
BLACK
6
CONTINUOUS
10
108.0482449999999943
20
-81.3242419999999981
11
108.1434829999999891
21
-81.5147189999999995
0
LINE
8
BLACK
6
CONTINUOUS
10
108.1434829999999891
20
-81.5147189999999995
11
108.1434829999999891
21
-82.5623379999999969
0
LINE
8
BLACK
6
CONTINUOUS
10
109.0958639999999917
20
-82.5623379999999969
11
109.0958639999999917
21
-81.2290040000000033
0
LINE
8
BLACK
6
CONTINUOUS
10
109.0958639999999917
20
-81.419479999999993
11
109.1911020000000008
21
-81.3242419999999981
0
LINE
8
BLACK
6
CONTINUOUS
10
109.1911020000000008
20
-81.3242419999999981
11
109.3815779999999904
21
-81.2290040000000033
0
LINE
8
BLACK
6
CONTINUOUS
10
109.3815779999999904
20
-81.2290040000000033
11
109.6672930000000008
21
-81.2290040000000033
0
LINE
8
BLACK
6
CONTINUOUS
10
109.6672930000000008
20
-81.2290040000000033
11
109.8577689999999905
21
-81.3242419999999981
0
LINE
8
BLACK
6
CONTINUOUS
10
109.8577689999999905
20
-81.3242419999999981
11
109.9530069999999995
21
-81.5147189999999995
0
LINE
8
BLACK
6
CONTINUOUS
10
109.9530069999999995
20
-81.5147189999999995
11
109.9530069999999995
21
-82.5623379999999969
0
LINE
8
BLACK
6
CONTINUOUS
10
109.9530069999999995
20
-81.5147189999999995
11
110.0482449999999943
21
-81.3242419999999981
0
LINE
8
BLACK
6
CONTINUOUS
10
110.0482449999999943
20
-81.3242419999999981
11
110.2387209999999982
21
-81.2290040000000033
0
LINE
8
BLACK
6
CONTINUOUS
10
110.2387209999999982
20
-81.2290040000000033
11
110.5244349999999969
21
-81.2290040000000033
0
LINE
8
BLACK
6
CONTINUOUS
10
110.5244349999999969
20
-81.2290040000000033
11
110.7149119999999982
21
-81.3242419999999981
0
LINE
8
BLACK
6
CONTINUOUS
10
110.7149119999999982
20
-81.3242419999999981
11
110.810149999999993
21
-81.5147189999999995
0
LINE
8
BLACK
6
CONTINUOUS
10
110.810149999999993
20
-81.5147189999999995
11
110.810149999999993
21
-82.5623379999999969
0
LINE
8
BLACK
6
CONTINUOUS
10
114.7149119999999982
20
-80.4671000000000021
11
113.0006269999999944
21
-83.0385279999999995
0
LINE
8
BLACK
6
CONTINUOUS
10
117.2863409999999931
20
-80.5623379999999969
11
117.4768179999999944
21
-80.5623379999999969
0
LINE
8
BLACK
6
CONTINUOUS
10
117.4768179999999944
20
-80.5623379999999969
11
117.6672939999999983
21
-80.6575759999999917
0
LINE
8
BLACK
6
CONTINUOUS
10
117.6672939999999983
20
-80.6575759999999917
11
117.7625319999999931
21
-80.7528140000000008
0
LINE
8
BLACK
6
CONTINUOUS
10
117.7625319999999931
20
-80.7528140000000008
11
117.8577699999999879
21
-80.9432899999999904
0
LINE
8
BLACK
6
CONTINUOUS
10
117.8577699999999879
20
-80.9432899999999904
11
117.953007999999997
21
-81.3242419999999981
0
LINE
8
BLACK
6
CONTINUOUS
10
117.953007999999997
20
-81.3242419999999981
11
117.953007999999997
21
-81.8004329999999982
0
LINE
8
BLACK
6
CONTINUOUS
10
117.953007999999997
20
-81.8004329999999982
11
117.8577699999999879
21
-82.1813849999999917
0
LINE
8
BLACK
6
CONTINUOUS
10
117.8577699999999879
20
-82.1813849999999917
11
117.7625319999999931
21
-82.3718609999999956
0
LINE
8
BLACK
6
CONTINUOUS
10
117.7625319999999931
20
-82.3718609999999956
11
117.6672939999999983
21
-82.4671000000000021
0
LINE
8
BLACK
6
CONTINUOUS
10
117.6672939999999983
20
-82.4671000000000021
11
117.4768179999999944
21
-82.5623379999999969
0
LINE
8
BLACK
6
CONTINUOUS
10
117.4768179999999944
20
-82.5623379999999969
11
117.2863409999999931
21
-82.5623379999999969
0
LINE
8
BLACK
6
CONTINUOUS
10
117.2863409999999931
20
-82.5623379999999969
11
117.0958649999999892
21
-82.4671000000000021
0
LINE
8
BLACK
6
CONTINUOUS
10
117.0958649999999892
20
-82.4671000000000021
11
117.0006269999999944
21
-82.3718609999999956
0
LINE
8
BLACK
6
CONTINUOUS
10
117.0006269999999944
20
-82.3718609999999956
11
116.9053889999999996
21
-82.1813849999999917
0
LINE
8
BLACK
6
CONTINUOUS
10
116.9053889999999996
20
-82.1813849999999917
11
116.8101509999999905
21
-81.8004329999999982
0
LINE
8
BLACK
6
CONTINUOUS
10
116.8101509999999905
20
-81.8004329999999982
11
116.8101509999999905
21
-81.3242419999999981
0
LINE
8
BLACK
6
CONTINUOUS
10
116.8101509999999905
20
-81.3242419999999981
11
116.9053889999999996
21
-80.9432899999999904
0
LINE
8
BLACK
6
CONTINUOUS
10
116.9053889999999996
20
-80.9432899999999904
11
117.0006269999999944
21
-80.7528140000000008
0
LINE
8
BLACK
6
CONTINUOUS
10
117.0006269999999944
20
-80.7528140000000008
11
117.0958649999999892
21
-80.6575759999999917
0
LINE
8
BLACK
6
CONTINUOUS
10
117.0958649999999892
20
-80.6575759999999917
11
117.2863409999999931
21
-80.5623379999999969
0
LINE
8
BLACK
6
CONTINUOUS
10
118.8101509999999905
20
-82.3718609999999956
11
118.9053889999999996
21
-82.4671000000000021
0
LINE
8
BLACK
6
CONTINUOUS
10
118.9053889999999996
20
-82.4671000000000021
11
118.8101509999999905
21
-82.5623379999999969
0
LINE
8
BLACK
6
CONTINUOUS
10
118.8101509999999905
20
-82.5623379999999969
11
118.7149129999999957
21
-82.4671000000000021
0
LINE
8
BLACK
6
CONTINUOUS
10
118.7149129999999957
20
-82.4671000000000021
11
118.8101509999999905
21
-82.3718609999999956
0
LINE
8
BLACK
6
CONTINUOUS
10
118.8101509999999905
20
-82.3718609999999956
11
118.8101509999999905
21
-82.5623379999999969
0
LINE
8
BLACK
6
CONTINUOUS
10
120.1434840000000008
20
-80.5623379999999969
11
120.333960999999988
21
-80.5623379999999969
0
LINE
8
BLACK
6
CONTINUOUS
10
120.333960999999988
20
-80.5623379999999969
11
120.5244369999999918
21
-80.6575759999999917
0
LINE
8
BLACK
6
CONTINUOUS
10
120.5244369999999918
20
-80.6575759999999917
11
120.6196750000000009
21
-80.7528140000000008
0
LINE
8
BLACK
6
CONTINUOUS
10
120.6196750000000009
20
-80.7528140000000008
11
120.7149129999999957
21
-80.9432899999999904
0
LINE
8
BLACK
6
CONTINUOUS
10
120.7149129999999957
20
-80.9432899999999904
11
120.8101509999999905
21
-81.3242419999999981
0
LINE
8
BLACK
6
CONTINUOUS
10
120.8101509999999905
20
-81.3242419999999981
11
120.8101509999999905
21
-81.8004329999999982
0
LINE
8
BLACK
6
CONTINUOUS
10
120.8101509999999905
20
-81.8004329999999982
11
120.7149129999999957
21
-82.1813849999999917
0
LINE
8
BLACK
6
CONTINUOUS
10
120.7149129999999957
20
-82.1813849999999917
11
120.6196750000000009
21
-82.3718609999999956
0
LINE
8
BLACK
6
CONTINUOUS
10
120.6196750000000009
20
-82.3718609999999956
11
120.5244369999999918
21
-82.4671000000000021
0
LINE
8
BLACK
6
CONTINUOUS
10
120.5244369999999918
20
-82.4671000000000021
11
120.333960999999988
21
-82.5623379999999969
0
LINE
8
BLACK
6
CONTINUOUS
10
120.333960999999988
20
-82.5623379999999969
11
120.1434840000000008
21
-82.5623379999999969
0
LINE
8
BLACK
6
CONTINUOUS
10
120.1434840000000008
20
-82.5623379999999969
11
119.953007999999997
21
-82.4671000000000021
0
LINE
8
BLACK
6
CONTINUOUS
10
119.953007999999997
20
-82.4671000000000021
11
119.8577699999999879
21
-82.3718609999999956
0
LINE
8
BLACK
6
CONTINUOUS
10
119.8577699999999879
20
-82.3718609999999956
11
119.7625319999999931
21
-82.1813849999999917
0
LINE
8
BLACK
6
CONTINUOUS
10
119.7625319999999931
20
-82.1813849999999917
11
119.6672939999999983
21
-81.8004329999999982
0
LINE
8
BLACK
6
CONTINUOUS
10
119.6672939999999983
20
-81.8004329999999982
11
119.6672939999999983
21
-81.3242419999999981
0
LINE
8
BLACK
6
CONTINUOUS
10
119.6672939999999983
20
-81.3242419999999981
11
119.7625319999999931
21
-80.9432899999999904
0
LINE
8
BLACK
6
CONTINUOUS
10
119.7625319999999931
20
-80.9432899999999904
11
119.8577699999999879
21
-80.7528140000000008
0
LINE
8
BLACK
6
CONTINUOUS
10
119.8577699999999879
20
-80.7528140000000008
11
119.953007999999997
21
-80.6575759999999917
0
LINE
8
BLACK
6
CONTINUOUS
10
119.953007999999997
20
-80.6575759999999917
11
120.1434840000000008
21
-80.5623379999999969
0
LINE
8
BLACK
6
CONTINUOUS
10
121.4768179999999944
20
-80.5623379999999969
11
122.7149129999999957
21
-80.5623379999999969
0
LINE
8
BLACK
6
CONTINUOUS
10
122.7149129999999957
20
-80.5623379999999969
11
122.0482459999999918
21
-81.3242419999999981
0
LINE
8
BLACK
6
CONTINUOUS
10
122.0482459999999918
20
-81.3242419999999981
11
122.333960999999988
21
-81.3242419999999981
0
LINE
8
BLACK
6
CONTINUOUS
10
122.333960999999988
20
-81.3242419999999981
11
122.5244369999999918
21
-81.419479999999993
0
LINE
8
BLACK
6
CONTINUOUS
10
122.5244369999999918
20
-81.419479999999993
11
122.6196750000000009
21
-81.5147189999999995
0
LINE
8
BLACK
6
CONTINUOUS
10
122.6196750000000009
20
-81.5147189999999995
11
122.7149129999999957
21
-81.7051950000000033
0
LINE
8
BLACK
6
CONTINUOUS
10
122.7149129999999957
20
-81.7051950000000033
11
122.7149129999999957
21
-82.1813849999999917
0
LINE
8
BLACK
6
CONTINUOUS
10
122.7149129999999957
20
-82.1813849999999917
11
122.6196750000000009
21
-82.3718609999999956
0
LINE
8
BLACK
6
CONTINUOUS
10
122.6196750000000009
20
-82.3718609999999956
11
122.5244369999999918
21
-82.4671000000000021
0
LINE
8
BLACK
6
CONTINUOUS
10
122.5244369999999918
20
-82.4671000000000021
11
122.333960999999988
21
-82.5623379999999969
0
LINE
8
BLACK
6
CONTINUOUS
10
122.333960999999988
20
-82.5623379999999969
11
121.7625319999999931
21
-82.5623379999999969
0
LINE
8
BLACK
6
CONTINUOUS
10
121.7625319999999931
20
-82.5623379999999969
11
121.5720559999999892
21
-82.4671000000000021
0
LINE
8
BLACK
6
CONTINUOUS
10
121.5720559999999892
20
-82.4671000000000021
11
121.4768179999999944
21
-82.3718609999999956
0
LINE
8
BLACK
6
CONTINUOUS
10
123.6672939999999983
20
-82.5623379999999969
11
124.0482459999999918
21
-82.5623379999999969
0
LINE
8
BLACK
6
CONTINUOUS
10
124.0482459999999918
20
-82.5623379999999969
11
124.2387229999999931
21
-82.4671000000000021
0
LINE
8
BLACK
6
CONTINUOUS
10
124.2387229999999931
20
-82.4671000000000021
11
124.333960999999988
21
-82.3718609999999956
0
LINE
8
BLACK
6
CONTINUOUS
10
124.333960999999988
20
-82.3718609999999956
11
124.5244369999999918
21
-82.0861469999999969
0
LINE
8
BLACK
6
CONTINUOUS
10
124.5244369999999918
20
-82.0861469999999969
11
124.6196750000000009
21
-81.7051950000000033
0
LINE
8
BLACK
6
CONTINUOUS
10
124.6196750000000009
20
-81.7051950000000033
11
124.6196750000000009
21
-80.9432899999999904
0
LINE
8
BLACK
6
CONTINUOUS
10
124.6196750000000009
20
-80.9432899999999904
11
124.5244369999999918
21
-80.7528140000000008
0
LINE
8
BLACK
6
CONTINUOUS
10
124.5244369999999918
20
-80.7528140000000008
11
124.429198999999997
21
-80.6575759999999917
0
LINE
8
BLACK
6
CONTINUOUS
10
124.429198999999997
20
-80.6575759999999917
11
124.2387229999999931
21
-80.5623379999999969
0
LINE
8
BLACK
6
CONTINUOUS
10
124.2387229999999931
20
-80.5623379999999969
11
123.8577699999999879
21
-80.5623379999999969
0
LINE
8
BLACK
6
CONTINUOUS
10
123.8577699999999879
20
-80.5623379999999969
11
123.6672939999999983
21
-80.6575759999999917
0
LINE
8
BLACK
6
CONTINUOUS
10
123.6672939999999983
20
-80.6575759999999917
11
123.5720559999999892
21
-80.7528140000000008
0
LINE
8
BLACK
6
CONTINUOUS
10
123.5720559999999892
20
-80.7528140000000008
11
123.4768179999999944
21
-80.9432899999999904
0
LINE
8
BLACK
6
CONTINUOUS
10
123.4768179999999944
20
-80.9432899999999904
11
123.4768179999999944
21
-81.419479999999993
0
LINE
8
BLACK
6
CONTINUOUS
10
123.4768179999999944
20
-81.419479999999993
11
123.5720559999999892
21
-81.6099569999999943
0
LINE
8
BLACK
6
CONTINUOUS
10
123.5720559999999892
20
-81.6099569999999943
11
123.6672939999999983
21
-81.7051950000000033
0
LINE
8
BLACK
6
CONTINUOUS
10
123.6672939999999983
20
-81.7051950000000033
11
123.8577699999999879
21
-81.8004329999999982
0
LINE
8
BLACK
6
CONTINUOUS
10
123.8577699999999879
20
-81.8004329999999982
11
124.2387229999999931
21
-81.8004329999999982
0
LINE
8
BLACK
6
CONTINUOUS
10
124.2387229999999931
20
-81.8004329999999982
11
124.429198999999997
21
-81.7051950000000033
0
LINE
8
BLACK
6
CONTINUOUS
10
124.429198999999997
20
-81.7051950000000033
11
124.5244369999999918
21
-81.6099569999999943
0
LINE
8
BLACK
6
CONTINUOUS
10
124.5244369999999918
20
-81.6099569999999943
11
124.6196750000000009
21
-81.419479999999993
0
LINE
8
BLACK
6
CONTINUOUS
10
126.333960999999988
20
-81.2290040000000033
11
126.333960999999988
21
-82.5623379999999969
0
LINE
8
BLACK
6
CONTINUOUS
10
125.8577699999999879
20
-80.4671000000000021
11
125.3815799999999996
21
-81.895670999999993
0
LINE
8
BLACK
6
CONTINUOUS
10
125.3815799999999996
20
-81.895670999999993
11
126.6196750000000009
21
-81.895670999999993
0
LINE
8
BLACK
6
CONTINUOUS
10
127.2863419999999905
20
-80.5623379999999969
11
127.2863419999999905
21
-80.9432899999999904
0
LINE
8
BLACK
6
CONTINUOUS
10
128.0482470000000035
20
-80.5623379999999969
11
128.0482470000000035
21
-80.9432899999999904
0
LINE
8
BLACK
6
CONTINUOUS
10
131.0006290000000035
20
-83.3242419999999981
11
130.9053899999999828
21
-83.2290040000000033
0
LINE
8
BLACK
6
CONTINUOUS
10
130.9053899999999828
20
-83.2290040000000033
11
130.7149139999999932
21
-82.9432899999999904
0
LINE
8
BLACK
6
CONTINUOUS
10
130.7149139999999932
20
-82.9432899999999904
11
130.6196759999999983
21
-82.7528140000000008
0
LINE
8
BLACK
6
CONTINUOUS
10
130.6196759999999983
20
-82.7528140000000008
11
130.5244380000000035
21
-82.4671000000000021
0
LINE
8
BLACK
6
CONTINUOUS
10
130.5244380000000035
20
-82.4671000000000021
11
130.4291999999999803
21
-81.990909000000002
0
LINE
8
BLACK
6
CONTINUOUS
10
130.4291999999999803
20
-81.990909000000002
11
130.4291999999999803
21
-81.6099569999999943
0
LINE
8
BLACK
6
CONTINUOUS
10
130.4291999999999803
20
-81.6099569999999943
11
130.5244380000000035
21
-81.1337659999999943
0
LINE
8
BLACK
6
CONTINUOUS
10
130.5244380000000035
20
-81.1337659999999943
11
130.6196759999999983
21
-80.8480519999999956
0
LINE
8
BLACK
6
CONTINUOUS
10
130.6196759999999983
20
-80.8480519999999956
11
130.7149139999999932
21
-80.6575759999999917
0
LINE
8
BLACK
6
CONTINUOUS
10
130.7149139999999932
20
-80.6575759999999917
11
130.9053899999999828
21
-80.3718609999999956
0
LINE
8
BLACK
6
CONTINUOUS
10
130.9053899999999828
20
-80.3718609999999956
11
131.0006290000000035
21
-80.2766230000000007
0
LINE
8
BLACK
6
CONTINUOUS
10
132.6196759999999983
20
-81.2290040000000033
11
132.6196759999999983
21
-82.5623379999999969
0
LINE
8
BLACK
6
CONTINUOUS
10
132.1434849999999983
20
-80.4671000000000021
11
131.6672949999999958
21
-81.895670999999993
0
LINE
8
BLACK
6
CONTINUOUS
10
131.6672949999999958
20
-81.895670999999993
11
132.9053899999999828
21
-81.895670999999993
0
LINE
8
BLACK
6
CONTINUOUS
10
135.1911049999999932
20
-82.5623379999999969
11
135.1911049999999932
21
-80.5623379999999969
0
LINE
8
BLACK
6
CONTINUOUS
10
136.048248000000001
20
-82.5623379999999969
11
136.048248000000001
21
-81.5147189999999995
0
LINE
8
BLACK
6
CONTINUOUS
10
136.048248000000001
20
-81.5147189999999995
11
135.9530100000000061
21
-81.3242419999999981
0
LINE
8
BLACK
6
CONTINUOUS
10
135.9530100000000061
20
-81.3242419999999981
11
135.7625339999999881
21
-81.2290040000000033
0
LINE
8
BLACK
6
CONTINUOUS
10
135.7625339999999881
20
-81.2290040000000033
11
135.4768190000000061
21
-81.2290040000000033
0
LINE
8
BLACK
6
CONTINUOUS
10
135.4768190000000061
20
-81.2290040000000033
11
135.286342999999988
21
-81.3242419999999981
0
LINE
8
BLACK
6
CONTINUOUS
10
135.286342999999988
20
-81.3242419999999981
11
135.1911049999999932
21
-81.419479999999993
0
LINE
8
BLACK
6
CONTINUOUS
10
137.286342999999988
20
-82.5623379999999969
11
137.0958669999999984
21
-82.4671000000000021
0
LINE
8
BLACK
6
CONTINUOUS
10
137.0958669999999984
20
-82.4671000000000021
11
137.0006290000000035
21
-82.3718609999999956
0
LINE
8
BLACK
6
CONTINUOUS
10
137.0006290000000035
20
-82.3718609999999956
11
136.9053909999999803
21
-82.1813849999999917
0
LINE
8
BLACK
6
CONTINUOUS
10
136.9053909999999803
20
-82.1813849999999917
11
136.9053909999999803
21
-81.6099569999999943
0
LINE
8
BLACK
6
CONTINUOUS
10
136.9053909999999803
20
-81.6099569999999943
11
137.0006290000000035
21
-81.419479999999993
0
LINE
8
BLACK
6
CONTINUOUS
10
137.0006290000000035
20
-81.419479999999993
11
137.0958669999999984
21
-81.3242419999999981
0
LINE
8
BLACK
6
CONTINUOUS
10
137.0958669999999984
20
-81.3242419999999981
11
137.286342999999988
21
-81.2290040000000033
0
LINE
8
BLACK
6
CONTINUOUS
10
137.286342999999988
20
-81.2290040000000033
11
137.5720579999999984
21
-81.2290040000000033
0
LINE
8
BLACK
6
CONTINUOUS
10
137.5720579999999984
20
-81.2290040000000033
11
137.7625339999999881
21
-81.3242419999999981
0
LINE
8
BLACK
6
CONTINUOUS
10
137.7625339999999881
20
-81.3242419999999981
11
137.8577719999999829
21
-81.419479999999993
0
LINE
8
BLACK
6
CONTINUOUS
10
137.8577719999999829
20
-81.419479999999993
11
137.9530100000000061
21
-81.6099569999999943
0
LINE
8
BLACK
6
CONTINUOUS
10
137.9530100000000061
20
-81.6099569999999943
11
137.9530100000000061
21
-82.1813849999999917
0
LINE
8
BLACK
6
CONTINUOUS
10
137.9530100000000061
20
-82.1813849999999917
11
137.8577719999999829
21
-82.3718609999999956
0
LINE
8
BLACK
6
CONTINUOUS
10
137.8577719999999829
20
-82.3718609999999956
11
137.7625339999999881
21
-82.4671000000000021
0
LINE
8
BLACK
6
CONTINUOUS
10
137.7625339999999881
20
-82.4671000000000021
11
137.5720579999999984
21
-82.5623379999999969
0
LINE
8
BLACK
6
CONTINUOUS
10
137.5720579999999984
20
-82.5623379999999969
11
137.286342999999988
21
-82.5623379999999969
0
LINE
8
BLACK
6
CONTINUOUS
10
139.0958669999999984
20
-82.5623379999999969
11
138.9053909999999803
21
-82.4671000000000021
0
LINE
8
BLACK
6
CONTINUOUS
10
138.9053909999999803
20
-82.4671000000000021
11
138.8101529999999855
21
-82.2766230000000007
0
LINE
8
BLACK
6
CONTINUOUS
10
138.8101529999999855
20
-82.2766230000000007
11
138.8101529999999855
21
-80.5623379999999969
0
LINE
8
BLACK
6
CONTINUOUS
10
140.6196769999999958
20
-82.4671000000000021
11
140.4292010000000062
21
-82.5623379999999969
0
LINE
8
BLACK
6
CONTINUOUS
10
140.4292010000000062
20
-82.5623379999999969
11
140.048248000000001
21
-82.5623379999999969
0
LINE
8
BLACK
6
CONTINUOUS
10
140.048248000000001
20
-82.5623379999999969
11
139.8577719999999829
21
-82.4671000000000021
0
LINE
8
BLACK
6
CONTINUOUS
10
139.8577719999999829
20
-82.4671000000000021
11
139.7625339999999881
21
-82.2766230000000007
0
LINE
8
BLACK
6
CONTINUOUS
10
139.7625339999999881
20
-82.2766230000000007
11
139.7625339999999881
21
-81.5147189999999995
0
LINE
8
BLACK
6
CONTINUOUS
10
139.7625339999999881
20
-81.5147189999999995
11
139.8577719999999829
21
-81.3242419999999981
0
LINE
8
BLACK
6
CONTINUOUS
10
139.8577719999999829
20
-81.3242419999999981
11
140.048248000000001
21
-81.2290040000000033
0
LINE
8
BLACK
6
CONTINUOUS
10
140.048248000000001
20
-81.2290040000000033
11
140.4292010000000062
21
-81.2290040000000033
0
LINE
8
BLACK
6
CONTINUOUS
10
140.4292010000000062
20
-81.2290040000000033
11
140.6196769999999958
21
-81.3242419999999981
0
LINE
8
BLACK
6
CONTINUOUS
10
140.6196769999999958
20
-81.3242419999999981
11
140.7149149999999906
21
-81.5147189999999995
0
LINE
8
BLACK
6
CONTINUOUS
10
140.7149149999999906
20
-81.5147189999999995
11
140.7149149999999906
21
-81.7051950000000033
0
LINE
8
BLACK
6
CONTINUOUS
10
140.7149149999999906
20
-81.7051950000000033
11
139.7625339999999881
21
-81.895670999999993
0
LINE
8
BLACK
6
CONTINUOUS
10
141.4768200000000036
20
-82.4671000000000021
11
141.6672959999999932
21
-82.5623379999999969
0
LINE
8
BLACK
6
CONTINUOUS
10
141.6672959999999932
20
-82.5623379999999969
11
142.048248000000001
21
-82.5623379999999969
0
LINE
8
BLACK
6
CONTINUOUS
10
142.048248000000001
20
-82.5623379999999969
11
142.2387249999999881
21
-82.4671000000000021
0
LINE
8
BLACK
6
CONTINUOUS
10
142.2387249999999881
20
-82.4671000000000021
11
142.3339629999999829
21
-82.2766230000000007
0
LINE
8
BLACK
6
CONTINUOUS
10
142.3339629999999829
20
-82.2766230000000007
11
142.3339629999999829
21
-82.1813849999999917
0
LINE
8
BLACK
6
CONTINUOUS
10
142.3339629999999829
20
-82.1813849999999917
11
142.2387249999999881
21
-81.990909000000002
0
LINE
8
BLACK
6
CONTINUOUS
10
142.2387249999999881
20
-81.990909000000002
11
142.048248000000001
21
-81.895670999999993
0
LINE
8
BLACK
6
CONTINUOUS
10
142.048248000000001
20
-81.895670999999993
11
141.7625339999999881
21
-81.895670999999993
0
LINE
8
BLACK
6
CONTINUOUS
10
141.7625339999999881
20
-81.895670999999993
11
141.5720579999999984
21
-81.8004329999999982
0
LINE
8
BLACK
6
CONTINUOUS
10
141.5720579999999984
20
-81.8004329999999982
11
141.4768200000000036
21
-81.6099569999999943
0
LINE
8
BLACK
6
CONTINUOUS
10
141.4768200000000036
20
-81.6099569999999943
11
141.4768200000000036
21
-81.5147189999999995
0
LINE
8
BLACK
6
CONTINUOUS
10
141.4768200000000036
20
-81.5147189999999995
11
141.5720579999999984
21
-81.3242419999999981
0
LINE
8
BLACK
6
CONTINUOUS
10
141.5720579999999984
20
-81.3242419999999981
11
141.7625339999999881
21
-81.2290040000000033
0
LINE
8
BLACK
6
CONTINUOUS
10
141.7625339999999881
20
-81.2290040000000033
11
142.048248000000001
21
-81.2290040000000033
0
LINE
8
BLACK
6
CONTINUOUS
10
142.048248000000001
20
-81.2290040000000033
11
142.2387249999999881
21
-81.3242419999999981
0
LINE
8
BLACK
6
CONTINUOUS
10
143.000630000000001
20
-83.3242419999999981
11
143.0958679999999958
21
-83.2290040000000033
0
LINE
8
BLACK
6
CONTINUOUS
10
143.0958679999999958
20
-83.2290040000000033
11
143.2863439999999855
21
-82.9432899999999904
0
LINE
8
BLACK
6
CONTINUOUS
10
143.2863439999999855
20
-82.9432899999999904
11
143.3815819999999803
21
-82.7528140000000008
0
LINE
8
BLACK
6
CONTINUOUS
10
143.3815819999999803
20
-82.7528140000000008
11
143.4768200000000036
21
-82.4671000000000021
0
LINE
8
BLACK
6
CONTINUOUS
10
143.4768200000000036
20
-82.4671000000000021
11
143.5720579999999984
21
-81.990909000000002
0
LINE
8
BLACK
6
CONTINUOUS
10
143.5720579999999984
20
-81.990909000000002
11
143.5720579999999984
21
-81.6099569999999943
0
LINE
8
BLACK
6
CONTINUOUS
10
143.5720579999999984
20
-81.6099569999999943
11
143.4768200000000036
21
-81.1337659999999943
0
LINE
8
BLACK
6
CONTINUOUS
10
143.4768200000000036
20
-81.1337659999999943
11
143.3815819999999803
21
-80.8480519999999956
0
LINE
8
BLACK
6
CONTINUOUS
10
143.3815819999999803
20
-80.8480519999999956
11
143.2863439999999855
21
-80.6575759999999917
0
LINE
8
BLACK
6
CONTINUOUS
10
143.2863439999999855
20
-80.6575759999999917
11
143.0958679999999958
21
-80.3718609999999956
0
LINE
8
BLACK
6
CONTINUOUS
10
143.0958679999999958
20
-80.3718609999999956
11
143.000630000000001
21
-80.2766230000000007
0
CIRCLE
8
BLACK
10
94.75
20
-84.2874999999999943
40
0.5
0
LINE
8
BLACK
6
CONTINUOUS
10
98.9053869999999904
20
-85.2023379999999975
11
97.7625299999999982
21
-85.2023379999999975
0
LINE
8
BLACK
6
CONTINUOUS
10
98.3339579999999955
20
-85.2023379999999975
11
98.3339579999999955
21
-83.2023379999999975
0
LINE
8
BLACK
6
CONTINUOUS
10
98.3339579999999955
20
-83.2023379999999975
11
98.1434819999999917
21
-83.4880519999999962
0
LINE
8
BLACK
6
CONTINUOUS
10
98.1434819999999917
20
-83.4880519999999962
11
97.953006000000002
21
-83.678528
0
LINE
8
BLACK
6
CONTINUOUS
10
97.953006000000002
20
-83.678528
11
97.7625299999999982
21
-83.7737659999999948
0
LINE
8
BLACK
6
CONTINUOUS
10
99.7625299999999982
20
-85.0118609999999961
11
99.857767999999993
21
-85.1071000000000026
0
LINE
8
BLACK
6
CONTINUOUS
10
99.857767999999993
20
-85.1071000000000026
11
99.7625299999999982
21
-85.2023379999999975
0
LINE
8
BLACK
6
CONTINUOUS
10
99.7625299999999982
20
-85.2023379999999975
11
99.6672919999999891
21
-85.1071000000000026
0
LINE
8
BLACK
6
CONTINUOUS
10
99.6672919999999891
20
-85.1071000000000026
11
99.7625299999999982
21
-85.0118609999999961
0
LINE
8
BLACK
6
CONTINUOUS
10
99.7625299999999982
20
-85.0118609999999961
11
99.7625299999999982
21
-85.2023379999999975
0
LINE
8
BLACK
6
CONTINUOUS
10
101.0958629999999943
20
-83.2023379999999975
11
101.2863399999999956
21
-83.2023379999999975
0
LINE
8
BLACK
6
CONTINUOUS
10
101.2863399999999956
20
-83.2023379999999975
11
101.4768159999999995
21
-83.2975759999999923
0
LINE
8
BLACK
6
CONTINUOUS
10
101.4768159999999995
20
-83.2975759999999923
11
101.5720539999999943
21
-83.3928140000000013
0
LINE
8
BLACK
6
CONTINUOUS
10
101.5720539999999943
20
-83.3928140000000013
11
101.6672919999999891
21
-83.583289999999991
0
LINE
8
BLACK
6
CONTINUOUS
10
101.6672919999999891
20
-83.583289999999991
11
101.7625299999999982
21
-83.9642419999999987
0
LINE
8
BLACK
6
CONTINUOUS
10
101.7625299999999982
20
-83.9642419999999987
11
101.7625299999999982
21
-84.4404329999999987
0
LINE
8
BLACK
6
CONTINUOUS
10
101.7625299999999982
20
-84.4404329999999987
11
101.6672919999999891
21
-84.8213849999999923
0
LINE
8
BLACK
6
CONTINUOUS
10
101.6672919999999891
20
-84.8213849999999923
11
101.5720539999999943
21
-85.0118609999999961
0
LINE
8
BLACK
6
CONTINUOUS
10
101.5720539999999943
20
-85.0118609999999961
11
101.4768159999999995
21
-85.1071000000000026
0
LINE
8
BLACK
6
CONTINUOUS
10
101.4768159999999995
20
-85.1071000000000026
11
101.2863399999999956
21
-85.2023379999999975
0
LINE
8
BLACK
6
CONTINUOUS
10
101.2863399999999956
20
-85.2023379999999975
11
101.0958629999999943
21
-85.2023379999999975
0
LINE
8
BLACK
6
CONTINUOUS
10
101.0958629999999943
20
-85.2023379999999975
11
100.9053869999999904
21
-85.1071000000000026
0
LINE
8
BLACK
6
CONTINUOUS
10
100.9053869999999904
20
-85.1071000000000026
11
100.8101489999999956
21
-85.0118609999999961
0
LINE
8
BLACK
6
CONTINUOUS
10
100.8101489999999956
20
-85.0118609999999961
11
100.7149110000000007
21
-84.8213849999999923
0
LINE
8
BLACK
6
CONTINUOUS
10
100.7149110000000007
20
-84.8213849999999923
11
100.6196729999999917
21
-84.4404329999999987
0
LINE
8
BLACK
6
CONTINUOUS
10
100.6196729999999917
20
-84.4404329999999987
11
100.6196729999999917
21
-83.9642419999999987
0
LINE
8
BLACK
6
CONTINUOUS
10
100.6196729999999917
20
-83.9642419999999987
11
100.7149110000000007
21
-83.583289999999991
0
LINE
8
BLACK
6
CONTINUOUS
10
100.7149110000000007
20
-83.583289999999991
11
100.8101489999999956
21
-83.3928140000000013
0
LINE
8
BLACK
6
CONTINUOUS
10
100.8101489999999956
20
-83.3928140000000013
11
100.9053869999999904
21
-83.2975759999999923
0
LINE
8
BLACK
6
CONTINUOUS
10
100.9053869999999904
20
-83.2975759999999923
11
101.0958629999999943
21
-83.2023379999999975
0
LINE
8
BLACK
6
CONTINUOUS
10
103.0006249999999994
20
-83.2023379999999975
11
103.1911020000000008
21
-83.2023379999999975
0
LINE
8
BLACK
6
CONTINUOUS
10
103.1911020000000008
20
-83.2023379999999975
11
103.3815779999999904
21
-83.2975759999999923
0
LINE
8
BLACK
6
CONTINUOUS
10
103.3815779999999904
20
-83.2975759999999923
11
103.4768159999999995
21
-83.3928140000000013
0
LINE
8
BLACK
6
CONTINUOUS
10
103.4768159999999995
20
-83.3928140000000013
11
103.5720539999999943
21
-83.583289999999991
0
LINE
8
BLACK
6
CONTINUOUS
10
103.5720539999999943
20
-83.583289999999991
11
103.6672919999999891
21
-83.9642419999999987
0
LINE
8
BLACK
6
CONTINUOUS
10
103.6672919999999891
20
-83.9642419999999987
11
103.6672919999999891
21
-84.4404329999999987
0
LINE
8
BLACK
6
CONTINUOUS
10
103.6672919999999891
20
-84.4404329999999987
11
103.5720539999999943
21
-84.8213849999999923
0
LINE
8
BLACK
6
CONTINUOUS
10
103.5720539999999943
20
-84.8213849999999923
11
103.4768159999999995
21
-85.0118609999999961
0
LINE
8
BLACK
6
CONTINUOUS
10
103.4768159999999995
20
-85.0118609999999961
11
103.3815779999999904
21
-85.1071000000000026
0
LINE
8
BLACK
6
CONTINUOUS
10
103.3815779999999904
20
-85.1071000000000026
11
103.1911020000000008
21
-85.2023379999999975
0
LINE
8
BLACK
6
CONTINUOUS
10
103.1911020000000008
20
-85.2023379999999975
11
103.0006249999999994
21
-85.2023379999999975
0
LINE
8
BLACK
6
CONTINUOUS
10
103.0006249999999994
20
-85.2023379999999975
11
102.8101489999999956
21
-85.1071000000000026
0
LINE
8
BLACK
6
CONTINUOUS
10
102.8101489999999956
20
-85.1071000000000026
11
102.7149110000000007
21
-85.0118609999999961
0
LINE
8
BLACK
6
CONTINUOUS
10
102.7149110000000007
20
-85.0118609999999961
11
102.6196729999999917
21
-84.8213849999999923
0
LINE
8
BLACK
6
CONTINUOUS
10
102.6196729999999917
20
-84.8213849999999923
11
102.5244349999999969
21
-84.4404329999999987
0
LINE
8
BLACK
6
CONTINUOUS
10
102.5244349999999969
20
-84.4404329999999987
11
102.5244349999999969
21
-83.9642419999999987
0
LINE
8
BLACK
6
CONTINUOUS
10
102.5244349999999969
20
-83.9642419999999987
11
102.6196729999999917
21
-83.583289999999991
0
LINE
8
BLACK
6
CONTINUOUS
10
102.6196729999999917
20
-83.583289999999991
11
102.7149110000000007
21
-83.3928140000000013
0
LINE
8
BLACK
6
CONTINUOUS
10
102.7149110000000007
20
-83.3928140000000013
11
102.8101489999999956
21
-83.2975759999999923
0
LINE
8
BLACK
6
CONTINUOUS
10
102.8101489999999956
20
-83.2975759999999923
11
103.0006249999999994
21
-83.2023379999999975
0
LINE
8
BLACK
6
CONTINUOUS
10
104.9053869999999904
20
-83.2023379999999975
11
105.0958639999999917
21
-83.2023379999999975
0
LINE
8
BLACK
6
CONTINUOUS
10
105.0958639999999917
20
-83.2023379999999975
11
105.2863399999999956
21
-83.2975759999999923
0
LINE
8
BLACK
6
CONTINUOUS
10
105.2863399999999956
20
-83.2975759999999923
11
105.3815779999999904
21
-83.3928140000000013
0
LINE
8
BLACK
6
CONTINUOUS
10
105.3815779999999904
20
-83.3928140000000013
11
105.4768159999999995
21
-83.583289999999991
0
LINE
8
BLACK
6
CONTINUOUS
10
105.4768159999999995
20
-83.583289999999991
11
105.5720539999999943
21
-83.9642419999999987
0
LINE
8
BLACK
6
CONTINUOUS
10
105.5720539999999943
20
-83.9642419999999987
11
105.5720539999999943
21
-84.4404329999999987
0
LINE
8
BLACK
6
CONTINUOUS
10
105.5720539999999943
20
-84.4404329999999987
11
105.4768159999999995
21
-84.8213849999999923
0
LINE
8
BLACK
6
CONTINUOUS
10
105.4768159999999995
20
-84.8213849999999923
11
105.3815779999999904
21
-85.0118609999999961
0
LINE
8
BLACK
6
CONTINUOUS
10
105.3815779999999904
20
-85.0118609999999961
11
105.2863399999999956
21
-85.1071000000000026
0
LINE
8
BLACK
6
CONTINUOUS
10
105.2863399999999956
20
-85.1071000000000026
11
105.0958639999999917
21
-85.2023379999999975
0
LINE
8
BLACK
6
CONTINUOUS
10
105.0958639999999917
20
-85.2023379999999975
11
104.9053869999999904
21
-85.2023379999999975
0
LINE
8
BLACK
6
CONTINUOUS
10
104.9053869999999904
20
-85.2023379999999975
11
104.7149110000000007
21
-85.1071000000000026
0
LINE
8
BLACK
6
CONTINUOUS
10
104.7149110000000007
20
-85.1071000000000026
11
104.6196729999999917
21
-85.0118609999999961
0
LINE
8
BLACK
6
CONTINUOUS
10
104.6196729999999917
20
-85.0118609999999961
11
104.5244349999999969
21
-84.8213849999999923
0
LINE
8
BLACK
6
CONTINUOUS
10
104.5244349999999969
20
-84.8213849999999923
11
104.429197000000002
21
-84.4404329999999987
0
LINE
8
BLACK
6
CONTINUOUS
10
104.429197000000002
20
-84.4404329999999987
11
104.429197000000002
21
-83.9642419999999987
0
LINE
8
BLACK
6
CONTINUOUS
10
104.429197000000002
20
-83.9642419999999987
11
104.5244349999999969
21
-83.583289999999991
0
LINE
8
BLACK
6
CONTINUOUS
10
104.5244349999999969
20
-83.583289999999991
11
104.6196729999999917
21
-83.3928140000000013
0
LINE
8
BLACK
6
CONTINUOUS
10
104.6196729999999917
20
-83.3928140000000013
11
104.7149110000000007
21
-83.2975759999999923
0
LINE
8
BLACK
6
CONTINUOUS
10
104.7149110000000007
20
-83.2975759999999923
11
104.9053869999999904
21
-83.2023379999999975
0
LINE
8
BLACK
6
CONTINUOUS
10
106.429197000000002
20
-85.2023379999999975
11
106.429197000000002
21
-83.8690039999999897
0
LINE
8
BLACK
6
CONTINUOUS
10
106.429197000000002
20
-84.0594799999999935
11
106.5244349999999969
21
-83.9642419999999987
0
LINE
8
BLACK
6
CONTINUOUS
10
106.5244349999999969
20
-83.9642419999999987
11
106.7149110000000007
21
-83.8690039999999897
0
LINE
8
BLACK
6
CONTINUOUS
10
106.7149110000000007
20
-83.8690039999999897
11
107.0006259999999969
21
-83.8690039999999897
0
LINE
8
BLACK
6
CONTINUOUS
10
107.0006259999999969
20
-83.8690039999999897
11
107.1911020000000008
21
-83.9642419999999987
0
LINE
8
BLACK
6
CONTINUOUS
10
107.1911020000000008
20
-83.9642419999999987
11
107.2863399999999956
21
-84.1547190000000001
0
LINE
8
BLACK
6
CONTINUOUS
10
107.2863399999999956
20
-84.1547190000000001
11
107.2863399999999956
21
-85.2023379999999975
0
LINE
8
BLACK
6
CONTINUOUS
10
107.2863399999999956
20
-84.1547190000000001
11
107.3815779999999904
21
-83.9642419999999987
0
LINE
8
BLACK
6
CONTINUOUS
10
107.3815779999999904
20
-83.9642419999999987
11
107.5720539999999943
21
-83.8690039999999897
0
LINE
8
BLACK
6
CONTINUOUS
10
107.5720539999999943
20
-83.8690039999999897
11
107.857767999999993
21
-83.8690039999999897
0
LINE
8
BLACK
6
CONTINUOUS
10
107.857767999999993
20
-83.8690039999999897
11
108.0482449999999943
21
-83.9642419999999987
0
LINE
8
BLACK
6
CONTINUOUS
10
108.0482449999999943
20
-83.9642419999999987
11
108.1434829999999891
21
-84.1547190000000001
0
LINE
8
BLACK
6
CONTINUOUS
10
108.1434829999999891
20
-84.1547190000000001
11
108.1434829999999891
21
-85.2023379999999975
0
LINE
8
BLACK
6
CONTINUOUS
10
109.0958639999999917
20
-85.2023379999999975
11
109.0958639999999917
21
-83.8690039999999897
0
LINE
8
BLACK
6
CONTINUOUS
10
109.0958639999999917
20
-84.0594799999999935
11
109.1911020000000008
21
-83.9642419999999987
0
LINE
8
BLACK
6
CONTINUOUS
10
109.1911020000000008
20
-83.9642419999999987
11
109.3815779999999904
21
-83.8690039999999897
0
LINE
8
BLACK
6
CONTINUOUS
10
109.3815779999999904
20
-83.8690039999999897
11
109.6672930000000008
21
-83.8690039999999897
0
LINE
8
BLACK
6
CONTINUOUS
10
109.6672930000000008
20
-83.8690039999999897
11
109.8577689999999905
21
-83.9642419999999987
0
LINE
8
BLACK
6
CONTINUOUS
10
109.8577689999999905
20
-83.9642419999999987
11
109.9530069999999995
21
-84.1547190000000001
0
LINE
8
BLACK
6
CONTINUOUS
10
109.9530069999999995
20
-84.1547190000000001
11
109.9530069999999995
21
-85.2023379999999975
0
LINE
8
BLACK
6
CONTINUOUS
10
109.9530069999999995
20
-84.1547190000000001
11
110.0482449999999943
21
-83.9642419999999987
0
LINE
8
BLACK
6
CONTINUOUS
10
110.0482449999999943
20
-83.9642419999999987
11
110.2387209999999982
21
-83.8690039999999897
0
LINE
8
BLACK
6
CONTINUOUS
10
110.2387209999999982
20
-83.8690039999999897
11
110.5244349999999969
21
-83.8690039999999897
0
LINE
8
BLACK
6
CONTINUOUS
10
110.5244349999999969
20
-83.8690039999999897
11
110.7149119999999982
21
-83.9642419999999987
0
LINE
8
BLACK
6
CONTINUOUS
10
110.7149119999999982
20
-83.9642419999999987
11
110.810149999999993
21
-84.1547190000000001
0
LINE
8
BLACK
6
CONTINUOUS
10
110.810149999999993
20
-84.1547190000000001
11
110.810149999999993
21
-85.2023379999999975
0
LINE
8
BLACK
6
CONTINUOUS
10
114.7149119999999982
20
-83.1071000000000026
11
113.0006269999999944
21
-85.678528
0
LINE
8
BLACK
6
CONTINUOUS
10
117.2863409999999931
20
-83.2023379999999975
11
117.4768179999999944
21
-83.2023379999999975
0
LINE
8
BLACK
6
CONTINUOUS
10
117.4768179999999944
20
-83.2023379999999975
11
117.6672939999999983
21
-83.2975759999999923
0
LINE
8
BLACK
6
CONTINUOUS
10
117.6672939999999983
20
-83.2975759999999923
11
117.7625319999999931
21
-83.3928140000000013
0
LINE
8
BLACK
6
CONTINUOUS
10
117.7625319999999931
20
-83.3928140000000013
11
117.8577699999999879
21
-83.583289999999991
0
LINE
8
BLACK
6
CONTINUOUS
10
117.8577699999999879
20
-83.583289999999991
11
117.953007999999997
21
-83.9642419999999987
0
LINE
8
BLACK
6
CONTINUOUS
10
117.953007999999997
20
-83.9642419999999987
11
117.953007999999997
21
-84.4404329999999987
0
LINE
8
BLACK
6
CONTINUOUS
10
117.953007999999997
20
-84.4404329999999987
11
117.8577699999999879
21
-84.8213849999999923
0
LINE
8
BLACK
6
CONTINUOUS
10
117.8577699999999879
20
-84.8213849999999923
11
117.7625319999999931
21
-85.0118609999999961
0
LINE
8
BLACK
6
CONTINUOUS
10
117.7625319999999931
20
-85.0118609999999961
11
117.6672939999999983
21
-85.1071000000000026
0
LINE
8
BLACK
6
CONTINUOUS
10
117.6672939999999983
20
-85.1071000000000026
11
117.4768179999999944
21
-85.2023379999999975
0
LINE
8
BLACK
6
CONTINUOUS
10
117.4768179999999944
20
-85.2023379999999975
11
117.2863409999999931
21
-85.2023379999999975
0
LINE
8
BLACK
6
CONTINUOUS
10
117.2863409999999931
20
-85.2023379999999975
11
117.0958649999999892
21
-85.1071000000000026
0
LINE
8
BLACK
6
CONTINUOUS
10
117.0958649999999892
20
-85.1071000000000026
11
117.0006269999999944
21
-85.0118609999999961
0
LINE
8
BLACK
6
CONTINUOUS
10
117.0006269999999944
20
-85.0118609999999961
11
116.9053889999999996
21
-84.8213849999999923
0
LINE
8
BLACK
6
CONTINUOUS
10
116.9053889999999996
20
-84.8213849999999923
11
116.8101509999999905
21
-84.4404329999999987
0
LINE
8
BLACK
6
CONTINUOUS
10
116.8101509999999905
20
-84.4404329999999987
11
116.8101509999999905
21
-83.9642419999999987
0
LINE
8
BLACK
6
CONTINUOUS
10
116.8101509999999905
20
-83.9642419999999987
11
116.9053889999999996
21
-83.583289999999991
0
LINE
8
BLACK
6
CONTINUOUS
10
116.9053889999999996
20
-83.583289999999991
11
117.0006269999999944
21
-83.3928140000000013
0
LINE
8
BLACK
6
CONTINUOUS
10
117.0006269999999944
20
-83.3928140000000013
11
117.0958649999999892
21
-83.2975759999999923
0
LINE
8
BLACK
6
CONTINUOUS
10
117.0958649999999892
20
-83.2975759999999923
11
117.2863409999999931
21
-83.2023379999999975
0
LINE
8
BLACK
6
CONTINUOUS
10
118.8101509999999905
20
-85.0118609999999961
11
118.9053889999999996
21
-85.1071000000000026
0
LINE
8
BLACK
6
CONTINUOUS
10
118.9053889999999996
20
-85.1071000000000026
11
118.8101509999999905
21
-85.2023379999999975
0
LINE
8
BLACK
6
CONTINUOUS
10
118.8101509999999905
20
-85.2023379999999975
11
118.7149129999999957
21
-85.1071000000000026
0
LINE
8
BLACK
6
CONTINUOUS
10
118.7149129999999957
20
-85.1071000000000026
11
118.8101509999999905
21
-85.0118609999999961
0
LINE
8
BLACK
6
CONTINUOUS
10
118.8101509999999905
20
-85.0118609999999961
11
118.8101509999999905
21
-85.2023379999999975
0
LINE
8
BLACK
6
CONTINUOUS
10
120.1434840000000008
20
-83.2023379999999975
11
120.333960999999988
21
-83.2023379999999975
0
LINE
8
BLACK
6
CONTINUOUS
10
120.333960999999988
20
-83.2023379999999975
11
120.5244369999999918
21
-83.2975759999999923
0
LINE
8
BLACK
6
CONTINUOUS
10
120.5244369999999918
20
-83.2975759999999923
11
120.6196750000000009
21
-83.3928140000000013
0
LINE
8
BLACK
6
CONTINUOUS
10
120.6196750000000009
20
-83.3928140000000013
11
120.7149129999999957
21
-83.583289999999991
0
LINE
8
BLACK
6
CONTINUOUS
10
120.7149129999999957
20
-83.583289999999991
11
120.8101509999999905
21
-83.9642419999999987
0
LINE
8
BLACK
6
CONTINUOUS
10
120.8101509999999905
20
-83.9642419999999987
11
120.8101509999999905
21
-84.4404329999999987
0
LINE
8
BLACK
6
CONTINUOUS
10
120.8101509999999905
20
-84.4404329999999987
11
120.7149129999999957
21
-84.8213849999999923
0
LINE
8
BLACK
6
CONTINUOUS
10
120.7149129999999957
20
-84.8213849999999923
11
120.6196750000000009
21
-85.0118609999999961
0
LINE
8
BLACK
6
CONTINUOUS
10
120.6196750000000009
20
-85.0118609999999961
11
120.5244369999999918
21
-85.1071000000000026
0
LINE
8
BLACK
6
CONTINUOUS
10
120.5244369999999918
20
-85.1071000000000026
11
120.333960999999988
21
-85.2023379999999975
0
LINE
8
BLACK
6
CONTINUOUS
10
120.333960999999988
20
-85.2023379999999975
11
120.1434840000000008
21
-85.2023379999999975
0
LINE
8
BLACK
6
CONTINUOUS
10
120.1434840000000008
20
-85.2023379999999975
11
119.953007999999997
21
-85.1071000000000026
0
LINE
8
BLACK
6
CONTINUOUS
10
119.953007999999997
20
-85.1071000000000026
11
119.8577699999999879
21
-85.0118609999999961
0
LINE
8
BLACK
6
CONTINUOUS
10
119.8577699999999879
20
-85.0118609999999961
11
119.7625319999999931
21
-84.8213849999999923
0
LINE
8
BLACK
6
CONTINUOUS
10
119.7625319999999931
20
-84.8213849999999923
11
119.6672939999999983
21
-84.4404329999999987
0
LINE
8
BLACK
6
CONTINUOUS
10
119.6672939999999983
20
-84.4404329999999987
11
119.6672939999999983
21
-83.9642419999999987
0
LINE
8
BLACK
6
CONTINUOUS
10
119.6672939999999983
20
-83.9642419999999987
11
119.7625319999999931
21
-83.583289999999991
0
LINE
8
BLACK
6
CONTINUOUS
10
119.7625319999999931
20
-83.583289999999991
11
119.8577699999999879
21
-83.3928140000000013
0
LINE
8
BLACK
6
CONTINUOUS
10
119.8577699999999879
20
-83.3928140000000013
11
119.953007999999997
21
-83.2975759999999923
0
LINE
8
BLACK
6
CONTINUOUS
10
119.953007999999997
20
-83.2975759999999923
11
120.1434840000000008
21
-83.2023379999999975
0
LINE
8
BLACK
6
CONTINUOUS
10
121.4768179999999944
20
-83.2023379999999975
11
122.7149129999999957
21
-83.2023379999999975
0
LINE
8
BLACK
6
CONTINUOUS
10
122.7149129999999957
20
-83.2023379999999975
11
122.0482459999999918
21
-83.9642419999999987
0
LINE
8
BLACK
6
CONTINUOUS
10
122.0482459999999918
20
-83.9642419999999987
11
122.333960999999988
21
-83.9642419999999987
0
LINE
8
BLACK
6
CONTINUOUS
10
122.333960999999988
20
-83.9642419999999987
11
122.5244369999999918
21
-84.0594799999999935
0
LINE
8
BLACK
6
CONTINUOUS
10
122.5244369999999918
20
-84.0594799999999935
11
122.6196750000000009
21
-84.1547190000000001
0
LINE
8
BLACK
6
CONTINUOUS
10
122.6196750000000009
20
-84.1547190000000001
11
122.7149129999999957
21
-84.3451949999999897
0
LINE
8
BLACK
6
CONTINUOUS
10
122.7149129999999957
20
-84.3451949999999897
11
122.7149129999999957
21
-84.8213849999999923
0
LINE
8
BLACK
6
CONTINUOUS
10
122.7149129999999957
20
-84.8213849999999923
11
122.6196750000000009
21
-85.0118609999999961
0
LINE
8
BLACK
6
CONTINUOUS
10
122.6196750000000009
20
-85.0118609999999961
11
122.5244369999999918
21
-85.1071000000000026
0
LINE
8
BLACK
6
CONTINUOUS
10
122.5244369999999918
20
-85.1071000000000026
11
122.333960999999988
21
-85.2023379999999975
0
LINE
8
BLACK
6
CONTINUOUS
10
122.333960999999988
20
-85.2023379999999975
11
121.7625319999999931
21
-85.2023379999999975
0
LINE
8
BLACK
6
CONTINUOUS
10
121.7625319999999931
20
-85.2023379999999975
11
121.5720559999999892
21
-85.1071000000000026
0
LINE
8
BLACK
6
CONTINUOUS
10
121.5720559999999892
20
-85.1071000000000026
11
121.4768179999999944
21
-85.0118609999999961
0
LINE
8
BLACK
6
CONTINUOUS
10
123.6672939999999983
20
-85.2023379999999975
11
124.0482459999999918
21
-85.2023379999999975
0
LINE
8
BLACK
6
CONTINUOUS
10
124.0482459999999918
20
-85.2023379999999975
11
124.2387229999999931
21
-85.1071000000000026
0
LINE
8
BLACK
6
CONTINUOUS
10
124.2387229999999931
20
-85.1071000000000026
11
124.333960999999988
21
-85.0118609999999961
0
LINE
8
BLACK
6
CONTINUOUS
10
124.333960999999988
20
-85.0118609999999961
11
124.5244369999999918
21
-84.7261469999999974
0
LINE
8
BLACK
6
CONTINUOUS
10
124.5244369999999918
20
-84.7261469999999974
11
124.6196750000000009
21
-84.3451949999999897
0
LINE
8
BLACK
6
CONTINUOUS
10
124.6196750000000009
20
-84.3451949999999897
11
124.6196750000000009
21
-83.583289999999991
0
LINE
8
BLACK
6
CONTINUOUS
10
124.6196750000000009
20
-83.583289999999991
11
124.5244369999999918
21
-83.3928140000000013
0
LINE
8
BLACK
6
CONTINUOUS
10
124.5244369999999918
20
-83.3928140000000013
11
124.429198999999997
21
-83.2975759999999923
0
LINE
8
BLACK
6
CONTINUOUS
10
124.429198999999997
20
-83.2975759999999923
11
124.2387229999999931
21
-83.2023379999999975
0
LINE
8
BLACK
6
CONTINUOUS
10
124.2387229999999931
20
-83.2023379999999975
11
123.8577699999999879
21
-83.2023379999999975
0
LINE
8
BLACK
6
CONTINUOUS
10
123.8577699999999879
20
-83.2023379999999975
11
123.6672939999999983
21
-83.2975759999999923
0
LINE
8
BLACK
6
CONTINUOUS
10
123.6672939999999983
20
-83.2975759999999923
11
123.5720559999999892
21
-83.3928140000000013
0
LINE
8
BLACK
6
CONTINUOUS
10
123.5720559999999892
20
-83.3928140000000013
11
123.4768179999999944
21
-83.583289999999991
0
LINE
8
BLACK
6
CONTINUOUS
10
123.4768179999999944
20
-83.583289999999991
11
123.4768179999999944
21
-84.0594799999999935
0
LINE
8
BLACK
6
CONTINUOUS
10
123.4768179999999944
20
-84.0594799999999935
11
123.5720559999999892
21
-84.2499569999999949
0
LINE
8
BLACK
6
CONTINUOUS
10
123.5720559999999892
20
-84.2499569999999949
11
123.6672939999999983
21
-84.3451949999999897
0
LINE
8
BLACK
6
CONTINUOUS
10
123.6672939999999983
20
-84.3451949999999897
11
123.8577699999999879
21
-84.4404329999999987
0
LINE
8
BLACK
6
CONTINUOUS
10
123.8577699999999879
20
-84.4404329999999987
11
124.2387229999999931
21
-84.4404329999999987
0
LINE
8
BLACK
6
CONTINUOUS
10
124.2387229999999931
20
-84.4404329999999987
11
124.429198999999997
21
-84.3451949999999897
0
LINE
8
BLACK
6
CONTINUOUS
10
124.429198999999997
20
-84.3451949999999897
11
124.5244369999999918
21
-84.2499569999999949
0
LINE
8
BLACK
6
CONTINUOUS
10
124.5244369999999918
20
-84.2499569999999949
11
124.6196750000000009
21
-84.0594799999999935
0
LINE
8
BLACK
6
CONTINUOUS
10
126.333960999999988
20
-83.8690039999999897
11
126.333960999999988
21
-85.2023379999999975
0
LINE
8
BLACK
6
CONTINUOUS
10
125.8577699999999879
20
-83.1071000000000026
11
125.3815799999999996
21
-84.5356709999999936
0
LINE
8
BLACK
6
CONTINUOUS
10
125.3815799999999996
20
-84.5356709999999936
11
126.6196750000000009
21
-84.5356709999999936
0
LINE
8
BLACK
6
CONTINUOUS
10
127.2863419999999905
20
-83.2023379999999975
11
127.2863419999999905
21
-83.583289999999991
0
LINE
8
BLACK
6
CONTINUOUS
10
128.0482470000000035
20
-83.2023379999999975
11
128.0482470000000035
21
-83.583289999999991
0
LINE
8
BLACK
6
CONTINUOUS
10
131.0006290000000035
20
-85.9642419999999987
11
130.9053899999999828
21
-85.8690039999999897
0
LINE
8
BLACK
6
CONTINUOUS
10
130.9053899999999828
20
-85.8690039999999897
11
130.7149139999999932
21
-85.583289999999991
0
LINE
8
BLACK
6
CONTINUOUS
10
130.7149139999999932
20
-85.583289999999991
11
130.6196759999999983
21
-85.3928140000000013
0
LINE
8
BLACK
6
CONTINUOUS
10
130.6196759999999983
20
-85.3928140000000013
11
130.5244380000000035
21
-85.1071000000000026
0
LINE
8
BLACK
6
CONTINUOUS
10
130.5244380000000035
20
-85.1071000000000026
11
130.4291999999999803
21
-84.6309090000000026
0
LINE
8
BLACK
6
CONTINUOUS
10
130.4291999999999803
20
-84.6309090000000026
11
130.4291999999999803
21
-84.2499569999999949
0
LINE
8
BLACK
6
CONTINUOUS
10
130.4291999999999803
20
-84.2499569999999949
11
130.5244380000000035
21
-83.7737659999999948
0
LINE
8
BLACK
6
CONTINUOUS
10
130.5244380000000035
20
-83.7737659999999948
11
130.6196759999999983
21
-83.4880519999999962
0
LINE
8
BLACK
6
CONTINUOUS
10
130.6196759999999983
20
-83.4880519999999962
11
130.7149139999999932
21
-83.2975759999999923
0
LINE
8
BLACK
6
CONTINUOUS
10
130.7149139999999932
20
-83.2975759999999923
11
130.9053899999999828
21
-83.0118609999999961
0
LINE
8
BLACK
6
CONTINUOUS
10
130.9053899999999828
20
-83.0118609999999961
11
131.0006290000000035
21
-82.9166230000000013
0
LINE
8
BLACK
6
CONTINUOUS
10
132.810151999999988
20
-85.2023379999999975
11
131.6672949999999958
21
-85.2023379999999975
0
LINE
8
BLACK
6
CONTINUOUS
10
132.2387229999999931
20
-85.2023379999999975
11
132.2387229999999931
21
-83.2023379999999975
0
LINE
8
BLACK
6
CONTINUOUS
10
132.2387229999999931
20
-83.2023379999999975
11
132.0482470000000035
21
-83.4880519999999962
0
LINE
8
BLACK
6
CONTINUOUS
10
132.0482470000000035
20
-83.4880519999999962
11
131.8577709999999854
21
-83.678528
0
LINE
8
BLACK
6
CONTINUOUS
10
131.8577709999999854
20
-83.678528
11
131.6672949999999958
21
-83.7737659999999948
0
LINE
8
BLACK
6
CONTINUOUS
10
134.0482470000000035
20
-83.2023379999999975
11
134.2387239999999906
21
-83.2023379999999975
0
LINE
8
BLACK
6
CONTINUOUS
10
134.2387239999999906
20
-83.2023379999999975
11
134.4291999999999803
21
-83.2975759999999923
0
LINE
8
BLACK
6
CONTINUOUS
10
134.4291999999999803
20
-83.2975759999999923
11
134.5244380000000035
21
-83.3928140000000013
0
LINE
8
BLACK
6
CONTINUOUS
10
134.5244380000000035
20
-83.3928140000000013
11
134.6196759999999983
21
-83.583289999999991
0
LINE
8
BLACK
6
CONTINUOUS
10
134.6196759999999983
20
-83.583289999999991
11
134.7149139999999932
21
-83.9642419999999987
0
LINE
8
BLACK
6
CONTINUOUS
10
134.7149139999999932
20
-83.9642419999999987
11
134.7149139999999932
21
-84.4404329999999987
0
LINE
8
BLACK
6
CONTINUOUS
10
134.7149139999999932
20
-84.4404329999999987
11
134.6196759999999983
21
-84.8213849999999923
0
LINE
8
BLACK
6
CONTINUOUS
10
134.6196759999999983
20
-84.8213849999999923
11
134.5244380000000035
21
-85.0118609999999961
0
LINE
8
BLACK
6
CONTINUOUS
10
134.5244380000000035
20
-85.0118609999999961
11
134.4291999999999803
21
-85.1071000000000026
0
LINE
8
BLACK
6
CONTINUOUS
10
134.4291999999999803
20
-85.1071000000000026
11
134.2387239999999906
21
-85.2023379999999975
0
LINE
8
BLACK
6
CONTINUOUS
10
134.2387239999999906
20
-85.2023379999999975
11
134.0482470000000035
21
-85.2023379999999975
0
LINE
8
BLACK
6
CONTINUOUS
10
134.0482470000000035
20
-85.2023379999999975
11
133.8577709999999854
21
-85.1071000000000026
0
LINE
8
BLACK
6
CONTINUOUS
10
133.8577709999999854
20
-85.1071000000000026
11
133.7625329999999906
21
-85.0118609999999961
0
LINE
8
BLACK
6
CONTINUOUS
10
133.7625329999999906
20
-85.0118609999999961
11
133.6672949999999958
21
-84.8213849999999923
0
LINE
8
BLACK
6
CONTINUOUS
10
133.6672949999999958
20
-84.8213849999999923
11
133.5720570000000009
21
-84.4404329999999987
0
LINE
8
BLACK
6
CONTINUOUS
10
133.5720570000000009
20
-84.4404329999999987
11
133.5720570000000009
21
-83.9642419999999987
0
LINE
8
BLACK
6
CONTINUOUS
10
133.5720570000000009
20
-83.9642419999999987
11
133.6672949999999958
21
-83.583289999999991
0
LINE
8
BLACK
6
CONTINUOUS
10
133.6672949999999958
20
-83.583289999999991
11
133.7625329999999906
21
-83.3928140000000013
0
LINE
8
BLACK
6
CONTINUOUS
10
133.7625329999999906
20
-83.3928140000000013
11
133.8577709999999854
21
-83.2975759999999923
0
LINE
8
BLACK
6
CONTINUOUS
10
133.8577709999999854
20
-83.2975759999999923
11
134.0482470000000035
21
-83.2023379999999975
0
LINE
8
BLACK
6
CONTINUOUS
10
137.0958669999999984
20
-85.2023379999999975
11
137.0958669999999984
21
-83.2023379999999975
0
LINE
8
BLACK
6
CONTINUOUS
10
137.9530100000000061
20
-85.2023379999999975
11
137.9530100000000061
21
-84.1547190000000001
0
LINE
8
BLACK
6
CONTINUOUS
10
137.9530100000000061
20
-84.1547190000000001
11
137.8577719999999829
21
-83.9642419999999987
0
LINE
8
BLACK
6
CONTINUOUS
10
137.8577719999999829
20
-83.9642419999999987
11
137.6672959999999932
21
-83.8690039999999897
0
LINE
8
BLACK
6
CONTINUOUS
10
137.6672959999999932
20
-83.8690039999999897
11
137.3815809999999829
21
-83.8690039999999897
0
LINE
8
BLACK
6
CONTINUOUS
10
137.3815809999999829
20
-83.8690039999999897
11
137.1911049999999932
21
-83.9642419999999987
0
LINE
8
BLACK
6
CONTINUOUS
10
137.1911049999999932
20
-83.9642419999999987
11
137.0958669999999984
21
-84.0594799999999935
0
LINE
8
BLACK
6
CONTINUOUS
10
139.1911049999999932
20
-85.2023379999999975
11
139.0006290000000035
21
-85.1071000000000026
0
LINE
8
BLACK
6
CONTINUOUS
10
139.0006290000000035
20
-85.1071000000000026
11
138.9053909999999803
21
-85.0118609999999961
0
LINE
8
BLACK
6
CONTINUOUS
10
138.9053909999999803
20
-85.0118609999999961
11
138.8101529999999855
21
-84.8213849999999923
0
LINE
8
BLACK
6
CONTINUOUS
10
138.8101529999999855
20
-84.8213849999999923
11
138.8101529999999855
21
-84.2499569999999949
0
LINE
8
BLACK
6
CONTINUOUS
10
138.8101529999999855
20
-84.2499569999999949
11
138.9053909999999803
21
-84.0594799999999935
0
LINE
8
BLACK
6
CONTINUOUS
10
138.9053909999999803
20
-84.0594799999999935
11
139.0006290000000035
21
-83.9642419999999987
0
LINE
8
BLACK
6
CONTINUOUS
10
139.0006290000000035
20
-83.9642419999999987
11
139.1911049999999932
21
-83.8690039999999897
0
LINE
8
BLACK
6
CONTINUOUS
10
139.1911049999999932
20
-83.8690039999999897
11
139.4768200000000036
21
-83.8690039999999897
0
LINE
8
BLACK
6
CONTINUOUS
10
139.4768200000000036
20
-83.8690039999999897
11
139.6672959999999932
21
-83.9642419999999987
0
LINE
8
BLACK
6
CONTINUOUS
10
139.6672959999999932
20
-83.9642419999999987
11
139.7625339999999881
21
-84.0594799999999935
0
LINE
8
BLACK
6
CONTINUOUS
10
139.7625339999999881
20
-84.0594799999999935
11
139.8577719999999829
21
-84.2499569999999949
0
LINE
8
BLACK
6
CONTINUOUS
10
139.8577719999999829
20
-84.2499569999999949
11
139.8577719999999829
21
-84.8213849999999923
0
LINE
8
BLACK
6
CONTINUOUS
10
139.8577719999999829
20
-84.8213849999999923
11
139.7625339999999881
21
-85.0118609999999961
0
LINE
8
BLACK
6
CONTINUOUS
10
139.7625339999999881
20
-85.0118609999999961
11
139.6672959999999932
21
-85.1071000000000026
0
LINE
8
BLACK
6
CONTINUOUS
10
139.6672959999999932
20
-85.1071000000000026
11
139.4768200000000036
21
-85.2023379999999975
0
LINE
8
BLACK
6
CONTINUOUS
10
139.4768200000000036
20
-85.2023379999999975
11
139.1911049999999932
21
-85.2023379999999975
0
LINE
8
BLACK
6
CONTINUOUS
10
141.0006290000000035
20
-85.2023379999999975
11
140.8101529999999855
21
-85.1071000000000026
0
LINE
8
BLACK
6
CONTINUOUS
10
140.8101529999999855
20
-85.1071000000000026
11
140.7149149999999906
21
-84.9166230000000013
0
LINE
8
BLACK
6
CONTINUOUS
10
140.7149149999999906
20
-84.9166230000000013
11
140.7149149999999906
21
-83.2023379999999975
0
LINE
8
BLACK
6
CONTINUOUS
10
142.524439000000001
20
-85.1071000000000026
11
142.3339629999999829
21
-85.2023379999999975
0
LINE
8
BLACK
6
CONTINUOUS
10
142.3339629999999829
20
-85.2023379999999975
11
141.9530100000000061
21
-85.2023379999999975
0
LINE
8
BLACK
6
CONTINUOUS
10
141.9530100000000061
20
-85.2023379999999975
11
141.7625339999999881
21
-85.1071000000000026
0
LINE
8
BLACK
6
CONTINUOUS
10
141.7625339999999881
20
-85.1071000000000026
11
141.6672959999999932
21
-84.9166230000000013
0
LINE
8
BLACK
6
CONTINUOUS
10
141.6672959999999932
20
-84.9166230000000013
11
141.6672959999999932
21
-84.1547190000000001
0
LINE
8
BLACK
6
CONTINUOUS
10
141.6672959999999932
20
-84.1547190000000001
11
141.7625339999999881
21
-83.9642419999999987
0
LINE
8
BLACK
6
CONTINUOUS
10
141.7625339999999881
20
-83.9642419999999987
11
141.9530100000000061
21
-83.8690039999999897
0
LINE
8
BLACK
6
CONTINUOUS
10
141.9530100000000061
20
-83.8690039999999897
11
142.3339629999999829
21
-83.8690039999999897
0
LINE
8
BLACK
6
CONTINUOUS
10
142.3339629999999829
20
-83.8690039999999897
11
142.524439000000001
21
-83.9642419999999987
0
LINE
8
BLACK
6
CONTINUOUS
10
142.524439000000001
20
-83.9642419999999987
11
142.6196769999999958
21
-84.1547190000000001
0
LINE
8
BLACK
6
CONTINUOUS
10
142.6196769999999958
20
-84.1547190000000001
11
142.6196769999999958
21
-84.3451949999999897
0
LINE
8
BLACK
6
CONTINUOUS
10
142.6196769999999958
20
-84.3451949999999897
11
141.6672959999999932
21
-84.5356709999999936
0
LINE
8
BLACK
6
CONTINUOUS
10
143.3815819999999803
20
-85.1071000000000026
11
143.5720579999999984
21
-85.2023379999999975
0
LINE
8
BLACK
6
CONTINUOUS
10
143.5720579999999984
20
-85.2023379999999975
11
143.9530100000000061
21
-85.2023379999999975
0
LINE
8
BLACK
6
CONTINUOUS
10
143.9530100000000061
20
-85.2023379999999975
11
144.1434869999999933
21
-85.1071000000000026
0
LINE
8
BLACK
6
CONTINUOUS
10
144.1434869999999933
20
-85.1071000000000026
11
144.2387249999999881
21
-84.9166230000000013
0
LINE
8
BLACK
6
CONTINUOUS
10
144.2387249999999881
20
-84.9166230000000013
11
144.2387249999999881
21
-84.8213849999999923
0
LINE
8
BLACK
6
CONTINUOUS
10
144.2387249999999881
20
-84.8213849999999923
11
144.1434869999999933
21
-84.6309090000000026
0
LINE
8
BLACK
6
CONTINUOUS
10
144.1434869999999933
20
-84.6309090000000026
11
143.9530100000000061
21
-84.5356709999999936
0
LINE
8
BLACK
6
CONTINUOUS
10
143.9530100000000061
20
-84.5356709999999936
11
143.6672959999999932
21
-84.5356709999999936
0
LINE
8
BLACK
6
CONTINUOUS
10
143.6672959999999932
20
-84.5356709999999936
11
143.4768200000000036
21
-84.4404329999999987
0
LINE
8
BLACK
6
CONTINUOUS
10
143.4768200000000036
20
-84.4404329999999987
11
143.3815819999999803
21
-84.2499569999999949
0
LINE
8
BLACK
6
CONTINUOUS
10
143.3815819999999803
20
-84.2499569999999949
11
143.3815819999999803
21
-84.1547190000000001
0
LINE
8
BLACK
6
CONTINUOUS
10
143.3815819999999803
20
-84.1547190000000001
11
143.4768200000000036
21
-83.9642419999999987
0
LINE
8
BLACK
6
CONTINUOUS
10
143.4768200000000036
20
-83.9642419999999987
11
143.6672959999999932
21
-83.8690039999999897
0
LINE
8
BLACK
6
CONTINUOUS
10
143.6672959999999932
20
-83.8690039999999897
11
143.9530100000000061
21
-83.8690039999999897
0
LINE
8
BLACK
6
CONTINUOUS
10
143.9530100000000061
20
-83.8690039999999897
11
144.1434869999999933
21
-83.9642419999999987
0
LINE
8
BLACK
6
CONTINUOUS
10
144.9053920000000062
20
-85.9642419999999987
11
145.000630000000001
21
-85.8690039999999897
0
LINE
8
BLACK
6
CONTINUOUS
10
145.000630000000001
20
-85.8690039999999897
11
145.1911059999999907
21
-85.583289999999991
0
LINE
8
BLACK
6
CONTINUOUS
10
145.1911059999999907
20
-85.583289999999991
11
145.2863439999999855
21
-85.3928140000000013
0
LINE
8
BLACK
6
CONTINUOUS
10
145.2863439999999855
20
-85.3928140000000013
11
145.3815819999999803
21
-85.1071000000000026
0
LINE
8
BLACK
6
CONTINUOUS
10
145.3815819999999803
20
-85.1071000000000026
11
145.4768200000000036
21
-84.6309090000000026
0
LINE
8
BLACK
6
CONTINUOUS
10
145.4768200000000036
20
-84.6309090000000026
11
145.4768200000000036
21
-84.2499569999999949
0
LINE
8
BLACK
6
CONTINUOUS
10
145.4768200000000036
20
-84.2499569999999949
11
145.3815819999999803
21
-83.7737659999999948
0
LINE
8
BLACK
6
CONTINUOUS
10
145.3815819999999803
20
-83.7737659999999948
11
145.2863439999999855
21
-83.4880519999999962
0
LINE
8
BLACK
6
CONTINUOUS
10
145.2863439999999855
20
-83.4880519999999962
11
145.1911059999999907
21
-83.2975759999999923
0
LINE
8
BLACK
6
CONTINUOUS
10
145.1911059999999907
20
-83.2975759999999923
11
145.000630000000001
21
-83.0118609999999961
0
LINE
8
BLACK
6
CONTINUOUS
10
145.000630000000001
20
-83.0118609999999961
11
144.9053920000000062
21
-82.9166230000000013
  0
ENDSEC
  0
EOF
