  0
SECTION
  2
HEADER
  9
$ANGBASE
  50
0.0
  9
$ANGDIR
  70
1
  9
$MEASUREMENT
  70
1
  0
ENDSEC
  0
SECTION
  2
TABLES
  0
TABLE
  2
LTYPE
  70
4
  0
LTYPE
  5
40F
  2
CONTINUOUS
  70
0
  3
Solid line
  72
65
  73
0
  40
0.0
  0
LTYPE
  5
410
  2
DASHDOT
 70
0
  3
Dash Dot ____ _ ____ _
 72
65
 73
4
 40
2.0
 49
1.25
 49
-0.25
 49
0.25
 49
-0.25
  0
LTYPE
  5
411
  2
DASHED
 70
0
  3
Dashed __ __ __ __ __
 72
65
 73
2
 40
0.75
 49
0.5
 49
-0.25
  0
LTYPE
  5
43B
  2
DOTTED
 70
0
  3
Dotted .  .  .  .
 72
65
 73
2
 40
0.2
 49
0.0
 49
-0.2
  0
ENDTAB
  0
TABLE
  2
STYLE
  70
4
  0
STYLE
  2
KICAD
  70
0
  40
0
  41
1
  42
1
  50
0
  71
0
  3
isocp.shx
  0
STYLE
  2
KICADB
  70
0
  40
0
  41
1
  42
1
  50
0
  71
0
  3
isocp.shx
  0
STYLE
  2
KICADI
  70
0
  40
0
  41
1
  42
1
  50
15
  71
0
  3
isocp.shx
  0
STYLE
  2
KICADBI
  70
0
  40
0
  41
1
  42
1
  50
15
  71
0
  3
isocp.shx
  0
ENDTAB
  0
TABLE
  2
LAYER
  70
1
  0
LAYER
  2
BLACK
  70
0
  62
7
  6
CONTINUOUS
  0
ENDTAB
  0
ENDSEC
  0
SECTION
  2
ENTITIES
0
LINE
8
BLACK
6
CONTINUOUS
10
95.25
20
-50.7999999999999972
11
124.7774999999999892
21
-50.7999999999999972
0
LINE
8
BLACK
6
CONTINUOUS
10
124.7774999999999892
20
-75.2475000000000023
11
95.25
21
-75.2475000000000023
0
LINE
8
BLACK
6
CONTINUOUS
10
95.25
20
-50.7999999999999972
11
95.25
21
-75.2475000000000023
0
LINE
8
BLACK
6
CONTINUOUS
10
124.7774999999999892
20
-75.2475000000000023
11
124.7774999999999892
21
-50.7999999999999972
0
LINE
8
BLACK
6
CONTINUOUS
10
97.857767999999993
20
-78.3623379999999941
11
97.857767999999993
21
-76.3623379999999941
0
LINE
8
BLACK
6
CONTINUOUS
10
97.857767999999993
20
-76.3623379999999941
11
98.3339579999999955
21
-76.3623379999999941
0
LINE
8
BLACK
6
CONTINUOUS
10
98.3339579999999955
20
-76.3623379999999941
11
98.6196729999999917
21
-76.4575760000000031
0
LINE
8
BLACK
6
CONTINUOUS
10
98.6196729999999917
20
-76.4575760000000031
11
98.8101489999999956
21
-76.6480519999999927
0
LINE
8
BLACK
6
CONTINUOUS
10
98.8101489999999956
20
-76.6480519999999927
11
98.9053869999999904
21
-76.8385279999999966
0
LINE
8
BLACK
6
CONTINUOUS
10
98.9053869999999904
20
-76.8385279999999966
11
99.0006249999999994
21
-77.2194799999999901
0
LINE
8
BLACK
6
CONTINUOUS
10
99.0006249999999994
20
-77.2194799999999901
11
99.0006249999999994
21
-77.5051950000000005
0
LINE
8
BLACK
6
CONTINUOUS
10
99.0006249999999994
20
-77.5051950000000005
11
98.9053869999999904
21
-77.886146999999994
0
LINE
8
BLACK
6
CONTINUOUS
10
98.9053869999999904
20
-77.886146999999994
11
98.8101489999999956
21
-78.0766229999999979
0
LINE
8
BLACK
6
CONTINUOUS
10
98.8101489999999956
20
-78.0766229999999979
11
98.6196729999999917
21
-78.2670999999999992
0
LINE
8
BLACK
6
CONTINUOUS
10
98.6196729999999917
20
-78.2670999999999992
11
98.3339579999999955
21
-78.3623379999999941
0
LINE
8
BLACK
6
CONTINUOUS
10
98.3339579999999955
20
-78.3623379999999941
11
97.857767999999993
21
-78.3623379999999941
0
LINE
8
BLACK
6
CONTINUOUS
10
99.857767999999993
20
-78.3623379999999941
11
99.857767999999993
21
-77.0290040000000005
0
LINE
8
BLACK
6
CONTINUOUS
10
99.857767999999993
20
-77.4099569999999915
11
99.953006000000002
21
-77.2194799999999901
0
LINE
8
BLACK
6
CONTINUOUS
10
99.953006000000002
20
-77.2194799999999901
11
100.0482439999999968
21
-77.1242419999999953
0
LINE
8
BLACK
6
CONTINUOUS
10
100.0482439999999968
20
-77.1242419999999953
11
100.2387200000000007
21
-77.0290040000000005
0
LINE
8
BLACK
6
CONTINUOUS
10
100.2387200000000007
20
-77.0290040000000005
11
100.429197000000002
21
-77.0290040000000005
0
LINE
8
BLACK
6
CONTINUOUS
10
101.0958629999999943
20
-78.3623379999999941
11
101.0958629999999943
21
-77.0290040000000005
0
LINE
8
BLACK
6
CONTINUOUS
10
101.0958629999999943
20
-76.3623379999999941
11
101.0006249999999994
21
-76.4575760000000031
0
LINE
8
BLACK
6
CONTINUOUS
10
101.0006249999999994
20
-76.4575760000000031
11
101.0958629999999943
21
-76.5528139999999979
0
LINE
8
BLACK
6
CONTINUOUS
10
101.0958629999999943
20
-76.5528139999999979
11
101.1911009999999891
21
-76.4575760000000031
0
LINE
8
BLACK
6
CONTINUOUS
10
101.1911009999999891
20
-76.4575760000000031
11
101.0958629999999943
21
-76.3623379999999941
0
LINE
8
BLACK
6
CONTINUOUS
10
101.0958629999999943
20
-76.3623379999999941
11
101.0958629999999943
21
-76.5528139999999979
0
LINE
8
BLACK
6
CONTINUOUS
10
102.3339579999999955
20
-78.3623379999999941
11
102.1434819999999917
21
-78.2670999999999992
0
LINE
8
BLACK
6
CONTINUOUS
10
102.1434819999999917
20
-78.2670999999999992
11
102.0482439999999968
21
-78.0766229999999979
0
LINE
8
BLACK
6
CONTINUOUS
10
102.0482439999999968
20
-78.0766229999999979
11
102.0482439999999968
21
-76.3623379999999941
0
LINE
8
BLACK
6
CONTINUOUS
10
103.3815769999999929
20
-78.3623379999999941
11
103.1911009999999891
21
-78.2670999999999992
0
LINE
8
BLACK
6
CONTINUOUS
10
103.1911009999999891
20
-78.2670999999999992
11
103.0958629999999943
21
-78.0766229999999979
0
LINE
8
BLACK
6
CONTINUOUS
10
103.0958629999999943
20
-78.0766229999999979
11
103.0958629999999943
21
-76.3623379999999941
0
LINE
8
BLACK
6
CONTINUOUS
10
105.6672919999999891
20
-78.3623379999999941
11
105.6672919999999891
21
-76.3623379999999941
0
LINE
8
BLACK
6
CONTINUOUS
10
105.6672919999999891
20
-76.3623379999999941
11
106.333958999999993
21
-77.7909089999999992
0
LINE
8
BLACK
6
CONTINUOUS
10
106.333958999999993
20
-77.7909089999999992
11
107.0006249999999994
21
-76.3623379999999941
0
LINE
8
BLACK
6
CONTINUOUS
10
107.0006249999999994
20
-76.3623379999999941
11
107.0006249999999994
21
-78.3623379999999941
0
LINE
8
BLACK
6
CONTINUOUS
10
108.8101489999999956
20
-78.3623379999999941
11
108.8101489999999956
21
-77.3147189999999966
0
LINE
8
BLACK
6
CONTINUOUS
10
108.8101489999999956
20
-77.3147189999999966
11
108.7149110000000007
21
-77.1242419999999953
0
LINE
8
BLACK
6
CONTINUOUS
10
108.7149110000000007
20
-77.1242419999999953
11
108.5244349999999969
21
-77.0290040000000005
0
LINE
8
BLACK
6
CONTINUOUS
10
108.5244349999999969
20
-77.0290040000000005
11
108.1434819999999917
21
-77.0290040000000005
0
LINE
8
BLACK
6
CONTINUOUS
10
108.1434819999999917
20
-77.0290040000000005
11
107.953006000000002
21
-77.1242419999999953
0
LINE
8
BLACK
6
CONTINUOUS
10
108.8101489999999956
20
-78.2670999999999992
11
108.6196729999999917
21
-78.3623379999999941
0
LINE
8
BLACK
6
CONTINUOUS
10
108.6196729999999917
20
-78.3623379999999941
11
108.1434819999999917
21
-78.3623379999999941
0
LINE
8
BLACK
6
CONTINUOUS
10
108.1434819999999917
20
-78.3623379999999941
11
107.953006000000002
21
-78.2670999999999992
0
LINE
8
BLACK
6
CONTINUOUS
10
107.953006000000002
20
-78.2670999999999992
11
107.857767999999993
21
-78.0766229999999979
0
LINE
8
BLACK
6
CONTINUOUS
10
107.857767999999993
20
-78.0766229999999979
11
107.857767999999993
21
-77.886146999999994
0
LINE
8
BLACK
6
CONTINUOUS
10
107.857767999999993
20
-77.886146999999994
11
107.953006000000002
21
-77.6956709999999902
0
LINE
8
BLACK
6
CONTINUOUS
10
107.953006000000002
20
-77.6956709999999902
11
108.1434819999999917
21
-77.6004329999999953
0
LINE
8
BLACK
6
CONTINUOUS
10
108.1434819999999917
20
-77.6004329999999953
11
108.6196729999999917
21
-77.6004329999999953
0
LINE
8
BLACK
6
CONTINUOUS
10
108.6196729999999917
20
-77.6004329999999953
11
108.8101489999999956
21
-77.5051950000000005
0
LINE
8
BLACK
6
CONTINUOUS
10
109.7625299999999982
20
-77.0290040000000005
11
109.7625299999999982
21
-79.0290040000000005
0
LINE
8
BLACK
6
CONTINUOUS
10
109.7625299999999982
20
-77.1242419999999953
11
109.953006000000002
21
-77.0290040000000005
0
LINE
8
BLACK
6
CONTINUOUS
10
109.953006000000002
20
-77.0290040000000005
11
110.333958999999993
21
-77.0290040000000005
0
LINE
8
BLACK
6
CONTINUOUS
10
110.333958999999993
20
-77.0290040000000005
11
110.5244349999999969
21
-77.1242419999999953
0
LINE
8
BLACK
6
CONTINUOUS
10
110.5244349999999969
20
-77.1242419999999953
11
110.6196729999999917
21
-77.2194799999999901
0
LINE
8
BLACK
6
CONTINUOUS
10
110.6196729999999917
20
-77.2194799999999901
11
110.7149110000000007
21
-77.4099569999999915
0
LINE
8
BLACK
6
CONTINUOUS
10
110.7149110000000007
20
-77.4099569999999915
11
110.7149110000000007
21
-77.9813850000000031
0
LINE
8
BLACK
6
CONTINUOUS
10
110.7149110000000007
20
-77.9813850000000031
11
110.6196729999999917
21
-78.1718609999999927
0
LINE
8
BLACK
6
CONTINUOUS
10
110.6196729999999917
20
-78.1718609999999927
11
110.5244349999999969
21
-78.2670999999999992
0
LINE
8
BLACK
6
CONTINUOUS
10
110.5244349999999969
20
-78.2670999999999992
11
110.333958999999993
21
-78.3623379999999941
0
LINE
8
BLACK
6
CONTINUOUS
10
110.333958999999993
20
-78.3623379999999941
11
109.953006000000002
21
-78.3623379999999941
0
LINE
8
BLACK
6
CONTINUOUS
10
109.953006000000002
20
-78.3623379999999941
11
109.7625299999999982
21
-78.2670999999999992
0
LINE
8
BLACK
6
CONTINUOUS
10
111.5720539999999943
20
-78.1718609999999927
11
111.6672919999999891
21
-78.2670999999999992
0
LINE
8
BLACK
6
CONTINUOUS
10
111.6672919999999891
20
-78.2670999999999992
11
111.5720539999999943
21
-78.3623379999999941
0
LINE
8
BLACK
6
CONTINUOUS
10
111.5720539999999943
20
-78.3623379999999941
11
111.4768159999999995
21
-78.2670999999999992
0
LINE
8
BLACK
6
CONTINUOUS
10
111.4768159999999995
20
-78.2670999999999992
11
111.5720539999999943
21
-78.1718609999999927
0
LINE
8
BLACK
6
CONTINUOUS
10
111.5720539999999943
20
-78.1718609999999927
11
111.5720539999999943
21
-78.3623379999999941
0
LINE
8
BLACK
6
CONTINUOUS
10
111.5720539999999943
20
-77.1242419999999953
11
111.6672919999999891
21
-77.2194799999999901
0
LINE
8
BLACK
6
CONTINUOUS
10
111.6672919999999891
20
-77.2194799999999901
11
111.5720539999999943
21
-77.3147189999999966
0
LINE
8
BLACK
6
CONTINUOUS
10
111.5720539999999943
20
-77.3147189999999966
11
111.4768159999999995
21
-77.2194799999999901
0
LINE
8
BLACK
6
CONTINUOUS
10
111.4768159999999995
20
-77.2194799999999901
11
111.5720539999999943
21
-77.1242419999999953
0
LINE
8
BLACK
6
CONTINUOUS
10
111.5720539999999943
20
-77.1242419999999953
11
111.5720539999999943
21
-77.3147189999999966
  0
ENDSEC
  0
EOF
