%TF.GenerationSoftware,KiCad,Pcbnew,8.0.4*%
%TF.CreationDate,2025-05-09T09:03:00+07:00*%
%TF.ProjectId,MSD-1.0,4d53442d-312e-4302-9e6b-696361645f70,rev?*%
%TF.SameCoordinates,Original*%
%TF.FileFunction,Copper,L2,Bot*%
%TF.FilePolarity,Positive*%
%FSLAX46Y46*%
G04 Gerber Fmt 4.6, Leading zero omitted, Abs format (unit mm)*
G04 Created by KiCad (PCBNEW 8.0.4) date 2025-05-09 09:03:00*
%MOMM*%
%LPD*%
G01*
G04 APERTURE LIST*
%TA.AperFunction,ComponentPad*%
%ADD10R,1.500000X1.500000*%
%TD*%
%TA.AperFunction,ComponentPad*%
%ADD11O,1.500000X1.500000*%
%TD*%
%TA.AperFunction,ComponentPad*%
%ADD12C,2.000000*%
%TD*%
%TA.AperFunction,ComponentPad*%
%ADD13R,2.000000X2.000000*%
%TD*%
%TA.AperFunction,ComponentPad*%
%ADD14O,2.000000X2.000000*%
%TD*%
%TA.AperFunction,ComponentPad*%
%ADD15R,1.600000X1.600000*%
%TD*%
%TA.AperFunction,ComponentPad*%
%ADD16O,1.600000X1.600000*%
%TD*%
%TA.AperFunction,ComponentPad*%
%ADD17C,1.400000*%
%TD*%
%TA.AperFunction,ComponentPad*%
%ADD18O,1.400000X1.400000*%
%TD*%
%TA.AperFunction,ComponentPad*%
%ADD19C,1.600000*%
%TD*%
%TA.AperFunction,ComponentPad*%
%ADD20R,1.800000X1.800000*%
%TD*%
%TA.AperFunction,ComponentPad*%
%ADD21O,1.800000X1.800000*%
%TD*%
%TA.AperFunction,ComponentPad*%
%ADD22C,3.000000*%
%TD*%
%TA.AperFunction,ComponentPad*%
%ADD23C,2.400000*%
%TD*%
%TA.AperFunction,ComponentPad*%
%ADD24R,1.905000X2.000000*%
%TD*%
%TA.AperFunction,ComponentPad*%
%ADD25O,1.905000X2.000000*%
%TD*%
%TA.AperFunction,ComponentPad*%
%ADD26R,2.400000X2.400000*%
%TD*%
%TA.AperFunction,Conductor*%
%ADD27C,1.270000*%
%TD*%
%TA.AperFunction,Conductor*%
%ADD28C,0.635000*%
%TD*%
%TA.AperFunction,Conductor*%
%ADD29C,0.000000*%
%TD*%
%TA.AperFunction,Conductor*%
%ADD30C,0.317500*%
%TD*%
G04 APERTURE END LIST*
D10*
%TO.P,D3,1,K*%
%TO.N,Net-(D3-K)*%
X150812500Y-55880000D03*
D11*
%TO.P,D3,2,A*%
%TO.N,Net-(D2-K)*%
X150812500Y-48260000D03*
%TD*%
D12*
%TO.P,TP2,1,1*%
%TO.N,Net-(Q1-D)*%
X116522500Y-52705000D03*
X119062500Y-52705000D03*
%TD*%
D13*
%TO.P,J2,1,Pin_1*%
%TO.N,Net-(J2-Pin_1)*%
X160972500Y-60007500D03*
D14*
X160972500Y-62547500D03*
%TO.P,J2,2,Pin_2*%
%TO.N,Net-(D2-A)*%
X155892500Y-60007500D03*
X155892500Y-62547500D03*
%TO.P,J2,3,Pin_3*%
%TO.N,Net-(D3-K)*%
X150812500Y-60007500D03*
X150812500Y-62547500D03*
%TD*%
D15*
%TO.P,U3,1*%
%TO.N,Net-(C5-Pad1)*%
X134292500Y-58425000D03*
D16*
%TO.P,U3,2*%
%TO.N,Net-(R4-Pad1)*%
X134292500Y-55885000D03*
%TO.P,U3,3*%
%TO.N,GND*%
X126672500Y-55885000D03*
%TO.P,U3,4*%
%TO.N,Net-(J1-Pin_1)*%
X126672500Y-58425000D03*
%TD*%
D12*
%TO.P,TP3,1,1*%
%TO.N,Net-(C5-Pad1)*%
X140017500Y-33020000D03*
X142557500Y-33020000D03*
%TD*%
D17*
%TO.P,R4,1*%
%TO.N,Net-(R4-Pad1)*%
X145732500Y-55880000D03*
D18*
%TO.P,R4,2*%
%TO.N,Net-(D2-K)*%
X145732500Y-48260000D03*
%TD*%
D19*
%TO.P,C2,1*%
%TO.N,Net-(U1-CV)*%
X84415000Y-36195000D03*
%TO.P,C2,2*%
%TO.N,GND*%
X79415000Y-36195000D03*
%TD*%
D13*
%TO.P,TP6,1,1*%
%TO.N,+12V*%
X95885000Y-46355000D03*
%TD*%
D20*
%TO.P,D1,1,K*%
%TO.N,Net-(D1-K)*%
X79375000Y-41270000D03*
D21*
%TO.P,D1,2,A*%
%TO.N,Net-(D1-A)*%
X79375000Y-48890000D03*
%TD*%
D17*
%TO.P,R1,1*%
%TO.N,+12V*%
X84455000Y-48895000D03*
D18*
%TO.P,R1,2*%
%TO.N,Net-(D1-A)*%
X84455000Y-41275000D03*
%TD*%
D10*
%TO.P,D2,1,K*%
%TO.N,Net-(D2-K)*%
X155892500Y-48255000D03*
D11*
%TO.P,D2,2,A*%
%TO.N,Net-(D2-A)*%
X155892500Y-55875000D03*
%TD*%
D12*
%TO.P,TP1,1,1*%
%TO.N,+12V*%
X97155000Y-52705000D03*
X99695000Y-52705000D03*
%TD*%
D22*
%TO.P,L1,1,1*%
%TO.N,Net-(Q1-D)*%
X116522500Y-47625000D03*
%TO.P,L1,2,2*%
%TO.N,+12V*%
X131762500Y-42545000D03*
%TO.P,L1,3,3*%
%TO.N,Net-(C5-Pad1)*%
X123507500Y-34925000D03*
%TO.P,L1,4,4*%
%TO.N,Net-(J2-Pin_1)*%
X129857500Y-27940000D03*
%TD*%
D12*
%TO.P,TP4,1,1*%
%TO.N,Net-(J2-Pin_1)*%
X154622500Y-33020000D03*
X157162500Y-33020000D03*
%TD*%
D13*
%TO.P,TP5,1,1*%
%TO.N,+12V*%
X88265000Y-46355000D03*
%TD*%
D12*
%TO.P,C3,1*%
%TO.N,+12V*%
X103106250Y-52705000D03*
%TO.P,C3,2*%
%TO.N,Net-(Q1-D)*%
X113106250Y-52705000D03*
%TD*%
D15*
%TO.P,U2,1*%
%TO.N,Net-(R4-Pad1)*%
X134292500Y-66045000D03*
D16*
%TO.P,U2,2*%
%TO.N,Net-(C5-Pad1)*%
X134292500Y-63505000D03*
%TO.P,U2,3*%
%TO.N,GND*%
X126672500Y-63505000D03*
%TO.P,U2,4*%
%TO.N,Net-(J1-Pin_2)*%
X126672500Y-66045000D03*
%TD*%
D15*
%TO.P,U1,1,GND*%
%TO.N,GND*%
X95885000Y-43815000D03*
D16*
%TO.P,U1,2,TR*%
%TO.N,Net-(D1-K)*%
X95885000Y-41275000D03*
%TO.P,U1,3,Q*%
%TO.N,Net-(U1-Q)*%
X95885000Y-38735000D03*
%TO.P,U1,4,R*%
%TO.N,+12V*%
X95885000Y-36195000D03*
%TO.P,U1,5,CV*%
%TO.N,Net-(U1-CV)*%
X88265000Y-36195000D03*
%TO.P,U1,6,THR*%
%TO.N,Net-(D1-K)*%
X88265000Y-38735000D03*
%TO.P,U1,7,DIS*%
%TO.N,Net-(D1-A)*%
X88265000Y-41275000D03*
%TO.P,U1,8,VCC*%
%TO.N,+12V*%
X88265000Y-43815000D03*
%TD*%
D17*
%TO.P,R3,1*%
%TO.N,Net-(U1-Q)*%
X99695000Y-41275000D03*
D18*
%TO.P,R3,2*%
%TO.N,Net-(Q1-G)*%
X99695000Y-48895000D03*
%TD*%
D23*
%TO.P,C5,1*%
%TO.N,Net-(C5-Pad1)*%
X141090000Y-40322500D03*
%TO.P,C5,2*%
%TO.N,Net-(D2-K)*%
X156090000Y-40322500D03*
%TD*%
D19*
%TO.P,C4,1*%
%TO.N,+12V*%
X89575000Y-52705000D03*
%TO.P,C4,2*%
%TO.N,GND*%
X94575000Y-52705000D03*
%TD*%
D24*
%TO.P,Q1,1,G*%
%TO.N,Net-(Q1-G)*%
X105410000Y-48895000D03*
D25*
%TO.P,Q1,2,D*%
%TO.N,Net-(Q1-D)*%
X107950000Y-48895000D03*
%TO.P,Q1,3,S*%
%TO.N,GND*%
X110490000Y-48895000D03*
%TD*%
D19*
%TO.P,C1,1*%
%TO.N,Net-(D1-K)*%
X89575000Y-48895000D03*
%TO.P,C1,2*%
%TO.N,GND*%
X94575000Y-48895000D03*
%TD*%
D26*
%TO.P,C6,1*%
%TO.N,+12V*%
X97155000Y-60047500D03*
D23*
%TO.P,C6,2*%
%TO.N,GND*%
X97155000Y-65047500D03*
%TD*%
D17*
%TO.P,R2,1*%
%TO.N,Net-(D1-A)*%
X81915000Y-48895000D03*
D18*
%TO.P,R2,2*%
%TO.N,Net-(D1-K)*%
X81915000Y-41275000D03*
%TD*%
D12*
%TO.P,TP7,1,1*%
%TO.N,GND*%
X79375000Y-27622500D03*
X81915000Y-27622500D03*
%TD*%
D13*
%TO.P,J1,1,Pin_1*%
%TO.N,Net-(J1-Pin_1)*%
X86995000Y-60007500D03*
D14*
X86995000Y-62547500D03*
%TO.P,J1,2,Pin_2*%
%TO.N,Net-(J1-Pin_2)*%
X84455000Y-60007500D03*
X84455000Y-62547500D03*
%TO.P,J1,3,Pin_3*%
%TO.N,GND*%
X81915000Y-60007500D03*
X81915000Y-62547500D03*
%TO.P,J1,4,Pin_4*%
%TO.N,+12V*%
X79375000Y-60007500D03*
X79375000Y-62547500D03*
%TD*%
D27*
%TO.N,Net-(U1-CV)*%
X88255000Y-36185000D02*
X84425000Y-36185000D01*
X84425000Y-36185000D02*
X84415000Y-36195000D01*
%TO.N,Net-(Q1-D)*%
X116522500Y-52705000D02*
X116522500Y-47625000D01*
X113106250Y-52705000D02*
X116522500Y-52705000D01*
X107950000Y-51435000D02*
X109220000Y-52705000D01*
X109220000Y-52705000D02*
X113106250Y-52705000D01*
X107950000Y-48895000D02*
X107950000Y-51435000D01*
X116522500Y-52705000D02*
X119062500Y-52705000D01*
D28*
%TO.N,Net-(D1-A)*%
X81915000Y-44132500D02*
X84455000Y-41592500D01*
X80640000Y-48890000D02*
X80645000Y-48895000D01*
X79375000Y-48890000D02*
X81910000Y-48890000D01*
X84455000Y-41275000D02*
X88245000Y-41275000D01*
X88245000Y-41275000D02*
X88255000Y-41265000D01*
X81915000Y-48895000D02*
X81915000Y-44132500D01*
%TO.N,Net-(D1-K)*%
X91430000Y-41270000D02*
X91435000Y-41265000D01*
X90487500Y-47982500D02*
X90487500Y-42222500D01*
X79375000Y-41270000D02*
X81602500Y-41270000D01*
X91435000Y-41265000D02*
X90487500Y-40317500D01*
X90487500Y-41270000D02*
X91430000Y-41270000D01*
X81602500Y-41270000D02*
X84455000Y-38417500D01*
X87947500Y-38417500D02*
X88255000Y-38725000D01*
X91445000Y-41265000D02*
X91435000Y-41265000D01*
X91445000Y-41265000D02*
X95875000Y-41265000D01*
X88582500Y-38412500D02*
X90487500Y-40317500D01*
X89575000Y-48895000D02*
X90487500Y-47982500D01*
X90487500Y-40317500D02*
X90487500Y-41270000D01*
X84455000Y-38417500D02*
X87947500Y-38417500D01*
X90487500Y-41270000D02*
X90487500Y-42222500D01*
X90487500Y-42222500D02*
X91445000Y-41265000D01*
D27*
%TO.N,Net-(Q1-G)*%
X99695000Y-48895000D02*
X105410000Y-48895000D01*
D28*
%TO.N,Net-(U1-Q)*%
X95885000Y-38735000D02*
X97790000Y-38735000D01*
X99695000Y-40640000D02*
X99695000Y-41275000D01*
X97790000Y-38735000D02*
X99695000Y-40640000D01*
D27*
%TO.N,+12V*%
X122237500Y-54927500D02*
X122237500Y-52070000D01*
X106598750Y-56197500D02*
X120967500Y-56197500D01*
X79375000Y-53975000D02*
X79375000Y-57467500D01*
X97155000Y-47625000D02*
X98425000Y-46355000D01*
X120967500Y-56197500D02*
X122237500Y-54927500D01*
X84455000Y-51435000D02*
X83185000Y-52705000D01*
X101600000Y-43180000D02*
X101600000Y-40005000D01*
X99060000Y-52705000D02*
X103106250Y-52705000D01*
X97790000Y-36195000D02*
X95885000Y-36195000D01*
D28*
X88275000Y-46345000D02*
X88265000Y-46355000D01*
D27*
X103106250Y-52705000D02*
X106598750Y-56197500D01*
X84455000Y-45065000D02*
X84455000Y-48895000D01*
X98425000Y-46355000D02*
X101600000Y-43180000D01*
X122237500Y-52070000D02*
X131762500Y-42545000D01*
D28*
X88255000Y-46345000D02*
X88265000Y-46355000D01*
D27*
X98425000Y-46355000D02*
X95885000Y-46355000D01*
X79375000Y-57467500D02*
X79375000Y-60007500D01*
X101600000Y-40005000D02*
X97790000Y-36195000D01*
X85725000Y-43815000D02*
X88265000Y-43815000D01*
X97155000Y-52705000D02*
X97155000Y-60047500D01*
X97155000Y-47625000D02*
X95885000Y-46355000D01*
X97155000Y-52705000D02*
X97155000Y-47625000D01*
X88255000Y-43805000D02*
X88255000Y-46345000D01*
X83185000Y-52705000D02*
X80645000Y-52705000D01*
X85725000Y-52705000D02*
X89575000Y-52705000D01*
X85715000Y-43805000D02*
X84455000Y-45065000D01*
X83185000Y-52705000D02*
X85725000Y-52705000D01*
X84455000Y-48895000D02*
X84455000Y-51435000D01*
X97155000Y-52705000D02*
X99695000Y-52705000D01*
X80645000Y-52705000D02*
X79375000Y-53975000D01*
D29*
X88255000Y-43805000D02*
X85735000Y-43805000D01*
D27*
X84455000Y-51435000D02*
X85725000Y-52705000D01*
D30*
%TO.N,Net-(J1-Pin_1)*%
X123190000Y-68262500D02*
X90487500Y-68262500D01*
X90487500Y-68262500D02*
X86995000Y-64770000D01*
X125407500Y-58425000D02*
X123825000Y-60007500D01*
X126672500Y-58425000D02*
X125407500Y-58425000D01*
X123825000Y-60007500D02*
X123825000Y-67627500D01*
X123825000Y-67627500D02*
X123190000Y-68262500D01*
X86995000Y-64770000D02*
X86995000Y-62547500D01*
D27*
X86995000Y-62547500D02*
X86995000Y-60007500D01*
D30*
%TO.N,Net-(J1-Pin_2)*%
X123825000Y-68897500D02*
X88582500Y-68897500D01*
X126672500Y-66050000D02*
X123825000Y-68897500D01*
D27*
X84455000Y-62547500D02*
X84455000Y-60007500D01*
D30*
X84455000Y-64770000D02*
X84455000Y-62547500D01*
X126672500Y-66045000D02*
X126672500Y-66050000D01*
X88582500Y-68897500D02*
X84455000Y-64770000D01*
D27*
%TO.N,Net-(C5-Pad1)*%
X141090000Y-34092500D02*
X140017500Y-33020000D01*
X131127500Y-50285000D02*
X141090000Y-40322500D01*
X142162500Y-33020000D02*
X141090000Y-34092500D01*
X131127500Y-57150000D02*
X132402500Y-58425000D01*
X142557500Y-33020000D02*
X142162500Y-33020000D01*
X125412500Y-33020000D02*
X140017500Y-33020000D01*
X140017500Y-33020000D02*
X142557500Y-33020000D01*
X141090000Y-40322500D02*
X141090000Y-34092500D01*
X132402500Y-58425000D02*
X134292500Y-58425000D01*
X134292500Y-58425000D02*
X134292500Y-63505000D01*
X123507500Y-34925000D02*
X125412500Y-33020000D01*
X131127500Y-57150000D02*
X131127500Y-50285000D01*
%TO.N,Net-(D2-K)*%
X150812500Y-48260000D02*
X155887500Y-48260000D01*
X155887500Y-48260000D02*
X155892500Y-48255000D01*
X155852500Y-48215000D02*
X155892500Y-48255000D01*
X155892500Y-48255000D02*
X155892500Y-40520000D01*
X155892500Y-40520000D02*
X156090000Y-40322500D01*
X145732500Y-48260000D02*
X150812500Y-48260000D01*
%TO.N,Net-(R4-Pad1)*%
X139372500Y-56822500D02*
X138430000Y-55880000D01*
X138415000Y-66050000D02*
X139372500Y-65092500D01*
X134297500Y-66050000D02*
X138415000Y-66050000D01*
X138430000Y-55880000D02*
X134297500Y-55880000D01*
X140335000Y-55880000D02*
X145732500Y-55880000D01*
X139372500Y-65092500D02*
X139372500Y-56842500D01*
X138430000Y-55880000D02*
X140335000Y-55880000D01*
X134297500Y-55880000D02*
X134292500Y-55885000D01*
X139372500Y-56842500D02*
X139372500Y-56822500D01*
X139372500Y-56842500D02*
X140335000Y-55880000D01*
X134292500Y-66045000D02*
X134297500Y-66050000D01*
%TO.N,Net-(J2-Pin_1)*%
X129857500Y-27940000D02*
X149542500Y-27940000D01*
X149542500Y-27940000D02*
X154622500Y-33020000D01*
X160972500Y-36830000D02*
X157162500Y-33020000D01*
X160972500Y-60007500D02*
X160972500Y-36830000D01*
X154622500Y-33020000D02*
X157162500Y-33020000D01*
%TO.N,Net-(D2-A)*%
X155892500Y-56515000D02*
X155892500Y-60007500D01*
X155892500Y-60007500D02*
X155892500Y-62547500D01*
%TO.N,Net-(D3-K)*%
X150812500Y-56520000D02*
X150812500Y-60007500D01*
X150812500Y-60007500D02*
X150812500Y-62547500D01*
%TD*%
%TA.AperFunction,Conductor*%
%TO.N,GND*%
G36*
X93043431Y-42565002D02*
G01*
X93064400Y-42581900D01*
X93662500Y-43180000D01*
X94324000Y-43180000D01*
X94392121Y-43200002D01*
X94438614Y-43253658D01*
X94450000Y-43306000D01*
X94450000Y-43315000D01*
X96202500Y-43315000D01*
X96202500Y-43566814D01*
X96130606Y-43494920D01*
X96039394Y-43442259D01*
X95937661Y-43415000D01*
X95832339Y-43415000D01*
X95730606Y-43442259D01*
X95639394Y-43494920D01*
X95564920Y-43569394D01*
X95512259Y-43660606D01*
X95485000Y-43762339D01*
X95485000Y-43867661D01*
X95512259Y-43969394D01*
X95564920Y-44060606D01*
X95639394Y-44135080D01*
X95730606Y-44187741D01*
X95832339Y-44215000D01*
X95937661Y-44215000D01*
X96039394Y-44187741D01*
X96130606Y-44135080D01*
X96202500Y-44063186D01*
X96202500Y-44315000D01*
X94450000Y-44315000D01*
X94450000Y-44562809D01*
X94429998Y-44630930D01*
X94413095Y-44651904D01*
X93980000Y-45084998D01*
X93980000Y-47545238D01*
X93978682Y-47563416D01*
X93975098Y-47587991D01*
X93980000Y-47592892D01*
X93980000Y-47625000D01*
X95226781Y-48871781D01*
X95223204Y-48921795D01*
X93980000Y-50165000D01*
X93980000Y-50197104D01*
X93975099Y-50202005D01*
X93978684Y-50226609D01*
X93980000Y-50244772D01*
X93980000Y-51355238D01*
X93978682Y-51373416D01*
X93975098Y-51397991D01*
X93980000Y-51402892D01*
X93980000Y-51435000D01*
X95226781Y-52681781D01*
X95223204Y-52731795D01*
X93980000Y-53975000D01*
X93980000Y-54007104D01*
X93975099Y-54012005D01*
X93978684Y-54036609D01*
X93980000Y-54054772D01*
X93980000Y-61912501D01*
X94614998Y-62547499D01*
X94615000Y-62547500D01*
X99060000Y-62547500D01*
X99695000Y-61912500D01*
X99695000Y-58154690D01*
X99715002Y-58086569D01*
X99731905Y-58065595D01*
X100293095Y-57504405D01*
X100355407Y-57470379D01*
X100382190Y-57467500D01*
X121920000Y-57467500D01*
X124002500Y-55385000D01*
X125324838Y-55385000D01*
X126172500Y-55385000D01*
X127172500Y-55385000D01*
X128020161Y-55385000D01*
X127938874Y-55199684D01*
X127938867Y-55199672D01*
X127808798Y-55000583D01*
X127647736Y-54825623D01*
X127460060Y-54679549D01*
X127460059Y-54679548D01*
X127250907Y-54566361D01*
X127250901Y-54566359D01*
X127172500Y-54539444D01*
X127172500Y-55385000D01*
X126172500Y-55385000D01*
X126172500Y-54539444D01*
X126094098Y-54566359D01*
X126094092Y-54566361D01*
X125884940Y-54679548D01*
X125884939Y-54679549D01*
X125697263Y-54825623D01*
X125536201Y-55000583D01*
X125406132Y-55199672D01*
X125406125Y-55199684D01*
X125324838Y-55385000D01*
X124002500Y-55385000D01*
X125375595Y-54011905D01*
X125437907Y-53977879D01*
X125464690Y-53975000D01*
X128217810Y-53975000D01*
X128285931Y-53995002D01*
X128306905Y-54011905D01*
X128868095Y-54573095D01*
X128902121Y-54635407D01*
X128905000Y-54662190D01*
X128905000Y-63130310D01*
X128884998Y-63198431D01*
X128868095Y-63219405D01*
X128306905Y-63780595D01*
X128244593Y-63814621D01*
X128217810Y-63817500D01*
X126925686Y-63817500D01*
X126992580Y-63750606D01*
X127045241Y-63659394D01*
X127072500Y-63557661D01*
X127072500Y-63452339D01*
X127045241Y-63350606D01*
X126992580Y-63259394D01*
X126918106Y-63184920D01*
X126826894Y-63132259D01*
X126725161Y-63105000D01*
X126619839Y-63105000D01*
X126518106Y-63132259D01*
X126426894Y-63184920D01*
X126352420Y-63259394D01*
X126299759Y-63350606D01*
X126272500Y-63452339D01*
X126272500Y-63557661D01*
X126299759Y-63659394D01*
X126352420Y-63750606D01*
X126419314Y-63817500D01*
X125147190Y-63817500D01*
X125079069Y-63797498D01*
X125058095Y-63780595D01*
X124496905Y-63219405D01*
X124462879Y-63157093D01*
X124460000Y-63130310D01*
X124460000Y-63005000D01*
X125324838Y-63005000D01*
X126172500Y-63005000D01*
X127172500Y-63005000D01*
X128020161Y-63005000D01*
X127938874Y-62819684D01*
X127938867Y-62819672D01*
X127808798Y-62620583D01*
X127647736Y-62445623D01*
X127460060Y-62299549D01*
X127460059Y-62299548D01*
X127250907Y-62186361D01*
X127250901Y-62186359D01*
X127172500Y-62159444D01*
X127172500Y-63005000D01*
X126172500Y-63005000D01*
X126172500Y-62159444D01*
X126094098Y-62186359D01*
X126094092Y-62186361D01*
X125884940Y-62299548D01*
X125884939Y-62299549D01*
X125697263Y-62445623D01*
X125536201Y-62620583D01*
X125406132Y-62819672D01*
X125406125Y-62819684D01*
X125324838Y-63005000D01*
X124460000Y-63005000D01*
X124460000Y-60675574D01*
X124480002Y-60607453D01*
X124498362Y-60585045D01*
X125058360Y-60042968D01*
X125121217Y-60009960D01*
X125145995Y-60007500D01*
X127635000Y-60007500D01*
X128270000Y-59372500D01*
X128270000Y-56515000D01*
X128269999Y-56514998D01*
X128140001Y-56385000D01*
X128140000Y-56385000D01*
X127952500Y-56197500D01*
X126925686Y-56197500D01*
X126992580Y-56130606D01*
X127045241Y-56039394D01*
X127072500Y-55937661D01*
X127072500Y-55832339D01*
X127045241Y-55730606D01*
X126992580Y-55639394D01*
X126918106Y-55564920D01*
X126826894Y-55512259D01*
X126725161Y-55485000D01*
X126619839Y-55485000D01*
X126518106Y-55512259D01*
X126426894Y-55564920D01*
X126352420Y-55639394D01*
X126299759Y-55730606D01*
X126272500Y-55832339D01*
X126272500Y-55937661D01*
X126299759Y-56039394D01*
X126352420Y-56130606D01*
X126419314Y-56197500D01*
X125412500Y-56197500D01*
X125225000Y-56385000D01*
X125224997Y-56385000D01*
X123190000Y-58419998D01*
X123190000Y-66940310D01*
X123169998Y-67008431D01*
X123153095Y-67029405D01*
X122591905Y-67590595D01*
X122529593Y-67624621D01*
X122502810Y-67627500D01*
X91174690Y-67627500D01*
X91106569Y-67607498D01*
X91085595Y-67590595D01*
X90144558Y-66649558D01*
X96260047Y-66649558D01*
X96260047Y-66649559D01*
X96390762Y-66720936D01*
X96390766Y-66720938D01*
X96636701Y-66812667D01*
X96893188Y-66868462D01*
X97155000Y-66887186D01*
X97416811Y-66868462D01*
X97673298Y-66812667D01*
X97919235Y-66720937D01*
X98049951Y-66649559D01*
X98049951Y-66649557D01*
X97155001Y-65754607D01*
X97155000Y-65754607D01*
X96260047Y-66649558D01*
X90144558Y-66649558D01*
X89254405Y-65759405D01*
X89220379Y-65697093D01*
X89217500Y-65670310D01*
X89217500Y-65047500D01*
X95315313Y-65047500D01*
X95334037Y-65309311D01*
X95389832Y-65565798D01*
X95481561Y-65811733D01*
X95481563Y-65811737D01*
X95552939Y-65942451D01*
X96447892Y-65047499D01*
X96368902Y-64968509D01*
X96555000Y-64968509D01*
X96555000Y-65126491D01*
X96595889Y-65279091D01*
X96674881Y-65415908D01*
X96786592Y-65527619D01*
X96923409Y-65606611D01*
X97076009Y-65647500D01*
X97233991Y-65647500D01*
X97386591Y-65606611D01*
X97523408Y-65527619D01*
X97635119Y-65415908D01*
X97714111Y-65279091D01*
X97755000Y-65126491D01*
X97755000Y-65047499D01*
X97862107Y-65047499D01*
X97862107Y-65047501D01*
X98757057Y-65942451D01*
X98757059Y-65942451D01*
X98828437Y-65811735D01*
X98920167Y-65565798D01*
X98975962Y-65309311D01*
X98994686Y-65047500D01*
X98975962Y-64785688D01*
X98920167Y-64529201D01*
X98828438Y-64283266D01*
X98828436Y-64283262D01*
X98757059Y-64152547D01*
X98757058Y-64152547D01*
X97862107Y-65047499D01*
X97755000Y-65047499D01*
X97755000Y-64968509D01*
X97714111Y-64815909D01*
X97635119Y-64679092D01*
X97523408Y-64567381D01*
X97386591Y-64488389D01*
X97233991Y-64447500D01*
X97076009Y-64447500D01*
X96923409Y-64488389D01*
X96786592Y-64567381D01*
X96674881Y-64679092D01*
X96595889Y-64815909D01*
X96555000Y-64968509D01*
X96368902Y-64968509D01*
X95552939Y-64152547D01*
X95481561Y-64283266D01*
X95389832Y-64529201D01*
X95334037Y-64785688D01*
X95315313Y-65047500D01*
X89217500Y-65047500D01*
X89217500Y-63445439D01*
X96260047Y-63445439D01*
X97154999Y-64340392D01*
X98049951Y-63445439D01*
X97919237Y-63374063D01*
X97919233Y-63374061D01*
X97673298Y-63282332D01*
X97416811Y-63226537D01*
X97155000Y-63207813D01*
X96893188Y-63226537D01*
X96636701Y-63282332D01*
X96390766Y-63374061D01*
X96260047Y-63445439D01*
X89217500Y-63445439D01*
X89217500Y-58737500D01*
X89217499Y-58737498D01*
X88582501Y-58102500D01*
X88582500Y-58102500D01*
X83185000Y-58102500D01*
X82776892Y-58510606D01*
X82714580Y-58544631D01*
X82643764Y-58539566D01*
X82639579Y-58537919D01*
X82421800Y-58447712D01*
X82421801Y-58447712D01*
X82415000Y-58446079D01*
X82415000Y-59941674D01*
X82380925Y-59814507D01*
X82315099Y-59700493D01*
X82222007Y-59607401D01*
X82107993Y-59541575D01*
X81980826Y-59507500D01*
X81849174Y-59507500D01*
X81722007Y-59541575D01*
X81607993Y-59607401D01*
X81514901Y-59700493D01*
X81449075Y-59814507D01*
X81415000Y-59941674D01*
X81415000Y-58446079D01*
X81406977Y-58439755D01*
X81364509Y-58437632D01*
X81306774Y-58396314D01*
X81280543Y-58330341D01*
X81280000Y-58318659D01*
X81280000Y-57202190D01*
X81300002Y-57134069D01*
X81316905Y-57113095D01*
X81878095Y-56551905D01*
X81940407Y-56517879D01*
X81967190Y-56515000D01*
X90805000Y-56515000D01*
X91440000Y-55880000D01*
X91440000Y-52705000D01*
X93135082Y-52705000D01*
X93154722Y-52942010D01*
X93213099Y-53172537D01*
X93213100Y-53172538D01*
X93270192Y-53302698D01*
X93867893Y-52704999D01*
X93815233Y-52652339D01*
X94175000Y-52652339D01*
X94175000Y-52757661D01*
X94202259Y-52859394D01*
X94254920Y-52950606D01*
X94329394Y-53025080D01*
X94420606Y-53077741D01*
X94522339Y-53105000D01*
X94627661Y-53105000D01*
X94729394Y-53077741D01*
X94820606Y-53025080D01*
X94895080Y-52950606D01*
X94947741Y-52859394D01*
X94975000Y-52757661D01*
X94975000Y-52652339D01*
X94947741Y-52550606D01*
X94895080Y-52459394D01*
X94820606Y-52384920D01*
X94729394Y-52332259D01*
X94627661Y-52305000D01*
X94522339Y-52305000D01*
X94420606Y-52332259D01*
X94329394Y-52384920D01*
X94254920Y-52459394D01*
X94202259Y-52550606D01*
X94175000Y-52652339D01*
X93815233Y-52652339D01*
X93270193Y-52107299D01*
X93213100Y-52237460D01*
X93213099Y-52237462D01*
X93154722Y-52467989D01*
X93135082Y-52705000D01*
X91440000Y-52705000D01*
X91440000Y-48895000D01*
X93135082Y-48895000D01*
X93154722Y-49132010D01*
X93213099Y-49362537D01*
X93213100Y-49362538D01*
X93270192Y-49492698D01*
X93867893Y-48894999D01*
X93815233Y-48842339D01*
X94175000Y-48842339D01*
X94175000Y-48947661D01*
X94202259Y-49049394D01*
X94254920Y-49140606D01*
X94329394Y-49215080D01*
X94420606Y-49267741D01*
X94522339Y-49295000D01*
X94627661Y-49295000D01*
X94729394Y-49267741D01*
X94820606Y-49215080D01*
X94895080Y-49140606D01*
X94947741Y-49049394D01*
X94975000Y-48947661D01*
X94975000Y-48842339D01*
X94947741Y-48740606D01*
X94895080Y-48649394D01*
X94820606Y-48574920D01*
X94729394Y-48522259D01*
X94627661Y-48495000D01*
X94522339Y-48495000D01*
X94420606Y-48522259D01*
X94329394Y-48574920D01*
X94254920Y-48649394D01*
X94202259Y-48740606D01*
X94175000Y-48842339D01*
X93815233Y-48842339D01*
X93270193Y-48297299D01*
X93213100Y-48427460D01*
X93213099Y-48427462D01*
X93154722Y-48657989D01*
X93135082Y-48895000D01*
X91440000Y-48895000D01*
X91440000Y-43232190D01*
X91460002Y-43164069D01*
X91476905Y-43143095D01*
X92038095Y-42581905D01*
X92100407Y-42547879D01*
X92127190Y-42545000D01*
X92975310Y-42545000D01*
X93043431Y-42565002D01*
G37*
%TD.AperFunction*%
%TA.AperFunction,Conductor*%
G36*
X102885931Y-25737502D02*
G01*
X102906905Y-25754405D01*
X103468095Y-26315595D01*
X103502121Y-26377907D01*
X103505000Y-26404690D01*
X103505000Y-42227501D01*
X105092498Y-43814999D01*
X105092500Y-43815000D01*
X112342810Y-43815000D01*
X112410931Y-43835002D01*
X112431905Y-43851905D01*
X113310595Y-44730595D01*
X113344621Y-44792907D01*
X113347500Y-44819690D01*
X113347500Y-48207810D01*
X113327498Y-48275931D01*
X113310595Y-48296905D01*
X112431905Y-49175595D01*
X112369593Y-49209621D01*
X112342810Y-49212500D01*
X110941777Y-49212500D01*
X111002518Y-49107292D01*
X111040000Y-48967409D01*
X111040000Y-48822591D01*
X111002518Y-48682708D01*
X110930110Y-48557292D01*
X110827708Y-48454890D01*
X110723974Y-48395000D01*
X110990000Y-48395000D01*
X112012170Y-48395000D01*
X112012170Y-48394999D01*
X111961195Y-48238115D01*
X111961192Y-48238109D01*
X111847749Y-48015465D01*
X111700874Y-47813310D01*
X111700872Y-47813307D01*
X111524192Y-47636627D01*
X111524189Y-47636625D01*
X111322034Y-47489750D01*
X111099385Y-47376304D01*
X110990000Y-47340763D01*
X110990000Y-48395000D01*
X110723974Y-48395000D01*
X110702292Y-48382482D01*
X110562409Y-48345000D01*
X110417591Y-48345000D01*
X110277708Y-48382482D01*
X110172500Y-48443223D01*
X110172500Y-46355000D01*
X110172499Y-46354998D01*
X109220001Y-45402500D01*
X109220000Y-45402500D01*
X103874690Y-45402500D01*
X103806569Y-45382498D01*
X103785595Y-45365595D01*
X102906905Y-44486905D01*
X102872879Y-44424593D01*
X102870000Y-44397810D01*
X102870000Y-39370000D01*
X102869999Y-39369998D01*
X98107501Y-34607500D01*
X98107500Y-34607500D01*
X81597500Y-34607500D01*
X80757603Y-35447395D01*
X80757603Y-35447397D01*
X78667397Y-37537603D01*
X78667395Y-37537603D01*
X77470000Y-38734999D01*
X77470000Y-63817501D01*
X78104998Y-64452499D01*
X78105000Y-64452500D01*
X80644999Y-64452500D01*
X80645000Y-64452500D01*
X81053108Y-64044391D01*
X81115416Y-64010369D01*
X81186232Y-64015433D01*
X81190418Y-64017080D01*
X81408191Y-64107284D01*
X81408200Y-64107287D01*
X81414999Y-64108919D01*
X81415000Y-64108918D01*
X81415000Y-62613326D01*
X81449075Y-62740493D01*
X81514901Y-62854507D01*
X81607993Y-62947599D01*
X81722007Y-63013425D01*
X81849174Y-63047500D01*
X81980826Y-63047500D01*
X82107993Y-63013425D01*
X82222007Y-62947599D01*
X82315099Y-62854507D01*
X82380925Y-62740493D01*
X82415000Y-62613326D01*
X82415000Y-64108918D01*
X82423016Y-64115238D01*
X82465506Y-64117369D01*
X82523236Y-64158694D01*
X82549459Y-64224671D01*
X82550000Y-64236336D01*
X82550000Y-65670310D01*
X82529998Y-65738431D01*
X82513095Y-65759405D01*
X81951905Y-66320595D01*
X81889593Y-66354621D01*
X81862810Y-66357500D01*
X77204690Y-66357500D01*
X77136569Y-66337498D01*
X77115595Y-66320595D01*
X76554405Y-65759405D01*
X76520379Y-65697093D01*
X76517500Y-65670310D01*
X76517500Y-36195000D01*
X77975082Y-36195000D01*
X77994722Y-36432010D01*
X78053099Y-36662537D01*
X78053100Y-36662538D01*
X78110192Y-36792698D01*
X78707893Y-36194999D01*
X78655233Y-36142339D01*
X79015000Y-36142339D01*
X79015000Y-36247661D01*
X79042259Y-36349394D01*
X79094920Y-36440606D01*
X79169394Y-36515080D01*
X79260606Y-36567741D01*
X79362339Y-36595000D01*
X79467661Y-36595000D01*
X79569394Y-36567741D01*
X79660606Y-36515080D01*
X79735080Y-36440606D01*
X79787741Y-36349394D01*
X79815000Y-36247661D01*
X79815000Y-36142339D01*
X79787741Y-36040606D01*
X79735080Y-35949394D01*
X79660606Y-35874920D01*
X79569394Y-35822259D01*
X79467661Y-35795000D01*
X79362339Y-35795000D01*
X79260606Y-35822259D01*
X79169394Y-35874920D01*
X79094920Y-35949394D01*
X79042259Y-36040606D01*
X79015000Y-36142339D01*
X78655233Y-36142339D01*
X78110193Y-35597299D01*
X78053100Y-35727460D01*
X78053099Y-35727462D01*
X77994722Y-35957989D01*
X77975082Y-36195000D01*
X76517500Y-36195000D01*
X76517500Y-34887991D01*
X78815098Y-34887991D01*
X78815098Y-34887992D01*
X79414999Y-35487893D01*
X79415000Y-35487893D01*
X80014900Y-34887992D01*
X79993408Y-34876362D01*
X79768479Y-34799143D01*
X79768476Y-34799142D01*
X79533903Y-34760000D01*
X79296097Y-34760000D01*
X79061523Y-34799142D01*
X79061520Y-34799143D01*
X78836588Y-34876363D01*
X78815098Y-34887991D01*
X76517500Y-34887991D01*
X76517500Y-29080144D01*
X78624461Y-29080144D01*
X78630430Y-29083801D01*
X78630429Y-29083801D01*
X78868196Y-29182286D01*
X79118439Y-29242363D01*
X79375000Y-29262555D01*
X79631560Y-29242363D01*
X79881803Y-29182286D01*
X80119567Y-29083802D01*
X80119573Y-29083798D01*
X80125537Y-29080144D01*
X81164461Y-29080144D01*
X81170430Y-29083801D01*
X81170429Y-29083801D01*
X81408196Y-29182286D01*
X81658439Y-29242363D01*
X81915000Y-29262555D01*
X82171560Y-29242363D01*
X82421803Y-29182286D01*
X82659567Y-29083802D01*
X82659573Y-29083798D01*
X82665537Y-29080144D01*
X81915000Y-28329607D01*
X81914999Y-28329607D01*
X81164461Y-29080144D01*
X80125537Y-29080144D01*
X79375000Y-28329607D01*
X79374999Y-28329607D01*
X78624461Y-29080144D01*
X76517500Y-29080144D01*
X76517500Y-27622500D01*
X77734944Y-27622500D01*
X77755136Y-27879060D01*
X77815213Y-28129303D01*
X77913700Y-28367073D01*
X77913702Y-28367076D01*
X77917354Y-28373036D01*
X77917355Y-28373036D01*
X78667893Y-27622499D01*
X78602068Y-27556674D01*
X78875000Y-27556674D01*
X78875000Y-27688326D01*
X78909075Y-27815493D01*
X78974901Y-27929507D01*
X79067993Y-28022599D01*
X79182007Y-28088425D01*
X79309174Y-28122500D01*
X79440826Y-28122500D01*
X79567993Y-28088425D01*
X79682007Y-28022599D01*
X79775099Y-27929507D01*
X79840925Y-27815493D01*
X79875000Y-27688326D01*
X79875000Y-27622499D01*
X80082107Y-27622499D01*
X80082107Y-27622501D01*
X80644999Y-28185393D01*
X80645001Y-28185393D01*
X81207893Y-27622501D01*
X81207893Y-27622499D01*
X81142068Y-27556674D01*
X81415000Y-27556674D01*
X81415000Y-27688326D01*
X81449075Y-27815493D01*
X81514901Y-27929507D01*
X81607993Y-28022599D01*
X81722007Y-28088425D01*
X81849174Y-28122500D01*
X81980826Y-28122500D01*
X82107993Y-28088425D01*
X82222007Y-28022599D01*
X82315099Y-27929507D01*
X82380925Y-27815493D01*
X82415000Y-27688326D01*
X82415000Y-27622499D01*
X82622107Y-27622499D01*
X83372644Y-28373036D01*
X83376298Y-28367073D01*
X83376302Y-28367067D01*
X83474786Y-28129303D01*
X83534863Y-27879060D01*
X83555055Y-27622500D01*
X83534863Y-27365939D01*
X83474786Y-27115696D01*
X83376301Y-26877930D01*
X83372644Y-26871961D01*
X82622107Y-27622499D01*
X82415000Y-27622499D01*
X82415000Y-27556674D01*
X82380925Y-27429507D01*
X82315099Y-27315493D01*
X82222007Y-27222401D01*
X82107993Y-27156575D01*
X81980826Y-27122500D01*
X81849174Y-27122500D01*
X81722007Y-27156575D01*
X81607993Y-27222401D01*
X81514901Y-27315493D01*
X81449075Y-27429507D01*
X81415000Y-27556674D01*
X81142068Y-27556674D01*
X80645001Y-27059607D01*
X80644999Y-27059607D01*
X80082107Y-27622499D01*
X79875000Y-27622499D01*
X79875000Y-27556674D01*
X79840925Y-27429507D01*
X79775099Y-27315493D01*
X79682007Y-27222401D01*
X79567993Y-27156575D01*
X79440826Y-27122500D01*
X79309174Y-27122500D01*
X79182007Y-27156575D01*
X79067993Y-27222401D01*
X78974901Y-27315493D01*
X78909075Y-27429507D01*
X78875000Y-27556674D01*
X78602068Y-27556674D01*
X77917356Y-26871962D01*
X77917353Y-26871962D01*
X77913701Y-26877924D01*
X77815213Y-27115696D01*
X77755136Y-27365939D01*
X77734944Y-27622500D01*
X76517500Y-27622500D01*
X76517500Y-26404690D01*
X76537502Y-26336569D01*
X76554405Y-26315595D01*
X76705147Y-26164853D01*
X78624462Y-26164853D01*
X78624462Y-26164856D01*
X79374999Y-26915393D01*
X79375000Y-26915393D01*
X80125536Y-26164855D01*
X80125536Y-26164854D01*
X80125534Y-26164853D01*
X81164462Y-26164853D01*
X81164462Y-26164856D01*
X81914999Y-26915393D01*
X81915000Y-26915393D01*
X82665536Y-26164855D01*
X82665536Y-26164854D01*
X82659576Y-26161202D01*
X82659573Y-26161200D01*
X82421803Y-26062713D01*
X82171560Y-26002636D01*
X81915000Y-25982444D01*
X81658439Y-26002636D01*
X81408196Y-26062713D01*
X81170424Y-26161201D01*
X81164462Y-26164853D01*
X80125534Y-26164853D01*
X80119576Y-26161202D01*
X80119573Y-26161200D01*
X79881803Y-26062713D01*
X79631560Y-26002636D01*
X79375000Y-25982444D01*
X79118439Y-26002636D01*
X78868196Y-26062713D01*
X78630424Y-26161201D01*
X78624462Y-26164853D01*
X76705147Y-26164853D01*
X77115595Y-25754405D01*
X77177907Y-25720379D01*
X77204690Y-25717500D01*
X102817810Y-25717500D01*
X102885931Y-25737502D01*
G37*
%TD.AperFunction*%
%TA.AperFunction,Conductor*%
G36*
X82415000Y-62481674D02*
G01*
X82380925Y-62354507D01*
X82315099Y-62240493D01*
X82222007Y-62147401D01*
X82107993Y-62081575D01*
X81980826Y-62047500D01*
X81849174Y-62047500D01*
X81722007Y-62081575D01*
X81607993Y-62147401D01*
X81514901Y-62240493D01*
X81449075Y-62354507D01*
X81415000Y-62481674D01*
X81415000Y-60073326D01*
X81449075Y-60200493D01*
X81514901Y-60314507D01*
X81607993Y-60407599D01*
X81722007Y-60473425D01*
X81849174Y-60507500D01*
X81980826Y-60507500D01*
X82107993Y-60473425D01*
X82222007Y-60407599D01*
X82315099Y-60314507D01*
X82380925Y-60200493D01*
X82415000Y-60073326D01*
X82415000Y-62481674D01*
G37*
%TD.AperFunction*%
%TD*%
%TA.AperFunction,NonConductor*%
G36*
X110823177Y-29229685D02*
G01*
X110843819Y-29246319D01*
X111406181Y-29808681D01*
X111439666Y-29870004D01*
X111442500Y-29896362D01*
X111442500Y-42176138D01*
X111422815Y-42243177D01*
X111406181Y-42263819D01*
X110843819Y-42826181D01*
X110782496Y-42859666D01*
X110756138Y-42862500D01*
X105143862Y-42862500D01*
X105076823Y-42842815D01*
X105056181Y-42826181D01*
X104493819Y-42263819D01*
X104460334Y-42202496D01*
X104457500Y-42176138D01*
X104457500Y-32234998D01*
X105940380Y-32234998D01*
X105940380Y-32235001D01*
X105945184Y-32302168D01*
X105945500Y-32311014D01*
X105945500Y-32366389D01*
X105954381Y-32433839D01*
X105955126Y-32441179D01*
X105960835Y-32520999D01*
X105960836Y-32521010D01*
X105972452Y-32574407D01*
X105974225Y-32584575D01*
X105979797Y-32626894D01*
X105979800Y-32626905D01*
X106000690Y-32704871D01*
X106002081Y-32710605D01*
X106021782Y-32801169D01*
X106021784Y-32801176D01*
X106036448Y-32840492D01*
X106040040Y-32851728D01*
X106047805Y-32880706D01*
X106083541Y-32966980D01*
X106085158Y-32971090D01*
X106096683Y-33001989D01*
X106121985Y-33069827D01*
X106136013Y-33095517D01*
X106141740Y-33107487D01*
X106148358Y-33123465D01*
X106148360Y-33123468D01*
X106201389Y-33215318D01*
X106202833Y-33217889D01*
X106259400Y-33321483D01*
X106259404Y-33321488D01*
X106259405Y-33321490D01*
X106259405Y-33321491D01*
X106269324Y-33334740D01*
X106277443Y-33347048D01*
X106279740Y-33351027D01*
X106352061Y-33445277D01*
X106352952Y-33446453D01*
X106431224Y-33551013D01*
X106431238Y-33551028D01*
X106436957Y-33556747D01*
X106436986Y-33556778D01*
X106628602Y-33748395D01*
X106628641Y-33748431D01*
X106633979Y-33753769D01*
X106738611Y-33832095D01*
X106739682Y-33832907D01*
X106833970Y-33905257D01*
X106837946Y-33907552D01*
X106850249Y-33915667D01*
X106863517Y-33925600D01*
X106935303Y-33964798D01*
X106967108Y-33982165D01*
X106969681Y-33983610D01*
X107061530Y-34036639D01*
X107073318Y-34041521D01*
X107077508Y-34043257D01*
X107089480Y-34048984D01*
X107115174Y-34063015D01*
X107182449Y-34088107D01*
X107213888Y-34099833D01*
X107218008Y-34101454D01*
X107304282Y-34137190D01*
X107304292Y-34137194D01*
X107333279Y-34144960D01*
X107344492Y-34148545D01*
X107383825Y-34163216D01*
X107474429Y-34182925D01*
X107480112Y-34184304D01*
X107558102Y-34205202D01*
X107600419Y-34210773D01*
X107610574Y-34212542D01*
X107664001Y-34224165D01*
X107743822Y-34229873D01*
X107751141Y-34230615D01*
X107818618Y-34239500D01*
X107873985Y-34239500D01*
X107882831Y-34239816D01*
X107949999Y-34244620D01*
X107950000Y-34244620D01*
X107950001Y-34244620D01*
X108017169Y-34239816D01*
X108026015Y-34239500D01*
X108081376Y-34239500D01*
X108081382Y-34239500D01*
X108148864Y-34230614D01*
X108156173Y-34229873D01*
X108235999Y-34224165D01*
X108289420Y-34212543D01*
X108299582Y-34210772D01*
X108341898Y-34205202D01*
X108419891Y-34184302D01*
X108425553Y-34182928D01*
X108516175Y-34163216D01*
X108555511Y-34148543D01*
X108566737Y-34144955D01*
X108595708Y-34137194D01*
X108682057Y-34101426D01*
X108686050Y-34099855D01*
X108784826Y-34063015D01*
X108810528Y-34048979D01*
X108822495Y-34043255D01*
X108838470Y-34036639D01*
X108930401Y-33983561D01*
X108932846Y-33982189D01*
X109036483Y-33925600D01*
X109049748Y-33915668D01*
X109062058Y-33907549D01*
X109066030Y-33905257D01*
X109160402Y-33832841D01*
X109161279Y-33832176D01*
X109266021Y-33753769D01*
X109270139Y-33749650D01*
X109270165Y-33749628D01*
X109464628Y-33555165D01*
X109464650Y-33555139D01*
X109468769Y-33551021D01*
X109547176Y-33446279D01*
X109547841Y-33445402D01*
X109620257Y-33351030D01*
X109622556Y-33347048D01*
X109630668Y-33334748D01*
X109640600Y-33321483D01*
X109697189Y-33217846D01*
X109698561Y-33215401D01*
X109751639Y-33123470D01*
X109758259Y-33107487D01*
X109763979Y-33095528D01*
X109778015Y-33069826D01*
X109814855Y-32971050D01*
X109816426Y-32967057D01*
X109852194Y-32880708D01*
X109859959Y-32851728D01*
X109863543Y-32840511D01*
X109878216Y-32801175D01*
X109897928Y-32710553D01*
X109899308Y-32704871D01*
X109920202Y-32626898D01*
X109925774Y-32584575D01*
X109927545Y-32574412D01*
X109927546Y-32574407D01*
X109939165Y-32520999D01*
X109944873Y-32441173D01*
X109945614Y-32433864D01*
X109954500Y-32366382D01*
X109954500Y-32311014D01*
X109954816Y-32302168D01*
X109959620Y-32235001D01*
X109959620Y-32234998D01*
X109954816Y-32167830D01*
X109954500Y-32158984D01*
X109954500Y-32103623D01*
X109954499Y-32103617D01*
X109945615Y-32036141D01*
X109944872Y-32028811D01*
X109939165Y-31949001D01*
X109927542Y-31895574D01*
X109925772Y-31885413D01*
X109920202Y-31843105D01*
X109920202Y-31843102D01*
X109899304Y-31765112D01*
X109897918Y-31759398D01*
X109878216Y-31668825D01*
X109863545Y-31629492D01*
X109859960Y-31618279D01*
X109852194Y-31589292D01*
X109816454Y-31503008D01*
X109814833Y-31498888D01*
X109803107Y-31467449D01*
X109778015Y-31400174D01*
X109763982Y-31374475D01*
X109758257Y-31362508D01*
X109751642Y-31346538D01*
X109751639Y-31346530D01*
X109698610Y-31254681D01*
X109697165Y-31252108D01*
X109640603Y-31148523D01*
X109640601Y-31148519D01*
X109640600Y-31148517D01*
X109630666Y-31135247D01*
X109622552Y-31122946D01*
X109620257Y-31118970D01*
X109547907Y-31024682D01*
X109547077Y-31023587D01*
X109468769Y-30918979D01*
X109463431Y-30913641D01*
X109463395Y-30913602D01*
X109271778Y-30721986D01*
X109271747Y-30721957D01*
X109266028Y-30716238D01*
X109266021Y-30716231D01*
X109266017Y-30716228D01*
X109266013Y-30716224D01*
X109161453Y-30637952D01*
X109160277Y-30637061D01*
X109066027Y-30564740D01*
X109062048Y-30562443D01*
X109049740Y-30554324D01*
X109036491Y-30544405D01*
X109036486Y-30544402D01*
X109036483Y-30544400D01*
X108932882Y-30487829D01*
X108930318Y-30486389D01*
X108884983Y-30460215D01*
X108838470Y-30433361D01*
X108838468Y-30433360D01*
X108838465Y-30433358D01*
X108822487Y-30426740D01*
X108810517Y-30421013D01*
X108784827Y-30406985D01*
X108686099Y-30370162D01*
X108681980Y-30368541D01*
X108681970Y-30368537D01*
X108595708Y-30332806D01*
X108595709Y-30332806D01*
X108595706Y-30332805D01*
X108566728Y-30325040D01*
X108555492Y-30321448D01*
X108516176Y-30306784D01*
X108516169Y-30306782D01*
X108425605Y-30287081D01*
X108419871Y-30285690D01*
X108341905Y-30264800D01*
X108341894Y-30264797D01*
X108299575Y-30259225D01*
X108289407Y-30257452D01*
X108236010Y-30245836D01*
X108235999Y-30245835D01*
X108156179Y-30240126D01*
X108148842Y-30239381D01*
X108141544Y-30238420D01*
X108081389Y-30230500D01*
X108081382Y-30230500D01*
X108026015Y-30230500D01*
X108017169Y-30230184D01*
X107950001Y-30225380D01*
X107949999Y-30225380D01*
X107882831Y-30230184D01*
X107873985Y-30230500D01*
X107818617Y-30230500D01*
X107751158Y-30239381D01*
X107743820Y-30240126D01*
X107664004Y-30245834D01*
X107663994Y-30245836D01*
X107610582Y-30257454D01*
X107600417Y-30259226D01*
X107571220Y-30263070D01*
X107558102Y-30264798D01*
X107558099Y-30264798D01*
X107558093Y-30264800D01*
X107480131Y-30285689D01*
X107474398Y-30287080D01*
X107383828Y-30306782D01*
X107383826Y-30306783D01*
X107344499Y-30321451D01*
X107333264Y-30325042D01*
X107304300Y-30332803D01*
X107304280Y-30332810D01*
X107218026Y-30368537D01*
X107213909Y-30370157D01*
X107115182Y-30406981D01*
X107115170Y-30406986D01*
X107089475Y-30421017D01*
X107077507Y-30426743D01*
X107061531Y-30433360D01*
X107061520Y-30433366D01*
X106969683Y-30486386D01*
X106967114Y-30487829D01*
X106863521Y-30544397D01*
X106850247Y-30554333D01*
X106837960Y-30562438D01*
X106833972Y-30564741D01*
X106739760Y-30637031D01*
X106738587Y-30637920D01*
X106633981Y-30716228D01*
X106626988Y-30723221D01*
X106626861Y-30723345D01*
X106438345Y-30911861D01*
X106438221Y-30911988D01*
X106431228Y-30918981D01*
X106352920Y-31023587D01*
X106352031Y-31024760D01*
X106279741Y-31118972D01*
X106277438Y-31122960D01*
X106269333Y-31135247D01*
X106259397Y-31148521D01*
X106202829Y-31252114D01*
X106201386Y-31254683D01*
X106148366Y-31346520D01*
X106148360Y-31346531D01*
X106143406Y-31358491D01*
X106141741Y-31362510D01*
X106136017Y-31374475D01*
X106121986Y-31400170D01*
X106121981Y-31400182D01*
X106085157Y-31498909D01*
X106083537Y-31503026D01*
X106047810Y-31589280D01*
X106047803Y-31589300D01*
X106040042Y-31618264D01*
X106036451Y-31629499D01*
X106021783Y-31668826D01*
X106021782Y-31668828D01*
X106002080Y-31759398D01*
X106000689Y-31765131D01*
X105979800Y-31843093D01*
X105979798Y-31843103D01*
X105974226Y-31885417D01*
X105972454Y-31895582D01*
X105960836Y-31948994D01*
X105960834Y-31949004D01*
X105955126Y-32028820D01*
X105954381Y-32036158D01*
X105945500Y-32103617D01*
X105945500Y-32158984D01*
X105945184Y-32167830D01*
X105940380Y-32234998D01*
X104457500Y-32234998D01*
X104457500Y-29896362D01*
X104477185Y-29829323D01*
X104493819Y-29808681D01*
X105056181Y-29246319D01*
X105117504Y-29212834D01*
X105143862Y-29210000D01*
X110756138Y-29210000D01*
X110823177Y-29229685D01*
G37*
%TD.AperFunction*%
M02*
