%TF.GenerationSoftware,KiCad,Pcbnew,8.0.4*%
%TF.CreationDate,2025-05-09T09:03:00+07:00*%
%TF.ProjectId,MSD-1.0,4d53442d-312e-4302-9e6b-696361645f70,rev?*%
%TF.SameCoordinates,Original*%
%TF.FileFunction,Soldermask,Bot*%
%TF.FilePolarity,Negative*%
%FSLAX46Y46*%
G04 Gerber Fmt 4.6, Leading zero omitted, Abs format (unit mm)*
G04 Created by KiCad (PCBNEW 8.0.4) date 2025-05-09 09:03:00*
%MOMM*%
%LPD*%
G01*
G04 APERTURE LIST*
%ADD10R,1.500000X1.500000*%
%ADD11O,1.500000X1.500000*%
%ADD12C,2.000000*%
%ADD13R,2.000000X2.000000*%
%ADD14O,2.000000X2.000000*%
%ADD15R,1.600000X1.600000*%
%ADD16O,1.600000X1.600000*%
%ADD17C,1.400000*%
%ADD18O,1.400000X1.400000*%
%ADD19C,1.600000*%
%ADD20R,1.800000X1.800000*%
%ADD21O,1.800000X1.800000*%
%ADD22C,3.000000*%
%ADD23C,2.400000*%
%ADD24O,3.500000X3.500000*%
%ADD25R,1.905000X2.000000*%
%ADD26O,1.905000X2.000000*%
%ADD27R,2.400000X2.400000*%
G04 APERTURE END LIST*
D10*
%TO.C,D3*%
X150812500Y-55880000D03*
D11*
X150812500Y-48260000D03*
%TD*%
D12*
%TO.C,TP2*%
X116522500Y-52705000D03*
X119062500Y-52705000D03*
%TD*%
D13*
%TO.C,J2*%
X160972500Y-60007500D03*
D14*
X160972500Y-62547500D03*
X155892500Y-60007500D03*
X155892500Y-62547500D03*
X150812500Y-60007500D03*
X150812500Y-62547500D03*
%TD*%
D15*
%TO.C,U3*%
X134292500Y-58425000D03*
D16*
X134292500Y-55885000D03*
X126672500Y-55885000D03*
X126672500Y-58425000D03*
%TD*%
D12*
%TO.C,TP3*%
X140017500Y-33020000D03*
X142557500Y-33020000D03*
%TD*%
D17*
%TO.C,R4*%
X145732500Y-55880000D03*
D18*
X145732500Y-48260000D03*
%TD*%
D19*
%TO.C,C2*%
X84415000Y-36195000D03*
X79415000Y-36195000D03*
%TD*%
D13*
%TO.C,TP6*%
X95885000Y-46355000D03*
%TD*%
D20*
%TO.C,D1*%
X79375000Y-41270000D03*
D21*
X79375000Y-48890000D03*
%TD*%
D17*
%TO.C,R1*%
X84455000Y-48895000D03*
D18*
X84455000Y-41275000D03*
%TD*%
D10*
%TO.C,D2*%
X155892500Y-48255000D03*
D11*
X155892500Y-55875000D03*
%TD*%
D12*
%TO.C,TP1*%
X97155000Y-52705000D03*
X99695000Y-52705000D03*
%TD*%
D22*
%TO.C,L1*%
X116522500Y-47625000D03*
X131762500Y-42545000D03*
X123507500Y-34925000D03*
X129857500Y-27940000D03*
%TD*%
D12*
%TO.C,TP4*%
X154622500Y-33020000D03*
X157162500Y-33020000D03*
%TD*%
D13*
%TO.C,TP5*%
X88265000Y-46355000D03*
%TD*%
D12*
%TO.C,C3*%
X103106250Y-52705000D03*
X113106250Y-52705000D03*
%TD*%
D15*
%TO.C,U2*%
X134292500Y-66045000D03*
D16*
X134292500Y-63505000D03*
X126672500Y-63505000D03*
X126672500Y-66045000D03*
%TD*%
D15*
%TO.C,U1*%
X95885000Y-43815000D03*
D16*
X95885000Y-41275000D03*
X95885000Y-38735000D03*
X95885000Y-36195000D03*
X88265000Y-36195000D03*
X88265000Y-38735000D03*
X88265000Y-41275000D03*
X88265000Y-43815000D03*
%TD*%
D17*
%TO.C,R3*%
X99695000Y-41275000D03*
D18*
X99695000Y-48895000D03*
%TD*%
D23*
%TO.C,C5*%
X141090000Y-40322500D03*
X156090000Y-40322500D03*
%TD*%
D19*
%TO.C,C4*%
X89575000Y-52705000D03*
X94575000Y-52705000D03*
%TD*%
D24*
%TO.C,Q1*%
X107950000Y-32235000D03*
D25*
X105410000Y-48895000D03*
D26*
X107950000Y-48895000D03*
X110490000Y-48895000D03*
%TD*%
D19*
%TO.C,C1*%
X89575000Y-48895000D03*
X94575000Y-48895000D03*
%TD*%
D27*
%TO.C,C6*%
X97155000Y-60047500D03*
D23*
X97155000Y-65047500D03*
%TD*%
D17*
%TO.C,R2*%
X81915000Y-48895000D03*
D18*
X81915000Y-41275000D03*
%TD*%
D12*
%TO.C,TP7*%
X79375000Y-27622500D03*
X81915000Y-27622500D03*
%TD*%
D13*
%TO.C,J1*%
X86995000Y-60007500D03*
D14*
X86995000Y-62547500D03*
X84455000Y-60007500D03*
X84455000Y-62547500D03*
X81915000Y-60007500D03*
X81915000Y-62547500D03*
X79375000Y-60007500D03*
X79375000Y-62547500D03*
%TD*%
G36*
X110823177Y-29229685D02*
G01*
X110843819Y-29246319D01*
X111406181Y-29808681D01*
X111439666Y-29870004D01*
X111442500Y-29896362D01*
X111442500Y-42176138D01*
X111422815Y-42243177D01*
X111406181Y-42263819D01*
X110843819Y-42826181D01*
X110782496Y-42859666D01*
X110756138Y-42862500D01*
X105143862Y-42862500D01*
X105076823Y-42842815D01*
X105056181Y-42826181D01*
X104493819Y-42263819D01*
X104460334Y-42202496D01*
X104457500Y-42176138D01*
X104457500Y-29896362D01*
X104477185Y-29829323D01*
X104493819Y-29808681D01*
X105056181Y-29246319D01*
X105117504Y-29212834D01*
X105143862Y-29210000D01*
X110756138Y-29210000D01*
X110823177Y-29229685D01*
G37*
M02*
