%TF.GenerationSoftware,KiCad,Pcbnew,8.0.4*%
%TF.CreationDate,2025-03-05T13:52:07+07:00*%
%TF.ProjectId,REM-2.0,52454d2d-322e-4302-9e6b-696361645f70,rev?*%
%TF.SameCoordinates,Original*%
%TF.FileFunction,Soldermask,Top*%
%TF.FilePolarity,Negative*%
%FSLAX46Y46*%
G04 Gerber Fmt 4.6, Leading zero omitted, Abs format (unit mm)*
G04 Created by KiCad (PCBNEW 8.0.4) date 2025-03-05 13:52:07*
%MOMM*%
%LPD*%
G01*
G04 APERTURE LIST*
%ADD10C,2.000000*%
%ADD11C,1.400000*%
%ADD12O,1.400000X1.400000*%
%ADD13R,1.700000X1.700000*%
%ADD14O,1.700000X1.700000*%
%ADD15C,1.600000*%
%ADD16R,3.000000X3.000000*%
%ADD17C,3.000000*%
%ADD18C,2.400000*%
%ADD19O,2.400000X2.400000*%
%ADD20R,2.000000X2.000000*%
%ADD21O,3.500000X3.500000*%
%ADD22R,1.905000X2.000000*%
%ADD23O,1.905000X2.000000*%
%ADD24C,1.440000*%
%ADD25R,2.400000X2.400000*%
%ADD26R,1.600000X1.600000*%
%ADD27O,1.600000X1.600000*%
%ADD28R,1.500000X1.500000*%
%ADD29O,1.500000X1.500000*%
G04 APERTURE END LIST*
D10*
%TO.C,C12*%
X185102500Y-97235000D03*
X185102500Y-107235000D03*
%TD*%
D11*
%TO.C,R6*%
X174307500Y-80962500D03*
D12*
X174307500Y-73342500D03*
%TD*%
D13*
%TO.C,J2*%
X178117500Y-103822500D03*
D14*
X173037500Y-103822500D03*
X167957500Y-103822500D03*
%TD*%
D15*
%TO.C,C1*%
X108625000Y-90170000D03*
X113625000Y-90170000D03*
%TD*%
D13*
%TO.C,J1*%
X106045000Y-103822500D03*
D14*
X103505000Y-103822500D03*
X100965000Y-103822500D03*
X98425000Y-103822500D03*
%TD*%
D11*
%TO.C,TP7*%
X98425000Y-68580000D03*
X100965000Y-68580000D03*
%TD*%
D16*
%TO.C,L1*%
X136842500Y-95885000D03*
D17*
X147002500Y-95885000D03*
X147002500Y-75565000D03*
X136842500Y-75565000D03*
%TD*%
D18*
%TO.C,R9*%
X185102500Y-93662500D03*
D19*
X185102500Y-73342500D03*
%TD*%
D15*
%TO.C,C4*%
X159032500Y-101917500D03*
X154032500Y-101917500D03*
%TD*%
D20*
%TO.C,JP2*%
X114935000Y-87630000D03*
%TD*%
D11*
%TO.C,TP5*%
X152717500Y-84772500D03*
X155257500Y-84772500D03*
%TD*%
D21*
%TO.C,Q1*%
X127000000Y-73510000D03*
D22*
X124460000Y-90170000D03*
D23*
X127000000Y-90170000D03*
X129540000Y-90170000D03*
%TD*%
D24*
%TO.C,RV2*%
X179705000Y-80962500D03*
X179705000Y-78422500D03*
X179705000Y-75882500D03*
%TD*%
D11*
%TO.C,R1*%
X103505000Y-90170000D03*
D12*
X103505000Y-82550000D03*
%TD*%
D11*
%TO.C,R2*%
X100965000Y-90170000D03*
D12*
X100965000Y-82550000D03*
%TD*%
D15*
%TO.C,C5*%
X162922500Y-93662500D03*
X167922500Y-93662500D03*
%TD*%
D10*
%TO.C,C11*%
X190817500Y-97235000D03*
X190817500Y-107235000D03*
%TD*%
D15*
%TO.C,C6*%
X162922500Y-89852500D03*
X167922500Y-89852500D03*
%TD*%
D11*
%TO.C,R5*%
X152717500Y-89852500D03*
D12*
X160337500Y-89852500D03*
%TD*%
D11*
%TO.C,R3*%
X118745000Y-82550000D03*
D12*
X118745000Y-90170000D03*
%TD*%
D10*
%TO.C,C3*%
X122000000Y-93980000D03*
X132000000Y-93980000D03*
%TD*%
D11*
%TO.C,TP6*%
X171767500Y-83502500D03*
X174307500Y-83502500D03*
%TD*%
D25*
%TO.C,C7*%
X128270000Y-101772323D03*
D18*
X128270000Y-106772323D03*
%TD*%
D11*
%TO.C,TP2*%
X155257500Y-105410000D03*
X157797500Y-105410000D03*
%TD*%
D26*
%TO.C,U1*%
X114935000Y-85090000D03*
D27*
X114935000Y-82550000D03*
X114935000Y-80010000D03*
X114935000Y-77470000D03*
X107315000Y-77470000D03*
X107315000Y-80010000D03*
X107315000Y-82550000D03*
X107315000Y-85090000D03*
%TD*%
D15*
%TO.C,C8*%
X108625000Y-93980000D03*
X113625000Y-93980000D03*
%TD*%
D18*
%TO.C,R8*%
X190817500Y-93662500D03*
D19*
X190817500Y-73342500D03*
%TD*%
D25*
%TO.C,C9*%
X114935000Y-106825177D03*
D18*
X114935000Y-101825177D03*
%TD*%
D11*
%TO.C,R7*%
X171767500Y-73342500D03*
D12*
X171767500Y-80962500D03*
%TD*%
D28*
%TO.C,D2*%
X152712500Y-96202500D03*
D29*
X160332500Y-96202500D03*
%TD*%
D28*
%TO.C,D3*%
X160342500Y-93662500D03*
D29*
X152722500Y-93662500D03*
%TD*%
D28*
%TO.C,D1*%
X98425000Y-82545000D03*
D29*
X98425000Y-90165000D03*
%TD*%
D11*
%TO.C,TP1*%
X116205000Y-93980000D03*
X118745000Y-93980000D03*
%TD*%
%TO.C,R4*%
X160337500Y-98742500D03*
D12*
X152717500Y-98742500D03*
%TD*%
D15*
%TO.C,C2*%
X103465000Y-77470000D03*
X98465000Y-77470000D03*
%TD*%
D26*
%TO.C,U2*%
X160337500Y-78422500D03*
D27*
X160337500Y-80962500D03*
X160337500Y-83502500D03*
X160337500Y-86042500D03*
X167957500Y-86042500D03*
X167957500Y-83502500D03*
X167957500Y-80962500D03*
X167957500Y-78422500D03*
%TD*%
D24*
%TO.C,RV1*%
X153987500Y-80962500D03*
X153987500Y-78422500D03*
X153987500Y-75882500D03*
%TD*%
D15*
%TO.C,C10*%
X167922500Y-74612500D03*
X162922500Y-74612500D03*
%TD*%
D20*
%TO.C,JP1*%
X107315000Y-87630000D03*
%TD*%
M02*
