M48
; DRILL file {KiCad 8.0.4} date 2025-03-05T14:43:43+0700
; FORMAT={-:-/ absolute / inch / decimal}
; #@! TF.CreationDate,2025-03-05T14:43:43+07:00
; #@! TF.GenerationSoftware,Kicad,Pcbnew,8.0.4
; #@! TF.FileFunction,Plated,1,2,PTH
FMAT,2
INCH
; #@! TA.AperFunction,Plated,PTH,ComponentDrill
T1C0.0276
; #@! TA.AperFunction,Plated,PTH,ComponentDrill
T2C0.0295
; #@! TA.AperFunction,Plated,PTH,ComponentDrill
T3C0.0315
; #@! TA.AperFunction,Plated,PTH,ComponentDrill
T4C0.0394
; #@! TA.AperFunction,Plated,PTH,ComponentDrill
T5C0.0433
; #@! TA.AperFunction,Plated,PTH,ComponentDrill
T6C0.0472
; #@! TA.AperFunction,Plated,PTH,ComponentDrill
T7C0.0591
%
G90
G05
T1
X3.875Y-2.7
X3.975Y-2.7
X3.975Y-3.25
X3.975Y-3.55
X4.075Y-3.25
X4.075Y-3.55
X4.575Y-3.7
X4.675Y-3.25
X4.675Y-3.55
X4.675Y-3.7
X6.0125Y-3.3375
X6.0125Y-3.5375
X6.0125Y-3.8875
X6.1125Y-3.3375
X6.1125Y-4.15
X6.2125Y-4.15
X6.3125Y-3.5375
X6.3125Y-3.8875
X6.7625Y-2.8875
X6.7625Y-3.1875
X6.7625Y-3.2875
X6.8625Y-2.8875
X6.8625Y-3.1875
X6.8625Y-3.2875
T2
X3.875Y-3.2498
X3.875Y-3.5498
X6.0123Y-3.7875
X6.0127Y-3.6875
X6.3123Y-3.7875
X6.3127Y-3.6875
T3
X3.8766Y-3.05
X4.0734Y-3.05
X4.225Y-3.05
X4.225Y-3.15
X4.225Y-3.25
X4.225Y-3.35
X4.2766Y-3.55
X4.2766Y-3.7
X4.4734Y-3.55
X4.4734Y-3.7
X4.525Y-3.05
X4.525Y-3.15
X4.525Y-3.25
X4.525Y-3.35
X6.0625Y-2.9875
X6.0625Y-3.0875
X6.0625Y-3.1875
X6.0643Y-4.0125
X6.2611Y-4.0125
X6.3125Y-3.0875
X6.3125Y-3.1875
X6.3125Y-3.2875
X6.3125Y-3.3875
X6.4143Y-2.9375
X6.4143Y-3.5375
X6.4143Y-3.6875
X6.6111Y-2.9375
X6.6111Y-3.5375
X6.6111Y-3.6875
X6.6125Y-3.0875
X6.6125Y-3.1875
X6.6125Y-3.2875
X6.6125Y-3.3875
X7.075Y-2.9875
X7.075Y-3.0875
X7.075Y-3.1875
T4
X3.875Y-4.0875
X3.975Y-4.0875
X4.075Y-4.0875
X4.175Y-4.0875
X4.225Y-3.45
X4.525Y-3.45
X4.8031Y-3.7
X5.1969Y-3.7
X6.6125Y-4.0875
X6.8125Y-4.0875
X7.0125Y-4.0875
X7.2875Y-3.8281
X7.2875Y-4.2219
X7.5125Y-3.8281
X7.5125Y-4.2219
T5
X4.9Y-3.55
X5.0Y-3.55
X5.1Y-3.55
T6
X4.525Y-4.0089
X4.525Y-4.2057
X5.05Y-4.0068
X5.05Y-4.2036
X7.2875Y-2.8875
X7.2875Y-3.6875
X7.5125Y-2.8875
X7.5125Y-3.6875
T7
X5.3875Y-2.975
X5.3875Y-3.775
X5.7875Y-2.975
X5.7875Y-3.775
M30
