  0
SECTION
  2
HEADER
  9
$ANGBASE
  50
0.0
  9
$ANGDIR
  70
1
  9
$MEASUREMENT
  70
1
  0
ENDSEC
  0
SECTION
  2
TABLES
  0
TABLE
  2
LTYPE
  70
4
  0
LTYPE
  5
40F
  2
CONTINUOUS
  70
0
  3
Solid line
  72
65
  73
0
  40
0.0
  0
LTYPE
  5
410
  2
DASHDOT
 70
0
  3
Dash Dot ____ _ ____ _
 72
65
 73
4
 40
2.0
 49
1.25
 49
-0.25
 49
0.25
 49
-0.25
  0
LTYPE
  5
411
  2
DASHED
 70
0
  3
Dashed __ __ __ __ __
 72
65
 73
2
 40
0.75
 49
0.5
 49
-0.25
  0
LTYPE
  5
43B
  2
DOTTED
 70
0
  3
Dotted .  .  .  .
 72
65
 73
2
 40
0.2
 49
0.0
 49
-0.2
  0
ENDTAB
  0
TABLE
  2
STYLE
  70
4
  0
STYLE
  2
KICAD
  70
0
  40
0
  41
1
  42
1
  50
0
  71
0
  3
isocp.shx
  0
STYLE
  2
KICADB
  70
0
  40
0
  41
1
  42
1
  50
0
  71
0
  3
isocp.shx
  0
STYLE
  2
KICADI
  70
0
  40
0
  41
1
  42
1
  50
15
  71
0
  3
isocp.shx
  0
STYLE
  2
KICADBI
  70
0
  40
0
  41
1
  42
1
  50
15
  71
0
  3
isocp.shx
  0
ENDTAB
  0
TABLE
  2
LAYER
  70
1
  0
LAYER
  2
BLACK
  70
0
  62
7
  6
CONTINUOUS
  0
ENDTAB
  0
ENDSEC
  0
SECTION
  2
ENTITIES
0
LINE
8
BLACK
6
CONTINUOUS
10
51.1174999999999997
20
-53.6574999999999989
11
76.5174999999999983
21
-53.6574999999999989
0
LINE
8
BLACK
6
CONTINUOUS
10
51.1174999999999997
20
-79.0574999999999903
11
51.1174999999999997
21
-53.6574999999999989
0
LINE
8
BLACK
6
CONTINUOUS
10
76.5174999999999983
20
-53.6574999999999989
11
76.5174999999999983
21
-79.0574999999999903
0
LINE
8
BLACK
6
CONTINUOUS
10
76.5174999999999983
20
-79.0574999999999903
11
51.1174999999999997
21
-79.0574999999999903
0
LINE
8
BLACK
6
CONTINUOUS
10
53.7002679999999941
20
-82.197338000000002
11
53.7002679999999941
21
-80.197338000000002
0
LINE
8
BLACK
6
CONTINUOUS
10
53.7002679999999941
20
-80.197338000000002
11
54.1764579999999967
21
-80.197338000000002
0
LINE
8
BLACK
6
CONTINUOUS
10
54.1764579999999967
20
-80.197338000000002
11
54.4621729999999999
21
-80.2925759999999968
0
LINE
8
BLACK
6
CONTINUOUS
10
54.4621729999999999
20
-80.2925759999999968
11
54.6526489999999967
21
-80.4830520000000007
0
LINE
8
BLACK
6
CONTINUOUS
10
54.6526489999999967
20
-80.4830520000000007
11
54.7478869999999986
21
-80.6735279999999904
0
LINE
8
BLACK
6
CONTINUOUS
10
54.7478869999999986
20
-80.6735279999999904
11
54.8431250000000006
21
-81.0544799999999981
0
LINE
8
BLACK
6
CONTINUOUS
10
54.8431250000000006
20
-81.0544799999999981
11
54.8431250000000006
21
-81.3401949999999943
0
LINE
8
BLACK
6
CONTINUOUS
10
54.8431250000000006
20
-81.3401949999999943
11
54.7478869999999986
21
-81.721147000000002
0
LINE
8
BLACK
6
CONTINUOUS
10
54.7478869999999986
20
-81.721147000000002
11
54.6526489999999967
21
-81.9116229999999916
0
LINE
8
BLACK
6
CONTINUOUS
10
54.6526489999999967
20
-81.9116229999999916
11
54.4621729999999999
21
-82.102099999999993
0
LINE
8
BLACK
6
CONTINUOUS
10
54.4621729999999999
20
-82.102099999999993
11
54.1764579999999967
21
-82.197338000000002
0
LINE
8
BLACK
6
CONTINUOUS
10
54.1764579999999967
20
-82.197338000000002
11
53.7002679999999941
21
-82.197338000000002
0
LINE
8
BLACK
6
CONTINUOUS
10
55.7002679999999941
20
-82.197338000000002
11
55.7002679999999941
21
-80.8640039999999942
0
LINE
8
BLACK
6
CONTINUOUS
10
55.7002679999999941
20
-81.2449569999999994
11
55.795505999999996
21
-81.0544799999999981
0
LINE
8
BLACK
6
CONTINUOUS
10
55.795505999999996
20
-81.0544799999999981
11
55.890743999999998
21
-80.9592420000000033
0
LINE
8
BLACK
6
CONTINUOUS
10
55.890743999999998
20
-80.9592420000000033
11
56.0812199999999947
21
-80.8640039999999942
0
LINE
8
BLACK
6
CONTINUOUS
10
56.0812199999999947
20
-80.8640039999999942
11
56.2716969999999961
21
-80.8640039999999942
0
LINE
8
BLACK
6
CONTINUOUS
10
56.9383629999999954
20
-82.197338000000002
11
56.9383629999999954
21
-80.8640039999999942
0
LINE
8
BLACK
6
CONTINUOUS
10
56.9383629999999954
20
-80.197338000000002
11
56.8431250000000006
21
-80.2925759999999968
0
LINE
8
BLACK
6
CONTINUOUS
10
56.8431250000000006
20
-80.2925759999999968
11
56.9383629999999954
21
-80.3878139999999917
0
LINE
8
BLACK
6
CONTINUOUS
10
56.9383629999999954
20
-80.3878139999999917
11
57.0336009999999973
21
-80.2925759999999968
0
LINE
8
BLACK
6
CONTINUOUS
10
57.0336009999999973
20
-80.2925759999999968
11
56.9383629999999954
21
-80.197338000000002
0
LINE
8
BLACK
6
CONTINUOUS
10
56.9383629999999954
20
-80.197338000000002
11
56.9383629999999954
21
-80.3878139999999917
0
LINE
8
BLACK
6
CONTINUOUS
10
58.1764579999999967
20
-82.197338000000002
11
57.9859819999999999
21
-82.102099999999993
0
LINE
8
BLACK
6
CONTINUOUS
10
57.9859819999999999
20
-82.102099999999993
11
57.890743999999998
21
-81.9116229999999916
0
LINE
8
BLACK
6
CONTINUOUS
10
57.890743999999998
20
-81.9116229999999916
11
57.890743999999998
21
-80.197338000000002
0
LINE
8
BLACK
6
CONTINUOUS
10
59.2240769999999941
20
-82.197338000000002
11
59.0336009999999973
21
-82.102099999999993
0
LINE
8
BLACK
6
CONTINUOUS
10
59.0336009999999973
20
-82.102099999999993
11
58.9383629999999954
21
-81.9116229999999916
0
LINE
8
BLACK
6
CONTINUOUS
10
58.9383629999999954
20
-81.9116229999999916
11
58.9383629999999954
21
-80.197338000000002
0
LINE
8
BLACK
6
CONTINUOUS
10
61.5097919999999974
20
-82.197338000000002
11
61.5097919999999974
21
-80.197338000000002
0
LINE
8
BLACK
6
CONTINUOUS
10
61.5097919999999974
20
-80.197338000000002
11
62.1764589999999941
21
-81.6259089999999929
0
LINE
8
BLACK
6
CONTINUOUS
10
62.1764589999999941
20
-81.6259089999999929
11
62.8431250000000006
21
-80.197338000000002
0
LINE
8
BLACK
6
CONTINUOUS
10
62.8431250000000006
20
-80.197338000000002
11
62.8431250000000006
21
-82.197338000000002
0
LINE
8
BLACK
6
CONTINUOUS
10
64.6526489999999967
20
-82.197338000000002
11
64.6526489999999967
21
-81.1497189999999904
0
LINE
8
BLACK
6
CONTINUOUS
10
64.6526489999999967
20
-81.1497189999999904
11
64.5574110000000019
21
-80.9592420000000033
0
LINE
8
BLACK
6
CONTINUOUS
10
64.5574110000000019
20
-80.9592420000000033
11
64.366934999999998
21
-80.8640039999999942
0
LINE
8
BLACK
6
CONTINUOUS
10
64.366934999999998
20
-80.8640039999999942
11
63.9859819999999999
21
-80.8640039999999942
0
LINE
8
BLACK
6
CONTINUOUS
10
63.9859819999999999
20
-80.8640039999999942
11
63.795505999999996
21
-80.9592420000000033
0
LINE
8
BLACK
6
CONTINUOUS
10
64.6526489999999967
20
-82.102099999999993
11
64.4621729999999928
21
-82.197338000000002
0
LINE
8
BLACK
6
CONTINUOUS
10
64.4621729999999928
20
-82.197338000000002
11
63.9859819999999999
21
-82.197338000000002
0
LINE
8
BLACK
6
CONTINUOUS
10
63.9859819999999999
20
-82.197338000000002
11
63.795505999999996
21
-82.102099999999993
0
LINE
8
BLACK
6
CONTINUOUS
10
63.795505999999996
20
-82.102099999999993
11
63.7002679999999941
21
-81.9116229999999916
0
LINE
8
BLACK
6
CONTINUOUS
10
63.7002679999999941
20
-81.9116229999999916
11
63.7002679999999941
21
-81.721147000000002
0
LINE
8
BLACK
6
CONTINUOUS
10
63.7002679999999941
20
-81.721147000000002
11
63.795505999999996
21
-81.5306709999999981
0
LINE
8
BLACK
6
CONTINUOUS
10
63.795505999999996
20
-81.5306709999999981
11
63.9859819999999999
21
-81.4354330000000033
0
LINE
8
BLACK
6
CONTINUOUS
10
63.9859819999999999
20
-81.4354330000000033
11
64.4621729999999928
21
-81.4354330000000033
0
LINE
8
BLACK
6
CONTINUOUS
10
64.4621729999999928
20
-81.4354330000000033
11
64.6526489999999967
21
-81.3401949999999943
0
LINE
8
BLACK
6
CONTINUOUS
10
65.6050299999999993
20
-80.8640039999999942
11
65.6050299999999993
21
-82.8640039999999942
0
LINE
8
BLACK
6
CONTINUOUS
10
65.6050299999999993
20
-80.9592420000000033
11
65.7955060000000032
21
-80.8640039999999942
0
LINE
8
BLACK
6
CONTINUOUS
10
65.7955060000000032
20
-80.8640039999999942
11
66.1764589999999941
21
-80.8640039999999942
0
LINE
8
BLACK
6
CONTINUOUS
10
66.1764589999999941
20
-80.8640039999999942
11
66.366934999999998
21
-80.9592420000000033
0
LINE
8
BLACK
6
CONTINUOUS
10
66.366934999999998
20
-80.9592420000000033
11
66.4621729999999928
21
-81.0544799999999981
0
LINE
8
BLACK
6
CONTINUOUS
10
66.4621729999999928
20
-81.0544799999999981
11
66.5574110000000019
21
-81.2449569999999994
0
LINE
8
BLACK
6
CONTINUOUS
10
66.5574110000000019
20
-81.2449569999999994
11
66.5574110000000019
21
-81.8163849999999968
0
LINE
8
BLACK
6
CONTINUOUS
10
66.5574110000000019
20
-81.8163849999999968
11
66.4621729999999928
21
-82.0068610000000007
0
LINE
8
BLACK
6
CONTINUOUS
10
66.4621729999999928
20
-82.0068610000000007
11
66.366934999999998
21
-82.102099999999993
0
LINE
8
BLACK
6
CONTINUOUS
10
66.366934999999998
20
-82.102099999999993
11
66.1764589999999941
21
-82.197338000000002
0
LINE
8
BLACK
6
CONTINUOUS
10
66.1764589999999941
20
-82.197338000000002
11
65.7955060000000032
21
-82.197338000000002
0
LINE
8
BLACK
6
CONTINUOUS
10
65.7955060000000032
20
-82.197338000000002
11
65.6050299999999993
21
-82.102099999999993
0
LINE
8
BLACK
6
CONTINUOUS
10
67.4145539999999954
20
-82.0068610000000007
11
67.5097919999999903
21
-82.102099999999993
0
LINE
8
BLACK
6
CONTINUOUS
10
67.5097919999999903
20
-82.102099999999993
11
67.4145539999999954
21
-82.197338000000002
0
LINE
8
BLACK
6
CONTINUOUS
10
67.4145539999999954
20
-82.197338000000002
11
67.3193160000000006
21
-82.102099999999993
0
LINE
8
BLACK
6
CONTINUOUS
10
67.3193160000000006
20
-82.102099999999993
11
67.4145539999999954
21
-82.0068610000000007
0
LINE
8
BLACK
6
CONTINUOUS
10
67.4145539999999954
20
-82.0068610000000007
11
67.4145539999999954
21
-82.197338000000002
0
LINE
8
BLACK
6
CONTINUOUS
10
67.4145539999999954
20
-80.9592420000000033
11
67.5097919999999903
21
-81.0544799999999981
0
LINE
8
BLACK
6
CONTINUOUS
10
67.5097919999999903
20
-81.0544799999999981
11
67.4145539999999954
21
-81.1497189999999904
0
LINE
8
BLACK
6
CONTINUOUS
10
67.4145539999999954
20
-81.1497189999999904
11
67.3193160000000006
21
-81.0544799999999981
0
LINE
8
BLACK
6
CONTINUOUS
10
67.3193160000000006
20
-81.0544799999999981
11
67.4145539999999954
21
-80.9592420000000033
0
LINE
8
BLACK
6
CONTINUOUS
10
67.4145539999999954
20
-80.9592420000000033
11
67.4145539999999954
21
-81.1497189999999904
  0
ENDSEC
  0
EOF
