  0
SECTION
  2
HEADER
  9
$ANGBASE
  50
0.0
  9
$ANGDIR
  70
1
  9
$MEASUREMENT
  70
1
  0
ENDSEC
  0
SECTION
  2
TABLES
  0
TABLE
  2
LTYPE
  70
4
  0
LTYPE
  5
40F
  2
CONTINUOUS
  70
0
  3
Solid line
  72
65
  73
0
  40
0.0
  0
LTYPE
  5
410
  2
DASHDOT
 70
0
  3
Dash Dot ____ _ ____ _
 72
65
 73
4
 40
2.0
 49
1.25
 49
-0.25
 49
0.25
 49
-0.25
  0
LTYPE
  5
411
  2
DASHED
 70
0
  3
Dashed __ __ __ __ __
 72
65
 73
2
 40
0.75
 49
0.5
 49
-0.25
  0
LTYPE
  5
43B
  2
DOTTED
 70
0
  3
Dotted .  .  .  .
 72
65
 73
2
 40
0.2
 49
0.0
 49
-0.2
  0
ENDTAB
  0
TABLE
  2
STYLE
  70
4
  0
STYLE
  2
KICAD
  70
0
  40
0
  41
1
  42
1
  50
0
  71
0
  3
isocp.shx
  0
STYLE
  2
KICADB
  70
0
  40
0
  41
1
  42
1
  50
0
  71
0
  3
isocp.shx
  0
STYLE
  2
KICADI
  70
0
  40
0
  41
1
  42
1
  50
15
  71
0
  3
isocp.shx
  0
STYLE
  2
KICADBI
  70
0
  40
0
  41
1
  42
1
  50
15
  71
0
  3
isocp.shx
  0
ENDTAB
  0
TABLE
  2
LAYER
  70
1
  0
LAYER
  2
BLACK
  70
0
  62
7
  6
CONTINUOUS
  0
ENDTAB
  0
ENDSEC
  0
SECTION
  2
ENTITIES
0
LINE
8
BLACK
6
CONTINUOUS
10
51.1174999999999997
20
-53.6574999999999989
11
76.5174999999999983
21
-53.6574999999999989
0
LINE
8
BLACK
6
CONTINUOUS
10
51.1174999999999997
20
-79.0574999999999903
11
51.1174999999999997
21
-53.6574999999999989
0
LINE
8
BLACK
6
CONTINUOUS
10
76.5174999999999983
20
-53.6574999999999989
11
76.5174999999999983
21
-79.0574999999999903
0
LINE
8
BLACK
6
CONTINUOUS
10
76.5174999999999983
20
-79.0574999999999903
11
51.1174999999999997
21
-79.0574999999999903
0
LINE
8
BLACK
6
CONTINUOUS
10
61.2537499999999966
20
-73.3187499999999943
11
62.2537499999999966
21
-74.3187499999999943
0
LINE
8
BLACK
6
CONTINUOUS
10
62.2537499999999966
20
-73.3187499999999943
11
61.2537499999999966
21
-74.3187499999999943
0
LINE
8
BLACK
6
CONTINUOUS
10
61.2537499999999966
20
-75.8587500000000006
11
62.2537499999999966
21
-76.8587500000000006
0
LINE
8
BLACK
6
CONTINUOUS
10
62.2537499999999966
20
-75.8587500000000006
11
61.2537499999999966
21
-76.8587500000000006
0
LINE
8
BLACK
6
CONTINUOUS
10
63.7937499999999957
20
-73.3187499999999943
11
64.7937500000000028
21
-74.3187499999999943
0
LINE
8
BLACK
6
CONTINUOUS
10
64.7937500000000028
20
-73.3187499999999943
11
63.7937499999999957
21
-74.3187499999999943
0
LINE
8
BLACK
6
CONTINUOUS
10
63.7937499999999957
20
-75.8587500000000006
11
64.7937500000000028
21
-76.8587500000000006
0
LINE
8
BLACK
6
CONTINUOUS
10
64.7937500000000028
20
-75.8587500000000006
11
63.7937499999999957
21
-76.8587500000000006
0
LINE
8
BLACK
6
CONTINUOUS
10
66.3337499999999949
20
-73.3187499999999943
11
67.3337499999999949
21
-74.3187499999999943
0
LINE
8
BLACK
6
CONTINUOUS
10
67.3337499999999949
20
-73.3187499999999943
11
66.3337499999999949
21
-74.3187499999999943
0
LINE
8
BLACK
6
CONTINUOUS
10
66.3337499999999949
20
-75.8587500000000006
11
67.3337499999999949
21
-76.8587500000000006
0
LINE
8
BLACK
6
CONTINUOUS
10
67.3337499999999949
20
-75.8587500000000006
11
66.3337499999999949
21
-76.8587500000000006
0
LINE
8
BLACK
6
CONTINUOUS
10
68.8737500000000011
20
-73.3187499999999943
11
69.8737500000000011
21
-74.3187499999999943
0
LINE
8
BLACK
6
CONTINUOUS
10
69.8737500000000011
20
-73.3187499999999943
11
68.8737500000000011
21
-74.3187499999999943
0
LINE
8
BLACK
6
CONTINUOUS
10
68.8737500000000011
20
-75.8587500000000006
11
69.8737500000000011
21
-76.8587500000000006
0
LINE
8
BLACK
6
CONTINUOUS
10
69.8737500000000011
20
-75.8587500000000006
11
68.8737500000000011
21
-76.8587500000000006
0
LINE
8
BLACK
6
CONTINUOUS
10
71.4137499999999932
20
-73.3187499999999943
11
72.4137499999999932
21
-74.3187499999999943
0
LINE
8
BLACK
6
CONTINUOUS
10
72.4137499999999932
20
-73.3187499999999943
11
71.4137499999999932
21
-74.3187499999999943
0
LINE
8
BLACK
6
CONTINUOUS
10
71.4137499999999932
20
-75.8587500000000006
11
72.4137499999999932
21
-76.8587500000000006
0
LINE
8
BLACK
6
CONTINUOUS
10
72.4137499999999932
20
-75.8587500000000006
11
71.4137499999999932
21
-76.8587500000000006
0
LINE
8
BLACK
6
CONTINUOUS
10
53.7002679999999941
20
-82.197338000000002
11
53.7002679999999941
21
-80.197338000000002
0
LINE
8
BLACK
6
CONTINUOUS
10
53.7002679999999941
20
-80.197338000000002
11
54.1764579999999967
21
-80.197338000000002
0
LINE
8
BLACK
6
CONTINUOUS
10
54.1764579999999967
20
-80.197338000000002
11
54.4621729999999999
21
-80.2925759999999968
0
LINE
8
BLACK
6
CONTINUOUS
10
54.4621729999999999
20
-80.2925759999999968
11
54.6526489999999967
21
-80.4830520000000007
0
LINE
8
BLACK
6
CONTINUOUS
10
54.6526489999999967
20
-80.4830520000000007
11
54.7478869999999986
21
-80.6735279999999904
0
LINE
8
BLACK
6
CONTINUOUS
10
54.7478869999999986
20
-80.6735279999999904
11
54.8431250000000006
21
-81.0544799999999981
0
LINE
8
BLACK
6
CONTINUOUS
10
54.8431250000000006
20
-81.0544799999999981
11
54.8431250000000006
21
-81.3401949999999943
0
LINE
8
BLACK
6
CONTINUOUS
10
54.8431250000000006
20
-81.3401949999999943
11
54.7478869999999986
21
-81.721147000000002
0
LINE
8
BLACK
6
CONTINUOUS
10
54.7478869999999986
20
-81.721147000000002
11
54.6526489999999967
21
-81.9116229999999916
0
LINE
8
BLACK
6
CONTINUOUS
10
54.6526489999999967
20
-81.9116229999999916
11
54.4621729999999999
21
-82.102099999999993
0
LINE
8
BLACK
6
CONTINUOUS
10
54.4621729999999999
20
-82.102099999999993
11
54.1764579999999967
21
-82.197338000000002
0
LINE
8
BLACK
6
CONTINUOUS
10
54.1764579999999967
20
-82.197338000000002
11
53.7002679999999941
21
-82.197338000000002
0
LINE
8
BLACK
6
CONTINUOUS
10
55.7002679999999941
20
-82.197338000000002
11
55.7002679999999941
21
-80.8640039999999942
0
LINE
8
BLACK
6
CONTINUOUS
10
55.7002679999999941
20
-81.2449569999999994
11
55.795505999999996
21
-81.0544799999999981
0
LINE
8
BLACK
6
CONTINUOUS
10
55.795505999999996
20
-81.0544799999999981
11
55.890743999999998
21
-80.9592420000000033
0
LINE
8
BLACK
6
CONTINUOUS
10
55.890743999999998
20
-80.9592420000000033
11
56.0812199999999947
21
-80.8640039999999942
0
LINE
8
BLACK
6
CONTINUOUS
10
56.0812199999999947
20
-80.8640039999999942
11
56.2716969999999961
21
-80.8640039999999942
0
LINE
8
BLACK
6
CONTINUOUS
10
56.9383629999999954
20
-82.197338000000002
11
56.9383629999999954
21
-80.8640039999999942
0
LINE
8
BLACK
6
CONTINUOUS
10
56.9383629999999954
20
-80.197338000000002
11
56.8431250000000006
21
-80.2925759999999968
0
LINE
8
BLACK
6
CONTINUOUS
10
56.8431250000000006
20
-80.2925759999999968
11
56.9383629999999954
21
-80.3878139999999917
0
LINE
8
BLACK
6
CONTINUOUS
10
56.9383629999999954
20
-80.3878139999999917
11
57.0336009999999973
21
-80.2925759999999968
0
LINE
8
BLACK
6
CONTINUOUS
10
57.0336009999999973
20
-80.2925759999999968
11
56.9383629999999954
21
-80.197338000000002
0
LINE
8
BLACK
6
CONTINUOUS
10
56.9383629999999954
20
-80.197338000000002
11
56.9383629999999954
21
-80.3878139999999917
0
LINE
8
BLACK
6
CONTINUOUS
10
58.1764579999999967
20
-82.197338000000002
11
57.9859819999999999
21
-82.102099999999993
0
LINE
8
BLACK
6
CONTINUOUS
10
57.9859819999999999
20
-82.102099999999993
11
57.890743999999998
21
-81.9116229999999916
0
LINE
8
BLACK
6
CONTINUOUS
10
57.890743999999998
20
-81.9116229999999916
11
57.890743999999998
21
-80.197338000000002
0
LINE
8
BLACK
6
CONTINUOUS
10
59.2240769999999941
20
-82.197338000000002
11
59.0336009999999973
21
-82.102099999999993
0
LINE
8
BLACK
6
CONTINUOUS
10
59.0336009999999973
20
-82.102099999999993
11
58.9383629999999954
21
-81.9116229999999916
0
LINE
8
BLACK
6
CONTINUOUS
10
58.9383629999999954
20
-81.9116229999999916
11
58.9383629999999954
21
-80.197338000000002
0
LINE
8
BLACK
6
CONTINUOUS
10
61.5097919999999974
20
-82.197338000000002
11
61.5097919999999974
21
-80.197338000000002
0
LINE
8
BLACK
6
CONTINUOUS
10
61.5097919999999974
20
-80.197338000000002
11
62.1764589999999941
21
-81.6259089999999929
0
LINE
8
BLACK
6
CONTINUOUS
10
62.1764589999999941
20
-81.6259089999999929
11
62.8431250000000006
21
-80.197338000000002
0
LINE
8
BLACK
6
CONTINUOUS
10
62.8431250000000006
20
-80.197338000000002
11
62.8431250000000006
21
-82.197338000000002
0
LINE
8
BLACK
6
CONTINUOUS
10
64.6526489999999967
20
-82.197338000000002
11
64.6526489999999967
21
-81.1497189999999904
0
LINE
8
BLACK
6
CONTINUOUS
10
64.6526489999999967
20
-81.1497189999999904
11
64.5574110000000019
21
-80.9592420000000033
0
LINE
8
BLACK
6
CONTINUOUS
10
64.5574110000000019
20
-80.9592420000000033
11
64.366934999999998
21
-80.8640039999999942
0
LINE
8
BLACK
6
CONTINUOUS
10
64.366934999999998
20
-80.8640039999999942
11
63.9859819999999999
21
-80.8640039999999942
0
LINE
8
BLACK
6
CONTINUOUS
10
63.9859819999999999
20
-80.8640039999999942
11
63.795505999999996
21
-80.9592420000000033
0
LINE
8
BLACK
6
CONTINUOUS
10
64.6526489999999967
20
-82.102099999999993
11
64.4621729999999928
21
-82.197338000000002
0
LINE
8
BLACK
6
CONTINUOUS
10
64.4621729999999928
20
-82.197338000000002
11
63.9859819999999999
21
-82.197338000000002
0
LINE
8
BLACK
6
CONTINUOUS
10
63.9859819999999999
20
-82.197338000000002
11
63.795505999999996
21
-82.102099999999993
0
LINE
8
BLACK
6
CONTINUOUS
10
63.795505999999996
20
-82.102099999999993
11
63.7002679999999941
21
-81.9116229999999916
0
LINE
8
BLACK
6
CONTINUOUS
10
63.7002679999999941
20
-81.9116229999999916
11
63.7002679999999941
21
-81.721147000000002
0
LINE
8
BLACK
6
CONTINUOUS
10
63.7002679999999941
20
-81.721147000000002
11
63.795505999999996
21
-81.5306709999999981
0
LINE
8
BLACK
6
CONTINUOUS
10
63.795505999999996
20
-81.5306709999999981
11
63.9859819999999999
21
-81.4354330000000033
0
LINE
8
BLACK
6
CONTINUOUS
10
63.9859819999999999
20
-81.4354330000000033
11
64.4621729999999928
21
-81.4354330000000033
0
LINE
8
BLACK
6
CONTINUOUS
10
64.4621729999999928
20
-81.4354330000000033
11
64.6526489999999967
21
-81.3401949999999943
0
LINE
8
BLACK
6
CONTINUOUS
10
65.6050299999999993
20
-80.8640039999999942
11
65.6050299999999993
21
-82.8640039999999942
0
LINE
8
BLACK
6
CONTINUOUS
10
65.6050299999999993
20
-80.9592420000000033
11
65.7955060000000032
21
-80.8640039999999942
0
LINE
8
BLACK
6
CONTINUOUS
10
65.7955060000000032
20
-80.8640039999999942
11
66.1764589999999941
21
-80.8640039999999942
0
LINE
8
BLACK
6
CONTINUOUS
10
66.1764589999999941
20
-80.8640039999999942
11
66.366934999999998
21
-80.9592420000000033
0
LINE
8
BLACK
6
CONTINUOUS
10
66.366934999999998
20
-80.9592420000000033
11
66.4621729999999928
21
-81.0544799999999981
0
LINE
8
BLACK
6
CONTINUOUS
10
66.4621729999999928
20
-81.0544799999999981
11
66.5574110000000019
21
-81.2449569999999994
0
LINE
8
BLACK
6
CONTINUOUS
10
66.5574110000000019
20
-81.2449569999999994
11
66.5574110000000019
21
-81.8163849999999968
0
LINE
8
BLACK
6
CONTINUOUS
10
66.5574110000000019
20
-81.8163849999999968
11
66.4621729999999928
21
-82.0068610000000007
0
LINE
8
BLACK
6
CONTINUOUS
10
66.4621729999999928
20
-82.0068610000000007
11
66.366934999999998
21
-82.102099999999993
0
LINE
8
BLACK
6
CONTINUOUS
10
66.366934999999998
20
-82.102099999999993
11
66.1764589999999941
21
-82.197338000000002
0
LINE
8
BLACK
6
CONTINUOUS
10
66.1764589999999941
20
-82.197338000000002
11
65.7955060000000032
21
-82.197338000000002
0
LINE
8
BLACK
6
CONTINUOUS
10
65.7955060000000032
20
-82.197338000000002
11
65.6050299999999993
21
-82.102099999999993
0
LINE
8
BLACK
6
CONTINUOUS
10
67.4145539999999954
20
-82.0068610000000007
11
67.5097919999999903
21
-82.102099999999993
0
LINE
8
BLACK
6
CONTINUOUS
10
67.5097919999999903
20
-82.102099999999993
11
67.4145539999999954
21
-82.197338000000002
0
LINE
8
BLACK
6
CONTINUOUS
10
67.4145539999999954
20
-82.197338000000002
11
67.3193160000000006
21
-82.102099999999993
0
LINE
8
BLACK
6
CONTINUOUS
10
67.3193160000000006
20
-82.102099999999993
11
67.4145539999999954
21
-82.0068610000000007
0
LINE
8
BLACK
6
CONTINUOUS
10
67.4145539999999954
20
-82.0068610000000007
11
67.4145539999999954
21
-82.197338000000002
0
LINE
8
BLACK
6
CONTINUOUS
10
67.4145539999999954
20
-80.9592420000000033
11
67.5097919999999903
21
-81.0544799999999981
0
LINE
8
BLACK
6
CONTINUOUS
10
67.5097919999999903
20
-81.0544799999999981
11
67.4145539999999954
21
-81.1497189999999904
0
LINE
8
BLACK
6
CONTINUOUS
10
67.4145539999999954
20
-81.1497189999999904
11
67.3193160000000006
21
-81.0544799999999981
0
LINE
8
BLACK
6
CONTINUOUS
10
67.3193160000000006
20
-81.0544799999999981
11
67.4145539999999954
21
-80.9592420000000033
0
LINE
8
BLACK
6
CONTINUOUS
10
67.4145539999999954
20
-80.9592420000000033
11
67.4145539999999954
21
-81.1497189999999904
0
LINE
8
BLACK
6
CONTINUOUS
10
50.0925000000000011
20
-84.9825000000000017
11
51.0925000000000011
21
-85.9825000000000017
0
LINE
8
BLACK
6
CONTINUOUS
10
51.0925000000000011
20
-84.9825000000000017
11
50.0925000000000011
21
-85.9825000000000017
0
LINE
8
BLACK
6
CONTINUOUS
10
54.7478869999999986
20
-86.3973379999999906
11
53.6050299999999993
21
-86.3973379999999906
0
LINE
8
BLACK
6
CONTINUOUS
10
54.1764579999999967
20
-86.3973379999999906
11
54.1764579999999967
21
-84.3973379999999906
0
LINE
8
BLACK
6
CONTINUOUS
10
54.1764579999999967
20
-84.3973379999999906
11
53.9859819999999999
21
-84.6830519999999893
0
LINE
8
BLACK
6
CONTINUOUS
10
53.9859819999999999
20
-84.6830519999999893
11
53.795505999999996
21
-84.8735279999999932
0
LINE
8
BLACK
6
CONTINUOUS
10
53.795505999999996
20
-84.8735279999999932
11
53.6050299999999993
21
-84.9687660000000022
0
LINE
8
BLACK
6
CONTINUOUS
10
55.6050299999999993
20
-86.2068609999999893
11
55.7002679999999941
21
-86.3020999999999958
0
LINE
8
BLACK
6
CONTINUOUS
10
55.7002679999999941
20
-86.3020999999999958
11
55.6050299999999993
21
-86.3973379999999906
0
LINE
8
BLACK
6
CONTINUOUS
10
55.6050299999999993
20
-86.3973379999999906
11
55.5097919999999974
21
-86.3020999999999958
0
LINE
8
BLACK
6
CONTINUOUS
10
55.5097919999999974
20
-86.3020999999999958
11
55.6050299999999993
21
-86.2068609999999893
0
LINE
8
BLACK
6
CONTINUOUS
10
55.6050299999999993
20
-86.2068609999999893
11
55.6050299999999993
21
-86.3973379999999906
0
LINE
8
BLACK
6
CONTINUOUS
10
56.9383629999999954
20
-84.3973379999999906
11
57.1288399999999967
21
-84.3973379999999906
0
LINE
8
BLACK
6
CONTINUOUS
10
57.1288399999999967
20
-84.3973379999999906
11
57.3193160000000006
21
-84.4925759999999997
0
LINE
8
BLACK
6
CONTINUOUS
10
57.3193160000000006
20
-84.4925759999999997
11
57.4145539999999954
21
-84.5878139999999945
0
LINE
8
BLACK
6
CONTINUOUS
10
57.4145539999999954
20
-84.5878139999999945
11
57.5097919999999974
21
-84.7782899999999984
0
LINE
8
BLACK
6
CONTINUOUS
10
57.5097919999999974
20
-84.7782899999999984
11
57.6050299999999993
21
-85.1592419999999919
0
LINE
8
BLACK
6
CONTINUOUS
10
57.6050299999999993
20
-85.1592419999999919
11
57.6050299999999993
21
-85.6354329999999919
0
LINE
8
BLACK
6
CONTINUOUS
10
57.6050299999999993
20
-85.6354329999999919
11
57.5097919999999974
21
-86.0163849999999996
0
LINE
8
BLACK
6
CONTINUOUS
10
57.5097919999999974
20
-86.0163849999999996
11
57.4145539999999954
21
-86.2068609999999893
0
LINE
8
BLACK
6
CONTINUOUS
10
57.4145539999999954
20
-86.2068609999999893
11
57.3193160000000006
21
-86.3020999999999958
0
LINE
8
BLACK
6
CONTINUOUS
10
57.3193160000000006
20
-86.3020999999999958
11
57.1288399999999967
21
-86.3973379999999906
0
LINE
8
BLACK
6
CONTINUOUS
10
57.1288399999999967
20
-86.3973379999999906
11
56.9383629999999954
21
-86.3973379999999906
0
LINE
8
BLACK
6
CONTINUOUS
10
56.9383629999999954
20
-86.3973379999999906
11
56.7478869999999986
21
-86.3020999999999958
0
LINE
8
BLACK
6
CONTINUOUS
10
56.7478869999999986
20
-86.3020999999999958
11
56.6526489999999967
21
-86.2068609999999893
0
LINE
8
BLACK
6
CONTINUOUS
10
56.6526489999999967
20
-86.2068609999999893
11
56.5574109999999948
21
-86.0163849999999996
0
LINE
8
BLACK
6
CONTINUOUS
10
56.5574109999999948
20
-86.0163849999999996
11
56.4621729999999999
21
-85.6354329999999919
0
LINE
8
BLACK
6
CONTINUOUS
10
56.4621729999999999
20
-85.6354329999999919
11
56.4621729999999999
21
-85.1592419999999919
0
LINE
8
BLACK
6
CONTINUOUS
10
56.4621729999999999
20
-85.1592419999999919
11
56.5574109999999948
21
-84.7782899999999984
0
LINE
8
BLACK
6
CONTINUOUS
10
56.5574109999999948
20
-84.7782899999999984
11
56.6526489999999967
21
-84.5878139999999945
0
LINE
8
BLACK
6
CONTINUOUS
10
56.6526489999999967
20
-84.5878139999999945
11
56.7478869999999986
21
-84.4925759999999997
0
LINE
8
BLACK
6
CONTINUOUS
10
56.7478869999999986
20
-84.4925759999999997
11
56.9383629999999954
21
-84.3973379999999906
0
LINE
8
BLACK
6
CONTINUOUS
10
58.8431250000000006
20
-84.3973379999999906
11
59.0336019999999948
21
-84.3973379999999906
0
LINE
8
BLACK
6
CONTINUOUS
10
59.0336019999999948
20
-84.3973379999999906
11
59.2240779999999987
21
-84.4925759999999997
0
LINE
8
BLACK
6
CONTINUOUS
10
59.2240779999999987
20
-84.4925759999999997
11
59.3193160000000006
21
-84.5878139999999945
0
LINE
8
BLACK
6
CONTINUOUS
10
59.3193160000000006
20
-84.5878139999999945
11
59.4145539999999954
21
-84.7782899999999984
0
LINE
8
BLACK
6
CONTINUOUS
10
59.4145539999999954
20
-84.7782899999999984
11
59.5097919999999974
21
-85.1592419999999919
0
LINE
8
BLACK
6
CONTINUOUS
10
59.5097919999999974
20
-85.1592419999999919
11
59.5097919999999974
21
-85.6354329999999919
0
LINE
8
BLACK
6
CONTINUOUS
10
59.5097919999999974
20
-85.6354329999999919
11
59.4145539999999954
21
-86.0163849999999996
0
LINE
8
BLACK
6
CONTINUOUS
10
59.4145539999999954
20
-86.0163849999999996
11
59.3193160000000006
21
-86.2068609999999893
0
LINE
8
BLACK
6
CONTINUOUS
10
59.3193160000000006
20
-86.2068609999999893
11
59.2240779999999987
21
-86.3020999999999958
0
LINE
8
BLACK
6
CONTINUOUS
10
59.2240779999999987
20
-86.3020999999999958
11
59.0336019999999948
21
-86.3973379999999906
0
LINE
8
BLACK
6
CONTINUOUS
10
59.0336019999999948
20
-86.3973379999999906
11
58.8431250000000006
21
-86.3973379999999906
0
LINE
8
BLACK
6
CONTINUOUS
10
58.8431250000000006
20
-86.3973379999999906
11
58.6526489999999967
21
-86.3020999999999958
0
LINE
8
BLACK
6
CONTINUOUS
10
58.6526489999999967
20
-86.3020999999999958
11
58.5574109999999948
21
-86.2068609999999893
0
LINE
8
BLACK
6
CONTINUOUS
10
58.5574109999999948
20
-86.2068609999999893
11
58.4621729999999999
21
-86.0163849999999996
0
LINE
8
BLACK
6
CONTINUOUS
10
58.4621729999999999
20
-86.0163849999999996
11
58.366934999999998
21
-85.6354329999999919
0
LINE
8
BLACK
6
CONTINUOUS
10
58.366934999999998
20
-85.6354329999999919
11
58.366934999999998
21
-85.1592419999999919
0
LINE
8
BLACK
6
CONTINUOUS
10
58.366934999999998
20
-85.1592419999999919
11
58.4621729999999999
21
-84.7782899999999984
0
LINE
8
BLACK
6
CONTINUOUS
10
58.4621729999999999
20
-84.7782899999999984
11
58.5574109999999948
21
-84.5878139999999945
0
LINE
8
BLACK
6
CONTINUOUS
10
58.5574109999999948
20
-84.5878139999999945
11
58.6526489999999967
21
-84.4925759999999997
0
LINE
8
BLACK
6
CONTINUOUS
10
58.6526489999999967
20
-84.4925759999999997
11
58.8431250000000006
21
-84.3973379999999906
0
LINE
8
BLACK
6
CONTINUOUS
10
60.7478869999999986
20
-84.3973379999999906
11
60.938364
21
-84.3973379999999906
0
LINE
8
BLACK
6
CONTINUOUS
10
60.938364
20
-84.3973379999999906
11
61.1288399999999967
21
-84.4925759999999997
0
LINE
8
BLACK
6
CONTINUOUS
10
61.1288399999999967
20
-84.4925759999999997
11
61.2240779999999987
21
-84.5878139999999945
0
LINE
8
BLACK
6
CONTINUOUS
10
61.2240779999999987
20
-84.5878139999999945
11
61.3193160000000006
21
-84.7782899999999984
0
LINE
8
BLACK
6
CONTINUOUS
10
61.3193160000000006
20
-84.7782899999999984
11
61.4145539999999954
21
-85.1592419999999919
0
LINE
8
BLACK
6
CONTINUOUS
10
61.4145539999999954
20
-85.1592419999999919
11
61.4145539999999954
21
-85.6354329999999919
0
LINE
8
BLACK
6
CONTINUOUS
10
61.4145539999999954
20
-85.6354329999999919
11
61.3193160000000006
21
-86.0163849999999996
0
LINE
8
BLACK
6
CONTINUOUS
10
61.3193160000000006
20
-86.0163849999999996
11
61.2240779999999987
21
-86.2068609999999893
0
LINE
8
BLACK
6
CONTINUOUS
10
61.2240779999999987
20
-86.2068609999999893
11
61.1288399999999967
21
-86.3020999999999958
0
LINE
8
BLACK
6
CONTINUOUS
10
61.1288399999999967
20
-86.3020999999999958
11
60.938364
21
-86.3973379999999906
0
LINE
8
BLACK
6
CONTINUOUS
10
60.938364
20
-86.3973379999999906
11
60.7478869999999986
21
-86.3973379999999906
0
LINE
8
BLACK
6
CONTINUOUS
10
60.7478869999999986
20
-86.3973379999999906
11
60.5574109999999948
21
-86.3020999999999958
0
LINE
8
BLACK
6
CONTINUOUS
10
60.5574109999999948
20
-86.3020999999999958
11
60.4621729999999999
21
-86.2068609999999893
0
LINE
8
BLACK
6
CONTINUOUS
10
60.4621729999999999
20
-86.2068609999999893
11
60.366934999999998
21
-86.0163849999999996
0
LINE
8
BLACK
6
CONTINUOUS
10
60.366934999999998
20
-86.0163849999999996
11
60.2716969999999961
21
-85.6354329999999919
0
LINE
8
BLACK
6
CONTINUOUS
10
60.2716969999999961
20
-85.6354329999999919
11
60.2716969999999961
21
-85.1592419999999919
0
LINE
8
BLACK
6
CONTINUOUS
10
60.2716969999999961
20
-85.1592419999999919
11
60.366934999999998
21
-84.7782899999999984
0
LINE
8
BLACK
6
CONTINUOUS
10
60.366934999999998
20
-84.7782899999999984
11
60.4621729999999999
21
-84.5878139999999945
0
LINE
8
BLACK
6
CONTINUOUS
10
60.4621729999999999
20
-84.5878139999999945
11
60.5574109999999948
21
-84.4925759999999997
0
LINE
8
BLACK
6
CONTINUOUS
10
60.5574109999999948
20
-84.4925759999999997
11
60.7478869999999986
21
-84.3973379999999906
0
LINE
8
BLACK
6
CONTINUOUS
10
62.2716969999999961
20
-86.3973379999999906
11
62.2716969999999961
21
-85.0640039999999971
0
LINE
8
BLACK
6
CONTINUOUS
10
62.2716969999999961
20
-85.2544800000000009
11
62.366934999999998
21
-85.1592419999999919
0
LINE
8
BLACK
6
CONTINUOUS
10
62.366934999999998
20
-85.1592419999999919
11
62.5574109999999948
21
-85.0640039999999971
0
LINE
8
BLACK
6
CONTINUOUS
10
62.5574109999999948
20
-85.0640039999999971
11
62.843125999999998
21
-85.0640039999999971
0
LINE
8
BLACK
6
CONTINUOUS
10
62.843125999999998
20
-85.0640039999999971
11
63.0336019999999948
21
-85.1592419999999919
0
LINE
8
BLACK
6
CONTINUOUS
10
63.0336019999999948
20
-85.1592419999999919
11
63.1288399999999967
21
-85.3497189999999932
0
LINE
8
BLACK
6
CONTINUOUS
10
63.1288399999999967
20
-85.3497189999999932
11
63.1288399999999967
21
-86.3973379999999906
0
LINE
8
BLACK
6
CONTINUOUS
10
63.1288399999999967
20
-85.3497189999999932
11
63.2240779999999987
21
-85.1592419999999919
0
LINE
8
BLACK
6
CONTINUOUS
10
63.2240779999999987
20
-85.1592419999999919
11
63.4145539999999954
21
-85.0640039999999971
0
LINE
8
BLACK
6
CONTINUOUS
10
63.4145539999999954
20
-85.0640039999999971
11
63.7002679999999941
21
-85.0640039999999971
0
LINE
8
BLACK
6
CONTINUOUS
10
63.7002679999999941
20
-85.0640039999999971
11
63.8907449999999955
21
-85.1592419999999919
0
LINE
8
BLACK
6
CONTINUOUS
10
63.8907449999999955
20
-85.1592419999999919
11
63.9859829999999974
21
-85.3497189999999932
0
LINE
8
BLACK
6
CONTINUOUS
10
63.9859829999999974
20
-85.3497189999999932
11
63.9859829999999974
21
-86.3973379999999906
0
LINE
8
BLACK
6
CONTINUOUS
10
64.9383639999999929
20
-86.3973379999999906
11
64.9383639999999929
21
-85.0640039999999971
0
LINE
8
BLACK
6
CONTINUOUS
10
64.9383639999999929
20
-85.2544800000000009
11
65.0336020000000019
21
-85.1592419999999919
0
LINE
8
BLACK
6
CONTINUOUS
10
65.0336020000000019
20
-85.1592419999999919
11
65.2240779999999916
21
-85.0640039999999971
0
LINE
8
BLACK
6
CONTINUOUS
10
65.2240779999999916
20
-85.0640039999999971
11
65.5097930000000019
21
-85.0640039999999971
0
LINE
8
BLACK
6
CONTINUOUS
10
65.5097930000000019
20
-85.0640039999999971
11
65.7002689999999916
21
-85.1592419999999919
0
LINE
8
BLACK
6
CONTINUOUS
10
65.7002689999999916
20
-85.1592419999999919
11
65.7955070000000006
21
-85.3497189999999932
0
LINE
8
BLACK
6
CONTINUOUS
10
65.7955070000000006
20
-85.3497189999999932
11
65.7955070000000006
21
-86.3973379999999906
0
LINE
8
BLACK
6
CONTINUOUS
10
65.7955070000000006
20
-85.3497189999999932
11
65.8907449999999955
21
-85.1592419999999919
0
LINE
8
BLACK
6
CONTINUOUS
10
65.8907449999999955
20
-85.1592419999999919
11
66.0812209999999993
21
-85.0640039999999971
0
LINE
8
BLACK
6
CONTINUOUS
10
66.0812209999999993
20
-85.0640039999999971
11
66.366934999999998
21
-85.0640039999999971
0
LINE
8
BLACK
6
CONTINUOUS
10
66.366934999999998
20
-85.0640039999999971
11
66.5574119999999994
21
-85.1592419999999919
0
LINE
8
BLACK
6
CONTINUOUS
10
66.5574119999999994
20
-85.1592419999999919
11
66.6526499999999942
21
-85.3497189999999932
0
LINE
8
BLACK
6
CONTINUOUS
10
66.6526499999999942
20
-85.3497189999999932
11
66.6526499999999942
21
-86.3973379999999906
0
LINE
8
BLACK
6
CONTINUOUS
10
70.5574119999999994
20
-84.3020999999999958
11
68.8431269999999955
21
-86.8735279999999932
0
LINE
8
BLACK
6
CONTINUOUS
10
73.1288409999999942
20
-84.3973379999999906
11
73.3193179999999955
21
-84.3973379999999906
0
LINE
8
BLACK
6
CONTINUOUS
10
73.3193179999999955
20
-84.3973379999999906
11
73.5097939999999994
21
-84.4925759999999997
0
LINE
8
BLACK
6
CONTINUOUS
10
73.5097939999999994
20
-84.4925759999999997
11
73.6050319999999942
21
-84.5878139999999945
0
LINE
8
BLACK
6
CONTINUOUS
10
73.6050319999999942
20
-84.5878139999999945
11
73.7002700000000033
21
-84.7782899999999984
0
LINE
8
BLACK
6
CONTINUOUS
10
73.7002700000000033
20
-84.7782899999999984
11
73.7955079999999981
21
-85.1592419999999919
0
LINE
8
BLACK
6
CONTINUOUS
10
73.7955079999999981
20
-85.1592419999999919
11
73.7955079999999981
21
-85.6354329999999919
0
LINE
8
BLACK
6
CONTINUOUS
10
73.7955079999999981
20
-85.6354329999999919
11
73.7002700000000033
21
-86.0163849999999996
0
LINE
8
BLACK
6
CONTINUOUS
10
73.7002700000000033
20
-86.0163849999999996
11
73.6050319999999942
21
-86.2068609999999893
0
LINE
8
BLACK
6
CONTINUOUS
10
73.6050319999999942
20
-86.2068609999999893
11
73.5097939999999994
21
-86.3020999999999958
0
LINE
8
BLACK
6
CONTINUOUS
10
73.5097939999999994
20
-86.3020999999999958
11
73.3193179999999955
21
-86.3973379999999906
0
LINE
8
BLACK
6
CONTINUOUS
10
73.3193179999999955
20
-86.3973379999999906
11
73.1288409999999942
21
-86.3973379999999906
0
LINE
8
BLACK
6
CONTINUOUS
10
73.1288409999999942
20
-86.3973379999999906
11
72.9383649999999903
21
-86.3020999999999958
0
LINE
8
BLACK
6
CONTINUOUS
10
72.9383649999999903
20
-86.3020999999999958
11
72.8431269999999955
21
-86.2068609999999893
0
LINE
8
BLACK
6
CONTINUOUS
10
72.8431269999999955
20
-86.2068609999999893
11
72.7478890000000007
21
-86.0163849999999996
0
LINE
8
BLACK
6
CONTINUOUS
10
72.7478890000000007
20
-86.0163849999999996
11
72.6526509999999917
21
-85.6354329999999919
0
LINE
8
BLACK
6
CONTINUOUS
10
72.6526509999999917
20
-85.6354329999999919
11
72.6526509999999917
21
-85.1592419999999919
0
LINE
8
BLACK
6
CONTINUOUS
10
72.6526509999999917
20
-85.1592419999999919
11
72.7478890000000007
21
-84.7782899999999984
0
LINE
8
BLACK
6
CONTINUOUS
10
72.7478890000000007
20
-84.7782899999999984
11
72.8431269999999955
21
-84.5878139999999945
0
LINE
8
BLACK
6
CONTINUOUS
10
72.8431269999999955
20
-84.5878139999999945
11
72.9383649999999903
21
-84.4925759999999997
0
LINE
8
BLACK
6
CONTINUOUS
10
72.9383649999999903
20
-84.4925759999999997
11
73.1288409999999942
21
-84.3973379999999906
0
LINE
8
BLACK
6
CONTINUOUS
10
74.6526509999999917
20
-86.2068609999999893
11
74.7478890000000007
21
-86.3020999999999958
0
LINE
8
BLACK
6
CONTINUOUS
10
74.7478890000000007
20
-86.3020999999999958
11
74.6526509999999917
21
-86.3973379999999906
0
LINE
8
BLACK
6
CONTINUOUS
10
74.6526509999999917
20
-86.3973379999999906
11
74.5574129999999968
21
-86.3020999999999958
0
LINE
8
BLACK
6
CONTINUOUS
10
74.5574129999999968
20
-86.3020999999999958
11
74.6526509999999917
21
-86.2068609999999893
0
LINE
8
BLACK
6
CONTINUOUS
10
74.6526509999999917
20
-86.2068609999999893
11
74.6526509999999917
21
-86.3973379999999906
0
LINE
8
BLACK
6
CONTINUOUS
10
75.985984000000002
20
-84.3973379999999906
11
76.1764610000000033
21
-84.3973379999999906
0
LINE
8
BLACK
6
CONTINUOUS
10
76.1764610000000033
20
-84.3973379999999906
11
76.366936999999993
21
-84.4925759999999997
0
LINE
8
BLACK
6
CONTINUOUS
10
76.366936999999993
20
-84.4925759999999997
11
76.462175000000002
21
-84.5878139999999945
0
LINE
8
BLACK
6
CONTINUOUS
10
76.462175000000002
20
-84.5878139999999945
11
76.5574129999999968
21
-84.7782899999999984
0
LINE
8
BLACK
6
CONTINUOUS
10
76.5574129999999968
20
-84.7782899999999984
11
76.6526509999999917
21
-85.1592419999999919
0
LINE
8
BLACK
6
CONTINUOUS
10
76.6526509999999917
20
-85.1592419999999919
11
76.6526509999999917
21
-85.6354329999999919
0
LINE
8
BLACK
6
CONTINUOUS
10
76.6526509999999917
20
-85.6354329999999919
11
76.5574129999999968
21
-86.0163849999999996
0
LINE
8
BLACK
6
CONTINUOUS
10
76.5574129999999968
20
-86.0163849999999996
11
76.462175000000002
21
-86.2068609999999893
0
LINE
8
BLACK
6
CONTINUOUS
10
76.462175000000002
20
-86.2068609999999893
11
76.366936999999993
21
-86.3020999999999958
0
LINE
8
BLACK
6
CONTINUOUS
10
76.366936999999993
20
-86.3020999999999958
11
76.1764610000000033
21
-86.3973379999999906
0
LINE
8
BLACK
6
CONTINUOUS
10
76.1764610000000033
20
-86.3973379999999906
11
75.985984000000002
21
-86.3973379999999906
0
LINE
8
BLACK
6
CONTINUOUS
10
75.985984000000002
20
-86.3973379999999906
11
75.7955079999999981
21
-86.3020999999999958
0
LINE
8
BLACK
6
CONTINUOUS
10
75.7955079999999981
20
-86.3020999999999958
11
75.7002700000000033
21
-86.2068609999999893
0
LINE
8
BLACK
6
CONTINUOUS
10
75.7002700000000033
20
-86.2068609999999893
11
75.6050319999999942
21
-86.0163849999999996
0
LINE
8
BLACK
6
CONTINUOUS
10
75.6050319999999942
20
-86.0163849999999996
11
75.5097939999999994
21
-85.6354329999999919
0
LINE
8
BLACK
6
CONTINUOUS
10
75.5097939999999994
20
-85.6354329999999919
11
75.5097939999999994
21
-85.1592419999999919
0
LINE
8
BLACK
6
CONTINUOUS
10
75.5097939999999994
20
-85.1592419999999919
11
75.6050319999999942
21
-84.7782899999999984
0
LINE
8
BLACK
6
CONTINUOUS
10
75.6050319999999942
20
-84.7782899999999984
11
75.7002700000000033
21
-84.5878139999999945
0
LINE
8
BLACK
6
CONTINUOUS
10
75.7002700000000033
20
-84.5878139999999945
11
75.7955079999999981
21
-84.4925759999999997
0
LINE
8
BLACK
6
CONTINUOUS
10
75.7955079999999981
20
-84.4925759999999997
11
75.985984000000002
21
-84.3973379999999906
0
LINE
8
BLACK
6
CONTINUOUS
10
77.3193179999999955
20
-84.3973379999999906
11
78.5574129999999968
21
-84.3973379999999906
0
LINE
8
BLACK
6
CONTINUOUS
10
78.5574129999999968
20
-84.3973379999999906
11
77.8907459999999929
21
-85.1592419999999919
0
LINE
8
BLACK
6
CONTINUOUS
10
77.8907459999999929
20
-85.1592419999999919
11
78.1764610000000033
21
-85.1592419999999919
0
LINE
8
BLACK
6
CONTINUOUS
10
78.1764610000000033
20
-85.1592419999999919
11
78.366936999999993
21
-85.2544800000000009
0
LINE
8
BLACK
6
CONTINUOUS
10
78.366936999999993
20
-85.2544800000000009
11
78.462175000000002
21
-85.3497189999999932
0
LINE
8
BLACK
6
CONTINUOUS
10
78.462175000000002
20
-85.3497189999999932
11
78.5574129999999968
21
-85.5401949999999971
0
LINE
8
BLACK
6
CONTINUOUS
10
78.5574129999999968
20
-85.5401949999999971
11
78.5574129999999968
21
-86.0163849999999996
0
LINE
8
BLACK
6
CONTINUOUS
10
78.5574129999999968
20
-86.0163849999999996
11
78.462175000000002
21
-86.2068609999999893
0
LINE
8
BLACK
6
CONTINUOUS
10
78.462175000000002
20
-86.2068609999999893
11
78.366936999999993
21
-86.3020999999999958
0
LINE
8
BLACK
6
CONTINUOUS
10
78.366936999999993
20
-86.3020999999999958
11
78.1764610000000033
21
-86.3973379999999906
0
LINE
8
BLACK
6
CONTINUOUS
10
78.1764610000000033
20
-86.3973379999999906
11
77.6050319999999942
21
-86.3973379999999906
0
LINE
8
BLACK
6
CONTINUOUS
10
77.6050319999999942
20
-86.3973379999999906
11
77.4145559999999904
21
-86.3020999999999958
0
LINE
8
BLACK
6
CONTINUOUS
10
77.4145559999999904
20
-86.3020999999999958
11
77.3193179999999955
21
-86.2068609999999893
0
LINE
8
BLACK
6
CONTINUOUS
10
79.5097939999999994
20
-86.3973379999999906
11
79.8907459999999929
21
-86.3973379999999906
0
LINE
8
BLACK
6
CONTINUOUS
10
79.8907459999999929
20
-86.3973379999999906
11
80.0812229999999943
21
-86.3020999999999958
0
LINE
8
BLACK
6
CONTINUOUS
10
80.0812229999999943
20
-86.3020999999999958
11
80.1764610000000033
21
-86.2068609999999893
0
LINE
8
BLACK
6
CONTINUOUS
10
80.1764610000000033
20
-86.2068609999999893
11
80.366936999999993
21
-85.9211469999999906
0
LINE
8
BLACK
6
CONTINUOUS
10
80.366936999999993
20
-85.9211469999999906
11
80.462175000000002
21
-85.5401949999999971
0
LINE
8
BLACK
6
CONTINUOUS
10
80.462175000000002
20
-85.5401949999999971
11
80.462175000000002
21
-84.7782899999999984
0
LINE
8
BLACK
6
CONTINUOUS
10
80.462175000000002
20
-84.7782899999999984
11
80.366936999999993
21
-84.5878139999999945
0
LINE
8
BLACK
6
CONTINUOUS
10
80.366936999999993
20
-84.5878139999999945
11
80.2716989999999981
21
-84.4925759999999997
0
LINE
8
BLACK
6
CONTINUOUS
10
80.2716989999999981
20
-84.4925759999999997
11
80.0812229999999943
21
-84.3973379999999906
0
LINE
8
BLACK
6
CONTINUOUS
10
80.0812229999999943
20
-84.3973379999999906
11
79.7002700000000033
21
-84.3973379999999906
0
LINE
8
BLACK
6
CONTINUOUS
10
79.7002700000000033
20
-84.3973379999999906
11
79.5097939999999994
21
-84.4925759999999997
0
LINE
8
BLACK
6
CONTINUOUS
10
79.5097939999999994
20
-84.4925759999999997
11
79.4145559999999904
21
-84.5878139999999945
0
LINE
8
BLACK
6
CONTINUOUS
10
79.4145559999999904
20
-84.5878139999999945
11
79.3193179999999955
21
-84.7782899999999984
0
LINE
8
BLACK
6
CONTINUOUS
10
79.3193179999999955
20
-84.7782899999999984
11
79.3193179999999955
21
-85.2544800000000009
0
LINE
8
BLACK
6
CONTINUOUS
10
79.3193179999999955
20
-85.2544800000000009
11
79.4145559999999904
21
-85.4449570000000023
0
LINE
8
BLACK
6
CONTINUOUS
10
79.4145559999999904
20
-85.4449570000000023
11
79.5097939999999994
21
-85.5401949999999971
0
LINE
8
BLACK
6
CONTINUOUS
10
79.5097939999999994
20
-85.5401949999999971
11
79.7002700000000033
21
-85.6354329999999919
0
LINE
8
BLACK
6
CONTINUOUS
10
79.7002700000000033
20
-85.6354329999999919
11
80.0812229999999943
21
-85.6354329999999919
0
LINE
8
BLACK
6
CONTINUOUS
10
80.0812229999999943
20
-85.6354329999999919
11
80.2716989999999981
21
-85.5401949999999971
0
LINE
8
BLACK
6
CONTINUOUS
10
80.2716989999999981
20
-85.5401949999999971
11
80.366936999999993
21
-85.4449570000000023
0
LINE
8
BLACK
6
CONTINUOUS
10
80.366936999999993
20
-85.4449570000000023
11
80.462175000000002
21
-85.2544800000000009
0
LINE
8
BLACK
6
CONTINUOUS
10
82.1764610000000033
20
-85.0640039999999971
11
82.1764610000000033
21
-86.3973379999999906
0
LINE
8
BLACK
6
CONTINUOUS
10
81.7002700000000033
20
-84.3020999999999958
11
81.2240800000000007
21
-85.730671000000001
0
LINE
8
BLACK
6
CONTINUOUS
10
81.2240800000000007
20
-85.730671000000001
11
82.462175000000002
21
-85.730671000000001
0
LINE
8
BLACK
6
CONTINUOUS
10
83.1288419999999917
20
-84.3973379999999906
11
83.1288419999999917
21
-84.7782899999999984
0
LINE
8
BLACK
6
CONTINUOUS
10
83.8907469999999904
20
-84.3973379999999906
11
83.8907469999999904
21
-84.7782899999999984
0
LINE
8
BLACK
6
CONTINUOUS
10
86.8431289999999905
20
-87.1592419999999919
11
86.7478899999999982
21
-87.0640039999999971
0
LINE
8
BLACK
6
CONTINUOUS
10
86.7478899999999982
20
-87.0640039999999971
11
86.5574139999999943
21
-86.7782899999999984
0
LINE
8
BLACK
6
CONTINUOUS
10
86.5574139999999943
20
-86.7782899999999984
11
86.4621759999999995
21
-86.5878139999999945
0
LINE
8
BLACK
6
CONTINUOUS
10
86.4621759999999995
20
-86.5878139999999945
11
86.3669379999999904
21
-86.3020999999999958
0
LINE
8
BLACK
6
CONTINUOUS
10
86.3669379999999904
20
-86.3020999999999958
11
86.2716999999999956
21
-85.8259089999999958
0
LINE
8
BLACK
6
CONTINUOUS
10
86.2716999999999956
20
-85.8259089999999958
11
86.2716999999999956
21
-85.4449570000000023
0
LINE
8
BLACK
6
CONTINUOUS
10
86.2716999999999956
20
-85.4449570000000023
11
86.3669379999999904
21
-84.9687660000000022
0
LINE
8
BLACK
6
CONTINUOUS
10
86.3669379999999904
20
-84.9687660000000022
11
86.4621759999999995
21
-84.6830519999999893
0
LINE
8
BLACK
6
CONTINUOUS
10
86.4621759999999995
20
-84.6830519999999893
11
86.5574139999999943
21
-84.4925759999999997
0
LINE
8
BLACK
6
CONTINUOUS
10
86.5574139999999943
20
-84.4925759999999997
11
86.7478899999999982
21
-84.2068609999999893
0
LINE
8
BLACK
6
CONTINUOUS
10
86.7478899999999982
20
-84.2068609999999893
11
86.8431289999999905
21
-84.1116229999999945
0
LINE
8
BLACK
6
CONTINUOUS
10
88.6526519999999891
20
-86.3973379999999906
11
87.5097949999999969
21
-86.3973379999999906
0
LINE
8
BLACK
6
CONTINUOUS
10
88.0812229999999943
20
-86.3973379999999906
11
88.0812229999999943
21
-84.3973379999999906
0
LINE
8
BLACK
6
CONTINUOUS
10
88.0812229999999943
20
-84.3973379999999906
11
87.8907469999999904
21
-84.6830519999999893
0
LINE
8
BLACK
6
CONTINUOUS
10
87.8907469999999904
20
-84.6830519999999893
11
87.7002710000000008
21
-84.8735279999999932
0
LINE
8
BLACK
6
CONTINUOUS
10
87.7002710000000008
20
-84.8735279999999932
11
87.5097949999999969
21
-84.9687660000000022
0
LINE
8
BLACK
6
CONTINUOUS
10
89.8907469999999904
20
-84.3973379999999906
11
90.0812239999999917
21
-84.3973379999999906
0
LINE
8
BLACK
6
CONTINUOUS
10
90.0812239999999917
20
-84.3973379999999906
11
90.2716999999999956
21
-84.4925759999999997
0
LINE
8
BLACK
6
CONTINUOUS
10
90.2716999999999956
20
-84.4925759999999997
11
90.3669379999999904
21
-84.5878139999999945
0
LINE
8
BLACK
6
CONTINUOUS
10
90.3669379999999904
20
-84.5878139999999945
11
90.4621759999999995
21
-84.7782899999999984
0
LINE
8
BLACK
6
CONTINUOUS
10
90.4621759999999995
20
-84.7782899999999984
11
90.5574139999999943
21
-85.1592419999999919
0
LINE
8
BLACK
6
CONTINUOUS
10
90.5574139999999943
20
-85.1592419999999919
11
90.5574139999999943
21
-85.6354329999999919
0
LINE
8
BLACK
6
CONTINUOUS
10
90.5574139999999943
20
-85.6354329999999919
11
90.4621759999999995
21
-86.0163849999999996
0
LINE
8
BLACK
6
CONTINUOUS
10
90.4621759999999995
20
-86.0163849999999996
11
90.3669379999999904
21
-86.2068609999999893
0
LINE
8
BLACK
6
CONTINUOUS
10
90.3669379999999904
20
-86.2068609999999893
11
90.2716999999999956
21
-86.3020999999999958
0
LINE
8
BLACK
6
CONTINUOUS
10
90.2716999999999956
20
-86.3020999999999958
11
90.0812239999999917
21
-86.3973379999999906
0
LINE
8
BLACK
6
CONTINUOUS
10
90.0812239999999917
20
-86.3973379999999906
11
89.8907469999999904
21
-86.3973379999999906
0
LINE
8
BLACK
6
CONTINUOUS
10
89.8907469999999904
20
-86.3973379999999906
11
89.7002710000000008
21
-86.3020999999999958
0
LINE
8
BLACK
6
CONTINUOUS
10
89.7002710000000008
20
-86.3020999999999958
11
89.6050329999999917
21
-86.2068609999999893
0
LINE
8
BLACK
6
CONTINUOUS
10
89.6050329999999917
20
-86.2068609999999893
11
89.5097949999999969
21
-86.0163849999999996
0
LINE
8
BLACK
6
CONTINUOUS
10
89.5097949999999969
20
-86.0163849999999996
11
89.4145570000000021
21
-85.6354329999999919
0
LINE
8
BLACK
6
CONTINUOUS
10
89.4145570000000021
20
-85.6354329999999919
11
89.4145570000000021
21
-85.1592419999999919
0
LINE
8
BLACK
6
CONTINUOUS
10
89.4145570000000021
20
-85.1592419999999919
11
89.5097949999999969
21
-84.7782899999999984
0
LINE
8
BLACK
6
CONTINUOUS
10
89.5097949999999969
20
-84.7782899999999984
11
89.6050329999999917
21
-84.5878139999999945
0
LINE
8
BLACK
6
CONTINUOUS
10
89.6050329999999917
20
-84.5878139999999945
11
89.7002710000000008
21
-84.4925759999999997
0
LINE
8
BLACK
6
CONTINUOUS
10
89.7002710000000008
20
-84.4925759999999997
11
89.8907469999999904
21
-84.3973379999999906
0
LINE
8
BLACK
6
CONTINUOUS
10
92.9383669999999995
20
-86.3973379999999906
11
92.9383669999999995
21
-84.3973379999999906
0
LINE
8
BLACK
6
CONTINUOUS
10
93.7955099999999931
20
-86.3973379999999906
11
93.7955099999999931
21
-85.3497189999999932
0
LINE
8
BLACK
6
CONTINUOUS
10
93.7955099999999931
20
-85.3497189999999932
11
93.7002719999999982
21
-85.1592419999999919
0
LINE
8
BLACK
6
CONTINUOUS
10
93.7002719999999982
20
-85.1592419999999919
11
93.5097959999999944
21
-85.0640039999999971
0
LINE
8
BLACK
6
CONTINUOUS
10
93.5097959999999944
20
-85.0640039999999971
11
93.2240809999999982
21
-85.0640039999999971
0
LINE
8
BLACK
6
CONTINUOUS
10
93.2240809999999982
20
-85.0640039999999971
11
93.0336049999999943
21
-85.1592419999999919
0
LINE
8
BLACK
6
CONTINUOUS
10
93.0336049999999943
20
-85.1592419999999919
11
92.9383669999999995
21
-85.2544800000000009
0
LINE
8
BLACK
6
CONTINUOUS
10
95.0336049999999943
20
-86.3973379999999906
11
94.8431289999999905
21
-86.3020999999999958
0
LINE
8
BLACK
6
CONTINUOUS
10
94.8431289999999905
20
-86.3020999999999958
11
94.7478909999999956
21
-86.2068609999999893
0
LINE
8
BLACK
6
CONTINUOUS
10
94.7478909999999956
20
-86.2068609999999893
11
94.6526530000000008
21
-86.0163849999999996
0
LINE
8
BLACK
6
CONTINUOUS
10
94.6526530000000008
20
-86.0163849999999996
11
94.6526530000000008
21
-85.4449570000000023
0
LINE
8
BLACK
6
CONTINUOUS
10
94.6526530000000008
20
-85.4449570000000023
11
94.7478909999999956
21
-85.2544800000000009
0
LINE
8
BLACK
6
CONTINUOUS
10
94.7478909999999956
20
-85.2544800000000009
11
94.8431289999999905
21
-85.1592419999999919
0
LINE
8
BLACK
6
CONTINUOUS
10
94.8431289999999905
20
-85.1592419999999919
11
95.0336049999999943
21
-85.0640039999999971
0
LINE
8
BLACK
6
CONTINUOUS
10
95.0336049999999943
20
-85.0640039999999971
11
95.3193199999999905
21
-85.0640039999999971
0
LINE
8
BLACK
6
CONTINUOUS
10
95.3193199999999905
20
-85.0640039999999971
11
95.5097959999999944
21
-85.1592419999999919
0
LINE
8
BLACK
6
CONTINUOUS
10
95.5097959999999944
20
-85.1592419999999919
11
95.6050339999999892
21
-85.2544800000000009
0
LINE
8
BLACK
6
CONTINUOUS
10
95.6050339999999892
20
-85.2544800000000009
11
95.7002719999999982
21
-85.4449570000000023
0
LINE
8
BLACK
6
CONTINUOUS
10
95.7002719999999982
20
-85.4449570000000023
11
95.7002719999999982
21
-86.0163849999999996
0
LINE
8
BLACK
6
CONTINUOUS
10
95.7002719999999982
20
-86.0163849999999996
11
95.6050339999999892
21
-86.2068609999999893
0
LINE
8
BLACK
6
CONTINUOUS
10
95.6050339999999892
20
-86.2068609999999893
11
95.5097959999999944
21
-86.3020999999999958
0
LINE
8
BLACK
6
CONTINUOUS
10
95.5097959999999944
20
-86.3020999999999958
11
95.3193199999999905
21
-86.3973379999999906
0
LINE
8
BLACK
6
CONTINUOUS
10
95.3193199999999905
20
-86.3973379999999906
11
95.0336049999999943
21
-86.3973379999999906
0
LINE
8
BLACK
6
CONTINUOUS
10
96.8431289999999905
20
-86.3973379999999906
11
96.6526530000000008
21
-86.3020999999999958
0
LINE
8
BLACK
6
CONTINUOUS
10
96.6526530000000008
20
-86.3020999999999958
11
96.5574149999999918
21
-86.1116229999999945
0
LINE
8
BLACK
6
CONTINUOUS
10
96.5574149999999918
20
-86.1116229999999945
11
96.5574149999999918
21
-84.3973379999999906
0
LINE
8
BLACK
6
CONTINUOUS
10
98.3669390000000021
20
-86.3020999999999958
11
98.1764629999999983
21
-86.3973379999999906
0
LINE
8
BLACK
6
CONTINUOUS
10
98.1764629999999983
20
-86.3973379999999906
11
97.7955099999999931
21
-86.3973379999999906
0
LINE
8
BLACK
6
CONTINUOUS
10
97.7955099999999931
20
-86.3973379999999906
11
97.6050339999999892
21
-86.3020999999999958
0
LINE
8
BLACK
6
CONTINUOUS
10
97.6050339999999892
20
-86.3020999999999958
11
97.5097959999999944
21
-86.1116229999999945
0
LINE
8
BLACK
6
CONTINUOUS
10
97.5097959999999944
20
-86.1116229999999945
11
97.5097959999999944
21
-85.3497189999999932
0
LINE
8
BLACK
6
CONTINUOUS
10
97.5097959999999944
20
-85.3497189999999932
11
97.6050339999999892
21
-85.1592419999999919
0
LINE
8
BLACK
6
CONTINUOUS
10
97.6050339999999892
20
-85.1592419999999919
11
97.7955099999999931
21
-85.0640039999999971
0
LINE
8
BLACK
6
CONTINUOUS
10
97.7955099999999931
20
-85.0640039999999971
11
98.1764629999999983
21
-85.0640039999999971
0
LINE
8
BLACK
6
CONTINUOUS
10
98.1764629999999983
20
-85.0640039999999971
11
98.3669390000000021
21
-85.1592419999999919
0
LINE
8
BLACK
6
CONTINUOUS
10
98.3669390000000021
20
-85.1592419999999919
11
98.462176999999997
21
-85.3497189999999932
0
LINE
8
BLACK
6
CONTINUOUS
10
98.462176999999997
20
-85.3497189999999932
11
98.462176999999997
21
-85.5401949999999971
0
LINE
8
BLACK
6
CONTINUOUS
10
98.462176999999997
20
-85.5401949999999971
11
97.5097959999999944
21
-85.730671000000001
0
LINE
8
BLACK
6
CONTINUOUS
10
99.2240819999999957
20
-86.3020999999999958
11
99.4145579999999995
21
-86.3973379999999906
0
LINE
8
BLACK
6
CONTINUOUS
10
99.4145579999999995
20
-86.3973379999999906
11
99.7955099999999931
21
-86.3973379999999906
0
LINE
8
BLACK
6
CONTINUOUS
10
99.7955099999999931
20
-86.3973379999999906
11
99.9859869999999944
21
-86.3020999999999958
0
LINE
8
BLACK
6
CONTINUOUS
10
99.9859869999999944
20
-86.3020999999999958
11
100.0812249999999892
21
-86.1116229999999945
0
LINE
8
BLACK
6
CONTINUOUS
10
100.0812249999999892
20
-86.1116229999999945
11
100.0812249999999892
21
-86.0163849999999996
0
LINE
8
BLACK
6
CONTINUOUS
10
100.0812249999999892
20
-86.0163849999999996
11
99.9859869999999944
21
-85.8259089999999958
0
LINE
8
BLACK
6
CONTINUOUS
10
99.9859869999999944
20
-85.8259089999999958
11
99.7955099999999931
21
-85.730671000000001
0
LINE
8
BLACK
6
CONTINUOUS
10
99.7955099999999931
20
-85.730671000000001
11
99.5097959999999944
21
-85.730671000000001
0
LINE
8
BLACK
6
CONTINUOUS
10
99.5097959999999944
20
-85.730671000000001
11
99.3193199999999905
21
-85.6354329999999919
0
LINE
8
BLACK
6
CONTINUOUS
10
99.3193199999999905
20
-85.6354329999999919
11
99.2240819999999957
21
-85.4449570000000023
0
LINE
8
BLACK
6
CONTINUOUS
10
99.2240819999999957
20
-85.4449570000000023
11
99.2240819999999957
21
-85.3497189999999932
0
LINE
8
BLACK
6
CONTINUOUS
10
99.2240819999999957
20
-85.3497189999999932
11
99.3193199999999905
21
-85.1592419999999919
0
LINE
8
BLACK
6
CONTINUOUS
10
99.3193199999999905
20
-85.1592419999999919
11
99.5097959999999944
21
-85.0640039999999971
0
LINE
8
BLACK
6
CONTINUOUS
10
99.5097959999999944
20
-85.0640039999999971
11
99.7955099999999931
21
-85.0640039999999971
0
LINE
8
BLACK
6
CONTINUOUS
10
99.7955099999999931
20
-85.0640039999999971
11
99.9859869999999944
21
-85.1592419999999919
0
LINE
8
BLACK
6
CONTINUOUS
10
100.7478919999999931
20
-87.1592419999999919
11
100.8431300000000022
21
-87.0640039999999971
0
LINE
8
BLACK
6
CONTINUOUS
10
100.8431300000000022
20
-87.0640039999999971
11
101.0336059999999918
21
-86.7782899999999984
0
LINE
8
BLACK
6
CONTINUOUS
10
101.0336059999999918
20
-86.7782899999999984
11
101.1288440000000008
21
-86.5878139999999945
0
LINE
8
BLACK
6
CONTINUOUS
10
101.1288440000000008
20
-86.5878139999999945
11
101.2240819999999957
21
-86.3020999999999958
0
LINE
8
BLACK
6
CONTINUOUS
10
101.2240819999999957
20
-86.3020999999999958
11
101.3193199999999905
21
-85.8259089999999958
0
LINE
8
BLACK
6
CONTINUOUS
10
101.3193199999999905
20
-85.8259089999999958
11
101.3193199999999905
21
-85.4449570000000023
0
LINE
8
BLACK
6
CONTINUOUS
10
101.3193199999999905
20
-85.4449570000000023
11
101.2240819999999957
21
-84.9687660000000022
0
LINE
8
BLACK
6
CONTINUOUS
10
101.2240819999999957
20
-84.9687660000000022
11
101.1288440000000008
21
-84.6830519999999893
0
LINE
8
BLACK
6
CONTINUOUS
10
101.1288440000000008
20
-84.6830519999999893
11
101.0336059999999918
21
-84.4925759999999997
0
LINE
8
BLACK
6
CONTINUOUS
10
101.0336059999999918
20
-84.4925759999999997
11
100.8431300000000022
21
-84.2068609999999893
0
LINE
8
BLACK
6
CONTINUOUS
10
100.8431300000000022
20
-84.2068609999999893
11
100.7478919999999931
21
-84.1116229999999945
  0
ENDSEC
  0
EOF
