  0
SECTION
  2
HEADER
  9
$ANGBASE
  50
0.0
  9
$ANGDIR
  70
1
  9
$MEASUREMENT
  70
1
  0
ENDSEC
  0
SECTION
  2
TABLES
  0
TABLE
  2
LTYPE
  70
4
  0
LTYPE
  5
40F
  2
CONTINUOUS
  70
0
  3
Solid line
  72
65
  73
0
  40
0.0
  0
LTYPE
  5
410
  2
DASHDOT
 70
0
  3
Dash Dot ____ _ ____ _
 72
65
 73
4
 40
2.0
 49
1.25
 49
-0.25
 49
0.25
 49
-0.25
  0
LTYPE
  5
411
  2
DASHED
 70
0
  3
Dashed __ __ __ __ __
 72
65
 73
2
 40
0.75
 49
0.5
 49
-0.25
  0
LTYPE
  5
43B
  2
DOTTED
 70
0
  3
Dotted .  .  .  .
 72
65
 73
2
 40
0.2
 49
0.0
 49
-0.2
  0
ENDTAB
  0
TABLE
  2
STYLE
  70
4
  0
STYLE
  2
KICAD
  70
0
  40
0
  41
1
  42
1
  50
0
  71
0
  3
isocp.shx
  0
STYLE
  2
KICADB
  70
0
  40
0
  41
1
  42
1
  50
0
  71
0
  3
isocp.shx
  0
STYLE
  2
KICADI
  70
0
  40
0
  41
1
  42
1
  50
15
  71
0
  3
isocp.shx
  0
STYLE
  2
KICADBI
  70
0
  40
0
  41
1
  42
1
  50
15
  71
0
  3
isocp.shx
  0
ENDTAB
  0
TABLE
  2
LAYER
  70
1
  0
LAYER
  2
BLACK
  70
0
  62
7
  6
CONTINUOUS
  0
ENDTAB
  0
ENDSEC
  0
SECTION
  2
ENTITIES
0
LINE
8
BLACK
6
CONTINUOUS
10
73.6599999999999966
20
-59.215992
11
73.6633999999999958
21
-59.2172300000000007
0
LINE
8
BLACK
6
CONTINUOUS
10
73.6633999999999958
20
-59.2172300000000007
11
73.6643569999999954
21
-59.2181069999999963
0
LINE
8
BLACK
6
CONTINUOUS
10
73.6643569999999954
20
-59.2181069999999963
11
76.3543930000000017
21
-61.9081429999999955
0
LINE
8
BLACK
6
CONTINUOUS
10
76.3543930000000017
20
-61.9081429999999955
11
76.3586930000000024
21
-61.9173649999999967
0
LINE
8
BLACK
6
CONTINUOUS
10
76.3586930000000024
20
-61.9173649999999967
11
76.3587500000000006
21
-61.9186610000000002
0
LINE
8
BLACK
6
CONTINUOUS
10
76.3587500000000006
20
-61.9186610000000002
11
76.3587500000000006
21
-78.7251249999999914
0
LINE
8
BLACK
6
CONTINUOUS
10
76.3587500000000006
20
-78.7251249999999914
11
76.3552699999999902
21
-78.7346859999999964
0
LINE
8
BLACK
6
CONTINUOUS
10
76.3552699999999902
20
-78.7346859999999964
11
76.3464579999999984
21
-78.739773999999997
0
LINE
8
BLACK
6
CONTINUOUS
10
76.3464579999999984
20
-78.739773999999997
11
76.343874999999997
21
-78.7399999999999949
0
LINE
8
BLACK
6
CONTINUOUS
10
76.343874999999997
20
-78.7399999999999949
11
51.6086249999999964
21
-78.7399999999999949
0
LINE
8
BLACK
6
CONTINUOUS
10
51.6086249999999964
20
-78.7399999999999949
11
51.5990639999999985
21
-78.7365199999999987
0
LINE
8
BLACK
6
CONTINUOUS
10
51.5990639999999985
20
-78.7365199999999987
11
51.5939759999999978
21
-78.7277079999999927
0
LINE
8
BLACK
6
CONTINUOUS
10
51.5939759999999978
20
-78.7277079999999927
11
51.59375
21
-78.7251249999999914
0
LINE
8
BLACK
6
CONTINUOUS
10
51.59375
20
-78.7251249999999914
11
51.59375
21
-69.3799109999999928
0
LINE
8
BLACK
6
CONTINUOUS
10
51.59375
20
-69.3799109999999928
11
51.5939959999999971
21
-69.3792339999999967
0
LINE
8
BLACK
6
CONTINUOUS
10
51.5939959999999971
20
-69.3792339999999967
11
51.59375
21
-69.3737500000000011
0
LINE
8
BLACK
6
CONTINUOUS
10
51.59375
20
-69.3737500000000011
11
51.5975839999999977
21
-69.288369000000003
0
LINE
8
BLACK
6
CONTINUOUS
10
51.5975839999999977
20
-69.288369000000003
11
51.609057
21
-69.2036749999999898
0
LINE
8
BLACK
6
CONTINUOUS
10
51.609057
20
-69.2036749999999898
11
51.6280749999999955
21
-69.120350000000002
0
LINE
8
BLACK
6
CONTINUOUS
10
51.6280749999999955
20
-69.120350000000002
11
51.6544859999999986
21
-69.0390649999999937
0
LINE
8
BLACK
6
CONTINUOUS
10
51.6544859999999986
20
-69.0390649999999937
11
51.6880769999999998
21
-68.9604759999999999
0
LINE
8
BLACK
6
CONTINUOUS
10
51.6880769999999998
20
-68.9604759999999999
11
51.7285779999999988
21
-68.8852129999999931
0
LINE
8
BLACK
6
CONTINUOUS
10
51.7285779999999988
20
-68.8852129999999931
11
51.7756609999999995
21
-68.8138849999999991
0
LINE
8
BLACK
6
CONTINUOUS
10
51.7756609999999995
20
-68.8138849999999991
11
51.8289489999999944
21
-68.7470629999999971
0
LINE
8
BLACK
6
CONTINUOUS
10
51.8289489999999944
20
-68.7470629999999971
11
51.8880130000000008
21
-68.6852879999999999
0
LINE
8
BLACK
6
CONTINUOUS
10
51.8880130000000008
20
-68.6852879999999999
11
51.952376000000001
21
-68.6290559999999914
0
LINE
8
BLACK
6
CONTINUOUS
10
51.952376000000001
20
-68.6290559999999914
11
52.0215209999999999
21
-68.5788189999999958
0
LINE
8
BLACK
6
CONTINUOUS
10
52.0215209999999999
20
-68.5788189999999958
11
52.0948899999999995
21
-68.5349829999999969
0
LINE
8
BLACK
6
CONTINUOUS
10
52.0948899999999995
20
-68.5349829999999969
11
52.1718939999999947
21
-68.4979000000000013
0
LINE
8
BLACK
6
CONTINUOUS
10
52.1718939999999947
20
-68.4979000000000013
11
52.228749999999998
21
-68.4765610000000038
0
LINE
8
BLACK
6
CONTINUOUS
10
52.228749999999998
20
-68.4765610000000038
11
52.228749999999998
21
-62.8711609999999936
0
LINE
8
BLACK
6
CONTINUOUS
10
52.228749999999998
20
-62.8711609999999936
11
52.2322299999999942
21
-62.8615999999999957
0
LINE
8
BLACK
6
CONTINUOUS
10
52.2322299999999942
20
-62.8615999999999957
11
52.2331069999999968
21
-62.8606429999999961
0
LINE
8
BLACK
6
CONTINUOUS
10
52.2331069999999968
20
-62.8606429999999961
11
52.8578929999999971
21
-62.2358569999999958
0
LINE
8
BLACK
6
CONTINUOUS
10
52.8578929999999971
20
-62.2358569999999958
11
52.8671149999999983
21
-62.2315569999999951
0
LINE
8
BLACK
6
CONTINUOUS
10
52.8671149999999983
20
-62.2315569999999951
11
52.8684109999999947
21
-62.2314999999999969
0
LINE
8
BLACK
6
CONTINUOUS
10
52.8684109999999947
20
-62.2314999999999969
11
54.7640889999999985
21
-62.2314999999999969
0
LINE
8
BLACK
6
CONTINUOUS
10
54.7640889999999985
20
-62.2314999999999969
11
54.7736499999999964
21
-62.2349800000000002
0
LINE
8
BLACK
6
CONTINUOUS
10
54.7736499999999964
20
-62.2349800000000002
11
54.774606999999996
21
-62.2358569999999958
0
LINE
8
BLACK
6
CONTINUOUS
10
54.774606999999996
20
-62.2358569999999958
11
55.3993929999999963
21
-62.8606429999999961
0
LINE
8
BLACK
6
CONTINUOUS
10
55.3993929999999963
20
-62.8606429999999961
11
55.403692999999997
21
-62.8698649999999972
0
LINE
8
BLACK
6
CONTINUOUS
10
55.403692999999997
20
-62.8698649999999972
11
55.4037499999999952
21
-62.8711609999999936
0
LINE
8
BLACK
6
CONTINUOUS
10
55.4037499999999952
20
-62.8711609999999936
11
55.4037499999999952
21
-63.6587499999999977
0
LINE
8
BLACK
6
CONTINUOUS
10
55.4037499999999952
20
-63.6587499999999977
11
55.4037499999999952
21
-64.9287499999999937
0
LINE
8
BLACK
6
CONTINUOUS
10
55.4037499999999952
20
-64.9287499999999937
11
55.3888749999999987
21
-64.9287499999999937
0
LINE
8
BLACK
6
CONTINUOUS
10
55.3888749999999987
20
-64.9287499999999937
11
54.7836250000000007
21
-64.9287499999999937
0
LINE
8
BLACK
6
CONTINUOUS
10
54.7836250000000007
20
-64.9287499999999937
11
54.7687499999999972
21
-64.9287499999999937
0
LINE
8
BLACK
6
CONTINUOUS
10
54.7687499999999972
20
-64.9287499999999937
11
54.7687499999999972
21
-63.6587499999999977
0
LINE
8
BLACK
6
CONTINUOUS
10
54.7687499999999972
20
-63.6587499999999977
11
54.7687499999999972
21
-63.1824999999999974
0
LINE
8
BLACK
6
CONTINUOUS
10
54.7687499999999972
20
-63.1824999999999974
11
54.4512499999999946
21
-62.8649999999999949
0
LINE
8
BLACK
6
CONTINUOUS
10
54.4512499999999946
20
-62.8649999999999949
11
53.1812499999999986
21
-62.8649999999999949
0
LINE
8
BLACK
6
CONTINUOUS
10
53.1812499999999986
20
-62.8649999999999949
11
52.863749999999996
21
-63.1824999999999974
0
LINE
8
BLACK
6
CONTINUOUS
10
52.863749999999996
20
-63.1824999999999974
11
52.863749999999996
21
-65.8812499999999943
0
LINE
8
BLACK
6
CONTINUOUS
10
52.863749999999996
20
-65.8812499999999943
11
53.1812509999999961
21
-65.8812499999999943
0
LINE
8
BLACK
6
CONTINUOUS
10
53.1812509999999961
20
-65.8812499999999943
11
53.1812509999999961
21
-67.1512499999999903
0
LINE
8
BLACK
6
CONTINUOUS
10
53.1812509999999961
20
-67.1512499999999903
11
53.1812499999999986
21
-67.1512499999999903
0
LINE
8
BLACK
6
CONTINUOUS
10
53.1812499999999986
20
-67.1512499999999903
11
53.1812499999999986
21
-68.664985999999999
0
LINE
8
BLACK
6
CONTINUOUS
10
53.1812499999999986
20
-68.664985999999999
11
53.2044870000000003
21
-68.6852879999999999
0
LINE
8
BLACK
6
CONTINUOUS
10
53.2044870000000003
20
-68.6852879999999999
11
53.2635509999999996
21
-68.7470629999999971
0
LINE
8
BLACK
6
CONTINUOUS
10
53.2635509999999996
20
-68.7470629999999971
11
53.3168389999999945
21
-68.8138849999999991
0
LINE
8
BLACK
6
CONTINUOUS
10
53.3168389999999945
20
-68.8138849999999991
11
53.3639219999999952
21
-68.8852129999999931
0
LINE
8
BLACK
6
CONTINUOUS
10
53.3639219999999952
20
-68.8852129999999931
11
53.4044229999999942
21
-68.9604759999999999
0
LINE
8
BLACK
6
CONTINUOUS
10
53.4044229999999942
20
-68.9604759999999999
11
53.4380139999999955
21
-69.0390649999999937
0
LINE
8
BLACK
6
CONTINUOUS
10
53.4380139999999955
20
-69.0390649999999937
11
53.4644249999999985
21
-69.120350000000002
0
LINE
8
BLACK
6
CONTINUOUS
10
53.4644249999999985
20
-69.120350000000002
11
53.4834429999999941
21
-69.2036749999999898
0
LINE
8
BLACK
6
CONTINUOUS
10
53.4834429999999941
20
-69.2036749999999898
11
53.4949159999999964
21
-69.288369000000003
0
LINE
8
BLACK
6
CONTINUOUS
10
53.4949159999999964
20
-69.288369000000003
11
53.498749999999994
21
-69.3737500000000011
0
LINE
8
BLACK
6
CONTINUOUS
10
53.498749999999994
20
-69.3737500000000011
11
53.4982210000000009
21
-69.3855179999999905
0
LINE
8
BLACK
6
CONTINUOUS
10
53.4982210000000009
20
-69.3855179999999905
11
53.4985239999999962
21
-69.3860420000000033
0
LINE
8
BLACK
6
CONTINUOUS
10
53.4985239999999962
20
-69.3860420000000033
11
53.498749999999994
21
-69.3886249999999905
0
LINE
8
BLACK
6
CONTINUOUS
10
53.498749999999994
20
-69.3886249999999905
11
53.498749999999994
21
-75.5649999999999977
0
LINE
8
BLACK
6
CONTINUOUS
10
53.498749999999994
20
-75.5649999999999977
11
54.7687499999999972
21
-76.8349999999999937
0
LINE
8
BLACK
6
CONTINUOUS
10
54.7687499999999972
20
-76.8349999999999937
11
54.9133560000000003
21
-76.8349999999999937
0
LINE
8
BLACK
6
CONTINUOUS
10
54.9133560000000003
20
-76.8349999999999937
11
54.9150220000000004
21
-76.835093999999998
0
LINE
8
BLACK
6
CONTINUOUS
10
54.9150220000000004
20
-76.835093999999998
11
54.9274979999999999
21
-76.8365000000000009
0
LINE
8
BLACK
6
CONTINUOUS
10
54.9274979999999999
20
-76.8365000000000009
11
54.9274999999999949
21
-76.8365000000000009
0
LINE
8
BLACK
6
CONTINUOUS
10
54.9274999999999949
20
-76.8365000000000009
11
73.0249869999999959
21
-76.8365000000000009
0
LINE
8
BLACK
6
CONTINUOUS
10
73.0249869999999959
20
-76.8365000000000009
11
73.0249999999999915
21
-76.8365000000000009
0
LINE
8
BLACK
6
CONTINUOUS
10
73.0249999999999915
20
-76.8365000000000009
11
73.0429419999999965
21
-76.8354920000000021
0
LINE
8
BLACK
6
CONTINUOUS
10
73.0429419999999965
20
-76.8354920000000021
11
73.0433689999999984
21
-76.8353939999999938
0
LINE
8
BLACK
6
CONTINUOUS
10
73.0433689999999984
20
-76.8353939999999938
11
73.0434640000000002
21
-76.8353729999999899
0
LINE
8
BLACK
6
CONTINUOUS
10
73.0434640000000002
20
-76.8353729999999899
11
73.04677199999999
21
-76.8349999999999937
0
LINE
8
BLACK
6
CONTINUOUS
10
73.04677199999999
20
-76.8349999999999937
11
73.1837500000000034
21
-76.8349999999999937
0
LINE
8
BLACK
6
CONTINUOUS
10
73.1837500000000034
20
-76.8349999999999937
11
74.4537499999999994
21
-75.5649999999999977
0
LINE
8
BLACK
6
CONTINUOUS
10
74.4537499999999994
20
-75.5649999999999977
11
74.4537499999999994
21
-75.42039299999999
0
LINE
8
BLACK
6
CONTINUOUS
10
74.4537499999999994
20
-75.42039299999999
11
74.4538440000000037
21
-75.4187269999999899
0
LINE
8
BLACK
6
CONTINUOUS
10
74.4538440000000037
20
-75.4187269999999899
11
74.4552499999999924
21
-75.406251999999995
0
LINE
8
BLACK
6
CONTINUOUS
10
74.4552499999999924
20
-75.406251999999995
11
74.4552499999999924
21
-64.2937479999999937
0
LINE
8
BLACK
6
CONTINUOUS
10
74.4552499999999924
20
-64.2937479999999937
11
74.4543049999999909
21
-64.2853649999999988
0
LINE
8
BLACK
6
CONTINUOUS
10
74.4543049999999909
20
-64.2853649999999988
11
74.4542789999999997
21
-64.285065000000003
0
LINE
8
BLACK
6
CONTINUOUS
10
74.4542789999999997
20
-64.285065000000003
11
74.4538440000000037
21
-64.2811999999999983
0
LINE
8
BLACK
6
CONTINUOUS
10
74.4538440000000037
20
-64.2811999999999983
11
74.4537499999999994
21
-64.2795339999999982
0
LINE
8
BLACK
6
CONTINUOUS
10
74.4537499999999994
20
-64.2795339999999982
11
74.4537499999999994
21
-63.5
0
LINE
8
BLACK
6
CONTINUOUS
10
74.4537499999999994
20
-63.5
11
73.977499999999992
21
-63.0237499999999997
0
LINE
8
BLACK
6
CONTINUOUS
10
73.977499999999992
20
-63.0237499999999997
11
71.769874999999999
21
-63.0237499999999997
0
LINE
8
BLACK
6
CONTINUOUS
10
71.769874999999999
20
-63.0237499999999997
11
71.7549999999999955
21
-63.0237499999999997
0
LINE
8
BLACK
6
CONTINUOUS
10
71.7549999999999955
20
-63.0237499999999997
11
71.7549999999999955
21
-61.1187499999999986
0
LINE
8
BLACK
6
CONTINUOUS
10
71.7549999999999955
20
-61.1187499999999986
11
68.5948750000000018
21
-61.1187499999999986
0
LINE
8
BLACK
6
CONTINUOUS
10
68.5948750000000018
20
-61.1187499999999986
11
68.5799999999999983
21
-61.1187499999999986
0
LINE
8
BLACK
6
CONTINUOUS
10
68.5799999999999983
20
-61.1187499999999986
11
68.5799999999999983
21
-59.2137499999999974
0
LINE
8
BLACK
6
CONTINUOUS
10
68.5799999999999983
20
-59.2137499999999974
11
70.8024999999999949
21
-59.2137499999999974
0
LINE
8
BLACK
6
CONTINUOUS
10
70.8024999999999949
20
-59.2137499999999974
11
72.3900000000000006
21
-59.2137499999999974
0
LINE
8
BLACK
6
CONTINUOUS
10
72.3900000000000006
20
-59.2137499999999974
11
72.3900000000000006
21
-58.8962489999999974
0
LINE
8
BLACK
6
CONTINUOUS
10
72.3900000000000006
20
-58.8962489999999974
11
73.6599999999999966
21
-58.8962489999999974
0
LINE
8
BLACK
6
CONTINUOUS
10
73.6599999999999966
20
-58.8962489999999974
11
73.6599999999999966
21
-59.215992
0
LINE
8
BLACK
6
CONTINUOUS
10
58.5787499999999994
20
-60.1684920000000005
11
58.5821499999999986
21
-60.1697299999999942
0
LINE
8
BLACK
6
CONTINUOUS
10
58.5821499999999986
20
-60.1697299999999942
11
58.5831069999999983
21
-60.1706069999999968
0
LINE
8
BLACK
6
CONTINUOUS
10
58.5831069999999983
20
-60.1706069999999968
11
60.166249999999998
21
-61.7537499999999966
0
LINE
8
BLACK
6
CONTINUOUS
10
60.166249999999998
20
-61.7537499999999966
11
60.9599999999999937
21
-61.7537499999999966
0
LINE
8
BLACK
6
CONTINUOUS
10
60.9599999999999937
20
-61.7537499999999966
11
63.1824999999999974
21
-61.7537499999999966
0
LINE
8
BLACK
6
CONTINUOUS
10
63.1824999999999974
20
-61.7537499999999966
11
63.1824999999999974
21
-63.6587499999999977
0
LINE
8
BLACK
6
CONTINUOUS
10
63.1824999999999974
20
-63.6587499999999977
11
63.1676249999999939
21
-63.6587499999999977
0
LINE
8
BLACK
6
CONTINUOUS
10
63.1676249999999939
20
-63.6587499999999977
11
60.9661609999999996
21
-63.6587499999999977
0
LINE
8
BLACK
6
CONTINUOUS
10
60.9661609999999996
20
-63.6587499999999977
11
60.9599999999999937
21
-63.6587499999999977
0
LINE
8
BLACK
6
CONTINUOUS
10
60.9599999999999937
20
-63.6587499999999977
11
60.9599999999999937
21
-63.6565069999999977
0
LINE
8
BLACK
6
CONTINUOUS
10
60.9599999999999937
20
-63.6565069999999977
11
60.9565999999999946
21
-63.6552699999999945
0
LINE
8
BLACK
6
CONTINUOUS
10
60.9565999999999946
20
-63.6552699999999945
11
60.9556429999999949
21
-63.6543929999999989
0
LINE
8
BLACK
6
CONTINUOUS
10
60.9556429999999949
20
-63.6543929999999989
11
60.0075000000000003
21
-62.7062499999999972
0
LINE
8
BLACK
6
CONTINUOUS
10
60.0075000000000003
20
-62.7062499999999972
11
59.8628939999999972
21
-62.7062499999999972
0
LINE
8
BLACK
6
CONTINUOUS
10
59.8628939999999972
20
-62.7062499999999972
11
59.861227999999997
21
-62.706156
0
LINE
8
BLACK
6
CONTINUOUS
10
59.861227999999997
20
-62.706156
11
59.8487519999999975
21
-62.7047499999999971
0
LINE
8
BLACK
6
CONTINUOUS
10
59.8487519999999975
20
-62.7047499999999971
11
59.8487499999999955
21
-62.7047499999999971
0
LINE
8
BLACK
6
CONTINUOUS
10
59.8487499999999955
20
-62.7047499999999971
11
59.0549999999999997
21
-62.7047499999999971
0
LINE
8
BLACK
6
CONTINUOUS
10
59.0549999999999997
20
-62.7047499999999971
11
59.0370579999999947
21
-62.7057579999999959
0
LINE
8
BLACK
6
CONTINUOUS
10
59.0370579999999947
20
-62.7057579999999959
11
59.0370539999999977
21
-62.7057579999999959
0
LINE
8
BLACK
6
CONTINUOUS
10
59.0370539999999977
20
-62.7057579999999959
11
59.0370519999999956
21
-62.7057590000000005
0
LINE
8
BLACK
6
CONTINUOUS
10
59.0370519999999956
20
-62.7057590000000005
11
59.0370509999999982
21
-62.7057590000000005
0
LINE
8
BLACK
6
CONTINUOUS
10
59.0370509999999982
20
-62.7057590000000005
11
59.0365359999999981
21
-62.7058769999999939
0
LINE
8
BLACK
6
CONTINUOUS
10
59.0365359999999981
20
-62.7058769999999939
11
59.033227999999994
21
-62.7062499999999972
0
LINE
8
BLACK
6
CONTINUOUS
10
59.033227999999994
20
-62.7062499999999972
11
58.5787499999999994
21
-62.7062499999999972
0
LINE
8
BLACK
6
CONTINUOUS
10
58.5787499999999994
20
-62.7062499999999972
11
58.5787499999999994
21
-62.7062509999999946
0
LINE
8
BLACK
6
CONTINUOUS
10
58.5787499999999994
20
-62.7062509999999946
11
57.3087499999999963
21
-62.7062509999999946
0
LINE
8
BLACK
6
CONTINUOUS
10
57.3087499999999963
20
-62.7062509999999946
11
57.3087499999999963
21
-61.7537509999999941
0
LINE
8
BLACK
6
CONTINUOUS
10
57.3087499999999963
20
-61.7537509999999941
11
57.3087499999999963
21
-61.118748999999994
0
LINE
8
BLACK
6
CONTINUOUS
10
57.3087499999999963
20
-61.118748999999994
11
57.3087499999999963
21
-60.1662490000000005
0
LINE
8
BLACK
6
CONTINUOUS
10
57.3087499999999963
20
-60.1662490000000005
11
58.5787499999999994
21
-60.1662490000000005
0
LINE
8
BLACK
6
CONTINUOUS
10
58.5787499999999994
20
-60.1662490000000005
11
58.5787499999999994
21
-60.1684920000000005
0
LINE
8
BLACK
6
CONTINUOUS
10
59.059899999999999
20
-54.6149799999999956
11
59.0608569999999986
21
-54.6158569999999983
0
LINE
8
BLACK
6
CONTINUOUS
10
59.0608569999999986
20
-54.6158569999999983
11
60.3206429999999969
21
-55.8756429999999966
0
LINE
8
BLACK
6
CONTINUOUS
10
60.3206429999999969
20
-55.8756429999999966
11
60.3249429999999975
21
-55.8848649999999978
0
LINE
8
BLACK
6
CONTINUOUS
10
60.3249429999999975
20
-55.8848649999999978
11
60.3249999999999957
21
-55.8861609999999942
0
LINE
8
BLACK
6
CONTINUOUS
10
60.3249999999999957
20
-55.8861609999999942
11
60.3249999999999957
21
-58.7374999999999972
0
LINE
8
BLACK
6
CONTINUOUS
10
60.3249999999999957
20
-58.7374999999999972
11
60.801249999999996
21
-59.2137499999999974
0
LINE
8
BLACK
6
CONTINUOUS
10
60.801249999999996
20
-59.2137499999999974
11
60.9599999999999937
21
-59.2137499999999974
0
LINE
8
BLACK
6
CONTINUOUS
10
60.9599999999999937
20
-59.2137499999999974
11
63.1824999999999974
21
-59.2137499999999974
0
LINE
8
BLACK
6
CONTINUOUS
10
63.1824999999999974
20
-59.2137499999999974
11
63.1824999999999974
21
-61.1187499999999986
0
LINE
8
BLACK
6
CONTINUOUS
10
63.1824999999999974
20
-61.1187499999999986
11
63.1676249999999939
21
-61.1187499999999986
0
LINE
8
BLACK
6
CONTINUOUS
10
63.1676249999999939
20
-61.1187499999999986
11
60.9661609999999996
21
-61.1187499999999986
0
LINE
8
BLACK
6
CONTINUOUS
10
60.9661609999999996
20
-61.1187499999999986
11
60.9599999999999937
21
-61.1187499999999986
0
LINE
8
BLACK
6
CONTINUOUS
10
60.9599999999999937
20
-61.1187499999999986
11
60.9599999999999937
21
-61.1165069999999986
0
LINE
8
BLACK
6
CONTINUOUS
10
60.9599999999999937
20
-61.1165069999999986
11
60.9565999999999946
21
-61.1152699999999953
0
LINE
8
BLACK
6
CONTINUOUS
10
60.9565999999999946
20
-61.1152699999999953
11
60.9556429999999949
21
-61.1143929999999997
0
LINE
8
BLACK
6
CONTINUOUS
10
60.9556429999999949
20
-61.1143929999999997
11
59.3783569999999941
21
-59.5371069999999989
0
LINE
8
BLACK
6
CONTINUOUS
10
59.3783569999999941
20
-59.5371069999999989
11
59.3740570000000005
21
-59.5278849999999977
0
LINE
8
BLACK
6
CONTINUOUS
10
59.3740570000000005
20
-59.5278849999999977
11
59.3739999999999952
21
-59.5265889999999942
0
LINE
8
BLACK
6
CONTINUOUS
10
59.3739999999999952
20
-59.5265889999999942
11
59.3739999999999952
21
-56.3562629999999984
0
LINE
8
BLACK
6
CONTINUOUS
10
59.3739999999999952
20
-56.3562629999999984
11
59.3739999999999952
21
-56.3562499999999957
0
LINE
8
BLACK
6
CONTINUOUS
10
59.3739999999999952
20
-56.3562499999999957
11
59.3729919999999964
21
-56.3383079999999978
0
LINE
8
BLACK
6
CONTINUOUS
10
59.3729919999999964
20
-56.3383079999999978
11
59.3728729999999985
21
-56.3377859999999941
0
LINE
8
BLACK
6
CONTINUOUS
10
59.3728729999999985
20
-56.3377859999999941
11
59.3724999999999952
21
-56.3344779999999972
0
LINE
8
BLACK
6
CONTINUOUS
10
59.3724999999999952
20
-56.3344779999999972
11
59.3724999999999952
21
-56.0387500000000003
0
LINE
8
BLACK
6
CONTINUOUS
10
59.3724999999999952
20
-56.0387500000000003
11
58.7374999999999972
21
-55.4037499999999952
0
LINE
8
BLACK
6
CONTINUOUS
10
58.7374999999999972
20
-55.4037499999999952
11
53.498749999999994
21
-55.4037499999999952
0
LINE
8
BLACK
6
CONTINUOUS
10
53.498749999999994
20
-55.4037499999999952
11
53.1812499999999986
21
-55.7212499999999977
0
LINE
8
BLACK
6
CONTINUOUS
10
53.1812499999999986
20
-55.7212499999999977
11
53.1812509999999961
21
-55.7212499999999977
0
LINE
8
BLACK
6
CONTINUOUS
10
53.1812509999999961
20
-55.7212499999999977
11
53.1812509999999961
21
-56.9912500000000009
0
LINE
8
BLACK
6
CONTINUOUS
10
53.1812509999999961
20
-56.9912500000000009
11
53.1812499999999986
21
-56.9912500000000009
0
LINE
8
BLACK
6
CONTINUOUS
10
53.1812499999999986
20
-56.9912500000000009
11
54.1293930000000003
21
-57.9393929999999955
0
LINE
8
BLACK
6
CONTINUOUS
10
54.1293930000000003
20
-57.9393929999999955
11
54.1314250000000001
21
-57.9437499999999943
0
LINE
8
BLACK
6
CONTINUOUS
10
54.1314250000000001
20
-57.9437499999999943
11
54.1337499999999991
21
-57.9437499999999943
0
LINE
8
BLACK
6
CONTINUOUS
10
54.1337499999999991
20
-57.9437499999999943
11
54.1337499999999991
21
-59.2137499999999974
0
LINE
8
BLACK
6
CONTINUOUS
10
54.1337499999999991
20
-59.2137499999999974
11
53.498749999999994
21
-59.2137499999999974
0
LINE
8
BLACK
6
CONTINUOUS
10
53.498749999999994
20
-59.2137499999999974
11
52.5462500000000006
21
-59.2137499999999974
0
LINE
8
BLACK
6
CONTINUOUS
10
52.5462500000000006
20
-59.2137499999999974
11
52.2436249999999944
21
-59.2137499999999974
0
LINE
8
BLACK
6
CONTINUOUS
10
52.2436249999999944
20
-59.2137499999999974
11
52.228749999999998
21
-59.2137499999999974
0
LINE
8
BLACK
6
CONTINUOUS
10
52.228749999999998
20
-59.2137499999999974
11
52.228749999999998
21
-57.9437499999999943
0
LINE
8
BLACK
6
CONTINUOUS
10
52.228749999999998
20
-57.9437499999999943
11
52.228749999999998
21
-55.409911000000001
0
LINE
8
BLACK
6
CONTINUOUS
10
52.228749999999998
20
-55.409911000000001
11
52.2322299999999942
21
-55.400349999999996
0
LINE
8
BLACK
6
CONTINUOUS
10
52.2322299999999942
20
-55.400349999999996
11
52.2331069999999968
21
-55.3993929999999963
0
LINE
8
BLACK
6
CONTINUOUS
10
52.2331069999999968
20
-55.3993929999999963
11
53.0166429999999949
21
-54.6158569999999983
0
LINE
8
BLACK
6
CONTINUOUS
10
53.0166429999999949
20
-54.6158569999999983
11
53.025864999999996
21
-54.6115569999999977
0
LINE
8
BLACK
6
CONTINUOUS
10
53.025864999999996
20
-54.6115569999999977
11
53.0271609999999995
21
-54.6114999999999995
0
LINE
8
BLACK
6
CONTINUOUS
10
53.0271609999999995
20
-54.6114999999999995
11
59.0503389999999939
21
-54.6114999999999995
0
LINE
8
BLACK
6
CONTINUOUS
10
59.0503389999999939
20
-54.6114999999999995
11
59.059899999999999
21
-54.6149799999999956
0
LINE
8
BLACK
6
CONTINUOUS
10
65.2462500000000034
20
-54.4676249999999982
11
65.2462500000000034
21
-56.8263389999999973
0
LINE
8
BLACK
6
CONTINUOUS
10
65.2462500000000034
20
-56.8263389999999973
11
65.242769999999993
21
-56.8358999999999952
0
LINE
8
BLACK
6
CONTINUOUS
10
65.242769999999993
20
-56.8358999999999952
11
65.2418929999999904
21
-56.8368569999999949
0
LINE
8
BLACK
6
CONTINUOUS
10
65.2418929999999904
20
-56.8368569999999949
11
63.5043569999999988
21
-58.5743930000000006
0
LINE
8
BLACK
6
CONTINUOUS
10
63.5043569999999988
20
-58.5743930000000006
11
63.4951349999999977
21
-58.5786929999999941
0
LINE
8
BLACK
6
CONTINUOUS
10
63.4951349999999977
20
-58.5786929999999941
11
63.4938389999999941
21
-58.5787499999999994
0
LINE
8
BLACK
6
CONTINUOUS
10
63.4938389999999941
20
-58.5787499999999994
11
60.9748749999999973
21
-58.5787499999999994
0
LINE
8
BLACK
6
CONTINUOUS
10
60.9748749999999973
20
-58.5787499999999994
11
60.9599999999999937
21
-58.5787499999999994
0
LINE
8
BLACK
6
CONTINUOUS
10
60.9599999999999937
20
-58.5787499999999994
11
60.9599999999999937
21
-56.6737499999999983
0
LINE
8
BLACK
6
CONTINUOUS
10
60.9599999999999937
20
-56.6737499999999983
11
63.1824999999999974
21
-56.6737499999999983
0
LINE
8
BLACK
6
CONTINUOUS
10
63.1824999999999974
20
-56.6737499999999983
11
63.5
21
-56.6737499999999983
0
LINE
8
BLACK
6
CONTINUOUS
10
63.5
20
-56.6737499999999983
11
64.2937500000000028
21
-55.8799999999999955
0
LINE
8
BLACK
6
CONTINUOUS
10
64.2937500000000028
20
-55.8799999999999955
11
64.2937500000000028
21
-55.7212499999999977
0
LINE
8
BLACK
6
CONTINUOUS
10
64.2937500000000028
20
-55.7212499999999977
11
64.2937500000000028
21
-54.4512499999999946
0
LINE
8
BLACK
6
CONTINUOUS
10
64.2937500000000028
20
-54.4512499999999946
11
65.2462500000000034
21
-54.4512499999999946
0
LINE
8
BLACK
6
CONTINUOUS
10
65.2462500000000034
20
-54.4512499999999946
11
65.2462500000000034
21
-54.4676249999999982
0
LINE
8
BLACK
6
CONTINUOUS
10
76.3587500000000006
20
-58.4199999999999946
11
71.4375
21
-58.4199999999999946
0
LINE
8
BLACK
6
CONTINUOUS
10
71.4375
20
-58.4199999999999946
11
71.2787500000000023
21
-58.2612499999999969
0
LINE
8
BLACK
6
CONTINUOUS
10
71.2787500000000023
20
-58.2612499999999969
11
71.2787500000000023
21
-56.3562499999999957
0
LINE
8
BLACK
6
CONTINUOUS
10
71.2787500000000023
20
-56.3562499999999957
11
71.1199999999999903
21
-56.197499999999998
0
LINE
8
BLACK
6
CONTINUOUS
10
71.1199999999999903
20
-56.197499999999998
11
68.1037499999999909
21
-56.197499999999998
0
LINE
8
BLACK
6
CONTINUOUS
10
68.1037499999999909
20
-56.197499999999998
11
67.9449999999999932
21
-56.0387500000000003
0
LINE
8
BLACK
6
CONTINUOUS
10
67.9449999999999932
20
-56.0387500000000003
11
67.9449999999999932
21
-54.4512499999999946
0
LINE
8
BLACK
6
CONTINUOUS
10
67.9449999999999932
20
-54.4512499999999946
11
67.7862499999999955
21
-54.2924999999999969
0
LINE
8
BLACK
6
CONTINUOUS
10
67.7862499999999955
20
-54.2924999999999969
11
66.198750000000004
21
-54.2924999999999969
0
LINE
8
BLACK
6
CONTINUOUS
10
66.198750000000004
20
-54.2924999999999969
11
66.039999999999992
21
-54.4512499999999946
0
LINE
8
BLACK
6
CONTINUOUS
10
66.039999999999992
20
-54.4512499999999946
11
66.039999999999992
21
-56.6737499999999983
0
LINE
8
BLACK
6
CONTINUOUS
10
66.039999999999992
20
-56.6737499999999983
11
68.1037499999999909
21
-58.7374999999999972
0
LINE
8
BLACK
6
CONTINUOUS
10
68.1037499999999909
20
-58.7374999999999972
11
68.1037499999999909
21
-61.436249999999994
0
LINE
8
BLACK
6
CONTINUOUS
10
68.1037499999999909
20
-61.436249999999994
11
67.9449999999999932
21
-61.5949999999999989
0
LINE
8
BLACK
6
CONTINUOUS
10
67.9449999999999932
20
-61.5949999999999989
11
66.6749999999999972
21
-61.5949999999999989
0
LINE
8
BLACK
6
CONTINUOUS
10
66.6749999999999972
20
-61.5949999999999989
11
64.769999999999996
21
-63.5
0
LINE
8
BLACK
6
CONTINUOUS
10
64.769999999999996
20
-63.5
11
64.769999999999996
21
-67.6274999999999977
0
LINE
8
BLACK
6
CONTINUOUS
10
64.769999999999996
20
-67.6274999999999977
11
64.4525000000000006
21
-67.9449999999999932
0
LINE
8
BLACK
6
CONTINUOUS
10
64.4525000000000006
20
-67.9449999999999932
11
59.2137499999999974
21
-67.9449999999999932
0
LINE
8
BLACK
6
CONTINUOUS
10
59.2137499999999974
20
-67.9449999999999932
11
59.0549999999999997
21
-67.7862499999999955
0
LINE
8
BLACK
6
CONTINUOUS
10
59.0549999999999997
20
-67.7862499999999955
11
59.0549999999999997
21
-63.6587499999999977
0
LINE
8
BLACK
6
CONTINUOUS
10
59.0549999999999997
20
-63.6587499999999977
11
58.8962499999999949
21
-63.5
0
LINE
8
BLACK
6
CONTINUOUS
10
58.8962499999999949
20
-63.5
11
56.832499999999996
21
-63.5
0
LINE
8
BLACK
6
CONTINUOUS
10
56.832499999999996
20
-63.5
11
56.6737499999999983
21
-63.6587499999999977
0
LINE
8
BLACK
6
CONTINUOUS
10
56.6737499999999983
20
-63.6587499999999977
11
56.6737499999999983
21
-67.7862499999999955
0
LINE
8
BLACK
6
CONTINUOUS
10
56.6737499999999983
20
-67.7862499999999955
11
56.0387500000000003
21
-68.4212500000000006
0
LINE
8
BLACK
6
CONTINUOUS
10
56.0387500000000003
20
-68.4212500000000006
11
56.0387500000000003
21
-69.3737270000000024
0
LINE
8
BLACK
6
CONTINUOUS
10
56.0387500000000003
20
-69.3737270000000024
11
56.0387509999999978
21
-69.3737500000000011
0
LINE
8
BLACK
6
CONTINUOUS
10
56.0387509999999978
20
-69.3737500000000011
11
56.0387500000000003
21
-69.3737720000000024
0
LINE
8
BLACK
6
CONTINUOUS
10
56.0387500000000003
20
-69.3737720000000024
11
56.0387500000000003
21
-73.0249999999999915
0
LINE
8
BLACK
6
CONTINUOUS
10
56.0387500000000003
20
-73.0249999999999915
11
56.3562499999999957
21
-73.3425000000000011
0
LINE
8
BLACK
6
CONTINUOUS
10
56.3562499999999957
20
-73.3425000000000011
11
60.801249999999996
21
-73.3425000000000011
0
LINE
8
BLACK
6
CONTINUOUS
10
60.801249999999996
20
-73.3425000000000011
11
63.6587499999999977
21
-70.4849999999999994
0
LINE
8
BLACK
6
CONTINUOUS
10
63.6587499999999977
20
-70.4849999999999994
11
65.0874999999999915
21
-70.4849999999999994
0
LINE
8
BLACK
6
CONTINUOUS
10
65.0874999999999915
20
-70.4849999999999994
11
66.9924999999999926
21
-68.5799999999999983
0
LINE
8
BLACK
6
CONTINUOUS
10
66.9924999999999926
20
-68.5799999999999983
11
66.9924999999999926
21
-64.4525000000000006
0
LINE
8
BLACK
6
CONTINUOUS
10
66.9924999999999926
20
-64.4525000000000006
11
67.46875
21
-63.9762500000000003
0
LINE
8
BLACK
6
CONTINUOUS
10
67.46875
20
-63.9762500000000003
11
68.1037499999999909
21
-63.9762500000000003
0
LINE
8
BLACK
6
CONTINUOUS
10
68.1037499999999909
20
-63.9762500000000003
11
68.4212500000000006
21
-64.2937500000000028
0
LINE
8
BLACK
6
CONTINUOUS
10
68.4212500000000006
20
-64.2937500000000028
11
68.5799999999999983
21
-64.2937500000000028
0
LINE
8
BLACK
6
CONTINUOUS
10
68.5799999999999983
20
-64.2937500000000028
11
70.8024999999999949
21
-64.2937500000000028
0
LINE
8
BLACK
6
CONTINUOUS
10
70.8024999999999949
20
-64.2937500000000028
11
71.7549999999999955
21
-64.2937500000000028
0
LINE
8
BLACK
6
CONTINUOUS
10
71.7549999999999955
20
-64.2937500000000028
11
74.2950000000000017
21
-64.2937500000000028
0
LINE
8
BLACK
6
CONTINUOUS
10
74.2950000000000017
20
-64.2937500000000028
11
74.2950000000000017
21
-73.3425000000000011
0
LINE
8
BLACK
6
CONTINUOUS
10
74.2950000000000017
20
-73.3425000000000011
11
74.2950000000000017
21
-75.40625
0
LINE
8
BLACK
6
CONTINUOUS
10
74.2950000000000017
20
-75.40625
11
73.0249999999999915
21
-76.676249999999996
0
LINE
8
BLACK
6
CONTINUOUS
10
73.0249999999999915
20
-76.676249999999996
11
54.9274999999999949
21
-76.676249999999996
0
LINE
8
BLACK
6
CONTINUOUS
10
54.9274999999999949
20
-76.676249999999996
11
54.1337499999999991
21
-75.8824999999999932
0
LINE
8
BLACK
6
CONTINUOUS
10
54.1337499999999991
20
-75.8824999999999932
11
54.1337499999999991
21
-68.4212500000000006
0
LINE
8
BLACK
6
CONTINUOUS
10
54.1337499999999991
20
-68.4212500000000006
11
53.8162499999999966
21
-68.1037499999999909
0
LINE
8
BLACK
6
CONTINUOUS
10
53.8162499999999966
20
-68.1037499999999909
11
53.8162499999999966
21
-65.7224999999999966
0
LINE
8
BLACK
6
CONTINUOUS
10
53.8162499999999966
20
-65.7224999999999966
11
53.498749999999994
21
-65.2462500000000034
0
LINE
8
BLACK
6
CONTINUOUS
10
53.498749999999994
20
-65.2462500000000034
11
53.498749999999994
21
-63.6587499999999977
0
LINE
8
BLACK
6
CONTINUOUS
10
53.498749999999994
20
-63.6587499999999977
11
54.1337499999999991
21
-63.6587499999999977
0
LINE
8
BLACK
6
CONTINUOUS
10
54.1337499999999991
20
-63.6587499999999977
11
54.1337499999999991
21
-65.2462500000000034
0
LINE
8
BLACK
6
CONTINUOUS
10
54.1337499999999991
20
-65.2462500000000034
11
54.2924999999999969
21
-65.4050000000000011
0
LINE
8
BLACK
6
CONTINUOUS
10
54.2924999999999969
20
-65.4050000000000011
11
55.8799999999999955
21
-65.4050000000000011
0
LINE
8
BLACK
6
CONTINUOUS
10
55.8799999999999955
20
-65.4050000000000011
11
56.0387500000000003
21
-65.2462500000000034
0
LINE
8
BLACK
6
CONTINUOUS
10
56.0387500000000003
20
-65.2462500000000034
11
56.0387500000000003
21
-62.7062499999999972
0
LINE
8
BLACK
6
CONTINUOUS
10
56.0387500000000003
20
-62.7062499999999972
11
55.4037499999999952
21
-62.0712499999999991
0
LINE
8
BLACK
6
CONTINUOUS
10
55.4037499999999952
20
-62.0712499999999991
11
52.7049999999999983
21
-62.0712499999999991
0
LINE
8
BLACK
6
CONTINUOUS
10
52.7049999999999983
20
-62.0712499999999991
11
51.4349999999999952
21
-62.0712499999999991
0
LINE
8
BLACK
6
CONTINUOUS
10
51.4349999999999952
20
-62.0712499999999991
11
51.2762499999999974
21
-61.9124999999999943
0
LINE
8
BLACK
6
CONTINUOUS
10
51.2762499999999974
20
-61.9124999999999943
11
51.2762499999999974
21
-53.8162499999999966
0
LINE
8
BLACK
6
CONTINUOUS
10
51.2762499999999974
20
-53.8162499999999966
11
76.3587500000000006
21
-53.8162499999999966
0
LINE
8
BLACK
6
CONTINUOUS
10
76.3587500000000006
20
-53.8162499999999966
11
76.3587500000000006
21
-58.4199999999999946
0
LINE
8
BLACK
6
CONTINUOUS
10
63.8174999999999955
20
-54.4512499999999946
11
63.8174999999999955
21
-56.0387500000000003
0
LINE
8
BLACK
6
CONTINUOUS
10
63.8174999999999955
20
-56.0387500000000003
11
63.6587499999999977
21
-56.197499999999998
0
LINE
8
BLACK
6
CONTINUOUS
10
63.6587499999999977
20
-56.197499999999998
11
60.9599999999999937
21
-56.197499999999998
0
LINE
8
BLACK
6
CONTINUOUS
10
60.9599999999999937
20
-56.197499999999998
11
59.2137499999999974
21
-54.4512499999999946
0
LINE
8
BLACK
6
CONTINUOUS
10
59.2137499999999974
20
-54.4512499999999946
11
52.5462500000000006
21
-54.4512499999999946
0
LINE
8
BLACK
6
CONTINUOUS
10
52.5462500000000006
20
-54.4512499999999946
11
51.7524999999999977
21
-55.2449999999999974
0
LINE
8
BLACK
6
CONTINUOUS
10
51.7524999999999977
20
-55.2449999999999974
11
51.7524999999999977
21
-59.53125
0
LINE
8
BLACK
6
CONTINUOUS
10
51.7524999999999977
20
-59.53125
11
51.9112499999999955
21
-59.6899999999999977
0
LINE
8
BLACK
6
CONTINUOUS
10
51.9112499999999955
20
-59.6899999999999977
11
54.6099999999999994
21
-59.6899999999999977
0
LINE
8
BLACK
6
CONTINUOUS
10
54.6099999999999994
20
-59.6899999999999977
11
54.7687499999999972
21
-59.53125
0
LINE
8
BLACK
6
CONTINUOUS
10
54.7687499999999972
20
-59.53125
11
54.7687499999999972
21
-57.7849999999999966
0
LINE
8
BLACK
6
CONTINUOUS
10
54.7687499999999972
20
-57.7849999999999966
11
54.4512499999999946
21
-57.467499999999994
0
LINE
8
BLACK
6
CONTINUOUS
10
54.4512499999999946
20
-57.467499999999994
11
54.4512499999999946
21
-56.9912500000000009
0
LINE
8
BLACK
6
CONTINUOUS
10
54.4512499999999946
20
-56.9912500000000009
11
54.4512489999999971
21
-56.9912500000000009
0
LINE
8
BLACK
6
CONTINUOUS
10
54.4512489999999971
20
-56.9912500000000009
11
54.4512489999999971
21
-55.7212499999999977
0
LINE
8
BLACK
6
CONTINUOUS
10
54.4512489999999971
20
-55.7212499999999977
11
55.4037489999999977
21
-55.7212499999999977
0
LINE
8
BLACK
6
CONTINUOUS
10
55.4037489999999977
20
-55.7212499999999977
11
58.5787499999999994
21
-55.7212499999999977
0
LINE
8
BLACK
6
CONTINUOUS
10
58.5787499999999994
20
-55.7212499999999977
11
59.2137499999999974
21
-56.3562499999999957
0
LINE
8
BLACK
6
CONTINUOUS
10
59.2137499999999974
20
-56.3562499999999957
11
59.2137499999999974
21
-59.53125
0
LINE
8
BLACK
6
CONTINUOUS
10
59.2137499999999974
20
-59.53125
11
59.0549999999999997
21
-59.6899999999999977
0
LINE
8
BLACK
6
CONTINUOUS
10
59.0549999999999997
20
-59.6899999999999977
11
56.9912500000000009
21
-59.6899999999999977
0
LINE
8
BLACK
6
CONTINUOUS
10
56.9912500000000009
20
-59.6899999999999977
11
56.832499999999996
21
-59.8487499999999955
0
LINE
8
BLACK
6
CONTINUOUS
10
56.832499999999996
20
-59.8487499999999955
11
56.832499999999996
21
-63.0237499999999997
0
LINE
8
BLACK
6
CONTINUOUS
10
56.832499999999996
20
-63.0237499999999997
11
56.9912500000000009
21
-63.1824999999999974
0
LINE
8
BLACK
6
CONTINUOUS
10
56.9912500000000009
20
-63.1824999999999974
11
58.7374999999999972
21
-63.1824999999999974
0
LINE
8
BLACK
6
CONTINUOUS
10
58.7374999999999972
20
-63.1824999999999974
11
59.0549999999999997
21
-62.8649999999999949
0
LINE
8
BLACK
6
CONTINUOUS
10
59.0549999999999997
20
-62.8649999999999949
11
59.8487499999999955
21
-62.8649999999999949
0
LINE
8
BLACK
6
CONTINUOUS
10
59.8487499999999955
20
-62.8649999999999949
11
60.4837500000000006
21
-63.5
0
LINE
8
BLACK
6
CONTINUOUS
10
60.4837500000000006
20
-63.5
11
60.4837500000000006
21
-63.9762500000000003
0
LINE
8
BLACK
6
CONTINUOUS
10
60.4837500000000006
20
-63.9762500000000003
11
60.801249999999996
21
-64.2937500000000028
0
LINE
8
BLACK
6
CONTINUOUS
10
60.801249999999996
20
-64.2937500000000028
11
63.5
21
-64.2937500000000028
0
LINE
8
BLACK
6
CONTINUOUS
10
63.5
20
-64.2937500000000028
11
63.6587499999999977
21
-64.1349999999999909
0
LINE
8
BLACK
6
CONTINUOUS
10
63.6587499999999977
20
-64.1349999999999909
11
63.6587499999999977
21
-58.7374999999999972
0
LINE
8
BLACK
6
CONTINUOUS
10
63.6587499999999977
20
-58.7374999999999972
11
65.7224999999999966
21
-56.6737499999999983
0
LINE
8
BLACK
6
CONTINUOUS
10
65.7224999999999966
20
-56.6737499999999983
11
65.7224999999999966
21
-54.4512499999999946
0
LINE
8
BLACK
6
CONTINUOUS
10
65.7224999999999966
20
-54.4512499999999946
11
65.5637499999999989
21
-54.2924999999999969
0
LINE
8
BLACK
6
CONTINUOUS
10
65.5637499999999989
20
-54.2924999999999969
11
63.9762500000000003
21
-54.2924999999999969
0
LINE
8
BLACK
6
CONTINUOUS
10
63.9762500000000003
20
-54.2924999999999969
11
63.8174999999999955
21
-54.4512499999999946
0
LINE
8
BLACK
6
CONTINUOUS
10
58.5787499999999994
20
-63.9911249999999967
11
58.5787499999999994
21
-71.8988749999999897
0
LINE
8
BLACK
6
CONTINUOUS
10
58.5787499999999994
20
-71.8988749999999897
11
58.5781549999999953
21
-71.9005080000000021
0
LINE
8
BLACK
6
CONTINUOUS
10
58.5781549999999953
20
-71.9005080000000021
11
58.5787499999999994
21
-71.9137499999999932
0
LINE
8
BLACK
6
CONTINUOUS
10
58.5787499999999994
20
-71.9137499999999932
11
58.5749159999999947
21
-71.9991309999999913
0
LINE
8
BLACK
6
CONTINUOUS
10
58.5749159999999947
20
-71.9991309999999913
11
58.5634429999999995
21
-72.0838249999999903
0
LINE
8
BLACK
6
CONTINUOUS
10
58.5634429999999995
20
-72.0838249999999903
11
58.5444249999999968
21
-72.1671499999999924
0
LINE
8
BLACK
6
CONTINUOUS
10
58.5444249999999968
20
-72.1671499999999924
11
58.5180140000000009
21
-72.2484350000000006
0
LINE
8
BLACK
6
CONTINUOUS
10
58.5180140000000009
20
-72.2484350000000006
11
58.4844229999999996
21
-72.3270239999999944
0
LINE
8
BLACK
6
CONTINUOUS
10
58.4844229999999996
20
-72.3270239999999944
11
58.4439220000000006
21
-72.4022870000000012
0
LINE
8
BLACK
6
CONTINUOUS
10
58.4439220000000006
20
-72.4022870000000012
11
58.3968389999999999
21
-72.4736149999999952
0
LINE
8
BLACK
6
CONTINUOUS
10
58.3968389999999999
20
-72.4736149999999952
11
58.3435509999999979
21
-72.5404369999999972
0
LINE
8
BLACK
6
CONTINUOUS
10
58.3435509999999979
20
-72.5404369999999972
11
58.2844869999999986
21
-72.6022119999999944
0
LINE
8
BLACK
6
CONTINUOUS
10
58.2844869999999986
20
-72.6022119999999944
11
58.2201239999999984
21
-72.6584440000000029
0
LINE
8
BLACK
6
CONTINUOUS
10
58.2201239999999984
20
-72.6584440000000029
11
58.1509789999999995
21
-72.7086809999999986
0
LINE
8
BLACK
6
CONTINUOUS
10
58.1509789999999995
20
-72.7086809999999986
11
58.07761
21
-72.7525169999999974
0
LINE
8
BLACK
6
CONTINUOUS
10
58.07761
20
-72.7525169999999974
11
58.0006059999999977
21
-72.789599999999993
0
LINE
8
BLACK
6
CONTINUOUS
10
58.0006059999999977
20
-72.789599999999993
11
57.9205889999999997
21
-72.8196310000000011
0
LINE
8
BLACK
6
CONTINUOUS
10
57.9205889999999997
20
-72.8196310000000011
11
57.838200999999998
21
-72.8423689999999908
0
LINE
8
BLACK
6
CONTINUOUS
10
57.838200999999998
20
-72.8423689999999908
11
57.7541069999999976
21
-72.8576300000000003
0
LINE
8
BLACK
6
CONTINUOUS
10
57.7541069999999976
20
-72.8576300000000003
11
57.6689839999999947
21
-72.8652909999999991
0
LINE
8
BLACK
6
CONTINUOUS
10
57.6689839999999947
20
-72.8652909999999991
11
57.5835159999999959
21
-72.8652909999999991
0
LINE
8
BLACK
6
CONTINUOUS
10
57.5835159999999959
20
-72.8652909999999991
11
57.4983930000000001
21
-72.8576300000000003
0
LINE
8
BLACK
6
CONTINUOUS
10
57.4983930000000001
20
-72.8576300000000003
11
57.4142989999999998
21
-72.8423689999999908
0
LINE
8
BLACK
6
CONTINUOUS
10
57.4142989999999998
20
-72.8423689999999908
11
57.3319109999999981
21
-72.8196310000000011
0
LINE
8
BLACK
6
CONTINUOUS
10
57.3319109999999981
20
-72.8196310000000011
11
57.2518940000000001
21
-72.789599999999993
0
LINE
8
BLACK
6
CONTINUOUS
10
57.2518940000000001
20
-72.789599999999993
11
57.1748899999999978
21
-72.7525169999999974
0
LINE
8
BLACK
6
CONTINUOUS
10
57.1748899999999978
20
-72.7525169999999974
11
57.1015209999999982
21
-72.7086809999999986
0
LINE
8
BLACK
6
CONTINUOUS
10
57.1015209999999982
20
-72.7086809999999986
11
57.0323759999999993
21
-72.6584440000000029
0
LINE
8
BLACK
6
CONTINUOUS
10
57.0323759999999993
20
-72.6584440000000029
11
56.9680129999999991
21
-72.6022119999999944
0
LINE
8
BLACK
6
CONTINUOUS
10
56.9680129999999991
20
-72.6022119999999944
11
56.9089489999999998
21
-72.5404369999999972
0
LINE
8
BLACK
6
CONTINUOUS
10
56.9089489999999998
20
-72.5404369999999972
11
56.8556609999999978
21
-72.4736149999999952
0
LINE
8
BLACK
6
CONTINUOUS
10
56.8556609999999978
20
-72.4736149999999952
11
56.8085779999999971
21
-72.4022870000000012
0
LINE
8
BLACK
6
CONTINUOUS
10
56.8085779999999971
20
-72.4022870000000012
11
56.7680769999999981
21
-72.3270239999999944
0
LINE
8
BLACK
6
CONTINUOUS
10
56.7680769999999981
20
-72.3270239999999944
11
56.7344859999999969
21
-72.2484350000000006
0
LINE
8
BLACK
6
CONTINUOUS
10
56.7344859999999969
20
-72.2484350000000006
11
56.7080750000000009
21
-72.1671499999999924
0
LINE
8
BLACK
6
CONTINUOUS
10
56.7080750000000009
20
-72.1671499999999924
11
56.6890569999999983
21
-72.0838249999999903
0
LINE
8
BLACK
6
CONTINUOUS
10
56.6890569999999983
20
-72.0838249999999903
11
56.677583999999996
21
-71.9991309999999913
0
LINE
8
BLACK
6
CONTINUOUS
10
56.677583999999996
20
-71.9991309999999913
11
56.6737499999999983
21
-71.9137499999999932
0
LINE
8
BLACK
6
CONTINUOUS
10
56.6737499999999983
20
-71.9137499999999932
11
56.6742779999999939
21
-71.9019809999999922
0
LINE
8
BLACK
6
CONTINUOUS
10
56.6742779999999939
20
-71.9019809999999922
11
56.6739759999999961
21
-71.901457999999991
0
LINE
8
BLACK
6
CONTINUOUS
10
56.6739759999999961
20
-71.901457999999991
11
56.6737499999999983
21
-71.8988749999999897
0
LINE
8
BLACK
6
CONTINUOUS
10
56.6737499999999983
20
-71.8988749999999897
11
56.6737499999999983
21
-69.3886249999999905
0
LINE
8
BLACK
6
CONTINUOUS
10
56.6737499999999983
20
-69.3886249999999905
11
56.6743439999999978
21
-69.3869909999999948
0
LINE
8
BLACK
6
CONTINUOUS
10
56.6743439999999978
20
-69.3869909999999948
11
56.6737499999999983
21
-69.3737500000000011
0
LINE
8
BLACK
6
CONTINUOUS
10
56.6737499999999983
20
-69.3737500000000011
11
56.677583999999996
21
-69.288369000000003
0
LINE
8
BLACK
6
CONTINUOUS
10
56.677583999999996
20
-69.288369000000003
11
56.6890569999999983
21
-69.2036749999999898
0
LINE
8
BLACK
6
CONTINUOUS
10
56.6890569999999983
20
-69.2036749999999898
11
56.7080750000000009
21
-69.120350000000002
0
LINE
8
BLACK
6
CONTINUOUS
10
56.7080750000000009
20
-69.120350000000002
11
56.7344859999999969
21
-69.0390649999999937
0
LINE
8
BLACK
6
CONTINUOUS
10
56.7344859999999969
20
-69.0390649999999937
11
56.7680769999999981
21
-68.9604759999999999
0
LINE
8
BLACK
6
CONTINUOUS
10
56.7680769999999981
20
-68.9604759999999999
11
56.8085779999999971
21
-68.8852129999999931
0
LINE
8
BLACK
6
CONTINUOUS
10
56.8085779999999971
20
-68.8852129999999931
11
56.8556609999999978
21
-68.8138849999999991
0
LINE
8
BLACK
6
CONTINUOUS
10
56.8556609999999978
20
-68.8138849999999991
11
56.9089489999999998
21
-68.7470629999999971
0
LINE
8
BLACK
6
CONTINUOUS
10
56.9089489999999998
20
-68.7470629999999971
11
56.9680129999999991
21
-68.6852879999999999
0
LINE
8
BLACK
6
CONTINUOUS
10
56.9680129999999991
20
-68.6852879999999999
11
57.0323759999999993
21
-68.6290559999999914
0
LINE
8
BLACK
6
CONTINUOUS
10
57.0323759999999993
20
-68.6290559999999914
11
57.1015209999999982
21
-68.5788189999999958
0
LINE
8
BLACK
6
CONTINUOUS
10
57.1015209999999982
20
-68.5788189999999958
11
57.1748899999999978
21
-68.5349829999999969
0
LINE
8
BLACK
6
CONTINUOUS
10
57.1748899999999978
20
-68.5349829999999969
11
57.2518940000000001
21
-68.4979000000000013
0
LINE
8
BLACK
6
CONTINUOUS
10
57.2518940000000001
20
-68.4979000000000013
11
57.3087499999999963
21
-68.4765610000000038
0
LINE
8
BLACK
6
CONTINUOUS
10
57.3087499999999963
20
-68.4765610000000038
11
57.3087499999999963
21
-64.9287489999999963
0
LINE
8
BLACK
6
CONTINUOUS
10
57.3087499999999963
20
-64.9287489999999963
11
57.3087499999999963
21
-63.9762489999999957
0
LINE
8
BLACK
6
CONTINUOUS
10
57.3087499999999963
20
-63.9762489999999957
11
58.5787499999999994
21
-63.9762489999999957
0
LINE
8
BLACK
6
CONTINUOUS
10
58.5787499999999994
20
-63.9762489999999957
11
58.5787499999999994
21
-63.9911249999999967
0
LINE
8
BLACK
6
CONTINUOUS
10
70.6288749999999936
20
-61.7537499999999966
11
70.8024999999999949
21
-61.7537499999999966
0
LINE
8
BLACK
6
CONTINUOUS
10
70.8024999999999949
20
-61.7537499999999966
11
70.8024999999999949
21
-63.6587499999999977
0
LINE
8
BLACK
6
CONTINUOUS
10
70.8024999999999949
20
-63.6587499999999977
11
70.6288749999999936
21
-63.6587499999999977
0
LINE
8
BLACK
6
CONTINUOUS
10
70.6288749999999936
20
-63.6587499999999977
11
67.46875
21
-63.6587499999999977
0
LINE
8
BLACK
6
CONTINUOUS
10
67.46875
20
-63.6587499999999977
11
66.8337499999999949
21
-64.2937500000000028
0
LINE
8
BLACK
6
CONTINUOUS
10
66.8337499999999949
20
-64.2937500000000028
11
66.8337499999999949
21
-64.4383559999999989
0
LINE
8
BLACK
6
CONTINUOUS
10
66.8337499999999949
20
-64.4383559999999989
11
66.8336559999999906
21
-64.440021999999999
0
LINE
8
BLACK
6
CONTINUOUS
10
66.8336559999999906
20
-64.440021999999999
11
66.8322500000000019
21
-64.4524969999999939
0
LINE
8
BLACK
6
CONTINUOUS
10
66.8322500000000019
20
-64.4524969999999939
11
66.8322500000000019
21
-68.4165890000000019
0
LINE
8
BLACK
6
CONTINUOUS
10
66.8322500000000019
20
-68.4165890000000019
11
66.8287699999999916
21
-68.4261499999999927
0
LINE
8
BLACK
6
CONTINUOUS
10
66.8287699999999916
20
-68.4261499999999927
11
66.8278930000000031
21
-68.4271069999999924
0
LINE
8
BLACK
6
CONTINUOUS
10
66.8278930000000031
20
-68.4271069999999924
11
64.9346069999999997
21
-70.3203929999999957
0
LINE
8
BLACK
6
CONTINUOUS
10
64.9346069999999997
20
-70.3203929999999957
11
64.9253849999999915
21
-70.3246929999999963
0
LINE
8
BLACK
6
CONTINUOUS
10
64.9253849999999915
20
-70.3246929999999963
11
64.9240889999999951
21
-70.3247499999999945
0
LINE
8
BLACK
6
CONTINUOUS
10
64.9240889999999951
20
-70.3247499999999945
11
63.6587499999999977
21
-70.3247499999999945
0
LINE
8
BLACK
6
CONTINUOUS
10
63.6587499999999977
20
-70.3247499999999945
11
63.6408079999999998
21
-70.3257579999999933
0
LINE
8
BLACK
6
CONTINUOUS
10
63.6408079999999998
20
-70.3257579999999933
11
63.6408039999999957
21
-70.3257579999999933
0
LINE
8
BLACK
6
CONTINUOUS
10
63.6408039999999957
20
-70.3257579999999933
11
63.6408019999999937
21
-70.3257589999999908
0
LINE
8
BLACK
6
CONTINUOUS
10
63.6408019999999937
20
-70.3257589999999908
11
63.6408009999999962
21
-70.3257589999999908
0
LINE
8
BLACK
6
CONTINUOUS
10
63.6408009999999962
20
-70.3257589999999908
11
63.6402859999999961
21
-70.3258769999999913
0
LINE
8
BLACK
6
CONTINUOUS
10
63.6402859999999961
20
-70.3258769999999913
11
63.6369779999999992
21
-70.3262500000000017
0
LINE
8
BLACK
6
CONTINUOUS
10
63.6369779999999992
20
-70.3262500000000017
11
61.1187499999999986
21
-70.3262500000000017
0
LINE
8
BLACK
6
CONTINUOUS
10
61.1187499999999986
20
-70.3262500000000017
11
61.1187499999999986
21
-71.8988749999999897
0
LINE
8
BLACK
6
CONTINUOUS
10
61.1187499999999986
20
-71.8988749999999897
11
61.1181549999999945
21
-71.9005080000000021
0
LINE
8
BLACK
6
CONTINUOUS
10
61.1181549999999945
20
-71.9005080000000021
11
61.1187499999999986
21
-71.9137499999999932
0
LINE
8
BLACK
6
CONTINUOUS
10
61.1187499999999986
20
-71.9137499999999932
11
61.1149159999999938
21
-71.9991309999999913
0
LINE
8
BLACK
6
CONTINUOUS
10
61.1149159999999938
20
-71.9991309999999913
11
61.1034429999999986
21
-72.0838249999999903
0
LINE
8
BLACK
6
CONTINUOUS
10
61.1034429999999986
20
-72.0838249999999903
11
61.084424999999996
21
-72.1671499999999924
0
LINE
8
BLACK
6
CONTINUOUS
10
61.084424999999996
20
-72.1671499999999924
11
61.058014
21
-72.2484350000000006
0
LINE
8
BLACK
6
CONTINUOUS
10
61.058014
20
-72.2484350000000006
11
61.0244229999999988
21
-72.3270239999999944
0
LINE
8
BLACK
6
CONTINUOUS
10
61.0244229999999988
20
-72.3270239999999944
11
60.9839219999999997
21
-72.4022870000000012
0
LINE
8
BLACK
6
CONTINUOUS
10
60.9839219999999997
20
-72.4022870000000012
11
60.9368389999999991
21
-72.4736149999999952
0
LINE
8
BLACK
6
CONTINUOUS
10
60.9368389999999991
20
-72.4736149999999952
11
60.8835509999999971
21
-72.5404369999999972
0
LINE
8
BLACK
6
CONTINUOUS
10
60.8835509999999971
20
-72.5404369999999972
11
60.8244869999999977
21
-72.6022119999999944
0
LINE
8
BLACK
6
CONTINUOUS
10
60.8244869999999977
20
-72.6022119999999944
11
60.7601239999999976
21
-72.6584440000000029
0
LINE
8
BLACK
6
CONTINUOUS
10
60.7601239999999976
20
-72.6584440000000029
11
60.6909789999999987
21
-72.7086809999999986
0
LINE
8
BLACK
6
CONTINUOUS
10
60.6909789999999987
20
-72.7086809999999986
11
60.6176099999999991
21
-72.7525169999999974
0
LINE
8
BLACK
6
CONTINUOUS
10
60.6176099999999991
20
-72.7525169999999974
11
60.5406059999999968
21
-72.789599999999993
0
LINE
8
BLACK
6
CONTINUOUS
10
60.5406059999999968
20
-72.789599999999993
11
60.4605889999999988
21
-72.8196310000000011
0
LINE
8
BLACK
6
CONTINUOUS
10
60.4605889999999988
20
-72.8196310000000011
11
60.3782009999999971
21
-72.8423689999999908
0
LINE
8
BLACK
6
CONTINUOUS
10
60.3782009999999971
20
-72.8423689999999908
11
60.2941069999999968
21
-72.8576300000000003
0
LINE
8
BLACK
6
CONTINUOUS
10
60.2941069999999968
20
-72.8576300000000003
11
60.2089839999999938
21
-72.8652909999999991
0
LINE
8
BLACK
6
CONTINUOUS
10
60.2089839999999938
20
-72.8652909999999991
11
60.1235159999999951
21
-72.8652909999999991
0
LINE
8
BLACK
6
CONTINUOUS
10
60.1235159999999951
20
-72.8652909999999991
11
60.0383929999999992
21
-72.8576300000000003
0
LINE
8
BLACK
6
CONTINUOUS
10
60.0383929999999992
20
-72.8576300000000003
11
59.9542989999999989
21
-72.8423689999999908
0
LINE
8
BLACK
6
CONTINUOUS
10
59.9542989999999989
20
-72.8423689999999908
11
59.8719109999999972
21
-72.8196310000000011
0
LINE
8
BLACK
6
CONTINUOUS
10
59.8719109999999972
20
-72.8196310000000011
11
59.7918939999999992
21
-72.789599999999993
0
LINE
8
BLACK
6
CONTINUOUS
10
59.7918939999999992
20
-72.789599999999993
11
59.7148899999999969
21
-72.7525169999999974
0
LINE
8
BLACK
6
CONTINUOUS
10
59.7148899999999969
20
-72.7525169999999974
11
59.6415209999999973
21
-72.7086809999999986
0
LINE
8
BLACK
6
CONTINUOUS
10
59.6415209999999973
20
-72.7086809999999986
11
59.5723759999999984
21
-72.6584440000000029
0
LINE
8
BLACK
6
CONTINUOUS
10
59.5723759999999984
20
-72.6584440000000029
11
59.5080129999999983
21
-72.6022119999999944
0
LINE
8
BLACK
6
CONTINUOUS
10
59.5080129999999983
20
-72.6022119999999944
11
59.4489489999999989
21
-72.5404369999999972
0
LINE
8
BLACK
6
CONTINUOUS
10
59.4489489999999989
20
-72.5404369999999972
11
59.3956609999999969
21
-72.4736149999999952
0
LINE
8
BLACK
6
CONTINUOUS
10
59.3956609999999969
20
-72.4736149999999952
11
59.3485779999999963
21
-72.4022870000000012
0
LINE
8
BLACK
6
CONTINUOUS
10
59.3485779999999963
20
-72.4022870000000012
11
59.3080769999999973
21
-72.3270239999999944
0
LINE
8
BLACK
6
CONTINUOUS
10
59.3080769999999973
20
-72.3270239999999944
11
59.274485999999996
21
-72.2484350000000006
0
LINE
8
BLACK
6
CONTINUOUS
10
59.274485999999996
20
-72.2484350000000006
11
59.248075
21
-72.1671499999999924
0
LINE
8
BLACK
6
CONTINUOUS
10
59.248075
20
-72.1671499999999924
11
59.2290569999999974
21
-72.0838249999999903
0
LINE
8
BLACK
6
CONTINUOUS
10
59.2290569999999974
20
-72.0838249999999903
11
59.2175839999999951
21
-71.9991309999999913
0
LINE
8
BLACK
6
CONTINUOUS
10
59.2175839999999951
20
-71.9991309999999913
11
59.2137499999999974
21
-71.9137499999999932
0
LINE
8
BLACK
6
CONTINUOUS
10
59.2137499999999974
20
-71.9137499999999932
11
59.2142780000000002
21
-71.9019809999999922
0
LINE
8
BLACK
6
CONTINUOUS
10
59.2142780000000002
20
-71.9019809999999922
11
59.2139759999999953
21
-71.901457999999991
0
LINE
8
BLACK
6
CONTINUOUS
10
59.2139759999999953
20
-71.901457999999991
11
59.2137499999999974
21
-71.8988749999999897
0
LINE
8
BLACK
6
CONTINUOUS
10
59.2137499999999974
20
-71.8988749999999897
11
59.2137499999999974
21
-69.3886249999999905
0
LINE
8
BLACK
6
CONTINUOUS
10
59.2137499999999974
20
-69.3886249999999905
11
59.214343999999997
21
-69.3869909999999948
0
LINE
8
BLACK
6
CONTINUOUS
10
59.214343999999997
20
-69.3869909999999948
11
59.2137499999999974
21
-69.3737500000000011
0
LINE
8
BLACK
6
CONTINUOUS
10
59.2137499999999974
20
-69.3737500000000011
11
59.2175839999999951
21
-69.288369000000003
0
LINE
8
BLACK
6
CONTINUOUS
10
59.2175839999999951
20
-69.288369000000003
11
59.2290569999999974
21
-69.2036749999999898
0
LINE
8
BLACK
6
CONTINUOUS
10
59.2290569999999974
20
-69.2036749999999898
11
59.248075
21
-69.120350000000002
0
LINE
8
BLACK
6
CONTINUOUS
10
59.248075
20
-69.120350000000002
11
59.274485999999996
21
-69.0390649999999937
0
LINE
8
BLACK
6
CONTINUOUS
10
59.274485999999996
20
-69.0390649999999937
11
59.3080769999999973
21
-68.9604759999999999
0
LINE
8
BLACK
6
CONTINUOUS
10
59.3080769999999973
20
-68.9604759999999999
11
59.3485779999999963
21
-68.8852129999999931
0
LINE
8
BLACK
6
CONTINUOUS
10
59.3485779999999963
20
-68.8852129999999931
11
59.3956609999999969
21
-68.8138849999999991
0
LINE
8
BLACK
6
CONTINUOUS
10
59.3956609999999969
20
-68.8138849999999991
11
59.4489489999999989
21
-68.7470629999999971
0
LINE
8
BLACK
6
CONTINUOUS
10
59.4489489999999989
20
-68.7470629999999971
11
59.5080129999999983
21
-68.6852879999999999
0
LINE
8
BLACK
6
CONTINUOUS
10
59.5080129999999983
20
-68.6852879999999999
11
59.5723759999999984
21
-68.6290559999999914
0
LINE
8
BLACK
6
CONTINUOUS
10
59.5723759999999984
20
-68.6290559999999914
11
59.6415209999999973
21
-68.5788189999999958
0
LINE
8
BLACK
6
CONTINUOUS
10
59.6415209999999973
20
-68.5788189999999958
11
59.7148899999999969
21
-68.5349829999999969
0
LINE
8
BLACK
6
CONTINUOUS
10
59.7148899999999969
20
-68.5349829999999969
11
59.7918939999999992
21
-68.4979000000000013
0
LINE
8
BLACK
6
CONTINUOUS
10
59.7918939999999992
20
-68.4979000000000013
11
59.8719109999999972
21
-68.4678689999999932
0
LINE
8
BLACK
6
CONTINUOUS
10
59.8719109999999972
20
-68.4678689999999932
11
59.9542989999999989
21
-68.4451310000000035
0
LINE
8
BLACK
6
CONTINUOUS
10
59.9542989999999989
20
-68.4451310000000035
11
60.0383929999999992
21
-68.429869999999994
0
LINE
8
BLACK
6
CONTINUOUS
10
60.0383929999999992
20
-68.429869999999994
11
60.1235159999999951
21
-68.4222089999999952
0
LINE
8
BLACK
6
CONTINUOUS
10
60.1235159999999951
20
-68.4222089999999952
11
60.1772729999999996
21
-68.4222089999999952
0
LINE
8
BLACK
6
CONTINUOUS
10
60.1772729999999996
20
-68.4222089999999952
11
60.1785420000000002
21
-68.4214759999999984
0
LINE
8
BLACK
6
CONTINUOUS
10
60.1785420000000002
20
-68.4214759999999984
11
60.1811249999999944
21
-68.4212500000000006
0
LINE
8
BLACK
6
CONTINUOUS
10
60.1811249999999944
20
-68.4212500000000006
11
64.2937500000000028
21
-68.4212500000000006
0
LINE
8
BLACK
6
CONTINUOUS
10
64.2937500000000028
20
-68.4212500000000006
11
64.9287499999999937
21
-67.7862499999999955
0
LINE
8
BLACK
6
CONTINUOUS
10
64.9287499999999937
20
-67.7862499999999955
11
64.9287499999999937
21
-67.641643000000002
0
LINE
8
BLACK
6
CONTINUOUS
10
64.9287499999999937
20
-67.641643000000002
11
64.928843999999998
21
-67.6399770000000018
0
LINE
8
BLACK
6
CONTINUOUS
10
64.928843999999998
20
-67.6399770000000018
11
64.9302500000000009
21
-67.6275019999999927
0
LINE
8
BLACK
6
CONTINUOUS
10
64.9302500000000009
20
-67.6275019999999927
11
64.9302500000000009
21
-63.6634109999999964
0
LINE
8
BLACK
6
CONTINUOUS
10
64.9302500000000009
20
-63.6634109999999964
11
64.9337299999999971
21
-63.6538499999999985
0
LINE
8
BLACK
6
CONTINUOUS
10
64.9337299999999971
20
-63.6538499999999985
11
64.9346069999999997
21
-63.6528929999999988
0
LINE
8
BLACK
6
CONTINUOUS
10
64.9346069999999997
20
-63.6528929999999988
11
66.8278930000000031
21
-61.7596069999999955
0
LINE
8
BLACK
6
CONTINUOUS
10
66.8278930000000031
20
-61.7596069999999955
11
66.8371149999999972
21
-61.7553069999999948
0
LINE
8
BLACK
6
CONTINUOUS
10
66.8371149999999972
20
-61.7553069999999948
11
66.8384109999999936
21
-61.7552499999999966
0
LINE
8
BLACK
6
CONTINUOUS
10
66.8384109999999936
20
-61.7552499999999966
11
67.9449869999999976
21
-61.7552499999999966
0
LINE
8
BLACK
6
CONTINUOUS
10
67.9449869999999976
20
-61.7552499999999966
11
67.9449999999999932
21
-61.7552499999999966
0
LINE
8
BLACK
6
CONTINUOUS
10
67.9449999999999932
20
-61.7552499999999966
11
67.9629419999999982
21
-61.7542419999999979
0
LINE
8
BLACK
6
CONTINUOUS
10
67.9629419999999982
20
-61.7542419999999979
11
67.9633690000000001
21
-61.7541439999999966
0
LINE
8
BLACK
6
CONTINUOUS
10
67.9633690000000001
20
-61.7541439999999966
11
67.9634640000000019
21
-61.7541229999999999
0
LINE
8
BLACK
6
CONTINUOUS
10
67.9634640000000019
20
-61.7541229999999999
11
67.9667719999999917
21
-61.7537499999999966
0
LINE
8
BLACK
6
CONTINUOUS
10
67.9667719999999917
20
-61.7537499999999966
11
70.6288749999999936
21
-61.7537499999999966
0
LINE
8
BLACK
6
CONTINUOUS
10
67.46875
20
-54.4676249999999982
11
67.46875
21
-55.8799999999999955
0
LINE
8
BLACK
6
CONTINUOUS
10
67.46875
20
-55.8799999999999955
11
68.2625000000000028
21
-56.6737499999999983
0
LINE
8
BLACK
6
CONTINUOUS
10
68.2625000000000028
20
-56.6737499999999983
11
68.5799999999999983
21
-56.6737499999999983
0
LINE
8
BLACK
6
CONTINUOUS
10
68.5799999999999983
20
-56.6737499999999983
11
70.8024999999999949
21
-56.6737499999999983
0
LINE
8
BLACK
6
CONTINUOUS
10
70.8024999999999949
20
-56.6737499999999983
11
70.8024999999999949
21
-58.5787499999999994
0
LINE
8
BLACK
6
CONTINUOUS
10
70.8024999999999949
20
-58.5787499999999994
11
68.5799999999999983
21
-58.5787499999999994
0
LINE
8
BLACK
6
CONTINUOUS
10
68.5799999999999983
20
-58.5787499999999994
11
68.2686609999999945
21
-58.5787499999999994
0
LINE
8
BLACK
6
CONTINUOUS
10
68.2686609999999945
20
-58.5787499999999994
11
68.2591000000000037
21
-58.5752699999999962
0
LINE
8
BLACK
6
CONTINUOUS
10
68.2591000000000037
20
-58.5752699999999962
11
68.258143000000004
21
-58.5743930000000006
0
LINE
8
BLACK
6
CONTINUOUS
10
68.258143000000004
20
-58.5743930000000006
11
66.5206069999999983
21
-56.8368569999999949
0
LINE
8
BLACK
6
CONTINUOUS
10
66.5206069999999983
20
-56.8368569999999949
11
66.5163069999999976
21
-56.8276350000000008
0
LINE
8
BLACK
6
CONTINUOUS
10
66.5163069999999976
20
-56.8276350000000008
11
66.5162499999999994
21
-56.8263389999999973
0
LINE
8
BLACK
6
CONTINUOUS
10
66.5162499999999994
20
-56.8263389999999973
11
66.5162499999999994
21
-55.7212499999999977
0
LINE
8
BLACK
6
CONTINUOUS
10
66.5162499999999994
20
-55.7212499999999977
11
66.5162499999999994
21
-54.4512499999999946
0
LINE
8
BLACK
6
CONTINUOUS
10
66.5162499999999994
20
-54.4512499999999946
11
67.46875
21
-54.4512499999999946
0
LINE
8
BLACK
6
CONTINUOUS
10
67.46875
20
-54.4512499999999946
11
67.46875
21
-54.4676249999999982
0
LINE
8
BLACK
6
CONTINUOUS
10
65.9380319999999926
20
-74.755242999999993
11
65.973124999999996
21
-74.770867999999993
0
LINE
8
BLACK
6
CONTINUOUS
10
65.973124999999996
20
-74.770867999999993
11
66.004203000000004
21
-74.7934470000000005
0
LINE
8
BLACK
6
CONTINUOUS
10
66.004203000000004
20
-74.7934470000000005
11
66.0299069999999944
21
-74.8219940000000037
0
LINE
8
BLACK
6
CONTINUOUS
10
66.0299069999999944
20
-74.8219940000000037
11
66.049114000000003
21
-74.8552619999999962
0
LINE
8
BLACK
6
CONTINUOUS
10
66.049114000000003
20
-74.8552619999999962
11
66.0609850000000023
21
-74.8917959999999994
0
LINE
8
BLACK
6
CONTINUOUS
10
66.0609850000000023
20
-74.8917959999999994
11
66.0649999999999977
21
-74.9299999999999926
0
LINE
8
BLACK
6
CONTINUOUS
10
66.0649999999999977
20
-74.9299999999999926
11
66.0609850000000023
21
-74.9682040000000001
0
LINE
8
BLACK
6
CONTINUOUS
10
66.0609850000000023
20
-74.9682040000000001
11
66.049114000000003
21
-75.0047380000000032
0
LINE
8
BLACK
6
CONTINUOUS
10
66.049114000000003
20
-75.0047380000000032
11
66.0299069999999944
21
-75.0380059999999958
0
LINE
8
BLACK
6
CONTINUOUS
10
66.0299069999999944
20
-75.0380059999999958
11
66.004203000000004
21
-75.066552999999999
0
LINE
8
BLACK
6
CONTINUOUS
10
66.004203000000004
20
-75.066552999999999
11
65.973124999999996
21
-75.0891319999999922
0
LINE
8
BLACK
6
CONTINUOUS
10
65.973124999999996
20
-75.0891319999999922
11
65.9380319999999926
21
-75.1047569999999922
0
LINE
8
BLACK
6
CONTINUOUS
10
65.9380319999999926
20
-75.1047569999999922
11
65.9004570000000029
21
-75.1127429999999947
0
LINE
8
BLACK
6
CONTINUOUS
10
65.9004570000000029
20
-75.1127429999999947
11
65.8620429999999999
21
-75.1127429999999947
0
LINE
8
BLACK
6
CONTINUOUS
10
65.8620429999999999
20
-75.1127429999999947
11
65.824467999999996
21
-75.1047569999999922
0
LINE
8
BLACK
6
CONTINUOUS
10
65.824467999999996
20
-75.1047569999999922
11
65.7893749999999926
21
-75.0891319999999922
0
LINE
8
BLACK
6
CONTINUOUS
10
65.7893749999999926
20
-75.0891319999999922
11
65.7582969999999989
21
-75.066552999999999
0
LINE
8
BLACK
6
CONTINUOUS
10
65.7582969999999989
20
-75.066552999999999
11
65.7325929999999943
21
-75.0380059999999958
0
LINE
8
BLACK
6
CONTINUOUS
10
65.7325929999999943
20
-75.0380059999999958
11
65.7133859999999999
21
-75.0047380000000032
0
LINE
8
BLACK
6
CONTINUOUS
10
65.7133859999999999
20
-75.0047380000000032
11
65.7015150000000006
21
-74.9682040000000001
0
LINE
8
BLACK
6
CONTINUOUS
10
65.7015150000000006
20
-74.9682040000000001
11
65.6974999999999909
21
-74.9299999999999926
0
LINE
8
BLACK
6
CONTINUOUS
10
65.6974999999999909
20
-74.9299999999999926
11
65.7015150000000006
21
-74.8917959999999994
0
LINE
8
BLACK
6
CONTINUOUS
10
65.7015150000000006
20
-74.8917959999999994
11
65.7133859999999999
21
-74.8552619999999962
0
LINE
8
BLACK
6
CONTINUOUS
10
65.7133859999999999
20
-74.8552619999999962
11
65.7325929999999943
21
-74.8219940000000037
0
LINE
8
BLACK
6
CONTINUOUS
10
65.7325929999999943
20
-74.8219940000000037
11
65.7582969999999989
21
-74.7934470000000005
0
LINE
8
BLACK
6
CONTINUOUS
10
65.7582969999999989
20
-74.7934470000000005
11
65.7893749999999926
21
-74.770867999999993
0
LINE
8
BLACK
6
CONTINUOUS
10
65.7893749999999926
20
-74.770867999999993
11
65.824467999999996
21
-74.755242999999993
0
LINE
8
BLACK
6
CONTINUOUS
10
65.824467999999996
20
-74.755242999999993
11
65.8620429999999999
21
-74.7472569999999905
0
LINE
8
BLACK
6
CONTINUOUS
10
65.8620429999999999
20
-74.7472569999999905
11
65.9004570000000029
21
-74.7472569999999905
0
LINE
8
BLACK
6
CONTINUOUS
10
65.9004570000000029
20
-74.7472569999999905
11
65.9380319999999926
21
-74.755242999999993
0
LINE
8
BLACK
6
CONTINUOUS
10
65.750433000000001
20
-74.9622430000000008
11
65.7619509999999963
21
-74.9926129999999915
0
LINE
8
BLACK
6
CONTINUOUS
10
65.7619509999999963
20
-74.9926129999999915
11
65.7804019999999952
21
-75.0193439999999896
0
LINE
8
BLACK
6
CONTINUOUS
10
65.7804019999999952
20
-75.0193439999999896
11
65.8047139999999899
21
-75.0408819999999963
0
LINE
8
BLACK
6
CONTINUOUS
10
65.8047139999999899
20
-75.0408819999999963
11
65.8334729999999979
21
-75.0559769999999986
0
LINE
8
BLACK
6
CONTINUOUS
10
65.8334729999999979
20
-75.0559769999999986
11
65.8650099999999981
21
-75.0637499999999989
0
LINE
8
BLACK
6
CONTINUOUS
10
65.8650099999999981
20
-75.0637499999999989
11
65.8974899999999906
21
-75.0637499999999989
0
LINE
8
BLACK
6
CONTINUOUS
10
65.8974899999999906
20
-75.0637499999999989
11
65.9290269999999907
21
-75.0559769999999986
0
LINE
8
BLACK
6
CONTINUOUS
10
65.9290269999999907
20
-75.0559769999999986
11
65.9577859999999987
21
-75.0408819999999963
0
LINE
8
BLACK
6
CONTINUOUS
10
65.9577859999999987
20
-75.0408819999999963
11
65.9820979999999935
21
-75.0193439999999896
0
LINE
8
BLACK
6
CONTINUOUS
10
65.9820979999999935
20
-75.0193439999999896
11
66.0005489999999924
21
-74.9926129999999915
0
LINE
8
BLACK
6
CONTINUOUS
10
66.0005489999999924
20
-74.9926129999999915
11
66.0120670000000018
21
-74.9622430000000008
0
LINE
8
BLACK
6
CONTINUOUS
10
66.0120670000000018
20
-74.9622430000000008
11
66.0159819999999939
21
-74.9299999999999926
0
LINE
8
BLACK
6
CONTINUOUS
10
66.0159819999999939
20
-74.9299999999999926
11
66.0120670000000018
21
-74.8977569999999986
0
LINE
8
BLACK
6
CONTINUOUS
10
66.0120670000000018
20
-74.8977569999999986
11
66.0005489999999924
21
-74.8673869999999937
0
LINE
8
BLACK
6
CONTINUOUS
10
66.0005489999999924
20
-74.8673869999999937
11
65.9820979999999935
21
-74.8406559999999956
0
LINE
8
BLACK
6
CONTINUOUS
10
65.9820979999999935
20
-74.8406559999999956
11
65.9577859999999987
21
-74.8191180000000031
0
LINE
8
BLACK
6
CONTINUOUS
10
65.9577859999999987
20
-74.8191180000000031
11
65.9290269999999907
21
-74.8040230000000008
0
LINE
8
BLACK
6
CONTINUOUS
10
65.9290269999999907
20
-74.8040230000000008
11
65.8974899999999906
21
-74.7962500000000006
0
LINE
8
BLACK
6
CONTINUOUS
10
65.8974899999999906
20
-74.7962500000000006
11
65.8650099999999981
21
-74.7962500000000006
0
LINE
8
BLACK
6
CONTINUOUS
10
65.8650099999999981
20
-74.7962500000000006
11
65.8334729999999979
21
-74.8040230000000008
0
LINE
8
BLACK
6
CONTINUOUS
10
65.8334729999999979
20
-74.8040230000000008
11
65.8047139999999899
21
-74.8191180000000031
0
LINE
8
BLACK
6
CONTINUOUS
10
65.8047139999999899
20
-74.8191180000000031
11
65.7804019999999952
21
-74.8406559999999956
0
LINE
8
BLACK
6
CONTINUOUS
10
65.7804019999999952
20
-74.8406559999999956
11
65.7619509999999963
21
-74.8673869999999937
0
LINE
8
BLACK
6
CONTINUOUS
10
65.7619509999999963
20
-74.8673869999999937
11
65.750433000000001
21
-74.8977569999999986
0
LINE
8
BLACK
6
CONTINUOUS
10
65.750433000000001
20
-74.8977569999999986
11
65.7465179999999947
21
-74.9299999999999926
0
LINE
8
BLACK
6
CONTINUOUS
10
65.7465179999999947
20
-74.9299999999999926
11
65.750433000000001
21
-74.9622430000000008
0
LINE
8
BLACK
6
CONTINUOUS
10
72.6055319999999966
20
-74.755242999999993
11
72.640625
21
-74.770867999999993
0
LINE
8
BLACK
6
CONTINUOUS
10
72.640625
20
-74.770867999999993
11
72.6717029999999937
21
-74.7934470000000005
0
LINE
8
BLACK
6
CONTINUOUS
10
72.6717029999999937
20
-74.7934470000000005
11
72.6974069999999983
21
-74.8219940000000037
0
LINE
8
BLACK
6
CONTINUOUS
10
72.6974069999999983
20
-74.8219940000000037
11
72.7166139999999928
21
-74.8552619999999962
0
LINE
8
BLACK
6
CONTINUOUS
10
72.7166139999999928
20
-74.8552619999999962
11
72.7284849999999921
21
-74.8917959999999994
0
LINE
8
BLACK
6
CONTINUOUS
10
72.7284849999999921
20
-74.8917959999999994
11
72.7325000000000017
21
-74.9299999999999926
0
LINE
8
BLACK
6
CONTINUOUS
10
72.7325000000000017
20
-74.9299999999999926
11
72.7284849999999921
21
-74.9682040000000001
0
LINE
8
BLACK
6
CONTINUOUS
10
72.7284849999999921
20
-74.9682040000000001
11
72.7166139999999928
21
-75.0047380000000032
0
LINE
8
BLACK
6
CONTINUOUS
10
72.7166139999999928
20
-75.0047380000000032
11
72.6974069999999983
21
-75.0380059999999958
0
LINE
8
BLACK
6
CONTINUOUS
10
72.6974069999999983
20
-75.0380059999999958
11
72.6717029999999937
21
-75.066552999999999
0
LINE
8
BLACK
6
CONTINUOUS
10
72.6717029999999937
20
-75.066552999999999
11
72.640625
21
-75.0891319999999922
0
LINE
8
BLACK
6
CONTINUOUS
10
72.640625
20
-75.0891319999999922
11
72.6055319999999966
21
-75.1047569999999922
0
LINE
8
BLACK
6
CONTINUOUS
10
72.6055319999999966
20
-75.1047569999999922
11
72.5679569999999927
21
-75.1127429999999947
0
LINE
8
BLACK
6
CONTINUOUS
10
72.5679569999999927
20
-75.1127429999999947
11
72.5295429999999897
21
-75.1127429999999947
0
LINE
8
BLACK
6
CONTINUOUS
10
72.5295429999999897
20
-75.1127429999999947
11
72.491968
21
-75.1047569999999922
0
LINE
8
BLACK
6
CONTINUOUS
10
72.491968
20
-75.1047569999999922
11
72.4568749999999966
21
-75.0891319999999922
0
LINE
8
BLACK
6
CONTINUOUS
10
72.4568749999999966
20
-75.0891319999999922
11
72.4257970000000029
21
-75.066552999999999
0
LINE
8
BLACK
6
CONTINUOUS
10
72.4257970000000029
20
-75.066552999999999
11
72.4000929999999983
21
-75.0380059999999958
0
LINE
8
BLACK
6
CONTINUOUS
10
72.4000929999999983
20
-75.0380059999999958
11
72.3808859999999896
21
-75.0047380000000032
0
LINE
8
BLACK
6
CONTINUOUS
10
72.3808859999999896
20
-75.0047380000000032
11
72.3690149999999903
21
-74.9682040000000001
0
LINE
8
BLACK
6
CONTINUOUS
10
72.3690149999999903
20
-74.9682040000000001
11
72.3649999999999949
21
-74.9299999999999926
0
LINE
8
BLACK
6
CONTINUOUS
10
72.3649999999999949
20
-74.9299999999999926
11
72.3690149999999903
21
-74.8917959999999994
0
LINE
8
BLACK
6
CONTINUOUS
10
72.3690149999999903
20
-74.8917959999999994
11
72.3808859999999896
21
-74.8552619999999962
0
LINE
8
BLACK
6
CONTINUOUS
10
72.3808859999999896
20
-74.8552619999999962
11
72.4000929999999983
21
-74.8219940000000037
0
LINE
8
BLACK
6
CONTINUOUS
10
72.4000929999999983
20
-74.8219940000000037
11
72.4257970000000029
21
-74.7934470000000005
0
LINE
8
BLACK
6
CONTINUOUS
10
72.4257970000000029
20
-74.7934470000000005
11
72.4568749999999966
21
-74.770867999999993
0
LINE
8
BLACK
6
CONTINUOUS
10
72.4568749999999966
20
-74.770867999999993
11
72.491968
21
-74.755242999999993
0
LINE
8
BLACK
6
CONTINUOUS
10
72.491968
20
-74.755242999999993
11
72.5295429999999897
21
-74.7472569999999905
0
LINE
8
BLACK
6
CONTINUOUS
10
72.5295429999999897
20
-74.7472569999999905
11
72.5679569999999927
21
-74.7472569999999905
0
LINE
8
BLACK
6
CONTINUOUS
10
72.5679569999999927
20
-74.7472569999999905
11
72.6055319999999966
21
-74.755242999999993
0
LINE
8
BLACK
6
CONTINUOUS
10
72.4179329999999908
20
-74.9622430000000008
11
72.4294510000000002
21
-74.9926129999999915
0
LINE
8
BLACK
6
CONTINUOUS
10
72.4294510000000002
20
-74.9926129999999915
11
72.4479019999999991
21
-75.0193439999999896
0
LINE
8
BLACK
6
CONTINUOUS
10
72.4479019999999991
20
-75.0193439999999896
11
72.4722139999999939
21
-75.0408819999999963
0
LINE
8
BLACK
6
CONTINUOUS
10
72.4722139999999939
20
-75.0408819999999963
11
72.5009730000000019
21
-75.0559769999999986
0
LINE
8
BLACK
6
CONTINUOUS
10
72.5009730000000019
20
-75.0559769999999986
11
72.532510000000002
21
-75.0637499999999989
0
LINE
8
BLACK
6
CONTINUOUS
10
72.532510000000002
20
-75.0637499999999989
11
72.5649899999999946
21
-75.0637499999999989
0
LINE
8
BLACK
6
CONTINUOUS
10
72.5649899999999946
20
-75.0637499999999989
11
72.5965269999999947
21
-75.0559769999999986
0
LINE
8
BLACK
6
CONTINUOUS
10
72.5965269999999947
20
-75.0559769999999986
11
72.6252860000000027
21
-75.0408819999999963
0
LINE
8
BLACK
6
CONTINUOUS
10
72.6252860000000027
20
-75.0408819999999963
11
72.6495979999999975
21
-75.0193439999999896
0
LINE
8
BLACK
6
CONTINUOUS
10
72.6495979999999975
20
-75.0193439999999896
11
72.6680489999999963
21
-74.9926129999999915
0
LINE
8
BLACK
6
CONTINUOUS
10
72.6680489999999963
20
-74.9926129999999915
11
72.6795669999999916
21
-74.9622430000000008
0
LINE
8
BLACK
6
CONTINUOUS
10
72.6795669999999916
20
-74.9622430000000008
11
72.6834819999999979
21
-74.9299999999999926
0
LINE
8
BLACK
6
CONTINUOUS
10
72.6834819999999979
20
-74.9299999999999926
11
72.6795669999999916
21
-74.8977569999999986
0
LINE
8
BLACK
6
CONTINUOUS
10
72.6795669999999916
20
-74.8977569999999986
11
72.6680489999999963
21
-74.8673869999999937
0
LINE
8
BLACK
6
CONTINUOUS
10
72.6680489999999963
20
-74.8673869999999937
11
72.6495979999999975
21
-74.8406559999999956
0
LINE
8
BLACK
6
CONTINUOUS
10
72.6495979999999975
20
-74.8406559999999956
11
72.6252860000000027
21
-74.8191180000000031
0
LINE
8
BLACK
6
CONTINUOUS
10
72.6252860000000027
20
-74.8191180000000031
11
72.5965269999999947
21
-74.8040230000000008
0
LINE
8
BLACK
6
CONTINUOUS
10
72.5965269999999947
20
-74.8040230000000008
11
72.5649899999999946
21
-74.7962500000000006
0
LINE
8
BLACK
6
CONTINUOUS
10
72.5649899999999946
20
-74.7962500000000006
11
72.532510000000002
21
-74.7962500000000006
0
LINE
8
BLACK
6
CONTINUOUS
10
72.532510000000002
20
-74.7962500000000006
11
72.5009730000000019
21
-74.8040230000000008
0
LINE
8
BLACK
6
CONTINUOUS
10
72.5009730000000019
20
-74.8040230000000008
11
72.4722139999999939
21
-74.8191180000000031
0
LINE
8
BLACK
6
CONTINUOUS
10
72.4722139999999939
20
-74.8191180000000031
11
72.4479019999999991
21
-74.8406559999999956
0
LINE
8
BLACK
6
CONTINUOUS
10
72.4479019999999991
20
-74.8406559999999956
11
72.4294510000000002
21
-74.8673869999999937
0
LINE
8
BLACK
6
CONTINUOUS
10
72.4294510000000002
20
-74.8673869999999937
11
72.4179329999999908
21
-74.8977569999999986
0
LINE
8
BLACK
6
CONTINUOUS
10
72.4179329999999908
20
-74.8977569999999986
11
72.4140179999999987
21
-74.9299999999999926
0
LINE
8
BLACK
6
CONTINUOUS
10
72.4140179999999987
20
-74.9299999999999926
11
72.4179329999999908
21
-74.9622430000000008
0
LINE
8
BLACK
6
CONTINUOUS
10
76.5223769999999917
20
-53.6329799999999963
11
76.5313889999999901
21
-53.6367130000000003
0
LINE
8
BLACK
6
CONTINUOUS
10
76.5313889999999901
20
-53.6367130000000003
11
76.5382869999999969
21
-53.6436109999999999
0
LINE
8
BLACK
6
CONTINUOUS
10
76.5382869999999969
20
-53.6436109999999999
11
76.5420199999999937
21
-53.6526229999999984
0
LINE
8
BLACK
6
CONTINUOUS
10
76.5420199999999937
20
-53.6526229999999984
11
76.5424999999999898
21
-53.6574999999999989
0
LINE
8
BLACK
6
CONTINUOUS
10
76.5424999999999898
20
-53.6574999999999989
11
76.5424999999999898
21
-79.0574999999999903
0
LINE
8
BLACK
6
CONTINUOUS
10
76.5424999999999898
20
-79.0574999999999903
11
76.5420199999999937
21
-79.0623769999999979
0
LINE
8
BLACK
6
CONTINUOUS
10
76.5420199999999937
20
-79.0623769999999979
11
76.5382869999999969
21
-79.0713889999999964
0
LINE
8
BLACK
6
CONTINUOUS
10
76.5382869999999969
20
-79.0713889999999964
11
76.5313889999999901
21
-79.0782870000000031
0
LINE
8
BLACK
6
CONTINUOUS
10
76.5313889999999901
20
-79.0782870000000031
11
76.5223769999999917
21
-79.08202
0
LINE
8
BLACK
6
CONTINUOUS
10
76.5223769999999917
20
-79.08202
11
76.5174999999999983
21
-79.082499999999996
0
LINE
8
BLACK
6
CONTINUOUS
10
76.5174999999999983
20
-79.082499999999996
11
51.1174999999999997
21
-79.082499999999996
0
LINE
8
BLACK
6
CONTINUOUS
10
51.1174999999999997
20
-79.082499999999996
11
51.1126229999999993
21
-79.08202
0
LINE
8
BLACK
6
CONTINUOUS
10
51.1126229999999993
20
-79.08202
11
51.1036110000000008
21
-79.0782870000000031
0
LINE
8
BLACK
6
CONTINUOUS
10
51.1036110000000008
20
-79.0782870000000031
11
51.0967130000000012
21
-79.0713889999999964
0
LINE
8
BLACK
6
CONTINUOUS
10
51.0967130000000012
20
-79.0713889999999964
11
51.0929799999999972
21
-79.0623769999999979
0
LINE
8
BLACK
6
CONTINUOUS
10
51.0929799999999972
20
-79.0623769999999979
11
51.0925000000000011
21
-79.0574999999999903
0
LINE
8
BLACK
6
CONTINUOUS
10
51.0925000000000011
20
-79.0574999999999903
11
51.0925000000000011
21
-53.6574999999999989
0
LINE
8
BLACK
6
CONTINUOUS
10
51.0925000000000011
20
-53.6574999999999989
11
51.0929799999999972
21
-53.6526229999999984
0
LINE
8
BLACK
6
CONTINUOUS
10
51.0929799999999972
20
-53.6526229999999984
11
51.0967130000000012
21
-53.6436109999999999
0
LINE
8
BLACK
6
CONTINUOUS
10
51.0967130000000012
20
-53.6436109999999999
11
51.1036110000000008
21
-53.6367130000000003
0
LINE
8
BLACK
6
CONTINUOUS
10
51.1036110000000008
20
-53.6367130000000003
11
51.1126229999999993
21
-53.6329799999999963
0
LINE
8
BLACK
6
CONTINUOUS
10
51.1126229999999993
20
-53.6329799999999963
11
51.1174999999999997
21
-53.6325000000000003
0
LINE
8
BLACK
6
CONTINUOUS
10
51.1174999999999997
20
-53.6325000000000003
11
76.5174999999999983
21
-53.6325000000000003
0
LINE
8
BLACK
6
CONTINUOUS
10
76.5174999999999983
20
-53.6325000000000003
11
76.5223769999999917
21
-53.6329799999999963
0
LINE
8
BLACK
6
CONTINUOUS
10
51.1424999999999983
20
-53.6824999999999974
11
51.1424999999999983
21
-79.0324999999999989
0
LINE
8
BLACK
6
CONTINUOUS
10
51.1424999999999983
20
-79.0324999999999989
11
76.4924999999999926
21
-79.0324999999999989
0
LINE
8
BLACK
6
CONTINUOUS
10
76.4924999999999926
20
-79.0324999999999989
11
76.4924999999999926
21
-53.6824999999999974
0
LINE
8
BLACK
6
CONTINUOUS
10
76.4924999999999926
20
-53.6824999999999974
11
51.1424999999999983
21
-53.6824999999999974
  0
ENDSEC
  0
EOF
