  0
SECTION
  2
HEADER
  9
$ANGBASE
  50
0.0
  9
$ANGDIR
  70
1
  9
$MEASUREMENT
  70
1
  0
ENDSEC
  0
SECTION
  2
TABLES
  0
TABLE
  2
LTYPE
  70
4
  0
LTYPE
  5
40F
  2
CONTINUOUS
  70
0
  3
Solid line
  72
65
  73
0
  40
0.0
  0
LTYPE
  5
410
  2
DASHDOT
 70
0
  3
Dash Dot ____ _ ____ _
 72
65
 73
4
 40
2.0
 49
1.25
 49
-0.25
 49
0.25
 49
-0.25
  0
LTYPE
  5
411
  2
DASHED
 70
0
  3
Dashed __ __ __ __ __
 72
65
 73
2
 40
0.75
 49
0.5
 49
-0.25
  0
LTYPE
  5
43B
  2
DOTTED
 70
0
  3
Dotted .  .  .  .
 72
65
 73
2
 40
0.2
 49
0.0
 49
-0.2
  0
ENDTAB
  0
TABLE
  2
STYLE
  70
4
  0
STYLE
  2
KICAD
  70
0
  40
0
  41
1
  42
1
  50
0
  71
0
  3
isocp.shx
  0
STYLE
  2
KICADB
  70
0
  40
0
  41
1
  42
1
  50
0
  71
0
  3
isocp.shx
  0
STYLE
  2
KICADI
  70
0
  40
0
  41
1
  42
1
  50
15
  71
0
  3
isocp.shx
  0
STYLE
  2
KICADBI
  70
0
  40
0
  41
1
  42
1
  50
15
  71
0
  3
isocp.shx
  0
ENDTAB
  0
TABLE
  2
LAYER
  70
1
  0
LAYER
  2
BLACK
  70
0
  62
7
  6
CONTINUOUS
  0
ENDTAB
  0
ENDSEC
  0
SECTION
  2
ENTITIES
0
LINE
8
BLACK
6
CONTINUOUS
10
67.3100009999999997
20
-70.3262500000000017
11
67.3100009999999997
21
-72.9948540000000037
0
LINE
8
BLACK
6
CONTINUOUS
10
67.3100009999999997
20
-72.9948540000000037
11
67.3126570000000015
21
-72.9964409999999901
0
LINE
8
BLACK
6
CONTINUOUS
10
67.3126570000000015
20
-72.9964409999999901
11
67.3455280000000016
21
-73.0154199999999918
0
LINE
8
BLACK
6
CONTINUOUS
10
67.3455280000000016
20
-73.0154199999999918
11
67.3519629999999978
21
-73.0199259999999981
0
LINE
8
BLACK
6
CONTINUOUS
10
67.3519629999999978
20
-73.0199259999999981
11
67.3584790000000027
21
-73.0238190000000031
0
LINE
8
BLACK
6
CONTINUOUS
10
67.3584790000000027
20
-73.0238190000000031
11
67.3838930000000005
21
-73.0422829999999976
0
LINE
8
BLACK
6
CONTINUOUS
10
67.3838930000000005
20
-73.0422829999999976
11
67.4135950000000008
21
-73.0630809999999968
0
LINE
8
BLACK
6
CONTINUOUS
10
67.4135950000000008
20
-73.0630809999999968
11
67.4205460000000016
21
-73.0689129999999949
0
LINE
8
BLACK
6
CONTINUOUS
10
67.4205460000000016
20
-73.0689129999999949
11
67.4276239999999945
21
-73.0740559999999988
0
LINE
8
BLACK
6
CONTINUOUS
10
67.4276239999999945
20
-73.0740559999999988
11
67.4506549999999976
21
-73.0941779999999994
0
LINE
8
BLACK
6
CONTINUOUS
10
67.4506549999999976
20
-73.0941779999999994
11
67.477249999999998
21
-73.1164929999999913
0
LINE
8
BLACK
6
CONTINUOUS
10
67.477249999999998
20
-73.1164929999999913
11
67.4845299999999924
21
-73.1237729999999999
0
LINE
8
BLACK
6
CONTINUOUS
10
67.4845299999999924
20
-73.1237729999999999
11
67.4919869999999946
21
-73.1302879999999931
0
LINE
8
BLACK
6
CONTINUOUS
10
67.4919869999999946
20
-73.1302879999999931
11
67.5125099999999918
21
-73.1517529999999994
0
LINE
8
BLACK
6
CONTINUOUS
10
67.5125099999999918
20
-73.1517529999999994
11
67.5360069999999979
21
-73.1752499999999912
0
LINE
8
BLACK
6
CONTINUOUS
10
67.5360069999999979
20
-73.1752499999999912
11
67.5433999999999912
21
-73.1840609999999998
0
LINE
8
BLACK
6
CONTINUOUS
10
67.5433999999999912
20
-73.1840609999999998
11
67.5510510000000011
21
-73.1920629999999903
0
LINE
8
BLACK
6
CONTINUOUS
10
67.5510510000000011
20
-73.1920629999999903
11
67.5689919999999944
21
-73.2145610000000033
0
LINE
8
BLACK
6
CONTINUOUS
10
67.5689919999999944
20
-73.2145610000000033
11
67.5894189999999924
21
-73.2389050000000026
0
LINE
8
BLACK
6
CONTINUOUS
10
67.5894189999999924
20
-73.2389050000000026
11
67.5967139999999915
21
-73.2493229999999897
0
LINE
8
BLACK
6
CONTINUOUS
10
67.5967139999999915
20
-73.2493229999999897
11
67.604338999999996
21
-73.2588849999999923
0
LINE
8
BLACK
6
CONTINUOUS
10
67.604338999999996
20
-73.2588849999999923
11
67.6196389999999923
21
-73.2820639999999912
0
LINE
8
BLACK
6
CONTINUOUS
10
67.6196389999999923
20
-73.2820639999999912
11
67.6370799999999974
21
-73.3069720000000018
0
LINE
8
BLACK
6
CONTINUOUS
10
67.6370799999999974
20
-73.3069720000000018
11
67.6440529999999995
21
-73.3190489999999926
0
LINE
8
BLACK
6
CONTINUOUS
10
67.6440529999999995
20
-73.3190489999999926
11
67.6514219999999966
21
-73.3302130000000005
0
LINE
8
BLACK
6
CONTINUOUS
10
67.6514219999999966
20
-73.3302130000000005
11
67.6640889999999899
21
-73.3537529999999975
0
LINE
8
BLACK
6
CONTINUOUS
10
67.6640889999999899
20
-73.3537529999999975
11
67.6786280000000033
21
-73.378934000000001
0
LINE
8
BLACK
6
CONTINUOUS
10
67.6786280000000033
20
-73.378934000000001
11
67.6850409999999982
21
-73.3926879999999926
0
LINE
8
BLACK
6
CONTINUOUS
10
67.6850409999999982
20
-73.3926879999999926
11
67.6919230000000027
21
-73.4054759999999931
0
LINE
8
BLACK
6
CONTINUOUS
10
67.6919230000000027
20
-73.4054759999999931
11
67.7020219999999995
21
-73.4291029999999978
0
LINE
8
BLACK
6
CONTINUOUS
10
67.7020219999999995
20
-73.4291029999999978
11
67.713745000000003
21
-73.4542440000000028
0
LINE
8
BLACK
6
CONTINUOUS
10
67.713745000000003
20
-73.4542440000000028
11
67.7193499999999915
21
-73.4696440000000024
0
LINE
8
BLACK
6
CONTINUOUS
10
67.7193499999999915
20
-73.4696440000000024
11
67.725514000000004
21
-73.4840650000000011
0
LINE
8
BLACK
6
CONTINUOUS
10
67.725514000000004
20
-73.4840650000000011
11
67.7331279999999936
21
-73.5074999999999932
0
LINE
8
BLACK
6
CONTINUOUS
10
67.7331279999999936
20
-73.5074999999999932
11
67.742165
21
-73.5323279999999926
0
LINE
8
BLACK
6
CONTINUOUS
10
67.742165
20
-73.5323279999999926
11
67.7467249999999979
21
-73.5493469999999974
0
LINE
8
BLACK
6
CONTINUOUS
10
67.7467249999999979
20
-73.5493469999999974
11
67.751925
21
-73.5653499999999951
0
LINE
8
BLACK
6
CONTINUOUS
10
67.751925
20
-73.5653499999999951
11
67.7571629999999914
21
-73.5882999999999896
0
LINE
8
BLACK
6
CONTINUOUS
10
67.7571629999999914
20
-73.5882999999999896
11
67.7636719999999997
21
-73.6125909999999948
0
LINE
8
BLACK
6
CONTINUOUS
10
67.7636719999999997
20
-73.6125909999999948
11
67.7669479999999993
21
-73.6311740000000015
0
LINE
8
BLACK
6
CONTINUOUS
10
67.7669479999999993
20
-73.6311740000000015
11
67.7709430000000026
21
-73.6486749999999972
0
LINE
8
BLACK
6
CONTINUOUS
10
67.7709430000000026
20
-73.6486749999999972
11
67.7739550000000008
21
-73.6709120000000013
0
LINE
8
BLACK
6
CONTINUOUS
10
67.7739550000000008
20
-73.6709120000000013
11
67.7781009999999924
21
-73.6944239999999979
0
LINE
8
BLACK
6
CONTINUOUS
10
67.7781009999999924
20
-73.6944239999999979
11
67.7798519999999911
21
-73.7144459999999953
0
LINE
8
BLACK
6
CONTINUOUS
10
67.7798519999999911
20
-73.7144459999999953
11
67.7824159999999978
21
-73.7333689999999962
0
LINE
8
BLACK
6
CONTINUOUS
10
67.7824159999999978
20
-73.7333689999999962
11
67.7833729999999974
21
-73.7546889999999991
0
LINE
8
BLACK
6
CONTINUOUS
10
67.7833729999999974
20
-73.7546889999999991
11
67.7853429999999975
21
-73.7772030000000001
0
LINE
8
BLACK
6
CONTINUOUS
10
67.7853429999999975
20
-73.7772030000000001
11
67.7862499999999955
21
-73.8187499999999943
0
LINE
8
BLACK
6
CONTINUOUS
10
67.7862499999999955
20
-73.8187499999999943
11
67.7862499999999955
21
-76.3587500000000006
0
LINE
8
BLACK
6
CONTINUOUS
10
67.7862499999999955
20
-76.3587500000000006
11
67.7853429999999975
21
-76.4002969999999948
0
LINE
8
BLACK
6
CONTINUOUS
10
67.7853429999999975
20
-76.4002969999999948
11
67.7833729999999974
21
-76.4228099999999984
0
LINE
8
BLACK
6
CONTINUOUS
10
67.7833729999999974
20
-76.4228099999999984
11
67.7824159999999978
21
-76.4441309999999987
0
LINE
8
BLACK
6
CONTINUOUS
10
67.7824159999999978
20
-76.4441309999999987
11
67.7798519999999911
21
-76.4630530000000022
0
LINE
8
BLACK
6
CONTINUOUS
10
67.7798519999999911
20
-76.4630530000000022
11
67.7781009999999924
21
-76.483075999999997
0
LINE
8
BLACK
6
CONTINUOUS
10
67.7781009999999924
20
-76.483075999999997
11
67.7739550000000008
21
-76.5065869999999961
0
LINE
8
BLACK
6
CONTINUOUS
10
67.7739550000000008
20
-76.5065869999999961
11
67.7709430000000026
21
-76.5288249999999977
0
LINE
8
BLACK
6
CONTINUOUS
10
67.7709430000000026
20
-76.5288249999999977
11
67.7669479999999993
21
-76.546324999999996
0
LINE
8
BLACK
6
CONTINUOUS
10
67.7669479999999993
20
-76.546324999999996
11
67.7636719999999997
21
-76.5649090000000001
0
LINE
8
BLACK
6
CONTINUOUS
10
67.7636719999999997
20
-76.5649090000000001
11
67.7571629999999914
21
-76.5891989999999936
0
LINE
8
BLACK
6
CONTINUOUS
10
67.7571629999999914
20
-76.5891989999999936
11
67.751925
21
-76.6121499999999997
0
LINE
8
BLACK
6
CONTINUOUS
10
67.751925
20
-76.6121499999999997
11
67.7467249999999979
21
-76.628152
0
LINE
8
BLACK
6
CONTINUOUS
10
67.7467249999999979
20
-76.628152
11
67.742165
21
-76.6451720000000023
0
LINE
8
BLACK
6
CONTINUOUS
10
67.742165
20
-76.6451720000000023
11
67.7331279999999936
21
-76.66999899999999
0
LINE
8
BLACK
6
CONTINUOUS
10
67.7331279999999936
20
-76.66999899999999
11
67.725514000000004
21
-76.6934349999999938
0
LINE
8
BLACK
6
CONTINUOUS
10
67.725514000000004
20
-76.6934349999999938
11
67.7193499999999915
21
-76.707854999999995
0
LINE
8
BLACK
6
CONTINUOUS
10
67.7193499999999915
20
-76.707854999999995
11
67.713745000000003
21
-76.7232559999999921
0
LINE
8
BLACK
6
CONTINUOUS
10
67.713745000000003
20
-76.7232559999999921
11
67.7020219999999995
21
-76.7483959999999996
0
LINE
8
BLACK
6
CONTINUOUS
10
67.7020219999999995
20
-76.7483959999999996
11
67.6919230000000027
21
-76.7720240000000018
0
LINE
8
BLACK
6
CONTINUOUS
10
67.6919230000000027
20
-76.7720240000000018
11
67.6850409999999982
21
-76.7848109999999906
0
LINE
8
BLACK
6
CONTINUOUS
10
67.6850409999999982
20
-76.7848109999999906
11
67.6786280000000033
21
-76.7985659999999939
0
LINE
8
BLACK
6
CONTINUOUS
10
67.6786280000000033
20
-76.7985659999999939
11
67.6640889999999899
21
-76.8237459999999999
0
LINE
8
BLACK
6
CONTINUOUS
10
67.6640889999999899
20
-76.8237459999999999
11
67.6514219999999966
21
-76.8472869999999944
0
LINE
8
BLACK
6
CONTINUOUS
10
67.6514219999999966
20
-76.8472869999999944
11
67.6440529999999995
21
-76.8584499999999906
0
LINE
8
BLACK
6
CONTINUOUS
10
67.6440529999999995
20
-76.8584499999999906
11
67.6370799999999974
21
-76.8705279999999931
0
LINE
8
BLACK
6
CONTINUOUS
10
67.6370799999999974
20
-76.8705279999999931
11
67.6196389999999923
21
-76.895434999999992
0
LINE
8
BLACK
6
CONTINUOUS
10
67.6196389999999923
20
-76.895434999999992
11
67.604338999999996
21
-76.9186150000000026
0
LINE
8
BLACK
6
CONTINUOUS
10
67.604338999999996
20
-76.9186150000000026
11
67.5967139999999915
21
-76.9281759999999935
0
LINE
8
BLACK
6
CONTINUOUS
10
67.5967139999999915
20
-76.9281759999999935
11
67.5894189999999924
21
-76.9385949999999923
0
LINE
8
BLACK
6
CONTINUOUS
10
67.5894189999999924
20
-76.9385949999999923
11
67.5689919999999944
21
-76.9629379999999941
0
LINE
8
BLACK
6
CONTINUOUS
10
67.5689919999999944
20
-76.9629379999999941
11
67.5510510000000011
21
-76.9854369999999903
0
LINE
8
BLACK
6
CONTINUOUS
10
67.5510510000000011
20
-76.9854369999999903
11
67.5433999999999912
21
-76.9934379999999976
0
LINE
8
BLACK
6
CONTINUOUS
10
67.5433999999999912
20
-76.9934379999999976
11
67.5360069999999979
21
-77.0022499999999894
0
LINE
8
BLACK
6
CONTINUOUS
10
67.5360069999999979
20
-77.0022499999999894
11
67.5125099999999918
21
-77.025745999999998
0
LINE
8
BLACK
6
CONTINUOUS
10
67.5125099999999918
20
-77.025745999999998
11
67.4919869999999946
21
-77.0472120000000018
0
LINE
8
BLACK
6
CONTINUOUS
10
67.4919869999999946
20
-77.0472120000000018
11
67.4845299999999924
21
-77.0537259999999975
0
LINE
8
BLACK
6
CONTINUOUS
10
67.4845299999999924
20
-77.0537259999999975
11
67.477249999999998
21
-77.0610070000000036
0
LINE
8
BLACK
6
CONTINUOUS
10
67.477249999999998
20
-77.0610070000000036
11
67.4506549999999976
21
-77.083320999999998
0
LINE
8
BLACK
6
CONTINUOUS
10
67.4506549999999976
20
-77.083320999999998
11
67.4276239999999945
21
-77.1034439999999961
0
LINE
8
BLACK
6
CONTINUOUS
10
67.4276239999999945
20
-77.1034439999999961
11
67.4205460000000016
21
-77.1085860000000025
0
LINE
8
BLACK
6
CONTINUOUS
10
67.4205460000000016
20
-77.1085860000000025
11
67.4135950000000008
21
-77.1144189999999981
0
LINE
8
BLACK
6
CONTINUOUS
10
67.4135950000000008
20
-77.1144189999999981
11
67.3838930000000005
21
-77.1352159999999998
0
LINE
8
BLACK
6
CONTINUOUS
10
67.3838930000000005
20
-77.1352159999999998
11
67.3584790000000027
21
-77.1536809999999917
0
LINE
8
BLACK
6
CONTINUOUS
10
67.3584790000000027
20
-77.1536809999999917
11
67.3519629999999978
21
-77.1575729999999993
0
LINE
8
BLACK
6
CONTINUOUS
10
67.3519629999999978
20
-77.1575729999999993
11
67.3455280000000016
21
-77.1620800000000031
0
LINE
8
BLACK
6
CONTINUOUS
10
67.3455280000000016
20
-77.1620800000000031
11
67.3126570000000015
21
-77.1810579999999931
0
LINE
8
BLACK
6
CONTINUOUS
10
67.3126570000000015
20
-77.1810579999999931
11
67.2851100000000031
21
-77.1975169999999906
0
LINE
8
BLACK
6
CONTINUOUS
10
67.2851100000000031
20
-77.1975169999999906
11
67.279325
21
-77.2003019999999935
0
LINE
8
BLACK
6
CONTINUOUS
10
67.279325
20
-77.2003019999999935
11
67.2735660000000024
21
-77.2036279999999948
0
LINE
8
BLACK
6
CONTINUOUS
10
67.2735660000000024
20
-77.2036279999999948
11
67.237441000000004
21
-77.2204720000000009
0
LINE
8
BLACK
6
CONTINUOUS
10
67.237441000000004
20
-77.2204720000000009
11
67.2081060000000008
21
-77.2346000000000004
0
LINE
8
BLACK
6
CONTINUOUS
10
67.2081060000000008
20
-77.2346000000000004
11
67.2031810000000007
21
-77.2364479999999958
0
LINE
8
BLACK
6
CONTINUOUS
10
67.2031810000000007
20
-77.2364479999999958
11
67.1982560000000007
21
-77.2387449999999944
0
LINE
8
BLACK
6
CONTINUOUS
10
67.1982560000000007
20
-77.2387449999999944
11
67.158732999999998
21
-77.2531299999999987
0
LINE
8
BLACK
6
CONTINUOUS
10
67.158732999999998
20
-77.2531299999999987
11
67.1280890000000028
21
-77.2646309999999943
0
LINE
8
BLACK
6
CONTINUOUS
10
67.1280890000000028
20
-77.2646309999999943
11
67.1241380000000021
21
-77.2657209999999992
0
LINE
8
BLACK
6
CONTINUOUS
10
67.1241380000000021
20
-77.2657209999999992
11
67.1201719999999966
21
-77.2671649999999914
0
LINE
8
BLACK
6
CONTINUOUS
10
67.1201719999999966
20
-77.2671649999999914
11
67.0767089999999939
21
-77.2788109999999904
0
LINE
8
BLACK
6
CONTINUOUS
10
67.0767089999999939
20
-77.2788109999999904
11
67.045700999999994
21
-77.2873689999999982
0
LINE
8
BLACK
6
CONTINUOUS
10
67.045700999999994
20
-77.2873689999999982
11
67.0428210000000036
21
-77.2878910000000019
0
LINE
8
BLACK
6
CONTINUOUS
10
67.0428210000000036
20
-77.2878910000000019
11
67.0399089999999944
21
-77.2886719999999912
0
LINE
8
BLACK
6
CONTINUOUS
10
67.0399089999999944
20
-77.2886719999999912
11
66.9910249999999934
21
-77.2972910000000013
0
LINE
8
BLACK
6
CONTINUOUS
10
66.9910249999999934
20
-77.2972910000000013
11
66.9616070000000008
21
-77.3026299999999935
0
LINE
8
BLACK
6
CONTINUOUS
10
66.9616070000000008
20
-77.3026299999999935
11
66.959850000000003
21
-77.3027879999999925
0
LINE
8
BLACK
6
CONTINUOUS
10
66.959850000000003
20
-77.3027879999999925
11
66.9580759999999913
21
-77.3031009999999981
0
LINE
8
BLACK
6
CONTINUOUS
10
66.9580759999999913
20
-77.3031009999999981
11
66.8971129999999903
21
-77.3084339999999912
0
LINE
8
BLACK
6
CONTINUOUS
10
66.8971129999999903
20
-77.3084339999999912
11
66.8764839999999907
21
-77.3102909999999923
0
LINE
8
BLACK
6
CONTINUOUS
10
66.8764839999999907
20
-77.3102909999999923
11
66.8758909999999958
21
-77.3102909999999923
0
LINE
8
BLACK
6
CONTINUOUS
10
66.8758909999999958
20
-77.3102909999999923
11
66.8752970000000033
21
-77.3103430000000031
0
LINE
8
BLACK
6
CONTINUOUS
10
66.8752970000000033
20
-77.3103430000000031
11
66.7922030000000007
21
-77.3103430000000031
0
LINE
8
BLACK
6
CONTINUOUS
10
66.7922030000000007
20
-77.3103430000000031
11
66.791608999999994
21
-77.3102909999999923
0
LINE
8
BLACK
6
CONTINUOUS
10
66.791608999999994
20
-77.3102909999999923
11
66.7910159999999991
21
-77.3102909999999923
0
LINE
8
BLACK
6
CONTINUOUS
10
66.7910159999999991
20
-77.3102909999999923
11
66.770386000000002
21
-77.3084339999999912
0
LINE
8
BLACK
6
CONTINUOUS
10
66.770386000000002
20
-77.3084339999999912
11
66.7094239999999985
21
-77.3031009999999981
0
LINE
8
BLACK
6
CONTINUOUS
10
66.7094239999999985
20
-77.3031009999999981
11
66.7076490000000035
21
-77.3027879999999925
0
LINE
8
BLACK
6
CONTINUOUS
10
66.7076490000000035
20
-77.3027879999999925
11
66.7058930000000032
21
-77.3026299999999935
0
LINE
8
BLACK
6
CONTINUOUS
10
66.7058930000000032
20
-77.3026299999999935
11
66.6764739999999989
21
-77.2972910000000013
0
LINE
8
BLACK
6
CONTINUOUS
10
66.6764739999999989
20
-77.2972910000000013
11
66.6275909999999953
21
-77.2886719999999912
0
LINE
8
BLACK
6
CONTINUOUS
10
66.6275909999999953
20
-77.2886719999999912
11
66.624678000000003
21
-77.2878910000000019
0
LINE
8
BLACK
6
CONTINUOUS
10
66.624678000000003
20
-77.2878910000000019
11
66.6217989999999958
21
-77.2873689999999982
0
LINE
8
BLACK
6
CONTINUOUS
10
66.6217989999999958
20
-77.2873689999999982
11
66.5907899999999984
21
-77.2788109999999904
0
LINE
8
BLACK
6
CONTINUOUS
10
66.5907899999999984
20
-77.2788109999999904
11
66.5473279999999932
21
-77.2671649999999914
0
LINE
8
BLACK
6
CONTINUOUS
10
66.5473279999999932
20
-77.2671649999999914
11
66.5433609999999902
21
-77.2657209999999992
0
LINE
8
BLACK
6
CONTINUOUS
10
66.5433609999999902
20
-77.2657209999999992
11
66.5394110000000012
21
-77.2646309999999943
0
LINE
8
BLACK
6
CONTINUOUS
10
66.5394110000000012
20
-77.2646309999999943
11
66.5087659999999943
21
-77.2531299999999987
0
LINE
8
BLACK
6
CONTINUOUS
10
66.5087659999999943
20
-77.2531299999999987
11
66.4692440000000033
21
-77.2387449999999944
0
LINE
8
BLACK
6
CONTINUOUS
10
66.4692440000000033
20
-77.2387449999999944
11
66.4643179999999916
21
-77.2364479999999958
0
LINE
8
BLACK
6
CONTINUOUS
10
66.4643179999999916
20
-77.2364479999999958
11
66.4593940000000032
21
-77.2346000000000004
0
LINE
8
BLACK
6
CONTINUOUS
10
66.4593940000000032
20
-77.2346000000000004
11
66.4300580000000025
21
-77.2204720000000009
0
LINE
8
BLACK
6
CONTINUOUS
10
66.4300580000000025
20
-77.2204720000000009
11
66.3939340000000016
21
-77.2036279999999948
0
LINE
8
BLACK
6
CONTINUOUS
10
66.3939340000000016
20
-77.2036279999999948
11
66.3881739999999922
21
-77.2003019999999935
0
LINE
8
BLACK
6
CONTINUOUS
10
66.3881739999999922
20
-77.2003019999999935
11
66.3823900000000009
21
-77.1975169999999906
0
LINE
8
BLACK
6
CONTINUOUS
10
66.3823900000000009
20
-77.1975169999999906
11
66.3548419999999908
21
-77.1810579999999931
0
LINE
8
BLACK
6
CONTINUOUS
10
66.3548419999999908
20
-77.1810579999999931
11
66.3219720000000024
21
-77.1620800000000031
0
LINE
8
BLACK
6
CONTINUOUS
10
66.3219720000000024
20
-77.1620800000000031
11
66.3155359999999945
21
-77.1575729999999993
0
LINE
8
BLACK
6
CONTINUOUS
10
66.3155359999999945
20
-77.1575729999999993
11
66.3090210000000013
21
-77.1536809999999917
0
LINE
8
BLACK
6
CONTINUOUS
10
66.3090210000000013
20
-77.1536809999999917
11
66.2836059999999918
21
-77.1352159999999998
0
LINE
8
BLACK
6
CONTINUOUS
10
66.2836059999999918
20
-77.1352159999999998
11
66.2539050000000032
21
-77.1144189999999981
0
LINE
8
BLACK
6
CONTINUOUS
10
66.2539050000000032
20
-77.1144189999999981
11
66.2469529999999907
21
-77.1085860000000025
0
LINE
8
BLACK
6
CONTINUOUS
10
66.2469529999999907
20
-77.1085860000000025
11
66.2398759999999953
21
-77.1034439999999961
0
LINE
8
BLACK
6
CONTINUOUS
10
66.2398759999999953
20
-77.1034439999999961
11
66.2168439999999947
21
-77.083320999999998
0
LINE
8
BLACK
6
CONTINUOUS
10
66.2168439999999947
20
-77.083320999999998
11
66.1902499999999918
21
-77.0610070000000036
0
LINE
8
BLACK
6
CONTINUOUS
10
66.1902499999999918
20
-77.0610070000000036
11
66.1829689999999999
21
-77.0537259999999975
0
LINE
8
BLACK
6
CONTINUOUS
10
66.1829689999999999
20
-77.0537259999999975
11
66.1755129999999951
21
-77.0472120000000018
0
LINE
8
BLACK
6
CONTINUOUS
10
66.1755129999999951
20
-77.0472120000000018
11
66.1549890000000005
21
-77.025745999999998
0
LINE
8
BLACK
6
CONTINUOUS
10
66.1549890000000005
20
-77.025745999999998
11
66.1314929999999919
21
-77.0022499999999894
0
LINE
8
BLACK
6
CONTINUOUS
10
66.1314929999999919
20
-77.0022499999999894
11
66.1240990000000011
21
-76.9934379999999976
0
LINE
8
BLACK
6
CONTINUOUS
10
66.1240990000000011
20
-76.9934379999999976
11
66.1164490000000029
21
-76.9854369999999903
0
LINE
8
BLACK
6
CONTINUOUS
10
66.1164490000000029
20
-76.9854369999999903
11
66.0985069999999979
21
-76.9629379999999941
0
LINE
8
BLACK
6
CONTINUOUS
10
66.0985069999999979
20
-76.9629379999999941
11
66.0780809999999974
21
-76.9385949999999923
0
LINE
8
BLACK
6
CONTINUOUS
10
66.0780809999999974
20
-76.9385949999999923
11
66.0707850000000008
21
-76.9281759999999935
0
LINE
8
BLACK
6
CONTINUOUS
10
66.0707850000000008
20
-76.9281759999999935
11
66.0631609999999938
21
-76.9186150000000026
0
LINE
8
BLACK
6
CONTINUOUS
10
66.0631609999999938
20
-76.9186150000000026
11
66.04786
21
-76.895434999999992
0
LINE
8
BLACK
6
CONTINUOUS
10
66.04786
20
-76.895434999999992
11
66.0304199999999923
21
-76.8705279999999931
0
LINE
8
BLACK
6
CONTINUOUS
10
66.0304199999999923
20
-76.8705279999999931
11
66.0234459999999928
21
-76.8584499999999906
0
LINE
8
BLACK
6
CONTINUOUS
10
66.0234459999999928
20
-76.8584499999999906
11
66.0160779999999932
21
-76.8472869999999944
0
LINE
8
BLACK
6
CONTINUOUS
10
66.0160779999999932
20
-76.8472869999999944
11
66.0034100000000024
21
-76.8237459999999999
0
LINE
8
BLACK
6
CONTINUOUS
10
66.0034100000000024
20
-76.8237459999999999
11
65.9888720000000006
21
-76.7985659999999939
0
LINE
8
BLACK
6
CONTINUOUS
10
65.9888720000000006
20
-76.7985659999999939
11
65.9824579999999941
21
-76.7848109999999906
0
LINE
8
BLACK
6
CONTINUOUS
10
65.9824579999999941
20
-76.7848109999999906
11
65.9755770000000012
21
-76.7720240000000018
0
LINE
8
BLACK
6
CONTINUOUS
10
65.9755770000000012
20
-76.7720240000000018
11
65.9654769999999928
21
-76.7483959999999996
0
LINE
8
BLACK
6
CONTINUOUS
10
65.9654769999999928
20
-76.7483959999999996
11
65.953755000000001
21
-76.7232559999999921
0
LINE
8
BLACK
6
CONTINUOUS
10
65.953755000000001
20
-76.7232559999999921
11
65.9481490000000008
21
-76.707854999999995
0
LINE
8
BLACK
6
CONTINUOUS
10
65.9481490000000008
20
-76.707854999999995
11
65.941986
21
-76.6934349999999938
0
LINE
8
BLACK
6
CONTINUOUS
10
65.941986
20
-76.6934349999999938
11
65.9343709999999987
21
-76.66999899999999
0
LINE
8
BLACK
6
CONTINUOUS
10
65.9343709999999987
20
-76.66999899999999
11
65.925335000000004
21
-76.6451720000000023
0
LINE
8
BLACK
6
CONTINUOUS
10
65.925335000000004
20
-76.6451720000000023
11
65.9207739999999944
21
-76.628152
0
LINE
8
BLACK
6
CONTINUOUS
10
65.9207739999999944
20
-76.628152
11
65.915575000000004
21
-76.6121499999999997
0
LINE
8
BLACK
6
CONTINUOUS
10
65.915575000000004
20
-76.6121499999999997
11
65.9103360000000009
21
-76.5891989999999936
0
LINE
8
BLACK
6
CONTINUOUS
10
65.9103360000000009
20
-76.5891989999999936
11
65.9038279999999901
21
-76.5649090000000001
0
LINE
8
BLACK
6
CONTINUOUS
10
65.9038279999999901
20
-76.5649090000000001
11
65.900550999999993
21
-76.546324999999996
0
LINE
8
BLACK
6
CONTINUOUS
10
65.900550999999993
20
-76.546324999999996
11
65.8965570000000014
21
-76.5288249999999977
0
LINE
8
BLACK
6
CONTINUOUS
10
65.8965570000000014
20
-76.5288249999999977
11
65.8935439999999915
21
-76.5065869999999961
0
LINE
8
BLACK
6
CONTINUOUS
10
65.8935439999999915
20
-76.5065869999999961
11
65.8893989999999974
21
-76.483075999999997
0
LINE
8
BLACK
6
CONTINUOUS
10
65.8893989999999974
20
-76.483075999999997
11
65.8876470000000012
21
-76.4630530000000022
0
LINE
8
BLACK
6
CONTINUOUS
10
65.8876470000000012
20
-76.4630530000000022
11
65.885083999999992
21
-76.4441309999999987
0
LINE
8
BLACK
6
CONTINUOUS
10
65.885083999999992
20
-76.4441309999999987
11
65.8841259999999949
21
-76.4228099999999984
0
LINE
8
BLACK
6
CONTINUOUS
10
65.8841259999999949
20
-76.4228099999999984
11
65.8821569999999923
21
-76.4002969999999948
0
LINE
8
BLACK
6
CONTINUOUS
10
65.8821569999999923
20
-76.4002969999999948
11
65.8812499999999943
21
-76.3587500000000006
0
LINE
8
BLACK
6
CONTINUOUS
10
65.8812499999999943
20
-76.3587500000000006
11
65.8812499999999943
21
-73.8187499999999943
0
LINE
8
BLACK
6
CONTINUOUS
10
65.8812499999999943
20
-73.8187499999999943
11
65.8821569999999923
21
-73.7772030000000001
0
LINE
8
BLACK
6
CONTINUOUS
10
65.8821569999999923
20
-73.7772030000000001
11
65.8841259999999949
21
-73.7546889999999991
0
LINE
8
BLACK
6
CONTINUOUS
10
65.8841259999999949
20
-73.7546889999999991
11
65.885083999999992
21
-73.7333689999999962
0
LINE
8
BLACK
6
CONTINUOUS
10
65.885083999999992
20
-73.7333689999999962
11
65.8876470000000012
21
-73.7144459999999953
0
LINE
8
BLACK
6
CONTINUOUS
10
65.8876470000000012
20
-73.7144459999999953
11
65.8893989999999974
21
-73.6944239999999979
0
LINE
8
BLACK
6
CONTINUOUS
10
65.8893989999999974
20
-73.6944239999999979
11
65.8935439999999915
21
-73.6709120000000013
0
LINE
8
BLACK
6
CONTINUOUS
10
65.8935439999999915
20
-73.6709120000000013
11
65.8965570000000014
21
-73.6486749999999972
0
LINE
8
BLACK
6
CONTINUOUS
10
65.8965570000000014
20
-73.6486749999999972
11
65.900550999999993
21
-73.6311740000000015
0
LINE
8
BLACK
6
CONTINUOUS
10
65.900550999999993
20
-73.6311740000000015
11
65.9038279999999901
21
-73.6125909999999948
0
LINE
8
BLACK
6
CONTINUOUS
10
65.9038279999999901
20
-73.6125909999999948
11
65.9103360000000009
21
-73.5882999999999896
0
LINE
8
BLACK
6
CONTINUOUS
10
65.9103360000000009
20
-73.5882999999999896
11
65.915575000000004
21
-73.5653499999999951
0
LINE
8
BLACK
6
CONTINUOUS
10
65.915575000000004
20
-73.5653499999999951
11
65.9207739999999944
21
-73.5493469999999974
0
LINE
8
BLACK
6
CONTINUOUS
10
65.9207739999999944
20
-73.5493469999999974
11
65.925335000000004
21
-73.5323279999999926
0
LINE
8
BLACK
6
CONTINUOUS
10
65.925335000000004
20
-73.5323279999999926
11
65.9343709999999987
21
-73.5074999999999932
0
LINE
8
BLACK
6
CONTINUOUS
10
65.9343709999999987
20
-73.5074999999999932
11
65.941986
21
-73.4840650000000011
0
LINE
8
BLACK
6
CONTINUOUS
10
65.941986
20
-73.4840650000000011
11
65.9481490000000008
21
-73.4696440000000024
0
LINE
8
BLACK
6
CONTINUOUS
10
65.9481490000000008
20
-73.4696440000000024
11
65.953755000000001
21
-73.4542440000000028
0
LINE
8
BLACK
6
CONTINUOUS
10
65.953755000000001
20
-73.4542440000000028
11
65.9654769999999928
21
-73.4291029999999978
0
LINE
8
BLACK
6
CONTINUOUS
10
65.9654769999999928
20
-73.4291029999999978
11
65.9755770000000012
21
-73.4054759999999931
0
LINE
8
BLACK
6
CONTINUOUS
10
65.9755770000000012
20
-73.4054759999999931
11
65.9824579999999941
21
-73.3926879999999926
0
LINE
8
BLACK
6
CONTINUOUS
10
65.9824579999999941
20
-73.3926879999999926
11
65.9888720000000006
21
-73.378934000000001
0
LINE
8
BLACK
6
CONTINUOUS
10
65.9888720000000006
20
-73.378934000000001
11
66.0034100000000024
21
-73.3537529999999975
0
LINE
8
BLACK
6
CONTINUOUS
10
66.0034100000000024
20
-73.3537529999999975
11
66.0160779999999932
21
-73.3302130000000005
0
LINE
8
BLACK
6
CONTINUOUS
10
66.0160779999999932
20
-73.3302130000000005
11
66.0234459999999928
21
-73.3190489999999926
0
LINE
8
BLACK
6
CONTINUOUS
10
66.0234459999999928
20
-73.3190489999999926
11
66.0304199999999923
21
-73.3069720000000018
0
LINE
8
BLACK
6
CONTINUOUS
10
66.0304199999999923
20
-73.3069720000000018
11
66.04786
21
-73.2820639999999912
0
LINE
8
BLACK
6
CONTINUOUS
10
66.04786
20
-73.2820639999999912
11
66.0631609999999938
21
-73.2588849999999923
0
LINE
8
BLACK
6
CONTINUOUS
10
66.0631609999999938
20
-73.2588849999999923
11
66.0707850000000008
21
-73.2493229999999897
0
LINE
8
BLACK
6
CONTINUOUS
10
66.0707850000000008
20
-73.2493229999999897
11
66.0780809999999974
21
-73.2389050000000026
0
LINE
8
BLACK
6
CONTINUOUS
10
66.0780809999999974
20
-73.2389050000000026
11
66.0985069999999979
21
-73.2145610000000033
0
LINE
8
BLACK
6
CONTINUOUS
10
66.0985069999999979
20
-73.2145610000000033
11
66.1164490000000029
21
-73.1920629999999903
0
LINE
8
BLACK
6
CONTINUOUS
10
66.1164490000000029
20
-73.1920629999999903
11
66.1240990000000011
21
-73.1840609999999998
0
LINE
8
BLACK
6
CONTINUOUS
10
66.1240990000000011
20
-73.1840609999999998
11
66.1314929999999919
21
-73.1752499999999912
0
LINE
8
BLACK
6
CONTINUOUS
10
66.1314929999999919
20
-73.1752499999999912
11
66.1549890000000005
21
-73.1517529999999994
0
LINE
8
BLACK
6
CONTINUOUS
10
66.1549890000000005
20
-73.1517529999999994
11
66.1755129999999951
21
-73.1302879999999931
0
LINE
8
BLACK
6
CONTINUOUS
10
66.1755129999999951
20
-73.1302879999999931
11
66.1829689999999999
21
-73.1237729999999999
0
LINE
8
BLACK
6
CONTINUOUS
10
66.1829689999999999
20
-73.1237729999999999
11
66.1902499999999918
21
-73.1164929999999913
0
LINE
8
BLACK
6
CONTINUOUS
10
66.1902499999999918
20
-73.1164929999999913
11
66.2168439999999947
21
-73.0941779999999994
0
LINE
8
BLACK
6
CONTINUOUS
10
66.2168439999999947
20
-73.0941779999999994
11
66.2398759999999953
21
-73.0740559999999988
0
LINE
8
BLACK
6
CONTINUOUS
10
66.2398759999999953
20
-73.0740559999999988
11
66.2469529999999907
21
-73.0689129999999949
0
LINE
8
BLACK
6
CONTINUOUS
10
66.2469529999999907
20
-73.0689129999999949
11
66.2539050000000032
21
-73.0630809999999968
0
LINE
8
BLACK
6
CONTINUOUS
10
66.2539050000000032
20
-73.0630809999999968
11
66.2836059999999918
21
-73.0422829999999976
0
LINE
8
BLACK
6
CONTINUOUS
10
66.2836059999999918
20
-73.0422829999999976
11
66.3090210000000013
21
-73.0238190000000031
0
LINE
8
BLACK
6
CONTINUOUS
10
66.3090210000000013
20
-73.0238190000000031
11
66.3155359999999945
21
-73.0199259999999981
0
LINE
8
BLACK
6
CONTINUOUS
10
66.3155359999999945
20
-73.0199259999999981
11
66.3219720000000024
21
-73.0154199999999918
0
LINE
8
BLACK
6
CONTINUOUS
10
66.3219720000000024
20
-73.0154199999999918
11
66.3548419999999908
21
-72.9964409999999901
0
LINE
8
BLACK
6
CONTINUOUS
10
66.3548419999999908
20
-72.9964409999999901
11
66.3575009999999992
21
-72.994852999999992
0
LINE
8
BLACK
6
CONTINUOUS
10
66.3575009999999992
20
-72.994852999999992
11
66.3575009999999992
21
-70.9612499999999926
0
LINE
8
BLACK
6
CONTINUOUS
10
66.3575009999999992
20
-70.9612499999999926
11
66.3575009999999992
21
-69.6912499999999966
0
LINE
8
BLACK
6
CONTINUOUS
10
66.3575009999999992
20
-69.6912499999999966
11
67.3100009999999997
21
-69.6912499999999966
0
LINE
8
BLACK
6
CONTINUOUS
10
67.3100009999999997
20
-69.6912499999999966
11
67.3100009999999997
21
-70.3262500000000017
0
LINE
8
BLACK
6
CONTINUOUS
10
65.7224989999999991
20
-55.7212499999999977
11
68.8191249999999997
21
-55.7212499999999977
0
LINE
8
BLACK
6
CONTINUOUS
10
68.8191249999999997
20
-55.7212499999999977
11
68.8974999999999937
21
-55.7212499999999977
0
LINE
8
BLACK
6
CONTINUOUS
10
68.8974999999999937
20
-55.7212499999999977
11
68.8974999999999937
21
-58.2612499999999969
0
LINE
8
BLACK
6
CONTINUOUS
10
68.8974999999999937
20
-58.2612499999999969
11
68.8191249999999997
21
-58.2612499999999969
0
LINE
8
BLACK
6
CONTINUOUS
10
68.8191249999999997
20
-58.2612499999999969
11
67.6274980000000028
21
-58.2612499999999969
0
LINE
8
BLACK
6
CONTINUOUS
10
67.6274980000000028
20
-58.2612499999999969
11
66.9924999999999926
21
-58.8962479999999999
0
LINE
8
BLACK
6
CONTINUOUS
10
66.9924999999999926
20
-58.8962479999999999
11
66.9924999999999926
21
-59.0549999999999997
0
LINE
8
BLACK
6
CONTINUOUS
10
66.9924999999999926
20
-59.0549999999999997
11
66.9924999999999926
21
-61.2774999999999963
0
LINE
8
BLACK
6
CONTINUOUS
10
66.9924999999999926
20
-61.2774999999999963
11
66.9141249999999985
21
-61.2774999999999963
0
LINE
8
BLACK
6
CONTINUOUS
10
66.9141249999999985
20
-61.2774999999999963
11
65.1658749999999998
21
-61.2774999999999963
0
LINE
8
BLACK
6
CONTINUOUS
10
65.1658749999999998
20
-61.2774999999999963
11
65.0874999999999915
21
-61.2774999999999963
0
LINE
8
BLACK
6
CONTINUOUS
10
65.0874999999999915
20
-61.2774999999999963
11
65.0874999999999915
21
-59.0549999999999997
0
LINE
8
BLACK
6
CONTINUOUS
10
65.0874999999999915
20
-59.0549999999999997
11
65.0874999999999915
21
-58.8962499999999949
0
LINE
8
BLACK
6
CONTINUOUS
10
65.0874999999999915
20
-58.8962499999999949
11
65.087498999999994
21
-58.8962479999999999
0
LINE
8
BLACK
6
CONTINUOUS
10
65.087498999999994
20
-58.8962479999999999
11
64.6112509999999958
21
-58.4199999999999946
0
LINE
8
BLACK
6
CONTINUOUS
10
64.6112509999999958
20
-58.4199999999999946
11
64.6112499999999983
21
-58.4199999999999946
0
LINE
8
BLACK
6
CONTINUOUS
10
64.6112499999999983
20
-58.4199999999999946
11
54.2924999999999969
21
-58.4199999999999946
0
LINE
8
BLACK
6
CONTINUOUS
10
54.2924999999999969
20
-58.4199999999999946
11
54.2924979999999948
21
-58.4199999999999946
0
LINE
8
BLACK
6
CONTINUOUS
10
54.2924979999999948
20
-58.4199999999999946
11
53.6574999999999989
21
-59.0549979999999977
0
LINE
8
BLACK
6
CONTINUOUS
10
53.6574999999999989
20
-59.0549979999999977
11
53.6574999999999989
21
-69.2150010000000009
0
LINE
8
BLACK
6
CONTINUOUS
10
53.6574999999999989
20
-69.2150010000000009
11
54.2924979999999948
21
-69.8499989999999968
0
LINE
8
BLACK
6
CONTINUOUS
10
54.2924979999999948
20
-69.8499989999999968
11
54.2924999999999969
21
-69.8499999999999943
0
LINE
8
BLACK
6
CONTINUOUS
10
54.2924999999999969
20
-69.8499999999999943
11
54.9274999999999949
21
-69.8499999999999943
0
LINE
8
BLACK
6
CONTINUOUS
10
54.9274999999999949
20
-69.8499999999999943
11
54.9274999999999949
21
-69.9283750000000026
0
LINE
8
BLACK
6
CONTINUOUS
10
54.9274999999999949
20
-69.9283750000000026
11
54.9274999999999949
21
-73.1837510000000009
0
LINE
8
BLACK
6
CONTINUOUS
10
54.9274999999999949
20
-73.1837510000000009
11
55.5624979999999979
21
-73.8187489999999968
0
LINE
8
BLACK
6
CONTINUOUS
10
55.5624979999999979
20
-73.8187489999999968
11
55.5625
21
-73.8187499999999943
0
LINE
8
BLACK
6
CONTINUOUS
10
55.5625
20
-73.8187499999999943
11
60.801249999999996
21
-73.8187499999999943
0
LINE
8
BLACK
6
CONTINUOUS
10
60.801249999999996
20
-73.8187499999999943
11
60.8050840000000008
21
-73.7333689999999962
0
LINE
8
BLACK
6
CONTINUOUS
10
60.8050840000000008
20
-73.7333689999999962
11
60.816556999999996
21
-73.6486749999999972
0
LINE
8
BLACK
6
CONTINUOUS
10
60.816556999999996
20
-73.6486749999999972
11
60.8355749999999986
21
-73.5653499999999951
0
LINE
8
BLACK
6
CONTINUOUS
10
60.8355749999999986
20
-73.5653499999999951
11
60.8619859999999946
21
-73.4840650000000011
0
LINE
8
BLACK
6
CONTINUOUS
10
60.8619859999999946
20
-73.4840650000000011
11
60.8955769999999958
21
-73.4054759999999931
0
LINE
8
BLACK
6
CONTINUOUS
10
60.8955769999999958
20
-73.4054759999999931
11
60.9360779999999949
21
-73.3302130000000005
0
LINE
8
BLACK
6
CONTINUOUS
10
60.9360779999999949
20
-73.3302130000000005
11
60.9831609999999955
21
-73.2588849999999923
0
LINE
8
BLACK
6
CONTINUOUS
10
60.9831609999999955
20
-73.2588849999999923
11
61.0364489999999975
21
-73.1920629999999903
0
LINE
8
BLACK
6
CONTINUOUS
10
61.0364489999999975
20
-73.1920629999999903
11
61.0955129999999969
21
-73.1302879999999931
0
LINE
8
BLACK
6
CONTINUOUS
10
61.0955129999999969
20
-73.1302879999999931
11
61.159875999999997
21
-73.0740559999999988
0
LINE
8
BLACK
6
CONTINUOUS
10
61.159875999999997
20
-73.0740559999999988
11
61.2290209999999959
21
-73.0238190000000031
0
LINE
8
BLACK
6
CONTINUOUS
10
61.2290209999999959
20
-73.0238190000000031
11
61.3023899999999955
21
-72.9799829999999901
0
LINE
8
BLACK
6
CONTINUOUS
10
61.3023899999999955
20
-72.9799829999999901
11
61.3793939999999978
21
-72.9428999999999945
0
LINE
8
BLACK
6
CONTINUOUS
10
61.3793939999999978
20
-72.9428999999999945
11
61.4594109999999958
21
-72.9128690000000006
0
LINE
8
BLACK
6
CONTINUOUS
10
61.4594109999999958
20
-72.9128690000000006
11
61.5417989999999975
21
-72.8901309999999967
0
LINE
8
BLACK
6
CONTINUOUS
10
61.5417989999999975
20
-72.8901309999999967
11
61.6258929999999978
21
-72.8748700000000014
0
LINE
8
BLACK
6
CONTINUOUS
10
61.6258929999999978
20
-72.8748700000000014
11
61.7110160000000008
21
-72.8672090000000026
0
LINE
8
BLACK
6
CONTINUOUS
10
61.7110160000000008
20
-72.8672090000000026
11
61.7964839999999995
21
-72.8672090000000026
0
LINE
8
BLACK
6
CONTINUOUS
10
61.7964839999999995
20
-72.8672090000000026
11
61.8816069999999954
21
-72.8748700000000014
0
LINE
8
BLACK
6
CONTINUOUS
10
61.8816069999999954
20
-72.8748700000000014
11
61.9657009999999957
21
-72.8901309999999967
0
LINE
8
BLACK
6
CONTINUOUS
10
61.9657009999999957
20
-72.8901309999999967
11
62.0480889999999974
21
-72.9128690000000006
0
LINE
8
BLACK
6
CONTINUOUS
10
62.0480889999999974
20
-72.9128690000000006
11
62.1281059999999954
21
-72.9428999999999945
0
LINE
8
BLACK
6
CONTINUOUS
10
62.1281059999999954
20
-72.9428999999999945
11
62.2051099999999977
21
-72.9799829999999901
0
LINE
8
BLACK
6
CONTINUOUS
10
62.2051099999999977
20
-72.9799829999999901
11
62.2784789999999973
21
-73.0238190000000031
0
LINE
8
BLACK
6
CONTINUOUS
10
62.2784789999999973
20
-73.0238190000000031
11
62.3476239999999962
21
-73.0740559999999988
0
LINE
8
BLACK
6
CONTINUOUS
10
62.3476239999999962
20
-73.0740559999999988
11
62.4119869999999963
21
-73.1302879999999931
0
LINE
8
BLACK
6
CONTINUOUS
10
62.4119869999999963
20
-73.1302879999999931
11
62.4710509999999957
21
-73.1920629999999903
0
LINE
8
BLACK
6
CONTINUOUS
10
62.4710509999999957
20
-73.1920629999999903
11
62.5243389999999977
21
-73.2588849999999923
0
LINE
8
BLACK
6
CONTINUOUS
10
62.5243389999999977
20
-73.2588849999999923
11
62.5714219999999983
21
-73.3302130000000005
0
LINE
8
BLACK
6
CONTINUOUS
10
62.5714219999999983
20
-73.3302130000000005
11
62.6119229999999973
21
-73.4054759999999931
0
LINE
8
BLACK
6
CONTINUOUS
10
62.6119229999999973
20
-73.4054759999999931
11
62.6455139999999986
21
-73.4840650000000011
0
LINE
8
BLACK
6
CONTINUOUS
10
62.6455139999999986
20
-73.4840650000000011
11
62.6719249999999946
21
-73.5653499999999951
0
LINE
8
BLACK
6
CONTINUOUS
10
62.6719249999999946
20
-73.5653499999999951
11
62.6909429999999972
21
-73.6486749999999972
0
LINE
8
BLACK
6
CONTINUOUS
10
62.6909429999999972
20
-73.6486749999999972
11
62.7024159999999995
21
-73.7333689999999962
0
LINE
8
BLACK
6
CONTINUOUS
10
62.7024159999999995
20
-73.7333689999999962
11
62.7062499999999972
21
-73.8187499999999943
0
LINE
8
BLACK
6
CONTINUOUS
10
62.7062499999999972
20
-73.8187499999999943
11
62.7035069999999948
21
-73.8798129999999986
0
LINE
8
BLACK
6
CONTINUOUS
10
62.7035069999999948
20
-73.8798129999999986
11
62.7062499999999972
21
-73.8971250000000026
0
LINE
8
BLACK
6
CONTINUOUS
10
62.7062499999999972
20
-73.8971250000000026
11
62.7062499999999972
21
-76.2803749999999923
0
LINE
8
BLACK
6
CONTINUOUS
10
62.7062499999999972
20
-76.2803749999999923
11
62.7035069999999948
21
-76.2976859999999988
0
LINE
8
BLACK
6
CONTINUOUS
10
62.7035069999999948
20
-76.2976859999999988
11
62.7062499999999972
21
-76.3587500000000006
0
LINE
8
BLACK
6
CONTINUOUS
10
62.7062499999999972
20
-76.3587500000000006
11
62.7024159999999995
21
-76.4441309999999987
0
LINE
8
BLACK
6
CONTINUOUS
10
62.7024159999999995
20
-76.4441309999999987
11
62.6909429999999972
21
-76.5288249999999977
0
LINE
8
BLACK
6
CONTINUOUS
10
62.6909429999999972
20
-76.5288249999999977
11
62.6719249999999946
21
-76.6121499999999997
0
LINE
8
BLACK
6
CONTINUOUS
10
62.6719249999999946
20
-76.6121499999999997
11
62.6455139999999986
21
-76.6934349999999938
0
LINE
8
BLACK
6
CONTINUOUS
10
62.6455139999999986
20
-76.6934349999999938
11
62.6119229999999973
21
-76.7720240000000018
0
LINE
8
BLACK
6
CONTINUOUS
10
62.6119229999999973
20
-76.7720240000000018
11
62.5714219999999983
21
-76.8472869999999944
0
LINE
8
BLACK
6
CONTINUOUS
10
62.5714219999999983
20
-76.8472869999999944
11
62.5243389999999977
21
-76.9186150000000026
0
LINE
8
BLACK
6
CONTINUOUS
10
62.5243389999999977
20
-76.9186150000000026
11
62.4710509999999957
21
-76.9854369999999903
0
LINE
8
BLACK
6
CONTINUOUS
10
62.4710509999999957
20
-76.9854369999999903
11
62.4119869999999963
21
-77.0472120000000018
0
LINE
8
BLACK
6
CONTINUOUS
10
62.4119869999999963
20
-77.0472120000000018
11
62.3476239999999962
21
-77.1034439999999961
0
LINE
8
BLACK
6
CONTINUOUS
10
62.3476239999999962
20
-77.1034439999999961
11
62.2784789999999973
21
-77.1536809999999917
0
LINE
8
BLACK
6
CONTINUOUS
10
62.2784789999999973
20
-77.1536809999999917
11
62.2051099999999977
21
-77.1975169999999906
0
LINE
8
BLACK
6
CONTINUOUS
10
62.2051099999999977
20
-77.1975169999999906
11
62.1281059999999954
21
-77.2346000000000004
0
LINE
8
BLACK
6
CONTINUOUS
10
62.1281059999999954
20
-77.2346000000000004
11
62.0480889999999974
21
-77.2646309999999943
0
LINE
8
BLACK
6
CONTINUOUS
10
62.0480889999999974
20
-77.2646309999999943
11
61.9657009999999957
21
-77.2873689999999982
0
LINE
8
BLACK
6
CONTINUOUS
10
61.9657009999999957
20
-77.2873689999999982
11
61.8816069999999954
21
-77.3026299999999935
0
LINE
8
BLACK
6
CONTINUOUS
10
61.8816069999999954
20
-77.3026299999999935
11
61.7964839999999995
21
-77.3102909999999923
0
LINE
8
BLACK
6
CONTINUOUS
10
61.7964839999999995
20
-77.3102909999999923
11
61.7110160000000008
21
-77.3102909999999923
0
LINE
8
BLACK
6
CONTINUOUS
10
61.7110160000000008
20
-77.3102909999999923
11
61.6258929999999978
21
-77.3026299999999935
0
LINE
8
BLACK
6
CONTINUOUS
10
61.6258929999999978
20
-77.3026299999999935
11
61.5417989999999975
21
-77.2873689999999982
0
LINE
8
BLACK
6
CONTINUOUS
10
61.5417989999999975
20
-77.2873689999999982
11
61.4594109999999958
21
-77.2646309999999943
0
LINE
8
BLACK
6
CONTINUOUS
10
61.4594109999999958
20
-77.2646309999999943
11
61.3793939999999978
21
-77.2346000000000004
0
LINE
8
BLACK
6
CONTINUOUS
10
61.3793939999999978
20
-77.2346000000000004
11
61.3023899999999955
21
-77.1975169999999906
0
LINE
8
BLACK
6
CONTINUOUS
10
61.3023899999999955
20
-77.1975169999999906
11
61.2290209999999959
21
-77.1536809999999917
0
LINE
8
BLACK
6
CONTINUOUS
10
61.2290209999999959
20
-77.1536809999999917
11
61.159875999999997
21
-77.1034439999999961
0
LINE
8
BLACK
6
CONTINUOUS
10
61.159875999999997
20
-77.1034439999999961
11
61.0955129999999969
21
-77.0472120000000018
0
LINE
8
BLACK
6
CONTINUOUS
10
61.0955129999999969
20
-77.0472120000000018
11
61.0364489999999975
21
-76.9854369999999903
0
LINE
8
BLACK
6
CONTINUOUS
10
61.0364489999999975
20
-76.9854369999999903
11
60.9831609999999955
21
-76.9186150000000026
0
LINE
8
BLACK
6
CONTINUOUS
10
60.9831609999999955
20
-76.9186150000000026
11
60.9360779999999949
21
-76.8472869999999944
0
LINE
8
BLACK
6
CONTINUOUS
10
60.9360779999999949
20
-76.8472869999999944
11
60.8955769999999958
21
-76.7720240000000018
0
LINE
8
BLACK
6
CONTINUOUS
10
60.8955769999999958
20
-76.7720240000000018
11
60.8619859999999946
21
-76.6934349999999938
0
LINE
8
BLACK
6
CONTINUOUS
10
60.8619859999999946
20
-76.6934349999999938
11
60.8355749999999986
21
-76.6121499999999997
0
LINE
8
BLACK
6
CONTINUOUS
10
60.8355749999999986
20
-76.6121499999999997
11
60.816556999999996
21
-76.5288249999999977
0
LINE
8
BLACK
6
CONTINUOUS
10
60.816556999999996
20
-76.5288249999999977
11
60.8050840000000008
21
-76.4441309999999987
0
LINE
8
BLACK
6
CONTINUOUS
10
60.8050840000000008
20
-76.4441309999999987
11
60.801249999999996
21
-76.3587500000000006
0
LINE
8
BLACK
6
CONTINUOUS
10
60.801249999999996
20
-76.3587500000000006
11
60.8039919999999938
21
-76.2976859999999988
0
LINE
8
BLACK
6
CONTINUOUS
10
60.8039919999999938
20
-76.2976859999999988
11
60.801249999999996
21
-76.2803749999999923
0
LINE
8
BLACK
6
CONTINUOUS
10
60.801249999999996
20
-76.2803749999999923
11
60.801249999999996
21
-74.7712499999999949
0
LINE
8
BLACK
6
CONTINUOUS
10
60.801249999999996
20
-74.7712499999999949
11
54.9599629999999948
21
-74.7712499999999949
0
LINE
8
BLACK
6
CONTINUOUS
10
54.9599629999999948
20
-74.7712499999999949
11
54.9357439999999997
21
-74.7674140000000023
0
LINE
8
BLACK
6
CONTINUOUS
10
54.9357439999999997
20
-74.7674140000000023
11
54.9138949999999966
21
-74.7562819999999988
0
LINE
8
BLACK
6
CONTINUOUS
10
54.9138949999999966
20
-74.7562819999999988
11
54.9045439999999942
21
-74.7482940000000013
0
LINE
8
BLACK
6
CONTINUOUS
10
54.9045439999999942
20
-74.7482940000000013
11
52.7279559999999989
21
-72.5717059999999918
0
LINE
8
BLACK
6
CONTINUOUS
10
52.7279559999999989
20
-72.5717059999999918
11
52.7135419999999968
21
-72.5518689999999964
0
LINE
8
BLACK
6
CONTINUOUS
10
52.7135419999999968
20
-72.5518689999999964
11
52.7059649999999991
21
-72.5285480000000007
0
LINE
8
BLACK
6
CONTINUOUS
10
52.7059649999999991
20
-72.5285480000000007
11
52.7049999999999983
21
-72.5162869999999913
0
LINE
8
BLACK
6
CONTINUOUS
10
52.7049999999999983
20
-72.5162869999999913
11
52.7049999999999983
21
-58.6112129999999993
0
LINE
8
BLACK
6
CONTINUOUS
10
52.7049999999999983
20
-58.6112129999999993
11
52.708835999999998
21
-58.5869939999999971
0
LINE
8
BLACK
6
CONTINUOUS
10
52.708835999999998
20
-58.5869939999999971
11
52.7199679999999944
21
-58.565144999999994
0
LINE
8
BLACK
6
CONTINUOUS
10
52.7199679999999944
20
-58.565144999999994
11
52.7279559999999989
21
-58.5557939999999988
0
LINE
8
BLACK
6
CONTINUOUS
10
52.7279559999999989
20
-58.5557939999999988
11
53.7932939999999959
21
-57.4904559999999947
0
LINE
8
BLACK
6
CONTINUOUS
10
53.7932939999999959
20
-57.4904559999999947
11
53.8131309999999985
21
-57.4760419999999996
0
LINE
8
BLACK
6
CONTINUOUS
10
53.8131309999999985
20
-57.4760419999999996
11
53.8364519999999942
21
-57.4684649999999948
0
LINE
8
BLACK
6
CONTINUOUS
10
53.8364519999999942
20
-57.4684649999999948
11
53.8487129999999965
21
-57.467499999999994
0
LINE
8
BLACK
6
CONTINUOUS
10
53.8487129999999965
20
-57.467499999999994
11
64.2937500000000028
21
-57.467499999999994
0
LINE
8
BLACK
6
CONTINUOUS
10
64.2937500000000028
20
-57.467499999999994
11
64.769999999999996
21
-56.9912500000000009
0
LINE
8
BLACK
6
CONTINUOUS
10
64.769999999999996
20
-56.9912500000000009
11
64.7699989999999985
21
-56.9912500000000009
0
LINE
8
BLACK
6
CONTINUOUS
10
64.7699989999999985
20
-56.9912500000000009
11
64.7699989999999985
21
-55.7212499999999977
0
LINE
8
BLACK
6
CONTINUOUS
10
64.7699989999999985
20
-55.7212499999999977
11
65.7224989999999991
21
-55.7212499999999977
0
LINE
8
BLACK
6
CONTINUOUS
10
72.0416069999999991
20
-75.4148699999999934
11
72.1257009999999923
21
-75.4301310000000029
0
LINE
8
BLACK
6
CONTINUOUS
10
72.1257009999999923
20
-75.4301310000000029
11
72.2080890000000011
21
-75.4528689999999926
0
LINE
8
BLACK
6
CONTINUOUS
10
72.2080890000000011
20
-75.4528689999999926
11
72.2881059999999991
21
-75.4829000000000008
0
LINE
8
BLACK
6
CONTINUOUS
10
72.2881059999999991
20
-75.4829000000000008
11
72.3651100000000014
21
-75.5199829999999963
0
LINE
8
BLACK
6
CONTINUOUS
10
72.3651100000000014
20
-75.5199829999999963
11
72.438479000000001
21
-75.5638189999999952
0
LINE
8
BLACK
6
CONTINUOUS
10
72.438479000000001
20
-75.5638189999999952
11
72.5076239999999927
21
-75.6140559999999908
0
LINE
8
BLACK
6
CONTINUOUS
10
72.5076239999999927
20
-75.6140559999999908
11
72.5719869999999929
21
-75.6702879999999993
0
LINE
8
BLACK
6
CONTINUOUS
10
72.5719869999999929
20
-75.6702879999999993
11
72.6310509999999994
21
-75.7320629999999966
0
LINE
8
BLACK
6
CONTINUOUS
10
72.6310509999999994
20
-75.7320629999999966
11
72.6843389999999943
21
-75.7988849999999985
0
LINE
8
BLACK
6
CONTINUOUS
10
72.6843389999999943
20
-75.7988849999999985
11
72.7314219999999949
21
-75.8702129999999926
0
LINE
8
BLACK
6
CONTINUOUS
10
72.7314219999999949
20
-75.8702129999999926
11
72.771923000000001
21
-75.9454759999999993
0
LINE
8
BLACK
6
CONTINUOUS
10
72.771923000000001
20
-75.9454759999999993
11
72.8055140000000023
21
-76.0240649999999931
0
LINE
8
BLACK
6
CONTINUOUS
10
72.8055140000000023
20
-76.0240649999999931
11
72.8319249999999982
21
-76.1053500000000014
0
LINE
8
BLACK
6
CONTINUOUS
10
72.8319249999999982
20
-76.1053500000000014
11
72.8509430000000009
21
-76.1886750000000035
0
LINE
8
BLACK
6
CONTINUOUS
10
72.8509430000000009
20
-76.1886750000000035
11
72.8624159999999961
21
-76.2733690000000024
0
LINE
8
BLACK
6
CONTINUOUS
10
72.8624159999999961
20
-76.2733690000000024
11
72.8662499999999937
21
-76.3587500000000006
0
LINE
8
BLACK
6
CONTINUOUS
10
72.8662499999999937
20
-76.3587500000000006
11
72.8624159999999961
21
-76.4441309999999987
0
LINE
8
BLACK
6
CONTINUOUS
10
72.8624159999999961
20
-76.4441309999999987
11
72.8509430000000009
21
-76.5288249999999977
0
LINE
8
BLACK
6
CONTINUOUS
10
72.8509430000000009
20
-76.5288249999999977
11
72.8319249999999982
21
-76.6121499999999997
0
LINE
8
BLACK
6
CONTINUOUS
10
72.8319249999999982
20
-76.6121499999999997
11
72.8055140000000023
21
-76.6934349999999938
0
LINE
8
BLACK
6
CONTINUOUS
10
72.8055140000000023
20
-76.6934349999999938
11
72.771923000000001
21
-76.7720240000000018
0
LINE
8
BLACK
6
CONTINUOUS
10
72.771923000000001
20
-76.7720240000000018
11
72.7314219999999949
21
-76.8472869999999944
0
LINE
8
BLACK
6
CONTINUOUS
10
72.7314219999999949
20
-76.8472869999999944
11
72.6843389999999943
21
-76.9186150000000026
0
LINE
8
BLACK
6
CONTINUOUS
10
72.6843389999999943
20
-76.9186150000000026
11
72.6310509999999994
21
-76.9854369999999903
0
LINE
8
BLACK
6
CONTINUOUS
10
72.6310509999999994
20
-76.9854369999999903
11
72.5719869999999929
21
-77.0472120000000018
0
LINE
8
BLACK
6
CONTINUOUS
10
72.5719869999999929
20
-77.0472120000000018
11
72.5076239999999927
21
-77.1034439999999961
0
LINE
8
BLACK
6
CONTINUOUS
10
72.5076239999999927
20
-77.1034439999999961
11
72.438479000000001
21
-77.1536809999999917
0
LINE
8
BLACK
6
CONTINUOUS
10
72.438479000000001
20
-77.1536809999999917
11
72.3651100000000014
21
-77.1975169999999906
0
LINE
8
BLACK
6
CONTINUOUS
10
72.3651100000000014
20
-77.1975169999999906
11
72.2881059999999991
21
-77.2346000000000004
0
LINE
8
BLACK
6
CONTINUOUS
10
72.2881059999999991
20
-77.2346000000000004
11
72.2080890000000011
21
-77.2646309999999943
0
LINE
8
BLACK
6
CONTINUOUS
10
72.2080890000000011
20
-77.2646309999999943
11
72.1257009999999923
21
-77.2873689999999982
0
LINE
8
BLACK
6
CONTINUOUS
10
72.1257009999999923
20
-77.2873689999999982
11
72.0416069999999991
21
-77.3026299999999935
0
LINE
8
BLACK
6
CONTINUOUS
10
72.0416069999999991
20
-77.3026299999999935
11
71.9564840000000032
21
-77.3102909999999923
0
LINE
8
BLACK
6
CONTINUOUS
10
71.9564840000000032
20
-77.3102909999999923
11
71.8710159999999973
21
-77.3102909999999923
0
LINE
8
BLACK
6
CONTINUOUS
10
71.8710159999999973
20
-77.3102909999999923
11
71.7858930000000015
21
-77.3026299999999935
0
LINE
8
BLACK
6
CONTINUOUS
10
71.7858930000000015
20
-77.3026299999999935
11
71.7017989999999941
21
-77.2873689999999982
0
LINE
8
BLACK
6
CONTINUOUS
10
71.7017989999999941
20
-77.2873689999999982
11
71.6194109999999995
21
-77.2646309999999943
0
LINE
8
BLACK
6
CONTINUOUS
10
71.6194109999999995
20
-77.2646309999999943
11
71.5393940000000015
21
-77.2346000000000004
0
LINE
8
BLACK
6
CONTINUOUS
10
71.5393940000000015
20
-77.2346000000000004
11
71.4623899999999992
21
-77.1975169999999906
0
LINE
8
BLACK
6
CONTINUOUS
10
71.4623899999999992
20
-77.1975169999999906
11
71.3890209999999996
21
-77.1536809999999917
0
LINE
8
BLACK
6
CONTINUOUS
10
71.3890209999999996
20
-77.1536809999999917
11
71.3198759999999936
21
-77.1034439999999961
0
LINE
8
BLACK
6
CONTINUOUS
10
71.3198759999999936
20
-77.1034439999999961
11
71.2555129999999934
21
-77.0472120000000018
0
LINE
8
BLACK
6
CONTINUOUS
10
71.2555129999999934
20
-77.0472120000000018
11
71.1964490000000012
21
-76.9854369999999903
0
LINE
8
BLACK
6
CONTINUOUS
10
71.1964490000000012
20
-76.9854369999999903
11
71.1431609999999921
21
-76.9186150000000026
0
LINE
8
BLACK
6
CONTINUOUS
10
71.1431609999999921
20
-76.9186150000000026
11
71.0960779999999914
21
-76.8472869999999944
0
LINE
8
BLACK
6
CONTINUOUS
10
71.0960779999999914
20
-76.8472869999999944
11
71.0555769999999995
21
-76.7720240000000018
0
LINE
8
BLACK
6
CONTINUOUS
10
71.0555769999999995
20
-76.7720240000000018
11
71.0219859999999983
21
-76.6934349999999938
0
LINE
8
BLACK
6
CONTINUOUS
10
71.0219859999999983
20
-76.6934349999999938
11
70.9955750000000023
21
-76.6121499999999997
0
LINE
8
BLACK
6
CONTINUOUS
10
70.9955750000000023
20
-76.6121499999999997
11
70.9765569999999997
21
-76.5288249999999977
0
LINE
8
BLACK
6
CONTINUOUS
10
70.9765569999999997
20
-76.5288249999999977
11
70.9650839999999903
21
-76.4441309999999987
0
LINE
8
BLACK
6
CONTINUOUS
10
70.9650839999999903
20
-76.4441309999999987
11
70.9612499999999926
21
-76.3587500000000006
0
LINE
8
BLACK
6
CONTINUOUS
10
70.9612499999999926
20
-76.3587500000000006
11
70.9650839999999903
21
-76.2733690000000024
0
LINE
8
BLACK
6
CONTINUOUS
10
70.9650839999999903
20
-76.2733690000000024
11
70.9765569999999997
21
-76.1886750000000035
0
LINE
8
BLACK
6
CONTINUOUS
10
70.9765569999999997
20
-76.1886750000000035
11
70.9955750000000023
21
-76.1053500000000014
0
LINE
8
BLACK
6
CONTINUOUS
10
70.9955750000000023
20
-76.1053500000000014
11
71.0219859999999983
21
-76.0240649999999931
0
LINE
8
BLACK
6
CONTINUOUS
10
71.0219859999999983
20
-76.0240649999999931
11
71.0555769999999995
21
-75.9454759999999993
0
LINE
8
BLACK
6
CONTINUOUS
10
71.0555769999999995
20
-75.9454759999999993
11
71.0960779999999914
21
-75.8702129999999926
0
LINE
8
BLACK
6
CONTINUOUS
10
71.0960779999999914
20
-75.8702129999999926
11
71.1431609999999921
21
-75.7988849999999985
0
LINE
8
BLACK
6
CONTINUOUS
10
71.1431609999999921
20
-75.7988849999999985
11
71.1964490000000012
21
-75.7320629999999966
0
LINE
8
BLACK
6
CONTINUOUS
10
71.1964490000000012
20
-75.7320629999999966
11
71.2555129999999934
21
-75.6702879999999993
0
LINE
8
BLACK
6
CONTINUOUS
10
71.2555129999999934
20
-75.6702879999999993
11
71.3198759999999936
21
-75.6140559999999908
0
LINE
8
BLACK
6
CONTINUOUS
10
71.3198759999999936
20
-75.6140559999999908
11
71.3890209999999996
21
-75.5638189999999952
0
LINE
8
BLACK
6
CONTINUOUS
10
71.3890209999999996
20
-75.5638189999999952
11
71.4623899999999992
21
-75.5199829999999963
0
LINE
8
BLACK
6
CONTINUOUS
10
71.4623899999999992
20
-75.5199829999999963
11
71.5393940000000015
21
-75.4829000000000008
0
LINE
8
BLACK
6
CONTINUOUS
10
71.5393940000000015
20
-75.4829000000000008
11
71.6194109999999995
21
-75.4528689999999926
0
LINE
8
BLACK
6
CONTINUOUS
10
71.6194109999999995
20
-75.4528689999999926
11
71.7017989999999941
21
-75.4301310000000029
0
LINE
8
BLACK
6
CONTINUOUS
10
71.7017989999999941
20
-75.4301310000000029
11
71.7858930000000015
21
-75.4148699999999934
0
LINE
8
BLACK
6
CONTINUOUS
10
71.7858930000000015
20
-75.4148699999999934
11
71.8710159999999973
21
-75.4072089999999946
0
LINE
8
BLACK
6
CONTINUOUS
10
71.8710159999999973
20
-75.4072089999999946
11
71.9564840000000032
21
-75.4072089999999946
0
LINE
8
BLACK
6
CONTINUOUS
10
71.9564840000000032
20
-75.4072089999999946
11
72.0416069999999991
21
-75.4148699999999934
0
LINE
8
BLACK
6
CONTINUOUS
10
69.5324999999999989
20
-61.2774999999999963
11
69.2150000000000034
21
-61.2774999999999963
0
LINE
8
BLACK
6
CONTINUOUS
10
69.2150000000000034
20
-61.2774999999999963
11
69.2150000000000034
21
-62.4432239999999936
0
LINE
8
BLACK
6
CONTINUOUS
10
69.2150000000000034
20
-62.4432239999999936
11
70.1130259999999907
21
-63.3412499999999952
0
LINE
8
BLACK
6
CONTINUOUS
10
70.1130259999999907
20
-63.3412499999999952
11
73.0249999999999915
21
-63.3412499999999952
0
LINE
8
BLACK
6
CONTINUOUS
10
73.0249999999999915
20
-63.3412499999999952
11
73.0606049999999954
21
-63.3422489999999954
0
LINE
8
BLACK
6
CONTINUOUS
10
73.0606049999999954
20
-63.3422489999999954
11
73.1313669999999973
21
-63.3502219999999951
0
LINE
8
BLACK
6
CONTINUOUS
10
73.1313669999999973
20
-63.3502219999999951
11
73.2007909999999953
21
-63.3660679999999985
0
LINE
8
BLACK
6
CONTINUOUS
10
73.2007909999999953
20
-63.3660679999999985
11
73.2680039999999906
21
-63.3895859999999942
0
LINE
8
BLACK
6
CONTINUOUS
10
73.2680039999999906
20
-63.3895859999999942
11
73.3321609999999993
21
-63.4204829999999973
0
LINE
8
BLACK
6
CONTINUOUS
10
73.3321609999999993
20
-63.4204829999999973
11
73.3924569999999932
21
-63.4583689999999976
0
LINE
8
BLACK
6
CONTINUOUS
10
73.3924569999999932
20
-63.4583689999999976
11
73.4481299999999919
21
-63.5027669999999986
0
LINE
8
BLACK
6
CONTINUOUS
10
73.4481299999999919
20
-63.5027669999999986
11
73.4740129999999994
21
-63.5272369999999995
0
LINE
8
BLACK
6
CONTINUOUS
10
73.4740129999999994
20
-63.5272369999999995
11
74.7440129999999954
21
-64.7972369999999955
0
LINE
8
BLACK
6
CONTINUOUS
10
74.7440129999999954
20
-64.7972369999999955
11
74.7684830000000034
21
-64.823120000000003
0
LINE
8
BLACK
6
CONTINUOUS
10
74.7684830000000034
20
-64.823120000000003
11
74.8128809999999902
21
-64.8787930000000017
0
LINE
8
BLACK
6
CONTINUOUS
10
74.8128809999999902
20
-64.8787930000000017
11
74.8507669999999905
21
-64.9390889999999956
0
LINE
8
BLACK
6
CONTINUOUS
10
74.8507669999999905
20
-64.9390889999999956
11
74.8816640000000007
21
-65.0032459999999901
0
LINE
8
BLACK
6
CONTINUOUS
10
74.8816640000000007
20
-65.0032459999999901
11
74.9051819999999964
21
-65.0704589999999996
0
LINE
8
BLACK
6
CONTINUOUS
10
74.9051819999999964
20
-65.0704589999999996
11
74.9210279999999926
21
-65.1398829999999975
0
LINE
8
BLACK
6
CONTINUOUS
10
74.9210279999999926
20
-65.1398829999999975
11
74.9290009999999995
21
-65.2106449999999995
0
LINE
8
BLACK
6
CONTINUOUS
10
74.9290009999999995
20
-65.2106449999999995
11
74.9299999999999926
21
-65.2462500000000034
0
LINE
8
BLACK
6
CONTINUOUS
10
74.9299999999999926
20
-65.2462500000000034
11
74.9299999999999926
21
-72.8662499999999937
0
LINE
8
BLACK
6
CONTINUOUS
10
74.9299999999999926
20
-72.8662499999999937
11
74.9290009999999995
21
-72.9018549999999976
0
LINE
8
BLACK
6
CONTINUOUS
10
74.9290009999999995
20
-72.9018549999999976
11
74.9210279999999926
21
-72.9726169999999996
0
LINE
8
BLACK
6
CONTINUOUS
10
74.9210279999999926
20
-72.9726169999999996
11
74.9051819999999964
21
-73.0420409999999976
0
LINE
8
BLACK
6
CONTINUOUS
10
74.9051819999999964
20
-73.0420409999999976
11
74.8816640000000007
21
-73.1092549999999903
0
LINE
8
BLACK
6
CONTINUOUS
10
74.8816640000000007
20
-73.1092549999999903
11
74.8507669999999905
21
-73.1734110000000015
0
LINE
8
BLACK
6
CONTINUOUS
10
74.8507669999999905
20
-73.1734110000000015
11
74.844270999999992
21
-73.1837500000000034
0
LINE
8
BLACK
6
CONTINUOUS
10
74.844270999999992
20
-73.1837500000000034
11
74.8128799999999927
21
-73.2337069999999954
0
LINE
8
BLACK
6
CONTINUOUS
10
74.8128799999999927
20
-73.2337069999999954
11
74.7684830000000034
21
-73.2893799999999942
0
LINE
8
BLACK
6
CONTINUOUS
10
74.7684830000000034
20
-73.2893799999999942
11
74.7440129999999954
21
-73.3152630000000016
0
LINE
8
BLACK
6
CONTINUOUS
10
74.7440129999999954
20
-73.3152630000000016
11
73.7915129999999948
21
-74.2677630000000022
0
LINE
8
BLACK
6
CONTINUOUS
10
73.7915129999999948
20
-74.2677630000000022
11
73.7656300000000016
21
-74.292232999999996
0
LINE
8
BLACK
6
CONTINUOUS
10
73.7656300000000016
20
-74.292232999999996
11
73.7099570000000028
21
-74.336630999999997
0
LINE
8
BLACK
6
CONTINUOUS
10
73.7099570000000028
20
-74.336630999999997
11
73.6496609999999947
21
-74.3745169999999973
0
LINE
8
BLACK
6
CONTINUOUS
10
73.6496609999999947
20
-74.3745169999999973
11
73.5855040000000002
21
-74.4054139999999933
0
LINE
8
BLACK
6
CONTINUOUS
10
73.5855040000000002
20
-74.4054139999999933
11
73.5182909999999907
21
-74.4289320000000032
0
LINE
8
BLACK
6
CONTINUOUS
10
73.5182909999999907
20
-74.4289320000000032
11
73.4488669999999928
21
-74.4447779999999995
0
LINE
8
BLACK
6
CONTINUOUS
10
73.4488669999999928
20
-74.4447779999999995
11
73.3781049999999908
21
-74.4527509999999921
0
LINE
8
BLACK
6
CONTINUOUS
10
73.3781049999999908
20
-74.4527509999999921
11
73.3425000000000011
21
-74.4537499999999994
0
LINE
8
BLACK
6
CONTINUOUS
10
73.3425000000000011
20
-74.4537499999999994
11
72.6231030000000004
21
-74.4537499999999994
0
LINE
8
BLACK
6
CONTINUOUS
10
72.6231030000000004
20
-74.4537499999999994
11
72.5719869999999929
21
-74.5072119999999956
0
LINE
8
BLACK
6
CONTINUOUS
10
72.5719869999999929
20
-74.5072119999999956
11
72.5076239999999927
21
-74.5634439999999898
0
LINE
8
BLACK
6
CONTINUOUS
10
72.5076239999999927
20
-74.5634439999999898
11
72.438479000000001
21
-74.6136809999999997
0
LINE
8
BLACK
6
CONTINUOUS
10
72.438479000000001
20
-74.6136809999999997
11
72.3651100000000014
21
-74.6575169999999986
0
LINE
8
BLACK
6
CONTINUOUS
10
72.3651100000000014
20
-74.6575169999999986
11
72.2881059999999991
21
-74.6945999999999941
0
LINE
8
BLACK
6
CONTINUOUS
10
72.2881059999999991
20
-74.6945999999999941
11
72.2080890000000011
21
-74.7246310000000022
0
LINE
8
BLACK
6
CONTINUOUS
10
72.2080890000000011
20
-74.7246310000000022
11
72.1257009999999923
21
-74.747368999999992
0
LINE
8
BLACK
6
CONTINUOUS
10
72.1257009999999923
20
-74.747368999999992
11
72.0416069999999991
21
-74.7626300000000015
0
LINE
8
BLACK
6
CONTINUOUS
10
72.0416069999999991
20
-74.7626300000000015
11
71.9564840000000032
21
-74.7702910000000003
0
LINE
8
BLACK
6
CONTINUOUS
10
71.9564840000000032
20
-74.7702910000000003
11
71.8710159999999973
21
-74.7702910000000003
0
LINE
8
BLACK
6
CONTINUOUS
10
71.8710159999999973
20
-74.7702910000000003
11
71.7858930000000015
21
-74.7626300000000015
0
LINE
8
BLACK
6
CONTINUOUS
10
71.7858930000000015
20
-74.7626300000000015
11
71.7017989999999941
21
-74.747368999999992
0
LINE
8
BLACK
6
CONTINUOUS
10
71.7017989999999941
20
-74.747368999999992
11
71.6194109999999995
21
-74.7246310000000022
0
LINE
8
BLACK
6
CONTINUOUS
10
71.6194109999999995
20
-74.7246310000000022
11
71.5393940000000015
21
-74.6945999999999941
0
LINE
8
BLACK
6
CONTINUOUS
10
71.5393940000000015
20
-74.6945999999999941
11
71.4623899999999992
21
-74.6575169999999986
0
LINE
8
BLACK
6
CONTINUOUS
10
71.4623899999999992
20
-74.6575169999999986
11
71.3890209999999996
21
-74.6136809999999997
0
LINE
8
BLACK
6
CONTINUOUS
10
71.3890209999999996
20
-74.6136809999999997
11
71.3198759999999936
21
-74.5634439999999898
0
LINE
8
BLACK
6
CONTINUOUS
10
71.3198759999999936
20
-74.5634439999999898
11
71.2555129999999934
21
-74.5072119999999956
0
LINE
8
BLACK
6
CONTINUOUS
10
71.2555129999999934
20
-74.5072119999999956
11
71.1964490000000012
21
-74.4454369999999983
0
LINE
8
BLACK
6
CONTINUOUS
10
71.1964490000000012
20
-74.4454369999999983
11
71.1431609999999921
21
-74.3786149999999964
0
LINE
8
BLACK
6
CONTINUOUS
10
71.1431609999999921
20
-74.3786149999999964
11
71.0960779999999914
21
-74.3072870000000023
0
LINE
8
BLACK
6
CONTINUOUS
10
71.0960779999999914
20
-74.3072870000000023
11
71.0555769999999995
21
-74.2320239999999956
0
LINE
8
BLACK
6
CONTINUOUS
10
71.0555769999999995
20
-74.2320239999999956
11
71.0219859999999983
21
-74.1534350000000018
0
LINE
8
BLACK
6
CONTINUOUS
10
71.0219859999999983
20
-74.1534350000000018
11
70.9955750000000023
21
-74.0721499999999935
0
LINE
8
BLACK
6
CONTINUOUS
10
70.9955750000000023
20
-74.0721499999999935
11
70.9765569999999997
21
-73.9888249999999914
0
LINE
8
BLACK
6
CONTINUOUS
10
70.9765569999999997
20
-73.9888249999999914
11
70.9650839999999903
21
-73.9041309999999925
0
LINE
8
BLACK
6
CONTINUOUS
10
70.9650839999999903
20
-73.9041309999999925
11
70.9612499999999926
21
-73.8187499999999943
0
LINE
8
BLACK
6
CONTINUOUS
10
70.9612499999999926
20
-73.8187499999999943
11
70.9650839999999903
21
-73.7333689999999962
0
LINE
8
BLACK
6
CONTINUOUS
10
70.9650839999999903
20
-73.7333689999999962
11
70.9765569999999997
21
-73.6486749999999972
0
LINE
8
BLACK
6
CONTINUOUS
10
70.9765569999999997
20
-73.6486749999999972
11
70.9955750000000023
21
-73.5653499999999951
0
LINE
8
BLACK
6
CONTINUOUS
10
70.9955750000000023
20
-73.5653499999999951
11
71.0219859999999983
21
-73.4840650000000011
0
LINE
8
BLACK
6
CONTINUOUS
10
71.0219859999999983
20
-73.4840650000000011
11
71.0555769999999995
21
-73.4054759999999931
0
LINE
8
BLACK
6
CONTINUOUS
10
71.0555769999999995
20
-73.4054759999999931
11
71.0960779999999914
21
-73.3302130000000005
0
LINE
8
BLACK
6
CONTINUOUS
10
71.0960779999999914
20
-73.3302130000000005
11
71.1431609999999921
21
-73.2588849999999923
0
LINE
8
BLACK
6
CONTINUOUS
10
71.1431609999999921
20
-73.2588849999999923
11
71.1964490000000012
21
-73.1920629999999903
0
LINE
8
BLACK
6
CONTINUOUS
10
71.1964490000000012
20
-73.1920629999999903
11
71.2555129999999934
21
-73.1302879999999931
0
LINE
8
BLACK
6
CONTINUOUS
10
71.2555129999999934
20
-73.1302879999999931
11
71.3198759999999936
21
-73.0740559999999988
0
LINE
8
BLACK
6
CONTINUOUS
10
71.3198759999999936
20
-73.0740559999999988
11
71.3890209999999996
21
-73.0238190000000031
0
LINE
8
BLACK
6
CONTINUOUS
10
71.3890209999999996
20
-73.0238190000000031
11
71.4623899999999992
21
-72.9799829999999901
0
LINE
8
BLACK
6
CONTINUOUS
10
71.4623899999999992
20
-72.9799829999999901
11
71.5393940000000015
21
-72.9428999999999945
0
LINE
8
BLACK
6
CONTINUOUS
10
71.5393940000000015
20
-72.9428999999999945
11
71.6194109999999995
21
-72.9128690000000006
0
LINE
8
BLACK
6
CONTINUOUS
10
71.6194109999999995
20
-72.9128690000000006
11
71.7017989999999941
21
-72.8901309999999967
0
LINE
8
BLACK
6
CONTINUOUS
10
71.7017989999999941
20
-72.8901309999999967
11
71.7858930000000015
21
-72.8748700000000014
0
LINE
8
BLACK
6
CONTINUOUS
10
71.7858930000000015
20
-72.8748700000000014
11
71.8710159999999973
21
-72.8672090000000026
0
LINE
8
BLACK
6
CONTINUOUS
10
71.8710159999999973
20
-72.8672090000000026
11
71.9564840000000032
21
-72.8672090000000026
0
LINE
8
BLACK
6
CONTINUOUS
10
71.9564840000000032
20
-72.8672090000000026
11
72.0416069999999991
21
-72.8748700000000014
0
LINE
8
BLACK
6
CONTINUOUS
10
72.0416069999999991
20
-72.8748700000000014
11
72.1257009999999923
21
-72.8901309999999967
0
LINE
8
BLACK
6
CONTINUOUS
10
72.1257009999999923
20
-72.8901309999999967
11
72.2080890000000011
21
-72.9128690000000006
0
LINE
8
BLACK
6
CONTINUOUS
10
72.2080890000000011
20
-72.9128690000000006
11
72.2881059999999991
21
-72.9428999999999945
0
LINE
8
BLACK
6
CONTINUOUS
10
72.2881059999999991
20
-72.9428999999999945
11
72.3651100000000014
21
-72.9799829999999901
0
LINE
8
BLACK
6
CONTINUOUS
10
72.3651100000000014
20
-72.9799829999999901
11
72.438479000000001
21
-73.0238190000000031
0
LINE
8
BLACK
6
CONTINUOUS
10
72.438479000000001
20
-73.0238190000000031
11
72.5076239999999927
21
-73.0740559999999988
0
LINE
8
BLACK
6
CONTINUOUS
10
72.5076239999999927
20
-73.0740559999999988
11
72.5719869999999929
21
-73.1302879999999931
0
LINE
8
BLACK
6
CONTINUOUS
10
72.5719869999999929
20
-73.1302879999999931
11
72.6231030000000004
21
-73.1837500000000034
0
LINE
8
BLACK
6
CONTINUOUS
10
72.6231030000000004
20
-73.1837500000000034
11
73.0794739999999905
21
-73.1837500000000034
0
LINE
8
BLACK
6
CONTINUOUS
10
73.0794739999999905
20
-73.1837500000000034
11
73.6599999999999966
21
-72.6032239999999973
0
LINE
8
BLACK
6
CONTINUOUS
10
73.6599999999999966
20
-72.6032239999999973
11
73.6599999999999966
21
-65.5092759999999998
0
LINE
8
BLACK
6
CONTINUOUS
10
73.6599999999999966
20
-65.5092759999999998
11
72.761973999999995
21
-64.6112499999999983
0
LINE
8
BLACK
6
CONTINUOUS
10
72.761973999999995
20
-64.6112499999999983
11
69.8499999999999943
21
-64.6112499999999983
0
LINE
8
BLACK
6
CONTINUOUS
10
69.8499999999999943
20
-64.6112499999999983
11
69.8143949999999904
21
-64.610250999999991
0
LINE
8
BLACK
6
CONTINUOUS
10
69.8143949999999904
20
-64.610250999999991
11
69.7436330000000027
21
-64.6022779999999983
0
LINE
8
BLACK
6
CONTINUOUS
10
69.7436330000000027
20
-64.6022779999999983
11
69.6742089999999905
21
-64.5864320000000021
0
LINE
8
BLACK
6
CONTINUOUS
10
69.6742089999999905
20
-64.5864320000000021
11
69.6069959999999952
21
-64.5629139999999921
0
LINE
8
BLACK
6
CONTINUOUS
10
69.6069959999999952
20
-64.5629139999999921
11
69.5428390000000007
21
-64.5320169999999962
0
LINE
8
BLACK
6
CONTINUOUS
10
69.5428390000000007
20
-64.5320169999999962
11
69.4825429999999926
21
-64.4941309999999959
0
LINE
8
BLACK
6
CONTINUOUS
10
69.4825429999999926
20
-64.4941309999999959
11
69.4268699999999939
21
-64.4497329999999948
0
LINE
8
BLACK
6
CONTINUOUS
10
69.4268699999999939
20
-64.4497329999999948
11
69.4009870000000006
21
-64.4252630000000011
0
LINE
8
BLACK
6
CONTINUOUS
10
69.4009870000000006
20
-64.4252630000000011
11
68.1309869999999904
21
-63.1552629999999979
0
LINE
8
BLACK
6
CONTINUOUS
10
68.1309869999999904
20
-63.1552629999999979
11
68.1065169999999966
21
-63.1293799999999976
0
LINE
8
BLACK
6
CONTINUOUS
10
68.1065169999999966
20
-63.1293799999999976
11
68.0621189999999956
21
-63.0737069999999989
0
LINE
8
BLACK
6
CONTINUOUS
10
68.0621189999999956
20
-63.0737069999999989
11
68.0242329999999953
21
-63.0134109999999978
0
LINE
8
BLACK
6
CONTINUOUS
10
68.0242329999999953
20
-63.0134109999999978
11
67.9933359999999993
21
-62.9492539999999963
0
LINE
8
BLACK
6
CONTINUOUS
10
67.9933359999999993
20
-62.9492539999999963
11
67.9698180000000036
21
-62.8820409999999939
0
LINE
8
BLACK
6
CONTINUOUS
10
67.9698180000000036
20
-62.8820409999999939
11
67.9539719999999932
21
-62.8126169999999959
0
LINE
8
BLACK
6
CONTINUOUS
10
67.9539719999999932
20
-62.8126169999999959
11
67.9459990000000005
21
-62.7418549999999939
0
LINE
8
BLACK
6
CONTINUOUS
10
67.9459990000000005
20
-62.7418549999999939
11
67.9449999999999932
21
-62.7062499999999972
0
LINE
8
BLACK
6
CONTINUOUS
10
67.9449999999999932
20
-62.7062499999999972
11
67.9449999999999932
21
-61.2774999999999963
0
LINE
8
BLACK
6
CONTINUOUS
10
67.9449999999999932
20
-61.2774999999999963
11
67.6274999999999977
21
-61.2774999999999963
0
LINE
8
BLACK
6
CONTINUOUS
10
67.6274999999999977
20
-61.2774999999999963
11
67.6274999999999977
21
-59.0549999999999997
0
LINE
8
BLACK
6
CONTINUOUS
10
67.6274999999999977
20
-59.0549999999999997
11
69.5324999999999989
21
-59.0549999999999997
0
LINE
8
BLACK
6
CONTINUOUS
10
69.5324999999999989
20
-59.0549999999999997
11
69.5324999999999989
21
-61.2774999999999963
0
LINE
8
BLACK
6
CONTINUOUS
10
58.6098979999999941
20
-64.6122699999999952
11
58.6098989999999986
21
-64.6122699999999952
0
LINE
8
BLACK
6
CONTINUOUS
10
58.6098989999999986
20
-64.6122699999999952
11
58.6170829999999938
21
-64.6132159999999942
0
LINE
8
BLACK
6
CONTINUOUS
10
58.6170829999999938
20
-64.6132159999999942
11
58.6716619999999978
21
-64.6204010000000011
0
LINE
8
BLACK
6
CONTINUOUS
10
58.6716619999999978
20
-64.6204010000000011
11
58.7017489999999995
21
-64.6284629999999964
0
LINE
8
BLACK
6
CONTINUOUS
10
58.7017489999999995
20
-64.6284629999999964
11
58.7318359999999942
21
-64.6365239999999943
0
LINE
8
BLACK
6
CONTINUOUS
10
58.7318359999999942
20
-64.6365239999999943
11
58.7725319999999982
21
-64.653380999999996
0
LINE
8
BLACK
6
CONTINUOUS
10
58.7725319999999982
20
-64.653380999999996
11
58.7893899999999974
21
-64.6603640000000013
0
LINE
8
BLACK
6
CONTINUOUS
10
58.7893899999999974
20
-64.6603640000000013
11
58.8091359999999952
21
-64.6717649999999935
0
LINE
8
BLACK
6
CONTINUOUS
10
58.8091359999999952
20
-64.6717649999999935
11
58.8433399999999978
21
-64.691512000000003
0
LINE
8
BLACK
6
CONTINUOUS
10
58.8433399999999978
20
-64.691512000000003
11
58.8680509999999941
21
-64.7104739999999907
0
LINE
8
BLACK
6
CONTINUOUS
10
58.8680509999999941
20
-64.7104739999999907
11
58.8927629999999951
21
-64.7294359999999926
0
LINE
8
BLACK
6
CONTINUOUS
10
58.8927629999999951
20
-64.7294359999999926
11
58.8927779999999998
21
-64.7294509999999974
0
LINE
8
BLACK
6
CONTINUOUS
10
58.8927779999999998
20
-64.7294509999999974
11
58.9155099999999976
21
-64.7507399999999933
0
LINE
8
BLACK
6
CONTINUOUS
10
58.9155099999999976
20
-64.7507399999999933
11
60.1855089999999961
21
-66.0207400000000035
0
LINE
8
BLACK
6
CONTINUOUS
10
60.1855089999999961
20
-66.0207400000000035
11
60.2068129999999968
21
-66.0434860000000015
0
LINE
8
BLACK
6
CONTINUOUS
10
60.2068129999999968
20
-66.0434860000000015
11
60.2068139999999943
21
-66.0434869999999989
0
LINE
8
BLACK
6
CONTINUOUS
10
60.2068139999999943
20
-66.0434869999999989
11
60.2447370000000006
21
-66.0929100000000034
0
LINE
8
BLACK
6
CONTINUOUS
10
60.2447370000000006
20
-66.0929100000000034
11
60.2758859999999999
21
-66.1468600000000038
0
LINE
8
BLACK
6
CONTINUOUS
10
60.2758859999999999
20
-66.1468600000000038
11
60.2898499999999942
21
-66.1805739999999929
0
LINE
8
BLACK
6
CONTINUOUS
10
60.2898499999999942
20
-66.1805739999999929
11
60.2997259999999997
21
-66.2044139999999999
0
LINE
8
BLACK
6
CONTINUOUS
10
60.2997259999999997
20
-66.2044139999999999
11
60.3077869999999976
21
-66.2345009999999945
0
LINE
8
BLACK
6
CONTINUOUS
10
60.3077869999999976
20
-66.2345009999999945
11
60.315849
21
-66.2645880000000034
0
LINE
8
BLACK
6
CONTINUOUS
10
60.315849
20
-66.2645880000000034
11
60.3239799999999988
21
-66.326352
0
LINE
8
BLACK
6
CONTINUOUS
10
60.3239799999999988
20
-66.326352
11
60.3249999999999957
21
-66.3575000000000017
0
LINE
8
BLACK
6
CONTINUOUS
10
60.3249999999999957
20
-66.3575000000000017
11
60.3249999999999957
21
-68.5414799999999929
0
LINE
8
BLACK
6
CONTINUOUS
10
60.3249999999999957
20
-68.5414799999999929
11
61.1572689999999994
21
-69.3737500000000011
0
LINE
8
BLACK
6
CONTINUOUS
10
61.1572689999999994
20
-69.3737500000000011
11
64.7314799999999906
21
-69.3737500000000011
0
LINE
8
BLACK
6
CONTINUOUS
10
64.7314799999999906
20
-69.3737500000000011
11
65.0874999999999915
21
-69.0177300000000002
0
LINE
8
BLACK
6
CONTINUOUS
10
65.0874999999999915
20
-69.0177300000000002
11
65.0874999999999915
21
-68.8974999999999937
0
LINE
8
BLACK
6
CONTINUOUS
10
65.0874999999999915
20
-68.8974999999999937
11
65.0874999999999915
21
-66.6749999999999972
0
LINE
8
BLACK
6
CONTINUOUS
10
65.0874999999999915
20
-66.6749999999999972
11
66.9924999999999926
21
-66.6749999999999972
0
LINE
8
BLACK
6
CONTINUOUS
10
66.9924999999999926
20
-66.6749999999999972
11
66.9924999999999926
21
-68.8974999999999937
0
LINE
8
BLACK
6
CONTINUOUS
10
66.9924999999999926
20
-68.8974999999999937
11
66.039999999999992
21
-68.8974999999999937
0
LINE
8
BLACK
6
CONTINUOUS
10
66.039999999999992
20
-68.8974999999999937
11
66.039999999999992
21
-69.2150000000000034
0
LINE
8
BLACK
6
CONTINUOUS
10
66.039999999999992
20
-69.2150000000000034
11
66.0389799999999951
21
-69.2461479999999909
0
LINE
8
BLACK
6
CONTINUOUS
10
66.0389799999999951
20
-69.2461479999999909
11
66.0308490000000035
21
-69.3079109999999901
0
LINE
8
BLACK
6
CONTINUOUS
10
66.0308490000000035
20
-69.3079109999999901
11
66.014725999999996
21
-69.368085999999991
0
LINE
8
BLACK
6
CONTINUOUS
10
66.014725999999996
20
-69.368085999999991
11
66.0085890000000006
21
-69.3829010000000039
0
LINE
8
BLACK
6
CONTINUOUS
10
66.0085890000000006
20
-69.3829010000000039
11
65.9908860000000033
21
-69.4256400000000014
0
LINE
8
BLACK
6
CONTINUOUS
10
65.9908860000000033
20
-69.4256400000000014
11
65.9794839999999994
21
-69.4453859999999992
0
LINE
8
BLACK
6
CONTINUOUS
10
65.9794839999999994
20
-69.4453859999999992
11
65.9597380000000015
21
-69.4795900000000017
0
LINE
8
BLACK
6
CONTINUOUS
10
65.9597380000000015
20
-69.4795900000000017
11
65.9218139999999977
21
-69.529012999999992
0
LINE
8
BLACK
6
CONTINUOUS
10
65.9218139999999977
20
-69.529012999999992
11
65.900509999999997
21
-69.5517589999999899
0
LINE
8
BLACK
6
CONTINUOUS
10
65.900509999999997
20
-69.5517589999999899
11
65.2655099999999919
21
-70.1867599999999925
0
LINE
8
BLACK
6
CONTINUOUS
10
65.2655099999999919
20
-70.1867599999999925
11
65.2427780000000013
21
-70.2080479999999909
0
LINE
8
BLACK
6
CONTINUOUS
10
65.2427780000000013
20
-70.2080479999999909
11
65.2427629999999965
21
-70.2080639999999931
0
LINE
8
BLACK
6
CONTINUOUS
10
65.2427629999999965
20
-70.2080639999999931
11
65.2180510000000027
21
-70.2270249999999976
0
LINE
8
BLACK
6
CONTINUOUS
10
65.2180510000000027
20
-70.2270249999999976
11
65.1933399999999921
21
-70.245987999999997
0
LINE
8
BLACK
6
CONTINUOUS
10
65.1933399999999921
20
-70.245987999999997
11
65.1683560000000028
21
-70.2604120000000023
0
LINE
8
BLACK
6
CONTINUOUS
10
65.1683560000000028
20
-70.2604120000000023
11
65.1393899999999917
21
-70.2771359999999987
0
LINE
8
BLACK
6
CONTINUOUS
10
65.1393899999999917
20
-70.2771359999999987
11
65.1225319999999925
21
-70.2841179999999923
0
LINE
8
BLACK
6
CONTINUOUS
10
65.1225319999999925
20
-70.2841179999999923
11
65.0818359999999956
21
-70.3009759999999915
0
LINE
8
BLACK
6
CONTINUOUS
10
65.0818359999999956
20
-70.3009759999999915
11
65.0517490000000009
21
-70.3090370000000036
0
LINE
8
BLACK
6
CONTINUOUS
10
65.0517490000000009
20
-70.3090370000000036
11
65.0216619999999921
21
-70.3170989999999989
0
LINE
8
BLACK
6
CONTINUOUS
10
65.0216619999999921
20
-70.3170989999999989
11
64.9670830000000024
21
-70.3242829999999941
0
LINE
8
BLACK
6
CONTINUOUS
10
64.9670830000000024
20
-70.3242829999999941
11
64.959898999999993
21
-70.3252299999999906
0
LINE
8
BLACK
6
CONTINUOUS
10
64.959898999999993
20
-70.3252299999999906
11
64.9598979999999955
21
-70.3252299999999906
0
LINE
8
BLACK
6
CONTINUOUS
10
64.9598979999999955
20
-70.3252299999999906
11
64.9287499999999937
21
-70.3262500000000017
0
LINE
8
BLACK
6
CONTINUOUS
10
64.9287499999999937
20
-70.3262500000000017
11
60.9599999999999937
21
-70.3262500000000017
0
LINE
8
BLACK
6
CONTINUOUS
10
60.9599999999999937
20
-70.3262500000000017
11
60.9288519999999991
21
-70.3252299999999906
0
LINE
8
BLACK
6
CONTINUOUS
10
60.9288519999999991
20
-70.3252299999999906
11
60.9288509999999945
21
-70.3252299999999906
0
LINE
8
BLACK
6
CONTINUOUS
10
60.9288509999999945
20
-70.3252299999999906
11
60.8670879999999954
21
-70.3170989999999989
0
LINE
8
BLACK
6
CONTINUOUS
10
60.8670879999999954
20
-70.3170989999999989
11
60.806913999999999
21
-70.3009759999999915
0
LINE
8
BLACK
6
CONTINUOUS
10
60.806913999999999
20
-70.3009759999999915
11
60.7662169999999975
21
-70.2841179999999923
0
LINE
8
BLACK
6
CONTINUOUS
10
60.7662169999999975
20
-70.2841179999999923
11
60.7493599999999958
21
-70.2771359999999987
0
LINE
8
BLACK
6
CONTINUOUS
10
60.7493599999999958
20
-70.2771359999999987
11
60.7203939999999989
21
-70.2604120000000023
0
LINE
8
BLACK
6
CONTINUOUS
10
60.7203939999999989
20
-70.2604120000000023
11
60.6954099999999954
21
-70.245987999999997
0
LINE
8
BLACK
6
CONTINUOUS
10
60.6954099999999954
20
-70.245987999999997
11
60.6706979999999945
21
-70.2270249999999976
0
LINE
8
BLACK
6
CONTINUOUS
10
60.6706979999999945
20
-70.2270249999999976
11
60.6459869999999981
21
-70.2080639999999931
0
LINE
8
BLACK
6
CONTINUOUS
10
60.6459869999999981
20
-70.2080639999999931
11
60.6459709999999959
21
-70.2080479999999909
0
LINE
8
BLACK
6
CONTINUOUS
10
60.6459709999999959
20
-70.2080479999999909
11
60.6232410000000002
21
-70.1867599999999925
0
LINE
8
BLACK
6
CONTINUOUS
10
60.6232410000000002
20
-70.1867599999999925
11
59.5119899999999973
21
-69.0755099999999942
0
LINE
8
BLACK
6
CONTINUOUS
10
59.5119899999999973
20
-69.0755099999999942
11
59.4907009999999943
21
-69.0527780000000035
0
LINE
8
BLACK
6
CONTINUOUS
10
59.4907009999999943
20
-69.0527780000000035
11
59.4906859999999966
21
-69.0527629999999988
0
LINE
8
BLACK
6
CONTINUOUS
10
59.4906859999999966
20
-69.0527629999999988
11
59.4717239999999947
21
-69.0280509999999907
0
LINE
8
BLACK
6
CONTINUOUS
10
59.4717239999999947
20
-69.0280509999999907
11
59.4527619999999999
21
-69.0033399999999943
0
LINE
8
BLACK
6
CONTINUOUS
10
59.4527619999999999
20
-69.0033399999999943
11
59.4222029999999961
21
-68.9504099999999909
0
LINE
8
BLACK
6
CONTINUOUS
10
59.4222029999999961
20
-68.9504099999999909
11
59.4216139999999982
21
-68.949389999999994
0
LINE
8
BLACK
6
CONTINUOUS
10
59.4216139999999982
20
-68.949389999999994
11
59.4096289999999954
21
-68.9204549999999898
0
LINE
8
BLACK
6
CONTINUOUS
10
59.4096289999999954
20
-68.9204549999999898
11
59.3977739999999983
21
-68.8918359999999979
0
LINE
8
BLACK
6
CONTINUOUS
10
59.3977739999999983
20
-68.8918359999999979
11
59.388422999999996
21
-68.8569359999999904
0
LINE
8
BLACK
6
CONTINUOUS
10
59.388422999999996
20
-68.8569359999999904
11
59.381650999999998
21
-68.8316619999999944
0
LINE
8
BLACK
6
CONTINUOUS
10
59.381650999999998
20
-68.8316619999999944
11
59.3735199999999992
21
-68.7698979999999978
0
LINE
8
BLACK
6
CONTINUOUS
10
59.3735199999999992
20
-68.7698979999999978
11
59.3724999999999952
21
-68.738749999999996
0
LINE
8
BLACK
6
CONTINUOUS
10
59.3724999999999952
20
-68.738749999999996
11
59.3724999999999952
21
-66.5547689999999932
0
LINE
8
BLACK
6
CONTINUOUS
10
59.3724999999999952
20
-66.5547689999999932
11
58.3814799999999963
21
-65.5637499999999989
0
LINE
8
BLACK
6
CONTINUOUS
10
58.3814799999999963
20
-65.5637499999999989
11
55.6010190000000009
21
-65.5637499999999989
0
LINE
8
BLACK
6
CONTINUOUS
10
55.6010190000000009
20
-65.5637499999999989
11
55.2449999999999974
21
-65.9197690000000023
0
LINE
8
BLACK
6
CONTINUOUS
10
55.2449999999999974
20
-65.9197690000000023
11
55.2449999999999974
21
-66.3575000000000017
0
LINE
8
BLACK
6
CONTINUOUS
10
55.2449999999999974
20
-66.3575000000000017
11
55.4037499999999952
21
-66.3575000000000017
0
LINE
8
BLACK
6
CONTINUOUS
10
55.4037499999999952
20
-66.3575000000000017
11
55.4037499999999952
21
-68.5414799999999929
0
LINE
8
BLACK
6
CONTINUOUS
10
55.4037499999999952
20
-68.5414799999999929
11
56.6930099999999939
21
-69.8307399999999916
0
LINE
8
BLACK
6
CONTINUOUS
10
56.6930099999999939
20
-69.8307399999999916
11
56.7110470000000007
21
-69.8499999999999943
0
LINE
8
BLACK
6
CONTINUOUS
10
56.7110470000000007
20
-69.8499999999999943
11
57.1499999999999986
21
-69.8499999999999943
0
LINE
8
BLACK
6
CONTINUOUS
10
57.1499999999999986
20
-69.8499999999999943
11
57.1499999999999986
21
-72.3900000000000006
0
LINE
8
BLACK
6
CONTINUOUS
10
57.1499999999999986
20
-72.3900000000000006
11
55.5625
21
-72.3900000000000006
0
LINE
8
BLACK
6
CONTINUOUS
10
55.5625
20
-72.3900000000000006
11
55.5625
21
-70.0472699999999975
0
LINE
8
BLACK
6
CONTINUOUS
10
55.5625
20
-70.0472699999999975
11
54.431989999999999
21
-68.9167599999999965
0
LINE
8
BLACK
6
CONTINUOUS
10
54.431989999999999
20
-68.9167599999999965
11
54.4139529999999993
21
-68.8974999999999937
0
LINE
8
BLACK
6
CONTINUOUS
10
54.4139529999999993
20
-68.8974999999999937
11
54.1337499999999991
21
-68.8974999999999937
0
LINE
8
BLACK
6
CONTINUOUS
10
54.1337499999999991
20
-68.8974999999999937
11
54.1337499999999991
21
-66.3575000000000017
0
LINE
8
BLACK
6
CONTINUOUS
10
54.1337499999999991
20
-66.3575000000000017
11
54.2924999999999969
21
-66.3575000000000017
0
LINE
8
BLACK
6
CONTINUOUS
10
54.2924999999999969
20
-66.3575000000000017
11
54.2924999999999969
21
-65.7224999999999966
0
LINE
8
BLACK
6
CONTINUOUS
10
54.2924999999999969
20
-65.7224999999999966
11
54.2935200000000009
21
-65.6913519999999949
0
LINE
8
BLACK
6
CONTINUOUS
10
54.2935200000000009
20
-65.6913519999999949
11
54.3016509999999997
21
-65.6295879999999983
0
LINE
8
BLACK
6
CONTINUOUS
10
54.3016509999999997
20
-65.6295879999999983
11
54.3125199999999992
21
-65.5890249999999924
0
LINE
8
BLACK
6
CONTINUOUS
10
54.3125199999999992
20
-65.5890249999999924
11
54.317774
21
-65.5694139999999948
0
LINE
8
BLACK
6
CONTINUOUS
10
54.317774
20
-65.5694139999999948
11
54.3346309999999946
21
-65.5287170000000003
0
LINE
8
BLACK
6
CONTINUOUS
10
54.3346309999999946
20
-65.5287170000000003
11
54.3416139999999999
21
-65.5118599999999986
0
LINE
8
BLACK
6
CONTINUOUS
10
54.3416139999999999
20
-65.5118599999999986
11
54.3546659999999946
21
-65.4892540000000025
0
LINE
8
BLACK
6
CONTINUOUS
10
54.3546659999999946
20
-65.4892540000000025
11
54.3727619999999945
21
-65.4579099999999983
0
LINE
8
BLACK
6
CONTINUOUS
10
54.3727619999999945
20
-65.4579099999999983
11
54.3917239999999964
21
-65.4331979999999902
0
LINE
8
BLACK
6
CONTINUOUS
10
54.3917239999999964
20
-65.4331979999999902
11
54.4106859999999983
21
-65.4084869999999938
0
LINE
8
BLACK
6
CONTINUOUS
10
54.4106859999999983
20
-65.4084869999999938
11
54.410700999999996
21
-65.4084709999999916
0
LINE
8
BLACK
6
CONTINUOUS
10
54.410700999999996
20
-65.4084709999999916
11
54.431989999999999
21
-65.3857399999999984
0
LINE
8
BLACK
6
CONTINUOUS
10
54.431989999999999
20
-65.3857399999999984
11
55.0669909999999945
21
-64.7507399999999933
0
LINE
8
BLACK
6
CONTINUOUS
10
55.0669909999999945
20
-64.7507399999999933
11
55.0897369999999995
21
-64.7294359999999926
0
LINE
8
BLACK
6
CONTINUOUS
10
55.0897369999999995
20
-64.7294359999999926
11
55.1391599999999968
21
-64.691512000000003
0
LINE
8
BLACK
6
CONTINUOUS
10
55.1391599999999968
20
-64.691512000000003
11
55.1733629999999948
21
-64.6717649999999935
0
LINE
8
BLACK
6
CONTINUOUS
10
55.1733629999999948
20
-64.6717649999999935
11
55.1931099999999972
21
-64.6603640000000013
0
LINE
8
BLACK
6
CONTINUOUS
10
55.1931099999999972
20
-64.6603640000000013
11
55.2099669999999989
21
-64.653380999999996
0
LINE
8
BLACK
6
CONTINUOUS
10
55.2099669999999989
20
-64.653380999999996
11
55.2506640000000004
21
-64.6365239999999943
0
LINE
8
BLACK
6
CONTINUOUS
10
55.2506640000000004
20
-64.6365239999999943
11
55.2981219999999993
21
-64.6238079999999968
0
LINE
8
BLACK
6
CONTINUOUS
10
55.2981219999999993
20
-64.6238079999999968
11
55.3108379999999968
21
-64.6204010000000011
0
LINE
8
BLACK
6
CONTINUOUS
10
55.3108379999999968
20
-64.6204010000000011
11
55.3726020000000005
21
-64.6122699999999952
0
LINE
8
BLACK
6
CONTINUOUS
10
55.3726020000000005
20
-64.6122699999999952
11
55.4037499999999952
21
-64.6112499999999983
0
LINE
8
BLACK
6
CONTINUOUS
10
55.4037499999999952
20
-64.6112499999999983
11
58.5787499999999994
21
-64.6112499999999983
0
LINE
8
BLACK
6
CONTINUOUS
10
58.5787499999999994
20
-64.6112499999999983
11
58.6098979999999941
21
-64.6122699999999952
0
LINE
8
BLACK
6
CONTINUOUS
10
69.5324999999999989
20
-68.8974999999999937
11
69.5324990000000014
21
-68.8974999999999937
0
LINE
8
BLACK
6
CONTINUOUS
10
69.5324990000000014
20
-68.8974999999999937
11
69.5324990000000014
21
-69.6912499999999966
0
LINE
8
BLACK
6
CONTINUOUS
10
69.5324990000000014
20
-69.6912499999999966
11
70.4849999999999994
21
-69.6912499999999966
0
LINE
8
BLACK
6
CONTINUOUS
10
70.4849999999999994
20
-69.6912499999999966
11
71.120001000000002
21
-69.6912499999999966
0
LINE
8
BLACK
6
CONTINUOUS
10
71.120001000000002
20
-69.6912499999999966
11
71.120001000000002
21
-70.9612499999999926
0
LINE
8
BLACK
6
CONTINUOUS
10
71.120001000000002
20
-70.9612499999999926
11
70.1675010000000015
21
-70.9612499999999926
0
LINE
8
BLACK
6
CONTINUOUS
10
70.1675010000000015
20
-70.9612499999999926
11
69.2150000000000034
21
-70.9612499999999926
0
LINE
8
BLACK
6
CONTINUOUS
10
69.2150000000000034
20
-70.9612499999999926
11
68.5799990000000008
21
-70.9612499999999926
0
LINE
8
BLACK
6
CONTINUOUS
10
68.5799990000000008
20
-70.9612499999999926
11
68.5799990000000008
21
-69.6912499999999966
0
LINE
8
BLACK
6
CONTINUOUS
10
68.5799990000000008
20
-69.6912499999999966
11
68.5799990000000008
21
-68.8974999999999937
0
LINE
8
BLACK
6
CONTINUOUS
10
68.5799990000000008
20
-68.8974999999999937
11
67.6274999999999977
21
-68.8974999999999937
0
LINE
8
BLACK
6
CONTINUOUS
10
67.6274999999999977
20
-68.8974999999999937
11
67.6274999999999977
21
-66.6749999999999972
0
LINE
8
BLACK
6
CONTINUOUS
10
67.6274999999999977
20
-66.6749999999999972
11
69.5324999999999989
21
-66.6749999999999972
0
LINE
8
BLACK
6
CONTINUOUS
10
69.5324999999999989
20
-66.6749999999999972
11
69.5324999999999989
21
-68.8974999999999937
0
LINE
8
BLACK
6
CONTINUOUS
10
61.5949999999999989
20
-64.6112490000000008
11
62.5474989999999949
21
-64.6112490000000008
0
LINE
8
BLACK
6
CONTINUOUS
10
62.5474989999999949
20
-64.6112490000000008
11
62.5786469999999966
21
-64.6122689999999977
0
LINE
8
BLACK
6
CONTINUOUS
10
62.5786469999999966
20
-64.6122689999999977
11
62.5786479999999941
21
-64.6122689999999977
0
LINE
8
BLACK
6
CONTINUOUS
10
62.5786479999999941
20
-64.6122689999999977
11
62.5858319999999964
21
-64.6132149999999967
0
LINE
8
BLACK
6
CONTINUOUS
10
62.5858319999999964
20
-64.6132149999999967
11
62.6404110000000003
21
-64.6204000000000036
0
LINE
8
BLACK
6
CONTINUOUS
10
62.6404110000000003
20
-64.6204000000000036
11
62.6704979999999949
21
-64.628461999999999
0
LINE
8
BLACK
6
CONTINUOUS
10
62.6704979999999949
20
-64.628461999999999
11
62.7005849999999967
21
-64.6365229999999968
0
LINE
8
BLACK
6
CONTINUOUS
10
62.7005849999999967
20
-64.6365229999999968
11
62.7412809999999936
21
-64.6533799999999985
0
LINE
8
BLACK
6
CONTINUOUS
10
62.7412809999999936
20
-64.6533799999999985
11
62.7581389999999999
21
-64.6603630000000038
0
LINE
8
BLACK
6
CONTINUOUS
10
62.7581389999999999
20
-64.6603630000000038
11
62.7778849999999977
21
-64.671763999999996
0
LINE
8
BLACK
6
CONTINUOUS
10
62.7778849999999977
20
-64.671763999999996
11
62.8120890000000003
21
-64.6915109999999913
0
LINE
8
BLACK
6
CONTINUOUS
10
62.8120890000000003
20
-64.6915109999999913
11
62.8367999999999967
21
-64.7104729999999932
0
LINE
8
BLACK
6
CONTINUOUS
10
62.8367999999999967
20
-64.7104729999999932
11
62.8615119999999976
21
-64.7294349999999952
0
LINE
8
BLACK
6
CONTINUOUS
10
62.8615119999999976
20
-64.7294349999999952
11
62.8615269999999953
21
-64.7294499999999999
0
LINE
8
BLACK
6
CONTINUOUS
10
62.8615269999999953
20
-64.7294499999999999
11
62.8842590000000001
21
-64.7507389999999958
0
LINE
8
BLACK
6
CONTINUOUS
10
62.8842590000000001
20
-64.7507389999999958
11
63.8367599999999982
21
-65.7032409999999913
0
LINE
8
BLACK
6
CONTINUOUS
10
63.8367599999999982
20
-65.7032409999999913
11
63.8580479999999966
21
-65.7259710000000013
0
LINE
8
BLACK
6
CONTINUOUS
10
63.8580479999999966
20
-65.7259710000000013
11
63.8580639999999988
21
-65.7259870000000035
0
LINE
8
BLACK
6
CONTINUOUS
10
63.8580639999999988
20
-65.7259870000000035
11
63.8770249999999962
21
-65.7506979999999999
0
LINE
8
BLACK
6
CONTINUOUS
10
63.8770249999999962
20
-65.7506979999999999
11
63.8959879999999956
21
-65.7754099999999937
0
LINE
8
BLACK
6
CONTINUOUS
10
63.8959879999999956
20
-65.7754099999999937
11
63.9113489999999942
21
-65.8020169999999922
0
LINE
8
BLACK
6
CONTINUOUS
10
63.9113489999999942
20
-65.8020169999999922
11
63.9271359999999973
21
-65.8293599999999941
0
LINE
8
BLACK
6
CONTINUOUS
10
63.9271359999999973
20
-65.8293599999999941
11
63.9271359999999973
21
-65.8293609999999916
0
LINE
8
BLACK
6
CONTINUOUS
10
63.9271359999999973
20
-65.8293609999999916
11
63.9509759999999972
21
-65.8869139999999902
0
LINE
8
BLACK
6
CONTINUOUS
10
63.9509759999999972
20
-65.8869139999999902
11
63.9670989999999975
21
-65.9470879999999937
0
LINE
8
BLACK
6
CONTINUOUS
10
63.9670989999999975
20
-65.9470879999999937
11
63.9739900000000006
21
-65.9994360000000029
0
LINE
8
BLACK
6
CONTINUOUS
10
63.9739900000000006
20
-65.9994360000000029
11
63.9752299999999963
21
-66.0088519999999903
0
LINE
8
BLACK
6
CONTINUOUS
10
63.9752299999999963
20
-66.0088519999999903
11
63.9762500000000003
21
-66.039999999999992
0
LINE
8
BLACK
6
CONTINUOUS
10
63.9762500000000003
20
-66.039999999999992
11
63.9762500000000003
21
-66.6749999999999972
0
LINE
8
BLACK
6
CONTINUOUS
10
63.9762500000000003
20
-66.6749999999999972
11
64.4525000000000006
21
-66.6749999999999972
0
LINE
8
BLACK
6
CONTINUOUS
10
64.4525000000000006
20
-66.6749999999999972
11
64.4525000000000006
21
-68.8974999999999937
0
LINE
8
BLACK
6
CONTINUOUS
10
64.4525000000000006
20
-68.8974999999999937
11
62.5474999999999994
21
-68.8974999999999937
0
LINE
8
BLACK
6
CONTINUOUS
10
62.5474999999999994
20
-68.8974999999999937
11
62.5474999999999994
21
-66.6749999999999972
0
LINE
8
BLACK
6
CONTINUOUS
10
62.5474999999999994
20
-66.6749999999999972
11
63.0237499999999997
21
-66.6749999999999972
0
LINE
8
BLACK
6
CONTINUOUS
10
63.0237499999999997
20
-66.6749999999999972
11
63.0237499999999997
21
-66.2372689999999977
0
LINE
8
BLACK
6
CONTINUOUS
10
63.0237499999999997
20
-66.2372689999999977
11
62.3502289999999988
21
-65.5637490000000014
0
LINE
8
BLACK
6
CONTINUOUS
10
62.3502289999999988
20
-65.5637490000000014
11
60.9599999999999937
21
-65.5637490000000014
0
LINE
8
BLACK
6
CONTINUOUS
10
60.9599999999999937
20
-65.5637490000000014
11
60.3249999999999957
21
-65.5637490000000014
0
LINE
8
BLACK
6
CONTINUOUS
10
60.3249999999999957
20
-65.5637490000000014
11
60.3249999999999957
21
-64.6112490000000008
0
LINE
8
BLACK
6
CONTINUOUS
10
60.3249999999999957
20
-64.6112490000000008
11
61.5949999999999989
21
-64.6112490000000008
0
LINE
8
BLACK
6
CONTINUOUS
10
64.4525000000000006
20
-61.2774999999999963
11
63.9762500000000003
21
-61.2774999999999963
0
LINE
8
BLACK
6
CONTINUOUS
10
63.9762500000000003
20
-61.2774999999999963
11
63.9762500000000003
21
-61.9124999999999943
0
LINE
8
BLACK
6
CONTINUOUS
10
63.9762500000000003
20
-61.9124999999999943
11
63.9752299999999963
21
-61.943647999999996
0
LINE
8
BLACK
6
CONTINUOUS
10
63.9752299999999963
20
-61.943647999999996
11
63.9752299999999963
21
-61.9436490000000006
0
LINE
8
BLACK
6
CONTINUOUS
10
63.9752299999999963
20
-61.9436490000000006
11
63.9670989999999975
21
-62.0054119999999998
0
LINE
8
BLACK
6
CONTINUOUS
10
63.9670989999999975
20
-62.0054119999999998
11
63.9509759999999972
21
-62.0655859999999961
0
LINE
8
BLACK
6
CONTINUOUS
10
63.9509759999999972
20
-62.0655859999999961
11
63.935182999999995
21
-62.1037129999999991
0
LINE
8
BLACK
6
CONTINUOUS
10
63.935182999999995
20
-62.1037129999999991
11
63.9271359999999973
21
-62.1231399999999994
0
LINE
8
BLACK
6
CONTINUOUS
10
63.9271359999999973
20
-62.1231399999999994
11
63.9157340000000005
21
-62.1428859999999972
0
LINE
8
BLACK
6
CONTINUOUS
10
63.9157340000000005
20
-62.1428859999999972
11
63.8959879999999956
21
-62.1770899999999997
0
LINE
8
BLACK
6
CONTINUOUS
10
63.8959879999999956
20
-62.1770899999999997
11
63.8770249999999962
21
-62.2018009999999961
0
LINE
8
BLACK
6
CONTINUOUS
10
63.8770249999999962
20
-62.2018009999999961
11
63.8580639999999988
21
-62.2265129999999971
0
LINE
8
BLACK
6
CONTINUOUS
10
63.8580639999999988
20
-62.2265129999999971
11
63.8580479999999966
21
-62.2265279999999947
0
LINE
8
BLACK
6
CONTINUOUS
10
63.8580479999999966
20
-62.2265279999999947
11
63.8367599999999982
21
-62.249258999999995
0
LINE
8
BLACK
6
CONTINUOUS
10
63.8367599999999982
20
-62.249258999999995
11
62.8842590000000001
21
-63.2017609999999976
0
LINE
8
BLACK
6
CONTINUOUS
10
62.8842590000000001
20
-63.2017609999999976
11
62.8615269999999953
21
-63.2230489999999961
0
LINE
8
BLACK
6
CONTINUOUS
10
62.8615269999999953
20
-63.2230489999999961
11
62.8615119999999976
21
-63.2230649999999983
0
LINE
8
BLACK
6
CONTINUOUS
10
62.8615119999999976
20
-63.2230649999999983
11
62.8367999999999967
21
-63.2420259999999956
0
LINE
8
BLACK
6
CONTINUOUS
10
62.8367999999999967
20
-63.2420259999999956
11
62.8120890000000003
21
-63.260988999999995
0
LINE
8
BLACK
6
CONTINUOUS
10
62.8120890000000003
20
-63.260988999999995
11
62.7778849999999977
21
-63.280735
0
LINE
8
BLACK
6
CONTINUOUS
10
62.7778849999999977
20
-63.280735
11
62.7581389999999999
21
-63.2921369999999968
0
LINE
8
BLACK
6
CONTINUOUS
10
62.7581389999999999
20
-63.2921369999999968
11
62.7412809999999936
21
-63.2991189999999975
0
LINE
8
BLACK
6
CONTINUOUS
10
62.7412809999999936
20
-63.2991189999999975
11
62.7005849999999967
21
-63.3159769999999966
0
LINE
8
BLACK
6
CONTINUOUS
10
62.7005849999999967
20
-63.3159769999999966
11
62.6704979999999949
21
-63.3240379999999945
0
LINE
8
BLACK
6
CONTINUOUS
10
62.6704979999999949
20
-63.3240379999999945
11
62.6404110000000003
21
-63.332099999999997
0
LINE
8
BLACK
6
CONTINUOUS
10
62.6404110000000003
20
-63.332099999999997
11
62.5858319999999964
21
-63.3392839999999993
0
LINE
8
BLACK
6
CONTINUOUS
10
62.5858319999999964
20
-63.3392839999999993
11
62.5786479999999941
21
-63.3402309999999957
0
LINE
8
BLACK
6
CONTINUOUS
10
62.5786479999999941
20
-63.3402309999999957
11
62.5786469999999966
21
-63.3402309999999957
0
LINE
8
BLACK
6
CONTINUOUS
10
62.5786469999999966
20
-63.3402309999999957
11
62.5474989999999949
21
-63.3412509999999997
0
LINE
8
BLACK
6
CONTINUOUS
10
62.5474989999999949
20
-63.3412509999999997
11
60.9599999999999937
21
-63.3412509999999997
0
LINE
8
BLACK
6
CONTINUOUS
10
60.9599999999999937
20
-63.3412509999999997
11
60.3249999999999957
21
-63.3412509999999997
0
LINE
8
BLACK
6
CONTINUOUS
10
60.3249999999999957
20
-63.3412509999999997
11
60.3249999999999957
21
-62.3887509999999992
0
LINE
8
BLACK
6
CONTINUOUS
10
60.3249999999999957
20
-62.3887509999999992
11
61.5949999999999989
21
-62.3887509999999992
0
LINE
8
BLACK
6
CONTINUOUS
10
61.5949999999999989
20
-62.3887509999999992
11
62.3502289999999988
21
-62.3887509999999992
0
LINE
8
BLACK
6
CONTINUOUS
10
62.3502289999999988
20
-62.3887509999999992
11
63.0237499999999997
21
-61.7152299999999983
0
LINE
8
BLACK
6
CONTINUOUS
10
63.0237499999999997
20
-61.7152299999999983
11
63.0237499999999997
21
-61.2774999999999963
0
LINE
8
BLACK
6
CONTINUOUS
10
63.0237499999999997
20
-61.2774999999999963
11
62.5474999999999994
21
-61.2774999999999963
0
LINE
8
BLACK
6
CONTINUOUS
10
62.5474999999999994
20
-61.2774999999999963
11
62.5474999999999994
21
-59.0549999999999997
0
LINE
8
BLACK
6
CONTINUOUS
10
62.5474999999999994
20
-59.0549999999999997
11
64.4525000000000006
21
-59.0549999999999997
0
LINE
8
BLACK
6
CONTINUOUS
10
64.4525000000000006
20
-59.0549999999999997
11
64.4525000000000006
21
-61.2774999999999963
0
LINE
8
BLACK
6
CONTINUOUS
10
76.3045939999999945
20
-53.8200859999999963
11
76.3264429999999976
21
-53.8312179999999998
0
LINE
8
BLACK
6
CONTINUOUS
10
76.3264429999999976
20
-53.8312179999999998
11
76.3437819999999903
21
-53.8485569999999996
0
LINE
8
BLACK
6
CONTINUOUS
10
76.3437819999999903
20
-53.8485569999999996
11
76.3549139999999937
21
-53.8704059999999956
0
LINE
8
BLACK
6
CONTINUOUS
10
76.3549139999999937
20
-53.8704059999999956
11
76.3587500000000006
21
-53.8946249999999978
0
LINE
8
BLACK
6
CONTINUOUS
10
76.3587500000000006
20
-53.8946249999999978
11
76.3587500000000006
21
-78.8203749999999985
0
LINE
8
BLACK
6
CONTINUOUS
10
76.3587500000000006
20
-78.8203749999999985
11
76.3549139999999937
21
-78.8445940000000007
0
LINE
8
BLACK
6
CONTINUOUS
10
76.3549139999999937
20
-78.8445940000000007
11
76.3437819999999903
21
-78.8664429999999896
0
LINE
8
BLACK
6
CONTINUOUS
10
76.3437819999999903
20
-78.8664429999999896
11
76.3264429999999976
21
-78.8837819999999965
0
LINE
8
BLACK
6
CONTINUOUS
10
76.3264429999999976
20
-78.8837819999999965
11
76.3045939999999945
21
-78.894914
0
LINE
8
BLACK
6
CONTINUOUS
10
76.3045939999999945
20
-78.894914
11
76.2803749999999923
21
-78.8987499999999926
0
LINE
8
BLACK
6
CONTINUOUS
10
76.2803749999999923
20
-78.8987499999999926
11
58.8158749999999984
21
-78.8987499999999926
0
LINE
8
BLACK
6
CONTINUOUS
10
58.8158749999999984
20
-78.8987499999999926
11
58.7916559999999961
21
-78.894914
0
LINE
8
BLACK
6
CONTINUOUS
10
58.7916559999999961
20
-78.894914
11
58.7698070000000001
21
-78.8837819999999965
0
LINE
8
BLACK
6
CONTINUOUS
10
58.7698070000000001
20
-78.8837819999999965
11
58.7524680000000004
21
-78.8664429999999896
0
LINE
8
BLACK
6
CONTINUOUS
10
58.7524680000000004
20
-78.8664429999999896
11
58.7413359999999969
21
-78.8445940000000007
0
LINE
8
BLACK
6
CONTINUOUS
10
58.7413359999999969
20
-78.8445940000000007
11
58.7374999999999972
21
-78.8203749999999985
0
LINE
8
BLACK
6
CONTINUOUS
10
58.7374999999999972
20
-78.8203749999999985
11
58.7374999999999972
21
-75.5649999999999977
0
LINE
8
BLACK
6
CONTINUOUS
10
58.7374999999999972
20
-75.5649999999999977
11
53.9749999999999943
21
-75.5649999999999977
0
LINE
8
BLACK
6
CONTINUOUS
10
53.9749999999999943
20
-75.5649999999999977
11
53.9749999999999943
21
-78.8203749999999985
0
LINE
8
BLACK
6
CONTINUOUS
10
53.9749999999999943
20
-78.8203749999999985
11
53.9711639999999946
21
-78.8445940000000007
0
LINE
8
BLACK
6
CONTINUOUS
10
53.9711639999999946
20
-78.8445940000000007
11
53.9600319999999982
21
-78.8664429999999896
0
LINE
8
BLACK
6
CONTINUOUS
10
53.9600319999999982
20
-78.8664429999999896
11
53.9426929999999984
21
-78.8837819999999965
0
LINE
8
BLACK
6
CONTINUOUS
10
53.9426929999999984
20
-78.8837819999999965
11
53.9208439999999953
21
-78.894914
0
LINE
8
BLACK
6
CONTINUOUS
10
53.9208439999999953
20
-78.894914
11
53.8966250000000002
21
-78.8987499999999926
0
LINE
8
BLACK
6
CONTINUOUS
10
53.8966250000000002
20
-78.8987499999999926
11
51.3546249999999986
21
-78.8987499999999926
0
LINE
8
BLACK
6
CONTINUOUS
10
51.3546249999999986
20
-78.8987499999999926
11
51.3304059999999964
21
-78.894914
0
LINE
8
BLACK
6
CONTINUOUS
10
51.3304059999999964
20
-78.894914
11
51.3085570000000004
21
-78.8837819999999965
0
LINE
8
BLACK
6
CONTINUOUS
10
51.3085570000000004
20
-78.8837819999999965
11
51.2912180000000006
21
-78.8664429999999896
0
LINE
8
BLACK
6
CONTINUOUS
10
51.2912180000000006
20
-78.8664429999999896
11
51.2800859999999972
21
-78.8445940000000007
0
LINE
8
BLACK
6
CONTINUOUS
10
51.2800859999999972
20
-78.8445940000000007
11
51.2762499999999974
21
-78.8203749999999985
0
LINE
8
BLACK
6
CONTINUOUS
10
51.2762499999999974
20
-78.8203749999999985
11
51.2762499999999974
21
-58.4199979999999996
0
LINE
8
BLACK
6
CONTINUOUS
10
51.2762499999999974
20
-58.4199979999999996
11
51.2762499999999974
21
-53.8946249999999978
0
LINE
8
BLACK
6
CONTINUOUS
10
51.2762499999999974
20
-53.8946249999999978
11
51.2800859999999972
21
-53.8704059999999956
0
LINE
8
BLACK
6
CONTINUOUS
10
51.2800859999999972
20
-53.8704059999999956
11
51.2912180000000006
21
-53.8485569999999996
0
LINE
8
BLACK
6
CONTINUOUS
10
51.2912180000000006
20
-53.8485569999999996
11
51.3085570000000004
21
-53.8312179999999998
0
LINE
8
BLACK
6
CONTINUOUS
10
51.3085570000000004
20
-53.8312179999999998
11
51.3304059999999964
21
-53.8200859999999963
0
LINE
8
BLACK
6
CONTINUOUS
10
51.3304059999999964
20
-53.8200859999999963
11
51.3546249999999986
21
-53.8162499999999966
0
LINE
8
BLACK
6
CONTINUOUS
10
51.3546249999999986
20
-53.8162499999999966
11
76.2803749999999923
21
-53.8162499999999966
0
LINE
8
BLACK
6
CONTINUOUS
10
76.2803749999999923
20
-53.8162499999999966
11
76.3045939999999945
21
-53.8200859999999963
0
LINE
8
BLACK
6
CONTINUOUS
10
52.3874999999999957
20
-72.7075009999999935
11
54.7687479999999951
21
-75.0887489999999929
0
LINE
8
BLACK
6
CONTINUOUS
10
54.7687479999999951
20
-75.0887489999999929
11
54.7687499999999972
21
-75.0887499999999903
0
LINE
8
BLACK
6
CONTINUOUS
10
54.7687499999999972
20
-75.0887499999999903
11
60.4053749999999994
21
-75.0887499999999903
0
LINE
8
BLACK
6
CONTINUOUS
10
60.4053749999999994
20
-75.0887499999999903
11
60.4295939999999945
21
-75.0925859999999972
0
LINE
8
BLACK
6
CONTINUOUS
10
60.4295939999999945
20
-75.0925859999999972
11
60.4514429999999976
21
-75.1037180000000006
0
LINE
8
BLACK
6
CONTINUOUS
10
60.4514429999999976
20
-75.1037180000000006
11
60.4687819999999974
21
-75.1210569999999933
0
LINE
8
BLACK
6
CONTINUOUS
10
60.4687819999999974
20
-75.1210569999999933
11
60.4799139999999937
21
-75.1429059999999964
0
LINE
8
BLACK
6
CONTINUOUS
10
60.4799139999999937
20
-75.1429059999999964
11
60.4837500000000006
21
-75.1671249999999986
0
LINE
8
BLACK
6
CONTINUOUS
10
60.4837500000000006
20
-75.1671249999999986
11
60.4837500000000006
21
-77.3112509999999986
0
LINE
8
BLACK
6
CONTINUOUS
10
60.4837500000000006
20
-77.3112509999999986
11
60.9599979999999988
21
-77.7874989999999968
0
LINE
8
BLACK
6
CONTINUOUS
10
60.9599979999999988
20
-77.7874989999999968
11
60.9599999999999937
21
-77.7874999999999943
0
LINE
8
BLACK
6
CONTINUOUS
10
60.9599999999999937
20
-77.7874999999999943
11
62.8649999999999949
21
-77.7874999999999943
0
LINE
8
BLACK
6
CONTINUOUS
10
62.8649999999999949
20
-77.7874999999999943
11
63.3412499999999952
21
-77.3112500000000011
0
LINE
8
BLACK
6
CONTINUOUS
10
63.3412499999999952
20
-77.3112500000000011
11
63.3412499999999952
21
-73.0249999999999915
0
LINE
8
BLACK
6
CONTINUOUS
10
63.3412499999999952
20
-73.0249999999999915
11
63.3412489999999977
21
-73.0249979999999965
0
LINE
8
BLACK
6
CONTINUOUS
10
63.3412489999999977
20
-73.0249979999999965
11
62.7062509999999946
21
-72.3900000000000006
0
LINE
8
BLACK
6
CONTINUOUS
10
62.7062509999999946
20
-72.3900000000000006
11
62.7062499999999972
21
-72.3900000000000006
0
LINE
8
BLACK
6
CONTINUOUS
10
62.7062499999999972
20
-72.3900000000000006
11
57.8633749999999978
21
-72.3900000000000006
0
LINE
8
BLACK
6
CONTINUOUS
10
57.8633749999999978
20
-72.3900000000000006
11
57.7849999999999966
21
-72.3900000000000006
0
LINE
8
BLACK
6
CONTINUOUS
10
57.7849999999999966
20
-72.3900000000000006
11
57.7849999999999966
21
-69.8499999999999943
0
LINE
8
BLACK
6
CONTINUOUS
10
57.7849999999999966
20
-69.8499999999999943
11
57.7849999999999966
21
-69.3737500000000011
0
LINE
8
BLACK
6
CONTINUOUS
10
57.7849999999999966
20
-69.3737500000000011
11
57.7849989999999991
21
-69.373747999999992
0
LINE
8
BLACK
6
CONTINUOUS
10
57.7849989999999991
20
-69.373747999999992
11
57.3317059999999969
21
-68.9204549999999898
0
LINE
8
BLACK
6
CONTINUOUS
10
57.3317059999999969
20
-68.9204549999999898
11
57.3172919999999948
21
-68.9006179999999944
0
LINE
8
BLACK
6
CONTINUOUS
10
57.3172919999999948
20
-68.9006179999999944
11
57.3162789999999944
21
-68.8974999999999937
0
LINE
8
BLACK
6
CONTINUOUS
10
57.3162789999999944
20
-68.8974999999999937
11
57.3087499999999963
21
-68.8974999999999937
0
LINE
8
BLACK
6
CONTINUOUS
10
57.3087499999999963
20
-68.8974999999999937
11
57.3087499999999963
21
-66.3575000000000017
0
LINE
8
BLACK
6
CONTINUOUS
10
57.3087499999999963
20
-66.3575000000000017
11
58.5787499999999994
21
-66.3575000000000017
0
LINE
8
BLACK
6
CONTINUOUS
10
58.5787499999999994
20
-66.3575000000000017
11
58.5787499999999994
21
-66.4358749999999958
0
LINE
8
BLACK
6
CONTINUOUS
10
58.5787499999999994
20
-66.4358749999999958
11
58.5787499999999994
21
-69.0562510000000032
0
LINE
8
BLACK
6
CONTINUOUS
10
58.5787499999999994
20
-69.0562510000000032
11
59.3724989999999977
21
-69.8499999999999943
0
LINE
8
BLACK
6
CONTINUOUS
10
59.3724989999999977
20
-69.8499999999999943
11
59.3724999999999952
21
-69.8499999999999943
0
LINE
8
BLACK
6
CONTINUOUS
10
59.3724999999999952
20
-69.8499999999999943
11
59.3724999999999952
21
-69.8500009999999918
0
LINE
8
BLACK
6
CONTINUOUS
10
59.3724999999999952
20
-69.8500009999999918
11
60.166247999999996
21
-70.6437489999999997
0
LINE
8
BLACK
6
CONTINUOUS
10
60.166247999999996
20
-70.6437489999999997
11
60.166249999999998
21
-70.6437499999999972
0
LINE
8
BLACK
6
CONTINUOUS
10
60.166249999999998
20
-70.6437499999999972
11
63.7850369999999955
21
-70.6437499999999972
0
LINE
8
BLACK
6
CONTINUOUS
10
63.7850369999999955
20
-70.6437499999999972
11
63.8092559999999978
21
-70.6475859999999898
0
LINE
8
BLACK
6
CONTINUOUS
10
63.8092559999999978
20
-70.6475859999999898
11
63.8311049999999938
21
-70.6587179999999933
0
LINE
8
BLACK
6
CONTINUOUS
10
63.8311049999999938
20
-70.6587179999999933
11
63.8404559999999961
21
-70.6667059999999907
0
LINE
8
BLACK
6
CONTINUOUS
10
63.8404559999999961
20
-70.6667059999999907
11
65.2232939999999957
21
-72.0495439999999974
0
LINE
8
BLACK
6
CONTINUOUS
10
65.2232939999999957
20
-72.0495439999999974
11
65.2377079999999978
21
-72.0693809999999928
0
LINE
8
BLACK
6
CONTINUOUS
10
65.2377079999999978
20
-72.0693809999999928
11
65.2452849999999955
21
-72.0927020000000027
0
LINE
8
BLACK
6
CONTINUOUS
10
65.2452849999999955
20
-72.0927020000000027
11
65.2462500000000034
21
-72.1049629999999979
0
LINE
8
BLACK
6
CONTINUOUS
10
65.2462500000000034
20
-72.1049629999999979
11
65.2462500000000034
21
-77.3112509999999986
0
LINE
8
BLACK
6
CONTINUOUS
10
65.2462500000000034
20
-77.3112509999999986
11
65.7224980000000016
21
-77.7874989999999968
0
LINE
8
BLACK
6
CONTINUOUS
10
65.7224980000000016
20
-77.7874989999999968
11
65.7224999999999966
21
-77.7874999999999943
0
LINE
8
BLACK
6
CONTINUOUS
10
65.7224999999999966
20
-77.7874999999999943
11
67.9449999999999932
21
-77.7874999999999943
0
LINE
8
BLACK
6
CONTINUOUS
10
67.9449999999999932
20
-77.7874999999999943
11
68.4212500000000006
21
-77.3112500000000011
0
LINE
8
BLACK
6
CONTINUOUS
10
68.4212500000000006
20
-77.3112500000000011
11
68.4212500000000006
21
-72.2637129999999956
0
LINE
8
BLACK
6
CONTINUOUS
10
68.4212500000000006
20
-72.2637129999999956
11
68.4250859999999932
21
-72.2394939999999934
0
LINE
8
BLACK
6
CONTINUOUS
10
68.4250859999999932
20
-72.2394939999999934
11
68.4362179999999967
21
-72.2176449999999903
0
LINE
8
BLACK
6
CONTINUOUS
10
68.4362179999999967
20
-72.2176449999999903
11
68.4442059999999941
21
-72.2082939999999951
0
LINE
8
BLACK
6
CONTINUOUS
10
68.4442059999999941
20
-72.2082939999999951
11
69.3507939999999934
21
-71.3017059999999958
0
LINE
8
BLACK
6
CONTINUOUS
10
69.3507939999999934
20
-71.3017059999999958
11
69.370631000000003
21
-71.2872919999999937
0
LINE
8
BLACK
6
CONTINUOUS
10
69.370631000000003
20
-71.2872919999999937
11
69.3939519999999987
21
-71.2797149999999959
0
LINE
8
BLACK
6
CONTINUOUS
10
69.3939519999999987
20
-71.2797149999999959
11
69.4062129999999939
21
-71.2787500000000023
0
LINE
8
BLACK
6
CONTINUOUS
10
69.4062129999999939
20
-71.2787500000000023
11
72.0724999999999909
21
-71.2787500000000023
0
LINE
8
BLACK
6
CONTINUOUS
10
72.0724999999999909
20
-71.2787500000000023
11
72.3900000000000006
21
-70.9612499999999926
0
LINE
8
BLACK
6
CONTINUOUS
10
72.3900000000000006
20
-70.9612499999999926
11
72.3899990000000031
21
-70.9612499999999926
0
LINE
8
BLACK
6
CONTINUOUS
10
72.3899990000000031
20
-70.9612499999999926
11
72.3899990000000031
21
-69.6912499999999966
0
LINE
8
BLACK
6
CONTINUOUS
10
72.3899990000000031
20
-69.6912499999999966
11
72.3900000000000006
21
-69.6912499999999966
0
LINE
8
BLACK
6
CONTINUOUS
10
72.3900000000000006
20
-69.6912499999999966
11
72.3900000000000006
21
-69.2150000000000034
0
LINE
8
BLACK
6
CONTINUOUS
10
72.3900000000000006
20
-69.2150000000000034
11
72.3899990000000031
21
-69.2149979999999942
0
LINE
8
BLACK
6
CONTINUOUS
10
72.3899990000000031
20
-69.2149979999999942
11
72.0725010000000026
21
-68.8974999999999937
0
LINE
8
BLACK
6
CONTINUOUS
10
72.0725010000000026
20
-68.8974999999999937
11
72.0724999999999909
21
-68.8974999999999937
0
LINE
8
BLACK
6
CONTINUOUS
10
72.0724999999999909
20
-68.8974999999999937
11
70.2458749999999981
21
-68.8974999999999937
0
LINE
8
BLACK
6
CONTINUOUS
10
70.2458749999999981
20
-68.8974999999999937
11
70.1674999999999898
21
-68.8974999999999937
0
LINE
8
BLACK
6
CONTINUOUS
10
70.1674999999999898
20
-68.8974999999999937
11
70.1674999999999898
21
-66.6749999999999972
0
LINE
8
BLACK
6
CONTINUOUS
10
70.1674999999999898
20
-66.6749999999999972
11
70.1674999999999898
21
-66.5162499999999994
0
LINE
8
BLACK
6
CONTINUOUS
10
70.1674999999999898
20
-66.5162499999999994
11
70.1674989999999923
21
-66.5162479999999903
0
LINE
8
BLACK
6
CONTINUOUS
10
70.1674989999999923
20
-66.5162479999999903
11
69.8500009999999918
21
-66.198750000000004
0
LINE
8
BLACK
6
CONTINUOUS
10
69.8500009999999918
20
-66.198750000000004
11
69.8499999999999943
21
-66.198750000000004
0
LINE
8
BLACK
6
CONTINUOUS
10
69.8499999999999943
20
-66.198750000000004
11
64.8818380000000019
21
-66.198750000000004
0
LINE
8
BLACK
6
CONTINUOUS
10
64.8818380000000019
20
-66.198750000000004
11
64.8576189999999997
21
-66.1949139999999971
0
LINE
8
BLACK
6
CONTINUOUS
10
64.8576189999999997
20
-66.1949139999999971
11
64.8357699999999966
21
-66.1837819999999937
0
LINE
8
BLACK
6
CONTINUOUS
10
64.8357699999999966
20
-66.1837819999999937
11
64.8264240000000029
21
-66.1757989999999978
0
LINE
8
BLACK
6
CONTINUOUS
10
64.8264240000000029
20
-66.1757989999999978
11
62.8649999999999949
21
-64.214375000000004
0
LINE
8
BLACK
6
CONTINUOUS
10
62.8649999999999949
20
-64.214375000000004
11
54.4837129999999945
21
-64.214375000000004
0
LINE
8
BLACK
6
CONTINUOUS
10
54.4837129999999945
20
-64.214375000000004
11
54.4594939999999994
21
-64.2105389999999971
0
LINE
8
BLACK
6
CONTINUOUS
10
54.4594939999999994
20
-64.2105389999999971
11
54.4376449999999963
21
-64.1994069999999937
0
LINE
8
BLACK
6
CONTINUOUS
10
54.4376449999999963
20
-64.1994069999999937
11
54.4282940000000011
21
-64.1914189999999962
0
LINE
8
BLACK
6
CONTINUOUS
10
54.4282940000000011
20
-64.1914189999999962
11
53.997955999999995
21
-63.7610809999999972
0
LINE
8
BLACK
6
CONTINUOUS
10
53.997955999999995
20
-63.7610809999999972
11
53.9835419999999999
21
-63.7412439999999947
0
LINE
8
BLACK
6
CONTINUOUS
10
53.9835419999999999
20
-63.7412439999999947
11
53.9759649999999951
21
-63.717922999999999
0
LINE
8
BLACK
6
CONTINUOUS
10
53.9759649999999951
20
-63.717922999999999
11
53.9749999999999943
21
-63.7056619999999967
0
LINE
8
BLACK
6
CONTINUOUS
10
53.9749999999999943
20
-63.7056619999999967
11
53.9749999999999943
21
-59.2462129999999974
0
LINE
8
BLACK
6
CONTINUOUS
10
53.9749999999999943
20
-59.2462129999999974
11
53.978835999999994
21
-59.2219939999999951
0
LINE
8
BLACK
6
CONTINUOUS
10
53.978835999999994
20
-59.2219939999999951
11
53.9899679999999975
21
-59.2001449999999991
0
LINE
8
BLACK
6
CONTINUOUS
10
53.9899679999999975
20
-59.2001449999999991
11
53.997955999999995
21
-59.1907939999999968
0
LINE
8
BLACK
6
CONTINUOUS
10
53.997955999999995
20
-59.1907939999999968
11
54.4282940000000011
21
-58.7604559999999978
0
LINE
8
BLACK
6
CONTINUOUS
10
54.4282940000000011
20
-58.7604559999999978
11
54.4481309999999965
21
-58.7460419999999957
0
LINE
8
BLACK
6
CONTINUOUS
10
54.4481309999999965
20
-58.7460419999999957
11
54.4714519999999993
21
-58.7384649999999979
0
LINE
8
BLACK
6
CONTINUOUS
10
54.4714519999999993
20
-58.7384649999999979
11
54.4837129999999945
21
-58.7374999999999972
0
LINE
8
BLACK
6
CONTINUOUS
10
54.4837129999999945
20
-58.7374999999999972
11
61.7212869999999967
21
-58.7374999999999972
0
LINE
8
BLACK
6
CONTINUOUS
10
61.7212869999999967
20
-58.7374999999999972
11
61.7455059999999989
21
-58.7413359999999969
0
LINE
8
BLACK
6
CONTINUOUS
10
61.7455059999999989
20
-58.7413359999999969
11
61.7673549999999949
21
-58.7524680000000004
0
LINE
8
BLACK
6
CONTINUOUS
10
61.7673549999999949
20
-58.7524680000000004
11
61.7767059999999972
21
-58.7604559999999978
0
LINE
8
BLACK
6
CONTINUOUS
10
61.7767059999999972
20
-58.7604559999999978
11
62.0482939999999985
21
-59.0320439999999991
0
LINE
8
BLACK
6
CONTINUOUS
10
62.0482939999999985
20
-59.0320439999999991
11
62.0627080000000007
21
-59.0518809999999945
0
LINE
8
BLACK
6
CONTINUOUS
10
62.0627080000000007
20
-59.0518809999999945
11
62.0702849999999984
21
-59.0752019999999973
0
LINE
8
BLACK
6
CONTINUOUS
10
62.0702849999999984
20
-59.0752019999999973
11
62.0712499999999991
21
-59.0874629999999996
0
LINE
8
BLACK
6
CONTINUOUS
10
62.0712499999999991
20
-59.0874629999999996
11
62.0712499999999991
21
-61.562536999999999
0
LINE
8
BLACK
6
CONTINUOUS
10
62.0712499999999991
20
-61.562536999999999
11
62.0674139999999994
21
-61.5867559999999941
0
LINE
8
BLACK
6
CONTINUOUS
10
62.0674139999999994
20
-61.5867559999999941
11
62.0562819999999959
21
-61.6086049999999972
0
LINE
8
BLACK
6
CONTINUOUS
10
62.0562819999999959
20
-61.6086049999999972
11
62.0482939999999985
21
-61.6179559999999995
0
LINE
8
BLACK
6
CONTINUOUS
10
62.0482939999999985
20
-61.6179559999999995
11
61.7767059999999972
21
-61.8895439999999937
0
LINE
8
BLACK
6
CONTINUOUS
10
61.7767059999999972
20
-61.8895439999999937
11
61.7568689999999947
21
-61.9039579999999958
0
LINE
8
BLACK
6
CONTINUOUS
10
61.7568689999999947
20
-61.9039579999999958
11
61.733547999999999
21
-61.9115350000000007
0
LINE
8
BLACK
6
CONTINUOUS
10
61.733547999999999
20
-61.9115350000000007
11
61.7212869999999967
21
-61.9124999999999943
0
LINE
8
BLACK
6
CONTINUOUS
10
61.7212869999999967
20
-61.9124999999999943
11
60.166247999999996
21
-61.9124999999999943
0
LINE
8
BLACK
6
CONTINUOUS
10
60.166247999999996
20
-61.9124999999999943
11
59.8487499999999955
21
-62.2299979999999948
0
LINE
8
BLACK
6
CONTINUOUS
10
59.8487499999999955
20
-62.2299979999999948
11
59.8487499999999955
21
-63.4206259999999986
0
LINE
8
BLACK
6
CONTINUOUS
10
59.8487499999999955
20
-63.4206259999999986
11
60.166247999999996
21
-63.7381239999999991
0
LINE
8
BLACK
6
CONTINUOUS
10
60.166247999999996
20
-63.7381239999999991
11
60.166249999999998
21
-63.7381249999999966
0
LINE
8
BLACK
6
CONTINUOUS
10
60.166249999999998
20
-63.7381249999999966
11
62.7062489999999997
21
-63.7381249999999966
0
LINE
8
BLACK
6
CONTINUOUS
10
62.7062489999999997
20
-63.7381249999999966
11
62.7062499999999972
21
-63.7381249999999966
0
LINE
8
BLACK
6
CONTINUOUS
10
62.7062499999999972
20
-63.7381249999999966
11
64.6676709999999986
21
-61.7767029999999977
0
LINE
8
BLACK
6
CONTINUOUS
10
64.6676709999999986
20
-61.7767029999999977
11
64.6875059999999991
21
-61.7622919999999951
0
LINE
8
BLACK
6
CONTINUOUS
10
64.6875059999999991
20
-61.7622919999999951
11
64.7108269999999948
21
-61.7547149999999974
0
LINE
8
BLACK
6
CONTINUOUS
10
64.7108269999999948
20
-61.7547149999999974
11
64.7230880000000042
21
-61.7537499999999966
0
LINE
8
BLACK
6
CONTINUOUS
10
64.7230880000000042
20
-61.7537499999999966
11
67.1187869999999975
21
-61.7537499999999966
0
LINE
8
BLACK
6
CONTINUOUS
10
67.1187869999999975
20
-61.7537499999999966
11
67.1430059999999997
21
-61.7575859999999963
0
LINE
8
BLACK
6
CONTINUOUS
10
67.1430059999999997
20
-61.7575859999999963
11
67.1648550000000029
21
-61.7687179999999998
0
LINE
8
BLACK
6
CONTINUOUS
10
67.1648550000000029
20
-61.7687179999999998
11
67.1742059999999981
21
-61.7767059999999972
0
LINE
8
BLACK
6
CONTINUOUS
10
67.1742059999999981
20
-61.7767059999999972
11
67.4457939999999923
21
-62.0482939999999985
0
LINE
8
BLACK
6
CONTINUOUS
10
67.4457939999999923
20
-62.0482939999999985
11
67.4602079999999944
21
-62.0681309999999939
0
LINE
8
BLACK
6
CONTINUOUS
10
67.4602079999999944
20
-62.0681309999999939
11
67.4677849999999921
21
-62.0914519999999968
0
LINE
8
BLACK
6
CONTINUOUS
10
67.4677849999999921
20
-62.0914519999999968
11
67.46875
21
-62.1037129999999991
0
LINE
8
BLACK
6
CONTINUOUS
10
67.46875
20
-62.1037129999999991
11
67.46875
21
-63.0237509999999972
0
LINE
8
BLACK
6
CONTINUOUS
10
67.46875
20
-63.0237509999999972
11
69.373747999999992
21
-64.9287489999999963
0
LINE
8
BLACK
6
CONTINUOUS
10
69.373747999999992
20
-64.9287489999999963
11
69.3737500000000011
21
-64.9287499999999937
0
LINE
8
BLACK
6
CONTINUOUS
10
69.3737500000000011
20
-64.9287499999999937
11
70.1674999999999898
21
-64.9287499999999937
0
LINE
8
BLACK
6
CONTINUOUS
10
70.1674999999999898
20
-64.9287499999999937
11
72.5162869999999913
21
-64.9287499999999937
0
LINE
8
BLACK
6
CONTINUOUS
10
72.5162869999999913
20
-64.9287499999999937
11
72.5405059999999935
21
-64.9325860000000006
0
LINE
8
BLACK
6
CONTINUOUS
10
72.5405059999999935
20
-64.9325860000000006
11
72.5623549999999966
21
-64.9437180000000041
0
LINE
8
BLACK
6
CONTINUOUS
10
72.5623549999999966
20
-64.9437180000000041
11
72.5717059999999918
21
-64.9517060000000015
0
LINE
8
BLACK
6
CONTINUOUS
10
72.5717059999999918
20
-64.9517060000000015
11
73.3195439999999934
21
-65.6995440000000031
0
LINE
8
BLACK
6
CONTINUOUS
10
73.3195439999999934
20
-65.6995440000000031
11
73.3339579999999955
21
-65.7193809999999985
0
LINE
8
BLACK
6
CONTINUOUS
10
73.3339579999999955
20
-65.7193809999999985
11
73.3415349999999933
21
-65.7427019999999942
0
LINE
8
BLACK
6
CONTINUOUS
10
73.3415349999999933
20
-65.7427019999999942
11
73.3425000000000011
21
-65.7549630000000036
0
LINE
8
BLACK
6
CONTINUOUS
10
73.3425000000000011
20
-65.7549630000000036
11
73.3425000000000011
21
-72.0400369999999981
0
LINE
8
BLACK
6
CONTINUOUS
10
73.3425000000000011
20
-72.0400369999999981
11
73.3386639999999943
21
-72.0642560000000003
0
LINE
8
BLACK
6
CONTINUOUS
10
73.3386639999999943
20
-72.0642560000000003
11
73.3275319999999908
21
-72.0861050000000034
0
LINE
8
BLACK
6
CONTINUOUS
10
73.3275319999999908
20
-72.0861050000000034
11
73.3195439999999934
21
-72.0954559999999987
0
LINE
8
BLACK
6
CONTINUOUS
10
73.3195439999999934
20
-72.0954559999999987
11
73.0479559999999992
21
-72.3670439999999928
0
LINE
8
BLACK
6
CONTINUOUS
10
73.0479559999999992
20
-72.3670439999999928
11
73.0281190000000038
21
-72.381457999999995
0
LINE
8
BLACK
6
CONTINUOUS
10
73.0281190000000038
20
-72.381457999999995
11
73.0047979999999939
21
-72.3890349999999927
0
LINE
8
BLACK
6
CONTINUOUS
10
73.0047979999999939
20
-72.3890349999999927
11
72.9925369999999987
21
-72.3900000000000006
0
LINE
8
BLACK
6
CONTINUOUS
10
72.9925369999999987
20
-72.3900000000000006
11
70.6437480000000022
21
-72.3900000000000006
0
LINE
8
BLACK
6
CONTINUOUS
10
70.6437480000000022
20
-72.3900000000000006
11
70.3262500000000017
21
-72.7074980000000011
0
LINE
8
BLACK
6
CONTINUOUS
10
70.3262500000000017
20
-72.7074980000000011
11
70.3262500000000017
21
-77.3112509999999986
0
LINE
8
BLACK
6
CONTINUOUS
10
70.3262500000000017
20
-77.3112509999999986
11
70.8024979999999999
21
-77.7874989999999968
0
LINE
8
BLACK
6
CONTINUOUS
10
70.8024979999999999
20
-77.7874989999999968
11
70.8024999999999949
21
-77.7874999999999943
0
LINE
8
BLACK
6
CONTINUOUS
10
70.8024999999999949
20
-77.7874999999999943
11
73.0249999999999915
21
-77.7874999999999943
0
LINE
8
BLACK
6
CONTINUOUS
10
73.0249999999999915
20
-77.7874999999999943
11
73.5012499999999989
21
-77.3112500000000011
0
LINE
8
BLACK
6
CONTINUOUS
10
73.5012499999999989
20
-77.3112500000000011
11
73.5012499999999989
21
-74.9624629999999996
0
LINE
8
BLACK
6
CONTINUOUS
10
73.5012499999999989
20
-74.9624629999999996
11
73.5050859999999915
21
-74.9382439999999974
0
LINE
8
BLACK
6
CONTINUOUS
10
73.5050859999999915
20
-74.9382439999999974
11
73.516217999999995
21
-74.9163949999999943
0
LINE
8
BLACK
6
CONTINUOUS
10
73.516217999999995
20
-74.9163949999999943
11
73.5241999999999933
21
-74.9070490000000007
0
LINE
8
BLACK
6
CONTINUOUS
10
73.5241999999999933
20
-74.9070490000000007
11
75.2475000000000023
21
-73.1837500000000034
0
LINE
8
BLACK
6
CONTINUOUS
10
75.2475000000000023
20
-73.1837500000000034
11
75.2475000000000023
21
-64.9287499999999937
0
LINE
8
BLACK
6
CONTINUOUS
10
75.2475000000000023
20
-64.9287499999999937
11
75.2474989999999906
21
-64.9287479999999988
0
LINE
8
BLACK
6
CONTINUOUS
10
75.2474989999999906
20
-64.9287479999999988
11
73.3425009999999986
21
-63.0237499999999997
0
LINE
8
BLACK
6
CONTINUOUS
10
73.3425009999999986
20
-63.0237499999999997
11
73.3425000000000011
21
-63.0237499999999997
0
LINE
8
BLACK
6
CONTINUOUS
10
73.3425000000000011
20
-63.0237499999999997
11
70.8349630000000019
21
-63.0237499999999997
0
LINE
8
BLACK
6
CONTINUOUS
10
70.8349630000000019
20
-63.0237499999999997
11
70.8107439999999997
21
-63.019914
0
LINE
8
BLACK
6
CONTINUOUS
10
70.8107439999999997
20
-63.019914
11
70.7888949999999966
21
-63.0087819999999965
0
LINE
8
BLACK
6
CONTINUOUS
10
70.7888949999999966
20
-63.0087819999999965
11
70.7795440000000013
21
-63.0007939999999991
0
LINE
8
BLACK
6
CONTINUOUS
10
70.7795440000000013
20
-63.0007939999999991
11
70.1904559999999975
21
-62.4117059999999952
0
LINE
8
BLACK
6
CONTINUOUS
10
70.1904559999999975
20
-62.4117059999999952
11
70.1760419999999954
21
-62.3918689999999998
0
LINE
8
BLACK
6
CONTINUOUS
10
70.1760419999999954
20
-62.3918689999999998
11
70.1684649999999976
21
-62.368547999999997
0
LINE
8
BLACK
6
CONTINUOUS
10
70.1684649999999976
20
-62.368547999999997
11
70.1674999999999898
21
-62.3562869999999947
0
LINE
8
BLACK
6
CONTINUOUS
10
70.1674999999999898
20
-62.3562869999999947
11
70.1674999999999898
21
-55.7212499999999977
0
LINE
8
BLACK
6
CONTINUOUS
10
70.1674999999999898
20
-55.7212499999999977
11
70.1674989999999923
21
-55.7212479999999957
0
LINE
8
BLACK
6
CONTINUOUS
10
70.1674989999999923
20
-55.7212479999999957
11
69.6912509999999941
21
-55.2449999999999974
0
LINE
8
BLACK
6
CONTINUOUS
10
69.6912509999999941
20
-55.2449999999999974
11
69.6912499999999966
21
-55.2449999999999974
0
LINE
8
BLACK
6
CONTINUOUS
10
69.6912499999999966
20
-55.2449999999999974
11
63.9762500000000003
21
-55.2449999999999974
0
LINE
8
BLACK
6
CONTINUOUS
10
63.9762500000000003
20
-55.2449999999999974
11
63.9762479999999982
21
-55.2449999999999974
0
LINE
8
BLACK
6
CONTINUOUS
10
63.9762479999999982
20
-55.2449999999999974
11
63.5
21
-55.7212479999999957
0
LINE
8
BLACK
6
CONTINUOUS
10
63.5
20
-55.7212479999999957
11
63.5
21
-55.7212499999999977
0
LINE
8
BLACK
6
CONTINUOUS
10
63.5
20
-55.7212499999999977
11
63.5000009999999975
21
-55.7212499999999977
0
LINE
8
BLACK
6
CONTINUOUS
10
63.5000009999999975
20
-55.7212499999999977
11
63.5000009999999975
21
-56.9912500000000009
0
LINE
8
BLACK
6
CONTINUOUS
10
63.5000009999999975
20
-56.9912500000000009
11
63.4216249999999988
21
-56.9912500000000009
0
LINE
8
BLACK
6
CONTINUOUS
10
63.4216249999999988
20
-56.9912500000000009
11
53.8162479999999945
21
-56.9912500000000009
0
LINE
8
BLACK
6
CONTINUOUS
10
53.8162479999999945
20
-56.9912500000000009
11
52.3874999999999957
21
-58.4199979999999996
0
LINE
8
BLACK
6
CONTINUOUS
10
52.3874999999999957
20
-58.4199979999999996
11
52.3874999999999957
21
-72.7075009999999935
0
LINE
8
BLACK
6
CONTINUOUS
10
58.2612499999999969
20
-78.7150000000000034
11
54.4512499999999946
21
-78.7150000000000034
0
LINE
8
BLACK
6
CONTINUOUS
10
54.4512499999999946
20
-78.7150000000000034
11
54.4512499999999946
21
-76.1749999999999972
0
LINE
8
BLACK
6
CONTINUOUS
10
54.4512499999999946
20
-76.1749999999999972
11
58.2612499999999969
21
-76.1749999999999972
0
LINE
8
BLACK
6
CONTINUOUS
10
58.2612499999999969
20
-76.1749999999999972
11
58.2612499999999969
21
-78.7150000000000034
0
LINE
8
BLACK
6
CONTINUOUS
10
76.5223769999999917
20
-53.6329799999999963
11
76.5313889999999901
21
-53.6367130000000003
0
LINE
8
BLACK
6
CONTINUOUS
10
76.5313889999999901
20
-53.6367130000000003
11
76.5382869999999969
21
-53.6436109999999999
0
LINE
8
BLACK
6
CONTINUOUS
10
76.5382869999999969
20
-53.6436109999999999
11
76.5420199999999937
21
-53.6526229999999984
0
LINE
8
BLACK
6
CONTINUOUS
10
76.5420199999999937
20
-53.6526229999999984
11
76.5424999999999898
21
-53.6574999999999989
0
LINE
8
BLACK
6
CONTINUOUS
10
76.5424999999999898
20
-53.6574999999999989
11
76.5424999999999898
21
-79.0574999999999903
0
LINE
8
BLACK
6
CONTINUOUS
10
76.5424999999999898
20
-79.0574999999999903
11
76.5420199999999937
21
-79.0623769999999979
0
LINE
8
BLACK
6
CONTINUOUS
10
76.5420199999999937
20
-79.0623769999999979
11
76.5382869999999969
21
-79.0713889999999964
0
LINE
8
BLACK
6
CONTINUOUS
10
76.5382869999999969
20
-79.0713889999999964
11
76.5313889999999901
21
-79.0782870000000031
0
LINE
8
BLACK
6
CONTINUOUS
10
76.5313889999999901
20
-79.0782870000000031
11
76.5223769999999917
21
-79.08202
0
LINE
8
BLACK
6
CONTINUOUS
10
76.5223769999999917
20
-79.08202
11
76.5174999999999983
21
-79.082499999999996
0
LINE
8
BLACK
6
CONTINUOUS
10
76.5174999999999983
20
-79.082499999999996
11
51.1174999999999997
21
-79.082499999999996
0
LINE
8
BLACK
6
CONTINUOUS
10
51.1174999999999997
20
-79.082499999999996
11
51.1126229999999993
21
-79.08202
0
LINE
8
BLACK
6
CONTINUOUS
10
51.1126229999999993
20
-79.08202
11
51.1036110000000008
21
-79.0782870000000031
0
LINE
8
BLACK
6
CONTINUOUS
10
51.1036110000000008
20
-79.0782870000000031
11
51.0967130000000012
21
-79.0713889999999964
0
LINE
8
BLACK
6
CONTINUOUS
10
51.0967130000000012
20
-79.0713889999999964
11
51.0929799999999972
21
-79.0623769999999979
0
LINE
8
BLACK
6
CONTINUOUS
10
51.0929799999999972
20
-79.0623769999999979
11
51.0925000000000011
21
-79.0574999999999903
0
LINE
8
BLACK
6
CONTINUOUS
10
51.0925000000000011
20
-79.0574999999999903
11
51.0925000000000011
21
-53.6574999999999989
0
LINE
8
BLACK
6
CONTINUOUS
10
51.0925000000000011
20
-53.6574999999999989
11
51.0929799999999972
21
-53.6526229999999984
0
LINE
8
BLACK
6
CONTINUOUS
10
51.0929799999999972
20
-53.6526229999999984
11
51.0967130000000012
21
-53.6436109999999999
0
LINE
8
BLACK
6
CONTINUOUS
10
51.0967130000000012
20
-53.6436109999999999
11
51.1036110000000008
21
-53.6367130000000003
0
LINE
8
BLACK
6
CONTINUOUS
10
51.1036110000000008
20
-53.6367130000000003
11
51.1126229999999993
21
-53.6329799999999963
0
LINE
8
BLACK
6
CONTINUOUS
10
51.1126229999999993
20
-53.6329799999999963
11
51.1174999999999997
21
-53.6325000000000003
0
LINE
8
BLACK
6
CONTINUOUS
10
51.1174999999999997
20
-53.6325000000000003
11
76.5174999999999983
21
-53.6325000000000003
0
LINE
8
BLACK
6
CONTINUOUS
10
76.5174999999999983
20
-53.6325000000000003
11
76.5223769999999917
21
-53.6329799999999963
0
LINE
8
BLACK
6
CONTINUOUS
10
51.1424999999999983
20
-53.6824999999999974
11
51.1424999999999983
21
-79.0324999999999989
0
LINE
8
BLACK
6
CONTINUOUS
10
51.1424999999999983
20
-79.0324999999999989
11
76.4924999999999926
21
-79.0324999999999989
0
LINE
8
BLACK
6
CONTINUOUS
10
76.4924999999999926
20
-79.0324999999999989
11
76.4924999999999926
21
-53.6824999999999974
0
LINE
8
BLACK
6
CONTINUOUS
10
76.4924999999999926
20
-53.6824999999999974
11
51.1424999999999983
21
-53.6824999999999974
  0
ENDSEC
  0
EOF
