  0
SECTION
  2
HEADER
  9
$ANGBASE
  50
0.0
  9
$ANGDIR
  70
1
  9
$MEASUREMENT
  70
1
  0
ENDSEC
  0
SECTION
  2
TABLES
  0
TABLE
  2
LTYPE
  70
4
  0
LTYPE
  5
40F
  2
CONTINUOUS
  70
0
  3
Solid line
  72
65
  73
0
  40
0.0
  0
LTYPE
  5
410
  2
DASHDOT
 70
0
  3
Dash Dot ____ _ ____ _
 72
65
 73
4
 40
2.0
 49
1.25
 49
-0.25
 49
0.25
 49
-0.25
  0
LTYPE
  5
411
  2
DASHED
 70
0
  3
Dashed __ __ __ __ __
 72
65
 73
2
 40
0.75
 49
0.5
 49
-0.25
  0
LTYPE
  5
43B
  2
DOTTED
 70
0
  3
Dotted .  .  .  .
 72
65
 73
2
 40
0.2
 49
0.0
 49
-0.2
  0
ENDTAB
  0
TABLE
  2
STYLE
  70
4
  0
STYLE
  2
KICAD
  70
0
  40
0
  41
1
  42
1
  50
0
  71
0
  3
isocp.shx
  0
STYLE
  2
KICADB
  70
0
  40
0
  41
1
  42
1
  50
0
  71
0
  3
isocp.shx
  0
STYLE
  2
KICADI
  70
0
  40
0
  41
1
  42
1
  50
15
  71
0
  3
isocp.shx
  0
STYLE
  2
KICADBI
  70
0
  40
0
  41
1
  42
1
  50
15
  71
0
  3
isocp.shx
  0
ENDTAB
  0
TABLE
  2
LAYER
  70
1
  0
LAYER
  2
BLACK
  70
0
  62
7
  6
CONTINUOUS
  0
ENDTAB
  0
ENDSEC
  0
SECTION
  2
ENTITIES
0
LINE
8
BLACK
6
CONTINUOUS
10
58.2612499999999969
20
-78.7150000000000034
11
54.4512499999999946
21
-78.7150000000000034
0
LINE
8
BLACK
6
CONTINUOUS
10
54.4512499999999946
20
-78.7150000000000034
11
54.4512499999999946
21
-76.1749999999999972
0
LINE
8
BLACK
6
CONTINUOUS
10
54.4512499999999946
20
-76.1749999999999972
11
58.2612499999999969
21
-76.1749999999999972
0
LINE
8
BLACK
6
CONTINUOUS
10
58.2612499999999969
20
-76.1749999999999972
11
58.2612499999999969
21
-78.7150000000000034
0
LINE
8
BLACK
6
CONTINUOUS
10
61.8816069999999954
20
-75.4148699999999934
11
61.9657009999999957
21
-75.4301310000000029
0
LINE
8
BLACK
6
CONTINUOUS
10
61.9657009999999957
20
-75.4301310000000029
11
62.0480889999999974
21
-75.4528689999999926
0
LINE
8
BLACK
6
CONTINUOUS
10
62.0480889999999974
20
-75.4528689999999926
11
62.1281059999999954
21
-75.4829000000000008
0
LINE
8
BLACK
6
CONTINUOUS
10
62.1281059999999954
20
-75.4829000000000008
11
62.2051099999999977
21
-75.5199829999999963
0
LINE
8
BLACK
6
CONTINUOUS
10
62.2051099999999977
20
-75.5199829999999963
11
62.2784789999999973
21
-75.5638189999999952
0
LINE
8
BLACK
6
CONTINUOUS
10
62.2784789999999973
20
-75.5638189999999952
11
62.3476239999999962
21
-75.6140559999999908
0
LINE
8
BLACK
6
CONTINUOUS
10
62.3476239999999962
20
-75.6140559999999908
11
62.4119869999999963
21
-75.6702879999999993
0
LINE
8
BLACK
6
CONTINUOUS
10
62.4119869999999963
20
-75.6702879999999993
11
62.4710509999999957
21
-75.7320629999999966
0
LINE
8
BLACK
6
CONTINUOUS
10
62.4710509999999957
20
-75.7320629999999966
11
62.5243389999999977
21
-75.7988849999999985
0
LINE
8
BLACK
6
CONTINUOUS
10
62.5243389999999977
20
-75.7988849999999985
11
62.5714219999999983
21
-75.8702129999999926
0
LINE
8
BLACK
6
CONTINUOUS
10
62.5714219999999983
20
-75.8702129999999926
11
62.6119229999999973
21
-75.9454759999999993
0
LINE
8
BLACK
6
CONTINUOUS
10
62.6119229999999973
20
-75.9454759999999993
11
62.6455139999999986
21
-76.0240649999999931
0
LINE
8
BLACK
6
CONTINUOUS
10
62.6455139999999986
20
-76.0240649999999931
11
62.6719249999999946
21
-76.1053500000000014
0
LINE
8
BLACK
6
CONTINUOUS
10
62.6719249999999946
20
-76.1053500000000014
11
62.6909429999999972
21
-76.1886750000000035
0
LINE
8
BLACK
6
CONTINUOUS
10
62.6909429999999972
20
-76.1886750000000035
11
62.7024159999999995
21
-76.2733690000000024
0
LINE
8
BLACK
6
CONTINUOUS
10
62.7024159999999995
20
-76.2733690000000024
11
62.7062499999999972
21
-76.3587500000000006
0
LINE
8
BLACK
6
CONTINUOUS
10
62.7062499999999972
20
-76.3587500000000006
11
62.7024159999999995
21
-76.4441309999999987
0
LINE
8
BLACK
6
CONTINUOUS
10
62.7024159999999995
20
-76.4441309999999987
11
62.6909429999999972
21
-76.5288249999999977
0
LINE
8
BLACK
6
CONTINUOUS
10
62.6909429999999972
20
-76.5288249999999977
11
62.6719249999999946
21
-76.6121499999999997
0
LINE
8
BLACK
6
CONTINUOUS
10
62.6719249999999946
20
-76.6121499999999997
11
62.6455139999999986
21
-76.6934349999999938
0
LINE
8
BLACK
6
CONTINUOUS
10
62.6455139999999986
20
-76.6934349999999938
11
62.6119229999999973
21
-76.7720240000000018
0
LINE
8
BLACK
6
CONTINUOUS
10
62.6119229999999973
20
-76.7720240000000018
11
62.5714219999999983
21
-76.8472869999999944
0
LINE
8
BLACK
6
CONTINUOUS
10
62.5714219999999983
20
-76.8472869999999944
11
62.5243389999999977
21
-76.9186150000000026
0
LINE
8
BLACK
6
CONTINUOUS
10
62.5243389999999977
20
-76.9186150000000026
11
62.4710509999999957
21
-76.9854369999999903
0
LINE
8
BLACK
6
CONTINUOUS
10
62.4710509999999957
20
-76.9854369999999903
11
62.4119869999999963
21
-77.0472120000000018
0
LINE
8
BLACK
6
CONTINUOUS
10
62.4119869999999963
20
-77.0472120000000018
11
62.3476239999999962
21
-77.1034439999999961
0
LINE
8
BLACK
6
CONTINUOUS
10
62.3476239999999962
20
-77.1034439999999961
11
62.2784789999999973
21
-77.1536809999999917
0
LINE
8
BLACK
6
CONTINUOUS
10
62.2784789999999973
20
-77.1536809999999917
11
62.2051099999999977
21
-77.1975169999999906
0
LINE
8
BLACK
6
CONTINUOUS
10
62.2051099999999977
20
-77.1975169999999906
11
62.1281059999999954
21
-77.2346000000000004
0
LINE
8
BLACK
6
CONTINUOUS
10
62.1281059999999954
20
-77.2346000000000004
11
62.0480889999999974
21
-77.2646309999999943
0
LINE
8
BLACK
6
CONTINUOUS
10
62.0480889999999974
20
-77.2646309999999943
11
61.9657009999999957
21
-77.2873689999999982
0
LINE
8
BLACK
6
CONTINUOUS
10
61.9657009999999957
20
-77.2873689999999982
11
61.8816069999999954
21
-77.3026299999999935
0
LINE
8
BLACK
6
CONTINUOUS
10
61.8816069999999954
20
-77.3026299999999935
11
61.7964839999999995
21
-77.3102909999999923
0
LINE
8
BLACK
6
CONTINUOUS
10
61.7964839999999995
20
-77.3102909999999923
11
61.7110160000000008
21
-77.3102909999999923
0
LINE
8
BLACK
6
CONTINUOUS
10
61.7110160000000008
20
-77.3102909999999923
11
61.6258929999999978
21
-77.3026299999999935
0
LINE
8
BLACK
6
CONTINUOUS
10
61.6258929999999978
20
-77.3026299999999935
11
61.5417989999999975
21
-77.2873689999999982
0
LINE
8
BLACK
6
CONTINUOUS
10
61.5417989999999975
20
-77.2873689999999982
11
61.4594109999999958
21
-77.2646309999999943
0
LINE
8
BLACK
6
CONTINUOUS
10
61.4594109999999958
20
-77.2646309999999943
11
61.3793939999999978
21
-77.2346000000000004
0
LINE
8
BLACK
6
CONTINUOUS
10
61.3793939999999978
20
-77.2346000000000004
11
61.3023899999999955
21
-77.1975169999999906
0
LINE
8
BLACK
6
CONTINUOUS
10
61.3023899999999955
20
-77.1975169999999906
11
61.2290209999999959
21
-77.1536809999999917
0
LINE
8
BLACK
6
CONTINUOUS
10
61.2290209999999959
20
-77.1536809999999917
11
61.159875999999997
21
-77.1034439999999961
0
LINE
8
BLACK
6
CONTINUOUS
10
61.159875999999997
20
-77.1034439999999961
11
61.0955129999999969
21
-77.0472120000000018
0
LINE
8
BLACK
6
CONTINUOUS
10
61.0955129999999969
20
-77.0472120000000018
11
61.0364489999999975
21
-76.9854369999999903
0
LINE
8
BLACK
6
CONTINUOUS
10
61.0364489999999975
20
-76.9854369999999903
11
60.9831609999999955
21
-76.9186150000000026
0
LINE
8
BLACK
6
CONTINUOUS
10
60.9831609999999955
20
-76.9186150000000026
11
60.9360779999999949
21
-76.8472869999999944
0
LINE
8
BLACK
6
CONTINUOUS
10
60.9360779999999949
20
-76.8472869999999944
11
60.8955769999999958
21
-76.7720240000000018
0
LINE
8
BLACK
6
CONTINUOUS
10
60.8955769999999958
20
-76.7720240000000018
11
60.8619859999999946
21
-76.6934349999999938
0
LINE
8
BLACK
6
CONTINUOUS
10
60.8619859999999946
20
-76.6934349999999938
11
60.8355749999999986
21
-76.6121499999999997
0
LINE
8
BLACK
6
CONTINUOUS
10
60.8355749999999986
20
-76.6121499999999997
11
60.816556999999996
21
-76.5288249999999977
0
LINE
8
BLACK
6
CONTINUOUS
10
60.816556999999996
20
-76.5288249999999977
11
60.8050840000000008
21
-76.4441309999999987
0
LINE
8
BLACK
6
CONTINUOUS
10
60.8050840000000008
20
-76.4441309999999987
11
60.801249999999996
21
-76.3587500000000006
0
LINE
8
BLACK
6
CONTINUOUS
10
60.801249999999996
20
-76.3587500000000006
11
60.8050840000000008
21
-76.2733690000000024
0
LINE
8
BLACK
6
CONTINUOUS
10
60.8050840000000008
20
-76.2733690000000024
11
60.816556999999996
21
-76.1886750000000035
0
LINE
8
BLACK
6
CONTINUOUS
10
60.816556999999996
20
-76.1886750000000035
11
60.8355749999999986
21
-76.1053500000000014
0
LINE
8
BLACK
6
CONTINUOUS
10
60.8355749999999986
20
-76.1053500000000014
11
60.8619859999999946
21
-76.0240649999999931
0
LINE
8
BLACK
6
CONTINUOUS
10
60.8619859999999946
20
-76.0240649999999931
11
60.8955769999999958
21
-75.9454759999999993
0
LINE
8
BLACK
6
CONTINUOUS
10
60.8955769999999958
20
-75.9454759999999993
11
60.9360779999999949
21
-75.8702129999999926
0
LINE
8
BLACK
6
CONTINUOUS
10
60.9360779999999949
20
-75.8702129999999926
11
60.9831609999999955
21
-75.7988849999999985
0
LINE
8
BLACK
6
CONTINUOUS
10
60.9831609999999955
20
-75.7988849999999985
11
61.0364489999999975
21
-75.7320629999999966
0
LINE
8
BLACK
6
CONTINUOUS
10
61.0364489999999975
20
-75.7320629999999966
11
61.0955129999999969
21
-75.6702879999999993
0
LINE
8
BLACK
6
CONTINUOUS
10
61.0955129999999969
20
-75.6702879999999993
11
61.159875999999997
21
-75.6140559999999908
0
LINE
8
BLACK
6
CONTINUOUS
10
61.159875999999997
20
-75.6140559999999908
11
61.2290209999999959
21
-75.5638189999999952
0
LINE
8
BLACK
6
CONTINUOUS
10
61.2290209999999959
20
-75.5638189999999952
11
61.3023899999999955
21
-75.5199829999999963
0
LINE
8
BLACK
6
CONTINUOUS
10
61.3023899999999955
20
-75.5199829999999963
11
61.3793939999999978
21
-75.4829000000000008
0
LINE
8
BLACK
6
CONTINUOUS
10
61.3793939999999978
20
-75.4829000000000008
11
61.4594109999999958
21
-75.4528689999999926
0
LINE
8
BLACK
6
CONTINUOUS
10
61.4594109999999958
20
-75.4528689999999926
11
61.5417989999999975
21
-75.4301310000000029
0
LINE
8
BLACK
6
CONTINUOUS
10
61.5417989999999975
20
-75.4301310000000029
11
61.6258929999999978
21
-75.4148699999999934
0
LINE
8
BLACK
6
CONTINUOUS
10
61.6258929999999978
20
-75.4148699999999934
11
61.7110160000000008
21
-75.4072089999999946
0
LINE
8
BLACK
6
CONTINUOUS
10
61.7110160000000008
20
-75.4072089999999946
11
61.7964839999999995
21
-75.4072089999999946
0
LINE
8
BLACK
6
CONTINUOUS
10
61.7964839999999995
20
-75.4072089999999946
11
61.8816069999999954
21
-75.4148699999999934
0
LINE
8
BLACK
6
CONTINUOUS
10
64.4216069999999945
20
-75.4148699999999934
11
64.505701000000002
21
-75.4301310000000029
0
LINE
8
BLACK
6
CONTINUOUS
10
64.505701000000002
20
-75.4301310000000029
11
64.5880889999999965
21
-75.4528689999999926
0
LINE
8
BLACK
6
CONTINUOUS
10
64.5880889999999965
20
-75.4528689999999926
11
64.6681059999999945
21
-75.4829000000000008
0
LINE
8
BLACK
6
CONTINUOUS
10
64.6681059999999945
20
-75.4829000000000008
11
64.7451099999999968
21
-75.5199829999999963
0
LINE
8
BLACK
6
CONTINUOUS
10
64.7451099999999968
20
-75.5199829999999963
11
64.8184789999999964
21
-75.5638189999999952
0
LINE
8
BLACK
6
CONTINUOUS
10
64.8184789999999964
20
-75.5638189999999952
11
64.8876240000000024
21
-75.6140559999999908
0
LINE
8
BLACK
6
CONTINUOUS
10
64.8876240000000024
20
-75.6140559999999908
11
64.9519870000000026
21
-75.6702879999999993
0
LINE
8
BLACK
6
CONTINUOUS
10
64.9519870000000026
20
-75.6702879999999993
11
65.0110509999999948
21
-75.7320629999999966
0
LINE
8
BLACK
6
CONTINUOUS
10
65.0110509999999948
20
-75.7320629999999966
11
65.0643390000000039
21
-75.7988849999999985
0
LINE
8
BLACK
6
CONTINUOUS
10
65.0643390000000039
20
-75.7988849999999985
11
65.1114219999999904
21
-75.8702129999999926
0
LINE
8
BLACK
6
CONTINUOUS
10
65.1114219999999904
20
-75.8702129999999926
11
65.1519229999999965
21
-75.9454759999999993
0
LINE
8
BLACK
6
CONTINUOUS
10
65.1519229999999965
20
-75.9454759999999993
11
65.1855139999999977
21
-76.0240649999999931
0
LINE
8
BLACK
6
CONTINUOUS
10
65.1855139999999977
20
-76.0240649999999931
11
65.2119249999999937
21
-76.1053500000000014
0
LINE
8
BLACK
6
CONTINUOUS
10
65.2119249999999937
20
-76.1053500000000014
11
65.2309429999999963
21
-76.1886750000000035
0
LINE
8
BLACK
6
CONTINUOUS
10
65.2309429999999963
20
-76.1886750000000035
11
65.2424159999999915
21
-76.2733690000000024
0
LINE
8
BLACK
6
CONTINUOUS
10
65.2424159999999915
20
-76.2733690000000024
11
65.2462500000000034
21
-76.3587500000000006
0
LINE
8
BLACK
6
CONTINUOUS
10
65.2462500000000034
20
-76.3587500000000006
11
65.2424159999999915
21
-76.4441309999999987
0
LINE
8
BLACK
6
CONTINUOUS
10
65.2424159999999915
20
-76.4441309999999987
11
65.2309429999999963
21
-76.5288249999999977
0
LINE
8
BLACK
6
CONTINUOUS
10
65.2309429999999963
20
-76.5288249999999977
11
65.2119249999999937
21
-76.6121499999999997
0
LINE
8
BLACK
6
CONTINUOUS
10
65.2119249999999937
20
-76.6121499999999997
11
65.1855139999999977
21
-76.6934349999999938
0
LINE
8
BLACK
6
CONTINUOUS
10
65.1855139999999977
20
-76.6934349999999938
11
65.1519229999999965
21
-76.7720240000000018
0
LINE
8
BLACK
6
CONTINUOUS
10
65.1519229999999965
20
-76.7720240000000018
11
65.1114219999999904
21
-76.8472869999999944
0
LINE
8
BLACK
6
CONTINUOUS
10
65.1114219999999904
20
-76.8472869999999944
11
65.0643390000000039
21
-76.9186150000000026
0
LINE
8
BLACK
6
CONTINUOUS
10
65.0643390000000039
20
-76.9186150000000026
11
65.0110509999999948
21
-76.9854369999999903
0
LINE
8
BLACK
6
CONTINUOUS
10
65.0110509999999948
20
-76.9854369999999903
11
64.9519870000000026
21
-77.0472120000000018
0
LINE
8
BLACK
6
CONTINUOUS
10
64.9519870000000026
20
-77.0472120000000018
11
64.8876240000000024
21
-77.1034439999999961
0
LINE
8
BLACK
6
CONTINUOUS
10
64.8876240000000024
20
-77.1034439999999961
11
64.8184789999999964
21
-77.1536809999999917
0
LINE
8
BLACK
6
CONTINUOUS
10
64.8184789999999964
20
-77.1536809999999917
11
64.7451099999999968
21
-77.1975169999999906
0
LINE
8
BLACK
6
CONTINUOUS
10
64.7451099999999968
20
-77.1975169999999906
11
64.6681059999999945
21
-77.2346000000000004
0
LINE
8
BLACK
6
CONTINUOUS
10
64.6681059999999945
20
-77.2346000000000004
11
64.5880889999999965
21
-77.2646309999999943
0
LINE
8
BLACK
6
CONTINUOUS
10
64.5880889999999965
20
-77.2646309999999943
11
64.505701000000002
21
-77.2873689999999982
0
LINE
8
BLACK
6
CONTINUOUS
10
64.505701000000002
20
-77.2873689999999982
11
64.4216069999999945
21
-77.3026299999999935
0
LINE
8
BLACK
6
CONTINUOUS
10
64.4216069999999945
20
-77.3026299999999935
11
64.3364839999999987
21
-77.3102909999999923
0
LINE
8
BLACK
6
CONTINUOUS
10
64.3364839999999987
20
-77.3102909999999923
11
64.2510159999999928
21
-77.3102909999999923
0
LINE
8
BLACK
6
CONTINUOUS
10
64.2510159999999928
20
-77.3102909999999923
11
64.165892999999997
21
-77.3026299999999935
0
LINE
8
BLACK
6
CONTINUOUS
10
64.165892999999997
20
-77.3026299999999935
11
64.0817990000000037
21
-77.2873689999999982
0
LINE
8
BLACK
6
CONTINUOUS
10
64.0817990000000037
20
-77.2873689999999982
11
63.9994109999999949
21
-77.2646309999999943
0
LINE
8
BLACK
6
CONTINUOUS
10
63.9994109999999949
20
-77.2646309999999943
11
63.9193939999999969
21
-77.2346000000000004
0
LINE
8
BLACK
6
CONTINUOUS
10
63.9193939999999969
20
-77.2346000000000004
11
63.8423899999999946
21
-77.1975169999999906
0
LINE
8
BLACK
6
CONTINUOUS
10
63.8423899999999946
20
-77.1975169999999906
11
63.7690209999999951
21
-77.1536809999999917
0
LINE
8
BLACK
6
CONTINUOUS
10
63.7690209999999951
20
-77.1536809999999917
11
63.6998759999999962
21
-77.1034439999999961
0
LINE
8
BLACK
6
CONTINUOUS
10
63.6998759999999962
20
-77.1034439999999961
11
63.635512999999996
21
-77.0472120000000018
0
LINE
8
BLACK
6
CONTINUOUS
10
63.635512999999996
20
-77.0472120000000018
11
63.5764489999999967
21
-76.9854369999999903
0
LINE
8
BLACK
6
CONTINUOUS
10
63.5764489999999967
20
-76.9854369999999903
11
63.5231609999999947
21
-76.9186150000000026
0
LINE
8
BLACK
6
CONTINUOUS
10
63.5231609999999947
20
-76.9186150000000026
11
63.476077999999994
21
-76.8472869999999944
0
LINE
8
BLACK
6
CONTINUOUS
10
63.476077999999994
20
-76.8472869999999944
11
63.435576999999995
21
-76.7720240000000018
0
LINE
8
BLACK
6
CONTINUOUS
10
63.435576999999995
20
-76.7720240000000018
11
63.4019859999999937
21
-76.6934349999999938
0
LINE
8
BLACK
6
CONTINUOUS
10
63.4019859999999937
20
-76.6934349999999938
11
63.3755749999999978
21
-76.6121499999999997
0
LINE
8
BLACK
6
CONTINUOUS
10
63.3755749999999978
20
-76.6121499999999997
11
63.3565569999999951
21
-76.5288249999999977
0
LINE
8
BLACK
6
CONTINUOUS
10
63.3565569999999951
20
-76.5288249999999977
11
63.3450839999999999
21
-76.4441309999999987
0
LINE
8
BLACK
6
CONTINUOUS
10
63.3450839999999999
20
-76.4441309999999987
11
63.3412499999999952
21
-76.3587500000000006
0
LINE
8
BLACK
6
CONTINUOUS
10
63.3412499999999952
20
-76.3587500000000006
11
63.3450839999999999
21
-76.2733690000000024
0
LINE
8
BLACK
6
CONTINUOUS
10
63.3450839999999999
20
-76.2733690000000024
11
63.3565569999999951
21
-76.1886750000000035
0
LINE
8
BLACK
6
CONTINUOUS
10
63.3565569999999951
20
-76.1886750000000035
11
63.3755749999999978
21
-76.1053500000000014
0
LINE
8
BLACK
6
CONTINUOUS
10
63.3755749999999978
20
-76.1053500000000014
11
63.4019859999999937
21
-76.0240649999999931
0
LINE
8
BLACK
6
CONTINUOUS
10
63.4019859999999937
20
-76.0240649999999931
11
63.435576999999995
21
-75.9454759999999993
0
LINE
8
BLACK
6
CONTINUOUS
10
63.435576999999995
20
-75.9454759999999993
11
63.476077999999994
21
-75.8702129999999926
0
LINE
8
BLACK
6
CONTINUOUS
10
63.476077999999994
20
-75.8702129999999926
11
63.5231609999999947
21
-75.7988849999999985
0
LINE
8
BLACK
6
CONTINUOUS
10
63.5231609999999947
20
-75.7988849999999985
11
63.5764489999999967
21
-75.7320629999999966
0
LINE
8
BLACK
6
CONTINUOUS
10
63.5764489999999967
20
-75.7320629999999966
11
63.635512999999996
21
-75.6702879999999993
0
LINE
8
BLACK
6
CONTINUOUS
10
63.635512999999996
20
-75.6702879999999993
11
63.6998759999999962
21
-75.6140559999999908
0
LINE
8
BLACK
6
CONTINUOUS
10
63.6998759999999962
20
-75.6140559999999908
11
63.7690209999999951
21
-75.5638189999999952
0
LINE
8
BLACK
6
CONTINUOUS
10
63.7690209999999951
20
-75.5638189999999952
11
63.8423899999999946
21
-75.5199829999999963
0
LINE
8
BLACK
6
CONTINUOUS
10
63.8423899999999946
20
-75.5199829999999963
11
63.9193939999999969
21
-75.4829000000000008
0
LINE
8
BLACK
6
CONTINUOUS
10
63.9193939999999969
20
-75.4829000000000008
11
63.9994109999999949
21
-75.4528689999999926
0
LINE
8
BLACK
6
CONTINUOUS
10
63.9994109999999949
20
-75.4528689999999926
11
64.0817990000000037
21
-75.4301310000000029
0
LINE
8
BLACK
6
CONTINUOUS
10
64.0817990000000037
20
-75.4301310000000029
11
64.165892999999997
21
-75.4148699999999934
0
LINE
8
BLACK
6
CONTINUOUS
10
64.165892999999997
20
-75.4148699999999934
11
64.2510159999999928
21
-75.4072089999999946
0
LINE
8
BLACK
6
CONTINUOUS
10
64.2510159999999928
20
-75.4072089999999946
11
64.3364839999999987
21
-75.4072089999999946
0
LINE
8
BLACK
6
CONTINUOUS
10
64.3364839999999987
20
-75.4072089999999946
11
64.4216069999999945
21
-75.4148699999999934
0
LINE
8
BLACK
6
CONTINUOUS
10
66.9616070000000008
20
-75.4148699999999934
11
67.045700999999994
21
-75.4301310000000029
0
LINE
8
BLACK
6
CONTINUOUS
10
67.045700999999994
20
-75.4301310000000029
11
67.1280890000000028
21
-75.4528689999999926
0
LINE
8
BLACK
6
CONTINUOUS
10
67.1280890000000028
20
-75.4528689999999926
11
67.2081060000000008
21
-75.4829000000000008
0
LINE
8
BLACK
6
CONTINUOUS
10
67.2081060000000008
20
-75.4829000000000008
11
67.2851100000000031
21
-75.5199829999999963
0
LINE
8
BLACK
6
CONTINUOUS
10
67.2851100000000031
20
-75.5199829999999963
11
67.3584790000000027
21
-75.5638189999999952
0
LINE
8
BLACK
6
CONTINUOUS
10
67.3584790000000027
20
-75.5638189999999952
11
67.4276239999999945
21
-75.6140559999999908
0
LINE
8
BLACK
6
CONTINUOUS
10
67.4276239999999945
20
-75.6140559999999908
11
67.4919869999999946
21
-75.6702879999999993
0
LINE
8
BLACK
6
CONTINUOUS
10
67.4919869999999946
20
-75.6702879999999993
11
67.5510510000000011
21
-75.7320629999999966
0
LINE
8
BLACK
6
CONTINUOUS
10
67.5510510000000011
20
-75.7320629999999966
11
67.604338999999996
21
-75.7988849999999985
0
LINE
8
BLACK
6
CONTINUOUS
10
67.604338999999996
20
-75.7988849999999985
11
67.6514219999999966
21
-75.8702129999999926
0
LINE
8
BLACK
6
CONTINUOUS
10
67.6514219999999966
20
-75.8702129999999926
11
67.6919230000000027
21
-75.9454759999999993
0
LINE
8
BLACK
6
CONTINUOUS
10
67.6919230000000027
20
-75.9454759999999993
11
67.725514000000004
21
-76.0240649999999931
0
LINE
8
BLACK
6
CONTINUOUS
10
67.725514000000004
20
-76.0240649999999931
11
67.751925
21
-76.1053500000000014
0
LINE
8
BLACK
6
CONTINUOUS
10
67.751925
20
-76.1053500000000014
11
67.7709430000000026
21
-76.1886750000000035
0
LINE
8
BLACK
6
CONTINUOUS
10
67.7709430000000026
20
-76.1886750000000035
11
67.7824159999999978
21
-76.2733690000000024
0
LINE
8
BLACK
6
CONTINUOUS
10
67.7824159999999978
20
-76.2733690000000024
11
67.7862499999999955
21
-76.3587500000000006
0
LINE
8
BLACK
6
CONTINUOUS
10
67.7862499999999955
20
-76.3587500000000006
11
67.7824159999999978
21
-76.4441309999999987
0
LINE
8
BLACK
6
CONTINUOUS
10
67.7824159999999978
20
-76.4441309999999987
11
67.7709430000000026
21
-76.5288249999999977
0
LINE
8
BLACK
6
CONTINUOUS
10
67.7709430000000026
20
-76.5288249999999977
11
67.751925
21
-76.6121499999999997
0
LINE
8
BLACK
6
CONTINUOUS
10
67.751925
20
-76.6121499999999997
11
67.725514000000004
21
-76.6934349999999938
0
LINE
8
BLACK
6
CONTINUOUS
10
67.725514000000004
20
-76.6934349999999938
11
67.6919230000000027
21
-76.7720240000000018
0
LINE
8
BLACK
6
CONTINUOUS
10
67.6919230000000027
20
-76.7720240000000018
11
67.6514219999999966
21
-76.8472869999999944
0
LINE
8
BLACK
6
CONTINUOUS
10
67.6514219999999966
20
-76.8472869999999944
11
67.604338999999996
21
-76.9186150000000026
0
LINE
8
BLACK
6
CONTINUOUS
10
67.604338999999996
20
-76.9186150000000026
11
67.5510510000000011
21
-76.9854369999999903
0
LINE
8
BLACK
6
CONTINUOUS
10
67.5510510000000011
20
-76.9854369999999903
11
67.4919869999999946
21
-77.0472120000000018
0
LINE
8
BLACK
6
CONTINUOUS
10
67.4919869999999946
20
-77.0472120000000018
11
67.4276239999999945
21
-77.1034439999999961
0
LINE
8
BLACK
6
CONTINUOUS
10
67.4276239999999945
20
-77.1034439999999961
11
67.3584790000000027
21
-77.1536809999999917
0
LINE
8
BLACK
6
CONTINUOUS
10
67.3584790000000027
20
-77.1536809999999917
11
67.2851100000000031
21
-77.1975169999999906
0
LINE
8
BLACK
6
CONTINUOUS
10
67.2851100000000031
20
-77.1975169999999906
11
67.2081060000000008
21
-77.2346000000000004
0
LINE
8
BLACK
6
CONTINUOUS
10
67.2081060000000008
20
-77.2346000000000004
11
67.1280890000000028
21
-77.2646309999999943
0
LINE
8
BLACK
6
CONTINUOUS
10
67.1280890000000028
20
-77.2646309999999943
11
67.045700999999994
21
-77.2873689999999982
0
LINE
8
BLACK
6
CONTINUOUS
10
67.045700999999994
20
-77.2873689999999982
11
66.9616070000000008
21
-77.3026299999999935
0
LINE
8
BLACK
6
CONTINUOUS
10
66.9616070000000008
20
-77.3026299999999935
11
66.8764839999999907
21
-77.3102909999999923
0
LINE
8
BLACK
6
CONTINUOUS
10
66.8764839999999907
20
-77.3102909999999923
11
66.7910159999999991
21
-77.3102909999999923
0
LINE
8
BLACK
6
CONTINUOUS
10
66.7910159999999991
20
-77.3102909999999923
11
66.7058930000000032
21
-77.3026299999999935
0
LINE
8
BLACK
6
CONTINUOUS
10
66.7058930000000032
20
-77.3026299999999935
11
66.6217989999999958
21
-77.2873689999999982
0
LINE
8
BLACK
6
CONTINUOUS
10
66.6217989999999958
20
-77.2873689999999982
11
66.5394110000000012
21
-77.2646309999999943
0
LINE
8
BLACK
6
CONTINUOUS
10
66.5394110000000012
20
-77.2646309999999943
11
66.4593940000000032
21
-77.2346000000000004
0
LINE
8
BLACK
6
CONTINUOUS
10
66.4593940000000032
20
-77.2346000000000004
11
66.3823900000000009
21
-77.1975169999999906
0
LINE
8
BLACK
6
CONTINUOUS
10
66.3823900000000009
20
-77.1975169999999906
11
66.3090210000000013
21
-77.1536809999999917
0
LINE
8
BLACK
6
CONTINUOUS
10
66.3090210000000013
20
-77.1536809999999917
11
66.2398759999999953
21
-77.1034439999999961
0
LINE
8
BLACK
6
CONTINUOUS
10
66.2398759999999953
20
-77.1034439999999961
11
66.1755129999999951
21
-77.0472120000000018
0
LINE
8
BLACK
6
CONTINUOUS
10
66.1755129999999951
20
-77.0472120000000018
11
66.1164490000000029
21
-76.9854369999999903
0
LINE
8
BLACK
6
CONTINUOUS
10
66.1164490000000029
20
-76.9854369999999903
11
66.0631609999999938
21
-76.9186150000000026
0
LINE
8
BLACK
6
CONTINUOUS
10
66.0631609999999938
20
-76.9186150000000026
11
66.0160779999999932
21
-76.8472869999999944
0
LINE
8
BLACK
6
CONTINUOUS
10
66.0160779999999932
20
-76.8472869999999944
11
65.9755770000000012
21
-76.7720240000000018
0
LINE
8
BLACK
6
CONTINUOUS
10
65.9755770000000012
20
-76.7720240000000018
11
65.941986
21
-76.6934349999999938
0
LINE
8
BLACK
6
CONTINUOUS
10
65.941986
20
-76.6934349999999938
11
65.915575000000004
21
-76.6121499999999997
0
LINE
8
BLACK
6
CONTINUOUS
10
65.915575000000004
20
-76.6121499999999997
11
65.8965570000000014
21
-76.5288249999999977
0
LINE
8
BLACK
6
CONTINUOUS
10
65.8965570000000014
20
-76.5288249999999977
11
65.885083999999992
21
-76.4441309999999987
0
LINE
8
BLACK
6
CONTINUOUS
10
65.885083999999992
20
-76.4441309999999987
11
65.8812499999999943
21
-76.3587500000000006
0
LINE
8
BLACK
6
CONTINUOUS
10
65.8812499999999943
20
-76.3587500000000006
11
65.885083999999992
21
-76.2733690000000024
0
LINE
8
BLACK
6
CONTINUOUS
10
65.885083999999992
20
-76.2733690000000024
11
65.8965570000000014
21
-76.1886750000000035
0
LINE
8
BLACK
6
CONTINUOUS
10
65.8965570000000014
20
-76.1886750000000035
11
65.915575000000004
21
-76.1053500000000014
0
LINE
8
BLACK
6
CONTINUOUS
10
65.915575000000004
20
-76.1053500000000014
11
65.941986
21
-76.0240649999999931
0
LINE
8
BLACK
6
CONTINUOUS
10
65.941986
20
-76.0240649999999931
11
65.9755770000000012
21
-75.9454759999999993
0
LINE
8
BLACK
6
CONTINUOUS
10
65.9755770000000012
20
-75.9454759999999993
11
66.0160779999999932
21
-75.8702129999999926
0
LINE
8
BLACK
6
CONTINUOUS
10
66.0160779999999932
20
-75.8702129999999926
11
66.0631609999999938
21
-75.7988849999999985
0
LINE
8
BLACK
6
CONTINUOUS
10
66.0631609999999938
20
-75.7988849999999985
11
66.1164490000000029
21
-75.7320629999999966
0
LINE
8
BLACK
6
CONTINUOUS
10
66.1164490000000029
20
-75.7320629999999966
11
66.1755129999999951
21
-75.6702879999999993
0
LINE
8
BLACK
6
CONTINUOUS
10
66.1755129999999951
20
-75.6702879999999993
11
66.2398759999999953
21
-75.6140559999999908
0
LINE
8
BLACK
6
CONTINUOUS
10
66.2398759999999953
20
-75.6140559999999908
11
66.3090210000000013
21
-75.5638189999999952
0
LINE
8
BLACK
6
CONTINUOUS
10
66.3090210000000013
20
-75.5638189999999952
11
66.3823900000000009
21
-75.5199829999999963
0
LINE
8
BLACK
6
CONTINUOUS
10
66.3823900000000009
20
-75.5199829999999963
11
66.4593940000000032
21
-75.4829000000000008
0
LINE
8
BLACK
6
CONTINUOUS
10
66.4593940000000032
20
-75.4829000000000008
11
66.5394110000000012
21
-75.4528689999999926
0
LINE
8
BLACK
6
CONTINUOUS
10
66.5394110000000012
20
-75.4528689999999926
11
66.6217989999999958
21
-75.4301310000000029
0
LINE
8
BLACK
6
CONTINUOUS
10
66.6217989999999958
20
-75.4301310000000029
11
66.7058930000000032
21
-75.4148699999999934
0
LINE
8
BLACK
6
CONTINUOUS
10
66.7058930000000032
20
-75.4148699999999934
11
66.7910159999999991
21
-75.4072089999999946
0
LINE
8
BLACK
6
CONTINUOUS
10
66.7910159999999991
20
-75.4072089999999946
11
66.8764839999999907
21
-75.4072089999999946
0
LINE
8
BLACK
6
CONTINUOUS
10
66.8764839999999907
20
-75.4072089999999946
11
66.9616070000000008
21
-75.4148699999999934
0
LINE
8
BLACK
6
CONTINUOUS
10
69.5016069999999928
20
-75.4148699999999934
11
69.5857010000000002
21
-75.4301310000000029
0
LINE
8
BLACK
6
CONTINUOUS
10
69.5857010000000002
20
-75.4301310000000029
11
69.6680889999999948
21
-75.4528689999999926
0
LINE
8
BLACK
6
CONTINUOUS
10
69.6680889999999948
20
-75.4528689999999926
11
69.7481059999999928
21
-75.4829000000000008
0
LINE
8
BLACK
6
CONTINUOUS
10
69.7481059999999928
20
-75.4829000000000008
11
69.8251099999999951
21
-75.5199829999999963
0
LINE
8
BLACK
6
CONTINUOUS
10
69.8251099999999951
20
-75.5199829999999963
11
69.8984789999999947
21
-75.5638189999999952
0
LINE
8
BLACK
6
CONTINUOUS
10
69.8984789999999947
20
-75.5638189999999952
11
69.9676240000000007
21
-75.6140559999999908
0
LINE
8
BLACK
6
CONTINUOUS
10
69.9676240000000007
20
-75.6140559999999908
11
70.0319870000000009
21
-75.6702879999999993
0
LINE
8
BLACK
6
CONTINUOUS
10
70.0319870000000009
20
-75.6702879999999993
11
70.0910509999999931
21
-75.7320629999999966
0
LINE
8
BLACK
6
CONTINUOUS
10
70.0910509999999931
20
-75.7320629999999966
11
70.1443390000000022
21
-75.7988849999999985
0
LINE
8
BLACK
6
CONTINUOUS
10
70.1443390000000022
20
-75.7988849999999985
11
70.1914220000000029
21
-75.8702129999999926
0
LINE
8
BLACK
6
CONTINUOUS
10
70.1914220000000029
20
-75.8702129999999926
11
70.2319229999999948
21
-75.9454759999999993
0
LINE
8
BLACK
6
CONTINUOUS
10
70.2319229999999948
20
-75.9454759999999993
11
70.265513999999996
21
-76.0240649999999931
0
LINE
8
BLACK
6
CONTINUOUS
10
70.265513999999996
20
-76.0240649999999931
11
70.291924999999992
21
-76.1053500000000014
0
LINE
8
BLACK
6
CONTINUOUS
10
70.291924999999992
20
-76.1053500000000014
11
70.3109429999999946
21
-76.1886750000000035
0
LINE
8
BLACK
6
CONTINUOUS
10
70.3109429999999946
20
-76.1886750000000035
11
70.3224159999999898
21
-76.2733690000000024
0
LINE
8
BLACK
6
CONTINUOUS
10
70.3224159999999898
20
-76.2733690000000024
11
70.3262500000000017
21
-76.3587500000000006
0
LINE
8
BLACK
6
CONTINUOUS
10
70.3262500000000017
20
-76.3587500000000006
11
70.3224159999999898
21
-76.4441309999999987
0
LINE
8
BLACK
6
CONTINUOUS
10
70.3224159999999898
20
-76.4441309999999987
11
70.3109429999999946
21
-76.5288249999999977
0
LINE
8
BLACK
6
CONTINUOUS
10
70.3109429999999946
20
-76.5288249999999977
11
70.291924999999992
21
-76.6121499999999997
0
LINE
8
BLACK
6
CONTINUOUS
10
70.291924999999992
20
-76.6121499999999997
11
70.265513999999996
21
-76.6934349999999938
0
LINE
8
BLACK
6
CONTINUOUS
10
70.265513999999996
20
-76.6934349999999938
11
70.2319229999999948
21
-76.7720240000000018
0
LINE
8
BLACK
6
CONTINUOUS
10
70.2319229999999948
20
-76.7720240000000018
11
70.1914220000000029
21
-76.8472869999999944
0
LINE
8
BLACK
6
CONTINUOUS
10
70.1914220000000029
20
-76.8472869999999944
11
70.1443390000000022
21
-76.9186150000000026
0
LINE
8
BLACK
6
CONTINUOUS
10
70.1443390000000022
20
-76.9186150000000026
11
70.0910509999999931
21
-76.9854369999999903
0
LINE
8
BLACK
6
CONTINUOUS
10
70.0910509999999931
20
-76.9854369999999903
11
70.0319870000000009
21
-77.0472120000000018
0
LINE
8
BLACK
6
CONTINUOUS
10
70.0319870000000009
20
-77.0472120000000018
11
69.9676240000000007
21
-77.1034439999999961
0
LINE
8
BLACK
6
CONTINUOUS
10
69.9676240000000007
20
-77.1034439999999961
11
69.8984789999999947
21
-77.1536809999999917
0
LINE
8
BLACK
6
CONTINUOUS
10
69.8984789999999947
20
-77.1536809999999917
11
69.8251099999999951
21
-77.1975169999999906
0
LINE
8
BLACK
6
CONTINUOUS
10
69.8251099999999951
20
-77.1975169999999906
11
69.7481059999999928
21
-77.2346000000000004
0
LINE
8
BLACK
6
CONTINUOUS
10
69.7481059999999928
20
-77.2346000000000004
11
69.6680889999999948
21
-77.2646309999999943
0
LINE
8
BLACK
6
CONTINUOUS
10
69.6680889999999948
20
-77.2646309999999943
11
69.5857010000000002
21
-77.2873689999999982
0
LINE
8
BLACK
6
CONTINUOUS
10
69.5857010000000002
20
-77.2873689999999982
11
69.5016069999999928
21
-77.3026299999999935
0
LINE
8
BLACK
6
CONTINUOUS
10
69.5016069999999928
20
-77.3026299999999935
11
69.416483999999997
21
-77.3102909999999923
0
LINE
8
BLACK
6
CONTINUOUS
10
69.416483999999997
20
-77.3102909999999923
11
69.3310159999999911
21
-77.3102909999999923
0
LINE
8
BLACK
6
CONTINUOUS
10
69.3310159999999911
20
-77.3102909999999923
11
69.2458929999999953
21
-77.3026299999999935
0
LINE
8
BLACK
6
CONTINUOUS
10
69.2458929999999953
20
-77.3026299999999935
11
69.161799000000002
21
-77.2873689999999982
0
LINE
8
BLACK
6
CONTINUOUS
10
69.161799000000002
20
-77.2873689999999982
11
69.0794109999999932
21
-77.2646309999999943
0
LINE
8
BLACK
6
CONTINUOUS
10
69.0794109999999932
20
-77.2646309999999943
11
68.9993939999999952
21
-77.2346000000000004
0
LINE
8
BLACK
6
CONTINUOUS
10
68.9993939999999952
20
-77.2346000000000004
11
68.9223899999999929
21
-77.1975169999999906
0
LINE
8
BLACK
6
CONTINUOUS
10
68.9223899999999929
20
-77.1975169999999906
11
68.8490209999999934
21
-77.1536809999999917
0
LINE
8
BLACK
6
CONTINUOUS
10
68.8490209999999934
20
-77.1536809999999917
11
68.7798760000000016
21
-77.1034439999999961
0
LINE
8
BLACK
6
CONTINUOUS
10
68.7798760000000016
20
-77.1034439999999961
11
68.7155130000000014
21
-77.0472120000000018
0
LINE
8
BLACK
6
CONTINUOUS
10
68.7155130000000014
20
-77.0472120000000018
11
68.656448999999995
21
-76.9854369999999903
0
LINE
8
BLACK
6
CONTINUOUS
10
68.656448999999995
20
-76.9854369999999903
11
68.6031610000000001
21
-76.9186150000000026
0
LINE
8
BLACK
6
CONTINUOUS
10
68.6031610000000001
20
-76.9186150000000026
11
68.5560779999999994
21
-76.8472869999999944
0
LINE
8
BLACK
6
CONTINUOUS
10
68.5560779999999994
20
-76.8472869999999944
11
68.5155769999999933
21
-76.7720240000000018
0
LINE
8
BLACK
6
CONTINUOUS
10
68.5155769999999933
20
-76.7720240000000018
11
68.481985999999992
21
-76.6934349999999938
0
LINE
8
BLACK
6
CONTINUOUS
10
68.481985999999992
20
-76.6934349999999938
11
68.4555749999999961
21
-76.6121499999999997
0
LINE
8
BLACK
6
CONTINUOUS
10
68.4555749999999961
20
-76.6121499999999997
11
68.4365569999999934
21
-76.5288249999999977
0
LINE
8
BLACK
6
CONTINUOUS
10
68.4365569999999934
20
-76.5288249999999977
11
68.4250839999999982
21
-76.4441309999999987
0
LINE
8
BLACK
6
CONTINUOUS
10
68.4250839999999982
20
-76.4441309999999987
11
68.4212500000000006
21
-76.3587500000000006
0
LINE
8
BLACK
6
CONTINUOUS
10
68.4212500000000006
20
-76.3587500000000006
11
68.4250839999999982
21
-76.2733690000000024
0
LINE
8
BLACK
6
CONTINUOUS
10
68.4250839999999982
20
-76.2733690000000024
11
68.4365569999999934
21
-76.1886750000000035
0
LINE
8
BLACK
6
CONTINUOUS
10
68.4365569999999934
20
-76.1886750000000035
11
68.4555749999999961
21
-76.1053500000000014
0
LINE
8
BLACK
6
CONTINUOUS
10
68.4555749999999961
20
-76.1053500000000014
11
68.481985999999992
21
-76.0240649999999931
0
LINE
8
BLACK
6
CONTINUOUS
10
68.481985999999992
20
-76.0240649999999931
11
68.5155769999999933
21
-75.9454759999999993
0
LINE
8
BLACK
6
CONTINUOUS
10
68.5155769999999933
20
-75.9454759999999993
11
68.5560779999999994
21
-75.8702129999999926
0
LINE
8
BLACK
6
CONTINUOUS
10
68.5560779999999994
20
-75.8702129999999926
11
68.6031610000000001
21
-75.7988849999999985
0
LINE
8
BLACK
6
CONTINUOUS
10
68.6031610000000001
20
-75.7988849999999985
11
68.656448999999995
21
-75.7320629999999966
0
LINE
8
BLACK
6
CONTINUOUS
10
68.656448999999995
20
-75.7320629999999966
11
68.7155130000000014
21
-75.6702879999999993
0
LINE
8
BLACK
6
CONTINUOUS
10
68.7155130000000014
20
-75.6702879999999993
11
68.7798760000000016
21
-75.6140559999999908
0
LINE
8
BLACK
6
CONTINUOUS
10
68.7798760000000016
20
-75.6140559999999908
11
68.8490209999999934
21
-75.5638189999999952
0
LINE
8
BLACK
6
CONTINUOUS
10
68.8490209999999934
20
-75.5638189999999952
11
68.9223899999999929
21
-75.5199829999999963
0
LINE
8
BLACK
6
CONTINUOUS
10
68.9223899999999929
20
-75.5199829999999963
11
68.9993939999999952
21
-75.4829000000000008
0
LINE
8
BLACK
6
CONTINUOUS
10
68.9993939999999952
20
-75.4829000000000008
11
69.0794109999999932
21
-75.4528689999999926
0
LINE
8
BLACK
6
CONTINUOUS
10
69.0794109999999932
20
-75.4528689999999926
11
69.161799000000002
21
-75.4301310000000029
0
LINE
8
BLACK
6
CONTINUOUS
10
69.161799000000002
20
-75.4301310000000029
11
69.2458929999999953
21
-75.4148699999999934
0
LINE
8
BLACK
6
CONTINUOUS
10
69.2458929999999953
20
-75.4148699999999934
11
69.3310159999999911
21
-75.4072089999999946
0
LINE
8
BLACK
6
CONTINUOUS
10
69.3310159999999911
20
-75.4072089999999946
11
69.416483999999997
21
-75.4072089999999946
0
LINE
8
BLACK
6
CONTINUOUS
10
69.416483999999997
20
-75.4072089999999946
11
69.5016069999999928
21
-75.4148699999999934
0
LINE
8
BLACK
6
CONTINUOUS
10
72.0416069999999991
20
-75.4148699999999934
11
72.1257009999999923
21
-75.4301310000000029
0
LINE
8
BLACK
6
CONTINUOUS
10
72.1257009999999923
20
-75.4301310000000029
11
72.2080890000000011
21
-75.4528689999999926
0
LINE
8
BLACK
6
CONTINUOUS
10
72.2080890000000011
20
-75.4528689999999926
11
72.2881059999999991
21
-75.4829000000000008
0
LINE
8
BLACK
6
CONTINUOUS
10
72.2881059999999991
20
-75.4829000000000008
11
72.3651100000000014
21
-75.5199829999999963
0
LINE
8
BLACK
6
CONTINUOUS
10
72.3651100000000014
20
-75.5199829999999963
11
72.438479000000001
21
-75.5638189999999952
0
LINE
8
BLACK
6
CONTINUOUS
10
72.438479000000001
20
-75.5638189999999952
11
72.5076239999999927
21
-75.6140559999999908
0
LINE
8
BLACK
6
CONTINUOUS
10
72.5076239999999927
20
-75.6140559999999908
11
72.5719869999999929
21
-75.6702879999999993
0
LINE
8
BLACK
6
CONTINUOUS
10
72.5719869999999929
20
-75.6702879999999993
11
72.6310509999999994
21
-75.7320629999999966
0
LINE
8
BLACK
6
CONTINUOUS
10
72.6310509999999994
20
-75.7320629999999966
11
72.6843389999999943
21
-75.7988849999999985
0
LINE
8
BLACK
6
CONTINUOUS
10
72.6843389999999943
20
-75.7988849999999985
11
72.7314219999999949
21
-75.8702129999999926
0
LINE
8
BLACK
6
CONTINUOUS
10
72.7314219999999949
20
-75.8702129999999926
11
72.771923000000001
21
-75.9454759999999993
0
LINE
8
BLACK
6
CONTINUOUS
10
72.771923000000001
20
-75.9454759999999993
11
72.8055140000000023
21
-76.0240649999999931
0
LINE
8
BLACK
6
CONTINUOUS
10
72.8055140000000023
20
-76.0240649999999931
11
72.8319249999999982
21
-76.1053500000000014
0
LINE
8
BLACK
6
CONTINUOUS
10
72.8319249999999982
20
-76.1053500000000014
11
72.8509430000000009
21
-76.1886750000000035
0
LINE
8
BLACK
6
CONTINUOUS
10
72.8509430000000009
20
-76.1886750000000035
11
72.8624159999999961
21
-76.2733690000000024
0
LINE
8
BLACK
6
CONTINUOUS
10
72.8624159999999961
20
-76.2733690000000024
11
72.8662499999999937
21
-76.3587500000000006
0
LINE
8
BLACK
6
CONTINUOUS
10
72.8662499999999937
20
-76.3587500000000006
11
72.8624159999999961
21
-76.4441309999999987
0
LINE
8
BLACK
6
CONTINUOUS
10
72.8624159999999961
20
-76.4441309999999987
11
72.8509430000000009
21
-76.5288249999999977
0
LINE
8
BLACK
6
CONTINUOUS
10
72.8509430000000009
20
-76.5288249999999977
11
72.8319249999999982
21
-76.6121499999999997
0
LINE
8
BLACK
6
CONTINUOUS
10
72.8319249999999982
20
-76.6121499999999997
11
72.8055140000000023
21
-76.6934349999999938
0
LINE
8
BLACK
6
CONTINUOUS
10
72.8055140000000023
20
-76.6934349999999938
11
72.771923000000001
21
-76.7720240000000018
0
LINE
8
BLACK
6
CONTINUOUS
10
72.771923000000001
20
-76.7720240000000018
11
72.7314219999999949
21
-76.8472869999999944
0
LINE
8
BLACK
6
CONTINUOUS
10
72.7314219999999949
20
-76.8472869999999944
11
72.6843389999999943
21
-76.9186150000000026
0
LINE
8
BLACK
6
CONTINUOUS
10
72.6843389999999943
20
-76.9186150000000026
11
72.6310509999999994
21
-76.9854369999999903
0
LINE
8
BLACK
6
CONTINUOUS
10
72.6310509999999994
20
-76.9854369999999903
11
72.5719869999999929
21
-77.0472120000000018
0
LINE
8
BLACK
6
CONTINUOUS
10
72.5719869999999929
20
-77.0472120000000018
11
72.5076239999999927
21
-77.1034439999999961
0
LINE
8
BLACK
6
CONTINUOUS
10
72.5076239999999927
20
-77.1034439999999961
11
72.438479000000001
21
-77.1536809999999917
0
LINE
8
BLACK
6
CONTINUOUS
10
72.438479000000001
20
-77.1536809999999917
11
72.3651100000000014
21
-77.1975169999999906
0
LINE
8
BLACK
6
CONTINUOUS
10
72.3651100000000014
20
-77.1975169999999906
11
72.2881059999999991
21
-77.2346000000000004
0
LINE
8
BLACK
6
CONTINUOUS
10
72.2881059999999991
20
-77.2346000000000004
11
72.2080890000000011
21
-77.2646309999999943
0
LINE
8
BLACK
6
CONTINUOUS
10
72.2080890000000011
20
-77.2646309999999943
11
72.1257009999999923
21
-77.2873689999999982
0
LINE
8
BLACK
6
CONTINUOUS
10
72.1257009999999923
20
-77.2873689999999982
11
72.0416069999999991
21
-77.3026299999999935
0
LINE
8
BLACK
6
CONTINUOUS
10
72.0416069999999991
20
-77.3026299999999935
11
71.9564840000000032
21
-77.3102909999999923
0
LINE
8
BLACK
6
CONTINUOUS
10
71.9564840000000032
20
-77.3102909999999923
11
71.8710159999999973
21
-77.3102909999999923
0
LINE
8
BLACK
6
CONTINUOUS
10
71.8710159999999973
20
-77.3102909999999923
11
71.7858930000000015
21
-77.3026299999999935
0
LINE
8
BLACK
6
CONTINUOUS
10
71.7858930000000015
20
-77.3026299999999935
11
71.7017989999999941
21
-77.2873689999999982
0
LINE
8
BLACK
6
CONTINUOUS
10
71.7017989999999941
20
-77.2873689999999982
11
71.6194109999999995
21
-77.2646309999999943
0
LINE
8
BLACK
6
CONTINUOUS
10
71.6194109999999995
20
-77.2646309999999943
11
71.5393940000000015
21
-77.2346000000000004
0
LINE
8
BLACK
6
CONTINUOUS
10
71.5393940000000015
20
-77.2346000000000004
11
71.4623899999999992
21
-77.1975169999999906
0
LINE
8
BLACK
6
CONTINUOUS
10
71.4623899999999992
20
-77.1975169999999906
11
71.3890209999999996
21
-77.1536809999999917
0
LINE
8
BLACK
6
CONTINUOUS
10
71.3890209999999996
20
-77.1536809999999917
11
71.3198759999999936
21
-77.1034439999999961
0
LINE
8
BLACK
6
CONTINUOUS
10
71.3198759999999936
20
-77.1034439999999961
11
71.2555129999999934
21
-77.0472120000000018
0
LINE
8
BLACK
6
CONTINUOUS
10
71.2555129999999934
20
-77.0472120000000018
11
71.1964490000000012
21
-76.9854369999999903
0
LINE
8
BLACK
6
CONTINUOUS
10
71.1964490000000012
20
-76.9854369999999903
11
71.1431609999999921
21
-76.9186150000000026
0
LINE
8
BLACK
6
CONTINUOUS
10
71.1431609999999921
20
-76.9186150000000026
11
71.0960779999999914
21
-76.8472869999999944
0
LINE
8
BLACK
6
CONTINUOUS
10
71.0960779999999914
20
-76.8472869999999944
11
71.0555769999999995
21
-76.7720240000000018
0
LINE
8
BLACK
6
CONTINUOUS
10
71.0555769999999995
20
-76.7720240000000018
11
71.0219859999999983
21
-76.6934349999999938
0
LINE
8
BLACK
6
CONTINUOUS
10
71.0219859999999983
20
-76.6934349999999938
11
70.9955750000000023
21
-76.6121499999999997
0
LINE
8
BLACK
6
CONTINUOUS
10
70.9955750000000023
20
-76.6121499999999997
11
70.9765569999999997
21
-76.5288249999999977
0
LINE
8
BLACK
6
CONTINUOUS
10
70.9765569999999997
20
-76.5288249999999977
11
70.9650839999999903
21
-76.4441309999999987
0
LINE
8
BLACK
6
CONTINUOUS
10
70.9650839999999903
20
-76.4441309999999987
11
70.9612499999999926
21
-76.3587500000000006
0
LINE
8
BLACK
6
CONTINUOUS
10
70.9612499999999926
20
-76.3587500000000006
11
70.9650839999999903
21
-76.2733690000000024
0
LINE
8
BLACK
6
CONTINUOUS
10
70.9650839999999903
20
-76.2733690000000024
11
70.9765569999999997
21
-76.1886750000000035
0
LINE
8
BLACK
6
CONTINUOUS
10
70.9765569999999997
20
-76.1886750000000035
11
70.9955750000000023
21
-76.1053500000000014
0
LINE
8
BLACK
6
CONTINUOUS
10
70.9955750000000023
20
-76.1053500000000014
11
71.0219859999999983
21
-76.0240649999999931
0
LINE
8
BLACK
6
CONTINUOUS
10
71.0219859999999983
20
-76.0240649999999931
11
71.0555769999999995
21
-75.9454759999999993
0
LINE
8
BLACK
6
CONTINUOUS
10
71.0555769999999995
20
-75.9454759999999993
11
71.0960779999999914
21
-75.8702129999999926
0
LINE
8
BLACK
6
CONTINUOUS
10
71.0960779999999914
20
-75.8702129999999926
11
71.1431609999999921
21
-75.7988849999999985
0
LINE
8
BLACK
6
CONTINUOUS
10
71.1431609999999921
20
-75.7988849999999985
11
71.1964490000000012
21
-75.7320629999999966
0
LINE
8
BLACK
6
CONTINUOUS
10
71.1964490000000012
20
-75.7320629999999966
11
71.2555129999999934
21
-75.6702879999999993
0
LINE
8
BLACK
6
CONTINUOUS
10
71.2555129999999934
20
-75.6702879999999993
11
71.3198759999999936
21
-75.6140559999999908
0
LINE
8
BLACK
6
CONTINUOUS
10
71.3198759999999936
20
-75.6140559999999908
11
71.3890209999999996
21
-75.5638189999999952
0
LINE
8
BLACK
6
CONTINUOUS
10
71.3890209999999996
20
-75.5638189999999952
11
71.4623899999999992
21
-75.5199829999999963
0
LINE
8
BLACK
6
CONTINUOUS
10
71.4623899999999992
20
-75.5199829999999963
11
71.5393940000000015
21
-75.4829000000000008
0
LINE
8
BLACK
6
CONTINUOUS
10
71.5393940000000015
20
-75.4829000000000008
11
71.6194109999999995
21
-75.4528689999999926
0
LINE
8
BLACK
6
CONTINUOUS
10
71.6194109999999995
20
-75.4528689999999926
11
71.7017989999999941
21
-75.4301310000000029
0
LINE
8
BLACK
6
CONTINUOUS
10
71.7017989999999941
20
-75.4301310000000029
11
71.7858930000000015
21
-75.4148699999999934
0
LINE
8
BLACK
6
CONTINUOUS
10
71.7858930000000015
20
-75.4148699999999934
11
71.8710159999999973
21
-75.4072089999999946
0
LINE
8
BLACK
6
CONTINUOUS
10
71.8710159999999973
20
-75.4072089999999946
11
71.9564840000000032
21
-75.4072089999999946
0
LINE
8
BLACK
6
CONTINUOUS
10
71.9564840000000032
20
-75.4072089999999946
11
72.0416069999999991
21
-75.4148699999999934
0
LINE
8
BLACK
6
CONTINUOUS
10
61.8816069999999954
20
-72.8748700000000014
11
61.9657009999999957
21
-72.8901309999999967
0
LINE
8
BLACK
6
CONTINUOUS
10
61.9657009999999957
20
-72.8901309999999967
11
62.0480889999999974
21
-72.9128690000000006
0
LINE
8
BLACK
6
CONTINUOUS
10
62.0480889999999974
20
-72.9128690000000006
11
62.1281059999999954
21
-72.9428999999999945
0
LINE
8
BLACK
6
CONTINUOUS
10
62.1281059999999954
20
-72.9428999999999945
11
62.2051099999999977
21
-72.9799829999999901
0
LINE
8
BLACK
6
CONTINUOUS
10
62.2051099999999977
20
-72.9799829999999901
11
62.2784789999999973
21
-73.0238190000000031
0
LINE
8
BLACK
6
CONTINUOUS
10
62.2784789999999973
20
-73.0238190000000031
11
62.3476239999999962
21
-73.0740559999999988
0
LINE
8
BLACK
6
CONTINUOUS
10
62.3476239999999962
20
-73.0740559999999988
11
62.4119869999999963
21
-73.1302879999999931
0
LINE
8
BLACK
6
CONTINUOUS
10
62.4119869999999963
20
-73.1302879999999931
11
62.4710509999999957
21
-73.1920629999999903
0
LINE
8
BLACK
6
CONTINUOUS
10
62.4710509999999957
20
-73.1920629999999903
11
62.5243389999999977
21
-73.2588849999999923
0
LINE
8
BLACK
6
CONTINUOUS
10
62.5243389999999977
20
-73.2588849999999923
11
62.5714219999999983
21
-73.3302130000000005
0
LINE
8
BLACK
6
CONTINUOUS
10
62.5714219999999983
20
-73.3302130000000005
11
62.6119229999999973
21
-73.4054759999999931
0
LINE
8
BLACK
6
CONTINUOUS
10
62.6119229999999973
20
-73.4054759999999931
11
62.6455139999999986
21
-73.4840650000000011
0
LINE
8
BLACK
6
CONTINUOUS
10
62.6455139999999986
20
-73.4840650000000011
11
62.6719249999999946
21
-73.5653499999999951
0
LINE
8
BLACK
6
CONTINUOUS
10
62.6719249999999946
20
-73.5653499999999951
11
62.6909429999999972
21
-73.6486749999999972
0
LINE
8
BLACK
6
CONTINUOUS
10
62.6909429999999972
20
-73.6486749999999972
11
62.7024159999999995
21
-73.7333689999999962
0
LINE
8
BLACK
6
CONTINUOUS
10
62.7024159999999995
20
-73.7333689999999962
11
62.7062499999999972
21
-73.8187499999999943
0
LINE
8
BLACK
6
CONTINUOUS
10
62.7062499999999972
20
-73.8187499999999943
11
62.7024159999999995
21
-73.9041309999999925
0
LINE
8
BLACK
6
CONTINUOUS
10
62.7024159999999995
20
-73.9041309999999925
11
62.6909429999999972
21
-73.9888249999999914
0
LINE
8
BLACK
6
CONTINUOUS
10
62.6909429999999972
20
-73.9888249999999914
11
62.6719249999999946
21
-74.0721499999999935
0
LINE
8
BLACK
6
CONTINUOUS
10
62.6719249999999946
20
-74.0721499999999935
11
62.6455139999999986
21
-74.1534350000000018
0
LINE
8
BLACK
6
CONTINUOUS
10
62.6455139999999986
20
-74.1534350000000018
11
62.6119229999999973
21
-74.2320239999999956
0
LINE
8
BLACK
6
CONTINUOUS
10
62.6119229999999973
20
-74.2320239999999956
11
62.5714219999999983
21
-74.3072870000000023
0
LINE
8
BLACK
6
CONTINUOUS
10
62.5714219999999983
20
-74.3072870000000023
11
62.5243389999999977
21
-74.3786149999999964
0
LINE
8
BLACK
6
CONTINUOUS
10
62.5243389999999977
20
-74.3786149999999964
11
62.4710509999999957
21
-74.4454369999999983
0
LINE
8
BLACK
6
CONTINUOUS
10
62.4710509999999957
20
-74.4454369999999983
11
62.4119869999999963
21
-74.5072119999999956
0
LINE
8
BLACK
6
CONTINUOUS
10
62.4119869999999963
20
-74.5072119999999956
11
62.3476239999999962
21
-74.5634439999999898
0
LINE
8
BLACK
6
CONTINUOUS
10
62.3476239999999962
20
-74.5634439999999898
11
62.2784789999999973
21
-74.6136809999999997
0
LINE
8
BLACK
6
CONTINUOUS
10
62.2784789999999973
20
-74.6136809999999997
11
62.2051099999999977
21
-74.6575169999999986
0
LINE
8
BLACK
6
CONTINUOUS
10
62.2051099999999977
20
-74.6575169999999986
11
62.1281059999999954
21
-74.6945999999999941
0
LINE
8
BLACK
6
CONTINUOUS
10
62.1281059999999954
20
-74.6945999999999941
11
62.0480889999999974
21
-74.7246310000000022
0
LINE
8
BLACK
6
CONTINUOUS
10
62.0480889999999974
20
-74.7246310000000022
11
61.9657009999999957
21
-74.747368999999992
0
LINE
8
BLACK
6
CONTINUOUS
10
61.9657009999999957
20
-74.747368999999992
11
61.8816069999999954
21
-74.7626300000000015
0
LINE
8
BLACK
6
CONTINUOUS
10
61.8816069999999954
20
-74.7626300000000015
11
61.7964839999999995
21
-74.7702910000000003
0
LINE
8
BLACK
6
CONTINUOUS
10
61.7964839999999995
20
-74.7702910000000003
11
61.7110160000000008
21
-74.7702910000000003
0
LINE
8
BLACK
6
CONTINUOUS
10
61.7110160000000008
20
-74.7702910000000003
11
61.6258929999999978
21
-74.7626300000000015
0
LINE
8
BLACK
6
CONTINUOUS
10
61.6258929999999978
20
-74.7626300000000015
11
61.5417989999999975
21
-74.747368999999992
0
LINE
8
BLACK
6
CONTINUOUS
10
61.5417989999999975
20
-74.747368999999992
11
61.4594109999999958
21
-74.7246310000000022
0
LINE
8
BLACK
6
CONTINUOUS
10
61.4594109999999958
20
-74.7246310000000022
11
61.3793939999999978
21
-74.6945999999999941
0
LINE
8
BLACK
6
CONTINUOUS
10
61.3793939999999978
20
-74.6945999999999941
11
61.3023899999999955
21
-74.6575169999999986
0
LINE
8
BLACK
6
CONTINUOUS
10
61.3023899999999955
20
-74.6575169999999986
11
61.2290209999999959
21
-74.6136809999999997
0
LINE
8
BLACK
6
CONTINUOUS
10
61.2290209999999959
20
-74.6136809999999997
11
61.159875999999997
21
-74.5634439999999898
0
LINE
8
BLACK
6
CONTINUOUS
10
61.159875999999997
20
-74.5634439999999898
11
61.0955129999999969
21
-74.5072119999999956
0
LINE
8
BLACK
6
CONTINUOUS
10
61.0955129999999969
20
-74.5072119999999956
11
61.0364489999999975
21
-74.4454369999999983
0
LINE
8
BLACK
6
CONTINUOUS
10
61.0364489999999975
20
-74.4454369999999983
11
60.9831609999999955
21
-74.3786149999999964
0
LINE
8
BLACK
6
CONTINUOUS
10
60.9831609999999955
20
-74.3786149999999964
11
60.9360779999999949
21
-74.3072870000000023
0
LINE
8
BLACK
6
CONTINUOUS
10
60.9360779999999949
20
-74.3072870000000023
11
60.8955769999999958
21
-74.2320239999999956
0
LINE
8
BLACK
6
CONTINUOUS
10
60.8955769999999958
20
-74.2320239999999956
11
60.8619859999999946
21
-74.1534350000000018
0
LINE
8
BLACK
6
CONTINUOUS
10
60.8619859999999946
20
-74.1534350000000018
11
60.8355749999999986
21
-74.0721499999999935
0
LINE
8
BLACK
6
CONTINUOUS
10
60.8355749999999986
20
-74.0721499999999935
11
60.816556999999996
21
-73.9888249999999914
0
LINE
8
BLACK
6
CONTINUOUS
10
60.816556999999996
20
-73.9888249999999914
11
60.8050840000000008
21
-73.9041309999999925
0
LINE
8
BLACK
6
CONTINUOUS
10
60.8050840000000008
20
-73.9041309999999925
11
60.801249999999996
21
-73.8187499999999943
0
LINE
8
BLACK
6
CONTINUOUS
10
60.801249999999996
20
-73.8187499999999943
11
60.8050840000000008
21
-73.7333689999999962
0
LINE
8
BLACK
6
CONTINUOUS
10
60.8050840000000008
20
-73.7333689999999962
11
60.816556999999996
21
-73.6486749999999972
0
LINE
8
BLACK
6
CONTINUOUS
10
60.816556999999996
20
-73.6486749999999972
11
60.8355749999999986
21
-73.5653499999999951
0
LINE
8
BLACK
6
CONTINUOUS
10
60.8355749999999986
20
-73.5653499999999951
11
60.8619859999999946
21
-73.4840650000000011
0
LINE
8
BLACK
6
CONTINUOUS
10
60.8619859999999946
20
-73.4840650000000011
11
60.8955769999999958
21
-73.4054759999999931
0
LINE
8
BLACK
6
CONTINUOUS
10
60.8955769999999958
20
-73.4054759999999931
11
60.9360779999999949
21
-73.3302130000000005
0
LINE
8
BLACK
6
CONTINUOUS
10
60.9360779999999949
20
-73.3302130000000005
11
60.9831609999999955
21
-73.2588849999999923
0
LINE
8
BLACK
6
CONTINUOUS
10
60.9831609999999955
20
-73.2588849999999923
11
61.0364489999999975
21
-73.1920629999999903
0
LINE
8
BLACK
6
CONTINUOUS
10
61.0364489999999975
20
-73.1920629999999903
11
61.0955129999999969
21
-73.1302879999999931
0
LINE
8
BLACK
6
CONTINUOUS
10
61.0955129999999969
20
-73.1302879999999931
11
61.159875999999997
21
-73.0740559999999988
0
LINE
8
BLACK
6
CONTINUOUS
10
61.159875999999997
20
-73.0740559999999988
11
61.2290209999999959
21
-73.0238190000000031
0
LINE
8
BLACK
6
CONTINUOUS
10
61.2290209999999959
20
-73.0238190000000031
11
61.3023899999999955
21
-72.9799829999999901
0
LINE
8
BLACK
6
CONTINUOUS
10
61.3023899999999955
20
-72.9799829999999901
11
61.3793939999999978
21
-72.9428999999999945
0
LINE
8
BLACK
6
CONTINUOUS
10
61.3793939999999978
20
-72.9428999999999945
11
61.4594109999999958
21
-72.9128690000000006
0
LINE
8
BLACK
6
CONTINUOUS
10
61.4594109999999958
20
-72.9128690000000006
11
61.5417989999999975
21
-72.8901309999999967
0
LINE
8
BLACK
6
CONTINUOUS
10
61.5417989999999975
20
-72.8901309999999967
11
61.6258929999999978
21
-72.8748700000000014
0
LINE
8
BLACK
6
CONTINUOUS
10
61.6258929999999978
20
-72.8748700000000014
11
61.7110160000000008
21
-72.8672090000000026
0
LINE
8
BLACK
6
CONTINUOUS
10
61.7110160000000008
20
-72.8672090000000026
11
61.7964839999999995
21
-72.8672090000000026
0
LINE
8
BLACK
6
CONTINUOUS
10
61.7964839999999995
20
-72.8672090000000026
11
61.8816069999999954
21
-72.8748700000000014
0
LINE
8
BLACK
6
CONTINUOUS
10
64.4216069999999945
20
-72.8748700000000014
11
64.505701000000002
21
-72.8901309999999967
0
LINE
8
BLACK
6
CONTINUOUS
10
64.505701000000002
20
-72.8901309999999967
11
64.5880889999999965
21
-72.9128690000000006
0
LINE
8
BLACK
6
CONTINUOUS
10
64.5880889999999965
20
-72.9128690000000006
11
64.6681059999999945
21
-72.9428999999999945
0
LINE
8
BLACK
6
CONTINUOUS
10
64.6681059999999945
20
-72.9428999999999945
11
64.7451099999999968
21
-72.9799829999999901
0
LINE
8
BLACK
6
CONTINUOUS
10
64.7451099999999968
20
-72.9799829999999901
11
64.8184789999999964
21
-73.0238190000000031
0
LINE
8
BLACK
6
CONTINUOUS
10
64.8184789999999964
20
-73.0238190000000031
11
64.8876240000000024
21
-73.0740559999999988
0
LINE
8
BLACK
6
CONTINUOUS
10
64.8876240000000024
20
-73.0740559999999988
11
64.9519870000000026
21
-73.1302879999999931
0
LINE
8
BLACK
6
CONTINUOUS
10
64.9519870000000026
20
-73.1302879999999931
11
65.0110509999999948
21
-73.1920629999999903
0
LINE
8
BLACK
6
CONTINUOUS
10
65.0110509999999948
20
-73.1920629999999903
11
65.0643390000000039
21
-73.2588849999999923
0
LINE
8
BLACK
6
CONTINUOUS
10
65.0643390000000039
20
-73.2588849999999923
11
65.1114219999999904
21
-73.3302130000000005
0
LINE
8
BLACK
6
CONTINUOUS
10
65.1114219999999904
20
-73.3302130000000005
11
65.1519229999999965
21
-73.4054759999999931
0
LINE
8
BLACK
6
CONTINUOUS
10
65.1519229999999965
20
-73.4054759999999931
11
65.1855139999999977
21
-73.4840650000000011
0
LINE
8
BLACK
6
CONTINUOUS
10
65.1855139999999977
20
-73.4840650000000011
11
65.2119249999999937
21
-73.5653499999999951
0
LINE
8
BLACK
6
CONTINUOUS
10
65.2119249999999937
20
-73.5653499999999951
11
65.2309429999999963
21
-73.6486749999999972
0
LINE
8
BLACK
6
CONTINUOUS
10
65.2309429999999963
20
-73.6486749999999972
11
65.2424159999999915
21
-73.7333689999999962
0
LINE
8
BLACK
6
CONTINUOUS
10
65.2424159999999915
20
-73.7333689999999962
11
65.2462500000000034
21
-73.8187499999999943
0
LINE
8
BLACK
6
CONTINUOUS
10
65.2462500000000034
20
-73.8187499999999943
11
65.2424159999999915
21
-73.9041309999999925
0
LINE
8
BLACK
6
CONTINUOUS
10
65.2424159999999915
20
-73.9041309999999925
11
65.2309429999999963
21
-73.9888249999999914
0
LINE
8
BLACK
6
CONTINUOUS
10
65.2309429999999963
20
-73.9888249999999914
11
65.2119249999999937
21
-74.0721499999999935
0
LINE
8
BLACK
6
CONTINUOUS
10
65.2119249999999937
20
-74.0721499999999935
11
65.1855139999999977
21
-74.1534350000000018
0
LINE
8
BLACK
6
CONTINUOUS
10
65.1855139999999977
20
-74.1534350000000018
11
65.1519229999999965
21
-74.2320239999999956
0
LINE
8
BLACK
6
CONTINUOUS
10
65.1519229999999965
20
-74.2320239999999956
11
65.1114219999999904
21
-74.3072870000000023
0
LINE
8
BLACK
6
CONTINUOUS
10
65.1114219999999904
20
-74.3072870000000023
11
65.0643390000000039
21
-74.3786149999999964
0
LINE
8
BLACK
6
CONTINUOUS
10
65.0643390000000039
20
-74.3786149999999964
11
65.0110509999999948
21
-74.4454369999999983
0
LINE
8
BLACK
6
CONTINUOUS
10
65.0110509999999948
20
-74.4454369999999983
11
64.9519870000000026
21
-74.5072119999999956
0
LINE
8
BLACK
6
CONTINUOUS
10
64.9519870000000026
20
-74.5072119999999956
11
64.8876240000000024
21
-74.5634439999999898
0
LINE
8
BLACK
6
CONTINUOUS
10
64.8876240000000024
20
-74.5634439999999898
11
64.8184789999999964
21
-74.6136809999999997
0
LINE
8
BLACK
6
CONTINUOUS
10
64.8184789999999964
20
-74.6136809999999997
11
64.7451099999999968
21
-74.6575169999999986
0
LINE
8
BLACK
6
CONTINUOUS
10
64.7451099999999968
20
-74.6575169999999986
11
64.6681059999999945
21
-74.6945999999999941
0
LINE
8
BLACK
6
CONTINUOUS
10
64.6681059999999945
20
-74.6945999999999941
11
64.5880889999999965
21
-74.7246310000000022
0
LINE
8
BLACK
6
CONTINUOUS
10
64.5880889999999965
20
-74.7246310000000022
11
64.505701000000002
21
-74.747368999999992
0
LINE
8
BLACK
6
CONTINUOUS
10
64.505701000000002
20
-74.747368999999992
11
64.4216069999999945
21
-74.7626300000000015
0
LINE
8
BLACK
6
CONTINUOUS
10
64.4216069999999945
20
-74.7626300000000015
11
64.3364839999999987
21
-74.7702910000000003
0
LINE
8
BLACK
6
CONTINUOUS
10
64.3364839999999987
20
-74.7702910000000003
11
64.2510159999999928
21
-74.7702910000000003
0
LINE
8
BLACK
6
CONTINUOUS
10
64.2510159999999928
20
-74.7702910000000003
11
64.165892999999997
21
-74.7626300000000015
0
LINE
8
BLACK
6
CONTINUOUS
10
64.165892999999997
20
-74.7626300000000015
11
64.0817990000000037
21
-74.747368999999992
0
LINE
8
BLACK
6
CONTINUOUS
10
64.0817990000000037
20
-74.747368999999992
11
63.9994109999999949
21
-74.7246310000000022
0
LINE
8
BLACK
6
CONTINUOUS
10
63.9994109999999949
20
-74.7246310000000022
11
63.9193939999999969
21
-74.6945999999999941
0
LINE
8
BLACK
6
CONTINUOUS
10
63.9193939999999969
20
-74.6945999999999941
11
63.8423899999999946
21
-74.6575169999999986
0
LINE
8
BLACK
6
CONTINUOUS
10
63.8423899999999946
20
-74.6575169999999986
11
63.7690209999999951
21
-74.6136809999999997
0
LINE
8
BLACK
6
CONTINUOUS
10
63.7690209999999951
20
-74.6136809999999997
11
63.6998759999999962
21
-74.5634439999999898
0
LINE
8
BLACK
6
CONTINUOUS
10
63.6998759999999962
20
-74.5634439999999898
11
63.635512999999996
21
-74.5072119999999956
0
LINE
8
BLACK
6
CONTINUOUS
10
63.635512999999996
20
-74.5072119999999956
11
63.5764489999999967
21
-74.4454369999999983
0
LINE
8
BLACK
6
CONTINUOUS
10
63.5764489999999967
20
-74.4454369999999983
11
63.5231609999999947
21
-74.3786149999999964
0
LINE
8
BLACK
6
CONTINUOUS
10
63.5231609999999947
20
-74.3786149999999964
11
63.476077999999994
21
-74.3072870000000023
0
LINE
8
BLACK
6
CONTINUOUS
10
63.476077999999994
20
-74.3072870000000023
11
63.435576999999995
21
-74.2320239999999956
0
LINE
8
BLACK
6
CONTINUOUS
10
63.435576999999995
20
-74.2320239999999956
11
63.4019859999999937
21
-74.1534350000000018
0
LINE
8
BLACK
6
CONTINUOUS
10
63.4019859999999937
20
-74.1534350000000018
11
63.3755749999999978
21
-74.0721499999999935
0
LINE
8
BLACK
6
CONTINUOUS
10
63.3755749999999978
20
-74.0721499999999935
11
63.3565569999999951
21
-73.9888249999999914
0
LINE
8
BLACK
6
CONTINUOUS
10
63.3565569999999951
20
-73.9888249999999914
11
63.3450839999999999
21
-73.9041309999999925
0
LINE
8
BLACK
6
CONTINUOUS
10
63.3450839999999999
20
-73.9041309999999925
11
63.3412499999999952
21
-73.8187499999999943
0
LINE
8
BLACK
6
CONTINUOUS
10
63.3412499999999952
20
-73.8187499999999943
11
63.3450839999999999
21
-73.7333689999999962
0
LINE
8
BLACK
6
CONTINUOUS
10
63.3450839999999999
20
-73.7333689999999962
11
63.3565569999999951
21
-73.6486749999999972
0
LINE
8
BLACK
6
CONTINUOUS
10
63.3565569999999951
20
-73.6486749999999972
11
63.3755749999999978
21
-73.5653499999999951
0
LINE
8
BLACK
6
CONTINUOUS
10
63.3755749999999978
20
-73.5653499999999951
11
63.4019859999999937
21
-73.4840650000000011
0
LINE
8
BLACK
6
CONTINUOUS
10
63.4019859999999937
20
-73.4840650000000011
11
63.435576999999995
21
-73.4054759999999931
0
LINE
8
BLACK
6
CONTINUOUS
10
63.435576999999995
20
-73.4054759999999931
11
63.476077999999994
21
-73.3302130000000005
0
LINE
8
BLACK
6
CONTINUOUS
10
63.476077999999994
20
-73.3302130000000005
11
63.5231609999999947
21
-73.2588849999999923
0
LINE
8
BLACK
6
CONTINUOUS
10
63.5231609999999947
20
-73.2588849999999923
11
63.5764489999999967
21
-73.1920629999999903
0
LINE
8
BLACK
6
CONTINUOUS
10
63.5764489999999967
20
-73.1920629999999903
11
63.635512999999996
21
-73.1302879999999931
0
LINE
8
BLACK
6
CONTINUOUS
10
63.635512999999996
20
-73.1302879999999931
11
63.6998759999999962
21
-73.0740559999999988
0
LINE
8
BLACK
6
CONTINUOUS
10
63.6998759999999962
20
-73.0740559999999988
11
63.7690209999999951
21
-73.0238190000000031
0
LINE
8
BLACK
6
CONTINUOUS
10
63.7690209999999951
20
-73.0238190000000031
11
63.8423899999999946
21
-72.9799829999999901
0
LINE
8
BLACK
6
CONTINUOUS
10
63.8423899999999946
20
-72.9799829999999901
11
63.9193939999999969
21
-72.9428999999999945
0
LINE
8
BLACK
6
CONTINUOUS
10
63.9193939999999969
20
-72.9428999999999945
11
63.9994109999999949
21
-72.9128690000000006
0
LINE
8
BLACK
6
CONTINUOUS
10
63.9994109999999949
20
-72.9128690000000006
11
64.0817990000000037
21
-72.8901309999999967
0
LINE
8
BLACK
6
CONTINUOUS
10
64.0817990000000037
20
-72.8901309999999967
11
64.165892999999997
21
-72.8748700000000014
0
LINE
8
BLACK
6
CONTINUOUS
10
64.165892999999997
20
-72.8748700000000014
11
64.2510159999999928
21
-72.8672090000000026
0
LINE
8
BLACK
6
CONTINUOUS
10
64.2510159999999928
20
-72.8672090000000026
11
64.3364839999999987
21
-72.8672090000000026
0
LINE
8
BLACK
6
CONTINUOUS
10
64.3364839999999987
20
-72.8672090000000026
11
64.4216069999999945
21
-72.8748700000000014
0
LINE
8
BLACK
6
CONTINUOUS
10
66.9616070000000008
20
-72.8748700000000014
11
67.045700999999994
21
-72.8901309999999967
0
LINE
8
BLACK
6
CONTINUOUS
10
67.045700999999994
20
-72.8901309999999967
11
67.1280890000000028
21
-72.9128690000000006
0
LINE
8
BLACK
6
CONTINUOUS
10
67.1280890000000028
20
-72.9128690000000006
11
67.2081060000000008
21
-72.9428999999999945
0
LINE
8
BLACK
6
CONTINUOUS
10
67.2081060000000008
20
-72.9428999999999945
11
67.2851100000000031
21
-72.9799829999999901
0
LINE
8
BLACK
6
CONTINUOUS
10
67.2851100000000031
20
-72.9799829999999901
11
67.3584790000000027
21
-73.0238190000000031
0
LINE
8
BLACK
6
CONTINUOUS
10
67.3584790000000027
20
-73.0238190000000031
11
67.4276239999999945
21
-73.0740559999999988
0
LINE
8
BLACK
6
CONTINUOUS
10
67.4276239999999945
20
-73.0740559999999988
11
67.4919869999999946
21
-73.1302879999999931
0
LINE
8
BLACK
6
CONTINUOUS
10
67.4919869999999946
20
-73.1302879999999931
11
67.5510510000000011
21
-73.1920629999999903
0
LINE
8
BLACK
6
CONTINUOUS
10
67.5510510000000011
20
-73.1920629999999903
11
67.604338999999996
21
-73.2588849999999923
0
LINE
8
BLACK
6
CONTINUOUS
10
67.604338999999996
20
-73.2588849999999923
11
67.6514219999999966
21
-73.3302130000000005
0
LINE
8
BLACK
6
CONTINUOUS
10
67.6514219999999966
20
-73.3302130000000005
11
67.6919230000000027
21
-73.4054759999999931
0
LINE
8
BLACK
6
CONTINUOUS
10
67.6919230000000027
20
-73.4054759999999931
11
67.725514000000004
21
-73.4840650000000011
0
LINE
8
BLACK
6
CONTINUOUS
10
67.725514000000004
20
-73.4840650000000011
11
67.751925
21
-73.5653499999999951
0
LINE
8
BLACK
6
CONTINUOUS
10
67.751925
20
-73.5653499999999951
11
67.7709430000000026
21
-73.6486749999999972
0
LINE
8
BLACK
6
CONTINUOUS
10
67.7709430000000026
20
-73.6486749999999972
11
67.7824159999999978
21
-73.7333689999999962
0
LINE
8
BLACK
6
CONTINUOUS
10
67.7824159999999978
20
-73.7333689999999962
11
67.7862499999999955
21
-73.8187499999999943
0
LINE
8
BLACK
6
CONTINUOUS
10
67.7862499999999955
20
-73.8187499999999943
11
67.7824159999999978
21
-73.9041309999999925
0
LINE
8
BLACK
6
CONTINUOUS
10
67.7824159999999978
20
-73.9041309999999925
11
67.7709430000000026
21
-73.9888249999999914
0
LINE
8
BLACK
6
CONTINUOUS
10
67.7709430000000026
20
-73.9888249999999914
11
67.751925
21
-74.0721499999999935
0
LINE
8
BLACK
6
CONTINUOUS
10
67.751925
20
-74.0721499999999935
11
67.725514000000004
21
-74.1534350000000018
0
LINE
8
BLACK
6
CONTINUOUS
10
67.725514000000004
20
-74.1534350000000018
11
67.6919230000000027
21
-74.2320239999999956
0
LINE
8
BLACK
6
CONTINUOUS
10
67.6919230000000027
20
-74.2320239999999956
11
67.6514219999999966
21
-74.3072870000000023
0
LINE
8
BLACK
6
CONTINUOUS
10
67.6514219999999966
20
-74.3072870000000023
11
67.604338999999996
21
-74.3786149999999964
0
LINE
8
BLACK
6
CONTINUOUS
10
67.604338999999996
20
-74.3786149999999964
11
67.5510510000000011
21
-74.4454369999999983
0
LINE
8
BLACK
6
CONTINUOUS
10
67.5510510000000011
20
-74.4454369999999983
11
67.4919869999999946
21
-74.5072119999999956
0
LINE
8
BLACK
6
CONTINUOUS
10
67.4919869999999946
20
-74.5072119999999956
11
67.4276239999999945
21
-74.5634439999999898
0
LINE
8
BLACK
6
CONTINUOUS
10
67.4276239999999945
20
-74.5634439999999898
11
67.3584790000000027
21
-74.6136809999999997
0
LINE
8
BLACK
6
CONTINUOUS
10
67.3584790000000027
20
-74.6136809999999997
11
67.2851100000000031
21
-74.6575169999999986
0
LINE
8
BLACK
6
CONTINUOUS
10
67.2851100000000031
20
-74.6575169999999986
11
67.2081060000000008
21
-74.6945999999999941
0
LINE
8
BLACK
6
CONTINUOUS
10
67.2081060000000008
20
-74.6945999999999941
11
67.1280890000000028
21
-74.7246310000000022
0
LINE
8
BLACK
6
CONTINUOUS
10
67.1280890000000028
20
-74.7246310000000022
11
67.045700999999994
21
-74.747368999999992
0
LINE
8
BLACK
6
CONTINUOUS
10
67.045700999999994
20
-74.747368999999992
11
66.9616070000000008
21
-74.7626300000000015
0
LINE
8
BLACK
6
CONTINUOUS
10
66.9616070000000008
20
-74.7626300000000015
11
66.8764839999999907
21
-74.7702910000000003
0
LINE
8
BLACK
6
CONTINUOUS
10
66.8764839999999907
20
-74.7702910000000003
11
66.7910159999999991
21
-74.7702910000000003
0
LINE
8
BLACK
6
CONTINUOUS
10
66.7910159999999991
20
-74.7702910000000003
11
66.7058930000000032
21
-74.7626300000000015
0
LINE
8
BLACK
6
CONTINUOUS
10
66.7058930000000032
20
-74.7626300000000015
11
66.6217989999999958
21
-74.747368999999992
0
LINE
8
BLACK
6
CONTINUOUS
10
66.6217989999999958
20
-74.747368999999992
11
66.5394110000000012
21
-74.7246310000000022
0
LINE
8
BLACK
6
CONTINUOUS
10
66.5394110000000012
20
-74.7246310000000022
11
66.4593940000000032
21
-74.6945999999999941
0
LINE
8
BLACK
6
CONTINUOUS
10
66.4593940000000032
20
-74.6945999999999941
11
66.3823900000000009
21
-74.6575169999999986
0
LINE
8
BLACK
6
CONTINUOUS
10
66.3823900000000009
20
-74.6575169999999986
11
66.3090210000000013
21
-74.6136809999999997
0
LINE
8
BLACK
6
CONTINUOUS
10
66.3090210000000013
20
-74.6136809999999997
11
66.2398759999999953
21
-74.5634439999999898
0
LINE
8
BLACK
6
CONTINUOUS
10
66.2398759999999953
20
-74.5634439999999898
11
66.1755129999999951
21
-74.5072119999999956
0
LINE
8
BLACK
6
CONTINUOUS
10
66.1755129999999951
20
-74.5072119999999956
11
66.1164490000000029
21
-74.4454369999999983
0
LINE
8
BLACK
6
CONTINUOUS
10
66.1164490000000029
20
-74.4454369999999983
11
66.0631609999999938
21
-74.3786149999999964
0
LINE
8
BLACK
6
CONTINUOUS
10
66.0631609999999938
20
-74.3786149999999964
11
66.0160779999999932
21
-74.3072870000000023
0
LINE
8
BLACK
6
CONTINUOUS
10
66.0160779999999932
20
-74.3072870000000023
11
65.9755770000000012
21
-74.2320239999999956
0
LINE
8
BLACK
6
CONTINUOUS
10
65.9755770000000012
20
-74.2320239999999956
11
65.941986
21
-74.1534350000000018
0
LINE
8
BLACK
6
CONTINUOUS
10
65.941986
20
-74.1534350000000018
11
65.915575000000004
21
-74.0721499999999935
0
LINE
8
BLACK
6
CONTINUOUS
10
65.915575000000004
20
-74.0721499999999935
11
65.8965570000000014
21
-73.9888249999999914
0
LINE
8
BLACK
6
CONTINUOUS
10
65.8965570000000014
20
-73.9888249999999914
11
65.885083999999992
21
-73.9041309999999925
0
LINE
8
BLACK
6
CONTINUOUS
10
65.885083999999992
20
-73.9041309999999925
11
65.8812499999999943
21
-73.8187499999999943
0
LINE
8
BLACK
6
CONTINUOUS
10
65.8812499999999943
20
-73.8187499999999943
11
65.885083999999992
21
-73.7333689999999962
0
LINE
8
BLACK
6
CONTINUOUS
10
65.885083999999992
20
-73.7333689999999962
11
65.8965570000000014
21
-73.6486749999999972
0
LINE
8
BLACK
6
CONTINUOUS
10
65.8965570000000014
20
-73.6486749999999972
11
65.915575000000004
21
-73.5653499999999951
0
LINE
8
BLACK
6
CONTINUOUS
10
65.915575000000004
20
-73.5653499999999951
11
65.941986
21
-73.4840650000000011
0
LINE
8
BLACK
6
CONTINUOUS
10
65.941986
20
-73.4840650000000011
11
65.9755770000000012
21
-73.4054759999999931
0
LINE
8
BLACK
6
CONTINUOUS
10
65.9755770000000012
20
-73.4054759999999931
11
66.0160779999999932
21
-73.3302130000000005
0
LINE
8
BLACK
6
CONTINUOUS
10
66.0160779999999932
20
-73.3302130000000005
11
66.0631609999999938
21
-73.2588849999999923
0
LINE
8
BLACK
6
CONTINUOUS
10
66.0631609999999938
20
-73.2588849999999923
11
66.1164490000000029
21
-73.1920629999999903
0
LINE
8
BLACK
6
CONTINUOUS
10
66.1164490000000029
20
-73.1920629999999903
11
66.1755129999999951
21
-73.1302879999999931
0
LINE
8
BLACK
6
CONTINUOUS
10
66.1755129999999951
20
-73.1302879999999931
11
66.2398759999999953
21
-73.0740559999999988
0
LINE
8
BLACK
6
CONTINUOUS
10
66.2398759999999953
20
-73.0740559999999988
11
66.3090210000000013
21
-73.0238190000000031
0
LINE
8
BLACK
6
CONTINUOUS
10
66.3090210000000013
20
-73.0238190000000031
11
66.3823900000000009
21
-72.9799829999999901
0
LINE
8
BLACK
6
CONTINUOUS
10
66.3823900000000009
20
-72.9799829999999901
11
66.4593940000000032
21
-72.9428999999999945
0
LINE
8
BLACK
6
CONTINUOUS
10
66.4593940000000032
20
-72.9428999999999945
11
66.5394110000000012
21
-72.9128690000000006
0
LINE
8
BLACK
6
CONTINUOUS
10
66.5394110000000012
20
-72.9128690000000006
11
66.6217989999999958
21
-72.8901309999999967
0
LINE
8
BLACK
6
CONTINUOUS
10
66.6217989999999958
20
-72.8901309999999967
11
66.7058930000000032
21
-72.8748700000000014
0
LINE
8
BLACK
6
CONTINUOUS
10
66.7058930000000032
20
-72.8748700000000014
11
66.7910159999999991
21
-72.8672090000000026
0
LINE
8
BLACK
6
CONTINUOUS
10
66.7910159999999991
20
-72.8672090000000026
11
66.8764839999999907
21
-72.8672090000000026
0
LINE
8
BLACK
6
CONTINUOUS
10
66.8764839999999907
20
-72.8672090000000026
11
66.9616070000000008
21
-72.8748700000000014
0
LINE
8
BLACK
6
CONTINUOUS
10
69.5016069999999928
20
-72.8748700000000014
11
69.5857010000000002
21
-72.8901309999999967
0
LINE
8
BLACK
6
CONTINUOUS
10
69.5857010000000002
20
-72.8901309999999967
11
69.6680889999999948
21
-72.9128690000000006
0
LINE
8
BLACK
6
CONTINUOUS
10
69.6680889999999948
20
-72.9128690000000006
11
69.7481059999999928
21
-72.9428999999999945
0
LINE
8
BLACK
6
CONTINUOUS
10
69.7481059999999928
20
-72.9428999999999945
11
69.8251099999999951
21
-72.9799829999999901
0
LINE
8
BLACK
6
CONTINUOUS
10
69.8251099999999951
20
-72.9799829999999901
11
69.8984789999999947
21
-73.0238190000000031
0
LINE
8
BLACK
6
CONTINUOUS
10
69.8984789999999947
20
-73.0238190000000031
11
69.9676240000000007
21
-73.0740559999999988
0
LINE
8
BLACK
6
CONTINUOUS
10
69.9676240000000007
20
-73.0740559999999988
11
70.0319870000000009
21
-73.1302879999999931
0
LINE
8
BLACK
6
CONTINUOUS
10
70.0319870000000009
20
-73.1302879999999931
11
70.0910509999999931
21
-73.1920629999999903
0
LINE
8
BLACK
6
CONTINUOUS
10
70.0910509999999931
20
-73.1920629999999903
11
70.1443390000000022
21
-73.2588849999999923
0
LINE
8
BLACK
6
CONTINUOUS
10
70.1443390000000022
20
-73.2588849999999923
11
70.1914220000000029
21
-73.3302130000000005
0
LINE
8
BLACK
6
CONTINUOUS
10
70.1914220000000029
20
-73.3302130000000005
11
70.2319229999999948
21
-73.4054759999999931
0
LINE
8
BLACK
6
CONTINUOUS
10
70.2319229999999948
20
-73.4054759999999931
11
70.265513999999996
21
-73.4840650000000011
0
LINE
8
BLACK
6
CONTINUOUS
10
70.265513999999996
20
-73.4840650000000011
11
70.291924999999992
21
-73.5653499999999951
0
LINE
8
BLACK
6
CONTINUOUS
10
70.291924999999992
20
-73.5653499999999951
11
70.3109429999999946
21
-73.6486749999999972
0
LINE
8
BLACK
6
CONTINUOUS
10
70.3109429999999946
20
-73.6486749999999972
11
70.3224159999999898
21
-73.7333689999999962
0
LINE
8
BLACK
6
CONTINUOUS
10
70.3224159999999898
20
-73.7333689999999962
11
70.3262500000000017
21
-73.8187499999999943
0
LINE
8
BLACK
6
CONTINUOUS
10
70.3262500000000017
20
-73.8187499999999943
11
70.3224159999999898
21
-73.9041309999999925
0
LINE
8
BLACK
6
CONTINUOUS
10
70.3224159999999898
20
-73.9041309999999925
11
70.3109429999999946
21
-73.9888249999999914
0
LINE
8
BLACK
6
CONTINUOUS
10
70.3109429999999946
20
-73.9888249999999914
11
70.291924999999992
21
-74.0721499999999935
0
LINE
8
BLACK
6
CONTINUOUS
10
70.291924999999992
20
-74.0721499999999935
11
70.265513999999996
21
-74.1534350000000018
0
LINE
8
BLACK
6
CONTINUOUS
10
70.265513999999996
20
-74.1534350000000018
11
70.2319229999999948
21
-74.2320239999999956
0
LINE
8
BLACK
6
CONTINUOUS
10
70.2319229999999948
20
-74.2320239999999956
11
70.1914220000000029
21
-74.3072870000000023
0
LINE
8
BLACK
6
CONTINUOUS
10
70.1914220000000029
20
-74.3072870000000023
11
70.1443390000000022
21
-74.3786149999999964
0
LINE
8
BLACK
6
CONTINUOUS
10
70.1443390000000022
20
-74.3786149999999964
11
70.0910509999999931
21
-74.4454369999999983
0
LINE
8
BLACK
6
CONTINUOUS
10
70.0910509999999931
20
-74.4454369999999983
11
70.0319870000000009
21
-74.5072119999999956
0
LINE
8
BLACK
6
CONTINUOUS
10
70.0319870000000009
20
-74.5072119999999956
11
69.9676240000000007
21
-74.5634439999999898
0
LINE
8
BLACK
6
CONTINUOUS
10
69.9676240000000007
20
-74.5634439999999898
11
69.8984789999999947
21
-74.6136809999999997
0
LINE
8
BLACK
6
CONTINUOUS
10
69.8984789999999947
20
-74.6136809999999997
11
69.8251099999999951
21
-74.6575169999999986
0
LINE
8
BLACK
6
CONTINUOUS
10
69.8251099999999951
20
-74.6575169999999986
11
69.7481059999999928
21
-74.6945999999999941
0
LINE
8
BLACK
6
CONTINUOUS
10
69.7481059999999928
20
-74.6945999999999941
11
69.6680889999999948
21
-74.7246310000000022
0
LINE
8
BLACK
6
CONTINUOUS
10
69.6680889999999948
20
-74.7246310000000022
11
69.5857010000000002
21
-74.747368999999992
0
LINE
8
BLACK
6
CONTINUOUS
10
69.5857010000000002
20
-74.747368999999992
11
69.5016069999999928
21
-74.7626300000000015
0
LINE
8
BLACK
6
CONTINUOUS
10
69.5016069999999928
20
-74.7626300000000015
11
69.416483999999997
21
-74.7702910000000003
0
LINE
8
BLACK
6
CONTINUOUS
10
69.416483999999997
20
-74.7702910000000003
11
69.3310159999999911
21
-74.7702910000000003
0
LINE
8
BLACK
6
CONTINUOUS
10
69.3310159999999911
20
-74.7702910000000003
11
69.2458929999999953
21
-74.7626300000000015
0
LINE
8
BLACK
6
CONTINUOUS
10
69.2458929999999953
20
-74.7626300000000015
11
69.161799000000002
21
-74.747368999999992
0
LINE
8
BLACK
6
CONTINUOUS
10
69.161799000000002
20
-74.747368999999992
11
69.0794109999999932
21
-74.7246310000000022
0
LINE
8
BLACK
6
CONTINUOUS
10
69.0794109999999932
20
-74.7246310000000022
11
68.9993939999999952
21
-74.6945999999999941
0
LINE
8
BLACK
6
CONTINUOUS
10
68.9993939999999952
20
-74.6945999999999941
11
68.9223899999999929
21
-74.6575169999999986
0
LINE
8
BLACK
6
CONTINUOUS
10
68.9223899999999929
20
-74.6575169999999986
11
68.8490209999999934
21
-74.6136809999999997
0
LINE
8
BLACK
6
CONTINUOUS
10
68.8490209999999934
20
-74.6136809999999997
11
68.7798760000000016
21
-74.5634439999999898
0
LINE
8
BLACK
6
CONTINUOUS
10
68.7798760000000016
20
-74.5634439999999898
11
68.7155130000000014
21
-74.5072119999999956
0
LINE
8
BLACK
6
CONTINUOUS
10
68.7155130000000014
20
-74.5072119999999956
11
68.656448999999995
21
-74.4454369999999983
0
LINE
8
BLACK
6
CONTINUOUS
10
68.656448999999995
20
-74.4454369999999983
11
68.6031610000000001
21
-74.3786149999999964
0
LINE
8
BLACK
6
CONTINUOUS
10
68.6031610000000001
20
-74.3786149999999964
11
68.5560779999999994
21
-74.3072870000000023
0
LINE
8
BLACK
6
CONTINUOUS
10
68.5560779999999994
20
-74.3072870000000023
11
68.5155769999999933
21
-74.2320239999999956
0
LINE
8
BLACK
6
CONTINUOUS
10
68.5155769999999933
20
-74.2320239999999956
11
68.481985999999992
21
-74.1534350000000018
0
LINE
8
BLACK
6
CONTINUOUS
10
68.481985999999992
20
-74.1534350000000018
11
68.4555749999999961
21
-74.0721499999999935
0
LINE
8
BLACK
6
CONTINUOUS
10
68.4555749999999961
20
-74.0721499999999935
11
68.4365569999999934
21
-73.9888249999999914
0
LINE
8
BLACK
6
CONTINUOUS
10
68.4365569999999934
20
-73.9888249999999914
11
68.4250839999999982
21
-73.9041309999999925
0
LINE
8
BLACK
6
CONTINUOUS
10
68.4250839999999982
20
-73.9041309999999925
11
68.4212500000000006
21
-73.8187499999999943
0
LINE
8
BLACK
6
CONTINUOUS
10
68.4212500000000006
20
-73.8187499999999943
11
68.4250839999999982
21
-73.7333689999999962
0
LINE
8
BLACK
6
CONTINUOUS
10
68.4250839999999982
20
-73.7333689999999962
11
68.4365569999999934
21
-73.6486749999999972
0
LINE
8
BLACK
6
CONTINUOUS
10
68.4365569999999934
20
-73.6486749999999972
11
68.4555749999999961
21
-73.5653499999999951
0
LINE
8
BLACK
6
CONTINUOUS
10
68.4555749999999961
20
-73.5653499999999951
11
68.481985999999992
21
-73.4840650000000011
0
LINE
8
BLACK
6
CONTINUOUS
10
68.481985999999992
20
-73.4840650000000011
11
68.5155769999999933
21
-73.4054759999999931
0
LINE
8
BLACK
6
CONTINUOUS
10
68.5155769999999933
20
-73.4054759999999931
11
68.5560779999999994
21
-73.3302130000000005
0
LINE
8
BLACK
6
CONTINUOUS
10
68.5560779999999994
20
-73.3302130000000005
11
68.6031610000000001
21
-73.2588849999999923
0
LINE
8
BLACK
6
CONTINUOUS
10
68.6031610000000001
20
-73.2588849999999923
11
68.656448999999995
21
-73.1920629999999903
0
LINE
8
BLACK
6
CONTINUOUS
10
68.656448999999995
20
-73.1920629999999903
11
68.7155130000000014
21
-73.1302879999999931
0
LINE
8
BLACK
6
CONTINUOUS
10
68.7155130000000014
20
-73.1302879999999931
11
68.7798760000000016
21
-73.0740559999999988
0
LINE
8
BLACK
6
CONTINUOUS
10
68.7798760000000016
20
-73.0740559999999988
11
68.8490209999999934
21
-73.0238190000000031
0
LINE
8
BLACK
6
CONTINUOUS
10
68.8490209999999934
20
-73.0238190000000031
11
68.9223899999999929
21
-72.9799829999999901
0
LINE
8
BLACK
6
CONTINUOUS
10
68.9223899999999929
20
-72.9799829999999901
11
68.9993939999999952
21
-72.9428999999999945
0
LINE
8
BLACK
6
CONTINUOUS
10
68.9993939999999952
20
-72.9428999999999945
11
69.0794109999999932
21
-72.9128690000000006
0
LINE
8
BLACK
6
CONTINUOUS
10
69.0794109999999932
20
-72.9128690000000006
11
69.161799000000002
21
-72.8901309999999967
0
LINE
8
BLACK
6
CONTINUOUS
10
69.161799000000002
20
-72.8901309999999967
11
69.2458929999999953
21
-72.8748700000000014
0
LINE
8
BLACK
6
CONTINUOUS
10
69.2458929999999953
20
-72.8748700000000014
11
69.3310159999999911
21
-72.8672090000000026
0
LINE
8
BLACK
6
CONTINUOUS
10
69.3310159999999911
20
-72.8672090000000026
11
69.416483999999997
21
-72.8672090000000026
0
LINE
8
BLACK
6
CONTINUOUS
10
69.416483999999997
20
-72.8672090000000026
11
69.5016069999999928
21
-72.8748700000000014
0
LINE
8
BLACK
6
CONTINUOUS
10
72.0416069999999991
20
-72.8748700000000014
11
72.1257009999999923
21
-72.8901309999999967
0
LINE
8
BLACK
6
CONTINUOUS
10
72.1257009999999923
20
-72.8901309999999967
11
72.2080890000000011
21
-72.9128690000000006
0
LINE
8
BLACK
6
CONTINUOUS
10
72.2080890000000011
20
-72.9128690000000006
11
72.2881059999999991
21
-72.9428999999999945
0
LINE
8
BLACK
6
CONTINUOUS
10
72.2881059999999991
20
-72.9428999999999945
11
72.3651100000000014
21
-72.9799829999999901
0
LINE
8
BLACK
6
CONTINUOUS
10
72.3651100000000014
20
-72.9799829999999901
11
72.438479000000001
21
-73.0238190000000031
0
LINE
8
BLACK
6
CONTINUOUS
10
72.438479000000001
20
-73.0238190000000031
11
72.5076239999999927
21
-73.0740559999999988
0
LINE
8
BLACK
6
CONTINUOUS
10
72.5076239999999927
20
-73.0740559999999988
11
72.5719869999999929
21
-73.1302879999999931
0
LINE
8
BLACK
6
CONTINUOUS
10
72.5719869999999929
20
-73.1302879999999931
11
72.6310509999999994
21
-73.1920629999999903
0
LINE
8
BLACK
6
CONTINUOUS
10
72.6310509999999994
20
-73.1920629999999903
11
72.6843389999999943
21
-73.2588849999999923
0
LINE
8
BLACK
6
CONTINUOUS
10
72.6843389999999943
20
-73.2588849999999923
11
72.7314219999999949
21
-73.3302130000000005
0
LINE
8
BLACK
6
CONTINUOUS
10
72.7314219999999949
20
-73.3302130000000005
11
72.771923000000001
21
-73.4054759999999931
0
LINE
8
BLACK
6
CONTINUOUS
10
72.771923000000001
20
-73.4054759999999931
11
72.8055140000000023
21
-73.4840650000000011
0
LINE
8
BLACK
6
CONTINUOUS
10
72.8055140000000023
20
-73.4840650000000011
11
72.8319249999999982
21
-73.5653499999999951
0
LINE
8
BLACK
6
CONTINUOUS
10
72.8319249999999982
20
-73.5653499999999951
11
72.8509430000000009
21
-73.6486749999999972
0
LINE
8
BLACK
6
CONTINUOUS
10
72.8509430000000009
20
-73.6486749999999972
11
72.8624159999999961
21
-73.7333689999999962
0
LINE
8
BLACK
6
CONTINUOUS
10
72.8624159999999961
20
-73.7333689999999962
11
72.8662499999999937
21
-73.8187499999999943
0
LINE
8
BLACK
6
CONTINUOUS
10
72.8662499999999937
20
-73.8187499999999943
11
72.8624159999999961
21
-73.9041309999999925
0
LINE
8
BLACK
6
CONTINUOUS
10
72.8624159999999961
20
-73.9041309999999925
11
72.8509430000000009
21
-73.9888249999999914
0
LINE
8
BLACK
6
CONTINUOUS
10
72.8509430000000009
20
-73.9888249999999914
11
72.8319249999999982
21
-74.0721499999999935
0
LINE
8
BLACK
6
CONTINUOUS
10
72.8319249999999982
20
-74.0721499999999935
11
72.8055140000000023
21
-74.1534350000000018
0
LINE
8
BLACK
6
CONTINUOUS
10
72.8055140000000023
20
-74.1534350000000018
11
72.771923000000001
21
-74.2320239999999956
0
LINE
8
BLACK
6
CONTINUOUS
10
72.771923000000001
20
-74.2320239999999956
11
72.7314219999999949
21
-74.3072870000000023
0
LINE
8
BLACK
6
CONTINUOUS
10
72.7314219999999949
20
-74.3072870000000023
11
72.6843389999999943
21
-74.3786149999999964
0
LINE
8
BLACK
6
CONTINUOUS
10
72.6843389999999943
20
-74.3786149999999964
11
72.6310509999999994
21
-74.4454369999999983
0
LINE
8
BLACK
6
CONTINUOUS
10
72.6310509999999994
20
-74.4454369999999983
11
72.5719869999999929
21
-74.5072119999999956
0
LINE
8
BLACK
6
CONTINUOUS
10
72.5719869999999929
20
-74.5072119999999956
11
72.5076239999999927
21
-74.5634439999999898
0
LINE
8
BLACK
6
CONTINUOUS
10
72.5076239999999927
20
-74.5634439999999898
11
72.438479000000001
21
-74.6136809999999997
0
LINE
8
BLACK
6
CONTINUOUS
10
72.438479000000001
20
-74.6136809999999997
11
72.3651100000000014
21
-74.6575169999999986
0
LINE
8
BLACK
6
CONTINUOUS
10
72.3651100000000014
20
-74.6575169999999986
11
72.2881059999999991
21
-74.6945999999999941
0
LINE
8
BLACK
6
CONTINUOUS
10
72.2881059999999991
20
-74.6945999999999941
11
72.2080890000000011
21
-74.7246310000000022
0
LINE
8
BLACK
6
CONTINUOUS
10
72.2080890000000011
20
-74.7246310000000022
11
72.1257009999999923
21
-74.747368999999992
0
LINE
8
BLACK
6
CONTINUOUS
10
72.1257009999999923
20
-74.747368999999992
11
72.0416069999999991
21
-74.7626300000000015
0
LINE
8
BLACK
6
CONTINUOUS
10
72.0416069999999991
20
-74.7626300000000015
11
71.9564840000000032
21
-74.7702910000000003
0
LINE
8
BLACK
6
CONTINUOUS
10
71.9564840000000032
20
-74.7702910000000003
11
71.8710159999999973
21
-74.7702910000000003
0
LINE
8
BLACK
6
CONTINUOUS
10
71.8710159999999973
20
-74.7702910000000003
11
71.7858930000000015
21
-74.7626300000000015
0
LINE
8
BLACK
6
CONTINUOUS
10
71.7858930000000015
20
-74.7626300000000015
11
71.7017989999999941
21
-74.747368999999992
0
LINE
8
BLACK
6
CONTINUOUS
10
71.7017989999999941
20
-74.747368999999992
11
71.6194109999999995
21
-74.7246310000000022
0
LINE
8
BLACK
6
CONTINUOUS
10
71.6194109999999995
20
-74.7246310000000022
11
71.5393940000000015
21
-74.6945999999999941
0
LINE
8
BLACK
6
CONTINUOUS
10
71.5393940000000015
20
-74.6945999999999941
11
71.4623899999999992
21
-74.6575169999999986
0
LINE
8
BLACK
6
CONTINUOUS
10
71.4623899999999992
20
-74.6575169999999986
11
71.3890209999999996
21
-74.6136809999999997
0
LINE
8
BLACK
6
CONTINUOUS
10
71.3890209999999996
20
-74.6136809999999997
11
71.3198759999999936
21
-74.5634439999999898
0
LINE
8
BLACK
6
CONTINUOUS
10
71.3198759999999936
20
-74.5634439999999898
11
71.2555129999999934
21
-74.5072119999999956
0
LINE
8
BLACK
6
CONTINUOUS
10
71.2555129999999934
20
-74.5072119999999956
11
71.1964490000000012
21
-74.4454369999999983
0
LINE
8
BLACK
6
CONTINUOUS
10
71.1964490000000012
20
-74.4454369999999983
11
71.1431609999999921
21
-74.3786149999999964
0
LINE
8
BLACK
6
CONTINUOUS
10
71.1431609999999921
20
-74.3786149999999964
11
71.0960779999999914
21
-74.3072870000000023
0
LINE
8
BLACK
6
CONTINUOUS
10
71.0960779999999914
20
-74.3072870000000023
11
71.0555769999999995
21
-74.2320239999999956
0
LINE
8
BLACK
6
CONTINUOUS
10
71.0555769999999995
20
-74.2320239999999956
11
71.0219859999999983
21
-74.1534350000000018
0
LINE
8
BLACK
6
CONTINUOUS
10
71.0219859999999983
20
-74.1534350000000018
11
70.9955750000000023
21
-74.0721499999999935
0
LINE
8
BLACK
6
CONTINUOUS
10
70.9955750000000023
20
-74.0721499999999935
11
70.9765569999999997
21
-73.9888249999999914
0
LINE
8
BLACK
6
CONTINUOUS
10
70.9765569999999997
20
-73.9888249999999914
11
70.9650839999999903
21
-73.9041309999999925
0
LINE
8
BLACK
6
CONTINUOUS
10
70.9650839999999903
20
-73.9041309999999925
11
70.9612499999999926
21
-73.8187499999999943
0
LINE
8
BLACK
6
CONTINUOUS
10
70.9612499999999926
20
-73.8187499999999943
11
70.9650839999999903
21
-73.7333689999999962
0
LINE
8
BLACK
6
CONTINUOUS
10
70.9650839999999903
20
-73.7333689999999962
11
70.9765569999999997
21
-73.6486749999999972
0
LINE
8
BLACK
6
CONTINUOUS
10
70.9765569999999997
20
-73.6486749999999972
11
70.9955750000000023
21
-73.5653499999999951
0
LINE
8
BLACK
6
CONTINUOUS
10
70.9955750000000023
20
-73.5653499999999951
11
71.0219859999999983
21
-73.4840650000000011
0
LINE
8
BLACK
6
CONTINUOUS
10
71.0219859999999983
20
-73.4840650000000011
11
71.0555769999999995
21
-73.4054759999999931
0
LINE
8
BLACK
6
CONTINUOUS
10
71.0555769999999995
20
-73.4054759999999931
11
71.0960779999999914
21
-73.3302130000000005
0
LINE
8
BLACK
6
CONTINUOUS
10
71.0960779999999914
20
-73.3302130000000005
11
71.1431609999999921
21
-73.2588849999999923
0
LINE
8
BLACK
6
CONTINUOUS
10
71.1431609999999921
20
-73.2588849999999923
11
71.1964490000000012
21
-73.1920629999999903
0
LINE
8
BLACK
6
CONTINUOUS
10
71.1964490000000012
20
-73.1920629999999903
11
71.2555129999999934
21
-73.1302879999999931
0
LINE
8
BLACK
6
CONTINUOUS
10
71.2555129999999934
20
-73.1302879999999931
11
71.3198759999999936
21
-73.0740559999999988
0
LINE
8
BLACK
6
CONTINUOUS
10
71.3198759999999936
20
-73.0740559999999988
11
71.3890209999999996
21
-73.0238190000000031
0
LINE
8
BLACK
6
CONTINUOUS
10
71.3890209999999996
20
-73.0238190000000031
11
71.4623899999999992
21
-72.9799829999999901
0
LINE
8
BLACK
6
CONTINUOUS
10
71.4623899999999992
20
-72.9799829999999901
11
71.5393940000000015
21
-72.9428999999999945
0
LINE
8
BLACK
6
CONTINUOUS
10
71.5393940000000015
20
-72.9428999999999945
11
71.6194109999999995
21
-72.9128690000000006
0
LINE
8
BLACK
6
CONTINUOUS
10
71.6194109999999995
20
-72.9128690000000006
11
71.7017989999999941
21
-72.8901309999999967
0
LINE
8
BLACK
6
CONTINUOUS
10
71.7017989999999941
20
-72.8901309999999967
11
71.7858930000000015
21
-72.8748700000000014
0
LINE
8
BLACK
6
CONTINUOUS
10
71.7858930000000015
20
-72.8748700000000014
11
71.8710159999999973
21
-72.8672090000000026
0
LINE
8
BLACK
6
CONTINUOUS
10
71.8710159999999973
20
-72.8672090000000026
11
71.9564840000000032
21
-72.8672090000000026
0
LINE
8
BLACK
6
CONTINUOUS
10
71.9564840000000032
20
-72.8672090000000026
11
72.0416069999999991
21
-72.8748700000000014
0
LINE
8
BLACK
6
CONTINUOUS
10
54.9274999999999949
20
-72.3900000000000006
11
53.3399999999999963
21
-72.3900000000000006
0
LINE
8
BLACK
6
CONTINUOUS
10
53.3399999999999963
20
-72.3900000000000006
11
53.3399999999999963
21
-69.8499999999999943
0
LINE
8
BLACK
6
CONTINUOUS
10
53.3399999999999963
20
-69.8499999999999943
11
54.9274999999999949
21
-69.8499999999999943
0
LINE
8
BLACK
6
CONTINUOUS
10
54.9274999999999949
20
-69.8499999999999943
11
54.9274999999999949
21
-72.3900000000000006
0
LINE
8
BLACK
6
CONTINUOUS
10
57.1499999999999986
20
-72.3900000000000006
11
55.5625
21
-72.3900000000000006
0
LINE
8
BLACK
6
CONTINUOUS
10
55.5625
20
-72.3900000000000006
11
55.5625
21
-69.8499999999999943
0
LINE
8
BLACK
6
CONTINUOUS
10
55.5625
20
-69.8499999999999943
11
57.1499999999999986
21
-69.8499999999999943
0
LINE
8
BLACK
6
CONTINUOUS
10
57.1499999999999986
20
-69.8499999999999943
11
57.1499999999999986
21
-72.3900000000000006
0
LINE
8
BLACK
6
CONTINUOUS
10
59.3724999999999952
20
-72.3900000000000006
11
57.7849999999999966
21
-72.3900000000000006
0
LINE
8
BLACK
6
CONTINUOUS
10
57.7849999999999966
20
-72.3900000000000006
11
57.7849999999999966
21
-69.8499999999999943
0
LINE
8
BLACK
6
CONTINUOUS
10
57.7849999999999966
20
-69.8499999999999943
11
59.3724999999999952
21
-69.8499999999999943
0
LINE
8
BLACK
6
CONTINUOUS
10
59.3724999999999952
20
-69.8499999999999943
11
59.3724999999999952
21
-72.3900000000000006
0
LINE
8
BLACK
6
CONTINUOUS
10
67.3100009999999997
20
-70.9612499999999926
11
66.3575009999999992
21
-70.9612499999999926
0
LINE
8
BLACK
6
CONTINUOUS
10
66.3575009999999992
20
-70.9612499999999926
11
66.3575009999999992
21
-69.6912499999999966
0
LINE
8
BLACK
6
CONTINUOUS
10
66.3575009999999992
20
-69.6912499999999966
11
67.3100009999999997
21
-69.6912499999999966
0
LINE
8
BLACK
6
CONTINUOUS
10
67.3100009999999997
20
-69.6912499999999966
11
67.3100009999999997
21
-70.9612499999999926
0
LINE
8
BLACK
6
CONTINUOUS
10
69.5324990000000014
20
-70.9612499999999926
11
68.5799990000000008
21
-70.9612499999999926
0
LINE
8
BLACK
6
CONTINUOUS
10
68.5799990000000008
20
-70.9612499999999926
11
68.5799990000000008
21
-69.6912499999999966
0
LINE
8
BLACK
6
CONTINUOUS
10
68.5799990000000008
20
-69.6912499999999966
11
69.5324990000000014
21
-69.6912499999999966
0
LINE
8
BLACK
6
CONTINUOUS
10
69.5324990000000014
20
-69.6912499999999966
11
69.5324990000000014
21
-70.9612499999999926
0
LINE
8
BLACK
6
CONTINUOUS
10
71.120001000000002
20
-70.9612499999999926
11
70.1675010000000015
21
-70.9612499999999926
0
LINE
8
BLACK
6
CONTINUOUS
10
70.1675010000000015
20
-70.9612499999999926
11
70.1675010000000015
21
-69.6912499999999966
0
LINE
8
BLACK
6
CONTINUOUS
10
70.1675010000000015
20
-69.6912499999999966
11
71.120001000000002
21
-69.6912499999999966
0
LINE
8
BLACK
6
CONTINUOUS
10
71.120001000000002
20
-69.6912499999999966
11
71.120001000000002
21
-70.9612499999999926
0
LINE
8
BLACK
6
CONTINUOUS
10
73.3424990000000037
20
-70.9612499999999926
11
72.3899990000000031
21
-70.9612499999999926
0
LINE
8
BLACK
6
CONTINUOUS
10
72.3899990000000031
20
-70.9612499999999926
11
72.3899990000000031
21
-69.6912499999999966
0
LINE
8
BLACK
6
CONTINUOUS
10
72.3899990000000031
20
-69.6912499999999966
11
73.3424990000000037
21
-69.6912499999999966
0
LINE
8
BLACK
6
CONTINUOUS
10
73.3424990000000037
20
-69.6912499999999966
11
73.3424990000000037
21
-70.9612499999999926
0
LINE
8
BLACK
6
CONTINUOUS
10
55.4037499999999952
20
-68.8974999999999937
11
54.1337499999999991
21
-68.8974999999999937
0
LINE
8
BLACK
6
CONTINUOUS
10
54.1337499999999991
20
-68.8974999999999937
11
54.1337499999999991
21
-66.3575000000000017
0
LINE
8
BLACK
6
CONTINUOUS
10
54.1337499999999991
20
-66.3575000000000017
11
55.4037499999999952
21
-66.3575000000000017
0
LINE
8
BLACK
6
CONTINUOUS
10
55.4037499999999952
20
-66.3575000000000017
11
55.4037499999999952
21
-68.8974999999999937
0
LINE
8
BLACK
6
CONTINUOUS
10
58.5787499999999994
20
-68.8974999999999937
11
57.3087499999999963
21
-68.8974999999999937
0
LINE
8
BLACK
6
CONTINUOUS
10
57.3087499999999963
20
-68.8974999999999937
11
57.3087499999999963
21
-66.3575000000000017
0
LINE
8
BLACK
6
CONTINUOUS
10
57.3087499999999963
20
-66.3575000000000017
11
58.5787499999999994
21
-66.3575000000000017
0
LINE
8
BLACK
6
CONTINUOUS
10
58.5787499999999994
20
-66.3575000000000017
11
58.5787499999999994
21
-68.8974999999999937
0
LINE
8
BLACK
6
CONTINUOUS
10
64.4525000000000006
20
-68.8974999999999937
11
62.5474999999999994
21
-68.8974999999999937
0
LINE
8
BLACK
6
CONTINUOUS
10
62.5474999999999994
20
-68.8974999999999937
11
62.5474999999999994
21
-66.6749999999999972
0
LINE
8
BLACK
6
CONTINUOUS
10
62.5474999999999994
20
-66.6749999999999972
11
64.4525000000000006
21
-66.6749999999999972
0
LINE
8
BLACK
6
CONTINUOUS
10
64.4525000000000006
20
-66.6749999999999972
11
64.4525000000000006
21
-68.8974999999999937
0
LINE
8
BLACK
6
CONTINUOUS
10
66.9924999999999926
20
-68.8974999999999937
11
65.0874999999999915
21
-68.8974999999999937
0
LINE
8
BLACK
6
CONTINUOUS
10
65.0874999999999915
20
-68.8974999999999937
11
65.0874999999999915
21
-66.6749999999999972
0
LINE
8
BLACK
6
CONTINUOUS
10
65.0874999999999915
20
-66.6749999999999972
11
66.9924999999999926
21
-66.6749999999999972
0
LINE
8
BLACK
6
CONTINUOUS
10
66.9924999999999926
20
-66.6749999999999972
11
66.9924999999999926
21
-68.8974999999999937
0
LINE
8
BLACK
6
CONTINUOUS
10
69.5324999999999989
20
-68.8974999999999937
11
67.6274999999999977
21
-68.8974999999999937
0
LINE
8
BLACK
6
CONTINUOUS
10
67.6274999999999977
20
-68.8974999999999937
11
67.6274999999999977
21
-66.6749999999999972
0
LINE
8
BLACK
6
CONTINUOUS
10
67.6274999999999977
20
-66.6749999999999972
11
69.5324999999999989
21
-66.6749999999999972
0
LINE
8
BLACK
6
CONTINUOUS
10
69.5324999999999989
20
-66.6749999999999972
11
69.5324999999999989
21
-68.8974999999999937
0
LINE
8
BLACK
6
CONTINUOUS
10
72.0724999999999909
20
-68.8974999999999937
11
70.1674999999999898
21
-68.8974999999999937
0
LINE
8
BLACK
6
CONTINUOUS
10
70.1674999999999898
20
-68.8974999999999937
11
70.1674999999999898
21
-66.6749999999999972
0
LINE
8
BLACK
6
CONTINUOUS
10
70.1674999999999898
20
-66.6749999999999972
11
72.0724999999999909
21
-66.6749999999999972
0
LINE
8
BLACK
6
CONTINUOUS
10
72.0724999999999909
20
-66.6749999999999972
11
72.0724999999999909
21
-68.8974999999999937
0
LINE
8
BLACK
6
CONTINUOUS
10
61.5949999999999989
20
-65.5637490000000014
11
60.3249999999999957
21
-65.5637490000000014
0
LINE
8
BLACK
6
CONTINUOUS
10
60.3249999999999957
20
-65.5637490000000014
11
60.3249999999999957
21
-64.6112490000000008
0
LINE
8
BLACK
6
CONTINUOUS
10
60.3249999999999957
20
-64.6112490000000008
11
61.5949999999999989
21
-64.6112490000000008
0
LINE
8
BLACK
6
CONTINUOUS
10
61.5949999999999989
20
-64.6112490000000008
11
61.5949999999999989
21
-65.5637490000000014
0
LINE
8
BLACK
6
CONTINUOUS
10
61.5949999999999989
20
-63.3412509999999997
11
60.3249999999999957
21
-63.3412509999999997
0
LINE
8
BLACK
6
CONTINUOUS
10
60.3249999999999957
20
-63.3412509999999997
11
60.3249999999999957
21
-62.3887509999999992
0
LINE
8
BLACK
6
CONTINUOUS
10
60.3249999999999957
20
-62.3887509999999992
11
61.5949999999999989
21
-62.3887509999999992
0
LINE
8
BLACK
6
CONTINUOUS
10
61.5949999999999989
20
-62.3887509999999992
11
61.5949999999999989
21
-63.3412509999999997
0
LINE
8
BLACK
6
CONTINUOUS
10
64.4525000000000006
20
-61.2774999999999963
11
62.5474999999999994
21
-61.2774999999999963
0
LINE
8
BLACK
6
CONTINUOUS
10
62.5474999999999994
20
-61.2774999999999963
11
62.5474999999999994
21
-59.0549999999999997
0
LINE
8
BLACK
6
CONTINUOUS
10
62.5474999999999994
20
-59.0549999999999997
11
64.4525000000000006
21
-59.0549999999999997
0
LINE
8
BLACK
6
CONTINUOUS
10
64.4525000000000006
20
-59.0549999999999997
11
64.4525000000000006
21
-61.2774999999999963
0
LINE
8
BLACK
6
CONTINUOUS
10
66.9924999999999926
20
-61.2774999999999963
11
65.0874999999999915
21
-61.2774999999999963
0
LINE
8
BLACK
6
CONTINUOUS
10
65.0874999999999915
20
-61.2774999999999963
11
65.0874999999999915
21
-59.0549999999999997
0
LINE
8
BLACK
6
CONTINUOUS
10
65.0874999999999915
20
-59.0549999999999997
11
66.9924999999999926
21
-59.0549999999999997
0
LINE
8
BLACK
6
CONTINUOUS
10
66.9924999999999926
20
-59.0549999999999997
11
66.9924999999999926
21
-61.2774999999999963
0
LINE
8
BLACK
6
CONTINUOUS
10
69.5324999999999989
20
-61.2774999999999963
11
67.6274999999999977
21
-61.2774999999999963
0
LINE
8
BLACK
6
CONTINUOUS
10
67.6274999999999977
20
-61.2774999999999963
11
67.6274999999999977
21
-59.0549999999999997
0
LINE
8
BLACK
6
CONTINUOUS
10
67.6274999999999977
20
-59.0549999999999997
11
69.5324999999999989
21
-59.0549999999999997
0
LINE
8
BLACK
6
CONTINUOUS
10
69.5324999999999989
20
-59.0549999999999997
11
69.5324999999999989
21
-61.2774999999999963
0
LINE
8
BLACK
6
CONTINUOUS
10
72.0724999999999909
20
-61.2774999999999963
11
70.1674999999999898
21
-61.2774999999999963
0
LINE
8
BLACK
6
CONTINUOUS
10
70.1674999999999898
20
-61.2774999999999963
11
70.1674999999999898
21
-59.0549999999999997
0
LINE
8
BLACK
6
CONTINUOUS
10
70.1674999999999898
20
-59.0549999999999997
11
72.0724999999999909
21
-59.0549999999999997
0
LINE
8
BLACK
6
CONTINUOUS
10
72.0724999999999909
20
-59.0549999999999997
11
72.0724999999999909
21
-61.2774999999999963
0
LINE
8
BLACK
6
CONTINUOUS
10
68.8974999999999937
20
-58.2612499999999969
11
66.9924999999999926
21
-58.2612499999999969
0
LINE
8
BLACK
6
CONTINUOUS
10
66.9924999999999926
20
-58.2612499999999969
11
66.9924999999999926
21
-55.7212499999999977
0
LINE
8
BLACK
6
CONTINUOUS
10
66.9924999999999926
20
-55.7212499999999977
11
68.8974999999999937
21
-55.7212499999999977
0
LINE
8
BLACK
6
CONTINUOUS
10
68.8974999999999937
20
-55.7212499999999977
11
68.8974999999999937
21
-58.2612499999999969
0
LINE
8
BLACK
6
CONTINUOUS
10
72.0724999999999909
20
-58.2612499999999969
11
70.1674999999999898
21
-58.2612499999999969
0
LINE
8
BLACK
6
CONTINUOUS
10
70.1674999999999898
20
-58.2612499999999969
11
70.1674999999999898
21
-55.7212499999999977
0
LINE
8
BLACK
6
CONTINUOUS
10
70.1674999999999898
20
-55.7212499999999977
11
72.0724999999999909
21
-55.7212499999999977
0
LINE
8
BLACK
6
CONTINUOUS
10
72.0724999999999909
20
-55.7212499999999977
11
72.0724999999999909
21
-58.2612499999999969
0
LINE
8
BLACK
6
CONTINUOUS
10
63.5000009999999975
20
-56.9912500000000009
11
62.5475009999999969
21
-56.9912500000000009
0
LINE
8
BLACK
6
CONTINUOUS
10
62.5475009999999969
20
-56.9912500000000009
11
62.5475009999999969
21
-55.7212499999999977
0
LINE
8
BLACK
6
CONTINUOUS
10
62.5475009999999969
20
-55.7212499999999977
11
63.5000009999999975
21
-55.7212499999999977
0
LINE
8
BLACK
6
CONTINUOUS
10
63.5000009999999975
20
-55.7212499999999977
11
63.5000009999999975
21
-56.9912500000000009
0
LINE
8
BLACK
6
CONTINUOUS
10
65.7224989999999991
20
-56.9912500000000009
11
64.7699989999999985
21
-56.9912500000000009
0
LINE
8
BLACK
6
CONTINUOUS
10
64.7699989999999985
20
-56.9912500000000009
11
64.7699989999999985
21
-55.7212499999999977
0
LINE
8
BLACK
6
CONTINUOUS
10
64.7699989999999985
20
-55.7212499999999977
11
65.7224989999999991
21
-55.7212499999999977
0
LINE
8
BLACK
6
CONTINUOUS
10
65.7224989999999991
20
-55.7212499999999977
11
65.7224989999999991
21
-56.9912500000000009
0
LINE
8
BLACK
6
CONTINUOUS
10
76.5223769999999917
20
-53.6329799999999963
11
76.5313889999999901
21
-53.6367130000000003
0
LINE
8
BLACK
6
CONTINUOUS
10
76.5313889999999901
20
-53.6367130000000003
11
76.5382869999999969
21
-53.6436109999999999
0
LINE
8
BLACK
6
CONTINUOUS
10
76.5382869999999969
20
-53.6436109999999999
11
76.5420199999999937
21
-53.6526229999999984
0
LINE
8
BLACK
6
CONTINUOUS
10
76.5420199999999937
20
-53.6526229999999984
11
76.5424999999999898
21
-53.6574999999999989
0
LINE
8
BLACK
6
CONTINUOUS
10
76.5424999999999898
20
-53.6574999999999989
11
76.5424999999999898
21
-79.0574999999999903
0
LINE
8
BLACK
6
CONTINUOUS
10
76.5424999999999898
20
-79.0574999999999903
11
76.5420199999999937
21
-79.0623769999999979
0
LINE
8
BLACK
6
CONTINUOUS
10
76.5420199999999937
20
-79.0623769999999979
11
76.5382869999999969
21
-79.0713889999999964
0
LINE
8
BLACK
6
CONTINUOUS
10
76.5382869999999969
20
-79.0713889999999964
11
76.5313889999999901
21
-79.0782870000000031
0
LINE
8
BLACK
6
CONTINUOUS
10
76.5313889999999901
20
-79.0782870000000031
11
76.5223769999999917
21
-79.08202
0
LINE
8
BLACK
6
CONTINUOUS
10
76.5223769999999917
20
-79.08202
11
76.5174999999999983
21
-79.082499999999996
0
LINE
8
BLACK
6
CONTINUOUS
10
76.5174999999999983
20
-79.082499999999996
11
51.1174999999999997
21
-79.082499999999996
0
LINE
8
BLACK
6
CONTINUOUS
10
51.1174999999999997
20
-79.082499999999996
11
51.1126229999999993
21
-79.08202
0
LINE
8
BLACK
6
CONTINUOUS
10
51.1126229999999993
20
-79.08202
11
51.1036110000000008
21
-79.0782870000000031
0
LINE
8
BLACK
6
CONTINUOUS
10
51.1036110000000008
20
-79.0782870000000031
11
51.0967130000000012
21
-79.0713889999999964
0
LINE
8
BLACK
6
CONTINUOUS
10
51.0967130000000012
20
-79.0713889999999964
11
51.0929799999999972
21
-79.0623769999999979
0
LINE
8
BLACK
6
CONTINUOUS
10
51.0929799999999972
20
-79.0623769999999979
11
51.0925000000000011
21
-79.0574999999999903
0
LINE
8
BLACK
6
CONTINUOUS
10
51.0925000000000011
20
-79.0574999999999903
11
51.0925000000000011
21
-53.6574999999999989
0
LINE
8
BLACK
6
CONTINUOUS
10
51.0925000000000011
20
-53.6574999999999989
11
51.0929799999999972
21
-53.6526229999999984
0
LINE
8
BLACK
6
CONTINUOUS
10
51.0929799999999972
20
-53.6526229999999984
11
51.0967130000000012
21
-53.6436109999999999
0
LINE
8
BLACK
6
CONTINUOUS
10
51.0967130000000012
20
-53.6436109999999999
11
51.1036110000000008
21
-53.6367130000000003
0
LINE
8
BLACK
6
CONTINUOUS
10
51.1036110000000008
20
-53.6367130000000003
11
51.1126229999999993
21
-53.6329799999999963
0
LINE
8
BLACK
6
CONTINUOUS
10
51.1126229999999993
20
-53.6329799999999963
11
51.1174999999999997
21
-53.6325000000000003
0
LINE
8
BLACK
6
CONTINUOUS
10
51.1174999999999997
20
-53.6325000000000003
11
76.5174999999999983
21
-53.6325000000000003
0
LINE
8
BLACK
6
CONTINUOUS
10
76.5174999999999983
20
-53.6325000000000003
11
76.5223769999999917
21
-53.6329799999999963
0
LINE
8
BLACK
6
CONTINUOUS
10
51.1424999999999983
20
-53.6824999999999974
11
51.1424999999999983
21
-79.0324999999999989
0
LINE
8
BLACK
6
CONTINUOUS
10
51.1424999999999983
20
-79.0324999999999989
11
76.4924999999999926
21
-79.0324999999999989
0
LINE
8
BLACK
6
CONTINUOUS
10
76.4924999999999926
20
-79.0324999999999989
11
76.4924999999999926
21
-53.6824999999999974
0
LINE
8
BLACK
6
CONTINUOUS
10
76.4924999999999926
20
-53.6824999999999974
11
51.1424999999999983
21
-53.6824999999999974
  0
ENDSEC
  0
EOF
