%TF.GenerationSoftware,KiCad,Pcbnew,8.0.4*%
%TF.CreationDate,2025-03-05T13:52:06+07:00*%
%TF.ProjectId,REM-2.0,52454d2d-322e-4302-9e6b-696361645f70,rev?*%
%TF.SameCoordinates,Original*%
%TF.FileFunction,Copper,L2,Bot*%
%TF.FilePolarity,Positive*%
%FSLAX46Y46*%
G04 Gerber Fmt 4.6, Leading zero omitted, Abs format (unit mm)*
G04 Created by KiCad (PCBNEW 8.0.4) date 2025-03-05 13:52:06*
%MOMM*%
%LPD*%
G01*
G04 APERTURE LIST*
%TA.AperFunction,ComponentPad*%
%ADD10C,2.000000*%
%TD*%
%TA.AperFunction,ComponentPad*%
%ADD11C,1.400000*%
%TD*%
%TA.AperFunction,ComponentPad*%
%ADD12O,1.400000X1.400000*%
%TD*%
%TA.AperFunction,ComponentPad*%
%ADD13R,1.700000X1.700000*%
%TD*%
%TA.AperFunction,ComponentPad*%
%ADD14O,1.700000X1.700000*%
%TD*%
%TA.AperFunction,ComponentPad*%
%ADD15C,1.600000*%
%TD*%
%TA.AperFunction,ComponentPad*%
%ADD16R,3.000000X3.000000*%
%TD*%
%TA.AperFunction,ComponentPad*%
%ADD17C,3.000000*%
%TD*%
%TA.AperFunction,ComponentPad*%
%ADD18C,2.400000*%
%TD*%
%TA.AperFunction,ComponentPad*%
%ADD19O,2.400000X2.400000*%
%TD*%
%TA.AperFunction,ComponentPad*%
%ADD20R,2.000000X2.000000*%
%TD*%
%TA.AperFunction,ComponentPad*%
%ADD21R,1.905000X2.000000*%
%TD*%
%TA.AperFunction,ComponentPad*%
%ADD22O,1.905000X2.000000*%
%TD*%
%TA.AperFunction,ComponentPad*%
%ADD23C,1.440000*%
%TD*%
%TA.AperFunction,ComponentPad*%
%ADD24R,2.400000X2.400000*%
%TD*%
%TA.AperFunction,ComponentPad*%
%ADD25R,1.600000X1.600000*%
%TD*%
%TA.AperFunction,ComponentPad*%
%ADD26O,1.600000X1.600000*%
%TD*%
%TA.AperFunction,ComponentPad*%
%ADD27R,1.500000X1.500000*%
%TD*%
%TA.AperFunction,ComponentPad*%
%ADD28O,1.500000X1.500000*%
%TD*%
%TA.AperFunction,Conductor*%
%ADD29C,0.635000*%
%TD*%
%TA.AperFunction,Conductor*%
%ADD30C,1.270000*%
%TD*%
%TA.AperFunction,Conductor*%
%ADD31C,0.508000*%
%TD*%
%TA.AperFunction,Conductor*%
%ADD32C,0.317500*%
%TD*%
G04 APERTURE END LIST*
D10*
%TO.P,C12,1*%
%TO.N,Net-(J2-Pin_1)*%
X185102500Y-97235000D03*
%TO.P,C12,2*%
%TO.N,Net-(J2-Pin_3)*%
X185102500Y-107235000D03*
%TD*%
D11*
%TO.P,R6,1*%
%TO.N,Net-(R6-Pad1)*%
X174307500Y-80962500D03*
D12*
%TO.P,R6,2*%
%TO.N,Net-(U2--)*%
X174307500Y-73342500D03*
%TD*%
D13*
%TO.P,J2,1,Pin_1*%
%TO.N,Net-(J2-Pin_1)*%
X178117500Y-103822500D03*
D14*
%TO.P,J2,2,Pin_2*%
%TO.N,Net-(J2-Pin_2)*%
X173037500Y-103822500D03*
%TO.P,J2,3,Pin_3*%
%TO.N,Net-(J2-Pin_3)*%
X167957500Y-103822500D03*
%TD*%
D15*
%TO.P,C1,1*%
%TO.N,Net-(D1-K)*%
X108625000Y-90170000D03*
%TO.P,C1,2*%
%TO.N,GND*%
X113625000Y-90170000D03*
%TD*%
D13*
%TO.P,J1,1,Pin_1*%
%TO.N,Net-(J1-Pin_1)*%
X106045000Y-103822500D03*
D14*
%TO.P,J1,2,Pin_2*%
%TO.N,+5V*%
X103505000Y-103822500D03*
%TO.P,J1,3,Pin_3*%
%TO.N,GND*%
X100965000Y-103822500D03*
%TO.P,J1,4,Pin_4*%
%TO.N,+12V*%
X98425000Y-103822500D03*
%TD*%
D11*
%TO.P,TP7,1,1*%
%TO.N,GND*%
X98425000Y-68580000D03*
X100965000Y-68580000D03*
%TD*%
D16*
%TO.P,L1,1,1*%
%TO.N,Net-(Q1-D)*%
X136842500Y-95885000D03*
D17*
%TO.P,L1,2,2*%
%TO.N,+12V*%
X147002500Y-95885000D03*
%TO.P,L1,3,3*%
%TO.N,Net-(L1-Pad3)*%
X147002500Y-75565000D03*
%TO.P,L1,4,4*%
%TO.N,Net-(L1-Pad4)*%
X136842500Y-75565000D03*
%TD*%
D18*
%TO.P,R9,1*%
%TO.N,Net-(J2-Pin_1)*%
X185102500Y-93662500D03*
D19*
%TO.P,R9,2*%
%TO.N,Net-(L1-Pad3)*%
X185102500Y-73342500D03*
%TD*%
D15*
%TO.P,C4,1*%
%TO.N,Net-(D2-K)*%
X159032500Y-101917500D03*
%TO.P,C4,2*%
%TO.N,Net-(Q1-D)*%
X154032500Y-101917500D03*
%TD*%
D20*
%TO.P,JP2,1,1*%
%TO.N,+12V*%
X114935000Y-87630000D03*
%TD*%
D11*
%TO.P,TP5,1,1*%
%TO.N,Net-(U2-+)*%
X152717500Y-84772500D03*
X155257500Y-84772500D03*
%TD*%
D21*
%TO.P,Q1,1,G*%
%TO.N,Net-(Q1-G)*%
X124460000Y-90170000D03*
D22*
%TO.P,Q1,2,D*%
%TO.N,Net-(Q1-D)*%
X127000000Y-90170000D03*
%TO.P,Q1,3,S*%
%TO.N,GND*%
X129540000Y-90170000D03*
%TD*%
D23*
%TO.P,RV2,1,1*%
%TO.N,GND*%
X179705000Y-80962500D03*
%TO.P,RV2,2,2*%
%TO.N,Net-(R6-Pad1)*%
X179705000Y-78422500D03*
%TO.P,RV2,3,3*%
%TO.N,+12V*%
X179705000Y-75882500D03*
%TD*%
D11*
%TO.P,R1,1*%
%TO.N,+12V*%
X103505000Y-90170000D03*
D12*
%TO.P,R1,2*%
%TO.N,Net-(D1-A)*%
X103505000Y-82550000D03*
%TD*%
D11*
%TO.P,R2,1*%
%TO.N,Net-(D1-A)*%
X100965000Y-90170000D03*
D12*
%TO.P,R2,2*%
%TO.N,Net-(D1-K)*%
X100965000Y-82550000D03*
%TD*%
D15*
%TO.P,C5,1*%
%TO.N,Net-(D3-K)*%
X162922500Y-93662500D03*
%TO.P,C5,2*%
%TO.N,GND*%
X167922500Y-93662500D03*
%TD*%
D10*
%TO.P,C11,1*%
%TO.N,Net-(J2-Pin_2)*%
X190817500Y-97235000D03*
%TO.P,C11,2*%
%TO.N,Net-(J2-Pin_3)*%
X190817500Y-107235000D03*
%TD*%
D15*
%TO.P,C6,1*%
%TO.N,Net-(U2-+)*%
X162922500Y-89852500D03*
%TO.P,C6,2*%
%TO.N,GND*%
X167922500Y-89852500D03*
%TD*%
D11*
%TO.P,R5,1*%
%TO.N,Net-(D3-K)*%
X152717500Y-89852500D03*
D12*
%TO.P,R5,2*%
%TO.N,Net-(U2-+)*%
X160337500Y-89852500D03*
%TD*%
D11*
%TO.P,R3,1*%
%TO.N,Net-(U1-Q)*%
X118745000Y-82550000D03*
D12*
%TO.P,R3,2*%
%TO.N,Net-(Q1-G)*%
X118745000Y-90170000D03*
%TD*%
D10*
%TO.P,C3,1*%
%TO.N,+12V*%
X122000000Y-93980000D03*
%TO.P,C3,2*%
%TO.N,Net-(Q1-D)*%
X132000000Y-93980000D03*
%TD*%
D11*
%TO.P,TP6,1,1*%
%TO.N,Net-(J1-Pin_1)*%
X171767500Y-83502500D03*
X174307500Y-83502500D03*
%TD*%
D24*
%TO.P,C7,1*%
%TO.N,+12V*%
X128270000Y-101772323D03*
D18*
%TO.P,C7,2*%
%TO.N,GND*%
X128270000Y-106772323D03*
%TD*%
D11*
%TO.P,TP2,1,1*%
%TO.N,Net-(Q1-D)*%
X155257500Y-105410000D03*
X157797500Y-105410000D03*
%TD*%
D25*
%TO.P,U1,1,GND*%
%TO.N,GND*%
X114935000Y-85090000D03*
D26*
%TO.P,U1,2,TR*%
%TO.N,Net-(D1-K)*%
X114935000Y-82550000D03*
%TO.P,U1,3,Q*%
%TO.N,Net-(U1-Q)*%
X114935000Y-80010000D03*
%TO.P,U1,4,R*%
%TO.N,+12V*%
X114935000Y-77470000D03*
%TO.P,U1,5,CV*%
%TO.N,Net-(U1-CV)*%
X107315000Y-77470000D03*
%TO.P,U1,6,THR*%
%TO.N,Net-(D1-K)*%
X107315000Y-80010000D03*
%TO.P,U1,7,DIS*%
%TO.N,Net-(D1-A)*%
X107315000Y-82550000D03*
%TO.P,U1,8,VCC*%
%TO.N,+12V*%
X107315000Y-85090000D03*
%TD*%
D15*
%TO.P,C8,1*%
%TO.N,+12V*%
X108625000Y-93980000D03*
%TO.P,C8,2*%
%TO.N,GND*%
X113625000Y-93980000D03*
%TD*%
D18*
%TO.P,R8,1*%
%TO.N,Net-(J2-Pin_2)*%
X190817500Y-93662500D03*
D19*
%TO.P,R8,2*%
%TO.N,Net-(L1-Pad4)*%
X190817500Y-73342500D03*
%TD*%
D24*
%TO.P,C9,1*%
%TO.N,+5V*%
X114935000Y-106825177D03*
D18*
%TO.P,C9,2*%
%TO.N,GND*%
X114935000Y-101825177D03*
%TD*%
D11*
%TO.P,R7,1*%
%TO.N,Net-(U2--)*%
X171767500Y-73342500D03*
D12*
%TO.P,R7,2*%
%TO.N,Net-(J1-Pin_1)*%
X171767500Y-80962500D03*
%TD*%
D27*
%TO.P,D2,1,K*%
%TO.N,Net-(D2-K)*%
X152712500Y-96202500D03*
D28*
%TO.P,D2,2,A*%
%TO.N,GND*%
X160332500Y-96202500D03*
%TD*%
D27*
%TO.P,D3,1,K*%
%TO.N,Net-(D3-K)*%
X160342500Y-93662500D03*
D28*
%TO.P,D3,2,A*%
%TO.N,Net-(D2-K)*%
X152722500Y-93662500D03*
%TD*%
D27*
%TO.P,D1,1,K*%
%TO.N,Net-(D1-K)*%
X98425000Y-82545000D03*
D28*
%TO.P,D1,2,A*%
%TO.N,Net-(D1-A)*%
X98425000Y-90165000D03*
%TD*%
D11*
%TO.P,TP1,1,1*%
%TO.N,+12V*%
X116205000Y-93980000D03*
X118745000Y-93980000D03*
%TD*%
%TO.P,R4,1*%
%TO.N,GND*%
X160337500Y-98742500D03*
D12*
%TO.P,R4,2*%
%TO.N,Net-(D2-K)*%
X152717500Y-98742500D03*
%TD*%
D15*
%TO.P,C2,1*%
%TO.N,Net-(U1-CV)*%
X103465000Y-77470000D03*
%TO.P,C2,2*%
%TO.N,GND*%
X98465000Y-77470000D03*
%TD*%
D25*
%TO.P,U2,1,BAL*%
%TO.N,unconnected-(U2-BAL-Pad1)*%
X160337500Y-78422500D03*
D26*
%TO.P,U2,2,-*%
%TO.N,Net-(U2--)*%
X160337500Y-80962500D03*
%TO.P,U2,3,+*%
%TO.N,Net-(U2-+)*%
X160337500Y-83502500D03*
%TO.P,U2,4,V-*%
%TO.N,GND*%
X160337500Y-86042500D03*
%TO.P,U2,5,COMP*%
%TO.N,unconnected-(U2-COMP-Pad5)*%
X167957500Y-86042500D03*
%TO.P,U2,6*%
%TO.N,Net-(J1-Pin_1)*%
X167957500Y-83502500D03*
%TO.P,U2,7,V+*%
%TO.N,+5V*%
X167957500Y-80962500D03*
%TO.P,U2,8,C/B*%
%TO.N,unconnected-(U2-C{slash}B-Pad8)*%
X167957500Y-78422500D03*
%TD*%
D23*
%TO.P,RV1,1,1*%
%TO.N,GND*%
X153987500Y-80962500D03*
%TO.P,RV1,2,2*%
X153987500Y-78422500D03*
%TO.P,RV1,3,3*%
%TO.N,Net-(U2-+)*%
X153987500Y-75882500D03*
%TD*%
D15*
%TO.P,C10,1*%
%TO.N,+5V*%
X167922500Y-74612500D03*
%TO.P,C10,2*%
%TO.N,GND*%
X162922500Y-74612500D03*
%TD*%
D20*
%TO.P,JP1,1,1*%
%TO.N,+12V*%
X107315000Y-87630000D03*
%TD*%
D29*
%TO.N,Net-(U2-+)*%
X156527500Y-82867500D02*
X157162500Y-83502500D01*
D30*
X152717500Y-84772500D02*
X155257500Y-84772500D01*
D29*
X156527500Y-77152500D02*
X155257500Y-75882500D01*
X156527500Y-83502500D02*
X155257500Y-84772500D01*
X155257500Y-75882500D02*
X153987500Y-75882500D01*
X155257500Y-87312500D02*
X155257500Y-84772500D01*
X160337500Y-89852500D02*
X162882500Y-89852500D01*
X157162500Y-83502500D02*
X156527500Y-83502500D01*
X160337500Y-89852500D02*
X157797500Y-89852500D01*
X160337500Y-83502500D02*
X157162500Y-83502500D01*
X157797500Y-89852500D02*
X155257500Y-87312500D01*
X156527500Y-82867500D02*
X156527500Y-77152500D01*
X156527500Y-83502500D02*
X156527500Y-82867500D01*
%TO.N,Net-(D1-K)*%
X109537500Y-82545000D02*
X109537500Y-83497500D01*
X109537500Y-89257500D02*
X109537500Y-83497500D01*
X109537500Y-83497500D02*
X110495000Y-82540000D01*
X100652500Y-82545000D02*
X103505000Y-79692500D01*
X107632500Y-79687500D02*
X109537500Y-81592500D01*
X98425000Y-82545000D02*
X100652500Y-82545000D01*
X110480000Y-82545000D02*
X110485000Y-82540000D01*
X103505000Y-79692500D02*
X106997500Y-79692500D01*
X109537500Y-82545000D02*
X110480000Y-82545000D01*
X108625000Y-90170000D02*
X109537500Y-89257500D01*
X110485000Y-82540000D02*
X109537500Y-81592500D01*
X106997500Y-79692500D02*
X107305000Y-80000000D01*
X110495000Y-82540000D02*
X114925000Y-82540000D01*
X109537500Y-81592500D02*
X109537500Y-82545000D01*
X110495000Y-82540000D02*
X110485000Y-82540000D01*
D30*
%TO.N,+12V*%
X116205000Y-88900000D02*
X116205000Y-88265000D01*
X107315000Y-85090000D02*
X107315000Y-87630000D01*
X143510000Y-95885000D02*
X147002500Y-95885000D01*
X103505000Y-86360000D02*
X104775000Y-85090000D01*
X137622677Y-101772323D02*
X143510000Y-95885000D01*
X103505000Y-90170000D02*
X103505000Y-86360000D01*
X98425000Y-103822500D02*
X98425000Y-98107500D01*
X102552500Y-93980000D02*
X103505000Y-93027500D01*
X118745000Y-93980000D02*
X120967500Y-93980000D01*
D29*
X181927500Y-77152500D02*
X181927500Y-83820000D01*
D30*
X103505000Y-93027500D02*
X103505000Y-90170000D01*
X116205000Y-87630000D02*
X114935000Y-87630000D01*
D29*
X181927500Y-83820000D02*
X158115000Y-107632500D01*
X107315000Y-87630000D02*
X107305000Y-87620000D01*
D30*
X120650000Y-83820000D02*
X120650000Y-80645000D01*
X128270000Y-101772323D02*
X128270000Y-100806250D01*
X98425000Y-98107500D02*
X102552500Y-93980000D01*
D29*
X158115000Y-107632500D02*
X154940000Y-107632500D01*
X179705000Y-75882500D02*
X180657500Y-75882500D01*
D30*
X120650000Y-83820000D02*
X116840000Y-87630000D01*
D29*
X180657500Y-75882500D02*
X181927500Y-77152500D01*
D30*
X121443750Y-93980000D02*
X120967500Y-93980000D01*
X120967500Y-93980000D02*
X122000000Y-93980000D01*
X116205000Y-88265000D02*
X116205000Y-87630000D01*
X116205000Y-93980000D02*
X116205000Y-88900000D01*
X116840000Y-87630000D02*
X116205000Y-88265000D01*
D29*
X148907500Y-101600000D02*
X148907500Y-97790000D01*
D30*
X128270000Y-100806250D02*
X121443750Y-93980000D01*
X117465000Y-77460000D02*
X114925000Y-77460000D01*
D29*
X154940000Y-107632500D02*
X148907500Y-101600000D01*
D30*
X128270000Y-101772323D02*
X137622677Y-101772323D01*
X108625000Y-93980000D02*
X104457500Y-93980000D01*
X120650000Y-80645000D02*
X117465000Y-77460000D01*
X104775000Y-85090000D02*
X107315000Y-85090000D01*
X114935000Y-87630000D02*
X116205000Y-88900000D01*
X104457500Y-93980000D02*
X103505000Y-93027500D01*
X104457500Y-93980000D02*
X102552500Y-93980000D01*
X116840000Y-87630000D02*
X116205000Y-87630000D01*
D29*
X148907500Y-97790000D02*
X147002500Y-95885000D01*
X107325000Y-87620000D02*
X107315000Y-87630000D01*
D30*
X116205000Y-93980000D02*
X118745000Y-93980000D01*
D29*
%TO.N,Net-(Q1-D)*%
X150812500Y-93980000D02*
X149542500Y-92710000D01*
D30*
X128905000Y-93980000D02*
X132000000Y-93980000D01*
X157797500Y-105410000D02*
X155257500Y-105410000D01*
D29*
X155257500Y-105410000D02*
X155257500Y-103142500D01*
D30*
X133905000Y-95885000D02*
X132000000Y-93980000D01*
X136842500Y-95885000D02*
X133905000Y-95885000D01*
D29*
X149542500Y-92710000D02*
X140017500Y-92710000D01*
X140017500Y-92710000D02*
X136842500Y-95885000D01*
D30*
X127000000Y-92075000D02*
X128905000Y-93980000D01*
X127000000Y-90170000D02*
X127000000Y-92075000D01*
D29*
X150812500Y-100647500D02*
X150812500Y-93980000D01*
X154032500Y-101917500D02*
X152082500Y-101917500D01*
X152082500Y-101917500D02*
X150812500Y-100647500D01*
X155257500Y-103142500D02*
X154032500Y-101917500D01*
%TO.N,Net-(D1-A)*%
X100965000Y-90170000D02*
X100965000Y-85407500D01*
X107295000Y-82550000D02*
X107305000Y-82540000D01*
X100965000Y-85407500D02*
X103505000Y-82867500D01*
X98425000Y-90165000D02*
X100960000Y-90165000D01*
X103505000Y-82550000D02*
X107295000Y-82550000D01*
%TO.N,Net-(D3-K)*%
X155257500Y-89852500D02*
X159067500Y-93662500D01*
X159067500Y-93662500D02*
X162882500Y-93662500D01*
X152717500Y-89852500D02*
X155257500Y-89852500D01*
D30*
%TO.N,Net-(U1-CV)*%
X107305000Y-77460000D02*
X103475000Y-77460000D01*
X103475000Y-77460000D02*
X103465000Y-77470000D01*
%TO.N,Net-(J2-Pin_1)*%
X185102500Y-93662500D02*
X185102500Y-97235000D01*
X178515000Y-103822500D02*
X185102500Y-97235000D01*
%TO.N,Net-(J2-Pin_3)*%
X185102500Y-107235000D02*
X190817500Y-107235000D01*
X182482500Y-109855000D02*
X185102500Y-107235000D01*
X167957500Y-103822500D02*
X167957500Y-106997500D01*
X170815000Y-109855000D02*
X182482500Y-109855000D01*
X167957500Y-106997500D02*
X170815000Y-109855000D01*
%TO.N,Net-(J2-Pin_2)*%
X173037500Y-105727500D02*
X173037500Y-103822500D01*
X190817500Y-97235000D02*
X181055000Y-106997500D01*
X181055000Y-106997500D02*
X174307500Y-106997500D01*
X174307500Y-106997500D02*
X173037500Y-105727500D01*
X190817500Y-93662500D02*
X190817500Y-97235000D01*
D31*
%TO.N,+5V*%
X108720000Y-110307500D02*
X103505000Y-105092500D01*
X175260000Y-75565000D02*
X177482500Y-73342500D01*
X183832500Y-76041250D02*
X183832500Y-84455000D01*
D29*
X167957500Y-80962500D02*
X167005000Y-80962500D01*
X166052500Y-75547500D02*
X166987500Y-74612500D01*
X112857677Y-106825177D02*
X107632500Y-101600000D01*
D31*
X177482500Y-73342500D02*
X181133750Y-73342500D01*
D29*
X166987500Y-74612500D02*
X167922500Y-74612500D01*
D31*
X181133750Y-73342500D02*
X183832500Y-76041250D01*
D29*
X103505000Y-102552500D02*
X103505000Y-103822500D01*
X104457500Y-101600000D02*
X103505000Y-102552500D01*
D31*
X170180000Y-75565000D02*
X175260000Y-75565000D01*
X157980000Y-110307500D02*
X108720000Y-110307500D01*
D29*
X166052500Y-80010000D02*
X166052500Y-75547500D01*
D31*
X103505000Y-105092500D02*
X103505000Y-103822500D01*
X169227500Y-74612500D02*
X170180000Y-75565000D01*
D29*
X114935000Y-106825177D02*
X112857677Y-106825177D01*
X107632500Y-101600000D02*
X104457500Y-101600000D01*
D31*
X167922500Y-74612500D02*
X169227500Y-74612500D01*
D29*
X167005000Y-80962500D02*
X166052500Y-80010000D01*
D31*
X183832500Y-84455000D02*
X157980000Y-110307500D01*
D32*
%TO.N,Net-(J1-Pin_1)*%
X171767500Y-80962500D02*
X171767500Y-80645000D01*
X180498750Y-74295000D02*
X182880000Y-76676250D01*
X157503750Y-109513750D02*
X110625000Y-109513750D01*
X182880000Y-76676250D02*
X182880000Y-84137500D01*
X171767500Y-80645000D02*
X178117500Y-74295000D01*
D29*
X171767500Y-83502500D02*
X174307500Y-83502500D01*
X171767500Y-80962500D02*
X171767500Y-83502500D01*
D32*
X106045000Y-104933750D02*
X106045000Y-103822500D01*
X110625000Y-109513750D02*
X106045000Y-104933750D01*
X182880000Y-84137500D02*
X157503750Y-109513750D01*
X178117500Y-74295000D02*
X180498750Y-74295000D01*
D29*
X167957500Y-83502500D02*
X171767500Y-83502500D01*
D30*
%TO.N,Net-(L1-Pad3)*%
X147002500Y-75565000D02*
X152400000Y-70167500D01*
X181927500Y-70167500D02*
X185102500Y-73342500D01*
X152400000Y-70167500D02*
X181927500Y-70167500D01*
%TO.N,Net-(L1-Pad4)*%
X185420000Y-67945000D02*
X190817500Y-73342500D01*
X136842500Y-75565000D02*
X144462500Y-67945000D01*
X144462500Y-67945000D02*
X185420000Y-67945000D01*
%TO.N,Net-(Q1-G)*%
X124460000Y-90170000D02*
X118745000Y-90170000D01*
D29*
%TO.N,Net-(U1-Q)*%
X118745000Y-81280000D02*
X118745000Y-82550000D01*
X114925000Y-80000000D02*
X117465000Y-80000000D01*
X117465000Y-80000000D02*
X118745000Y-81280000D01*
%TO.N,Net-(U2--)*%
X174307500Y-73342500D02*
X171767500Y-73342500D01*
D32*
X169545000Y-72707500D02*
X166052500Y-72707500D01*
X165100000Y-80010000D02*
X164147500Y-80962500D01*
X171767500Y-73342500D02*
X170180000Y-73342500D01*
X166052500Y-72707500D02*
X165100000Y-73660000D01*
X164147500Y-80962500D02*
X160337500Y-80962500D01*
X165100000Y-73660000D02*
X165100000Y-80010000D01*
X170180000Y-73342500D02*
X169545000Y-72707500D01*
D29*
%TO.N,Net-(D2-K)*%
X159032500Y-101917500D02*
X156810000Y-99695000D01*
X152712500Y-93672500D02*
X152722500Y-93662500D01*
X152717500Y-98742500D02*
X152717500Y-96207500D01*
X152717500Y-96207500D02*
X152712500Y-96202500D01*
X153670000Y-99695000D02*
X152717500Y-98742500D01*
X152712500Y-96202500D02*
X152712500Y-93672500D01*
X156810000Y-99695000D02*
X153670000Y-99695000D01*
%TO.N,Net-(R6-Pad1)*%
X176847500Y-78422500D02*
X174307500Y-80962500D01*
X179705000Y-78422500D02*
X176847500Y-78422500D01*
%TD*%
%TA.AperFunction,Conductor*%
%TO.N,GND*%
G36*
X122253431Y-67330002D02*
G01*
X122274405Y-67346905D01*
X122835595Y-67908095D01*
X122869621Y-67970407D01*
X122872500Y-67997190D01*
X122872500Y-83820001D01*
X124142498Y-85089999D01*
X124142500Y-85090000D01*
X130810000Y-85090000D01*
X134265595Y-81634405D01*
X134327907Y-81600379D01*
X134354690Y-81597500D01*
X147955000Y-81597500D01*
X148590003Y-80962497D01*
X153008787Y-80962497D01*
X153008787Y-80962502D01*
X153027591Y-81153430D01*
X153083287Y-81337037D01*
X153169264Y-81497890D01*
X153601129Y-81066025D01*
X153614759Y-81116894D01*
X153667420Y-81208106D01*
X153741894Y-81282580D01*
X153833106Y-81335241D01*
X153883972Y-81348870D01*
X153452108Y-81780734D01*
X153612962Y-81866712D01*
X153796569Y-81922408D01*
X153987497Y-81941213D01*
X153987503Y-81941213D01*
X154178430Y-81922408D01*
X154362035Y-81866713D01*
X154522891Y-81780733D01*
X154091028Y-81348870D01*
X154141894Y-81335241D01*
X154233106Y-81282580D01*
X154307580Y-81208106D01*
X154360241Y-81116894D01*
X154373870Y-81066028D01*
X154805733Y-81497891D01*
X154891713Y-81337035D01*
X154947408Y-81153430D01*
X154966213Y-80962502D01*
X154966213Y-80962497D01*
X154947408Y-80771569D01*
X154891712Y-80587962D01*
X154805734Y-80427108D01*
X154373870Y-80858971D01*
X154360241Y-80808106D01*
X154307580Y-80716894D01*
X154233106Y-80642420D01*
X154141894Y-80589759D01*
X154091025Y-80576129D01*
X154522890Y-80144264D01*
X154522891Y-80144264D01*
X154362037Y-80058287D01*
X154178430Y-80002591D01*
X153987503Y-79983787D01*
X153987497Y-79983787D01*
X153796569Y-80002591D01*
X153612962Y-80058287D01*
X153452108Y-80144264D01*
X153883972Y-80576129D01*
X153833106Y-80589759D01*
X153741894Y-80642420D01*
X153667420Y-80716894D01*
X153614759Y-80808106D01*
X153601129Y-80858972D01*
X153169264Y-80427108D01*
X153083287Y-80587962D01*
X153027591Y-80771569D01*
X153008787Y-80962497D01*
X148590003Y-80962497D01*
X151130003Y-78422497D01*
X153008787Y-78422497D01*
X153008787Y-78422502D01*
X153027591Y-78613430D01*
X153083287Y-78797037D01*
X153169264Y-78957890D01*
X153601129Y-78526025D01*
X153614759Y-78576894D01*
X153667420Y-78668106D01*
X153741894Y-78742580D01*
X153833106Y-78795241D01*
X153883972Y-78808870D01*
X153452108Y-79240734D01*
X153612962Y-79326712D01*
X153796569Y-79382408D01*
X153987497Y-79401213D01*
X153987503Y-79401213D01*
X154178430Y-79382408D01*
X154362035Y-79326713D01*
X154522891Y-79240733D01*
X154091028Y-78808870D01*
X154141894Y-78795241D01*
X154233106Y-78742580D01*
X154307580Y-78668106D01*
X154360241Y-78576894D01*
X154373870Y-78526028D01*
X154805733Y-78957891D01*
X154891713Y-78797035D01*
X154947408Y-78613430D01*
X154966213Y-78422502D01*
X154966213Y-78422497D01*
X154947408Y-78231569D01*
X154891712Y-78047962D01*
X154805734Y-77887108D01*
X154373870Y-78318971D01*
X154360241Y-78268106D01*
X154307580Y-78176894D01*
X154233106Y-78102420D01*
X154141894Y-78049759D01*
X154091025Y-78036129D01*
X154522890Y-77604264D01*
X154522891Y-77604264D01*
X154362037Y-77518287D01*
X154178430Y-77462591D01*
X153987503Y-77443787D01*
X153987497Y-77443787D01*
X153796569Y-77462591D01*
X153612962Y-77518287D01*
X153452108Y-77604264D01*
X153883972Y-78036129D01*
X153833106Y-78049759D01*
X153741894Y-78102420D01*
X153667420Y-78176894D01*
X153614759Y-78268106D01*
X153601129Y-78318972D01*
X153169264Y-77887108D01*
X153083287Y-78047962D01*
X153027591Y-78231569D01*
X153008787Y-78422497D01*
X151130003Y-78422497D01*
X151765000Y-77787500D01*
X151765000Y-74987175D01*
X151785002Y-74919054D01*
X151808026Y-74892352D01*
X154269371Y-72738674D01*
X154333809Y-72708871D01*
X154352343Y-72707500D01*
X163142810Y-72707500D01*
X163210931Y-72727502D01*
X163231905Y-72744405D01*
X163793095Y-73305595D01*
X163827121Y-73367907D01*
X163830000Y-73394690D01*
X163830000Y-73935650D01*
X163809998Y-74003771D01*
X163793096Y-74024745D01*
X163308870Y-74508970D01*
X163295241Y-74458106D01*
X163242580Y-74366894D01*
X163168106Y-74292420D01*
X163076894Y-74239759D01*
X163026028Y-74226129D01*
X163516046Y-73736111D01*
X163510902Y-73731889D01*
X163327801Y-73634019D01*
X163129111Y-73573748D01*
X162922503Y-73553400D01*
X162922497Y-73553400D01*
X162715888Y-73573748D01*
X162517200Y-73634019D01*
X162334092Y-73731893D01*
X162328953Y-73736110D01*
X162818972Y-74226129D01*
X162768106Y-74239759D01*
X162676894Y-74292420D01*
X162602420Y-74366894D01*
X162549759Y-74458106D01*
X162536129Y-74508971D01*
X162046110Y-74018953D01*
X162041893Y-74024092D01*
X161944019Y-74207200D01*
X161883748Y-74405888D01*
X161863400Y-74612496D01*
X161863400Y-74612500D01*
X161883748Y-74819111D01*
X161944019Y-75017801D01*
X162041889Y-75200902D01*
X162046111Y-75206046D01*
X162536129Y-74716028D01*
X162549759Y-74766894D01*
X162602420Y-74858106D01*
X162676894Y-74932580D01*
X162768106Y-74985241D01*
X162818971Y-74998870D01*
X162328952Y-75488888D01*
X162334088Y-75493103D01*
X162334100Y-75493111D01*
X162517198Y-75590980D01*
X162715888Y-75651251D01*
X162922497Y-75671600D01*
X162922503Y-75671600D01*
X163129111Y-75651251D01*
X163327801Y-75590980D01*
X163510901Y-75493110D01*
X163516045Y-75488888D01*
X163026028Y-74998870D01*
X163076894Y-74985241D01*
X163168106Y-74932580D01*
X163242580Y-74858106D01*
X163295241Y-74766894D01*
X163308870Y-74716027D01*
X163793095Y-75200252D01*
X163827120Y-75262565D01*
X163830000Y-75289348D01*
X163830000Y-75830310D01*
X163809998Y-75898431D01*
X163793095Y-75919405D01*
X163231905Y-76480595D01*
X163169593Y-76514621D01*
X163142810Y-76517500D01*
X157214690Y-76517500D01*
X157146569Y-76497498D01*
X157125595Y-76480595D01*
X155257501Y-74612500D01*
X155257500Y-74612500D01*
X153352500Y-74612500D01*
X153352498Y-74612500D01*
X152717500Y-75247498D01*
X152717500Y-76517501D01*
X153352498Y-77152499D01*
X153352500Y-77152500D01*
X154887810Y-77152500D01*
X154955931Y-77172502D01*
X154976905Y-77189405D01*
X155538095Y-77750595D01*
X155572121Y-77812907D01*
X155575000Y-77839690D01*
X155575000Y-82497810D01*
X155554998Y-82565931D01*
X155538095Y-82586905D01*
X154976905Y-83148095D01*
X154914593Y-83182121D01*
X154887810Y-83185000D01*
X152082498Y-83185000D01*
X151447500Y-83819998D01*
X151447500Y-83820000D01*
X151447500Y-90805000D01*
X130791123Y-90805000D01*
X130723002Y-90784998D01*
X130676509Y-90731342D01*
X130666405Y-90661068D01*
X130671290Y-90640064D01*
X130716790Y-90500027D01*
X130737386Y-90370000D01*
X130055812Y-90370000D01*
X130090000Y-90242409D01*
X130090000Y-90097591D01*
X130055812Y-89970000D01*
X130737385Y-89970000D01*
X130716790Y-89839972D01*
X130658109Y-89659369D01*
X130658106Y-89659363D01*
X130571889Y-89490152D01*
X130460265Y-89336515D01*
X130325984Y-89202234D01*
X130172347Y-89090610D01*
X130003136Y-89004393D01*
X130003130Y-89004390D01*
X129822528Y-88945709D01*
X129740000Y-88932637D01*
X129740000Y-89654188D01*
X129612409Y-89620000D01*
X129467591Y-89620000D01*
X129340000Y-89654188D01*
X129340000Y-88932637D01*
X129257471Y-88945709D01*
X129072157Y-89005922D01*
X129071612Y-89004245D01*
X129008582Y-89010998D01*
X128945107Y-88979195D01*
X128908902Y-88918123D01*
X128905000Y-88887008D01*
X128905000Y-88265000D01*
X128904999Y-88264998D01*
X127952501Y-87312500D01*
X127952500Y-87312500D01*
X122607190Y-87312500D01*
X122539069Y-87292498D01*
X122518095Y-87275595D01*
X121956905Y-86714405D01*
X121922879Y-86652093D01*
X121920000Y-86625310D01*
X121920000Y-80010000D01*
X121919999Y-80009998D01*
X117792501Y-75882500D01*
X117792500Y-75882500D01*
X100647500Y-75882500D01*
X100647498Y-75882500D01*
X99571211Y-76958787D01*
X99508899Y-76992813D01*
X99438083Y-76987748D01*
X99381248Y-76945201D01*
X99370994Y-76929087D01*
X99345614Y-76881604D01*
X99345603Y-76881588D01*
X99341388Y-76876452D01*
X99341387Y-76876452D01*
X98851369Y-77366469D01*
X98837741Y-77315606D01*
X98785080Y-77224394D01*
X98710606Y-77149920D01*
X98619394Y-77097259D01*
X98568528Y-77083629D01*
X99058546Y-76593611D01*
X99053402Y-76589389D01*
X98870301Y-76491519D01*
X98671611Y-76431248D01*
X98465003Y-76410900D01*
X98464997Y-76410900D01*
X98258388Y-76431248D01*
X98059700Y-76491519D01*
X97876592Y-76589393D01*
X97871453Y-76593610D01*
X98361472Y-77083629D01*
X98310606Y-77097259D01*
X98219394Y-77149920D01*
X98144920Y-77224394D01*
X98092259Y-77315606D01*
X98078629Y-77366471D01*
X97588610Y-76876453D01*
X97584393Y-76881592D01*
X97486519Y-77064700D01*
X97426248Y-77263388D01*
X97405900Y-77469996D01*
X97405900Y-77470003D01*
X97426248Y-77676611D01*
X97486519Y-77875301D01*
X97584389Y-78058402D01*
X97588611Y-78063546D01*
X98078629Y-77573528D01*
X98092259Y-77624394D01*
X98144920Y-77715606D01*
X98219394Y-77790080D01*
X98310606Y-77842741D01*
X98361471Y-77856370D01*
X97871452Y-78346388D01*
X97876588Y-78350603D01*
X97876604Y-78350614D01*
X97924087Y-78375994D01*
X97974736Y-78425745D01*
X97990446Y-78494982D01*
X97966231Y-78561721D01*
X97953787Y-78576211D01*
X96837500Y-79692498D01*
X96837500Y-79692500D01*
X96837500Y-90780949D01*
X97481853Y-91430725D01*
X100913007Y-91439861D01*
X100981074Y-91460045D01*
X101001766Y-91476766D01*
X101563095Y-92038095D01*
X101597121Y-92100407D01*
X101600000Y-92127190D01*
X101600000Y-93292809D01*
X101579998Y-93360930D01*
X101563095Y-93381904D01*
X96837500Y-98107498D01*
X96837500Y-104775001D01*
X97472498Y-105409999D01*
X97472500Y-105410000D01*
X99377500Y-105410000D01*
X100012500Y-104775000D01*
X100012500Y-104733438D01*
X100032502Y-104665317D01*
X100086158Y-104618824D01*
X100156432Y-104608720D01*
X100221012Y-104638214D01*
X100223386Y-104640323D01*
X100296838Y-104707284D01*
X100470796Y-104814993D01*
X100470803Y-104814996D01*
X100661577Y-104888903D01*
X100661575Y-104888903D01*
X100765000Y-104908236D01*
X100765000Y-104284379D01*
X100772007Y-104288425D01*
X100899174Y-104322500D01*
X101030826Y-104322500D01*
X101157993Y-104288425D01*
X101165000Y-104284379D01*
X101165000Y-104908236D01*
X101268423Y-104888903D01*
X101459196Y-104814996D01*
X101459203Y-104814993D01*
X101633161Y-104707284D01*
X101706614Y-104640323D01*
X101770431Y-104609212D01*
X101840937Y-104617542D01*
X101895748Y-104662668D01*
X101917460Y-104730263D01*
X101917500Y-104733438D01*
X101917500Y-109802810D01*
X101897498Y-109870931D01*
X101880595Y-109891905D01*
X101319405Y-110453095D01*
X101257093Y-110487121D01*
X101230310Y-110490000D01*
X96572190Y-110490000D01*
X96504069Y-110469998D01*
X96483095Y-110453095D01*
X95921905Y-109891905D01*
X95887879Y-109829593D01*
X95885000Y-109802810D01*
X95885000Y-68579997D01*
X97466384Y-68579997D01*
X97466384Y-68580002D01*
X97484802Y-68767010D01*
X97539354Y-68946846D01*
X97621544Y-69100611D01*
X98079454Y-68642701D01*
X98098852Y-68715095D01*
X98144930Y-68794905D01*
X98210095Y-68860070D01*
X98289905Y-68906148D01*
X98362297Y-68925545D01*
X97904387Y-69383454D01*
X98058155Y-69465646D01*
X98237989Y-69520197D01*
X98424997Y-69538616D01*
X98425003Y-69538616D01*
X98612010Y-69520197D01*
X98791843Y-69465646D01*
X98945612Y-69383454D01*
X98487703Y-68925545D01*
X98560095Y-68906148D01*
X98639905Y-68860070D01*
X98705070Y-68794905D01*
X98751148Y-68715095D01*
X98770545Y-68642703D01*
X99228454Y-69100612D01*
X99310646Y-68946843D01*
X99365197Y-68767010D01*
X99383616Y-68580002D01*
X99383616Y-68579997D01*
X100006384Y-68579997D01*
X100006384Y-68580002D01*
X100024802Y-68767010D01*
X100079354Y-68946846D01*
X100161544Y-69100611D01*
X100619454Y-68642701D01*
X100638852Y-68715095D01*
X100684930Y-68794905D01*
X100750095Y-68860070D01*
X100829905Y-68906148D01*
X100902297Y-68925545D01*
X100444387Y-69383454D01*
X100598155Y-69465646D01*
X100777989Y-69520197D01*
X100964997Y-69538616D01*
X100965003Y-69538616D01*
X101152010Y-69520197D01*
X101331843Y-69465646D01*
X101485612Y-69383454D01*
X101027703Y-68925545D01*
X101100095Y-68906148D01*
X101179905Y-68860070D01*
X101245070Y-68794905D01*
X101291148Y-68715095D01*
X101310545Y-68642703D01*
X101768454Y-69100612D01*
X101850646Y-68946843D01*
X101905197Y-68767010D01*
X101923616Y-68580002D01*
X101923616Y-68579997D01*
X101905197Y-68392989D01*
X101850646Y-68213155D01*
X101768454Y-68059387D01*
X101310545Y-68517296D01*
X101291148Y-68444905D01*
X101245070Y-68365095D01*
X101179905Y-68299930D01*
X101100095Y-68253852D01*
X101027702Y-68234454D01*
X101485611Y-67776544D01*
X101331846Y-67694354D01*
X101152010Y-67639802D01*
X100965003Y-67621384D01*
X100964997Y-67621384D01*
X100777989Y-67639802D01*
X100598153Y-67694354D01*
X100444387Y-67776543D01*
X100444386Y-67776544D01*
X100902296Y-68234454D01*
X100829905Y-68253852D01*
X100750095Y-68299930D01*
X100684930Y-68365095D01*
X100638852Y-68444905D01*
X100619454Y-68517296D01*
X100161544Y-68059386D01*
X100161543Y-68059387D01*
X100079354Y-68213153D01*
X100024802Y-68392989D01*
X100006384Y-68579997D01*
X99383616Y-68579997D01*
X99365197Y-68392989D01*
X99310646Y-68213155D01*
X99228454Y-68059387D01*
X98770545Y-68517296D01*
X98751148Y-68444905D01*
X98705070Y-68365095D01*
X98639905Y-68299930D01*
X98560095Y-68253852D01*
X98487702Y-68234454D01*
X98945611Y-67776544D01*
X98791846Y-67694354D01*
X98612010Y-67639802D01*
X98425003Y-67621384D01*
X98424997Y-67621384D01*
X98237989Y-67639802D01*
X98058153Y-67694354D01*
X97904387Y-67776543D01*
X97904386Y-67776544D01*
X98362296Y-68234454D01*
X98289905Y-68253852D01*
X98210095Y-68299930D01*
X98144930Y-68365095D01*
X98098852Y-68444905D01*
X98079454Y-68517296D01*
X97621544Y-68059386D01*
X97621543Y-68059387D01*
X97539354Y-68213153D01*
X97484802Y-68392989D01*
X97466384Y-68579997D01*
X95885000Y-68579997D01*
X95885000Y-67997190D01*
X95905002Y-67929069D01*
X95921905Y-67908095D01*
X96483095Y-67346905D01*
X96545407Y-67312879D01*
X96572190Y-67310000D01*
X122185310Y-67310000D01*
X122253431Y-67330002D01*
G37*
%TD.AperFunction*%
%TA.AperFunction,Conductor*%
G36*
X112728431Y-83522502D02*
G01*
X112749400Y-83539400D01*
X113665000Y-84455000D01*
X113755000Y-84455000D01*
X113823121Y-84475002D01*
X113869614Y-84528658D01*
X113881000Y-84581000D01*
X113881000Y-84890000D01*
X114588589Y-84890000D01*
X114562259Y-84935606D01*
X114535000Y-85037339D01*
X114535000Y-85142661D01*
X114562259Y-85244394D01*
X114588590Y-85290000D01*
X113881001Y-85290000D01*
X113881001Y-85599000D01*
X113860999Y-85667121D01*
X113807343Y-85713614D01*
X113755001Y-85725000D01*
X113664998Y-85725000D01*
X113030000Y-86359998D01*
X113030000Y-88582500D01*
X113447260Y-88916308D01*
X113487958Y-88974481D01*
X113490744Y-89045423D01*
X113454734Y-89106610D01*
X113405124Y-89135272D01*
X113219700Y-89191519D01*
X113036592Y-89289393D01*
X113031453Y-89293610D01*
X113521472Y-89783629D01*
X113470606Y-89797259D01*
X113379394Y-89849920D01*
X113304920Y-89924394D01*
X113252259Y-90015606D01*
X113238629Y-90066471D01*
X112748610Y-89576453D01*
X112744393Y-89581592D01*
X112646519Y-89764700D01*
X112586248Y-89963388D01*
X112565900Y-90169996D01*
X112565900Y-90170003D01*
X112586248Y-90376611D01*
X112646519Y-90575301D01*
X112744389Y-90758402D01*
X112748611Y-90763546D01*
X113238629Y-90273528D01*
X113252259Y-90324394D01*
X113304920Y-90415606D01*
X113379394Y-90490080D01*
X113470606Y-90542741D01*
X113521471Y-90556370D01*
X113031452Y-91046388D01*
X113036588Y-91050603D01*
X113036600Y-91050611D01*
X113219698Y-91148480D01*
X113418388Y-91208751D01*
X113624997Y-91229100D01*
X113625003Y-91229100D01*
X113831611Y-91208751D01*
X114030301Y-91148480D01*
X114213401Y-91050610D01*
X114218545Y-91046388D01*
X113728528Y-90556370D01*
X113779394Y-90542741D01*
X113870606Y-90490080D01*
X113945080Y-90415606D01*
X113997741Y-90324394D01*
X114011370Y-90273527D01*
X114507528Y-90769686D01*
X114554344Y-90780973D01*
X114603410Y-90832285D01*
X114617500Y-90890182D01*
X114617500Y-93259815D01*
X114597498Y-93327936D01*
X114543842Y-93374429D01*
X114506182Y-93381658D01*
X114011370Y-93876470D01*
X113997741Y-93825606D01*
X113945080Y-93734394D01*
X113870606Y-93659920D01*
X113779394Y-93607259D01*
X113728528Y-93593629D01*
X114218546Y-93103611D01*
X114213402Y-93099389D01*
X114030301Y-93001519D01*
X113831611Y-92941248D01*
X113625003Y-92920900D01*
X113624997Y-92920900D01*
X113418388Y-92941248D01*
X113219700Y-93001519D01*
X113036592Y-93099393D01*
X113031453Y-93103610D01*
X113521472Y-93593629D01*
X113470606Y-93607259D01*
X113379394Y-93659920D01*
X113304920Y-93734394D01*
X113252259Y-93825606D01*
X113238629Y-93876471D01*
X112748610Y-93386453D01*
X112744393Y-93391592D01*
X112646519Y-93574700D01*
X112586248Y-93773388D01*
X112565900Y-93979996D01*
X112565900Y-93980003D01*
X112586248Y-94186611D01*
X112646519Y-94385301D01*
X112744389Y-94568402D01*
X112748611Y-94573546D01*
X113238629Y-94083528D01*
X113252259Y-94134394D01*
X113304920Y-94225606D01*
X113379394Y-94300080D01*
X113470606Y-94352741D01*
X113521471Y-94366370D01*
X113031452Y-94856388D01*
X113036588Y-94860603D01*
X113036600Y-94860611D01*
X113219698Y-94958480D01*
X113418388Y-95018751D01*
X113624997Y-95039100D01*
X113625003Y-95039100D01*
X113831611Y-95018751D01*
X114030301Y-94958480D01*
X114213401Y-94860610D01*
X114218545Y-94856388D01*
X113728528Y-94366370D01*
X113779394Y-94352741D01*
X113870606Y-94300080D01*
X113945080Y-94225606D01*
X113997741Y-94134394D01*
X114011370Y-94083527D01*
X114507529Y-94579686D01*
X114554344Y-94590973D01*
X114603410Y-94642285D01*
X114617500Y-94700182D01*
X114617500Y-96837501D01*
X115252498Y-97472499D01*
X115252500Y-97472500D01*
X120280310Y-97472500D01*
X120348431Y-97492502D01*
X120369405Y-97509405D01*
X124423095Y-101563095D01*
X124457121Y-101625407D01*
X124460000Y-101652190D01*
X124460000Y-104140001D01*
X125094998Y-104774999D01*
X125095000Y-104775000D01*
X129487810Y-104775000D01*
X129555931Y-104795002D01*
X129576905Y-104811905D01*
X130138095Y-105373095D01*
X130172121Y-105435407D01*
X130175000Y-105462190D01*
X130175000Y-107897810D01*
X130154998Y-107965931D01*
X130138095Y-107986905D01*
X129576905Y-108548095D01*
X129514593Y-108582121D01*
X129487810Y-108585000D01*
X119749690Y-108585000D01*
X119681569Y-108564998D01*
X119660595Y-108548095D01*
X119099405Y-107986905D01*
X119065379Y-107924593D01*
X119062500Y-107897810D01*
X119062500Y-106772323D01*
X126811017Y-106772323D01*
X126830917Y-107012471D01*
X126890067Y-107246050D01*
X126890070Y-107246057D01*
X126986858Y-107466712D01*
X126986865Y-107466724D01*
X127107740Y-107651738D01*
X127727241Y-107032237D01*
X127789881Y-107140731D01*
X127901592Y-107252442D01*
X128010084Y-107315080D01*
X127392959Y-107932205D01*
X127472011Y-107993734D01*
X127472012Y-107993735D01*
X127683933Y-108108421D01*
X127683935Y-108108422D01*
X127911836Y-108186660D01*
X127911845Y-108186662D01*
X128149522Y-108226323D01*
X128390478Y-108226323D01*
X128628154Y-108186662D01*
X128628163Y-108186660D01*
X128856064Y-108108422D01*
X128856066Y-108108421D01*
X129067985Y-107993735D01*
X129067988Y-107993734D01*
X129147040Y-107932205D01*
X128529915Y-107315080D01*
X128638408Y-107252442D01*
X128750119Y-107140731D01*
X128812758Y-107032237D01*
X129432259Y-107651738D01*
X129553138Y-107466718D01*
X129649929Y-107246057D01*
X129649932Y-107246050D01*
X129709082Y-107012471D01*
X129728982Y-106772323D01*
X129709082Y-106532174D01*
X129649932Y-106298595D01*
X129649929Y-106298588D01*
X129553137Y-106077924D01*
X129432258Y-105892906D01*
X128812757Y-106512407D01*
X128750119Y-106403915D01*
X128638408Y-106292204D01*
X128529914Y-106229564D01*
X129147039Y-105612439D01*
X129067988Y-105550911D01*
X129067987Y-105550910D01*
X128856066Y-105436224D01*
X128856064Y-105436223D01*
X128628163Y-105357985D01*
X128628154Y-105357983D01*
X128390478Y-105318323D01*
X128149522Y-105318323D01*
X127911845Y-105357983D01*
X127911836Y-105357985D01*
X127683937Y-105436223D01*
X127472009Y-105550913D01*
X127472007Y-105550915D01*
X127392959Y-105612439D01*
X127392958Y-105612439D01*
X128010084Y-106229565D01*
X127901592Y-106292204D01*
X127789881Y-106403915D01*
X127727242Y-106512407D01*
X127107740Y-105892905D01*
X127107739Y-105892906D01*
X126986867Y-106077915D01*
X126986860Y-106077929D01*
X126890070Y-106298588D01*
X126890067Y-106298595D01*
X126830917Y-106532174D01*
X126811017Y-106772323D01*
X119062500Y-106772323D01*
X119062500Y-104457500D01*
X119062499Y-104457498D01*
X118427501Y-103822500D01*
X118427500Y-103822500D01*
X111494690Y-103822500D01*
X111426569Y-103802498D01*
X111405595Y-103785595D01*
X109445178Y-101825177D01*
X113476017Y-101825177D01*
X113495917Y-102065325D01*
X113555067Y-102298904D01*
X113555070Y-102298911D01*
X113651858Y-102519566D01*
X113651865Y-102519578D01*
X113772740Y-102704592D01*
X114392241Y-102085091D01*
X114454881Y-102193585D01*
X114566592Y-102305296D01*
X114675084Y-102367934D01*
X114057959Y-102985059D01*
X114137011Y-103046588D01*
X114137012Y-103046589D01*
X114348933Y-103161275D01*
X114348935Y-103161276D01*
X114576836Y-103239514D01*
X114576845Y-103239516D01*
X114814522Y-103279177D01*
X115055478Y-103279177D01*
X115293154Y-103239516D01*
X115293163Y-103239514D01*
X115521064Y-103161276D01*
X115521066Y-103161275D01*
X115732985Y-103046589D01*
X115732988Y-103046588D01*
X115812040Y-102985059D01*
X115194915Y-102367934D01*
X115303408Y-102305296D01*
X115415119Y-102193585D01*
X115477758Y-102085091D01*
X116097259Y-102704592D01*
X116218138Y-102519572D01*
X116314929Y-102298911D01*
X116314932Y-102298904D01*
X116374082Y-102065325D01*
X116393982Y-101825177D01*
X116374082Y-101585028D01*
X116314932Y-101351449D01*
X116314929Y-101351442D01*
X116218137Y-101130778D01*
X116097258Y-100945760D01*
X115477757Y-101565261D01*
X115415119Y-101456769D01*
X115303408Y-101345058D01*
X115194914Y-101282418D01*
X115812039Y-100665293D01*
X115732988Y-100603765D01*
X115732987Y-100603764D01*
X115521066Y-100489078D01*
X115521064Y-100489077D01*
X115293163Y-100410839D01*
X115293154Y-100410837D01*
X115055478Y-100371177D01*
X114814522Y-100371177D01*
X114576845Y-100410837D01*
X114576836Y-100410839D01*
X114348937Y-100489077D01*
X114137009Y-100603767D01*
X114137007Y-100603769D01*
X114057959Y-100665293D01*
X114057958Y-100665293D01*
X114675084Y-101282419D01*
X114566592Y-101345058D01*
X114454881Y-101456769D01*
X114392242Y-101565261D01*
X113772740Y-100945759D01*
X113772739Y-100945760D01*
X113651867Y-101130769D01*
X113651860Y-101130783D01*
X113555070Y-101351442D01*
X113555067Y-101351449D01*
X113495917Y-101585028D01*
X113476017Y-101825177D01*
X109445178Y-101825177D01*
X108267501Y-100647500D01*
X108267500Y-100647500D01*
X103822500Y-100647500D01*
X103822498Y-100647500D01*
X101917500Y-102552498D01*
X101917500Y-102911561D01*
X101897498Y-102979682D01*
X101843842Y-103026175D01*
X101773568Y-103036279D01*
X101708988Y-103006785D01*
X101706615Y-103004676D01*
X101633164Y-102937717D01*
X101459203Y-102830006D01*
X101459196Y-102830003D01*
X101268422Y-102756096D01*
X101268416Y-102756094D01*
X101165000Y-102736761D01*
X101165000Y-103360620D01*
X101157993Y-103356575D01*
X101030826Y-103322500D01*
X100899174Y-103322500D01*
X100772007Y-103356575D01*
X100765000Y-103360620D01*
X100765000Y-102736761D01*
X100764999Y-102736761D01*
X100661583Y-102756094D01*
X100661577Y-102756096D01*
X100470803Y-102830003D01*
X100470796Y-102830006D01*
X100296835Y-102937717D01*
X100223385Y-103004676D01*
X100159568Y-103035787D01*
X100089062Y-103027457D01*
X100034252Y-102982331D01*
X100012540Y-102914735D01*
X100012500Y-102911561D01*
X100012500Y-98159690D01*
X100032502Y-98091569D01*
X100049405Y-98070595D01*
X102515595Y-95604405D01*
X102577907Y-95570379D01*
X102604690Y-95567500D01*
X109537500Y-95567500D01*
X110490000Y-94615000D01*
X110490000Y-84189690D01*
X110510002Y-84121569D01*
X110526905Y-84100595D01*
X111088095Y-83539405D01*
X111150407Y-83505379D01*
X111177190Y-83502500D01*
X112660310Y-83502500D01*
X112728431Y-83522502D01*
G37*
%TD.AperFunction*%
%TD*%
%TA.AperFunction,NonConductor*%
G36*
X129873177Y-70504685D02*
G01*
X129893819Y-70521319D01*
X130456181Y-71083681D01*
X130489666Y-71145004D01*
X130492500Y-71171362D01*
X130492500Y-83451138D01*
X130472815Y-83518177D01*
X130456181Y-83538819D01*
X129893819Y-84101181D01*
X129832496Y-84134666D01*
X129806138Y-84137500D01*
X124193862Y-84137500D01*
X124126823Y-84117815D01*
X124106181Y-84101181D01*
X123543819Y-83538819D01*
X123510334Y-83477496D01*
X123507500Y-83451138D01*
X123507500Y-73509998D01*
X124990380Y-73509998D01*
X124990380Y-73510001D01*
X124999184Y-73633095D01*
X124999435Y-73640133D01*
X124999500Y-73641124D01*
X124999585Y-73641769D01*
X125000326Y-73649079D01*
X125010835Y-73796000D01*
X125010836Y-73796007D01*
X125071782Y-74076168D01*
X125071784Y-74076175D01*
X125133997Y-74242975D01*
X125171985Y-74344827D01*
X125171987Y-74344831D01*
X125309396Y-74596477D01*
X125309397Y-74596478D01*
X125309400Y-74596483D01*
X125481231Y-74826021D01*
X125481235Y-74826025D01*
X125481240Y-74826031D01*
X125683968Y-75028759D01*
X125683974Y-75028764D01*
X125683979Y-75028769D01*
X125913517Y-75200600D01*
X125913521Y-75200602D01*
X125913522Y-75200603D01*
X126165168Y-75338012D01*
X126165172Y-75338014D01*
X126165174Y-75338015D01*
X126433825Y-75438216D01*
X126573913Y-75468690D01*
X126713995Y-75499164D01*
X126713997Y-75499164D01*
X126714001Y-75499165D01*
X126860914Y-75509672D01*
X126868232Y-75510414D01*
X126868880Y-75510500D01*
X126868899Y-75510500D01*
X126869876Y-75510564D01*
X126876903Y-75510816D01*
X126999999Y-75519620D01*
X127000000Y-75519620D01*
X127000001Y-75519620D01*
X127123097Y-75510816D01*
X127130132Y-75510564D01*
X127131111Y-75510500D01*
X127131120Y-75510500D01*
X127131747Y-75510417D01*
X127139077Y-75509672D01*
X127285999Y-75499165D01*
X127566175Y-75438216D01*
X127834826Y-75338015D01*
X128086483Y-75200600D01*
X128316021Y-75028769D01*
X128518769Y-74826021D01*
X128690600Y-74596483D01*
X128828015Y-74344826D01*
X128928216Y-74076175D01*
X128989165Y-73795999D01*
X128999672Y-73649077D01*
X129000417Y-73641747D01*
X129000500Y-73641120D01*
X129000500Y-73641111D01*
X129000564Y-73640134D01*
X129000816Y-73633095D01*
X129009620Y-73510001D01*
X129009620Y-73509998D01*
X129000816Y-73386903D01*
X129000564Y-73379876D01*
X129000500Y-73378899D01*
X129000500Y-73378880D01*
X129000414Y-73378232D01*
X128999671Y-73370904D01*
X128989165Y-73224001D01*
X128928216Y-72943825D01*
X128828015Y-72675174D01*
X128690600Y-72423517D01*
X128518769Y-72193979D01*
X128518764Y-72193974D01*
X128518759Y-72193968D01*
X128316031Y-71991240D01*
X128316025Y-71991235D01*
X128316021Y-71991231D01*
X128086483Y-71819400D01*
X128086478Y-71819397D01*
X128086477Y-71819396D01*
X127834831Y-71681987D01*
X127834827Y-71681985D01*
X127732975Y-71643997D01*
X127566175Y-71581784D01*
X127566171Y-71581783D01*
X127566168Y-71581782D01*
X127286007Y-71520836D01*
X127286000Y-71520835D01*
X127139079Y-71510326D01*
X127131769Y-71509585D01*
X127131124Y-71509500D01*
X127130131Y-71509435D01*
X127123097Y-71509184D01*
X127000001Y-71500380D01*
X126999999Y-71500380D01*
X126876903Y-71509184D01*
X126869874Y-71509435D01*
X126868870Y-71509500D01*
X126868206Y-71509588D01*
X126860917Y-71510326D01*
X126713999Y-71520835D01*
X126713992Y-71520836D01*
X126433831Y-71581782D01*
X126433826Y-71581783D01*
X126433825Y-71581784D01*
X126368874Y-71606009D01*
X126165172Y-71681985D01*
X126165168Y-71681987D01*
X125913522Y-71819396D01*
X125913521Y-71819397D01*
X125683980Y-71991230D01*
X125683968Y-71991240D01*
X125481240Y-72193968D01*
X125481230Y-72193980D01*
X125309397Y-72423521D01*
X125309396Y-72423522D01*
X125171987Y-72675168D01*
X125171985Y-72675172D01*
X125071782Y-72943831D01*
X125010836Y-73223992D01*
X125010835Y-73223999D01*
X125000326Y-73370917D01*
X124999588Y-73378206D01*
X124999500Y-73378870D01*
X124999435Y-73379874D01*
X124999184Y-73386903D01*
X124990380Y-73509998D01*
X123507500Y-73509998D01*
X123507500Y-71171362D01*
X123527185Y-71104323D01*
X123543819Y-71083681D01*
X124106181Y-70521319D01*
X124167504Y-70487834D01*
X124193862Y-70485000D01*
X129806138Y-70485000D01*
X129873177Y-70504685D01*
G37*
%TD.AperFunction*%
%TA.AperFunction,Conductor*%
%TO.N,GND*%
G36*
X179111577Y-80030002D02*
G01*
X179158070Y-80083658D01*
X179166309Y-80140965D01*
X179601472Y-80576129D01*
X179550606Y-80589759D01*
X179459394Y-80642420D01*
X179384920Y-80716894D01*
X179332259Y-80808106D01*
X179318629Y-80858972D01*
X178886764Y-80427108D01*
X178800787Y-80587962D01*
X178745091Y-80771569D01*
X178726287Y-80962497D01*
X178726287Y-80962502D01*
X178745091Y-81153430D01*
X178800787Y-81337037D01*
X178886764Y-81497890D01*
X179318629Y-81066025D01*
X179332259Y-81116894D01*
X179384920Y-81208106D01*
X179459394Y-81282580D01*
X179550606Y-81335241D01*
X179601472Y-81348870D01*
X179169608Y-81780734D01*
X179330462Y-81866712D01*
X179514069Y-81922408D01*
X179704997Y-81941213D01*
X179705003Y-81941213D01*
X179895930Y-81922408D01*
X180079535Y-81866713D01*
X180240391Y-81780733D01*
X179808528Y-81348870D01*
X179859394Y-81335241D01*
X179950606Y-81282580D01*
X180025080Y-81208106D01*
X180077741Y-81116894D01*
X180091370Y-81066028D01*
X180523233Y-81497891D01*
X180609213Y-81337035D01*
X180664908Y-81153430D01*
X180683713Y-80962502D01*
X180683713Y-80962497D01*
X180664908Y-80771569D01*
X180609212Y-80587962D01*
X180523234Y-80427108D01*
X180091370Y-80858971D01*
X180077741Y-80808106D01*
X180025080Y-80716894D01*
X179950606Y-80642420D01*
X179859394Y-80589759D01*
X179808525Y-80576129D01*
X180243806Y-80140849D01*
X180251697Y-80084171D01*
X180297949Y-80030308D01*
X180365980Y-80010001D01*
X180366543Y-80010000D01*
X180605310Y-80010000D01*
X180673431Y-80030002D01*
X180694405Y-80046905D01*
X180938095Y-80290595D01*
X180972121Y-80352907D01*
X180975000Y-80379690D01*
X180975000Y-83450310D01*
X180954998Y-83518431D01*
X180938095Y-83539405D01*
X164501905Y-99975595D01*
X164439593Y-100009621D01*
X164412810Y-100012500D01*
X159754690Y-100012500D01*
X159686569Y-99992498D01*
X159665595Y-99975595D01*
X158432501Y-98742500D01*
X158432500Y-98742500D01*
X154992190Y-98742500D01*
X154992180Y-98742497D01*
X159378884Y-98742497D01*
X159378884Y-98742500D01*
X159397302Y-98929510D01*
X159451854Y-99109346D01*
X159534044Y-99263111D01*
X159991954Y-98805201D01*
X160011352Y-98877595D01*
X160057430Y-98957405D01*
X160122595Y-99022570D01*
X160202405Y-99068648D01*
X160274797Y-99088045D01*
X159816887Y-99545954D01*
X159970655Y-99628146D01*
X160150489Y-99682697D01*
X160337497Y-99701116D01*
X160337503Y-99701116D01*
X160524510Y-99682697D01*
X160704343Y-99628146D01*
X160858112Y-99545954D01*
X160400203Y-99088045D01*
X160472595Y-99068648D01*
X160552405Y-99022570D01*
X160617570Y-98957405D01*
X160663648Y-98877595D01*
X160683045Y-98805203D01*
X161140954Y-99263112D01*
X161223146Y-99109343D01*
X161277697Y-98929510D01*
X161296116Y-98742500D01*
X161296116Y-98742497D01*
X161277697Y-98555489D01*
X161223146Y-98375655D01*
X161140954Y-98221887D01*
X160683045Y-98679796D01*
X160663648Y-98607405D01*
X160617570Y-98527595D01*
X160552405Y-98462430D01*
X160472595Y-98416352D01*
X160400202Y-98396954D01*
X160858111Y-97939044D01*
X160704346Y-97856854D01*
X160524510Y-97802302D01*
X160337503Y-97783884D01*
X160337497Y-97783884D01*
X160150489Y-97802302D01*
X159970653Y-97856854D01*
X159816887Y-97939043D01*
X159816886Y-97939044D01*
X160274796Y-98396954D01*
X160202405Y-98416352D01*
X160122595Y-98462430D01*
X160057430Y-98527595D01*
X160011352Y-98607405D01*
X159991954Y-98679796D01*
X159534044Y-98221886D01*
X159534043Y-98221887D01*
X159451854Y-98375653D01*
X159397302Y-98555489D01*
X159378884Y-98742497D01*
X154992180Y-98742497D01*
X154924069Y-98722498D01*
X154903095Y-98705595D01*
X154341905Y-98144405D01*
X154307879Y-98082093D01*
X154305000Y-98055310D01*
X154305000Y-93027500D01*
X154304999Y-93027498D01*
X153670001Y-92392500D01*
X153670000Y-92392500D01*
X151817190Y-92392500D01*
X151749069Y-92372498D01*
X151728095Y-92355595D01*
X150177501Y-90805000D01*
X151447500Y-90805000D01*
X151447500Y-90805001D01*
X152082498Y-91439999D01*
X152082500Y-91440000D01*
X155522810Y-91440000D01*
X155590931Y-91460002D01*
X155611905Y-91476905D01*
X159384998Y-95249999D01*
X159385000Y-95250000D01*
X159558364Y-95250000D01*
X159626485Y-95270002D01*
X159672978Y-95323658D01*
X159683082Y-95393932D01*
X159653588Y-95458512D01*
X159638298Y-95473399D01*
X159619130Y-95489129D01*
X159493665Y-95642008D01*
X159400436Y-95816427D01*
X159400434Y-95816431D01*
X159343991Y-96002499D01*
X159343992Y-96002500D01*
X160014957Y-96002500D01*
X159983056Y-96057755D01*
X159957500Y-96153130D01*
X159957500Y-96251870D01*
X159983056Y-96347245D01*
X160014957Y-96402500D01*
X159343992Y-96402500D01*
X159400434Y-96588568D01*
X159400436Y-96588572D01*
X159493665Y-96762991D01*
X159619130Y-96915869D01*
X159772008Y-97041334D01*
X159946426Y-97134562D01*
X160132500Y-97191006D01*
X160132500Y-96520042D01*
X160187755Y-96551944D01*
X160283130Y-96577500D01*
X160381870Y-96577500D01*
X160477245Y-96551944D01*
X160532500Y-96520042D01*
X160532500Y-97191006D01*
X160718573Y-97134562D01*
X160892991Y-97041334D01*
X161045869Y-96915869D01*
X161171334Y-96762991D01*
X161264563Y-96588572D01*
X161264565Y-96588568D01*
X161321008Y-96402500D01*
X160650043Y-96402500D01*
X160681944Y-96347245D01*
X160707500Y-96251870D01*
X160707500Y-96153130D01*
X160681944Y-96057755D01*
X160650043Y-96002500D01*
X161321008Y-96002500D01*
X161321008Y-96002499D01*
X161264565Y-95816431D01*
X161264563Y-95816427D01*
X161171334Y-95642008D01*
X161045869Y-95489129D01*
X161026702Y-95473399D01*
X160986733Y-95414721D01*
X160984833Y-95343750D01*
X161021604Y-95283018D01*
X161085373Y-95251807D01*
X161106636Y-95250000D01*
X164147500Y-95250000D01*
X164782500Y-94615000D01*
X164782500Y-93662496D01*
X166863400Y-93662496D01*
X166863400Y-93662503D01*
X166883748Y-93869111D01*
X166944019Y-94067801D01*
X167041889Y-94250902D01*
X167046111Y-94256046D01*
X167536129Y-93766028D01*
X167549759Y-93816894D01*
X167602420Y-93908106D01*
X167676894Y-93982580D01*
X167768106Y-94035241D01*
X167818971Y-94048870D01*
X167328952Y-94538888D01*
X167334088Y-94543103D01*
X167334100Y-94543111D01*
X167517198Y-94640980D01*
X167715888Y-94701251D01*
X167922497Y-94721600D01*
X167922503Y-94721600D01*
X168129111Y-94701251D01*
X168327801Y-94640980D01*
X168510901Y-94543110D01*
X168516045Y-94538888D01*
X168026028Y-94048870D01*
X168076894Y-94035241D01*
X168168106Y-93982580D01*
X168242580Y-93908106D01*
X168295241Y-93816894D01*
X168308870Y-93766027D01*
X168798888Y-94256045D01*
X168803110Y-94250901D01*
X168900980Y-94067801D01*
X168961251Y-93869111D01*
X168981600Y-93662503D01*
X168981600Y-93662496D01*
X168961251Y-93455888D01*
X168900980Y-93257198D01*
X168803111Y-93074100D01*
X168803103Y-93074088D01*
X168798888Y-93068952D01*
X168308870Y-93558970D01*
X168295241Y-93508106D01*
X168242580Y-93416894D01*
X168168106Y-93342420D01*
X168076894Y-93289759D01*
X168026028Y-93276129D01*
X168516046Y-92786111D01*
X168510902Y-92781889D01*
X168327801Y-92684019D01*
X168129111Y-92623748D01*
X167922503Y-92603400D01*
X167922497Y-92603400D01*
X167715888Y-92623748D01*
X167517200Y-92684019D01*
X167334092Y-92781893D01*
X167328953Y-92786110D01*
X167818972Y-93276129D01*
X167768106Y-93289759D01*
X167676894Y-93342420D01*
X167602420Y-93416894D01*
X167549759Y-93508106D01*
X167536129Y-93558971D01*
X167046110Y-93068953D01*
X167041893Y-93074092D01*
X166944019Y-93257200D01*
X166883748Y-93455888D01*
X166863400Y-93662496D01*
X164782500Y-93662496D01*
X164782500Y-89852496D01*
X166863400Y-89852496D01*
X166863400Y-89852503D01*
X166883748Y-90059111D01*
X166944019Y-90257801D01*
X167041889Y-90440902D01*
X167046111Y-90446046D01*
X167536129Y-89956028D01*
X167549759Y-90006894D01*
X167602420Y-90098106D01*
X167676894Y-90172580D01*
X167768106Y-90225241D01*
X167818971Y-90238870D01*
X167328952Y-90728888D01*
X167334088Y-90733103D01*
X167334100Y-90733111D01*
X167517198Y-90830980D01*
X167715888Y-90891251D01*
X167922497Y-90911600D01*
X167922503Y-90911600D01*
X168129111Y-90891251D01*
X168327801Y-90830980D01*
X168510901Y-90733110D01*
X168516045Y-90728888D01*
X168026028Y-90238870D01*
X168076894Y-90225241D01*
X168168106Y-90172580D01*
X168242580Y-90098106D01*
X168295241Y-90006894D01*
X168308870Y-89956027D01*
X168798888Y-90446045D01*
X168803110Y-90440901D01*
X168900980Y-90257801D01*
X168961251Y-90059111D01*
X168981600Y-89852503D01*
X168981600Y-89852496D01*
X168961251Y-89645888D01*
X168900980Y-89447198D01*
X168803111Y-89264100D01*
X168803103Y-89264088D01*
X168798888Y-89258952D01*
X168308870Y-89748970D01*
X168295241Y-89698106D01*
X168242580Y-89606894D01*
X168168106Y-89532420D01*
X168076894Y-89479759D01*
X168026028Y-89466129D01*
X168516046Y-88976111D01*
X168510902Y-88971889D01*
X168327801Y-88874019D01*
X168129111Y-88813748D01*
X167922503Y-88793400D01*
X167922497Y-88793400D01*
X167715888Y-88813748D01*
X167517200Y-88874019D01*
X167334092Y-88971893D01*
X167328953Y-88976110D01*
X167818972Y-89466129D01*
X167768106Y-89479759D01*
X167676894Y-89532420D01*
X167602420Y-89606894D01*
X167549759Y-89698106D01*
X167536129Y-89748971D01*
X167046110Y-89258953D01*
X167041893Y-89264092D01*
X166944019Y-89447200D01*
X166883748Y-89645888D01*
X166863400Y-89852496D01*
X164782500Y-89852496D01*
X164782500Y-88900000D01*
X164782499Y-88899998D01*
X164147501Y-88265000D01*
X164147500Y-88265000D01*
X157532190Y-88265000D01*
X157464069Y-88244998D01*
X157443095Y-88228095D01*
X156564405Y-87349405D01*
X156530379Y-87287093D01*
X156527500Y-87260310D01*
X156527500Y-85142190D01*
X156547502Y-85074069D01*
X156564405Y-85053095D01*
X157125595Y-84491905D01*
X157187907Y-84457879D01*
X157214690Y-84455000D01*
X158697810Y-84455000D01*
X158765931Y-84475002D01*
X158786900Y-84491900D01*
X159385000Y-85090000D01*
X159489291Y-85090000D01*
X159557412Y-85110002D01*
X159603905Y-85163658D01*
X159614009Y-85233932D01*
X159586691Y-85295933D01*
X159456889Y-85454098D01*
X159359019Y-85637198D01*
X159298748Y-85835888D01*
X159298097Y-85842498D01*
X159298098Y-85842500D01*
X159991089Y-85842500D01*
X159964759Y-85888106D01*
X159937500Y-85989839D01*
X159937500Y-86095161D01*
X159964759Y-86196894D01*
X159991090Y-86242500D01*
X159298098Y-86242500D01*
X159298097Y-86242501D01*
X159298748Y-86249111D01*
X159359019Y-86447801D01*
X159456889Y-86630901D01*
X159588603Y-86791396D01*
X159749098Y-86923110D01*
X159932198Y-87020980D01*
X160130888Y-87081251D01*
X160137498Y-87081902D01*
X160137500Y-87081901D01*
X160137500Y-86388910D01*
X160183106Y-86415241D01*
X160284839Y-86442500D01*
X160390161Y-86442500D01*
X160491894Y-86415241D01*
X160537500Y-86388910D01*
X160537500Y-87081901D01*
X160537501Y-87081902D01*
X160544111Y-87081251D01*
X160742801Y-87020980D01*
X160925901Y-86923110D01*
X161086396Y-86791396D01*
X161218110Y-86630901D01*
X161315980Y-86447801D01*
X161376251Y-86249111D01*
X161376902Y-86242501D01*
X161376902Y-86242500D01*
X160683910Y-86242500D01*
X160710241Y-86196894D01*
X160737500Y-86095161D01*
X160737500Y-85989839D01*
X160710241Y-85888106D01*
X160683911Y-85842500D01*
X161376902Y-85842500D01*
X161376902Y-85842498D01*
X161376251Y-85835888D01*
X161315980Y-85637198D01*
X161218110Y-85454098D01*
X161088309Y-85295933D01*
X161060556Y-85230585D01*
X161072538Y-85160607D01*
X161120451Y-85108216D01*
X161185709Y-85090000D01*
X161290000Y-85090000D01*
X164412810Y-85090000D01*
X164480931Y-85110002D01*
X164501905Y-85126905D01*
X167004998Y-87629999D01*
X167005000Y-87630000D01*
X168910000Y-87630000D01*
X169545000Y-86995000D01*
X169545000Y-85459690D01*
X169565002Y-85391569D01*
X169581905Y-85370595D01*
X170143095Y-84809405D01*
X170205407Y-84775379D01*
X170232190Y-84772500D01*
X175260000Y-84772500D01*
X175895000Y-84137500D01*
X175895000Y-80697190D01*
X175915002Y-80629069D01*
X175931905Y-80608095D01*
X176493095Y-80046905D01*
X176555407Y-80012879D01*
X176582190Y-80010000D01*
X179043456Y-80010000D01*
X179111577Y-80030002D01*
G37*
%TD.AperFunction*%
%TD*%
M02*
