%TF.GenerationSoftware,KiCad,Pcbnew,8.0.4*%
%TF.CreationDate,2026-01-19T09:08:16+07:00*%
%TF.ProjectId,CTL-4.3,43544c2d-342e-4332-9e6b-696361645f70,rev?*%
%TF.SameCoordinates,Original*%
%TF.FileFunction,Legend,Top*%
%TF.FilePolarity,Positive*%
%FSLAX46Y46*%
G04 Gerber Fmt 4.6, Leading zero omitted, Abs format (unit mm)*
G04 Created by KiCad (PCBNEW 8.0.4) date 2026-01-19 09:08:16*
%MOMM*%
%LPD*%
G01*
G04 APERTURE LIST*
%ADD10C,0.317500*%
%ADD11C,0.100000*%
%ADD12C,0.200000*%
%ADD13C,0.150000*%
%ADD14C,0.120000*%
G04 APERTURE END LIST*
D10*
X151765000Y-44608750D02*
G75*
G02*
X151447500Y-44608750I-158750J0D01*
G01*
X151447500Y-44608750D02*
G75*
G02*
X151765000Y-44608750I158750J0D01*
G01*
X184626250Y-44608750D02*
G75*
G02*
X184308750Y-44608750I-158750J0D01*
G01*
X184308750Y-44608750D02*
G75*
G02*
X184626250Y-44608750I158750J0D01*
G01*
X150812500Y-44608750D02*
G75*
G02*
X150495000Y-44608750I-158750J0D01*
G01*
X150495000Y-44608750D02*
G75*
G02*
X150812500Y-44608750I158750J0D01*
G01*
X183673750Y-44608750D02*
G75*
G02*
X183356250Y-44608750I-158750J0D01*
G01*
X183356250Y-44608750D02*
G75*
G02*
X183673750Y-44608750I158750J0D01*
G01*
X182721250Y-44608750D02*
G75*
G02*
X182403750Y-44608750I-158750J0D01*
G01*
X182403750Y-44608750D02*
G75*
G02*
X182721250Y-44608750I158750J0D01*
G01*
X118903750Y-44608750D02*
G75*
G02*
X118586250Y-44608750I-158750J0D01*
G01*
X118586250Y-44608750D02*
G75*
G02*
X118903750Y-44608750I158750J0D01*
G01*
D11*
G36*
X112856870Y-24506657D02*
G01*
X112583284Y-24506657D01*
X112583284Y-24367692D01*
X113278726Y-24367692D01*
X113278726Y-24506657D01*
X113004520Y-24506657D01*
X113004520Y-25400000D01*
X112856870Y-25400000D01*
X112856870Y-24506657D01*
G37*
G36*
X114316307Y-24566213D02*
G01*
X114161523Y-24566213D01*
X114139829Y-24506541D01*
X114125851Y-24492388D01*
X114065539Y-24468542D01*
X114039308Y-24466953D01*
X113978705Y-24480998D01*
X113929967Y-24523136D01*
X113904066Y-24566833D01*
X113881724Y-24630034D01*
X113868003Y-24697994D01*
X113860737Y-24766556D01*
X113858029Y-24832081D01*
X113857848Y-24855309D01*
X113859462Y-24926322D01*
X113864304Y-24990706D01*
X113874032Y-25057440D01*
X113890531Y-25122657D01*
X113903756Y-25157432D01*
X113936853Y-25212067D01*
X113987685Y-25250918D01*
X114039308Y-25261035D01*
X114101031Y-25248434D01*
X114129573Y-25228775D01*
X114160962Y-25173862D01*
X114165245Y-25141923D01*
X114319719Y-25141923D01*
X114306829Y-25205423D01*
X114281917Y-25266540D01*
X114245857Y-25317721D01*
X114232866Y-25331138D01*
X114178736Y-25370343D01*
X114115296Y-25393275D01*
X114049545Y-25400000D01*
X113979280Y-25393157D01*
X113916407Y-25372629D01*
X113860926Y-25338416D01*
X113812837Y-25290518D01*
X113788676Y-25257003D01*
X113757578Y-25199028D01*
X113732915Y-25132351D01*
X113717277Y-25070139D01*
X113706107Y-25001884D01*
X113699404Y-24927585D01*
X113697260Y-24863796D01*
X113697170Y-24847244D01*
X113699465Y-24774418D01*
X113706349Y-24706575D01*
X113717822Y-24643714D01*
X113737647Y-24574860D01*
X113764081Y-24513181D01*
X113791158Y-24467263D01*
X113835589Y-24412995D01*
X113886373Y-24372056D01*
X113943510Y-24344446D01*
X114007000Y-24330165D01*
X114046132Y-24327988D01*
X114113193Y-24334228D01*
X114177512Y-24355507D01*
X114231935Y-24391887D01*
X114274513Y-24441176D01*
X114302869Y-24501607D01*
X114316307Y-24566213D01*
G37*
G36*
X114710246Y-24367692D02*
G01*
X114857896Y-24367692D01*
X114857896Y-24796373D01*
X115277270Y-24367692D01*
X115476101Y-24367692D01*
X114980420Y-24856239D01*
X115511463Y-25400000D01*
X115303946Y-25400000D01*
X114857896Y-24925411D01*
X114857896Y-25400000D01*
X114710246Y-25400000D01*
X114710246Y-24367692D01*
G37*
G36*
X19684587Y-43305067D02*
G01*
X19580860Y-43407554D01*
X19580860Y-43989219D01*
X19684587Y-44091705D01*
X19895018Y-44091705D01*
X19895018Y-43956463D01*
X19744391Y-43956463D01*
X19700220Y-43912540D01*
X19700220Y-43484232D01*
X19744391Y-43440310D01*
X20412909Y-43440310D01*
X20457080Y-43484232D01*
X20457080Y-43912540D01*
X20412909Y-43956463D01*
X20262033Y-43956463D01*
X20262033Y-44091705D01*
X20473954Y-44091705D01*
X20576440Y-43989219D01*
X20576440Y-43407554D01*
X20473954Y-43305067D01*
X19684587Y-43305067D01*
G37*
G36*
X20473954Y-44364175D02*
G01*
X19580860Y-44364175D01*
X19580860Y-44499169D01*
X20412909Y-44499169D01*
X20457080Y-44543340D01*
X20457080Y-44971400D01*
X20412909Y-45017059D01*
X19580860Y-45017059D01*
X19580860Y-45152053D01*
X20473954Y-45152053D01*
X20576440Y-45048326D01*
X20576440Y-44466413D01*
X20473954Y-44364175D01*
G37*
G36*
X19987579Y-45437427D02*
G01*
X19580860Y-45437427D01*
X19580860Y-46120338D01*
X19700220Y-46120338D01*
X19700220Y-45572669D01*
X19931993Y-45572669D01*
X19977653Y-45616840D01*
X19977653Y-46017851D01*
X20080139Y-46120338D01*
X20473954Y-46120338D01*
X20576440Y-46017851D01*
X20576440Y-45539913D01*
X20473954Y-45437427D01*
X20273448Y-45437427D01*
X20273448Y-45572669D01*
X20412909Y-45572669D01*
X20457080Y-45616840D01*
X20457080Y-45941173D01*
X20412909Y-45985095D01*
X20141184Y-45985095D01*
X20095772Y-45941173D01*
X20095772Y-45539913D01*
X19987579Y-45437427D01*
G37*
G36*
X112856870Y-21331657D02*
G01*
X112583284Y-21331657D01*
X112583284Y-21192692D01*
X113278726Y-21192692D01*
X113278726Y-21331657D01*
X113004520Y-21331657D01*
X113004520Y-22225000D01*
X112856870Y-22225000D01*
X112856870Y-21331657D01*
G37*
G36*
X113887245Y-21196464D02*
G01*
X113950426Y-21207778D01*
X114010169Y-21226634D01*
X114066474Y-21253034D01*
X114119341Y-21286976D01*
X114168770Y-21328460D01*
X114187578Y-21347166D01*
X114230382Y-21396971D01*
X114265931Y-21450031D01*
X114294225Y-21506348D01*
X114315265Y-21565922D01*
X114329049Y-21628752D01*
X114335578Y-21694838D01*
X114336159Y-21722184D01*
X114332811Y-21792075D01*
X114322770Y-21857316D01*
X114306033Y-21917907D01*
X114277113Y-21984479D01*
X114238553Y-22044355D01*
X114199055Y-22089137D01*
X114144217Y-22135309D01*
X114082531Y-22171928D01*
X114013996Y-22198995D01*
X113951653Y-22214253D01*
X113884553Y-22222877D01*
X113827450Y-22225000D01*
X113706786Y-22225000D01*
X113706786Y-22086035D01*
X113854436Y-22086035D01*
X113922639Y-22078125D01*
X113983940Y-22058739D01*
X114038339Y-22027875D01*
X114085837Y-21985534D01*
X114124377Y-21933810D01*
X114151907Y-21875107D01*
X114168424Y-21809425D01*
X114173844Y-21746227D01*
X114173930Y-21736763D01*
X114169774Y-21668765D01*
X114157306Y-21605636D01*
X114132879Y-21539449D01*
X114097595Y-21479622D01*
X114087077Y-21465658D01*
X114039967Y-21415873D01*
X113985491Y-21376944D01*
X113923647Y-21348872D01*
X113863490Y-21333215D01*
X113854436Y-21331657D01*
X113854436Y-22086035D01*
X113706786Y-22086035D01*
X113706786Y-21192692D01*
X113820625Y-21192692D01*
X113887245Y-21196464D01*
G37*
G36*
X114807645Y-22086035D02*
G01*
X114994068Y-22086035D01*
X114994068Y-21331657D01*
X114839594Y-21331657D01*
X114839594Y-21192692D01*
X115298983Y-21192692D01*
X115298983Y-21331657D01*
X115143579Y-21331657D01*
X115143579Y-22086035D01*
X115330933Y-22086035D01*
X115330933Y-22225000D01*
X114807645Y-22225000D01*
X114807645Y-22086035D01*
G37*
D12*
G36*
X98164973Y-44381002D02*
G01*
X98164973Y-45375776D01*
X98030971Y-45509777D01*
X97425483Y-45509777D01*
X97291482Y-45375776D01*
X97291482Y-44463822D01*
X97480387Y-44463822D01*
X97480387Y-45291405D01*
X97529707Y-45340725D01*
X97927058Y-45340725D01*
X97976068Y-45291405D01*
X97976068Y-44463822D01*
X97927058Y-44414502D01*
X97529707Y-44414502D01*
X97480387Y-44463822D01*
X97291482Y-44463822D01*
X97291482Y-44381002D01*
X97425483Y-44245450D01*
X98030971Y-44245450D01*
X98164973Y-44381002D01*
G37*
G36*
X96998664Y-44381002D02*
G01*
X96998664Y-45375776D01*
X96864663Y-45509777D01*
X96259175Y-45509777D01*
X96125174Y-45375776D01*
X96125174Y-44463822D01*
X96314078Y-44463822D01*
X96314078Y-45291405D01*
X96363398Y-45340725D01*
X96760750Y-45340725D01*
X96809759Y-45291405D01*
X96809759Y-44463822D01*
X96760750Y-44414502D01*
X96363398Y-44414502D01*
X96314078Y-44463822D01*
X96125174Y-44463822D01*
X96125174Y-44381002D01*
X96259175Y-44245450D01*
X96864663Y-44245450D01*
X96998664Y-44381002D01*
G37*
D13*
G36*
X117580215Y-21196464D02*
G01*
X117643396Y-21207778D01*
X117703139Y-21226634D01*
X117759444Y-21253034D01*
X117812311Y-21286976D01*
X117861740Y-21328460D01*
X117880549Y-21347166D01*
X117923353Y-21396971D01*
X117958902Y-21450031D01*
X117987196Y-21506348D01*
X118008235Y-21565922D01*
X118022019Y-21628752D01*
X118028549Y-21694838D01*
X118029129Y-21722184D01*
X118025782Y-21792075D01*
X118015740Y-21857316D01*
X117999004Y-21917907D01*
X117970083Y-21984479D01*
X117931523Y-22044355D01*
X117892026Y-22089137D01*
X117837188Y-22135309D01*
X117775501Y-22171928D01*
X117706967Y-22198995D01*
X117644623Y-22214253D01*
X117577524Y-22222877D01*
X117520420Y-22225000D01*
X117399757Y-22225000D01*
X117399757Y-22086035D01*
X117547406Y-22086035D01*
X117615609Y-22078125D01*
X117676910Y-22058739D01*
X117731309Y-22027875D01*
X117778807Y-21985534D01*
X117817348Y-21933810D01*
X117844877Y-21875107D01*
X117861395Y-21809425D01*
X117866814Y-21746227D01*
X117866900Y-21736763D01*
X117862744Y-21668765D01*
X117850276Y-21605636D01*
X117825849Y-21539449D01*
X117790565Y-21479622D01*
X117780048Y-21465658D01*
X117732938Y-21415873D01*
X117678461Y-21376944D01*
X117616617Y-21348872D01*
X117556461Y-21333215D01*
X117547406Y-21331657D01*
X117547406Y-22086035D01*
X117399757Y-22086035D01*
X117399757Y-21192692D01*
X117513596Y-21192692D01*
X117580215Y-21196464D01*
G37*
G36*
X118688900Y-21331657D02*
G01*
X118415314Y-21331657D01*
X118415314Y-21192692D01*
X119110756Y-21192692D01*
X119110756Y-21331657D01*
X118836549Y-21331657D01*
X118836549Y-22225000D01*
X118688900Y-22225000D01*
X118688900Y-21331657D01*
G37*
G36*
X119864803Y-21195266D02*
G01*
X119932227Y-21204774D01*
X119998486Y-21224219D01*
X120059262Y-21257032D01*
X120070789Y-21265897D01*
X120114123Y-21313012D01*
X120143275Y-21372003D01*
X120157282Y-21434409D01*
X120160434Y-21487371D01*
X120155132Y-21553729D01*
X120137056Y-21616995D01*
X120106151Y-21670072D01*
X120058415Y-21715874D01*
X120002320Y-21746362D01*
X119947644Y-21763129D01*
X120214096Y-22225000D01*
X120036358Y-22225000D01*
X119795652Y-21788254D01*
X119669715Y-21788254D01*
X119669715Y-22225000D01*
X119522376Y-22225000D01*
X119522376Y-21649290D01*
X119669715Y-21649290D01*
X119783555Y-21649290D01*
X119846107Y-21645564D01*
X119907176Y-21631256D01*
X119946404Y-21611137D01*
X119987116Y-21563290D01*
X120000634Y-21500827D01*
X120000687Y-21496057D01*
X119992086Y-21433625D01*
X119957888Y-21378430D01*
X119948575Y-21370741D01*
X119890687Y-21344023D01*
X119827960Y-21333527D01*
X119780143Y-21331657D01*
X119669715Y-21331657D01*
X119669715Y-21649290D01*
X119522376Y-21649290D01*
X119522376Y-21192692D01*
X119799995Y-21192692D01*
X119864803Y-21195266D01*
G37*
G36*
X117725744Y-19607766D02*
G01*
X117793167Y-19617274D01*
X117859427Y-19636719D01*
X117920203Y-19669532D01*
X117931730Y-19678397D01*
X117975064Y-19725512D01*
X118004216Y-19784503D01*
X118018223Y-19846909D01*
X118021374Y-19899871D01*
X118016073Y-19966229D01*
X117997997Y-20029495D01*
X117967091Y-20082572D01*
X117919356Y-20128374D01*
X117863260Y-20158862D01*
X117808585Y-20175629D01*
X118075037Y-20637500D01*
X117897299Y-20637500D01*
X117656593Y-20200754D01*
X117530656Y-20200754D01*
X117530656Y-20637500D01*
X117383317Y-20637500D01*
X117383317Y-20061790D01*
X117530656Y-20061790D01*
X117644495Y-20061790D01*
X117707048Y-20058064D01*
X117768116Y-20043756D01*
X117807344Y-20023637D01*
X117848056Y-19975790D01*
X117861574Y-19913327D01*
X117861627Y-19908557D01*
X117853027Y-19846125D01*
X117818828Y-19790930D01*
X117809516Y-19783241D01*
X117751628Y-19756523D01*
X117688901Y-19746027D01*
X117641083Y-19744157D01*
X117530656Y-19744157D01*
X117530656Y-20061790D01*
X117383317Y-20061790D01*
X117383317Y-19605192D01*
X117660935Y-19605192D01*
X117725744Y-19607766D01*
G37*
G36*
X118688900Y-19744157D02*
G01*
X118415314Y-19744157D01*
X118415314Y-19605192D01*
X119110756Y-19605192D01*
X119110756Y-19744157D01*
X118836549Y-19744157D01*
X118836549Y-20637500D01*
X118688900Y-20637500D01*
X118688900Y-19744157D01*
G37*
G36*
X119988589Y-19823565D02*
G01*
X119969542Y-19763224D01*
X119943922Y-19736092D01*
X119884980Y-19709674D01*
X119833185Y-19704453D01*
X119770372Y-19713758D01*
X119719656Y-19741675D01*
X119682361Y-19792438D01*
X119674989Y-19834732D01*
X119693022Y-19895443D01*
X119713142Y-19920034D01*
X119763446Y-19957742D01*
X119818442Y-19988601D01*
X119854898Y-20006576D01*
X119913834Y-20035114D01*
X119968539Y-20064679D01*
X120021789Y-20099085D01*
X120069878Y-20138581D01*
X120102118Y-20174388D01*
X120135575Y-20232636D01*
X120152679Y-20293540D01*
X120157021Y-20348714D01*
X120151205Y-20411547D01*
X120130758Y-20474123D01*
X120095590Y-20528111D01*
X120063965Y-20559332D01*
X120006692Y-20597118D01*
X119947213Y-20620324D01*
X119879669Y-20633759D01*
X119813953Y-20637500D01*
X119745653Y-20632750D01*
X119678688Y-20616051D01*
X119622175Y-20587330D01*
X119590307Y-20561503D01*
X119548408Y-20507057D01*
X119522922Y-20446504D01*
X119509991Y-20383492D01*
X119506556Y-20339719D01*
X119666303Y-20339719D01*
X119666303Y-20344682D01*
X119676152Y-20409666D01*
X119705697Y-20458211D01*
X119760081Y-20490817D01*
X119815814Y-20498535D01*
X119880046Y-20490223D01*
X119936612Y-20462869D01*
X119946404Y-20455109D01*
X119984557Y-20406099D01*
X119997274Y-20345922D01*
X119983704Y-20282382D01*
X119962533Y-20251005D01*
X119912542Y-20211853D01*
X119852843Y-20177490D01*
X119790689Y-20146161D01*
X119717484Y-20109249D01*
X119659609Y-20077260D01*
X119607352Y-20037595D01*
X119567043Y-19993238D01*
X119534709Y-19934614D01*
X119519493Y-19874411D01*
X119517103Y-19836593D01*
X119524243Y-19772051D01*
X119548925Y-19708972D01*
X119591236Y-19654980D01*
X119607368Y-19640554D01*
X119662607Y-19604267D01*
X119726778Y-19579856D01*
X119791317Y-19568127D01*
X119844352Y-19565488D01*
X119907048Y-19569773D01*
X119969889Y-19584835D01*
X120030157Y-19614291D01*
X120056520Y-19634040D01*
X120099826Y-19682004D01*
X120129318Y-19740207D01*
X120144051Y-19801343D01*
X120146475Y-19823565D01*
X119988589Y-19823565D01*
G37*
G36*
X117668070Y-23256642D02*
G01*
X118039675Y-23256642D01*
X118039675Y-23749531D01*
X117976262Y-23770504D01*
X117914692Y-23788199D01*
X117873725Y-23797921D01*
X117811570Y-23808385D01*
X117746237Y-23812500D01*
X117676641Y-23807483D01*
X117613021Y-23792434D01*
X117555377Y-23767353D01*
X117503709Y-23732238D01*
X117458016Y-23687091D01*
X117444114Y-23669813D01*
X117407218Y-23612260D01*
X117377956Y-23546615D01*
X117359402Y-23485730D01*
X117346150Y-23419225D01*
X117338198Y-23347102D01*
X117335548Y-23269360D01*
X117338259Y-23194277D01*
X117346392Y-23124510D01*
X117359948Y-23060060D01*
X117378926Y-23000925D01*
X117408856Y-22936982D01*
X117446595Y-22880693D01*
X117491244Y-22833046D01*
X117541673Y-22795256D01*
X117597881Y-22767324D01*
X117659869Y-22749251D01*
X117727637Y-22741036D01*
X117751510Y-22740488D01*
X117813775Y-22745077D01*
X117875534Y-22760937D01*
X117934443Y-22791469D01*
X117944137Y-22798494D01*
X117989854Y-22843614D01*
X118022082Y-22899216D01*
X118039675Y-22958861D01*
X117884891Y-22958861D01*
X117842884Y-22910038D01*
X117828747Y-22900235D01*
X117769694Y-22880183D01*
X117754612Y-22879453D01*
X117687358Y-22887255D01*
X117624315Y-22914227D01*
X117573570Y-22960465D01*
X117560744Y-22978093D01*
X117532110Y-23033403D01*
X117511657Y-23100695D01*
X117500472Y-23169403D01*
X117495870Y-23235597D01*
X117495295Y-23271221D01*
X117497530Y-23342474D01*
X117504237Y-23406880D01*
X117517712Y-23473364D01*
X117540564Y-23537931D01*
X117558883Y-23572103D01*
X117599660Y-23621135D01*
X117656306Y-23656795D01*
X117717491Y-23671950D01*
X117747788Y-23673535D01*
X117811634Y-23666257D01*
X117813858Y-23665780D01*
X117873760Y-23648552D01*
X117892026Y-23641896D01*
X117892026Y-23395606D01*
X117668070Y-23395606D01*
X117668070Y-23256642D01*
G37*
G36*
X118419036Y-22780192D02*
G01*
X118596774Y-22780192D01*
X118964967Y-23550390D01*
X118964967Y-22780192D01*
X119105483Y-22780192D01*
X119105483Y-23812500D01*
X118934569Y-23812500D01*
X118559551Y-23035167D01*
X118559551Y-23812500D01*
X118419036Y-23812500D01*
X118419036Y-22780192D01*
G37*
G36*
X119719274Y-22783964D02*
G01*
X119782456Y-22795278D01*
X119842199Y-22814134D01*
X119898504Y-22840534D01*
X119951371Y-22874476D01*
X120000799Y-22915960D01*
X120019608Y-22934666D01*
X120062412Y-22984471D01*
X120097961Y-23037531D01*
X120126255Y-23093848D01*
X120147294Y-23153422D01*
X120161078Y-23216252D01*
X120167608Y-23282338D01*
X120168188Y-23309684D01*
X120164841Y-23379575D01*
X120154799Y-23444816D01*
X120138063Y-23505407D01*
X120109143Y-23571979D01*
X120070583Y-23631855D01*
X120031085Y-23676637D01*
X119976247Y-23722809D01*
X119914561Y-23759428D01*
X119846026Y-23786495D01*
X119783682Y-23801753D01*
X119716583Y-23810377D01*
X119659479Y-23812500D01*
X119538816Y-23812500D01*
X119538816Y-23673535D01*
X119686466Y-23673535D01*
X119754668Y-23665625D01*
X119815969Y-23646239D01*
X119870369Y-23615375D01*
X119917866Y-23573034D01*
X119956407Y-23521310D01*
X119983936Y-23462607D01*
X120000454Y-23396925D01*
X120005874Y-23333727D01*
X120005960Y-23324263D01*
X120001804Y-23256265D01*
X119989336Y-23193136D01*
X119964908Y-23126949D01*
X119929624Y-23067122D01*
X119919107Y-23053158D01*
X119871997Y-23003373D01*
X119817520Y-22964444D01*
X119755676Y-22936372D01*
X119695520Y-22920715D01*
X119686466Y-22919157D01*
X119686466Y-23673535D01*
X119538816Y-23673535D01*
X119538816Y-22780192D01*
X119652655Y-22780192D01*
X119719274Y-22783964D01*
G37*
D11*
G36*
X49563677Y-47625412D02*
G01*
X49666164Y-47729140D01*
X50247829Y-47729140D01*
X50350315Y-47625412D01*
X50350315Y-47414981D01*
X50215073Y-47414981D01*
X50215073Y-47565608D01*
X50171150Y-47609779D01*
X49742842Y-47609779D01*
X49698920Y-47565608D01*
X49698920Y-46897090D01*
X49742842Y-46852919D01*
X50171150Y-46852919D01*
X50215073Y-46897090D01*
X50215073Y-47047966D01*
X50350315Y-47047966D01*
X50350315Y-46836045D01*
X50247829Y-46733559D01*
X49666164Y-46733559D01*
X49563677Y-46836045D01*
X49563677Y-47625412D01*
G37*
G36*
X50622785Y-46836045D02*
G01*
X50622785Y-47729140D01*
X50757779Y-47729140D01*
X50757779Y-46897090D01*
X50801950Y-46852919D01*
X51230010Y-46852919D01*
X51275669Y-46897090D01*
X51275669Y-47729140D01*
X51410663Y-47729140D01*
X51410663Y-46836045D01*
X51306936Y-46733559D01*
X50725023Y-46733559D01*
X50622785Y-46836045D01*
G37*
G36*
X51769986Y-46852919D02*
G01*
X51769986Y-47729140D01*
X51905228Y-47729140D01*
X51905228Y-46733559D01*
X51769986Y-46733559D01*
X51556824Y-46796093D01*
X51556824Y-46852919D01*
X51769986Y-46852919D01*
G37*
G36*
X19684587Y-31875067D02*
G01*
X19580860Y-31977554D01*
X19580860Y-32559219D01*
X19684587Y-32661705D01*
X19895018Y-32661705D01*
X19895018Y-32526463D01*
X19744391Y-32526463D01*
X19700220Y-32482540D01*
X19700220Y-32054232D01*
X19744391Y-32010310D01*
X20412909Y-32010310D01*
X20457080Y-32054232D01*
X20457080Y-32482540D01*
X20412909Y-32526463D01*
X20262033Y-32526463D01*
X20262033Y-32661705D01*
X20473954Y-32661705D01*
X20576440Y-32559219D01*
X20576440Y-31977554D01*
X20473954Y-31875067D01*
X19684587Y-31875067D01*
G37*
G36*
X20473954Y-32934175D02*
G01*
X19580860Y-32934175D01*
X19580860Y-33069169D01*
X20412909Y-33069169D01*
X20457080Y-33113340D01*
X20457080Y-33541400D01*
X20412909Y-33587059D01*
X19580860Y-33587059D01*
X19580860Y-33722053D01*
X20473954Y-33722053D01*
X20576440Y-33618326D01*
X20576440Y-33036413D01*
X20473954Y-32934175D01*
G37*
G36*
X20138454Y-34479658D02*
G01*
X20138454Y-34274933D01*
X20020334Y-34274933D01*
X20020334Y-34479658D01*
X19957800Y-34540951D01*
X19744391Y-34540951D01*
X19700220Y-34496780D01*
X19700220Y-34172447D01*
X19744391Y-34128524D01*
X19885092Y-34128524D01*
X19885092Y-33993282D01*
X19684587Y-33993282D01*
X19580860Y-34095768D01*
X19580860Y-34573707D01*
X19684587Y-34676193D01*
X19986090Y-34676193D01*
X20080139Y-34573707D01*
X20172451Y-34676193D01*
X20473954Y-34676193D01*
X20576440Y-34573707D01*
X20576440Y-34095768D01*
X20473954Y-33993282D01*
X20273448Y-33993282D01*
X20273448Y-34128524D01*
X20412909Y-34128524D01*
X20457080Y-34172447D01*
X20457080Y-34496780D01*
X20412909Y-34540951D01*
X20200988Y-34540951D01*
X20138454Y-34479658D01*
G37*
D13*
G36*
X117619370Y-16569157D02*
G01*
X117345784Y-16569157D01*
X117345784Y-16430192D01*
X118041226Y-16430192D01*
X118041226Y-16569157D01*
X117767020Y-16569157D01*
X117767020Y-17462500D01*
X117619370Y-17462500D01*
X117619370Y-16569157D01*
G37*
G36*
X118668117Y-16936730D02*
G01*
X118379952Y-16430192D01*
X118557690Y-16430192D01*
X118758382Y-16796835D01*
X118963106Y-16430192D01*
X119126576Y-16430192D01*
X118849577Y-16928045D01*
X119143016Y-17462500D01*
X118966829Y-17462500D01*
X118756521Y-17067319D01*
X118547454Y-17462500D01*
X118378091Y-17462500D01*
X118668117Y-16936730D01*
G37*
G36*
X119668165Y-17204423D02*
G01*
X119995413Y-17204423D01*
X119995413Y-17462500D01*
X119668165Y-17462500D01*
X119668165Y-17204423D01*
G37*
G36*
X120963473Y-16312986D02*
G01*
X121027934Y-16320153D01*
X121062461Y-16327210D01*
X121122568Y-16348900D01*
X121160481Y-16375599D01*
X121199594Y-16426853D01*
X121226190Y-16486025D01*
X121245465Y-16552074D01*
X121247334Y-16560161D01*
X121260226Y-16629566D01*
X121268485Y-16697293D01*
X121273320Y-16760542D01*
X121276082Y-16828589D01*
X121276802Y-16888961D01*
X121275918Y-16956780D01*
X121273268Y-17019953D01*
X121267944Y-17087783D01*
X121258915Y-17157561D01*
X121251676Y-17196978D01*
X121235482Y-17260683D01*
X121212654Y-17321279D01*
X121181666Y-17375549D01*
X121175370Y-17384022D01*
X121125591Y-17424471D01*
X121077040Y-17443578D01*
X121015790Y-17455829D01*
X120952926Y-17461317D01*
X120900853Y-17462500D01*
X120836362Y-17460591D01*
X120770408Y-17453263D01*
X120724976Y-17442958D01*
X120667437Y-17417600D01*
X120625716Y-17380610D01*
X120591940Y-17324936D01*
X120569057Y-17265279D01*
X120552555Y-17201280D01*
X120550961Y-17193566D01*
X120539968Y-17127884D01*
X120532927Y-17064686D01*
X120528289Y-16996146D01*
X120526228Y-16933144D01*
X120525864Y-16892063D01*
X120686513Y-16892063D01*
X120687114Y-16956505D01*
X120689227Y-17022884D01*
X120693359Y-17089041D01*
X120696129Y-17119121D01*
X120704780Y-17181920D01*
X120720794Y-17244616D01*
X120725597Y-17256534D01*
X120766513Y-17305627D01*
X120774607Y-17309577D01*
X120839625Y-17321572D01*
X120900853Y-17323535D01*
X120964442Y-17321286D01*
X121009419Y-17314540D01*
X121061531Y-17284762D01*
X121088074Y-17226103D01*
X121100753Y-17164860D01*
X121102476Y-17152931D01*
X121109673Y-17085472D01*
X121113512Y-17022300D01*
X121115644Y-16950947D01*
X121116124Y-16892063D01*
X121115560Y-16826788D01*
X121113534Y-16759167D01*
X121109494Y-16691991D01*
X121104337Y-16640190D01*
X121093752Y-16575123D01*
X121075613Y-16514277D01*
X121068355Y-16499054D01*
X121017794Y-16461211D01*
X120955102Y-16451615D01*
X120900853Y-16450045D01*
X120835591Y-16452498D01*
X120784533Y-16461211D01*
X120734282Y-16499054D01*
X120713189Y-16557913D01*
X120700619Y-16623893D01*
X120698300Y-16641431D01*
X120692084Y-16707091D01*
X120688458Y-16776028D01*
X120686801Y-16845132D01*
X120686513Y-16892063D01*
X120525864Y-16892063D01*
X120525836Y-16888961D01*
X120526730Y-16822982D01*
X120529412Y-16760907D01*
X120534802Y-16693420D01*
X120542627Y-16631247D01*
X120551271Y-16582185D01*
X120567569Y-16516501D01*
X120589936Y-16455202D01*
X120622695Y-16397878D01*
X120625716Y-16393900D01*
X120673764Y-16353006D01*
X120724976Y-16331242D01*
X120785727Y-16318188D01*
X120848567Y-16312340D01*
X120900853Y-16311080D01*
X120963473Y-16312986D01*
G37*
D11*
G36*
X100772567Y-18732912D02*
G01*
X100875054Y-18836640D01*
X101456719Y-18836640D01*
X101559205Y-18732912D01*
X101559205Y-18522481D01*
X101423963Y-18522481D01*
X101423963Y-18673108D01*
X101380040Y-18717279D01*
X100951732Y-18717279D01*
X100907810Y-18673108D01*
X100907810Y-18004590D01*
X100951732Y-17960419D01*
X101380040Y-17960419D01*
X101423963Y-18004590D01*
X101423963Y-18155466D01*
X101559205Y-18155466D01*
X101559205Y-17943545D01*
X101456719Y-17841059D01*
X100875054Y-17841059D01*
X100772567Y-17943545D01*
X100772567Y-18732912D01*
G37*
G36*
X101831675Y-17943545D02*
G01*
X101831675Y-18836640D01*
X101966669Y-18836640D01*
X101966669Y-18004590D01*
X102010840Y-17960419D01*
X102438900Y-17960419D01*
X102484559Y-18004590D01*
X102484559Y-18836640D01*
X102619553Y-18836640D01*
X102619553Y-17943545D01*
X102515826Y-17841059D01*
X101933913Y-17841059D01*
X101831675Y-17943545D01*
G37*
G36*
X103573693Y-17943545D02*
G01*
X103573693Y-18138343D01*
X103438451Y-18138343D01*
X103438451Y-18004590D01*
X103394280Y-17960419D01*
X103069947Y-17960419D01*
X103026024Y-18004590D01*
X103026024Y-18225196D01*
X103452595Y-18225196D01*
X103573693Y-18346046D01*
X103573693Y-18732912D01*
X103471207Y-18836640D01*
X102993268Y-18836640D01*
X102890782Y-18732912D01*
X102890782Y-18673108D01*
X103026024Y-18673108D01*
X103069947Y-18717279D01*
X103394280Y-18717279D01*
X103438451Y-18673108D01*
X103438451Y-18407091D01*
X103377158Y-18344557D01*
X103026024Y-18344557D01*
X103026024Y-18673108D01*
X102890782Y-18673108D01*
X102890782Y-17943545D01*
X102993268Y-17841059D01*
X103471207Y-17841059D01*
X103573693Y-17943545D01*
G37*
G36*
X100931317Y-23336662D02*
G01*
X101033804Y-23440390D01*
X101615469Y-23440390D01*
X101717955Y-23336662D01*
X101717955Y-23126231D01*
X101582713Y-23126231D01*
X101582713Y-23276858D01*
X101538790Y-23321029D01*
X101110482Y-23321029D01*
X101066560Y-23276858D01*
X101066560Y-22608340D01*
X101110482Y-22564169D01*
X101538790Y-22564169D01*
X101582713Y-22608340D01*
X101582713Y-22759216D01*
X101717955Y-22759216D01*
X101717955Y-22547295D01*
X101615469Y-22444809D01*
X101033804Y-22444809D01*
X100931317Y-22547295D01*
X100931317Y-23336662D01*
G37*
G36*
X101990425Y-22547295D02*
G01*
X101990425Y-23440390D01*
X102125419Y-23440390D01*
X102125419Y-22608340D01*
X102169590Y-22564169D01*
X102597650Y-22564169D01*
X102643309Y-22608340D01*
X102643309Y-23440390D01*
X102778303Y-23440390D01*
X102778303Y-22547295D01*
X102674576Y-22444809D01*
X102092663Y-22444809D01*
X101990425Y-22547295D01*
G37*
G36*
X103457740Y-22564169D02*
G01*
X103096433Y-23440390D01*
X103245819Y-23440390D01*
X103607127Y-22561440D01*
X103607127Y-22444809D01*
X102932901Y-22444809D01*
X102932901Y-22564169D01*
X103457740Y-22564169D01*
G37*
D13*
G36*
X117617509Y-15378698D02*
G01*
X117349506Y-15378698D01*
X117349506Y-15239734D01*
X117617509Y-15239734D01*
X117617509Y-14922101D01*
X117767020Y-14922101D01*
X117767020Y-15239734D01*
X118035953Y-15239734D01*
X118035953Y-15378698D01*
X117767020Y-15378698D01*
X117767020Y-15696331D01*
X117617509Y-15696331D01*
X117617509Y-15378698D01*
G37*
G36*
X118399804Y-15656627D02*
G01*
X118459275Y-15686161D01*
X118517722Y-15708734D01*
X118544352Y-15716803D01*
X118606531Y-15729950D01*
X118669305Y-15735735D01*
X118687349Y-15736035D01*
X118755596Y-15730128D01*
X118820382Y-15709986D01*
X118874392Y-15675548D01*
X118917489Y-15624774D01*
X118940695Y-15563183D01*
X118945115Y-15516112D01*
X118936172Y-15452718D01*
X118906016Y-15398026D01*
X118869429Y-15366911D01*
X118807419Y-15339714D01*
X118741525Y-15325859D01*
X118671500Y-15319888D01*
X118632445Y-15319142D01*
X118611042Y-15320383D01*
X118575991Y-15322244D01*
X118575061Y-15219882D01*
X118873772Y-14902249D01*
X118399804Y-14902249D01*
X118399804Y-14763284D01*
X119068260Y-14763284D01*
X119068260Y-14921480D01*
X118781646Y-15218020D01*
X118845403Y-15224324D01*
X118910562Y-15240653D01*
X118967501Y-15266714D01*
X119021732Y-15307665D01*
X119064016Y-15359167D01*
X119092462Y-15419453D01*
X119106130Y-15480414D01*
X119109205Y-15530690D01*
X119103654Y-15597238D01*
X119087000Y-15657373D01*
X119054372Y-15718248D01*
X119007243Y-15770747D01*
X118993195Y-15782563D01*
X118938509Y-15818581D01*
X118875689Y-15845752D01*
X118815369Y-15862001D01*
X118749074Y-15871750D01*
X118676802Y-15875000D01*
X118612438Y-15871510D01*
X118548998Y-15861900D01*
X118544662Y-15861041D01*
X118482890Y-15845977D01*
X118423297Y-15826886D01*
X118399804Y-15818235D01*
X118399804Y-15656627D01*
G37*
G36*
X119668165Y-15616923D02*
G01*
X119995413Y-15616923D01*
X119995413Y-15875000D01*
X119668165Y-15875000D01*
X119668165Y-15616923D01*
G37*
G36*
X120538863Y-15656627D02*
G01*
X120598334Y-15686161D01*
X120656781Y-15708734D01*
X120683411Y-15716803D01*
X120745591Y-15729950D01*
X120808364Y-15735735D01*
X120826408Y-15736035D01*
X120894656Y-15730128D01*
X120959442Y-15709986D01*
X121013452Y-15675548D01*
X121056549Y-15624774D01*
X121079754Y-15563183D01*
X121084175Y-15516112D01*
X121075231Y-15452718D01*
X121045075Y-15398026D01*
X121008489Y-15366911D01*
X120946478Y-15339714D01*
X120880584Y-15325859D01*
X120810559Y-15319888D01*
X120771505Y-15319142D01*
X120750102Y-15320383D01*
X120715050Y-15322244D01*
X120714120Y-15219882D01*
X121012831Y-14902249D01*
X120538863Y-14902249D01*
X120538863Y-14763284D01*
X121207319Y-14763284D01*
X121207319Y-14921480D01*
X120920705Y-15218020D01*
X120984462Y-15224324D01*
X121049621Y-15240653D01*
X121106560Y-15266714D01*
X121160791Y-15307665D01*
X121203076Y-15359167D01*
X121231521Y-15419453D01*
X121245189Y-15480414D01*
X121248264Y-15530690D01*
X121242713Y-15597238D01*
X121226059Y-15657373D01*
X121193431Y-15718248D01*
X121146302Y-15770747D01*
X121132254Y-15782563D01*
X121077568Y-15818581D01*
X121014748Y-15845752D01*
X120954429Y-15862001D01*
X120888133Y-15871750D01*
X120815862Y-15875000D01*
X120751498Y-15871510D01*
X120688057Y-15861900D01*
X120683721Y-15861041D01*
X120621949Y-15845977D01*
X120562356Y-15826886D01*
X120538863Y-15818235D01*
X120538863Y-15656627D01*
G37*
G36*
X121581407Y-14842692D02*
G01*
X121739603Y-14842692D01*
X121974726Y-15733243D01*
X122207367Y-14842692D01*
X122356878Y-14842692D01*
X122077088Y-15875000D01*
X121866160Y-15875000D01*
X121581407Y-14842692D01*
G37*
G36*
X53482509Y-20141198D02*
G01*
X53214506Y-20141198D01*
X53214506Y-20002234D01*
X53482509Y-20002234D01*
X53482509Y-19684601D01*
X53632020Y-19684601D01*
X53632020Y-20002234D01*
X53900953Y-20002234D01*
X53900953Y-20141198D01*
X53632020Y-20141198D01*
X53632020Y-20458831D01*
X53482509Y-20458831D01*
X53482509Y-20141198D01*
G37*
G36*
X54353208Y-19525784D02*
G01*
X54911547Y-19525784D01*
X54911547Y-19664749D01*
X54492172Y-19664749D01*
X54480075Y-19884982D01*
X54508612Y-19883742D01*
X54556381Y-19883121D01*
X54618398Y-19886589D01*
X54685211Y-19899401D01*
X54746057Y-19921652D01*
X54800935Y-19953344D01*
X54836481Y-19981761D01*
X54878905Y-20027692D01*
X54914630Y-20086981D01*
X54936745Y-20153522D01*
X54944932Y-20217692D01*
X54945357Y-20237046D01*
X54939861Y-20304363D01*
X54923373Y-20366031D01*
X54895892Y-20422051D01*
X54857419Y-20472421D01*
X54807954Y-20517143D01*
X54789023Y-20530795D01*
X54726293Y-20567058D01*
X54667571Y-20591546D01*
X54602987Y-20610823D01*
X54532542Y-20624891D01*
X54456235Y-20633748D01*
X54390970Y-20637083D01*
X54356930Y-20637500D01*
X54314434Y-20637500D01*
X54314434Y-20496984D01*
X54337078Y-20498225D01*
X54373370Y-20498535D01*
X54443788Y-20496071D01*
X54508011Y-20488677D01*
X54575110Y-20473821D01*
X54633778Y-20452256D01*
X54677355Y-20428433D01*
X54729685Y-20384360D01*
X54764890Y-20331356D01*
X54782967Y-20269420D01*
X54785610Y-20231153D01*
X54776777Y-20169279D01*
X54746992Y-20112900D01*
X54710855Y-20078230D01*
X54652893Y-20046265D01*
X54588432Y-20028720D01*
X54520834Y-20022305D01*
X54504580Y-20022086D01*
X54441841Y-20025362D01*
X54424861Y-20027049D01*
X54361394Y-20035191D01*
X54317846Y-20041938D01*
X54353208Y-19525784D01*
G37*
G36*
X55307347Y-19605192D02*
G01*
X55465543Y-19605192D01*
X55700666Y-20495743D01*
X55933308Y-19605192D01*
X56082818Y-19605192D01*
X55803028Y-20637500D01*
X55592100Y-20637500D01*
X55307347Y-19605192D01*
G37*
D11*
G36*
X112856870Y-19744157D02*
G01*
X112583284Y-19744157D01*
X112583284Y-19605192D01*
X113278726Y-19605192D01*
X113278726Y-19744157D01*
X113004520Y-19744157D01*
X113004520Y-20637500D01*
X112856870Y-20637500D01*
X112856870Y-19744157D01*
G37*
G36*
X113635443Y-19605192D02*
G01*
X113875219Y-19605192D01*
X114001155Y-20059308D01*
X114127712Y-19605192D01*
X114367488Y-19605192D01*
X114367488Y-20637500D01*
X114219838Y-20637500D01*
X114219838Y-19751912D01*
X114058230Y-20300015D01*
X113937566Y-20300015D01*
X113775338Y-19748500D01*
X113775338Y-20637500D01*
X113635443Y-20637500D01*
X113635443Y-19605192D01*
G37*
G36*
X115226089Y-19823565D02*
G01*
X115207042Y-19763224D01*
X115181422Y-19736092D01*
X115122480Y-19709674D01*
X115070685Y-19704453D01*
X115007872Y-19713758D01*
X114957156Y-19741675D01*
X114919861Y-19792438D01*
X114912489Y-19834732D01*
X114930522Y-19895443D01*
X114950642Y-19920034D01*
X115000946Y-19957742D01*
X115055942Y-19988601D01*
X115092398Y-20006576D01*
X115151334Y-20035114D01*
X115206039Y-20064679D01*
X115259289Y-20099085D01*
X115307378Y-20138581D01*
X115339618Y-20174388D01*
X115373075Y-20232636D01*
X115390179Y-20293540D01*
X115394521Y-20348714D01*
X115388705Y-20411547D01*
X115368258Y-20474123D01*
X115333090Y-20528111D01*
X115301465Y-20559332D01*
X115244192Y-20597118D01*
X115184713Y-20620324D01*
X115117169Y-20633759D01*
X115051453Y-20637500D01*
X114983153Y-20632750D01*
X114916188Y-20616051D01*
X114859675Y-20587330D01*
X114827807Y-20561503D01*
X114785908Y-20507057D01*
X114760422Y-20446504D01*
X114747491Y-20383492D01*
X114744056Y-20339719D01*
X114903803Y-20339719D01*
X114903803Y-20344682D01*
X114913652Y-20409666D01*
X114943197Y-20458211D01*
X114997581Y-20490817D01*
X115053314Y-20498535D01*
X115117546Y-20490223D01*
X115174112Y-20462869D01*
X115183904Y-20455109D01*
X115222057Y-20406099D01*
X115234774Y-20345922D01*
X115221204Y-20282382D01*
X115200033Y-20251005D01*
X115150042Y-20211853D01*
X115090343Y-20177490D01*
X115028189Y-20146161D01*
X114954984Y-20109249D01*
X114897109Y-20077260D01*
X114844852Y-20037595D01*
X114804543Y-19993238D01*
X114772209Y-19934614D01*
X114756993Y-19874411D01*
X114754603Y-19836593D01*
X114761743Y-19772051D01*
X114786425Y-19708972D01*
X114828736Y-19654980D01*
X114844868Y-19640554D01*
X114900107Y-19604267D01*
X114964278Y-19579856D01*
X115028817Y-19568127D01*
X115081852Y-19565488D01*
X115144548Y-19569773D01*
X115207389Y-19584835D01*
X115267657Y-19614291D01*
X115294020Y-19634040D01*
X115337326Y-19682004D01*
X115366818Y-19740207D01*
X115381551Y-19801343D01*
X115383975Y-19823565D01*
X115226089Y-19823565D01*
G37*
D13*
G36*
X53533070Y-15319142D02*
G01*
X53904675Y-15319142D01*
X53904675Y-15812031D01*
X53841262Y-15833004D01*
X53779692Y-15850699D01*
X53738725Y-15860421D01*
X53676570Y-15870885D01*
X53611237Y-15875000D01*
X53541641Y-15869983D01*
X53478021Y-15854934D01*
X53420377Y-15829853D01*
X53368709Y-15794738D01*
X53323016Y-15749591D01*
X53309114Y-15732313D01*
X53272218Y-15674760D01*
X53242956Y-15609115D01*
X53224402Y-15548230D01*
X53211150Y-15481725D01*
X53203198Y-15409602D01*
X53200548Y-15331860D01*
X53203259Y-15256777D01*
X53211392Y-15187010D01*
X53224948Y-15122560D01*
X53243926Y-15063425D01*
X53273856Y-14999482D01*
X53311595Y-14943193D01*
X53356244Y-14895546D01*
X53406673Y-14857756D01*
X53462881Y-14829824D01*
X53524869Y-14811751D01*
X53592637Y-14803536D01*
X53616510Y-14802988D01*
X53678775Y-14807577D01*
X53740534Y-14823437D01*
X53799443Y-14853969D01*
X53809137Y-14860994D01*
X53854854Y-14906114D01*
X53887082Y-14961716D01*
X53904675Y-15021361D01*
X53749891Y-15021361D01*
X53707884Y-14972538D01*
X53693747Y-14962735D01*
X53634694Y-14942683D01*
X53619612Y-14941953D01*
X53552358Y-14949755D01*
X53489315Y-14976727D01*
X53438570Y-15022965D01*
X53425744Y-15040593D01*
X53397110Y-15095903D01*
X53376657Y-15163195D01*
X53365472Y-15231903D01*
X53360870Y-15298097D01*
X53360295Y-15333721D01*
X53362530Y-15404974D01*
X53369237Y-15469380D01*
X53382712Y-15535864D01*
X53405564Y-15600431D01*
X53423883Y-15634603D01*
X53464660Y-15683635D01*
X53521306Y-15719295D01*
X53582491Y-15734450D01*
X53612788Y-15736035D01*
X53676634Y-15728757D01*
X53678858Y-15728280D01*
X53738760Y-15711052D01*
X53757026Y-15704396D01*
X53757026Y-15458106D01*
X53533070Y-15458106D01*
X53533070Y-15319142D01*
G37*
G36*
X54284036Y-14842692D02*
G01*
X54461774Y-14842692D01*
X54829967Y-15612890D01*
X54829967Y-14842692D01*
X54970483Y-14842692D01*
X54970483Y-15875000D01*
X54799569Y-15875000D01*
X54424551Y-15097667D01*
X54424551Y-15875000D01*
X54284036Y-15875000D01*
X54284036Y-14842692D01*
G37*
G36*
X55584274Y-14846464D02*
G01*
X55647456Y-14857778D01*
X55707199Y-14876634D01*
X55763504Y-14903034D01*
X55816371Y-14936976D01*
X55865799Y-14978460D01*
X55884608Y-14997166D01*
X55927412Y-15046971D01*
X55962961Y-15100031D01*
X55991255Y-15156348D01*
X56012294Y-15215922D01*
X56026078Y-15278752D01*
X56032608Y-15344838D01*
X56033188Y-15372184D01*
X56029841Y-15442075D01*
X56019799Y-15507316D01*
X56003063Y-15567907D01*
X55974143Y-15634479D01*
X55935583Y-15694355D01*
X55896085Y-15739137D01*
X55841247Y-15785309D01*
X55779561Y-15821928D01*
X55711026Y-15848995D01*
X55648682Y-15864253D01*
X55581583Y-15872877D01*
X55524479Y-15875000D01*
X55403816Y-15875000D01*
X55403816Y-15736035D01*
X55551466Y-15736035D01*
X55619668Y-15728125D01*
X55680969Y-15708739D01*
X55735369Y-15677875D01*
X55782866Y-15635534D01*
X55821407Y-15583810D01*
X55848936Y-15525107D01*
X55865454Y-15459425D01*
X55870874Y-15396227D01*
X55870960Y-15386763D01*
X55866804Y-15318765D01*
X55854336Y-15255636D01*
X55829908Y-15189449D01*
X55794624Y-15129622D01*
X55784107Y-15115658D01*
X55736997Y-15065873D01*
X55682520Y-15026944D01*
X55620676Y-14998872D01*
X55560520Y-14983215D01*
X55551466Y-14981657D01*
X55551466Y-15736035D01*
X55403816Y-15736035D01*
X55403816Y-14842692D01*
X55517655Y-14842692D01*
X55584274Y-14846464D01*
G37*
D12*
G36*
X70671822Y-44035222D02*
G01*
X70671822Y-45299550D01*
X71587808Y-45299550D01*
X71587808Y-45130497D01*
X70860416Y-45130497D01*
X70860416Y-44752067D01*
X71410070Y-44752067D01*
X71410070Y-44582704D01*
X70860416Y-44582704D01*
X70860416Y-44204274D01*
X71587808Y-44204274D01*
X71587808Y-44035222D01*
X70671822Y-44035222D01*
G37*
G36*
X71855501Y-44169223D02*
G01*
X71855501Y-45299550D01*
X72044095Y-45299550D01*
X72044095Y-44253594D01*
X72093415Y-44204274D01*
X72620425Y-44204274D01*
X72671607Y-44253904D01*
X72671607Y-45299550D01*
X72860201Y-45299550D01*
X72860201Y-44169223D01*
X72724649Y-44035222D01*
X71989192Y-44035222D01*
X71855501Y-44169223D01*
G37*
D11*
G36*
X34415067Y-20955412D02*
G01*
X34517554Y-21059140D01*
X35099219Y-21059140D01*
X35201705Y-20955412D01*
X35201705Y-20744981D01*
X35066463Y-20744981D01*
X35066463Y-20895608D01*
X35022540Y-20939779D01*
X34594232Y-20939779D01*
X34550310Y-20895608D01*
X34550310Y-20227090D01*
X34594232Y-20182919D01*
X35022540Y-20182919D01*
X35066463Y-20227090D01*
X35066463Y-20377966D01*
X35201705Y-20377966D01*
X35201705Y-20166045D01*
X35099219Y-20063559D01*
X34517554Y-20063559D01*
X34415067Y-20166045D01*
X34415067Y-20955412D01*
G37*
G36*
X35474175Y-20166045D02*
G01*
X35474175Y-21059140D01*
X35609169Y-21059140D01*
X35609169Y-20227090D01*
X35653340Y-20182919D01*
X36081400Y-20182919D01*
X36127059Y-20227090D01*
X36127059Y-21059140D01*
X36262053Y-21059140D01*
X36262053Y-20166045D01*
X36158326Y-20063559D01*
X35576413Y-20063559D01*
X35474175Y-20166045D01*
G37*
G36*
X36547427Y-20955412D02*
G01*
X36649913Y-21059140D01*
X37127851Y-21059140D01*
X37230338Y-20955412D01*
X37230338Y-20540008D01*
X37127851Y-20437522D01*
X36682669Y-20437522D01*
X36682669Y-20182919D01*
X37230338Y-20182919D01*
X37230338Y-20063559D01*
X36547427Y-20063559D01*
X36547427Y-20555642D01*
X37051173Y-20555642D01*
X37095095Y-20601301D01*
X37095095Y-20895608D01*
X37051173Y-20939779D01*
X36726840Y-20939779D01*
X36682669Y-20895608D01*
X36682669Y-20705028D01*
X36547427Y-20705028D01*
X36547427Y-20955412D01*
G37*
G36*
X112856870Y-22919157D02*
G01*
X112583284Y-22919157D01*
X112583284Y-22780192D01*
X113278726Y-22780192D01*
X113278726Y-22919157D01*
X113004520Y-22919157D01*
X113004520Y-23812500D01*
X112856870Y-23812500D01*
X112856870Y-22919157D01*
G37*
G36*
X113887245Y-22783964D02*
G01*
X113950426Y-22795278D01*
X114010169Y-22814134D01*
X114066474Y-22840534D01*
X114119341Y-22874476D01*
X114168770Y-22915960D01*
X114187578Y-22934666D01*
X114230382Y-22984471D01*
X114265931Y-23037531D01*
X114294225Y-23093848D01*
X114315265Y-23153422D01*
X114329049Y-23216252D01*
X114335578Y-23282338D01*
X114336159Y-23309684D01*
X114332811Y-23379575D01*
X114322770Y-23444816D01*
X114306033Y-23505407D01*
X114277113Y-23571979D01*
X114238553Y-23631855D01*
X114199055Y-23676637D01*
X114144217Y-23722809D01*
X114082531Y-23759428D01*
X114013996Y-23786495D01*
X113951653Y-23801753D01*
X113884553Y-23810377D01*
X113827450Y-23812500D01*
X113706786Y-23812500D01*
X113706786Y-23673535D01*
X113854436Y-23673535D01*
X113922639Y-23665625D01*
X113983940Y-23646239D01*
X114038339Y-23615375D01*
X114085837Y-23573034D01*
X114124377Y-23521310D01*
X114151907Y-23462607D01*
X114168424Y-23396925D01*
X114173844Y-23333727D01*
X114173930Y-23324263D01*
X114169774Y-23256265D01*
X114157306Y-23193136D01*
X114132879Y-23126949D01*
X114097595Y-23067122D01*
X114087077Y-23053158D01*
X114039967Y-23003373D01*
X113985491Y-22964444D01*
X113923647Y-22936372D01*
X113863490Y-22920715D01*
X113854436Y-22919157D01*
X113854436Y-23673535D01*
X113706786Y-23673535D01*
X113706786Y-22780192D01*
X113820625Y-22780192D01*
X113887245Y-22783964D01*
G37*
G36*
X115136434Y-22747628D02*
G01*
X115198670Y-22769046D01*
X115255534Y-22804744D01*
X115307024Y-22854720D01*
X115334035Y-22889689D01*
X115369560Y-22948747D01*
X115397735Y-23014021D01*
X115418560Y-23085511D01*
X115430299Y-23149834D01*
X115436935Y-23218474D01*
X115438568Y-23276494D01*
X115436016Y-23348587D01*
X115428360Y-23416363D01*
X115415599Y-23479823D01*
X115393549Y-23550277D01*
X115364149Y-23614515D01*
X115334035Y-23663299D01*
X115292861Y-23714004D01*
X115239835Y-23759900D01*
X115181437Y-23791518D01*
X115117665Y-23808857D01*
X115068824Y-23812500D01*
X115001547Y-23805345D01*
X114939494Y-23783882D01*
X114882667Y-23748111D01*
X114831064Y-23698030D01*
X114803923Y-23662989D01*
X114768292Y-23603752D01*
X114740034Y-23538409D01*
X114719147Y-23466959D01*
X114707372Y-23402753D01*
X114700717Y-23334305D01*
X114699079Y-23276494D01*
X114699112Y-23275563D01*
X114859757Y-23275563D01*
X114861763Y-23341837D01*
X114869176Y-23412320D01*
X114882051Y-23475441D01*
X114903454Y-23538564D01*
X114916831Y-23566520D01*
X114952055Y-23618251D01*
X115003102Y-23658486D01*
X115068824Y-23673535D01*
X115134588Y-23658442D01*
X115185753Y-23618091D01*
X115221126Y-23566210D01*
X115246368Y-23507681D01*
X115264397Y-23439731D01*
X115274257Y-23372545D01*
X115278314Y-23309215D01*
X115278821Y-23275563D01*
X115276826Y-23209428D01*
X115269453Y-23139161D01*
X115256648Y-23076316D01*
X115235361Y-23013580D01*
X115222057Y-22985847D01*
X115186986Y-22934416D01*
X115135592Y-22894414D01*
X115074814Y-22879557D01*
X115068824Y-22879453D01*
X115007723Y-22891951D01*
X114955785Y-22929448D01*
X114916521Y-22985227D01*
X114891687Y-23043038D01*
X114873948Y-23110698D01*
X114864247Y-23177979D01*
X114860256Y-23241650D01*
X114859757Y-23275563D01*
X114699112Y-23275563D01*
X114701639Y-23204401D01*
X114709318Y-23136624D01*
X114722116Y-23073165D01*
X114744231Y-23002711D01*
X114773719Y-22938472D01*
X114803923Y-22889689D01*
X114845275Y-22838984D01*
X114898370Y-22793087D01*
X114956691Y-22761470D01*
X115020236Y-22744131D01*
X115068824Y-22740488D01*
X115136434Y-22747628D01*
G37*
D13*
G36*
X117725744Y-18020266D02*
G01*
X117793167Y-18029774D01*
X117859427Y-18049219D01*
X117920203Y-18082032D01*
X117931730Y-18090897D01*
X117975064Y-18138012D01*
X118004216Y-18197003D01*
X118018223Y-18259409D01*
X118021374Y-18312371D01*
X118016073Y-18378729D01*
X117997997Y-18441995D01*
X117967091Y-18495072D01*
X117919356Y-18540874D01*
X117863260Y-18571362D01*
X117808585Y-18588129D01*
X118075037Y-19050000D01*
X117897299Y-19050000D01*
X117656593Y-18613254D01*
X117530656Y-18613254D01*
X117530656Y-19050000D01*
X117383317Y-19050000D01*
X117383317Y-18474290D01*
X117530656Y-18474290D01*
X117644495Y-18474290D01*
X117707048Y-18470564D01*
X117768116Y-18456256D01*
X117807344Y-18436137D01*
X117848056Y-18388290D01*
X117861574Y-18325827D01*
X117861627Y-18321057D01*
X117853027Y-18258625D01*
X117818828Y-18203430D01*
X117809516Y-18195741D01*
X117751628Y-18169023D01*
X117688901Y-18158527D01*
X117641083Y-18156657D01*
X117530656Y-18156657D01*
X117530656Y-18474290D01*
X117383317Y-18474290D01*
X117383317Y-18017692D01*
X117660935Y-18017692D01*
X117725744Y-18020266D01*
G37*
G36*
X118668117Y-18524230D02*
G01*
X118379952Y-18017692D01*
X118557690Y-18017692D01*
X118758382Y-18384335D01*
X118963106Y-18017692D01*
X119126576Y-18017692D01*
X118849577Y-18515545D01*
X119143016Y-19050000D01*
X118966829Y-19050000D01*
X118756521Y-18654819D01*
X118547454Y-19050000D01*
X118378091Y-19050000D01*
X118668117Y-18524230D01*
G37*
G36*
X119668165Y-18791923D02*
G01*
X119995413Y-18791923D01*
X119995413Y-19050000D01*
X119668165Y-19050000D01*
X119668165Y-18791923D01*
G37*
G36*
X120963473Y-17900486D02*
G01*
X121027934Y-17907653D01*
X121062461Y-17914710D01*
X121122568Y-17936400D01*
X121160481Y-17963099D01*
X121199594Y-18014353D01*
X121226190Y-18073525D01*
X121245465Y-18139574D01*
X121247334Y-18147661D01*
X121260226Y-18217066D01*
X121268485Y-18284793D01*
X121273320Y-18348042D01*
X121276082Y-18416089D01*
X121276802Y-18476461D01*
X121275918Y-18544280D01*
X121273268Y-18607453D01*
X121267944Y-18675283D01*
X121258915Y-18745061D01*
X121251676Y-18784478D01*
X121235482Y-18848183D01*
X121212654Y-18908779D01*
X121181666Y-18963049D01*
X121175370Y-18971522D01*
X121125591Y-19011971D01*
X121077040Y-19031078D01*
X121015790Y-19043329D01*
X120952926Y-19048817D01*
X120900853Y-19050000D01*
X120836362Y-19048091D01*
X120770408Y-19040763D01*
X120724976Y-19030458D01*
X120667437Y-19005100D01*
X120625716Y-18968110D01*
X120591940Y-18912436D01*
X120569057Y-18852779D01*
X120552555Y-18788780D01*
X120550961Y-18781066D01*
X120539968Y-18715384D01*
X120532927Y-18652186D01*
X120528289Y-18583646D01*
X120526228Y-18520644D01*
X120525864Y-18479563D01*
X120686513Y-18479563D01*
X120687114Y-18544005D01*
X120689227Y-18610384D01*
X120693359Y-18676541D01*
X120696129Y-18706621D01*
X120704780Y-18769420D01*
X120720794Y-18832116D01*
X120725597Y-18844034D01*
X120766513Y-18893127D01*
X120774607Y-18897077D01*
X120839625Y-18909072D01*
X120900853Y-18911035D01*
X120964442Y-18908786D01*
X121009419Y-18902040D01*
X121061531Y-18872262D01*
X121088074Y-18813603D01*
X121100753Y-18752360D01*
X121102476Y-18740431D01*
X121109673Y-18672972D01*
X121113512Y-18609800D01*
X121115644Y-18538447D01*
X121116124Y-18479563D01*
X121115560Y-18414288D01*
X121113534Y-18346667D01*
X121109494Y-18279491D01*
X121104337Y-18227690D01*
X121093752Y-18162623D01*
X121075613Y-18101777D01*
X121068355Y-18086554D01*
X121017794Y-18048711D01*
X120955102Y-18039115D01*
X120900853Y-18037545D01*
X120835591Y-18039998D01*
X120784533Y-18048711D01*
X120734282Y-18086554D01*
X120713189Y-18145413D01*
X120700619Y-18211393D01*
X120698300Y-18228931D01*
X120692084Y-18294591D01*
X120688458Y-18363528D01*
X120686801Y-18432632D01*
X120686513Y-18479563D01*
X120525864Y-18479563D01*
X120525836Y-18476461D01*
X120526730Y-18410482D01*
X120529412Y-18348407D01*
X120534802Y-18280920D01*
X120542627Y-18218747D01*
X120551271Y-18169685D01*
X120567569Y-18104001D01*
X120589936Y-18042702D01*
X120622695Y-17985378D01*
X120625716Y-17981400D01*
X120673764Y-17940506D01*
X120724976Y-17918742D01*
X120785727Y-17905688D01*
X120848567Y-17899840D01*
X120900853Y-17898580D01*
X120963473Y-17900486D01*
G37*
G36*
X53590744Y-16432766D02*
G01*
X53658167Y-16442274D01*
X53724427Y-16461719D01*
X53785203Y-16494532D01*
X53796730Y-16503397D01*
X53840064Y-16550512D01*
X53869216Y-16609503D01*
X53883223Y-16671909D01*
X53886374Y-16724871D01*
X53881073Y-16791229D01*
X53862997Y-16854495D01*
X53832091Y-16907572D01*
X53784356Y-16953374D01*
X53728260Y-16983862D01*
X53673585Y-17000629D01*
X53940037Y-17462500D01*
X53762299Y-17462500D01*
X53521593Y-17025754D01*
X53395656Y-17025754D01*
X53395656Y-17462500D01*
X53248317Y-17462500D01*
X53248317Y-16886790D01*
X53395656Y-16886790D01*
X53509495Y-16886790D01*
X53572048Y-16883064D01*
X53633116Y-16868756D01*
X53672344Y-16848637D01*
X53713056Y-16800790D01*
X53726574Y-16738327D01*
X53726627Y-16733557D01*
X53718027Y-16671125D01*
X53683828Y-16615930D01*
X53674516Y-16608241D01*
X53616628Y-16581523D01*
X53553901Y-16571027D01*
X53506083Y-16569157D01*
X53395656Y-16569157D01*
X53395656Y-16886790D01*
X53248317Y-16886790D01*
X53248317Y-16430192D01*
X53525935Y-16430192D01*
X53590744Y-16432766D01*
G37*
G36*
X54533117Y-16936730D02*
G01*
X54244952Y-16430192D01*
X54422690Y-16430192D01*
X54623382Y-16796835D01*
X54828106Y-16430192D01*
X54991576Y-16430192D01*
X54714577Y-16928045D01*
X55008016Y-17462500D01*
X54831829Y-17462500D01*
X54621521Y-17067319D01*
X54412454Y-17462500D01*
X54243091Y-17462500D01*
X54533117Y-16936730D01*
G37*
G36*
X55533165Y-17204423D02*
G01*
X55860413Y-17204423D01*
X55860413Y-17462500D01*
X55533165Y-17462500D01*
X55533165Y-17204423D01*
G37*
G36*
X56755307Y-16530073D02*
G01*
X56485443Y-16767677D01*
X56485443Y-16569157D01*
X56748483Y-16350784D01*
X56917846Y-16350784D01*
X56917846Y-17462500D01*
X56755307Y-17462500D01*
X56755307Y-16530073D01*
G37*
G36*
X53484370Y-18156657D02*
G01*
X53210784Y-18156657D01*
X53210784Y-18017692D01*
X53906226Y-18017692D01*
X53906226Y-18156657D01*
X53632020Y-18156657D01*
X53632020Y-19050000D01*
X53484370Y-19050000D01*
X53484370Y-18156657D01*
G37*
G36*
X54533117Y-18524230D02*
G01*
X54244952Y-18017692D01*
X54422690Y-18017692D01*
X54623382Y-18384335D01*
X54828106Y-18017692D01*
X54991576Y-18017692D01*
X54714577Y-18515545D01*
X55008016Y-19050000D01*
X54831829Y-19050000D01*
X54621521Y-18654819D01*
X54412454Y-19050000D01*
X54243091Y-19050000D01*
X54533117Y-18524230D01*
G37*
G36*
X55533165Y-18791923D02*
G01*
X55860413Y-18791923D01*
X55860413Y-19050000D01*
X55533165Y-19050000D01*
X55533165Y-18791923D01*
G37*
G36*
X56755307Y-18117573D02*
G01*
X56485443Y-18355177D01*
X56485443Y-18156657D01*
X56748483Y-17938284D01*
X56917846Y-17938284D01*
X56917846Y-19050000D01*
X56755307Y-19050000D01*
X56755307Y-18117573D01*
G37*
D11*
G36*
X17428817Y-20955412D02*
G01*
X17531304Y-21059140D01*
X18112969Y-21059140D01*
X18215455Y-20955412D01*
X18215455Y-20744981D01*
X18080213Y-20744981D01*
X18080213Y-20895608D01*
X18036290Y-20939779D01*
X17607982Y-20939779D01*
X17564060Y-20895608D01*
X17564060Y-20227090D01*
X17607982Y-20182919D01*
X18036290Y-20182919D01*
X18080213Y-20227090D01*
X18080213Y-20377966D01*
X18215455Y-20377966D01*
X18215455Y-20166045D01*
X18112969Y-20063559D01*
X17531304Y-20063559D01*
X17428817Y-20166045D01*
X17428817Y-20955412D01*
G37*
G36*
X18487925Y-20166045D02*
G01*
X18487925Y-21059140D01*
X18622919Y-21059140D01*
X18622919Y-20227090D01*
X18667090Y-20182919D01*
X19095150Y-20182919D01*
X19140809Y-20227090D01*
X19140809Y-21059140D01*
X19275803Y-21059140D01*
X19275803Y-20166045D01*
X19172076Y-20063559D01*
X18590163Y-20063559D01*
X18487925Y-20166045D01*
G37*
G36*
X19547032Y-20761855D02*
G01*
X19649518Y-20864341D01*
X20094701Y-20864341D01*
X20094701Y-21059140D01*
X20229943Y-21059140D01*
X20229943Y-20065048D01*
X20094701Y-20065048D01*
X20094701Y-20744981D01*
X19726197Y-20744981D01*
X19682274Y-20700810D01*
X19682274Y-20065048D01*
X19547032Y-20065048D01*
X19547032Y-20761855D01*
G37*
D14*
%TO.C,SW2*%
X68455000Y-54000000D02*
X68455000Y-53000000D01*
X68505000Y-45900000D02*
X68505000Y-51900000D01*
X69455000Y-54000000D02*
X68455000Y-54000000D01*
X70455000Y-45900000D02*
X73055000Y-45900000D01*
X70455000Y-51900000D02*
X73055000Y-51900000D01*
X75005000Y-45900000D02*
X75005000Y-51900000D01*
%TO.C,U5*%
X99810000Y-25280000D02*
X99810000Y-43300000D01*
X99810000Y-43300000D02*
X112280000Y-43300000D01*
X103510000Y-25340000D02*
X103510000Y-43240000D01*
X103510000Y-43240000D02*
X108580000Y-43240000D01*
X105045000Y-25340000D02*
X103510000Y-25340000D01*
X108580000Y-25340000D02*
X107045000Y-25340000D01*
X108580000Y-43240000D02*
X108580000Y-25340000D01*
X112280000Y-25280000D02*
X99810000Y-25280000D01*
X112280000Y-43300000D02*
X112280000Y-25280000D01*
X107045000Y-25340000D02*
G75*
G02*
X105045000Y-25340000I-1000000J0D01*
G01*
%TO.C,R19*%
X63400000Y-50392064D02*
X63400000Y-49937936D01*
X64870000Y-50392064D02*
X64870000Y-49937936D01*
%TO.C,TP3*%
X182315000Y-46465000D02*
X182315000Y-51365000D01*
X182315000Y-51365000D02*
X184715000Y-51365000D01*
X184715000Y-46465000D02*
X182315000Y-46465000D01*
X184715000Y-51365000D02*
X184715000Y-46465000D01*
%TO.C,R14*%
X29570000Y-23085436D02*
X29570000Y-24539564D01*
X31390000Y-23085436D02*
X31390000Y-24539564D01*
%TO.C,J6*%
X100905000Y-17205000D02*
X100905000Y-15875000D01*
X102235000Y-17205000D02*
X100905000Y-17205000D01*
X103505000Y-14545000D02*
X116265000Y-14545000D01*
X103505000Y-17205000D02*
X103505000Y-14545000D01*
X103505000Y-17205000D02*
X116265000Y-17205000D01*
X116265000Y-17205000D02*
X116265000Y-14545000D01*
%TO.C,Q1*%
X76745000Y-45905000D02*
X79465000Y-45905000D01*
X76745000Y-46885000D02*
X76745000Y-45905000D01*
X76745000Y-49645000D02*
X76745000Y-50625000D01*
X79325000Y-50625000D02*
X76745000Y-50625000D01*
X80115000Y-50805000D02*
X79635000Y-50805000D01*
X79875000Y-50475000D01*
X80115000Y-50805000D01*
G36*
X80115000Y-50805000D02*
G01*
X79635000Y-50805000D01*
X79875000Y-50475000D01*
X80115000Y-50805000D01*
G37*
%TO.C,R22*%
X70067500Y-31342064D02*
X70067500Y-30887936D01*
X71537500Y-31342064D02*
X71537500Y-30887936D01*
%TO.C,TP2*%
X149930000Y-46465000D02*
X149930000Y-51365000D01*
X149930000Y-51365000D02*
X152330000Y-51365000D01*
X152330000Y-46465000D02*
X149930000Y-46465000D01*
X152330000Y-51365000D02*
X152330000Y-46465000D01*
%TO.C,SW1*%
X93855000Y-54000000D02*
X93855000Y-53000000D01*
X93905000Y-45900000D02*
X93905000Y-51900000D01*
X94855000Y-54000000D02*
X93855000Y-54000000D01*
X95855000Y-45900000D02*
X98455000Y-45900000D01*
X95855000Y-51900000D02*
X98455000Y-51900000D01*
X100405000Y-45900000D02*
X100405000Y-51900000D01*
%TO.C,TP1*%
X117545000Y-46465000D02*
X117545000Y-51365000D01*
X117545000Y-51365000D02*
X119945000Y-51365000D01*
X119945000Y-46465000D02*
X117545000Y-46465000D01*
X119945000Y-51365000D02*
X119945000Y-46465000D01*
%TO.C,L2*%
X146417500Y-29260000D02*
X149417500Y-29260000D01*
X146417500Y-41860000D02*
X146417500Y-29260000D01*
X149417500Y-41860000D02*
X146417500Y-41860000D01*
X156017500Y-29260000D02*
X159017500Y-29260000D01*
X159017500Y-29260000D02*
X159017500Y-41860000D01*
X159017500Y-41860000D02*
X156017500Y-41860000D01*
%TO.C,U6*%
X36780000Y-27180000D02*
X36780000Y-32500000D01*
X36780000Y-32500000D02*
X47060000Y-32500000D01*
X39270000Y-27240000D02*
X39270000Y-32440000D01*
X39270000Y-32440000D02*
X44570000Y-32440000D01*
X40920000Y-27240000D02*
X39270000Y-27240000D01*
X44570000Y-27240000D02*
X42920000Y-27240000D01*
X44570000Y-32440000D02*
X44570000Y-27240000D01*
X47060000Y-27180000D02*
X36780000Y-27180000D01*
X47060000Y-32500000D02*
X47060000Y-27180000D01*
%TO.C,R17*%
X57526250Y-25468314D02*
X57526250Y-25014186D01*
X58996250Y-25468314D02*
X58996250Y-25014186D01*
%TO.C,D5*%
X154610000Y-51617500D02*
X158670000Y-51617500D01*
X158670000Y-49347500D02*
X154610000Y-49347500D01*
X158670000Y-51617500D02*
X158670000Y-49347500D01*
%TO.C,Q5*%
X59105000Y-47805000D02*
X61685000Y-47805000D01*
X61685000Y-48785000D02*
X61685000Y-47805000D01*
X61685000Y-51545000D02*
X61685000Y-52525000D01*
X61685000Y-52525000D02*
X58965000Y-52525000D01*
X58555000Y-47955000D02*
X58315000Y-47625000D01*
X58795000Y-47625000D01*
X58555000Y-47955000D01*
G36*
X58555000Y-47955000D02*
G01*
X58315000Y-47625000D01*
X58795000Y-47625000D01*
X58555000Y-47955000D01*
G37*
%TO.C,C9*%
X70861250Y-18153747D02*
X70861250Y-18676253D01*
X72331250Y-18153747D02*
X72331250Y-18676253D01*
%TO.C,R4*%
X63400000Y-31342064D02*
X63400000Y-30887936D01*
X64870000Y-31342064D02*
X64870000Y-30887936D01*
%TO.C,J1*%
X14860000Y-49937929D02*
X14860000Y-50392071D01*
X14860000Y-52477929D02*
X14860000Y-52875000D01*
X15620000Y-49937929D02*
X15620000Y-50392071D01*
X15620000Y-52477929D02*
X15620000Y-52875000D01*
X17400000Y-49937929D02*
X17400000Y-50392071D01*
X17400000Y-52477929D02*
X17400000Y-52875000D01*
X18160000Y-49937929D02*
X18160000Y-50392071D01*
X18160000Y-52477929D02*
X18160000Y-52875000D01*
X19050000Y-52875000D02*
X19050000Y-55535000D01*
X19050000Y-55535000D02*
X39370000Y-55535000D01*
X19940000Y-49937929D02*
X19940000Y-50392071D01*
X19940000Y-52477929D02*
X19940000Y-52875000D01*
X20700000Y-49937929D02*
X20700000Y-50392071D01*
X20700000Y-52477929D02*
X20700000Y-52875000D01*
X21590000Y-52875000D02*
X21590000Y-55535000D01*
X22480000Y-49937929D02*
X22480000Y-50392071D01*
X22480000Y-52477929D02*
X22480000Y-52875000D01*
X23240000Y-49937929D02*
X23240000Y-50392071D01*
X23240000Y-52477929D02*
X23240000Y-52875000D01*
X24130000Y-52875000D02*
X24130000Y-55535000D01*
X25020000Y-49937929D02*
X25020000Y-50392071D01*
X25020000Y-52477929D02*
X25020000Y-52875000D01*
X25780000Y-49937929D02*
X25780000Y-50392071D01*
X25780000Y-52477929D02*
X25780000Y-52875000D01*
X26670000Y-52875000D02*
X26670000Y-55535000D01*
X27560000Y-49937929D02*
X27560000Y-50392071D01*
X27560000Y-52477929D02*
X27560000Y-52875000D01*
X28320000Y-49937929D02*
X28320000Y-50392071D01*
X28320000Y-52477929D02*
X28320000Y-52875000D01*
X29210000Y-52875000D02*
X29210000Y-55535000D01*
X30100000Y-49937929D02*
X30100000Y-50392071D01*
X30100000Y-52477929D02*
X30100000Y-52875000D01*
X30860000Y-49937929D02*
X30860000Y-50392071D01*
X30860000Y-52477929D02*
X30860000Y-52875000D01*
X31750000Y-52875000D02*
X31750000Y-55535000D01*
X32640000Y-49937929D02*
X32640000Y-50392071D01*
X32640000Y-52477929D02*
X32640000Y-52875000D01*
X33400000Y-49937929D02*
X33400000Y-50392071D01*
X33400000Y-52477929D02*
X33400000Y-52875000D01*
X34290000Y-52875000D02*
X34290000Y-55535000D01*
X35180000Y-49937929D02*
X35180000Y-50392071D01*
X35180000Y-52477929D02*
X35180000Y-52875000D01*
X35940000Y-49937929D02*
X35940000Y-50392071D01*
X35940000Y-52477929D02*
X35940000Y-52875000D01*
X36830000Y-52875000D02*
X36830000Y-55535000D01*
X37720000Y-49937929D02*
X37720000Y-50392071D01*
X37720000Y-52477929D02*
X37720000Y-52875000D01*
X38480000Y-49937929D02*
X38480000Y-50392071D01*
X38480000Y-52477929D02*
X38480000Y-52875000D01*
X39370000Y-52875000D02*
X39370000Y-55535000D01*
X40260000Y-49937929D02*
X40260000Y-50392071D01*
X40260000Y-52477929D02*
X40260000Y-52875000D01*
X41020000Y-49937929D02*
X41020000Y-50392071D01*
X41020000Y-52477929D02*
X41020000Y-52875000D01*
X41910000Y-52875000D02*
X41910000Y-55535000D01*
X41910000Y-55535000D02*
X54670000Y-55535000D01*
X42800000Y-49937929D02*
X42800000Y-50392071D01*
X42800000Y-52477929D02*
X42800000Y-52875000D01*
X43560000Y-49937929D02*
X43560000Y-50392071D01*
X43560000Y-52477929D02*
X43560000Y-52875000D01*
X44450000Y-52875000D02*
X44450000Y-55535000D01*
X45340000Y-49937929D02*
X45340000Y-50392071D01*
X45340000Y-52477929D02*
X45340000Y-52875000D01*
X46100000Y-49937929D02*
X46100000Y-50392071D01*
X46100000Y-52477929D02*
X46100000Y-52875000D01*
X46990000Y-52875000D02*
X46990000Y-55535000D01*
X47880000Y-49937929D02*
X47880000Y-50392071D01*
X47880000Y-52477929D02*
X47880000Y-52875000D01*
X48640000Y-49937929D02*
X48640000Y-50392071D01*
X48640000Y-52477929D02*
X48640000Y-52875000D01*
X49530000Y-52875000D02*
X49530000Y-55535000D01*
X50420000Y-49937929D02*
X50420000Y-50392071D01*
X50420000Y-52477929D02*
X50420000Y-52875000D01*
X51180000Y-49937929D02*
X51180000Y-50392071D01*
X51180000Y-52477929D02*
X51180000Y-52875000D01*
X52070000Y-52875000D02*
X52070000Y-55535000D01*
X52960000Y-50005000D02*
X52960000Y-50392071D01*
X52960000Y-52477929D02*
X52960000Y-52875000D01*
X53340000Y-47625000D02*
X54610000Y-47625000D01*
X53720000Y-50005000D02*
X53720000Y-50392071D01*
X53720000Y-52477929D02*
X53720000Y-52875000D01*
X54610000Y-47625000D02*
X54610000Y-48895000D01*
X54670000Y-52875000D02*
X13910000Y-52875000D01*
X54670000Y-55535000D02*
X54670000Y-52875000D01*
%TO.C,U7*%
X36780000Y-34800000D02*
X36780000Y-40120000D01*
X36780000Y-40120000D02*
X47060000Y-40120000D01*
X39270000Y-34860000D02*
X39270000Y-40060000D01*
X39270000Y-40060000D02*
X44570000Y-40060000D01*
X40920000Y-34860000D02*
X39270000Y-34860000D01*
X44570000Y-34860000D02*
X42920000Y-34860000D01*
X44570000Y-40060000D02*
X44570000Y-34860000D01*
X47060000Y-34800000D02*
X36780000Y-34800000D01*
X47060000Y-40120000D02*
X47060000Y-34800000D01*
%TO.C,R2*%
X84227936Y-45942500D02*
X84682064Y-45942500D01*
X84227936Y-47412500D02*
X84682064Y-47412500D01*
%TO.C,D2*%
X164447500Y-26035000D02*
X164447500Y-29210000D01*
X164447500Y-26035000D02*
X169957500Y-26035000D01*
X164447500Y-29210000D02*
X169957500Y-29210000D01*
%TO.C,J7*%
X100965000Y-21907500D02*
X100965000Y-20637500D01*
X102235000Y-21907500D02*
X100965000Y-21907500D01*
X103505000Y-19367500D02*
X111125000Y-19367500D01*
X103505000Y-21907500D02*
X103505000Y-19367500D01*
X103505000Y-21907500D02*
X111125000Y-21907500D01*
X111125000Y-21907500D02*
X111125000Y-19367500D01*
%TO.C,R7*%
X48160000Y-37692064D02*
X48160000Y-37237936D01*
X49630000Y-37692064D02*
X49630000Y-37237936D01*
%TO.C,R1*%
X84682064Y-49112500D02*
X84227936Y-49112500D01*
X84682064Y-50582500D02*
X84227936Y-50582500D01*
%TO.C,Q4*%
X59105000Y-28755000D02*
X61685000Y-28755000D01*
X61685000Y-29735000D02*
X61685000Y-28755000D01*
X61685000Y-32495000D02*
X61685000Y-33475000D01*
X61685000Y-33475000D02*
X58965000Y-33475000D01*
X58555000Y-28905000D02*
X58315000Y-28575000D01*
X58795000Y-28575000D01*
X58555000Y-28905000D01*
G36*
X58555000Y-28905000D02*
G01*
X58315000Y-28575000D01*
X58795000Y-28575000D01*
X58555000Y-28905000D01*
G37*
%TO.C,R10*%
X156937064Y-46397500D02*
X155482936Y-46397500D01*
X156937064Y-48217500D02*
X155482936Y-48217500D01*
%TO.C,D7*%
X25082500Y-28275000D02*
X25082500Y-22765000D01*
X25082500Y-28275000D02*
X28257500Y-28275000D01*
X28257500Y-28275000D02*
X28257500Y-22765000D01*
%TO.C,C6*%
X193177500Y-43111937D02*
X193177500Y-45797500D01*
X193177500Y-43111937D02*
X194241937Y-42047500D01*
X193177500Y-51503063D02*
X193177500Y-48817500D01*
X193177500Y-51503063D02*
X194241937Y-52567500D01*
X194241937Y-42047500D02*
X203697500Y-42047500D01*
X194241937Y-52567500D02*
X203697500Y-52567500D01*
X203697500Y-42047500D02*
X203697500Y-45797500D01*
X203697500Y-52567500D02*
X203697500Y-48817500D01*
%TO.C,Q3*%
X59105000Y-35105000D02*
X61685000Y-35105000D01*
X61685000Y-36085000D02*
X61685000Y-35105000D01*
X61685000Y-38845000D02*
X61685000Y-39825000D01*
X61685000Y-39825000D02*
X58965000Y-39825000D01*
X58555000Y-35255000D02*
X58315000Y-34925000D01*
X58795000Y-34925000D01*
X58555000Y-35255000D01*
G36*
X58555000Y-35255000D02*
G01*
X58315000Y-34925000D01*
X58795000Y-34925000D01*
X58555000Y-35255000D01*
G37*
%TO.C,C13*%
X70067500Y-37203746D02*
X70067500Y-37726252D01*
X71537500Y-37203746D02*
X71537500Y-37726252D01*
%TO.C,U2*%
X165990000Y-30360000D02*
X165990000Y-31310000D01*
X165990000Y-40760000D02*
X165990000Y-39810000D01*
X167490000Y-30360000D02*
X165990000Y-30360000D01*
X167490000Y-40760000D02*
X165990000Y-40760000D01*
X163427500Y-31310000D02*
X163187500Y-30980000D01*
X163667500Y-30980000D01*
X163427500Y-31310000D01*
G36*
X163427500Y-31310000D02*
G01*
X163187500Y-30980000D01*
X163667500Y-30980000D01*
X163427500Y-31310000D01*
G37*
%TO.C,C7*%
X90226248Y-52292500D02*
X90748752Y-52292500D01*
X90226248Y-53762500D02*
X90748752Y-53762500D01*
%TO.C,R6*%
X48160000Y-30072064D02*
X48160000Y-29617936D01*
X49630000Y-30072064D02*
X49630000Y-29617936D01*
%TO.C,C11*%
X67051250Y-18676253D02*
X67051250Y-18153747D01*
X68521250Y-18676253D02*
X68521250Y-18153747D01*
%TO.C,C12*%
X67845000Y-37203747D02*
X67845000Y-37726253D01*
X69315000Y-37203747D02*
X69315000Y-37726253D01*
%TO.C,Q2*%
X89585000Y-45905000D02*
X92165000Y-45905000D01*
X92165000Y-46885000D02*
X92165000Y-45905000D01*
X92165000Y-49645000D02*
X92165000Y-50625000D01*
X92165000Y-50625000D02*
X89445000Y-50625000D01*
X89035000Y-46055000D02*
X88795000Y-45725000D01*
X89275000Y-45725000D01*
X89035000Y-46055000D01*
G36*
X89035000Y-46055000D02*
G01*
X88795000Y-45725000D01*
X89275000Y-45725000D01*
X89035000Y-46055000D01*
G37*
%TO.C,R15*%
X61336250Y-25468314D02*
X61336250Y-25014186D01*
X62806250Y-25468314D02*
X62806250Y-25014186D01*
%TO.C,R5*%
X34190000Y-29612936D02*
X34190000Y-30067064D01*
X35660000Y-29612936D02*
X35660000Y-30067064D01*
%TO.C,U1*%
X133605000Y-30360000D02*
X133605000Y-31310000D01*
X133605000Y-40760000D02*
X133605000Y-39810000D01*
X135105000Y-30360000D02*
X133605000Y-30360000D01*
X135105000Y-40760000D02*
X133605000Y-40760000D01*
X131042500Y-31310000D02*
X130802500Y-30980000D01*
X131282500Y-30980000D01*
X131042500Y-31310000D01*
G36*
X131042500Y-31310000D02*
G01*
X130802500Y-30980000D01*
X131282500Y-30980000D01*
X131042500Y-31310000D01*
G37*
%TO.C,R8*%
X34190000Y-37232936D02*
X34190000Y-37687064D01*
X35660000Y-37232936D02*
X35660000Y-37687064D01*
%TO.C,R12*%
X22125000Y-23404564D02*
X22125000Y-22950436D01*
X23595000Y-23404564D02*
X23595000Y-22950436D01*
%TO.C,C10*%
X67932500Y-16016250D02*
X72017500Y-16016250D01*
X72017500Y-14146250D02*
X67932500Y-14146250D01*
X72017500Y-16016250D02*
X72017500Y-14146250D01*
%TO.C,J2*%
X34110000Y-14022500D02*
X52250000Y-14022500D01*
X34110000Y-15132500D02*
X34110000Y-14022500D01*
X35135000Y-15132500D02*
X34110000Y-15132500D01*
X35135000Y-15672500D02*
X35135000Y-15132500D01*
X38115000Y-19642500D02*
X37290000Y-19642500D01*
X48245000Y-19642500D02*
X48245000Y-21442500D01*
X49070000Y-19642500D02*
X48245000Y-19642500D01*
X51225000Y-15132500D02*
X51225000Y-15672500D01*
X52250000Y-14022500D02*
X52250000Y-15132500D01*
X52250000Y-15132500D02*
X51225000Y-15132500D01*
%TO.C,R16*%
X68956250Y-18187936D02*
X68956250Y-18642064D01*
X70426250Y-18187936D02*
X70426250Y-18642064D01*
%TO.C,R3*%
X63400000Y-37692064D02*
X63400000Y-37237936D01*
X64870000Y-37692064D02*
X64870000Y-37237936D01*
%TO.C,J3*%
X13000000Y-24785000D02*
X13000000Y-34905000D01*
X13000000Y-34905000D02*
X18970000Y-34905000D01*
X13760000Y-25545000D02*
X13760000Y-29845000D01*
X13760000Y-34145000D02*
X13760000Y-29845000D01*
X16710000Y-24795000D02*
X16710000Y-25545000D01*
X16710000Y-25545000D02*
X13760000Y-25545000D01*
X16710000Y-34145000D02*
X13760000Y-34145000D01*
X16710000Y-34895000D02*
X16710000Y-34145000D01*
X18210000Y-24795000D02*
X18210000Y-26595000D01*
X18210000Y-26595000D02*
X18960000Y-26595000D01*
X18210000Y-28095000D02*
X18210000Y-31595000D01*
X18210000Y-31595000D02*
X18960000Y-31595000D01*
X18210000Y-33095000D02*
X18210000Y-34895000D01*
X18210000Y-34895000D02*
X18960000Y-34895000D01*
X18960000Y-24795000D02*
X18210000Y-24795000D01*
X18960000Y-26595000D02*
X18960000Y-24795000D01*
X18960000Y-28095000D02*
X18210000Y-28095000D01*
X18960000Y-31595000D02*
X18960000Y-28095000D01*
X18960000Y-33095000D02*
X18210000Y-33095000D01*
X18960000Y-34895000D02*
X18960000Y-33095000D01*
X18970000Y-24785000D02*
X13000000Y-24785000D01*
X18970000Y-34905000D02*
X18970000Y-24785000D01*
X19260000Y-24495000D02*
X18010000Y-24495000D01*
X19260000Y-25745000D02*
X19260000Y-24495000D01*
%TO.C,R18*%
X59431250Y-25468314D02*
X59431250Y-25014186D01*
X60901250Y-25468314D02*
X60901250Y-25014186D01*
%TO.C,R13*%
X19585000Y-22950436D02*
X19585000Y-23404564D01*
X21055000Y-22950436D02*
X21055000Y-23404564D01*
%TO.C,K1*%
X21392500Y-33230000D02*
X23592500Y-33230000D01*
X21392500Y-35330000D02*
X21392500Y-33230000D01*
X21592500Y-33430000D02*
X29392500Y-33430000D01*
X21592500Y-46130000D02*
X21592500Y-33430000D01*
X23754500Y-38413000D02*
X23754500Y-39048000D01*
X23754500Y-39048000D02*
X24414500Y-39048000D01*
X24414500Y-38540000D02*
X24414500Y-39556000D01*
X24414500Y-39556000D02*
X26319500Y-39556000D01*
X25938500Y-38540000D02*
X25303500Y-39556000D01*
X26319500Y-38540000D02*
X24414500Y-38540000D01*
X26319500Y-38540000D02*
X26319500Y-39556000D01*
X26954500Y-38413000D02*
X26954500Y-39048000D01*
X26954500Y-39048000D02*
X26319500Y-39048000D01*
X29392500Y-33430000D02*
X29392500Y-46130000D01*
X29392500Y-46130000D02*
X21592500Y-46130000D01*
%TO.C,D6*%
X186995000Y-51617500D02*
X191055000Y-51617500D01*
X191055000Y-49347500D02*
X186995000Y-49347500D01*
X191055000Y-51617500D02*
X191055000Y-49347500D01*
%TO.C,D4*%
X122225000Y-51617500D02*
X126285000Y-51617500D01*
X126285000Y-49347500D02*
X122225000Y-49347500D01*
X126285000Y-51617500D02*
X126285000Y-49347500D01*
%TO.C,U8*%
X38100000Y-23522500D02*
X37300000Y-23522500D01*
X38100000Y-23522500D02*
X38900000Y-23522500D01*
X38100000Y-26642500D02*
X37300000Y-26642500D01*
X38100000Y-26642500D02*
X38900000Y-26642500D01*
X36800000Y-23572500D02*
X36560000Y-23242500D01*
X37040000Y-23242500D01*
X36800000Y-23572500D01*
G36*
X36800000Y-23572500D02*
G01*
X36560000Y-23242500D01*
X37040000Y-23242500D01*
X36800000Y-23572500D01*
G37*
%TO.C,C5*%
X193177500Y-24198063D02*
X193177500Y-21512500D01*
X193177500Y-24198063D02*
X194241937Y-25262500D01*
X194241937Y-14742500D02*
X203697500Y-14742500D01*
X194241937Y-25262500D02*
X203697500Y-25262500D01*
X203697500Y-14742500D02*
X203697500Y-18492500D01*
X203697500Y-25262500D02*
X203697500Y-21512500D01*
%TO.C,R11*%
X189322064Y-46397500D02*
X187867936Y-46397500D01*
X189322064Y-48217500D02*
X187867936Y-48217500D01*
%TO.C,J4*%
X13000000Y-36215000D02*
X13000000Y-46335000D01*
X13000000Y-46335000D02*
X18970000Y-46335000D01*
X13760000Y-36975000D02*
X13760000Y-41275000D01*
X13760000Y-45575000D02*
X13760000Y-41275000D01*
X16710000Y-36225000D02*
X16710000Y-36975000D01*
X16710000Y-36975000D02*
X13760000Y-36975000D01*
X16710000Y-45575000D02*
X13760000Y-45575000D01*
X16710000Y-46325000D02*
X16710000Y-45575000D01*
X18210000Y-36225000D02*
X18210000Y-38025000D01*
X18210000Y-38025000D02*
X18960000Y-38025000D01*
X18210000Y-39525000D02*
X18210000Y-43025000D01*
X18210000Y-43025000D02*
X18960000Y-43025000D01*
X18210000Y-44525000D02*
X18210000Y-46325000D01*
X18210000Y-46325000D02*
X18960000Y-46325000D01*
X18960000Y-36225000D02*
X18210000Y-36225000D01*
X18960000Y-38025000D02*
X18960000Y-36225000D01*
X18960000Y-39525000D02*
X18210000Y-39525000D01*
X18960000Y-43025000D02*
X18960000Y-39525000D01*
X18960000Y-44525000D02*
X18210000Y-44525000D01*
X18960000Y-46325000D02*
X18960000Y-44525000D01*
X18970000Y-36215000D02*
X13000000Y-36215000D01*
X18970000Y-46335000D02*
X18970000Y-36215000D01*
X19260000Y-35925000D02*
X18010000Y-35925000D01*
X19260000Y-37175000D02*
X19260000Y-35925000D01*
%TO.C,C1*%
X128407500Y-24198063D02*
X128407500Y-21512500D01*
X128407500Y-24198063D02*
X129471937Y-25262500D01*
X129471937Y-14742500D02*
X138927500Y-14742500D01*
X129471937Y-25262500D02*
X138927500Y-25262500D01*
X138927500Y-14742500D02*
X138927500Y-18492500D01*
X138927500Y-25262500D02*
X138927500Y-21512500D01*
%TO.C,C8*%
X78683752Y-52292500D02*
X78161248Y-52292500D01*
X78683752Y-53762500D02*
X78161248Y-53762500D01*
%TO.C,C2*%
X128407500Y-43111937D02*
X128407500Y-45797500D01*
X128407500Y-43111937D02*
X129471937Y-42047500D01*
X128407500Y-51503063D02*
X128407500Y-48817500D01*
X128407500Y-51503063D02*
X129471937Y-52567500D01*
X129471937Y-42047500D02*
X138927500Y-42047500D01*
X129471937Y-52567500D02*
X138927500Y-52567500D01*
X138927500Y-42047500D02*
X138927500Y-45797500D01*
X138927500Y-52567500D02*
X138927500Y-48817500D01*
%TO.C,R9*%
X124552064Y-46397500D02*
X123097936Y-46397500D01*
X124552064Y-48217500D02*
X123097936Y-48217500D01*
%TO.C,J5*%
X16450000Y-14545000D02*
X16450000Y-19745000D01*
X29210000Y-14545000D02*
X16450000Y-14545000D01*
X29210000Y-14545000D02*
X29210000Y-17145000D01*
X29210000Y-17145000D02*
X31810000Y-17145000D01*
X30480000Y-14545000D02*
X31810000Y-14545000D01*
X31810000Y-14545000D02*
X31810000Y-15875000D01*
X31810000Y-17145000D02*
X31810000Y-19745000D01*
X31810000Y-19745000D02*
X16450000Y-19745000D01*
%TO.C,U3*%
X198375000Y-30360000D02*
X198375000Y-31310000D01*
X198375000Y-40760000D02*
X198375000Y-39810000D01*
X199875000Y-30360000D02*
X198375000Y-30360000D01*
X199875000Y-40760000D02*
X198375000Y-40760000D01*
X195812500Y-31310000D02*
X195572500Y-30980000D01*
X196052500Y-30980000D01*
X195812500Y-31310000D01*
G36*
X195812500Y-31310000D02*
G01*
X195572500Y-30980000D01*
X196052500Y-30980000D01*
X195812500Y-31310000D01*
G37*
%TO.C,Q6*%
X59105000Y-41455000D02*
X61685000Y-41455000D01*
X61685000Y-42435000D02*
X61685000Y-41455000D01*
X61685000Y-45195000D02*
X61685000Y-46175000D01*
X61685000Y-46175000D02*
X58965000Y-46175000D01*
X58555000Y-41605000D02*
X58315000Y-41275000D01*
X58795000Y-41275000D01*
X58555000Y-41605000D01*
G36*
X58555000Y-41605000D02*
G01*
X58315000Y-41275000D01*
X58795000Y-41275000D01*
X58555000Y-41605000D01*
G37*
D13*
%TO.C,U4*%
X75455000Y-14675000D02*
X93455000Y-14675000D01*
X75455000Y-33875000D02*
X75455000Y-33075000D01*
X75455000Y-33875000D02*
X76755000Y-33875000D01*
X92155000Y-33875000D02*
X93455000Y-33875000D01*
X93455000Y-33875000D02*
X93455000Y-33075000D01*
D14*
%TO.C,D1*%
X132062500Y-26035000D02*
X132062500Y-29210000D01*
X132062500Y-26035000D02*
X137572500Y-26035000D01*
X132062500Y-29210000D02*
X137572500Y-29210000D01*
%TO.C,R20*%
X63400000Y-44042064D02*
X63400000Y-43587936D01*
X64870000Y-44042064D02*
X64870000Y-43587936D01*
%TO.C,D3*%
X196832500Y-26035000D02*
X196832500Y-29210000D01*
X196832500Y-26035000D02*
X202342500Y-26035000D01*
X196832500Y-29210000D02*
X202342500Y-29210000D01*
%TO.C,L3*%
X178802500Y-29260000D02*
X181802500Y-29260000D01*
X178802500Y-41860000D02*
X178802500Y-29260000D01*
X181802500Y-41860000D02*
X178802500Y-41860000D01*
X188402500Y-29260000D02*
X191402500Y-29260000D01*
X191402500Y-29260000D02*
X191402500Y-41860000D01*
X191402500Y-41860000D02*
X188402500Y-41860000D01*
%TO.C,R21*%
X67845000Y-31342064D02*
X67845000Y-30887936D01*
X69315000Y-31342064D02*
X69315000Y-30887936D01*
%TO.C,C3*%
X160792500Y-24198063D02*
X160792500Y-21512500D01*
X160792500Y-24198063D02*
X161856937Y-25262500D01*
X161856937Y-14742500D02*
X171312500Y-14742500D01*
X161856937Y-25262500D02*
X171312500Y-25262500D01*
X171312500Y-14742500D02*
X171312500Y-18492500D01*
X171312500Y-25262500D02*
X171312500Y-21512500D01*
%TO.C,L1*%
X114032500Y-29260000D02*
X117032500Y-29260000D01*
X114032500Y-41860000D02*
X114032500Y-29260000D01*
X117032500Y-41860000D02*
X114032500Y-41860000D01*
X123632500Y-29260000D02*
X126632500Y-29260000D01*
X126632500Y-29260000D02*
X126632500Y-41860000D01*
X126632500Y-41860000D02*
X123632500Y-41860000D01*
%TO.C,C4*%
X160792500Y-43111937D02*
X160792500Y-45797500D01*
X160792500Y-43111937D02*
X161856937Y-42047500D01*
X160792500Y-51503063D02*
X160792500Y-48817500D01*
X160792500Y-51503063D02*
X161856937Y-52567500D01*
X161856937Y-42047500D02*
X171312500Y-42047500D01*
X161856937Y-52567500D02*
X171312500Y-52567500D01*
X171312500Y-42047500D02*
X171312500Y-45797500D01*
X171312500Y-52567500D02*
X171312500Y-48817500D01*
%TD*%
M02*
