M48
; DRILL file {KiCad 8.0.4} date 2026-01-19T09:10:26+0700
; FORMAT={-:-/ absolute / metric / decimal}
; #@! TF.CreationDate,2026-01-19T09:10:26+07:00
; #@! TF.GenerationSoftware,Kicad,Pcbnew,8.0.4
; #@! TF.FileFunction,Plated,1,2,PTH
FMAT,2
METRIC
; #@! TA.AperFunction,Plated,PTH,ViaDrill
T1C0.600
; #@! TA.AperFunction,Plated,PTH,ComponentDrill
T2C0.600
; #@! TA.AperFunction,Plated,PTH,ComponentDrill
T3C0.800
; #@! TA.AperFunction,Plated,PTH,ComponentDrill
T4C0.950
; #@! TA.AperFunction,Plated,PTH,ViaDrill
T5C1.000
; #@! TA.AperFunction,Plated,PTH,ComponentDrill
T6C1.000
%
G90
G05
T1
X13.97Y-20.32
X13.97Y-21.59
X13.97Y-22.86
X13.97Y-24.13
X13.97Y-53.657
X13.97Y-54.927
X13.97Y-56.197
X13.97Y-57.467
X15.24Y-23.495
X15.24Y-56.832
X15.24Y-20.955
X15.24Y-22.225
X15.24Y-54.292
X15.24Y-55.562
X16.51Y-20.32
X16.51Y-21.59
X16.51Y-22.86
X16.51Y-24.13
X16.51Y-53.657
X16.51Y-54.927
X16.51Y-56.197
X16.51Y-57.467
X19.367Y-39.211
X19.367Y-40.64
X20.796Y-39.211
X20.796Y-40.64
X25.4Y-43.021
X31.75Y-28.099
X31.75Y-29.369
X33.02Y-28.734
X34.29Y-46.799
X34.608Y-24.13
X34.608Y-26.035
X35.56Y-22.225
X36.83Y-44.767
X38.1Y-17.145
X38.1Y-18.415
X39.37Y-17.78
X40.64Y-36.195
X40.64Y-37.465
X40.64Y-38.735
X40.64Y-46.672
X40.64Y-55.562
X41.593Y-24.13
X41.593Y-26.035
X41.91Y-46.037
X41.91Y-38.1
X41.91Y-47.307
X41.91Y-33.65
X41.91Y-36.83
X41.91Y-56.197
X43.18Y-36.195
X43.18Y-37.465
X43.18Y-38.735
X44.45Y-46.038
X44.45Y-47.308
X45.72Y-46.672
X50.324Y-22.511
X50.8Y-37.465
X51.594Y-40.799
X51.848Y-20.955
X56.039Y-26.987
X56.039Y-29.527
X58.375Y-34.29
X60.801Y-34.29
X60.801Y-39.211
X60.801Y-45.561
X60.801Y-50.165
X60.801Y-51.911
X62.23Y-34.29
X63.659Y-15.24
X63.659Y-19.05
X64.929Y-26.67
X64.929Y-27.94
X64.929Y-14.605
X64.929Y-15.875
X64.929Y-18.415
X66.199Y-15.24
X66.199Y-17.145
X66.199Y-19.05
X66.199Y-27.305
X66.675Y-39.688
X66.675Y-42.862
X67.627Y-26.194
X68.58Y-33.337
X69.532Y-46.672
X69.532Y-51.117
X69.691Y-39.687
X69.85Y-26.194
X70.802Y-35.084
X71.755Y-23.336
X73.343Y-18.415
X73.66Y-35.242
X73.66Y-36.512
X73.66Y-37.783
X74.93Y-37.148
X74.93Y-35.877
X76.2Y-35.242
X76.2Y-36.512
X76.2Y-37.783
X77.47Y-44.514
X78.105Y-15.875
X78.105Y-31.115
X83.185Y-35.242
X83.185Y-36.512
X83.185Y-37.783
X83.344Y-44.926
X84.455Y-37.148
X84.455Y-35.877
X85.566Y-51.594
X85.725Y-35.242
X85.725Y-36.512
X85.725Y-37.783
X89.535Y-36.83
X90.805Y-15.875
X90.805Y-23.495
X90.805Y-31.115
X91.44Y-44.514
X93.027Y-35.814
X97.091Y-17.272
X97.155Y-48.9
X98.742Y-26.67
X98.742Y-29.21
X98.742Y-41.91
X99.123Y-15.748
X107.315Y-18.891
X107.315Y-46.038
X107.315Y-47.307
X107.315Y-48.578
X107.315Y-51.752
X107.315Y-53.023
X107.315Y-54.293
X107.95Y-17.621
X108.585Y-47.942
X108.585Y-53.657
X108.585Y-18.891
X108.585Y-46.672
X108.585Y-52.387
X109.22Y-17.621
X109.855Y-18.891
X109.855Y-46.038
X109.855Y-47.307
X109.855Y-48.578
X109.855Y-51.752
X109.855Y-53.023
X109.855Y-54.293
X111.125Y-47.942
X111.125Y-53.657
X111.125Y-46.672
X111.125Y-52.387
X112.395Y-46.038
X112.395Y-47.307
X112.395Y-48.578
X112.395Y-51.752
X112.395Y-53.023
X112.395Y-54.293
X113.347Y-26.67
X123.031Y-14.922
X123.031Y-16.192
X123.031Y-18.732
X123.031Y-20.002
X123.031Y-21.273
X123.031Y-23.812
X123.031Y-25.083
X124.301Y-16.828
X124.301Y-20.637
X124.301Y-24.447
X124.301Y-15.557
X124.301Y-19.367
X124.301Y-23.177
X125.571Y-14.922
X125.571Y-16.192
X125.571Y-18.732
X125.571Y-20.002
X125.571Y-21.273
X125.571Y-23.812
X125.571Y-25.083
X128.27Y-16.828
X128.905Y-15.557
X129.54Y-16.828
X130.175Y-15.557
X130.81Y-16.828
X140.335Y-26.352
X140.335Y-27.622
X140.335Y-28.893
X141.605Y-28.258
X141.605Y-18.732
X141.605Y-20.002
X141.605Y-21.273
X141.605Y-26.987
X141.605Y-46.038
X141.605Y-47.307
X141.605Y-48.578
X142.875Y-20.637
X142.875Y-47.942
X142.875Y-19.367
X142.875Y-26.352
X142.875Y-27.622
X142.875Y-28.893
X142.875Y-46.672
X144.145Y-28.258
X144.145Y-18.732
X144.145Y-20.002
X144.145Y-21.273
X144.145Y-26.987
X144.145Y-46.038
X144.145Y-47.307
X144.145Y-48.578
X147.002Y-55.562
X148.272Y-56.197
X149.542Y-53.657
X149.542Y-55.562
X150.495Y-18.732
X150.495Y-20.002
X150.495Y-21.273
X151.765Y-20.637
X151.765Y-19.367
X153.035Y-18.732
X153.035Y-20.002
X153.035Y-21.273
X160.655Y-16.828
X161.29Y-15.557
X161.925Y-16.828
X162.56Y-15.557
X163.195Y-16.828
X172.72Y-26.352
X172.72Y-27.622
X172.72Y-28.893
X173.99Y-28.258
X173.99Y-18.732
X173.99Y-20.002
X173.99Y-21.273
X173.99Y-26.987
X173.99Y-46.038
X173.99Y-47.307
X173.99Y-48.578
X175.26Y-20.637
X175.26Y-47.942
X175.26Y-19.367
X175.26Y-26.352
X175.26Y-27.622
X175.26Y-28.893
X175.26Y-46.672
X176.53Y-28.258
X176.53Y-18.732
X176.53Y-20.002
X176.53Y-21.273
X176.53Y-26.987
X176.53Y-46.038
X176.53Y-47.307
X176.53Y-48.578
X193.04Y-16.828
X193.675Y-15.557
X194.31Y-16.828
X194.945Y-15.557
X195.58Y-16.828
X205.105Y-26.352
X205.105Y-27.622
X205.105Y-28.893
X206.375Y-28.258
X206.375Y-18.732
X206.375Y-20.002
X206.375Y-21.273
X206.375Y-26.987
X206.375Y-46.038
X206.375Y-47.307
X206.375Y-48.578
X207.645Y-20.637
X207.645Y-47.942
X207.645Y-19.367
X207.645Y-26.352
X207.645Y-27.622
X207.645Y-28.893
X207.645Y-46.672
X208.915Y-28.258
X208.915Y-18.732
X208.915Y-20.002
X208.915Y-21.273
X208.915Y-26.987
X208.915Y-46.038
X208.915Y-47.307
X208.915Y-48.578
T2
X137.795Y-32.385
X137.795Y-33.655
X137.795Y-37.465
X137.795Y-38.735
X139.065Y-31.75
X139.065Y-33.02
X139.065Y-34.29
X139.065Y-35.56
X139.065Y-36.83
X139.065Y-38.1
X139.065Y-39.37
X140.335Y-33.655
X140.335Y-34.925
X140.335Y-36.195
X140.335Y-37.465
X141.605Y-31.75
X141.605Y-33.02
X141.605Y-34.29
X141.605Y-35.56
X141.605Y-36.83
X141.605Y-38.1
X141.605Y-39.37
X142.875Y-32.385
X142.875Y-33.655
X142.875Y-37.465
X142.875Y-38.735
X170.18Y-32.385
X170.18Y-33.655
X170.18Y-37.465
X170.18Y-38.735
X171.45Y-31.75
X171.45Y-33.02
X171.45Y-34.29
X171.45Y-35.56
X171.45Y-36.83
X171.45Y-38.1
X171.45Y-39.37
X172.72Y-33.655
X172.72Y-34.925
X172.72Y-36.195
X172.72Y-37.465
X173.99Y-31.75
X173.99Y-33.02
X173.99Y-34.29
X173.99Y-35.56
X173.99Y-36.83
X173.99Y-38.1
X173.99Y-39.37
X175.26Y-32.385
X175.26Y-33.655
X175.26Y-37.465
X175.26Y-38.735
X202.565Y-32.385
X202.565Y-33.655
X202.565Y-37.465
X202.565Y-38.735
X203.835Y-31.75
X203.835Y-33.02
X203.835Y-34.29
X203.835Y-35.56
X203.835Y-36.83
X203.835Y-38.1
X203.835Y-39.37
X205.105Y-33.655
X205.105Y-34.925
X205.105Y-36.195
X205.105Y-37.465
X206.375Y-31.75
X206.375Y-33.02
X206.375Y-34.29
X206.375Y-35.56
X206.375Y-36.83
X206.375Y-38.1
X206.375Y-39.37
X207.645Y-32.385
X207.645Y-33.655
X207.645Y-37.465
X207.645Y-38.735
T3
X38.11Y-28.57
X38.11Y-31.11
X38.11Y-36.19
X38.11Y-38.73
X45.73Y-28.57
X45.73Y-31.11
X45.73Y-36.19
X45.73Y-38.73
T4
X16.51Y-27.345
X16.51Y-29.845
X16.51Y-32.345
X16.51Y-38.735
X16.51Y-41.275
X16.51Y-43.815
T5
X39.37Y-15.875
X41.91Y-15.938
X44.45Y-15.875
X46.99Y-15.875
X79.375Y-24.765
X79.375Y-27.305
X80.645Y-15.875
X81.915Y-27.305
X83.185Y-15.875
X85.725Y-15.875
X88.265Y-15.875
X88.265Y-18.415
X88.265Y-20.955
X88.265Y-24.765
X88.265Y-27.305
X88.265Y-29.845
T6
X15.24Y-48.895
X15.24Y-51.435
X17.78Y-15.875
X17.78Y-18.415
X17.78Y-48.895
X17.78Y-51.435
X20.32Y-15.875
X20.32Y-18.415
X20.32Y-48.895
X20.32Y-51.435
X22.86Y-15.875
X22.86Y-18.415
X22.86Y-48.895
X22.86Y-51.435
X22.992Y-34.73
X22.992Y-37.27
X22.992Y-44.89
X25.4Y-15.875
X25.4Y-18.415
X25.4Y-48.895
X25.4Y-51.435
X27.94Y-15.875
X27.94Y-18.415
X27.94Y-48.895
X27.94Y-51.435
X28.072Y-34.73
X28.072Y-37.27
X28.072Y-44.89
X30.48Y-15.875
X30.48Y-18.415
X30.48Y-48.895
X30.48Y-51.435
X33.02Y-48.895
X33.02Y-51.435
X35.56Y-48.895
X35.56Y-51.435
X38.1Y-48.895
X38.1Y-51.435
X40.64Y-48.895
X40.64Y-51.435
X43.18Y-48.895
X43.18Y-51.435
X45.72Y-48.895
X45.72Y-51.435
X48.26Y-48.895
X48.26Y-51.435
X50.8Y-48.895
X50.8Y-51.435
X53.34Y-48.895
X53.34Y-51.435
X102.235Y-15.875
X102.235Y-20.637
X104.775Y-15.875
X104.775Y-20.637
X107.315Y-15.875
X107.315Y-20.637
X109.855Y-15.875
X109.855Y-20.637
X112.395Y-15.875
X114.935Y-15.875
X118.745Y-47.625
X118.745Y-50.165
X151.13Y-47.625
X151.13Y-50.165
X183.515Y-47.625
X183.515Y-50.165
M30
