%TF.GenerationSoftware,KiCad,Pcbnew,8.0.4*%
%TF.CreationDate,2026-01-19T09:08:16+07:00*%
%TF.ProjectId,CTL-4.3,43544c2d-342e-4332-9e6b-696361645f70,rev?*%
%TF.SameCoordinates,Original*%
%TF.FileFunction,Soldermask,Bot*%
%TF.FilePolarity,Negative*%
%FSLAX46Y46*%
G04 Gerber Fmt 4.6, Leading zero omitted, Abs format (unit mm)*
G04 Created by KiCad (PCBNEW 8.0.4) date 2026-01-19 09:08:16*
%MOMM*%
%LPD*%
G01*
G04 APERTURE LIST*
%ADD10C,1.587500*%
%ADD11C,0.793750*%
%ADD12C,0.508000*%
%ADD13C,2.000000*%
%ADD14C,2.000000*%
%ADD15C,1.587500*%
%ADD16O,1.587500X1.587500*%
%ADD17C,1.600000*%
%ADD18O,1.600000X1.600000*%
%ADD19C,1.700000*%
G04 APERTURE END LIST*
D10*
X22860000Y-48895000D02*
X22860000Y-51435000D01*
X38100000Y-48895000D02*
X38100000Y-51435000D01*
D11*
X47386875Y-15875000D02*
G75*
G02*
X46593125Y-15875000I-396875J0D01*
G01*
X46593125Y-15875000D02*
G75*
G02*
X47386875Y-15875000I396875J0D01*
G01*
D10*
X33020000Y-48895000D02*
X33020000Y-51435000D01*
X35560000Y-48895000D02*
X35560000Y-51435000D01*
D11*
X83581875Y-15875000D02*
G75*
G02*
X82788125Y-15875000I-396875J0D01*
G01*
X82788125Y-15875000D02*
G75*
G02*
X83581875Y-15875000I396875J0D01*
G01*
X81041875Y-15875000D02*
G75*
G02*
X80248125Y-15875000I-396875J0D01*
G01*
X80248125Y-15875000D02*
G75*
G02*
X81041875Y-15875000I396875J0D01*
G01*
X88661875Y-29845000D02*
G75*
G02*
X87868125Y-29845000I-396875J0D01*
G01*
X87868125Y-29845000D02*
G75*
G02*
X88661875Y-29845000I396875J0D01*
G01*
D12*
X21050250Y-39211250D02*
G75*
G02*
X20542250Y-39211250I-254000J0D01*
G01*
X20542250Y-39211250D02*
G75*
G02*
X21050250Y-39211250I254000J0D01*
G01*
D11*
X88661875Y-24765000D02*
G75*
G02*
X87868125Y-24765000I-396875J0D01*
G01*
X87868125Y-24765000D02*
G75*
G02*
X88661875Y-24765000I396875J0D01*
G01*
D10*
X27940000Y-48895000D02*
X27940000Y-51435000D01*
D12*
X21050250Y-40640000D02*
G75*
G02*
X20542250Y-40640000I-254000J0D01*
G01*
X20542250Y-40640000D02*
G75*
G02*
X21050250Y-40640000I254000J0D01*
G01*
X19621500Y-39211250D02*
G75*
G02*
X19113500Y-39211250I-254000J0D01*
G01*
X19113500Y-39211250D02*
G75*
G02*
X19621500Y-39211250I254000J0D01*
G01*
D10*
X40640000Y-48895000D02*
X40640000Y-51435000D01*
D11*
X39766875Y-15875000D02*
G75*
G02*
X38973125Y-15875000I-396875J0D01*
G01*
X38973125Y-15875000D02*
G75*
G02*
X39766875Y-15875000I396875J0D01*
G01*
D10*
X30480000Y-48895000D02*
X30480000Y-51435000D01*
D11*
X42306875Y-15938500D02*
G75*
G02*
X41513125Y-15938500I-396875J0D01*
G01*
X41513125Y-15938500D02*
G75*
G02*
X42306875Y-15938500I396875J0D01*
G01*
D13*
X183515000Y-47625000D02*
X183515000Y-50165000D01*
D12*
X62484000Y-34290000D02*
G75*
G02*
X61976000Y-34290000I-254000J0D01*
G01*
X61976000Y-34290000D02*
G75*
G02*
X62484000Y-34290000I254000J0D01*
G01*
D11*
X44846875Y-15875000D02*
G75*
G02*
X44053125Y-15875000I-396875J0D01*
G01*
X44053125Y-15875000D02*
G75*
G02*
X44846875Y-15875000I396875J0D01*
G01*
D10*
X43180000Y-48895000D02*
X43180000Y-51435000D01*
D12*
X61055250Y-34290000D02*
G75*
G02*
X60547250Y-34290000I-254000J0D01*
G01*
X60547250Y-34290000D02*
G75*
G02*
X61055250Y-34290000I254000J0D01*
G01*
D10*
X53340000Y-48895000D02*
X53340000Y-51435000D01*
D11*
X82311875Y-27305000D02*
G75*
G02*
X81518125Y-27305000I-396875J0D01*
G01*
X81518125Y-27305000D02*
G75*
G02*
X82311875Y-27305000I396875J0D01*
G01*
X86121875Y-15875000D02*
G75*
G02*
X85328125Y-15875000I-396875J0D01*
G01*
X85328125Y-15875000D02*
G75*
G02*
X86121875Y-15875000I396875J0D01*
G01*
D10*
X25400000Y-48895000D02*
X25400000Y-51435000D01*
D11*
X88661875Y-18415000D02*
G75*
G02*
X87868125Y-18415000I-396875J0D01*
G01*
X87868125Y-18415000D02*
G75*
G02*
X88661875Y-18415000I396875J0D01*
G01*
X79771875Y-27305000D02*
G75*
G02*
X78978125Y-27305000I-396875J0D01*
G01*
X78978125Y-27305000D02*
G75*
G02*
X79771875Y-27305000I396875J0D01*
G01*
D10*
X17780000Y-48895000D02*
X17780000Y-51435000D01*
X20320000Y-48895000D02*
X20320000Y-51435000D01*
D11*
X88661875Y-15875000D02*
G75*
G02*
X87868125Y-15875000I-396875J0D01*
G01*
X87868125Y-15875000D02*
G75*
G02*
X88661875Y-15875000I396875J0D01*
G01*
D10*
X48260000Y-48895000D02*
X48260000Y-51435000D01*
D11*
X88661875Y-27305000D02*
G75*
G02*
X87868125Y-27305000I-396875J0D01*
G01*
X87868125Y-27305000D02*
G75*
G02*
X88661875Y-27305000I396875J0D01*
G01*
D13*
X151130000Y-47625000D02*
X151130000Y-50165000D01*
D10*
X50800000Y-48895000D02*
X50800000Y-51435000D01*
D12*
X19621500Y-40640000D02*
G75*
G02*
X19113500Y-40640000I-254000J0D01*
G01*
X19113500Y-40640000D02*
G75*
G02*
X19621500Y-40640000I254000J0D01*
G01*
D11*
X88661875Y-20955000D02*
G75*
G02*
X87868125Y-20955000I-396875J0D01*
G01*
X87868125Y-20955000D02*
G75*
G02*
X88661875Y-20955000I396875J0D01*
G01*
X79771875Y-24765000D02*
G75*
G02*
X78978125Y-24765000I-396875J0D01*
G01*
X78978125Y-24765000D02*
G75*
G02*
X79771875Y-24765000I396875J0D01*
G01*
D10*
X15240000Y-48895000D02*
X15240000Y-51435000D01*
D13*
X118745000Y-47625000D02*
X118745000Y-50165000D01*
D10*
X45720000Y-48895000D02*
X45720000Y-51435000D01*
D14*
%TO.C,TP3*%
X183515000Y-50165000D03*
X183515000Y-47625000D03*
%TD*%
D15*
%TO.C,J6*%
X102235000Y-15875000D03*
D16*
X104775000Y-15875000D03*
X107315000Y-15875000D03*
X109855000Y-15875000D03*
X112395000Y-15875000D03*
X114935000Y-15875000D03*
%TD*%
D14*
%TO.C,TP2*%
X151130000Y-50165000D03*
X151130000Y-47625000D03*
%TD*%
%TO.C,TP1*%
X118745000Y-50165000D03*
X118745000Y-47625000D03*
%TD*%
D17*
%TO.C,U6*%
X38110000Y-28570000D03*
D18*
X38110000Y-31110000D03*
X45730000Y-31110000D03*
X45730000Y-28570000D03*
%TD*%
D15*
%TO.C,J1*%
X53340000Y-48895000D03*
D16*
X53340000Y-51435000D03*
X50800000Y-48895000D03*
X50800000Y-51435000D03*
X48260000Y-48895000D03*
X48260000Y-51435000D03*
X45720000Y-48895000D03*
X45720000Y-51435000D03*
X43180000Y-48895000D03*
X43180000Y-51435000D03*
X40640000Y-48895000D03*
X40640000Y-51435000D03*
X38100000Y-48895000D03*
X38100000Y-51435000D03*
X35560000Y-48895000D03*
X35560000Y-51435000D03*
X33020000Y-48895000D03*
X33020000Y-51435000D03*
X30480000Y-48895000D03*
X30480000Y-51435000D03*
X27940000Y-48895000D03*
X27940000Y-51435000D03*
X25400000Y-48895000D03*
X25400000Y-51435000D03*
X22860000Y-48895000D03*
X22860000Y-51435000D03*
X20320000Y-48895000D03*
X20320000Y-51435000D03*
X17780000Y-48895000D03*
X17780000Y-51435000D03*
X15240000Y-48895000D03*
X15240000Y-51435000D03*
%TD*%
D17*
%TO.C,U7*%
X38110000Y-36190000D03*
D18*
X38110000Y-38730000D03*
X45730000Y-38730000D03*
X45730000Y-36190000D03*
%TD*%
D15*
%TO.C,J7*%
X102235000Y-20637500D03*
X104775000Y-20637500D03*
X107315000Y-20637500D03*
X109855000Y-20637500D03*
%TD*%
D17*
%TO.C,J3*%
X16510000Y-27345000D03*
X16510000Y-29845000D03*
X16510000Y-32345000D03*
%TD*%
%TO.C,K1*%
X22992500Y-34730000D03*
X22992500Y-37270000D03*
D19*
X22992500Y-44890000D03*
X28072500Y-44890000D03*
D17*
X28072500Y-37270000D03*
X28072500Y-34730000D03*
%TD*%
D19*
%TO.C,J4*%
X16510000Y-38735000D03*
X16510000Y-41275000D03*
X16510000Y-43815000D03*
%TD*%
D15*
%TO.C,J5*%
X30480000Y-15875000D03*
X30480000Y-18415000D03*
X27940000Y-15875000D03*
X27940000Y-18415000D03*
X25400000Y-15875000D03*
X25400000Y-18415000D03*
X22860000Y-15875000D03*
X22860000Y-18415000D03*
X20320000Y-15875000D03*
X20320000Y-18415000D03*
X17780000Y-15875000D03*
X17780000Y-18415000D03*
%TD*%
M02*
