  0
SECTION
  2
HEADER
  9
$ANGBASE
  50
0.0
  9
$ANGDIR
  70
1
  9
$MEASUREMENT
  70
1
  9
$INSUNITS
  70
4
  0
ENDSEC
  0
SECTION
  2
TABLES
  0
TABLE
  2
LTYPE
  70
4
  0
LTYPE
  5
40F
  2
CONTINUOUS
  70
0
  3
Solid line
  72
65
  73
0
  40
0.0
  0
LTYPE
  5
410
  2
DASHDOT
 70
0
  3
Dash Dot ____ _ ____ _
 72
65
 73
4
 40
2.0
 49
1.25
 49
-0.25
 49
0.25
 49
-0.25
  0
LTYPE
  5
411
  2
DASHED
 70
0
  3
Dashed __ __ __ __ __
 72
65
 73
2
 40
0.75
 49
0.5
 49
-0.25
  0
LTYPE
  5
43B
  2
DOTTED
 70
0
  3
Dotted .  .  .  .
 72
65
 73
2
 40
0.2
 49
0.0
 49
-0.2
  0
ENDTAB
  0
TABLE
  2
STYLE
  70
4
  0
STYLE
  2
KICAD
  70
0
  40
0
  41
1
  42
1
  50
0
  71
0
  3
isocp.shx
  0
STYLE
  2
KICADB
  70
0
  40
0
  41
1
  42
1
  50
0
  71
0
  3
isocp.shx
  0
STYLE
  2
KICADI
  70
0
  40
0
  41
1
  42
1
  50
15
  71
0
  3
isocp.shx
  0
STYLE
  2
KICADBI
  70
0
  40
0
  41
1
  42
1
  50
15
  71
0
  3
isocp.shx
  0
ENDTAB
  0
TABLE
  2
LAYER
  70
1
  0
LAYER
  2
F.Cu
  70
0
  62
13
  420
13120564
  6
CONTINUOUS
  0
ENDTAB
  0
ENDSEC
  0
SECTION
  2
ENTITIES
0
LINE
8
F.Cu
6
CONTINUOUS
10
104.329136049534057
20
-24.4153726612371287
11
104.362453704405155
21
-24.4291731464231958
0
LINE
8
F.Cu
6
CONTINUOUS
10
104.362453704405155
20
-24.4291731464231958
11
104.3942746033578288
21
-24.4504376302861068
0
LINE
8
F.Cu
6
CONTINUOUS
10
104.3942746033578288
20
-24.4504376302861068
11
109.0162436921392981
21
-29.0724067190675726
0
LINE
8
F.Cu
6
CONTINUOUS
10
109.0162436921392981
20
-29.0724067190675726
11
109.0375015823638023
21
-29.1042144307434398
0
LINE
8
F.Cu
6
CONTINUOUS
10
109.0375015823638023
20
-29.1042144307434398
11
109.0513086611882869
21
-29.1375386792529483
0
LINE
8
F.Cu
6
CONTINUOUS
10
109.0513086611882869
20
-29.1375386792529483
11
109.0587792535035305
21
-29.1750828563429963
0
LINE
8
F.Cu
6
CONTINUOUS
10
109.0587792535035305
20
-29.1750828563429963
11
109.0587792535035305
21
-33.8252661238684595
0
LINE
8
F.Cu
6
CONTINUOUS
10
109.0587792535035305
20
-33.8252661238684595
11
109.1634532632163115
21
-33.8252661238684595
0
LINE
8
F.Cu
6
CONTINUOUS
10
109.1634532632163115
20
-33.8252661238684595
11
109.1634532632163115
21
-42.199186900890794
0
LINE
8
F.Cu
6
CONTINUOUS
10
109.1634532632163115
20
-42.199186900890794
11
108.94121468070486
21
-42.199186900890794
0
LINE
8
F.Cu
6
CONTINUOUS
10
108.94121468070486
20
-42.199186900890794
11
108.9411817125128294
21
-42.1991934945291973
0
LINE
8
F.Cu
6
CONTINUOUS
10
108.9411817125128294
20
-42.1991934945291973
11
106.0361565031108455
21
-42.1991934945291973
0
LINE
8
F.Cu
6
CONTINUOUS
10
106.0361565031108455
20
-42.1991934945291973
11
106.0361235349188291
21
-42.199186900890794
0
LINE
8
F.Cu
6
CONTINUOUS
10
106.0361235349188291
20
-42.199186900890794
11
105.8138849524073635
21
-42.199186900890794
0
LINE
8
F.Cu
6
CONTINUOUS
10
105.8138849524073635
20
-42.199186900890794
11
105.8138849524073635
21
-33.8252661238684595
0
LINE
8
F.Cu
6
CONTINUOUS
10
105.8138849524073635
20
-33.8252661238684595
11
105.9185589621201586
21
-33.8252661238684595
0
LINE
8
F.Cu
6
CONTINUOUS
10
105.9185589621201586
20
-33.8252661238684595
11
105.9185589621201586
21
-32.7785326203790746
0
LINE
8
F.Cu
6
CONTINUOUS
10
105.9185589621201586
20
-32.7785326203790746
11
103.8250787678645679
21
-30.6850524261234874
0
LINE
8
F.Cu
6
CONTINUOUS
10
103.8250787678645679
20
-30.6850524261234874
11
81.8435367281809221
21
-30.6850524261234874
0
LINE
8
F.Cu
6
CONTINUOUS
10
81.8435367281809221
20
-30.6850524261234874
11
79.7500565339253455
21
-32.7785326203790746
0
LINE
8
F.Cu
6
CONTINUOUS
10
79.7500565339253455
20
-32.7785326203790746
11
79.7500565339253455
21
-58.9470350485738805
0
LINE
8
F.Cu
6
CONTINUOUS
10
79.7500565339253455
20
-58.9470350485738805
11
82.3669067767448269
21
-61.5638852913933619
0
LINE
8
F.Cu
6
CONTINUOUS
10
82.3669067767448269
20
-61.5638852913933619
11
97.4844976091866187
21
-61.5638852913933619
0
LINE
8
F.Cu
6
CONTINUOUS
10
97.4844976091866187
20
-61.5638852913933619
11
97.522028598999853
21
-61.5713492900702022
0
LINE
8
F.Cu
6
CONTINUOUS
10
97.522028598999853
20
-61.5713492900702022
11
97.555346253870951
21
-61.5851497752562764
0
LINE
8
F.Cu
6
CONTINUOUS
10
97.555346253870951
20
-61.5851497752562764
11
97.5871671528236391
21
-61.606414259119191
0
LINE
8
F.Cu
6
CONTINUOUS
10
97.5871671528236391
20
-61.606414259119191
11
103.2591731579364449
21
-67.2784202642319968
0
LINE
8
F.Cu
6
CONTINUOUS
10
103.2591731579364449
20
-67.2784202642319968
11
103.2804310481609491
21
-67.3102279759078641
0
LINE
8
F.Cu
6
CONTINUOUS
10
103.2804310481609491
20
-67.3102279759078641
11
103.2848751604473421
21
-67.3209558255962293
0
LINE
8
F.Cu
6
CONTINUOUS
10
103.2848751604473421
20
-67.3209558255962293
11
103.3017087193006631
21
-67.3209558255962293
0
LINE
8
F.Cu
6
CONTINUOUS
10
103.3017087193006631
20
-67.3209558255962293
11
103.3017087193006631
21
-75.6948766026185638
0
LINE
8
F.Cu
6
CONTINUOUS
10
103.3017087193006631
20
-75.6948766026185638
11
97.0212681365339051
21
-75.6948766026185638
0
LINE
8
F.Cu
6
CONTINUOUS
10
97.0212681365339051
20
-75.6948766026185638
11
93.9411884210617387
21
-75.6948766026185638
0
LINE
8
F.Cu
6
CONTINUOUS
10
93.9411884210617387
20
-75.6948766026185638
11
93.9036442439716836
21
-75.6874060103033202
0
LINE
8
F.Cu
6
CONTINUOUS
10
93.9036442439716836
20
-75.6874060103033202
11
93.8703199954621681
21
-75.6735989314788355
0
LINE
8
F.Cu
6
CONTINUOUS
10
93.8703199954621681
20
-75.6735989314788355
11
93.8385122837863008
21
-75.6523410412543171
0
LINE
8
F.Cu
6
CONTINUOUS
10
93.8385122837863008
20
-75.6523410412543171
11
91.8300966186207859
21
-73.643925376088788
0
LINE
8
F.Cu
6
CONTINUOUS
10
91.8300966186207859
20
-73.643925376088788
11
91.8088321347578784
21
-73.6120978834977109
0
LINE
8
F.Cu
6
CONTINUOUS
10
91.8088321347578784
20
-73.6120978834977109
11
91.7950316495717971
21
-73.5787736349881953
0
LINE
8
F.Cu
6
CONTINUOUS
10
91.7950316495717971
20
-73.5787736349881953
11
91.7875676508949567
21
-73.5412492388133643
0
LINE
8
F.Cu
6
CONTINUOUS
10
91.7875676508949567
20
-73.5412492388133643
11
91.7875676508949567
21
-67.3209558255962293
0
LINE
8
F.Cu
6
CONTINUOUS
10
91.7875676508949567
20
-67.3209558255962293
11
89.1707174080754754
21
-64.7041055827767337
0
LINE
8
F.Cu
6
CONTINUOUS
10
89.1707174080754754
20
-64.7041055827767337
11
82.3669067767448269
21
-64.7041055827767337
0
LINE
8
F.Cu
6
CONTINUOUS
10
82.3669067767448269
20
-64.7041055827767337
11
79.7500565339253455
21
-67.3209558255962293
0
LINE
8
F.Cu
6
CONTINUOUS
10
79.7500565339253455
20
-67.3209558255962293
11
79.7500565339253455
21
-73.5412492388133643
0
LINE
8
F.Cu
6
CONTINUOUS
10
79.7500565339253455
20
-73.5412492388133643
11
79.7425859416100877
21
-73.5787934159034194
0
LINE
8
F.Cu
6
CONTINUOUS
10
79.7425859416100877
20
-73.5787934159034194
11
79.7287788627856173
21
-73.6121176644129207
0
LINE
8
F.Cu
6
CONTINUOUS
10
79.7287788627856173
20
-73.6121176644129207
11
79.7075209725611131
21
-73.643925376088788
0
LINE
8
F.Cu
6
CONTINUOUS
10
79.7075209725611131
20
-73.643925376088788
11
77.699105307395584
21
-75.6523410412543171
0
LINE
8
F.Cu
6
CONTINUOUS
10
77.699105307395584
20
-75.6523410412543171
11
77.6673041893581058
21
-75.6735989314788355
0
LINE
8
F.Cu
6
CONTINUOUS
10
77.6673041893581058
20
-75.6735989314788355
11
77.6339865344870219
21
-75.6874060103033202
0
LINE
8
F.Cu
6
CONTINUOUS
10
77.6339865344870219
20
-75.6874060103033202
11
77.5964357637585636
21
-75.6948766026185638
0
LINE
8
F.Cu
6
CONTINUOUS
10
77.5964357637585636
20
-75.6948766026185638
11
67.8301429579464354
21
-75.6948766026185638
0
LINE
8
F.Cu
6
CONTINUOUS
10
67.8301429579464354
20
-75.6948766026185638
11
67.8300770215623601
21
-75.694863415341743
0
LINE
8
F.Cu
6
CONTINUOUS
10
67.8300770215623601
20
-75.694863415341743
11
67.7125454169557344
21
-75.694863415341743
0
LINE
8
F.Cu
6
CONTINUOUS
10
67.7125454169557344
20
-75.694863415341743
11
67.7125454169557344
21
-67.3209426383193943
0
LINE
8
F.Cu
6
CONTINUOUS
10
67.7125454169557344
20
-67.3209426383193943
11
67.7125454169557344
21
-64.2408761101240344
0
LINE
8
F.Cu
6
CONTINUOUS
10
67.7125454169557344
20
-64.2408761101240344
11
67.7200094156325747
21
-64.2033517139492034
0
LINE
8
F.Cu
6
CONTINUOUS
10
67.7200094156325747
20
-64.2033517139492034
11
67.7338099008186418
21
-64.170027465439702
0
LINE
8
F.Cu
6
CONTINUOUS
10
67.7338099008186418
20
-64.170027465439702
11
67.7550546037663395
21
-64.1382197537638348
0
LINE
8
F.Cu
6
CONTINUOUS
10
67.7550546037663395
20
-64.1382197537638348
11
69.7635098307623025
21
-62.1297645267678647
0
LINE
8
F.Cu
6
CONTINUOUS
10
69.7635098307623025
20
-62.1297645267678647
11
69.7953175424381698
21
-62.1085198238201741
0
LINE
8
F.Cu
6
CONTINUOUS
10
69.7953175424381698
20
-62.1085198238201741
11
69.8286417909476853
21
-62.0947193386340999
0
LINE
8
F.Cu
6
CONTINUOUS
10
69.8286417909476853
20
-62.0947193386340999
11
69.8661661871225164
21
-62.0872553399572595
0
LINE
8
F.Cu
6
CONTINUOUS
10
69.8661661871225164
20
-62.0872553399572595
11
73.9929859997224924
21
-62.0872553399572595
0
LINE
8
F.Cu
6
CONTINUOUS
10
73.9929859997224924
20
-62.0872553399572595
11
76.6098362425419595
21
-59.4704050971377782
0
LINE
8
F.Cu
6
CONTINUOUS
10
76.6098362425419595
20
-59.4704050971377782
11
76.6098362425419595
21
-50.0497442229876484
0
LINE
8
F.Cu
6
CONTINUOUS
10
76.6098362425419595
20
-50.0497442229876484
11
74.5163560482863687
21
-47.9562640287320576
0
LINE
8
F.Cu
6
CONTINUOUS
10
74.5163560482863687
20
-47.9562640287320576
11
66.1424352712640484
21
-47.9562640287320576
0
LINE
8
F.Cu
6
CONTINUOUS
10
66.1424352712640484
20
-47.9562640287320576
11
58.2918845428056045
21
-55.8068147571905087
0
LINE
8
F.Cu
6
CONTINUOUS
10
58.2918845428056045
20
-55.8068147571905087
11
58.2918845428056045
21
-82.4986872339492123
0
LINE
8
F.Cu
6
CONTINUOUS
10
58.2918845428056045
20
-82.4986872339492123
11
64.5723251255723625
21
-88.7791278167159703
0
LINE
8
F.Cu
6
CONTINUOUS
10
64.5723251255723625
20
-88.7791278167159703
11
65.6190586290617404
21
-88.7791278167159703
0
LINE
8
F.Cu
6
CONTINUOUS
10
65.6190586290617404
20
-88.7791278167159703
11
65.6190586290617404
21
-88.6744472133647719
0
LINE
8
F.Cu
6
CONTINUOUS
10
65.6190586290617404
20
-88.6744472133647719
11
73.9929794060840749
21
-88.6744472133647719
0
LINE
8
F.Cu
6
CONTINUOUS
10
73.9929794060840749
20
-88.6744472133647719
11
73.9929794060840749
21
-88.8966857958762375
0
LINE
8
F.Cu
6
CONTINUOUS
10
73.9929794060840749
20
-88.8966857958762375
11
73.9929859997224924
21
-88.8967253577066572
0
LINE
8
F.Cu
6
CONTINUOUS
10
73.9929859997224924
20
-88.8967253577066572
11
73.9929859997224924
21
-91.8017439734702378
0
LINE
8
F.Cu
6
CONTINUOUS
10
73.9929859997224924
20
-91.8017439734702378
11
73.9929794060840749
21
-91.8017769416622684
0
LINE
8
F.Cu
6
CONTINUOUS
10
73.9929794060840749
20
-91.8017769416622684
11
73.9929794060840749
21
-92.0240155241737199
0
LINE
8
F.Cu
6
CONTINUOUS
10
73.9929794060840749
20
-92.0240155241737199
11
65.6190586290617404
21
-92.0240155241737199
0
LINE
8
F.Cu
6
CONTINUOUS
10
65.6190586290617404
20
-92.0240155241737199
11
65.6190586290617404
21
-91.9193481080993422
0
LINE
8
F.Cu
6
CONTINUOUS
10
65.6190586290617404
20
-91.9193481080993422
11
63.5857256043557584
21
-91.9193481080993422
0
LINE
8
F.Cu
6
CONTINUOUS
10
63.5857256043557584
20
-91.9193481080993422
11
63.5481814272657104
21
-91.9118775157840986
0
LINE
8
F.Cu
6
CONTINUOUS
10
63.5481814272657104
20
-91.9118775157840986
11
63.514857178756202
21
-91.898070436959614
0
LINE
8
F.Cu
6
CONTINUOUS
10
63.514857178756202
20
-91.898070436959614
11
63.4830494670803347
21
-91.876812546735124
0
LINE
8
F.Cu
6
CONTINUOUS
10
63.4830494670803347
20
-91.876812546735124
11
59.8619946884972904
21
-88.2557577681520655
0
LINE
8
F.Cu
6
CONTINUOUS
10
59.8619946884972904
20
-88.2557577681520655
11
48.8712236686554675
21
-88.2557577681520655
0
LINE
8
F.Cu
6
CONTINUOUS
10
48.8712236686554675
20
-88.2557577681520655
11
44.6842632801443003
21
-92.4427181566632328
0
LINE
8
F.Cu
6
CONTINUOUS
10
44.6842632801443003
20
-92.4427181566632328
11
44.6842632801443003
21
-100.8166389336855815
0
LINE
8
F.Cu
6
CONTINUOUS
10
44.6842632801443003
20
-100.8166389336855815
11
44.5666657391535992
21
-100.8166389336855815
0
LINE
8
F.Cu
6
CONTINUOUS
10
44.5666657391535992
20
-100.8166389336855815
11
38.4038226973775494
21
-100.8166389336855815
0
LINE
8
F.Cu
6
CONTINUOUS
10
38.4038226973775494
20
-100.8166389336855815
11
35.2636024059941704
21
-103.9568592250689534
0
LINE
8
F.Cu
6
CONTINUOUS
10
35.2636024059941704
20
-103.9568592250689534
11
35.2636024059941704
21
-115.471000293474674
0
LINE
8
F.Cu
6
CONTINUOUS
10
35.2636024059941704
20
-115.471000293474674
11
44.6417277187800678
21
-124.8491256062605714
0
LINE
8
F.Cu
6
CONTINUOUS
10
44.6417277187800678
20
-124.8491256062605714
11
44.6629856090045791
21
-124.8809333179364387
0
LINE
8
F.Cu
6
CONTINUOUS
10
44.6629856090045791
20
-124.8809333179364387
11
44.667429721290965
21
-124.8916611676247896
0
LINE
8
F.Cu
6
CONTINUOUS
10
44.667429721290965
20
-124.8916611676247896
11
44.6842632801443003
21
-124.8916611676247896
0
LINE
8
F.Cu
6
CONTINUOUS
10
44.6842632801443003
20
-124.8916611676247896
11
44.6842632801443003
21
-124.9518017435359951
0
LINE
8
F.Cu
6
CONTINUOUS
10
44.6842632801443003
20
-124.9518017435359951
11
44.6842632801443003
21
-176.1819259268866062
0
LINE
8
F.Cu
6
CONTINUOUS
10
44.6842632801443003
20
-176.1819259268866062
11
47.8244835715276793
21
-179.3221462182700066
0
LINE
8
F.Cu
6
CONTINUOUS
10
47.8244835715276793
20
-179.3221462182700066
11
206.9289783349521201
21
-179.3221462182700066
0
LINE
8
F.Cu
6
CONTINUOUS
10
206.9289783349521201
20
-179.3221462182700066
11
206.9289783349521201
21
-145.8264631101806401
0
LINE
8
F.Cu
6
CONTINUOUS
10
206.9289783349521201
20
-145.8264631101806401
11
175.5267754211183444
21
-145.8264631101806401
0
LINE
8
F.Cu
6
CONTINUOUS
10
175.5267754211183444
20
-145.8264631101806401
11
154.6345024462883089
21
-166.718729491372244
0
LINE
8
F.Cu
6
CONTINUOUS
10
154.6345024462883089
20
-166.718729491372244
11
154.6027013282508449
21
-166.7399873815967624
0
LINE
8
F.Cu
6
CONTINUOUS
10
154.6027013282508449
20
-166.7399873815967624
11
154.5693836733797752
21
-166.7537944604212612
0
LINE
8
F.Cu
6
CONTINUOUS
10
154.5693836733797752
20
-166.7537944604212612
11
154.5318329026513027
21
-166.7612650527364906
0
LINE
8
F.Cu
6
CONTINUOUS
10
154.5318329026513027
20
-166.7612650527364906
11
136.857532403301235
21
-166.7612650527364906
0
LINE
8
F.Cu
6
CONTINUOUS
10
136.857532403301235
20
-166.7612650527364906
11
136.8199882262111942
21
-166.7537944604212612
0
LINE
8
F.Cu
6
CONTINUOUS
10
136.8199882262111942
20
-166.7537944604212612
11
136.7866639777016644
21
-166.7399873815967624
0
LINE
8
F.Cu
6
CONTINUOUS
10
136.7866639777016644
20
-166.7399873815967624
11
136.7548562660257971
21
-166.718729491372244
0
LINE
8
F.Cu
6
CONTINUOUS
10
136.7548562660257971
20
-166.718729491372244
11
133.6997005037324584
21
-163.6635737290789336
0
LINE
8
F.Cu
6
CONTINUOUS
10
133.6997005037324584
20
-163.6635737290789336
11
133.6784360198695651
21
-163.6317462364878565
0
LINE
8
F.Cu
6
CONTINUOUS
10
133.6784360198695651
20
-163.6317462364878565
11
133.664635534683498
21
-163.5984219879783268
0
LINE
8
F.Cu
6
CONTINUOUS
10
133.664635534683498
20
-163.5984219879783268
11
133.6571715360066435
21
-163.5608975918035242
0
LINE
8
F.Cu
6
CONTINUOUS
10
133.6571715360066435
20
-163.5608975918035242
11
133.6571715360066435
21
-136.4058022360305245
0
LINE
8
F.Cu
6
CONTINUOUS
10
133.6571715360066435
20
-136.4058022360305245
11
131.5636913417510527
21
-134.3123220417749337
0
LINE
8
F.Cu
6
CONTINUOUS
10
131.5636913417510527
20
-134.3123220417749337
11
110.6288893991952165
21
-134.3123220417749337
0
LINE
8
F.Cu
6
CONTINUOUS
10
110.6288893991952165
20
-134.3123220417749337
11
104.3909777841542876
21
-140.5502270631774593
0
LINE
8
F.Cu
6
CONTINUOUS
10
104.3909777841542876
20
-140.5502270631774593
11
104.3591766661168236
21
-140.5714849534019493
0
LINE
8
F.Cu
6
CONTINUOUS
10
104.3591766661168236
20
-140.5714849534019493
11
104.3258590112457256
21
-140.5852920322264481
0
LINE
8
F.Cu
6
CONTINUOUS
10
104.3258590112457256
20
-140.5852920322264481
11
104.2883082405172672
21
-140.5927626245417059
0
LINE
8
F.Cu
6
CONTINUOUS
10
104.2883082405172672
20
-140.5927626245417059
11
72.0171033464576169
21
-140.5927626245417059
0
LINE
8
F.Cu
6
CONTINUOUS
10
72.0171033464576169
20
-140.5927626245417059
11
71.8995058054669016
21
-140.5927626245417059
0
LINE
8
F.Cu
6
CONTINUOUS
10
71.8995058054669016
20
-140.5927626245417059
11
71.8995058054669016
21
-130.1253616532637523
0
LINE
8
F.Cu
6
CONTINUOUS
10
71.8995058054669016
20
-130.1253616532637523
11
88.6473473595115848
21
-130.1253616532637523
0
LINE
8
F.Cu
6
CONTINUOUS
10
88.6473473595115848
20
-130.1253616532637523
11
140.9242116399900056
21
-130.1253616532637523
0
LINE
8
F.Cu
6
CONTINUOUS
10
140.9242116399900056
20
-130.1253616532637523
11
140.9617426298032399
21
-130.1328256519406068
0
LINE
8
F.Cu
6
CONTINUOUS
10
140.9617426298032399
20
-130.1328256519406068
11
140.9950602846743379
21
-130.1466261371266739
0
LINE
8
F.Cu
6
CONTINUOUS
10
140.9950602846743379
20
-130.1466261371266739
11
141.0268811836270402
21
-130.1678906209895956
0
LINE
8
F.Cu
6
CONTINUOUS
10
141.0268811836270402
20
-130.1678906209895956
11
155.6387135756903035
21
-144.7797230130528305
0
LINE
8
F.Cu
6
CONTINUOUS
10
155.6387135756903035
20
-144.7797230130528305
11
164.0126343527126096
21
-144.7797230130528305
0
LINE
8
F.Cu
6
CONTINUOUS
10
164.0126343527126096
20
-144.7797230130528305
11
175.484259640669336
21
-133.3080911314577293
0
LINE
8
F.Cu
6
CONTINUOUS
10
175.484259640669336
20
-133.3080911314577293
11
175.5160673523452317
21
-133.2868464285100458
0
LINE
8
F.Cu
6
CONTINUOUS
10
175.5160673523452317
20
-133.2868464285100458
11
175.5493916008547046
21
-133.2730459433239787
0
LINE
8
F.Cu
6
CONTINUOUS
10
175.5493916008547046
20
-133.2730459433239787
11
175.5869159970295357
21
-133.2655819446471526
0
LINE
8
F.Cu
6
CONTINUOUS
10
175.5869159970295357
20
-133.2655819446471526
11
206.9289783349521201
21
-133.2655819446471526
0
LINE
8
F.Cu
6
CONTINUOUS
10
206.9289783349521201
20
-133.2655819446471526
11
206.9289783349521201
21
-112.3307800020913021
0
LINE
8
F.Cu
6
CONTINUOUS
10
206.9289783349521201
20
-112.3307800020913021
11
175.5267754211183444
21
-112.3307800020913021
0
LINE
8
F.Cu
6
CONTINUOUS
10
175.5267754211183444
20
-112.3307800020913021
11
169.2888638060774156
21
-118.5686850234938277
0
LINE
8
F.Cu
6
CONTINUOUS
10
169.2888638060774156
20
-118.5686850234938277
11
169.2570626880399516
21
-118.5899429137183176
0
LINE
8
F.Cu
6
CONTINUOUS
10
169.2570626880399516
20
-118.5899429137183176
11
169.2237450331688535
21
-118.6037499925428023
0
LINE
8
F.Cu
6
CONTINUOUS
10
169.2237450331688535
20
-118.6037499925428023
11
169.1861942624404094
21
-118.6112205848580459
0
LINE
8
F.Cu
6
CONTINUOUS
10
169.1861942624404094
20
-118.6112205848580459
11
153.605373957345904
21
-118.6112205848580459
0
LINE
8
F.Cu
6
CONTINUOUS
10
153.605373957345904
20
-118.6112205848580459
11
153.5678297802558347
21
-118.6037499925428023
0
LINE
8
F.Cu
6
CONTINUOUS
10
153.5678297802558347
20
-118.6037499925428023
11
153.5345055317463618
21
-118.5899429137183176
0
LINE
8
F.Cu
6
CONTINUOUS
10
153.5345055317463618
20
-118.5899429137183176
11
153.5026978200704662
21
-118.5686850234938277
0
LINE
8
F.Cu
6
CONTINUOUS
10
153.5026978200704662
20
-118.5686850234938277
11
148.3115328957957502
21
-113.3775200992190832
0
LINE
8
F.Cu
6
CONTINUOUS
10
148.3115328957957502
20
-113.3775200992190832
11
141.1019497568919121
21
-113.3775200992190832
0
LINE
8
F.Cu
6
CONTINUOUS
10
141.1019497568919121
20
-113.3775200992190832
11
140.9843522159011968
21
-113.3775200992190832
0
LINE
8
F.Cu
6
CONTINUOUS
10
140.9843522159011968
20
-113.3775200992190832
11
140.9843522159011968
21
-105.0035993221967487
0
LINE
8
F.Cu
6
CONTINUOUS
10
140.9843522159011968
20
-105.0035993221967487
11
147.264792798667969
21
-105.0035993221967487
0
LINE
8
F.Cu
6
CONTINUOUS
10
147.264792798667969
20
-105.0035993221967487
11
150.4050130900513125
21
-105.0035993221967487
0
LINE
8
F.Cu
6
CONTINUOUS
10
150.4050130900513125
20
-105.0035993221967487
11
152.4984932843069032
21
-102.910119127941158
0
LINE
8
F.Cu
6
CONTINUOUS
10
152.4984932843069032
20
-102.910119127941158
11
152.4984932843069032
21
-94.0128283023549329
0
LINE
8
F.Cu
6
CONTINUOUS
10
152.4984932843069032
20
-94.0128283023549329
11
150.4050130900513125
21
-91.9193481080993422
0
LINE
8
F.Cu
6
CONTINUOUS
10
150.4050130900513125
20
-91.9193481080993422
11
149.3582795865619346
21
-91.9193481080993422
0
LINE
8
F.Cu
6
CONTINUOUS
10
149.3582795865619346
20
-91.9193481080993422
11
149.3582795865619346
21
-92.0240155241737199
0
LINE
8
F.Cu
6
CONTINUOUS
10
149.3582795865619346
20
-92.0240155241737199
11
140.9843588095396001
21
-92.0240155241737199
0
LINE
8
F.Cu
6
CONTINUOUS
10
140.9843588095396001
20
-92.0240155241737199
11
140.9843588095396001
21
-91.8017769416622684
0
LINE
8
F.Cu
6
CONTINUOUS
10
140.9843588095396001
20
-91.8017769416622684
11
140.9843522159011968
21
-91.8017439734702378
0
LINE
8
F.Cu
6
CONTINUOUS
10
140.9843522159011968
20
-91.8017439734702378
11
140.9843522159011968
21
-88.8967253577066572
0
LINE
8
F.Cu
6
CONTINUOUS
10
140.9843522159011968
20
-88.8967253577066572
11
140.9843588095396001
21
-88.8966857958762375
0
LINE
8
F.Cu
6
CONTINUOUS
10
140.9843588095396001
20
-88.8966857958762375
11
140.9843588095396001
21
-88.6744472133647719
0
LINE
8
F.Cu
6
CONTINUOUS
10
140.9843588095396001
20
-88.6744472133647719
11
149.3582795865619346
21
-88.6744472133647719
0
LINE
8
F.Cu
6
CONTINUOUS
10
149.3582795865619346
20
-88.6744472133647719
11
149.3582795865619346
21
-88.7791278167159703
0
LINE
8
F.Cu
6
CONTINUOUS
10
149.3582795865619346
20
-88.7791278167159703
11
164.4758638253653373
21
-88.7791278167159703
0
LINE
8
F.Cu
6
CONTINUOUS
10
164.4758638253653373
20
-88.7791278167159703
11
164.5133948151785717
21
-88.7865918153927964
0
LINE
8
F.Cu
6
CONTINUOUS
10
164.5133948151785717
20
-88.7865918153927964
11
164.5467124700496697
21
-88.8003923005788778
0
LINE
8
F.Cu
6
CONTINUOUS
10
164.5467124700496697
20
-88.8003923005788778
11
164.5785333690023435
21
-88.8216567844417852
0
LINE
8
F.Cu
6
CONTINUOUS
10
164.5785333690023435
20
-88.8216567844417852
11
175.5267754211183444
21
-99.7698988365577861
0
LINE
8
F.Cu
6
CONTINUOUS
10
175.5267754211183444
20
-99.7698988365577861
11
212.1626788205910827
21
-99.7698988365577861
0
LINE
8
F.Cu
6
CONTINUOUS
10
212.1626788205910827
20
-99.7698988365577861
11
212.1626788205910827
21
-47.432893980168167
0
LINE
8
F.Cu
6
CONTINUOUS
10
212.1626788205910827
20
-47.432893980168167
11
191.3454744190259191
21
-47.432893980168167
0
LINE
8
F.Cu
6
CONTINUOUS
10
191.3454744190259191
20
-47.432893980168167
11
191.3079038673822367
21
-47.4254102005761027
0
LINE
8
F.Cu
6
CONTINUOUS
10
191.3079038673822367
20
-47.4254102005761027
11
191.2941033821961696
21
-47.4196869224387356
0
LINE
8
F.Cu
6
CONTINUOUS
10
191.2941033821961696
20
-47.4196869224387356
11
191.2410575612110506
21
-47.3666279141767674
0
LINE
8
F.Cu
6
CONTINUOUS
10
191.2410575612110506
20
-47.3666279141767674
11
191.2353408767120868
21
-47.3528274289907003
0
LINE
8
F.Cu
6
CONTINUOUS
10
191.2353408767120868
20
-47.3528274289907003
11
191.2278768780352323
21
-47.3152898455390556
0
LINE
8
F.Cu
6
CONTINUOUS
10
191.2278768780352323
20
-47.3152898455390556
11
191.2278768780352323
21
-24.5255062035509894
0
LINE
8
F.Cu
6
CONTINUOUS
10
191.2278768780352323
20
-24.5255062035509894
11
191.2353408767120868
21
-24.4879686200993447
0
LINE
8
F.Cu
6
CONTINUOUS
10
191.2353408767120868
20
-24.4879686200993447
11
191.2410575612110506
21
-24.474168134913274
0
LINE
8
F.Cu
6
CONTINUOUS
10
191.2410575612110506
20
-24.474168134913274
11
191.2941363503882144
21
-24.4210893457360889
0
LINE
8
F.Cu
6
CONTINUOUS
10
191.2941363503882144
20
-24.4210893457360889
11
191.3079368355742815
21
-24.4153726612371287
0
LINE
8
F.Cu
6
CONTINUOUS
10
191.3079368355742815
20
-24.4153726612371287
11
191.3454744190259191
21
-24.4079086625602883
0
LINE
8
F.Cu
6
CONTINUOUS
10
191.3454744190259191
20
-24.4079086625602883
11
224.6026656259303422
21
-24.4079086625602883
0
LINE
8
F.Cu
6
CONTINUOUS
10
224.6026656259303422
20
-24.4079086625602883
11
224.6402163966587864
21
-24.4153792548755355
0
LINE
8
F.Cu
6
CONTINUOUS
10
224.6402163966587864
20
-24.4153792548755355
11
224.6540102882064502
21
-24.4210959393744957
0
LINE
8
F.Cu
6
CONTINUOUS
10
224.6540102882064502
20
-24.4210959393744957
11
224.7070561091915977
21
-24.4741351667212435
0
LINE
8
F.Cu
6
CONTINUOUS
10
224.7070561091915977
20
-24.4741351667212435
11
224.7070692964684326
21
-24.4741747285516844
0
LINE
8
F.Cu
6
CONTINUOUS
10
224.7070692964684326
20
-24.4741747285516844
11
224.7070824837452392
21
-24.4741879158284981
0
LINE
8
F.Cu
6
CONTINUOUS
10
224.7070824837452392
20
-24.4741879158284981
11
224.7070758901068075
21
-24.4741945094669049
0
LINE
8
F.Cu
6
CONTINUOUS
10
224.7070758901068075
20
-24.4741945094669049
11
224.7127793873289647
21
-24.487935651907307
0
LINE
8
F.Cu
6
CONTINUOUS
10
224.7127793873289647
20
-24.487935651907307
11
224.7202631669210291
21
-24.5255062035509894
0
LINE
8
F.Cu
6
CONTINUOUS
10
224.7202631669210291
20
-24.5255062035509894
11
224.7202631669210291
21
-185.4816858472040906
0
LINE
8
F.Cu
6
CONTINUOUS
10
224.7202631669210291
20
-185.4816858472040906
11
224.7127793873289647
21
-185.519256398847773
0
LINE
8
F.Cu
6
CONTINUOUS
10
224.7127793873289647
20
-185.519256398847773
11
224.7070561091915977
21
-185.5330568840338401
0
LINE
8
F.Cu
6
CONTINUOUS
10
224.7070561091915977
20
-185.5330568840338401
11
224.6540498500368699
21
-185.5860763304653744
0
LINE
8
F.Cu
6
CONTINUOUS
10
224.6540498500368699
20
-185.5860763304653744
11
224.6402559584892344
21
-185.5917996086027131
0
LINE
8
F.Cu
6
CONTINUOUS
10
224.6402559584892344
20
-185.5917996086027131
11
224.6026656259303422
21
-185.5992899818332091
0
LINE
8
F.Cu
6
CONTINUOUS
10
224.6026656259303422
20
-185.5992899818332091
11
30.1507962805494607
21
-185.5992899818332091
0
LINE
8
F.Cu
6
CONTINUOUS
10
30.1507962805494607
20
-185.5992899818332091
11
30.1132257289057854
21
-185.5918062022411448
0
LINE
8
F.Cu
6
CONTINUOUS
10
30.1132257289057854
20
-185.5918062022411448
11
30.0994252437197147
21
-185.5860829241037493
0
LINE
8
F.Cu
6
CONTINUOUS
10
30.0994252437197147
20
-185.5860829241037493
11
30.0463794227345602
21
-185.5330239158417953
0
LINE
8
F.Cu
6
CONTINUOUS
10
30.0463794227345602
20
-185.5330239158417953
11
30.0406627382356035
21
-185.5192234306557282
0
LINE
8
F.Cu
6
CONTINUOUS
10
30.0406627382356035
20
-185.5192234306557282
11
30.0331987395587596
21
-185.4816858472040906
0
LINE
8
F.Cu
6
CONTINUOUS
10
30.0331987395587596
20
-185.4816858472040906
11
30.0331987395587596
21
-24.5255062035509894
0
LINE
8
F.Cu
6
CONTINUOUS
10
30.0331987395587596
20
-24.5255062035509894
11
30.0406627382356035
21
-24.4879686200993447
0
LINE
8
F.Cu
6
CONTINUOUS
10
30.0406627382356035
20
-24.4879686200993447
11
30.0463794227345602
21
-24.474168134913274
0
LINE
8
F.Cu
6
CONTINUOUS
10
30.0463794227345602
20
-24.474168134913274
11
30.0994582119117524
21
-24.4210893457360889
0
LINE
8
F.Cu
6
CONTINUOUS
10
30.0994582119117524
20
-24.4210893457360889
11
30.1132586970978195
21
-24.4153726612371287
0
LINE
8
F.Cu
6
CONTINUOUS
10
30.1132586970978195
20
-24.4153726612371287
11
30.1507962805494607
21
-24.4079086625602883
0
LINE
8
F.Cu
6
CONTINUOUS
10
30.1507962805494607
20
-24.4079086625602883
11
104.2916050597208226
21
-24.4079086625602883
0
LINE
8
F.Cu
6
CONTINUOUS
10
104.2916050597208226
20
-24.4079086625602883
11
104.329136049534057
21
-24.4153726612371287
0
LINE
8
F.Cu
6
CONTINUOUS
10
203.7087112733064771
20
-150.0208940910070794
11
203.7225051648541694
21
-150.0266107755060148
0
LINE
8
F.Cu
6
CONTINUOUS
10
203.7225051648541694
20
-150.0266107755060148
11
203.7755509858392884
21
-150.0796500028527589
0
LINE
8
F.Cu
6
CONTINUOUS
10
203.7755509858392884
20
-150.0796500028527589
11
203.7812742639766839
21
-150.0934504880388261
0
LINE
8
F.Cu
6
CONTINUOUS
10
203.7812742639766839
20
-150.0934504880388261
11
203.7887580435687482
21
-150.1310210396825369
0
LINE
8
F.Cu
6
CONTINUOUS
10
203.7887580435687482
20
-150.1310210396825369
11
203.7887580435687482
21
-176.0643217922575161
0
LINE
8
F.Cu
6
CONTINUOUS
10
203.7887580435687482
20
-176.0643217922575161
11
203.7812742639766839
21
-176.1018923439011701
0
LINE
8
F.Cu
6
CONTINUOUS
10
203.7812742639766839
20
-176.1018923439011701
11
203.7755509858392884
21
-176.1156928290872372
0
LINE
8
F.Cu
6
CONTINUOUS
10
203.7755509858392884
20
-176.1156928290872372
11
203.722544726684589
21
-176.1687122755188
0
LINE
8
F.Cu
6
CONTINUOUS
10
203.722544726684589
20
-176.1687122755188
11
203.7087508351369536
21
-176.174435553656167
0
LINE
8
F.Cu
6
CONTINUOUS
10
203.7087508351369536
20
-176.174435553656167
11
203.6711605025780329
21
-176.1819259268866062
0
LINE
8
F.Cu
6
CONTINUOUS
10
203.6711605025780329
20
-176.1819259268866062
11
55.2692617924129266
21
-176.1819259268866062
0
LINE
8
F.Cu
6
CONTINUOUS
10
55.2692617924129266
20
-176.1819259268866062
11
55.1516642514222255
21
-176.1819259268866062
0
LINE
8
F.Cu
6
CONTINUOUS
10
55.1516642514222255
20
-176.1819259268866062
11
55.1516642514222255
21
-159.4340843728419372
0
LINE
8
F.Cu
6
CONTINUOUS
10
55.1516642514222255
20
-159.4340843728419372
11
63.52558502844456
21
-159.4340843728419372
0
LINE
8
F.Cu
6
CONTINUOUS
10
63.52558502844456
20
-159.4340843728419372
11
104.2883082405172672
21
-159.4340843728419372
0
LINE
8
F.Cu
6
CONTINUOUS
10
104.2883082405172672
20
-159.4340843728419372
11
104.3258392303305016
21
-159.4415483715187918
0
LINE
8
F.Cu
6
CONTINUOUS
10
104.3258392303305016
20
-159.4415483715187918
11
104.3591568852015996
21
-159.4553488567048589
0
LINE
8
F.Cu
6
CONTINUOUS
10
104.3591568852015996
20
-159.4553488567048589
11
104.3909777841542876
21
-159.4766133405677522
0
LINE
8
F.Cu
6
CONTINUOUS
10
104.3909777841542876
20
-159.4766133405677522
11
113.7691096905785884
21
-168.8547452469920813
0
LINE
8
F.Cu
6
CONTINUOUS
10
113.7691096905785884
20
-168.8547452469920813
11
156.6854536728180847
21
-168.8547452469920813
0
LINE
8
F.Cu
6
CONTINUOUS
10
156.6854536728180847
20
-168.8547452469920813
11
175.484259640669336
21
-150.0559326855023983
0
LINE
8
F.Cu
6
CONTINUOUS
10
175.484259640669336
20
-150.0559326855023983
11
175.5160673523452317
21
-150.0346879825547148
0
LINE
8
F.Cu
6
CONTINUOUS
10
175.5160673523452317
20
-150.0346879825547148
11
175.5493916008547046
21
-150.0208874973686477
0
LINE
8
F.Cu
6
CONTINUOUS
10
175.5493916008547046
20
-150.0208874973686477
11
175.5869159970295357
21
-150.0134234986918216
0
LINE
8
F.Cu
6
CONTINUOUS
10
175.5869159970295357
20
-150.0134234986918216
11
203.6711605025780329
21
-150.0134234986918216
0
LINE
8
F.Cu
6
CONTINUOUS
10
203.6711605025780329
20
-150.0134234986918216
11
203.7087112733064771
21
-150.0208940910070794
0
LINE
8
F.Cu
6
CONTINUOUS
10
144.1019629211866118
20
-122.8056449720460535
11
144.1352805760577098
21
-122.8194454572321206
0
LINE
8
F.Cu
6
CONTINUOUS
10
144.1352805760577098
20
-122.8194454572321206
11
144.1671014750103836
21
-122.8407099410950281
0
LINE
8
F.Cu
6
CONTINUOUS
10
144.1671014750103836
20
-122.8407099410950281
11
151.4517531871791221
21
-130.1253616532637523
0
LINE
8
F.Cu
6
CONTINUOUS
10
151.4517531871791221
20
-130.1253616532637523
11
159.7080764232107697
21
-130.1253616532637523
0
LINE
8
F.Cu
6
CONTINUOUS
10
159.7080764232107697
20
-130.1253616532637523
11
159.7456271939392138
21
-130.1328322455790101
0
LINE
8
F.Cu
6
CONTINUOUS
10
159.7456271939392138
20
-130.1328322455790101
11
159.7594210854868777
21
-130.1385489300779739
0
LINE
8
F.Cu
6
CONTINUOUS
10
159.7594210854868777
20
-130.1385489300779739
11
159.776478828046038
21
-130.1556066726371341
0
LINE
8
F.Cu
6
CONTINUOUS
10
159.776478828046038
20
-130.1556066726371341
11
160.4412626395271104
21
-130.1556066726371341
0
LINE
8
F.Cu
6
CONTINUOUS
10
160.4412626395271104
20
-130.1556066726371341
11
161.6487886092121471
21
-130.395793138892742
0
LINE
8
F.Cu
6
CONTINUOUS
10
161.6487886092121471
20
-130.395793138892742
11
162.7862505771832673
21
-130.8669481649107809
0
LINE
8
F.Cu
6
CONTINUOUS
10
162.7862505771832673
20
-130.8669481649107809
11
163.8099459080782481
21
-131.5509590259869412
0
LINE
8
F.Cu
6
CONTINUOUS
10
163.8099459080782481
20
-131.5509590259869412
11
164.6805171742450113
21
-132.4215302921537329
0
LINE
8
F.Cu
6
CONTINUOUS
10
164.6805171742450113
20
-132.4215302921537329
11
165.3645280353212002
21
-133.4452256230486853
0
LINE
8
F.Cu
6
CONTINUOUS
10
165.3645280353212002
20
-133.4452256230486853
11
165.835683061339239
21
-134.5826875910198339
0
LINE
8
F.Cu
6
CONTINUOUS
10
165.835683061339239
20
-134.5826875910198339
11
166.0758695275948185
21
-135.7902135607048422
0
LINE
8
F.Cu
6
CONTINUOUS
10
166.0758695275948185
20
-135.7902135607048422
11
166.0758695275948185
21
-137.0213909113561783
0
LINE
8
F.Cu
6
CONTINUOUS
10
166.0758695275948185
20
-137.0213909113561783
11
165.835683061339239
21
-138.2289168810411866
0
LINE
8
F.Cu
6
CONTINUOUS
10
165.835683061339239
20
-138.2289168810411866
11
165.3645280353212002
21
-139.3663788490123352
0
LINE
8
F.Cu
6
CONTINUOUS
10
165.3645280353212002
20
-139.3663788490123352
11
164.6805171742450113
21
-140.390074179907316
0
LINE
8
F.Cu
6
CONTINUOUS
10
164.6805171742450113
20
-140.390074179907316
11
163.8099459080782481
21
-141.2606454460740792
0
LINE
8
F.Cu
6
CONTINUOUS
10
163.8099459080782481
20
-141.2606454460740792
11
162.7862505771832673
21
-141.944656307150268
0
LINE
8
F.Cu
6
CONTINUOUS
10
162.7862505771832673
20
-141.944656307150268
11
161.6487886092121471
21
-142.4158113331682785
0
LINE
8
F.Cu
6
CONTINUOUS
10
161.6487886092121471
20
-142.4158113331682785
11
160.4412626395271104
21
-142.6559977994238864
0
LINE
8
F.Cu
6
CONTINUOUS
10
160.4412626395271104
20
-142.6559977994238864
11
159.7764854216844697
21
-142.6559977994238864
0
LINE
8
F.Cu
6
CONTINUOUS
10
159.7764854216844697
20
-142.6559977994238864
11
159.7594606473173258
21
-142.6730291674294335
0
LINE
8
F.Cu
6
CONTINUOUS
10
159.7594606473173258
20
-142.6730291674294335
11
159.7456667557696619
21
-142.6787524455668006
0
LINE
8
F.Cu
6
CONTINUOUS
10
159.7456667557696619
20
-142.6787524455668006
11
159.7080764232107697
21
-142.6862428187972682
0
LINE
8
F.Cu
6
CONTINUOUS
10
159.7080764232107697
20
-142.6862428187972682
11
156.7455942487292759
21
-142.6862428187972682
0
LINE
8
F.Cu
6
CONTINUOUS
10
156.7455942487292759
20
-142.6862428187972682
11
156.7080500716392351
21
-142.6787722264820388
0
LINE
8
F.Cu
6
CONTINUOUS
10
156.7080500716392351
20
-142.6787722264820388
11
156.6747258231297337
21
-142.66496514765754
0
LINE
8
F.Cu
6
CONTINUOUS
10
156.6747258231297337
20
-142.66496514765754
11
156.6429181114538665
21
-142.64370725743305
0
LINE
8
F.Cu
6
CONTINUOUS
10
156.6429181114538665
20
-142.64370725743305
11
142.031092313028978
21
-128.0318814590081899
0
LINE
8
F.Cu
6
CONTINUOUS
10
142.031092313028978
20
-128.0318814590081899
11
66.665805319827939
21
-128.0318814590081899
0
LINE
8
F.Cu
6
CONTINUOUS
10
66.665805319827939
20
-128.0318814590081899
11
63.52558502844456
21
-131.1721017503915618
0
LINE
8
F.Cu
6
CONTINUOUS
10
63.52558502844456
20
-131.1721017503915618
11
63.52558502844456
21
-141.6395027216694871
0
LINE
8
F.Cu
6
CONTINUOUS
10
63.52558502844456
20
-141.6395027216694871
11
66.665805319827939
21
-144.7797230130528305
0
LINE
8
F.Cu
6
CONTINUOUS
10
66.665805319827939
20
-144.7797230130528305
11
106.4419290106840492
21
-144.7797230130528305
0
LINE
8
F.Cu
6
CONTINUOUS
10
106.4419290106840492
20
-144.7797230130528305
11
113.6042621367625856
21
-137.6173832933359051
0
LINE
8
F.Cu
6
CONTINUOUS
10
113.6042621367625856
20
-137.6173832933359051
11
113.6042621367625856
21
-137.4525423331583056
0
LINE
8
F.Cu
6
CONTINUOUS
10
113.6042621367625856
20
-137.4525423331583056
11
130.3521036908072688
21
-137.4525423331583056
0
LINE
8
F.Cu
6
CONTINUOUS
10
130.3521036908072688
20
-137.4525423331583056
11
130.3993537036325847
21
-137.4525423331583056
0
LINE
8
F.Cu
6
CONTINUOUS
10
130.3993537036325847
20
-137.4525423331583056
11
130.4369044743610289
21
-137.4600129254735634
0
LINE
8
F.Cu
6
CONTINUOUS
10
130.4369044743610289
20
-137.4600129254735634
11
130.4506983659086927
21
-137.4657296099725272
0
LINE
8
F.Cu
6
CONTINUOUS
10
130.4506983659086927
20
-137.4657296099725272
11
130.5037441868938402
21
-137.5187688373192429
0
LINE
8
F.Cu
6
CONTINUOUS
10
130.5037441868938402
20
-137.5187688373192429
11
130.5094674650312072
21
-137.5325693225053101
0
LINE
8
F.Cu
6
CONTINUOUS
10
130.5094674650312072
20
-137.5325693225053101
11
130.5169512446232716
21
-137.5701398741490209
0
LINE
8
F.Cu
6
CONTINUOUS
10
130.5169512446232716
20
-137.5701398741490209
11
130.5169512446232716
21
-162.4567005295961906
0
LINE
8
F.Cu
6
CONTINUOUS
10
130.5169512446232716
20
-162.4567005295961906
11
130.5094674650312072
21
-162.4942710812399014
0
LINE
8
F.Cu
6
CONTINUOUS
10
130.5094674650312072
20
-162.4942710812399014
11
130.5037441868938402
21
-162.5080715664259685
0
LINE
8
F.Cu
6
CONTINUOUS
10
130.5037441868938402
20
-162.5080715664259685
11
130.4507379277391408
21
-162.5610910128575028
0
LINE
8
F.Cu
6
CONTINUOUS
10
130.4507379277391408
20
-162.5610910128575028
11
130.4369440361914769
21
-162.5668142909948415
0
LINE
8
F.Cu
6
CONTINUOUS
10
130.4369440361914769
20
-162.5668142909948415
11
130.3993537036325847
21
-162.5743046642253375
0
LINE
8
F.Cu
6
CONTINUOUS
10
130.3993537036325847
20
-162.5743046642253375
11
113.8292502664897938
21
-162.5743046642253375
0
LINE
8
F.Cu
6
CONTINUOUS
10
113.8292502664897938
20
-162.5743046642253375
11
113.6042621367625856
21
-162.5743046642253375
0
LINE
8
F.Cu
6
CONTINUOUS
10
113.6042621367625856
20
-162.5743046642253375
11
113.6042621367625856
21
-162.4094571104093063
0
LINE
8
F.Cu
6
CONTINUOUS
10
113.6042621367625856
20
-162.4094571104093063
11
106.4419290106840492
21
-155.2471239843307558
0
LINE
8
F.Cu
6
CONTINUOUS
10
106.4419290106840492
20
-155.2471239843307558
11
53.175781598157343
21
-155.2471239843307558
0
LINE
8
F.Cu
6
CONTINUOUS
10
53.175781598157343
20
-155.2471239843307558
11
53.1382110465136606
21
-155.2396402047386914
0
LINE
8
F.Cu
6
CONTINUOUS
10
53.1382110465136606
20
-155.2396402047386914
11
53.1244105613275934
21
-155.2339169266013528
0
LINE
8
F.Cu
6
CONTINUOUS
10
53.1244105613275934
20
-155.2339169266013528
11
53.123823727509361
21
-155.2333300927831203
0
LINE
8
F.Cu
6
CONTINUOUS
10
53.123823727509361
20
-155.2333300927831203
11
53.071364740342446
21
-155.1808579183393988
0
LINE
8
F.Cu
6
CONTINUOUS
10
53.071364740342446
20
-155.1808579183393988
11
53.0656480558434751
21
-155.1670574331533317
0
LINE
8
F.Cu
6
CONTINUOUS
10
53.0656480558434751
20
-155.1670574331533317
11
53.0581840571666419
21
-155.1295198497016656
0
LINE
8
F.Cu
6
CONTINUOUS
10
53.0581840571666419
20
-155.1295198497016656
11
53.0581840571666419
21
-122.9157785143599142
0
LINE
8
F.Cu
6
CONTINUOUS
10
53.0581840571666419
20
-122.9157785143599142
11
53.0656480558434751
21
-122.8782409309082766
0
LINE
8
F.Cu
6
CONTINUOUS
10
53.0656480558434751
20
-122.8782409309082766
11
53.071364740342446
21
-122.8644404457221952
0
LINE
8
F.Cu
6
CONTINUOUS
10
53.071364740342446
20
-122.8644404457221952
11
53.1244435295196311
21
-122.8113616565450172
0
LINE
8
F.Cu
6
CONTINUOUS
10
53.1244435295196311
20
-122.8113616565450172
11
53.1382440147056982
21
-122.8056449720460535
0
LINE
8
F.Cu
6
CONTINUOUS
10
53.1382440147056982
20
-122.8056449720460535
11
53.175781598157343
21
-122.7981809733692273
0
LINE
8
F.Cu
6
CONTINUOUS
10
53.175781598157343
20
-122.7981809733692273
11
144.0644319313733774
21
-122.7981809733692273
0
LINE
8
F.Cu
6
CONTINUOUS
10
144.0644319313733774
20
-122.7981809733692273
11
144.1019629211866118
21
-122.8056449720460535
0
LINE
8
F.Cu
6
CONTINUOUS
10
44.6842632801443003
20
-105.1211968631874356
11
44.6842632801443003
21
-113.3775200992190832
0
LINE
8
F.Cu
6
CONTINUOUS
10
44.6842632801443003
20
-113.3775200992190832
11
47.8244835715276793
21
-116.5177403906024693
0
LINE
8
F.Cu
6
CONTINUOUS
10
47.8244835715276793
20
-116.5177403906024693
11
148.2513923198845305
21
-116.5177403906024693
0
LINE
8
F.Cu
6
CONTINUOUS
10
148.2513923198845305
20
-116.5177403906024693
11
148.2889233096977648
21
-116.5252043892792955
0
LINE
8
F.Cu
6
CONTINUOUS
10
148.2889233096977648
20
-116.5252043892792955
11
148.3222409645688629
21
-116.5390048744653768
0
LINE
8
F.Cu
6
CONTINUOUS
10
148.3222409645688629
20
-116.5390048744653768
11
148.3540618635215651
21
-116.5602693583282843
0
LINE
8
F.Cu
6
CONTINUOUS
10
148.3540618635215651
20
-116.5602693583282843
11
152.4984932843069032
21
-120.7047007791136366
0
LINE
8
F.Cu
6
CONTINUOUS
10
152.4984932843069032
20
-120.7047007791136366
11
171.3398150326071629
21
-120.7047007791136366
0
LINE
8
F.Cu
6
CONTINUOUS
10
171.3398150326071629
20
-120.7047007791136366
11
175.484259640669336
21
-116.5602495774130603
0
LINE
8
F.Cu
6
CONTINUOUS
10
175.484259640669336
20
-116.5602495774130603
11
175.5160673523452317
21
-116.5390048744653768
0
LINE
8
F.Cu
6
CONTINUOUS
10
175.5160673523452317
20
-116.5390048744653768
11
175.5493916008547046
21
-116.5252043892792955
0
LINE
8
F.Cu
6
CONTINUOUS
10
175.5493916008547046
20
-116.5252043892792955
11
175.5869159970295357
21
-116.5177403906024693
0
LINE
8
F.Cu
6
CONTINUOUS
10
175.5869159970295357
20
-116.5177403906024693
11
203.6711605025780329
21
-116.5177403906024693
0
LINE
8
F.Cu
6
CONTINUOUS
10
203.6711605025780329
20
-116.5177403906024693
11
203.7087112733064771
21
-116.525210982917713
0
LINE
8
F.Cu
6
CONTINUOUS
10
203.7087112733064771
20
-116.525210982917713
11
203.7225051648541694
21
-116.5309276674166767
0
LINE
8
F.Cu
6
CONTINUOUS
10
203.7225051648541694
20
-116.5309276674166767
11
203.7755509858392884
21
-116.5839668947634209
0
LINE
8
F.Cu
6
CONTINUOUS
10
203.7755509858392884
20
-116.5839668947634209
11
203.7812742639766839
21
-116.597767379949488
0
LINE
8
F.Cu
6
CONTINUOUS
10
203.7812742639766839
20
-116.597767379949488
11
203.7887580435687482
21
-116.6353379315931562
0
LINE
8
F.Cu
6
CONTINUOUS
10
203.7887580435687482
20
-116.6353379315931562
11
203.7887580435687482
21
-128.9610174215068525
0
LINE
8
F.Cu
6
CONTINUOUS
10
203.7887580435687482
20
-128.9610174215068525
11
203.7812742639766839
21
-128.9985879731505349
0
LINE
8
F.Cu
6
CONTINUOUS
10
203.7812742639766839
20
-128.9985879731505349
11
203.7755509858392884
21
-129.0123884583366021
0
LINE
8
F.Cu
6
CONTINUOUS
10
203.7755509858392884
20
-129.0123884583366021
11
203.722544726684589
21
-129.0654079047681364
0
LINE
8
F.Cu
6
CONTINUOUS
10
203.722544726684589
20
-129.0654079047681364
11
203.7087508351369536
21
-129.0711311829055035
0
LINE
8
F.Cu
6
CONTINUOUS
10
203.7087508351369536
20
-129.0711311829055035
11
203.6711605025780329
21
-129.0786215561359711
0
LINE
8
F.Cu
6
CONTINUOUS
10
203.6711605025780329
20
-129.0786215561359711
11
175.5869159970295357
21
-129.0786215561359711
0
LINE
8
F.Cu
6
CONTINUOUS
10
175.5869159970295357
20
-129.0786215561359711
11
175.5493718199394948
21
-129.0711509638207133
0
LINE
8
F.Cu
6
CONTINUOUS
10
175.5493718199394948
20
-129.0711509638207133
11
175.5160475714299935
21
-129.0573438849962429
0
LINE
8
F.Cu
6
CONTINUOUS
10
175.5160475714299935
20
-129.0573438849962429
11
175.4842398597540978
21
-129.0360859947717529
0
LINE
8
F.Cu
6
CONTINUOUS
10
175.4842398597540978
20
-129.0360859947717529
11
171.3398150326071629
21
-124.8916611676247896
0
LINE
8
F.Cu
6
CONTINUOUS
10
171.3398150326071629
20
-124.8916611676247896
11
150.4651536659625037
21
-124.8916611676247896
0
LINE
8
F.Cu
6
CONTINUOUS
10
150.4651536659625037
20
-124.8916611676247896
11
150.4276094888724629
21
-124.8841905753095602
0
LINE
8
F.Cu
6
CONTINUOUS
10
150.4276094888724629
20
-124.8841905753095602
11
150.3942852403629615
21
-124.8703834964850756
0
LINE
8
F.Cu
6
CONTINUOUS
10
150.3942852403629615
20
-124.8703834964850756
11
150.3624775286870943
21
-124.8491256062605714
0
LINE
8
F.Cu
6
CONTINUOUS
10
150.3624775286870943
20
-124.8491256062605714
11
146.2180527015401594
21
-120.7047007791136366
0
LINE
8
F.Cu
6
CONTINUOUS
10
146.2180527015401594
20
-120.7047007791136366
11
45.791143953183294
21
-120.7047007791136366
0
LINE
8
F.Cu
6
CONTINUOUS
10
45.791143953183294
20
-120.7047007791136366
11
45.753599776093246
21
-120.6972301867983788
0
LINE
8
F.Cu
6
CONTINUOUS
10
45.753599776093246
20
-120.6972301867983788
11
45.7202755275837305
21
-120.6834231079738942
0
LINE
8
F.Cu
6
CONTINUOUS
10
45.7202755275837305
20
-120.6834231079738942
11
45.6884678159078632
21
-120.66216521774939
0
LINE
8
F.Cu
6
CONTINUOUS
10
45.6884678159078632
20
-120.66216521774939
11
38.4463516651033643
21
-113.4200490669449124
0
LINE
8
F.Cu
6
CONTINUOUS
10
38.4463516651033643
20
-113.4200490669449124
11
38.4250871812404569
21
-113.3882215743538069
0
LINE
8
F.Cu
6
CONTINUOUS
10
38.4250871812404569
20
-113.3882215743538069
11
38.4206562562308847
21
-113.3775200992190832
0
LINE
8
F.Cu
6
CONTINUOUS
10
38.4206562562308847
20
-113.3775200992190832
11
38.4038226973775494
21
-113.3775200992190832
0
LINE
8
F.Cu
6
CONTINUOUS
10
38.4038226973775494
20
-113.3775200992190832
11
38.4038226973775494
21
-105.0035993221967487
0
LINE
8
F.Cu
6
CONTINUOUS
10
38.4038226973775494
20
-105.0035993221967487
11
44.6842632801443003
21
-105.0035993221967487
0
LINE
8
F.Cu
6
CONTINUOUS
10
44.6842632801443003
20
-105.0035993221967487
11
44.6842632801443003
21
-105.1211968631874356
0
LINE
8
F.Cu
6
CONTINUOUS
10
59.3386246399333928
20
-92.459545121878179
11
59.3493327087065339
21
-92.4639826405261402
0
LINE
8
F.Cu
6
CONTINUOUS
10
59.3493327087065339
20
-92.4639826405261402
11
59.3811536076592148
21
-92.4852471243890619
0
LINE
8
F.Cu
6
CONTINUOUS
10
59.3811536076592148
20
-92.4852471243890619
11
61.9554748827528812
21
-95.0595683994827283
0
LINE
8
F.Cu
6
CONTINUOUS
10
61.9554748827528812
20
-95.0595683994827283
11
65.6190652227001436
21
-95.0595683994827283
0
LINE
8
F.Cu
6
CONTINUOUS
10
65.6190652227001436
20
-95.0595683994827283
11
65.6190652227001436
21
-94.9548877961315299
0
LINE
8
F.Cu
6
CONTINUOUS
10
65.6190652227001436
20
-94.9548877961315299
11
73.9929859997224924
21
-94.9548877961315299
0
LINE
8
F.Cu
6
CONTINUOUS
10
73.9929859997224924
20
-94.9548877961315299
11
73.9929859997224924
21
-98.3044561069404779
0
LINE
8
F.Cu
6
CONTINUOUS
10
73.9929859997224924
20
-98.3044561069404779
11
65.6190652227001436
21
-98.3044561069404779
0
LINE
8
F.Cu
6
CONTINUOUS
10
65.6190652227001436
20
-98.3044561069404779
11
65.6190652227001436
21
-98.1997886908661002
0
LINE
8
F.Cu
6
CONTINUOUS
10
65.6190652227001436
20
-98.1997886908661002
11
61.9554748827528812
21
-98.1997886908661002
0
LINE
8
F.Cu
6
CONTINUOUS
10
61.9554748827528812
20
-98.1997886908661002
11
59.3386246399333928
21
-100.8166389336855815
0
LINE
8
F.Cu
6
CONTINUOUS
10
59.3386246399333928
20
-100.8166389336855815
11
59.3386246399333928
21
-105.0035993221967487
0
LINE
8
F.Cu
6
CONTINUOUS
10
59.3386246399333928
20
-105.0035993221967487
11
59.3386246399333928
21
-113.3775200992190832
0
LINE
8
F.Cu
6
CONTINUOUS
10
59.3386246399333928
20
-113.3775200992190832
11
59.2210270989426846
21
-113.3775200992190832
0
LINE
8
F.Cu
6
CONTINUOUS
10
59.2210270989426846
20
-113.3775200992190832
11
53.175781598157343
21
-113.3775200992190832
0
LINE
8
F.Cu
6
CONTINUOUS
10
53.175781598157343
20
-113.3775200992190832
11
53.0581840571666419
21
-113.3775200992190832
0
LINE
8
F.Cu
6
CONTINUOUS
10
53.0581840571666419
20
-113.3775200992190832
11
53.0581840571666419
21
-105.0035993221967487
0
LINE
8
F.Cu
6
CONTINUOUS
10
53.0581840571666419
20
-105.0035993221967487
11
53.0581840571666419
21
-100.8166389336855815
0
LINE
8
F.Cu
6
CONTINUOUS
10
53.0581840571666419
20
-100.8166389336855815
11
53.0581840571666419
21
-92.4427181566632328
0
LINE
8
F.Cu
6
CONTINUOUS
10
53.0581840571666419
20
-92.4427181566632328
11
59.3386246399333928
21
-92.4427181566632328
0
LINE
8
F.Cu
6
CONTINUOUS
10
59.3386246399333928
20
-92.4427181566632328
11
59.3386246399333928
21
-92.459545121878179
0
LINE
8
F.Cu
6
CONTINUOUS
10
73.8753884587317771
20
-50.5731142715515389
11
73.9929859997224924
21
-50.5731142715515389
0
LINE
8
F.Cu
6
CONTINUOUS
10
73.9929859997224924
20
-50.5731142715515389
11
73.9929859997224924
21
-58.9470350485738805
0
LINE
8
F.Cu
6
CONTINUOUS
10
73.9929859997224924
20
-58.9470350485738805
11
73.8753884587317771
21
-58.9470350485738805
0
LINE
8
F.Cu
6
CONTINUOUS
10
73.8753884587317771
20
-58.9470350485738805
11
66.665805319827939
21
-58.9470350485738805
0
LINE
8
F.Cu
6
CONTINUOUS
10
66.665805319827939
20
-58.9470350485738805
11
64.5723251255723625
21
-61.0405152428294713
0
LINE
8
F.Cu
6
CONTINUOUS
10
64.5723251255723625
20
-61.0405152428294713
11
64.5723251255723625
21
-80.4052070396936216
0
LINE
8
F.Cu
6
CONTINUOUS
10
64.5723251255723625
20
-80.4052070396936216
11
66.5611247164767548
21
-82.3940066305980139
0
LINE
8
F.Cu
6
CONTINUOUS
10
66.5611247164767548
20
-82.3940066305980139
11
73.9929859997224924
21
-82.3940066305980139
0
LINE
8
F.Cu
6
CONTINUOUS
10
73.9929859997224924
20
-82.3940066305980139
11
73.9929859997224924
21
-82.4986872339492123
0
LINE
8
F.Cu
6
CONTINUOUS
10
73.9929859997224924
20
-82.4986872339492123
11
75.5029555695029728
21
-82.4986872339492123
0
LINE
8
F.Cu
6
CONTINUOUS
10
75.5029555695029728
20
-82.4986872339492123
11
75.5404865593162214
21
-82.5061512326260527
0
LINE
8
F.Cu
6
CONTINUOUS
10
75.5404865593162214
20
-82.5061512326260527
11
75.5738042141873052
21
-82.5199517178121198
0
LINE
8
F.Cu
6
CONTINUOUS
10
75.5738042141873052
20
-82.5199517178121198
11
75.6056251131399932
21
-82.5412162016750415
0
LINE
8
F.Cu
6
CONTINUOUS
10
75.6056251131399932
20
-82.5412162016750415
11
79.7075209725611131
21
-86.6431120610961472
0
LINE
8
F.Cu
6
CONTINUOUS
10
79.7075209725611131
20
-86.6431120610961472
11
79.7287788627856173
21
-86.6749197727720286
0
LINE
8
F.Cu
6
CONTINUOUS
10
79.7287788627856173
20
-86.6749197727720286
11
79.7425859416100877
21
-86.7082440212815158
0
LINE
8
F.Cu
6
CONTINUOUS
10
79.7425859416100877
20
-86.7082440212815158
11
79.7500565339253455
21
-86.7457881983715708
0
LINE
8
F.Cu
6
CONTINUOUS
10
79.7500565339253455
20
-86.7457881983715708
11
79.7500565339253455
21
-101.2798618126998633
0
LINE
8
F.Cu
6
CONTINUOUS
10
79.7500565339253455
20
-101.2798618126998633
11
79.7425859416100877
21
-101.3174059897899184
0
LINE
8
F.Cu
6
CONTINUOUS
10
79.7425859416100877
20
-101.3174059897899184
11
79.7287788627856173
21
-101.3507302382994197
0
LINE
8
F.Cu
6
CONTINUOUS
10
79.7287788627856173
20
-101.3507302382994197
11
79.7075209725611131
21
-101.382537949975287
0
LINE
8
F.Cu
6
CONTINUOUS
10
79.7075209725611131
20
-101.382537949975287
11
73.9929859997224924
21
-107.097072922813922
0
LINE
8
F.Cu
6
CONTINUOUS
10
73.9929859997224924
20
-107.097072922813922
11
73.9929859997224924
21
-113.3775200992190832
0
LINE
8
F.Cu
6
CONTINUOUS
10
73.9929859997224924
20
-113.3775200992190832
11
73.8753884587317771
21
-113.3775200992190832
0
LINE
8
F.Cu
6
CONTINUOUS
10
73.8753884587317771
20
-113.3775200992190832
11
67.8301429579464354
21
-113.3775200992190832
0
LINE
8
F.Cu
6
CONTINUOUS
10
67.8301429579464354
20
-113.3775200992190832
11
67.7125454169557344
21
-113.3775200992190832
0
LINE
8
F.Cu
6
CONTINUOUS
10
67.7125454169557344
20
-113.3775200992190832
11
67.7125454169557344
21
-105.0035993221967487
0
LINE
8
F.Cu
6
CONTINUOUS
10
67.7125454169557344
20
-105.0035993221967487
11
71.8995058054669016
21
-105.0035993221967487
0
LINE
8
F.Cu
6
CONTINUOUS
10
71.8995058054669016
20
-105.0035993221967487
11
76.6098362425419595
21
-100.2932688851216767
0
LINE
8
F.Cu
6
CONTINUOUS
10
76.6098362425419595
20
-100.2932688851216767
11
76.6098362425419595
21
-87.7323877195881749
0
LINE
8
F.Cu
6
CONTINUOUS
10
76.6098362425419595
20
-87.7323877195881749
11
74.5163560482863687
21
-85.6389075253325842
0
LINE
8
F.Cu
6
CONTINUOUS
10
74.5163560482863687
20
-85.6389075253325842
11
73.9929859997224924
21
-85.6389075253325842
0
LINE
8
F.Cu
6
CONTINUOUS
10
73.9929859997224924
20
-85.6389075253325842
11
73.9929859997224924
21
-85.7435749414069619
0
LINE
8
F.Cu
6
CONTINUOUS
10
73.9929859997224924
20
-85.7435749414069619
11
65.6190652227001436
21
-85.7435749414069619
0
LINE
8
F.Cu
6
CONTINUOUS
10
65.6190652227001436
20
-85.7435749414069619
11
65.6190652227001436
21
-85.6389075253325842
0
LINE
8
F.Cu
6
CONTINUOUS
10
65.6190652227001436
20
-85.6389075253325842
11
64.6324657014835537
21
-85.6389075253325842
0
LINE
8
F.Cu
6
CONTINUOUS
10
64.6324657014835537
20
-85.6389075253325842
11
64.5949215243934987
21
-85.6314369330173406
0
LINE
8
F.Cu
6
CONTINUOUS
10
64.5949215243934987
20
-85.6314369330173406
11
64.5615972758839973
21
-85.6176298541928702
0
LINE
8
F.Cu
6
CONTINUOUS
10
64.5615972758839973
20
-85.6176298541928702
11
64.5297895642081301
21
-85.596371963968366
0
LINE
8
F.Cu
6
CONTINUOUS
10
64.5297895642081301
20
-85.596371963968366
11
60.4278937047870031
21
-81.4944761045472461
0
LINE
8
F.Cu
6
CONTINUOUS
10
60.4278937047870031
20
-81.4944761045472461
11
60.4066292209240956
21
-81.4626486119561406
0
LINE
8
F.Cu
6
CONTINUOUS
10
60.4066292209240956
20
-81.4626486119561406
11
60.3928287357380285
21
-81.4293243634466535
0
LINE
8
F.Cu
6
CONTINUOUS
10
60.3928287357380285
20
-81.4293243634466535
11
60.3853647370611881
21
-81.3917999672718224
0
LINE
8
F.Cu
6
CONTINUOUS
10
60.3853647370611881
20
-81.3917999672718224
11
60.3853647370611881
21
-56.9136954302294953
0
LINE
8
F.Cu
6
CONTINUOUS
10
60.3853647370611881
20
-56.9136954302294953
11
60.3928287357380285
21
-56.8761710340546642
0
LINE
8
F.Cu
6
CONTINUOUS
10
60.3928287357380285
20
-56.8761710340546642
11
60.4066292209240956
21
-56.8428467855451629
0
LINE
8
F.Cu
6
CONTINUOUS
10
60.4066292209240956
20
-56.8428467855451629
11
60.4278739238717932
21
-56.8110390738692956
0
LINE
8
F.Cu
6
CONTINUOUS
10
60.4278739238717932
20
-56.8110390738692956
11
66.6232895393789306
21
-50.615623458362144
0
LINE
8
F.Cu
6
CONTINUOUS
10
66.6232895393789306
20
-50.615623458362144
11
66.6550972510548121
21
-50.5943787554144535
0
LINE
8
F.Cu
6
CONTINUOUS
10
66.6550972510548121
20
-50.5943787554144535
11
66.6884214995643134
21
-50.5805782702283864
0
LINE
8
F.Cu
6
CONTINUOUS
10
66.6884214995643134
20
-50.5805782702283864
11
66.7259458957391303
21
-50.5731142715515389
0
LINE
8
F.Cu
6
CONTINUOUS
10
66.7259458957391303
20
-50.5731142715515389
11
73.8753884587317771
21
-50.5731142715515389
0
LINE
8
F.Cu
6
CONTINUOUS
10
103.3017087193006631
20
-94.5361983509188235
11
103.2848685668089388
21
-94.5361983509188235
0
LINE
8
F.Cu
6
CONTINUOUS
10
103.2848685668089388
20
-94.5361983509188235
11
103.2804310481609491
21
-94.5469130133303679
0
LINE
8
F.Cu
6
CONTINUOUS
10
103.2804310481609491
20
-94.5469130133303679
11
103.2591731579364449
21
-94.5787207250062352
0
LINE
8
F.Cu
6
CONTINUOUS
10
103.2591731579364449
20
-94.5787207250062352
11
99.157277298515325
21
-98.6806231780657583
0
LINE
8
F.Cu
6
CONTINUOUS
10
99.157277298515325
20
-98.6806231780657583
11
99.125476180477861
21
-98.7018810682902625
0
LINE
8
F.Cu
6
CONTINUOUS
10
99.125476180477861
20
-98.7018810682902625
11
99.092158525606763
21
-98.7156881471147329
0
LINE
8
F.Cu
6
CONTINUOUS
10
99.092158525606763
20
-98.7156881471147329
11
99.0546077548783046
21
-98.7231587394299908
0
LINE
8
F.Cu
6
CONTINUOUS
10
99.0546077548783046
20
-98.7231587394299908
11
90.7408275537671756
21
-98.7231587394299908
0
LINE
8
F.Cu
6
CONTINUOUS
10
90.7408275537671756
20
-98.7231587394299908
11
88.6473473595115848
21
-100.8166389336855815
0
LINE
8
F.Cu
6
CONTINUOUS
10
88.6473473595115848
20
-100.8166389336855815
11
88.6473473595115848
21
-105.0035993221967487
0
LINE
8
F.Cu
6
CONTINUOUS
10
88.6473473595115848
20
-105.0035993221967487
11
88.6473473595115848
21
-113.3775200992190832
0
LINE
8
F.Cu
6
CONTINUOUS
10
88.6473473595115848
20
-113.3775200992190832
11
88.5297498185208696
21
-113.3775200992190832
0
LINE
8
F.Cu
6
CONTINUOUS
10
88.5297498185208696
20
-113.3775200992190832
11
82.4845043177355279
21
-113.3775200992190832
0
LINE
8
F.Cu
6
CONTINUOUS
10
82.4845043177355279
20
-113.3775200992190832
11
82.3669067767448269
21
-113.3775200992190832
0
LINE
8
F.Cu
6
CONTINUOUS
10
82.3669067767448269
20
-113.3775200992190832
11
82.3669067767448269
21
-105.0035993221967487
0
LINE
8
F.Cu
6
CONTINUOUS
10
82.3669067767448269
20
-105.0035993221967487
11
82.3669067767448269
21
-94.6537892982711213
0
LINE
8
F.Cu
6
CONTINUOUS
10
82.3669067767448269
20
-94.6537892982711213
11
82.3743575881448464
21
-94.6162846830115143
0
LINE
8
F.Cu
6
CONTINUOUS
10
82.3743575881448464
20
-94.6162846830115143
11
82.3800808662822277
21
-94.6024578232718056
0
LINE
8
F.Cu
6
CONTINUOUS
10
82.3800808662822277
20
-94.6024578232718056
11
82.4331200936289719
21
-94.5493856277330309
0
LINE
8
F.Cu
6
CONTINUOUS
10
82.4331200936289719
20
-94.5493856277330309
11
82.4469799215606969
21
-94.5436491623188573
0
LINE
8
F.Cu
6
CONTINUOUS
10
82.4469799215606969
20
-94.5436491623188573
11
82.4844779431819006
21
-94.5361917572804202
0
LINE
8
F.Cu
6
CONTINUOUS
10
82.4844779431819006
20
-94.5361917572804202
11
94.9277879422783428
21
-94.5361983509188235
0
LINE
8
F.Cu
6
CONTINUOUS
10
94.9277879422783428
20
-94.5361983509188235
11
97.0212681365339051
21
-92.4427181566632328
0
LINE
8
F.Cu
6
CONTINUOUS
10
97.0212681365339051
20
-92.4427181566632328
11
97.0212681365339051
21
-86.2798751148871901
0
LINE
8
F.Cu
6
CONTINUOUS
10
97.0212681365339051
20
-86.2798751148871901
11
97.0212681365339051
21
-86.1622775738964748
0
LINE
8
F.Cu
6
CONTINUOUS
10
97.0212681365339051
20
-86.1622775738964748
11
103.3017087193006631
21
-86.1622775738964748
0
LINE
8
F.Cu
6
CONTINUOUS
10
103.3017087193006631
20
-86.1622775738964748
11
103.3017087193006631
21
-94.5361983509188235
0
LINE
8
F.Cu
6
CONTINUOUS
10
115.7825431145719364
20
-50.5805848638667896
11
115.7963370061196002
21
-50.5863015483657534
0
LINE
8
F.Cu
6
CONTINUOUS
10
115.7963370061196002
20
-50.5863015483657534
11
115.8493828271047619
21
-50.6393407757124976
0
LINE
8
F.Cu
6
CONTINUOUS
10
115.8493828271047619
20
-50.6393407757124976
11
115.8551061052421147
21
-50.6531412608985647
0
LINE
8
F.Cu
6
CONTINUOUS
10
115.8551061052421147
20
-50.6531412608985647
11
115.8625898848341791
21
-50.6907118125422471
0
LINE
8
F.Cu
6
CONTINUOUS
10
115.8625898848341791
20
-50.6907118125422471
11
115.8625898848341791
21
-65.2274756313406385
0
LINE
8
F.Cu
6
CONTINUOUS
10
115.8625898848341791
20
-65.2274756313406385
11
117.9135345177255374
21
-67.2784202642319968
0
LINE
8
F.Cu
6
CONTINUOUS
10
117.9135345177255374
20
-67.2784202642319968
11
117.9347924079500416
21
-67.3102279759078641
0
LINE
8
F.Cu
6
CONTINUOUS
10
117.9347924079500416
20
-67.3102279759078641
11
117.9392365202364203
21
-67.3209558255962293
0
LINE
8
F.Cu
6
CONTINUOUS
10
117.9392365202364203
20
-67.3209558255962293
11
117.9560700790897698
21
-67.3209558255962293
0
LINE
8
F.Cu
6
CONTINUOUS
10
117.9560700790897698
20
-67.3209558255962293
11
117.9560700790897698
21
-75.6948766026185638
0
LINE
8
F.Cu
6
CONTINUOUS
10
117.9560700790897698
20
-75.6948766026185638
11
117.9392365202364203
21
-75.6948766026185638
0
LINE
8
F.Cu
6
CONTINUOUS
10
117.9392365202364203
20
-75.6948766026185638
11
117.9347924079500416
21
-75.7055978586685114
0
LINE
8
F.Cu
6
CONTINUOUS
10
117.9347924079500416
20
-75.7055978586685114
11
117.9135345177255374
21
-75.7374055703443787
0
LINE
8
F.Cu
6
CONTINUOUS
10
117.9135345177255374
20
-75.7374055703443787
11
109.0587792535035305
21
-84.5921608345663856
0
LINE
8
F.Cu
6
CONTINUOUS
10
109.0587792535035305
20
-84.5921608345663856
11
109.0587792535035305
21
-84.5921674282048031
0
LINE
8
F.Cu
6
CONTINUOUS
10
109.0587792535035305
20
-84.5921674282048031
11
109.0587792535035305
21
-95.5829384480466189
0
LINE
8
F.Cu
6
CONTINUOUS
10
109.0587792535035305
20
-95.5829384480466189
11
111.1522594477591213
21
-97.6764186423021954
0
LINE
8
F.Cu
6
CONTINUOUS
10
111.1522594477591213
20
-97.6764186423021954
11
121.0962903704731417
21
-97.6764186423021954
0
LINE
8
F.Cu
6
CONTINUOUS
10
121.0962903704731417
20
-97.6764186423021954
11
124.1940146623227434
21
-94.5786811631757871
0
LINE
8
F.Cu
6
CONTINUOUS
10
124.1940146623227434
20
-94.5786811631757871
11
124.2257762185297594
21
-94.5574562411433277
0
LINE
8
F.Cu
6
CONTINUOUS
10
124.2257762185297594
20
-94.5574562411433277
11
124.2591070606776782
21
-94.5436491623188573
0
LINE
8
F.Cu
6
CONTINUOUS
10
124.2591070606776782
20
-94.5436491623188573
11
124.2966182695756743
21
-94.5361917572804202
0
LINE
8
F.Cu
6
CONTINUOUS
10
124.2966182695756743
20
-94.5361917572804202
11
132.492833897888147
21
-94.5361917572804202
0
LINE
8
F.Cu
6
CONTINUOUS
10
132.492833897888147
20
-94.5361917572804202
11
132.5303846686166196
21
-94.5436623495956638
0
LINE
8
F.Cu
6
CONTINUOUS
10
132.5303846686166196
20
-94.5436623495956638
11
132.544178560164255
21
-94.5493790340946276
0
LINE
8
F.Cu
6
CONTINUOUS
10
132.544178560164255
20
-94.5493790340946276
11
132.5972243811494309
21
-94.6024182614413718
0
LINE
8
F.Cu
6
CONTINUOUS
10
132.5972243811494309
20
-94.6024182614413718
11
132.6029476592867979
21
-94.6162187466274247
0
LINE
8
F.Cu
6
CONTINUOUS
10
132.6029476592867979
20
-94.6162187466274247
11
132.6104314388788623
21
-94.6537892982711213
0
LINE
8
F.Cu
6
CONTINUOUS
10
132.6104314388788623
20
-94.6537892982711213
11
132.6104314388788623
21
-105.0035993221967487
0
LINE
8
F.Cu
6
CONTINUOUS
10
132.6104314388788623
20
-105.0035993221967487
11
132.6104314388788623
21
-113.3775200992190832
0
LINE
8
F.Cu
6
CONTINUOUS
10
132.6104314388788623
20
-113.3775200992190832
11
126.3299908561121043
21
-113.3775200992190832
0
LINE
8
F.Cu
6
CONTINUOUS
10
126.3299908561121043
20
-113.3775200992190832
11
101.3258260660357877
21
-113.3775200992190832
0
LINE
8
F.Cu
6
CONTINUOUS
10
101.3258260660357877
20
-113.3775200992190832
11
101.2882555143921195
21
-113.3700363196270331
0
LINE
8
F.Cu
6
CONTINUOUS
10
101.2882555143921195
20
-113.3700363196270331
11
101.2745011846748895
21
-113.3643328224048759
0
LINE
8
F.Cu
6
CONTINUOUS
10
101.2745011846748895
20
-113.3643328224048759
11
101.274494591036472
21
-113.3643328224048759
0
LINE
8
F.Cu
6
CONTINUOUS
10
101.274494591036472
20
-113.3643328224048759
11
101.2744879973980687
21
-113.3643262287664726
0
LINE
8
F.Cu
6
CONTINUOUS
10
101.2744879973980687
20
-113.3643262287664726
11
101.2744550292060524
21
-113.3643130414896518
0
LINE
8
F.Cu
6
CONTINUOUS
10
101.2744550292060524
20
-113.3643130414896518
11
101.257423661200491
21
-113.3472750798456872
0
LINE
8
F.Cu
6
CONTINUOUS
10
101.257423661200491
20
-113.3472750798456872
11
100.5926398497194327
21
-113.3472750798456872
0
LINE
8
F.Cu
6
CONTINUOUS
10
100.5926398497194327
20
-113.3472750798456872
11
99.3851138800343961
21
-113.1070886135901219
0
LINE
8
F.Cu
6
CONTINUOUS
10
99.3851138800343961
20
-113.1070886135901219
11
98.2476519120632616
21
-112.6359335875720831
0
LINE
8
F.Cu
6
CONTINUOUS
10
98.2476519120632616
20
-112.6359335875720831
11
97.2239565811683093
21
-111.9519227264959085
0
LINE
8
F.Cu
6
CONTINUOUS
10
97.2239565811683093
20
-111.9519227264959085
11
96.3533853150015176
21
-111.0813514603291168
0
LINE
8
F.Cu
6
CONTINUOUS
10
96.3533853150015176
20
-111.0813514603291168
11
95.669374453925343
21
-110.0576561294341502
0
LINE
8
F.Cu
6
CONTINUOUS
10
95.669374453925343
20
-110.0576561294341502
11
95.1982194279073042
21
-108.9201941614630158
0
LINE
8
F.Cu
6
CONTINUOUS
10
95.1982194279073042
20
-108.9201941614630158
11
94.9580329616517247
21
-107.7126681917779791
0
LINE
8
F.Cu
6
CONTINUOUS
10
94.9580329616517247
20
-107.7126681917779791
11
94.9580329616517247
21
-106.4814908411266714
0
LINE
8
F.Cu
6
CONTINUOUS
10
94.9580329616517247
20
-106.4814908411266714
11
95.1982194279073042
21
-105.2739648714416489
0
LINE
8
F.Cu
6
CONTINUOUS
10
95.1982194279073042
20
-105.2739648714416489
11
95.669374453925343
21
-104.1365029034705145
0
LINE
8
F.Cu
6
CONTINUOUS
10
95.669374453925343
20
-104.1365029034705145
11
96.3533853150015176
21
-103.112807572575548
0
LINE
8
F.Cu
6
CONTINUOUS
10
96.3533853150015176
20
-103.112807572575548
11
97.2239565811683093
21
-102.2422363064087563
0
LINE
8
F.Cu
6
CONTINUOUS
10
97.2239565811683093
20
-102.2422363064087563
11
98.2476519120632616
21
-101.5582254453325817
0
LINE
8
F.Cu
6
CONTINUOUS
10
98.2476519120632616
20
-101.5582254453325817
11
99.3851138800343961
21
-101.0870704193145428
0
LINE
8
F.Cu
6
CONTINUOUS
10
99.3851138800343961
20
-101.0870704193145428
11
100.5926398497194327
21
-100.8468839530589634
0
LINE
8
F.Cu
6
CONTINUOUS
10
100.5926398497194327
20
-100.8468839530589634
11
101.2141759868882929
21
-100.8468839530589634
0
LINE
8
F.Cu
6
CONTINUOUS
10
101.2141759868882929
20
-100.8468839530589634
11
101.2156925237219269
21
-100.8392551134219417
0
LINE
8
F.Cu
6
CONTINUOUS
10
101.2156925237219269
20
-100.8392551134219417
11
101.2294930089079941
21
-100.8059308649124262
0
LINE
8
F.Cu
6
CONTINUOUS
10
101.2294930089079941
20
-100.8059308649124262
11
101.2507377118556917
21
-100.7741231532365589
0
LINE
8
F.Cu
6
CONTINUOUS
10
101.2507377118556917
20
-100.7741231532365589
11
105.9185589621201586
21
-96.1063084966105095
0
LINE
8
F.Cu
6
CONTINUOUS
10
105.9185589621201586
20
-96.1063084966105095
11
105.9185589621201586
21
-86.1622775738964748
0
LINE
8
F.Cu
6
CONTINUOUS
10
105.9185589621201586
20
-86.1622775738964748
11
102.7783386707367725
21
-83.0220572825131029
0
LINE
8
F.Cu
6
CONTINUOUS
10
102.7783386707367725
20
-83.0220572825131029
11
93.8810478451505475
21
-83.0220572825131029
0
LINE
8
F.Cu
6
CONTINUOUS
10
93.8810478451505475
20
-83.0220572825131029
11
90.7833565214929905
21
-86.1197420125322566
0
LINE
8
F.Cu
6
CONTINUOUS
10
90.7833565214929905
20
-86.1197420125322566
11
90.7515554034555265
21
-86.1409999027567608
0
LINE
8
F.Cu
6
CONTINUOUS
10
90.7515554034555265
20
-86.1409999027567608
11
90.7182377485844285
21
-86.1548069815812312
0
LINE
8
F.Cu
6
CONTINUOUS
10
90.7182377485844285
20
-86.1548069815812312
11
90.6806869778559559
21
-86.1622775738964748
0
LINE
8
F.Cu
6
CONTINUOUS
10
90.6806869778559559
20
-86.1622775738964748
11
82.4845043177355279
21
-86.1622775738964748
0
LINE
8
F.Cu
6
CONTINUOUS
10
82.4845043177355279
20
-86.1622775738964748
11
82.4469337660918455
21
-86.1547937943044246
0
LINE
8
F.Cu
6
CONTINUOUS
10
82.4469337660918455
20
-86.1547937943044246
11
82.4331332809057784
21
-86.1490705161670576
0
LINE
8
F.Cu
6
CONTINUOUS
10
82.4331332809057784
20
-86.1490705161670576
11
82.380087459920631
21
-86.0960115079050894
0
LINE
8
F.Cu
6
CONTINUOUS
10
82.380087459920631
20
-86.0960115079050894
11
82.3743707754216672
21
-86.0822110227190223
0
LINE
8
F.Cu
6
CONTINUOUS
10
82.3743707754216672
20
-86.0822110227190223
11
82.3669067767448269
21
-86.0446734392673847
0
LINE
8
F.Cu
6
CONTINUOUS
10
82.3669067767448269
20
-86.0446734392673847
11
82.3669067767448269
21
-75.694863415341743
0
LINE
8
F.Cu
6
CONTINUOUS
10
82.3669067767448269
20
-75.694863415341743
11
82.3669067767448269
21
-67.3209426383193943
0
LINE
8
F.Cu
6
CONTINUOUS
10
82.3669067767448269
20
-67.3209426383193943
11
88.6473473595115848
21
-67.3209426383193943
0
LINE
8
F.Cu
6
CONTINUOUS
10
88.6473473595115848
20
-67.3209426383193943
11
88.6473473595115848
21
-67.4385533665869161
0
LINE
8
F.Cu
6
CONTINUOUS
10
88.6473473595115848
20
-67.4385533665869161
11
88.6473473595115848
21
-76.7416166997463449
0
LINE
8
F.Cu
6
CONTINUOUS
10
88.6473473595115848
20
-76.7416166997463449
11
90.7408275537671756
21
-78.8350968940019357
0
LINE
8
F.Cu
6
CONTINUOUS
10
90.7408275537671756
20
-78.8350968940019357
11
93.8810478451505475
21
-78.8350968940019357
0
LINE
8
F.Cu
6
CONTINUOUS
10
93.8810478451505475
20
-78.8350968940019357
11
108.5354092049396257
21
-78.8350968940019357
0
LINE
8
F.Cu
6
CONTINUOUS
10
108.5354092049396257
20
-78.8350968940019357
11
111.6756294963230118
21
-75.6948766026185638
0
LINE
8
F.Cu
6
CONTINUOUS
10
111.6756294963230118
20
-75.6948766026185638
11
111.6756294963230118
21
-50.6907118125422471
0
LINE
8
F.Cu
6
CONTINUOUS
10
111.6756294963230118
20
-50.6907118125422471
11
111.6830934949998522
21
-50.6531742290906024
0
LINE
8
F.Cu
6
CONTINUOUS
10
111.6830934949998522
20
-50.6531742290906024
11
111.688810179498816
21
-50.6393737439045353
0
LINE
8
F.Cu
6
CONTINUOUS
10
111.688810179498816
20
-50.6393737439045353
11
111.741888968675994
21
-50.5862949547273431
0
LINE
8
F.Cu
6
CONTINUOUS
10
111.741888968675994
20
-50.5862949547273431
11
111.7556894538620611
21
-50.5805782702283864
0
LINE
8
F.Cu
6
CONTINUOUS
10
111.7556894538620611
20
-50.5805782702283864
11
111.7932270373137129
21
-50.5731142715515389
0
LINE
8
F.Cu
6
CONTINUOUS
10
111.7932270373137129
20
-50.5731142715515389
11
115.7449923438434638
21
-50.5731142715515389
0
LINE
8
F.Cu
6
CONTINUOUS
10
115.7449923438434638
20
-50.5731142715515389
11
115.7825431145719364
21
-50.5805848638667896
0
LINE
8
F.Cu
6
CONTINUOUS
10
147.264792798667969
20
-50.6711946428572233
11
147.264792798667969
21
-67.3209426383193943
0
LINE
8
F.Cu
6
CONTINUOUS
10
147.264792798667969
20
-67.3209426383193943
11
147.264792798667969
21
-75.694863415341743
0
LINE
8
F.Cu
6
CONTINUOUS
10
147.264792798667969
20
-75.694863415341743
11
147.166745395554301
21
-75.694863415341743
0
LINE
8
F.Cu
6
CONTINUOUS
10
147.166745395554301
20
-75.694863415341743
11
147.1667124273622846
21
-75.6948766026185638
0
LINE
8
F.Cu
6
CONTINUOUS
10
147.1667124273622846
20
-75.6948766026185638
11
143.0778324101567875
21
-75.6948766026185638
0
LINE
8
F.Cu
6
CONTINUOUS
10
143.0778324101567875
20
-75.6948766026185638
11
138.3675019730817155
21
-80.4052070396936216
0
LINE
8
F.Cu
6
CONTINUOUS
10
138.3675019730817155
20
-80.4052070396936216
11
138.3675019730817155
21
-92.9660882052271376
0
LINE
8
F.Cu
6
CONTINUOUS
10
138.3675019730817155
20
-92.9660882052271376
11
140.4609821673373062
21
-95.0595683994827283
0
LINE
8
F.Cu
6
CONTINUOUS
10
140.4609821673373062
20
-95.0595683994827283
11
140.9843522159011968
21
-95.0595683994827283
0
LINE
8
F.Cu
6
CONTINUOUS
10
140.9843522159011968
20
-95.0595683994827283
11
140.9843522159011968
21
-94.9548877961315299
0
LINE
8
F.Cu
6
CONTINUOUS
10
140.9843522159011968
20
-94.9548877961315299
11
149.3582729929235313
21
-94.9548877961315299
0
LINE
8
F.Cu
6
CONTINUOUS
10
149.3582729929235313
20
-94.9548877961315299
11
149.3582729929235313
21
-98.3044561069404779
0
LINE
8
F.Cu
6
CONTINUOUS
10
149.3582729929235313
20
-98.3044561069404779
11
140.9843522159011968
21
-98.3044561069404779
0
LINE
8
F.Cu
6
CONTINUOUS
10
140.9843522159011968
20
-98.3044561069404779
11
140.9843522159011968
21
-98.1997886908661002
0
LINE
8
F.Cu
6
CONTINUOUS
10
140.9843522159011968
20
-98.1997886908661002
11
139.4548654764356854
21
-98.1997886908661002
0
LINE
8
F.Cu
6
CONTINUOUS
10
139.4548654764356854
20
-98.1997886908661002
11
139.3855135876697489
21
-98.1710602083263382
0
LINE
8
F.Cu
6
CONTINUOUS
10
139.3855135876697489
20
-98.1710602083263382
11
135.2560101642380914
21
-94.0415567848946665
0
LINE
8
F.Cu
6
CONTINUOUS
10
135.2560101642380914
20
-94.0415567848946665
11
135.2272816816983436
21
-93.9722048961287584
0
LINE
8
F.Cu
6
CONTINUOUS
10
135.2272816816983436
20
-93.9722048961287584
11
135.2272816816983436
21
-79.3990903487920008
0
LINE
8
F.Cu
6
CONTINUOUS
10
135.2272816816983436
20
-79.3990903487920008
11
135.2560101642380914
21
-79.3297384600260784
0
LINE
8
F.Cu
6
CONTINUOUS
10
135.2560101642380914
20
-79.3297384600260784
11
140.9843522159011968
21
-73.6013964083629872
0
LINE
8
F.Cu
6
CONTINUOUS
10
140.9843522159011968
20
-73.6013964083629872
11
140.9843522159011968
21
-58.9470350485738805
0
LINE
8
F.Cu
6
CONTINUOUS
10
140.9843522159011968
20
-58.9470350485738805
11
140.9843522159011968
21
-50.5731142715515389
0
LINE
8
F.Cu
6
CONTINUOUS
10
140.9843522159011968
20
-50.5731142715515389
11
147.264792798667969
21
-50.5731142715515389
0
LINE
8
F.Cu
6
CONTINUOUS
10
147.264792798667969
20
-50.5731142715515389
11
147.264792798667969
21
-50.6711946428572233
0
LINE
8
F.Cu
6
CONTINUOUS
10
197.508317460801976
20
-50.5731142715515389
11
207.858120891089186
21
-50.5731142715515389
0
LINE
8
F.Cu
6
CONTINUOUS
10
207.858120891089186
20
-50.5731142715515389
11
207.9757184320799013
21
-50.5731142715515389
0
LINE
8
F.Cu
6
CONTINUOUS
10
207.9757184320799013
20
-50.5731142715515389
11
207.9757184320799013
21
-50.6907118125422471
0
LINE
8
F.Cu
6
CONTINUOUS
10
207.9757184320799013
20
-50.6907118125422471
11
207.9757184320799013
21
-95.4653540943327243
0
LINE
8
F.Cu
6
CONTINUOUS
10
207.9757184320799013
20
-95.4653540943327243
11
207.9682478397646435
21
-95.5028982714227652
0
LINE
8
F.Cu
6
CONTINUOUS
10
207.9682478397646435
20
-95.5028982714227652
11
207.9625245616272764
21
-95.5167119438856673
0
LINE
8
F.Cu
6
CONTINUOUS
10
207.9625245616272764
20
-95.5167119438856673
11
207.9094457724501126
21
-95.5697841394244421
0
LINE
8
F.Cu
6
CONTINUOUS
10
207.9094457724501126
20
-95.5697841394244421
11
207.895658474540852
21
-95.5754942302850026
0
LINE
8
F.Cu
6
CONTINUOUS
10
207.895658474540852
20
-95.5754942302850026
11
207.8581538592812308
21
-95.5829582289618429
0
LINE
8
F.Cu
6
CONTINUOUS
10
207.8581538592812308
20
-95.5829582289618429
11
180.8796361400504793
21
-95.5897364892443306
0
LINE
8
F.Cu
6
CONTINUOUS
10
180.8796361400504793
20
-95.5897364892443306
11
180.842105150237245
21
-95.5822790842059078
0
LINE
8
F.Cu
6
CONTINUOUS
10
180.842105150237245
20
-95.5822790842059078
11
180.8282980714127746
21
-95.576562399706944
0
LINE
8
F.Cu
6
CONTINUOUS
10
180.8282980714127746
20
-95.576562399706944
11
180.8044291003790818
21
-95.5527000223116403
0
LINE
8
F.Cu
6
CONTINUOUS
10
180.8044291003790818
20
-95.5527000223116403
11
180.1448872314316532
21
-95.5527000223116403
0
LINE
8
F.Cu
6
CONTINUOUS
10
180.1448872314316532
20
-95.5527000223116403
11
178.9373612617466165
21
-95.3125135560560466
0
LINE
8
F.Cu
6
CONTINUOUS
10
178.9373612617466165
20
-95.3125135560560466
11
177.7998992937754963
21
-94.8413585300380078
0
LINE
8
F.Cu
6
CONTINUOUS
10
177.7998992937754963
20
-94.8413585300380078
11
176.7762039628805155
21
-94.1573476689618332
0
LINE
8
F.Cu
6
CONTINUOUS
10
176.7762039628805155
20
-94.1573476689618332
11
175.9056326967137238
21
-93.2867764027950557
0
LINE
8
F.Cu
6
CONTINUOUS
10
175.9056326967137238
20
-93.2867764027950557
11
175.2216218356375634
21
-92.2630810719000891
0
LINE
8
F.Cu
6
CONTINUOUS
10
175.2216218356375634
20
-92.2630810719000891
11
174.7504668096194962
21
-91.1256191039289547
0
LINE
8
F.Cu
6
CONTINUOUS
10
174.7504668096194962
20
-91.1256191039289547
11
174.5102803433639451
21
-89.918093134243918
0
LINE
8
F.Cu
6
CONTINUOUS
10
174.5102803433639451
20
-89.918093134243918
11
174.5102803433639451
21
-88.6869157835926103
0
LINE
8
F.Cu
6
CONTINUOUS
10
174.5102803433639451
20
-88.6869157835926103
11
174.7504668096194962
21
-87.4793898139075878
0
LINE
8
F.Cu
6
CONTINUOUS
10
174.7504668096194962
20
-87.4793898139075878
11
175.2216218356375634
21
-86.3419278459364392
0
LINE
8
F.Cu
6
CONTINUOUS
10
175.2216218356375634
20
-86.3419278459364392
11
175.9056326967137238
21
-85.3182325150414869
0
LINE
8
F.Cu
6
CONTINUOUS
10
175.9056326967137238
20
-85.3182325150414869
11
176.7762039628805155
21
-84.4476612488747094
0
LINE
8
F.Cu
6
CONTINUOUS
10
176.7762039628805155
20
-84.4476612488747094
11
177.7998992937754963
21
-83.7636503877985348
0
LINE
8
F.Cu
6
CONTINUOUS
10
177.7998992937754963
20
-83.7636503877985348
11
178.9373612617466165
21
-83.292495361780496
0
LINE
8
F.Cu
6
CONTINUOUS
10
178.9373612617466165
20
-83.292495361780496
11
180.1448872314316532
21
-83.0523088955249023
0
LINE
8
F.Cu
6
CONTINUOUS
10
180.1448872314316532
20
-83.0523088955249023
11
180.8073303012781992
21
-83.0523088955249023
0
LINE
8
F.Cu
6
CONTINUOUS
10
180.8073303012781992
20
-83.0523088955249023
11
180.8251265313389524
21
-83.0344994781872998
0
LINE
8
F.Cu
6
CONTINUOUS
10
180.8251265313389524
20
-83.0344994781872998
11
180.8389533910786611
21
-83.0287630127731404
0
LINE
8
F.Cu
6
CONTINUOUS
10
180.8389533910786611
20
-83.0287630127731404
11
180.8764250381462091
21
-83.0212990140962859
0
LINE
8
F.Cu
6
CONTINUOUS
10
180.8764250381462091
20
-83.0212990140962859
11
191.2278768780352323
21
-83.0145405347289937
0
LINE
8
F.Cu
6
CONTINUOUS
10
191.2278768780352323
20
-83.0145405347289937
11
191.2278768780352323
21
-58.9470350485738805
0
LINE
8
F.Cu
6
CONTINUOUS
10
191.2278768780352323
20
-58.9470350485738805
11
191.2278768780352323
21
-50.5731142715515389
0
LINE
8
F.Cu
6
CONTINUOUS
10
191.2278768780352323
20
-50.5731142715515389
11
197.508317460801976
21
-50.5731142715515389
0
LINE
8
F.Cu
6
CONTINUOUS
10
132.6104314388788623
20
-67.4385533665869161
11
132.6104314388788623
21
-86.0446734392673847
0
LINE
8
F.Cu
6
CONTINUOUS
10
132.6104314388788623
20
-86.0446734392673847
11
132.6029476592867979
21
-86.0822439909110528
0
LINE
8
F.Cu
6
CONTINUOUS
10
132.6029476592867979
20
-86.0822439909110528
11
132.5972243811494309
21
-86.09604447609712
0
LINE
8
F.Cu
6
CONTINUOUS
10
132.5972243811494309
20
-86.09604447609712
11
132.5442181219947031
21
-86.1490639225286543
0
LINE
8
F.Cu
6
CONTINUOUS
10
132.5442181219947031
20
-86.1490639225286543
11
132.5304242304470392
21
-86.1547872006660072
0
LINE
8
F.Cu
6
CONTINUOUS
10
132.5304242304470392
20
-86.1547872006660072
11
132.492833897888147
21
-86.1622775738964748
0
LINE
8
F.Cu
6
CONTINUOUS
10
132.492833897888147
20
-86.1622775738964748
11
120.0495502733453463
21
-86.1622775738964748
0
LINE
8
F.Cu
6
CONTINUOUS
10
120.0495502733453463
20
-86.1622775738964748
11
117.9560700790897698
21
-88.2557577681520655
0
LINE
8
F.Cu
6
CONTINUOUS
10
117.9560700790897698
20
-88.2557577681520655
11
117.9560700790897698
21
-94.5361983509188235
0
LINE
8
F.Cu
6
CONTINUOUS
10
117.9560700790897698
20
-94.5361983509188235
11
117.8384725380990545
21
-94.5361983509188235
0
LINE
8
F.Cu
6
CONTINUOUS
10
117.8384725380990545
20
-94.5361983509188235
11
111.7932270373137129
21
-94.5361983509188235
0
LINE
8
F.Cu
6
CONTINUOUS
10
111.7932270373137129
20
-94.5361983509188235
11
111.6756294963230118
21
-94.5361983509188235
0
LINE
8
F.Cu
6
CONTINUOUS
10
111.6756294963230118
20
-94.5361983509188235
11
111.6756294963230118
21
-86.1622775738964748
0
LINE
8
F.Cu
6
CONTINUOUS
10
111.6756294963230118
20
-86.1622775738964748
11
111.6924564615379438
21
-86.1622775738964748
0
LINE
8
F.Cu
6
CONTINUOUS
10
111.6924564615379438
20
-86.1622775738964748
11
111.6968939801859193
21
-86.1515695051233479
0
LINE
8
F.Cu
6
CONTINUOUS
10
111.6968939801859193
20
-86.1515695051233479
11
111.718138683133617
21
-86.1197617934474806
0
LINE
8
F.Cu
6
CONTINUOUS
10
111.718138683133617
20
-86.1197617934474806
11
115.8200741043851707
21
-82.0178263721959127
0
LINE
8
F.Cu
6
CONTINUOUS
10
115.8200741043851707
20
-82.0178263721959127
11
115.851881816061038
21
-81.996581669248215
0
LINE
8
F.Cu
6
CONTINUOUS
10
115.851881816061038
20
-81.996581669248215
11
115.8852060645705393
21
-81.9827811840621479
0
LINE
8
F.Cu
6
CONTINUOUS
10
115.8852060645705393
20
-81.9827811840621479
11
115.9227304607453704
21
-81.9753171853853075
0
LINE
8
F.Cu
6
CONTINUOUS
10
115.9227304607453704
20
-81.9753171853853075
11
124.2365106618565136
21
-81.9753171853853075
0
LINE
8
F.Cu
6
CONTINUOUS
10
124.2365106618565136
20
-81.9753171853853075
11
126.3299908561121043
21
-79.8818369911297168
0
LINE
8
F.Cu
6
CONTINUOUS
10
126.3299908561121043
20
-79.8818369911297168
11
126.3299908561121043
21
-75.694863415341743
0
LINE
8
F.Cu
6
CONTINUOUS
10
126.3299908561121043
20
-75.694863415341743
11
126.3299908561121043
21
-67.3209426383193943
0
LINE
8
F.Cu
6
CONTINUOUS
10
126.3299908561121043
20
-67.3209426383193943
11
132.6104314388788623
21
-67.3209426383193943
0
LINE
8
F.Cu
6
CONTINUOUS
10
132.6104314388788623
20
-67.3209426383193943
11
132.6104314388788623
21
-67.4385533665869161
0
LINE
8
F.Cu
6
CONTINUOUS
10
161.6487886092121471
20
-71.7783476997363721
11
162.7862505771832673
21
-72.2495027257544109
0
LINE
8
F.Cu
6
CONTINUOUS
10
162.7862505771832673
20
-72.2495027257544109
11
163.8099459080782481
21
-72.9335135868305855
0
LINE
8
F.Cu
6
CONTINUOUS
10
163.8099459080782481
20
-72.9335135868305855
11
164.6805171742450113
21
-73.804084852997363
0
LINE
8
F.Cu
6
CONTINUOUS
10
164.6805171742450113
20
-73.804084852997363
11
165.3645280353212002
21
-74.8277801838923153
0
LINE
8
F.Cu
6
CONTINUOUS
10
165.3645280353212002
20
-74.8277801838923153
11
165.835683061339239
21
-75.965242151863464
0
LINE
8
F.Cu
6
CONTINUOUS
10
165.835683061339239
20
-75.965242151863464
11
166.0758695275948185
21
-77.1727681215484864
0
LINE
8
F.Cu
6
CONTINUOUS
10
166.0758695275948185
20
-77.1727681215484864
11
166.0758695275948185
21
-77.8375453393911414
0
LINE
8
F.Cu
6
CONTINUOUS
10
166.0758695275948185
20
-77.8375453393911414
11
166.0929074892387973
21
-77.854583301035106
0
LINE
8
F.Cu
6
CONTINUOUS
10
166.0929074892387973
20
-77.854583301035106
11
166.098630767376136
21
-77.8683837862211732
0
LINE
8
F.Cu
6
CONTINUOUS
10
166.098630767376136
20
-77.8683837862211732
11
166.1061145469682003
21
-77.9059543378648414
0
LINE
8
F.Cu
6
CONTINUOUS
10
166.1061145469682003
20
-77.9059543378648414
11
166.1061145469682003
21
-82.4385400643996178
0
LINE
8
F.Cu
6
CONTINUOUS
10
166.1061145469682003
20
-82.4385400643996178
11
166.0986439546529709
21
-82.4760842414896587
0
LINE
8
F.Cu
6
CONTINUOUS
10
166.0986439546529709
20
-82.4760842414896587
11
166.0848368758285005
21
-82.50940848999916
0
LINE
8
F.Cu
6
CONTINUOUS
10
166.0848368758285005
20
-82.50940848999916
11
166.0635789856039821
21
-82.5412162016750415
0
LINE
8
F.Cu
6
CONTINUOUS
10
166.0635789856039821
20
-82.5412162016750415
11
163.0084232233106718
21
-85.596371963968366
0
LINE
8
F.Cu
6
CONTINUOUS
10
163.0084232233106718
20
-85.596371963968366
11
162.9766221052731794
21
-85.6176298541928702
0
LINE
8
F.Cu
6
CONTINUOUS
10
162.9766221052731794
20
-85.6176298541928702
11
162.9433044504021098
21
-85.6314369330173406
0
LINE
8
F.Cu
6
CONTINUOUS
10
162.9433044504021098
20
-85.6314369330173406
11
162.9057536796736372
21
-85.6389075253325842
0
LINE
8
F.Cu
6
CONTINUOUS
10
162.9057536796736372
20
-85.6389075253325842
11
149.3582729929235313
21
-85.6389075253325842
0
LINE
8
F.Cu
6
CONTINUOUS
10
149.3582729929235313
20
-85.6389075253325842
11
149.3582729929235313
21
-85.7435749414069619
0
LINE
8
F.Cu
6
CONTINUOUS
10
149.3582729929235313
20
-85.7435749414069619
11
140.9843522159011968
21
-85.7435749414069619
0
LINE
8
F.Cu
6
CONTINUOUS
10
140.9843522159011968
20
-85.7435749414069619
11
140.9843522159011968
21
-82.3940066305980139
0
LINE
8
F.Cu
6
CONTINUOUS
10
140.9843522159011968
20
-82.3940066305980139
11
149.3582729929235313
21
-82.3940066305980139
0
LINE
8
F.Cu
6
CONTINUOUS
10
149.3582729929235313
20
-82.3940066305980139
11
149.3582729929235313
21
-82.4986872339492123
0
LINE
8
F.Cu
6
CONTINUOUS
10
149.3582729929235313
20
-82.4986872339492123
11
152.4984932843069032
21
-82.4986872339492123
0
LINE
8
F.Cu
6
CONTINUOUS
10
152.4984932843069032
20
-82.4986872339492123
11
153.8069217025358739
21
-81.19025881572027
0
LINE
8
F.Cu
6
CONTINUOUS
10
153.8069217025358739
20
-81.19025881572027
11
153.6033694912701435
21
-78.5441723802036904
0
LINE
8
F.Cu
6
CONTINUOUS
10
153.6033694912701435
20
-78.5441723802036904
11
153.5754784008080946
21
-78.4039454721997942
0
LINE
8
F.Cu
6
CONTINUOUS
10
153.5754784008080946
20
-78.4039454721997942
11
153.5754784008080946
21
-78.1815684232818029
0
LINE
8
F.Cu
6
CONTINUOUS
10
153.5754784008080946
20
-78.1815684232818029
11
153.5548469062322567
21
-77.9133721810728446
0
LINE
8
F.Cu
6
CONTINUOUS
10
153.5548469062322567
20
-77.9133721810728446
11
153.5594097040099655
21
-77.8754323856783657
0
LINE
8
F.Cu
6
CONTINUOUS
10
153.5594097040099655
20
-77.8754323856783657
11
153.5640648127253769
21
-77.8611835330806059
0
LINE
8
F.Cu
6
CONTINUOUS
10
153.5640648127253769
20
-77.8611835330806059
11
153.5754784008080946
21
-77.8478709771366653
0
LINE
8
F.Cu
6
CONTINUOUS
10
153.5754784008080946
20
-77.8478709771366653
11
153.5754784008080946
21
-77.1727681215484864
0
LINE
8
F.Cu
6
CONTINUOUS
10
153.5754784008080946
20
-77.1727681215484864
11
153.8156648670636741
21
-75.965242151863464
0
LINE
8
F.Cu
6
CONTINUOUS
10
153.8156648670636741
20
-75.965242151863464
11
154.286819893081713
21
-74.8277801838923153
0
LINE
8
F.Cu
6
CONTINUOUS
10
154.286819893081713
20
-74.8277801838923153
11
154.9708307541579018
21
-73.804084852997363
0
LINE
8
F.Cu
6
CONTINUOUS
10
154.9708307541579018
20
-73.804084852997363
11
155.841402020324665
21
-72.9335135868305855
0
LINE
8
F.Cu
6
CONTINUOUS
10
155.841402020324665
20
-72.9335135868305855
11
156.8650973512196458
21
-72.2495027257544109
0
LINE
8
F.Cu
6
CONTINUOUS
10
156.8650973512196458
20
-72.2495027257544109
11
158.002559319190766
21
-71.7783476997363721
0
LINE
8
F.Cu
6
CONTINUOUS
10
158.002559319190766
20
-71.7783476997363721
11
159.2100852888758027
21
-71.5381612334807784
0
LINE
8
F.Cu
6
CONTINUOUS
10
159.2100852888758027
20
-71.5381612334807784
11
160.4412626395271104
21
-71.5381612334807784
0
LINE
8
F.Cu
6
CONTINUOUS
10
160.4412626395271104
20
-71.5381612334807784
11
161.6487886092121471
21
-71.7783476997363721
0
LINE
8
F.Cu
6
CONTINUOUS
10
88.6473473595115848
20
-38.0122331060180372
11
99.5334443696406197
21
-38.0122331060180372
0
LINE
8
F.Cu
6
CONTINUOUS
10
99.5334443696406197
20
-38.0122331060180372
11
99.5334443696406197
21
-33.8252727175068699
0
LINE
8
F.Cu
6
CONTINUOUS
10
99.5334443696406197
20
-33.8252727175068699
11
102.8830126804495535
21
-33.8252727175068699
0
LINE
8
F.Cu
6
CONTINUOUS
10
102.8830126804495535
20
-33.8252727175068699
11
102.8830126804495535
21
-42.1991934945291973
0
LINE
8
F.Cu
6
CONTINUOUS
10
102.8830126804495535
20
-42.1991934945291973
11
102.1373710811821809
21
-42.1991934945291973
0
LINE
8
F.Cu
6
CONTINUOUS
10
102.1373710811821809
20
-42.1991934945291973
11
88.6473473595115848
21
-42.1991934945291973
0
LINE
8
F.Cu
6
CONTINUOUS
10
88.6473473595115848
20
-42.1991934945291973
11
88.6473473595115848
21
-50.5731142715515389
0
LINE
8
F.Cu
6
CONTINUOUS
10
88.6473473595115848
20
-50.5731142715515389
11
88.6473473595115848
21
-58.9470350485738805
0
LINE
8
F.Cu
6
CONTINUOUS
10
88.6473473595115848
20
-58.9470350485738805
11
88.5297498185208696
21
-58.9470350485738805
0
LINE
8
F.Cu
6
CONTINUOUS
10
88.5297498185208696
20
-58.9470350485738805
11
82.4845043177355279
21
-58.9470350485738805
0
LINE
8
F.Cu
6
CONTINUOUS
10
82.4845043177355279
20
-58.9470350485738805
11
82.3669067767448269
21
-58.9470350485738805
0
LINE
8
F.Cu
6
CONTINUOUS
10
82.3669067767448269
20
-58.9470350485738805
11
82.3669067767448269
21
-50.5731142715515389
0
LINE
8
F.Cu
6
CONTINUOUS
10
82.3669067767448269
20
-50.5731142715515389
11
82.3669067767448269
21
-42.1991934945291973
0
LINE
8
F.Cu
6
CONTINUOUS
10
82.3669067767448269
20
-42.1991934945291973
11
82.3669067767448269
21
-33.8252727175068699
0
LINE
8
F.Cu
6
CONTINUOUS
10
82.3669067767448269
20
-33.8252727175068699
11
88.6473473595115848
21
-33.8252727175068699
0
LINE
8
F.Cu
6
CONTINUOUS
10
88.6473473595115848
20
-33.8252727175068699
11
88.6473473595115848
21
-38.0122331060180372
0
LINE
8
F.Cu
6
CONTINUOUS
10
132.6104314388788623
20
-33.9233530888125401
11
132.6104314388788623
21
-50.5731142715515389
0
LINE
8
F.Cu
6
CONTINUOUS
10
132.6104314388788623
20
-50.5731142715515389
11
132.6104314388788623
21
-58.9470350485738805
0
LINE
8
F.Cu
6
CONTINUOUS
10
132.6104314388788623
20
-58.9470350485738805
11
132.5123510675731779
21
-58.9470350485738805
0
LINE
8
F.Cu
6
CONTINUOUS
10
132.5123510675731779
20
-58.9470350485738805
11
126.4280712274177745
21
-58.9470350485738805
0
LINE
8
F.Cu
6
CONTINUOUS
10
126.4280712274177745
20
-58.9470350485738805
11
126.3299908561121043
21
-58.9470350485738805
0
LINE
8
F.Cu
6
CONTINUOUS
10
126.3299908561121043
20
-58.9470350485738805
11
126.3299908561121043
21
-50.5731142715515389
0
LINE
8
F.Cu
6
CONTINUOUS
10
126.3299908561121043
20
-50.5731142715515389
11
123.713140613292623
21
-47.9562640287320576
0
LINE
8
F.Cu
6
CONTINUOUS
10
123.713140613292623
20
-47.9562640287320576
11
105.9185589621201586
21
-47.9562640287320576
0
LINE
8
F.Cu
6
CONTINUOUS
10
105.9185589621201586
20
-47.9562640287320576
11
103.3017087193006631
21
-50.5731142715515389
0
LINE
8
F.Cu
6
CONTINUOUS
10
103.3017087193006631
20
-50.5731142715515389
11
103.3017087193006631
21
-58.8489546772682033
0
LINE
8
F.Cu
6
CONTINUOUS
10
103.3017087193006631
20
-58.8489546772682033
11
103.2729802367609295
21
-58.9183065660341256
0
LINE
8
F.Cu
6
CONTINUOUS
10
103.2729802367609295
20
-58.9183065660341256
11
103.203628347994993
21
-58.9470350485738805
0
LINE
8
F.Cu
6
CONTINUOUS
10
103.203628347994993
20
-58.9470350485738805
11
102.8830126804495535
21
-58.9470350485738805
0
LINE
8
F.Cu
6
CONTINUOUS
10
102.8830126804495535
20
-58.9470350485738805
11
99.5334443696406197
21
-58.9470350485738805
0
LINE
8
F.Cu
6
CONTINUOUS
10
99.5334443696406197
20
-58.9470350485738805
11
99.2128287020951802
21
-58.9470350485738805
0
LINE
8
F.Cu
6
CONTINUOUS
10
99.2128287020951802
20
-58.9470350485738805
11
99.1434768133292579
21
-58.9183065660341256
0
LINE
8
F.Cu
6
CONTINUOUS
10
99.1434768133292579
20
-58.9183065660341256
11
99.1147483307894959
21
-58.8489546772682033
0
LINE
8
F.Cu
6
CONTINUOUS
10
99.1147483307894959
20
-58.8489546772682033
11
99.1147483307894959
21
-49.5669975806499181
0
LINE
8
F.Cu
6
CONTINUOUS
10
99.1147483307894959
20
-49.5669975806499181
11
99.1434768133292579
21
-49.4976456918840029
0
LINE
8
F.Cu
6
CONTINUOUS
10
99.1434768133292579
20
-49.4976456918840029
11
103.7963502853248201
21
-44.8447722198884406
0
LINE
8
F.Cu
6
CONTINUOUS
10
103.7963502853248201
20
-44.8447722198884406
11
103.8657021740907425
21
-44.8160437373486857
0
LINE
8
F.Cu
6
CONTINUOUS
10
103.8657021740907425
20
-44.8160437373486857
11
123.713140613292623
21
-44.8160437373486857
0
LINE
8
F.Cu
6
CONTINUOUS
10
123.713140613292623
20
-44.8160437373486857
11
126.3299908561121043
21
-42.1991934945291973
0
LINE
8
F.Cu
6
CONTINUOUS
10
126.3299908561121043
20
-42.1991934945291973
11
126.3299908561121043
21
-33.8252727175068699
0
LINE
8
F.Cu
6
CONTINUOUS
10
126.3299908561121043
20
-33.8252727175068699
11
132.6104314388788623
21
-33.8252727175068699
0
LINE
8
F.Cu
6
CONTINUOUS
10
132.6104314388788623
20
-33.8252727175068699
11
132.6104314388788623
21
-33.9233530888125401
0
LINE
8
F.Cu
6
CONTINUOUS
10
182.8539561010128693
20
-58.9470350485738805
11
176.5735155182461256
21
-58.9470350485738805
0
LINE
8
F.Cu
6
CONTINUOUS
10
176.5735155182461256
20
-58.9470350485738805
11
176.5735155182461256
21
-50.5731142715515389
0
LINE
8
F.Cu
6
CONTINUOUS
10
176.5735155182461256
20
-50.5731142715515389
11
182.8539561010128693
21
-50.5731142715515389
0
LINE
8
F.Cu
6
CONTINUOUS
10
182.8539561010128693
20
-50.5731142715515389
11
182.8539561010128693
21
-58.9470350485738805
0
LINE
8
F.Cu
6
CONTINUOUS
10
150.3824035039533555
20
-26.5055560362891605
11
150.4157211588244536
21
-26.5193565214752311
0
LINE
8
F.Cu
6
CONTINUOUS
10
150.4157211588244536
20
-26.5193565214752311
11
150.4475420577771558
21
-26.5406210053381422
0
LINE
8
F.Cu
6
CONTINUOUS
10
150.4475420577771558
20
-26.5406210053381422
11
157.6896582085816476
21
-33.7827371561426375
0
LINE
8
F.Cu
6
CONTINUOUS
10
157.6896582085816476
20
-33.7827371561426375
11
157.7109160988061376
21
-33.8145448678185119
0
LINE
8
F.Cu
6
CONTINUOUS
10
157.7109160988061376
20
-33.8145448678185119
11
157.7153602110925306
21
-33.8252727175068699
0
LINE
8
F.Cu
6
CONTINUOUS
10
157.7153602110925306
20
-33.8252727175068699
11
157.7322003635842691
21
-33.8252727175068699
0
LINE
8
F.Cu
6
CONTINUOUS
10
157.7322003635842691
20
-33.8252727175068699
11
157.7322003635842691
21
-42.1991934945291973
0
LINE
8
F.Cu
6
CONTINUOUS
10
157.7322003635842691
20
-42.1991934945291973
11
151.4517597808175253
21
-42.1991934945291973
0
LINE
8
F.Cu
6
CONTINUOUS
10
151.4517597808175253
20
-42.1991934945291973
11
147.264792798667969
21
-42.1991934945291973
0
LINE
8
F.Cu
6
CONTINUOUS
10
147.264792798667969
20
-42.1991934945291973
11
141.1019497568919121
21
-42.1991934945291973
0
LINE
8
F.Cu
6
CONTINUOUS
10
141.1019497568919121
20
-42.1991934945291973
11
140.9843522159011968
21
-42.1991934945291973
0
LINE
8
F.Cu
6
CONTINUOUS
10
140.9843522159011968
20
-42.1991934945291973
11
140.9843522159011968
21
-33.8252727175068699
0
LINE
8
F.Cu
6
CONTINUOUS
10
140.9843522159011968
20
-33.8252727175068699
11
140.9843522159011968
21
-32.7785326203790746
0
LINE
8
F.Cu
6
CONTINUOUS
10
140.9843522159011968
20
-32.7785326203790746
11
138.8908720216456061
21
-30.6850524261234874
0
LINE
8
F.Cu
6
CONTINUOUS
10
138.8908720216456061
20
-30.6850524261234874
11
117.4327000305258792
21
-30.6850524261234874
0
LINE
8
F.Cu
6
CONTINUOUS
10
117.4327000305258792
20
-30.6850524261234874
11
115.8625898848341791
21
-32.2551625718151769
0
LINE
8
F.Cu
6
CONTINUOUS
10
115.8625898848341791
20
-32.2551625718151769
11
115.8625898848341791
21
-42.081589359900093
0
LINE
8
F.Cu
6
CONTINUOUS
10
115.8625898848341791
20
-42.081589359900093
11
115.8551061052421147
21
-42.1191599115437754
0
LINE
8
F.Cu
6
CONTINUOUS
10
115.8551061052421147
20
-42.1191599115437754
11
115.8493828271047619
21
-42.1329603967298425
0
LINE
8
F.Cu
6
CONTINUOUS
10
115.8493828271047619
20
-42.1329603967298425
11
115.7963765679500341
21
-42.1859798431613626
0
LINE
8
F.Cu
6
CONTINUOUS
10
115.7963765679500341
20
-42.1859798431613626
11
115.7825826764023702
21
-42.1917031212987368
0
LINE
8
F.Cu
6
CONTINUOUS
10
115.7825826764023702
20
-42.1917031212987368
11
115.7449923438434638
21
-42.1991934945291973
0
LINE
8
F.Cu
6
CONTINUOUS
10
115.7449923438434638
20
-42.1991934945291973
11
112.3165970858776035
21
-42.1991934945291973
0
LINE
8
F.Cu
6
CONTINUOUS
10
112.3165970858776035
20
-42.1991934945291973
11
112.0943255351741215
21
-42.1991934945291973
0
LINE
8
F.Cu
6
CONTINUOUS
10
112.0943255351741215
20
-42.1991934945291973
11
112.0943255351741215
21
-33.8252727175068699
0
LINE
8
F.Cu
6
CONTINUOUS
10
112.0943255351741215
20
-33.8252727175068699
11
112.1989995448869166
21
-33.8252727175068699
0
LINE
8
F.Cu
6
CONTINUOUS
10
112.1989995448869166
20
-33.8252727175068699
11
112.1989995448869166
21
-31.7919330991624776
0
LINE
8
F.Cu
6
CONTINUOUS
10
112.1989995448869166
20
-31.7919330991624776
11
112.2064635435637427
21
-31.7544087029876465
0
LINE
8
F.Cu
6
CONTINUOUS
10
112.2064635435637427
20
-31.7544087029876465
11
112.2202640287498241
21
-31.7210844544781416
0
LINE
8
F.Cu
6
CONTINUOUS
10
112.2202640287498241
20
-31.7210844544781416
11
112.2415087316975075
21
-31.6892767428022708
0
LINE
8
F.Cu
6
CONTINUOUS
10
112.2415087316975075
20
-31.6892767428022708
11
117.3901842500768566
21
-26.5406012244229181
0
LINE
8
F.Cu
6
CONTINUOUS
10
117.3901842500768566
20
-26.5406012244229181
11
117.4219919617527381
21
-26.5193565214752311
0
LINE
8
F.Cu
6
CONTINUOUS
10
117.4219919617527381
20
-26.5193565214752311
11
117.4553162102622395
21
-26.5055560362891605
0
LINE
8
F.Cu
6
CONTINUOUS
10
117.4553162102622395
20
-26.5055560362891605
11
117.4928406064370705
21
-26.4980920376123166
0
LINE
8
F.Cu
6
CONTINUOUS
10
117.4928406064370705
20
-26.4980920376123166
11
150.3448725141401212
21
-26.4980920376123166
0
LINE
8
F.Cu
6
CONTINUOUS
10
150.3448725141401212
20
-26.4980920376123166
11
150.3824035039533555
21
-26.5055560362891605
0
LINE
8
F.Cu
6
CONTINUOUS
10
172.3865485360965693
20
-42.1991934945291973
11
166.1061079533297971
21
-42.1991934945291973
0
LINE
8
F.Cu
6
CONTINUOUS
10
166.1061079533297971
20
-42.1991934945291973
11
166.1061079533297971
21
-33.8252727175068699
0
LINE
8
F.Cu
6
CONTINUOUS
10
166.1061079533297971
20
-33.8252727175068699
11
172.3865485360965693
21
-33.8252727175068699
0
LINE
8
F.Cu
6
CONTINUOUS
10
172.3865485360965693
20
-33.8252727175068699
11
172.3865485360965693
21
-42.1991934945291973
0
LINE
8
F.Cu
6
CONTINUOUS
10
182.8539561010128693
20
-42.1991934945291973
11
176.5735155182461256
21
-42.1991934945291973
0
LINE
8
F.Cu
6
CONTINUOUS
10
176.5735155182461256
20
-42.1991934945291973
11
176.5735155182461256
21
-33.8252727175068699
0
LINE
8
F.Cu
6
CONTINUOUS
10
176.5735155182461256
20
-33.8252727175068699
11
182.8539561010128693
21
-33.8252727175068699
0
LINE
8
F.Cu
6
CONTINUOUS
10
182.8539561010128693
20
-33.8252727175068699
11
182.8539561010128693
21
-42.1991934945291973
0
CIRCLE
8
F.Cu
10
101.2082285250450866
20
-107.0970795164523253
40
0.9890457610656306
0
CIRCLE
8
F.Cu
10
159.8256739642014566
20
-136.4058022360305245
40
0.9890457610656306
0
CIRCLE
8
F.Cu
10
159.8256739642014566
20
-77.7883567968741403
40
0.9890457610656306
0
LINE
8
F.Cu
6
CONTINUOUS
10
30.0299019203552078
20
-24.4046118433567365
11
30.0299019203552078
21
-185.6025868010367788
0
LINE
8
F.Cu
6
CONTINUOUS
10
30.0299019203552078
20
-24.4046118433567365
11
224.7235599861245987
21
-24.4046118433567365
0
LINE
8
F.Cu
6
CONTINUOUS
10
224.7235599861245987
20
-185.6025868010367788
11
30.0299019203552078
21
-185.6025868010367788
0
LINE
8
F.Cu
6
CONTINUOUS
10
224.7235599861245987
20
-185.6025868010367788
11
224.7235599861245987
21
-24.4046118433567365
  0
ENDSEC
  0
EOF
