  0
SECTION
  2
HEADER
  9
$ANGBASE
  50
0.0
  9
$ANGDIR
  70
1
  9
$MEASUREMENT
  70
1
  0
ENDSEC
  0
SECTION
  2
TABLES
  0
TABLE
  2
LTYPE
  70
4
  0
LTYPE
  5
40F
  2
CONTINUOUS
  70
0
  3
Solid line
  72
65
  73
0
  40
0.0
  0
LTYPE
  5
410
  2
DASHDOT
 70
0
  3
Dash Dot ____ _ ____ _
 72
65
 73
4
 40
2.0
 49
1.25
 49
-0.25
 49
0.25
 49
-0.25
  0
LTYPE
  5
411
  2
DASHED
 70
0
  3
Dashed __ __ __ __ __
 72
65
 73
2
 40
0.75
 49
0.5
 49
-0.25
  0
LTYPE
  5
43B
  2
DOTTED
 70
0
  3
Dotted .  .  .  .
 72
65
 73
2
 40
0.2
 49
0.0
 49
-0.2
  0
ENDTAB
  0
TABLE
  2
STYLE
  70
4
  0
STYLE
  2
KICAD
  70
0
  40
0
  41
1
  42
1
  50
0
  71
0
  3
isocp.shx
  0
STYLE
  2
KICADB
  70
0
  40
0
  41
1
  42
1
  50
0
  71
0
  3
isocp.shx
  0
STYLE
  2
KICADI
  70
0
  40
0
  41
1
  42
1
  50
15
  71
0
  3
isocp.shx
  0
STYLE
  2
KICADBI
  70
0
  40
0
  41
1
  42
1
  50
15
  71
0
  3
isocp.shx
  0
ENDTAB
  0
TABLE
  2
LAYER
  70
1
  0
LAYER
  2
BLACK
  70
0
  62
7
  6
CONTINUOUS
  0
ENDTAB
  0
ENDSEC
  0
SECTION
  2
ENTITIES
0
LINE
8
BLACK
6
CONTINUOUS
10
106.6049819999999926
20
-51.1218569999999985
11
107.3900179999999978
21
-51.9068929999999966
0
LINE
8
BLACK
6
CONTINUOUS
10
107.3900179999999978
20
-51.9068929999999966
11
107.3943749999999966
21
-51.9174109999999942
0
LINE
8
BLACK
6
CONTINUOUS
10
107.3943749999999966
20
-51.9174109999999942
11
107.3943749999999966
21
-52.2287490000000005
0
LINE
8
BLACK
6
CONTINUOUS
10
107.3943749999999966
20
-52.2287490000000005
11
107.4102499999999907
21
-52.2287490000000005
0
LINE
8
BLACK
6
CONTINUOUS
10
107.4102499999999907
20
-52.2287490000000005
11
107.4102499999999907
21
-53.4987489999999966
0
LINE
8
BLACK
6
CONTINUOUS
10
107.4102499999999907
20
-53.4987489999999966
11
107.3795020000000022
21
-53.4987489999999966
0
LINE
8
BLACK
6
CONTINUOUS
10
107.3795020000000022
20
-53.4987489999999966
11
107.3794999999999931
21
-53.498749999999994
0
LINE
8
BLACK
6
CONTINUOUS
10
107.3794999999999931
20
-53.498749999999994
11
106.9329999999999927
21
-53.498749999999994
0
LINE
8
BLACK
6
CONTINUOUS
10
106.9329999999999927
20
-53.498749999999994
11
106.9329979999999978
21
-53.4987489999999966
0
LINE
8
BLACK
6
CONTINUOUS
10
106.9329979999999978
20
-53.4987489999999966
11
106.9022499999999951
21
-53.4987489999999966
0
LINE
8
BLACK
6
CONTINUOUS
10
106.9022499999999951
20
-53.4987489999999966
11
106.9022499999999951
21
-52.2287490000000005
0
LINE
8
BLACK
6
CONTINUOUS
10
106.9022499999999951
20
-52.2287490000000005
11
106.9181249999999892
21
-52.2287490000000005
0
LINE
8
BLACK
6
CONTINUOUS
10
106.9181249999999892
20
-52.2287490000000005
11
106.9181249999999892
21
-52.0700000000000003
0
LINE
8
BLACK
6
CONTINUOUS
10
106.9181249999999892
20
-52.0700000000000003
11
106.6006249999999937
21
-51.7524999999999977
0
LINE
8
BLACK
6
CONTINUOUS
10
106.6006249999999937
20
-51.7524999999999977
11
103.2668749999999989
21
-51.7524999999999977
0
LINE
8
BLACK
6
CONTINUOUS
10
103.2668749999999989
20
-51.7524999999999977
11
102.9493749999999892
21
-52.0700000000000003
0
LINE
8
BLACK
6
CONTINUOUS
10
102.9493749999999892
20
-52.0700000000000003
11
102.9493749999999892
21
-56.0387500000000003
0
LINE
8
BLACK
6
CONTINUOUS
10
102.9493749999999892
20
-56.0387500000000003
11
103.3462499999999977
21
-56.4356249999999946
0
LINE
8
BLACK
6
CONTINUOUS
10
103.3462499999999977
20
-56.4356249999999946
11
105.6419640000000015
21
-56.4356249999999946
0
LINE
8
BLACK
6
CONTINUOUS
10
105.6419640000000015
20
-56.4356249999999946
11
105.652481999999992
21
-56.4399820000000005
0
LINE
8
BLACK
6
CONTINUOUS
10
105.652481999999992
20
-56.4399820000000005
11
106.5168929999999961
21
-57.3043929999999975
0
LINE
8
BLACK
6
CONTINUOUS
10
106.5168929999999961
20
-57.3043929999999975
11
106.5186980000000005
21
-57.3087499999999963
0
LINE
8
BLACK
6
CONTINUOUS
10
106.5186980000000005
20
-57.3087499999999963
11
106.5212509999999924
21
-57.3087499999999963
0
LINE
8
BLACK
6
CONTINUOUS
10
106.5212509999999924
20
-57.3087499999999963
11
106.5212509999999924
21
-58.5787499999999994
0
LINE
8
BLACK
6
CONTINUOUS
10
106.5212509999999924
20
-58.5787499999999994
11
105.5687509999999918
21
-58.5787499999999994
0
LINE
8
BLACK
6
CONTINUOUS
10
105.5687509999999918
20
-58.5787499999999994
11
105.0986609999999928
21
-58.5787499999999994
0
LINE
8
BLACK
6
CONTINUOUS
10
105.0986609999999928
20
-58.5787499999999994
11
105.0881430000000023
21
-58.5743930000000006
0
LINE
8
BLACK
6
CONTINUOUS
10
105.0881430000000023
20
-58.5743930000000006
11
104.7793569999999903
21
-58.2656069999999957
0
LINE
8
BLACK
6
CONTINUOUS
10
104.7793569999999903
20
-58.2656069999999957
11
104.7749999999999915
21
-58.2550889999999981
0
LINE
8
BLACK
6
CONTINUOUS
10
104.7749999999999915
20
-58.2550889999999981
11
104.7749999999999915
21
-57.3087499999999963
0
LINE
8
BLACK
6
CONTINUOUS
10
104.7749999999999915
20
-57.3087499999999963
11
104.3781249999999972
21
-56.9118749999999949
0
LINE
8
BLACK
6
CONTINUOUS
10
104.3781249999999972
20
-56.9118749999999949
11
103.3462499999999977
21
-56.9118749999999949
0
LINE
8
BLACK
6
CONTINUOUS
10
103.3462499999999977
20
-56.9118749999999949
11
102.9493749999999892
21
-57.3087499999999963
0
LINE
8
BLACK
6
CONTINUOUS
10
102.9493749999999892
20
-57.3087499999999963
11
102.9493749999999892
21
-58.2550889999999981
0
LINE
8
BLACK
6
CONTINUOUS
10
102.9493749999999892
20
-58.2550889999999981
11
102.9450179999999904
21
-58.2656069999999957
0
LINE
8
BLACK
6
CONTINUOUS
10
102.9450179999999904
20
-58.2656069999999957
11
102.6362319999999926
21
-58.5743930000000006
0
LINE
8
BLACK
6
CONTINUOUS
10
102.6362319999999926
20
-58.5743930000000006
11
102.6257140000000021
21
-58.5787499999999994
0
LINE
8
BLACK
6
CONTINUOUS
10
102.6257140000000021
20
-58.5787499999999994
11
101.1386249999999905
21
-58.5787499999999994
0
LINE
8
BLACK
6
CONTINUOUS
10
101.1386249999999905
20
-58.5787499999999994
11
101.1386199999999889
21
-58.5787479999999974
0
LINE
8
BLACK
6
CONTINUOUS
10
101.1386199999999889
20
-58.5787479999999974
11
101.1237509999999986
21
-58.5787479999999974
0
LINE
8
BLACK
6
CONTINUOUS
10
101.1237509999999986
20
-58.5787479999999974
11
101.1237509999999986
21
-58.563876999999998
0
LINE
8
BLACK
6
CONTINUOUS
10
101.1237509999999986
20
-58.563876999999998
11
101.1237500000000011
21
-58.5638749999999959
0
LINE
8
BLACK
6
CONTINUOUS
10
101.1237500000000011
20
-58.5638749999999959
11
101.1237500000000011
21
-56.8386609999999948
0
LINE
8
BLACK
6
CONTINUOUS
10
101.1237500000000011
20
-56.8386609999999948
11
101.128107
21
-56.8281429999999972
0
LINE
8
BLACK
6
CONTINUOUS
10
101.128107
20
-56.8281429999999972
11
101.4368929999999978
21
-56.5193569999999994
0
LINE
8
BLACK
6
CONTINUOUS
10
101.4368929999999978
20
-56.5193569999999994
11
101.4474110000000024
21
-56.5150000000000006
0
LINE
8
BLACK
6
CONTINUOUS
10
101.4474110000000024
20
-56.5150000000000006
11
102.0762500000000017
21
-56.5150000000000006
0
LINE
8
BLACK
6
CONTINUOUS
10
102.0762500000000017
20
-56.5150000000000006
11
102.473124999999996
21
-56.1181249999999991
0
LINE
8
BLACK
6
CONTINUOUS
10
102.473124999999996
20
-56.1181249999999991
11
102.473124999999996
21
-54.6893749999999983
0
LINE
8
BLACK
6
CONTINUOUS
10
102.473124999999996
20
-54.6893749999999983
11
102.1556250000000006
21
-54.3718749999999957
0
LINE
8
BLACK
6
CONTINUOUS
10
102.1556250000000006
20
-54.3718749999999957
11
100.8856249999999903
21
-54.3718749999999957
0
LINE
8
BLACK
6
CONTINUOUS
10
100.8856249999999903
20
-54.3718749999999957
11
99.6949999999999932
21
-55.5625
0
LINE
8
BLACK
6
CONTINUOUS
10
99.6949999999999932
20
-55.5625
11
99.6949999999999932
21
-59.6106249999999989
0
LINE
8
BLACK
6
CONTINUOUS
10
99.6949999999999932
20
-59.6106249999999989
11
100.6474999999999937
21
-60.5631249999999994
0
LINE
8
BLACK
6
CONTINUOUS
10
100.6474999999999937
20
-60.5631249999999994
11
100.806248999999994
21
-60.5631249999999994
0
LINE
8
BLACK
6
CONTINUOUS
10
100.806248999999994
20
-60.5631249999999994
11
100.806248999999994
21
-60.5472490000000008
0
LINE
8
BLACK
6
CONTINUOUS
10
100.806248999999994
20
-60.5472490000000008
11
102.07624899999999
21
-60.5472490000000008
0
LINE
8
BLACK
6
CONTINUOUS
10
102.07624899999999
20
-60.5472490000000008
11
102.07624899999999
21
-60.5779969999999963
0
LINE
8
BLACK
6
CONTINUOUS
10
102.07624899999999
20
-60.5779969999999963
11
102.0762500000000017
21
-60.5779999999999959
0
LINE
8
BLACK
6
CONTINUOUS
10
102.0762500000000017
20
-60.5779999999999959
11
102.0762500000000017
21
-61.0244999999999962
0
LINE
8
BLACK
6
CONTINUOUS
10
102.0762500000000017
20
-61.0244999999999962
11
102.07624899999999
21
-61.0245019999999982
0
LINE
8
BLACK
6
CONTINUOUS
10
102.07624899999999
20
-61.0245019999999982
11
102.07624899999999
21
-61.0552489999999963
0
LINE
8
BLACK
6
CONTINUOUS
10
102.07624899999999
20
-61.0552489999999963
11
100.806248999999994
21
-61.0552489999999963
0
LINE
8
BLACK
6
CONTINUOUS
10
100.806248999999994
20
-61.0552489999999963
11
100.806248999999994
21
-61.0393749999999997
0
LINE
8
BLACK
6
CONTINUOUS
10
100.806248999999994
20
-61.0393749999999997
11
100.4949110000000019
21
-61.0393749999999997
0
LINE
8
BLACK
6
CONTINUOUS
10
100.4949110000000019
20
-61.0393749999999997
11
100.4843929999999972
21
-61.0350179999999938
0
LINE
8
BLACK
6
CONTINUOUS
10
100.4843929999999972
20
-61.0350179999999938
11
99.9331249999999898
21
-60.4837500000000006
0
LINE
8
BLACK
6
CONTINUOUS
10
99.9331249999999898
20
-60.4837500000000006
11
98.2662499999999994
21
-60.4837500000000006
0
LINE
8
BLACK
6
CONTINUOUS
10
98.2662499999999994
20
-60.4837500000000006
11
97.6312499999999943
21
-61.1187499999999986
0
LINE
8
BLACK
6
CONTINUOUS
10
97.6312499999999943
20
-61.1187499999999986
11
97.6312509999999918
21
-61.1187499999999986
0
LINE
8
BLACK
6
CONTINUOUS
10
97.6312509999999918
20
-61.1187499999999986
11
97.6312509999999918
21
-62.3887499999999946
0
LINE
8
BLACK
6
CONTINUOUS
10
97.6312509999999918
20
-62.3887499999999946
11
97.6163749999999908
21
-62.3887499999999946
0
LINE
8
BLACK
6
CONTINUOUS
10
97.6163749999999908
20
-62.3887499999999946
11
96.6787499999999937
21
-62.3887499999999946
0
LINE
8
BLACK
6
CONTINUOUS
10
96.6787499999999937
20
-62.3887499999999946
11
96.2025000000000006
21
-62.8649999999999949
0
LINE
8
BLACK
6
CONTINUOUS
10
96.2025000000000006
20
-62.8649999999999949
11
96.2025000000000006
21
-64.6112499999999983
0
LINE
8
BLACK
6
CONTINUOUS
10
96.2025000000000006
20
-64.6112499999999983
11
97.6268929999999955
21
-66.0356429999999932
0
LINE
8
BLACK
6
CONTINUOUS
10
97.6268929999999955
20
-66.0356429999999932
11
97.628698
21
-66.039999999999992
0
LINE
8
BLACK
6
CONTINUOUS
10
97.628698
20
-66.039999999999992
11
97.6312509999999918
21
-66.039999999999992
0
LINE
8
BLACK
6
CONTINUOUS
10
97.6312509999999918
20
-66.039999999999992
11
97.6312509999999918
21
-67.3100000000000023
0
LINE
8
BLACK
6
CONTINUOUS
10
97.6312509999999918
20
-67.3100000000000023
11
97.6312499999999943
21
-67.3100000000000023
0
LINE
8
BLACK
6
CONTINUOUS
10
97.6312499999999943
20
-67.3100000000000023
11
97.6312499999999943
21
-73.8187499999999943
0
LINE
8
BLACK
6
CONTINUOUS
10
97.6312499999999943
20
-73.8187499999999943
11
98.1075000000000017
21
-74.2950000000000017
0
LINE
8
BLACK
6
CONTINUOUS
10
98.1075000000000017
20
-74.2950000000000017
11
122.2374999999999972
21
-74.2950000000000017
0
LINE
8
BLACK
6
CONTINUOUS
10
122.2374999999999972
20
-74.2950000000000017
11
122.2374999999999972
21
-69.2150000000000034
0
LINE
8
BLACK
6
CONTINUOUS
10
122.2374999999999972
20
-69.2150000000000034
11
120.6500099999999946
21
-69.2150000000000034
0
LINE
8
BLACK
6
CONTINUOUS
10
120.6500099999999946
20
-69.2150000000000034
11
120.6499999999999915
21
-69.2150010000000009
0
LINE
8
BLACK
6
CONTINUOUS
10
120.6499999999999915
20
-69.2150010000000009
11
120.6499899999999883
21
-69.2150000000000034
0
LINE
8
BLACK
6
CONTINUOUS
10
120.6499899999999883
20
-69.2150000000000034
11
118.1100099999999884
21
-69.2150000000000034
0
LINE
8
BLACK
6
CONTINUOUS
10
118.1100099999999884
20
-69.2150000000000034
11
118.1099999999999994
21
-69.2150010000000009
0
LINE
8
BLACK
6
CONTINUOUS
10
118.1099999999999994
20
-69.2150010000000009
11
118.1099899999999963
21
-69.2150000000000034
0
LINE
8
BLACK
6
CONTINUOUS
10
118.1099899999999963
20
-69.2150000000000034
11
117.4749999999999943
21
-69.2150000000000034
0
LINE
8
BLACK
6
CONTINUOUS
10
117.4749999999999943
20
-69.2150000000000034
11
114.304356999999996
21
-72.3856430000000017
0
LINE
8
BLACK
6
CONTINUOUS
10
114.304356999999996
20
-72.3856430000000017
11
114.2938389999999913
21
-72.3900000000000006
0
LINE
8
BLACK
6
CONTINUOUS
10
114.2938389999999913
20
-72.3900000000000006
11
111.607410999999999
21
-72.3900000000000006
0
LINE
8
BLACK
6
CONTINUOUS
10
111.607410999999999
20
-72.3900000000000006
11
111.5968929999999943
21
-72.3856430000000017
0
LINE
8
BLACK
6
CONTINUOUS
10
111.5968929999999943
20
-72.3856430000000017
11
111.1293569999999988
21
-71.918106999999992
0
LINE
8
BLACK
6
CONTINUOUS
10
111.1293569999999988
20
-71.918106999999992
11
111.125
21
-71.9075890000000015
0
LINE
8
BLACK
6
CONTINUOUS
10
111.125
20
-71.9075890000000015
11
111.125
21
-67.7862499999999955
0
LINE
8
BLACK
6
CONTINUOUS
10
111.125
20
-67.7862499999999955
11
110.8074999999999903
21
-67.46875
0
LINE
8
BLACK
6
CONTINUOUS
10
110.8074999999999903
20
-67.46875
11
107.6324999999999932
21
-67.46875
0
LINE
8
BLACK
6
CONTINUOUS
10
107.6324999999999932
20
-67.46875
11
106.6843569999999914
21
-68.4168930000000017
0
LINE
8
BLACK
6
CONTINUOUS
10
106.6843569999999914
20
-68.4168930000000017
11
106.673839000000001
21
-68.4212500000000006
0
LINE
8
BLACK
6
CONTINUOUS
10
106.673839000000001
20
-68.4212500000000006
11
101.7736249999999956
21
-68.4212500000000006
0
LINE
8
BLACK
6
CONTINUOUS
10
101.7736249999999956
20
-68.4212500000000006
11
101.758749999999992
21
-68.4212500000000006
0
LINE
8
BLACK
6
CONTINUOUS
10
101.758749999999992
20
-68.4212500000000006
11
101.758749999999992
21
-66.8337499999999949
0
LINE
8
BLACK
6
CONTINUOUS
10
101.758749999999992
20
-66.8337499999999949
11
104.2987499999999983
21
-66.8337499999999949
0
LINE
8
BLACK
6
CONTINUOUS
10
104.2987499999999983
20
-66.8337499999999949
11
112.2300889999999924
21
-66.8337499999999949
0
LINE
8
BLACK
6
CONTINUOUS
10
112.2300889999999924
20
-66.8337499999999949
11
112.2406069999999971
21
-66.8381069999999937
0
LINE
8
BLACK
6
CONTINUOUS
10
112.2406069999999971
20
-66.8381069999999937
11
114.4587499999999949
21
-69.0562499999999915
0
LINE
8
BLACK
6
CONTINUOUS
10
114.4587499999999949
20
-69.0562499999999915
11
115.7287499999999909
21
-69.0562499999999915
0
LINE
8
BLACK
6
CONTINUOUS
10
115.7287499999999909
20
-69.0562499999999915
11
117.4706429999999955
21
-67.3143570000000011
0
LINE
8
BLACK
6
CONTINUOUS
10
117.4706429999999955
20
-67.3143570000000011
11
117.4811610000000002
21
-67.3100000000000023
0
LINE
8
BLACK
6
CONTINUOUS
10
117.4811610000000002
20
-67.3100000000000023
11
122.2374999999999972
21
-67.3100000000000023
0
LINE
8
BLACK
6
CONTINUOUS
10
122.2374999999999972
20
-67.3100000000000023
11
122.2374999999999972
21
-64.1349999999999909
0
LINE
8
BLACK
6
CONTINUOUS
10
122.2374999999999972
20
-64.1349999999999909
11
120.6500099999999946
21
-64.1349999999999909
0
LINE
8
BLACK
6
CONTINUOUS
10
120.6500099999999946
20
-64.1349999999999909
11
120.6499999999999915
21
-64.1350010000000026
0
LINE
8
BLACK
6
CONTINUOUS
10
120.6499999999999915
20
-64.1350010000000026
11
120.6499899999999883
21
-64.1349999999999909
0
LINE
8
BLACK
6
CONTINUOUS
10
120.6499899999999883
20
-64.1349999999999909
11
118.1100099999999884
21
-64.1349999999999909
0
LINE
8
BLACK
6
CONTINUOUS
10
118.1100099999999884
20
-64.1349999999999909
11
118.1099999999999994
21
-64.1350010000000026
0
LINE
8
BLACK
6
CONTINUOUS
10
118.1099999999999994
20
-64.1350010000000026
11
118.1099899999999963
21
-64.1349999999999909
0
LINE
8
BLACK
6
CONTINUOUS
10
118.1099899999999963
20
-64.1349999999999909
11
117.4749999999999943
21
-64.1349999999999909
0
LINE
8
BLACK
6
CONTINUOUS
10
117.4749999999999943
20
-64.1349999999999909
11
116.5268569999999926
21
-65.0831429999999926
0
LINE
8
BLACK
6
CONTINUOUS
10
116.5268569999999926
20
-65.0831429999999926
11
116.5163389999999879
21
-65.0874999999999915
0
LINE
8
BLACK
6
CONTINUOUS
10
116.5163389999999879
20
-65.0874999999999915
11
114.1474109999999911
21
-65.0874999999999915
0
LINE
8
BLACK
6
CONTINUOUS
10
114.1474109999999911
20
-65.0874999999999915
11
114.1368930000000006
21
-65.0831429999999926
0
LINE
8
BLACK
6
CONTINUOUS
10
114.1368930000000006
20
-65.0831429999999926
11
113.3474999999999966
21
-64.2937500000000028
0
LINE
8
BLACK
6
CONTINUOUS
10
113.3474999999999966
20
-64.2937500000000028
11
112.2511250000000018
21
-64.2937500000000028
0
LINE
8
BLACK
6
CONTINUOUS
10
112.2511250000000018
20
-64.2937500000000028
11
112.2362490000000008
21
-64.2937500000000028
0
LINE
8
BLACK
6
CONTINUOUS
10
112.2362490000000008
20
-64.2937500000000028
11
112.2362490000000008
21
-63.0237499999999997
0
LINE
8
BLACK
6
CONTINUOUS
10
112.2362490000000008
20
-63.0237499999999997
11
113.1887490000000014
21
-63.0237499999999997
0
LINE
8
BLACK
6
CONTINUOUS
10
113.1887490000000014
20
-63.0237499999999997
11
113.664999999999992
21
-63.0237499999999997
0
LINE
8
BLACK
6
CONTINUOUS
10
113.664999999999992
20
-63.0237499999999997
11
113.9825000000000017
21
-62.7062499999999972
0
LINE
8
BLACK
6
CONTINUOUS
10
113.9825000000000017
20
-62.7062499999999972
11
113.9825000000000017
21
-61.3568749999999952
0
LINE
8
BLACK
6
CONTINUOUS
10
113.9825000000000017
20
-61.3568749999999952
11
113.664999999999992
21
-61.0393749999999997
0
LINE
8
BLACK
6
CONTINUOUS
10
113.664999999999992
20
-61.0393749999999997
11
113.5062509999999918
21
-61.0393749999999997
0
LINE
8
BLACK
6
CONTINUOUS
10
113.5062509999999918
20
-61.0393749999999997
11
113.5062509999999918
21
-61.0552489999999963
0
LINE
8
BLACK
6
CONTINUOUS
10
113.5062509999999918
20
-61.0552489999999963
11
112.2362509999999958
21
-61.0552489999999963
0
LINE
8
BLACK
6
CONTINUOUS
10
112.2362509999999958
20
-61.0552489999999963
11
112.2362509999999958
21
-61.0245019999999982
0
LINE
8
BLACK
6
CONTINUOUS
10
112.2362509999999958
20
-61.0245019999999982
11
112.2362499999999983
21
-61.0244999999999962
0
LINE
8
BLACK
6
CONTINUOUS
10
112.2362499999999983
20
-61.0244999999999962
11
112.2362499999999983
21
-60.5779999999999959
0
LINE
8
BLACK
6
CONTINUOUS
10
112.2362499999999983
20
-60.5779999999999959
11
112.2362509999999958
21
-60.5779969999999963
0
LINE
8
BLACK
6
CONTINUOUS
10
112.2362509999999958
20
-60.5779969999999963
11
112.2362509999999958
21
-60.5472490000000008
0
LINE
8
BLACK
6
CONTINUOUS
10
112.2362509999999958
20
-60.5472490000000008
11
113.5062509999999918
21
-60.5472490000000008
0
LINE
8
BLACK
6
CONTINUOUS
10
113.5062509999999918
20
-60.5472490000000008
11
113.5062509999999918
21
-60.5631249999999994
0
LINE
8
BLACK
6
CONTINUOUS
10
113.5062509999999918
20
-60.5631249999999994
11
115.8019639999999981
21
-60.5631249999999994
0
LINE
8
BLACK
6
CONTINUOUS
10
115.8019639999999981
20
-60.5631249999999994
11
115.8124819999999886
21
-60.5674819999999983
0
LINE
8
BLACK
6
CONTINUOUS
10
115.8124819999999886
20
-60.5674819999999983
11
117.4749999999999943
21
-62.2299999999999969
0
LINE
8
BLACK
6
CONTINUOUS
10
117.4749999999999943
20
-62.2299999999999969
11
122.2374999999999972
21
-62.2299999999999969
0
LINE
8
BLACK
6
CONTINUOUS
10
122.2374999999999972
20
-62.2299999999999969
11
122.2374999999999972
21
-59.3724999999999952
0
LINE
8
BLACK
6
CONTINUOUS
10
122.2374999999999972
20
-59.3724999999999952
11
118.4336610000000007
21
-59.3724999999999952
0
LINE
8
BLACK
6
CONTINUOUS
10
118.4336610000000007
20
-59.3724999999999952
11
118.4231429999999961
21
-59.3681429999999963
0
LINE
8
BLACK
6
CONTINUOUS
10
118.4231429999999961
20
-59.3681429999999963
11
117.7968569999999886
21
-58.741856999999996
0
LINE
8
BLACK
6
CONTINUOUS
10
117.7968569999999886
20
-58.741856999999996
11
117.7924999999999898
21
-58.7313389999999984
0
LINE
8
BLACK
6
CONTINUOUS
10
117.7924999999999898
20
-58.7313389999999984
11
117.7924999999999898
21
-56.197499999999998
0
LINE
8
BLACK
6
CONTINUOUS
10
117.7924999999999898
20
-56.197499999999998
11
113.1931069999999977
21
-51.5981069999999988
0
LINE
8
BLACK
6
CONTINUOUS
10
113.1931069999999977
20
-51.5981069999999988
11
113.1887499999999989
21
-51.5875889999999941
0
LINE
8
BLACK
6
CONTINUOUS
10
113.1887499999999989
20
-51.5875889999999941
11
113.1887499999999989
21
-51.1323749999999961
0
LINE
8
BLACK
6
CONTINUOUS
10
113.1887499999999989
20
-51.1323749999999961
11
113.1931069999999977
21
-51.1218569999999985
0
LINE
8
BLACK
6
CONTINUOUS
10
113.1931069999999977
20
-51.1218569999999985
11
113.2036249999999882
21
-51.1174999999999997
0
LINE
8
BLACK
6
CONTINUOUS
10
113.2036249999999882
20
-51.1174999999999997
11
124.4451249999999902
21
-51.1174999999999997
0
LINE
8
BLACK
6
CONTINUOUS
10
124.4451249999999902
20
-51.1174999999999997
11
124.4556429999999949
21
-51.1218569999999985
0
LINE
8
BLACK
6
CONTINUOUS
10
124.4556429999999949
20
-51.1218569999999985
11
124.4599999999999937
21
-51.1323749999999961
0
LINE
8
BLACK
6
CONTINUOUS
10
124.4599999999999937
20
-51.1323749999999961
11
124.4599999999999937
21
-74.9151250000000033
0
LINE
8
BLACK
6
CONTINUOUS
10
124.4599999999999937
20
-74.9151250000000033
11
124.4556429999999949
21
-74.9256429999999938
0
LINE
8
BLACK
6
CONTINUOUS
10
124.4556429999999949
20
-74.9256429999999938
11
124.4451249999999902
21
-74.9299999999999926
0
LINE
8
BLACK
6
CONTINUOUS
10
124.4451249999999902
20
-74.9299999999999926
11
95.582374999999999
21
-74.9299999999999926
0
LINE
8
BLACK
6
CONTINUOUS
10
95.582374999999999
20
-74.9299999999999926
11
95.5718569999999943
21
-74.9256429999999938
0
LINE
8
BLACK
6
CONTINUOUS
10
95.5718569999999943
20
-74.9256429999999938
11
95.5674999999999955
21
-74.9151250000000033
0
LINE
8
BLACK
6
CONTINUOUS
10
95.5674999999999955
20
-74.9151250000000033
11
95.5674999999999955
21
-51.1323749999999961
0
LINE
8
BLACK
6
CONTINUOUS
10
95.5674999999999955
20
-51.1323749999999961
11
95.5718569999999943
21
-51.1218569999999985
0
LINE
8
BLACK
6
CONTINUOUS
10
95.5718569999999943
20
-51.1218569999999985
11
95.582374999999999
21
-51.1174999999999997
0
LINE
8
BLACK
6
CONTINUOUS
10
95.582374999999999
20
-51.1174999999999997
11
106.5944640000000021
21
-51.1174999999999997
0
LINE
8
BLACK
6
CONTINUOUS
10
106.5944640000000021
20
-51.1174999999999997
11
106.6049819999999926
21
-51.1218569999999985
0
LINE
8
BLACK
6
CONTINUOUS
10
121.5981429999999932
20
-69.8543569999999931
11
121.602499999999992
21
-69.8648749999999978
0
LINE
8
BLACK
6
CONTINUOUS
10
121.602499999999992
20
-69.8648749999999978
11
121.602499999999992
21
-73.8038749999999908
0
LINE
8
BLACK
6
CONTINUOUS
10
121.602499999999992
20
-73.8038749999999908
11
121.5981429999999932
21
-73.8143929999999955
0
LINE
8
BLACK
6
CONTINUOUS
10
121.5981429999999932
20
-73.8143929999999955
11
121.5876249999999885
21
-73.8187499999999943
0
LINE
8
BLACK
6
CONTINUOUS
10
121.5876249999999885
20
-73.8187499999999943
11
99.2336249999999893
21
-73.8187499999999943
0
LINE
8
BLACK
6
CONTINUOUS
10
99.2336249999999893
20
-73.8187499999999943
11
99.21875
21
-73.8187499999999943
0
LINE
8
BLACK
6
CONTINUOUS
10
99.21875
20
-73.8187499999999943
11
99.21875
21
-71.2787500000000023
0
LINE
8
BLACK
6
CONTINUOUS
10
99.21875
20
-71.2787500000000023
11
100.488749999999996
21
-71.2787500000000023
0
LINE
8
BLACK
6
CONTINUOUS
10
100.488749999999996
20
-71.2787500000000023
11
106.673839000000001
21
-71.2787500000000023
0
LINE
8
BLACK
6
CONTINUOUS
10
106.673839000000001
20
-71.2787500000000023
11
106.6843569999999914
21
-71.2831070000000011
0
LINE
8
BLACK
6
CONTINUOUS
10
106.6843569999999914
20
-71.2831070000000011
11
108.1087500000000006
21
-72.707499999999996
0
LINE
8
BLACK
6
CONTINUOUS
10
108.1087500000000006
20
-72.707499999999996
11
114.6174999999999926
21
-72.707499999999996
0
LINE
8
BLACK
6
CONTINUOUS
10
114.6174999999999926
20
-72.707499999999996
11
117.4706429999999955
21
-69.8543569999999931
0
LINE
8
BLACK
6
CONTINUOUS
10
117.4706429999999955
20
-69.8543569999999931
11
117.4811610000000002
21
-69.8499999999999943
0
LINE
8
BLACK
6
CONTINUOUS
10
117.4811610000000002
20
-69.8499999999999943
11
121.5876249999999885
21
-69.8499999999999943
0
LINE
8
BLACK
6
CONTINUOUS
10
121.5876249999999885
20
-69.8499999999999943
11
121.5981429999999932
21
-69.8543569999999931
0
LINE
8
BLACK
6
CONTINUOUS
10
112.7168569999999903
20
-65.7268569999999954
11
113.8237499999999898
21
-66.8337499999999949
0
LINE
8
BLACK
6
CONTINUOUS
10
113.8237499999999898
20
-66.8337499999999949
11
115.0788749999999965
21
-66.8337499999999949
0
LINE
8
BLACK
6
CONTINUOUS
10
115.0788749999999965
20
-66.8337499999999949
11
115.0817319999999881
21
-66.8349329999999924
0
LINE
8
BLACK
6
CONTINUOUS
10
115.0817319999999881
20
-66.8349329999999924
11
115.09375
21
-66.8337499999999949
0
LINE
8
BLACK
6
CONTINUOUS
10
115.09375
20
-66.8337499999999949
11
115.2795739999999967
21
-66.8520520000000005
0
LINE
8
BLACK
6
CONTINUOUS
10
115.2795739999999967
20
-66.8520520000000005
11
115.4582559999999916
21
-66.9062550000000016
0
LINE
8
BLACK
6
CONTINUOUS
10
115.4582559999999916
20
-66.9062550000000016
11
115.6229309999999941
21
-66.9942750000000018
0
LINE
8
BLACK
6
CONTINUOUS
10
115.6229309999999941
20
-66.9942750000000018
11
115.7672689999999989
21
-67.1127309999999966
0
LINE
8
BLACK
6
CONTINUOUS
10
115.7672689999999989
20
-67.1127309999999966
11
115.8857249999999937
21
-67.2570690000000013
0
LINE
8
BLACK
6
CONTINUOUS
10
115.8857249999999937
20
-67.2570690000000013
11
115.9737449999999939
21
-67.4217440000000039
0
LINE
8
BLACK
6
CONTINUOUS
10
115.9737449999999939
20
-67.4217440000000039
11
116.027947999999995
21
-67.6004259999999988
0
LINE
8
BLACK
6
CONTINUOUS
10
116.027947999999995
20
-67.6004259999999988
11
116.0462500000000006
21
-67.7862499999999955
0
LINE
8
BLACK
6
CONTINUOUS
10
116.0462500000000006
20
-67.7862499999999955
11
116.027947999999995
21
-67.9720739999999921
0
LINE
8
BLACK
6
CONTINUOUS
10
116.027947999999995
20
-67.9720739999999921
11
115.9737449999999939
21
-68.1507560000000012
0
LINE
8
BLACK
6
CONTINUOUS
10
115.9737449999999939
20
-68.1507560000000012
11
115.8857249999999937
21
-68.3154310000000038
0
LINE
8
BLACK
6
CONTINUOUS
10
115.8857249999999937
20
-68.3154310000000038
11
115.7672689999999989
21
-68.4597689999999943
0
LINE
8
BLACK
6
CONTINUOUS
10
115.7672689999999989
20
-68.4597689999999943
11
115.6229309999999941
21
-68.5782250000000033
0
LINE
8
BLACK
6
CONTINUOUS
10
115.6229309999999941
20
-68.5782250000000033
11
115.4582559999999916
21
-68.6662450000000035
0
LINE
8
BLACK
6
CONTINUOUS
10
115.4582559999999916
20
-68.6662450000000035
11
115.2795739999999967
21
-68.7204479999999904
0
LINE
8
BLACK
6
CONTINUOUS
10
115.2795739999999967
20
-68.7204479999999904
11
115.09375
21
-68.738749999999996
0
LINE
8
BLACK
6
CONTINUOUS
10
115.09375
20
-68.738749999999996
11
115.0817319999999881
21
-68.7375660000000011
0
LINE
8
BLACK
6
CONTINUOUS
10
115.0817319999999881
20
-68.7375660000000011
11
115.0788749999999965
21
-68.738749999999996
0
LINE
8
BLACK
6
CONTINUOUS
10
115.0788749999999965
20
-68.738749999999996
11
114.6236609999999985
21
-68.738749999999996
0
LINE
8
BLACK
6
CONTINUOUS
10
114.6236609999999985
20
-68.738749999999996
11
114.6131429999999938
21
-68.7343929999999972
0
LINE
8
BLACK
6
CONTINUOUS
10
114.6131429999999938
20
-68.7343929999999972
11
112.394999999999996
21
-66.5162499999999994
0
LINE
8
BLACK
6
CONTINUOUS
10
112.394999999999996
20
-66.5162499999999994
11
100.9649999999999892
21
-66.5162499999999994
0
LINE
8
BLACK
6
CONTINUOUS
10
100.9649999999999892
20
-66.5162499999999994
11
100.488749999999996
21
-66.9924999999999926
0
LINE
8
BLACK
6
CONTINUOUS
10
100.488749999999996
20
-66.9924999999999926
11
100.488749999999996
21
-68.5799999999999983
0
LINE
8
BLACK
6
CONTINUOUS
10
100.488749999999996
20
-68.5799999999999983
11
100.9649999999999892
21
-69.0562499999999915
0
LINE
8
BLACK
6
CONTINUOUS
10
100.9649999999999892
20
-69.0562499999999915
11
106.9974999999999881
21
-69.0562499999999915
0
LINE
8
BLACK
6
CONTINUOUS
10
106.9974999999999881
20
-69.0562499999999915
11
108.0837489999999974
21
-67.9700009999999963
0
LINE
8
BLACK
6
CONTINUOUS
10
108.0837489999999974
20
-67.9700009999999963
11
108.0837489999999974
21
-67.9449999999999932
0
LINE
8
BLACK
6
CONTINUOUS
10
108.0837489999999974
20
-67.9449999999999932
11
110.6237489999999895
21
-67.9449999999999932
0
LINE
8
BLACK
6
CONTINUOUS
10
110.6237489999999895
20
-67.9449999999999932
11
110.6338749999999891
21
-67.9449999999999932
0
LINE
8
BLACK
6
CONTINUOUS
10
110.6338749999999891
20
-67.9449999999999932
11
110.6443929999999938
21
-67.949356999999992
0
LINE
8
BLACK
6
CONTINUOUS
10
110.6443929999999938
20
-67.949356999999992
11
110.6487499999999926
21
-67.9598749999999967
0
LINE
8
BLACK
6
CONTINUOUS
10
110.6487499999999926
20
-67.9598749999999967
11
110.6487499999999926
21
-71.7401249999999919
0
LINE
8
BLACK
6
CONTINUOUS
10
110.6487499999999926
20
-71.7401249999999919
11
110.6443929999999938
21
-71.7506429999999966
0
LINE
8
BLACK
6
CONTINUOUS
10
110.6443929999999938
20
-71.7506429999999966
11
110.6338749999999891
21
-71.7549999999999955
0
LINE
8
BLACK
6
CONTINUOUS
10
110.6338749999999891
20
-71.7549999999999955
11
108.1149109999999922
21
-71.7549999999999955
0
LINE
8
BLACK
6
CONTINUOUS
10
108.1149109999999922
20
-71.7549999999999955
11
108.0837489999999974
21
-71.7549999999999955
0
LINE
8
BLACK
6
CONTINUOUS
10
108.0837489999999974
20
-71.7549999999999955
11
108.0837489999999974
21
-71.7299989999999923
0
LINE
8
BLACK
6
CONTINUOUS
10
108.0837489999999974
20
-71.7299989999999923
11
106.9974999999999881
21
-70.6437499999999972
0
LINE
8
BLACK
6
CONTINUOUS
10
106.9974999999999881
20
-70.6437499999999972
11
98.9161249999999939
21
-70.6437499999999972
0
LINE
8
BLACK
6
CONTINUOUS
10
98.9161249999999939
20
-70.6437499999999972
11
98.9056069999999892
21
-70.6393929999999983
0
LINE
8
BLACK
6
CONTINUOUS
10
98.9056069999999892
20
-70.6393929999999983
11
98.9012499999999903
21
-70.6288749999999936
0
LINE
8
BLACK
6
CONTINUOUS
10
98.9012499999999903
20
-70.6288749999999936
11
98.9012499999999903
21
-67.3100000000000023
0
LINE
8
BLACK
6
CONTINUOUS
10
98.9012499999999903
20
-67.3100000000000023
11
98.9012489999999929
21
-67.3100000000000023
0
LINE
8
BLACK
6
CONTINUOUS
10
98.9012489999999929
20
-67.3100000000000023
11
98.9012489999999929
21
-66.039999999999992
0
LINE
8
BLACK
6
CONTINUOUS
10
98.9012489999999929
20
-66.039999999999992
11
98.9012499999999903
21
-66.039999999999992
0
LINE
8
BLACK
6
CONTINUOUS
10
98.9012499999999903
20
-66.039999999999992
11
98.9012499999999903
21
-65.7373750000000001
0
LINE
8
BLACK
6
CONTINUOUS
10
98.9012499999999903
20
-65.7373750000000001
11
98.9056069999999892
21
-65.7268569999999954
0
LINE
8
BLACK
6
CONTINUOUS
10
98.9056069999999892
20
-65.7268569999999954
11
98.9161249999999939
21
-65.7224999999999966
0
LINE
8
BLACK
6
CONTINUOUS
10
98.9161249999999939
20
-65.7224999999999966
11
112.7063389999999998
21
-65.7224999999999966
0
LINE
8
BLACK
6
CONTINUOUS
10
112.7063389999999998
20
-65.7224999999999966
11
112.7168569999999903
21
-65.7268569999999954
0
LINE
8
BLACK
6
CONTINUOUS
10
97.6312509999999918
20
-64.2937500000000028
11
97.6312499999999943
21
-64.2937500000000028
0
LINE
8
BLACK
6
CONTINUOUS
10
97.6312499999999943
20
-64.2937500000000028
11
98.1075000000000017
21
-64.769999999999996
0
LINE
8
BLACK
6
CONTINUOUS
10
98.1075000000000017
20
-64.769999999999996
11
113.3413389999999907
21
-64.769999999999996
0
LINE
8
BLACK
6
CONTINUOUS
10
113.3413389999999907
20
-64.769999999999996
11
113.3518569999999954
21
-64.7743569999999949
0
LINE
8
BLACK
6
CONTINUOUS
10
113.3518569999999954
20
-64.7743569999999949
11
113.9825000000000017
21
-65.4050000000000011
0
LINE
8
BLACK
6
CONTINUOUS
10
113.9825000000000017
20
-65.4050000000000011
11
116.8399999999999892
21
-65.4050000000000011
0
LINE
8
BLACK
6
CONTINUOUS
10
116.8399999999999892
20
-65.4050000000000011
11
117.4706429999999955
21
-64.7743569999999949
0
LINE
8
BLACK
6
CONTINUOUS
10
117.4706429999999955
20
-64.7743569999999949
11
117.4811610000000002
21
-64.769999999999996
0
LINE
8
BLACK
6
CONTINUOUS
10
117.4811610000000002
20
-64.769999999999996
11
121.5876249999999885
21
-64.769999999999996
0
LINE
8
BLACK
6
CONTINUOUS
10
121.5876249999999885
20
-64.769999999999996
11
121.5981429999999932
21
-64.7743569999999949
0
LINE
8
BLACK
6
CONTINUOUS
10
121.5981429999999932
20
-64.7743569999999949
11
121.602499999999992
21
-64.7848749999999995
0
LINE
8
BLACK
6
CONTINUOUS
10
121.602499999999992
20
-64.7848749999999995
11
121.602499999999992
21
-66.6601249999999936
0
LINE
8
BLACK
6
CONTINUOUS
10
121.602499999999992
20
-66.6601249999999936
11
121.5981429999999932
21
-66.6706429999999983
0
LINE
8
BLACK
6
CONTINUOUS
10
121.5981429999999932
20
-66.6706429999999983
11
121.5876249999999885
21
-66.6749999999999972
0
LINE
8
BLACK
6
CONTINUOUS
10
121.5876249999999885
20
-66.6749999999999972
11
120.6500099999999946
21
-66.6749999999999972
0
LINE
8
BLACK
6
CONTINUOUS
10
120.6500099999999946
20
-66.6749999999999972
11
120.6499999999999915
21
-66.6750009999999946
0
LINE
8
BLACK
6
CONTINUOUS
10
120.6499999999999915
20
-66.6750009999999946
11
120.6499899999999883
21
-66.6749999999999972
0
LINE
8
BLACK
6
CONTINUOUS
10
120.6499899999999883
20
-66.6749999999999972
11
118.1099999999999994
21
-66.6749999999999972
0
LINE
8
BLACK
6
CONTINUOUS
10
118.1099999999999994
20
-66.6749999999999972
11
117.4811610000000002
21
-66.6749999999999972
0
LINE
8
BLACK
6
CONTINUOUS
10
117.4811610000000002
20
-66.6749999999999972
11
117.4706429999999955
21
-66.6706429999999983
0
LINE
8
BLACK
6
CONTINUOUS
10
117.4706429999999955
20
-66.6706429999999983
11
116.8399999999999892
21
-66.039999999999992
0
LINE
8
BLACK
6
CONTINUOUS
10
116.8399999999999892
20
-66.039999999999992
11
113.6711609999999979
21
-66.039999999999992
0
LINE
8
BLACK
6
CONTINUOUS
10
113.6711609999999979
20
-66.039999999999992
11
113.6606429999999932
21
-66.0356429999999932
0
LINE
8
BLACK
6
CONTINUOUS
10
113.6606429999999932
20
-66.0356429999999932
11
113.0300000000000011
21
-65.4050000000000011
0
LINE
8
BLACK
6
CONTINUOUS
10
113.0300000000000011
20
-65.4050000000000011
11
97.7961609999999979
21
-65.4050000000000011
0
LINE
8
BLACK
6
CONTINUOUS
10
97.7961609999999979
20
-65.4050000000000011
11
97.7856429999999932
21
-65.4006430000000023
0
LINE
8
BLACK
6
CONTINUOUS
10
97.7856429999999932
20
-65.4006430000000023
11
96.6831069999999926
21
-64.2981070000000017
0
LINE
8
BLACK
6
CONTINUOUS
10
96.6831069999999926
20
-64.2981070000000017
11
96.6813020000000023
21
-64.2937500000000028
0
LINE
8
BLACK
6
CONTINUOUS
10
96.6813020000000023
20
-64.2937500000000028
11
96.6787509999999912
21
-64.2937500000000028
0
LINE
8
BLACK
6
CONTINUOUS
10
96.6787509999999912
20
-64.2937500000000028
11
96.6787509999999912
21
-64.2875909999999919
0
LINE
8
BLACK
6
CONTINUOUS
10
96.6787509999999912
20
-64.2875909999999919
11
96.6787499999999937
21
-64.287588999999997
0
LINE
8
BLACK
6
CONTINUOUS
10
96.6787499999999937
20
-64.287588999999997
11
96.6787499999999937
21
-63.0386249999999961
0
LINE
8
BLACK
6
CONTINUOUS
10
96.6787499999999937
20
-63.0386249999999961
11
96.6787509999999912
21
-63.0386219999999966
0
LINE
8
BLACK
6
CONTINUOUS
10
96.6787509999999912
20
-63.0386219999999966
11
96.6787509999999912
21
-63.0237499999999997
0
LINE
8
BLACK
6
CONTINUOUS
10
96.6787509999999912
20
-63.0237499999999997
11
97.6312509999999918
21
-63.0237499999999997
0
LINE
8
BLACK
6
CONTINUOUS
10
97.6312509999999918
20
-63.0237499999999997
11
97.6312509999999918
21
-64.2937500000000028
0
LINE
8
BLACK
6
CONTINUOUS
10
99.8537489999999934
20
-61.1213009999999954
11
99.8581069999999897
21
-61.1231069999999974
0
LINE
8
BLACK
6
CONTINUOUS
10
99.8581069999999897
20
-61.1231069999999974
11
100.2506249999999994
21
-61.515625
0
LINE
8
BLACK
6
CONTINUOUS
10
100.2506249999999994
20
-61.515625
11
100.8062499999999915
21
-61.515625
0
LINE
8
BLACK
6
CONTINUOUS
10
100.8062499999999915
20
-61.515625
11
100.8062499999999915
21
-61.4997489999999942
0
LINE
8
BLACK
6
CONTINUOUS
10
100.8062499999999915
20
-61.4997489999999942
11
102.0762500000000017
21
-61.4997489999999942
0
LINE
8
BLACK
6
CONTINUOUS
10
102.0762500000000017
20
-61.4997489999999942
11
102.0762500000000017
21
-62.0077489999999969
0
LINE
8
BLACK
6
CONTINUOUS
10
102.0762500000000017
20
-62.0077489999999969
11
100.8062499999999915
21
-62.0077489999999969
0
LINE
8
BLACK
6
CONTINUOUS
10
100.8062499999999915
20
-62.0077489999999969
11
100.8062499999999915
21
-61.9918750000000003
0
LINE
8
BLACK
6
CONTINUOUS
10
100.8062499999999915
20
-61.9918750000000003
11
100.2506249999999994
21
-61.9918750000000003
0
LINE
8
BLACK
6
CONTINUOUS
10
100.2506249999999994
20
-61.9918750000000003
11
99.8537499999999909
21
-62.3887499999999946
0
LINE
8
BLACK
6
CONTINUOUS
10
99.8537499999999909
20
-62.3887499999999946
11
99.8537499999999909
21
-64.2788749999999993
0
LINE
8
BLACK
6
CONTINUOUS
10
99.8537499999999909
20
-64.2788749999999993
11
99.8537489999999934
21
-64.2788769999999943
0
LINE
8
BLACK
6
CONTINUOUS
10
99.8537489999999934
20
-64.2788769999999943
11
99.8537489999999934
21
-64.2937500000000028
0
LINE
8
BLACK
6
CONTINUOUS
10
99.8537489999999934
20
-64.2937500000000028
11
99.8388750000000016
21
-64.2937500000000028
0
LINE
8
BLACK
6
CONTINUOUS
10
99.8388750000000016
20
-64.2937500000000028
11
98.9161249999999939
21
-64.2937500000000028
0
LINE
8
BLACK
6
CONTINUOUS
10
98.9161249999999939
20
-64.2937500000000028
11
98.9012489999999929
21
-64.2937500000000028
0
LINE
8
BLACK
6
CONTINUOUS
10
98.9012489999999929
20
-64.2937500000000028
11
98.9012489999999929
21
-63.0237499999999997
0
LINE
8
BLACK
6
CONTINUOUS
10
98.9012489999999929
20
-63.0237499999999997
11
98.9012499999999903
21
-63.0237499999999997
0
LINE
8
BLACK
6
CONTINUOUS
10
98.9012499999999903
20
-63.0237499999999997
11
98.9012499999999903
21
-62.3887499999999946
0
LINE
8
BLACK
6
CONTINUOUS
10
98.9012499999999903
20
-62.3887499999999946
11
98.9012489999999929
21
-62.3887499999999946
0
LINE
8
BLACK
6
CONTINUOUS
10
98.9012489999999929
20
-62.3887499999999946
11
98.9012489999999929
21
-61.1187499999999986
0
LINE
8
BLACK
6
CONTINUOUS
10
98.9012489999999929
20
-61.1187499999999986
11
99.8537489999999934
21
-61.1187499999999986
0
LINE
8
BLACK
6
CONTINUOUS
10
99.8537489999999934
20
-61.1187499999999986
11
99.8537489999999934
21
-61.1213009999999954
0
LINE
8
BLACK
6
CONTINUOUS
10
102.0613749999999982
20
-54.7687499999999972
11
102.0762509999999992
21
-54.7687499999999972
0
LINE
8
BLACK
6
CONTINUOUS
10
102.0762509999999992
20
-54.7687499999999972
11
102.0762509999999992
21
-56.0387500000000003
0
LINE
8
BLACK
6
CONTINUOUS
10
102.0762509999999992
20
-56.0387500000000003
11
102.0613749999999982
21
-56.0387500000000003
0
LINE
8
BLACK
6
CONTINUOUS
10
102.0613749999999982
20
-56.0387500000000003
11
100.9649999999999892
21
-56.0387500000000003
0
LINE
8
BLACK
6
CONTINUOUS
10
100.9649999999999892
20
-56.0387500000000003
11
100.6474999999999937
21
-56.3562499999999957
0
LINE
8
BLACK
6
CONTINUOUS
10
100.6474999999999937
20
-56.3562499999999957
11
100.6474999999999937
21
-59.2931249999999963
0
LINE
8
BLACK
6
CONTINUOUS
10
100.6474999999999937
20
-59.2931249999999963
11
100.9491239999999976
21
-59.5947490000000002
0
LINE
8
BLACK
6
CONTINUOUS
10
100.9491239999999976
20
-59.5947490000000002
11
102.0762500000000017
21
-59.5947490000000002
0
LINE
8
BLACK
6
CONTINUOUS
10
102.0762500000000017
20
-59.5947490000000002
11
102.0762500000000017
21
-59.6106249999999989
0
LINE
8
BLACK
6
CONTINUOUS
10
102.0762500000000017
20
-59.6106249999999989
11
102.3082139999999924
21
-59.6106249999999989
0
LINE
8
BLACK
6
CONTINUOUS
10
102.3082139999999924
20
-59.6106249999999989
11
102.3187319999999971
21
-59.6149819999999977
0
LINE
8
BLACK
6
CONTINUOUS
10
102.3187319999999971
20
-59.6149819999999977
11
102.9450179999999904
21
-60.241267999999998
0
LINE
8
BLACK
6
CONTINUOUS
10
102.9450179999999904
20
-60.241267999999998
11
102.9493749999999892
21
-60.2517859999999956
0
LINE
8
BLACK
6
CONTINUOUS
10
102.9493749999999892
20
-60.2517859999999956
11
102.9493749999999892
21
-62.4619639999999947
0
LINE
8
BLACK
6
CONTINUOUS
10
102.9493749999999892
20
-62.4619639999999947
11
102.9450179999999904
21
-62.4724819999999994
0
LINE
8
BLACK
6
CONTINUOUS
10
102.9450179999999904
20
-62.4724819999999994
11
102.0762509999999992
21
-63.3412489999999977
0
LINE
8
BLACK
6
CONTINUOUS
10
102.0762509999999992
20
-63.3412489999999977
11
102.0762509999999992
21
-64.2937500000000028
0
LINE
8
BLACK
6
CONTINUOUS
10
102.0762509999999992
20
-64.2937500000000028
11
102.0613749999999982
21
-64.2937500000000028
0
LINE
8
BLACK
6
CONTINUOUS
10
102.0613749999999982
20
-64.2937500000000028
11
101.1386249999999905
21
-64.2937500000000028
0
LINE
8
BLACK
6
CONTINUOUS
10
101.1386249999999905
20
-64.2937500000000028
11
101.1237509999999986
21
-64.2937500000000028
0
LINE
8
BLACK
6
CONTINUOUS
10
101.1237509999999986
20
-64.2937500000000028
11
101.1237509999999986
21
-64.2788769999999943
0
LINE
8
BLACK
6
CONTINUOUS
10
101.1237509999999986
20
-64.2788769999999943
11
101.1237500000000011
21
-64.2788749999999993
0
LINE
8
BLACK
6
CONTINUOUS
10
101.1237500000000011
20
-64.2788749999999993
11
101.1237500000000011
21
-63.0386249999999961
0
LINE
8
BLACK
6
CONTINUOUS
10
101.1237500000000011
20
-63.0386249999999961
11
101.1237509999999986
21
-63.0386219999999966
0
LINE
8
BLACK
6
CONTINUOUS
10
101.1237509999999986
20
-63.0386219999999966
11
101.1237509999999986
21
-63.0237499999999997
0
LINE
8
BLACK
6
CONTINUOUS
10
101.1237509999999986
20
-63.0237499999999997
11
101.758749999999992
21
-63.0237499999999997
0
LINE
8
BLACK
6
CONTINUOUS
10
101.758749999999992
20
-63.0237499999999997
11
102.473124999999996
21
-62.3093749999999957
0
LINE
8
BLACK
6
CONTINUOUS
10
102.473124999999996
20
-62.3093749999999957
11
102.473124999999996
21
-60.4043749999999946
0
LINE
8
BLACK
6
CONTINUOUS
10
102.473124999999996
20
-60.4043749999999946
11
102.1556250000000006
21
-60.0868749999999991
0
LINE
8
BLACK
6
CONTINUOUS
10
102.1556250000000006
20
-60.0868749999999991
11
102.0762500000000017
21
-60.0868749999999991
0
LINE
8
BLACK
6
CONTINUOUS
10
102.0762500000000017
20
-60.0868749999999991
11
102.0762500000000017
21
-60.1027489999999958
0
LINE
8
BLACK
6
CONTINUOUS
10
102.0762500000000017
20
-60.1027489999999958
11
100.8062499999999915
21
-60.1027489999999958
0
LINE
8
BLACK
6
CONTINUOUS
10
100.8062499999999915
20
-60.1027489999999958
11
100.8062499999999915
21
-60.0868749999999991
0
LINE
8
BLACK
6
CONTINUOUS
10
100.8062499999999915
20
-60.0868749999999991
11
100.6536609999999996
21
-60.0868749999999991
0
LINE
8
BLACK
6
CONTINUOUS
10
100.6536609999999996
20
-60.0868749999999991
11
100.6431429999999949
21
-60.0825180000000003
0
LINE
8
BLACK
6
CONTINUOUS
10
100.6431429999999949
20
-60.0825180000000003
11
100.0168570000000017
21
-59.456232
0
LINE
8
BLACK
6
CONTINUOUS
10
100.0168570000000017
20
-59.456232
11
100.0124999999999886
21
-59.4457139999999953
0
LINE
8
BLACK
6
CONTINUOUS
10
100.0124999999999886
20
-59.4457139999999953
11
100.0124999999999886
21
-55.7274109999999965
0
LINE
8
BLACK
6
CONTINUOUS
10
100.0124999999999886
20
-55.7274109999999965
11
100.0168570000000017
21
-55.7168929999999989
0
LINE
8
BLACK
6
CONTINUOUS
10
100.0168570000000017
20
-55.7168929999999989
11
100.9606429999999904
21
-54.773106999999996
0
LINE
8
BLACK
6
CONTINUOUS
10
100.9606429999999904
20
-54.773106999999996
11
100.9711609999999951
21
-54.7687499999999972
0
LINE
8
BLACK
6
CONTINUOUS
10
100.9711609999999951
20
-54.7687499999999972
11
102.0613749999999982
21
-54.7687499999999972
0
LINE
8
BLACK
6
CONTINUOUS
10
106.5212509999999924
20
-61.436249999999994
11
106.5186969999999889
21
-61.436249999999994
0
LINE
8
BLACK
6
CONTINUOUS
10
106.5186969999999889
20
-61.436249999999994
11
106.5168929999999961
21
-61.4406059999999954
0
LINE
8
BLACK
6
CONTINUOUS
10
106.5168929999999961
20
-61.4406059999999954
11
105.8906069999999886
21
-62.0668930000000003
0
LINE
8
BLACK
6
CONTINUOUS
10
105.8906069999999886
20
-62.0668930000000003
11
105.8800889999999981
21
-62.0712499999999991
0
LINE
8
BLACK
6
CONTINUOUS
10
105.8800889999999981
20
-62.0712499999999991
11
104.6162499999999937
21
-62.0712499999999991
0
LINE
8
BLACK
6
CONTINUOUS
10
104.6162499999999937
20
-62.0712499999999991
11
104.2987499999999983
21
-62.3887499999999946
0
LINE
8
BLACK
6
CONTINUOUS
10
104.2987499999999983
20
-62.3887499999999946
11
104.2987499999999983
21
-64.2788749999999993
0
LINE
8
BLACK
6
CONTINUOUS
10
104.2987499999999983
20
-64.2788749999999993
11
104.2987490000000008
21
-64.2788769999999943
0
LINE
8
BLACK
6
CONTINUOUS
10
104.2987490000000008
20
-64.2788769999999943
11
104.2987490000000008
21
-64.2937500000000028
0
LINE
8
BLACK
6
CONTINUOUS
10
104.2987490000000008
20
-64.2937500000000028
11
104.2838749999999948
21
-64.2937500000000028
0
LINE
8
BLACK
6
CONTINUOUS
10
104.2838749999999948
20
-64.2937500000000028
11
103.3611250000000013
21
-64.2937500000000028
0
LINE
8
BLACK
6
CONTINUOUS
10
103.3611250000000013
20
-64.2937500000000028
11
103.3462490000000003
21
-64.2937500000000028
0
LINE
8
BLACK
6
CONTINUOUS
10
103.3462490000000003
20
-64.2937500000000028
11
103.3462490000000003
21
-63.0237499999999997
0
LINE
8
BLACK
6
CONTINUOUS
10
103.3462490000000003
20
-63.0237499999999997
11
103.3462499999999977
21
-63.0237499999999997
0
LINE
8
BLACK
6
CONTINUOUS
10
103.3462499999999977
20
-63.0237499999999997
11
103.3462499999999977
21
-61.4511240000000001
0
LINE
8
BLACK
6
CONTINUOUS
10
103.3462499999999977
20
-61.4511240000000001
11
103.3506069999999966
21
-61.4406059999999954
0
LINE
8
BLACK
6
CONTINUOUS
10
103.3506069999999966
20
-61.4406059999999954
11
103.3611239999999896
21
-61.4362489999999966
0
LINE
8
BLACK
6
CONTINUOUS
10
103.3611239999999896
20
-61.4362489999999966
11
105.2512499999999989
21
-61.436249999999994
0
LINE
8
BLACK
6
CONTINUOUS
10
105.2512499999999989
20
-61.436249999999994
11
105.5687499999999943
21
-61.1187499999999986
0
LINE
8
BLACK
6
CONTINUOUS
10
105.5687499999999943
20
-61.1187499999999986
11
105.5687499999999943
21
-60.1811249999999944
0
LINE
8
BLACK
6
CONTINUOUS
10
105.5687499999999943
20
-60.1811249999999944
11
105.5687509999999918
21
-60.1811219999999949
0
LINE
8
BLACK
6
CONTINUOUS
10
105.5687509999999918
20
-60.1811219999999949
11
105.5687509999999918
21
-60.166249999999998
0
LINE
8
BLACK
6
CONTINUOUS
10
105.5687509999999918
20
-60.166249999999998
11
106.5212509999999924
21
-60.166249999999998
0
LINE
8
BLACK
6
CONTINUOUS
10
106.5212509999999924
20
-60.166249999999998
11
106.5212509999999924
21
-61.436249999999994
0
LINE
8
BLACK
6
CONTINUOUS
10
108.4218929999999972
20
-54.773106999999996
11
108.426249999999996
21
-54.7836250000000007
0
LINE
8
BLACK
6
CONTINUOUS
10
108.426249999999996
20
-54.7836250000000007
11
108.426249999999996
21
-56.9912500000000009
0
LINE
8
BLACK
6
CONTINUOUS
10
108.426249999999996
20
-56.9912500000000009
11
108.7393929999999926
21
-57.3043929999999975
0
LINE
8
BLACK
6
CONTINUOUS
10
108.7393929999999926
20
-57.3043929999999975
11
108.7411979999999971
21
-57.3087499999999963
0
LINE
8
BLACK
6
CONTINUOUS
10
108.7411979999999971
20
-57.3087499999999963
11
108.743748999999994
21
-57.3087499999999963
0
LINE
8
BLACK
6
CONTINUOUS
10
108.743748999999994
20
-57.3087499999999963
11
108.743748999999994
21
-57.3149079999999955
0
LINE
8
BLACK
6
CONTINUOUS
10
108.743748999999994
20
-57.3149079999999955
11
108.7437499999999915
21
-57.3149109999999951
0
LINE
8
BLACK
6
CONTINUOUS
10
108.7437499999999915
20
-57.3149109999999951
11
108.7437499999999915
21
-58.5725890000000007
0
LINE
8
BLACK
6
CONTINUOUS
10
108.7437499999999915
20
-58.5725890000000007
11
108.743748999999994
21
-58.5725909999999956
0
LINE
8
BLACK
6
CONTINUOUS
10
108.743748999999994
20
-58.5725909999999956
11
108.743748999999994
21
-58.5787499999999994
0
LINE
8
BLACK
6
CONTINUOUS
10
108.743748999999994
20
-58.5787499999999994
11
108.7411979999999971
21
-58.5787499999999994
0
LINE
8
BLACK
6
CONTINUOUS
10
108.7411979999999971
20
-58.5787499999999994
11
108.7393929999999926
21
-58.5831069999999983
0
LINE
8
BLACK
6
CONTINUOUS
10
108.7393929999999926
20
-58.5831069999999983
11
107.3943749999999966
21
-59.9281249999999943
0
LINE
8
BLACK
6
CONTINUOUS
10
107.3943749999999966
20
-59.9281249999999943
11
107.3943749999999966
21
-61.5949999999999989
0
LINE
8
BLACK
6
CONTINUOUS
10
107.3943749999999966
20
-61.5949999999999989
11
107.711874999999992
21
-61.9124999999999943
0
LINE
8
BLACK
6
CONTINUOUS
10
107.711874999999992
20
-61.9124999999999943
11
109.2199999999999989
21
-61.9124999999999943
0
LINE
8
BLACK
6
CONTINUOUS
10
109.2199999999999989
20
-61.9124999999999943
11
109.6918939999999907
21
-61.4406049999999979
0
LINE
8
BLACK
6
CONTINUOUS
10
109.6918939999999907
20
-61.4406049999999979
11
109.7024079999999913
21
-61.4362489999999966
0
LINE
8
BLACK
6
CONTINUOUS
10
109.7024079999999913
20
-61.4362489999999966
11
110.9513749999999987
21
-61.4362489999999966
0
LINE
8
BLACK
6
CONTINUOUS
10
110.9513749999999987
20
-61.4362489999999966
11
110.9618929999999892
21
-61.4406059999999954
0
LINE
8
BLACK
6
CONTINUOUS
10
110.9618929999999892
20
-61.4406059999999954
11
110.9662499999999881
21
-61.4511240000000001
0
LINE
8
BLACK
6
CONTINUOUS
10
110.9662499999999881
20
-61.4511240000000001
11
110.9662499999999881
21
-63.0237499999999997
0
LINE
8
BLACK
6
CONTINUOUS
10
110.9662499999999881
20
-63.0237499999999997
11
110.9662509999999997
21
-63.0237499999999997
0
LINE
8
BLACK
6
CONTINUOUS
10
110.9662509999999997
20
-63.0237499999999997
11
110.9662509999999997
21
-64.2937500000000028
0
LINE
8
BLACK
6
CONTINUOUS
10
110.9662509999999997
20
-64.2937500000000028
11
110.0137509999999992
21
-64.2937500000000028
0
LINE
8
BLACK
6
CONTINUOUS
10
110.0137509999999992
20
-64.2937500000000028
11
110.0137500000000017
21
-64.2937500000000028
0
LINE
8
BLACK
6
CONTINUOUS
10
110.0137500000000017
20
-64.2937500000000028
11
106.2186249999999887
21
-64.2937500000000028
0
LINE
8
BLACK
6
CONTINUOUS
10
106.2186249999999887
20
-64.2937500000000028
11
106.2157669999999996
21
-64.2925659999999937
0
LINE
8
BLACK
6
CONTINUOUS
10
106.2157669999999996
20
-64.2925659999999937
11
106.2037499999999994
21
-64.2937500000000028
0
LINE
8
BLACK
6
CONTINUOUS
10
106.2037499999999994
20
-64.2937500000000028
11
106.0179259999999886
21
-64.2754479999999973
0
LINE
8
BLACK
6
CONTINUOUS
10
106.0179259999999886
20
-64.2754479999999973
11
105.8392439999999937
21
-64.2212449999999961
0
LINE
8
BLACK
6
CONTINUOUS
10
105.8392439999999937
20
-64.2212449999999961
11
105.6745689999999911
21
-64.1332249999999959
0
LINE
8
BLACK
6
CONTINUOUS
10
105.6745689999999911
20
-64.1332249999999959
11
105.5302310000000006
21
-64.0147690000000011
0
LINE
8
BLACK
6
CONTINUOUS
10
105.5302310000000006
20
-64.0147690000000011
11
105.4117749999999916
21
-63.8704309999999964
0
LINE
8
BLACK
6
CONTINUOUS
10
105.4117749999999916
20
-63.8704309999999964
11
105.3237549999999914
21
-63.7057559999999938
0
LINE
8
BLACK
6
CONTINUOUS
10
105.3237549999999914
20
-63.7057559999999938
11
105.2695519999999902
21
-63.5270739999999989
0
LINE
8
BLACK
6
CONTINUOUS
10
105.2695519999999902
20
-63.5270739999999989
11
105.2512499999999989
21
-63.3412499999999952
0
LINE
8
BLACK
6
CONTINUOUS
10
105.2512499999999989
20
-63.3412499999999952
11
105.2695519999999902
21
-63.1554259999999985
0
LINE
8
BLACK
6
CONTINUOUS
10
105.2695519999999902
20
-63.1554259999999985
11
105.3237549999999914
21
-62.9767439999999965
0
LINE
8
BLACK
6
CONTINUOUS
10
105.3237549999999914
20
-62.9767439999999965
11
105.4117749999999916
21
-62.8120689999999939
0
LINE
8
BLACK
6
CONTINUOUS
10
105.4117749999999916
20
-62.8120689999999939
11
105.5302310000000006
21
-62.6677309999999963
0
LINE
8
BLACK
6
CONTINUOUS
10
105.5302310000000006
20
-62.6677309999999963
11
105.6745689999999911
21
-62.5492749999999944
0
LINE
8
BLACK
6
CONTINUOUS
10
105.6745689999999911
20
-62.5492749999999944
11
105.8392439999999937
21
-62.4612549999999942
0
LINE
8
BLACK
6
CONTINUOUS
10
105.8392439999999937
20
-62.4612549999999942
11
106.0179259999999886
21
-62.4070520000000002
0
LINE
8
BLACK
6
CONTINUOUS
10
106.0179259999999886
20
-62.4070520000000002
11
106.2037499999999994
21
-62.3887499999999946
0
LINE
8
BLACK
6
CONTINUOUS
10
106.2037499999999994
20
-62.3887499999999946
11
106.2062019999999904
21
-62.3889909999999972
0
LINE
8
BLACK
6
CONTINUOUS
10
106.2062019999999904
20
-62.3889909999999972
11
106.2081069999999983
21
-62.3843929999999958
0
LINE
8
BLACK
6
CONTINUOUS
10
106.2081069999999983
20
-62.3843929999999958
11
106.9181249999999892
21
-61.6743749999999977
0
LINE
8
BLACK
6
CONTINUOUS
10
106.9181249999999892
20
-61.6743749999999977
11
106.9181249999999892
21
-60.166249999999998
0
LINE
8
BLACK
6
CONTINUOUS
10
106.9181249999999892
20
-60.166249999999998
11
106.441874999999996
21
-59.6899999999999977
0
LINE
8
BLACK
6
CONTINUOUS
10
106.441874999999996
20
-59.6899999999999977
11
105.0925000000000011
21
-59.6899999999999977
0
LINE
8
BLACK
6
CONTINUOUS
10
105.0925000000000011
20
-59.6899999999999977
11
104.6206069999999926
21
-60.1618929999999992
0
LINE
8
BLACK
6
CONTINUOUS
10
104.6206069999999926
20
-60.1618929999999992
11
104.6100890000000021
21
-60.166249999999998
0
LINE
8
BLACK
6
CONTINUOUS
10
104.6100890000000021
20
-60.166249999999998
11
103.3611250000000013
21
-60.166249999999998
0
LINE
8
BLACK
6
CONTINUOUS
10
103.3611250000000013
20
-60.166249999999998
11
103.3506069999999966
21
-60.1618929999999992
0
LINE
8
BLACK
6
CONTINUOUS
10
103.3506069999999966
20
-60.1618929999999992
11
103.3462499999999977
21
-60.1513749999999945
0
LINE
8
BLACK
6
CONTINUOUS
10
103.3462499999999977
20
-60.1513749999999945
11
103.3462499999999977
21
-58.5787479999999974
0
LINE
8
BLACK
6
CONTINUOUS
10
103.3462499999999977
20
-58.5787479999999974
11
103.3462490000000003
21
-58.5787479999999974
0
LINE
8
BLACK
6
CONTINUOUS
10
103.3462490000000003
20
-58.5787479999999974
11
103.3462490000000003
21
-57.3087479999999942
0
LINE
8
BLACK
6
CONTINUOUS
10
103.3462490000000003
20
-57.3087479999999942
11
104.2987490000000008
21
-57.3087479999999942
0
LINE
8
BLACK
6
CONTINUOUS
10
104.2987490000000008
20
-57.3087479999999942
11
104.2987490000000008
21
-57.3236220000000003
0
LINE
8
BLACK
6
CONTINUOUS
10
104.2987490000000008
20
-57.3236220000000003
11
104.2987499999999983
21
-57.3236249999999998
0
LINE
8
BLACK
6
CONTINUOUS
10
104.2987499999999983
20
-57.3236249999999998
11
104.2987499999999983
21
-58.7374999999999972
0
LINE
8
BLACK
6
CONTINUOUS
10
104.2987499999999983
20
-58.7374999999999972
11
104.6162499999999937
21
-59.0549999999999997
0
LINE
8
BLACK
6
CONTINUOUS
10
104.6162499999999937
20
-59.0549999999999997
11
105.0925000000000011
21
-59.0549999999999997
0
LINE
8
BLACK
6
CONTINUOUS
10
105.0925000000000011
20
-59.0549999999999997
11
107.3149999999999977
21
-59.0549999999999997
0
LINE
8
BLACK
6
CONTINUOUS
10
107.3149999999999977
20
-59.0549999999999997
11
107.7912499999999909
21
-58.5787499999999994
0
LINE
8
BLACK
6
CONTINUOUS
10
107.7912499999999909
20
-58.5787499999999994
11
107.7912489999999934
21
-58.5787499999999994
0
LINE
8
BLACK
6
CONTINUOUS
10
107.7912489999999934
20
-58.5787499999999994
11
107.7912489999999934
21
-57.3087499999999963
0
LINE
8
BLACK
6
CONTINUOUS
10
107.7912489999999934
20
-57.3087499999999963
11
107.7912499999999909
21
-57.3087499999999963
0
LINE
8
BLACK
6
CONTINUOUS
10
107.7912499999999909
20
-57.3087499999999963
11
107.7912499999999909
21
-54.7836250000000007
0
LINE
8
BLACK
6
CONTINUOUS
10
107.7912499999999909
20
-54.7836250000000007
11
107.7956069999999897
21
-54.773106999999996
0
LINE
8
BLACK
6
CONTINUOUS
10
107.7956069999999897
20
-54.773106999999996
11
107.8061249999999944
21
-54.7687499999999972
0
LINE
8
BLACK
6
CONTINUOUS
10
107.8061249999999944
20
-54.7687499999999972
11
108.4113749999999925
21
-54.7687499999999972
0
LINE
8
BLACK
6
CONTINUOUS
10
108.4113749999999925
20
-54.7687499999999972
11
108.4218929999999972
21
-54.773106999999996
0
LINE
8
BLACK
6
CONTINUOUS
10
113.1887490000000014
20
-54.783621999999994
11
113.1887499999999989
21
-54.7836250000000007
0
LINE
8
BLACK
6
CONTINUOUS
10
113.1887499999999989
20
-54.7836250000000007
11
113.1887499999999989
21
-58.5638749999999959
0
LINE
8
BLACK
6
CONTINUOUS
10
113.1887499999999989
20
-58.5638749999999959
11
113.1887490000000014
21
-58.563876999999998
0
LINE
8
BLACK
6
CONTINUOUS
10
113.1887490000000014
20
-58.563876999999998
11
113.1887490000000014
21
-58.5787479999999974
0
LINE
8
BLACK
6
CONTINUOUS
10
113.1887490000000014
20
-58.5787479999999974
11
113.1738799999999969
21
-58.5787479999999974
0
LINE
8
BLACK
6
CONTINUOUS
10
113.1738799999999969
20
-58.5787479999999974
11
113.1738749999999953
21
-58.5787499999999994
0
LINE
8
BLACK
6
CONTINUOUS
10
113.1738749999999953
20
-58.5787499999999994
11
112.5537499999999937
21
-58.5787499999999994
0
LINE
8
BLACK
6
CONTINUOUS
10
112.5537499999999937
20
-58.5787499999999994
11
111.8393749999999898
21
-59.2931249999999963
0
LINE
8
BLACK
6
CONTINUOUS
10
111.8393749999999898
20
-59.2931249999999963
11
111.8393749999999898
21
-61.1981249999999974
0
LINE
8
BLACK
6
CONTINUOUS
10
111.8393749999999898
20
-61.1981249999999974
11
112.1568749999999994
21
-61.515625
0
LINE
8
BLACK
6
CONTINUOUS
10
112.1568749999999994
20
-61.515625
11
112.2362499999999983
21
-61.515625
0
LINE
8
BLACK
6
CONTINUOUS
10
112.2362499999999983
20
-61.515625
11
112.2362499999999983
21
-61.4997489999999942
0
LINE
8
BLACK
6
CONTINUOUS
10
112.2362499999999983
20
-61.4997489999999942
11
113.5062499999999943
21
-61.4997489999999942
0
LINE
8
BLACK
6
CONTINUOUS
10
113.5062499999999943
20
-61.4997489999999942
11
113.5062499999999943
21
-62.0077489999999969
0
LINE
8
BLACK
6
CONTINUOUS
10
113.5062499999999943
20
-62.0077489999999969
11
112.2362499999999983
21
-62.0077489999999969
0
LINE
8
BLACK
6
CONTINUOUS
10
112.2362499999999983
20
-62.0077489999999969
11
112.2362499999999983
21
-61.9918750000000003
0
LINE
8
BLACK
6
CONTINUOUS
10
112.2362499999999983
20
-61.9918750000000003
11
112.0042859999999934
21
-61.9918750000000003
0
LINE
8
BLACK
6
CONTINUOUS
10
112.0042859999999934
20
-61.9918750000000003
11
111.9937679999999887
21
-61.9875179999999943
0
LINE
8
BLACK
6
CONTINUOUS
10
111.9937679999999887
20
-61.9875179999999943
11
111.3674819999999954
21
-61.361231999999994
0
LINE
8
BLACK
6
CONTINUOUS
10
111.3674819999999954
20
-61.361231999999994
11
111.3631249999999966
21
-61.3507139999999964
0
LINE
8
BLACK
6
CONTINUOUS
10
111.3631249999999966
20
-61.3507139999999964
11
111.3631249999999966
21
-59.1405359999999973
0
LINE
8
BLACK
6
CONTINUOUS
10
111.3631249999999966
20
-59.1405359999999973
11
111.3674819999999954
21
-59.1300179999999997
0
LINE
8
BLACK
6
CONTINUOUS
10
111.3674819999999954
20
-59.1300179999999997
11
112.2362490000000008
21
-58.2612509999999943
0
LINE
8
BLACK
6
CONTINUOUS
10
112.2362490000000008
20
-58.2612509999999943
11
112.2362490000000008
21
-57.3087479999999942
0
LINE
8
BLACK
6
CONTINUOUS
10
112.2362490000000008
20
-57.3087479999999942
11
112.2362499999999983
21
-57.3087479999999942
0
LINE
8
BLACK
6
CONTINUOUS
10
112.2362499999999983
20
-57.3087479999999942
11
112.2362499999999983
21
-56.0387500000000003
0
LINE
8
BLACK
6
CONTINUOUS
10
112.2362499999999983
20
-56.0387500000000003
11
112.2362490000000008
21
-56.0387500000000003
0
LINE
8
BLACK
6
CONTINUOUS
10
112.2362490000000008
20
-56.0387500000000003
11
112.2362490000000008
21
-54.7687499999999972
0
LINE
8
BLACK
6
CONTINUOUS
10
112.2362490000000008
20
-54.7687499999999972
11
113.1887490000000014
21
-54.7687499999999972
0
LINE
8
BLACK
6
CONTINUOUS
10
113.1887490000000014
20
-54.7687499999999972
11
113.1887490000000014
21
-54.783621999999994
0
LINE
8
BLACK
6
CONTINUOUS
10
112.0818569999999994
20
-51.1218569999999985
11
117.4706429999999955
21
-56.5106429999999946
0
LINE
8
BLACK
6
CONTINUOUS
10
117.4706429999999955
20
-56.5106429999999946
11
117.4749999999999943
21
-56.5211609999999993
0
LINE
8
BLACK
6
CONTINUOUS
10
117.4749999999999943
20
-56.5211609999999993
11
117.4749999999999943
21
-59.0549999999999997
0
LINE
8
BLACK
6
CONTINUOUS
10
117.4749999999999943
20
-59.0549999999999997
11
118.1099999999999994
21
-59.6899999999999977
0
LINE
8
BLACK
6
CONTINUOUS
10
118.1099999999999994
20
-59.6899999999999977
11
121.5876249999999885
21
-59.6899999999999977
0
LINE
8
BLACK
6
CONTINUOUS
10
121.5876249999999885
20
-59.6899999999999977
11
121.5981429999999932
21
-59.6943569999999966
0
LINE
8
BLACK
6
CONTINUOUS
10
121.5981429999999932
20
-59.6943569999999966
11
121.602499999999992
21
-59.7048749999999941
0
LINE
8
BLACK
6
CONTINUOUS
10
121.602499999999992
20
-59.7048749999999941
11
121.602499999999992
21
-61.5801249999999953
0
LINE
8
BLACK
6
CONTINUOUS
10
121.602499999999992
20
-61.5801249999999953
11
121.5981429999999932
21
-61.590643
0
LINE
8
BLACK
6
CONTINUOUS
10
121.5981429999999932
20
-61.590643
11
121.5876249999999885
21
-61.5949999999999989
0
LINE
8
BLACK
6
CONTINUOUS
10
121.5876249999999885
20
-61.5949999999999989
11
120.6500099999999946
21
-61.5949999999999989
0
LINE
8
BLACK
6
CONTINUOUS
10
120.6500099999999946
20
-61.5949999999999989
11
120.6499999999999915
21
-61.5950009999999963
0
LINE
8
BLACK
6
CONTINUOUS
10
120.6499999999999915
20
-61.5950009999999963
11
120.6499899999999883
21
-61.5949999999999989
0
LINE
8
BLACK
6
CONTINUOUS
10
120.6499899999999883
20
-61.5949999999999989
11
118.1100099999999884
21
-61.5949999999999989
0
LINE
8
BLACK
6
CONTINUOUS
10
118.1100099999999884
20
-61.5949999999999989
11
118.1099999999999994
21
-61.5950009999999963
0
LINE
8
BLACK
6
CONTINUOUS
10
118.1099999999999994
20
-61.5950009999999963
11
118.1099899999999963
21
-61.5949999999999989
0
LINE
8
BLACK
6
CONTINUOUS
10
118.1099899999999963
20
-61.5949999999999989
11
117.4811610000000002
21
-61.5949999999999989
0
LINE
8
BLACK
6
CONTINUOUS
10
117.4811610000000002
20
-61.5949999999999989
11
117.4706429999999955
21
-61.590643
0
LINE
8
BLACK
6
CONTINUOUS
10
117.4706429999999955
20
-61.590643
11
116.5268569999999926
21
-60.6468569999999971
0
LINE
8
BLACK
6
CONTINUOUS
10
116.5268569999999926
20
-60.6468569999999971
11
116.5224999999999937
21
-60.6363389999999995
0
LINE
8
BLACK
6
CONTINUOUS
10
116.5224999999999937
20
-60.6363389999999995
11
116.5224999999999937
21
-56.832499999999996
0
LINE
8
BLACK
6
CONTINUOUS
10
116.5224999999999937
20
-56.832499999999996
11
113.1887499999999989
21
-53.498749999999994
0
LINE
8
BLACK
6
CONTINUOUS
10
113.1887499999999989
20
-53.498749999999994
11
112.2511250000000018
21
-53.498749999999994
0
LINE
8
BLACK
6
CONTINUOUS
10
112.2511250000000018
20
-53.498749999999994
11
112.2362490000000008
21
-53.498749999999994
0
LINE
8
BLACK
6
CONTINUOUS
10
112.2362490000000008
20
-53.498749999999994
11
112.2362490000000008
21
-52.228749999999998
0
LINE
8
BLACK
6
CONTINUOUS
10
112.2362490000000008
20
-52.228749999999998
11
112.2362499999999983
21
-52.228749999999998
0
LINE
8
BLACK
6
CONTINUOUS
10
112.2362499999999983
20
-52.228749999999998
11
112.2362499999999983
21
-52.0700000000000003
0
LINE
8
BLACK
6
CONTINUOUS
10
112.2362499999999983
20
-52.0700000000000003
11
111.9187499999999886
21
-51.7524999999999977
0
LINE
8
BLACK
6
CONTINUOUS
10
111.9187499999999886
20
-51.7524999999999977
11
108.6643749999999926
21
-51.7524999999999977
0
LINE
8
BLACK
6
CONTINUOUS
10
108.6643749999999926
20
-51.7524999999999977
11
108.426249999999996
21
-51.9906249999999943
0
LINE
8
BLACK
6
CONTINUOUS
10
108.426249999999996
20
-51.9906249999999943
11
108.426249999999996
21
-53.4838749999999976
0
LINE
8
BLACK
6
CONTINUOUS
10
108.426249999999996
20
-53.4838749999999976
11
108.4218929999999972
21
-53.4943929999999952
0
LINE
8
BLACK
6
CONTINUOUS
10
108.4218929999999972
20
-53.4943929999999952
11
108.4113749999999925
21
-53.498749999999994
0
LINE
8
BLACK
6
CONTINUOUS
10
108.4113749999999925
20
-53.498749999999994
11
107.8854999999999933
21
-53.498749999999994
0
LINE
8
BLACK
6
CONTINUOUS
10
107.8854999999999933
20
-53.498749999999994
11
107.8547499999999957
21
-53.498749999999994
0
LINE
8
BLACK
6
CONTINUOUS
10
107.8547499999999957
20
-53.498749999999994
11
107.8547499999999957
21
-52.228749999999998
0
LINE
8
BLACK
6
CONTINUOUS
10
107.8547499999999957
20
-52.228749999999998
11
107.8706249999999898
21
-52.228749999999998
0
LINE
8
BLACK
6
CONTINUOUS
10
107.8706249999999898
20
-52.228749999999998
11
107.8706249999999898
21
-51.9174109999999942
0
LINE
8
BLACK
6
CONTINUOUS
10
107.8706249999999898
20
-51.9174109999999942
11
107.8749819999999886
21
-51.9068929999999966
0
LINE
8
BLACK
6
CONTINUOUS
10
107.8749819999999886
20
-51.9068929999999966
11
108.6600179999999938
21
-51.1218569999999985
0
LINE
8
BLACK
6
CONTINUOUS
10
108.6600179999999938
20
-51.1218569999999985
11
108.6705359999999985
21
-51.1174999999999997
0
LINE
8
BLACK
6
CONTINUOUS
10
108.6705359999999985
20
-51.1174999999999997
11
112.0713389999999947
21
-51.1174999999999997
0
LINE
8
BLACK
6
CONTINUOUS
10
112.0713389999999947
20
-51.1174999999999997
11
112.0818569999999994
21
-51.1218569999999985
0
LINE
8
BLACK
6
CONTINUOUS
10
110.9662509999999997
20
-58.5787479999999974
11
110.9662499999999881
21
-58.5787479999999974
0
LINE
8
BLACK
6
CONTINUOUS
10
110.9662499999999881
20
-58.5787479999999974
11
110.9662499999999881
21
-60.1513749999999945
0
LINE
8
BLACK
6
CONTINUOUS
10
110.9662499999999881
20
-60.1513749999999945
11
110.9618929999999892
21
-60.1618929999999992
0
LINE
8
BLACK
6
CONTINUOUS
10
110.9618929999999892
20
-60.1618929999999992
11
110.9513749999999987
21
-60.166249999999998
0
LINE
8
BLACK
6
CONTINUOUS
10
110.9513749999999987
20
-60.166249999999998
11
109.0612500000000011
21
-60.166249999999998
0
LINE
8
BLACK
6
CONTINUOUS
10
109.0612500000000011
20
-60.166249999999998
11
108.7437499999999915
21
-60.4837500000000006
0
LINE
8
BLACK
6
CONTINUOUS
10
108.7437499999999915
20
-60.4837500000000006
11
108.7437499999999915
21
-61.4213749999999976
0
LINE
8
BLACK
6
CONTINUOUS
10
108.7437499999999915
20
-61.4213749999999976
11
108.743748999999994
21
-61.4213769999999997
0
LINE
8
BLACK
6
CONTINUOUS
10
108.743748999999994
20
-61.4213769999999997
11
108.743748999999994
21
-61.436249999999994
0
LINE
8
BLACK
6
CONTINUOUS
10
108.743748999999994
20
-61.436249999999994
11
108.7288750000000022
21
-61.436249999999994
0
LINE
8
BLACK
6
CONTINUOUS
10
108.7288750000000022
20
-61.436249999999994
11
107.8061249999999944
21
-61.436249999999994
0
LINE
8
BLACK
6
CONTINUOUS
10
107.8061249999999944
20
-61.436249999999994
11
107.7912489999999934
21
-61.436249999999994
0
LINE
8
BLACK
6
CONTINUOUS
10
107.7912489999999934
20
-61.436249999999994
11
107.7912489999999934
21
-60.166249999999998
0
LINE
8
BLACK
6
CONTINUOUS
10
107.7912489999999934
20
-60.166249999999998
11
107.7938019999999995
21
-60.166249999999998
0
LINE
8
BLACK
6
CONTINUOUS
10
107.7938019999999995
20
-60.166249999999998
11
107.7956069999999897
21
-60.1618929999999992
0
LINE
8
BLACK
6
CONTINUOUS
10
107.7956069999999897
20
-60.1618929999999992
11
108.4218929999999972
21
-59.5356069999999988
0
LINE
8
BLACK
6
CONTINUOUS
10
108.4218929999999972
20
-59.5356069999999988
11
108.4324110000000019
21
-59.53125
0
LINE
8
BLACK
6
CONTINUOUS
10
108.4324110000000019
20
-59.53125
11
109.696249999999992
21
-59.53125
0
LINE
8
BLACK
6
CONTINUOUS
10
109.696249999999992
20
-59.53125
11
110.0137500000000017
21
-59.2137499999999974
0
LINE
8
BLACK
6
CONTINUOUS
10
110.0137500000000017
20
-59.2137499999999974
11
110.0137500000000017
21
-57.3236249999999998
0
LINE
8
BLACK
6
CONTINUOUS
10
110.0137500000000017
20
-57.3236249999999998
11
110.0137509999999992
21
-57.3236220000000003
0
LINE
8
BLACK
6
CONTINUOUS
10
110.0137509999999992
20
-57.3236220000000003
11
110.0137509999999992
21
-57.3087479999999942
0
LINE
8
BLACK
6
CONTINUOUS
10
110.0137509999999992
20
-57.3087479999999942
11
110.9662509999999997
21
-57.3087479999999942
0
LINE
8
BLACK
6
CONTINUOUS
10
110.9662509999999997
20
-57.3087479999999942
11
110.9662509999999997
21
-58.5787479999999974
0
LINE
8
BLACK
6
CONTINUOUS
10
115.2795739999999967
20
-57.9620519999999999
11
115.4582559999999916
21
-58.0162549999999939
0
LINE
8
BLACK
6
CONTINUOUS
10
115.4582559999999916
20
-58.0162549999999939
11
115.6229309999999941
21
-58.1042749999999941
0
LINE
8
BLACK
6
CONTINUOUS
10
115.6229309999999941
20
-58.1042749999999941
11
115.7672689999999989
21
-58.222730999999996
0
LINE
8
BLACK
6
CONTINUOUS
10
115.7672689999999989
20
-58.222730999999996
11
115.8857249999999937
21
-58.3670690000000008
0
LINE
8
BLACK
6
CONTINUOUS
10
115.8857249999999937
20
-58.3670690000000008
11
115.9737449999999939
21
-58.5317439999999962
0
LINE
8
BLACK
6
CONTINUOUS
10
115.9737449999999939
20
-58.5317439999999962
11
116.027947999999995
21
-58.7104259999999982
0
LINE
8
BLACK
6
CONTINUOUS
10
116.027947999999995
20
-58.7104259999999982
11
116.0462500000000006
21
-58.8962499999999949
0
LINE
8
BLACK
6
CONTINUOUS
10
116.0462500000000006
20
-58.8962499999999949
11
116.0450659999999914
21
-58.9082669999999951
0
LINE
8
BLACK
6
CONTINUOUS
10
116.0450659999999914
20
-58.9082669999999951
11
116.0462500000000006
21
-58.9111249999999984
0
LINE
8
BLACK
6
CONTINUOUS
10
116.0462500000000006
20
-58.9111249999999984
11
116.0462500000000006
21
-59.6044640000000001
0
LINE
8
BLACK
6
CONTINUOUS
10
116.0462500000000006
20
-59.6044640000000001
11
116.0418930000000017
21
-59.6149819999999977
0
LINE
8
BLACK
6
CONTINUOUS
10
116.0418930000000017
20
-59.6149819999999977
11
115.574356999999992
21
-60.0825180000000003
0
LINE
8
BLACK
6
CONTINUOUS
10
115.574356999999992
20
-60.0825180000000003
11
115.5638390000000015
21
-60.0868749999999991
0
LINE
8
BLACK
6
CONTINUOUS
10
115.5638390000000015
20
-60.0868749999999991
11
113.5062499999999943
21
-60.0868749999999991
0
LINE
8
BLACK
6
CONTINUOUS
10
113.5062499999999943
20
-60.0868749999999991
11
113.5062499999999943
21
-60.1027489999999958
0
LINE
8
BLACK
6
CONTINUOUS
10
113.5062499999999943
20
-60.1027489999999958
11
112.2362499999999983
21
-60.1027489999999958
0
LINE
8
BLACK
6
CONTINUOUS
10
112.2362499999999983
20
-60.1027489999999958
11
112.2362499999999983
21
-59.5947490000000002
0
LINE
8
BLACK
6
CONTINUOUS
10
112.2362499999999983
20
-59.5947490000000002
11
113.5062499999999943
21
-59.5947490000000002
0
LINE
8
BLACK
6
CONTINUOUS
10
113.5062499999999943
20
-59.5947490000000002
11
113.5062499999999943
21
-59.6106249999999989
0
LINE
8
BLACK
6
CONTINUOUS
10
113.5062499999999943
20
-59.6106249999999989
11
113.9825000000000017
21
-59.6106249999999989
0
LINE
8
BLACK
6
CONTINUOUS
10
113.9825000000000017
20
-59.6106249999999989
11
114.1809379999999976
21
-59.4121869999999959
0
LINE
8
BLACK
6
CONTINUOUS
10
114.1809379999999976
20
-59.4121869999999959
11
114.1424820000000011
21
-58.9122649999999979
0
LINE
8
BLACK
6
CONTINUOUS
10
114.1424820000000011
20
-58.9122649999999979
11
114.142747
21
-58.9114529999999945
0
LINE
8
BLACK
6
CONTINUOUS
10
114.142747
20
-58.9114529999999945
11
114.1412499999999994
21
-58.8962499999999949
0
LINE
8
BLACK
6
CONTINUOUS
10
114.1412499999999994
20
-58.8962499999999949
11
114.1595519999999908
21
-58.7104259999999982
0
LINE
8
BLACK
6
CONTINUOUS
10
114.1595519999999908
20
-58.7104259999999982
11
114.2137549999999919
21
-58.5317439999999962
0
LINE
8
BLACK
6
CONTINUOUS
10
114.2137549999999919
20
-58.5317439999999962
11
114.3017749999999921
21
-58.3670690000000008
0
LINE
8
BLACK
6
CONTINUOUS
10
114.3017749999999921
20
-58.3670690000000008
11
114.4202310000000011
21
-58.222730999999996
0
LINE
8
BLACK
6
CONTINUOUS
10
114.4202310000000011
20
-58.222730999999996
11
114.5645689999999917
21
-58.1042749999999941
0
LINE
8
BLACK
6
CONTINUOUS
10
114.5645689999999917
20
-58.1042749999999941
11
114.7292439999999942
21
-58.0162549999999939
0
LINE
8
BLACK
6
CONTINUOUS
10
114.7292439999999942
20
-58.0162549999999939
11
114.9079259999999891
21
-57.9620519999999999
0
LINE
8
BLACK
6
CONTINUOUS
10
114.9079259999999891
20
-57.9620519999999999
11
115.09375
21
-57.9437499999999943
0
LINE
8
BLACK
6
CONTINUOUS
10
115.09375
20
-57.9437499999999943
11
115.2795739999999967
21
-57.9620519999999999
0
LINE
8
BLACK
6
CONTINUOUS
10
104.2987490000000008
20
-52.863749999999996
11
105.9497499999999945
21
-52.863749999999996
0
LINE
8
BLACK
6
CONTINUOUS
10
105.9497499999999945
20
-52.863749999999996
11
105.9497499999999945
21
-52.228749999999998
0
LINE
8
BLACK
6
CONTINUOUS
10
105.9497499999999945
20
-52.228749999999998
11
106.4577499999999901
21
-52.228749999999998
0
LINE
8
BLACK
6
CONTINUOUS
10
106.4577499999999901
20
-52.228749999999998
11
106.4577499999999901
21
-53.498749999999994
0
LINE
8
BLACK
6
CONTINUOUS
10
106.4577499999999901
20
-53.498749999999994
11
106.3476249999999936
21
-53.498749999999994
0
LINE
8
BLACK
6
CONTINUOUS
10
106.3476249999999936
20
-53.498749999999994
11
104.2987499999999983
21
-53.498749999999994
0
LINE
8
BLACK
6
CONTINUOUS
10
104.2987499999999983
20
-53.498749999999994
11
104.2987499999999983
21
-56.0238749999999968
0
LINE
8
BLACK
6
CONTINUOUS
10
104.2987499999999983
20
-56.0238749999999968
11
104.2987490000000008
21
-56.0238769999999988
0
LINE
8
BLACK
6
CONTINUOUS
10
104.2987490000000008
20
-56.0238769999999988
11
104.2987490000000008
21
-56.0387500000000003
0
LINE
8
BLACK
6
CONTINUOUS
10
104.2987490000000008
20
-56.0387500000000003
11
104.2838749999999948
21
-56.0387500000000003
0
LINE
8
BLACK
6
CONTINUOUS
10
104.2838749999999948
20
-56.0387500000000003
11
103.3611250000000013
21
-56.0387500000000003
0
LINE
8
BLACK
6
CONTINUOUS
10
103.3611250000000013
20
-56.0387500000000003
11
103.3462490000000003
21
-56.0387500000000003
0
LINE
8
BLACK
6
CONTINUOUS
10
103.3462490000000003
20
-56.0387500000000003
11
103.3462490000000003
21
-54.7687499999999972
0
LINE
8
BLACK
6
CONTINUOUS
10
103.3462490000000003
20
-54.7687499999999972
11
103.3462499999999977
21
-54.7687499999999972
0
LINE
8
BLACK
6
CONTINUOUS
10
103.3462499999999977
20
-54.7687499999999972
11
103.3462499999999977
21
-53.498749999999994
0
LINE
8
BLACK
6
CONTINUOUS
10
103.3462499999999977
20
-53.498749999999994
11
103.3462490000000003
21
-53.498749999999994
0
LINE
8
BLACK
6
CONTINUOUS
10
103.3462490000000003
20
-53.498749999999994
11
103.3462490000000003
21
-52.228749999999998
0
LINE
8
BLACK
6
CONTINUOUS
10
103.3462490000000003
20
-52.228749999999998
11
104.2987490000000008
21
-52.228749999999998
0
LINE
8
BLACK
6
CONTINUOUS
10
104.2987490000000008
20
-52.228749999999998
11
104.2987490000000008
21
-52.863749999999996
0
LINE
8
BLACK
6
CONTINUOUS
10
110.9662509999999997
20
-53.498749999999994
11
110.9662499999999881
21
-53.498749999999994
0
LINE
8
BLACK
6
CONTINUOUS
10
110.9662499999999881
20
-53.498749999999994
11
110.9662499999999881
21
-54.7687499999999972
0
LINE
8
BLACK
6
CONTINUOUS
10
110.9662499999999881
20
-54.7687499999999972
11
110.9662509999999997
21
-54.7687499999999972
0
LINE
8
BLACK
6
CONTINUOUS
10
110.9662509999999997
20
-54.7687499999999972
11
110.9662509999999997
21
-56.0387500000000003
0
LINE
8
BLACK
6
CONTINUOUS
10
110.9662509999999997
20
-56.0387500000000003
11
110.9513749999999987
21
-56.0387500000000003
0
LINE
8
BLACK
6
CONTINUOUS
10
110.9513749999999987
20
-56.0387500000000003
11
110.028624999999991
21
-56.0387500000000003
0
LINE
8
BLACK
6
CONTINUOUS
10
110.028624999999991
20
-56.0387500000000003
11
110.0137509999999992
21
-56.0387500000000003
0
LINE
8
BLACK
6
CONTINUOUS
10
110.0137509999999992
20
-56.0387500000000003
11
110.0137509999999992
21
-56.0238769999999988
0
LINE
8
BLACK
6
CONTINUOUS
10
110.0137509999999992
20
-56.0238769999999988
11
110.0137500000000017
21
-56.0238749999999968
0
LINE
8
BLACK
6
CONTINUOUS
10
110.0137500000000017
20
-56.0238749999999968
11
110.0137500000000017
21
-54.7687499999999972
0
LINE
8
BLACK
6
CONTINUOUS
10
110.0137500000000017
20
-54.7687499999999972
11
109.6168749999999932
21
-54.3718749999999957
0
LINE
8
BLACK
6
CONTINUOUS
10
109.6168749999999932
20
-54.3718749999999957
11
106.9181249999999892
21
-54.3718749999999957
0
LINE
8
BLACK
6
CONTINUOUS
10
106.9181249999999892
20
-54.3718749999999957
11
106.5212499999999949
21
-54.7687499999999972
0
LINE
8
BLACK
6
CONTINUOUS
10
106.5212499999999949
20
-54.7687499999999972
11
106.5212499999999949
21
-56.0238749999999968
0
LINE
8
BLACK
6
CONTINUOUS
10
106.5212499999999949
20
-56.0238749999999968
11
106.5168929999999961
21
-56.0343929999999943
0
LINE
8
BLACK
6
CONTINUOUS
10
106.5168929999999961
20
-56.0343929999999943
11
106.5063749999999914
21
-56.0387500000000003
0
LINE
8
BLACK
6
CONTINUOUS
10
106.5063749999999914
20
-56.0387500000000003
11
106.4577499999999901
21
-56.0387500000000003
0
LINE
8
BLACK
6
CONTINUOUS
10
106.4577499999999901
20
-56.0387500000000003
11
105.9497499999999945
21
-56.0387500000000003
0
LINE
8
BLACK
6
CONTINUOUS
10
105.9497499999999945
20
-56.0387500000000003
11
105.9011249999999933
21
-56.0387500000000003
0
LINE
8
BLACK
6
CONTINUOUS
10
105.9011249999999933
20
-56.0387500000000003
11
105.8906069999999886
21
-56.0343929999999943
0
LINE
8
BLACK
6
CONTINUOUS
10
105.8906069999999886
20
-56.0343929999999943
11
105.8862499999999898
21
-56.0238749999999968
0
LINE
8
BLACK
6
CONTINUOUS
10
105.8862499999999898
20
-56.0238749999999968
11
105.8862499999999898
21
-54.6161609999999982
0
LINE
8
BLACK
6
CONTINUOUS
10
105.8862499999999898
20
-54.6161609999999982
11
105.8906069999999886
21
-54.6056430000000006
0
LINE
8
BLACK
6
CONTINUOUS
10
105.8906069999999886
20
-54.6056430000000006
11
106.5962679999999949
21
-53.8999819999999943
0
LINE
8
BLACK
6
CONTINUOUS
10
106.5962679999999949
20
-53.8999819999999943
11
106.6067859999999996
21
-53.8956249999999955
0
LINE
8
BLACK
6
CONTINUOUS
10
106.6067859999999996
20
-53.8956249999999955
11
109.6168749999999932
21
-53.8956249999999955
0
LINE
8
BLACK
6
CONTINUOUS
10
109.6168749999999932
20
-53.8956249999999955
11
110.0137500000000017
21
-53.498749999999994
0
LINE
8
BLACK
6
CONTINUOUS
10
110.0137500000000017
20
-53.498749999999994
11
110.0137500000000017
21
-52.2436249999999944
0
LINE
8
BLACK
6
CONTINUOUS
10
110.0137500000000017
20
-52.2436249999999944
11
110.0137509999999992
21
-52.2436219999999949
0
LINE
8
BLACK
6
CONTINUOUS
10
110.0137509999999992
20
-52.2436219999999949
11
110.0137509999999992
21
-52.228749999999998
0
LINE
8
BLACK
6
CONTINUOUS
10
110.0137509999999992
20
-52.228749999999998
11
110.9662509999999997
21
-52.228749999999998
0
LINE
8
BLACK
6
CONTINUOUS
10
110.9662509999999997
20
-52.228749999999998
11
110.9662509999999997
21
-53.498749999999994
0
CIRCLE
8
BLACK
10
106.2037499999999994
20
-63.3412499999999952
40
0.5
0
CIRCLE
8
BLACK
10
106.2037499999999994
20
-72.2312500000000028
40
0.5
0
CIRCLE
8
BLACK
10
115.09375
20
-67.7862499999999955
40
0.5
0
CIRCLE
8
BLACK
10
115.09375
20
-58.8962499999999949
40
0.5
  0
ENDSEC
  0
EOF
