%TF.GenerationSoftware,KiCad,Pcbnew,8.0.4*%
%TF.CreationDate,2026-01-06T14:45:59+07:00*%
%TF.ProjectId,PS-5.1,50532d35-2e31-42e6-9b69-6361645f7063,rev?*%
%TF.SameCoordinates,Original*%
%TF.FileFunction,Legend,Top*%
%TF.FilePolarity,Positive*%
%FSLAX46Y46*%
G04 Gerber Fmt 4.6, Leading zero omitted, Abs format (unit mm)*
G04 Created by KiCad (PCBNEW 8.0.4) date 2026-01-06 14:45:59*
%MOMM*%
%LPD*%
G01*
G04 APERTURE LIST*
%ADD10C,0.200000*%
%ADD11C,0.150000*%
%ADD12C,0.100000*%
%ADD13C,0.120000*%
G04 APERTURE END LIST*
D10*
X310515000Y-89217500D02*
X313055000Y-89217500D01*
X310515000Y-127317500D02*
X313055000Y-127317500D01*
X310515000Y-32067500D02*
X310515000Y-146367500D01*
X310515000Y-51117500D02*
X313055000Y-51117500D01*
X207327500Y-66675000D02*
G75*
G02*
X156527500Y-66675000I-25400000J0D01*
G01*
X156527500Y-66675000D02*
G75*
G02*
X207327500Y-66675000I25400000J0D01*
G01*
X310515000Y-146367500D02*
X318770000Y-146367500D01*
X207327500Y-133350000D02*
G75*
G02*
X156527500Y-133350000I-25400000J0D01*
G01*
X156527500Y-133350000D02*
G75*
G02*
X207327500Y-133350000I25400000J0D01*
G01*
X318770000Y-32067500D02*
X310515000Y-32067500D01*
D11*
G36*
X318535498Y-88333522D02*
G01*
X318535498Y-89813586D01*
X318343336Y-90008075D01*
X317447202Y-90008075D01*
X317255040Y-89813586D01*
X317255040Y-88447982D01*
X317508619Y-88447982D01*
X317508619Y-89701453D01*
X317590974Y-89784274D01*
X318199098Y-89784274D01*
X318281919Y-89701453D01*
X318281919Y-88447982D01*
X318199098Y-88365162D01*
X317590974Y-88365162D01*
X317508619Y-88447982D01*
X317255040Y-88447982D01*
X317255040Y-88333522D01*
X317447202Y-88141361D01*
X318343336Y-88141361D01*
X318535498Y-88333522D01*
G37*
G36*
X314742514Y-127062584D02*
G01*
X314358656Y-127062584D01*
X314358656Y-127284059D01*
X314742514Y-127284059D01*
X314857439Y-127401310D01*
X314857439Y-127801453D01*
X314774618Y-127884274D01*
X314166494Y-127884274D01*
X314084139Y-127801453D01*
X314084139Y-127537638D01*
X313830560Y-127537638D01*
X313830560Y-127913586D01*
X314022722Y-128108075D01*
X314918856Y-128108075D01*
X315111018Y-127913586D01*
X315111018Y-127348268D01*
X314918856Y-127171926D01*
X315111018Y-126998841D01*
X315111018Y-126433522D01*
X314918856Y-126241361D01*
X314022722Y-126241361D01*
X313830560Y-126433522D01*
X313830560Y-126809471D01*
X314084139Y-126809471D01*
X314084139Y-126547982D01*
X314166494Y-126465162D01*
X314774618Y-126465162D01*
X314857439Y-126547982D01*
X314857439Y-126945333D01*
X314742514Y-127062584D01*
G37*
G36*
X316859085Y-126433522D02*
G01*
X316859085Y-126982556D01*
X316666923Y-127156106D01*
X316859085Y-127331983D01*
X316859085Y-127913586D01*
X316666923Y-128108075D01*
X315770788Y-128108075D01*
X315576300Y-127913586D01*
X315576300Y-127385491D01*
X315829414Y-127385491D01*
X315829414Y-127801453D01*
X315915026Y-127884274D01*
X316523150Y-127884274D01*
X316605971Y-127801453D01*
X316605971Y-127385491D01*
X316488254Y-127268239D01*
X315947131Y-127268239D01*
X315829414Y-127385491D01*
X315576300Y-127385491D01*
X315576300Y-127331983D01*
X315768462Y-127156106D01*
X315576300Y-126982556D01*
X315576300Y-126547982D01*
X315829414Y-126547982D01*
X315829414Y-126929514D01*
X315947131Y-127043973D01*
X316488254Y-127043973D01*
X316605971Y-126929514D01*
X316605971Y-126547982D01*
X316523150Y-126465162D01*
X315915026Y-126465162D01*
X315829414Y-126547982D01*
X315576300Y-126547982D01*
X315576300Y-126433522D01*
X315770788Y-126241361D01*
X316666923Y-126241361D01*
X316859085Y-126433522D01*
G37*
G36*
X317309013Y-127841468D02*
G01*
X317309013Y-128108075D01*
X317575620Y-128108075D01*
X317575620Y-127841468D01*
X317309013Y-127841468D01*
G37*
G36*
X318207474Y-126465162D02*
G01*
X318207474Y-128108075D01*
X318461053Y-128108075D01*
X318461053Y-126241361D01*
X318207474Y-126241361D01*
X317807796Y-126358612D01*
X317807796Y-126465162D01*
X318207474Y-126465162D01*
G37*
G36*
X314742514Y-50862584D02*
G01*
X314358656Y-50862584D01*
X314358656Y-51084059D01*
X314742514Y-51084059D01*
X314857439Y-51201310D01*
X314857439Y-51601453D01*
X314774618Y-51684274D01*
X314166494Y-51684274D01*
X314084139Y-51601453D01*
X314084139Y-51337638D01*
X313830560Y-51337638D01*
X313830560Y-51713586D01*
X314022722Y-51908075D01*
X314918856Y-51908075D01*
X315111018Y-51713586D01*
X315111018Y-51148268D01*
X314918856Y-50971926D01*
X315111018Y-50798841D01*
X315111018Y-50233522D01*
X314918856Y-50041361D01*
X314022722Y-50041361D01*
X313830560Y-50233522D01*
X313830560Y-50609471D01*
X314084139Y-50609471D01*
X314084139Y-50347982D01*
X314166494Y-50265162D01*
X314774618Y-50265162D01*
X314857439Y-50347982D01*
X314857439Y-50745333D01*
X314742514Y-50862584D01*
G37*
G36*
X316859085Y-50233522D02*
G01*
X316859085Y-50782556D01*
X316666923Y-50956106D01*
X316859085Y-51131983D01*
X316859085Y-51713586D01*
X316666923Y-51908075D01*
X315770788Y-51908075D01*
X315576300Y-51713586D01*
X315576300Y-51185491D01*
X315829414Y-51185491D01*
X315829414Y-51601453D01*
X315915026Y-51684274D01*
X316523150Y-51684274D01*
X316605971Y-51601453D01*
X316605971Y-51185491D01*
X316488254Y-51068239D01*
X315947131Y-51068239D01*
X315829414Y-51185491D01*
X315576300Y-51185491D01*
X315576300Y-51131983D01*
X315768462Y-50956106D01*
X315576300Y-50782556D01*
X315576300Y-50347982D01*
X315829414Y-50347982D01*
X315829414Y-50729514D01*
X315947131Y-50843973D01*
X316488254Y-50843973D01*
X316605971Y-50729514D01*
X316605971Y-50347982D01*
X316523150Y-50265162D01*
X315915026Y-50265162D01*
X315829414Y-50347982D01*
X315576300Y-50347982D01*
X315576300Y-50233522D01*
X315770788Y-50041361D01*
X316666923Y-50041361D01*
X316859085Y-50233522D01*
G37*
G36*
X317309013Y-51641468D02*
G01*
X317309013Y-51908075D01*
X317575620Y-51908075D01*
X317575620Y-51641468D01*
X317309013Y-51641468D01*
G37*
G36*
X318207474Y-50265162D02*
G01*
X318207474Y-51908075D01*
X318461053Y-51908075D01*
X318461053Y-50041361D01*
X318207474Y-50041361D01*
X317807796Y-50158612D01*
X317807796Y-50265162D01*
X318207474Y-50265162D01*
G37*
G36*
X312955363Y-143610162D02*
G01*
X312955363Y-145253075D01*
X313208942Y-145253075D01*
X313208942Y-143386361D01*
X312955363Y-143386361D01*
X312555686Y-143503612D01*
X312555686Y-143610162D01*
X312955363Y-143610162D01*
G37*
G36*
X313917568Y-143610162D02*
G01*
X313917568Y-145253075D01*
X314171147Y-145253075D01*
X314171147Y-143386361D01*
X313917568Y-143386361D01*
X313517890Y-143503612D01*
X313517890Y-143610162D01*
X313917568Y-143610162D01*
G37*
G36*
X314714597Y-144695666D02*
G01*
X314906759Y-144887828D01*
X315741476Y-144887828D01*
X315741476Y-145253075D01*
X315995055Y-145253075D01*
X315995055Y-143389152D01*
X315741476Y-143389152D01*
X315741476Y-144664027D01*
X315050531Y-144664027D01*
X314968176Y-144581206D01*
X314968176Y-143389152D01*
X314714597Y-143389152D01*
X314714597Y-144695666D01*
G37*
G36*
X316506866Y-144986468D02*
G01*
X316506866Y-145253075D01*
X316773472Y-145253075D01*
X316773472Y-144986468D01*
X316506866Y-144986468D01*
G37*
G36*
X318152105Y-144207584D02*
G01*
X317768247Y-144207584D01*
X317768247Y-144429059D01*
X318152105Y-144429059D01*
X318267030Y-144546310D01*
X318267030Y-144946453D01*
X318184209Y-145029274D01*
X317576085Y-145029274D01*
X317493730Y-144946453D01*
X317493730Y-144682638D01*
X317240151Y-144682638D01*
X317240151Y-145058586D01*
X317432313Y-145253075D01*
X318328447Y-145253075D01*
X318520609Y-145058586D01*
X318520609Y-144493268D01*
X318328447Y-144316926D01*
X318520609Y-144143841D01*
X318520609Y-143578522D01*
X318328447Y-143386361D01*
X317432313Y-143386361D01*
X317240151Y-143578522D01*
X317240151Y-143954471D01*
X317493730Y-143954471D01*
X317493730Y-143692982D01*
X317576085Y-143610162D01*
X318184209Y-143610162D01*
X318267030Y-143692982D01*
X318267030Y-144090333D01*
X318152105Y-144207584D01*
G37*
X300397080Y-222749761D02*
X300444700Y-222797380D01*
X300444700Y-222797380D02*
X300492319Y-222940237D01*
X300492319Y-222940237D02*
X300492319Y-223035475D01*
X300492319Y-223035475D02*
X300444700Y-223178332D01*
X300444700Y-223178332D02*
X300349461Y-223273570D01*
X300349461Y-223273570D02*
X300254223Y-223321189D01*
X300254223Y-223321189D02*
X300063747Y-223368808D01*
X300063747Y-223368808D02*
X299920890Y-223368808D01*
X299920890Y-223368808D02*
X299730414Y-223321189D01*
X299730414Y-223321189D02*
X299635176Y-223273570D01*
X299635176Y-223273570D02*
X299539938Y-223178332D01*
X299539938Y-223178332D02*
X299492319Y-223035475D01*
X299492319Y-223035475D02*
X299492319Y-222940237D01*
X299492319Y-222940237D02*
X299539938Y-222797380D01*
X299539938Y-222797380D02*
X299587557Y-222749761D01*
X300492319Y-222321189D02*
X299492319Y-222321189D01*
X299492319Y-222321189D02*
X300492319Y-221749761D01*
X300492319Y-221749761D02*
X299492319Y-221749761D01*
X300111366Y-221273570D02*
X300111366Y-220511666D01*
X300492319Y-219511666D02*
X300492319Y-220083094D01*
X300492319Y-219797380D02*
X299492319Y-219797380D01*
X299492319Y-219797380D02*
X299635176Y-219892618D01*
X299635176Y-219892618D02*
X299730414Y-219987856D01*
X299730414Y-219987856D02*
X299778033Y-220083094D01*
X300111366Y-219083094D02*
X300111366Y-218321190D01*
X299587557Y-217892618D02*
X299539938Y-217844999D01*
X299539938Y-217844999D02*
X299492319Y-217749761D01*
X299492319Y-217749761D02*
X299492319Y-217511666D01*
X299492319Y-217511666D02*
X299539938Y-217416428D01*
X299539938Y-217416428D02*
X299587557Y-217368809D01*
X299587557Y-217368809D02*
X299682795Y-217321190D01*
X299682795Y-217321190D02*
X299778033Y-217321190D01*
X299778033Y-217321190D02*
X299920890Y-217368809D01*
X299920890Y-217368809D02*
X300492319Y-217940237D01*
X300492319Y-217940237D02*
X300492319Y-217321190D01*
X300397080Y-205604761D02*
X300444700Y-205652380D01*
X300444700Y-205652380D02*
X300492319Y-205795237D01*
X300492319Y-205795237D02*
X300492319Y-205890475D01*
X300492319Y-205890475D02*
X300444700Y-206033332D01*
X300444700Y-206033332D02*
X300349461Y-206128570D01*
X300349461Y-206128570D02*
X300254223Y-206176189D01*
X300254223Y-206176189D02*
X300063747Y-206223808D01*
X300063747Y-206223808D02*
X299920890Y-206223808D01*
X299920890Y-206223808D02*
X299730414Y-206176189D01*
X299730414Y-206176189D02*
X299635176Y-206128570D01*
X299635176Y-206128570D02*
X299539938Y-206033332D01*
X299539938Y-206033332D02*
X299492319Y-205890475D01*
X299492319Y-205890475D02*
X299492319Y-205795237D01*
X299492319Y-205795237D02*
X299539938Y-205652380D01*
X299539938Y-205652380D02*
X299587557Y-205604761D01*
X300492319Y-205176189D02*
X299492319Y-205176189D01*
X299492319Y-205176189D02*
X300492319Y-204604761D01*
X300492319Y-204604761D02*
X299492319Y-204604761D01*
X300111366Y-204128570D02*
X300111366Y-203366666D01*
X300492319Y-202366666D02*
X300492319Y-202938094D01*
X300492319Y-202652380D02*
X299492319Y-202652380D01*
X299492319Y-202652380D02*
X299635176Y-202747618D01*
X299635176Y-202747618D02*
X299730414Y-202842856D01*
X299730414Y-202842856D02*
X299778033Y-202938094D01*
X300111366Y-201938094D02*
X300111366Y-201176190D01*
X300492319Y-200176190D02*
X300492319Y-200747618D01*
X300492319Y-200461904D02*
X299492319Y-200461904D01*
X299492319Y-200461904D02*
X299635176Y-200557142D01*
X299635176Y-200557142D02*
X299730414Y-200652380D01*
X299730414Y-200652380D02*
X299778033Y-200747618D01*
X288151666Y-133077295D02*
X287770714Y-133077295D01*
X287770714Y-133077295D02*
X287770714Y-132277295D01*
X288837380Y-133077295D02*
X288380237Y-133077295D01*
X288608809Y-133077295D02*
X288608809Y-132277295D01*
X288608809Y-132277295D02*
X288532618Y-132391580D01*
X288532618Y-132391580D02*
X288456428Y-132467771D01*
X288456428Y-132467771D02*
X288380237Y-132505866D01*
X307879761Y-61192557D02*
X307784523Y-61144938D01*
X307784523Y-61144938D02*
X307689285Y-61049700D01*
X307689285Y-61049700D02*
X307546428Y-60906842D01*
X307546428Y-60906842D02*
X307451190Y-60859223D01*
X307451190Y-60859223D02*
X307355952Y-60859223D01*
X307403571Y-61097319D02*
X307308333Y-61049700D01*
X307308333Y-61049700D02*
X307213095Y-60954461D01*
X307213095Y-60954461D02*
X307165476Y-60763985D01*
X307165476Y-60763985D02*
X307165476Y-60430652D01*
X307165476Y-60430652D02*
X307213095Y-60240176D01*
X307213095Y-60240176D02*
X307308333Y-60144938D01*
X307308333Y-60144938D02*
X307403571Y-60097319D01*
X307403571Y-60097319D02*
X307594047Y-60097319D01*
X307594047Y-60097319D02*
X307689285Y-60144938D01*
X307689285Y-60144938D02*
X307784523Y-60240176D01*
X307784523Y-60240176D02*
X307832142Y-60430652D01*
X307832142Y-60430652D02*
X307832142Y-60763985D01*
X307832142Y-60763985D02*
X307784523Y-60954461D01*
X307784523Y-60954461D02*
X307689285Y-61049700D01*
X307689285Y-61049700D02*
X307594047Y-61097319D01*
X307594047Y-61097319D02*
X307403571Y-61097319D01*
X308165476Y-60097319D02*
X308784523Y-60097319D01*
X308784523Y-60097319D02*
X308451190Y-60478271D01*
X308451190Y-60478271D02*
X308594047Y-60478271D01*
X308594047Y-60478271D02*
X308689285Y-60525890D01*
X308689285Y-60525890D02*
X308736904Y-60573509D01*
X308736904Y-60573509D02*
X308784523Y-60668747D01*
X308784523Y-60668747D02*
X308784523Y-60906842D01*
X308784523Y-60906842D02*
X308736904Y-61002080D01*
X308736904Y-61002080D02*
X308689285Y-61049700D01*
X308689285Y-61049700D02*
X308594047Y-61097319D01*
X308594047Y-61097319D02*
X308308333Y-61097319D01*
X308308333Y-61097319D02*
X308213095Y-61049700D01*
X308213095Y-61049700D02*
X308165476Y-61002080D01*
X130450419Y-65984523D02*
X130402800Y-65936904D01*
X130402800Y-65936904D02*
X130355180Y-65794047D01*
X130355180Y-65794047D02*
X130355180Y-65698809D01*
X130355180Y-65698809D02*
X130402800Y-65555952D01*
X130402800Y-65555952D02*
X130498038Y-65460714D01*
X130498038Y-65460714D02*
X130593276Y-65413095D01*
X130593276Y-65413095D02*
X130783752Y-65365476D01*
X130783752Y-65365476D02*
X130926609Y-65365476D01*
X130926609Y-65365476D02*
X131117085Y-65413095D01*
X131117085Y-65413095D02*
X131212323Y-65460714D01*
X131212323Y-65460714D02*
X131307561Y-65555952D01*
X131307561Y-65555952D02*
X131355180Y-65698809D01*
X131355180Y-65698809D02*
X131355180Y-65794047D01*
X131355180Y-65794047D02*
X131307561Y-65936904D01*
X131307561Y-65936904D02*
X131259942Y-65984523D01*
X130355180Y-66413095D02*
X131355180Y-66413095D01*
X131355180Y-66413095D02*
X130355180Y-66984523D01*
X130355180Y-66984523D02*
X131355180Y-66984523D01*
X131355180Y-67365476D02*
X131355180Y-67984523D01*
X131355180Y-67984523D02*
X130974228Y-67651190D01*
X130974228Y-67651190D02*
X130974228Y-67794047D01*
X130974228Y-67794047D02*
X130926609Y-67889285D01*
X130926609Y-67889285D02*
X130878990Y-67936904D01*
X130878990Y-67936904D02*
X130783752Y-67984523D01*
X130783752Y-67984523D02*
X130545657Y-67984523D01*
X130545657Y-67984523D02*
X130450419Y-67936904D01*
X130450419Y-67936904D02*
X130402800Y-67889285D01*
X130402800Y-67889285D02*
X130355180Y-67794047D01*
X130355180Y-67794047D02*
X130355180Y-67508333D01*
X130355180Y-67508333D02*
X130402800Y-67413095D01*
X130402800Y-67413095D02*
X130450419Y-67365476D01*
X152868333Y-49032319D02*
X152392143Y-49032319D01*
X152392143Y-49032319D02*
X152392143Y-48032319D01*
X153344524Y-48460890D02*
X153249286Y-48413271D01*
X153249286Y-48413271D02*
X153201667Y-48365652D01*
X153201667Y-48365652D02*
X153154048Y-48270414D01*
X153154048Y-48270414D02*
X153154048Y-48222795D01*
X153154048Y-48222795D02*
X153201667Y-48127557D01*
X153201667Y-48127557D02*
X153249286Y-48079938D01*
X153249286Y-48079938D02*
X153344524Y-48032319D01*
X153344524Y-48032319D02*
X153535000Y-48032319D01*
X153535000Y-48032319D02*
X153630238Y-48079938D01*
X153630238Y-48079938D02*
X153677857Y-48127557D01*
X153677857Y-48127557D02*
X153725476Y-48222795D01*
X153725476Y-48222795D02*
X153725476Y-48270414D01*
X153725476Y-48270414D02*
X153677857Y-48365652D01*
X153677857Y-48365652D02*
X153630238Y-48413271D01*
X153630238Y-48413271D02*
X153535000Y-48460890D01*
X153535000Y-48460890D02*
X153344524Y-48460890D01*
X153344524Y-48460890D02*
X153249286Y-48508509D01*
X153249286Y-48508509D02*
X153201667Y-48556128D01*
X153201667Y-48556128D02*
X153154048Y-48651366D01*
X153154048Y-48651366D02*
X153154048Y-48841842D01*
X153154048Y-48841842D02*
X153201667Y-48937080D01*
X153201667Y-48937080D02*
X153249286Y-48984700D01*
X153249286Y-48984700D02*
X153344524Y-49032319D01*
X153344524Y-49032319D02*
X153535000Y-49032319D01*
X153535000Y-49032319D02*
X153630238Y-48984700D01*
X153630238Y-48984700D02*
X153677857Y-48937080D01*
X153677857Y-48937080D02*
X153725476Y-48841842D01*
X153725476Y-48841842D02*
X153725476Y-48651366D01*
X153725476Y-48651366D02*
X153677857Y-48556128D01*
X153677857Y-48556128D02*
X153630238Y-48508509D01*
X153630238Y-48508509D02*
X153535000Y-48460890D01*
X296589795Y-192360475D02*
X295789795Y-192360475D01*
X295789795Y-192360475D02*
X295789795Y-192169999D01*
X295789795Y-192169999D02*
X295827890Y-192055713D01*
X295827890Y-192055713D02*
X295904080Y-191979523D01*
X295904080Y-191979523D02*
X295980271Y-191941428D01*
X295980271Y-191941428D02*
X296132652Y-191903332D01*
X296132652Y-191903332D02*
X296246938Y-191903332D01*
X296246938Y-191903332D02*
X296399319Y-191941428D01*
X296399319Y-191941428D02*
X296475509Y-191979523D01*
X296475509Y-191979523D02*
X296551700Y-192055713D01*
X296551700Y-192055713D02*
X296589795Y-192169999D01*
X296589795Y-192169999D02*
X296589795Y-192360475D01*
X295789795Y-191636666D02*
X295789795Y-191103332D01*
X295789795Y-191103332D02*
X296589795Y-191446190D01*
X138494580Y-47791666D02*
X138542200Y-47839285D01*
X138542200Y-47839285D02*
X138589819Y-47982142D01*
X138589819Y-47982142D02*
X138589819Y-48077380D01*
X138589819Y-48077380D02*
X138542200Y-48220237D01*
X138542200Y-48220237D02*
X138446961Y-48315475D01*
X138446961Y-48315475D02*
X138351723Y-48363094D01*
X138351723Y-48363094D02*
X138161247Y-48410713D01*
X138161247Y-48410713D02*
X138018390Y-48410713D01*
X138018390Y-48410713D02*
X137827914Y-48363094D01*
X137827914Y-48363094D02*
X137732676Y-48315475D01*
X137732676Y-48315475D02*
X137637438Y-48220237D01*
X137637438Y-48220237D02*
X137589819Y-48077380D01*
X137589819Y-48077380D02*
X137589819Y-47982142D01*
X137589819Y-47982142D02*
X137637438Y-47839285D01*
X137637438Y-47839285D02*
X137685057Y-47791666D01*
X138018390Y-47220237D02*
X137970771Y-47315475D01*
X137970771Y-47315475D02*
X137923152Y-47363094D01*
X137923152Y-47363094D02*
X137827914Y-47410713D01*
X137827914Y-47410713D02*
X137780295Y-47410713D01*
X137780295Y-47410713D02*
X137685057Y-47363094D01*
X137685057Y-47363094D02*
X137637438Y-47315475D01*
X137637438Y-47315475D02*
X137589819Y-47220237D01*
X137589819Y-47220237D02*
X137589819Y-47029761D01*
X137589819Y-47029761D02*
X137637438Y-46934523D01*
X137637438Y-46934523D02*
X137685057Y-46886904D01*
X137685057Y-46886904D02*
X137780295Y-46839285D01*
X137780295Y-46839285D02*
X137827914Y-46839285D01*
X137827914Y-46839285D02*
X137923152Y-46886904D01*
X137923152Y-46886904D02*
X137970771Y-46934523D01*
X137970771Y-46934523D02*
X138018390Y-47029761D01*
X138018390Y-47029761D02*
X138018390Y-47220237D01*
X138018390Y-47220237D02*
X138066009Y-47315475D01*
X138066009Y-47315475D02*
X138113628Y-47363094D01*
X138113628Y-47363094D02*
X138208866Y-47410713D01*
X138208866Y-47410713D02*
X138399342Y-47410713D01*
X138399342Y-47410713D02*
X138494580Y-47363094D01*
X138494580Y-47363094D02*
X138542200Y-47315475D01*
X138542200Y-47315475D02*
X138589819Y-47220237D01*
X138589819Y-47220237D02*
X138589819Y-47029761D01*
X138589819Y-47029761D02*
X138542200Y-46934523D01*
X138542200Y-46934523D02*
X138494580Y-46886904D01*
X138494580Y-46886904D02*
X138399342Y-46839285D01*
X138399342Y-46839285D02*
X138208866Y-46839285D01*
X138208866Y-46839285D02*
X138113628Y-46886904D01*
X138113628Y-46886904D02*
X138066009Y-46934523D01*
X138066009Y-46934523D02*
X138018390Y-47029761D01*
X307884761Y-137392557D02*
X307789523Y-137344938D01*
X307789523Y-137344938D02*
X307694285Y-137249700D01*
X307694285Y-137249700D02*
X307551428Y-137106842D01*
X307551428Y-137106842D02*
X307456190Y-137059223D01*
X307456190Y-137059223D02*
X307360952Y-137059223D01*
X307408571Y-137297319D02*
X307313333Y-137249700D01*
X307313333Y-137249700D02*
X307218095Y-137154461D01*
X307218095Y-137154461D02*
X307170476Y-136963985D01*
X307170476Y-136963985D02*
X307170476Y-136630652D01*
X307170476Y-136630652D02*
X307218095Y-136440176D01*
X307218095Y-136440176D02*
X307313333Y-136344938D01*
X307313333Y-136344938D02*
X307408571Y-136297319D01*
X307408571Y-136297319D02*
X307599047Y-136297319D01*
X307599047Y-136297319D02*
X307694285Y-136344938D01*
X307694285Y-136344938D02*
X307789523Y-136440176D01*
X307789523Y-136440176D02*
X307837142Y-136630652D01*
X307837142Y-136630652D02*
X307837142Y-136963985D01*
X307837142Y-136963985D02*
X307789523Y-137154461D01*
X307789523Y-137154461D02*
X307694285Y-137249700D01*
X307694285Y-137249700D02*
X307599047Y-137297319D01*
X307599047Y-137297319D02*
X307408571Y-137297319D01*
X308789523Y-137297319D02*
X308218095Y-137297319D01*
X308503809Y-137297319D02*
X308503809Y-136297319D01*
X308503809Y-136297319D02*
X308408571Y-136440176D01*
X308408571Y-136440176D02*
X308313333Y-136535414D01*
X308313333Y-136535414D02*
X308218095Y-136583033D01*
X288156666Y-56877295D02*
X287775714Y-56877295D01*
X287775714Y-56877295D02*
X287775714Y-56077295D01*
X288804285Y-56077295D02*
X288423333Y-56077295D01*
X288423333Y-56077295D02*
X288385237Y-56458247D01*
X288385237Y-56458247D02*
X288423333Y-56420152D01*
X288423333Y-56420152D02*
X288499523Y-56382057D01*
X288499523Y-56382057D02*
X288689999Y-56382057D01*
X288689999Y-56382057D02*
X288766190Y-56420152D01*
X288766190Y-56420152D02*
X288804285Y-56458247D01*
X288804285Y-56458247D02*
X288842380Y-56534438D01*
X288842380Y-56534438D02*
X288842380Y-56724914D01*
X288842380Y-56724914D02*
X288804285Y-56801104D01*
X288804285Y-56801104D02*
X288766190Y-56839200D01*
X288766190Y-56839200D02*
X288689999Y-56877295D01*
X288689999Y-56877295D02*
X288499523Y-56877295D01*
X288499523Y-56877295D02*
X288423333Y-56839200D01*
X288423333Y-56839200D02*
X288385237Y-56801104D01*
X138494580Y-114942857D02*
X138542200Y-114990476D01*
X138542200Y-114990476D02*
X138589819Y-115133333D01*
X138589819Y-115133333D02*
X138589819Y-115228571D01*
X138589819Y-115228571D02*
X138542200Y-115371428D01*
X138542200Y-115371428D02*
X138446961Y-115466666D01*
X138446961Y-115466666D02*
X138351723Y-115514285D01*
X138351723Y-115514285D02*
X138161247Y-115561904D01*
X138161247Y-115561904D02*
X138018390Y-115561904D01*
X138018390Y-115561904D02*
X137827914Y-115514285D01*
X137827914Y-115514285D02*
X137732676Y-115466666D01*
X137732676Y-115466666D02*
X137637438Y-115371428D01*
X137637438Y-115371428D02*
X137589819Y-115228571D01*
X137589819Y-115228571D02*
X137589819Y-115133333D01*
X137589819Y-115133333D02*
X137637438Y-114990476D01*
X137637438Y-114990476D02*
X137685057Y-114942857D01*
X138589819Y-113990476D02*
X138589819Y-114561904D01*
X138589819Y-114276190D02*
X137589819Y-114276190D01*
X137589819Y-114276190D02*
X137732676Y-114371428D01*
X137732676Y-114371428D02*
X137827914Y-114466666D01*
X137827914Y-114466666D02*
X137875533Y-114561904D01*
X138589819Y-113038095D02*
X138589819Y-113609523D01*
X138589819Y-113323809D02*
X137589819Y-113323809D01*
X137589819Y-113323809D02*
X137732676Y-113419047D01*
X137732676Y-113419047D02*
X137827914Y-113514285D01*
X137827914Y-113514285D02*
X137875533Y-113609523D01*
X267697295Y-85392975D02*
X266897295Y-85392975D01*
X266897295Y-85392975D02*
X266897295Y-85202499D01*
X266897295Y-85202499D02*
X266935390Y-85088213D01*
X266935390Y-85088213D02*
X267011580Y-85012023D01*
X267011580Y-85012023D02*
X267087771Y-84973928D01*
X267087771Y-84973928D02*
X267240152Y-84935832D01*
X267240152Y-84935832D02*
X267354438Y-84935832D01*
X267354438Y-84935832D02*
X267506819Y-84973928D01*
X267506819Y-84973928D02*
X267583009Y-85012023D01*
X267583009Y-85012023D02*
X267659200Y-85088213D01*
X267659200Y-85088213D02*
X267697295Y-85202499D01*
X267697295Y-85202499D02*
X267697295Y-85392975D01*
X267697295Y-84554880D02*
X267697295Y-84402499D01*
X267697295Y-84402499D02*
X267659200Y-84326309D01*
X267659200Y-84326309D02*
X267621104Y-84288213D01*
X267621104Y-84288213D02*
X267506819Y-84212023D01*
X267506819Y-84212023D02*
X267354438Y-84173928D01*
X267354438Y-84173928D02*
X267049676Y-84173928D01*
X267049676Y-84173928D02*
X266973485Y-84212023D01*
X266973485Y-84212023D02*
X266935390Y-84250118D01*
X266935390Y-84250118D02*
X266897295Y-84326309D01*
X266897295Y-84326309D02*
X266897295Y-84478690D01*
X266897295Y-84478690D02*
X266935390Y-84554880D01*
X266935390Y-84554880D02*
X266973485Y-84592975D01*
X266973485Y-84592975D02*
X267049676Y-84631071D01*
X267049676Y-84631071D02*
X267240152Y-84631071D01*
X267240152Y-84631071D02*
X267316342Y-84592975D01*
X267316342Y-84592975D02*
X267354438Y-84554880D01*
X267354438Y-84554880D02*
X267392533Y-84478690D01*
X267392533Y-84478690D02*
X267392533Y-84326309D01*
X267392533Y-84326309D02*
X267354438Y-84250118D01*
X267354438Y-84250118D02*
X267316342Y-84212023D01*
X267316342Y-84212023D02*
X267240152Y-84173928D01*
X301034524Y-89579795D02*
X301034524Y-88779795D01*
X301034524Y-88779795D02*
X301225000Y-88779795D01*
X301225000Y-88779795D02*
X301339286Y-88817890D01*
X301339286Y-88817890D02*
X301415476Y-88894080D01*
X301415476Y-88894080D02*
X301453571Y-88970271D01*
X301453571Y-88970271D02*
X301491667Y-89122652D01*
X301491667Y-89122652D02*
X301491667Y-89236938D01*
X301491667Y-89236938D02*
X301453571Y-89389319D01*
X301453571Y-89389319D02*
X301415476Y-89465509D01*
X301415476Y-89465509D02*
X301339286Y-89541700D01*
X301339286Y-89541700D02*
X301225000Y-89579795D01*
X301225000Y-89579795D02*
X301034524Y-89579795D01*
X301796428Y-88855985D02*
X301834524Y-88817890D01*
X301834524Y-88817890D02*
X301910714Y-88779795D01*
X301910714Y-88779795D02*
X302101190Y-88779795D01*
X302101190Y-88779795D02*
X302177381Y-88817890D01*
X302177381Y-88817890D02*
X302215476Y-88855985D01*
X302215476Y-88855985D02*
X302253571Y-88932176D01*
X302253571Y-88932176D02*
X302253571Y-89008366D01*
X302253571Y-89008366D02*
X302215476Y-89122652D01*
X302215476Y-89122652D02*
X301758333Y-89579795D01*
X301758333Y-89579795D02*
X302253571Y-89579795D01*
X288156667Y-122282295D02*
X287890000Y-121901342D01*
X287699524Y-122282295D02*
X287699524Y-121482295D01*
X287699524Y-121482295D02*
X288004286Y-121482295D01*
X288004286Y-121482295D02*
X288080476Y-121520390D01*
X288080476Y-121520390D02*
X288118571Y-121558485D01*
X288118571Y-121558485D02*
X288156667Y-121634676D01*
X288156667Y-121634676D02*
X288156667Y-121748961D01*
X288156667Y-121748961D02*
X288118571Y-121825152D01*
X288118571Y-121825152D02*
X288080476Y-121863247D01*
X288080476Y-121863247D02*
X288004286Y-121901342D01*
X288004286Y-121901342D02*
X287699524Y-121901342D01*
X288918571Y-122282295D02*
X288461428Y-122282295D01*
X288690000Y-122282295D02*
X288690000Y-121482295D01*
X288690000Y-121482295D02*
X288613809Y-121596580D01*
X288613809Y-121596580D02*
X288537619Y-121672771D01*
X288537619Y-121672771D02*
X288461428Y-121710866D01*
X287699524Y-64179795D02*
X287699524Y-63379795D01*
X287699524Y-63379795D02*
X287890000Y-63379795D01*
X287890000Y-63379795D02*
X288004286Y-63417890D01*
X288004286Y-63417890D02*
X288080476Y-63494080D01*
X288080476Y-63494080D02*
X288118571Y-63570271D01*
X288118571Y-63570271D02*
X288156667Y-63722652D01*
X288156667Y-63722652D02*
X288156667Y-63836938D01*
X288156667Y-63836938D02*
X288118571Y-63989319D01*
X288118571Y-63989319D02*
X288080476Y-64065509D01*
X288080476Y-64065509D02*
X288004286Y-64141700D01*
X288004286Y-64141700D02*
X287890000Y-64179795D01*
X287890000Y-64179795D02*
X287699524Y-64179795D01*
X288880476Y-63379795D02*
X288499524Y-63379795D01*
X288499524Y-63379795D02*
X288461428Y-63760747D01*
X288461428Y-63760747D02*
X288499524Y-63722652D01*
X288499524Y-63722652D02*
X288575714Y-63684557D01*
X288575714Y-63684557D02*
X288766190Y-63684557D01*
X288766190Y-63684557D02*
X288842381Y-63722652D01*
X288842381Y-63722652D02*
X288880476Y-63760747D01*
X288880476Y-63760747D02*
X288918571Y-63836938D01*
X288918571Y-63836938D02*
X288918571Y-64027414D01*
X288918571Y-64027414D02*
X288880476Y-64103604D01*
X288880476Y-64103604D02*
X288842381Y-64141700D01*
X288842381Y-64141700D02*
X288766190Y-64179795D01*
X288766190Y-64179795D02*
X288575714Y-64179795D01*
X288575714Y-64179795D02*
X288499524Y-64141700D01*
X288499524Y-64141700D02*
X288461428Y-64103604D01*
X138449580Y-85891666D02*
X138497200Y-85939285D01*
X138497200Y-85939285D02*
X138544819Y-86082142D01*
X138544819Y-86082142D02*
X138544819Y-86177380D01*
X138544819Y-86177380D02*
X138497200Y-86320237D01*
X138497200Y-86320237D02*
X138401961Y-86415475D01*
X138401961Y-86415475D02*
X138306723Y-86463094D01*
X138306723Y-86463094D02*
X138116247Y-86510713D01*
X138116247Y-86510713D02*
X137973390Y-86510713D01*
X137973390Y-86510713D02*
X137782914Y-86463094D01*
X137782914Y-86463094D02*
X137687676Y-86415475D01*
X137687676Y-86415475D02*
X137592438Y-86320237D01*
X137592438Y-86320237D02*
X137544819Y-86177380D01*
X137544819Y-86177380D02*
X137544819Y-86082142D01*
X137544819Y-86082142D02*
X137592438Y-85939285D01*
X137592438Y-85939285D02*
X137640057Y-85891666D01*
X138544819Y-85415475D02*
X138544819Y-85224999D01*
X138544819Y-85224999D02*
X138497200Y-85129761D01*
X138497200Y-85129761D02*
X138449580Y-85082142D01*
X138449580Y-85082142D02*
X138306723Y-84986904D01*
X138306723Y-84986904D02*
X138116247Y-84939285D01*
X138116247Y-84939285D02*
X137735295Y-84939285D01*
X137735295Y-84939285D02*
X137640057Y-84986904D01*
X137640057Y-84986904D02*
X137592438Y-85034523D01*
X137592438Y-85034523D02*
X137544819Y-85129761D01*
X137544819Y-85129761D02*
X137544819Y-85320237D01*
X137544819Y-85320237D02*
X137592438Y-85415475D01*
X137592438Y-85415475D02*
X137640057Y-85463094D01*
X137640057Y-85463094D02*
X137735295Y-85510713D01*
X137735295Y-85510713D02*
X137973390Y-85510713D01*
X137973390Y-85510713D02*
X138068628Y-85463094D01*
X138068628Y-85463094D02*
X138116247Y-85415475D01*
X138116247Y-85415475D02*
X138163866Y-85320237D01*
X138163866Y-85320237D02*
X138163866Y-85129761D01*
X138163866Y-85129761D02*
X138116247Y-85034523D01*
X138116247Y-85034523D02*
X138068628Y-84986904D01*
X138068628Y-84986904D02*
X137973390Y-84939285D01*
X138494580Y-133992857D02*
X138542200Y-134040476D01*
X138542200Y-134040476D02*
X138589819Y-134183333D01*
X138589819Y-134183333D02*
X138589819Y-134278571D01*
X138589819Y-134278571D02*
X138542200Y-134421428D01*
X138542200Y-134421428D02*
X138446961Y-134516666D01*
X138446961Y-134516666D02*
X138351723Y-134564285D01*
X138351723Y-134564285D02*
X138161247Y-134611904D01*
X138161247Y-134611904D02*
X138018390Y-134611904D01*
X138018390Y-134611904D02*
X137827914Y-134564285D01*
X137827914Y-134564285D02*
X137732676Y-134516666D01*
X137732676Y-134516666D02*
X137637438Y-134421428D01*
X137637438Y-134421428D02*
X137589819Y-134278571D01*
X137589819Y-134278571D02*
X137589819Y-134183333D01*
X137589819Y-134183333D02*
X137637438Y-134040476D01*
X137637438Y-134040476D02*
X137685057Y-133992857D01*
X138589819Y-133040476D02*
X138589819Y-133611904D01*
X138589819Y-133326190D02*
X137589819Y-133326190D01*
X137589819Y-133326190D02*
X137732676Y-133421428D01*
X137732676Y-133421428D02*
X137827914Y-133516666D01*
X137827914Y-133516666D02*
X137875533Y-133611904D01*
X137589819Y-132421428D02*
X137589819Y-132326190D01*
X137589819Y-132326190D02*
X137637438Y-132230952D01*
X137637438Y-132230952D02*
X137685057Y-132183333D01*
X137685057Y-132183333D02*
X137780295Y-132135714D01*
X137780295Y-132135714D02*
X137970771Y-132088095D01*
X137970771Y-132088095D02*
X138208866Y-132088095D01*
X138208866Y-132088095D02*
X138399342Y-132135714D01*
X138399342Y-132135714D02*
X138494580Y-132183333D01*
X138494580Y-132183333D02*
X138542200Y-132230952D01*
X138542200Y-132230952D02*
X138589819Y-132326190D01*
X138589819Y-132326190D02*
X138589819Y-132421428D01*
X138589819Y-132421428D02*
X138542200Y-132516666D01*
X138542200Y-132516666D02*
X138494580Y-132564285D01*
X138494580Y-132564285D02*
X138399342Y-132611904D01*
X138399342Y-132611904D02*
X138208866Y-132659523D01*
X138208866Y-132659523D02*
X137970771Y-132659523D01*
X137970771Y-132659523D02*
X137780295Y-132611904D01*
X137780295Y-132611904D02*
X137685057Y-132564285D01*
X137685057Y-132564285D02*
X137637438Y-132516666D01*
X137637438Y-132516666D02*
X137589819Y-132421428D01*
X288657295Y-213503332D02*
X288276342Y-213769999D01*
X288657295Y-213960475D02*
X287857295Y-213960475D01*
X287857295Y-213960475D02*
X287857295Y-213655713D01*
X287857295Y-213655713D02*
X287895390Y-213579523D01*
X287895390Y-213579523D02*
X287933485Y-213541428D01*
X287933485Y-213541428D02*
X288009676Y-213503332D01*
X288009676Y-213503332D02*
X288123961Y-213503332D01*
X288123961Y-213503332D02*
X288200152Y-213541428D01*
X288200152Y-213541428D02*
X288238247Y-213579523D01*
X288238247Y-213579523D02*
X288276342Y-213655713D01*
X288276342Y-213655713D02*
X288276342Y-213960475D01*
X288123961Y-212817618D02*
X288657295Y-212817618D01*
X287819200Y-213008094D02*
X288390628Y-213198571D01*
X288390628Y-213198571D02*
X288390628Y-212703332D01*
X288151667Y-84182295D02*
X287885000Y-83801342D01*
X287694524Y-84182295D02*
X287694524Y-83382295D01*
X287694524Y-83382295D02*
X287999286Y-83382295D01*
X287999286Y-83382295D02*
X288075476Y-83420390D01*
X288075476Y-83420390D02*
X288113571Y-83458485D01*
X288113571Y-83458485D02*
X288151667Y-83534676D01*
X288151667Y-83534676D02*
X288151667Y-83648961D01*
X288151667Y-83648961D02*
X288113571Y-83725152D01*
X288113571Y-83725152D02*
X288075476Y-83763247D01*
X288075476Y-83763247D02*
X287999286Y-83801342D01*
X287999286Y-83801342D02*
X287694524Y-83801342D01*
X288456428Y-83458485D02*
X288494524Y-83420390D01*
X288494524Y-83420390D02*
X288570714Y-83382295D01*
X288570714Y-83382295D02*
X288761190Y-83382295D01*
X288761190Y-83382295D02*
X288837381Y-83420390D01*
X288837381Y-83420390D02*
X288875476Y-83458485D01*
X288875476Y-83458485D02*
X288913571Y-83534676D01*
X288913571Y-83534676D02*
X288913571Y-83610866D01*
X288913571Y-83610866D02*
X288875476Y-83725152D01*
X288875476Y-83725152D02*
X288418333Y-84182295D01*
X288418333Y-84182295D02*
X288913571Y-84182295D01*
X223879580Y-95764166D02*
X223927200Y-95811785D01*
X223927200Y-95811785D02*
X223974819Y-95954642D01*
X223974819Y-95954642D02*
X223974819Y-96049880D01*
X223974819Y-96049880D02*
X223927200Y-96192737D01*
X223927200Y-96192737D02*
X223831961Y-96287975D01*
X223831961Y-96287975D02*
X223736723Y-96335594D01*
X223736723Y-96335594D02*
X223546247Y-96383213D01*
X223546247Y-96383213D02*
X223403390Y-96383213D01*
X223403390Y-96383213D02*
X223212914Y-96335594D01*
X223212914Y-96335594D02*
X223117676Y-96287975D01*
X223117676Y-96287975D02*
X223022438Y-96192737D01*
X223022438Y-96192737D02*
X222974819Y-96049880D01*
X222974819Y-96049880D02*
X222974819Y-95954642D01*
X222974819Y-95954642D02*
X223022438Y-95811785D01*
X223022438Y-95811785D02*
X223070057Y-95764166D01*
X222974819Y-94907023D02*
X222974819Y-95097499D01*
X222974819Y-95097499D02*
X223022438Y-95192737D01*
X223022438Y-95192737D02*
X223070057Y-95240356D01*
X223070057Y-95240356D02*
X223212914Y-95335594D01*
X223212914Y-95335594D02*
X223403390Y-95383213D01*
X223403390Y-95383213D02*
X223784342Y-95383213D01*
X223784342Y-95383213D02*
X223879580Y-95335594D01*
X223879580Y-95335594D02*
X223927200Y-95287975D01*
X223927200Y-95287975D02*
X223974819Y-95192737D01*
X223974819Y-95192737D02*
X223974819Y-95002261D01*
X223974819Y-95002261D02*
X223927200Y-94907023D01*
X223927200Y-94907023D02*
X223879580Y-94859404D01*
X223879580Y-94859404D02*
X223784342Y-94811785D01*
X223784342Y-94811785D02*
X223546247Y-94811785D01*
X223546247Y-94811785D02*
X223451009Y-94859404D01*
X223451009Y-94859404D02*
X223403390Y-94907023D01*
X223403390Y-94907023D02*
X223355771Y-95002261D01*
X223355771Y-95002261D02*
X223355771Y-95192737D01*
X223355771Y-95192737D02*
X223403390Y-95287975D01*
X223403390Y-95287975D02*
X223451009Y-95335594D01*
X223451009Y-95335594D02*
X223546247Y-95383213D01*
D12*
X229895476Y-129739895D02*
X229895476Y-130387514D01*
X229895476Y-130387514D02*
X229933571Y-130463704D01*
X229933571Y-130463704D02*
X229971666Y-130501800D01*
X229971666Y-130501800D02*
X230047857Y-130539895D01*
X230047857Y-130539895D02*
X230200238Y-130539895D01*
X230200238Y-130539895D02*
X230276428Y-130501800D01*
X230276428Y-130501800D02*
X230314523Y-130463704D01*
X230314523Y-130463704D02*
X230352619Y-130387514D01*
X230352619Y-130387514D02*
X230352619Y-129739895D01*
X230695475Y-129816085D02*
X230733571Y-129777990D01*
X230733571Y-129777990D02*
X230809761Y-129739895D01*
X230809761Y-129739895D02*
X231000237Y-129739895D01*
X231000237Y-129739895D02*
X231076428Y-129777990D01*
X231076428Y-129777990D02*
X231114523Y-129816085D01*
X231114523Y-129816085D02*
X231152618Y-129892276D01*
X231152618Y-129892276D02*
X231152618Y-129968466D01*
X231152618Y-129968466D02*
X231114523Y-130082752D01*
X231114523Y-130082752D02*
X230657380Y-130539895D01*
X230657380Y-130539895D02*
X231152618Y-130539895D01*
D11*
X251116104Y-51650832D02*
X251154200Y-51688928D01*
X251154200Y-51688928D02*
X251192295Y-51803213D01*
X251192295Y-51803213D02*
X251192295Y-51879404D01*
X251192295Y-51879404D02*
X251154200Y-51993690D01*
X251154200Y-51993690D02*
X251078009Y-52069880D01*
X251078009Y-52069880D02*
X251001819Y-52107975D01*
X251001819Y-52107975D02*
X250849438Y-52146071D01*
X250849438Y-52146071D02*
X250735152Y-52146071D01*
X250735152Y-52146071D02*
X250582771Y-52107975D01*
X250582771Y-52107975D02*
X250506580Y-52069880D01*
X250506580Y-52069880D02*
X250430390Y-51993690D01*
X250430390Y-51993690D02*
X250392295Y-51879404D01*
X250392295Y-51879404D02*
X250392295Y-51803213D01*
X250392295Y-51803213D02*
X250430390Y-51688928D01*
X250430390Y-51688928D02*
X250468485Y-51650832D01*
X251192295Y-50850832D02*
X250811342Y-51117499D01*
X251192295Y-51307975D02*
X250392295Y-51307975D01*
X250392295Y-51307975D02*
X250392295Y-51003213D01*
X250392295Y-51003213D02*
X250430390Y-50927023D01*
X250430390Y-50927023D02*
X250468485Y-50888928D01*
X250468485Y-50888928D02*
X250544676Y-50850832D01*
X250544676Y-50850832D02*
X250658961Y-50850832D01*
X250658961Y-50850832D02*
X250735152Y-50888928D01*
X250735152Y-50888928D02*
X250773247Y-50927023D01*
X250773247Y-50927023D02*
X250811342Y-51003213D01*
X250811342Y-51003213D02*
X250811342Y-51307975D01*
X250468485Y-50546071D02*
X250430390Y-50507975D01*
X250430390Y-50507975D02*
X250392295Y-50431785D01*
X250392295Y-50431785D02*
X250392295Y-50241309D01*
X250392295Y-50241309D02*
X250430390Y-50165118D01*
X250430390Y-50165118D02*
X250468485Y-50127023D01*
X250468485Y-50127023D02*
X250544676Y-50088928D01*
X250544676Y-50088928D02*
X250620866Y-50088928D01*
X250620866Y-50088928D02*
X250735152Y-50127023D01*
X250735152Y-50127023D02*
X251192295Y-50584166D01*
X251192295Y-50584166D02*
X251192295Y-50088928D01*
X138449580Y-153042857D02*
X138497200Y-153090476D01*
X138497200Y-153090476D02*
X138544819Y-153233333D01*
X138544819Y-153233333D02*
X138544819Y-153328571D01*
X138544819Y-153328571D02*
X138497200Y-153471428D01*
X138497200Y-153471428D02*
X138401961Y-153566666D01*
X138401961Y-153566666D02*
X138306723Y-153614285D01*
X138306723Y-153614285D02*
X138116247Y-153661904D01*
X138116247Y-153661904D02*
X137973390Y-153661904D01*
X137973390Y-153661904D02*
X137782914Y-153614285D01*
X137782914Y-153614285D02*
X137687676Y-153566666D01*
X137687676Y-153566666D02*
X137592438Y-153471428D01*
X137592438Y-153471428D02*
X137544819Y-153328571D01*
X137544819Y-153328571D02*
X137544819Y-153233333D01*
X137544819Y-153233333D02*
X137592438Y-153090476D01*
X137592438Y-153090476D02*
X137640057Y-153042857D01*
X138544819Y-152090476D02*
X138544819Y-152661904D01*
X138544819Y-152376190D02*
X137544819Y-152376190D01*
X137544819Y-152376190D02*
X137687676Y-152471428D01*
X137687676Y-152471428D02*
X137782914Y-152566666D01*
X137782914Y-152566666D02*
X137830533Y-152661904D01*
X137640057Y-151709523D02*
X137592438Y-151661904D01*
X137592438Y-151661904D02*
X137544819Y-151566666D01*
X137544819Y-151566666D02*
X137544819Y-151328571D01*
X137544819Y-151328571D02*
X137592438Y-151233333D01*
X137592438Y-151233333D02*
X137640057Y-151185714D01*
X137640057Y-151185714D02*
X137735295Y-151138095D01*
X137735295Y-151138095D02*
X137830533Y-151138095D01*
X137830533Y-151138095D02*
X137973390Y-151185714D01*
X137973390Y-151185714D02*
X138544819Y-151757142D01*
X138544819Y-151757142D02*
X138544819Y-151138095D01*
X301034524Y-127679795D02*
X301034524Y-126879795D01*
X301034524Y-126879795D02*
X301225000Y-126879795D01*
X301225000Y-126879795D02*
X301339286Y-126917890D01*
X301339286Y-126917890D02*
X301415476Y-126994080D01*
X301415476Y-126994080D02*
X301453571Y-127070271D01*
X301453571Y-127070271D02*
X301491667Y-127222652D01*
X301491667Y-127222652D02*
X301491667Y-127336938D01*
X301491667Y-127336938D02*
X301453571Y-127489319D01*
X301453571Y-127489319D02*
X301415476Y-127565509D01*
X301415476Y-127565509D02*
X301339286Y-127641700D01*
X301339286Y-127641700D02*
X301225000Y-127679795D01*
X301225000Y-127679795D02*
X301034524Y-127679795D01*
X302253571Y-127679795D02*
X301796428Y-127679795D01*
X302025000Y-127679795D02*
X302025000Y-126879795D01*
X302025000Y-126879795D02*
X301948809Y-126994080D01*
X301948809Y-126994080D02*
X301872619Y-127070271D01*
X301872619Y-127070271D02*
X301796428Y-127108366D01*
X284047295Y-213979523D02*
X284694914Y-213979523D01*
X284694914Y-213979523D02*
X284771104Y-213941428D01*
X284771104Y-213941428D02*
X284809200Y-213903333D01*
X284809200Y-213903333D02*
X284847295Y-213827142D01*
X284847295Y-213827142D02*
X284847295Y-213674761D01*
X284847295Y-213674761D02*
X284809200Y-213598571D01*
X284809200Y-213598571D02*
X284771104Y-213560476D01*
X284771104Y-213560476D02*
X284694914Y-213522380D01*
X284694914Y-213522380D02*
X284047295Y-213522380D01*
X284313961Y-212798571D02*
X284847295Y-212798571D01*
X284009200Y-212989047D02*
X284580628Y-213179524D01*
X284580628Y-213179524D02*
X284580628Y-212684285D01*
X288156667Y-46082295D02*
X287890000Y-45701342D01*
X287699524Y-46082295D02*
X287699524Y-45282295D01*
X287699524Y-45282295D02*
X288004286Y-45282295D01*
X288004286Y-45282295D02*
X288080476Y-45320390D01*
X288080476Y-45320390D02*
X288118571Y-45358485D01*
X288118571Y-45358485D02*
X288156667Y-45434676D01*
X288156667Y-45434676D02*
X288156667Y-45548961D01*
X288156667Y-45548961D02*
X288118571Y-45625152D01*
X288118571Y-45625152D02*
X288080476Y-45663247D01*
X288080476Y-45663247D02*
X288004286Y-45701342D01*
X288004286Y-45701342D02*
X287699524Y-45701342D01*
X288423333Y-45282295D02*
X288918571Y-45282295D01*
X288918571Y-45282295D02*
X288651905Y-45587057D01*
X288651905Y-45587057D02*
X288766190Y-45587057D01*
X288766190Y-45587057D02*
X288842381Y-45625152D01*
X288842381Y-45625152D02*
X288880476Y-45663247D01*
X288880476Y-45663247D02*
X288918571Y-45739438D01*
X288918571Y-45739438D02*
X288918571Y-45929914D01*
X288918571Y-45929914D02*
X288880476Y-46006104D01*
X288880476Y-46006104D02*
X288842381Y-46044200D01*
X288842381Y-46044200D02*
X288766190Y-46082295D01*
X288766190Y-46082295D02*
X288537619Y-46082295D01*
X288537619Y-46082295D02*
X288461428Y-46044200D01*
X288461428Y-46044200D02*
X288423333Y-46006104D01*
X152392142Y-151902319D02*
X151915952Y-151902319D01*
X151915952Y-151902319D02*
X151915952Y-150902319D01*
X153249285Y-151902319D02*
X152677857Y-151902319D01*
X152963571Y-151902319D02*
X152963571Y-150902319D01*
X152963571Y-150902319D02*
X152868333Y-151045176D01*
X152868333Y-151045176D02*
X152773095Y-151140414D01*
X152773095Y-151140414D02*
X152677857Y-151188033D01*
X154201666Y-151902319D02*
X153630238Y-151902319D01*
X153915952Y-151902319D02*
X153915952Y-150902319D01*
X153915952Y-150902319D02*
X153820714Y-151045176D01*
X153820714Y-151045176D02*
X153725476Y-151140414D01*
X153725476Y-151140414D02*
X153630238Y-151188033D01*
X279266667Y-141256104D02*
X279228571Y-141294200D01*
X279228571Y-141294200D02*
X279114286Y-141332295D01*
X279114286Y-141332295D02*
X279038095Y-141332295D01*
X279038095Y-141332295D02*
X278923809Y-141294200D01*
X278923809Y-141294200D02*
X278847619Y-141218009D01*
X278847619Y-141218009D02*
X278809524Y-141141819D01*
X278809524Y-141141819D02*
X278771428Y-140989438D01*
X278771428Y-140989438D02*
X278771428Y-140875152D01*
X278771428Y-140875152D02*
X278809524Y-140722771D01*
X278809524Y-140722771D02*
X278847619Y-140646580D01*
X278847619Y-140646580D02*
X278923809Y-140570390D01*
X278923809Y-140570390D02*
X279038095Y-140532295D01*
X279038095Y-140532295D02*
X279114286Y-140532295D01*
X279114286Y-140532295D02*
X279228571Y-140570390D01*
X279228571Y-140570390D02*
X279266667Y-140608485D01*
X280028571Y-141332295D02*
X279571428Y-141332295D01*
X279800000Y-141332295D02*
X279800000Y-140532295D01*
X279800000Y-140532295D02*
X279723809Y-140646580D01*
X279723809Y-140646580D02*
X279647619Y-140722771D01*
X279647619Y-140722771D02*
X279571428Y-140760866D01*
X286572295Y-141589523D02*
X287219914Y-141589523D01*
X287219914Y-141589523D02*
X287296104Y-141551428D01*
X287296104Y-141551428D02*
X287334200Y-141513333D01*
X287334200Y-141513333D02*
X287372295Y-141437142D01*
X287372295Y-141437142D02*
X287372295Y-141284761D01*
X287372295Y-141284761D02*
X287334200Y-141208571D01*
X287334200Y-141208571D02*
X287296104Y-141170476D01*
X287296104Y-141170476D02*
X287219914Y-141132380D01*
X287219914Y-141132380D02*
X286572295Y-141132380D01*
X287372295Y-140332381D02*
X287372295Y-140789524D01*
X287372295Y-140560952D02*
X286572295Y-140560952D01*
X286572295Y-140560952D02*
X286686580Y-140637143D01*
X286686580Y-140637143D02*
X286762771Y-140713333D01*
X286762771Y-140713333D02*
X286800866Y-140789524D01*
X152868333Y-85227319D02*
X152392143Y-85227319D01*
X152392143Y-85227319D02*
X152392143Y-84227319D01*
X153249286Y-85227319D02*
X153439762Y-85227319D01*
X153439762Y-85227319D02*
X153535000Y-85179700D01*
X153535000Y-85179700D02*
X153582619Y-85132080D01*
X153582619Y-85132080D02*
X153677857Y-84989223D01*
X153677857Y-84989223D02*
X153725476Y-84798747D01*
X153725476Y-84798747D02*
X153725476Y-84417795D01*
X153725476Y-84417795D02*
X153677857Y-84322557D01*
X153677857Y-84322557D02*
X153630238Y-84274938D01*
X153630238Y-84274938D02*
X153535000Y-84227319D01*
X153535000Y-84227319D02*
X153344524Y-84227319D01*
X153344524Y-84227319D02*
X153249286Y-84274938D01*
X153249286Y-84274938D02*
X153201667Y-84322557D01*
X153201667Y-84322557D02*
X153154048Y-84417795D01*
X153154048Y-84417795D02*
X153154048Y-84655890D01*
X153154048Y-84655890D02*
X153201667Y-84751128D01*
X153201667Y-84751128D02*
X153249286Y-84798747D01*
X153249286Y-84798747D02*
X153344524Y-84846366D01*
X153344524Y-84846366D02*
X153535000Y-84846366D01*
X153535000Y-84846366D02*
X153630238Y-84798747D01*
X153630238Y-84798747D02*
X153677857Y-84751128D01*
X153677857Y-84751128D02*
X153725476Y-84655890D01*
X267697295Y-114255475D02*
X266897295Y-114255475D01*
X266897295Y-114255475D02*
X266897295Y-114064999D01*
X266897295Y-114064999D02*
X266935390Y-113950713D01*
X266935390Y-113950713D02*
X267011580Y-113874523D01*
X267011580Y-113874523D02*
X267087771Y-113836428D01*
X267087771Y-113836428D02*
X267240152Y-113798332D01*
X267240152Y-113798332D02*
X267354438Y-113798332D01*
X267354438Y-113798332D02*
X267506819Y-113836428D01*
X267506819Y-113836428D02*
X267583009Y-113874523D01*
X267583009Y-113874523D02*
X267659200Y-113950713D01*
X267659200Y-113950713D02*
X267697295Y-114064999D01*
X267697295Y-114064999D02*
X267697295Y-114255475D01*
X267240152Y-113341190D02*
X267202057Y-113417380D01*
X267202057Y-113417380D02*
X267163961Y-113455475D01*
X267163961Y-113455475D02*
X267087771Y-113493571D01*
X267087771Y-113493571D02*
X267049676Y-113493571D01*
X267049676Y-113493571D02*
X266973485Y-113455475D01*
X266973485Y-113455475D02*
X266935390Y-113417380D01*
X266935390Y-113417380D02*
X266897295Y-113341190D01*
X266897295Y-113341190D02*
X266897295Y-113188809D01*
X266897295Y-113188809D02*
X266935390Y-113112618D01*
X266935390Y-113112618D02*
X266973485Y-113074523D01*
X266973485Y-113074523D02*
X267049676Y-113036428D01*
X267049676Y-113036428D02*
X267087771Y-113036428D01*
X267087771Y-113036428D02*
X267163961Y-113074523D01*
X267163961Y-113074523D02*
X267202057Y-113112618D01*
X267202057Y-113112618D02*
X267240152Y-113188809D01*
X267240152Y-113188809D02*
X267240152Y-113341190D01*
X267240152Y-113341190D02*
X267278247Y-113417380D01*
X267278247Y-113417380D02*
X267316342Y-113455475D01*
X267316342Y-113455475D02*
X267392533Y-113493571D01*
X267392533Y-113493571D02*
X267544914Y-113493571D01*
X267544914Y-113493571D02*
X267621104Y-113455475D01*
X267621104Y-113455475D02*
X267659200Y-113417380D01*
X267659200Y-113417380D02*
X267697295Y-113341190D01*
X267697295Y-113341190D02*
X267697295Y-113188809D01*
X267697295Y-113188809D02*
X267659200Y-113112618D01*
X267659200Y-113112618D02*
X267621104Y-113074523D01*
X267621104Y-113074523D02*
X267544914Y-113036428D01*
X267544914Y-113036428D02*
X267392533Y-113036428D01*
X267392533Y-113036428D02*
X267316342Y-113074523D01*
X267316342Y-113074523D02*
X267278247Y-113112618D01*
X267278247Y-113112618D02*
X267240152Y-113188809D01*
X287699524Y-70529795D02*
X287699524Y-69729795D01*
X287699524Y-69729795D02*
X287890000Y-69729795D01*
X287890000Y-69729795D02*
X288004286Y-69767890D01*
X288004286Y-69767890D02*
X288080476Y-69844080D01*
X288080476Y-69844080D02*
X288118571Y-69920271D01*
X288118571Y-69920271D02*
X288156667Y-70072652D01*
X288156667Y-70072652D02*
X288156667Y-70186938D01*
X288156667Y-70186938D02*
X288118571Y-70339319D01*
X288118571Y-70339319D02*
X288080476Y-70415509D01*
X288080476Y-70415509D02*
X288004286Y-70491700D01*
X288004286Y-70491700D02*
X287890000Y-70529795D01*
X287890000Y-70529795D02*
X287699524Y-70529795D01*
X288842381Y-69729795D02*
X288690000Y-69729795D01*
X288690000Y-69729795D02*
X288613809Y-69767890D01*
X288613809Y-69767890D02*
X288575714Y-69805985D01*
X288575714Y-69805985D02*
X288499524Y-69920271D01*
X288499524Y-69920271D02*
X288461428Y-70072652D01*
X288461428Y-70072652D02*
X288461428Y-70377414D01*
X288461428Y-70377414D02*
X288499524Y-70453604D01*
X288499524Y-70453604D02*
X288537619Y-70491700D01*
X288537619Y-70491700D02*
X288613809Y-70529795D01*
X288613809Y-70529795D02*
X288766190Y-70529795D01*
X288766190Y-70529795D02*
X288842381Y-70491700D01*
X288842381Y-70491700D02*
X288880476Y-70453604D01*
X288880476Y-70453604D02*
X288918571Y-70377414D01*
X288918571Y-70377414D02*
X288918571Y-70186938D01*
X288918571Y-70186938D02*
X288880476Y-70110747D01*
X288880476Y-70110747D02*
X288842381Y-70072652D01*
X288842381Y-70072652D02*
X288766190Y-70034557D01*
X288766190Y-70034557D02*
X288613809Y-70034557D01*
X288613809Y-70034557D02*
X288537619Y-70072652D01*
X288537619Y-70072652D02*
X288499524Y-70110747D01*
X288499524Y-70110747D02*
X288461428Y-70186938D01*
X288151666Y-89579795D02*
X287770714Y-89579795D01*
X287770714Y-89579795D02*
X287770714Y-88779795D01*
X288761190Y-89046461D02*
X288761190Y-89579795D01*
X288570714Y-88741700D02*
X288380237Y-89313128D01*
X288380237Y-89313128D02*
X288875476Y-89313128D01*
X297013333Y-160062080D02*
X296965714Y-160109700D01*
X296965714Y-160109700D02*
X296822857Y-160157319D01*
X296822857Y-160157319D02*
X296727619Y-160157319D01*
X296727619Y-160157319D02*
X296584762Y-160109700D01*
X296584762Y-160109700D02*
X296489524Y-160014461D01*
X296489524Y-160014461D02*
X296441905Y-159919223D01*
X296441905Y-159919223D02*
X296394286Y-159728747D01*
X296394286Y-159728747D02*
X296394286Y-159585890D01*
X296394286Y-159585890D02*
X296441905Y-159395414D01*
X296441905Y-159395414D02*
X296489524Y-159300176D01*
X296489524Y-159300176D02*
X296584762Y-159204938D01*
X296584762Y-159204938D02*
X296727619Y-159157319D01*
X296727619Y-159157319D02*
X296822857Y-159157319D01*
X296822857Y-159157319D02*
X296965714Y-159204938D01*
X296965714Y-159204938D02*
X297013333Y-159252557D01*
X297394286Y-159252557D02*
X297441905Y-159204938D01*
X297441905Y-159204938D02*
X297537143Y-159157319D01*
X297537143Y-159157319D02*
X297775238Y-159157319D01*
X297775238Y-159157319D02*
X297870476Y-159204938D01*
X297870476Y-159204938D02*
X297918095Y-159252557D01*
X297918095Y-159252557D02*
X297965714Y-159347795D01*
X297965714Y-159347795D02*
X297965714Y-159443033D01*
X297965714Y-159443033D02*
X297918095Y-159585890D01*
X297918095Y-159585890D02*
X297346667Y-160157319D01*
X297346667Y-160157319D02*
X297965714Y-160157319D01*
D12*
X260375476Y-129739895D02*
X260375476Y-130387514D01*
X260375476Y-130387514D02*
X260413571Y-130463704D01*
X260413571Y-130463704D02*
X260451666Y-130501800D01*
X260451666Y-130501800D02*
X260527857Y-130539895D01*
X260527857Y-130539895D02*
X260680238Y-130539895D01*
X260680238Y-130539895D02*
X260756428Y-130501800D01*
X260756428Y-130501800D02*
X260794523Y-130463704D01*
X260794523Y-130463704D02*
X260832619Y-130387514D01*
X260832619Y-130387514D02*
X260832619Y-129739895D01*
X261137380Y-129739895D02*
X261632618Y-129739895D01*
X261632618Y-129739895D02*
X261365952Y-130044657D01*
X261365952Y-130044657D02*
X261480237Y-130044657D01*
X261480237Y-130044657D02*
X261556428Y-130082752D01*
X261556428Y-130082752D02*
X261594523Y-130120847D01*
X261594523Y-130120847D02*
X261632618Y-130197038D01*
X261632618Y-130197038D02*
X261632618Y-130387514D01*
X261632618Y-130387514D02*
X261594523Y-130463704D01*
X261594523Y-130463704D02*
X261556428Y-130501800D01*
X261556428Y-130501800D02*
X261480237Y-130539895D01*
X261480237Y-130539895D02*
X261251666Y-130539895D01*
X261251666Y-130539895D02*
X261175475Y-130501800D01*
X261175475Y-130501800D02*
X261137380Y-130463704D01*
D11*
X272716666Y-183374819D02*
X272716666Y-184089104D01*
X272716666Y-184089104D02*
X272669047Y-184231961D01*
X272669047Y-184231961D02*
X272573809Y-184327200D01*
X272573809Y-184327200D02*
X272430952Y-184374819D01*
X272430952Y-184374819D02*
X272335714Y-184374819D01*
X273716666Y-184374819D02*
X273145238Y-184374819D01*
X273430952Y-184374819D02*
X273430952Y-183374819D01*
X273430952Y-183374819D02*
X273335714Y-183517676D01*
X273335714Y-183517676D02*
X273240476Y-183612914D01*
X273240476Y-183612914D02*
X273145238Y-183660533D01*
X301034524Y-51479795D02*
X301034524Y-50679795D01*
X301034524Y-50679795D02*
X301225000Y-50679795D01*
X301225000Y-50679795D02*
X301339286Y-50717890D01*
X301339286Y-50717890D02*
X301415476Y-50794080D01*
X301415476Y-50794080D02*
X301453571Y-50870271D01*
X301453571Y-50870271D02*
X301491667Y-51022652D01*
X301491667Y-51022652D02*
X301491667Y-51136938D01*
X301491667Y-51136938D02*
X301453571Y-51289319D01*
X301453571Y-51289319D02*
X301415476Y-51365509D01*
X301415476Y-51365509D02*
X301339286Y-51441700D01*
X301339286Y-51441700D02*
X301225000Y-51479795D01*
X301225000Y-51479795D02*
X301034524Y-51479795D01*
X301758333Y-50679795D02*
X302253571Y-50679795D01*
X302253571Y-50679795D02*
X301986905Y-50984557D01*
X301986905Y-50984557D02*
X302101190Y-50984557D01*
X302101190Y-50984557D02*
X302177381Y-51022652D01*
X302177381Y-51022652D02*
X302215476Y-51060747D01*
X302215476Y-51060747D02*
X302253571Y-51136938D01*
X302253571Y-51136938D02*
X302253571Y-51327414D01*
X302253571Y-51327414D02*
X302215476Y-51403604D01*
X302215476Y-51403604D02*
X302177381Y-51441700D01*
X302177381Y-51441700D02*
X302101190Y-51479795D01*
X302101190Y-51479795D02*
X301872619Y-51479795D01*
X301872619Y-51479795D02*
X301796428Y-51441700D01*
X301796428Y-51441700D02*
X301758333Y-51403604D01*
X279266667Y-165703604D02*
X279228571Y-165741700D01*
X279228571Y-165741700D02*
X279114286Y-165779795D01*
X279114286Y-165779795D02*
X279038095Y-165779795D01*
X279038095Y-165779795D02*
X278923809Y-165741700D01*
X278923809Y-165741700D02*
X278847619Y-165665509D01*
X278847619Y-165665509D02*
X278809524Y-165589319D01*
X278809524Y-165589319D02*
X278771428Y-165436938D01*
X278771428Y-165436938D02*
X278771428Y-165322652D01*
X278771428Y-165322652D02*
X278809524Y-165170271D01*
X278809524Y-165170271D02*
X278847619Y-165094080D01*
X278847619Y-165094080D02*
X278923809Y-165017890D01*
X278923809Y-165017890D02*
X279038095Y-164979795D01*
X279038095Y-164979795D02*
X279114286Y-164979795D01*
X279114286Y-164979795D02*
X279228571Y-165017890D01*
X279228571Y-165017890D02*
X279266667Y-165055985D01*
X279533333Y-164979795D02*
X280028571Y-164979795D01*
X280028571Y-164979795D02*
X279761905Y-165284557D01*
X279761905Y-165284557D02*
X279876190Y-165284557D01*
X279876190Y-165284557D02*
X279952381Y-165322652D01*
X279952381Y-165322652D02*
X279990476Y-165360747D01*
X279990476Y-165360747D02*
X280028571Y-165436938D01*
X280028571Y-165436938D02*
X280028571Y-165627414D01*
X280028571Y-165627414D02*
X279990476Y-165703604D01*
X279990476Y-165703604D02*
X279952381Y-165741700D01*
X279952381Y-165741700D02*
X279876190Y-165779795D01*
X279876190Y-165779795D02*
X279647619Y-165779795D01*
X279647619Y-165779795D02*
X279571428Y-165741700D01*
X279571428Y-165741700D02*
X279533333Y-165703604D01*
X288151666Y-94977295D02*
X287770714Y-94977295D01*
X287770714Y-94977295D02*
X287770714Y-94177295D01*
X288342142Y-94177295D02*
X288837380Y-94177295D01*
X288837380Y-94177295D02*
X288570714Y-94482057D01*
X288570714Y-94482057D02*
X288684999Y-94482057D01*
X288684999Y-94482057D02*
X288761190Y-94520152D01*
X288761190Y-94520152D02*
X288799285Y-94558247D01*
X288799285Y-94558247D02*
X288837380Y-94634438D01*
X288837380Y-94634438D02*
X288837380Y-94824914D01*
X288837380Y-94824914D02*
X288799285Y-94901104D01*
X288799285Y-94901104D02*
X288761190Y-94939200D01*
X288761190Y-94939200D02*
X288684999Y-94977295D01*
X288684999Y-94977295D02*
X288456428Y-94977295D01*
X288456428Y-94977295D02*
X288380237Y-94939200D01*
X288380237Y-94939200D02*
X288342142Y-94901104D01*
X181382319Y-134588094D02*
X182382319Y-133921428D01*
X181382319Y-133921428D02*
X182382319Y-134588094D01*
X181858509Y-133207142D02*
X181858509Y-133540475D01*
X182382319Y-133540475D02*
X181382319Y-133540475D01*
X181382319Y-133540475D02*
X181382319Y-133064285D01*
X181477557Y-132730951D02*
X181429938Y-132683332D01*
X181429938Y-132683332D02*
X181382319Y-132588094D01*
X181382319Y-132588094D02*
X181382319Y-132349999D01*
X181382319Y-132349999D02*
X181429938Y-132254761D01*
X181429938Y-132254761D02*
X181477557Y-132207142D01*
X181477557Y-132207142D02*
X181572795Y-132159523D01*
X181572795Y-132159523D02*
X181668033Y-132159523D01*
X181668033Y-132159523D02*
X181810890Y-132207142D01*
X181810890Y-132207142D02*
X182382319Y-132778570D01*
X182382319Y-132778570D02*
X182382319Y-132159523D01*
X288156666Y-51479795D02*
X287775714Y-51479795D01*
X287775714Y-51479795D02*
X287775714Y-50679795D01*
X288766190Y-50679795D02*
X288613809Y-50679795D01*
X288613809Y-50679795D02*
X288537618Y-50717890D01*
X288537618Y-50717890D02*
X288499523Y-50755985D01*
X288499523Y-50755985D02*
X288423333Y-50870271D01*
X288423333Y-50870271D02*
X288385237Y-51022652D01*
X288385237Y-51022652D02*
X288385237Y-51327414D01*
X288385237Y-51327414D02*
X288423333Y-51403604D01*
X288423333Y-51403604D02*
X288461428Y-51441700D01*
X288461428Y-51441700D02*
X288537618Y-51479795D01*
X288537618Y-51479795D02*
X288689999Y-51479795D01*
X288689999Y-51479795D02*
X288766190Y-51441700D01*
X288766190Y-51441700D02*
X288804285Y-51403604D01*
X288804285Y-51403604D02*
X288842380Y-51327414D01*
X288842380Y-51327414D02*
X288842380Y-51136938D01*
X288842380Y-51136938D02*
X288804285Y-51060747D01*
X288804285Y-51060747D02*
X288766190Y-51022652D01*
X288766190Y-51022652D02*
X288689999Y-50984557D01*
X288689999Y-50984557D02*
X288537618Y-50984557D01*
X288537618Y-50984557D02*
X288461428Y-51022652D01*
X288461428Y-51022652D02*
X288423333Y-51060747D01*
X288423333Y-51060747D02*
X288385237Y-51136938D01*
X152392142Y-115707319D02*
X151915952Y-115707319D01*
X151915952Y-115707319D02*
X151915952Y-114707319D01*
X153249285Y-115707319D02*
X152677857Y-115707319D01*
X152963571Y-115707319D02*
X152963571Y-114707319D01*
X152963571Y-114707319D02*
X152868333Y-114850176D01*
X152868333Y-114850176D02*
X152773095Y-114945414D01*
X152773095Y-114945414D02*
X152677857Y-114993033D01*
X153868333Y-114707319D02*
X153963571Y-114707319D01*
X153963571Y-114707319D02*
X154058809Y-114754938D01*
X154058809Y-114754938D02*
X154106428Y-114802557D01*
X154106428Y-114802557D02*
X154154047Y-114897795D01*
X154154047Y-114897795D02*
X154201666Y-115088271D01*
X154201666Y-115088271D02*
X154201666Y-115326366D01*
X154201666Y-115326366D02*
X154154047Y-115516842D01*
X154154047Y-115516842D02*
X154106428Y-115612080D01*
X154106428Y-115612080D02*
X154058809Y-115659700D01*
X154058809Y-115659700D02*
X153963571Y-115707319D01*
X153963571Y-115707319D02*
X153868333Y-115707319D01*
X153868333Y-115707319D02*
X153773095Y-115659700D01*
X153773095Y-115659700D02*
X153725476Y-115612080D01*
X153725476Y-115612080D02*
X153677857Y-115516842D01*
X153677857Y-115516842D02*
X153630238Y-115326366D01*
X153630238Y-115326366D02*
X153630238Y-115088271D01*
X153630238Y-115088271D02*
X153677857Y-114897795D01*
X153677857Y-114897795D02*
X153725476Y-114802557D01*
X153725476Y-114802557D02*
X153773095Y-114754938D01*
X153773095Y-114754938D02*
X153868333Y-114707319D01*
X2263095Y270180D02*
X2263095Y1270180D01*
X2263095Y793990D02*
X2834523Y793990D01*
X2834523Y270180D02*
X2834523Y1270180D01*
X3786904Y1270180D02*
X3310714Y1270180D01*
X3310714Y1270180D02*
X3263095Y793990D01*
X3263095Y793990D02*
X3310714Y841609D01*
X3310714Y841609D02*
X3405952Y889228D01*
X3405952Y889228D02*
X3644047Y889228D01*
X3644047Y889228D02*
X3739285Y841609D01*
X3739285Y841609D02*
X3786904Y793990D01*
X3786904Y793990D02*
X3834523Y698752D01*
X3834523Y698752D02*
X3834523Y460657D01*
X3834523Y460657D02*
X3786904Y365419D01*
X3786904Y365419D02*
X3739285Y317800D01*
X3739285Y317800D02*
X3644047Y270180D01*
X3644047Y270180D02*
X3405952Y270180D01*
X3405952Y270180D02*
X3310714Y317800D01*
X3310714Y317800D02*
X3263095Y365419D01*
X262776905Y-124954819D02*
X262776905Y-123954819D01*
X263348333Y-124954819D02*
X262919762Y-124383390D01*
X263348333Y-123954819D02*
X262776905Y-124526247D01*
X264300714Y-124954819D02*
X263729286Y-124954819D01*
X264015000Y-124954819D02*
X264015000Y-123954819D01*
X264015000Y-123954819D02*
X263919762Y-124097676D01*
X263919762Y-124097676D02*
X263824524Y-124192914D01*
X263824524Y-124192914D02*
X263729286Y-124240533D01*
X279266667Y-155543604D02*
X279228571Y-155581700D01*
X279228571Y-155581700D02*
X279114286Y-155619795D01*
X279114286Y-155619795D02*
X279038095Y-155619795D01*
X279038095Y-155619795D02*
X278923809Y-155581700D01*
X278923809Y-155581700D02*
X278847619Y-155505509D01*
X278847619Y-155505509D02*
X278809524Y-155429319D01*
X278809524Y-155429319D02*
X278771428Y-155276938D01*
X278771428Y-155276938D02*
X278771428Y-155162652D01*
X278771428Y-155162652D02*
X278809524Y-155010271D01*
X278809524Y-155010271D02*
X278847619Y-154934080D01*
X278847619Y-154934080D02*
X278923809Y-154857890D01*
X278923809Y-154857890D02*
X279038095Y-154819795D01*
X279038095Y-154819795D02*
X279114286Y-154819795D01*
X279114286Y-154819795D02*
X279228571Y-154857890D01*
X279228571Y-154857890D02*
X279266667Y-154895985D01*
X279952381Y-155086461D02*
X279952381Y-155619795D01*
X279761905Y-154781700D02*
X279571428Y-155353128D01*
X279571428Y-155353128D02*
X280066667Y-155353128D01*
X283982319Y-185591666D02*
X283982319Y-186067856D01*
X283982319Y-186067856D02*
X282982319Y-186067856D01*
X282982319Y-185353570D02*
X282982319Y-184686904D01*
X282982319Y-184686904D02*
X283982319Y-185115475D01*
X288151666Y-127679795D02*
X287770714Y-127679795D01*
X287770714Y-127679795D02*
X287770714Y-126879795D01*
X288380237Y-126955985D02*
X288418333Y-126917890D01*
X288418333Y-126917890D02*
X288494523Y-126879795D01*
X288494523Y-126879795D02*
X288684999Y-126879795D01*
X288684999Y-126879795D02*
X288761190Y-126917890D01*
X288761190Y-126917890D02*
X288799285Y-126955985D01*
X288799285Y-126955985D02*
X288837380Y-127032176D01*
X288837380Y-127032176D02*
X288837380Y-127108366D01*
X288837380Y-127108366D02*
X288799285Y-127222652D01*
X288799285Y-127222652D02*
X288342142Y-127679795D01*
X288342142Y-127679795D02*
X288837380Y-127679795D01*
X230259580Y-95764166D02*
X230307200Y-95811785D01*
X230307200Y-95811785D02*
X230354819Y-95954642D01*
X230354819Y-95954642D02*
X230354819Y-96049880D01*
X230354819Y-96049880D02*
X230307200Y-96192737D01*
X230307200Y-96192737D02*
X230211961Y-96287975D01*
X230211961Y-96287975D02*
X230116723Y-96335594D01*
X230116723Y-96335594D02*
X229926247Y-96383213D01*
X229926247Y-96383213D02*
X229783390Y-96383213D01*
X229783390Y-96383213D02*
X229592914Y-96335594D01*
X229592914Y-96335594D02*
X229497676Y-96287975D01*
X229497676Y-96287975D02*
X229402438Y-96192737D01*
X229402438Y-96192737D02*
X229354819Y-96049880D01*
X229354819Y-96049880D02*
X229354819Y-95954642D01*
X229354819Y-95954642D02*
X229402438Y-95811785D01*
X229402438Y-95811785D02*
X229450057Y-95764166D01*
X229354819Y-94859404D02*
X229354819Y-95335594D01*
X229354819Y-95335594D02*
X229831009Y-95383213D01*
X229831009Y-95383213D02*
X229783390Y-95335594D01*
X229783390Y-95335594D02*
X229735771Y-95240356D01*
X229735771Y-95240356D02*
X229735771Y-95002261D01*
X229735771Y-95002261D02*
X229783390Y-94907023D01*
X229783390Y-94907023D02*
X229831009Y-94859404D01*
X229831009Y-94859404D02*
X229926247Y-94811785D01*
X229926247Y-94811785D02*
X230164342Y-94811785D01*
X230164342Y-94811785D02*
X230259580Y-94859404D01*
X230259580Y-94859404D02*
X230307200Y-94907023D01*
X230307200Y-94907023D02*
X230354819Y-95002261D01*
X230354819Y-95002261D02*
X230354819Y-95240356D01*
X230354819Y-95240356D02*
X230307200Y-95335594D01*
X230307200Y-95335594D02*
X230259580Y-95383213D01*
X181382319Y-67913094D02*
X182382319Y-67246428D01*
X181382319Y-67246428D02*
X182382319Y-67913094D01*
X181858509Y-66532142D02*
X181858509Y-66865475D01*
X182382319Y-66865475D02*
X181382319Y-66865475D01*
X181382319Y-66865475D02*
X181382319Y-66389285D01*
X182382319Y-65484523D02*
X182382319Y-66055951D01*
X182382319Y-65770237D02*
X181382319Y-65770237D01*
X181382319Y-65770237D02*
X181525176Y-65865475D01*
X181525176Y-65865475D02*
X181620414Y-65960713D01*
X181620414Y-65960713D02*
X181668033Y-66055951D01*
X287551905Y-76972319D02*
X287551905Y-75972319D01*
X287551905Y-75972319D02*
X287790000Y-75972319D01*
X287790000Y-75972319D02*
X287932857Y-76019938D01*
X287932857Y-76019938D02*
X288028095Y-76115176D01*
X288028095Y-76115176D02*
X288075714Y-76210414D01*
X288075714Y-76210414D02*
X288123333Y-76400890D01*
X288123333Y-76400890D02*
X288123333Y-76543747D01*
X288123333Y-76543747D02*
X288075714Y-76734223D01*
X288075714Y-76734223D02*
X288028095Y-76829461D01*
X288028095Y-76829461D02*
X287932857Y-76924700D01*
X287932857Y-76924700D02*
X287790000Y-76972319D01*
X287790000Y-76972319D02*
X287551905Y-76972319D01*
X288980476Y-76305652D02*
X288980476Y-76972319D01*
X288742381Y-75924700D02*
X288504286Y-76638985D01*
X288504286Y-76638985D02*
X289123333Y-76638985D01*
X138449580Y-66841666D02*
X138497200Y-66889285D01*
X138497200Y-66889285D02*
X138544819Y-67032142D01*
X138544819Y-67032142D02*
X138544819Y-67127380D01*
X138544819Y-67127380D02*
X138497200Y-67270237D01*
X138497200Y-67270237D02*
X138401961Y-67365475D01*
X138401961Y-67365475D02*
X138306723Y-67413094D01*
X138306723Y-67413094D02*
X138116247Y-67460713D01*
X138116247Y-67460713D02*
X137973390Y-67460713D01*
X137973390Y-67460713D02*
X137782914Y-67413094D01*
X137782914Y-67413094D02*
X137687676Y-67365475D01*
X137687676Y-67365475D02*
X137592438Y-67270237D01*
X137592438Y-67270237D02*
X137544819Y-67127380D01*
X137544819Y-67127380D02*
X137544819Y-67032142D01*
X137544819Y-67032142D02*
X137592438Y-66889285D01*
X137592438Y-66889285D02*
X137640057Y-66841666D01*
X137544819Y-66508332D02*
X137544819Y-65841666D01*
X137544819Y-65841666D02*
X138544819Y-66270237D01*
X130767919Y-132659523D02*
X130720300Y-132611904D01*
X130720300Y-132611904D02*
X130672680Y-132469047D01*
X130672680Y-132469047D02*
X130672680Y-132373809D01*
X130672680Y-132373809D02*
X130720300Y-132230952D01*
X130720300Y-132230952D02*
X130815538Y-132135714D01*
X130815538Y-132135714D02*
X130910776Y-132088095D01*
X130910776Y-132088095D02*
X131101252Y-132040476D01*
X131101252Y-132040476D02*
X131244109Y-132040476D01*
X131244109Y-132040476D02*
X131434585Y-132088095D01*
X131434585Y-132088095D02*
X131529823Y-132135714D01*
X131529823Y-132135714D02*
X131625061Y-132230952D01*
X131625061Y-132230952D02*
X131672680Y-132373809D01*
X131672680Y-132373809D02*
X131672680Y-132469047D01*
X131672680Y-132469047D02*
X131625061Y-132611904D01*
X131625061Y-132611904D02*
X131577442Y-132659523D01*
X130672680Y-133088095D02*
X131672680Y-133088095D01*
X131672680Y-133088095D02*
X130672680Y-133659523D01*
X130672680Y-133659523D02*
X131672680Y-133659523D01*
X131339347Y-134564285D02*
X130672680Y-134564285D01*
X131720300Y-134326190D02*
X131006014Y-134088095D01*
X131006014Y-134088095D02*
X131006014Y-134707142D01*
X307884761Y-99292557D02*
X307789523Y-99244938D01*
X307789523Y-99244938D02*
X307694285Y-99149700D01*
X307694285Y-99149700D02*
X307551428Y-99006842D01*
X307551428Y-99006842D02*
X307456190Y-98959223D01*
X307456190Y-98959223D02*
X307360952Y-98959223D01*
X307408571Y-99197319D02*
X307313333Y-99149700D01*
X307313333Y-99149700D02*
X307218095Y-99054461D01*
X307218095Y-99054461D02*
X307170476Y-98863985D01*
X307170476Y-98863985D02*
X307170476Y-98530652D01*
X307170476Y-98530652D02*
X307218095Y-98340176D01*
X307218095Y-98340176D02*
X307313333Y-98244938D01*
X307313333Y-98244938D02*
X307408571Y-98197319D01*
X307408571Y-98197319D02*
X307599047Y-98197319D01*
X307599047Y-98197319D02*
X307694285Y-98244938D01*
X307694285Y-98244938D02*
X307789523Y-98340176D01*
X307789523Y-98340176D02*
X307837142Y-98530652D01*
X307837142Y-98530652D02*
X307837142Y-98863985D01*
X307837142Y-98863985D02*
X307789523Y-99054461D01*
X307789523Y-99054461D02*
X307694285Y-99149700D01*
X307694285Y-99149700D02*
X307599047Y-99197319D01*
X307599047Y-99197319D02*
X307408571Y-99197319D01*
X308218095Y-98292557D02*
X308265714Y-98244938D01*
X308265714Y-98244938D02*
X308360952Y-98197319D01*
X308360952Y-98197319D02*
X308599047Y-98197319D01*
X308599047Y-98197319D02*
X308694285Y-98244938D01*
X308694285Y-98244938D02*
X308741904Y-98292557D01*
X308741904Y-98292557D02*
X308789523Y-98387795D01*
X308789523Y-98387795D02*
X308789523Y-98483033D01*
X308789523Y-98483033D02*
X308741904Y-98625890D01*
X308741904Y-98625890D02*
X308170476Y-99197319D01*
X308170476Y-99197319D02*
X308789523Y-99197319D01*
X234606104Y-51650832D02*
X234644200Y-51688928D01*
X234644200Y-51688928D02*
X234682295Y-51803213D01*
X234682295Y-51803213D02*
X234682295Y-51879404D01*
X234682295Y-51879404D02*
X234644200Y-51993690D01*
X234644200Y-51993690D02*
X234568009Y-52069880D01*
X234568009Y-52069880D02*
X234491819Y-52107975D01*
X234491819Y-52107975D02*
X234339438Y-52146071D01*
X234339438Y-52146071D02*
X234225152Y-52146071D01*
X234225152Y-52146071D02*
X234072771Y-52107975D01*
X234072771Y-52107975D02*
X233996580Y-52069880D01*
X233996580Y-52069880D02*
X233920390Y-51993690D01*
X233920390Y-51993690D02*
X233882295Y-51879404D01*
X233882295Y-51879404D02*
X233882295Y-51803213D01*
X233882295Y-51803213D02*
X233920390Y-51688928D01*
X233920390Y-51688928D02*
X233958485Y-51650832D01*
X234682295Y-50850832D02*
X234301342Y-51117499D01*
X234682295Y-51307975D02*
X233882295Y-51307975D01*
X233882295Y-51307975D02*
X233882295Y-51003213D01*
X233882295Y-51003213D02*
X233920390Y-50927023D01*
X233920390Y-50927023D02*
X233958485Y-50888928D01*
X233958485Y-50888928D02*
X234034676Y-50850832D01*
X234034676Y-50850832D02*
X234148961Y-50850832D01*
X234148961Y-50850832D02*
X234225152Y-50888928D01*
X234225152Y-50888928D02*
X234263247Y-50927023D01*
X234263247Y-50927023D02*
X234301342Y-51003213D01*
X234301342Y-51003213D02*
X234301342Y-51307975D01*
X234682295Y-50088928D02*
X234682295Y-50546071D01*
X234682295Y-50317499D02*
X233882295Y-50317499D01*
X233882295Y-50317499D02*
X233996580Y-50393690D01*
X233996580Y-50393690D02*
X234072771Y-50469880D01*
X234072771Y-50469880D02*
X234110866Y-50546071D01*
X299222319Y-185586666D02*
X298746128Y-185919999D01*
X299222319Y-186158094D02*
X298222319Y-186158094D01*
X298222319Y-186158094D02*
X298222319Y-185777142D01*
X298222319Y-185777142D02*
X298269938Y-185681904D01*
X298269938Y-185681904D02*
X298317557Y-185634285D01*
X298317557Y-185634285D02*
X298412795Y-185586666D01*
X298412795Y-185586666D02*
X298555652Y-185586666D01*
X298555652Y-185586666D02*
X298650890Y-185634285D01*
X298650890Y-185634285D02*
X298698509Y-185681904D01*
X298698509Y-185681904D02*
X298746128Y-185777142D01*
X298746128Y-185777142D02*
X298746128Y-186158094D01*
X298222319Y-184681904D02*
X298222319Y-185158094D01*
X298222319Y-185158094D02*
X298698509Y-185205713D01*
X298698509Y-185205713D02*
X298650890Y-185158094D01*
X298650890Y-185158094D02*
X298603271Y-185062856D01*
X298603271Y-185062856D02*
X298603271Y-184824761D01*
X298603271Y-184824761D02*
X298650890Y-184729523D01*
X298650890Y-184729523D02*
X298698509Y-184681904D01*
X298698509Y-184681904D02*
X298793747Y-184634285D01*
X298793747Y-184634285D02*
X299031842Y-184634285D01*
X299031842Y-184634285D02*
X299127080Y-184681904D01*
X299127080Y-184681904D02*
X299174700Y-184729523D01*
X299174700Y-184729523D02*
X299222319Y-184824761D01*
X299222319Y-184824761D02*
X299222319Y-185062856D01*
X299222319Y-185062856D02*
X299174700Y-185158094D01*
X299174700Y-185158094D02*
X299127080Y-185205713D01*
X130132919Y-192984523D02*
X130085300Y-192936904D01*
X130085300Y-192936904D02*
X130037680Y-192794047D01*
X130037680Y-192794047D02*
X130037680Y-192698809D01*
X130037680Y-192698809D02*
X130085300Y-192555952D01*
X130085300Y-192555952D02*
X130180538Y-192460714D01*
X130180538Y-192460714D02*
X130275776Y-192413095D01*
X130275776Y-192413095D02*
X130466252Y-192365476D01*
X130466252Y-192365476D02*
X130609109Y-192365476D01*
X130609109Y-192365476D02*
X130799585Y-192413095D01*
X130799585Y-192413095D02*
X130894823Y-192460714D01*
X130894823Y-192460714D02*
X130990061Y-192555952D01*
X130990061Y-192555952D02*
X131037680Y-192698809D01*
X131037680Y-192698809D02*
X131037680Y-192794047D01*
X131037680Y-192794047D02*
X130990061Y-192936904D01*
X130990061Y-192936904D02*
X130942442Y-192984523D01*
X130037680Y-193413095D02*
X131037680Y-193413095D01*
X131037680Y-193413095D02*
X130037680Y-193984523D01*
X130037680Y-193984523D02*
X131037680Y-193984523D01*
X131037680Y-194936904D02*
X131037680Y-194460714D01*
X131037680Y-194460714D02*
X130561490Y-194413095D01*
X130561490Y-194413095D02*
X130609109Y-194460714D01*
X130609109Y-194460714D02*
X130656728Y-194555952D01*
X130656728Y-194555952D02*
X130656728Y-194794047D01*
X130656728Y-194794047D02*
X130609109Y-194889285D01*
X130609109Y-194889285D02*
X130561490Y-194936904D01*
X130561490Y-194936904D02*
X130466252Y-194984523D01*
X130466252Y-194984523D02*
X130228157Y-194984523D01*
X130228157Y-194984523D02*
X130132919Y-194936904D01*
X130132919Y-194936904D02*
X130085300Y-194889285D01*
X130085300Y-194889285D02*
X130037680Y-194794047D01*
X130037680Y-194794047D02*
X130037680Y-194555952D01*
X130037680Y-194555952D02*
X130085300Y-194460714D01*
X130085300Y-194460714D02*
X130132919Y-194413095D01*
X262776905Y-96062319D02*
X262776905Y-95062319D01*
X263348333Y-96062319D02*
X262919762Y-95490890D01*
X263348333Y-95062319D02*
X262776905Y-95633747D01*
X263729286Y-95157557D02*
X263776905Y-95109938D01*
X263776905Y-95109938D02*
X263872143Y-95062319D01*
X263872143Y-95062319D02*
X264110238Y-95062319D01*
X264110238Y-95062319D02*
X264205476Y-95109938D01*
X264205476Y-95109938D02*
X264253095Y-95157557D01*
X264253095Y-95157557D02*
X264300714Y-95252795D01*
X264300714Y-95252795D02*
X264300714Y-95348033D01*
X264300714Y-95348033D02*
X264253095Y-95490890D01*
X264253095Y-95490890D02*
X263681667Y-96062319D01*
X263681667Y-96062319D02*
X264300714Y-96062319D01*
D13*
%TO.C,CN-1-2*%
X301847500Y-228192501D02*
X305847500Y-228192501D01*
X298137500Y-227902501D02*
X298137500Y-225622501D01*
X308107500Y-227902501D02*
X298137500Y-227902501D01*
X308107500Y-227902501D02*
X308107500Y-212602501D01*
X309107500Y-227902501D02*
X308107500Y-227902501D01*
X298137500Y-225622501D02*
X298537500Y-225622501D01*
X298537500Y-225622501D02*
X298537500Y-222922501D01*
X298137500Y-222922501D02*
X298137500Y-212602501D01*
X298537500Y-222922501D02*
X298137500Y-222922501D01*
X298137500Y-212602501D02*
X309107500Y-212602501D01*
X309107500Y-212602501D02*
X309107500Y-227902501D01*
%TO.C,CN-1-1*%
X301847500Y-211047501D02*
X305847500Y-211047501D01*
X298137500Y-210757501D02*
X298137500Y-208477501D01*
X308107500Y-210757501D02*
X298137500Y-210757501D01*
X308107500Y-210757501D02*
X308107500Y-195457501D01*
X309107500Y-210757501D02*
X308107500Y-210757501D01*
X298137500Y-208477501D02*
X298537500Y-208477501D01*
X298537500Y-208477501D02*
X298537500Y-205777501D01*
X298137500Y-205777501D02*
X298137500Y-195457501D01*
X298537500Y-205777501D02*
X298137500Y-205777501D01*
X298137500Y-195457501D02*
X309107500Y-195457501D01*
X309107500Y-195457501D02*
X309107500Y-210757501D01*
%TO.C,L1*%
X281910000Y-132715000D02*
X283420000Y-132715000D01*
X283420000Y-130595000D02*
X283420000Y-134835000D01*
X283420000Y-134835000D02*
X293160000Y-134835000D01*
X293160000Y-130595000D02*
X283420000Y-130595000D01*
X293160000Y-134835000D02*
X293160000Y-130595000D01*
X294670000Y-132715000D02*
X293160000Y-132715000D01*
%TO.C,Q3*%
X305155000Y-43047500D02*
X305155000Y-59187500D01*
X310426000Y-43047500D02*
X305155000Y-43047500D01*
X310426000Y-43047500D02*
X310426000Y-59187500D01*
X310426000Y-49313500D02*
X305155000Y-49313500D01*
X310426000Y-52922500D02*
X305155000Y-52922500D01*
X310426000Y-59187500D02*
X305155000Y-59187500D01*
%TO.C,CN3*%
X121515000Y-61005000D02*
X122515000Y-61005000D01*
X121515000Y-72345000D02*
X121515000Y-61005000D01*
X122515000Y-61005000D02*
X122515000Y-72345000D01*
X122515000Y-61005000D02*
X132485000Y-61005000D01*
X128775000Y-60715000D02*
X124775000Y-60715000D01*
X132085000Y-63285000D02*
X132085000Y-65985000D01*
X132085000Y-65985000D02*
X132485000Y-65985000D01*
X132485000Y-61005000D02*
X132485000Y-63285000D01*
X132485000Y-63285000D02*
X132085000Y-63285000D01*
X132485000Y-65985000D02*
X132485000Y-72345000D01*
X132485000Y-72345000D02*
X121515000Y-72345000D01*
D11*
%TO.C,L8*%
X145097501Y-46672500D02*
G75*
G02*
X145097501Y-50482500I7937499J-1905000D01*
G01*
X156527499Y-50482500D02*
G75*
G02*
X156527499Y-46672500I-3492499J1905000D01*
G01*
%TO.C,HS2*%
X246777500Y-35117500D02*
X248527500Y-35117500D01*
X246777500Y-67117500D02*
X246777500Y-35117500D01*
X247027500Y-49367500D02*
X246777500Y-49367500D01*
X247027500Y-52867500D02*
X246777500Y-52867500D01*
X247527500Y-49367500D02*
X248027500Y-49367500D01*
X247527500Y-52867500D02*
X248027500Y-52867500D01*
X248527500Y-40617500D02*
X248527500Y-35117500D01*
X248527500Y-40617500D02*
X250777500Y-40617500D01*
X248527500Y-49367500D02*
X249027500Y-49367500D01*
X248527500Y-52867500D02*
X249027500Y-52867500D01*
X248527500Y-61617500D02*
X248527500Y-67117500D01*
X248527500Y-61617500D02*
X250777500Y-61617500D01*
X248527500Y-67117500D02*
X246777500Y-67117500D01*
X249527500Y-49367500D02*
X249777500Y-49367500D01*
X249527500Y-52867500D02*
X249777500Y-52867500D01*
X249777500Y-43617500D02*
X250777500Y-43617500D01*
X249777500Y-58617500D02*
X249777500Y-43617500D01*
X249777500Y-58617500D02*
X250777500Y-58617500D01*
X250777500Y-35117500D02*
X252777500Y-35117500D01*
X250777500Y-40617500D02*
X250777500Y-35117500D01*
X250777500Y-61617500D02*
X250777500Y-67117500D01*
X250777500Y-67117500D02*
X252777500Y-67117500D01*
X252777500Y-40617500D02*
X252777500Y-35117500D01*
X252777500Y-40617500D02*
X254777500Y-40617500D01*
X252777500Y-43617500D02*
X260777500Y-43617500D01*
X252777500Y-58617500D02*
X260777500Y-58617500D01*
X252777500Y-61617500D02*
X254777500Y-61617500D01*
X252777500Y-67117500D02*
X252777500Y-61617500D01*
X254777500Y-35117500D02*
X256777500Y-35117500D01*
X254777500Y-40617500D02*
X254777500Y-35117500D01*
X254777500Y-61617500D02*
X254777500Y-67117500D01*
X254777500Y-67117500D02*
X256777500Y-67117500D01*
X256777500Y-40617500D02*
X256777500Y-35117500D01*
X256777500Y-40617500D02*
X258777500Y-40617500D01*
X256777500Y-61617500D02*
X258777500Y-61617500D01*
X256777500Y-67117500D02*
X256777500Y-61617500D01*
X258777500Y-35117500D02*
X260777500Y-35117500D01*
X258777500Y-40617500D02*
X258777500Y-35117500D01*
X258777500Y-61617500D02*
X258777500Y-67117500D01*
X258777500Y-67117500D02*
X260777500Y-67117500D01*
X260777500Y-43617500D02*
X260777500Y-35117500D01*
X260777500Y-58617500D02*
X260777500Y-67117500D01*
D13*
%TO.C,D7*%
X290147500Y-191770000D02*
X291607500Y-191770000D01*
X291607500Y-189000000D02*
X291607500Y-194540000D01*
X291607500Y-194540000D02*
X300847500Y-194540000D01*
X292957500Y-189000000D02*
X292957500Y-194540000D01*
X293077500Y-189000000D02*
X293077500Y-194540000D01*
X293197500Y-189000000D02*
X293197500Y-194540000D01*
X300847500Y-189000000D02*
X291607500Y-189000000D01*
X300847500Y-194540000D02*
X300847500Y-189000000D01*
X302307500Y-191770000D02*
X300847500Y-191770000D01*
%TO.C,C8*%
X134492500Y-38505000D02*
X141732500Y-38505000D01*
X134492500Y-56745000D02*
X134492500Y-38505000D01*
X134492500Y-56745000D02*
X141732500Y-56745000D01*
X141732500Y-56745000D02*
X141732500Y-38505000D01*
%TO.C,Q1*%
X305155000Y-119247500D02*
X305155000Y-135387500D01*
X310426000Y-119247500D02*
X305155000Y-119247500D01*
X310426000Y-119247500D02*
X310426000Y-135387500D01*
X310426000Y-125513500D02*
X305155000Y-125513500D01*
X310426000Y-129122500D02*
X305155000Y-129122500D01*
X310426000Y-135387500D02*
X305155000Y-135387500D01*
%TO.C,L5*%
X281915000Y-56515000D02*
X283425000Y-56515000D01*
X283425000Y-54395000D02*
X283425000Y-58635000D01*
X283425000Y-58635000D02*
X293165000Y-58635000D01*
X293165000Y-54395000D02*
X283425000Y-54395000D01*
X293165000Y-58635000D02*
X293165000Y-54395000D01*
X294675000Y-56515000D02*
X293165000Y-56515000D01*
%TO.C,C11*%
X134492500Y-105180000D02*
X141732500Y-105180000D01*
X134492500Y-123420000D02*
X134492500Y-105180000D01*
X134492500Y-123420000D02*
X141732500Y-123420000D01*
X141732500Y-123420000D02*
X141732500Y-105180000D01*
%TO.C,D9*%
X266215000Y-82682500D02*
X266215000Y-86922500D01*
X266215000Y-86922500D02*
X268455000Y-86922500D01*
X267335000Y-82032500D02*
X267335000Y-82682500D01*
X267335000Y-87572500D02*
X267335000Y-86922500D01*
X268455000Y-82682500D02*
X266215000Y-82682500D01*
X268455000Y-83282500D02*
X266215000Y-83282500D01*
X268455000Y-83402500D02*
X266215000Y-83402500D01*
X268455000Y-83522500D02*
X266215000Y-83522500D01*
X268455000Y-86922500D02*
X268455000Y-82682500D01*
%TO.C,D2*%
X300155000Y-86497500D02*
X300155000Y-91937500D01*
X300155000Y-91937500D02*
X303095000Y-91937500D01*
X301625000Y-85477500D02*
X301625000Y-86497500D01*
X301625000Y-92957500D02*
X301625000Y-91937500D01*
X303095000Y-86497500D02*
X300155000Y-86497500D01*
X303095000Y-87277500D02*
X300155000Y-87277500D01*
X303095000Y-87397500D02*
X300155000Y-87397500D01*
X303095000Y-87517500D02*
X300155000Y-87517500D01*
X303095000Y-91937500D02*
X303095000Y-86497500D01*
%TO.C,R1*%
X282110000Y-121920000D02*
X283220000Y-121920000D01*
X283220000Y-120000000D02*
X283220000Y-123840000D01*
X283220000Y-123840000D02*
X293360000Y-123840000D01*
X293360000Y-120000000D02*
X283220000Y-120000000D01*
X293360000Y-123840000D02*
X293360000Y-120000000D01*
X294470000Y-121920000D02*
X293360000Y-121920000D01*
%TO.C,D5*%
X282210000Y-63817500D02*
X283670000Y-63817500D01*
X283670000Y-61047500D02*
X283670000Y-66587500D01*
X283670000Y-66587500D02*
X292910000Y-66587500D01*
X285020000Y-61047500D02*
X285020000Y-66587500D01*
X285140000Y-61047500D02*
X285140000Y-66587500D01*
X285260000Y-61047500D02*
X285260000Y-66587500D01*
X292910000Y-61047500D02*
X283670000Y-61047500D01*
X292910000Y-66587500D02*
X292910000Y-61047500D01*
X294370000Y-63817500D02*
X292910000Y-63817500D01*
%TO.C,C9*%
X134492500Y-76605000D02*
X134492500Y-94845000D01*
X141732500Y-76605000D02*
X134492500Y-76605000D01*
X141732500Y-76605000D02*
X141732500Y-94845000D01*
X141732500Y-94845000D02*
X134492500Y-94845000D01*
%TO.C,C10*%
X134492500Y-124230000D02*
X141732500Y-124230000D01*
X134492500Y-142470000D02*
X134492500Y-124230000D01*
X134492500Y-142470000D02*
X141732500Y-142470000D01*
X141732500Y-142470000D02*
X141732500Y-124230000D01*
%TO.C,R4*%
X287375000Y-211450000D02*
X287375000Y-215290000D01*
X287375000Y-215290000D02*
X289215000Y-215290000D01*
X288295000Y-210500000D02*
X288295000Y-211450000D01*
X288295000Y-216240000D02*
X288295000Y-215290000D01*
X289215000Y-211450000D02*
X287375000Y-211450000D01*
X289215000Y-215290000D02*
X289215000Y-211450000D01*
%TO.C,R2*%
X282105000Y-83820000D02*
X283215000Y-83820000D01*
X283215000Y-81900000D02*
X283215000Y-85740000D01*
X283215000Y-85740000D02*
X293355000Y-85740000D01*
X293355000Y-81900000D02*
X283215000Y-81900000D01*
X293355000Y-85740000D02*
X293355000Y-81900000D01*
X294465000Y-83820000D02*
X293355000Y-83820000D01*
D11*
%TO.C,HS1*%
X230267500Y-35117500D02*
X232017500Y-35117500D01*
X230267500Y-67117500D02*
X230267500Y-35117500D01*
X230517500Y-49367500D02*
X230267500Y-49367500D01*
X230517500Y-52867500D02*
X230267500Y-52867500D01*
X231017500Y-49367500D02*
X231517500Y-49367500D01*
X231017500Y-52867500D02*
X231517500Y-52867500D01*
X232017500Y-40617500D02*
X232017500Y-35117500D01*
X232017500Y-40617500D02*
X234267500Y-40617500D01*
X232017500Y-49367500D02*
X232517500Y-49367500D01*
X232017500Y-52867500D02*
X232517500Y-52867500D01*
X232017500Y-61617500D02*
X232017500Y-67117500D01*
X232017500Y-61617500D02*
X234267500Y-61617500D01*
X232017500Y-67117500D02*
X230267500Y-67117500D01*
X233017500Y-49367500D02*
X233267500Y-49367500D01*
X233017500Y-52867500D02*
X233267500Y-52867500D01*
X233267500Y-43617500D02*
X234267500Y-43617500D01*
X233267500Y-58617500D02*
X233267500Y-43617500D01*
X233267500Y-58617500D02*
X234267500Y-58617500D01*
X234267500Y-35117500D02*
X236267500Y-35117500D01*
X234267500Y-40617500D02*
X234267500Y-35117500D01*
X234267500Y-61617500D02*
X234267500Y-67117500D01*
X234267500Y-67117500D02*
X236267500Y-67117500D01*
X236267500Y-40617500D02*
X236267500Y-35117500D01*
X236267500Y-40617500D02*
X238267500Y-40617500D01*
X236267500Y-43617500D02*
X244267500Y-43617500D01*
X236267500Y-58617500D02*
X244267500Y-58617500D01*
X236267500Y-61617500D02*
X238267500Y-61617500D01*
X236267500Y-67117500D02*
X236267500Y-61617500D01*
X238267500Y-35117500D02*
X240267500Y-35117500D01*
X238267500Y-40617500D02*
X238267500Y-35117500D01*
X238267500Y-61617500D02*
X238267500Y-67117500D01*
X238267500Y-67117500D02*
X240267500Y-67117500D01*
X240267500Y-40617500D02*
X240267500Y-35117500D01*
X240267500Y-40617500D02*
X242267500Y-40617500D01*
X240267500Y-61617500D02*
X242267500Y-61617500D01*
X240267500Y-67117500D02*
X240267500Y-61617500D01*
X242267500Y-35117500D02*
X244267500Y-35117500D01*
X242267500Y-40617500D02*
X242267500Y-35117500D01*
X242267500Y-61617500D02*
X242267500Y-67117500D01*
X242267500Y-67117500D02*
X244267500Y-67117500D01*
X244267500Y-43617500D02*
X244267500Y-35117500D01*
X244267500Y-58617500D02*
X244267500Y-67117500D01*
D13*
%TO.C,C6*%
X220400000Y-88977500D02*
X220400000Y-102217500D01*
X226640000Y-88977500D02*
X220400000Y-88977500D01*
X226640000Y-88977500D02*
X226640000Y-102217500D01*
X226640000Y-102217500D02*
X220400000Y-102217500D01*
D12*
%TO.C,U2*%
X205740000Y-142875000D02*
X215900000Y-142875000D01*
X205740000Y-156845000D02*
X205740000Y-142875000D01*
X215900000Y-142875000D02*
X215900000Y-128905000D01*
X215900000Y-156845000D02*
X205740000Y-156845000D01*
X215900000Y-156845000D02*
X215900000Y-227330000D01*
X223520000Y-130810000D02*
X223520000Y-140970000D01*
X223520000Y-140970000D02*
X228600000Y-140970000D01*
X223520000Y-202247500D02*
X223520000Y-214947500D01*
X223520000Y-214947500D02*
X228600000Y-214947500D01*
X228600000Y-128905000D02*
X228600000Y-227330000D01*
X228600000Y-130810000D02*
X223520000Y-130810000D01*
X228600000Y-140970000D02*
X228600000Y-202247500D01*
X228600000Y-202247500D02*
X223520000Y-202247500D01*
X232410000Y-128905000D02*
X215900000Y-128905000D01*
X232410000Y-128905000D02*
X232410000Y-227330000D01*
X232410000Y-227330000D02*
X215900000Y-227330000D01*
D13*
%TO.C,CR2*%
X250100000Y-45997500D02*
X254741000Y-45997500D01*
X250100000Y-49266500D02*
X251610000Y-49266500D01*
X250100000Y-52967500D02*
X251610000Y-52967500D01*
X250100000Y-56237500D02*
X250100000Y-45997500D01*
X250100000Y-56237500D02*
X254741000Y-56237500D01*
X251610000Y-56237500D02*
X251610000Y-45997500D01*
X254741000Y-56237500D02*
X254741000Y-45997500D01*
%TO.C,C12*%
X134492500Y-143280000D02*
X134492500Y-161520000D01*
X141732500Y-143280000D02*
X134492500Y-143280000D01*
X141732500Y-143280000D02*
X141732500Y-161520000D01*
X141732500Y-161520000D02*
X134492500Y-161520000D01*
%TO.C,D1*%
X300155000Y-124597500D02*
X300155000Y-130037500D01*
X300155000Y-130037500D02*
X303095000Y-130037500D01*
X301625000Y-123577500D02*
X301625000Y-124597500D01*
X301625000Y-131057500D02*
X301625000Y-130037500D01*
X303095000Y-124597500D02*
X300155000Y-124597500D01*
X303095000Y-125377500D02*
X300155000Y-125377500D01*
X303095000Y-125497500D02*
X300155000Y-125497500D01*
X303095000Y-125617500D02*
X300155000Y-125617500D01*
X303095000Y-130037500D02*
X303095000Y-124597500D01*
%TO.C,U4*%
X281820000Y-208220000D02*
X281820000Y-218500000D01*
X281820000Y-218500000D02*
X287140000Y-218500000D01*
X281880000Y-210710000D02*
X281880000Y-212360000D01*
X281880000Y-214360000D02*
X281880000Y-216010000D01*
X281880000Y-216010000D02*
X287080000Y-216010000D01*
X287080000Y-210710000D02*
X281880000Y-210710000D01*
X287080000Y-216010000D02*
X287080000Y-210710000D01*
X287140000Y-208220000D02*
X281820000Y-208220000D01*
X287140000Y-218500000D02*
X287140000Y-208220000D01*
X281880000Y-212360000D02*
G75*
G02*
X281880000Y-214360000I0J-1000000D01*
G01*
%TO.C,R3*%
X282110000Y-45720000D02*
X283220000Y-45720000D01*
X283220000Y-43800000D02*
X283220000Y-47640000D01*
X283220000Y-47640000D02*
X293360000Y-47640000D01*
X293360000Y-43800000D02*
X283220000Y-43800000D01*
X293360000Y-47640000D02*
X293360000Y-43800000D01*
X294470000Y-45720000D02*
X293360000Y-45720000D01*
D11*
%TO.C,L11*%
X145097501Y-149542500D02*
G75*
G02*
X145097501Y-153352500I7937499J-1905000D01*
G01*
X156527499Y-153352500D02*
G75*
G02*
X156527499Y-149542500I-3492499J1905000D01*
G01*
D13*
%TO.C,C1*%
X277530000Y-137250000D02*
X281270000Y-137250000D01*
X277530000Y-144690000D02*
X277530000Y-137250000D01*
X277530000Y-144690000D02*
X281270000Y-144690000D01*
X281270000Y-144690000D02*
X281270000Y-137250000D01*
%TO.C,U1*%
X281880000Y-138320000D02*
X281880000Y-139970000D01*
X281880000Y-141970000D02*
X281880000Y-143620000D01*
X281880000Y-143620000D02*
X292160000Y-143620000D01*
X292160000Y-138320000D02*
X281880000Y-138320000D01*
X292160000Y-143620000D02*
X292160000Y-138320000D01*
X281880000Y-139970000D02*
G75*
G02*
X281880000Y-141970000I0J-1000000D01*
G01*
D11*
%TO.C,L9*%
X145097501Y-82867500D02*
G75*
G02*
X145097501Y-86677500I7937499J-1905000D01*
G01*
X156527499Y-86677500D02*
G75*
G02*
X156527499Y-82867500I-3492499J1905000D01*
G01*
D13*
%TO.C,D8*%
X266215000Y-111545000D02*
X266215000Y-115785000D01*
X266215000Y-115785000D02*
X268455000Y-115785000D01*
X267335000Y-110895000D02*
X267335000Y-111545000D01*
X267335000Y-116435000D02*
X267335000Y-115785000D01*
X268455000Y-111545000D02*
X266215000Y-111545000D01*
X268455000Y-112145000D02*
X266215000Y-112145000D01*
X268455000Y-112265000D02*
X266215000Y-112265000D01*
X268455000Y-112385000D02*
X266215000Y-112385000D01*
X268455000Y-115785000D02*
X268455000Y-111545000D01*
D11*
%TO.C,HS3*%
X310515000Y-39217500D02*
X328515000Y-39217500D01*
X310515000Y-139217500D02*
X310515000Y-39217500D01*
X310515000Y-139217500D02*
X328515000Y-139217500D01*
X328515000Y-139217500D02*
X328515000Y-39217500D01*
D13*
%TO.C,D6*%
X282210000Y-70167500D02*
X283670000Y-70167500D01*
X283670000Y-67397500D02*
X283670000Y-72937500D01*
X283670000Y-72937500D02*
X292910000Y-72937500D01*
X291320000Y-72937500D02*
X291320000Y-67397500D01*
X291440000Y-72937500D02*
X291440000Y-67397500D01*
X291560000Y-72937500D02*
X291560000Y-67397500D01*
X292910000Y-67397500D02*
X283670000Y-67397500D01*
X292910000Y-72937500D02*
X292910000Y-67397500D01*
X294370000Y-70167500D02*
X292910000Y-70167500D01*
%TO.C,L4*%
X281910000Y-89217500D02*
X283420000Y-89217500D01*
X283420000Y-87097500D02*
X283420000Y-91337500D01*
X283420000Y-91337500D02*
X293160000Y-91337500D01*
X293160000Y-87097500D02*
X283420000Y-87097500D01*
X293160000Y-91337500D02*
X293160000Y-87097500D01*
X294670000Y-89217500D02*
X293160000Y-89217500D01*
%TO.C,C2*%
X302194501Y-146885000D02*
X302194501Y-182045000D01*
X302234501Y-146885000D02*
X302234501Y-182045000D01*
X302274501Y-146885000D02*
X302274501Y-182045000D01*
X302314501Y-146885000D02*
X302314501Y-182045000D01*
X302354501Y-146885000D02*
X302354501Y-182045000D01*
X302394501Y-146886000D02*
X302394501Y-182044000D01*
X302434501Y-146886000D02*
X302434501Y-182044000D01*
X302474501Y-146887000D02*
X302474501Y-182043000D01*
X302514501Y-146887000D02*
X302514501Y-182043000D01*
X302554501Y-146888000D02*
X302554501Y-182042000D01*
X302594501Y-146889000D02*
X302594501Y-182041000D01*
X302634501Y-146890000D02*
X302634501Y-182040000D01*
X302674501Y-146891000D02*
X302674501Y-182039000D01*
X302714501Y-146892000D02*
X302714501Y-182038000D01*
X302754501Y-146893000D02*
X302754501Y-182037000D01*
X302794501Y-146895000D02*
X302794501Y-182035000D01*
X302834501Y-146896000D02*
X302834501Y-182034000D01*
X302874501Y-146898000D02*
X302874501Y-182032000D01*
X302915501Y-146899000D02*
X302915501Y-182031000D01*
X302955501Y-146901000D02*
X302955501Y-182029000D01*
X302995501Y-146903000D02*
X302995501Y-182027000D01*
X303035501Y-146905000D02*
X303035501Y-182025000D01*
X303075501Y-146906000D02*
X303075501Y-182024000D01*
X303115501Y-146909000D02*
X303115501Y-182021000D01*
X303155501Y-146911000D02*
X303155501Y-182019000D01*
X303195501Y-146913000D02*
X303195501Y-182017000D01*
X303235501Y-146915000D02*
X303235501Y-182015000D01*
X303275501Y-146918000D02*
X303275501Y-182012000D01*
X303315501Y-146920000D02*
X303315501Y-182010000D01*
X303355501Y-146923000D02*
X303355501Y-182007000D01*
X303395501Y-146925000D02*
X303395501Y-182005000D01*
X303435501Y-146928000D02*
X303435501Y-182002000D01*
X303475501Y-146931000D02*
X303475501Y-181999000D01*
X303515501Y-146934000D02*
X303515501Y-181996000D01*
X303555501Y-146937000D02*
X303555501Y-181993000D01*
X303595501Y-146940000D02*
X303595501Y-181990000D01*
X303635501Y-146943000D02*
X303635501Y-181987000D01*
X303675501Y-146947000D02*
X303675501Y-181983000D01*
X303715501Y-146950000D02*
X303715501Y-181980000D01*
X303755501Y-146954000D02*
X303755501Y-181976000D01*
X303795501Y-146957000D02*
X303795501Y-181973000D01*
X303835501Y-146961000D02*
X303835501Y-181969000D01*
X303875501Y-146965000D02*
X303875501Y-181965000D01*
X303915501Y-146969000D02*
X303915501Y-181961000D01*
X303955501Y-146973000D02*
X303955501Y-181957000D01*
X303995501Y-146977000D02*
X303995501Y-181953000D01*
X304035501Y-146981000D02*
X304035501Y-181949000D01*
X304075501Y-146985000D02*
X304075501Y-181945000D01*
X304115501Y-146989000D02*
X304115501Y-181941000D01*
X304155501Y-146994000D02*
X304155501Y-181936000D01*
X304195501Y-146998000D02*
X304195501Y-181932000D01*
X304235501Y-147003000D02*
X304235501Y-181927000D01*
X304275501Y-147008000D02*
X304275501Y-181922000D01*
X304315501Y-147013000D02*
X304315501Y-181917000D01*
X304355501Y-147017000D02*
X304355501Y-181913000D01*
X304395501Y-147022000D02*
X304395501Y-181908000D01*
X304435501Y-147027000D02*
X304435501Y-181903000D01*
X304475501Y-147033000D02*
X304475501Y-181897000D01*
X304515501Y-147038000D02*
X304515501Y-181892000D01*
X304555501Y-147043000D02*
X304555501Y-181887000D01*
X304595501Y-147049000D02*
X304595501Y-181881000D01*
X304635501Y-147054000D02*
X304635501Y-181876000D01*
X304675501Y-147060000D02*
X304675501Y-181870000D01*
X304715501Y-147066000D02*
X304715501Y-181864000D01*
X304755501Y-147071000D02*
X304755501Y-181859000D01*
X304795501Y-147077000D02*
X304795501Y-181853000D01*
X304835501Y-147083000D02*
X304835501Y-181847000D01*
X304875501Y-147090000D02*
X304875501Y-181840000D01*
X304915501Y-147096000D02*
X304915501Y-181834000D01*
X304955501Y-147102000D02*
X304955501Y-162225000D01*
X304955501Y-166705000D02*
X304955501Y-181828000D01*
X304995501Y-147108000D02*
X304995501Y-162225000D01*
X304995501Y-166705000D02*
X304995501Y-181822000D01*
X305035501Y-147115000D02*
X305035501Y-162225000D01*
X305035501Y-166705000D02*
X305035501Y-181815000D01*
X305075501Y-147121000D02*
X305075501Y-162225000D01*
X305075501Y-166705000D02*
X305075501Y-181809000D01*
X305115501Y-147128000D02*
X305115501Y-162225000D01*
X305115501Y-166705000D02*
X305115501Y-181802000D01*
X305155501Y-147135000D02*
X305155501Y-162225000D01*
X305155501Y-166705000D02*
X305155501Y-181795000D01*
X305195501Y-147142000D02*
X305195501Y-162225000D01*
X305195501Y-166705000D02*
X305195501Y-181788000D01*
X305235501Y-147149000D02*
X305235501Y-162225000D01*
X305235501Y-166705000D02*
X305235501Y-181781000D01*
X305275501Y-147156000D02*
X305275501Y-162225000D01*
X305275501Y-166705000D02*
X305275501Y-181774000D01*
X305315501Y-147163000D02*
X305315501Y-162225000D01*
X305315501Y-166705000D02*
X305315501Y-181767000D01*
X305355501Y-147170000D02*
X305355501Y-162225000D01*
X305355501Y-166705000D02*
X305355501Y-181760000D01*
X305395501Y-147178000D02*
X305395501Y-162225000D01*
X305395501Y-166705000D02*
X305395501Y-181752000D01*
X305435501Y-147185000D02*
X305435501Y-162225000D01*
X305435501Y-166705000D02*
X305435501Y-181745000D01*
X305475501Y-147192000D02*
X305475501Y-162225000D01*
X305475501Y-166705000D02*
X305475501Y-181738000D01*
X305515501Y-147200000D02*
X305515501Y-162225000D01*
X305515501Y-166705000D02*
X305515501Y-181730000D01*
X305555501Y-147208000D02*
X305555501Y-162225000D01*
X305555501Y-166705000D02*
X305555501Y-181722000D01*
X305595501Y-147216000D02*
X305595501Y-162225000D01*
X305595501Y-166705000D02*
X305595501Y-181714000D01*
X305635501Y-147224000D02*
X305635501Y-162225000D01*
X305635501Y-166705000D02*
X305635501Y-181706000D01*
X305675501Y-147232000D02*
X305675501Y-162225000D01*
X305675501Y-166705000D02*
X305675501Y-181698000D01*
X305715501Y-147240000D02*
X305715501Y-162225000D01*
X305715501Y-166705000D02*
X305715501Y-181690000D01*
X305755501Y-147248000D02*
X305755501Y-162225000D01*
X305755501Y-166705000D02*
X305755501Y-181682000D01*
X305795501Y-147256000D02*
X305795501Y-162225000D01*
X305795501Y-166705000D02*
X305795501Y-181674000D01*
X305835501Y-147265000D02*
X305835501Y-162225000D01*
X305835501Y-166705000D02*
X305835501Y-181665000D01*
X305875501Y-147273000D02*
X305875501Y-162225000D01*
X305875501Y-166705000D02*
X305875501Y-181657000D01*
X305915501Y-147282000D02*
X305915501Y-162225000D01*
X305915501Y-166705000D02*
X305915501Y-181648000D01*
X305955501Y-147290000D02*
X305955501Y-162225000D01*
X305955501Y-166705000D02*
X305955501Y-181640000D01*
X305995501Y-147299000D02*
X305995501Y-162225000D01*
X305995501Y-166705000D02*
X305995501Y-181631000D01*
X306035501Y-147308000D02*
X306035501Y-162225000D01*
X306035501Y-166705000D02*
X306035501Y-181622000D01*
X306075501Y-147317000D02*
X306075501Y-162225000D01*
X306075501Y-166705000D02*
X306075501Y-181613000D01*
X306115501Y-147326000D02*
X306115501Y-162225000D01*
X306115501Y-166705000D02*
X306115501Y-181604000D01*
X306155501Y-147335000D02*
X306155501Y-162225000D01*
X306155501Y-166705000D02*
X306155501Y-181595000D01*
X306195501Y-147345000D02*
X306195501Y-162225000D01*
X306195501Y-166705000D02*
X306195501Y-181585000D01*
X306235501Y-147354000D02*
X306235501Y-162225000D01*
X306235501Y-166705000D02*
X306235501Y-181576000D01*
X306275501Y-147363000D02*
X306275501Y-162225000D01*
X306275501Y-166705000D02*
X306275501Y-181567000D01*
X306315501Y-147373000D02*
X306315501Y-162225000D01*
X306315501Y-166705000D02*
X306315501Y-181557000D01*
X306355501Y-147383000D02*
X306355501Y-162225000D01*
X306355501Y-166705000D02*
X306355501Y-181547000D01*
X306395501Y-147392000D02*
X306395501Y-162225000D01*
X306395501Y-166705000D02*
X306395501Y-181538000D01*
X306435501Y-147402000D02*
X306435501Y-162225000D01*
X306435501Y-166705000D02*
X306435501Y-181528000D01*
X306475501Y-147412000D02*
X306475501Y-162225000D01*
X306475501Y-166705000D02*
X306475501Y-181518000D01*
X306515501Y-147422000D02*
X306515501Y-162225000D01*
X306515501Y-166705000D02*
X306515501Y-181508000D01*
X306555501Y-147432000D02*
X306555501Y-162225000D01*
X306555501Y-166705000D02*
X306555501Y-181498000D01*
X306595501Y-147443000D02*
X306595501Y-162225000D01*
X306595501Y-166705000D02*
X306595501Y-181487000D01*
X306635501Y-147453000D02*
X306635501Y-162225000D01*
X306635501Y-166705000D02*
X306635501Y-181477000D01*
X306675501Y-147464000D02*
X306675501Y-162225000D01*
X306675501Y-166705000D02*
X306675501Y-181466000D01*
X306715501Y-147474000D02*
X306715501Y-162225000D01*
X306715501Y-166705000D02*
X306715501Y-181456000D01*
X306755501Y-147485000D02*
X306755501Y-162225000D01*
X306755501Y-166705000D02*
X306755501Y-181445000D01*
X306795501Y-147496000D02*
X306795501Y-162225000D01*
X306795501Y-166705000D02*
X306795501Y-181434000D01*
X306835501Y-147506000D02*
X306835501Y-162225000D01*
X306835501Y-166705000D02*
X306835501Y-181424000D01*
X306875501Y-147517000D02*
X306875501Y-162225000D01*
X306875501Y-166705000D02*
X306875501Y-181413000D01*
X306915501Y-147528000D02*
X306915501Y-162225000D01*
X306915501Y-166705000D02*
X306915501Y-181402000D01*
X306955501Y-147540000D02*
X306955501Y-162225000D01*
X306955501Y-166705000D02*
X306955501Y-181390000D01*
X306995501Y-147551000D02*
X306995501Y-162225000D01*
X306995501Y-166705000D02*
X306995501Y-181379000D01*
X307035501Y-147562000D02*
X307035501Y-162225000D01*
X307035501Y-166705000D02*
X307035501Y-181368000D01*
X307075501Y-147574000D02*
X307075501Y-162225000D01*
X307075501Y-166705000D02*
X307075501Y-181356000D01*
X307115501Y-147585000D02*
X307115501Y-162225000D01*
X307115501Y-166705000D02*
X307115501Y-181345000D01*
X307155501Y-147597000D02*
X307155501Y-162225000D01*
X307155501Y-166705000D02*
X307155501Y-181333000D01*
X307195501Y-147609000D02*
X307195501Y-162225000D01*
X307195501Y-166705000D02*
X307195501Y-181321000D01*
X307235501Y-147621000D02*
X307235501Y-162225000D01*
X307235501Y-166705000D02*
X307235501Y-181309000D01*
X307275501Y-147633000D02*
X307275501Y-162225000D01*
X307275501Y-166705000D02*
X307275501Y-181297000D01*
X307315501Y-147645000D02*
X307315501Y-162225000D01*
X307315501Y-166705000D02*
X307315501Y-181285000D01*
X307355501Y-147657000D02*
X307355501Y-162225000D01*
X307355501Y-166705000D02*
X307355501Y-181273000D01*
X307395501Y-147669000D02*
X307395501Y-162225000D01*
X307395501Y-166705000D02*
X307395501Y-181261000D01*
X307435501Y-147682000D02*
X307435501Y-162225000D01*
X307435501Y-166705000D02*
X307435501Y-181248000D01*
X307475501Y-147694000D02*
X307475501Y-162225000D01*
X307475501Y-166705000D02*
X307475501Y-181236000D01*
X307515501Y-147707000D02*
X307515501Y-162225000D01*
X307515501Y-166705000D02*
X307515501Y-181223000D01*
X307555501Y-147720000D02*
X307555501Y-162225000D01*
X307555501Y-166705000D02*
X307555501Y-181210000D01*
X307595501Y-147732000D02*
X307595501Y-162225000D01*
X307595501Y-166705000D02*
X307595501Y-181198000D01*
X307635501Y-147745000D02*
X307635501Y-162225000D01*
X307635501Y-166705000D02*
X307635501Y-181185000D01*
X307675501Y-147758000D02*
X307675501Y-162225000D01*
X307675501Y-166705000D02*
X307675501Y-181172000D01*
X307715501Y-147771000D02*
X307715501Y-162225000D01*
X307715501Y-166705000D02*
X307715501Y-181159000D01*
X307755501Y-147785000D02*
X307755501Y-162225000D01*
X307755501Y-166705000D02*
X307755501Y-181145000D01*
X307795501Y-147798000D02*
X307795501Y-162225000D01*
X307795501Y-166705000D02*
X307795501Y-181132000D01*
X307835501Y-147812000D02*
X307835501Y-162225000D01*
X307835501Y-166705000D02*
X307835501Y-181118000D01*
X307875501Y-147825000D02*
X307875501Y-162225000D01*
X307875501Y-166705000D02*
X307875501Y-181105000D01*
X307915501Y-147839000D02*
X307915501Y-162225000D01*
X307915501Y-166705000D02*
X307915501Y-181091000D01*
X307955501Y-147853000D02*
X307955501Y-162225000D01*
X307955501Y-166705000D02*
X307955501Y-181077000D01*
X307995501Y-147866000D02*
X307995501Y-162225000D01*
X307995501Y-166705000D02*
X307995501Y-181064000D01*
X308035501Y-147880000D02*
X308035501Y-162225000D01*
X308035501Y-166705000D02*
X308035501Y-181050000D01*
X308075501Y-147895000D02*
X308075501Y-162225000D01*
X308075501Y-166705000D02*
X308075501Y-181035000D01*
X308115501Y-147909000D02*
X308115501Y-162225000D01*
X308115501Y-166705000D02*
X308115501Y-181021000D01*
X308155501Y-147923000D02*
X308155501Y-162225000D01*
X308155501Y-166705000D02*
X308155501Y-181007000D01*
X308195501Y-147938000D02*
X308195501Y-162225000D01*
X308195501Y-166705000D02*
X308195501Y-180992000D01*
X308235501Y-147952000D02*
X308235501Y-162225000D01*
X308235501Y-166705000D02*
X308235501Y-180978000D01*
X308275501Y-147967000D02*
X308275501Y-162225000D01*
X308275501Y-166705000D02*
X308275501Y-180963000D01*
X308315501Y-147981000D02*
X308315501Y-162225000D01*
X308315501Y-166705000D02*
X308315501Y-180949000D01*
X308355501Y-147996000D02*
X308355501Y-162225000D01*
X308355501Y-166705000D02*
X308355501Y-180934000D01*
X308395501Y-148011000D02*
X308395501Y-162225000D01*
X308395501Y-166705000D02*
X308395501Y-180919000D01*
X308435501Y-148026000D02*
X308435501Y-162225000D01*
X308435501Y-166705000D02*
X308435501Y-180904000D01*
X308475501Y-148042000D02*
X308475501Y-162225000D01*
X308475501Y-166705000D02*
X308475501Y-180888000D01*
X308515501Y-148057000D02*
X308515501Y-162225000D01*
X308515501Y-166705000D02*
X308515501Y-180873000D01*
X308555501Y-148072000D02*
X308555501Y-162225000D01*
X308555501Y-166705000D02*
X308555501Y-180858000D01*
X308595501Y-148088000D02*
X308595501Y-162225000D01*
X308595501Y-166705000D02*
X308595501Y-180842000D01*
X308635501Y-148104000D02*
X308635501Y-162225000D01*
X308635501Y-166705000D02*
X308635501Y-180826000D01*
X308675501Y-148119000D02*
X308675501Y-162225000D01*
X308675501Y-166705000D02*
X308675501Y-180811000D01*
X308715501Y-148135000D02*
X308715501Y-162225000D01*
X308715501Y-166705000D02*
X308715501Y-180795000D01*
X308755501Y-148151000D02*
X308755501Y-162225000D01*
X308755501Y-166705000D02*
X308755501Y-180779000D01*
X308795501Y-148167000D02*
X308795501Y-162225000D01*
X308795501Y-166705000D02*
X308795501Y-180763000D01*
X308835501Y-148184000D02*
X308835501Y-162225000D01*
X308835501Y-166705000D02*
X308835501Y-180746000D01*
X308875501Y-148200000D02*
X308875501Y-162225000D01*
X308875501Y-166705000D02*
X308875501Y-180730000D01*
X308915501Y-148216000D02*
X308915501Y-162225000D01*
X308915501Y-166705000D02*
X308915501Y-180714000D01*
X308955501Y-148233000D02*
X308955501Y-162225000D01*
X308955501Y-166705000D02*
X308955501Y-180697000D01*
X308995501Y-148250000D02*
X308995501Y-162225000D01*
X308995501Y-166705000D02*
X308995501Y-180680000D01*
X309035501Y-148266000D02*
X309035501Y-162225000D01*
X309035501Y-166705000D02*
X309035501Y-180664000D01*
X309075501Y-148283000D02*
X309075501Y-162225000D01*
X309075501Y-166705000D02*
X309075501Y-180647000D01*
X309115501Y-148300000D02*
X309115501Y-162225000D01*
X309115501Y-166705000D02*
X309115501Y-180630000D01*
X309155501Y-148317000D02*
X309155501Y-162225000D01*
X309155501Y-166705000D02*
X309155501Y-180613000D01*
X309195501Y-148335000D02*
X309195501Y-162225000D01*
X309195501Y-166705000D02*
X309195501Y-180595000D01*
X309235501Y-148352000D02*
X309235501Y-162225000D01*
X309235501Y-166705000D02*
X309235501Y-180578000D01*
X309275501Y-148370000D02*
X309275501Y-162225000D01*
X309275501Y-166705000D02*
X309275501Y-180560000D01*
X309315501Y-148387000D02*
X309315501Y-162225000D01*
X309315501Y-166705000D02*
X309315501Y-180543000D01*
X309355501Y-148405000D02*
X309355501Y-162225000D01*
X309355501Y-166705000D02*
X309355501Y-180525000D01*
X309395501Y-148423000D02*
X309395501Y-162225000D01*
X309395501Y-166705000D02*
X309395501Y-180507000D01*
X309435501Y-148441000D02*
X309435501Y-180489000D01*
X309475501Y-148459000D02*
X309475501Y-180471000D01*
X309515501Y-148477000D02*
X309515501Y-180453000D01*
X309555501Y-148495000D02*
X309555501Y-180435000D01*
X309595501Y-148514000D02*
X309595501Y-180416000D01*
X309635501Y-148532000D02*
X309635501Y-180398000D01*
X309675501Y-148551000D02*
X309675501Y-180379000D01*
X309715501Y-148570000D02*
X309715501Y-180360000D01*
X309755501Y-148589000D02*
X309755501Y-180341000D01*
X309795501Y-148608000D02*
X309795501Y-180322000D01*
X309835501Y-148627000D02*
X309835501Y-180303000D01*
X309875501Y-148646000D02*
X309875501Y-180284000D01*
X309915501Y-148666000D02*
X309915501Y-180264000D01*
X309955501Y-148685000D02*
X309955501Y-180245000D01*
X309995501Y-148705000D02*
X309995501Y-180225000D01*
X310035501Y-148725000D02*
X310035501Y-180205000D01*
X310075501Y-148745000D02*
X310075501Y-180185000D01*
X310115501Y-148765000D02*
X310115501Y-180165000D01*
X310155501Y-148785000D02*
X310155501Y-180145000D01*
X310195501Y-148805000D02*
X310195501Y-180125000D01*
X310235501Y-148826000D02*
X310235501Y-180104000D01*
X310275501Y-148846000D02*
X310275501Y-180084000D01*
X310315501Y-148867000D02*
X310315501Y-180063000D01*
X310355501Y-148888000D02*
X310355501Y-180042000D01*
X310394501Y-148909000D02*
X310394501Y-180021000D01*
X310434501Y-148930000D02*
X310434501Y-180000000D01*
X310474501Y-148951000D02*
X310474501Y-179979000D01*
X310514501Y-148973000D02*
X310514501Y-179957000D01*
X310554501Y-148994000D02*
X310554501Y-179936000D01*
X310594501Y-149016000D02*
X310594501Y-179914000D01*
X310634501Y-149037000D02*
X310634501Y-179893000D01*
X310674501Y-149059000D02*
X310674501Y-179871000D01*
X310714501Y-149081000D02*
X310714501Y-179849000D01*
X310754501Y-149104000D02*
X310754501Y-179826000D01*
X310794501Y-149126000D02*
X310794501Y-179804000D01*
X310834501Y-149148000D02*
X310834501Y-179782000D01*
X310874501Y-149171000D02*
X310874501Y-179759000D01*
X310914501Y-149194000D02*
X310914501Y-179736000D01*
X310954501Y-149216000D02*
X310954501Y-179714000D01*
X310994501Y-149239000D02*
X310994501Y-179691000D01*
X311034501Y-149262000D02*
X311034501Y-179668000D01*
X311074501Y-149286000D02*
X311074501Y-179644000D01*
X311114501Y-149309000D02*
X311114501Y-179621000D01*
X311154501Y-149333000D02*
X311154501Y-179597000D01*
X311194501Y-149356000D02*
X311194501Y-179574000D01*
X311234501Y-149380000D02*
X311234501Y-179550000D01*
X311274501Y-149404000D02*
X311274501Y-179526000D01*
X311314501Y-149428000D02*
X311314501Y-179502000D01*
X311354501Y-149453000D02*
X311354501Y-179477000D01*
X311394501Y-149477000D02*
X311394501Y-179453000D01*
X311434501Y-149502000D02*
X311434501Y-179428000D01*
X311474501Y-149526000D02*
X311474501Y-179404000D01*
X311514501Y-149551000D02*
X311514501Y-179379000D01*
X311554501Y-149576000D02*
X311554501Y-179354000D01*
X311594501Y-149601000D02*
X311594501Y-179329000D01*
X311634501Y-149627000D02*
X311634501Y-179303000D01*
X311674501Y-149652000D02*
X311674501Y-179278000D01*
X311714501Y-149678000D02*
X311714501Y-179252000D01*
X311754501Y-149703000D02*
X311754501Y-179227000D01*
X311794501Y-149729000D02*
X311794501Y-179201000D01*
X311834501Y-149755000D02*
X311834501Y-179175000D01*
X311874501Y-149782000D02*
X311874501Y-179148000D01*
X311914501Y-149808000D02*
X311914501Y-179122000D01*
X311954501Y-149835000D02*
X311954501Y-179095000D01*
X311994501Y-149861000D02*
X311994501Y-179069000D01*
X312034501Y-149888000D02*
X312034501Y-179042000D01*
X312074501Y-149915000D02*
X312074501Y-179015000D01*
X312114501Y-149942000D02*
X312114501Y-178988000D01*
X312154501Y-149970000D02*
X312154501Y-178960000D01*
X312194501Y-149997000D02*
X312194501Y-178933000D01*
X312234501Y-150025000D02*
X312234501Y-178905000D01*
X312274501Y-150053000D02*
X312274501Y-178877000D01*
X312314501Y-150081000D02*
X312314501Y-178849000D01*
X312354501Y-150109000D02*
X312354501Y-178821000D01*
X312394501Y-150137000D02*
X312394501Y-178793000D01*
X312434501Y-150166000D02*
X312434501Y-178764000D01*
X312474501Y-150194000D02*
X312474501Y-178736000D01*
X312514501Y-150223000D02*
X312514501Y-178707000D01*
X312554501Y-150252000D02*
X312554501Y-178678000D01*
X312594501Y-150281000D02*
X312594501Y-178649000D01*
X312634501Y-150310000D02*
X312634501Y-178620000D01*
X312674501Y-150340000D02*
X312674501Y-178590000D01*
X312714501Y-150370000D02*
X312714501Y-178560000D01*
X312754501Y-150400000D02*
X312754501Y-178530000D01*
X312794501Y-150430000D02*
X312794501Y-178500000D01*
X312834501Y-150460000D02*
X312834501Y-178470000D01*
X312874501Y-150490000D02*
X312874501Y-178440000D01*
X312914501Y-150521000D02*
X312914501Y-178409000D01*
X312954501Y-150551000D02*
X312954501Y-178379000D01*
X312994501Y-150582000D02*
X312994501Y-178348000D01*
X313034501Y-150614000D02*
X313034501Y-178316000D01*
X313074501Y-150645000D02*
X313074501Y-178285000D01*
X313114501Y-150676000D02*
X313114501Y-178254000D01*
X313154501Y-150708000D02*
X313154501Y-178222000D01*
X313194501Y-150740000D02*
X313194501Y-178190000D01*
X313234501Y-150772000D02*
X313234501Y-178158000D01*
X313274501Y-150804000D02*
X313274501Y-178126000D01*
X313314501Y-150837000D02*
X313314501Y-178093000D01*
X313354501Y-150869000D02*
X313354501Y-178061000D01*
X313394501Y-150902000D02*
X313394501Y-178028000D01*
X313434501Y-150935000D02*
X313434501Y-177995000D01*
X313474501Y-150968000D02*
X313474501Y-177962000D01*
X313514501Y-151002000D02*
X313514501Y-177928000D01*
X313554501Y-151035000D02*
X313554501Y-177895000D01*
X313594501Y-151069000D02*
X313594501Y-177861000D01*
X313634501Y-151103000D02*
X313634501Y-177827000D01*
X313674501Y-151138000D02*
X313674501Y-177792000D01*
X313714501Y-151172000D02*
X313714501Y-177758000D01*
X313754501Y-151207000D02*
X313754501Y-177723000D01*
X313794501Y-151242000D02*
X313794501Y-177688000D01*
X313834501Y-151277000D02*
X313834501Y-177653000D01*
X313874501Y-151312000D02*
X313874501Y-177618000D01*
X313914501Y-151348000D02*
X313914501Y-177582000D01*
X313954501Y-151383000D02*
X313954501Y-177547000D01*
X313994501Y-151419000D02*
X313994501Y-177511000D01*
X314034501Y-151455000D02*
X314034501Y-177475000D01*
X314074501Y-151492000D02*
X314074501Y-177438000D01*
X314114501Y-151528000D02*
X314114501Y-177402000D01*
X314154501Y-151565000D02*
X314154501Y-177365000D01*
X314194501Y-151602000D02*
X314194501Y-177328000D01*
X314234501Y-151640000D02*
X314234501Y-177290000D01*
X314274501Y-151677000D02*
X314274501Y-177253000D01*
X314314501Y-151715000D02*
X314314501Y-177215000D01*
X314354501Y-151753000D02*
X314354501Y-177177000D01*
X314394501Y-151791000D02*
X314394501Y-177139000D01*
X314434501Y-151830000D02*
X314434501Y-177100000D01*
X314474501Y-151869000D02*
X314474501Y-177061000D01*
X314514501Y-151908000D02*
X314514501Y-177022000D01*
X314554501Y-151947000D02*
X314554501Y-176983000D01*
X314594501Y-151986000D02*
X314594501Y-176944000D01*
X314634501Y-152026000D02*
X314634501Y-176904000D01*
X314674501Y-152066000D02*
X314674501Y-176864000D01*
X314714501Y-152106000D02*
X314714501Y-176824000D01*
X314754501Y-152147000D02*
X314754501Y-176783000D01*
X314794501Y-152188000D02*
X314794501Y-176742000D01*
X314834501Y-152229000D02*
X314834501Y-176701000D01*
X314874501Y-152270000D02*
X314874501Y-176660000D01*
X314914501Y-152312000D02*
X314914501Y-176618000D01*
X314954501Y-152354000D02*
X314954501Y-176576000D01*
X314994501Y-152396000D02*
X314994501Y-176534000D01*
X315034501Y-152438000D02*
X315034501Y-176492000D01*
X315074501Y-152481000D02*
X315074501Y-176449000D01*
X315114501Y-152524000D02*
X315114501Y-176406000D01*
X315154501Y-152567000D02*
X315154501Y-176363000D01*
X315194501Y-152611000D02*
X315194501Y-176319000D01*
X315234501Y-152654000D02*
X315234501Y-176276000D01*
X315274501Y-152699000D02*
X315274501Y-176231000D01*
X315314501Y-152743000D02*
X315314501Y-176187000D01*
X315354501Y-152788000D02*
X315354501Y-176142000D01*
X315394501Y-152833000D02*
X315394501Y-176097000D01*
X315434501Y-152878000D02*
X315434501Y-176052000D01*
X315474501Y-152924000D02*
X315474501Y-176006000D01*
X315514501Y-152970000D02*
X315514501Y-175960000D01*
X315554501Y-153016000D02*
X315554501Y-175914000D01*
X315594501Y-153063000D02*
X315594501Y-175867000D01*
X315634501Y-153110000D02*
X315634501Y-175820000D01*
X315674501Y-153158000D02*
X315674501Y-175772000D01*
X315714501Y-153205000D02*
X315714501Y-175725000D01*
X315754501Y-153253000D02*
X315754501Y-175677000D01*
X315794501Y-153302000D02*
X315794501Y-175628000D01*
X315834501Y-153350000D02*
X315834501Y-175580000D01*
X315874501Y-153399000D02*
X315874501Y-175531000D01*
X315914501Y-153449000D02*
X315914501Y-175481000D01*
X315954501Y-153499000D02*
X315954501Y-175431000D01*
X315994501Y-153549000D02*
X315994501Y-175381000D01*
X316034501Y-153600000D02*
X316034501Y-175330000D01*
X316074501Y-153650000D02*
X316074501Y-175280000D01*
X316114501Y-153702000D02*
X316114501Y-175228000D01*
X316154501Y-153754000D02*
X316154501Y-175176000D01*
X316194501Y-153806000D02*
X316194501Y-175124000D01*
X316234501Y-153858000D02*
X316234501Y-175072000D01*
X316274501Y-153911000D02*
X316274501Y-175019000D01*
X316314501Y-153965000D02*
X316314501Y-174965000D01*
X316354501Y-154018000D02*
X316354501Y-174912000D01*
X316394501Y-154073000D02*
X316394501Y-174857000D01*
X316434501Y-154127000D02*
X316434501Y-174803000D01*
X316474501Y-154182000D02*
X316474501Y-174748000D01*
X316514501Y-154238000D02*
X316514501Y-174692000D01*
X316554501Y-154294000D02*
X316554501Y-174636000D01*
X316594501Y-154350000D02*
X316594501Y-174580000D01*
X316634501Y-154407000D02*
X316634501Y-174523000D01*
X316674501Y-154465000D02*
X316674501Y-174465000D01*
X316714501Y-154523000D02*
X316714501Y-174407000D01*
X316754501Y-154581000D02*
X316754501Y-174349000D01*
X316794501Y-154640000D02*
X316794501Y-174290000D01*
X316834501Y-154700000D02*
X316834501Y-174230000D01*
X316874501Y-154760000D02*
X316874501Y-174170000D01*
X316914501Y-154820000D02*
X316914501Y-174110000D01*
X316954501Y-154881000D02*
X316954501Y-174049000D01*
X316994501Y-154943000D02*
X316994501Y-173987000D01*
X317034501Y-155005000D02*
X317034501Y-173925000D01*
X317074501Y-155068000D02*
X317074501Y-173862000D01*
X317114501Y-155131000D02*
X317114501Y-173799000D01*
X317154501Y-155195000D02*
X317154501Y-173735000D01*
X317194501Y-155260000D02*
X317194501Y-173670000D01*
X317234501Y-155325000D02*
X317234501Y-173605000D01*
X317274501Y-155391000D02*
X317274501Y-173539000D01*
X317314501Y-155457000D02*
X317314501Y-173473000D01*
X317354501Y-155525000D02*
X317354501Y-173405000D01*
X317394501Y-155592000D02*
X317394501Y-173338000D01*
X317434501Y-155661000D02*
X317434501Y-173269000D01*
X317474501Y-155730000D02*
X317474501Y-173200000D01*
X317514501Y-155800000D02*
X317514501Y-173130000D01*
X317554501Y-155871000D02*
X317554501Y-173059000D01*
X317594501Y-155943000D02*
X317594501Y-172987000D01*
X317634501Y-156015000D02*
X317634501Y-172915000D01*
X317674501Y-156088000D02*
X317674501Y-172842000D01*
X317714501Y-156162000D02*
X317714501Y-172768000D01*
X317754501Y-156237000D02*
X317754501Y-172693000D01*
X317794501Y-156313000D02*
X317794501Y-172617000D01*
X317834501Y-156389000D02*
X317834501Y-172541000D01*
X317874501Y-156467000D02*
X317874501Y-172463000D01*
X317914501Y-156545000D02*
X317914501Y-172385000D01*
X317954501Y-156625000D02*
X317954501Y-172305000D01*
X317994501Y-156706000D02*
X317994501Y-172224000D01*
X318034501Y-156787000D02*
X318034501Y-172143000D01*
X318074501Y-156870000D02*
X318074501Y-172060000D01*
X318114501Y-156953000D02*
X318114501Y-171977000D01*
X318154501Y-157038000D02*
X318154501Y-171892000D01*
X318194501Y-157124000D02*
X318194501Y-171806000D01*
X318234501Y-157212000D02*
X318234501Y-171718000D01*
X318274501Y-157300000D02*
X318274501Y-171630000D01*
X318314501Y-157390000D02*
X318314501Y-171540000D01*
X318354501Y-157482000D02*
X318354501Y-171448000D01*
X318394501Y-157575000D02*
X318394501Y-171355000D01*
X318434501Y-157669000D02*
X318434501Y-171261000D01*
X318474501Y-157765000D02*
X318474501Y-171165000D01*
X318514501Y-157862000D02*
X318514501Y-171068000D01*
X318554501Y-157961000D02*
X318554501Y-170969000D01*
X318594501Y-158062000D02*
X318594501Y-170868000D01*
X318634501Y-158165000D02*
X318634501Y-170765000D01*
X318674501Y-158270000D02*
X318674501Y-170660000D01*
X318714501Y-158376000D02*
X318714501Y-170554000D01*
X318754501Y-158485000D02*
X318754501Y-170445000D01*
X318794501Y-158597000D02*
X318794501Y-170333000D01*
X318834501Y-158710000D02*
X318834501Y-170220000D01*
X318874501Y-158826000D02*
X318874501Y-170104000D01*
X318914501Y-158945000D02*
X318914501Y-169985000D01*
X318954501Y-159067000D02*
X318954501Y-169863000D01*
X318994501Y-159192000D02*
X318994501Y-169738000D01*
X319034501Y-159320000D02*
X319034501Y-169610000D01*
X319074501Y-159452000D02*
X319074501Y-169478000D01*
X319114501Y-159587000D02*
X319114501Y-169343000D01*
X319154501Y-159727000D02*
X319154501Y-169203000D01*
X319194501Y-159872000D02*
X319194501Y-169058000D01*
X319234501Y-160021000D02*
X319234501Y-168909000D01*
X319274501Y-160176000D02*
X319274501Y-168754000D01*
X319314501Y-160337000D02*
X319314501Y-168593000D01*
X319354501Y-160505000D02*
X319354501Y-168425000D01*
X319394501Y-160680000D02*
X319394501Y-168250000D01*
X319434501Y-160865000D02*
X319434501Y-168065000D01*
X319474501Y-161060000D02*
X319474501Y-167870000D01*
X319514501Y-161267000D02*
X319514501Y-167663000D01*
X319554501Y-161489000D02*
X319554501Y-167441000D01*
X319594501Y-161729000D02*
X319594501Y-167201000D01*
X319634501Y-161992000D02*
X319634501Y-166938000D01*
X319674501Y-162288000D02*
X319674501Y-166642000D01*
X319714501Y-162630000D02*
X319714501Y-166300000D01*
X319754501Y-163052000D02*
X319754501Y-165878000D01*
X319794501Y-163665000D02*
X319794501Y-165265000D01*
X319814501Y-164465000D02*
G75*
G02*
X284574501Y-164465000I-17620000J0D01*
G01*
X284574501Y-164465000D02*
G75*
G02*
X319814501Y-164465000I17620000J0D01*
G01*
D11*
%TO.C,U3*%
X236220000Y-142875000D02*
X236220000Y-157162500D01*
X236220000Y-157162500D02*
X246380000Y-157162500D01*
X246380000Y-128905000D02*
X246380000Y-142875000D01*
X246380000Y-142875000D02*
X236220000Y-142875000D01*
X246380000Y-157162500D02*
X246380000Y-227330000D01*
X254000000Y-130810000D02*
X254000000Y-140970000D01*
X254000000Y-140970000D02*
X259080000Y-140970000D01*
X254000000Y-202247500D02*
X254000000Y-214947500D01*
X254000000Y-214947500D02*
X259080000Y-214947500D01*
X259080000Y-128905000D02*
X259080000Y-227330000D01*
X259080000Y-130810000D02*
X254000000Y-130810000D01*
X259080000Y-202247500D02*
X254000000Y-202247500D01*
X262890000Y-128905000D02*
X246380000Y-128905000D01*
X262890000Y-128905000D02*
X262890000Y-227330000D01*
X262890000Y-227330000D02*
X246380000Y-227330000D01*
D13*
%TO.C,J1*%
X270450000Y-185360000D02*
X270450000Y-226120000D01*
X270450000Y-185360000D02*
X273050000Y-185360000D01*
X270450000Y-226120000D02*
X275650000Y-226120000D01*
X274320000Y-185360000D02*
X275650000Y-185360000D01*
X275650000Y-185360000D02*
X275650000Y-186690000D01*
X275650000Y-187960000D02*
X275650000Y-226120000D01*
%TO.C,D3*%
X300155000Y-48397500D02*
X300155000Y-53837500D01*
X300155000Y-53837500D02*
X303095000Y-53837500D01*
X301625000Y-47377500D02*
X301625000Y-48397500D01*
X301625000Y-54857500D02*
X301625000Y-53837500D01*
X303095000Y-48397500D02*
X300155000Y-48397500D01*
X303095000Y-49177500D02*
X300155000Y-49177500D01*
X303095000Y-49297500D02*
X300155000Y-49297500D01*
X303095000Y-49417500D02*
X300155000Y-49417500D01*
X303095000Y-53837500D02*
X303095000Y-48397500D01*
%TO.C,C3*%
X277530000Y-161697500D02*
X281270000Y-161697500D01*
X277530000Y-169137500D02*
X277530000Y-161697500D01*
X277530000Y-169137500D02*
X281270000Y-169137500D01*
X281270000Y-169137500D02*
X281270000Y-161697500D01*
%TO.C,L3*%
X281910000Y-94615000D02*
X283420000Y-94615000D01*
X283420000Y-92495000D02*
X283420000Y-96735000D01*
X283420000Y-96735000D02*
X293160000Y-96735000D01*
X293160000Y-92495000D02*
X283420000Y-92495000D01*
X293160000Y-96735000D02*
X293160000Y-92495000D01*
X294670000Y-94615000D02*
X293160000Y-94615000D01*
D10*
%TO.C,XF2*%
X170024826Y-150013743D02*
G75*
G02*
X170024826Y-116686257I11902674J16663743D01*
G01*
X184467500Y-113030001D02*
G75*
G02*
X199707499Y-123190000I-2540000J-20320000D01*
G01*
X199707499Y-143510000D02*
G75*
G02*
X184467500Y-153669999I-17779999J10160000D01*
G01*
X193675000Y-133350000D02*
G75*
G02*
X170180000Y-133350000I-11747500J0D01*
G01*
X170180000Y-133350000D02*
G75*
G02*
X193675000Y-133350000I11747500J0D01*
G01*
D13*
%TO.C,L6*%
X281915000Y-51117500D02*
X283425000Y-51117500D01*
X283425000Y-48997500D02*
X283425000Y-53237500D01*
X283425000Y-53237500D02*
X293165000Y-53237500D01*
X293165000Y-48997500D02*
X283425000Y-48997500D01*
X293165000Y-53237500D02*
X293165000Y-48997500D01*
X294675000Y-51117500D02*
X293165000Y-51117500D01*
D11*
%TO.C,L10*%
X145097501Y-113347500D02*
G75*
G02*
X145097501Y-117157500I7937499J-1905000D01*
G01*
X156527499Y-117157500D02*
G75*
G02*
X156527499Y-113347500I-3492499J1905000D01*
G01*
D13*
%TO.C,K1*%
X233025000Y-127395000D02*
X233025000Y-101515000D01*
X235635000Y-113177000D02*
X235635000Y-108351000D01*
X237099000Y-112415000D02*
X237099000Y-113939000D01*
X237099000Y-112415000D02*
X238115000Y-113177000D01*
X237099000Y-113177000D02*
X235635000Y-113177000D01*
X238115000Y-113177000D02*
X237099000Y-113939000D01*
X239385000Y-117495000D02*
X238165800Y-112923000D01*
X239385000Y-117495000D02*
X239385000Y-123855000D01*
X239385000Y-123855000D02*
X243449000Y-123855000D01*
X240655000Y-113177000D02*
X241671000Y-113939000D01*
X241671000Y-112415000D02*
X240655000Y-113177000D01*
X241671000Y-113939000D02*
X241671000Y-112415000D01*
X243235000Y-108351000D02*
X243235000Y-113177000D01*
X243235000Y-113177000D02*
X241671000Y-113177000D01*
X244975000Y-100645000D02*
X233895000Y-100645000D01*
X245845000Y-105295000D02*
X245845000Y-101515000D01*
X249975000Y-128265000D02*
X233895000Y-128265000D01*
X250845000Y-127395000D02*
X250845000Y-126415000D01*
X255640998Y-109849603D02*
X255640998Y-113177003D01*
X255641000Y-109849600D02*
X256911000Y-109849600D01*
X255641000Y-116733000D02*
X255641000Y-120060400D01*
X256911000Y-120060400D02*
X255641000Y-120060400D01*
X260975000Y-123855000D02*
X248021000Y-123855000D01*
X260975000Y-123855000D02*
X260975000Y-117241000D01*
X264175000Y-105945000D02*
X246495000Y-105945000D01*
X264175000Y-125765000D02*
X251495000Y-125765000D01*
X265045000Y-124895000D02*
X265045000Y-106815000D01*
X233025000Y-101515000D02*
G75*
G02*
X233895000Y-100645000I870000J0D01*
G01*
X233895000Y-128265000D02*
G75*
G02*
X233025000Y-127395000I0J870000D01*
G01*
X244975000Y-100645000D02*
G75*
G02*
X245845000Y-101515000I0J-870000D01*
G01*
X246495000Y-105945000D02*
G75*
G02*
X245845000Y-105295000I0J650000D01*
G01*
X250845000Y-126415000D02*
G75*
G02*
X251495000Y-125765000I650000J0D01*
G01*
X250845000Y-127395000D02*
G75*
G02*
X249975000Y-128265000I-870000J0D01*
G01*
X255132734Y-114193356D02*
G75*
G02*
X255133001Y-114955000I508266J-380644D01*
G01*
X255132735Y-114955355D02*
G75*
G02*
X255133001Y-115717000I508265J-380645D01*
G01*
X255133200Y-115716733D02*
G75*
G02*
X255641000Y-116733000I507800J-381267D01*
G01*
X255640998Y-113177003D02*
G75*
G02*
X255133203Y-114193266I2J-634997D01*
G01*
X264175000Y-105945000D02*
G75*
G02*
X265045000Y-106815000I0J-870000D01*
G01*
X265045000Y-124895000D02*
G75*
G02*
X264175000Y-125765000I-870000J0D01*
G01*
X239512000Y-117495000D02*
G75*
G02*
X239258000Y-117495000I-127000J0D01*
G01*
X239258000Y-117495000D02*
G75*
G02*
X239512000Y-117495000I127000J0D01*
G01*
%TO.C,C4*%
X277530000Y-151537500D02*
X277530000Y-158977500D01*
X281270000Y-151537500D02*
X277530000Y-151537500D01*
X281270000Y-151537500D02*
X281270000Y-158977500D01*
X281270000Y-158977500D02*
X277530000Y-158977500D01*
%TO.C,L7*%
X281407500Y-180555000D02*
X281407500Y-190295000D01*
X281407500Y-190295000D02*
X285647500Y-190295000D01*
X283527500Y-180315000D02*
X283527500Y-180555000D01*
X283527500Y-190535000D02*
X283527500Y-190295000D01*
X285647500Y-180555000D02*
X281407500Y-180555000D01*
X285647500Y-190295000D02*
X285647500Y-180555000D01*
%TO.C,L2*%
X281910000Y-127317500D02*
X283420000Y-127317500D01*
X283420000Y-125197500D02*
X283420000Y-129437500D01*
X283420000Y-129437500D02*
X293160000Y-129437500D01*
X293160000Y-125197500D02*
X283420000Y-125197500D01*
X293160000Y-129437500D02*
X293160000Y-125197500D01*
X294670000Y-127317500D02*
X293160000Y-127317500D01*
%TO.C,C5*%
X226780000Y-88977500D02*
X226780000Y-102217500D01*
X233020000Y-88977500D02*
X226780000Y-88977500D01*
X233020000Y-88977500D02*
X233020000Y-102217500D01*
X233020000Y-102217500D02*
X226780000Y-102217500D01*
D10*
%TO.C,XF1*%
X170024826Y-83338743D02*
G75*
G02*
X170024826Y-50011257I11902674J16663743D01*
G01*
X184467500Y-46355001D02*
G75*
G02*
X199707499Y-56515000I-2540000J-20320000D01*
G01*
X199707499Y-76835000D02*
G75*
G02*
X184467500Y-86994999I-17779999J10160000D01*
G01*
X193675000Y-66675000D02*
G75*
G02*
X170180000Y-66675000I-11747500J0D01*
G01*
X170180000Y-66675000D02*
G75*
G02*
X193675000Y-66675000I11747500J0D01*
G01*
D13*
%TO.C,D4*%
X282210000Y-76517500D02*
X283670000Y-76517500D01*
X283670000Y-73747500D02*
X283670000Y-79287500D01*
X283670000Y-79287500D02*
X292910000Y-79287500D01*
X291320000Y-79287500D02*
X291320000Y-73747500D01*
X291440000Y-79287500D02*
X291440000Y-73747500D01*
X291560000Y-79287500D02*
X291560000Y-73747500D01*
X292910000Y-73747500D02*
X283670000Y-73747500D01*
X292910000Y-79287500D02*
X292910000Y-73747500D01*
X294370000Y-76517500D02*
X292910000Y-76517500D01*
%TO.C,C7*%
X134492500Y-57555000D02*
X134492500Y-75795000D01*
X141732500Y-57555000D02*
X134492500Y-57555000D01*
X141732500Y-57555000D02*
X141732500Y-75795000D01*
X141732500Y-75795000D02*
X134492500Y-75795000D01*
%TO.C,CN4*%
X121515000Y-123720000D02*
X122515000Y-123720000D01*
X121515000Y-142980000D02*
X121515000Y-123720000D01*
X122515000Y-123720000D02*
X122515000Y-142980000D01*
X122515000Y-123720000D02*
X132485000Y-123720000D01*
X128775000Y-123430000D02*
X124775000Y-123430000D01*
X132085000Y-126000000D02*
X132085000Y-128700000D01*
X132085000Y-128700000D02*
X132485000Y-128700000D01*
X132485000Y-123720000D02*
X132485000Y-126000000D01*
X132485000Y-126000000D02*
X132085000Y-126000000D01*
X132485000Y-128700000D02*
X132485000Y-142980000D01*
X132485000Y-142980000D02*
X121515000Y-142980000D01*
%TO.C,Q2*%
X305155000Y-81147500D02*
X305155000Y-97287500D01*
X310426000Y-81147500D02*
X305155000Y-81147500D01*
X310426000Y-81147500D02*
X310426000Y-97287500D01*
X310426000Y-87413500D02*
X305155000Y-87413500D01*
X310426000Y-91022500D02*
X305155000Y-91022500D01*
X310426000Y-97287500D02*
X305155000Y-97287500D01*
%TO.C,CR1*%
X233590000Y-45997500D02*
X238231000Y-45997500D01*
X233590000Y-49266500D02*
X235100000Y-49266500D01*
X233590000Y-52967500D02*
X235100000Y-52967500D01*
X233590000Y-56237500D02*
X233590000Y-45997500D01*
X233590000Y-56237500D02*
X238231000Y-56237500D01*
X235100000Y-56237500D02*
X235100000Y-45997500D01*
X238231000Y-56237500D02*
X238231000Y-45997500D01*
%TO.C,R5*%
X290047500Y-185420000D02*
X290897500Y-185420000D01*
X290897500Y-182800000D02*
X290897500Y-188040000D01*
X290897500Y-188040000D02*
X306637500Y-188040000D01*
X306637500Y-182800000D02*
X290897500Y-182800000D01*
X306637500Y-188040000D02*
X306637500Y-182800000D01*
X307487500Y-185420000D02*
X306637500Y-185420000D01*
%TO.C,CN5*%
X121515000Y-188005000D02*
X122515000Y-188005000D01*
X121515000Y-199345000D02*
X121515000Y-188005000D01*
X122515000Y-188005000D02*
X122515000Y-199345000D01*
X122515000Y-188005000D02*
X132485000Y-188005000D01*
X128775000Y-187715000D02*
X124775000Y-187715000D01*
X132085000Y-190285000D02*
X132085000Y-192985000D01*
X132085000Y-192985000D02*
X132485000Y-192985000D01*
X132485000Y-188005000D02*
X132485000Y-190285000D01*
X132485000Y-190285000D02*
X132085000Y-190285000D01*
X132485000Y-192985000D02*
X132485000Y-199345000D01*
X132485000Y-199345000D02*
X121515000Y-199345000D01*
%TO.C,K2*%
X233025000Y-98502500D02*
X233025000Y-72622500D01*
X235635000Y-84284500D02*
X235635000Y-79458500D01*
X237099000Y-83522500D02*
X237099000Y-85046500D01*
X237099000Y-83522500D02*
X238115000Y-84284500D01*
X237099000Y-84284500D02*
X235635000Y-84284500D01*
X238115000Y-84284500D02*
X237099000Y-85046500D01*
X239385000Y-88602500D02*
X238165800Y-84030500D01*
X239385000Y-88602500D02*
X239385000Y-94962500D01*
X239385000Y-94962500D02*
X243449000Y-94962500D01*
X240655000Y-84284500D02*
X241671000Y-85046500D01*
X241671000Y-83522500D02*
X240655000Y-84284500D01*
X241671000Y-85046500D02*
X241671000Y-83522500D01*
X243235000Y-79458500D02*
X243235000Y-84284500D01*
X243235000Y-84284500D02*
X241671000Y-84284500D01*
X244975000Y-71752500D02*
X233895000Y-71752500D01*
X245845000Y-76402500D02*
X245845000Y-72622500D01*
X249975000Y-99372500D02*
X233895000Y-99372500D01*
X250845000Y-98502500D02*
X250845000Y-97522500D01*
X255640998Y-80957103D02*
X255640998Y-84284503D01*
X255641000Y-80957100D02*
X256911000Y-80957100D01*
X255641000Y-87840500D02*
X255641000Y-91167900D01*
X256911000Y-91167900D02*
X255641000Y-91167900D01*
X260975000Y-94962500D02*
X248021000Y-94962500D01*
X260975000Y-94962500D02*
X260975000Y-88348500D01*
X264175000Y-77052500D02*
X246495000Y-77052500D01*
X264175000Y-96872500D02*
X251495000Y-96872500D01*
X265045000Y-96002500D02*
X265045000Y-77922500D01*
X233025000Y-72622500D02*
G75*
G02*
X233895000Y-71752500I870000J0D01*
G01*
X233895000Y-99372500D02*
G75*
G02*
X233025000Y-98502500I0J870000D01*
G01*
X244975000Y-71752500D02*
G75*
G02*
X245845000Y-72622500I0J-870000D01*
G01*
X246495000Y-77052500D02*
G75*
G02*
X245845000Y-76402500I0J650000D01*
G01*
X250845000Y-97522500D02*
G75*
G02*
X251495000Y-96872500I650000J0D01*
G01*
X250845000Y-98502500D02*
G75*
G02*
X249975000Y-99372500I-870000J0D01*
G01*
X255132734Y-85300856D02*
G75*
G02*
X255133001Y-86062500I508266J-380644D01*
G01*
X255132735Y-86062855D02*
G75*
G02*
X255133001Y-86824500I508265J-380645D01*
G01*
X255133200Y-86824233D02*
G75*
G02*
X255641000Y-87840500I507800J-381267D01*
G01*
X255640998Y-84284503D02*
G75*
G02*
X255133203Y-85300766I2J-634997D01*
G01*
X264175000Y-77052500D02*
G75*
G02*
X265045000Y-77922500I0J-870000D01*
G01*
X265045000Y-96002500D02*
G75*
G02*
X264175000Y-96872500I-870000J0D01*
G01*
X239512000Y-88602500D02*
G75*
G02*
X239258000Y-88602500I-127000J0D01*
G01*
X239258000Y-88602500D02*
G75*
G02*
X239512000Y-88602500I127000J0D01*
G01*
%TD*%
M02*
