M48
; DRILL file {KiCad 8.0.4} date 2026-01-06T14:46:45+0700
; FORMAT={-:-/ absolute / metric / decimal}
; #@! TF.CreationDate,2026-01-06T14:46:45+07:00
; #@! TF.GenerationSoftware,Kicad,Pcbnew,8.0.4
; #@! TF.FileFunction,Plated,1,2,PTH
FMAT,2
METRIC
; #@! TA.AperFunction,Plated,PTH,ViaDrill
T1C0.635
; #@! TA.AperFunction,Plated,PTH,ComponentDrill
T2C0.700
; #@! TA.AperFunction,Plated,PTH,ViaDrill
T3C0.800
; #@! TA.AperFunction,Plated,PTH,ComponentDrill
T4C0.800
; #@! TA.AperFunction,Plated,PTH,ViaDrill
T5C1.000
; #@! TA.AperFunction,Plated,PTH,ComponentDrill
T6C1.000
; #@! TA.AperFunction,Plated,PTH,ComponentDrill
T7C1.100
; #@! TA.AperFunction,Plated,PTH,ComponentDrill
T8C1.200
; #@! TA.AperFunction,Plated,PTH,ComponentDrill
T9C1.300
; #@! TA.AperFunction,Plated,PTH,ComponentDrill
T10C1.500
; #@! TA.AperFunction,Plated,PTH,ComponentDrill
T11C1.600
; #@! TA.AperFunction,Plated,PTH,ComponentDrill
T12C1.800
; #@! TA.AperFunction,Plated,PTH,ComponentDrill
T13C2.000
; #@! TA.AperFunction,Plated,PTH,ComponentDrill
T14C3.000
; #@! TA.AperFunction,Plated,PTH,ComponentDrill
T15C3.200
%
G90
G05
T1
X268.923Y-127.953
T2
X288.295Y-209.56
X288.295Y-217.18
T3
X285.75Y-147.955
T4
X279.4Y-138.47
X279.4Y-143.47
X279.4Y-152.757
X279.4Y-157.757
X279.4Y-162.917
X279.4Y-167.917
X283.21Y-137.16
X283.21Y-144.78
X283.21Y-209.55
X283.21Y-217.17
X285.75Y-137.16
X285.75Y-144.78
X285.75Y-209.55
X285.75Y-217.17
X288.29Y-137.16
X288.29Y-144.78
X290.83Y-137.16
X290.83Y-144.78
T5
X252.412Y-127.953
T6
X223.52Y-90.597
X223.52Y-100.597
X224.79Y-132.08
X224.79Y-134.62
X224.79Y-137.16
X224.79Y-139.7
X224.79Y-203.517
X224.79Y-208.597
X224.79Y-213.677
X227.33Y-132.08
X227.33Y-134.62
X227.33Y-137.16
X227.33Y-139.7
X227.33Y-203.517
X227.33Y-208.597
X227.33Y-213.677
X229.9Y-90.597
X229.9Y-100.597
X255.27Y-132.08
X255.27Y-134.62
X255.27Y-137.16
X255.27Y-139.7
X255.27Y-203.517
X255.27Y-208.597
X255.27Y-213.677
X257.81Y-132.08
X257.81Y-134.62
X257.81Y-137.16
X257.81Y-139.7
X257.81Y-203.517
X257.81Y-208.597
X257.81Y-213.677
X267.335Y-80.992
X267.335Y-88.612
X267.335Y-109.855
X267.335Y-117.475
X271.78Y-186.69
X271.78Y-189.23
X271.78Y-191.77
X271.78Y-194.31
X271.78Y-196.85
X271.78Y-199.39
X271.78Y-201.93
X271.78Y-204.47
X271.78Y-207.01
X271.78Y-209.55
X271.78Y-212.09
X271.78Y-214.63
X271.78Y-217.17
X271.78Y-219.71
X271.78Y-222.25
X271.78Y-224.79
X274.32Y-186.69
X274.32Y-189.23
X274.32Y-191.77
X274.32Y-194.31
X274.32Y-196.85
X274.32Y-199.39
X274.32Y-201.93
X274.32Y-204.47
X274.32Y-207.01
X274.32Y-209.55
X274.32Y-212.09
X274.32Y-214.63
X274.32Y-217.17
X274.32Y-219.71
X274.32Y-222.25
X274.32Y-224.79
X280.67Y-89.218
X280.67Y-94.615
X280.67Y-127.317
X280.67Y-132.715
X280.675Y-51.117
X280.675Y-56.515
X283.527Y-179.075
X283.527Y-191.775
X295.91Y-89.218
X295.91Y-94.615
X295.91Y-127.317
X295.91Y-132.715
X295.915Y-51.117
X295.915Y-56.515
T7
X236.86Y-48.578
X236.86Y-51.117
X236.86Y-53.657
X253.37Y-48.578
X253.37Y-51.117
X253.37Y-53.657
X301.625Y-45.72
X301.625Y-56.515
X301.625Y-83.82
X301.625Y-94.615
X301.625Y-121.92
X301.625Y-132.715
T8
X138.112Y-40.005
X138.112Y-55.245
X138.112Y-59.055
X138.112Y-74.295
X138.112Y-78.105
X138.112Y-93.345
X138.112Y-106.68
X138.112Y-121.92
X138.112Y-125.73
X138.112Y-140.97
X138.112Y-144.78
X138.112Y-160.02
X280.665Y-83.82
X280.67Y-45.72
X280.67Y-121.92
X288.607Y-185.42
X295.905Y-83.82
X295.91Y-45.72
X295.91Y-121.92
X308.928Y-185.42
T9
X144.78Y-48.578
X144.78Y-84.772
X144.78Y-115.252
X144.78Y-151.447
X157.48Y-48.578
X157.48Y-84.772
X157.48Y-115.252
X157.48Y-151.447
X280.67Y-63.817
X280.67Y-70.167
X280.67Y-76.517
X288.607Y-191.77
X295.91Y-63.817
X295.91Y-70.167
X295.91Y-76.517
X303.847Y-191.77
T10
X171.45Y-48.578
X171.45Y-84.772
X171.45Y-115.252
X171.45Y-151.447
X181.927Y-45.72
X181.927Y-87.63
X181.927Y-112.395
X181.927Y-154.305
X307.975Y-45.667
X307.975Y-51.117
X307.975Y-56.567
X307.975Y-83.767
X307.975Y-89.218
X307.975Y-94.667
X307.975Y-121.867
X307.975Y-127.317
X307.975Y-132.767
T11
X258.435Y-80.962
X258.435Y-91.162
X258.435Y-109.855
X258.435Y-120.055
X260.975Y-86.062
X260.975Y-114.955
T12
X126.775Y-62.715
X126.775Y-70.635
X126.775Y-125.43
X126.775Y-133.35
X126.775Y-141.27
X126.775Y-189.715
X126.775Y-197.635
X303.847Y-197.168
X303.847Y-201.128
X303.847Y-205.088
X303.847Y-209.048
X303.847Y-214.313
X303.847Y-218.273
X303.847Y-222.233
X303.847Y-226.193
T13
X235.635Y-77.162
X235.635Y-106.055
X243.235Y-77.162
X243.235Y-106.055
X245.775Y-94.962
X245.775Y-123.855
X297.195Y-164.465
X307.195Y-164.465
T14
X126.365Y-35.242
X126.365Y-222.567
X200.977Y-59.055
X200.977Y-74.295
X200.977Y-125.73
X200.977Y-140.97
T15
X3.025Y-3.025
X206.375Y-35.242
X206.375Y-222.567
X295.91Y-114.617
X314.325Y-35.242
X314.325Y-222.567
M30
