M48
; DRILL file {KiCad 8.0.4} date 2025-05-06T11:19:00+0700
; FORMAT={-:-/ absolute / metric / decimal}
; #@! TF.CreationDate,2025-05-06T11:19:00+07:00
; #@! TF.GenerationSoftware,Kicad,Pcbnew,8.0.4
; #@! TF.FileFunction,Plated,1,2,PTH
FMAT,2
METRIC
; #@! TA.AperFunction,Plated,PTH,ComponentDrill
T1C0.700
; #@! TA.AperFunction,Plated,PTH,ComponentDrill
T2C0.800
; #@! TA.AperFunction,Plated,PTH,ComponentDrill
T3C1.000
; #@! TA.AperFunction,Plated,PTH,ComponentDrill
T4C1.100
; #@! TA.AperFunction,Plated,PTH,ComponentDrill
T5C1.200
; #@! TA.AperFunction,Plated,PTH,ComponentDrill
T6C1.300
; #@! TA.AperFunction,Plated,PTH,ComponentDrill
T7C1.500
; #@! TA.AperFunction,Plated,PTH,ComponentDrill
T8C1.600
; #@! TA.AperFunction,Plated,PTH,ComponentDrill
T9C1.800
; #@! TA.AperFunction,Plated,PTH,ComponentDrill
T10C2.000
; #@! TA.AperFunction,Plated,PTH,ComponentDrill
T11C3.200
%
G90
G05
T1
X208.602Y-209.56
X208.602Y-217.18
T2
X199.707Y-138.47
X199.707Y-143.47
X199.707Y-152.757
X199.707Y-157.757
X199.707Y-162.917
X199.707Y-167.917
X203.517Y-137.16
X203.517Y-144.78
X203.517Y-209.55
X203.517Y-217.17
X206.058Y-137.16
X206.058Y-144.78
X206.058Y-209.55
X206.058Y-217.17
X208.597Y-137.16
X208.597Y-144.78
X211.137Y-137.16
X211.137Y-144.78
T3
X143.827Y-90.597
X143.827Y-100.597
X147.637Y-132.08
X147.637Y-134.62
X147.637Y-137.16
X147.637Y-139.7
X147.637Y-203.517
X147.637Y-208.597
X147.637Y-213.677
X150.177Y-132.08
X150.177Y-134.62
X150.177Y-137.16
X150.177Y-139.7
X150.177Y-203.517
X150.177Y-208.597
X150.177Y-213.677
X150.207Y-90.597
X150.207Y-100.597
X179.387Y-132.08
X179.387Y-134.62
X179.387Y-137.16
X179.387Y-139.7
X179.387Y-203.517
X179.387Y-208.597
X179.387Y-213.677
X181.927Y-132.08
X181.927Y-134.62
X181.927Y-137.16
X181.927Y-139.7
X181.927Y-203.517
X181.927Y-208.597
X181.927Y-213.677
X188.308Y-80.992
X188.308Y-88.612
X188.308Y-109.885
X188.308Y-117.505
X195.897Y-186.69
X195.897Y-189.23
X195.897Y-191.77
X195.897Y-194.31
X195.897Y-196.85
X195.897Y-199.39
X195.897Y-201.93
X195.897Y-204.47
X195.897Y-207.01
X195.897Y-209.55
X195.897Y-212.09
X195.897Y-214.63
X195.897Y-217.17
X195.897Y-219.71
X195.897Y-222.25
X195.897Y-224.79
X198.438Y-186.69
X198.438Y-189.23
X198.438Y-191.77
X198.438Y-194.31
X198.438Y-196.85
X198.438Y-199.39
X198.438Y-201.93
X198.438Y-204.47
X198.438Y-207.01
X198.438Y-209.55
X198.438Y-212.09
X198.438Y-214.63
X198.438Y-217.17
X198.438Y-219.71
X198.438Y-222.25
X198.438Y-224.79
X200.977Y-89.218
X200.977Y-94.615
X200.977Y-127.317
X200.977Y-132.715
X200.982Y-51.117
X200.982Y-56.515
X208.91Y-191.77
X216.218Y-89.218
X216.218Y-94.615
X216.218Y-127.317
X216.218Y-132.715
X216.222Y-51.117
X216.222Y-56.515
X224.15Y-191.77
T4
X157.167Y-48.578
X157.167Y-51.117
X157.167Y-53.657
X173.677Y-48.578
X173.677Y-51.117
X173.677Y-53.657
X221.927Y-89.218
X221.927Y-99.377
X221.932Y-51.117
X221.932Y-61.277
X221.932Y-127.317
X221.932Y-137.477
T5
X178.742Y-80.962
X178.742Y-91.162
X178.742Y-109.855
X178.742Y-120.055
X200.972Y-83.82
X200.977Y-45.72
X200.977Y-121.92
X208.915Y-186.69
X216.212Y-83.82
X216.218Y-45.72
X216.218Y-121.92
X229.235Y-186.69
T6
X188.282Y-63.817
X188.282Y-70.167
X188.282Y-76.517
X203.522Y-63.817
X203.522Y-70.167
X203.522Y-76.517
X208.915Y-196.85
X224.155Y-196.85
T7
X228.282Y-45.667
X228.282Y-51.117
X228.282Y-56.567
X228.282Y-83.767
X228.282Y-89.218
X228.282Y-94.667
X228.282Y-121.867
X228.282Y-127.317
X228.282Y-132.767
X229.235Y-196.85
X229.235Y-204.47
X229.235Y-212.09
X229.235Y-219.71
T8
X155.942Y-77.162
X155.942Y-106.055
X163.542Y-77.162
X163.542Y-106.055
X166.082Y-94.962
X166.082Y-123.855
X181.282Y-86.062
X181.282Y-114.955
T9
X126.272Y-165.735
X126.272Y-173.655
X126.272Y-181.575
X126.365Y-190.2
X126.365Y-198.12
X126.365Y-206.04
X126.457Y-77.32
X126.457Y-85.24
X126.457Y-106.212
X126.457Y-114.132
T10
X217.502Y-164.465
X227.502Y-164.465
T11
X126.682Y-35.242
X126.682Y-222.567
X216.218Y-35.242
X216.218Y-222.567
M30
