%TF.GenerationSoftware,KiCad,Pcbnew,8.0.4*%
%TF.CreationDate,2025-05-09T08:49:09+07:00*%
%TF.ProjectId,PS-2.0,50532d32-2e30-42e6-9b69-6361645f7063,rev?*%
%TF.SameCoordinates,Original*%
%TF.FileFunction,Legend,Top*%
%TF.FilePolarity,Positive*%
%FSLAX46Y46*%
G04 Gerber Fmt 4.6, Leading zero omitted, Abs format (unit mm)*
G04 Created by KiCad (PCBNEW 8.0.4) date 2025-05-09 08:49:09*
%MOMM*%
%LPD*%
G01*
G04 APERTURE LIST*
%ADD10C,0.100000*%
%ADD11C,0.150000*%
%ADD12C,0.120000*%
G04 APERTURE END LIST*
D10*
X230822500Y-89217500D02*
X233362500Y-89217500D01*
D11*
X230822500Y-127317500D02*
X233362500Y-127317500D01*
X230822500Y-32067500D02*
X230822500Y-146367500D01*
X230822500Y-51117500D02*
X233362500Y-51117500D01*
X230822500Y-146367500D02*
X239077500Y-146367500D01*
X239077500Y-32067500D02*
X230822500Y-32067500D01*
X234524755Y-88672319D02*
X234619993Y-88672319D01*
X234619993Y-88672319D02*
X234715231Y-88719938D01*
X234715231Y-88719938D02*
X234762850Y-88767557D01*
X234762850Y-88767557D02*
X234810469Y-88862795D01*
X234810469Y-88862795D02*
X234858088Y-89053271D01*
X234858088Y-89053271D02*
X234858088Y-89291366D01*
X234858088Y-89291366D02*
X234810469Y-89481842D01*
X234810469Y-89481842D02*
X234762850Y-89577080D01*
X234762850Y-89577080D02*
X234715231Y-89624700D01*
X234715231Y-89624700D02*
X234619993Y-89672319D01*
X234619993Y-89672319D02*
X234524755Y-89672319D01*
X234524755Y-89672319D02*
X234429517Y-89624700D01*
X234429517Y-89624700D02*
X234381898Y-89577080D01*
X234381898Y-89577080D02*
X234334279Y-89481842D01*
X234334279Y-89481842D02*
X234286660Y-89291366D01*
X234286660Y-89291366D02*
X234286660Y-89053271D01*
X234286660Y-89053271D02*
X234334279Y-88862795D01*
X234334279Y-88862795D02*
X234381898Y-88767557D01*
X234381898Y-88767557D02*
X234429517Y-88719938D01*
X234429517Y-88719938D02*
X234524755Y-88672319D01*
X234239041Y-126772319D02*
X234858088Y-126772319D01*
X234858088Y-126772319D02*
X234524755Y-127153271D01*
X234524755Y-127153271D02*
X234667612Y-127153271D01*
X234667612Y-127153271D02*
X234762850Y-127200890D01*
X234762850Y-127200890D02*
X234810469Y-127248509D01*
X234810469Y-127248509D02*
X234858088Y-127343747D01*
X234858088Y-127343747D02*
X234858088Y-127581842D01*
X234858088Y-127581842D02*
X234810469Y-127677080D01*
X234810469Y-127677080D02*
X234762850Y-127724700D01*
X234762850Y-127724700D02*
X234667612Y-127772319D01*
X234667612Y-127772319D02*
X234381898Y-127772319D01*
X234381898Y-127772319D02*
X234286660Y-127724700D01*
X234286660Y-127724700D02*
X234239041Y-127677080D01*
X235429517Y-127200890D02*
X235334279Y-127153271D01*
X235334279Y-127153271D02*
X235286660Y-127105652D01*
X235286660Y-127105652D02*
X235239041Y-127010414D01*
X235239041Y-127010414D02*
X235239041Y-126962795D01*
X235239041Y-126962795D02*
X235286660Y-126867557D01*
X235286660Y-126867557D02*
X235334279Y-126819938D01*
X235334279Y-126819938D02*
X235429517Y-126772319D01*
X235429517Y-126772319D02*
X235619993Y-126772319D01*
X235619993Y-126772319D02*
X235715231Y-126819938D01*
X235715231Y-126819938D02*
X235762850Y-126867557D01*
X235762850Y-126867557D02*
X235810469Y-126962795D01*
X235810469Y-126962795D02*
X235810469Y-127010414D01*
X235810469Y-127010414D02*
X235762850Y-127105652D01*
X235762850Y-127105652D02*
X235715231Y-127153271D01*
X235715231Y-127153271D02*
X235619993Y-127200890D01*
X235619993Y-127200890D02*
X235429517Y-127200890D01*
X235429517Y-127200890D02*
X235334279Y-127248509D01*
X235334279Y-127248509D02*
X235286660Y-127296128D01*
X235286660Y-127296128D02*
X235239041Y-127391366D01*
X235239041Y-127391366D02*
X235239041Y-127581842D01*
X235239041Y-127581842D02*
X235286660Y-127677080D01*
X235286660Y-127677080D02*
X235334279Y-127724700D01*
X235334279Y-127724700D02*
X235429517Y-127772319D01*
X235429517Y-127772319D02*
X235619993Y-127772319D01*
X235619993Y-127772319D02*
X235715231Y-127724700D01*
X235715231Y-127724700D02*
X235762850Y-127677080D01*
X235762850Y-127677080D02*
X235810469Y-127581842D01*
X235810469Y-127581842D02*
X235810469Y-127391366D01*
X235810469Y-127391366D02*
X235762850Y-127296128D01*
X235762850Y-127296128D02*
X235715231Y-127248509D01*
X235715231Y-127248509D02*
X235619993Y-127200890D01*
X236239041Y-127677080D02*
X236286660Y-127724700D01*
X236286660Y-127724700D02*
X236239041Y-127772319D01*
X236239041Y-127772319D02*
X236191422Y-127724700D01*
X236191422Y-127724700D02*
X236239041Y-127677080D01*
X236239041Y-127677080D02*
X236239041Y-127772319D01*
X237239040Y-127772319D02*
X236667612Y-127772319D01*
X236953326Y-127772319D02*
X236953326Y-126772319D01*
X236953326Y-126772319D02*
X236858088Y-126915176D01*
X236858088Y-126915176D02*
X236762850Y-127010414D01*
X236762850Y-127010414D02*
X236667612Y-127058033D01*
X234239041Y-50572319D02*
X234858088Y-50572319D01*
X234858088Y-50572319D02*
X234524755Y-50953271D01*
X234524755Y-50953271D02*
X234667612Y-50953271D01*
X234667612Y-50953271D02*
X234762850Y-51000890D01*
X234762850Y-51000890D02*
X234810469Y-51048509D01*
X234810469Y-51048509D02*
X234858088Y-51143747D01*
X234858088Y-51143747D02*
X234858088Y-51381842D01*
X234858088Y-51381842D02*
X234810469Y-51477080D01*
X234810469Y-51477080D02*
X234762850Y-51524700D01*
X234762850Y-51524700D02*
X234667612Y-51572319D01*
X234667612Y-51572319D02*
X234381898Y-51572319D01*
X234381898Y-51572319D02*
X234286660Y-51524700D01*
X234286660Y-51524700D02*
X234239041Y-51477080D01*
X235429517Y-51000890D02*
X235334279Y-50953271D01*
X235334279Y-50953271D02*
X235286660Y-50905652D01*
X235286660Y-50905652D02*
X235239041Y-50810414D01*
X235239041Y-50810414D02*
X235239041Y-50762795D01*
X235239041Y-50762795D02*
X235286660Y-50667557D01*
X235286660Y-50667557D02*
X235334279Y-50619938D01*
X235334279Y-50619938D02*
X235429517Y-50572319D01*
X235429517Y-50572319D02*
X235619993Y-50572319D01*
X235619993Y-50572319D02*
X235715231Y-50619938D01*
X235715231Y-50619938D02*
X235762850Y-50667557D01*
X235762850Y-50667557D02*
X235810469Y-50762795D01*
X235810469Y-50762795D02*
X235810469Y-50810414D01*
X235810469Y-50810414D02*
X235762850Y-50905652D01*
X235762850Y-50905652D02*
X235715231Y-50953271D01*
X235715231Y-50953271D02*
X235619993Y-51000890D01*
X235619993Y-51000890D02*
X235429517Y-51000890D01*
X235429517Y-51000890D02*
X235334279Y-51048509D01*
X235334279Y-51048509D02*
X235286660Y-51096128D01*
X235286660Y-51096128D02*
X235239041Y-51191366D01*
X235239041Y-51191366D02*
X235239041Y-51381842D01*
X235239041Y-51381842D02*
X235286660Y-51477080D01*
X235286660Y-51477080D02*
X235334279Y-51524700D01*
X235334279Y-51524700D02*
X235429517Y-51572319D01*
X235429517Y-51572319D02*
X235619993Y-51572319D01*
X235619993Y-51572319D02*
X235715231Y-51524700D01*
X235715231Y-51524700D02*
X235762850Y-51477080D01*
X235762850Y-51477080D02*
X235810469Y-51381842D01*
X235810469Y-51381842D02*
X235810469Y-51191366D01*
X235810469Y-51191366D02*
X235762850Y-51096128D01*
X235762850Y-51096128D02*
X235715231Y-51048509D01*
X235715231Y-51048509D02*
X235619993Y-51000890D01*
X236239041Y-51477080D02*
X236286660Y-51524700D01*
X236286660Y-51524700D02*
X236239041Y-51572319D01*
X236239041Y-51572319D02*
X236191422Y-51524700D01*
X236191422Y-51524700D02*
X236239041Y-51477080D01*
X236239041Y-51477080D02*
X236239041Y-51572319D01*
X237239040Y-51572319D02*
X236667612Y-51572319D01*
X236953326Y-51572319D02*
X236953326Y-50572319D01*
X236953326Y-50572319D02*
X236858088Y-50715176D01*
X236858088Y-50715176D02*
X236762850Y-50810414D01*
X236762850Y-50810414D02*
X236667612Y-50858033D01*
X238455006Y-32792319D02*
X238550244Y-32792319D01*
X238550244Y-32792319D02*
X238645482Y-32839938D01*
X238645482Y-32839938D02*
X238693101Y-32887557D01*
X238693101Y-32887557D02*
X238740720Y-32982795D01*
X238740720Y-32982795D02*
X238788339Y-33173271D01*
X238788339Y-33173271D02*
X238788339Y-33411366D01*
X238788339Y-33411366D02*
X238740720Y-33601842D01*
X238740720Y-33601842D02*
X238693101Y-33697080D01*
X238693101Y-33697080D02*
X238645482Y-33744700D01*
X238645482Y-33744700D02*
X238550244Y-33792319D01*
X238550244Y-33792319D02*
X238455006Y-33792319D01*
X238455006Y-33792319D02*
X238359768Y-33744700D01*
X238359768Y-33744700D02*
X238312149Y-33697080D01*
X238312149Y-33697080D02*
X238264530Y-33601842D01*
X238264530Y-33601842D02*
X238216911Y-33411366D01*
X238216911Y-33411366D02*
X238216911Y-33173271D01*
X238216911Y-33173271D02*
X238264530Y-32982795D01*
X238264530Y-32982795D02*
X238312149Y-32887557D01*
X238312149Y-32887557D02*
X238359768Y-32839938D01*
X238359768Y-32839938D02*
X238455006Y-32792319D01*
X235455006Y-145552319D02*
X234883578Y-145552319D01*
X235169292Y-145552319D02*
X235169292Y-144552319D01*
X235169292Y-144552319D02*
X235074054Y-144695176D01*
X235074054Y-144695176D02*
X234978816Y-144790414D01*
X234978816Y-144790414D02*
X234883578Y-144838033D01*
X236407387Y-145552319D02*
X235835959Y-145552319D01*
X236121673Y-145552319D02*
X236121673Y-144552319D01*
X236121673Y-144552319D02*
X236026435Y-144695176D01*
X236026435Y-144695176D02*
X235931197Y-144790414D01*
X235931197Y-144790414D02*
X235835959Y-144838033D01*
X237264530Y-144885652D02*
X237264530Y-145552319D01*
X237026435Y-144504700D02*
X236788340Y-145218985D01*
X236788340Y-145218985D02*
X237407387Y-145218985D01*
X237788340Y-145457080D02*
X237835959Y-145504700D01*
X237835959Y-145504700D02*
X237788340Y-145552319D01*
X237788340Y-145552319D02*
X237740721Y-145504700D01*
X237740721Y-145504700D02*
X237788340Y-145457080D01*
X237788340Y-145457080D02*
X237788340Y-145552319D01*
X238169292Y-144552319D02*
X238788339Y-144552319D01*
X238788339Y-144552319D02*
X238455006Y-144933271D01*
X238455006Y-144933271D02*
X238597863Y-144933271D01*
X238597863Y-144933271D02*
X238693101Y-144980890D01*
X238693101Y-144980890D02*
X238740720Y-145028509D01*
X238740720Y-145028509D02*
X238788339Y-145123747D01*
X238788339Y-145123747D02*
X238788339Y-145361842D01*
X238788339Y-145361842D02*
X238740720Y-145457080D01*
X238740720Y-145457080D02*
X238693101Y-145504700D01*
X238693101Y-145504700D02*
X238597863Y-145552319D01*
X238597863Y-145552319D02*
X238312149Y-145552319D01*
X238312149Y-145552319D02*
X238216911Y-145504700D01*
X238216911Y-145504700D02*
X238169292Y-145457080D01*
X208459166Y-133077295D02*
X208078214Y-133077295D01*
X208078214Y-133077295D02*
X208078214Y-132277295D01*
X209144880Y-133077295D02*
X208687737Y-133077295D01*
X208916309Y-133077295D02*
X208916309Y-132277295D01*
X208916309Y-132277295D02*
X208840118Y-132391580D01*
X208840118Y-132391580D02*
X208763928Y-132467771D01*
X208763928Y-132467771D02*
X208687737Y-132505866D01*
X228187261Y-61192557D02*
X228092023Y-61144938D01*
X228092023Y-61144938D02*
X227996785Y-61049700D01*
X227996785Y-61049700D02*
X227853928Y-60906842D01*
X227853928Y-60906842D02*
X227758690Y-60859223D01*
X227758690Y-60859223D02*
X227663452Y-60859223D01*
X227711071Y-61097319D02*
X227615833Y-61049700D01*
X227615833Y-61049700D02*
X227520595Y-60954461D01*
X227520595Y-60954461D02*
X227472976Y-60763985D01*
X227472976Y-60763985D02*
X227472976Y-60430652D01*
X227472976Y-60430652D02*
X227520595Y-60240176D01*
X227520595Y-60240176D02*
X227615833Y-60144938D01*
X227615833Y-60144938D02*
X227711071Y-60097319D01*
X227711071Y-60097319D02*
X227901547Y-60097319D01*
X227901547Y-60097319D02*
X227996785Y-60144938D01*
X227996785Y-60144938D02*
X228092023Y-60240176D01*
X228092023Y-60240176D02*
X228139642Y-60430652D01*
X228139642Y-60430652D02*
X228139642Y-60763985D01*
X228139642Y-60763985D02*
X228092023Y-60954461D01*
X228092023Y-60954461D02*
X227996785Y-61049700D01*
X227996785Y-61049700D02*
X227901547Y-61097319D01*
X227901547Y-61097319D02*
X227711071Y-61097319D01*
X228472976Y-60097319D02*
X229092023Y-60097319D01*
X229092023Y-60097319D02*
X228758690Y-60478271D01*
X228758690Y-60478271D02*
X228901547Y-60478271D01*
X228901547Y-60478271D02*
X228996785Y-60525890D01*
X228996785Y-60525890D02*
X229044404Y-60573509D01*
X229044404Y-60573509D02*
X229092023Y-60668747D01*
X229092023Y-60668747D02*
X229092023Y-60906842D01*
X229092023Y-60906842D02*
X229044404Y-61002080D01*
X229044404Y-61002080D02*
X228996785Y-61049700D01*
X228996785Y-61049700D02*
X228901547Y-61097319D01*
X228901547Y-61097319D02*
X228615833Y-61097319D01*
X228615833Y-61097319D02*
X228520595Y-61049700D01*
X228520595Y-61049700D02*
X228472976Y-61002080D01*
X166539819Y-52355594D02*
X165539819Y-52355594D01*
X166016009Y-52355594D02*
X166016009Y-51784166D01*
X166539819Y-51784166D02*
X165539819Y-51784166D01*
X166492200Y-51355594D02*
X166539819Y-51212737D01*
X166539819Y-51212737D02*
X166539819Y-50974642D01*
X166539819Y-50974642D02*
X166492200Y-50879404D01*
X166492200Y-50879404D02*
X166444580Y-50831785D01*
X166444580Y-50831785D02*
X166349342Y-50784166D01*
X166349342Y-50784166D02*
X166254104Y-50784166D01*
X166254104Y-50784166D02*
X166158866Y-50831785D01*
X166158866Y-50831785D02*
X166111247Y-50879404D01*
X166111247Y-50879404D02*
X166063628Y-50974642D01*
X166063628Y-50974642D02*
X166016009Y-51165118D01*
X166016009Y-51165118D02*
X165968390Y-51260356D01*
X165968390Y-51260356D02*
X165920771Y-51307975D01*
X165920771Y-51307975D02*
X165825533Y-51355594D01*
X165825533Y-51355594D02*
X165730295Y-51355594D01*
X165730295Y-51355594D02*
X165635057Y-51307975D01*
X165635057Y-51307975D02*
X165587438Y-51260356D01*
X165587438Y-51260356D02*
X165539819Y-51165118D01*
X165539819Y-51165118D02*
X165539819Y-50927023D01*
X165539819Y-50927023D02*
X165587438Y-50784166D01*
X165635057Y-50403213D02*
X165587438Y-50355594D01*
X165587438Y-50355594D02*
X165539819Y-50260356D01*
X165539819Y-50260356D02*
X165539819Y-50022261D01*
X165539819Y-50022261D02*
X165587438Y-49927023D01*
X165587438Y-49927023D02*
X165635057Y-49879404D01*
X165635057Y-49879404D02*
X165730295Y-49831785D01*
X165730295Y-49831785D02*
X165825533Y-49831785D01*
X165825533Y-49831785D02*
X165968390Y-49879404D01*
X165968390Y-49879404D02*
X166539819Y-50450832D01*
X166539819Y-50450832D02*
X166539819Y-49831785D01*
X216897295Y-197440475D02*
X216097295Y-197440475D01*
X216097295Y-197440475D02*
X216097295Y-197249999D01*
X216097295Y-197249999D02*
X216135390Y-197135713D01*
X216135390Y-197135713D02*
X216211580Y-197059523D01*
X216211580Y-197059523D02*
X216287771Y-197021428D01*
X216287771Y-197021428D02*
X216440152Y-196983332D01*
X216440152Y-196983332D02*
X216554438Y-196983332D01*
X216554438Y-196983332D02*
X216706819Y-197021428D01*
X216706819Y-197021428D02*
X216783009Y-197059523D01*
X216783009Y-197059523D02*
X216859200Y-197135713D01*
X216859200Y-197135713D02*
X216897295Y-197249999D01*
X216897295Y-197249999D02*
X216897295Y-197440475D01*
X216097295Y-196716666D02*
X216097295Y-196183332D01*
X216097295Y-196183332D02*
X216897295Y-196526190D01*
X228192261Y-137392557D02*
X228097023Y-137344938D01*
X228097023Y-137344938D02*
X228001785Y-137249700D01*
X228001785Y-137249700D02*
X227858928Y-137106842D01*
X227858928Y-137106842D02*
X227763690Y-137059223D01*
X227763690Y-137059223D02*
X227668452Y-137059223D01*
X227716071Y-137297319D02*
X227620833Y-137249700D01*
X227620833Y-137249700D02*
X227525595Y-137154461D01*
X227525595Y-137154461D02*
X227477976Y-136963985D01*
X227477976Y-136963985D02*
X227477976Y-136630652D01*
X227477976Y-136630652D02*
X227525595Y-136440176D01*
X227525595Y-136440176D02*
X227620833Y-136344938D01*
X227620833Y-136344938D02*
X227716071Y-136297319D01*
X227716071Y-136297319D02*
X227906547Y-136297319D01*
X227906547Y-136297319D02*
X228001785Y-136344938D01*
X228001785Y-136344938D02*
X228097023Y-136440176D01*
X228097023Y-136440176D02*
X228144642Y-136630652D01*
X228144642Y-136630652D02*
X228144642Y-136963985D01*
X228144642Y-136963985D02*
X228097023Y-137154461D01*
X228097023Y-137154461D02*
X228001785Y-137249700D01*
X228001785Y-137249700D02*
X227906547Y-137297319D01*
X227906547Y-137297319D02*
X227716071Y-137297319D01*
X229097023Y-137297319D02*
X228525595Y-137297319D01*
X228811309Y-137297319D02*
X228811309Y-136297319D01*
X228811309Y-136297319D02*
X228716071Y-136440176D01*
X228716071Y-136440176D02*
X228620833Y-136535414D01*
X228620833Y-136535414D02*
X228525595Y-136583033D01*
X208464166Y-56877295D02*
X208083214Y-56877295D01*
X208083214Y-56877295D02*
X208083214Y-56077295D01*
X209111785Y-56077295D02*
X208730833Y-56077295D01*
X208730833Y-56077295D02*
X208692737Y-56458247D01*
X208692737Y-56458247D02*
X208730833Y-56420152D01*
X208730833Y-56420152D02*
X208807023Y-56382057D01*
X208807023Y-56382057D02*
X208997499Y-56382057D01*
X208997499Y-56382057D02*
X209073690Y-56420152D01*
X209073690Y-56420152D02*
X209111785Y-56458247D01*
X209111785Y-56458247D02*
X209149880Y-56534438D01*
X209149880Y-56534438D02*
X209149880Y-56724914D01*
X209149880Y-56724914D02*
X209111785Y-56801104D01*
X209111785Y-56801104D02*
X209073690Y-56839200D01*
X209073690Y-56839200D02*
X208997499Y-56877295D01*
X208997499Y-56877295D02*
X208807023Y-56877295D01*
X208807023Y-56877295D02*
X208730833Y-56839200D01*
X208730833Y-56839200D02*
X208692737Y-56801104D01*
X188669795Y-85392975D02*
X187869795Y-85392975D01*
X187869795Y-85392975D02*
X187869795Y-85202499D01*
X187869795Y-85202499D02*
X187907890Y-85088213D01*
X187907890Y-85088213D02*
X187984080Y-85012023D01*
X187984080Y-85012023D02*
X188060271Y-84973928D01*
X188060271Y-84973928D02*
X188212652Y-84935832D01*
X188212652Y-84935832D02*
X188326938Y-84935832D01*
X188326938Y-84935832D02*
X188479319Y-84973928D01*
X188479319Y-84973928D02*
X188555509Y-85012023D01*
X188555509Y-85012023D02*
X188631700Y-85088213D01*
X188631700Y-85088213D02*
X188669795Y-85202499D01*
X188669795Y-85202499D02*
X188669795Y-85392975D01*
X188669795Y-84554880D02*
X188669795Y-84402499D01*
X188669795Y-84402499D02*
X188631700Y-84326309D01*
X188631700Y-84326309D02*
X188593604Y-84288213D01*
X188593604Y-84288213D02*
X188479319Y-84212023D01*
X188479319Y-84212023D02*
X188326938Y-84173928D01*
X188326938Y-84173928D02*
X188022176Y-84173928D01*
X188022176Y-84173928D02*
X187945985Y-84212023D01*
X187945985Y-84212023D02*
X187907890Y-84250118D01*
X187907890Y-84250118D02*
X187869795Y-84326309D01*
X187869795Y-84326309D02*
X187869795Y-84478690D01*
X187869795Y-84478690D02*
X187907890Y-84554880D01*
X187907890Y-84554880D02*
X187945985Y-84592975D01*
X187945985Y-84592975D02*
X188022176Y-84631071D01*
X188022176Y-84631071D02*
X188212652Y-84631071D01*
X188212652Y-84631071D02*
X188288842Y-84592975D01*
X188288842Y-84592975D02*
X188326938Y-84554880D01*
X188326938Y-84554880D02*
X188365033Y-84478690D01*
X188365033Y-84478690D02*
X188365033Y-84326309D01*
X188365033Y-84326309D02*
X188326938Y-84250118D01*
X188326938Y-84250118D02*
X188288842Y-84212023D01*
X188288842Y-84212023D02*
X188212652Y-84173928D01*
X221337024Y-94659795D02*
X221337024Y-93859795D01*
X221337024Y-93859795D02*
X221527500Y-93859795D01*
X221527500Y-93859795D02*
X221641786Y-93897890D01*
X221641786Y-93897890D02*
X221717976Y-93974080D01*
X221717976Y-93974080D02*
X221756071Y-94050271D01*
X221756071Y-94050271D02*
X221794167Y-94202652D01*
X221794167Y-94202652D02*
X221794167Y-94316938D01*
X221794167Y-94316938D02*
X221756071Y-94469319D01*
X221756071Y-94469319D02*
X221717976Y-94545509D01*
X221717976Y-94545509D02*
X221641786Y-94621700D01*
X221641786Y-94621700D02*
X221527500Y-94659795D01*
X221527500Y-94659795D02*
X221337024Y-94659795D01*
X222098928Y-93935985D02*
X222137024Y-93897890D01*
X222137024Y-93897890D02*
X222213214Y-93859795D01*
X222213214Y-93859795D02*
X222403690Y-93859795D01*
X222403690Y-93859795D02*
X222479881Y-93897890D01*
X222479881Y-93897890D02*
X222517976Y-93935985D01*
X222517976Y-93935985D02*
X222556071Y-94012176D01*
X222556071Y-94012176D02*
X222556071Y-94088366D01*
X222556071Y-94088366D02*
X222517976Y-94202652D01*
X222517976Y-94202652D02*
X222060833Y-94659795D01*
X222060833Y-94659795D02*
X222556071Y-94659795D01*
X208464167Y-122282295D02*
X208197500Y-121901342D01*
X208007024Y-122282295D02*
X208007024Y-121482295D01*
X208007024Y-121482295D02*
X208311786Y-121482295D01*
X208311786Y-121482295D02*
X208387976Y-121520390D01*
X208387976Y-121520390D02*
X208426071Y-121558485D01*
X208426071Y-121558485D02*
X208464167Y-121634676D01*
X208464167Y-121634676D02*
X208464167Y-121748961D01*
X208464167Y-121748961D02*
X208426071Y-121825152D01*
X208426071Y-121825152D02*
X208387976Y-121863247D01*
X208387976Y-121863247D02*
X208311786Y-121901342D01*
X208311786Y-121901342D02*
X208007024Y-121901342D01*
X209226071Y-122282295D02*
X208768928Y-122282295D01*
X208997500Y-122282295D02*
X208997500Y-121482295D01*
X208997500Y-121482295D02*
X208921309Y-121596580D01*
X208921309Y-121596580D02*
X208845119Y-121672771D01*
X208845119Y-121672771D02*
X208768928Y-121710866D01*
X195312024Y-64179795D02*
X195312024Y-63379795D01*
X195312024Y-63379795D02*
X195502500Y-63379795D01*
X195502500Y-63379795D02*
X195616786Y-63417890D01*
X195616786Y-63417890D02*
X195692976Y-63494080D01*
X195692976Y-63494080D02*
X195731071Y-63570271D01*
X195731071Y-63570271D02*
X195769167Y-63722652D01*
X195769167Y-63722652D02*
X195769167Y-63836938D01*
X195769167Y-63836938D02*
X195731071Y-63989319D01*
X195731071Y-63989319D02*
X195692976Y-64065509D01*
X195692976Y-64065509D02*
X195616786Y-64141700D01*
X195616786Y-64141700D02*
X195502500Y-64179795D01*
X195502500Y-64179795D02*
X195312024Y-64179795D01*
X196492976Y-63379795D02*
X196112024Y-63379795D01*
X196112024Y-63379795D02*
X196073928Y-63760747D01*
X196073928Y-63760747D02*
X196112024Y-63722652D01*
X196112024Y-63722652D02*
X196188214Y-63684557D01*
X196188214Y-63684557D02*
X196378690Y-63684557D01*
X196378690Y-63684557D02*
X196454881Y-63722652D01*
X196454881Y-63722652D02*
X196492976Y-63760747D01*
X196492976Y-63760747D02*
X196531071Y-63836938D01*
X196531071Y-63836938D02*
X196531071Y-64027414D01*
X196531071Y-64027414D02*
X196492976Y-64103604D01*
X196492976Y-64103604D02*
X196454881Y-64141700D01*
X196454881Y-64141700D02*
X196378690Y-64179795D01*
X196378690Y-64179795D02*
X196188214Y-64179795D01*
X196188214Y-64179795D02*
X196112024Y-64141700D01*
X196112024Y-64141700D02*
X196073928Y-64103604D01*
X208964795Y-213503332D02*
X208583842Y-213769999D01*
X208964795Y-213960475D02*
X208164795Y-213960475D01*
X208164795Y-213960475D02*
X208164795Y-213655713D01*
X208164795Y-213655713D02*
X208202890Y-213579523D01*
X208202890Y-213579523D02*
X208240985Y-213541428D01*
X208240985Y-213541428D02*
X208317176Y-213503332D01*
X208317176Y-213503332D02*
X208431461Y-213503332D01*
X208431461Y-213503332D02*
X208507652Y-213541428D01*
X208507652Y-213541428D02*
X208545747Y-213579523D01*
X208545747Y-213579523D02*
X208583842Y-213655713D01*
X208583842Y-213655713D02*
X208583842Y-213960475D01*
X208431461Y-212817618D02*
X208964795Y-212817618D01*
X208126700Y-213008094D02*
X208698128Y-213198571D01*
X208698128Y-213198571D02*
X208698128Y-212703332D01*
X208459167Y-84182295D02*
X208192500Y-83801342D01*
X208002024Y-84182295D02*
X208002024Y-83382295D01*
X208002024Y-83382295D02*
X208306786Y-83382295D01*
X208306786Y-83382295D02*
X208382976Y-83420390D01*
X208382976Y-83420390D02*
X208421071Y-83458485D01*
X208421071Y-83458485D02*
X208459167Y-83534676D01*
X208459167Y-83534676D02*
X208459167Y-83648961D01*
X208459167Y-83648961D02*
X208421071Y-83725152D01*
X208421071Y-83725152D02*
X208382976Y-83763247D01*
X208382976Y-83763247D02*
X208306786Y-83801342D01*
X208306786Y-83801342D02*
X208002024Y-83801342D01*
X208763928Y-83458485D02*
X208802024Y-83420390D01*
X208802024Y-83420390D02*
X208878214Y-83382295D01*
X208878214Y-83382295D02*
X209068690Y-83382295D01*
X209068690Y-83382295D02*
X209144881Y-83420390D01*
X209144881Y-83420390D02*
X209182976Y-83458485D01*
X209182976Y-83458485D02*
X209221071Y-83534676D01*
X209221071Y-83534676D02*
X209221071Y-83610866D01*
X209221071Y-83610866D02*
X209182976Y-83725152D01*
X209182976Y-83725152D02*
X208725833Y-84182295D01*
X208725833Y-84182295D02*
X209221071Y-84182295D01*
X150029819Y-52355594D02*
X149029819Y-52355594D01*
X149506009Y-52355594D02*
X149506009Y-51784166D01*
X150029819Y-51784166D02*
X149029819Y-51784166D01*
X149982200Y-51355594D02*
X150029819Y-51212737D01*
X150029819Y-51212737D02*
X150029819Y-50974642D01*
X150029819Y-50974642D02*
X149982200Y-50879404D01*
X149982200Y-50879404D02*
X149934580Y-50831785D01*
X149934580Y-50831785D02*
X149839342Y-50784166D01*
X149839342Y-50784166D02*
X149744104Y-50784166D01*
X149744104Y-50784166D02*
X149648866Y-50831785D01*
X149648866Y-50831785D02*
X149601247Y-50879404D01*
X149601247Y-50879404D02*
X149553628Y-50974642D01*
X149553628Y-50974642D02*
X149506009Y-51165118D01*
X149506009Y-51165118D02*
X149458390Y-51260356D01*
X149458390Y-51260356D02*
X149410771Y-51307975D01*
X149410771Y-51307975D02*
X149315533Y-51355594D01*
X149315533Y-51355594D02*
X149220295Y-51355594D01*
X149220295Y-51355594D02*
X149125057Y-51307975D01*
X149125057Y-51307975D02*
X149077438Y-51260356D01*
X149077438Y-51260356D02*
X149029819Y-51165118D01*
X149029819Y-51165118D02*
X149029819Y-50927023D01*
X149029819Y-50927023D02*
X149077438Y-50784166D01*
X150029819Y-49831785D02*
X150029819Y-50403213D01*
X150029819Y-50117499D02*
X149029819Y-50117499D01*
X149029819Y-50117499D02*
X149172676Y-50212737D01*
X149172676Y-50212737D02*
X149267914Y-50307975D01*
X149267914Y-50307975D02*
X149315533Y-50403213D01*
X144187080Y-95764166D02*
X144234700Y-95811785D01*
X144234700Y-95811785D02*
X144282319Y-95954642D01*
X144282319Y-95954642D02*
X144282319Y-96049880D01*
X144282319Y-96049880D02*
X144234700Y-96192737D01*
X144234700Y-96192737D02*
X144139461Y-96287975D01*
X144139461Y-96287975D02*
X144044223Y-96335594D01*
X144044223Y-96335594D02*
X143853747Y-96383213D01*
X143853747Y-96383213D02*
X143710890Y-96383213D01*
X143710890Y-96383213D02*
X143520414Y-96335594D01*
X143520414Y-96335594D02*
X143425176Y-96287975D01*
X143425176Y-96287975D02*
X143329938Y-96192737D01*
X143329938Y-96192737D02*
X143282319Y-96049880D01*
X143282319Y-96049880D02*
X143282319Y-95954642D01*
X143282319Y-95954642D02*
X143329938Y-95811785D01*
X143329938Y-95811785D02*
X143377557Y-95764166D01*
X143282319Y-94907023D02*
X143282319Y-95097499D01*
X143282319Y-95097499D02*
X143329938Y-95192737D01*
X143329938Y-95192737D02*
X143377557Y-95240356D01*
X143377557Y-95240356D02*
X143520414Y-95335594D01*
X143520414Y-95335594D02*
X143710890Y-95383213D01*
X143710890Y-95383213D02*
X144091842Y-95383213D01*
X144091842Y-95383213D02*
X144187080Y-95335594D01*
X144187080Y-95335594D02*
X144234700Y-95287975D01*
X144234700Y-95287975D02*
X144282319Y-95192737D01*
X144282319Y-95192737D02*
X144282319Y-95002261D01*
X144282319Y-95002261D02*
X144234700Y-94907023D01*
X144234700Y-94907023D02*
X144187080Y-94859404D01*
X144187080Y-94859404D02*
X144091842Y-94811785D01*
X144091842Y-94811785D02*
X143853747Y-94811785D01*
X143853747Y-94811785D02*
X143758509Y-94859404D01*
X143758509Y-94859404D02*
X143710890Y-94907023D01*
X143710890Y-94907023D02*
X143663271Y-95002261D01*
X143663271Y-95002261D02*
X143663271Y-95192737D01*
X143663271Y-95192737D02*
X143710890Y-95287975D01*
X143710890Y-95287975D02*
X143758509Y-95335594D01*
X143758509Y-95335594D02*
X143853747Y-95383213D01*
D10*
X152742976Y-129739895D02*
X152742976Y-130387514D01*
X152742976Y-130387514D02*
X152781071Y-130463704D01*
X152781071Y-130463704D02*
X152819166Y-130501800D01*
X152819166Y-130501800D02*
X152895357Y-130539895D01*
X152895357Y-130539895D02*
X153047738Y-130539895D01*
X153047738Y-130539895D02*
X153123928Y-130501800D01*
X153123928Y-130501800D02*
X153162023Y-130463704D01*
X153162023Y-130463704D02*
X153200119Y-130387514D01*
X153200119Y-130387514D02*
X153200119Y-129739895D01*
X153542975Y-129816085D02*
X153581071Y-129777990D01*
X153581071Y-129777990D02*
X153657261Y-129739895D01*
X153657261Y-129739895D02*
X153847737Y-129739895D01*
X153847737Y-129739895D02*
X153923928Y-129777990D01*
X153923928Y-129777990D02*
X153962023Y-129816085D01*
X153962023Y-129816085D02*
X154000118Y-129892276D01*
X154000118Y-129892276D02*
X154000118Y-129968466D01*
X154000118Y-129968466D02*
X153962023Y-130082752D01*
X153962023Y-130082752D02*
X153504880Y-130539895D01*
X153504880Y-130539895D02*
X154000118Y-130539895D01*
D11*
X171423604Y-51650832D02*
X171461700Y-51688928D01*
X171461700Y-51688928D02*
X171499795Y-51803213D01*
X171499795Y-51803213D02*
X171499795Y-51879404D01*
X171499795Y-51879404D02*
X171461700Y-51993690D01*
X171461700Y-51993690D02*
X171385509Y-52069880D01*
X171385509Y-52069880D02*
X171309319Y-52107975D01*
X171309319Y-52107975D02*
X171156938Y-52146071D01*
X171156938Y-52146071D02*
X171042652Y-52146071D01*
X171042652Y-52146071D02*
X170890271Y-52107975D01*
X170890271Y-52107975D02*
X170814080Y-52069880D01*
X170814080Y-52069880D02*
X170737890Y-51993690D01*
X170737890Y-51993690D02*
X170699795Y-51879404D01*
X170699795Y-51879404D02*
X170699795Y-51803213D01*
X170699795Y-51803213D02*
X170737890Y-51688928D01*
X170737890Y-51688928D02*
X170775985Y-51650832D01*
X171499795Y-50850832D02*
X171118842Y-51117499D01*
X171499795Y-51307975D02*
X170699795Y-51307975D01*
X170699795Y-51307975D02*
X170699795Y-51003213D01*
X170699795Y-51003213D02*
X170737890Y-50927023D01*
X170737890Y-50927023D02*
X170775985Y-50888928D01*
X170775985Y-50888928D02*
X170852176Y-50850832D01*
X170852176Y-50850832D02*
X170966461Y-50850832D01*
X170966461Y-50850832D02*
X171042652Y-50888928D01*
X171042652Y-50888928D02*
X171080747Y-50927023D01*
X171080747Y-50927023D02*
X171118842Y-51003213D01*
X171118842Y-51003213D02*
X171118842Y-51307975D01*
X170775985Y-50546071D02*
X170737890Y-50507975D01*
X170737890Y-50507975D02*
X170699795Y-50431785D01*
X170699795Y-50431785D02*
X170699795Y-50241309D01*
X170699795Y-50241309D02*
X170737890Y-50165118D01*
X170737890Y-50165118D02*
X170775985Y-50127023D01*
X170775985Y-50127023D02*
X170852176Y-50088928D01*
X170852176Y-50088928D02*
X170928366Y-50088928D01*
X170928366Y-50088928D02*
X171042652Y-50127023D01*
X171042652Y-50127023D02*
X171499795Y-50584166D01*
X171499795Y-50584166D02*
X171499795Y-50088928D01*
X221342024Y-132759795D02*
X221342024Y-131959795D01*
X221342024Y-131959795D02*
X221532500Y-131959795D01*
X221532500Y-131959795D02*
X221646786Y-131997890D01*
X221646786Y-131997890D02*
X221722976Y-132074080D01*
X221722976Y-132074080D02*
X221761071Y-132150271D01*
X221761071Y-132150271D02*
X221799167Y-132302652D01*
X221799167Y-132302652D02*
X221799167Y-132416938D01*
X221799167Y-132416938D02*
X221761071Y-132569319D01*
X221761071Y-132569319D02*
X221722976Y-132645509D01*
X221722976Y-132645509D02*
X221646786Y-132721700D01*
X221646786Y-132721700D02*
X221532500Y-132759795D01*
X221532500Y-132759795D02*
X221342024Y-132759795D01*
X222561071Y-132759795D02*
X222103928Y-132759795D01*
X222332500Y-132759795D02*
X222332500Y-131959795D01*
X222332500Y-131959795D02*
X222256309Y-132074080D01*
X222256309Y-132074080D02*
X222180119Y-132150271D01*
X222180119Y-132150271D02*
X222103928Y-132188366D01*
X204354795Y-213979523D02*
X205002414Y-213979523D01*
X205002414Y-213979523D02*
X205078604Y-213941428D01*
X205078604Y-213941428D02*
X205116700Y-213903333D01*
X205116700Y-213903333D02*
X205154795Y-213827142D01*
X205154795Y-213827142D02*
X205154795Y-213674761D01*
X205154795Y-213674761D02*
X205116700Y-213598571D01*
X205116700Y-213598571D02*
X205078604Y-213560476D01*
X205078604Y-213560476D02*
X205002414Y-213522380D01*
X205002414Y-213522380D02*
X204354795Y-213522380D01*
X204621461Y-212798571D02*
X205154795Y-212798571D01*
X204316700Y-212989047D02*
X204888128Y-213179524D01*
X204888128Y-213179524D02*
X204888128Y-212684285D01*
X208464167Y-46082295D02*
X208197500Y-45701342D01*
X208007024Y-46082295D02*
X208007024Y-45282295D01*
X208007024Y-45282295D02*
X208311786Y-45282295D01*
X208311786Y-45282295D02*
X208387976Y-45320390D01*
X208387976Y-45320390D02*
X208426071Y-45358485D01*
X208426071Y-45358485D02*
X208464167Y-45434676D01*
X208464167Y-45434676D02*
X208464167Y-45548961D01*
X208464167Y-45548961D02*
X208426071Y-45625152D01*
X208426071Y-45625152D02*
X208387976Y-45663247D01*
X208387976Y-45663247D02*
X208311786Y-45701342D01*
X208311786Y-45701342D02*
X208007024Y-45701342D01*
X208730833Y-45282295D02*
X209226071Y-45282295D01*
X209226071Y-45282295D02*
X208959405Y-45587057D01*
X208959405Y-45587057D02*
X209073690Y-45587057D01*
X209073690Y-45587057D02*
X209149881Y-45625152D01*
X209149881Y-45625152D02*
X209187976Y-45663247D01*
X209187976Y-45663247D02*
X209226071Y-45739438D01*
X209226071Y-45739438D02*
X209226071Y-45929914D01*
X209226071Y-45929914D02*
X209187976Y-46006104D01*
X209187976Y-46006104D02*
X209149881Y-46044200D01*
X209149881Y-46044200D02*
X209073690Y-46082295D01*
X209073690Y-46082295D02*
X208845119Y-46082295D01*
X208845119Y-46082295D02*
X208768928Y-46044200D01*
X208768928Y-46044200D02*
X208730833Y-46006104D01*
X199574167Y-141256104D02*
X199536071Y-141294200D01*
X199536071Y-141294200D02*
X199421786Y-141332295D01*
X199421786Y-141332295D02*
X199345595Y-141332295D01*
X199345595Y-141332295D02*
X199231309Y-141294200D01*
X199231309Y-141294200D02*
X199155119Y-141218009D01*
X199155119Y-141218009D02*
X199117024Y-141141819D01*
X199117024Y-141141819D02*
X199078928Y-140989438D01*
X199078928Y-140989438D02*
X199078928Y-140875152D01*
X199078928Y-140875152D02*
X199117024Y-140722771D01*
X199117024Y-140722771D02*
X199155119Y-140646580D01*
X199155119Y-140646580D02*
X199231309Y-140570390D01*
X199231309Y-140570390D02*
X199345595Y-140532295D01*
X199345595Y-140532295D02*
X199421786Y-140532295D01*
X199421786Y-140532295D02*
X199536071Y-140570390D01*
X199536071Y-140570390D02*
X199574167Y-140608485D01*
X200336071Y-141332295D02*
X199878928Y-141332295D01*
X200107500Y-141332295D02*
X200107500Y-140532295D01*
X200107500Y-140532295D02*
X200031309Y-140646580D01*
X200031309Y-140646580D02*
X199955119Y-140722771D01*
X199955119Y-140722771D02*
X199878928Y-140760866D01*
X206879795Y-141589523D02*
X207527414Y-141589523D01*
X207527414Y-141589523D02*
X207603604Y-141551428D01*
X207603604Y-141551428D02*
X207641700Y-141513333D01*
X207641700Y-141513333D02*
X207679795Y-141437142D01*
X207679795Y-141437142D02*
X207679795Y-141284761D01*
X207679795Y-141284761D02*
X207641700Y-141208571D01*
X207641700Y-141208571D02*
X207603604Y-141170476D01*
X207603604Y-141170476D02*
X207527414Y-141132380D01*
X207527414Y-141132380D02*
X206879795Y-141132380D01*
X207679795Y-140332381D02*
X207679795Y-140789524D01*
X207679795Y-140560952D02*
X206879795Y-140560952D01*
X206879795Y-140560952D02*
X206994080Y-140637143D01*
X206994080Y-140637143D02*
X207070271Y-140713333D01*
X207070271Y-140713333D02*
X207108366Y-140789524D01*
X188669795Y-114285475D02*
X187869795Y-114285475D01*
X187869795Y-114285475D02*
X187869795Y-114094999D01*
X187869795Y-114094999D02*
X187907890Y-113980713D01*
X187907890Y-113980713D02*
X187984080Y-113904523D01*
X187984080Y-113904523D02*
X188060271Y-113866428D01*
X188060271Y-113866428D02*
X188212652Y-113828332D01*
X188212652Y-113828332D02*
X188326938Y-113828332D01*
X188326938Y-113828332D02*
X188479319Y-113866428D01*
X188479319Y-113866428D02*
X188555509Y-113904523D01*
X188555509Y-113904523D02*
X188631700Y-113980713D01*
X188631700Y-113980713D02*
X188669795Y-114094999D01*
X188669795Y-114094999D02*
X188669795Y-114285475D01*
X188212652Y-113371190D02*
X188174557Y-113447380D01*
X188174557Y-113447380D02*
X188136461Y-113485475D01*
X188136461Y-113485475D02*
X188060271Y-113523571D01*
X188060271Y-113523571D02*
X188022176Y-113523571D01*
X188022176Y-113523571D02*
X187945985Y-113485475D01*
X187945985Y-113485475D02*
X187907890Y-113447380D01*
X187907890Y-113447380D02*
X187869795Y-113371190D01*
X187869795Y-113371190D02*
X187869795Y-113218809D01*
X187869795Y-113218809D02*
X187907890Y-113142618D01*
X187907890Y-113142618D02*
X187945985Y-113104523D01*
X187945985Y-113104523D02*
X188022176Y-113066428D01*
X188022176Y-113066428D02*
X188060271Y-113066428D01*
X188060271Y-113066428D02*
X188136461Y-113104523D01*
X188136461Y-113104523D02*
X188174557Y-113142618D01*
X188174557Y-113142618D02*
X188212652Y-113218809D01*
X188212652Y-113218809D02*
X188212652Y-113371190D01*
X188212652Y-113371190D02*
X188250747Y-113447380D01*
X188250747Y-113447380D02*
X188288842Y-113485475D01*
X188288842Y-113485475D02*
X188365033Y-113523571D01*
X188365033Y-113523571D02*
X188517414Y-113523571D01*
X188517414Y-113523571D02*
X188593604Y-113485475D01*
X188593604Y-113485475D02*
X188631700Y-113447380D01*
X188631700Y-113447380D02*
X188669795Y-113371190D01*
X188669795Y-113371190D02*
X188669795Y-113218809D01*
X188669795Y-113218809D02*
X188631700Y-113142618D01*
X188631700Y-113142618D02*
X188593604Y-113104523D01*
X188593604Y-113104523D02*
X188517414Y-113066428D01*
X188517414Y-113066428D02*
X188365033Y-113066428D01*
X188365033Y-113066428D02*
X188288842Y-113104523D01*
X188288842Y-113104523D02*
X188250747Y-113142618D01*
X188250747Y-113142618D02*
X188212652Y-113218809D01*
X195312024Y-70529795D02*
X195312024Y-69729795D01*
X195312024Y-69729795D02*
X195502500Y-69729795D01*
X195502500Y-69729795D02*
X195616786Y-69767890D01*
X195616786Y-69767890D02*
X195692976Y-69844080D01*
X195692976Y-69844080D02*
X195731071Y-69920271D01*
X195731071Y-69920271D02*
X195769167Y-70072652D01*
X195769167Y-70072652D02*
X195769167Y-70186938D01*
X195769167Y-70186938D02*
X195731071Y-70339319D01*
X195731071Y-70339319D02*
X195692976Y-70415509D01*
X195692976Y-70415509D02*
X195616786Y-70491700D01*
X195616786Y-70491700D02*
X195502500Y-70529795D01*
X195502500Y-70529795D02*
X195312024Y-70529795D01*
X196454881Y-69729795D02*
X196302500Y-69729795D01*
X196302500Y-69729795D02*
X196226309Y-69767890D01*
X196226309Y-69767890D02*
X196188214Y-69805985D01*
X196188214Y-69805985D02*
X196112024Y-69920271D01*
X196112024Y-69920271D02*
X196073928Y-70072652D01*
X196073928Y-70072652D02*
X196073928Y-70377414D01*
X196073928Y-70377414D02*
X196112024Y-70453604D01*
X196112024Y-70453604D02*
X196150119Y-70491700D01*
X196150119Y-70491700D02*
X196226309Y-70529795D01*
X196226309Y-70529795D02*
X196378690Y-70529795D01*
X196378690Y-70529795D02*
X196454881Y-70491700D01*
X196454881Y-70491700D02*
X196492976Y-70453604D01*
X196492976Y-70453604D02*
X196531071Y-70377414D01*
X196531071Y-70377414D02*
X196531071Y-70186938D01*
X196531071Y-70186938D02*
X196492976Y-70110747D01*
X196492976Y-70110747D02*
X196454881Y-70072652D01*
X196454881Y-70072652D02*
X196378690Y-70034557D01*
X196378690Y-70034557D02*
X196226309Y-70034557D01*
X196226309Y-70034557D02*
X196150119Y-70072652D01*
X196150119Y-70072652D02*
X196112024Y-70110747D01*
X196112024Y-70110747D02*
X196073928Y-70186938D01*
X208459166Y-89579795D02*
X208078214Y-89579795D01*
X208078214Y-89579795D02*
X208078214Y-88779795D01*
X209068690Y-89046461D02*
X209068690Y-89579795D01*
X208878214Y-88741700D02*
X208687737Y-89313128D01*
X208687737Y-89313128D02*
X209182976Y-89313128D01*
X217320833Y-160062080D02*
X217273214Y-160109700D01*
X217273214Y-160109700D02*
X217130357Y-160157319D01*
X217130357Y-160157319D02*
X217035119Y-160157319D01*
X217035119Y-160157319D02*
X216892262Y-160109700D01*
X216892262Y-160109700D02*
X216797024Y-160014461D01*
X216797024Y-160014461D02*
X216749405Y-159919223D01*
X216749405Y-159919223D02*
X216701786Y-159728747D01*
X216701786Y-159728747D02*
X216701786Y-159585890D01*
X216701786Y-159585890D02*
X216749405Y-159395414D01*
X216749405Y-159395414D02*
X216797024Y-159300176D01*
X216797024Y-159300176D02*
X216892262Y-159204938D01*
X216892262Y-159204938D02*
X217035119Y-159157319D01*
X217035119Y-159157319D02*
X217130357Y-159157319D01*
X217130357Y-159157319D02*
X217273214Y-159204938D01*
X217273214Y-159204938D02*
X217320833Y-159252557D01*
X217701786Y-159252557D02*
X217749405Y-159204938D01*
X217749405Y-159204938D02*
X217844643Y-159157319D01*
X217844643Y-159157319D02*
X218082738Y-159157319D01*
X218082738Y-159157319D02*
X218177976Y-159204938D01*
X218177976Y-159204938D02*
X218225595Y-159252557D01*
X218225595Y-159252557D02*
X218273214Y-159347795D01*
X218273214Y-159347795D02*
X218273214Y-159443033D01*
X218273214Y-159443033D02*
X218225595Y-159585890D01*
X218225595Y-159585890D02*
X217654167Y-160157319D01*
X217654167Y-160157319D02*
X218273214Y-160157319D01*
D10*
X184492976Y-129739895D02*
X184492976Y-130387514D01*
X184492976Y-130387514D02*
X184531071Y-130463704D01*
X184531071Y-130463704D02*
X184569166Y-130501800D01*
X184569166Y-130501800D02*
X184645357Y-130539895D01*
X184645357Y-130539895D02*
X184797738Y-130539895D01*
X184797738Y-130539895D02*
X184873928Y-130501800D01*
X184873928Y-130501800D02*
X184912023Y-130463704D01*
X184912023Y-130463704D02*
X184950119Y-130387514D01*
X184950119Y-130387514D02*
X184950119Y-129739895D01*
X185254880Y-129739895D02*
X185750118Y-129739895D01*
X185750118Y-129739895D02*
X185483452Y-130044657D01*
X185483452Y-130044657D02*
X185597737Y-130044657D01*
X185597737Y-130044657D02*
X185673928Y-130082752D01*
X185673928Y-130082752D02*
X185712023Y-130120847D01*
X185712023Y-130120847D02*
X185750118Y-130197038D01*
X185750118Y-130197038D02*
X185750118Y-130387514D01*
X185750118Y-130387514D02*
X185712023Y-130463704D01*
X185712023Y-130463704D02*
X185673928Y-130501800D01*
X185673928Y-130501800D02*
X185597737Y-130539895D01*
X185597737Y-130539895D02*
X185369166Y-130539895D01*
X185369166Y-130539895D02*
X185292975Y-130501800D01*
X185292975Y-130501800D02*
X185254880Y-130463704D01*
D11*
X196834166Y-183374819D02*
X196834166Y-184089104D01*
X196834166Y-184089104D02*
X196786547Y-184231961D01*
X196786547Y-184231961D02*
X196691309Y-184327200D01*
X196691309Y-184327200D02*
X196548452Y-184374819D01*
X196548452Y-184374819D02*
X196453214Y-184374819D01*
X197834166Y-184374819D02*
X197262738Y-184374819D01*
X197548452Y-184374819D02*
X197548452Y-183374819D01*
X197548452Y-183374819D02*
X197453214Y-183517676D01*
X197453214Y-183517676D02*
X197357976Y-183612914D01*
X197357976Y-183612914D02*
X197262738Y-183660533D01*
X221342024Y-56559795D02*
X221342024Y-55759795D01*
X221342024Y-55759795D02*
X221532500Y-55759795D01*
X221532500Y-55759795D02*
X221646786Y-55797890D01*
X221646786Y-55797890D02*
X221722976Y-55874080D01*
X221722976Y-55874080D02*
X221761071Y-55950271D01*
X221761071Y-55950271D02*
X221799167Y-56102652D01*
X221799167Y-56102652D02*
X221799167Y-56216938D01*
X221799167Y-56216938D02*
X221761071Y-56369319D01*
X221761071Y-56369319D02*
X221722976Y-56445509D01*
X221722976Y-56445509D02*
X221646786Y-56521700D01*
X221646786Y-56521700D02*
X221532500Y-56559795D01*
X221532500Y-56559795D02*
X221342024Y-56559795D01*
X222065833Y-55759795D02*
X222561071Y-55759795D01*
X222561071Y-55759795D02*
X222294405Y-56064557D01*
X222294405Y-56064557D02*
X222408690Y-56064557D01*
X222408690Y-56064557D02*
X222484881Y-56102652D01*
X222484881Y-56102652D02*
X222522976Y-56140747D01*
X222522976Y-56140747D02*
X222561071Y-56216938D01*
X222561071Y-56216938D02*
X222561071Y-56407414D01*
X222561071Y-56407414D02*
X222522976Y-56483604D01*
X222522976Y-56483604D02*
X222484881Y-56521700D01*
X222484881Y-56521700D02*
X222408690Y-56559795D01*
X222408690Y-56559795D02*
X222180119Y-56559795D01*
X222180119Y-56559795D02*
X222103928Y-56521700D01*
X222103928Y-56521700D02*
X222065833Y-56483604D01*
X199574167Y-165703604D02*
X199536071Y-165741700D01*
X199536071Y-165741700D02*
X199421786Y-165779795D01*
X199421786Y-165779795D02*
X199345595Y-165779795D01*
X199345595Y-165779795D02*
X199231309Y-165741700D01*
X199231309Y-165741700D02*
X199155119Y-165665509D01*
X199155119Y-165665509D02*
X199117024Y-165589319D01*
X199117024Y-165589319D02*
X199078928Y-165436938D01*
X199078928Y-165436938D02*
X199078928Y-165322652D01*
X199078928Y-165322652D02*
X199117024Y-165170271D01*
X199117024Y-165170271D02*
X199155119Y-165094080D01*
X199155119Y-165094080D02*
X199231309Y-165017890D01*
X199231309Y-165017890D02*
X199345595Y-164979795D01*
X199345595Y-164979795D02*
X199421786Y-164979795D01*
X199421786Y-164979795D02*
X199536071Y-165017890D01*
X199536071Y-165017890D02*
X199574167Y-165055985D01*
X199840833Y-164979795D02*
X200336071Y-164979795D01*
X200336071Y-164979795D02*
X200069405Y-165284557D01*
X200069405Y-165284557D02*
X200183690Y-165284557D01*
X200183690Y-165284557D02*
X200259881Y-165322652D01*
X200259881Y-165322652D02*
X200297976Y-165360747D01*
X200297976Y-165360747D02*
X200336071Y-165436938D01*
X200336071Y-165436938D02*
X200336071Y-165627414D01*
X200336071Y-165627414D02*
X200297976Y-165703604D01*
X200297976Y-165703604D02*
X200259881Y-165741700D01*
X200259881Y-165741700D02*
X200183690Y-165779795D01*
X200183690Y-165779795D02*
X199955119Y-165779795D01*
X199955119Y-165779795D02*
X199878928Y-165741700D01*
X199878928Y-165741700D02*
X199840833Y-165703604D01*
X208459166Y-94977295D02*
X208078214Y-94977295D01*
X208078214Y-94977295D02*
X208078214Y-94177295D01*
X208649642Y-94177295D02*
X209144880Y-94177295D01*
X209144880Y-94177295D02*
X208878214Y-94482057D01*
X208878214Y-94482057D02*
X208992499Y-94482057D01*
X208992499Y-94482057D02*
X209068690Y-94520152D01*
X209068690Y-94520152D02*
X209106785Y-94558247D01*
X209106785Y-94558247D02*
X209144880Y-94634438D01*
X209144880Y-94634438D02*
X209144880Y-94824914D01*
X209144880Y-94824914D02*
X209106785Y-94901104D01*
X209106785Y-94901104D02*
X209068690Y-94939200D01*
X209068690Y-94939200D02*
X208992499Y-94977295D01*
X208992499Y-94977295D02*
X208763928Y-94977295D01*
X208763928Y-94977295D02*
X208687737Y-94939200D01*
X208687737Y-94939200D02*
X208649642Y-94901104D01*
X237655419Y-194583207D02*
X237607800Y-194535588D01*
X237607800Y-194535588D02*
X237560180Y-194392731D01*
X237560180Y-194392731D02*
X237560180Y-194297493D01*
X237560180Y-194297493D02*
X237607800Y-194154636D01*
X237607800Y-194154636D02*
X237703038Y-194059398D01*
X237703038Y-194059398D02*
X237798276Y-194011779D01*
X237798276Y-194011779D02*
X237988752Y-193964160D01*
X237988752Y-193964160D02*
X238131609Y-193964160D01*
X238131609Y-193964160D02*
X238322085Y-194011779D01*
X238322085Y-194011779D02*
X238417323Y-194059398D01*
X238417323Y-194059398D02*
X238512561Y-194154636D01*
X238512561Y-194154636D02*
X238560180Y-194297493D01*
X238560180Y-194297493D02*
X238560180Y-194392731D01*
X238560180Y-194392731D02*
X238512561Y-194535588D01*
X238512561Y-194535588D02*
X238464942Y-194583207D01*
X238560180Y-195202255D02*
X238560180Y-195392731D01*
X238560180Y-195392731D02*
X238512561Y-195487969D01*
X238512561Y-195487969D02*
X238417323Y-195583207D01*
X238417323Y-195583207D02*
X238226847Y-195630826D01*
X238226847Y-195630826D02*
X237893514Y-195630826D01*
X237893514Y-195630826D02*
X237703038Y-195583207D01*
X237703038Y-195583207D02*
X237607800Y-195487969D01*
X237607800Y-195487969D02*
X237560180Y-195392731D01*
X237560180Y-195392731D02*
X237560180Y-195202255D01*
X237560180Y-195202255D02*
X237607800Y-195107017D01*
X237607800Y-195107017D02*
X237703038Y-195011779D01*
X237703038Y-195011779D02*
X237893514Y-194964160D01*
X237893514Y-194964160D02*
X238226847Y-194964160D01*
X238226847Y-194964160D02*
X238417323Y-195011779D01*
X238417323Y-195011779D02*
X238512561Y-195107017D01*
X238512561Y-195107017D02*
X238560180Y-195202255D01*
X237560180Y-196059398D02*
X238560180Y-196059398D01*
X238560180Y-196059398D02*
X237560180Y-196630826D01*
X237560180Y-196630826D02*
X238560180Y-196630826D01*
X237941133Y-197107017D02*
X237941133Y-197868922D01*
X238560180Y-198535588D02*
X238560180Y-198630826D01*
X238560180Y-198630826D02*
X238512561Y-198726064D01*
X238512561Y-198726064D02*
X238464942Y-198773683D01*
X238464942Y-198773683D02*
X238369704Y-198821302D01*
X238369704Y-198821302D02*
X238179228Y-198868921D01*
X238179228Y-198868921D02*
X237941133Y-198868921D01*
X237941133Y-198868921D02*
X237750657Y-198821302D01*
X237750657Y-198821302D02*
X237655419Y-198773683D01*
X237655419Y-198773683D02*
X237607800Y-198726064D01*
X237607800Y-198726064D02*
X237560180Y-198630826D01*
X237560180Y-198630826D02*
X237560180Y-198535588D01*
X237560180Y-198535588D02*
X237607800Y-198440350D01*
X237607800Y-198440350D02*
X237655419Y-198392731D01*
X237655419Y-198392731D02*
X237750657Y-198345112D01*
X237750657Y-198345112D02*
X237941133Y-198297493D01*
X237941133Y-198297493D02*
X238179228Y-198297493D01*
X238179228Y-198297493D02*
X238369704Y-198345112D01*
X238369704Y-198345112D02*
X238464942Y-198392731D01*
X238464942Y-198392731D02*
X238512561Y-198440350D01*
X238512561Y-198440350D02*
X238560180Y-198535588D01*
X237560180Y-199821302D02*
X237560180Y-199249874D01*
X237560180Y-199535588D02*
X238560180Y-199535588D01*
X238560180Y-199535588D02*
X238417323Y-199440350D01*
X238417323Y-199440350D02*
X238322085Y-199345112D01*
X238322085Y-199345112D02*
X238274466Y-199249874D01*
X208464166Y-51479795D02*
X208083214Y-51479795D01*
X208083214Y-51479795D02*
X208083214Y-50679795D01*
X209073690Y-50679795D02*
X208921309Y-50679795D01*
X208921309Y-50679795D02*
X208845118Y-50717890D01*
X208845118Y-50717890D02*
X208807023Y-50755985D01*
X208807023Y-50755985D02*
X208730833Y-50870271D01*
X208730833Y-50870271D02*
X208692737Y-51022652D01*
X208692737Y-51022652D02*
X208692737Y-51327414D01*
X208692737Y-51327414D02*
X208730833Y-51403604D01*
X208730833Y-51403604D02*
X208768928Y-51441700D01*
X208768928Y-51441700D02*
X208845118Y-51479795D01*
X208845118Y-51479795D02*
X208997499Y-51479795D01*
X208997499Y-51479795D02*
X209073690Y-51441700D01*
X209073690Y-51441700D02*
X209111785Y-51403604D01*
X209111785Y-51403604D02*
X209149880Y-51327414D01*
X209149880Y-51327414D02*
X209149880Y-51136938D01*
X209149880Y-51136938D02*
X209111785Y-51060747D01*
X209111785Y-51060747D02*
X209073690Y-51022652D01*
X209073690Y-51022652D02*
X208997499Y-50984557D01*
X208997499Y-50984557D02*
X208845118Y-50984557D01*
X208845118Y-50984557D02*
X208768928Y-51022652D01*
X208768928Y-51022652D02*
X208730833Y-51060747D01*
X208730833Y-51060747D02*
X208692737Y-51136938D01*
X183084405Y-124954819D02*
X183084405Y-123954819D01*
X183655833Y-124954819D02*
X183227262Y-124383390D01*
X183655833Y-123954819D02*
X183084405Y-124526247D01*
X184608214Y-124954819D02*
X184036786Y-124954819D01*
X184322500Y-124954819D02*
X184322500Y-123954819D01*
X184322500Y-123954819D02*
X184227262Y-124097676D01*
X184227262Y-124097676D02*
X184132024Y-124192914D01*
X184132024Y-124192914D02*
X184036786Y-124240533D01*
X199574167Y-155543604D02*
X199536071Y-155581700D01*
X199536071Y-155581700D02*
X199421786Y-155619795D01*
X199421786Y-155619795D02*
X199345595Y-155619795D01*
X199345595Y-155619795D02*
X199231309Y-155581700D01*
X199231309Y-155581700D02*
X199155119Y-155505509D01*
X199155119Y-155505509D02*
X199117024Y-155429319D01*
X199117024Y-155429319D02*
X199078928Y-155276938D01*
X199078928Y-155276938D02*
X199078928Y-155162652D01*
X199078928Y-155162652D02*
X199117024Y-155010271D01*
X199117024Y-155010271D02*
X199155119Y-154934080D01*
X199155119Y-154934080D02*
X199231309Y-154857890D01*
X199231309Y-154857890D02*
X199345595Y-154819795D01*
X199345595Y-154819795D02*
X199421786Y-154819795D01*
X199421786Y-154819795D02*
X199536071Y-154857890D01*
X199536071Y-154857890D02*
X199574167Y-154895985D01*
X200259881Y-155086461D02*
X200259881Y-155619795D01*
X200069405Y-154781700D02*
X199878928Y-155353128D01*
X199878928Y-155353128D02*
X200374167Y-155353128D01*
X216897295Y-191903333D02*
X216897295Y-192284285D01*
X216897295Y-192284285D02*
X216097295Y-192284285D01*
X216097295Y-191712857D02*
X216097295Y-191179523D01*
X216097295Y-191179523D02*
X216897295Y-191522381D01*
X208459166Y-127679795D02*
X208078214Y-127679795D01*
X208078214Y-127679795D02*
X208078214Y-126879795D01*
X208687737Y-126955985D02*
X208725833Y-126917890D01*
X208725833Y-126917890D02*
X208802023Y-126879795D01*
X208802023Y-126879795D02*
X208992499Y-126879795D01*
X208992499Y-126879795D02*
X209068690Y-126917890D01*
X209068690Y-126917890D02*
X209106785Y-126955985D01*
X209106785Y-126955985D02*
X209144880Y-127032176D01*
X209144880Y-127032176D02*
X209144880Y-127108366D01*
X209144880Y-127108366D02*
X209106785Y-127222652D01*
X209106785Y-127222652D02*
X208649642Y-127679795D01*
X208649642Y-127679795D02*
X209144880Y-127679795D01*
X150567080Y-95764166D02*
X150614700Y-95811785D01*
X150614700Y-95811785D02*
X150662319Y-95954642D01*
X150662319Y-95954642D02*
X150662319Y-96049880D01*
X150662319Y-96049880D02*
X150614700Y-96192737D01*
X150614700Y-96192737D02*
X150519461Y-96287975D01*
X150519461Y-96287975D02*
X150424223Y-96335594D01*
X150424223Y-96335594D02*
X150233747Y-96383213D01*
X150233747Y-96383213D02*
X150090890Y-96383213D01*
X150090890Y-96383213D02*
X149900414Y-96335594D01*
X149900414Y-96335594D02*
X149805176Y-96287975D01*
X149805176Y-96287975D02*
X149709938Y-96192737D01*
X149709938Y-96192737D02*
X149662319Y-96049880D01*
X149662319Y-96049880D02*
X149662319Y-95954642D01*
X149662319Y-95954642D02*
X149709938Y-95811785D01*
X149709938Y-95811785D02*
X149757557Y-95764166D01*
X149662319Y-94859404D02*
X149662319Y-95335594D01*
X149662319Y-95335594D02*
X150138509Y-95383213D01*
X150138509Y-95383213D02*
X150090890Y-95335594D01*
X150090890Y-95335594D02*
X150043271Y-95240356D01*
X150043271Y-95240356D02*
X150043271Y-95002261D01*
X150043271Y-95002261D02*
X150090890Y-94907023D01*
X150090890Y-94907023D02*
X150138509Y-94859404D01*
X150138509Y-94859404D02*
X150233747Y-94811785D01*
X150233747Y-94811785D02*
X150471842Y-94811785D01*
X150471842Y-94811785D02*
X150567080Y-94859404D01*
X150567080Y-94859404D02*
X150614700Y-94907023D01*
X150614700Y-94907023D02*
X150662319Y-95002261D01*
X150662319Y-95002261D02*
X150662319Y-95240356D01*
X150662319Y-95240356D02*
X150614700Y-95335594D01*
X150614700Y-95335594D02*
X150567080Y-95383213D01*
X195164405Y-76972319D02*
X195164405Y-75972319D01*
X195164405Y-75972319D02*
X195402500Y-75972319D01*
X195402500Y-75972319D02*
X195545357Y-76019938D01*
X195545357Y-76019938D02*
X195640595Y-76115176D01*
X195640595Y-76115176D02*
X195688214Y-76210414D01*
X195688214Y-76210414D02*
X195735833Y-76400890D01*
X195735833Y-76400890D02*
X195735833Y-76543747D01*
X195735833Y-76543747D02*
X195688214Y-76734223D01*
X195688214Y-76734223D02*
X195640595Y-76829461D01*
X195640595Y-76829461D02*
X195545357Y-76924700D01*
X195545357Y-76924700D02*
X195402500Y-76972319D01*
X195402500Y-76972319D02*
X195164405Y-76972319D01*
X196592976Y-76305652D02*
X196592976Y-76972319D01*
X196354881Y-75924700D02*
X196116786Y-76638985D01*
X196116786Y-76638985D02*
X196735833Y-76638985D01*
X228192261Y-99292557D02*
X228097023Y-99244938D01*
X228097023Y-99244938D02*
X228001785Y-99149700D01*
X228001785Y-99149700D02*
X227858928Y-99006842D01*
X227858928Y-99006842D02*
X227763690Y-98959223D01*
X227763690Y-98959223D02*
X227668452Y-98959223D01*
X227716071Y-99197319D02*
X227620833Y-99149700D01*
X227620833Y-99149700D02*
X227525595Y-99054461D01*
X227525595Y-99054461D02*
X227477976Y-98863985D01*
X227477976Y-98863985D02*
X227477976Y-98530652D01*
X227477976Y-98530652D02*
X227525595Y-98340176D01*
X227525595Y-98340176D02*
X227620833Y-98244938D01*
X227620833Y-98244938D02*
X227716071Y-98197319D01*
X227716071Y-98197319D02*
X227906547Y-98197319D01*
X227906547Y-98197319D02*
X228001785Y-98244938D01*
X228001785Y-98244938D02*
X228097023Y-98340176D01*
X228097023Y-98340176D02*
X228144642Y-98530652D01*
X228144642Y-98530652D02*
X228144642Y-98863985D01*
X228144642Y-98863985D02*
X228097023Y-99054461D01*
X228097023Y-99054461D02*
X228001785Y-99149700D01*
X228001785Y-99149700D02*
X227906547Y-99197319D01*
X227906547Y-99197319D02*
X227716071Y-99197319D01*
X228525595Y-98292557D02*
X228573214Y-98244938D01*
X228573214Y-98244938D02*
X228668452Y-98197319D01*
X228668452Y-98197319D02*
X228906547Y-98197319D01*
X228906547Y-98197319D02*
X229001785Y-98244938D01*
X229001785Y-98244938D02*
X229049404Y-98292557D01*
X229049404Y-98292557D02*
X229097023Y-98387795D01*
X229097023Y-98387795D02*
X229097023Y-98483033D01*
X229097023Y-98483033D02*
X229049404Y-98625890D01*
X229049404Y-98625890D02*
X228477976Y-99197319D01*
X228477976Y-99197319D02*
X229097023Y-99197319D01*
X154913604Y-51650832D02*
X154951700Y-51688928D01*
X154951700Y-51688928D02*
X154989795Y-51803213D01*
X154989795Y-51803213D02*
X154989795Y-51879404D01*
X154989795Y-51879404D02*
X154951700Y-51993690D01*
X154951700Y-51993690D02*
X154875509Y-52069880D01*
X154875509Y-52069880D02*
X154799319Y-52107975D01*
X154799319Y-52107975D02*
X154646938Y-52146071D01*
X154646938Y-52146071D02*
X154532652Y-52146071D01*
X154532652Y-52146071D02*
X154380271Y-52107975D01*
X154380271Y-52107975D02*
X154304080Y-52069880D01*
X154304080Y-52069880D02*
X154227890Y-51993690D01*
X154227890Y-51993690D02*
X154189795Y-51879404D01*
X154189795Y-51879404D02*
X154189795Y-51803213D01*
X154189795Y-51803213D02*
X154227890Y-51688928D01*
X154227890Y-51688928D02*
X154265985Y-51650832D01*
X154989795Y-50850832D02*
X154608842Y-51117499D01*
X154989795Y-51307975D02*
X154189795Y-51307975D01*
X154189795Y-51307975D02*
X154189795Y-51003213D01*
X154189795Y-51003213D02*
X154227890Y-50927023D01*
X154227890Y-50927023D02*
X154265985Y-50888928D01*
X154265985Y-50888928D02*
X154342176Y-50850832D01*
X154342176Y-50850832D02*
X154456461Y-50850832D01*
X154456461Y-50850832D02*
X154532652Y-50888928D01*
X154532652Y-50888928D02*
X154570747Y-50927023D01*
X154570747Y-50927023D02*
X154608842Y-51003213D01*
X154608842Y-51003213D02*
X154608842Y-51307975D01*
X154989795Y-50088928D02*
X154989795Y-50546071D01*
X154989795Y-50317499D02*
X154189795Y-50317499D01*
X154189795Y-50317499D02*
X154304080Y-50393690D01*
X154304080Y-50393690D02*
X154380271Y-50469880D01*
X154380271Y-50469880D02*
X154418366Y-50546071D01*
X219529819Y-186856666D02*
X219053628Y-187189999D01*
X219529819Y-187428094D02*
X218529819Y-187428094D01*
X218529819Y-187428094D02*
X218529819Y-187047142D01*
X218529819Y-187047142D02*
X218577438Y-186951904D01*
X218577438Y-186951904D02*
X218625057Y-186904285D01*
X218625057Y-186904285D02*
X218720295Y-186856666D01*
X218720295Y-186856666D02*
X218863152Y-186856666D01*
X218863152Y-186856666D02*
X218958390Y-186904285D01*
X218958390Y-186904285D02*
X219006009Y-186951904D01*
X219006009Y-186951904D02*
X219053628Y-187047142D01*
X219053628Y-187047142D02*
X219053628Y-187428094D01*
X218529819Y-185951904D02*
X218529819Y-186428094D01*
X218529819Y-186428094D02*
X219006009Y-186475713D01*
X219006009Y-186475713D02*
X218958390Y-186428094D01*
X218958390Y-186428094D02*
X218910771Y-186332856D01*
X218910771Y-186332856D02*
X218910771Y-186094761D01*
X218910771Y-186094761D02*
X218958390Y-185999523D01*
X218958390Y-185999523D02*
X219006009Y-185951904D01*
X219006009Y-185951904D02*
X219101247Y-185904285D01*
X219101247Y-185904285D02*
X219339342Y-185904285D01*
X219339342Y-185904285D02*
X219434580Y-185951904D01*
X219434580Y-185951904D02*
X219482200Y-185999523D01*
X219482200Y-185999523D02*
X219529819Y-186094761D01*
X219529819Y-186094761D02*
X219529819Y-186332856D01*
X219529819Y-186332856D02*
X219482200Y-186428094D01*
X219482200Y-186428094D02*
X219434580Y-186475713D01*
X183084405Y-96062319D02*
X183084405Y-95062319D01*
X183655833Y-96062319D02*
X183227262Y-95490890D01*
X183655833Y-95062319D02*
X183084405Y-95633747D01*
X184036786Y-95157557D02*
X184084405Y-95109938D01*
X184084405Y-95109938D02*
X184179643Y-95062319D01*
X184179643Y-95062319D02*
X184417738Y-95062319D01*
X184417738Y-95062319D02*
X184512976Y-95109938D01*
X184512976Y-95109938D02*
X184560595Y-95157557D01*
X184560595Y-95157557D02*
X184608214Y-95252795D01*
X184608214Y-95252795D02*
X184608214Y-95348033D01*
X184608214Y-95348033D02*
X184560595Y-95490890D01*
X184560595Y-95490890D02*
X183989167Y-96062319D01*
X183989167Y-96062319D02*
X184608214Y-96062319D01*
D12*
%TO.C,L1*%
X202217500Y-132715000D02*
X203727500Y-132715000D01*
X203727500Y-130595000D02*
X203727500Y-134835000D01*
X203727500Y-134835000D02*
X213467500Y-134835000D01*
X213467500Y-130595000D02*
X203727500Y-130595000D01*
X213467500Y-134835000D02*
X213467500Y-130595000D01*
X214977500Y-132715000D02*
X213467500Y-132715000D01*
%TO.C,Q3*%
X225462500Y-43047500D02*
X225462500Y-59187500D01*
X230733500Y-43047500D02*
X225462500Y-43047500D01*
X230733500Y-43047500D02*
X230733500Y-59187500D01*
X230733500Y-49313500D02*
X225462500Y-49313500D01*
X230733500Y-52922500D02*
X225462500Y-52922500D01*
X230733500Y-59187500D02*
X225462500Y-59187500D01*
D11*
%TO.C,HS2*%
X167085000Y-35117500D02*
X168835000Y-35117500D01*
X167085000Y-67117500D02*
X167085000Y-35117500D01*
X167335000Y-49367500D02*
X167085000Y-49367500D01*
X167335000Y-52867500D02*
X167085000Y-52867500D01*
X167835000Y-49367500D02*
X168335000Y-49367500D01*
X167835000Y-52867500D02*
X168335000Y-52867500D01*
X168835000Y-40617500D02*
X168835000Y-35117500D01*
X168835000Y-40617500D02*
X171085000Y-40617500D01*
X168835000Y-49367500D02*
X169335000Y-49367500D01*
X168835000Y-52867500D02*
X169335000Y-52867500D01*
X168835000Y-61617500D02*
X168835000Y-67117500D01*
X168835000Y-61617500D02*
X171085000Y-61617500D01*
X168835000Y-67117500D02*
X167085000Y-67117500D01*
X169835000Y-49367500D02*
X170085000Y-49367500D01*
X169835000Y-52867500D02*
X170085000Y-52867500D01*
X170085000Y-43617500D02*
X171085000Y-43617500D01*
X170085000Y-58617500D02*
X170085000Y-43617500D01*
X170085000Y-58617500D02*
X171085000Y-58617500D01*
X171085000Y-35117500D02*
X173085000Y-35117500D01*
X171085000Y-40617500D02*
X171085000Y-35117500D01*
X171085000Y-61617500D02*
X171085000Y-67117500D01*
X171085000Y-67117500D02*
X173085000Y-67117500D01*
X173085000Y-40617500D02*
X173085000Y-35117500D01*
X173085000Y-40617500D02*
X175085000Y-40617500D01*
X173085000Y-43617500D02*
X181085000Y-43617500D01*
X173085000Y-58617500D02*
X181085000Y-58617500D01*
X173085000Y-61617500D02*
X175085000Y-61617500D01*
X173085000Y-67117500D02*
X173085000Y-61617500D01*
X175085000Y-35117500D02*
X177085000Y-35117500D01*
X175085000Y-40617500D02*
X175085000Y-35117500D01*
X175085000Y-61617500D02*
X175085000Y-67117500D01*
X175085000Y-67117500D02*
X177085000Y-67117500D01*
X177085000Y-40617500D02*
X177085000Y-35117500D01*
X177085000Y-40617500D02*
X179085000Y-40617500D01*
X177085000Y-61617500D02*
X179085000Y-61617500D01*
X177085000Y-67117500D02*
X177085000Y-61617500D01*
X179085000Y-35117500D02*
X181085000Y-35117500D01*
X179085000Y-40617500D02*
X179085000Y-35117500D01*
X179085000Y-61617500D02*
X179085000Y-67117500D01*
X179085000Y-67117500D02*
X181085000Y-67117500D01*
X181085000Y-43617500D02*
X181085000Y-35117500D01*
X181085000Y-58617500D02*
X181085000Y-67117500D01*
D12*
%TO.C,D7*%
X210455000Y-196850000D02*
X211915000Y-196850000D01*
X211915000Y-194080000D02*
X211915000Y-199620000D01*
X211915000Y-199620000D02*
X221155000Y-199620000D01*
X213265000Y-194080000D02*
X213265000Y-199620000D01*
X213385000Y-194080000D02*
X213385000Y-199620000D01*
X213505000Y-194080000D02*
X213505000Y-199620000D01*
X221155000Y-194080000D02*
X211915000Y-194080000D01*
X221155000Y-199620000D02*
X221155000Y-194080000D01*
X222615000Y-196850000D02*
X221155000Y-196850000D01*
%TO.C,J9*%
X121197500Y-104502500D02*
X122197500Y-104502500D01*
X121197500Y-115842500D02*
X121197500Y-104502500D01*
X122197500Y-104502500D02*
X122197500Y-115842500D01*
X122197500Y-104502500D02*
X132167500Y-104502500D01*
X128457500Y-104212500D02*
X124457500Y-104212500D01*
X131767500Y-106782500D02*
X131767500Y-109482500D01*
X131767500Y-109482500D02*
X132167500Y-109482500D01*
X132167500Y-104502500D02*
X132167500Y-106782500D01*
X132167500Y-106782500D02*
X131767500Y-106782500D01*
X132167500Y-109482500D02*
X132167500Y-115842500D01*
X132167500Y-115842500D02*
X121197500Y-115842500D01*
%TO.C,Q1*%
X225462500Y-119247500D02*
X225462500Y-135387500D01*
X230733500Y-119247500D02*
X225462500Y-119247500D01*
X230733500Y-119247500D02*
X230733500Y-135387500D01*
X230733500Y-125513500D02*
X225462500Y-125513500D01*
X230733500Y-129122500D02*
X225462500Y-129122500D01*
X230733500Y-135387500D02*
X225462500Y-135387500D01*
%TO.C,L5*%
X202222500Y-56515000D02*
X203732500Y-56515000D01*
X203732500Y-54395000D02*
X203732500Y-58635000D01*
X203732500Y-58635000D02*
X213472500Y-58635000D01*
X213472500Y-54395000D02*
X203732500Y-54395000D01*
X213472500Y-58635000D02*
X213472500Y-54395000D01*
X214982500Y-56515000D02*
X213472500Y-56515000D01*
%TO.C,D9*%
X187187500Y-82682500D02*
X187187500Y-86922500D01*
X187187500Y-86922500D02*
X189427500Y-86922500D01*
X188307500Y-82032500D02*
X188307500Y-82682500D01*
X188307500Y-87572500D02*
X188307500Y-86922500D01*
X189427500Y-82682500D02*
X187187500Y-82682500D01*
X189427500Y-83282500D02*
X187187500Y-83282500D01*
X189427500Y-83402500D02*
X187187500Y-83402500D01*
X189427500Y-83522500D02*
X187187500Y-83522500D01*
X189427500Y-86922500D02*
X189427500Y-82682500D01*
%TO.C,D2*%
X220457500Y-91577500D02*
X220457500Y-97017500D01*
X220457500Y-97017500D02*
X223397500Y-97017500D01*
X221927500Y-90557500D02*
X221927500Y-91577500D01*
X221927500Y-98037500D02*
X221927500Y-97017500D01*
X223397500Y-91577500D02*
X220457500Y-91577500D01*
X223397500Y-92357500D02*
X220457500Y-92357500D01*
X223397500Y-92477500D02*
X220457500Y-92477500D01*
X223397500Y-92597500D02*
X220457500Y-92597500D01*
X223397500Y-97017500D02*
X223397500Y-91577500D01*
%TO.C,R1*%
X202417500Y-121920000D02*
X203527500Y-121920000D01*
X203527500Y-120000000D02*
X203527500Y-123840000D01*
X203527500Y-123840000D02*
X213667500Y-123840000D01*
X213667500Y-120000000D02*
X203527500Y-120000000D01*
X213667500Y-123840000D02*
X213667500Y-120000000D01*
X214777500Y-121920000D02*
X213667500Y-121920000D01*
%TO.C,D5*%
X189822500Y-63817500D02*
X191282500Y-63817500D01*
X191282500Y-61047500D02*
X191282500Y-66587500D01*
X191282500Y-66587500D02*
X200522500Y-66587500D01*
X192632500Y-61047500D02*
X192632500Y-66587500D01*
X192752500Y-61047500D02*
X192752500Y-66587500D01*
X192872500Y-61047500D02*
X192872500Y-66587500D01*
X200522500Y-61047500D02*
X191282500Y-61047500D01*
X200522500Y-66587500D02*
X200522500Y-61047500D01*
X201982500Y-63817500D02*
X200522500Y-63817500D01*
%TO.C,R4*%
X207682500Y-211450000D02*
X207682500Y-215290000D01*
X207682500Y-215290000D02*
X209522500Y-215290000D01*
X208602500Y-210500000D02*
X208602500Y-211450000D01*
X208602500Y-216240000D02*
X208602500Y-215290000D01*
X209522500Y-211450000D02*
X207682500Y-211450000D01*
X209522500Y-215290000D02*
X209522500Y-211450000D01*
%TO.C,R2*%
X202412500Y-83820000D02*
X203522500Y-83820000D01*
X203522500Y-81900000D02*
X203522500Y-85740000D01*
X203522500Y-85740000D02*
X213662500Y-85740000D01*
X213662500Y-81900000D02*
X203522500Y-81900000D01*
X213662500Y-85740000D02*
X213662500Y-81900000D01*
X214772500Y-83820000D02*
X213662500Y-83820000D01*
D11*
%TO.C,HS1*%
X150575000Y-35117500D02*
X152325000Y-35117500D01*
X150575000Y-67117500D02*
X150575000Y-35117500D01*
X150825000Y-49367500D02*
X150575000Y-49367500D01*
X150825000Y-52867500D02*
X150575000Y-52867500D01*
X151325000Y-49367500D02*
X151825000Y-49367500D01*
X151325000Y-52867500D02*
X151825000Y-52867500D01*
X152325000Y-40617500D02*
X152325000Y-35117500D01*
X152325000Y-40617500D02*
X154575000Y-40617500D01*
X152325000Y-49367500D02*
X152825000Y-49367500D01*
X152325000Y-52867500D02*
X152825000Y-52867500D01*
X152325000Y-61617500D02*
X152325000Y-67117500D01*
X152325000Y-61617500D02*
X154575000Y-61617500D01*
X152325000Y-67117500D02*
X150575000Y-67117500D01*
X153325000Y-49367500D02*
X153575000Y-49367500D01*
X153325000Y-52867500D02*
X153575000Y-52867500D01*
X153575000Y-43617500D02*
X154575000Y-43617500D01*
X153575000Y-58617500D02*
X153575000Y-43617500D01*
X153575000Y-58617500D02*
X154575000Y-58617500D01*
X154575000Y-35117500D02*
X156575000Y-35117500D01*
X154575000Y-40617500D02*
X154575000Y-35117500D01*
X154575000Y-61617500D02*
X154575000Y-67117500D01*
X154575000Y-67117500D02*
X156575000Y-67117500D01*
X156575000Y-40617500D02*
X156575000Y-35117500D01*
X156575000Y-40617500D02*
X158575000Y-40617500D01*
X156575000Y-43617500D02*
X164575000Y-43617500D01*
X156575000Y-58617500D02*
X164575000Y-58617500D01*
X156575000Y-61617500D02*
X158575000Y-61617500D01*
X156575000Y-67117500D02*
X156575000Y-61617500D01*
X158575000Y-35117500D02*
X160575000Y-35117500D01*
X158575000Y-40617500D02*
X158575000Y-35117500D01*
X158575000Y-61617500D02*
X158575000Y-67117500D01*
X158575000Y-67117500D02*
X160575000Y-67117500D01*
X160575000Y-40617500D02*
X160575000Y-35117500D01*
X160575000Y-40617500D02*
X162575000Y-40617500D01*
X160575000Y-61617500D02*
X162575000Y-61617500D01*
X160575000Y-67117500D02*
X160575000Y-61617500D01*
X162575000Y-35117500D02*
X164575000Y-35117500D01*
X162575000Y-40617500D02*
X162575000Y-35117500D01*
X162575000Y-61617500D02*
X162575000Y-67117500D01*
X162575000Y-67117500D02*
X164575000Y-67117500D01*
X164575000Y-43617500D02*
X164575000Y-35117500D01*
X164575000Y-58617500D02*
X164575000Y-67117500D01*
D12*
%TO.C,C6*%
X140707500Y-88977500D02*
X140707500Y-102217500D01*
X146947500Y-88977500D02*
X140707500Y-88977500D01*
X146947500Y-88977500D02*
X146947500Y-102217500D01*
X146947500Y-102217500D02*
X140707500Y-102217500D01*
D10*
%TO.C,U2*%
X128587500Y-142875000D02*
X138747500Y-142875000D01*
X128587500Y-156845000D02*
X128587500Y-142875000D01*
X138747500Y-142875000D02*
X138747500Y-128905000D01*
X138747500Y-156845000D02*
X128587500Y-156845000D01*
X138747500Y-156845000D02*
X138747500Y-227330000D01*
X146367500Y-130810000D02*
X146367500Y-140970000D01*
X146367500Y-140970000D02*
X151447500Y-140970000D01*
X146367500Y-202247500D02*
X146367500Y-214947500D01*
X146367500Y-214947500D02*
X151447500Y-214947500D01*
X151447500Y-128905000D02*
X151447500Y-227330000D01*
X151447500Y-130810000D02*
X146367500Y-130810000D01*
X151447500Y-140970000D02*
X151447500Y-202247500D01*
X151447500Y-202247500D02*
X146367500Y-202247500D01*
X155257500Y-128905000D02*
X138747500Y-128905000D01*
X155257500Y-128905000D02*
X155257500Y-227330000D01*
X155257500Y-227330000D02*
X138747500Y-227330000D01*
D12*
%TO.C,CR2*%
X170407500Y-45997500D02*
X175048500Y-45997500D01*
X170407500Y-49266500D02*
X171917500Y-49266500D01*
X170407500Y-52967500D02*
X171917500Y-52967500D01*
X170407500Y-56237500D02*
X170407500Y-45997500D01*
X170407500Y-56237500D02*
X175048500Y-56237500D01*
X171917500Y-56237500D02*
X171917500Y-45997500D01*
X175048500Y-56237500D02*
X175048500Y-45997500D01*
%TO.C,J8*%
X121197500Y-75610000D02*
X122197500Y-75610000D01*
X121197500Y-86950000D02*
X121197500Y-75610000D01*
X122197500Y-75610000D02*
X122197500Y-86950000D01*
X122197500Y-75610000D02*
X132167500Y-75610000D01*
X128457500Y-75320000D02*
X124457500Y-75320000D01*
X131767500Y-77890000D02*
X131767500Y-80590000D01*
X131767500Y-80590000D02*
X132167500Y-80590000D01*
X132167500Y-75610000D02*
X132167500Y-77890000D01*
X132167500Y-77890000D02*
X131767500Y-77890000D01*
X132167500Y-80590000D02*
X132167500Y-86950000D01*
X132167500Y-86950000D02*
X121197500Y-86950000D01*
%TO.C,D1*%
X220462500Y-129677500D02*
X220462500Y-135117500D01*
X220462500Y-135117500D02*
X223402500Y-135117500D01*
X221932500Y-128657500D02*
X221932500Y-129677500D01*
X221932500Y-136137500D02*
X221932500Y-135117500D01*
X223402500Y-129677500D02*
X220462500Y-129677500D01*
X223402500Y-130457500D02*
X220462500Y-130457500D01*
X223402500Y-130577500D02*
X220462500Y-130577500D01*
X223402500Y-130697500D02*
X220462500Y-130697500D01*
X223402500Y-135117500D02*
X223402500Y-129677500D01*
%TO.C,U4*%
X202127500Y-208220000D02*
X202127500Y-218500000D01*
X202127500Y-218500000D02*
X207447500Y-218500000D01*
X202187500Y-210710000D02*
X202187500Y-212360000D01*
X202187500Y-214360000D02*
X202187500Y-216010000D01*
X202187500Y-216010000D02*
X207387500Y-216010000D01*
X207387500Y-210710000D02*
X202187500Y-210710000D01*
X207387500Y-216010000D02*
X207387500Y-210710000D01*
X207447500Y-208220000D02*
X202127500Y-208220000D01*
X207447500Y-218500000D02*
X207447500Y-208220000D01*
X202187500Y-212360000D02*
G75*
G02*
X202187500Y-214360000I0J-1000000D01*
G01*
%TO.C,R3*%
X202417500Y-45720000D02*
X203527500Y-45720000D01*
X203527500Y-43800000D02*
X203527500Y-47640000D01*
X203527500Y-47640000D02*
X213667500Y-47640000D01*
X213667500Y-43800000D02*
X203527500Y-43800000D01*
X213667500Y-47640000D02*
X213667500Y-43800000D01*
X214777500Y-45720000D02*
X213667500Y-45720000D01*
%TO.C,C1*%
X197837500Y-137250000D02*
X201577500Y-137250000D01*
X197837500Y-144690000D02*
X197837500Y-137250000D01*
X197837500Y-144690000D02*
X201577500Y-144690000D01*
X201577500Y-144690000D02*
X201577500Y-137250000D01*
%TO.C,U1*%
X202187500Y-138320000D02*
X202187500Y-139970000D01*
X202187500Y-141970000D02*
X202187500Y-143620000D01*
X202187500Y-143620000D02*
X212467500Y-143620000D01*
X212467500Y-138320000D02*
X202187500Y-138320000D01*
X212467500Y-143620000D02*
X212467500Y-138320000D01*
X202187500Y-139970000D02*
G75*
G02*
X202187500Y-141970000I0J-1000000D01*
G01*
%TO.C,D8*%
X187187500Y-111575000D02*
X187187500Y-115815000D01*
X187187500Y-115815000D02*
X189427500Y-115815000D01*
X188307500Y-110925000D02*
X188307500Y-111575000D01*
X188307500Y-116465000D02*
X188307500Y-115815000D01*
X189427500Y-111575000D02*
X187187500Y-111575000D01*
X189427500Y-112175000D02*
X187187500Y-112175000D01*
X189427500Y-112295000D02*
X187187500Y-112295000D01*
X189427500Y-112415000D02*
X187187500Y-112415000D01*
X189427500Y-115815000D02*
X189427500Y-111575000D01*
%TO.C,J3*%
X121012500Y-164025000D02*
X122012500Y-164025000D01*
X121012500Y-183285000D02*
X121012500Y-164025000D01*
X122012500Y-164025000D02*
X122012500Y-183285000D01*
X122012500Y-164025000D02*
X131982500Y-164025000D01*
X128272500Y-163735000D02*
X124272500Y-163735000D01*
X131582500Y-166305000D02*
X131582500Y-169005000D01*
X131582500Y-169005000D02*
X131982500Y-169005000D01*
X131982500Y-164025000D02*
X131982500Y-166305000D01*
X131982500Y-166305000D02*
X131582500Y-166305000D01*
X131982500Y-169005000D02*
X131982500Y-183285000D01*
X131982500Y-183285000D02*
X121012500Y-183285000D01*
%TO.C,D6*%
X189822500Y-70167500D02*
X191282500Y-70167500D01*
X191282500Y-67397500D02*
X191282500Y-72937500D01*
X191282500Y-72937500D02*
X200522500Y-72937500D01*
X198932500Y-72937500D02*
X198932500Y-67397500D01*
X199052500Y-72937500D02*
X199052500Y-67397500D01*
X199172500Y-72937500D02*
X199172500Y-67397500D01*
X200522500Y-67397500D02*
X191282500Y-67397500D01*
X200522500Y-72937500D02*
X200522500Y-67397500D01*
X201982500Y-70167500D02*
X200522500Y-70167500D01*
%TO.C,L4*%
X202217500Y-89217500D02*
X203727500Y-89217500D01*
X203727500Y-87097500D02*
X203727500Y-91337500D01*
X203727500Y-91337500D02*
X213467500Y-91337500D01*
X213467500Y-87097500D02*
X203727500Y-87097500D01*
X213467500Y-91337500D02*
X213467500Y-87097500D01*
X214977500Y-89217500D02*
X213467500Y-89217500D01*
%TO.C,C2*%
X222502001Y-146885000D02*
X222502001Y-182045000D01*
X222542001Y-146885000D02*
X222542001Y-182045000D01*
X222582001Y-146885000D02*
X222582001Y-182045000D01*
X222622001Y-146885000D02*
X222622001Y-182045000D01*
X222662001Y-146885000D02*
X222662001Y-182045000D01*
X222702001Y-146886000D02*
X222702001Y-182044000D01*
X222742001Y-146886000D02*
X222742001Y-182044000D01*
X222782001Y-146887000D02*
X222782001Y-182043000D01*
X222822001Y-146887000D02*
X222822001Y-182043000D01*
X222862001Y-146888000D02*
X222862001Y-182042000D01*
X222902001Y-146889000D02*
X222902001Y-182041000D01*
X222942001Y-146890000D02*
X222942001Y-182040000D01*
X222982001Y-146891000D02*
X222982001Y-182039000D01*
X223022001Y-146892000D02*
X223022001Y-182038000D01*
X223062001Y-146893000D02*
X223062001Y-182037000D01*
X223102001Y-146895000D02*
X223102001Y-182035000D01*
X223142001Y-146896000D02*
X223142001Y-182034000D01*
X223182001Y-146898000D02*
X223182001Y-182032000D01*
X223223001Y-146899000D02*
X223223001Y-182031000D01*
X223263001Y-146901000D02*
X223263001Y-182029000D01*
X223303001Y-146903000D02*
X223303001Y-182027000D01*
X223343001Y-146905000D02*
X223343001Y-182025000D01*
X223383001Y-146906000D02*
X223383001Y-182024000D01*
X223423001Y-146909000D02*
X223423001Y-182021000D01*
X223463001Y-146911000D02*
X223463001Y-182019000D01*
X223503001Y-146913000D02*
X223503001Y-182017000D01*
X223543001Y-146915000D02*
X223543001Y-182015000D01*
X223583001Y-146918000D02*
X223583001Y-182012000D01*
X223623001Y-146920000D02*
X223623001Y-182010000D01*
X223663001Y-146923000D02*
X223663001Y-182007000D01*
X223703001Y-146925000D02*
X223703001Y-182005000D01*
X223743001Y-146928000D02*
X223743001Y-182002000D01*
X223783001Y-146931000D02*
X223783001Y-181999000D01*
X223823001Y-146934000D02*
X223823001Y-181996000D01*
X223863001Y-146937000D02*
X223863001Y-181993000D01*
X223903001Y-146940000D02*
X223903001Y-181990000D01*
X223943001Y-146943000D02*
X223943001Y-181987000D01*
X223983001Y-146947000D02*
X223983001Y-181983000D01*
X224023001Y-146950000D02*
X224023001Y-181980000D01*
X224063001Y-146954000D02*
X224063001Y-181976000D01*
X224103001Y-146957000D02*
X224103001Y-181973000D01*
X224143001Y-146961000D02*
X224143001Y-181969000D01*
X224183001Y-146965000D02*
X224183001Y-181965000D01*
X224223001Y-146969000D02*
X224223001Y-181961000D01*
X224263001Y-146973000D02*
X224263001Y-181957000D01*
X224303001Y-146977000D02*
X224303001Y-181953000D01*
X224343001Y-146981000D02*
X224343001Y-181949000D01*
X224383001Y-146985000D02*
X224383001Y-181945000D01*
X224423001Y-146989000D02*
X224423001Y-181941000D01*
X224463001Y-146994000D02*
X224463001Y-181936000D01*
X224503001Y-146998000D02*
X224503001Y-181932000D01*
X224543001Y-147003000D02*
X224543001Y-181927000D01*
X224583001Y-147008000D02*
X224583001Y-181922000D01*
X224623001Y-147013000D02*
X224623001Y-181917000D01*
X224663001Y-147017000D02*
X224663001Y-181913000D01*
X224703001Y-147022000D02*
X224703001Y-181908000D01*
X224743001Y-147027000D02*
X224743001Y-181903000D01*
X224783001Y-147033000D02*
X224783001Y-181897000D01*
X224823001Y-147038000D02*
X224823001Y-181892000D01*
X224863001Y-147043000D02*
X224863001Y-181887000D01*
X224903001Y-147049000D02*
X224903001Y-181881000D01*
X224943001Y-147054000D02*
X224943001Y-181876000D01*
X224983001Y-147060000D02*
X224983001Y-181870000D01*
X225023001Y-147066000D02*
X225023001Y-181864000D01*
X225063001Y-147071000D02*
X225063001Y-181859000D01*
X225103001Y-147077000D02*
X225103001Y-181853000D01*
X225143001Y-147083000D02*
X225143001Y-181847000D01*
X225183001Y-147090000D02*
X225183001Y-181840000D01*
X225223001Y-147096000D02*
X225223001Y-181834000D01*
X225263001Y-147102000D02*
X225263001Y-162225000D01*
X225263001Y-166705000D02*
X225263001Y-181828000D01*
X225303001Y-147108000D02*
X225303001Y-162225000D01*
X225303001Y-166705000D02*
X225303001Y-181822000D01*
X225343001Y-147115000D02*
X225343001Y-162225000D01*
X225343001Y-166705000D02*
X225343001Y-181815000D01*
X225383001Y-147121000D02*
X225383001Y-162225000D01*
X225383001Y-166705000D02*
X225383001Y-181809000D01*
X225423001Y-147128000D02*
X225423001Y-162225000D01*
X225423001Y-166705000D02*
X225423001Y-181802000D01*
X225463001Y-147135000D02*
X225463001Y-162225000D01*
X225463001Y-166705000D02*
X225463001Y-181795000D01*
X225503001Y-147142000D02*
X225503001Y-162225000D01*
X225503001Y-166705000D02*
X225503001Y-181788000D01*
X225543001Y-147149000D02*
X225543001Y-162225000D01*
X225543001Y-166705000D02*
X225543001Y-181781000D01*
X225583001Y-147156000D02*
X225583001Y-162225000D01*
X225583001Y-166705000D02*
X225583001Y-181774000D01*
X225623001Y-147163000D02*
X225623001Y-162225000D01*
X225623001Y-166705000D02*
X225623001Y-181767000D01*
X225663001Y-147170000D02*
X225663001Y-162225000D01*
X225663001Y-166705000D02*
X225663001Y-181760000D01*
X225703001Y-147178000D02*
X225703001Y-162225000D01*
X225703001Y-166705000D02*
X225703001Y-181752000D01*
X225743001Y-147185000D02*
X225743001Y-162225000D01*
X225743001Y-166705000D02*
X225743001Y-181745000D01*
X225783001Y-147192000D02*
X225783001Y-162225000D01*
X225783001Y-166705000D02*
X225783001Y-181738000D01*
X225823001Y-147200000D02*
X225823001Y-162225000D01*
X225823001Y-166705000D02*
X225823001Y-181730000D01*
X225863001Y-147208000D02*
X225863001Y-162225000D01*
X225863001Y-166705000D02*
X225863001Y-181722000D01*
X225903001Y-147216000D02*
X225903001Y-162225000D01*
X225903001Y-166705000D02*
X225903001Y-181714000D01*
X225943001Y-147224000D02*
X225943001Y-162225000D01*
X225943001Y-166705000D02*
X225943001Y-181706000D01*
X225983001Y-147232000D02*
X225983001Y-162225000D01*
X225983001Y-166705000D02*
X225983001Y-181698000D01*
X226023001Y-147240000D02*
X226023001Y-162225000D01*
X226023001Y-166705000D02*
X226023001Y-181690000D01*
X226063001Y-147248000D02*
X226063001Y-162225000D01*
X226063001Y-166705000D02*
X226063001Y-181682000D01*
X226103001Y-147256000D02*
X226103001Y-162225000D01*
X226103001Y-166705000D02*
X226103001Y-181674000D01*
X226143001Y-147265000D02*
X226143001Y-162225000D01*
X226143001Y-166705000D02*
X226143001Y-181665000D01*
X226183001Y-147273000D02*
X226183001Y-162225000D01*
X226183001Y-166705000D02*
X226183001Y-181657000D01*
X226223001Y-147282000D02*
X226223001Y-162225000D01*
X226223001Y-166705000D02*
X226223001Y-181648000D01*
X226263001Y-147290000D02*
X226263001Y-162225000D01*
X226263001Y-166705000D02*
X226263001Y-181640000D01*
X226303001Y-147299000D02*
X226303001Y-162225000D01*
X226303001Y-166705000D02*
X226303001Y-181631000D01*
X226343001Y-147308000D02*
X226343001Y-162225000D01*
X226343001Y-166705000D02*
X226343001Y-181622000D01*
X226383001Y-147317000D02*
X226383001Y-162225000D01*
X226383001Y-166705000D02*
X226383001Y-181613000D01*
X226423001Y-147326000D02*
X226423001Y-162225000D01*
X226423001Y-166705000D02*
X226423001Y-181604000D01*
X226463001Y-147335000D02*
X226463001Y-162225000D01*
X226463001Y-166705000D02*
X226463001Y-181595000D01*
X226503001Y-147345000D02*
X226503001Y-162225000D01*
X226503001Y-166705000D02*
X226503001Y-181585000D01*
X226543001Y-147354000D02*
X226543001Y-162225000D01*
X226543001Y-166705000D02*
X226543001Y-181576000D01*
X226583001Y-147363000D02*
X226583001Y-162225000D01*
X226583001Y-166705000D02*
X226583001Y-181567000D01*
X226623001Y-147373000D02*
X226623001Y-162225000D01*
X226623001Y-166705000D02*
X226623001Y-181557000D01*
X226663001Y-147383000D02*
X226663001Y-162225000D01*
X226663001Y-166705000D02*
X226663001Y-181547000D01*
X226703001Y-147392000D02*
X226703001Y-162225000D01*
X226703001Y-166705000D02*
X226703001Y-181538000D01*
X226743001Y-147402000D02*
X226743001Y-162225000D01*
X226743001Y-166705000D02*
X226743001Y-181528000D01*
X226783001Y-147412000D02*
X226783001Y-162225000D01*
X226783001Y-166705000D02*
X226783001Y-181518000D01*
X226823001Y-147422000D02*
X226823001Y-162225000D01*
X226823001Y-166705000D02*
X226823001Y-181508000D01*
X226863001Y-147432000D02*
X226863001Y-162225000D01*
X226863001Y-166705000D02*
X226863001Y-181498000D01*
X226903001Y-147443000D02*
X226903001Y-162225000D01*
X226903001Y-166705000D02*
X226903001Y-181487000D01*
X226943001Y-147453000D02*
X226943001Y-162225000D01*
X226943001Y-166705000D02*
X226943001Y-181477000D01*
X226983001Y-147464000D02*
X226983001Y-162225000D01*
X226983001Y-166705000D02*
X226983001Y-181466000D01*
X227023001Y-147474000D02*
X227023001Y-162225000D01*
X227023001Y-166705000D02*
X227023001Y-181456000D01*
X227063001Y-147485000D02*
X227063001Y-162225000D01*
X227063001Y-166705000D02*
X227063001Y-181445000D01*
X227103001Y-147496000D02*
X227103001Y-162225000D01*
X227103001Y-166705000D02*
X227103001Y-181434000D01*
X227143001Y-147506000D02*
X227143001Y-162225000D01*
X227143001Y-166705000D02*
X227143001Y-181424000D01*
X227183001Y-147517000D02*
X227183001Y-162225000D01*
X227183001Y-166705000D02*
X227183001Y-181413000D01*
X227223001Y-147528000D02*
X227223001Y-162225000D01*
X227223001Y-166705000D02*
X227223001Y-181402000D01*
X227263001Y-147540000D02*
X227263001Y-162225000D01*
X227263001Y-166705000D02*
X227263001Y-181390000D01*
X227303001Y-147551000D02*
X227303001Y-162225000D01*
X227303001Y-166705000D02*
X227303001Y-181379000D01*
X227343001Y-147562000D02*
X227343001Y-162225000D01*
X227343001Y-166705000D02*
X227343001Y-181368000D01*
X227383001Y-147574000D02*
X227383001Y-162225000D01*
X227383001Y-166705000D02*
X227383001Y-181356000D01*
X227423001Y-147585000D02*
X227423001Y-162225000D01*
X227423001Y-166705000D02*
X227423001Y-181345000D01*
X227463001Y-147597000D02*
X227463001Y-162225000D01*
X227463001Y-166705000D02*
X227463001Y-181333000D01*
X227503001Y-147609000D02*
X227503001Y-162225000D01*
X227503001Y-166705000D02*
X227503001Y-181321000D01*
X227543001Y-147621000D02*
X227543001Y-162225000D01*
X227543001Y-166705000D02*
X227543001Y-181309000D01*
X227583001Y-147633000D02*
X227583001Y-162225000D01*
X227583001Y-166705000D02*
X227583001Y-181297000D01*
X227623001Y-147645000D02*
X227623001Y-162225000D01*
X227623001Y-166705000D02*
X227623001Y-181285000D01*
X227663001Y-147657000D02*
X227663001Y-162225000D01*
X227663001Y-166705000D02*
X227663001Y-181273000D01*
X227703001Y-147669000D02*
X227703001Y-162225000D01*
X227703001Y-166705000D02*
X227703001Y-181261000D01*
X227743001Y-147682000D02*
X227743001Y-162225000D01*
X227743001Y-166705000D02*
X227743001Y-181248000D01*
X227783001Y-147694000D02*
X227783001Y-162225000D01*
X227783001Y-166705000D02*
X227783001Y-181236000D01*
X227823001Y-147707000D02*
X227823001Y-162225000D01*
X227823001Y-166705000D02*
X227823001Y-181223000D01*
X227863001Y-147720000D02*
X227863001Y-162225000D01*
X227863001Y-166705000D02*
X227863001Y-181210000D01*
X227903001Y-147732000D02*
X227903001Y-162225000D01*
X227903001Y-166705000D02*
X227903001Y-181198000D01*
X227943001Y-147745000D02*
X227943001Y-162225000D01*
X227943001Y-166705000D02*
X227943001Y-181185000D01*
X227983001Y-147758000D02*
X227983001Y-162225000D01*
X227983001Y-166705000D02*
X227983001Y-181172000D01*
X228023001Y-147771000D02*
X228023001Y-162225000D01*
X228023001Y-166705000D02*
X228023001Y-181159000D01*
X228063001Y-147785000D02*
X228063001Y-162225000D01*
X228063001Y-166705000D02*
X228063001Y-181145000D01*
X228103001Y-147798000D02*
X228103001Y-162225000D01*
X228103001Y-166705000D02*
X228103001Y-181132000D01*
X228143001Y-147812000D02*
X228143001Y-162225000D01*
X228143001Y-166705000D02*
X228143001Y-181118000D01*
X228183001Y-147825000D02*
X228183001Y-162225000D01*
X228183001Y-166705000D02*
X228183001Y-181105000D01*
X228223001Y-147839000D02*
X228223001Y-162225000D01*
X228223001Y-166705000D02*
X228223001Y-181091000D01*
X228263001Y-147853000D02*
X228263001Y-162225000D01*
X228263001Y-166705000D02*
X228263001Y-181077000D01*
X228303001Y-147866000D02*
X228303001Y-162225000D01*
X228303001Y-166705000D02*
X228303001Y-181064000D01*
X228343001Y-147880000D02*
X228343001Y-162225000D01*
X228343001Y-166705000D02*
X228343001Y-181050000D01*
X228383001Y-147895000D02*
X228383001Y-162225000D01*
X228383001Y-166705000D02*
X228383001Y-181035000D01*
X228423001Y-147909000D02*
X228423001Y-162225000D01*
X228423001Y-166705000D02*
X228423001Y-181021000D01*
X228463001Y-147923000D02*
X228463001Y-162225000D01*
X228463001Y-166705000D02*
X228463001Y-181007000D01*
X228503001Y-147938000D02*
X228503001Y-162225000D01*
X228503001Y-166705000D02*
X228503001Y-180992000D01*
X228543001Y-147952000D02*
X228543001Y-162225000D01*
X228543001Y-166705000D02*
X228543001Y-180978000D01*
X228583001Y-147967000D02*
X228583001Y-162225000D01*
X228583001Y-166705000D02*
X228583001Y-180963000D01*
X228623001Y-147981000D02*
X228623001Y-162225000D01*
X228623001Y-166705000D02*
X228623001Y-180949000D01*
X228663001Y-147996000D02*
X228663001Y-162225000D01*
X228663001Y-166705000D02*
X228663001Y-180934000D01*
X228703001Y-148011000D02*
X228703001Y-162225000D01*
X228703001Y-166705000D02*
X228703001Y-180919000D01*
X228743001Y-148026000D02*
X228743001Y-162225000D01*
X228743001Y-166705000D02*
X228743001Y-180904000D01*
X228783001Y-148042000D02*
X228783001Y-162225000D01*
X228783001Y-166705000D02*
X228783001Y-180888000D01*
X228823001Y-148057000D02*
X228823001Y-162225000D01*
X228823001Y-166705000D02*
X228823001Y-180873000D01*
X228863001Y-148072000D02*
X228863001Y-162225000D01*
X228863001Y-166705000D02*
X228863001Y-180858000D01*
X228903001Y-148088000D02*
X228903001Y-162225000D01*
X228903001Y-166705000D02*
X228903001Y-180842000D01*
X228943001Y-148104000D02*
X228943001Y-162225000D01*
X228943001Y-166705000D02*
X228943001Y-180826000D01*
X228983001Y-148119000D02*
X228983001Y-162225000D01*
X228983001Y-166705000D02*
X228983001Y-180811000D01*
X229023001Y-148135000D02*
X229023001Y-162225000D01*
X229023001Y-166705000D02*
X229023001Y-180795000D01*
X229063001Y-148151000D02*
X229063001Y-162225000D01*
X229063001Y-166705000D02*
X229063001Y-180779000D01*
X229103001Y-148167000D02*
X229103001Y-162225000D01*
X229103001Y-166705000D02*
X229103001Y-180763000D01*
X229143001Y-148184000D02*
X229143001Y-162225000D01*
X229143001Y-166705000D02*
X229143001Y-180746000D01*
X229183001Y-148200000D02*
X229183001Y-162225000D01*
X229183001Y-166705000D02*
X229183001Y-180730000D01*
X229223001Y-148216000D02*
X229223001Y-162225000D01*
X229223001Y-166705000D02*
X229223001Y-180714000D01*
X229263001Y-148233000D02*
X229263001Y-162225000D01*
X229263001Y-166705000D02*
X229263001Y-180697000D01*
X229303001Y-148250000D02*
X229303001Y-162225000D01*
X229303001Y-166705000D02*
X229303001Y-180680000D01*
X229343001Y-148266000D02*
X229343001Y-162225000D01*
X229343001Y-166705000D02*
X229343001Y-180664000D01*
X229383001Y-148283000D02*
X229383001Y-162225000D01*
X229383001Y-166705000D02*
X229383001Y-180647000D01*
X229423001Y-148300000D02*
X229423001Y-162225000D01*
X229423001Y-166705000D02*
X229423001Y-180630000D01*
X229463001Y-148317000D02*
X229463001Y-162225000D01*
X229463001Y-166705000D02*
X229463001Y-180613000D01*
X229503001Y-148335000D02*
X229503001Y-162225000D01*
X229503001Y-166705000D02*
X229503001Y-180595000D01*
X229543001Y-148352000D02*
X229543001Y-162225000D01*
X229543001Y-166705000D02*
X229543001Y-180578000D01*
X229583001Y-148370000D02*
X229583001Y-162225000D01*
X229583001Y-166705000D02*
X229583001Y-180560000D01*
X229623001Y-148387000D02*
X229623001Y-162225000D01*
X229623001Y-166705000D02*
X229623001Y-180543000D01*
X229663001Y-148405000D02*
X229663001Y-162225000D01*
X229663001Y-166705000D02*
X229663001Y-180525000D01*
X229703001Y-148423000D02*
X229703001Y-162225000D01*
X229703001Y-166705000D02*
X229703001Y-180507000D01*
X229743001Y-148441000D02*
X229743001Y-180489000D01*
X229783001Y-148459000D02*
X229783001Y-180471000D01*
X229823001Y-148477000D02*
X229823001Y-180453000D01*
X229863001Y-148495000D02*
X229863001Y-180435000D01*
X229903001Y-148514000D02*
X229903001Y-180416000D01*
X229943001Y-148532000D02*
X229943001Y-180398000D01*
X229983001Y-148551000D02*
X229983001Y-180379000D01*
X230023001Y-148570000D02*
X230023001Y-180360000D01*
X230063001Y-148589000D02*
X230063001Y-180341000D01*
X230103001Y-148608000D02*
X230103001Y-180322000D01*
X230143001Y-148627000D02*
X230143001Y-180303000D01*
X230183001Y-148646000D02*
X230183001Y-180284000D01*
X230223001Y-148666000D02*
X230223001Y-180264000D01*
X230263001Y-148685000D02*
X230263001Y-180245000D01*
X230303001Y-148705000D02*
X230303001Y-180225000D01*
X230343001Y-148725000D02*
X230343001Y-180205000D01*
X230383001Y-148745000D02*
X230383001Y-180185000D01*
X230423001Y-148765000D02*
X230423001Y-180165000D01*
X230463001Y-148785000D02*
X230463001Y-180145000D01*
X230503001Y-148805000D02*
X230503001Y-180125000D01*
X230543001Y-148826000D02*
X230543001Y-180104000D01*
X230583001Y-148846000D02*
X230583001Y-180084000D01*
X230623001Y-148867000D02*
X230623001Y-180063000D01*
X230663001Y-148888000D02*
X230663001Y-180042000D01*
X230702001Y-148909000D02*
X230702001Y-180021000D01*
X230742001Y-148930000D02*
X230742001Y-180000000D01*
X230782001Y-148951000D02*
X230782001Y-179979000D01*
X230822001Y-148973000D02*
X230822001Y-179957000D01*
X230862001Y-148994000D02*
X230862001Y-179936000D01*
X230902001Y-149016000D02*
X230902001Y-179914000D01*
X230942001Y-149037000D02*
X230942001Y-179893000D01*
X230982001Y-149059000D02*
X230982001Y-179871000D01*
X231022001Y-149081000D02*
X231022001Y-179849000D01*
X231062001Y-149104000D02*
X231062001Y-179826000D01*
X231102001Y-149126000D02*
X231102001Y-179804000D01*
X231142001Y-149148000D02*
X231142001Y-179782000D01*
X231182001Y-149171000D02*
X231182001Y-179759000D01*
X231222001Y-149194000D02*
X231222001Y-179736000D01*
X231262001Y-149216000D02*
X231262001Y-179714000D01*
X231302001Y-149239000D02*
X231302001Y-179691000D01*
X231342001Y-149262000D02*
X231342001Y-179668000D01*
X231382001Y-149286000D02*
X231382001Y-179644000D01*
X231422001Y-149309000D02*
X231422001Y-179621000D01*
X231462001Y-149333000D02*
X231462001Y-179597000D01*
X231502001Y-149356000D02*
X231502001Y-179574000D01*
X231542001Y-149380000D02*
X231542001Y-179550000D01*
X231582001Y-149404000D02*
X231582001Y-179526000D01*
X231622001Y-149428000D02*
X231622001Y-179502000D01*
X231662001Y-149453000D02*
X231662001Y-179477000D01*
X231702001Y-149477000D02*
X231702001Y-179453000D01*
X231742001Y-149502000D02*
X231742001Y-179428000D01*
X231782001Y-149526000D02*
X231782001Y-179404000D01*
X231822001Y-149551000D02*
X231822001Y-179379000D01*
X231862001Y-149576000D02*
X231862001Y-179354000D01*
X231902001Y-149601000D02*
X231902001Y-179329000D01*
X231942001Y-149627000D02*
X231942001Y-179303000D01*
X231982001Y-149652000D02*
X231982001Y-179278000D01*
X232022001Y-149678000D02*
X232022001Y-179252000D01*
X232062001Y-149703000D02*
X232062001Y-179227000D01*
X232102001Y-149729000D02*
X232102001Y-179201000D01*
X232142001Y-149755000D02*
X232142001Y-179175000D01*
X232182001Y-149782000D02*
X232182001Y-179148000D01*
X232222001Y-149808000D02*
X232222001Y-179122000D01*
X232262001Y-149835000D02*
X232262001Y-179095000D01*
X232302001Y-149861000D02*
X232302001Y-179069000D01*
X232342001Y-149888000D02*
X232342001Y-179042000D01*
X232382001Y-149915000D02*
X232382001Y-179015000D01*
X232422001Y-149942000D02*
X232422001Y-178988000D01*
X232462001Y-149970000D02*
X232462001Y-178960000D01*
X232502001Y-149997000D02*
X232502001Y-178933000D01*
X232542001Y-150025000D02*
X232542001Y-178905000D01*
X232582001Y-150053000D02*
X232582001Y-178877000D01*
X232622001Y-150081000D02*
X232622001Y-178849000D01*
X232662001Y-150109000D02*
X232662001Y-178821000D01*
X232702001Y-150137000D02*
X232702001Y-178793000D01*
X232742001Y-150166000D02*
X232742001Y-178764000D01*
X232782001Y-150194000D02*
X232782001Y-178736000D01*
X232822001Y-150223000D02*
X232822001Y-178707000D01*
X232862001Y-150252000D02*
X232862001Y-178678000D01*
X232902001Y-150281000D02*
X232902001Y-178649000D01*
X232942001Y-150310000D02*
X232942001Y-178620000D01*
X232982001Y-150340000D02*
X232982001Y-178590000D01*
X233022001Y-150370000D02*
X233022001Y-178560000D01*
X233062001Y-150400000D02*
X233062001Y-178530000D01*
X233102001Y-150430000D02*
X233102001Y-178500000D01*
X233142001Y-150460000D02*
X233142001Y-178470000D01*
X233182001Y-150490000D02*
X233182001Y-178440000D01*
X233222001Y-150521000D02*
X233222001Y-178409000D01*
X233262001Y-150551000D02*
X233262001Y-178379000D01*
X233302001Y-150582000D02*
X233302001Y-178348000D01*
X233342001Y-150614000D02*
X233342001Y-178316000D01*
X233382001Y-150645000D02*
X233382001Y-178285000D01*
X233422001Y-150676000D02*
X233422001Y-178254000D01*
X233462001Y-150708000D02*
X233462001Y-178222000D01*
X233502001Y-150740000D02*
X233502001Y-178190000D01*
X233542001Y-150772000D02*
X233542001Y-178158000D01*
X233582001Y-150804000D02*
X233582001Y-178126000D01*
X233622001Y-150837000D02*
X233622001Y-178093000D01*
X233662001Y-150869000D02*
X233662001Y-178061000D01*
X233702001Y-150902000D02*
X233702001Y-178028000D01*
X233742001Y-150935000D02*
X233742001Y-177995000D01*
X233782001Y-150968000D02*
X233782001Y-177962000D01*
X233822001Y-151002000D02*
X233822001Y-177928000D01*
X233862001Y-151035000D02*
X233862001Y-177895000D01*
X233902001Y-151069000D02*
X233902001Y-177861000D01*
X233942001Y-151103000D02*
X233942001Y-177827000D01*
X233982001Y-151138000D02*
X233982001Y-177792000D01*
X234022001Y-151172000D02*
X234022001Y-177758000D01*
X234062001Y-151207000D02*
X234062001Y-177723000D01*
X234102001Y-151242000D02*
X234102001Y-177688000D01*
X234142001Y-151277000D02*
X234142001Y-177653000D01*
X234182001Y-151312000D02*
X234182001Y-177618000D01*
X234222001Y-151348000D02*
X234222001Y-177582000D01*
X234262001Y-151383000D02*
X234262001Y-177547000D01*
X234302001Y-151419000D02*
X234302001Y-177511000D01*
X234342001Y-151455000D02*
X234342001Y-177475000D01*
X234382001Y-151492000D02*
X234382001Y-177438000D01*
X234422001Y-151528000D02*
X234422001Y-177402000D01*
X234462001Y-151565000D02*
X234462001Y-177365000D01*
X234502001Y-151602000D02*
X234502001Y-177328000D01*
X234542001Y-151640000D02*
X234542001Y-177290000D01*
X234582001Y-151677000D02*
X234582001Y-177253000D01*
X234622001Y-151715000D02*
X234622001Y-177215000D01*
X234662001Y-151753000D02*
X234662001Y-177177000D01*
X234702001Y-151791000D02*
X234702001Y-177139000D01*
X234742001Y-151830000D02*
X234742001Y-177100000D01*
X234782001Y-151869000D02*
X234782001Y-177061000D01*
X234822001Y-151908000D02*
X234822001Y-177022000D01*
X234862001Y-151947000D02*
X234862001Y-176983000D01*
X234902001Y-151986000D02*
X234902001Y-176944000D01*
X234942001Y-152026000D02*
X234942001Y-176904000D01*
X234982001Y-152066000D02*
X234982001Y-176864000D01*
X235022001Y-152106000D02*
X235022001Y-176824000D01*
X235062001Y-152147000D02*
X235062001Y-176783000D01*
X235102001Y-152188000D02*
X235102001Y-176742000D01*
X235142001Y-152229000D02*
X235142001Y-176701000D01*
X235182001Y-152270000D02*
X235182001Y-176660000D01*
X235222001Y-152312000D02*
X235222001Y-176618000D01*
X235262001Y-152354000D02*
X235262001Y-176576000D01*
X235302001Y-152396000D02*
X235302001Y-176534000D01*
X235342001Y-152438000D02*
X235342001Y-176492000D01*
X235382001Y-152481000D02*
X235382001Y-176449000D01*
X235422001Y-152524000D02*
X235422001Y-176406000D01*
X235462001Y-152567000D02*
X235462001Y-176363000D01*
X235502001Y-152611000D02*
X235502001Y-176319000D01*
X235542001Y-152654000D02*
X235542001Y-176276000D01*
X235582001Y-152699000D02*
X235582001Y-176231000D01*
X235622001Y-152743000D02*
X235622001Y-176187000D01*
X235662001Y-152788000D02*
X235662001Y-176142000D01*
X235702001Y-152833000D02*
X235702001Y-176097000D01*
X235742001Y-152878000D02*
X235742001Y-176052000D01*
X235782001Y-152924000D02*
X235782001Y-176006000D01*
X235822001Y-152970000D02*
X235822001Y-175960000D01*
X235862001Y-153016000D02*
X235862001Y-175914000D01*
X235902001Y-153063000D02*
X235902001Y-175867000D01*
X235942001Y-153110000D02*
X235942001Y-175820000D01*
X235982001Y-153158000D02*
X235982001Y-175772000D01*
X236022001Y-153205000D02*
X236022001Y-175725000D01*
X236062001Y-153253000D02*
X236062001Y-175677000D01*
X236102001Y-153302000D02*
X236102001Y-175628000D01*
X236142001Y-153350000D02*
X236142001Y-175580000D01*
X236182001Y-153399000D02*
X236182001Y-175531000D01*
X236222001Y-153449000D02*
X236222001Y-175481000D01*
X236262001Y-153499000D02*
X236262001Y-175431000D01*
X236302001Y-153549000D02*
X236302001Y-175381000D01*
X236342001Y-153600000D02*
X236342001Y-175330000D01*
X236382001Y-153650000D02*
X236382001Y-175280000D01*
X236422001Y-153702000D02*
X236422001Y-175228000D01*
X236462001Y-153754000D02*
X236462001Y-175176000D01*
X236502001Y-153806000D02*
X236502001Y-175124000D01*
X236542001Y-153858000D02*
X236542001Y-175072000D01*
X236582001Y-153911000D02*
X236582001Y-175019000D01*
X236622001Y-153965000D02*
X236622001Y-174965000D01*
X236662001Y-154018000D02*
X236662001Y-174912000D01*
X236702001Y-154073000D02*
X236702001Y-174857000D01*
X236742001Y-154127000D02*
X236742001Y-174803000D01*
X236782001Y-154182000D02*
X236782001Y-174748000D01*
X236822001Y-154238000D02*
X236822001Y-174692000D01*
X236862001Y-154294000D02*
X236862001Y-174636000D01*
X236902001Y-154350000D02*
X236902001Y-174580000D01*
X236942001Y-154407000D02*
X236942001Y-174523000D01*
X236982001Y-154465000D02*
X236982001Y-174465000D01*
X237022001Y-154523000D02*
X237022001Y-174407000D01*
X237062001Y-154581000D02*
X237062001Y-174349000D01*
X237102001Y-154640000D02*
X237102001Y-174290000D01*
X237142001Y-154700000D02*
X237142001Y-174230000D01*
X237182001Y-154760000D02*
X237182001Y-174170000D01*
X237222001Y-154820000D02*
X237222001Y-174110000D01*
X237262001Y-154881000D02*
X237262001Y-174049000D01*
X237302001Y-154943000D02*
X237302001Y-173987000D01*
X237342001Y-155005000D02*
X237342001Y-173925000D01*
X237382001Y-155068000D02*
X237382001Y-173862000D01*
X237422001Y-155131000D02*
X237422001Y-173799000D01*
X237462001Y-155195000D02*
X237462001Y-173735000D01*
X237502001Y-155260000D02*
X237502001Y-173670000D01*
X237542001Y-155325000D02*
X237542001Y-173605000D01*
X237582001Y-155391000D02*
X237582001Y-173539000D01*
X237622001Y-155457000D02*
X237622001Y-173473000D01*
X237662001Y-155525000D02*
X237662001Y-173405000D01*
X237702001Y-155592000D02*
X237702001Y-173338000D01*
X237742001Y-155661000D02*
X237742001Y-173269000D01*
X237782001Y-155730000D02*
X237782001Y-173200000D01*
X237822001Y-155800000D02*
X237822001Y-173130000D01*
X237862001Y-155871000D02*
X237862001Y-173059000D01*
X237902001Y-155943000D02*
X237902001Y-172987000D01*
X237942001Y-156015000D02*
X237942001Y-172915000D01*
X237982001Y-156088000D02*
X237982001Y-172842000D01*
X238022001Y-156162000D02*
X238022001Y-172768000D01*
X238062001Y-156237000D02*
X238062001Y-172693000D01*
X238102001Y-156313000D02*
X238102001Y-172617000D01*
X238142001Y-156389000D02*
X238142001Y-172541000D01*
X238182001Y-156467000D02*
X238182001Y-172463000D01*
X238222001Y-156545000D02*
X238222001Y-172385000D01*
X238262001Y-156625000D02*
X238262001Y-172305000D01*
X238302001Y-156706000D02*
X238302001Y-172224000D01*
X238342001Y-156787000D02*
X238342001Y-172143000D01*
X238382001Y-156870000D02*
X238382001Y-172060000D01*
X238422001Y-156953000D02*
X238422001Y-171977000D01*
X238462001Y-157038000D02*
X238462001Y-171892000D01*
X238502001Y-157124000D02*
X238502001Y-171806000D01*
X238542001Y-157212000D02*
X238542001Y-171718000D01*
X238582001Y-157300000D02*
X238582001Y-171630000D01*
X238622001Y-157390000D02*
X238622001Y-171540000D01*
X238662001Y-157482000D02*
X238662001Y-171448000D01*
X238702001Y-157575000D02*
X238702001Y-171355000D01*
X238742001Y-157669000D02*
X238742001Y-171261000D01*
X238782001Y-157765000D02*
X238782001Y-171165000D01*
X238822001Y-157862000D02*
X238822001Y-171068000D01*
X238862001Y-157961000D02*
X238862001Y-170969000D01*
X238902001Y-158062000D02*
X238902001Y-170868000D01*
X238942001Y-158165000D02*
X238942001Y-170765000D01*
X238982001Y-158270000D02*
X238982001Y-170660000D01*
X239022001Y-158376000D02*
X239022001Y-170554000D01*
X239062001Y-158485000D02*
X239062001Y-170445000D01*
X239102001Y-158597000D02*
X239102001Y-170333000D01*
X239142001Y-158710000D02*
X239142001Y-170220000D01*
X239182001Y-158826000D02*
X239182001Y-170104000D01*
X239222001Y-158945000D02*
X239222001Y-169985000D01*
X239262001Y-159067000D02*
X239262001Y-169863000D01*
X239302001Y-159192000D02*
X239302001Y-169738000D01*
X239342001Y-159320000D02*
X239342001Y-169610000D01*
X239382001Y-159452000D02*
X239382001Y-169478000D01*
X239422001Y-159587000D02*
X239422001Y-169343000D01*
X239462001Y-159727000D02*
X239462001Y-169203000D01*
X239502001Y-159872000D02*
X239502001Y-169058000D01*
X239542001Y-160021000D02*
X239542001Y-168909000D01*
X239582001Y-160176000D02*
X239582001Y-168754000D01*
X239622001Y-160337000D02*
X239622001Y-168593000D01*
X239662001Y-160505000D02*
X239662001Y-168425000D01*
X239702001Y-160680000D02*
X239702001Y-168250000D01*
X239742001Y-160865000D02*
X239742001Y-168065000D01*
X239782001Y-161060000D02*
X239782001Y-167870000D01*
X239822001Y-161267000D02*
X239822001Y-167663000D01*
X239862001Y-161489000D02*
X239862001Y-167441000D01*
X239902001Y-161729000D02*
X239902001Y-167201000D01*
X239942001Y-161992000D02*
X239942001Y-166938000D01*
X239982001Y-162288000D02*
X239982001Y-166642000D01*
X240022001Y-162630000D02*
X240022001Y-166300000D01*
X240062001Y-163052000D02*
X240062001Y-165878000D01*
X240102001Y-163665000D02*
X240102001Y-165265000D01*
X240122001Y-164465000D02*
G75*
G02*
X204882001Y-164465000I-17620000J0D01*
G01*
X204882001Y-164465000D02*
G75*
G02*
X240122001Y-164465000I17620000J0D01*
G01*
D10*
%TO.C,U3*%
X160337500Y-142875000D02*
X160337500Y-157162500D01*
X160337500Y-157162500D02*
X170497500Y-157162500D01*
X170497500Y-128905000D02*
X170497500Y-142875000D01*
X170497500Y-142875000D02*
X160337500Y-142875000D01*
X170497500Y-157162500D02*
X170497500Y-227330000D01*
X178117500Y-130810000D02*
X178117500Y-140970000D01*
X178117500Y-140970000D02*
X183197500Y-140970000D01*
X178117500Y-202247500D02*
X178117500Y-214947500D01*
X178117500Y-214947500D02*
X183197500Y-214947500D01*
X183197500Y-128905000D02*
X183197500Y-227330000D01*
X183197500Y-130810000D02*
X178117500Y-130810000D01*
X183197500Y-140970000D02*
X183197500Y-202247500D01*
X183197500Y-202247500D02*
X178117500Y-202247500D01*
X187007500Y-128905000D02*
X170497500Y-128905000D01*
X187007500Y-128905000D02*
X187007500Y-227330000D01*
X187007500Y-227330000D02*
X170497500Y-227330000D01*
D12*
%TO.C,J1*%
X194567500Y-185360000D02*
X194567500Y-226120000D01*
X194567500Y-185360000D02*
X197167500Y-185360000D01*
X194567500Y-226120000D02*
X199767500Y-226120000D01*
X197167500Y-185360000D02*
X197167500Y-187960000D01*
X197167500Y-187960000D02*
X199767500Y-187960000D01*
X198437500Y-185360000D02*
X199767500Y-185360000D01*
X199767500Y-185360000D02*
X199767500Y-186690000D01*
X199767500Y-187960000D02*
X199767500Y-226120000D01*
%TO.C,D3*%
X220462500Y-53477500D02*
X220462500Y-58917500D01*
X220462500Y-58917500D02*
X223402500Y-58917500D01*
X221932500Y-52457500D02*
X221932500Y-53477500D01*
X221932500Y-59937500D02*
X221932500Y-58917500D01*
X223402500Y-53477500D02*
X220462500Y-53477500D01*
X223402500Y-54257500D02*
X220462500Y-54257500D01*
X223402500Y-54377500D02*
X220462500Y-54377500D01*
X223402500Y-54497500D02*
X220462500Y-54497500D01*
X223402500Y-58917500D02*
X223402500Y-53477500D01*
%TO.C,C3*%
X197837500Y-161697500D02*
X201577500Y-161697500D01*
X197837500Y-169137500D02*
X197837500Y-161697500D01*
X197837500Y-169137500D02*
X201577500Y-169137500D01*
X201577500Y-169137500D02*
X201577500Y-161697500D01*
%TO.C,L3*%
X202217500Y-94615000D02*
X203727500Y-94615000D01*
X203727500Y-92495000D02*
X203727500Y-96735000D01*
X203727500Y-96735000D02*
X213467500Y-96735000D01*
X213467500Y-92495000D02*
X203727500Y-92495000D01*
X213467500Y-96735000D02*
X213467500Y-92495000D01*
X214977500Y-94615000D02*
X213467500Y-94615000D01*
D10*
%TO.C,CON-01*%
X227855000Y-193040000D02*
X227855000Y-194310000D01*
X227855000Y-199390000D02*
X227855000Y-201930000D01*
X227855000Y-200660000D02*
X239285000Y-200660000D01*
X227855000Y-207010000D02*
X227855000Y-209550000D01*
X227855000Y-208280000D02*
X239285000Y-208280000D01*
X227855000Y-214630000D02*
X227855000Y-217170000D01*
X227855000Y-215900000D02*
X239285000Y-215900000D01*
X227855000Y-222250000D02*
X227855000Y-223520000D01*
X239285000Y-193040000D02*
X227855000Y-193040000D01*
X239285000Y-193040000D02*
X239285000Y-223520000D01*
X239285000Y-223520000D02*
X227855000Y-223520000D01*
D12*
%TO.C,J2*%
X121105000Y-188490000D02*
X122105000Y-188490000D01*
X121105000Y-207750000D02*
X121105000Y-188490000D01*
X122105000Y-188490000D02*
X122105000Y-207750000D01*
X122105000Y-188490000D02*
X132075000Y-188490000D01*
X128365000Y-188200000D02*
X124365000Y-188200000D01*
X131675000Y-190770000D02*
X131675000Y-193470000D01*
X131675000Y-193470000D02*
X132075000Y-193470000D01*
X132075000Y-188490000D02*
X132075000Y-190770000D01*
X132075000Y-190770000D02*
X131675000Y-190770000D01*
X132075000Y-193470000D02*
X132075000Y-207750000D01*
X132075000Y-207750000D02*
X121105000Y-207750000D01*
%TO.C,L6*%
X202222500Y-51117500D02*
X203732500Y-51117500D01*
X203732500Y-48997500D02*
X203732500Y-53237500D01*
X203732500Y-53237500D02*
X213472500Y-53237500D01*
X213472500Y-48997500D02*
X203732500Y-48997500D01*
X213472500Y-53237500D02*
X213472500Y-48997500D01*
X214982500Y-51117500D02*
X213472500Y-51117500D01*
%TO.C,K1*%
X153332500Y-127395000D02*
X153332500Y-101515000D01*
X155942500Y-113177000D02*
X155942500Y-108351000D01*
X157406500Y-112415000D02*
X157406500Y-113939000D01*
X157406500Y-112415000D02*
X158422500Y-113177000D01*
X157406500Y-113177000D02*
X155942500Y-113177000D01*
X158422500Y-113177000D02*
X157406500Y-113939000D01*
X159692500Y-117495000D02*
X158473300Y-112923000D01*
X159692500Y-117495000D02*
X159692500Y-123855000D01*
X159692500Y-123855000D02*
X163756500Y-123855000D01*
X160962500Y-113177000D02*
X161978500Y-113939000D01*
X161978500Y-112415000D02*
X160962500Y-113177000D01*
X161978500Y-113939000D02*
X161978500Y-112415000D01*
X163542500Y-108351000D02*
X163542500Y-113177000D01*
X163542500Y-113177000D02*
X161978500Y-113177000D01*
X165282500Y-100645000D02*
X154202500Y-100645000D01*
X166152500Y-105295000D02*
X166152500Y-101515000D01*
X170282500Y-128265000D02*
X154202500Y-128265000D01*
X171152500Y-127395000D02*
X171152500Y-126415000D01*
X175948498Y-109849603D02*
X175948498Y-113177003D01*
X175948500Y-109849600D02*
X177218500Y-109849600D01*
X175948500Y-116733000D02*
X175948500Y-120060400D01*
X177218500Y-120060400D02*
X175948500Y-120060400D01*
X181282500Y-123855000D02*
X168328500Y-123855000D01*
X181282500Y-123855000D02*
X181282500Y-117241000D01*
X184482500Y-105945000D02*
X166802500Y-105945000D01*
X184482500Y-125765000D02*
X171802500Y-125765000D01*
X185352500Y-124895000D02*
X185352500Y-106815000D01*
X153332500Y-101515000D02*
G75*
G02*
X154202500Y-100645000I870000J0D01*
G01*
X154202500Y-128265000D02*
G75*
G02*
X153332500Y-127395000I0J870000D01*
G01*
X165282500Y-100645000D02*
G75*
G02*
X166152500Y-101515000I0J-870000D01*
G01*
X166802500Y-105945000D02*
G75*
G02*
X166152500Y-105295000I0J650000D01*
G01*
X171152500Y-126415000D02*
G75*
G02*
X171802500Y-125765000I650000J0D01*
G01*
X171152500Y-127395000D02*
G75*
G02*
X170282500Y-128265000I-870000J0D01*
G01*
X175440234Y-114193356D02*
G75*
G02*
X175440501Y-114955000I508266J-380644D01*
G01*
X175440235Y-114955355D02*
G75*
G02*
X175440501Y-115717000I508265J-380645D01*
G01*
X175440700Y-115716733D02*
G75*
G02*
X175948500Y-116733000I507800J-381267D01*
G01*
X175948498Y-113177003D02*
G75*
G02*
X175440703Y-114193266I2J-634997D01*
G01*
X184482500Y-105945000D02*
G75*
G02*
X185352500Y-106815000I0J-870000D01*
G01*
X185352500Y-124895000D02*
G75*
G02*
X184482500Y-125765000I-870000J0D01*
G01*
X159819500Y-117495000D02*
G75*
G02*
X159565500Y-117495000I-127000J0D01*
G01*
X159565500Y-117495000D02*
G75*
G02*
X159819500Y-117495000I127000J0D01*
G01*
%TO.C,C4*%
X197837500Y-151537500D02*
X197837500Y-158977500D01*
X201577500Y-151537500D02*
X197837500Y-151537500D01*
X201577500Y-151537500D02*
X201577500Y-158977500D01*
X201577500Y-158977500D02*
X197837500Y-158977500D01*
%TO.C,L7*%
X210150000Y-191770000D02*
X211660000Y-191770000D01*
X211660000Y-189650000D02*
X211660000Y-193890000D01*
X211660000Y-193890000D02*
X221400000Y-193890000D01*
X221400000Y-189650000D02*
X211660000Y-189650000D01*
X221400000Y-193890000D02*
X221400000Y-189650000D01*
X222910000Y-191770000D02*
X221400000Y-191770000D01*
%TO.C,L2*%
X202217500Y-127317500D02*
X203727500Y-127317500D01*
X203727500Y-125197500D02*
X203727500Y-129437500D01*
X203727500Y-129437500D02*
X213467500Y-129437500D01*
X213467500Y-125197500D02*
X203727500Y-125197500D01*
X213467500Y-129437500D02*
X213467500Y-125197500D01*
X214977500Y-127317500D02*
X213467500Y-127317500D01*
%TO.C,C5*%
X147087500Y-88977500D02*
X147087500Y-102217500D01*
X153327500Y-88977500D02*
X147087500Y-88977500D01*
X153327500Y-88977500D02*
X153327500Y-102217500D01*
X153327500Y-102217500D02*
X147087500Y-102217500D01*
%TO.C,D4*%
X189822500Y-76517500D02*
X191282500Y-76517500D01*
X191282500Y-73747500D02*
X191282500Y-79287500D01*
X191282500Y-79287500D02*
X200522500Y-79287500D01*
X198932500Y-79287500D02*
X198932500Y-73747500D01*
X199052500Y-79287500D02*
X199052500Y-73747500D01*
X199172500Y-79287500D02*
X199172500Y-73747500D01*
X200522500Y-73747500D02*
X191282500Y-73747500D01*
X200522500Y-79287500D02*
X200522500Y-73747500D01*
X201982500Y-76517500D02*
X200522500Y-76517500D01*
%TO.C,Q2*%
X225462500Y-81147500D02*
X225462500Y-97287500D01*
X230733500Y-81147500D02*
X225462500Y-81147500D01*
X230733500Y-81147500D02*
X230733500Y-97287500D01*
X230733500Y-87413500D02*
X225462500Y-87413500D01*
X230733500Y-91022500D02*
X225462500Y-91022500D01*
X230733500Y-97287500D02*
X225462500Y-97287500D01*
%TO.C,CR1*%
X153897500Y-45997500D02*
X158538500Y-45997500D01*
X153897500Y-49266500D02*
X155407500Y-49266500D01*
X153897500Y-52967500D02*
X155407500Y-52967500D01*
X153897500Y-56237500D02*
X153897500Y-45997500D01*
X153897500Y-56237500D02*
X158538500Y-56237500D01*
X155407500Y-56237500D02*
X155407500Y-45997500D01*
X158538500Y-56237500D02*
X158538500Y-45997500D01*
%TO.C,R5*%
X210355000Y-186690000D02*
X211205000Y-186690000D01*
X211205000Y-184070000D02*
X211205000Y-189310000D01*
X211205000Y-189310000D02*
X226945000Y-189310000D01*
X226945000Y-184070000D02*
X211205000Y-184070000D01*
X226945000Y-189310000D02*
X226945000Y-184070000D01*
X227795000Y-186690000D02*
X226945000Y-186690000D01*
%TO.C,K2*%
X153332500Y-98502500D02*
X153332500Y-72622500D01*
X155942500Y-84284500D02*
X155942500Y-79458500D01*
X157406500Y-83522500D02*
X157406500Y-85046500D01*
X157406500Y-83522500D02*
X158422500Y-84284500D01*
X157406500Y-84284500D02*
X155942500Y-84284500D01*
X158422500Y-84284500D02*
X157406500Y-85046500D01*
X159692500Y-88602500D02*
X158473300Y-84030500D01*
X159692500Y-88602500D02*
X159692500Y-94962500D01*
X159692500Y-94962500D02*
X163756500Y-94962500D01*
X160962500Y-84284500D02*
X161978500Y-85046500D01*
X161978500Y-83522500D02*
X160962500Y-84284500D01*
X161978500Y-85046500D02*
X161978500Y-83522500D01*
X163542500Y-79458500D02*
X163542500Y-84284500D01*
X163542500Y-84284500D02*
X161978500Y-84284500D01*
X165282500Y-71752500D02*
X154202500Y-71752500D01*
X166152500Y-76402500D02*
X166152500Y-72622500D01*
X170282500Y-99372500D02*
X154202500Y-99372500D01*
X171152500Y-98502500D02*
X171152500Y-97522500D01*
X175948498Y-80957103D02*
X175948498Y-84284503D01*
X175948500Y-80957100D02*
X177218500Y-80957100D01*
X175948500Y-87840500D02*
X175948500Y-91167900D01*
X177218500Y-91167900D02*
X175948500Y-91167900D01*
X181282500Y-94962500D02*
X168328500Y-94962500D01*
X181282500Y-94962500D02*
X181282500Y-88348500D01*
X184482500Y-77052500D02*
X166802500Y-77052500D01*
X184482500Y-96872500D02*
X171802500Y-96872500D01*
X185352500Y-96002500D02*
X185352500Y-77922500D01*
X153332500Y-72622500D02*
G75*
G02*
X154202500Y-71752500I870000J0D01*
G01*
X154202500Y-99372500D02*
G75*
G02*
X153332500Y-98502500I0J870000D01*
G01*
X165282500Y-71752500D02*
G75*
G02*
X166152500Y-72622500I0J-870000D01*
G01*
X166802500Y-77052500D02*
G75*
G02*
X166152500Y-76402500I0J650000D01*
G01*
X171152500Y-97522500D02*
G75*
G02*
X171802500Y-96872500I650000J0D01*
G01*
X171152500Y-98502500D02*
G75*
G02*
X170282500Y-99372500I-870000J0D01*
G01*
X175440234Y-85300856D02*
G75*
G02*
X175440501Y-86062500I508266J-380644D01*
G01*
X175440235Y-86062855D02*
G75*
G02*
X175440501Y-86824500I508265J-380645D01*
G01*
X175440700Y-86824233D02*
G75*
G02*
X175948500Y-87840500I507800J-381267D01*
G01*
X175948498Y-84284503D02*
G75*
G02*
X175440703Y-85300766I2J-634997D01*
G01*
X184482500Y-77052500D02*
G75*
G02*
X185352500Y-77922500I0J-870000D01*
G01*
X185352500Y-96002500D02*
G75*
G02*
X184482500Y-96872500I-870000J0D01*
G01*
X159819500Y-88602500D02*
G75*
G02*
X159565500Y-88602500I-127000J0D01*
G01*
X159565500Y-88602500D02*
G75*
G02*
X159819500Y-88602500I127000J0D01*
G01*
%TD*%
M02*
