%TF.GenerationSoftware,KiCad,Pcbnew,8.0.4*%
%TF.CreationDate,2025-05-09T08:49:09+07:00*%
%TF.ProjectId,PS-2.0,50532d32-2e30-42e6-9b69-6361645f7063,rev?*%
%TF.SameCoordinates,Original*%
%TF.FileFunction,Copper,L2,Bot*%
%TF.FilePolarity,Positive*%
%FSLAX46Y46*%
G04 Gerber Fmt 4.6, Leading zero omitted, Abs format (unit mm)*
G04 Created by KiCad (PCBNEW 8.0.4) date 2025-05-09 08:49:09*
%MOMM*%
%LPD*%
G01*
G04 APERTURE LIST*
G04 Aperture macros list*
%AMRoundRect*
0 Rectangle with rounded corners*
0 $1 Rounding radius*
0 $2 $3 $4 $5 $6 $7 $8 $9 X,Y pos of 4 corners*
0 Add a 4 corners polygon primitive as box body*
4,1,4,$2,$3,$4,$5,$6,$7,$8,$9,$2,$3,0*
0 Add four circle primitives for the rounded corners*
1,1,$1+$1,$2,$3*
1,1,$1+$1,$4,$5*
1,1,$1+$1,$6,$7*
1,1,$1+$1,$8,$9*
0 Add four rect primitives between the rounded corners*
20,1,$1+$1,$2,$3,$4,$5,0*
20,1,$1+$1,$4,$5,$6,$7,0*
20,1,$1+$1,$6,$7,$8,$9,0*
20,1,$1+$1,$8,$9,$2,$3,0*%
G04 Aperture macros list end*
%TA.AperFunction,ComponentPad*%
%ADD10C,2.000000*%
%TD*%
%TA.AperFunction,ComponentPad*%
%ADD11O,2.000000X2.000000*%
%TD*%
%TA.AperFunction,ComponentPad*%
%ADD12R,4.500000X2.500000*%
%TD*%
%TA.AperFunction,ComponentPad*%
%ADD13O,4.500000X2.500000*%
%TD*%
%TA.AperFunction,ComponentPad*%
%ADD14C,5.500000*%
%TD*%
%TA.AperFunction,ComponentPad*%
%ADD15R,2.600000X2.600000*%
%TD*%
%TA.AperFunction,ComponentPad*%
%ADD16O,2.600000X2.600000*%
%TD*%
%TA.AperFunction,ComponentPad*%
%ADD17RoundRect,0.250000X-1.850000X1.330000X-1.850000X-1.330000X1.850000X-1.330000X1.850000X1.330000X0*%
%TD*%
%TA.AperFunction,ComponentPad*%
%ADD18O,4.200000X3.160000*%
%TD*%
%TA.AperFunction,ComponentPad*%
%ADD19R,1.800000X1.800000*%
%TD*%
%TA.AperFunction,ComponentPad*%
%ADD20O,1.800000X1.800000*%
%TD*%
%TA.AperFunction,ComponentPad*%
%ADD21R,2.200000X2.200000*%
%TD*%
%TA.AperFunction,ComponentPad*%
%ADD22O,2.200000X2.200000*%
%TD*%
%TA.AperFunction,ComponentPad*%
%ADD23C,2.400000*%
%TD*%
%TA.AperFunction,ComponentPad*%
%ADD24O,2.400000X2.400000*%
%TD*%
%TA.AperFunction,ComponentPad*%
%ADD25C,1.400000*%
%TD*%
%TA.AperFunction,ComponentPad*%
%ADD26O,1.400000X1.400000*%
%TD*%
%TA.AperFunction,ComponentPad*%
%ADD27C,1.800000*%
%TD*%
%TA.AperFunction,ComponentPad*%
%ADD28R,2.000000X1.905000*%
%TD*%
%TA.AperFunction,ComponentPad*%
%ADD29O,2.000000X1.905000*%
%TD*%
%TA.AperFunction,ComponentPad*%
%ADD30R,1.600000X1.600000*%
%TD*%
%TA.AperFunction,ComponentPad*%
%ADD31O,1.600000X1.600000*%
%TD*%
%TA.AperFunction,ComponentPad*%
%ADD32C,1.600000*%
%TD*%
%TA.AperFunction,ComponentPad*%
%ADD33R,4.000000X4.000000*%
%TD*%
%TA.AperFunction,ComponentPad*%
%ADD34C,4.000000*%
%TD*%
%TA.AperFunction,ComponentPad*%
%ADD35R,1.700000X1.700000*%
%TD*%
%TA.AperFunction,ComponentPad*%
%ADD36O,1.700000X1.700000*%
%TD*%
%TA.AperFunction,ComponentPad*%
%ADD37C,3.810000*%
%TD*%
%TA.AperFunction,ComponentPad*%
%ADD38C,3.000000*%
%TD*%
%TA.AperFunction,ComponentPad*%
%ADD39RoundRect,0.635000X-0.635000X-0.635000X0.635000X-0.635000X0.635000X0.635000X-0.635000X0.635000X0*%
%TD*%
%TA.AperFunction,ComponentPad*%
%ADD40C,2.540000*%
%TD*%
%TA.AperFunction,Conductor*%
%ADD41C,1.778000*%
%TD*%
%TA.AperFunction,Conductor*%
%ADD42C,1.270000*%
%TD*%
%TA.AperFunction,Conductor*%
%ADD43C,2.540000*%
%TD*%
%TA.AperFunction,Conductor*%
%ADD44C,1.800000*%
%TD*%
G04 APERTURE END LIST*
D10*
%TO.P,L1,1,1*%
%TO.N,GNDREF*%
X216217500Y-132715000D03*
D11*
%TO.P,L1,2,2*%
%TO.N,GND*%
X200977500Y-132715000D03*
%TD*%
D12*
%TO.P,Q3,1,G*%
%TO.N,Net-(Q3-G)*%
X228282500Y-45667500D03*
D13*
%TO.P,Q3,2,D*%
%TO.N,Net-(D3-K)*%
X228282500Y-51117500D03*
%TO.P,Q3,3,S*%
%TO.N,GNDREF*%
X228282500Y-56567500D03*
%TD*%
D14*
%TO.P,H1,1,1*%
%TO.N,unconnected-(H1-Pad1)*%
X216217500Y-35242500D03*
%TD*%
D15*
%TO.P,D7,1,K*%
%TO.N,Net-(D7-K)*%
X208915000Y-196850000D03*
D16*
%TO.P,D7,2,A*%
%TO.N,VS*%
X224155000Y-196850000D03*
%TD*%
D17*
%TO.P,J9,1,Pin_1*%
%TO.N,Net-(J9-Pin_1)*%
X126457500Y-106212500D03*
D18*
%TO.P,J9,3,Pin_3*%
%TO.N,Net-(J9-Pin_3)*%
X126457500Y-114132500D03*
%TD*%
D12*
%TO.P,Q1,1,G*%
%TO.N,Net-(Q1-G)*%
X228282500Y-121867500D03*
D13*
%TO.P,Q1,2,D*%
%TO.N,Net-(D1-K)*%
X228282500Y-127317500D03*
%TO.P,Q1,3,S*%
%TO.N,GNDREF*%
X228282500Y-132767500D03*
%TD*%
D10*
%TO.P,L5,1,1*%
%TO.N,GNDREF*%
X216222500Y-56515000D03*
D11*
%TO.P,L5,2,2*%
%TO.N,GND*%
X200982500Y-56515000D03*
%TD*%
D19*
%TO.P,D9,1,K*%
%TO.N,/RLY-K*%
X188307500Y-80992500D03*
D20*
%TO.P,D9,2,A*%
%TO.N,/RLY-A*%
X188307500Y-88612500D03*
%TD*%
D21*
%TO.P,D2,1,K*%
%TO.N,Net-(D2-K)*%
X221927500Y-89217500D03*
D22*
%TO.P,D2,2,A*%
%TO.N,GNDREF*%
X221927500Y-99377500D03*
%TD*%
D23*
%TO.P,R1,1*%
%TO.N,Net-(Q1-G)*%
X216217500Y-121920000D03*
D24*
%TO.P,R1,2*%
%TO.N,Net-(R1-Pad2)*%
X200977500Y-121920000D03*
%TD*%
D15*
%TO.P,D5,1,A1*%
%TO.N,/PS-00*%
X188282500Y-63817500D03*
D16*
%TO.P,D5,2,A2*%
%TO.N,Net-(D5-A2)*%
X203522500Y-63817500D03*
%TD*%
D25*
%TO.P,R4,1*%
%TO.N,Net-(R4-Pad1)*%
X208602500Y-217180000D03*
D26*
%TO.P,R4,2*%
%TO.N,Net-(D7-K)*%
X208602500Y-209560000D03*
%TD*%
D23*
%TO.P,R2,1*%
%TO.N,Net-(Q2-G)*%
X216212500Y-83820000D03*
D24*
%TO.P,R2,2*%
%TO.N,Net-(R1-Pad2)*%
X200972500Y-83820000D03*
%TD*%
D14*
%TO.P,H2,1,1*%
%TO.N,unconnected-(H2-Pad1)*%
X216217500Y-222567500D03*
%TD*%
D10*
%TO.P,C6,1*%
%TO.N,Net-(D4-A)*%
X143827500Y-90597500D03*
%TO.P,C6,2*%
%TO.N,Net-(C4-Pad1)*%
X143827500Y-100597500D03*
%TD*%
D27*
%TO.P,U2,1,5V*%
%TO.N,Net-(J1-Pin_5)*%
X147637500Y-132080000D03*
X150177500Y-132080000D03*
%TO.P,U2,2,GND*%
%TO.N,Net-(J1-Pin_6)*%
X147637500Y-134620000D03*
X150177500Y-134620000D03*
%TO.P,U2,3*%
%TO.N,N/C*%
X147637500Y-137160000D03*
X150177500Y-137160000D03*
%TO.P,U2,4,OUT*%
%TO.N,Net-(J1-Pin_9)*%
X147637500Y-139700000D03*
X150177500Y-139700000D03*
%TO.P,U2,5,ACTIVE_M2*%
%TO.N,Net-(J2-Pin_1)*%
X147637500Y-203517500D03*
X150177500Y-203517500D03*
%TO.P,U2,6,PAD2*%
%TO.N,Net-(J2-Pin_3)*%
X147637500Y-208597500D03*
X150177500Y-208597500D03*
%TO.P,U2,7,PAD1*%
%TO.N,Net-(J2-Pin_5)*%
X147637500Y-213677500D03*
X150177500Y-213677500D03*
%TD*%
D28*
%TO.P,CR2,1,1*%
%TO.N,Net-(CR1-Pad2)*%
X173677500Y-53657500D03*
D29*
%TO.P,CR2,2,2*%
%TO.N,Net-(D4-A)*%
X173677500Y-51117500D03*
%TO.P,CR2,3,3*%
%TO.N,Net-(CR1-Pad2)*%
X173677500Y-48577500D03*
%TD*%
D17*
%TO.P,J8,1,Pin_1*%
%TO.N,Net-(J8-Pin_1)*%
X126457500Y-77320000D03*
D18*
%TO.P,J8,3,Pin_3*%
%TO.N,Net-(J8-Pin_3)*%
X126457500Y-85240000D03*
%TD*%
D21*
%TO.P,D1,1,K*%
%TO.N,Net-(D1-K)*%
X221932500Y-127317500D03*
D22*
%TO.P,D1,2,A*%
%TO.N,GNDREF*%
X221932500Y-137477500D03*
%TD*%
D30*
%TO.P,U4,1*%
%TO.N,Net-(R4-Pad1)*%
X203517500Y-217170000D03*
D31*
%TO.P,U4,2*%
%TO.N,GND*%
X206057500Y-217170000D03*
%TO.P,U4,3*%
X206057500Y-209550000D03*
%TO.P,U4,4*%
%TO.N,Net-(J1-Pin_10)*%
X203517500Y-209550000D03*
%TD*%
D23*
%TO.P,R3,1*%
%TO.N,Net-(Q3-G)*%
X216217500Y-45720000D03*
D24*
%TO.P,R3,2*%
%TO.N,Net-(R1-Pad2)*%
X200977500Y-45720000D03*
%TD*%
D14*
%TO.P,H4,1,1*%
%TO.N,unconnected-(H4-Pad1)*%
X126682500Y-222567500D03*
%TD*%
D32*
%TO.P,C1,1*%
%TO.N,VDD*%
X199707500Y-143470000D03*
%TO.P,C1,2*%
%TO.N,GND*%
X199707500Y-138470000D03*
%TD*%
D30*
%TO.P,U1,1,VDD*%
%TO.N,VDD*%
X203517500Y-144780000D03*
D31*
%TO.P,U1,2,INPUT*%
%TO.N,/PWM*%
X206057500Y-144780000D03*
%TO.P,U1,3,NC*%
%TO.N,unconnected-(U1-NC-Pad3)*%
X208597500Y-144780000D03*
%TO.P,U1,4,GND*%
%TO.N,GND*%
X211137500Y-144780000D03*
%TO.P,U1,5,GND*%
X211137500Y-137160000D03*
%TO.P,U1,6,OUTPUT*%
%TO.N,Net-(R1-Pad2)*%
X208597500Y-137160000D03*
%TO.P,U1,7,OUTPUT*%
X206057500Y-137160000D03*
%TO.P,U1,8,VDD*%
%TO.N,VDD*%
X203517500Y-137160000D03*
%TD*%
D19*
%TO.P,D8,1,K*%
%TO.N,/RLY-K*%
X188307500Y-109885000D03*
D20*
%TO.P,D8,2,A*%
%TO.N,/RLY-A*%
X188307500Y-117505000D03*
%TD*%
D17*
%TO.P,J3,1,Pin_1*%
%TO.N,Net-(J3-Pin_1)*%
X126272500Y-165735000D03*
D18*
%TO.P,J3,3,Pin_3*%
%TO.N,Net-(J3-Pin_3)*%
X126272500Y-173655000D03*
%TO.P,J3,5,Pin_5*%
%TO.N,Net-(J3-Pin_5)*%
X126272500Y-181575000D03*
%TD*%
D15*
%TO.P,D6,1,A1*%
%TO.N,Net-(D5-A2)*%
X203522500Y-70167500D03*
D16*
%TO.P,D6,2,A2*%
%TO.N,GNDREF*%
X188282500Y-70167500D03*
%TD*%
D10*
%TO.P,L4,1,1*%
%TO.N,Net-(D2-K)*%
X216217500Y-89217500D03*
D11*
%TO.P,L4,2,2*%
%TO.N,/PS-00*%
X200977500Y-89217500D03*
%TD*%
D33*
%TO.P,C2,1*%
%TO.N,Net-(D7-K)*%
X217502001Y-164465000D03*
D34*
%TO.P,C2,2*%
%TO.N,GNDREF*%
X227502001Y-164465000D03*
%TD*%
D27*
%TO.P,U3,1,5V*%
%TO.N,Net-(J1-Pin_5)*%
X179387500Y-132080000D03*
X181927500Y-132080000D03*
%TO.P,U3,2,GND*%
%TO.N,Net-(J1-Pin_6)*%
X179387500Y-134620000D03*
X181927500Y-134620000D03*
%TO.P,U3,3,OUT1*%
%TO.N,Net-(J1-Pin_7)*%
X179387500Y-137160000D03*
X181927500Y-137160000D03*
%TO.P,U3,4,OUT2*%
%TO.N,Net-(J1-Pin_8)*%
X179387500Y-139700000D03*
X181927500Y-139700000D03*
%TO.P,U3,5,CUT*%
%TO.N,Net-(J3-Pin_1)*%
X179387500Y-203517500D03*
X181927500Y-203517500D03*
%TO.P,U3,6,COAG*%
%TO.N,Net-(J3-Pin_3)*%
X179387500Y-208597500D03*
X181927500Y-208597500D03*
%TO.P,U3,7,ACTIVE_M1*%
%TO.N,Net-(J3-Pin_5)*%
X179387500Y-213677500D03*
X181927500Y-213677500D03*
%TD*%
D35*
%TO.P,J1,1,Pin_1*%
%TO.N,/PWM*%
X195897500Y-186690000D03*
X198437500Y-186690000D03*
D36*
%TO.P,J1,2,Pin_2*%
%TO.N,VDD*%
X195897500Y-189230000D03*
X198437500Y-189230000D03*
%TO.P,J1,3,Pin_3*%
%TO.N,/RLY-A*%
X195897500Y-191770000D03*
X198437500Y-191770000D03*
%TO.P,J1,4,Pin_4*%
%TO.N,/RLY-K*%
X195897500Y-194310000D03*
X198437500Y-194310000D03*
%TO.P,J1,5,Pin_5*%
%TO.N,Net-(J1-Pin_5)*%
X195897500Y-196850000D03*
X198437500Y-196850000D03*
%TO.P,J1,6,Pin_6*%
%TO.N,Net-(J1-Pin_6)*%
X195897500Y-199390000D03*
X198437500Y-199390000D03*
%TO.P,J1,7,Pin_7*%
%TO.N,Net-(J1-Pin_7)*%
X195897500Y-201930000D03*
X198437500Y-201930000D03*
%TO.P,J1,8,Pin_8*%
%TO.N,Net-(J1-Pin_8)*%
X195897500Y-204470000D03*
X198437500Y-204470000D03*
%TO.P,J1,9,Pin_9*%
%TO.N,Net-(J1-Pin_9)*%
X195897500Y-207010000D03*
X198437500Y-207010000D03*
%TO.P,J1,10,Pin_10*%
%TO.N,Net-(J1-Pin_10)*%
X195897500Y-209550000D03*
X198437500Y-209550000D03*
%TO.P,J1,11,Pin_11*%
%TO.N,unconnected-(J1-Pin_11-Pad11)*%
X195897500Y-212090000D03*
X198437500Y-212090000D03*
%TO.P,J1,12,Pin_12*%
%TO.N,unconnected-(J1-Pin_12-Pad12)*%
X195897500Y-214630000D03*
X198437500Y-214630000D03*
%TO.P,J1,13,Pin_13*%
%TO.N,unconnected-(J1-Pin_13-Pad13)*%
X195897500Y-217170000D03*
X198437500Y-217170000D03*
%TO.P,J1,14,Pin_14*%
%TO.N,unconnected-(J1-Pin_14-Pad14)*%
X195897500Y-219710000D03*
X198437500Y-219710000D03*
%TO.P,J1,15,Pin_15*%
%TO.N,Net-(CON-01-Pin_2)*%
X195897500Y-222250000D03*
X198437500Y-222250000D03*
%TO.P,J1,16,Pin_16*%
%TO.N,GND*%
X195897500Y-224790000D03*
X198437500Y-224790000D03*
%TD*%
D21*
%TO.P,D3,1,K*%
%TO.N,Net-(D3-K)*%
X221932500Y-51117500D03*
D22*
%TO.P,D3,2,A*%
%TO.N,GNDREF*%
X221932500Y-61277500D03*
%TD*%
D32*
%TO.P,C3,1*%
%TO.N,Net-(D7-K)*%
X199707500Y-167917500D03*
%TO.P,C3,2*%
%TO.N,GNDREF*%
X199707500Y-162917500D03*
%TD*%
D10*
%TO.P,L3,1,1*%
%TO.N,GNDREF*%
X216217500Y-94615000D03*
D11*
%TO.P,L3,2,2*%
%TO.N,GND*%
X200977500Y-94615000D03*
%TD*%
D37*
%TO.P,CON-01,1,Pin_1*%
%TO.N,VS*%
X229235000Y-196850000D03*
%TO.P,CON-01,2,Pin_2*%
%TO.N,Net-(CON-01-Pin_2)*%
X229235000Y-204470000D03*
%TO.P,CON-01,3,Pin_3*%
X229235000Y-212090000D03*
%TO.P,CON-01,4,Pin_4*%
%TO.N,GND*%
X229235000Y-219710000D03*
%TD*%
D17*
%TO.P,J2,1,Pin_1*%
%TO.N,Net-(J2-Pin_1)*%
X126365000Y-190200000D03*
D18*
%TO.P,J2,3,Pin_3*%
%TO.N,Net-(J2-Pin_3)*%
X126365000Y-198120000D03*
%TO.P,J2,5,Pin_5*%
%TO.N,Net-(J2-Pin_5)*%
X126365000Y-206040000D03*
%TD*%
D10*
%TO.P,L6,1,1*%
%TO.N,Net-(D3-K)*%
X216222500Y-51117500D03*
D11*
%TO.P,L6,2,2*%
%TO.N,/PS-00*%
X200982500Y-51117500D03*
%TD*%
D38*
%TO.P,K1,11A*%
%TO.N,Net-(C4-Pad1)*%
X181282500Y-114955000D03*
%TO.P,K1,11B*%
X166082500Y-123855000D03*
%TO.P,K1,12*%
%TO.N,Net-(J9-Pin_1)*%
X155942500Y-106055000D03*
%TO.P,K1,14*%
%TO.N,Net-(J9-Pin_3)*%
X163542500Y-106055000D03*
D39*
%TO.P,K1,A1*%
%TO.N,/RLY-A*%
X178742500Y-120055000D03*
D40*
%TO.P,K1,A2*%
%TO.N,/RLY-K*%
X178742500Y-109855000D03*
%TD*%
D32*
%TO.P,C4,1*%
%TO.N,Net-(C4-Pad1)*%
X199707500Y-152757500D03*
%TO.P,C4,2*%
%TO.N,GNDREF*%
X199707500Y-157757500D03*
%TD*%
D10*
%TO.P,L7,1,1*%
%TO.N,Net-(D7-K)*%
X208910000Y-191770000D03*
D11*
%TO.P,L7,2,2*%
%TO.N,Net-(C4-Pad1)*%
X224150000Y-191770000D03*
%TD*%
D10*
%TO.P,L2,1,1*%
%TO.N,Net-(D1-K)*%
X216217500Y-127317500D03*
D11*
%TO.P,L2,2,2*%
%TO.N,/PS-00*%
X200977500Y-127317500D03*
%TD*%
D10*
%TO.P,C5,1*%
%TO.N,Net-(D4-A)*%
X150207500Y-90597500D03*
%TO.P,C5,2*%
%TO.N,Net-(C4-Pad1)*%
X150207500Y-100597500D03*
%TD*%
D15*
%TO.P,D4,1,K*%
%TO.N,/PS-00*%
X203522500Y-76517500D03*
D16*
%TO.P,D4,2,A*%
%TO.N,Net-(D4-A)*%
X188282500Y-76517500D03*
%TD*%
D14*
%TO.P,H3,1,1*%
%TO.N,unconnected-(H3-Pad1)*%
X126682500Y-35242500D03*
%TD*%
D12*
%TO.P,Q2,1,G*%
%TO.N,Net-(Q2-G)*%
X228282500Y-83767500D03*
D13*
%TO.P,Q2,2,D*%
%TO.N,Net-(D2-K)*%
X228282500Y-89217500D03*
%TO.P,Q2,3,S*%
%TO.N,GNDREF*%
X228282500Y-94667500D03*
%TD*%
D28*
%TO.P,CR1,1,1*%
%TO.N,GNDREF*%
X157167500Y-53657500D03*
D29*
%TO.P,CR1,2,2*%
%TO.N,Net-(CR1-Pad2)*%
X157167500Y-51117500D03*
%TO.P,CR1,3,3*%
%TO.N,GNDREF*%
X157167500Y-48577500D03*
%TD*%
D23*
%TO.P,R5,1*%
%TO.N,GNDREF*%
X229235000Y-186690000D03*
D24*
%TO.P,R5,2*%
%TO.N,Net-(D7-K)*%
X208915000Y-186690000D03*
%TD*%
D38*
%TO.P,K2,11A*%
%TO.N,Net-(D4-A)*%
X181282500Y-86062500D03*
%TO.P,K2,11B*%
X166082500Y-94962500D03*
%TO.P,K2,12*%
%TO.N,Net-(J8-Pin_1)*%
X155942500Y-77162500D03*
%TO.P,K2,14*%
%TO.N,Net-(J8-Pin_3)*%
X163542500Y-77162500D03*
D39*
%TO.P,K2,A1*%
%TO.N,/RLY-A*%
X178742500Y-91162500D03*
D40*
%TO.P,K2,A2*%
%TO.N,/RLY-K*%
X178742500Y-80962500D03*
%TD*%
D41*
%TO.N,Net-(Q1-G)*%
X228230000Y-121920000D02*
X228282500Y-121867500D01*
X216217500Y-121920000D02*
X228230000Y-121920000D01*
D42*
%TO.N,Net-(CR1-Pad2)*%
X169550000Y-51117500D02*
X170502500Y-50165000D01*
X170502500Y-50165000D02*
X170502500Y-52070000D01*
X171455000Y-53657500D02*
X170502500Y-52705000D01*
X171455000Y-48577500D02*
X170502500Y-49530000D01*
X170502500Y-52705000D02*
X170502500Y-52070000D01*
X170502500Y-52070000D02*
X169550000Y-51117500D01*
X170502500Y-50165000D02*
X170502500Y-49530000D01*
X157167500Y-51117500D02*
X169550000Y-51117500D01*
X173677500Y-53657500D02*
X171455000Y-53657500D01*
X173677500Y-48577500D02*
X171455000Y-48577500D01*
D41*
%TO.N,Net-(Q2-G)*%
X228225000Y-83820000D02*
X228277500Y-83767500D01*
X216212500Y-83820000D02*
X228225000Y-83820000D01*
%TO.N,Net-(Q3-G)*%
X228230000Y-45720000D02*
X228282500Y-45667500D01*
X216217500Y-45720000D02*
X228230000Y-45720000D01*
%TO.N,Net-(D4-A)*%
X178767500Y-74295000D02*
X178767500Y-53637500D01*
X177472500Y-76557500D02*
X178767500Y-75262500D01*
X188242500Y-76557500D02*
X180975000Y-76557500D01*
X178767500Y-74295000D02*
X178767500Y-74350000D01*
X177472500Y-76557500D02*
X172392500Y-81637500D01*
X173687500Y-51107500D02*
X173677500Y-51117500D01*
X143827500Y-90597500D02*
X150207500Y-90597500D01*
X172392500Y-88652500D02*
X166082500Y-94962500D01*
X178767500Y-75262500D02*
X178767500Y-74295000D01*
X180975000Y-76557500D02*
X177472500Y-76557500D01*
X176237500Y-51107500D02*
X173687500Y-51107500D01*
X154572500Y-94962500D02*
X150207500Y-90597500D01*
X172392500Y-81637500D02*
X172392500Y-88652500D01*
X178767500Y-74350000D02*
X180975000Y-76557500D01*
X166082500Y-94962500D02*
X154572500Y-94962500D01*
X188282500Y-76517500D02*
X188242500Y-76557500D01*
X178767500Y-53637500D02*
X176237500Y-51107500D01*
%TO.N,Net-(D1-K)*%
X221932500Y-127317500D02*
X228282500Y-127317500D01*
X216217500Y-127317500D02*
X221932500Y-127317500D01*
%TO.N,Net-(D2-K)*%
X216217500Y-89217500D02*
X221927500Y-89217500D01*
X221927500Y-89217500D02*
X228277500Y-89217500D01*
%TO.N,Net-(D3-K)*%
X216222500Y-51117500D02*
X221932500Y-51117500D01*
X221932500Y-51117500D02*
X228282500Y-51117500D01*
D43*
%TO.N,Net-(D5-A2)*%
X203522500Y-63817500D02*
X203522500Y-70167500D01*
D42*
%TO.N,Net-(C4-Pad1)*%
X199707500Y-148907500D02*
X195917500Y-145117500D01*
X205422500Y-200342500D02*
X203835000Y-198755000D01*
X196532500Y-155932500D02*
X199707500Y-152757500D01*
X168335000Y-126047500D02*
X168305000Y-126077500D01*
X218122500Y-191770000D02*
X216535000Y-193357500D01*
X194627500Y-126047500D02*
X168335000Y-126047500D01*
D41*
X171132500Y-105727500D02*
X171132500Y-111820000D01*
X171132500Y-111820000D02*
X166082500Y-116870000D01*
D42*
X216535000Y-193357500D02*
X216535000Y-198755000D01*
X195917500Y-145117500D02*
X195917500Y-127337500D01*
X195917500Y-127337500D02*
X194627500Y-126047500D01*
X224150000Y-191770000D02*
X218122500Y-191770000D01*
X168305000Y-126077500D02*
X166082500Y-123855000D01*
X203835000Y-198755000D02*
X203835000Y-178752500D01*
X214947500Y-200342500D02*
X205422500Y-200342500D01*
D41*
X143827500Y-100597500D02*
X150207500Y-100597500D01*
D42*
X203835000Y-178752500D02*
X196532500Y-171450000D01*
D41*
X166002500Y-100597500D02*
X171132500Y-105727500D01*
X166082500Y-116870000D02*
X166082500Y-123855000D01*
D42*
X196532500Y-171450000D02*
X196532500Y-155932500D01*
X199707500Y-152757500D02*
X199707500Y-148907500D01*
D41*
X150207500Y-100597500D02*
X166002500Y-100597500D01*
D42*
X216535000Y-198755000D02*
X214947500Y-200342500D01*
D43*
%TO.N,Net-(J8-Pin_3)*%
X126595000Y-85102500D02*
X159750000Y-85102500D01*
X159750000Y-85102500D02*
X163542500Y-81310000D01*
X163542500Y-81310000D02*
X163542500Y-77162500D01*
X126457500Y-85240000D02*
X126595000Y-85102500D01*
%TO.N,Net-(J8-Pin_1)*%
X126595000Y-77182500D02*
X126457500Y-77320000D01*
X155922500Y-77182500D02*
X126595000Y-77182500D01*
D42*
X155942500Y-77162500D02*
X155922500Y-77182500D01*
D43*
%TO.N,Net-(J9-Pin_1)*%
X126457500Y-106212500D02*
X126595000Y-106075000D01*
X126595000Y-106075000D02*
X155922500Y-106075000D01*
D42*
X155922500Y-106075000D02*
X155942500Y-106055000D01*
D43*
%TO.N,Net-(J9-Pin_3)*%
X126595000Y-113995000D02*
X159750000Y-113995000D01*
X126457500Y-114132500D02*
X126595000Y-113995000D01*
X159750000Y-113995000D02*
X163542500Y-110202500D01*
X163542500Y-110202500D02*
X163542500Y-106055000D01*
D44*
%TO.N,Net-(J2-Pin_1)*%
X126365000Y-190200000D02*
X131070000Y-190200000D01*
X147637500Y-203517500D02*
X150177500Y-203517500D01*
X131070000Y-190200000D02*
X144387500Y-203517500D01*
X144387500Y-203517500D02*
X147637500Y-203517500D01*
%TO.N,Net-(J2-Pin_5)*%
X138747500Y-213677500D02*
X131127500Y-206057500D01*
X131127500Y-206057500D02*
X126382500Y-206057500D01*
X150177500Y-213677500D02*
X138747500Y-213677500D01*
X126382500Y-206057500D02*
X126365000Y-206040000D01*
%TO.N,Net-(J2-Pin_3)*%
X141530000Y-208597500D02*
X150177500Y-208597500D01*
X131052500Y-198120000D02*
X141530000Y-208597500D01*
X126365000Y-198120000D02*
X131052500Y-198120000D01*
%TO.N,Net-(J3-Pin_3)*%
X126290000Y-173672500D02*
X160337500Y-173672500D01*
X160337500Y-173672500D02*
X165417500Y-178752500D01*
X165417500Y-203517500D02*
X170497500Y-208597500D01*
X170497500Y-208597500D02*
X181927500Y-208597500D01*
X165417500Y-178752500D02*
X165417500Y-203517500D01*
%TO.N,Net-(J3-Pin_1)*%
X164165000Y-165752500D02*
X171767500Y-173355000D01*
X174307500Y-203517500D02*
X181927500Y-203517500D01*
X171767500Y-173355000D02*
X171767500Y-200977500D01*
X126290000Y-165752500D02*
X164165000Y-165752500D01*
X171767500Y-200977500D02*
X174307500Y-203517500D01*
%TO.N,Net-(J3-Pin_5)*%
X165435000Y-213695000D02*
X181910000Y-213695000D01*
X159067500Y-207327500D02*
X165435000Y-213695000D01*
X159067500Y-184167500D02*
X159067500Y-207327500D01*
X156510000Y-181610000D02*
X159067500Y-184167500D01*
X126307500Y-181610000D02*
X156510000Y-181610000D01*
X181910000Y-213695000D02*
X181927500Y-213677500D01*
X181927500Y-213677500D02*
X174307500Y-213677500D01*
%TD*%
%TA.AperFunction,Conductor*%
%TO.N,VS*%
G36*
X229177121Y-194965002D02*
G01*
X229223614Y-195018658D01*
X229235000Y-195071000D01*
X229235000Y-198629000D01*
X229214998Y-198697121D01*
X229161342Y-198743614D01*
X229109000Y-198755000D01*
X224524690Y-198755000D01*
X224456569Y-198734998D01*
X224435595Y-198718095D01*
X223556905Y-197839405D01*
X223522879Y-197777093D01*
X223520000Y-197750310D01*
X223520000Y-195949690D01*
X223540002Y-195881569D01*
X223556905Y-195860595D01*
X224435595Y-194981905D01*
X224497907Y-194947879D01*
X224524690Y-194945000D01*
X229109000Y-194945000D01*
X229177121Y-194965002D01*
G37*
%TD.AperFunction*%
%TD*%
%TA.AperFunction,Conductor*%
%TO.N,/PS-00*%
G36*
X200924621Y-50185002D02*
G01*
X200971114Y-50238658D01*
X200982500Y-50291000D01*
X200982500Y-51944000D01*
X200962498Y-52012121D01*
X200908842Y-52058614D01*
X200856500Y-52070000D01*
X199389998Y-52070000D01*
X195262500Y-56197498D01*
X195262500Y-73977501D01*
X196532498Y-75247499D01*
X196532500Y-75247500D01*
X204735310Y-75247500D01*
X204803431Y-75267502D01*
X204824405Y-75284405D01*
X207290595Y-77750595D01*
X207324621Y-77812907D01*
X207327500Y-77839690D01*
X207327500Y-84085310D01*
X207307498Y-84153431D01*
X207290595Y-84174405D01*
X201612500Y-89852500D01*
X197485000Y-93979998D01*
X197485000Y-122555001D01*
X201523404Y-126593405D01*
X201557430Y-126655717D01*
X201552365Y-126726532D01*
X201523404Y-126771595D01*
X200431595Y-127863405D01*
X200369283Y-127897430D01*
X200298468Y-127892366D01*
X200253405Y-127863405D01*
X194981905Y-122591905D01*
X194947879Y-122529593D01*
X194945000Y-122502810D01*
X194945000Y-94032190D01*
X194965002Y-93964069D01*
X194981905Y-93943095D01*
X204787500Y-84137500D01*
X204787500Y-79057500D01*
X204787499Y-79057498D01*
X203517501Y-77787500D01*
X203517500Y-77787500D01*
X195314690Y-77787500D01*
X195246569Y-77767498D01*
X195225595Y-77750595D01*
X192759405Y-75284405D01*
X192725379Y-75222093D01*
X192722500Y-75195310D01*
X192722500Y-66992500D01*
X190842538Y-65087500D01*
X187133500Y-65087500D01*
X187065379Y-65067498D01*
X187018886Y-65013842D01*
X187007500Y-64961500D01*
X187007500Y-60694690D01*
X187027502Y-60626569D01*
X187044405Y-60605595D01*
X197448095Y-50201905D01*
X197510407Y-50167879D01*
X197537190Y-50165000D01*
X200856500Y-50165000D01*
X200924621Y-50185002D01*
G37*
%TD.AperFunction*%
%TD*%
%TA.AperFunction,Conductor*%
%TO.N,Net-(CON-01-Pin_2)*%
G36*
X237823431Y-202585002D02*
G01*
X237844405Y-202601905D01*
X239040595Y-203798095D01*
X239074621Y-203860407D01*
X239077500Y-203887190D01*
X239077500Y-212672810D01*
X239057498Y-212740931D01*
X239040595Y-212761905D01*
X237844405Y-213958095D01*
X237782093Y-213992121D01*
X237755310Y-213995000D01*
X217169998Y-213995000D01*
X208316905Y-222848095D01*
X208254593Y-222882121D01*
X208227810Y-222885000D01*
X196023500Y-222885000D01*
X195955379Y-222864998D01*
X195908886Y-222811342D01*
X195897500Y-222759000D01*
X195897500Y-221741000D01*
X195917502Y-221672879D01*
X195971158Y-221626386D01*
X196023500Y-221615000D01*
X207645000Y-221615000D01*
X210820000Y-218440000D01*
X210820000Y-205157190D01*
X210840002Y-205089069D01*
X210856905Y-205068095D01*
X213323095Y-202601905D01*
X213385407Y-202567879D01*
X213412190Y-202565000D01*
X237755310Y-202565000D01*
X237823431Y-202585002D01*
G37*
%TD.AperFunction*%
%TD*%
%TA.AperFunction,Conductor*%
%TO.N,GNDREF*%
G36*
X186054998Y-32078561D02*
G01*
X196849998Y-32076310D01*
X209180278Y-32068102D01*
X209248410Y-32088059D01*
X209269433Y-32104985D01*
X210465576Y-33300593D01*
X210499615Y-33362896D01*
X210502500Y-33389707D01*
X210502500Y-50482501D01*
X215264998Y-55244999D01*
X215265000Y-55245000D01*
X237755310Y-55245000D01*
X237823431Y-55265002D01*
X237844405Y-55281905D01*
X239040595Y-56478095D01*
X239074621Y-56540407D01*
X239077500Y-56567190D01*
X239077500Y-186637810D01*
X239057498Y-186705931D01*
X239040595Y-186726905D01*
X237844405Y-187923095D01*
X237782093Y-187957121D01*
X237755310Y-187960000D01*
X226747483Y-187960000D01*
X226679362Y-187939998D01*
X226658036Y-187922743D01*
X225471614Y-186726905D01*
X225471569Y-186726859D01*
X225437792Y-186664414D01*
X225435017Y-186638082D01*
X225445000Y-157480000D01*
X225444999Y-157479999D01*
X222885001Y-154940000D01*
X222885000Y-154940000D01*
X216852500Y-154940000D01*
X216852498Y-154940000D01*
X207999341Y-163793158D01*
X207937029Y-163827184D01*
X207910399Y-163830063D01*
X199760166Y-163839936D01*
X199692021Y-163820016D01*
X199670457Y-163802568D01*
X198791439Y-162914322D01*
X198757741Y-162851834D01*
X198755000Y-162825694D01*
X198755000Y-157850459D01*
X198775002Y-157782338D01*
X198792835Y-157760443D01*
X199690760Y-156880983D01*
X199753422Y-156847608D01*
X199778925Y-156845000D01*
X205422500Y-156845000D01*
X213995000Y-148272500D01*
X213995000Y-132767190D01*
X214015002Y-132699069D01*
X214031905Y-132678095D01*
X215228095Y-131481905D01*
X215290407Y-131447879D01*
X215317190Y-131445000D01*
X230842500Y-131445000D01*
X234017498Y-128270002D01*
X234017500Y-128270000D01*
X233997500Y-119697500D01*
X233997499Y-119697499D01*
X233997499Y-119697498D01*
X231457501Y-117157500D01*
X231457500Y-117157500D01*
X215317778Y-117157500D01*
X215249657Y-117137498D01*
X215227978Y-117119886D01*
X214051151Y-115924229D01*
X214017622Y-115861648D01*
X214014951Y-115835966D01*
X213995049Y-94667257D01*
X214014987Y-94599119D01*
X214031949Y-94578050D01*
X215228063Y-93381936D01*
X215290373Y-93347912D01*
X215317232Y-93345033D01*
X230842500Y-93355000D01*
X234017500Y-90180000D01*
X234017500Y-81607500D01*
X231457500Y-79057500D01*
X231457499Y-79057500D01*
X215317190Y-79057500D01*
X215249069Y-79037498D01*
X215228095Y-79020595D01*
X214031905Y-77824405D01*
X213997879Y-77762093D01*
X213995000Y-77735310D01*
X213995000Y-61277500D01*
X213994999Y-61277498D01*
X206729405Y-54011904D01*
X206695379Y-53949592D01*
X206692500Y-53922809D01*
X206692500Y-43180000D01*
X204787500Y-40957500D01*
X200977500Y-40957500D01*
X200977498Y-40957500D01*
X184487500Y-57467498D01*
X184487499Y-57467499D01*
X184467500Y-66357501D01*
X187007498Y-68897499D01*
X187007500Y-68897500D01*
X188151500Y-68897500D01*
X188219621Y-68917502D01*
X188266114Y-68971158D01*
X188277500Y-69023500D01*
X188277500Y-71311500D01*
X188257498Y-71379621D01*
X188203842Y-71426114D01*
X188151500Y-71437500D01*
X187054546Y-71437500D01*
X186986425Y-71417498D01*
X186965626Y-71400771D01*
X184526410Y-68971158D01*
X181959672Y-66414526D01*
X181925526Y-66352282D01*
X181922593Y-66325037D01*
X181947500Y-52387500D01*
X181947499Y-52387499D01*
X181947500Y-52387499D01*
X175597487Y-46045744D01*
X175597485Y-46045743D01*
X171152500Y-46037500D01*
X171152499Y-46037500D01*
X171152498Y-46037500D01*
X167994487Y-49195512D01*
X167932175Y-49229538D01*
X167905193Y-49232417D01*
X155317460Y-49212563D01*
X155277500Y-49212500D01*
X155277499Y-49212500D01*
X155277497Y-49212501D01*
X154642501Y-49847497D01*
X154642500Y-49847500D01*
X154622499Y-52407500D01*
X155257498Y-53042499D01*
X155257500Y-53042500D01*
X167905774Y-53042500D01*
X167973895Y-53062502D01*
X167994304Y-53078844D01*
X171152500Y-56197500D01*
X174276359Y-56217177D01*
X174344350Y-56237608D01*
X174363949Y-56253375D01*
X175559810Y-57430404D01*
X175594328Y-57492443D01*
X175597424Y-57520383D01*
X175579392Y-70115364D01*
X175559292Y-70183456D01*
X175542424Y-70204343D01*
X174344394Y-71400659D01*
X174282057Y-71434640D01*
X174255362Y-71437500D01*
X144514690Y-71437500D01*
X144446569Y-71417498D01*
X144425595Y-71400595D01*
X143229405Y-70204405D01*
X143195379Y-70142093D01*
X143192500Y-70115310D01*
X143192500Y-33389700D01*
X143212502Y-33321579D01*
X143229413Y-33300595D01*
X144425586Y-32104732D01*
X144487900Y-32070717D01*
X144514695Y-32067841D01*
X186054998Y-32078561D01*
G37*
%TD.AperFunction*%
%TD*%
%TA.AperFunction,Conductor*%
%TO.N,GND*%
G36*
X204168431Y-55582502D02*
G01*
X204189405Y-55599405D01*
X211735595Y-63145595D01*
X211769621Y-63207907D01*
X211772500Y-63234690D01*
X211772500Y-144654000D01*
X211752498Y-144722121D01*
X211698842Y-144768614D01*
X211646500Y-144780000D01*
X210628500Y-144780000D01*
X210560379Y-144759998D01*
X210513886Y-144706342D01*
X210502500Y-144654000D01*
X210502500Y-143510000D01*
X210502499Y-143509998D01*
X209550001Y-142557500D01*
X209550000Y-142557500D01*
X201982190Y-142557500D01*
X201914069Y-142537498D01*
X201893095Y-142520595D01*
X199109405Y-139736905D01*
X199075379Y-139674593D01*
X199072500Y-139647810D01*
X199072500Y-138482190D01*
X199092502Y-138414069D01*
X199109399Y-138393100D01*
X199618407Y-137884092D01*
X199680716Y-137850070D01*
X199751531Y-137855134D01*
X199796594Y-137884095D01*
X201294998Y-139382499D01*
X201295000Y-139382500D01*
X209550000Y-139382500D01*
X210502500Y-138430000D01*
X210502500Y-136207500D01*
X210502499Y-136207498D01*
X207962501Y-133667500D01*
X207962500Y-133667500D01*
X201029690Y-133667500D01*
X200961569Y-133647498D01*
X200940595Y-133630595D01*
X200061905Y-132751905D01*
X200027879Y-132689593D01*
X200025000Y-132662810D01*
X200025000Y-132449690D01*
X200045002Y-132381569D01*
X200061905Y-132360595D01*
X204787500Y-127635000D01*
X204787500Y-120312500D01*
X200062092Y-115606936D01*
X200027936Y-115544695D01*
X200025000Y-115517653D01*
X200025000Y-94349690D01*
X200045002Y-94281569D01*
X200061905Y-94260595D01*
X209232500Y-85090000D01*
X209232500Y-64770000D01*
X209232499Y-64769998D01*
X200977501Y-56515000D01*
X200977500Y-56515000D01*
X200329190Y-56515000D01*
X200261069Y-56494998D01*
X200214576Y-56441342D01*
X200204472Y-56371068D01*
X200233966Y-56306488D01*
X200240095Y-56299905D01*
X200940595Y-55599405D01*
X201002907Y-55565379D01*
X201029690Y-55562500D01*
X204100310Y-55562500D01*
X204168431Y-55582502D01*
G37*
%TD.AperFunction*%
%TD*%
%TA.AperFunction,Conductor*%
%TO.N,Net-(D7-K)*%
G36*
X219334621Y-162580002D02*
G01*
X219381114Y-162633658D01*
X219392500Y-162686000D01*
X219392500Y-186955309D01*
X219372498Y-187023430D01*
X219355595Y-187044404D01*
X213995000Y-192404998D01*
X213995000Y-196797810D01*
X213974998Y-196865931D01*
X213958095Y-196886905D01*
X212761905Y-198083095D01*
X212699593Y-198117121D01*
X212672810Y-198120000D01*
X207771000Y-198120000D01*
X207702879Y-198099998D01*
X207656386Y-198046342D01*
X207645000Y-197994000D01*
X207645000Y-172085000D01*
X207644999Y-172084998D01*
X206375001Y-170815000D01*
X206375000Y-170815000D01*
X199759690Y-170815000D01*
X199691569Y-170794998D01*
X199670595Y-170778095D01*
X198791905Y-169899405D01*
X198757879Y-169837093D01*
X198755000Y-169810310D01*
X198755000Y-168009690D01*
X198775002Y-167941569D01*
X198791905Y-167920595D01*
X199670595Y-167041905D01*
X199732907Y-167007879D01*
X199759690Y-167005000D01*
X210820000Y-167005000D01*
X215228095Y-162596905D01*
X215290407Y-162562879D01*
X215317190Y-162560000D01*
X219266500Y-162560000D01*
X219334621Y-162580002D01*
G37*
%TD.AperFunction*%
%TD*%
M02*
