  0
SECTION
  2
HEADER
  9
$ANGBASE
  50
0.0
  9
$ANGDIR
  70
1
  9
$MEASUREMENT
  70
1
  9
$INSUNITS
  70
4
  0
ENDSEC
  0
SECTION
  2
TABLES
  0
TABLE
  2
LTYPE
  70
4
  0
LTYPE
  5
40F
  2
CONTINUOUS
  70
0
  3
Solid line
  72
65
  73
0
  40
0.0
  0
LTYPE
  5
410
  2
DASHDOT
 70
0
  3
Dash Dot ____ _ ____ _
 72
65
 73
4
 40
2.0
 49
1.25
 49
-0.25
 49
0.25
 49
-0.25
  0
LTYPE
  5
411
  2
DASHED
 70
0
  3
Dashed __ __ __ __ __
 72
65
 73
2
 40
0.75
 49
0.5
 49
-0.25
  0
LTYPE
  5
43B
  2
DOTTED
 70
0
  3
Dotted .  .  .  .
 72
65
 73
2
 40
0.2
 49
0.0
 49
-0.2
  0
ENDTAB
  0
TABLE
  2
STYLE
  70
4
  0
STYLE
  2
KICAD
  70
0
  40
0
  41
1
  42
1
  50
0
  71
0
  3
isocp.shx
  0
STYLE
  2
KICADB
  70
0
  40
0
  41
1
  42
1
  50
0
  71
0
  3
isocp.shx
  0
STYLE
  2
KICADI
  70
0
  40
0
  41
1
  42
1
  50
15
  71
0
  3
isocp.shx
  0
STYLE
  2
KICADBI
  70
0
  40
0
  41
1
  42
1
  50
15
  71
0
  3
isocp.shx
  0
ENDTAB
  0
TABLE
  2
LAYER
  70
3
  0
LAYER
  2
F.Cu
  70
0
  62
11
  420
14377611
  6
CONTINUOUS
  0
LAYER
  2
B.Cu
  70
0
  62
9
  420
10986950
  6
CONTINUOUS
  0
LAYER
  2
Edge.Cuts
  70
0
  62
250
  420
16777215
  6
CONTINUOUS
  0
ENDTAB
  0
ENDSEC
  0
SECTION
  2
ENTITIES
0
LINE
8
B.Cu
6
CONTINUOUS
10
80.1054369999999949
20
-124.4599999999999937
11
82.4545629999999932
21
-124.4599999999999937
0
LINE
8
B.Cu
6
CONTINUOUS
10
82.4545629999999932
20
-124.4599999999999937
11
82.4566389999999956
21
-124.4595869999999991
0
LINE
8
B.Cu
6
CONTINUOUS
10
82.4566389999999956
20
-124.4595869999999991
11
82.6433609999999987
21
-124.4595869999999991
0
LINE
8
B.Cu
6
CONTINUOUS
10
82.6433609999999987
20
-124.4595869999999991
11
82.8264959999999917
21
-124.4960139999999882
0
LINE
8
B.Cu
6
CONTINUOUS
10
82.8264959999999917
20
-124.4960139999999882
11
82.9990049999999968
21
-124.5674700000000001
0
LINE
8
B.Cu
6
CONTINUOUS
10
82.9990049999999968
20
-124.5674700000000001
11
83.1542599999999936
21
-124.6712079999999929
0
LINE
8
B.Cu
6
CONTINUOUS
10
83.1542599999999936
20
-124.6712079999999929
11
83.2862920000000031
21
-124.8032399999999882
0
LINE
8
B.Cu
6
CONTINUOUS
10
83.2862920000000031
20
-124.8032399999999882
11
83.3900299999999959
21
-124.9584949999999992
0
LINE
8
B.Cu
6
CONTINUOUS
10
83.3900299999999959
20
-124.9584949999999992
11
83.4614859999999936
21
-125.1310039999999901
0
LINE
8
B.Cu
6
CONTINUOUS
10
83.4614859999999936
20
-125.1310039999999901
11
83.4979129999999969
21
-125.3141389999999973
0
LINE
8
B.Cu
6
CONTINUOUS
10
83.4979129999999969
20
-125.3141389999999973
11
83.5024999999999977
21
-125.4074999999999989
0
LINE
8
B.Cu
6
CONTINUOUS
10
83.5024999999999977
20
-125.4074999999999989
11
83.5024999999999977
21
-132.6379619999999875
0
LINE
8
B.Cu
6
CONTINUOUS
10
83.5024999999999977
20
-132.6379619999999875
11
86.3985189999999932
21
-135.5339809999999829
0
LINE
8
B.Cu
6
CONTINUOUS
10
86.3985189999999932
20
-135.5339809999999829
11
86.4612920000000003
21
-135.6032399999999996
0
LINE
8
B.Cu
6
CONTINUOUS
10
86.4612920000000003
20
-135.6032399999999996
11
86.565029999999993
21
-135.7584939999999847
0
LINE
8
B.Cu
6
CONTINUOUS
10
86.565029999999993
20
-135.7584939999999847
11
86.5775450000000006
21
-135.7887079999999855
0
LINE
8
B.Cu
6
CONTINUOUS
10
86.5775450000000006
20
-135.7887079999999855
11
86.6364859999999908
21
-135.9310040000000015
0
LINE
8
B.Cu
6
CONTINUOUS
10
86.6364859999999908
20
-135.9310040000000015
11
86.6729129999999941
21
-136.1141389999999944
0
LINE
8
B.Cu
6
CONTINUOUS
10
86.6729129999999941
20
-136.1141389999999944
11
86.6774999999999949
21
-136.2074999999999818
0
LINE
8
B.Cu
6
CONTINUOUS
10
86.6774999999999949
20
-136.2074999999999818
11
86.6774999999999949
21
-141.6049999999999898
0
LINE
8
B.Cu
6
CONTINUOUS
10
86.6774999999999949
20
-141.6049999999999898
11
86.6729129999999941
21
-141.6983610000000056
0
LINE
8
B.Cu
6
CONTINUOUS
10
86.6729129999999941
20
-141.6983610000000056
11
86.6364859999999908
21
-141.8814959999999985
0
LINE
8
B.Cu
6
CONTINUOUS
10
86.6364859999999908
20
-141.8814959999999985
11
86.565029999999993
21
-142.0540049999999894
0
LINE
8
B.Cu
6
CONTINUOUS
10
86.565029999999993
20
-142.0540049999999894
11
86.4612920000000003
21
-142.2092600000000004
0
LINE
8
B.Cu
6
CONTINUOUS
10
86.4612920000000003
20
-142.2092600000000004
11
86.3292599999999908
21
-142.3412919999999815
0
LINE
8
B.Cu
6
CONTINUOUS
10
86.3292599999999908
20
-142.3412919999999815
11
86.174004999999994
21
-142.4450300000000027
0
LINE
8
B.Cu
6
CONTINUOUS
10
86.174004999999994
20
-142.4450300000000027
11
86.0014960000000031
21
-142.5164859999999862
0
LINE
8
B.Cu
6
CONTINUOUS
10
86.0014960000000031
20
-142.5164859999999862
11
85.8183609999999959
21
-142.5529129999999896
0
LINE
8
B.Cu
6
CONTINUOUS
10
85.8183609999999959
20
-142.5529129999999896
11
85.6316389999999927
21
-142.5529129999999896
0
LINE
8
B.Cu
6
CONTINUOUS
10
85.6316389999999927
20
-142.5529129999999896
11
85.4485039999999998
21
-142.5164859999999862
0
LINE
8
B.Cu
6
CONTINUOUS
10
85.4485039999999998
20
-142.5164859999999862
11
85.2759949999999947
21
-142.4450300000000027
0
LINE
8
B.Cu
6
CONTINUOUS
10
85.2759949999999947
20
-142.4450300000000027
11
85.1207399999999978
21
-142.3412919999999815
0
LINE
8
B.Cu
6
CONTINUOUS
10
85.1207399999999978
20
-142.3412919999999815
11
84.9887080000000026
21
-142.2092600000000004
0
LINE
8
B.Cu
6
CONTINUOUS
10
84.9887080000000026
20
-142.2092600000000004
11
84.8849699999999956
21
-142.0540049999999894
0
LINE
8
B.Cu
6
CONTINUOUS
10
84.8849699999999956
20
-142.0540049999999894
11
84.8135139999999978
21
-141.8814959999999985
0
LINE
8
B.Cu
6
CONTINUOUS
10
84.8135139999999978
20
-141.8814959999999985
11
84.7770869999999945
21
-141.6983610000000056
0
LINE
8
B.Cu
6
CONTINUOUS
10
84.7770869999999945
20
-141.6983610000000056
11
84.7724999999999937
21
-141.6049999999999898
0
LINE
8
B.Cu
6
CONTINUOUS
10
84.7724999999999937
20
-141.6049999999999898
11
84.7724999999999937
21
-136.6020379999999932
0
LINE
8
B.Cu
6
CONTINUOUS
10
84.7724999999999937
20
-136.6020379999999932
11
81.8764809999999983
21
-133.7060189999999977
0
LINE
8
B.Cu
6
CONTINUOUS
10
81.8764809999999983
20
-133.7060189999999977
11
81.8137079999999912
21
-133.6367599999999811
0
LINE
8
B.Cu
6
CONTINUOUS
10
81.8137079999999912
20
-133.6367599999999811
11
81.7099699999999984
21
-133.481505999999996
0
LINE
8
B.Cu
6
CONTINUOUS
10
81.7099699999999984
20
-133.481505999999996
11
81.6682320000000033
21
-133.380740000000003
0
LINE
8
B.Cu
6
CONTINUOUS
10
81.6682320000000033
20
-133.380740000000003
11
81.6385140000000007
21
-133.3089960000000076
0
LINE
8
B.Cu
6
CONTINUOUS
10
81.6385140000000007
20
-133.3089960000000076
11
81.6020869999999974
21
-133.1258609999999862
0
LINE
8
B.Cu
6
CONTINUOUS
10
81.6020869999999974
20
-133.1258609999999862
11
81.5974999999999966
21
-133.0324999999999989
0
LINE
8
B.Cu
6
CONTINUOUS
10
81.5974999999999966
20
-133.0324999999999989
11
81.5974999999999966
21
-126.3649999999999949
0
LINE
8
B.Cu
6
CONTINUOUS
10
81.5974999999999966
20
-126.3649999999999949
11
80.0099999999999909
21
-126.3649999999999949
0
LINE
8
B.Cu
6
CONTINUOUS
10
80.0099999999999909
20
-126.3649999999999949
11
79.9166389999999893
21
-126.3604129999999941
0
LINE
8
B.Cu
6
CONTINUOUS
10
79.9166389999999893
20
-126.3604129999999941
11
79.7335039999999964
21
-126.3239859999999908
0
LINE
8
B.Cu
6
CONTINUOUS
10
79.7335039999999964
20
-126.3239859999999908
11
79.5609949999999913
21
-126.252529999999993
0
LINE
8
B.Cu
6
CONTINUOUS
10
79.5609949999999913
20
-126.252529999999993
11
79.4057399999999944
21
-126.1487920000000003
0
LINE
8
B.Cu
6
CONTINUOUS
10
79.4057399999999944
20
-126.1487920000000003
11
79.2737079999999992
21
-126.0167599999999908
0
LINE
8
B.Cu
6
CONTINUOUS
10
79.2737079999999992
20
-126.0167599999999908
11
79.1699699999999922
21
-125.861504999999994
0
LINE
8
B.Cu
6
CONTINUOUS
10
79.1699699999999922
20
-125.861504999999994
11
79.0985139999999944
21
-125.6889959999999888
0
LINE
8
B.Cu
6
CONTINUOUS
10
79.0985139999999944
20
-125.6889959999999888
11
79.0620869999999911
21
-125.5058609999999959
0
LINE
8
B.Cu
6
CONTINUOUS
10
79.0620869999999911
20
-125.5058609999999959
11
79.0620869999999911
21
-125.3191389999999927
0
LINE
8
B.Cu
6
CONTINUOUS
10
79.0620869999999911
20
-125.3191389999999927
11
79.0620869999999911
21
-125.3141389999999973
0
LINE
8
B.Cu
6
CONTINUOUS
10
79.0620869999999911
20
-125.3141389999999973
11
79.0985139999999944
21
-125.1310039999999901
0
LINE
8
B.Cu
6
CONTINUOUS
10
79.0985139999999944
20
-125.1310039999999901
11
79.1699699999999922
21
-124.9584949999999992
0
LINE
8
B.Cu
6
CONTINUOUS
10
79.1699699999999922
20
-124.9584949999999992
11
79.2737079999999992
21
-124.8032399999999882
0
LINE
8
B.Cu
6
CONTINUOUS
10
79.2737079999999992
20
-124.8032399999999882
11
79.4057399999999944
21
-124.6712079999999929
0
LINE
8
B.Cu
6
CONTINUOUS
10
79.4057399999999944
20
-124.6712079999999929
11
79.5609949999999913
21
-124.5674700000000001
0
LINE
8
B.Cu
6
CONTINUOUS
10
79.5609949999999913
20
-124.5674700000000001
11
79.7335039999999964
21
-124.4960139999999882
0
LINE
8
B.Cu
6
CONTINUOUS
10
79.7335039999999964
20
-124.4960139999999882
11
79.9166389999999893
21
-124.4595869999999991
0
LINE
8
B.Cu
6
CONTINUOUS
10
79.9166389999999893
20
-124.4595869999999991
11
80.1033609999999925
21
-124.4595869999999991
0
LINE
8
B.Cu
6
CONTINUOUS
10
80.1033609999999925
20
-124.4595869999999991
11
80.1054369999999949
21
-124.4599999999999937
0
LINE
8
B.Cu
6
CONTINUOUS
10
78.3814959999999985
20
-138.1535140000000013
11
78.5540049999999894
21
-138.2249699999999848
0
LINE
8
B.Cu
6
CONTINUOUS
10
78.5540049999999894
20
-138.2249699999999848
11
78.7092600000000004
21
-138.328708000000006
0
LINE
8
B.Cu
6
CONTINUOUS
10
78.7092600000000004
20
-138.328708000000006
11
78.8412919999999957
21
-138.460739999999987
0
LINE
8
B.Cu
6
CONTINUOUS
10
78.8412919999999957
20
-138.460739999999987
11
78.9450300000000027
21
-138.6159949999999981
0
LINE
8
B.Cu
6
CONTINUOUS
10
78.9450300000000027
20
-138.6159949999999981
11
79.0164860000000004
21
-138.788503999999989
0
LINE
8
B.Cu
6
CONTINUOUS
10
79.0164860000000004
20
-138.788503999999989
11
79.0529129999999896
21
-138.9716389999999819
0
LINE
8
B.Cu
6
CONTINUOUS
10
79.0529129999999896
20
-138.9716389999999819
11
79.0574999999999903
21
-139.0649999999999977
0
LINE
8
B.Cu
6
CONTINUOUS
10
79.0574999999999903
20
-139.0649999999999977
11
79.0574999999999903
21
-141.6049999999999898
0
LINE
8
B.Cu
6
CONTINUOUS
10
79.0574999999999903
20
-141.6049999999999898
11
79.0529129999999896
21
-141.6983610000000056
0
LINE
8
B.Cu
6
CONTINUOUS
10
79.0529129999999896
20
-141.6983610000000056
11
79.0164860000000004
21
-141.8814959999999985
0
LINE
8
B.Cu
6
CONTINUOUS
10
79.0164860000000004
20
-141.8814959999999985
11
78.9450300000000027
21
-142.0540049999999894
0
LINE
8
B.Cu
6
CONTINUOUS
10
78.9450300000000027
20
-142.0540049999999894
11
78.8412919999999957
21
-142.2092600000000004
0
LINE
8
B.Cu
6
CONTINUOUS
10
78.8412919999999957
20
-142.2092600000000004
11
78.7092600000000004
21
-142.3412919999999815
0
LINE
8
B.Cu
6
CONTINUOUS
10
78.7092600000000004
20
-142.3412919999999815
11
78.5540049999999894
21
-142.4450300000000027
0
LINE
8
B.Cu
6
CONTINUOUS
10
78.5540049999999894
20
-142.4450300000000027
11
78.3814959999999985
21
-142.5164859999999862
0
LINE
8
B.Cu
6
CONTINUOUS
10
78.3814959999999985
20
-142.5164859999999862
11
78.1983609999999913
21
-142.5529129999999896
0
LINE
8
B.Cu
6
CONTINUOUS
10
78.1983609999999913
20
-142.5529129999999896
11
78.0116390000000024
21
-142.5529129999999896
0
LINE
8
B.Cu
6
CONTINUOUS
10
78.0116390000000024
20
-142.5529129999999896
11
77.8285039999999952
21
-142.5164859999999862
0
LINE
8
B.Cu
6
CONTINUOUS
10
77.8285039999999952
20
-142.5164859999999862
11
77.6559949999999901
21
-142.4450300000000027
0
LINE
8
B.Cu
6
CONTINUOUS
10
77.6559949999999901
20
-142.4450300000000027
11
77.5007399999999933
21
-142.3412919999999815
0
LINE
8
B.Cu
6
CONTINUOUS
10
77.5007399999999933
20
-142.3412919999999815
11
77.368707999999998
21
-142.2092600000000004
0
LINE
8
B.Cu
6
CONTINUOUS
10
77.368707999999998
20
-142.2092600000000004
11
77.264969999999991
21
-142.0540049999999894
0
LINE
8
B.Cu
6
CONTINUOUS
10
77.264969999999991
20
-142.0540049999999894
11
77.1935139999999933
21
-141.8814959999999985
0
LINE
8
B.Cu
6
CONTINUOUS
10
77.1935139999999933
20
-141.8814959999999985
11
77.15708699999999
21
-141.6983610000000056
0
LINE
8
B.Cu
6
CONTINUOUS
10
77.15708699999999
20
-141.6983610000000056
11
77.1525000000000034
21
-141.6049999999999898
0
LINE
8
B.Cu
6
CONTINUOUS
10
77.1525000000000034
20
-141.6049999999999898
11
77.1525000000000034
21
-139.0649999999999977
0
LINE
8
B.Cu
6
CONTINUOUS
10
77.1525000000000034
20
-139.0649999999999977
11
77.15708699999999
21
-138.9716389999999819
0
LINE
8
B.Cu
6
CONTINUOUS
10
77.15708699999999
20
-138.9716389999999819
11
77.1935139999999933
21
-138.788503999999989
0
LINE
8
B.Cu
6
CONTINUOUS
10
77.1935139999999933
20
-138.788503999999989
11
77.264969999999991
21
-138.6159949999999981
0
LINE
8
B.Cu
6
CONTINUOUS
10
77.264969999999991
20
-138.6159949999999981
11
77.368707999999998
21
-138.460739999999987
0
LINE
8
B.Cu
6
CONTINUOUS
10
77.368707999999998
20
-138.460739999999987
11
77.5007399999999933
21
-138.328708000000006
0
LINE
8
B.Cu
6
CONTINUOUS
10
77.5007399999999933
20
-138.328708000000006
11
77.6559949999999901
21
-138.2249699999999848
0
LINE
8
B.Cu
6
CONTINUOUS
10
77.6559949999999901
20
-138.2249699999999848
11
77.8285039999999952
21
-138.1535140000000013
0
LINE
8
B.Cu
6
CONTINUOUS
10
77.8285039999999952
20
-138.1535140000000013
11
78.0116390000000024
21
-138.1170869999999979
0
LINE
8
B.Cu
6
CONTINUOUS
10
78.0116390000000024
20
-138.1170869999999979
11
78.1983609999999913
21
-138.1170869999999979
0
LINE
8
B.Cu
6
CONTINUOUS
10
78.1983609999999913
20
-138.1170869999999979
11
78.3814959999999985
21
-138.1535140000000013
0
LINE
8
B.Cu
6
CONTINUOUS
10
104.4295029999999969
20
-114.6358359999999976
11
104.4563089999999903
21
-114.682265000000001
0
LINE
8
B.Cu
6
CONTINUOUS
10
104.4563089999999903
20
-114.682265000000001
11
104.457499999999996
21
-114.6958750000000009
0
LINE
8
B.Cu
6
CONTINUOUS
10
104.457499999999996
20
-114.6958750000000009
11
104.457499999999996
21
-122.7936249999999916
0
LINE
8
B.Cu
6
CONTINUOUS
10
104.457499999999996
20
-122.7936249999999916
11
104.439163999999991
21
-122.8440030000000007
0
LINE
8
B.Cu
6
CONTINUOUS
10
104.439163999999991
20
-122.8440030000000007
11
104.3927350000000018
21
-122.8708089999999942
0
LINE
8
B.Cu
6
CONTINUOUS
10
104.3927350000000018
20
-122.8708089999999942
11
104.3791250000000019
21
-122.8719999999999999
0
LINE
8
B.Cu
6
CONTINUOUS
10
104.3791250000000019
20
-122.8719999999999999
11
101.3162659999999988
21
-122.8719999999999999
0
LINE
8
B.Cu
6
CONTINUOUS
10
101.3162659999999988
20
-122.8719999999999999
11
101.1137329999999963
21
-122.9040789999999959
0
LINE
8
B.Cu
6
CONTINUOUS
10
101.1137329999999963
20
-122.9040789999999959
11
101.0693929999999909
21
-122.9111019999999996
0
LINE
8
B.Cu
6
CONTINUOUS
10
101.0693929999999909
20
-122.9111019999999996
11
101.069390999999996
21
-122.9111019999999996
0
LINE
8
B.Cu
6
CONTINUOUS
10
101.069390999999996
20
-122.9111019999999996
11
101.0693879999999893
21
-122.9111029999999971
0
LINE
8
B.Cu
6
CONTINUOUS
10
101.0693879999999893
20
-122.9111029999999971
11
101.0693849999999969
21
-122.9111029999999971
0
LINE
8
B.Cu
6
CONTINUOUS
10
101.0693849999999969
20
-122.9111029999999971
11
100.9089099999999917
21
-122.963245999999998
0
LINE
8
B.Cu
6
CONTINUOUS
10
100.9089099999999917
20
-122.963245999999998
11
100.831672999999995
21
-122.9883399999999938
0
LINE
8
B.Cu
6
CONTINUOUS
10
100.831672999999995
20
-122.9883399999999938
11
100.6089569999999895
21
-123.1018199999999894
0
LINE
8
B.Cu
6
CONTINUOUS
10
100.6089569999999895
20
-123.1018199999999894
11
100.6089559999999921
21
-123.101821000000001
0
LINE
8
B.Cu
6
CONTINUOUS
10
100.6089559999999921
20
-123.101821000000001
11
100.4067359999999951
21
-123.2487419999999929
0
LINE
8
B.Cu
6
CONTINUOUS
10
100.4067359999999951
20
-123.2487419999999929
11
100.4067289999999986
21
-123.248747999999992
0
LINE
8
B.Cu
6
CONTINUOUS
10
100.4067289999999986
20
-123.248747999999992
11
95.7849980000000016
21
-127.8704789999999889
0
LINE
8
B.Cu
6
CONTINUOUS
10
95.7849980000000016
20
-127.8704789999999889
11
95.7849920000000026
21
-127.8704859999999996
0
LINE
8
B.Cu
6
CONTINUOUS
10
95.7849920000000026
20
-127.8704859999999996
11
95.6380709999999965
21
-128.0727059999999824
0
LINE
8
B.Cu
6
CONTINUOUS
10
95.6380709999999965
20
-128.0727059999999824
11
95.6380669999999924
21
-128.0727119999999957
0
LINE
8
B.Cu
6
CONTINUOUS
10
95.6380669999999924
20
-128.0727119999999957
11
95.5245949999999908
21
-128.2954139999999938
0
LINE
8
B.Cu
6
CONTINUOUS
10
95.5245949999999908
20
-128.2954139999999938
11
95.4473519999999951
21
-128.5331380000000081
0
LINE
8
B.Cu
6
CONTINUOUS
10
95.4473519999999951
20
-128.5331380000000081
11
95.4473519999999951
21
-128.5331390000000056
0
LINE
8
B.Cu
6
CONTINUOUS
10
95.4473519999999951
20
-128.5331390000000056
11
95.4082509999999928
21
-128.7800139999999942
0
LINE
8
B.Cu
6
CONTINUOUS
10
95.4082509999999928
20
-128.7800139999999942
11
95.4082509999999928
21
-129.0299849999999822
0
LINE
8
B.Cu
6
CONTINUOUS
10
95.4082509999999928
20
-129.0299849999999822
11
95.4473519999999951
21
-129.2768599999999992
0
LINE
8
B.Cu
6
CONTINUOUS
10
95.4473519999999951
20
-129.2768599999999992
11
95.4473519999999951
21
-129.2768609999999967
0
LINE
8
B.Cu
6
CONTINUOUS
10
95.4473519999999951
20
-129.2768609999999967
11
95.5245949999999908
21
-129.5145849999999825
0
LINE
8
B.Cu
6
CONTINUOUS
10
95.5245949999999908
20
-129.5145849999999825
11
95.6380669999999924
21
-129.7372869999999807
0
LINE
8
B.Cu
6
CONTINUOUS
10
95.6380669999999924
20
-129.7372869999999807
11
95.6380709999999965
21
-129.7372939999999915
0
LINE
8
B.Cu
6
CONTINUOUS
10
95.6380709999999965
20
-129.7372939999999915
11
95.7849920000000026
21
-129.9395130000000051
0
LINE
8
B.Cu
6
CONTINUOUS
10
95.7849920000000026
20
-129.9395130000000051
11
95.7849980000000016
21
-129.9395199999999875
0
LINE
8
B.Cu
6
CONTINUOUS
10
95.7849980000000016
20
-129.9395199999999875
11
95.9617289999999912
21
-130.1162510000000054
0
LINE
8
B.Cu
6
CONTINUOUS
10
95.9617289999999912
20
-130.1162510000000054
11
95.9617360000000019
21
-130.1162569999999903
0
LINE
8
B.Cu
6
CONTINUOUS
10
95.9617360000000019
20
-130.1162569999999903
11
95.9617369999999994
21
-130.1162579999999878
0
LINE
8
B.Cu
6
CONTINUOUS
10
95.9617369999999994
20
-130.1162579999999878
11
96.1639559999999989
21
-130.263179000000008
0
LINE
8
B.Cu
6
CONTINUOUS
10
96.1639559999999989
20
-130.263179000000008
11
96.3866699999999952
21
-130.3766569999999945
0
LINE
8
B.Cu
6
CONTINUOUS
10
96.3866699999999952
20
-130.3766569999999945
11
96.6243920000000003
21
-130.453897999999981
0
LINE
8
B.Cu
6
CONTINUOUS
10
96.6243920000000003
20
-130.453897999999981
11
96.7880129999999923
21
-130.4798119999999813
0
LINE
8
B.Cu
6
CONTINUOUS
10
96.7880129999999923
20
-130.4798119999999813
11
96.8712639999999965
21
-130.492998
0
LINE
8
B.Cu
6
CONTINUOUS
10
96.8712639999999965
20
-130.492998
11
96.8712669999999889
21
-130.492998
0
LINE
8
B.Cu
6
CONTINUOUS
10
96.8712669999999889
20
-130.492998
11
96.8712719999999905
21
-130.4929989999999975
0
LINE
8
B.Cu
6
CONTINUOUS
10
96.8712719999999905
20
-130.4929989999999975
11
96.8712749999999971
21
-130.4929989999999975
0
LINE
8
B.Cu
6
CONTINUOUS
10
96.8712749999999971
20
-130.4929989999999975
11
97.1212249999999955
21
-130.4929989999999975
0
LINE
8
B.Cu
6
CONTINUOUS
10
97.1212249999999955
20
-130.4929989999999975
11
97.1212280000000021
21
-130.4929989999999975
0
LINE
8
B.Cu
6
CONTINUOUS
10
97.1212280000000021
20
-130.4929989999999975
11
97.1212329999999895
21
-130.492998
0
LINE
8
B.Cu
6
CONTINUOUS
10
97.1212329999999895
20
-130.492998
11
97.1212349999999986
21
-130.492998
0
LINE
8
B.Cu
6
CONTINUOUS
10
97.1212349999999986
20
-130.492998
11
97.1551099999999934
21
-130.4876319999999907
0
LINE
8
B.Cu
6
CONTINUOUS
10
97.1551099999999934
20
-130.4876319999999907
11
97.3681079999999923
21
-130.453897999999981
0
LINE
8
B.Cu
6
CONTINUOUS
10
97.3681079999999923
20
-130.453897999999981
11
97.6058299999999974
21
-130.3766569999999945
0
LINE
8
B.Cu
6
CONTINUOUS
10
97.6058299999999974
20
-130.3766569999999945
11
97.8285439999999937
21
-130.263179000000008
0
LINE
8
B.Cu
6
CONTINUOUS
10
97.8285439999999937
20
-130.263179000000008
11
98.0307629999999932
21
-130.1162579999999878
0
LINE
8
B.Cu
6
CONTINUOUS
10
98.0307629999999932
20
-130.1162579999999878
11
102.0760649999999998
21
-126.0709549999999979
0
LINE
8
B.Cu
6
CONTINUOUS
10
102.0760649999999998
20
-126.0709549999999979
11
102.124652999999995
21
-126.0482979999999884
0
LINE
8
B.Cu
6
CONTINUOUS
10
102.124652999999995
20
-126.0482979999999884
11
102.1314840000000004
21
-126.0479999999999876
0
LINE
8
B.Cu
6
CONTINUOUS
10
102.1314840000000004
20
-126.0479999999999876
11
104.3791250000000019
21
-126.0479999999999876
0
LINE
8
B.Cu
6
CONTINUOUS
10
104.3791250000000019
20
-126.0479999999999876
11
104.4295029999999969
21
-126.0663359999999926
0
LINE
8
B.Cu
6
CONTINUOUS
10
104.4295029999999969
20
-126.0663359999999926
11
104.4563089999999903
21
-126.112764999999996
0
LINE
8
B.Cu
6
CONTINUOUS
10
104.4563089999999903
20
-126.112764999999996
11
104.457499999999996
21
-126.1263749999999959
0
LINE
8
B.Cu
6
CONTINUOUS
10
104.457499999999996
20
-126.1263749999999959
11
104.457499999999996
21
-139.3036249999999825
0
LINE
8
B.Cu
6
CONTINUOUS
10
104.457499999999996
20
-139.3036249999999825
11
104.439163999999991
21
-139.3540030000000058
0
LINE
8
B.Cu
6
CONTINUOUS
10
104.439163999999991
20
-139.3540030000000058
11
104.3927350000000018
21
-139.3808089999999993
0
LINE
8
B.Cu
6
CONTINUOUS
10
104.3927350000000018
20
-139.3808089999999993
11
104.3791250000000019
21
-139.382000000000005
0
LINE
8
B.Cu
6
CONTINUOUS
10
104.3791250000000019
20
-139.382000000000005
11
102.1314840000000004
21
-139.382000000000005
0
LINE
8
B.Cu
6
CONTINUOUS
10
102.1314840000000004
20
-139.382000000000005
11
102.0811059999999912
21
-139.363664
0
LINE
8
B.Cu
6
CONTINUOUS
10
102.0811059999999912
20
-139.363664
11
102.0760749999999888
21
-139.3590539999999862
0
LINE
8
B.Cu
6
CONTINUOUS
10
102.0760749999999888
20
-139.3590539999999862
11
98.0307629999999932
21
-135.3137419999999906
0
LINE
8
B.Cu
6
CONTINUOUS
10
98.0307629999999932
20
-135.3137419999999906
11
97.8285439999999937
21
-135.1668209999999988
0
LINE
8
B.Cu
6
CONTINUOUS
10
97.8285439999999937
20
-135.1668209999999988
11
97.8285389999999921
21
-135.1668180000000064
0
LINE
8
B.Cu
6
CONTINUOUS
10
97.8285389999999921
20
-135.1668180000000064
11
97.8285369999999972
21
-135.1668169999999805
0
LINE
8
B.Cu
6
CONTINUOUS
10
97.8285369999999972
20
-135.1668169999999805
11
97.605834999999999
21
-135.0533450000000073
0
LINE
8
B.Cu
6
CONTINUOUS
10
97.605834999999999
20
-135.0533450000000073
11
97.6058319999999924
21
-135.0533439999999814
0
LINE
8
B.Cu
6
CONTINUOUS
10
97.6058319999999924
20
-135.0533439999999814
11
97.6058299999999974
21
-135.0533429999999839
0
LINE
8
B.Cu
6
CONTINUOUS
10
97.6058299999999974
20
-135.0533429999999839
11
97.5187909999999931
21
-135.0250619999999913
0
LINE
8
B.Cu
6
CONTINUOUS
10
97.5187909999999931
20
-135.0250619999999913
11
97.3681100000000015
21
-134.9761019999999974
0
LINE
8
B.Cu
6
CONTINUOUS
10
97.3681100000000015
20
-134.9761019999999974
11
97.1212349999999986
21
-134.9370009999999809
0
LINE
8
B.Cu
6
CONTINUOUS
10
97.1212349999999986
20
-134.9370009999999809
11
97.1212280000000021
21
-134.9370009999999809
0
LINE
8
B.Cu
6
CONTINUOUS
10
97.1212280000000021
20
-134.9370009999999809
11
96.8712719999999905
21
-134.9370009999999809
0
LINE
8
B.Cu
6
CONTINUOUS
10
96.8712719999999905
20
-134.9370009999999809
11
96.8712639999999965
21
-134.9370009999999809
0
LINE
8
B.Cu
6
CONTINUOUS
10
96.8712639999999965
20
-134.9370009999999809
11
96.6243889999999936
21
-134.9761019999999974
0
LINE
8
B.Cu
6
CONTINUOUS
10
96.6243889999999936
20
-134.9761019999999974
11
96.6243879999999962
21
-134.9761019999999974
0
LINE
8
B.Cu
6
CONTINUOUS
10
96.6243879999999962
20
-134.9761019999999974
11
96.3866639999999961
21
-135.0533450000000073
0
LINE
8
B.Cu
6
CONTINUOUS
10
96.3866639999999961
20
-135.0533450000000073
11
96.1639619999999979
21
-135.1668169999999805
0
LINE
8
B.Cu
6
CONTINUOUS
10
96.1639619999999979
20
-135.1668169999999805
11
96.1639559999999989
21
-135.1668209999999988
0
LINE
8
B.Cu
6
CONTINUOUS
10
96.1639559999999989
20
-135.1668209999999988
11
95.9617360000000019
21
-135.3137419999999906
0
LINE
8
B.Cu
6
CONTINUOUS
10
95.9617360000000019
20
-135.3137419999999906
11
95.9617289999999912
21
-135.3137480000000039
0
LINE
8
B.Cu
6
CONTINUOUS
10
95.9617289999999912
20
-135.3137480000000039
11
95.7849980000000016
21
-135.4904789999999934
0
LINE
8
B.Cu
6
CONTINUOUS
10
95.7849980000000016
20
-135.4904789999999934
11
95.7849920000000026
21
-135.4904860000000042
0
LINE
8
B.Cu
6
CONTINUOUS
10
95.7849920000000026
20
-135.4904860000000042
11
95.6380709999999965
21
-135.6927059999999869
0
LINE
8
B.Cu
6
CONTINUOUS
10
95.6380709999999965
20
-135.6927059999999869
11
95.6380669999999924
21
-135.6927120000000002
0
LINE
8
B.Cu
6
CONTINUOUS
10
95.6380669999999924
20
-135.6927120000000002
11
95.5245949999999908
21
-135.9154139999999984
0
LINE
8
B.Cu
6
CONTINUOUS
10
95.5245949999999908
20
-135.9154139999999984
11
95.4473519999999951
21
-136.1531379999999842
0
LINE
8
B.Cu
6
CONTINUOUS
10
95.4473519999999951
20
-136.1531379999999842
11
95.4473519999999951
21
-136.1531389999999817
0
LINE
8
B.Cu
6
CONTINUOUS
10
95.4473519999999951
20
-136.1531389999999817
11
95.4082509999999928
21
-136.4000139999999988
0
LINE
8
B.Cu
6
CONTINUOUS
10
95.4082509999999928
20
-136.4000139999999988
11
95.4082509999999928
21
-136.6499849999999867
0
LINE
8
B.Cu
6
CONTINUOUS
10
95.4082509999999928
20
-136.6499849999999867
11
95.4473519999999951
21
-136.8968600000000038
0
LINE
8
B.Cu
6
CONTINUOUS
10
95.4473519999999951
20
-136.8968600000000038
11
95.4473519999999951
21
-136.8968610000000012
0
LINE
8
B.Cu
6
CONTINUOUS
10
95.4473519999999951
20
-136.8968610000000012
11
95.5245949999999908
21
-137.1345849999999871
0
LINE
8
B.Cu
6
CONTINUOUS
10
95.5245949999999908
20
-137.1345849999999871
11
95.6380669999999924
21
-137.3572869999999853
0
LINE
8
B.Cu
6
CONTINUOUS
10
95.6380669999999924
20
-137.3572869999999853
11
95.6380709999999965
21
-137.357293999999996
0
LINE
8
B.Cu
6
CONTINUOUS
10
95.6380709999999965
20
-137.357293999999996
11
95.7849920000000026
21
-137.5595129999999813
0
LINE
8
B.Cu
6
CONTINUOUS
10
95.7849920000000026
20
-137.5595129999999813
11
95.7849980000000016
21
-137.559519999999992
0
LINE
8
B.Cu
6
CONTINUOUS
10
95.7849980000000016
20
-137.559519999999992
11
100.4067289999999986
21
-142.1812510000000032
0
LINE
8
B.Cu
6
CONTINUOUS
10
100.4067289999999986
20
-142.1812510000000032
11
100.4067359999999951
21
-142.181256999999988
0
LINE
8
B.Cu
6
CONTINUOUS
10
100.4067359999999951
20
-142.181256999999988
11
100.4067369999999926
21
-142.1812579999999855
0
LINE
8
B.Cu
6
CONTINUOUS
10
100.4067369999999926
20
-142.1812579999999855
11
100.6089559999999921
21
-142.3281790000000058
0
LINE
8
B.Cu
6
CONTINUOUS
10
100.6089559999999921
20
-142.3281790000000058
11
100.8316689999999909
21
-142.4416569999999922
0
LINE
8
B.Cu
6
CONTINUOUS
10
100.8316689999999909
20
-142.4416569999999922
11
100.9089099999999917
21
-142.4667529999999829
0
LINE
8
B.Cu
6
CONTINUOUS
10
100.9089099999999917
20
-142.4667529999999829
11
101.069389000000001
21
-142.5188969999999813
0
LINE
8
B.Cu
6
CONTINUOUS
10
101.069389000000001
20
-142.5188969999999813
11
101.0693899999999985
21
-142.5188969999999813
0
LINE
8
B.Cu
6
CONTINUOUS
10
101.0693899999999985
20
-142.5188969999999813
11
101.0693929999999909
21
-142.5188980000000072
0
LINE
8
B.Cu
6
CONTINUOUS
10
101.0693929999999909
20
-142.5188980000000072
11
101.3162719999999979
21
-142.5579999999999927
0
LINE
8
B.Cu
6
CONTINUOUS
10
101.3162719999999979
20
-142.5579999999999927
11
101.3162749999999903
21
-142.5579999999999927
0
LINE
8
B.Cu
6
CONTINUOUS
10
101.3162749999999903
20
-142.5579999999999927
11
104.3791250000000019
21
-142.5579999999999927
0
LINE
8
B.Cu
6
CONTINUOUS
10
104.3791250000000019
20
-142.5579999999999927
11
104.4295029999999969
21
-142.5763359999999977
0
LINE
8
B.Cu
6
CONTINUOUS
10
104.4295029999999969
20
-142.5763359999999977
11
104.4563089999999903
21
-142.6227649999999869
0
LINE
8
B.Cu
6
CONTINUOUS
10
104.4563089999999903
20
-142.6227649999999869
11
104.457499999999996
21
-142.6363749999999868
0
LINE
8
B.Cu
6
CONTINUOUS
10
104.457499999999996
20
-142.6363749999999868
11
104.457499999999996
21
-145.6541249999999934
0
LINE
8
B.Cu
6
CONTINUOUS
10
104.457499999999996
20
-145.6541249999999934
11
104.439163999999991
21
-145.7045029999999883
0
LINE
8
B.Cu
6
CONTINUOUS
10
104.439163999999991
20
-145.7045029999999883
11
104.3927350000000018
21
-145.7313089999999818
0
LINE
8
B.Cu
6
CONTINUOUS
10
104.3927350000000018
20
-145.7313089999999818
11
104.3791250000000019
21
-145.7324999999999875
0
LINE
8
B.Cu
6
CONTINUOUS
10
104.3791250000000019
20
-145.7324999999999875
11
73.4208749999999952
21
-145.7324999999999875
0
LINE
8
B.Cu
6
CONTINUOUS
10
73.4208749999999952
20
-145.7324999999999875
11
73.3704970000000003
21
-145.7141639999999825
0
LINE
8
B.Cu
6
CONTINUOUS
10
73.3704970000000003
20
-145.7141639999999825
11
73.3436909999999926
21
-145.6677349999999933
0
LINE
8
B.Cu
6
CONTINUOUS
10
73.3436909999999926
20
-145.6677349999999933
11
73.3425000000000011
21
-145.6541249999999934
0
LINE
8
B.Cu
6
CONTINUOUS
10
73.3425000000000011
20
-145.6541249999999934
11
73.3425000000000011
21
-138.9650029999999958
0
LINE
8
B.Cu
6
CONTINUOUS
10
73.3425000000000011
20
-138.9650029999999958
11
73.3425000000000011
21
-125.307502999999997
0
LINE
8
B.Cu
6
CONTINUOUS
10
73.3425000000000011
20
-125.307502999999997
11
73.3425000000000011
21
-114.6958750000000009
0
LINE
8
B.Cu
6
CONTINUOUS
10
73.3425000000000011
20
-114.6958750000000009
11
73.3608359999999919
21
-114.6454969999999918
0
LINE
8
B.Cu
6
CONTINUOUS
10
73.3608359999999919
20
-114.6454969999999918
11
73.4072649999999953
21
-114.6186909999999983
0
LINE
8
B.Cu
6
CONTINUOUS
10
73.4072649999999953
20
-114.6186909999999983
11
73.4208749999999952
21
-114.6174999999999926
0
LINE
8
B.Cu
6
CONTINUOUS
10
73.4208749999999952
20
-114.6174999999999926
11
104.3791250000000019
21
-114.6174999999999926
0
LINE
8
B.Cu
6
CONTINUOUS
10
104.3791250000000019
20
-114.6174999999999926
11
104.4295029999999969
21
-114.6358359999999976
0
LINE
8
B.Cu
6
CONTINUOUS
10
79.7124850000000009
20
-124.1682839999999999
11
79.5222959999999972
21
-124.230080000000001
0
LINE
8
B.Cu
6
CONTINUOUS
10
79.5222959999999972
20
-124.230080000000001
11
79.3441239999999937
21
-124.3208640000000003
0
LINE
8
B.Cu
6
CONTINUOUS
10
79.3441239999999937
20
-124.3208640000000003
11
79.344112999999993
21
-124.3208709999999968
0
LINE
8
B.Cu
6
CONTINUOUS
10
79.344112999999993
20
-124.3208709999999968
11
79.1823239999999942
21
-124.4384170000000012
0
LINE
8
B.Cu
6
CONTINUOUS
10
79.1823239999999942
20
-124.4384170000000012
11
79.1823169999999976
21
-124.4384230000000002
0
LINE
8
B.Cu
6
CONTINUOUS
10
79.1823169999999976
20
-124.4384230000000002
11
79.0409229999999923
21
-124.5798169999999914
0
LINE
8
B.Cu
6
CONTINUOUS
10
79.0409229999999923
20
-124.5798169999999914
11
79.0409169999999932
21
-124.5798239999999879
0
LINE
8
B.Cu
6
CONTINUOUS
10
79.0409169999999932
20
-124.5798239999999879
11
78.9233710000000031
21
-124.741613000000001
0
LINE
8
B.Cu
6
CONTINUOUS
10
78.9233710000000031
20
-124.741613000000001
11
78.9233639999999923
21
-124.7416239999999874
0
LINE
8
B.Cu
6
CONTINUOUS
10
78.9233639999999923
20
-124.7416239999999874
11
78.832579999999993
21
-124.919795999999991
0
LINE
8
B.Cu
6
CONTINUOUS
10
78.832579999999993
20
-124.919795999999991
11
78.7707839999999919
21
-125.1099849999999947
0
LINE
8
B.Cu
6
CONTINUOUS
10
78.7707839999999919
20
-125.1099849999999947
11
78.7394999999999925
21
-125.307502999999997
0
LINE
8
B.Cu
6
CONTINUOUS
10
78.7394999999999925
20
-125.307502999999997
11
78.7394999999999925
21
-125.5124959999999987
0
LINE
8
B.Cu
6
CONTINUOUS
10
78.7394999999999925
20
-125.5124959999999987
11
78.7707839999999919
21
-125.710014000000001
0
LINE
8
B.Cu
6
CONTINUOUS
10
78.7707839999999919
20
-125.710014000000001
11
78.832579999999993
21
-125.9002029999999905
0
LINE
8
B.Cu
6
CONTINUOUS
10
78.832579999999993
20
-125.9002029999999905
11
78.9233639999999923
21
-126.0783749999999941
0
LINE
8
B.Cu
6
CONTINUOUS
10
78.9233639999999923
20
-126.0783749999999941
11
78.9233679999999964
21
-126.0783809999999932
0
LINE
8
B.Cu
6
CONTINUOUS
10
78.9233679999999964
20
-126.0783809999999932
11
78.9233710000000031
21
-126.0783869999999922
0
LINE
8
B.Cu
6
CONTINUOUS
10
78.9233710000000031
20
-126.0783869999999922
11
79.0409169999999932
21
-126.2401749999999936
0
LINE
8
B.Cu
6
CONTINUOUS
10
79.0409169999999932
20
-126.2401749999999936
11
79.0409229999999923
21
-126.2401819999999901
0
LINE
8
B.Cu
6
CONTINUOUS
10
79.0409229999999923
20
-126.2401819999999901
11
79.1823169999999976
21
-126.3815759999999955
0
LINE
8
B.Cu
6
CONTINUOUS
10
79.1823169999999976
20
-126.3815759999999955
11
79.1823239999999942
21
-126.3815819999999945
0
LINE
8
B.Cu
6
CONTINUOUS
10
79.1823239999999942
20
-126.3815819999999945
11
79.1823249999999916
21
-126.381582999999992
0
LINE
8
B.Cu
6
CONTINUOUS
10
79.1823249999999916
20
-126.381582999999992
11
79.344112999999993
21
-126.4991289999999964
0
LINE
8
B.Cu
6
CONTINUOUS
10
79.344112999999993
20
-126.4991289999999964
11
79.3441199999999895
21
-126.4991330000000005
0
LINE
8
B.Cu
6
CONTINUOUS
10
79.3441199999999895
20
-126.4991330000000005
11
79.3441239999999937
21
-126.4991349999999954
0
LINE
8
B.Cu
6
CONTINUOUS
10
79.3441239999999937
20
-126.4991349999999954
11
79.5222959999999972
21
-126.5899189999999948
0
LINE
8
B.Cu
6
CONTINUOUS
10
79.5222959999999972
20
-126.5899189999999948
11
79.7124850000000009
21
-126.6517149999999958
0
LINE
8
B.Cu
6
CONTINUOUS
10
79.7124850000000009
20
-126.6517149999999958
11
79.7124879999999933
21
-126.6517149999999958
0
LINE
8
B.Cu
6
CONTINUOUS
10
79.7124879999999933
20
-126.6517149999999958
11
79.7124900000000025
21
-126.6517159999999933
0
LINE
8
B.Cu
6
CONTINUOUS
10
79.7124900000000025
20
-126.6517159999999933
11
79.9100090000000023
21
-126.6829999999999927
0
LINE
8
B.Cu
6
CONTINUOUS
10
79.9100090000000023
20
-126.6829999999999927
11
81.2011249999999905
21
-126.6829999999999927
0
LINE
8
B.Cu
6
CONTINUOUS
10
81.2011249999999905
20
-126.6829999999999927
11
81.2515029999999996
21
-126.7013359999999977
0
LINE
8
B.Cu
6
CONTINUOUS
10
81.2515029999999996
20
-126.7013359999999977
11
81.278308999999993
21
-126.7477650000000011
0
LINE
8
B.Cu
6
CONTINUOUS
10
81.278308999999993
20
-126.7477650000000011
11
81.2794999999999987
21
-126.761375000000001
0
LINE
8
B.Cu
6
CONTINUOUS
10
81.2794999999999987
20
-126.761375000000001
11
81.2794999999999987
21
-133.1324960000000033
0
LINE
8
B.Cu
6
CONTINUOUS
10
81.2794999999999987
20
-133.1324960000000033
11
81.3107839999999982
21
-133.3300140000000056
0
LINE
8
B.Cu
6
CONTINUOUS
10
81.3107839999999982
20
-133.3300140000000056
11
81.3725799999999992
21
-133.5202029999999809
0
LINE
8
B.Cu
6
CONTINUOUS
10
81.3725799999999992
20
-133.5202029999999809
11
81.4633639999999986
21
-133.6983749999999986
0
LINE
8
B.Cu
6
CONTINUOUS
10
81.4633639999999986
20
-133.6983749999999986
11
81.4633680000000027
21
-133.6983809999999835
0
LINE
8
B.Cu
6
CONTINUOUS
10
81.4633680000000027
20
-133.6983809999999835
11
81.4633709999999951
21
-133.6983869999999968
0
LINE
8
B.Cu
6
CONTINUOUS
10
81.4633709999999951
20
-133.6983869999999968
11
81.5809169999999995
21
-133.8601749999999981
0
LINE
8
B.Cu
6
CONTINUOUS
10
81.5809169999999995
20
-133.8601749999999981
11
84.4315440000000024
21
-136.710802000000001
0
LINE
8
B.Cu
6
CONTINUOUS
10
84.4315440000000024
20
-136.710802000000001
11
84.4542019999999951
21
-136.7593899999999962
0
LINE
8
B.Cu
6
CONTINUOUS
10
84.4542019999999951
20
-136.7593899999999962
11
84.4544999999999959
21
-136.7662210000000016
0
LINE
8
B.Cu
6
CONTINUOUS
10
84.4544999999999959
20
-136.7662210000000016
11
84.4544999999999959
21
-141.7049959999999942
0
LINE
8
B.Cu
6
CONTINUOUS
10
84.4544999999999959
20
-141.7049959999999942
11
84.4857839999999953
21
-141.9025139999999965
0
LINE
8
B.Cu
6
CONTINUOUS
10
84.4857839999999953
20
-141.9025139999999965
11
84.5475799999999964
21
-142.0927030000000002
0
LINE
8
B.Cu
6
CONTINUOUS
10
84.5475799999999964
20
-142.0927030000000002
11
84.6383639999999957
21
-142.2708749999999895
0
LINE
8
B.Cu
6
CONTINUOUS
10
84.6383639999999957
20
-142.2708749999999895
11
84.6383679999999998
21
-142.2708810000000028
0
LINE
8
B.Cu
6
CONTINUOUS
10
84.6383679999999998
20
-142.2708810000000028
11
84.6383709999999923
21
-142.2708869999999877
0
LINE
8
B.Cu
6
CONTINUOUS
10
84.6383709999999923
20
-142.2708869999999877
11
84.7559169999999966
21
-142.432674999999989
0
LINE
8
B.Cu
6
CONTINUOUS
10
84.7559169999999966
20
-142.432674999999989
11
84.7559229999999957
21
-142.4326819999999998
0
LINE
8
B.Cu
6
CONTINUOUS
10
84.7559229999999957
20
-142.4326819999999998
11
84.897317000000001
21
-142.5740759999999909
0
LINE
8
B.Cu
6
CONTINUOUS
10
84.897317000000001
20
-142.5740759999999909
11
84.8973239999999976
21
-142.5740820000000042
0
LINE
8
B.Cu
6
CONTINUOUS
10
84.8973239999999976
20
-142.5740820000000042
11
84.897324999999995
21
-142.5740830000000017
0
LINE
8
B.Cu
6
CONTINUOUS
10
84.897324999999995
20
-142.5740830000000017
11
85.0591129999999964
21
-142.691629000000006
0
LINE
8
B.Cu
6
CONTINUOUS
10
85.0591129999999964
20
-142.691629000000006
11
85.059119999999993
21
-142.6916329999999959
0
LINE
8
B.Cu
6
CONTINUOUS
10
85.059119999999993
20
-142.6916329999999959
11
85.0591239999999971
21
-142.6916349999999909
0
LINE
8
B.Cu
6
CONTINUOUS
10
85.0591239999999971
20
-142.6916349999999909
11
85.2372960000000006
21
-142.7824190000000044
0
LINE
8
B.Cu
6
CONTINUOUS
10
85.2372960000000006
20
-142.7824190000000044
11
85.4274849999999901
21
-142.8442149999999913
0
LINE
8
B.Cu
6
CONTINUOUS
10
85.4274849999999901
20
-142.8442149999999913
11
85.4274879999999968
21
-142.8442149999999913
0
LINE
8
B.Cu
6
CONTINUOUS
10
85.4274879999999968
20
-142.8442149999999913
11
85.4274899999999917
21
-142.8442159999999888
0
LINE
8
B.Cu
6
CONTINUOUS
10
85.4274899999999917
20
-142.8442159999999888
11
85.6250089999999915
21
-142.8754999999999882
0
LINE
8
B.Cu
6
CONTINUOUS
10
85.6250089999999915
20
-142.8754999999999882
11
85.6250119999999981
21
-142.8754999999999882
0
LINE
8
B.Cu
6
CONTINUOUS
10
85.6250119999999981
20
-142.8754999999999882
11
85.8249879999999905
21
-142.8754999999999882
0
LINE
8
B.Cu
6
CONTINUOUS
10
85.8249879999999905
20
-142.8754999999999882
11
85.8249909999999971
21
-142.8754999999999882
0
LINE
8
B.Cu
6
CONTINUOUS
10
85.8249909999999971
20
-142.8754999999999882
11
86.0225099999999969
21
-142.8442159999999888
0
LINE
8
B.Cu
6
CONTINUOUS
10
86.0225099999999969
20
-142.8442159999999888
11
86.0225119999999919
21
-142.8442149999999913
0
LINE
8
B.Cu
6
CONTINUOUS
10
86.0225119999999919
20
-142.8442149999999913
11
86.022514000000001
21
-142.8442149999999913
0
LINE
8
B.Cu
6
CONTINUOUS
10
86.022514000000001
20
-142.8442149999999913
11
86.2127029999999905
21
-142.7824190000000044
0
LINE
8
B.Cu
6
CONTINUOUS
10
86.2127029999999905
20
-142.7824190000000044
11
86.3908749999999941
21
-142.6916349999999909
0
LINE
8
B.Cu
6
CONTINUOUS
10
86.3908749999999941
20
-142.6916349999999909
11
86.3908739999999966
21
-142.6916349999999909
0
LINE
8
B.Cu
6
CONTINUOUS
10
86.3908739999999966
20
-142.6916349999999909
11
86.3908869999999922
21
-142.691629000000006
0
LINE
8
B.Cu
6
CONTINUOUS
10
86.3908869999999922
20
-142.691629000000006
11
86.5526749999999936
21
-142.5740830000000017
0
LINE
8
B.Cu
6
CONTINUOUS
10
86.5526749999999936
20
-142.5740830000000017
11
86.694082999999992
21
-142.432674999999989
0
LINE
8
B.Cu
6
CONTINUOUS
10
86.694082999999992
20
-142.432674999999989
11
86.8116289999999964
21
-142.2708869999999877
0
LINE
8
B.Cu
6
CONTINUOUS
10
86.8116289999999964
20
-142.2708869999999877
11
86.9024189999999948
21
-142.0927030000000002
0
LINE
8
B.Cu
6
CONTINUOUS
10
86.9024189999999948
20
-142.0927030000000002
11
86.9642159999999933
21
-141.9025100000000066
0
LINE
8
B.Cu
6
CONTINUOUS
10
86.9642159999999933
20
-141.9025100000000066
11
86.9954999999999927
21
-141.7049910000000068
0
LINE
8
B.Cu
6
CONTINUOUS
10
86.9954999999999927
20
-141.7049910000000068
11
86.9954999999999927
21
-136.1075089999999932
0
LINE
8
B.Cu
6
CONTINUOUS
10
86.9954999999999927
20
-136.1075089999999932
11
86.9642159999999933
21
-135.9099899999999934
0
LINE
8
B.Cu
6
CONTINUOUS
10
86.9642159999999933
20
-135.9099899999999934
11
86.9642149999999958
21
-135.9099879999999985
0
LINE
8
B.Cu
6
CONTINUOUS
10
86.9642149999999958
20
-135.9099879999999985
11
86.9642149999999958
21
-135.909985000000006
0
LINE
8
B.Cu
6
CONTINUOUS
10
86.9642149999999958
20
-135.909985000000006
11
86.9024189999999948
21
-135.7197960000000023
0
LINE
8
B.Cu
6
CONTINUOUS
10
86.9024189999999948
20
-135.7197960000000023
11
86.8116349999999954
21
-135.5416239999999846
0
LINE
8
B.Cu
6
CONTINUOUS
10
86.8116349999999954
20
-135.5416239999999846
11
86.8116330000000005
21
-135.5416199999999947
0
LINE
8
B.Cu
6
CONTINUOUS
10
86.8116330000000005
20
-135.5416199999999947
11
86.8116289999999964
21
-135.5416129999999839
0
LINE
8
B.Cu
6
CONTINUOUS
10
86.8116289999999964
20
-135.5416129999999839
11
86.694082999999992
21
-135.3798249999999825
0
LINE
8
B.Cu
6
CONTINUOUS
10
86.694082999999992
20
-135.3798249999999825
11
86.5526749999999936
21
-135.2384169999999983
0
LINE
8
B.Cu
6
CONTINUOUS
10
86.5526749999999936
20
-135.2384169999999983
11
83.8434559999999891
21
-132.5291980000000081
0
LINE
8
B.Cu
6
CONTINUOUS
10
83.8434559999999891
20
-132.5291980000000081
11
83.8207979999999964
21
-132.4806099999999844
0
LINE
8
B.Cu
6
CONTINUOUS
10
83.8207979999999964
20
-132.4806099999999844
11
83.8204999999999956
21
-132.4737790000000075
0
LINE
8
B.Cu
6
CONTINUOUS
10
83.8204999999999956
20
-132.4737790000000075
11
83.8204999999999956
21
-125.3075119999999885
0
LINE
8
B.Cu
6
CONTINUOUS
10
83.8204999999999956
20
-125.3075119999999885
11
83.8204989999999981
21
-125.307502999999997
0
LINE
8
B.Cu
6
CONTINUOUS
10
83.8204989999999981
20
-125.307502999999997
11
83.7892149999999987
21
-125.1099849999999947
0
LINE
8
B.Cu
6
CONTINUOUS
10
83.7892149999999987
20
-125.1099849999999947
11
83.7274189999999976
21
-124.919795999999991
0
LINE
8
B.Cu
6
CONTINUOUS
10
83.7274189999999976
20
-124.919795999999991
11
83.6366349999999983
21
-124.7416239999999874
0
LINE
8
B.Cu
6
CONTINUOUS
10
83.6366349999999983
20
-124.7416239999999874
11
83.6366329999999891
21
-124.7416199999999975
0
LINE
8
B.Cu
6
CONTINUOUS
10
83.6366329999999891
20
-124.7416199999999975
11
83.6366289999999992
21
-124.741613000000001
0
LINE
8
B.Cu
6
CONTINUOUS
10
83.6366289999999992
20
-124.741613000000001
11
83.5190829999999949
21
-124.5798249999999996
0
LINE
8
B.Cu
6
CONTINUOUS
10
83.5190829999999949
20
-124.5798249999999996
11
83.5190819999999974
21
-124.5798239999999879
0
LINE
8
B.Cu
6
CONTINUOUS
10
83.5190819999999974
20
-124.5798239999999879
11
83.5190759999999983
21
-124.5798169999999914
0
LINE
8
B.Cu
6
CONTINUOUS
10
83.5190759999999983
20
-124.5798169999999914
11
83.377681999999993
21
-124.4384230000000002
0
LINE
8
B.Cu
6
CONTINUOUS
10
83.377681999999993
20
-124.4384230000000002
11
83.3776749999999964
21
-124.4384170000000012
0
LINE
8
B.Cu
6
CONTINUOUS
10
83.3776749999999964
20
-124.4384170000000012
11
83.2158869999999951
21
-124.3208709999999968
0
LINE
8
B.Cu
6
CONTINUOUS
10
83.2158869999999951
20
-124.3208709999999968
11
83.215880999999996
21
-124.3208679999999902
0
LINE
8
B.Cu
6
CONTINUOUS
10
83.215880999999996
20
-124.3208679999999902
11
83.2158749999999969
21
-124.3208640000000003
0
LINE
8
B.Cu
6
CONTINUOUS
10
83.2158749999999969
20
-124.3208640000000003
11
83.0377029999999934
21
-124.230080000000001
0
LINE
8
B.Cu
6
CONTINUOUS
10
83.0377029999999934
20
-124.230080000000001
11
82.8475139999999897
21
-124.1682839999999999
0
LINE
8
B.Cu
6
CONTINUOUS
10
82.8475139999999897
20
-124.1682839999999999
11
82.6499960000000016
21
-124.1370000000000005
0
LINE
8
B.Cu
6
CONTINUOUS
10
82.6499960000000016
20
-124.1370000000000005
11
82.649991
21
-124.1370000000000005
0
LINE
8
B.Cu
6
CONTINUOUS
10
82.649991
20
-124.1370000000000005
11
82.4500089999999943
21
-124.1370000000000005
0
LINE
8
B.Cu
6
CONTINUOUS
10
82.4500089999999943
20
-124.1370000000000005
11
82.4500029999999953
21
-124.1370000000000005
0
LINE
8
B.Cu
6
CONTINUOUS
10
82.4500029999999953
20
-124.1370000000000005
11
82.4245329999999967
21
-124.141034999999988
0
LINE
8
B.Cu
6
CONTINUOUS
10
82.4245329999999967
20
-124.141034999999988
11
82.4122720000000015
21
-124.1419999999999959
0
LINE
8
B.Cu
6
CONTINUOUS
10
82.4122720000000015
20
-124.1419999999999959
11
80.1477280000000007
21
-124.1419999999999959
0
LINE
8
B.Cu
6
CONTINUOUS
10
80.1477280000000007
20
-124.1419999999999959
11
80.1354669999999913
21
-124.141034999999988
0
LINE
8
B.Cu
6
CONTINUOUS
10
80.1354669999999913
20
-124.141034999999988
11
80.1099959999999953
21
-124.1370000000000005
0
LINE
8
B.Cu
6
CONTINUOUS
10
80.1099959999999953
20
-124.1370000000000005
11
80.1099909999999937
21
-124.1370000000000005
0
LINE
8
B.Cu
6
CONTINUOUS
10
80.1099909999999937
20
-124.1370000000000005
11
79.9100090000000023
21
-124.1370000000000005
0
LINE
8
B.Cu
6
CONTINUOUS
10
79.9100090000000023
20
-124.1370000000000005
11
79.9100030000000032
21
-124.1370000000000005
0
LINE
8
B.Cu
6
CONTINUOUS
10
79.9100030000000032
20
-124.1370000000000005
11
79.7124850000000009
21
-124.1682839999999999
0
LINE
8
B.Cu
6
CONTINUOUS
10
76.8344999999999914
20
-141.7049959999999942
11
76.8657839999999908
21
-141.9025139999999965
0
LINE
8
B.Cu
6
CONTINUOUS
10
76.8657839999999908
20
-141.9025139999999965
11
76.9275799999999919
21
-142.0927030000000002
0
LINE
8
B.Cu
6
CONTINUOUS
10
76.9275799999999919
20
-142.0927030000000002
11
77.0183639999999912
21
-142.2708749999999895
0
LINE
8
B.Cu
6
CONTINUOUS
10
77.0183639999999912
20
-142.2708749999999895
11
77.0183679999999953
21
-142.2708810000000028
0
LINE
8
B.Cu
6
CONTINUOUS
10
77.0183679999999953
20
-142.2708810000000028
11
77.0183710000000019
21
-142.2708869999999877
0
LINE
8
B.Cu
6
CONTINUOUS
10
77.0183710000000019
20
-142.2708869999999877
11
77.1359169999999921
21
-142.432674999999989
0
LINE
8
B.Cu
6
CONTINUOUS
10
77.1359169999999921
20
-142.432674999999989
11
77.1359229999999911
21
-142.4326819999999998
0
LINE
8
B.Cu
6
CONTINUOUS
10
77.1359229999999911
20
-142.4326819999999998
11
77.2773169999999965
21
-142.5740759999999909
0
LINE
8
B.Cu
6
CONTINUOUS
10
77.2773169999999965
20
-142.5740759999999909
11
77.277323999999993
21
-142.5740820000000042
0
LINE
8
B.Cu
6
CONTINUOUS
10
77.277323999999993
20
-142.5740820000000042
11
77.2773249999999905
21
-142.5740830000000017
0
LINE
8
B.Cu
6
CONTINUOUS
10
77.2773249999999905
20
-142.5740830000000017
11
77.4391129999999919
21
-142.691629000000006
0
LINE
8
B.Cu
6
CONTINUOUS
10
77.4391129999999919
20
-142.691629000000006
11
77.4391200000000026
21
-142.6916329999999959
0
LINE
8
B.Cu
6
CONTINUOUS
10
77.4391200000000026
20
-142.6916329999999959
11
77.4391239999999925
21
-142.6916349999999909
0
LINE
8
B.Cu
6
CONTINUOUS
10
77.4391239999999925
20
-142.6916349999999909
11
77.6172959999999961
21
-142.7824190000000044
0
LINE
8
B.Cu
6
CONTINUOUS
10
77.6172959999999961
20
-142.7824190000000044
11
77.8074849999999998
21
-142.8442149999999913
0
LINE
8
B.Cu
6
CONTINUOUS
10
77.8074849999999998
20
-142.8442149999999913
11
77.8074879999999922
21
-142.8442149999999913
0
LINE
8
B.Cu
6
CONTINUOUS
10
77.8074879999999922
20
-142.8442149999999913
11
77.8074900000000014
21
-142.8442159999999888
0
LINE
8
B.Cu
6
CONTINUOUS
10
77.8074900000000014
20
-142.8442159999999888
11
78.0050090000000012
21
-142.8754999999999882
0
LINE
8
B.Cu
6
CONTINUOUS
10
78.0050090000000012
20
-142.8754999999999882
11
78.0050119999999936
21
-142.8754999999999882
0
LINE
8
B.Cu
6
CONTINUOUS
10
78.0050119999999936
20
-142.8754999999999882
11
78.2049880000000002
21
-142.8754999999999882
0
LINE
8
B.Cu
6
CONTINUOUS
10
78.2049880000000002
20
-142.8754999999999882
11
78.2049909999999926
21
-142.8754999999999882
0
LINE
8
B.Cu
6
CONTINUOUS
10
78.2049909999999926
20
-142.8754999999999882
11
78.4025099999999924
21
-142.8442159999999888
0
LINE
8
B.Cu
6
CONTINUOUS
10
78.4025099999999924
20
-142.8442159999999888
11
78.4025120000000015
21
-142.8442149999999913
0
LINE
8
B.Cu
6
CONTINUOUS
10
78.4025120000000015
20
-142.8442149999999913
11
78.4025139999999965
21
-142.8442149999999913
0
LINE
8
B.Cu
6
CONTINUOUS
10
78.4025139999999965
20
-142.8442149999999913
11
78.5927030000000002
21
-142.7824190000000044
0
LINE
8
B.Cu
6
CONTINUOUS
10
78.5927030000000002
20
-142.7824190000000044
11
78.7708749999999895
21
-142.6916349999999909
0
LINE
8
B.Cu
6
CONTINUOUS
10
78.7708749999999895
20
-142.6916349999999909
11
78.7708739999999921
21
-142.6916349999999909
0
LINE
8
B.Cu
6
CONTINUOUS
10
78.7708739999999921
20
-142.6916349999999909
11
78.7708870000000019
21
-142.691629000000006
0
LINE
8
B.Cu
6
CONTINUOUS
10
78.7708870000000019
20
-142.691629000000006
11
78.9326750000000033
21
-142.5740830000000017
0
LINE
8
B.Cu
6
CONTINUOUS
10
78.9326750000000033
20
-142.5740830000000017
11
79.0740830000000017
21
-142.432674999999989
0
LINE
8
B.Cu
6
CONTINUOUS
10
79.0740830000000017
20
-142.432674999999989
11
79.1916289999999918
21
-142.2708869999999877
0
LINE
8
B.Cu
6
CONTINUOUS
10
79.1916289999999918
20
-142.2708869999999877
11
79.2824189999999902
21
-142.0927030000000002
0
LINE
8
B.Cu
6
CONTINUOUS
10
79.2824189999999902
20
-142.0927030000000002
11
79.344216000000003
21
-141.9025100000000066
0
LINE
8
B.Cu
6
CONTINUOUS
10
79.344216000000003
20
-141.9025100000000066
11
79.3755000000000024
21
-141.7049910000000068
0
LINE
8
B.Cu
6
CONTINUOUS
10
79.3755000000000024
20
-141.7049910000000068
11
79.3755000000000024
21
-138.9650089999999807
0
LINE
8
B.Cu
6
CONTINUOUS
10
79.3755000000000024
20
-138.9650089999999807
11
79.344216000000003
21
-138.7674899999999809
0
LINE
8
B.Cu
6
CONTINUOUS
10
79.344216000000003
20
-138.7674899999999809
11
79.3442149999999913
21
-138.767487999999986
0
LINE
8
B.Cu
6
CONTINUOUS
10
79.3442149999999913
20
-138.767487999999986
11
79.3442149999999913
21
-138.7674849999999935
0
LINE
8
B.Cu
6
CONTINUOUS
10
79.3442149999999913
20
-138.7674849999999935
11
79.2824189999999902
21
-138.5772959999999898
0
LINE
8
B.Cu
6
CONTINUOUS
10
79.2824189999999902
20
-138.5772959999999898
11
79.1916349999999909
21
-138.3991240000000005
0
LINE
8
B.Cu
6
CONTINUOUS
10
79.1916349999999909
20
-138.3991240000000005
11
79.1916329999999959
21
-138.3991199999999822
0
LINE
8
B.Cu
6
CONTINUOUS
10
79.1916329999999959
20
-138.3991199999999822
11
79.1916289999999918
21
-138.3991129999999998
0
LINE
8
B.Cu
6
CONTINUOUS
10
79.1916289999999918
20
-138.3991129999999998
11
79.0740830000000017
21
-138.2373249999999985
0
LINE
8
B.Cu
6
CONTINUOUS
10
79.0740830000000017
20
-138.2373249999999985
11
79.07408199999999
21
-138.237324000000001
0
LINE
8
B.Cu
6
CONTINUOUS
10
79.07408199999999
20
-138.237324000000001
11
79.0740759999999909
21
-138.2373169999999902
0
LINE
8
B.Cu
6
CONTINUOUS
10
79.0740759999999909
20
-138.2373169999999902
11
78.9326819999999998
21
-138.0959229999999991
0
LINE
8
B.Cu
6
CONTINUOUS
10
78.9326819999999998
20
-138.0959229999999991
11
78.9326750000000033
21
-138.0959169999999858
0
LINE
8
B.Cu
6
CONTINUOUS
10
78.9326750000000033
20
-138.0959169999999858
11
78.7708870000000019
21
-137.9783709999999814
0
LINE
8
B.Cu
6
CONTINUOUS
10
78.7708870000000019
20
-137.9783709999999814
11
78.7708810000000028
21
-137.978367999999989
0
LINE
8
B.Cu
6
CONTINUOUS
10
78.7708810000000028
20
-137.978367999999989
11
78.7708749999999895
21
-137.9783639999999991
0
LINE
8
B.Cu
6
CONTINUOUS
10
78.7708749999999895
20
-137.9783639999999991
11
78.5927030000000002
21
-137.8875799999999856
0
LINE
8
B.Cu
6
CONTINUOUS
10
78.5927030000000002
20
-137.8875799999999856
11
78.4025139999999965
21
-137.8257839999999987
0
LINE
8
B.Cu
6
CONTINUOUS
10
78.4025139999999965
20
-137.8257839999999987
11
78.2049959999999942
21
-137.7944999999999993
0
LINE
8
B.Cu
6
CONTINUOUS
10
78.2049959999999942
20
-137.7944999999999993
11
78.2049909999999926
21
-137.7944999999999993
0
LINE
8
B.Cu
6
CONTINUOUS
10
78.2049909999999926
20
-137.7944999999999993
11
78.0050090000000012
21
-137.7944999999999993
0
LINE
8
B.Cu
6
CONTINUOUS
10
78.0050090000000012
20
-137.7944999999999993
11
78.0050030000000021
21
-137.7944999999999993
0
LINE
8
B.Cu
6
CONTINUOUS
10
78.0050030000000021
20
-137.7944999999999993
11
77.8074849999999998
21
-137.8257839999999987
0
LINE
8
B.Cu
6
CONTINUOUS
10
77.8074849999999998
20
-137.8257839999999987
11
77.6172959999999961
21
-137.8875799999999856
0
LINE
8
B.Cu
6
CONTINUOUS
10
77.6172959999999961
20
-137.8875799999999856
11
77.4391239999999925
21
-137.9783639999999991
0
LINE
8
B.Cu
6
CONTINUOUS
10
77.4391239999999925
20
-137.9783639999999991
11
77.4391129999999919
21
-137.9783709999999814
0
LINE
8
B.Cu
6
CONTINUOUS
10
77.4391129999999919
20
-137.9783709999999814
11
77.277323999999993
21
-138.0959169999999858
0
LINE
8
B.Cu
6
CONTINUOUS
10
77.277323999999993
20
-138.0959169999999858
11
77.2773169999999965
21
-138.0959229999999991
0
LINE
8
B.Cu
6
CONTINUOUS
10
77.2773169999999965
20
-138.0959229999999991
11
77.1359229999999911
21
-138.2373169999999902
0
LINE
8
B.Cu
6
CONTINUOUS
10
77.1359229999999911
20
-138.2373169999999902
11
77.1359169999999921
21
-138.237324000000001
0
LINE
8
B.Cu
6
CONTINUOUS
10
77.1359169999999921
20
-138.237324000000001
11
77.0183710000000019
21
-138.3991129999999998
0
LINE
8
B.Cu
6
CONTINUOUS
10
77.0183710000000019
20
-138.3991129999999998
11
77.0183639999999912
21
-138.3991240000000005
0
LINE
8
B.Cu
6
CONTINUOUS
10
77.0183639999999912
20
-138.3991240000000005
11
76.9275799999999919
21
-138.5772959999999898
0
LINE
8
B.Cu
6
CONTINUOUS
10
76.9275799999999919
20
-138.5772959999999898
11
76.8657839999999908
21
-138.7674849999999935
0
LINE
8
B.Cu
6
CONTINUOUS
10
76.8657839999999908
20
-138.7674849999999935
11
76.8344999999999914
21
-138.9650029999999958
0
LINE
8
B.Cu
6
CONTINUOUS
10
76.8344999999999914
20
-138.9650029999999958
11
76.8344999999999914
21
-141.7049959999999942
0
LINE
8
B.Cu
6
CONTINUOUS
10
150.9302459999999826
20
-121.6435139999999961
11
151.1027550000000019
21
-121.7149699999999939
0
LINE
8
B.Cu
6
CONTINUOUS
10
151.1027550000000019
20
-121.7149699999999939
11
151.2580099999999845
21
-121.8187080000000009
0
LINE
8
B.Cu
6
CONTINUOUS
10
151.2580099999999845
20
-121.8187080000000009
11
151.390041999999994
21
-121.9507399999999961
0
LINE
8
B.Cu
6
CONTINUOUS
10
151.390041999999994
20
-121.9507399999999961
11
151.4937799999999868
21
-122.105994999999993
0
LINE
8
B.Cu
6
CONTINUOUS
10
151.4937799999999868
20
-122.105994999999993
11
151.5652359999999987
21
-122.2785039999999981
0
LINE
8
B.Cu
6
CONTINUOUS
10
151.5652359999999987
20
-122.2785039999999981
11
151.6016630000000021
21
-122.461638999999991
0
LINE
8
B.Cu
6
CONTINUOUS
10
151.6016630000000021
20
-122.461638999999991
11
151.6062499999999886
21
-122.5549999999999926
0
LINE
8
B.Cu
6
CONTINUOUS
10
151.6062499999999886
20
-122.5549999999999926
11
151.6062499999999886
21
-141.6049999999999898
0
LINE
8
B.Cu
6
CONTINUOUS
10
151.6062499999999886
20
-141.6049999999999898
11
151.6016630000000021
21
-141.6983610000000056
0
LINE
8
B.Cu
6
CONTINUOUS
10
151.6016630000000021
20
-141.6983610000000056
11
151.5652359999999987
21
-141.8814959999999985
0
LINE
8
B.Cu
6
CONTINUOUS
10
151.5652359999999987
20
-141.8814959999999985
11
151.4937799999999868
21
-142.0540049999999894
0
LINE
8
B.Cu
6
CONTINUOUS
10
151.4937799999999868
20
-142.0540049999999894
11
151.390041999999994
21
-142.2092600000000004
0
LINE
8
B.Cu
6
CONTINUOUS
10
151.390041999999994
20
-142.2092600000000004
11
151.2580099999999845
21
-142.3412919999999815
0
LINE
8
B.Cu
6
CONTINUOUS
10
151.2580099999999845
20
-142.3412919999999815
11
151.1027550000000019
21
-142.4450300000000027
0
LINE
8
B.Cu
6
CONTINUOUS
10
151.1027550000000019
20
-142.4450300000000027
11
150.9302459999999826
21
-142.5164859999999862
0
LINE
8
B.Cu
6
CONTINUOUS
10
150.9302459999999826
20
-142.5164859999999862
11
150.7471109999999896
21
-142.5529129999999896
0
LINE
8
B.Cu
6
CONTINUOUS
10
150.7471109999999896
20
-142.5529129999999896
11
150.5603889999999865
21
-142.5529129999999896
0
LINE
8
B.Cu
6
CONTINUOUS
10
150.5603889999999865
20
-142.5529129999999896
11
150.3772539999999935
21
-142.5164859999999862
0
LINE
8
B.Cu
6
CONTINUOUS
10
150.3772539999999935
20
-142.5164859999999862
11
150.2047450000000026
21
-142.4450300000000027
0
LINE
8
B.Cu
6
CONTINUOUS
10
150.2047450000000026
20
-142.4450300000000027
11
150.0494899999999916
21
-142.3412919999999815
0
LINE
8
B.Cu
6
CONTINUOUS
10
150.0494899999999916
20
-142.3412919999999815
11
149.9174579999999821
21
-142.2092600000000004
0
LINE
8
B.Cu
6
CONTINUOUS
10
149.9174579999999821
20
-142.2092600000000004
11
149.8137199999999893
21
-142.0540049999999894
0
LINE
8
B.Cu
6
CONTINUOUS
10
149.8137199999999893
20
-142.0540049999999894
11
149.7422640000000058
21
-141.8814959999999985
0
LINE
8
B.Cu
6
CONTINUOUS
10
149.7422640000000058
20
-141.8814959999999985
11
149.7058370000000025
21
-141.6983610000000056
0
LINE
8
B.Cu
6
CONTINUOUS
10
149.7058370000000025
20
-141.6983610000000056
11
149.7012499999999875
21
-141.6049999999999898
0
LINE
8
B.Cu
6
CONTINUOUS
10
149.7012499999999875
20
-141.6049999999999898
11
149.7012499999999875
21
-122.5549999999999926
0
LINE
8
B.Cu
6
CONTINUOUS
10
149.7012499999999875
20
-122.5549999999999926
11
149.7058370000000025
21
-122.461638999999991
0
LINE
8
B.Cu
6
CONTINUOUS
10
149.7058370000000025
20
-122.461638999999991
11
149.7422640000000058
21
-122.2785039999999981
0
LINE
8
B.Cu
6
CONTINUOUS
10
149.7422640000000058
20
-122.2785039999999981
11
149.8137199999999893
21
-122.105994999999993
0
LINE
8
B.Cu
6
CONTINUOUS
10
149.8137199999999893
20
-122.105994999999993
11
149.9174579999999821
21
-121.9507399999999961
0
LINE
8
B.Cu
6
CONTINUOUS
10
149.9174579999999821
20
-121.9507399999999961
11
150.0494899999999916
21
-121.8187080000000009
0
LINE
8
B.Cu
6
CONTINUOUS
10
150.0494899999999916
20
-121.8187080000000009
11
150.2047450000000026
21
-121.7149699999999939
0
LINE
8
B.Cu
6
CONTINUOUS
10
150.2047450000000026
20
-121.7149699999999939
11
150.3772539999999935
21
-121.6435139999999961
0
LINE
8
B.Cu
6
CONTINUOUS
10
150.3772539999999935
20
-121.6435139999999961
11
150.5603889999999865
21
-121.6070869999999928
0
LINE
8
B.Cu
6
CONTINUOUS
10
150.5603889999999865
20
-121.6070869999999928
11
150.7471109999999896
21
-121.6070869999999928
0
LINE
8
B.Cu
6
CONTINUOUS
10
150.7471109999999896
20
-121.6070869999999928
11
150.9302459999999826
21
-121.6435139999999961
0
LINE
8
B.Cu
6
CONTINUOUS
10
153.4702460000000031
20
-140.6935139999999933
11
153.642754999999994
21
-140.7649700000000053
0
LINE
8
B.Cu
6
CONTINUOUS
10
153.642754999999994
20
-140.7649700000000053
11
153.798010000000005
21
-140.868707999999998
0
LINE
8
B.Cu
6
CONTINUOUS
10
153.798010000000005
20
-140.868707999999998
11
153.930041999999986
21
-141.0007400000000075
0
LINE
8
B.Cu
6
CONTINUOUS
10
153.930041999999986
20
-141.0007400000000075
11
154.0337799999999788
21
-141.1559949999999901
0
LINE
8
B.Cu
6
CONTINUOUS
10
154.0337799999999788
20
-141.1559949999999901
11
154.1052359999999908
21
-141.328503999999981
0
LINE
8
B.Cu
6
CONTINUOUS
10
154.1052359999999908
20
-141.328503999999981
11
154.1416629999999941
21
-141.5116390000000024
0
LINE
8
B.Cu
6
CONTINUOUS
10
154.1416629999999941
20
-141.5116390000000024
11
154.1416629999999941
21
-141.6983610000000056
0
LINE
8
B.Cu
6
CONTINUOUS
10
154.1416629999999941
20
-141.6983610000000056
11
154.1052359999999908
21
-141.8814959999999985
0
LINE
8
B.Cu
6
CONTINUOUS
10
154.1052359999999908
20
-141.8814959999999985
11
154.0337799999999788
21
-142.0540049999999894
0
LINE
8
B.Cu
6
CONTINUOUS
10
154.0337799999999788
20
-142.0540049999999894
11
153.930041999999986
21
-142.2092600000000004
0
LINE
8
B.Cu
6
CONTINUOUS
10
153.930041999999986
20
-142.2092600000000004
11
153.798010000000005
21
-142.3412919999999815
0
LINE
8
B.Cu
6
CONTINUOUS
10
153.798010000000005
20
-142.3412919999999815
11
153.642754999999994
21
-142.4450300000000027
0
LINE
8
B.Cu
6
CONTINUOUS
10
153.642754999999994
20
-142.4450300000000027
11
153.4702460000000031
21
-142.5164859999999862
0
LINE
8
B.Cu
6
CONTINUOUS
10
153.4702460000000031
20
-142.5164859999999862
11
153.2871109999999817
21
-142.5529129999999896
0
LINE
8
B.Cu
6
CONTINUOUS
10
153.2871109999999817
20
-142.5529129999999896
11
153.1003890000000069
21
-142.5529129999999896
0
LINE
8
B.Cu
6
CONTINUOUS
10
153.1003890000000069
20
-142.5529129999999896
11
152.9172539999999856
21
-142.5164859999999862
0
LINE
8
B.Cu
6
CONTINUOUS
10
152.9172539999999856
20
-142.5164859999999862
11
152.7447449999999947
21
-142.4450300000000027
0
LINE
8
B.Cu
6
CONTINUOUS
10
152.7447449999999947
20
-142.4450300000000027
11
152.5894899999999836
21
-142.3412919999999815
0
LINE
8
B.Cu
6
CONTINUOUS
10
152.5894899999999836
20
-142.3412919999999815
11
152.4574580000000026
21
-142.2092600000000004
0
LINE
8
B.Cu
6
CONTINUOUS
10
152.4574580000000026
20
-142.2092600000000004
11
152.3537199999999814
21
-142.0540049999999894
0
LINE
8
B.Cu
6
CONTINUOUS
10
152.3537199999999814
20
-142.0540049999999894
11
152.2822639999999978
21
-141.8814959999999985
0
LINE
8
B.Cu
6
CONTINUOUS
10
152.2822639999999978
20
-141.8814959999999985
11
152.2458369999999945
21
-141.6983610000000056
0
LINE
8
B.Cu
6
CONTINUOUS
10
152.2458369999999945
20
-141.6983610000000056
11
152.2458369999999945
21
-141.5116390000000024
0
LINE
8
B.Cu
6
CONTINUOUS
10
152.2458369999999945
20
-141.5116390000000024
11
152.2822639999999978
21
-141.328503999999981
0
LINE
8
B.Cu
6
CONTINUOUS
10
152.2822639999999978
20
-141.328503999999981
11
152.3537199999999814
21
-141.1559949999999901
0
LINE
8
B.Cu
6
CONTINUOUS
10
152.3537199999999814
20
-141.1559949999999901
11
152.4574580000000026
21
-141.0007400000000075
0
LINE
8
B.Cu
6
CONTINUOUS
10
152.4574580000000026
20
-141.0007400000000075
11
152.5894899999999836
21
-140.868707999999998
0
LINE
8
B.Cu
6
CONTINUOUS
10
152.5894899999999836
20
-140.868707999999998
11
152.7447449999999947
21
-140.7649700000000053
0
LINE
8
B.Cu
6
CONTINUOUS
10
152.7447449999999947
20
-140.7649700000000053
11
152.9172539999999856
21
-140.6935139999999933
0
LINE
8
B.Cu
6
CONTINUOUS
10
152.9172539999999856
20
-140.6935139999999933
11
153.1003890000000069
21
-140.65708699999999
0
LINE
8
B.Cu
6
CONTINUOUS
10
153.1003890000000069
20
-140.65708699999999
11
153.2871109999999817
21
-140.65708699999999
0
LINE
8
B.Cu
6
CONTINUOUS
10
153.2871109999999817
20
-140.65708699999999
11
153.4702460000000031
21
-140.6935139999999933
0
LINE
8
B.Cu
6
CONTINUOUS
10
166.1902259999999956
20
-116.240089999999995
11
166.3797579999999812
21
-116.3016729999999939
0
LINE
8
B.Cu
6
CONTINUOUS
10
166.3797579999999812
20
-116.3016729999999939
11
166.5573229999999967
21
-116.3921469999999943
0
LINE
8
B.Cu
6
CONTINUOUS
10
166.5573229999999967
20
-116.3921469999999943
11
166.7185489999999959
21
-116.5092839999999939
0
LINE
8
B.Cu
6
CONTINUOUS
10
166.7185489999999959
20
-116.5092839999999939
11
166.8594659999999976
21
-116.6502009999999956
0
LINE
8
B.Cu
6
CONTINUOUS
10
166.8594659999999976
20
-116.6502009999999956
11
166.976602999999983
21
-116.8114269999999948
0
LINE
8
B.Cu
6
CONTINUOUS
10
166.976602999999983
20
-116.8114269999999948
11
167.0670769999999834
21
-116.9889919999999961
0
LINE
8
B.Cu
6
CONTINUOUS
10
167.0670769999999834
20
-116.9889919999999961
11
167.1286599999999964
21
-117.1785239999999959
0
LINE
8
B.Cu
6
CONTINUOUS
10
167.1286599999999964
20
-117.1785239999999959
11
167.1598349999999868
21
-117.3753569999999939
0
LINE
8
B.Cu
6
CONTINUOUS
10
167.1598349999999868
20
-117.3753569999999939
11
167.1598349999999868
21
-117.5746429999999947
0
LINE
8
B.Cu
6
CONTINUOUS
10
167.1598349999999868
20
-117.5746429999999947
11
167.1286599999999964
21
-117.7714759999999927
0
LINE
8
B.Cu
6
CONTINUOUS
10
167.1286599999999964
20
-117.7714759999999927
11
167.0670769999999834
21
-117.9610079999999925
0
LINE
8
B.Cu
6
CONTINUOUS
10
167.0670769999999834
20
-117.9610079999999925
11
166.976602999999983
21
-118.1385729999999938
0
LINE
8
B.Cu
6
CONTINUOUS
10
166.976602999999983
20
-118.1385729999999938
11
166.8594659999999976
21
-118.299798999999993
0
LINE
8
B.Cu
6
CONTINUOUS
10
166.8594659999999976
20
-118.299798999999993
11
166.7185489999999959
21
-118.4407159999999948
0
LINE
8
B.Cu
6
CONTINUOUS
10
166.7185489999999959
20
-118.4407159999999948
11
166.5573229999999967
21
-118.5578529999999944
0
LINE
8
B.Cu
6
CONTINUOUS
10
166.5573229999999967
20
-118.5578529999999944
11
166.3797579999999812
21
-118.6483269999999948
0
LINE
8
B.Cu
6
CONTINUOUS
10
166.3797579999999812
20
-118.6483269999999948
11
166.1902259999999956
21
-118.7099099999999936
0
LINE
8
B.Cu
6
CONTINUOUS
10
166.1902259999999956
20
-118.7099099999999936
11
165.9933929999999975
21
-118.7410849999999982
0
LINE
8
B.Cu
6
CONTINUOUS
10
165.9933929999999975
20
-118.7410849999999982
11
165.9747030000000052
21
-118.7410849999999982
0
LINE
8
B.Cu
6
CONTINUOUS
10
165.9747030000000052
20
-118.7410849999999982
11
156.6862500000000011
21
-128.0295380000000023
0
LINE
8
B.Cu
6
CONTINUOUS
10
156.6862500000000011
20
-128.0295380000000023
11
156.6862500000000011
21
-141.6049999999999898
0
LINE
8
B.Cu
6
CONTINUOUS
10
156.6862500000000011
20
-141.6049999999999898
11
156.6816629999999861
21
-141.6983610000000056
0
LINE
8
B.Cu
6
CONTINUOUS
10
156.6816629999999861
20
-141.6983610000000056
11
156.6452359999999828
21
-141.8814959999999985
0
LINE
8
B.Cu
6
CONTINUOUS
10
156.6452359999999828
20
-141.8814959999999985
11
156.5737799999999993
21
-142.0540049999999894
0
LINE
8
B.Cu
6
CONTINUOUS
10
156.5737799999999993
20
-142.0540049999999894
11
156.4700420000000065
21
-142.2092600000000004
0
LINE
8
B.Cu
6
CONTINUOUS
10
156.4700420000000065
20
-142.2092600000000004
11
156.338009999999997
21
-142.3412919999999815
0
LINE
8
B.Cu
6
CONTINUOUS
10
156.338009999999997
20
-142.3412919999999815
11
156.182754999999986
21
-142.4450300000000027
0
LINE
8
B.Cu
6
CONTINUOUS
10
156.182754999999986
20
-142.4450300000000027
11
156.0102459999999951
21
-142.5164859999999862
0
LINE
8
B.Cu
6
CONTINUOUS
10
156.0102459999999951
20
-142.5164859999999862
11
155.8271110000000022
21
-142.5529129999999896
0
LINE
8
B.Cu
6
CONTINUOUS
10
155.8271110000000022
20
-142.5529129999999896
11
155.640388999999999
21
-142.5529129999999896
0
LINE
8
B.Cu
6
CONTINUOUS
10
155.640388999999999
20
-142.5529129999999896
11
155.457254000000006
21
-142.5164859999999862
0
LINE
8
B.Cu
6
CONTINUOUS
10
155.457254000000006
20
-142.5164859999999862
11
155.2847449999999867
21
-142.4450300000000027
0
LINE
8
B.Cu
6
CONTINUOUS
10
155.2847449999999867
20
-142.4450300000000027
11
155.1294900000000041
21
-142.3412919999999815
0
LINE
8
B.Cu
6
CONTINUOUS
10
155.1294900000000041
20
-142.3412919999999815
11
154.9974579999999946
21
-142.2092600000000004
0
LINE
8
B.Cu
6
CONTINUOUS
10
154.9974579999999946
20
-142.2092600000000004
11
154.8937200000000018
21
-142.0540049999999894
0
LINE
8
B.Cu
6
CONTINUOUS
10
154.8937200000000018
20
-142.0540049999999894
11
154.8222639999999899
21
-141.8814959999999985
0
LINE
8
B.Cu
6
CONTINUOUS
10
154.8222639999999899
20
-141.8814959999999985
11
154.7858369999999866
21
-141.6983610000000056
0
LINE
8
B.Cu
6
CONTINUOUS
10
154.7858369999999866
20
-141.6983610000000056
11
154.78125
21
-141.6049999999999898
0
LINE
8
B.Cu
6
CONTINUOUS
10
154.78125
20
-141.6049999999999898
11
154.78125
21
-127.6349999999999909
0
LINE
8
B.Cu
6
CONTINUOUS
10
154.78125
20
-127.6349999999999909
11
154.7858369999999866
21
-127.5416389999999893
0
LINE
8
B.Cu
6
CONTINUOUS
10
154.7858369999999866
20
-127.5416389999999893
11
154.8222639999999899
21
-127.3585039999999964
0
LINE
8
B.Cu
6
CONTINUOUS
10
154.8222639999999899
20
-127.3585039999999964
11
154.8937200000000018
21
-127.1859949999999913
0
LINE
8
B.Cu
6
CONTINUOUS
10
154.8937200000000018
20
-127.1859949999999913
11
154.8937200000000018
21
-127.1859939999999938
0
LINE
8
B.Cu
6
CONTINUOUS
10
154.8937200000000018
20
-127.1859939999999938
11
154.9974579999999946
21
-127.0307399999999944
0
LINE
8
B.Cu
6
CONTINUOUS
10
154.9974579999999946
20
-127.0307399999999944
11
155.0602309999999875
21
-126.961480999999992
0
LINE
8
B.Cu
6
CONTINUOUS
10
155.0602309999999875
20
-126.961480999999992
11
164.627664999999979
21
-117.3940470000000005
0
LINE
8
B.Cu
6
CONTINUOUS
10
164.627664999999979
20
-117.3940470000000005
11
164.627664999999979
21
-117.3753569999999939
0
LINE
8
B.Cu
6
CONTINUOUS
10
164.627664999999979
20
-117.3753569999999939
11
164.6588399999999979
21
-117.1785239999999959
0
LINE
8
B.Cu
6
CONTINUOUS
10
164.6588399999999979
20
-117.1785239999999959
11
164.7204229999999825
21
-116.9889919999999961
0
LINE
8
B.Cu
6
CONTINUOUS
10
164.7204229999999825
20
-116.9889919999999961
11
164.8108969999999829
21
-116.8114269999999948
0
LINE
8
B.Cu
6
CONTINUOUS
10
164.8108969999999829
20
-116.8114269999999948
11
164.9280339999999967
21
-116.6502009999999956
0
LINE
8
B.Cu
6
CONTINUOUS
10
164.9280339999999967
20
-116.6502009999999956
11
165.0689509999999984
21
-116.5092839999999939
0
LINE
8
B.Cu
6
CONTINUOUS
10
165.0689509999999984
20
-116.5092839999999939
11
165.2301769999999976
21
-116.3921469999999943
0
LINE
8
B.Cu
6
CONTINUOUS
10
165.2301769999999976
20
-116.3921469999999943
11
165.4077419999999847
21
-116.3016729999999939
0
LINE
8
B.Cu
6
CONTINUOUS
10
165.4077419999999847
20
-116.3016729999999939
11
165.5972739999999988
21
-116.240089999999995
0
LINE
8
B.Cu
6
CONTINUOUS
10
165.5972739999999988
20
-116.240089999999995
11
165.7941069999999968
21
-116.2089149999999904
0
LINE
8
B.Cu
6
CONTINUOUS
10
165.7941069999999968
20
-116.2089149999999904
11
165.9933929999999975
21
-116.2089149999999904
0
LINE
8
B.Cu
6
CONTINUOUS
10
165.9933929999999975
20
-116.2089149999999904
11
166.1902259999999956
21
-116.240089999999995
0
LINE
8
B.Cu
6
CONTINUOUS
10
158.5502459999999871
20
-140.6935139999999933
11
158.7227550000000065
21
-140.7649700000000053
0
LINE
8
B.Cu
6
CONTINUOUS
10
158.7227550000000065
20
-140.7649700000000053
11
158.8780099999999891
21
-140.868707999999998
0
LINE
8
B.Cu
6
CONTINUOUS
10
158.8780099999999891
20
-140.868707999999998
11
159.0100419999999986
21
-141.0007400000000075
0
LINE
8
B.Cu
6
CONTINUOUS
10
159.0100419999999986
20
-141.0007400000000075
11
159.1137799999999913
21
-141.1559949999999901
0
LINE
8
B.Cu
6
CONTINUOUS
10
159.1137799999999913
20
-141.1559949999999901
11
159.1852360000000033
21
-141.328503999999981
0
LINE
8
B.Cu
6
CONTINUOUS
10
159.1852360000000033
20
-141.328503999999981
11
159.2216630000000066
21
-141.5116390000000024
0
LINE
8
B.Cu
6
CONTINUOUS
10
159.2216630000000066
20
-141.5116390000000024
11
159.2216630000000066
21
-141.6983610000000056
0
LINE
8
B.Cu
6
CONTINUOUS
10
159.2216630000000066
20
-141.6983610000000056
11
159.1852360000000033
21
-141.8814959999999985
0
LINE
8
B.Cu
6
CONTINUOUS
10
159.1852360000000033
20
-141.8814959999999985
11
159.1137799999999913
21
-142.0540049999999894
0
LINE
8
B.Cu
6
CONTINUOUS
10
159.1137799999999913
20
-142.0540049999999894
11
159.0100419999999986
21
-142.2092600000000004
0
LINE
8
B.Cu
6
CONTINUOUS
10
159.0100419999999986
20
-142.2092600000000004
11
158.8780099999999891
21
-142.3412919999999815
0
LINE
8
B.Cu
6
CONTINUOUS
10
158.8780099999999891
20
-142.3412919999999815
11
158.7227550000000065
21
-142.4450300000000027
0
LINE
8
B.Cu
6
CONTINUOUS
10
158.7227550000000065
20
-142.4450300000000027
11
158.5502459999999871
21
-142.5164859999999862
0
LINE
8
B.Cu
6
CONTINUOUS
10
158.5502459999999871
20
-142.5164859999999862
11
158.3671109999999942
21
-142.5529129999999896
0
LINE
8
B.Cu
6
CONTINUOUS
10
158.3671109999999942
20
-142.5529129999999896
11
158.180388999999991
21
-142.5529129999999896
0
LINE
8
B.Cu
6
CONTINUOUS
10
158.180388999999991
20
-142.5529129999999896
11
157.9972539999999981
21
-142.5164859999999862
0
LINE
8
B.Cu
6
CONTINUOUS
10
157.9972539999999981
20
-142.5164859999999862
11
157.8247449999999787
21
-142.4450300000000027
0
LINE
8
B.Cu
6
CONTINUOUS
10
157.8247449999999787
20
-142.4450300000000027
11
157.6694899999999961
21
-142.3412919999999815
0
LINE
8
B.Cu
6
CONTINUOUS
10
157.6694899999999961
20
-142.3412919999999815
11
157.5374579999999867
21
-142.2092600000000004
0
LINE
8
B.Cu
6
CONTINUOUS
10
157.5374579999999867
20
-142.2092600000000004
11
157.4337199999999939
21
-142.0540049999999894
0
LINE
8
B.Cu
6
CONTINUOUS
10
157.4337199999999939
20
-142.0540049999999894
11
157.3622639999999819
21
-141.8814959999999985
0
LINE
8
B.Cu
6
CONTINUOUS
10
157.3622639999999819
20
-141.8814959999999985
11
157.325837000000007
21
-141.6983610000000056
0
LINE
8
B.Cu
6
CONTINUOUS
10
157.325837000000007
20
-141.6983610000000056
11
157.325837000000007
21
-141.5116390000000024
0
LINE
8
B.Cu
6
CONTINUOUS
10
157.325837000000007
20
-141.5116390000000024
11
157.3622639999999819
21
-141.328503999999981
0
LINE
8
B.Cu
6
CONTINUOUS
10
157.3622639999999819
20
-141.328503999999981
11
157.4337199999999939
21
-141.1559949999999901
0
LINE
8
B.Cu
6
CONTINUOUS
10
157.4337199999999939
20
-141.1559949999999901
11
157.5374579999999867
21
-141.0007400000000075
0
LINE
8
B.Cu
6
CONTINUOUS
10
157.5374579999999867
20
-141.0007400000000075
11
157.6694899999999961
21
-140.868707999999998
0
LINE
8
B.Cu
6
CONTINUOUS
10
157.6694899999999961
20
-140.868707999999998
11
157.8247449999999787
21
-140.7649700000000053
0
LINE
8
B.Cu
6
CONTINUOUS
10
157.8247449999999787
20
-140.7649700000000053
11
157.9972539999999981
21
-140.6935139999999933
0
LINE
8
B.Cu
6
CONTINUOUS
10
157.9972539999999981
20
-140.6935139999999933
11
158.180388999999991
21
-140.65708699999999
0
LINE
8
B.Cu
6
CONTINUOUS
10
158.180388999999991
20
-140.65708699999999
11
158.3671109999999942
21
-140.65708699999999
0
LINE
8
B.Cu
6
CONTINUOUS
10
158.3671109999999942
20
-140.65708699999999
11
158.5502459999999871
21
-140.6935139999999933
0
LINE
8
B.Cu
6
CONTINUOUS
10
164.7171109999999885
20
-127.9570869999999871
11
164.9002459999999814
21
-127.9935139999999905
0
LINE
8
B.Cu
6
CONTINUOUS
10
164.9002459999999814
20
-127.9935139999999905
11
165.0222279999999841
21
-128.0440409999999929
0
LINE
8
B.Cu
6
CONTINUOUS
10
165.0222279999999841
20
-128.0440409999999929
11
165.0727559999999983
21
-128.0649699999999882
0
LINE
8
B.Cu
6
CONTINUOUS
10
165.0727559999999983
20
-128.0649699999999882
11
165.2280099999999834
21
-128.168707999999981
0
LINE
8
B.Cu
6
CONTINUOUS
10
165.2280099999999834
20
-128.168707999999981
11
165.297269
21
-128.2314810000000023
0
LINE
8
B.Cu
6
CONTINUOUS
10
165.297269
20
-128.2314810000000023
11
166.5672689999999818
21
-129.5014809999999841
0
LINE
8
B.Cu
6
CONTINUOUS
10
166.5672689999999818
20
-129.5014809999999841
11
166.6300420000000031
21
-129.5707400000000007
0
LINE
8
B.Cu
6
CONTINUOUS
10
166.6300420000000031
20
-129.5707400000000007
11
166.7337799999999959
21
-129.7259939999999858
0
LINE
8
B.Cu
6
CONTINUOUS
10
166.7337799999999959
20
-129.7259939999999858
11
166.7416649999999834
21
-129.7450299999999856
0
LINE
8
B.Cu
6
CONTINUOUS
10
166.7416649999999834
20
-129.7450299999999856
11
166.8052359999999794
21
-129.8985040000000026
0
LINE
8
B.Cu
6
CONTINUOUS
10
166.8052359999999794
20
-129.8985040000000026
11
166.8416629999999827
21
-130.0816389999999956
0
LINE
8
B.Cu
6
CONTINUOUS
10
166.8416629999999827
20
-130.0816389999999956
11
166.8462499999999977
21
-130.1749999999999829
0
LINE
8
B.Cu
6
CONTINUOUS
10
166.8462499999999977
20
-130.1749999999999829
11
166.8462499999999977
21
-133.1469850000000008
0
LINE
8
B.Cu
6
CONTINUOUS
10
166.8462499999999977
20
-133.1469850000000008
11
166.8594659999999976
21
-133.1602010000000007
0
LINE
8
B.Cu
6
CONTINUOUS
10
166.8594659999999976
20
-133.1602010000000007
11
166.976602999999983
21
-133.3214269999999999
0
LINE
8
B.Cu
6
CONTINUOUS
10
166.976602999999983
20
-133.3214269999999999
11
167.0670769999999834
21
-133.498991999999987
0
LINE
8
B.Cu
6
CONTINUOUS
10
167.0670769999999834
20
-133.498991999999987
11
167.1286599999999964
21
-133.688524000000001
0
LINE
8
B.Cu
6
CONTINUOUS
10
167.1286599999999964
20
-133.688524000000001
11
167.1598349999999868
21
-133.8853569999999991
0
LINE
8
B.Cu
6
CONTINUOUS
10
167.1598349999999868
20
-133.8853569999999991
11
167.1598349999999868
21
-134.0846429999999998
0
LINE
8
B.Cu
6
CONTINUOUS
10
167.1598349999999868
20
-134.0846429999999998
11
167.1286599999999964
21
-134.2814759999999978
0
LINE
8
B.Cu
6
CONTINUOUS
10
167.1286599999999964
20
-134.2814759999999978
11
167.0670769999999834
21
-134.4710079999999834
0
LINE
8
B.Cu
6
CONTINUOUS
10
167.0670769999999834
20
-134.4710079999999834
11
166.976602999999983
21
-134.648572999999999
0
LINE
8
B.Cu
6
CONTINUOUS
10
166.976602999999983
20
-134.648572999999999
11
166.8594659999999976
21
-134.8097989999999982
0
LINE
8
B.Cu
6
CONTINUOUS
10
166.8594659999999976
20
-134.8097989999999982
11
166.7185489999999959
21
-134.9507159999999999
0
LINE
8
B.Cu
6
CONTINUOUS
10
166.7185489999999959
20
-134.9507159999999999
11
166.5573229999999967
21
-135.0678529999999853
0
LINE
8
B.Cu
6
CONTINUOUS
10
166.5573229999999967
20
-135.0678529999999853
11
166.3797579999999812
21
-135.1583269999999857
0
LINE
8
B.Cu
6
CONTINUOUS
10
166.3797579999999812
20
-135.1583269999999857
11
166.1902259999999956
21
-135.2199099999999987
0
LINE
8
B.Cu
6
CONTINUOUS
10
166.1902259999999956
20
-135.2199099999999987
11
165.9933929999999975
21
-135.2510849999999891
0
LINE
8
B.Cu
6
CONTINUOUS
10
165.9933929999999975
20
-135.2510849999999891
11
165.9747030000000052
21
-135.2510849999999891
0
LINE
8
B.Cu
6
CONTINUOUS
10
165.9747030000000052
20
-135.2510849999999891
11
161.7662499999999852
21
-139.4595379999999807
0
LINE
8
B.Cu
6
CONTINUOUS
10
161.7662499999999852
20
-139.4595379999999807
11
161.7662499999999852
21
-141.6049999999999898
0
LINE
8
B.Cu
6
CONTINUOUS
10
161.7662499999999852
20
-141.6049999999999898
11
161.7616629999999986
21
-141.6983610000000056
0
LINE
8
B.Cu
6
CONTINUOUS
10
161.7616629999999986
20
-141.6983610000000056
11
161.7252359999999953
21
-141.8814959999999985
0
LINE
8
B.Cu
6
CONTINUOUS
10
161.7252359999999953
20
-141.8814959999999985
11
161.6537799999999834
21
-142.0540049999999894
0
LINE
8
B.Cu
6
CONTINUOUS
10
161.6537799999999834
20
-142.0540049999999894
11
161.5500419999999906
21
-142.2092600000000004
0
LINE
8
B.Cu
6
CONTINUOUS
10
161.5500419999999906
20
-142.2092600000000004
11
161.4180099999999811
21
-142.3412919999999815
0
LINE
8
B.Cu
6
CONTINUOUS
10
161.4180099999999811
20
-142.3412919999999815
11
161.2627549999999985
21
-142.4450300000000027
0
LINE
8
B.Cu
6
CONTINUOUS
10
161.2627549999999985
20
-142.4450300000000027
11
161.0902459999999792
21
-142.5164859999999862
0
LINE
8
B.Cu
6
CONTINUOUS
10
161.0902459999999792
20
-142.5164859999999862
11
160.9071109999999862
21
-142.5529129999999896
0
LINE
8
B.Cu
6
CONTINUOUS
10
160.9071109999999862
20
-142.5529129999999896
11
160.7203889999999831
21
-142.5529129999999896
0
LINE
8
B.Cu
6
CONTINUOUS
10
160.7203889999999831
20
-142.5529129999999896
11
160.5372539999999901
21
-142.5164859999999862
0
LINE
8
B.Cu
6
CONTINUOUS
10
160.5372539999999901
20
-142.5164859999999862
11
160.3647449999999992
21
-142.4450300000000027
0
LINE
8
B.Cu
6
CONTINUOUS
10
160.3647449999999992
20
-142.4450300000000027
11
160.2094899999999882
21
-142.3412919999999815
0
LINE
8
B.Cu
6
CONTINUOUS
10
160.2094899999999882
20
-142.3412919999999815
11
160.0774579999999787
21
-142.2092600000000004
0
LINE
8
B.Cu
6
CONTINUOUS
10
160.0774579999999787
20
-142.2092600000000004
11
159.9737199999999859
21
-142.0540049999999894
0
LINE
8
B.Cu
6
CONTINUOUS
10
159.9737199999999859
20
-142.0540049999999894
11
159.9022640000000024
21
-141.8814959999999985
0
LINE
8
B.Cu
6
CONTINUOUS
10
159.9022640000000024
20
-141.8814959999999985
11
159.8658369999999991
21
-141.6983610000000056
0
LINE
8
B.Cu
6
CONTINUOUS
10
159.8658369999999991
20
-141.6983610000000056
11
159.8612499999999841
21
-141.6049999999999898
0
LINE
8
B.Cu
6
CONTINUOUS
10
159.8612499999999841
20
-141.6049999999999898
11
159.8612499999999841
21
-139.0649999999999977
0
LINE
8
B.Cu
6
CONTINUOUS
10
159.8612499999999841
20
-139.0649999999999977
11
159.8658369999999991
21
-138.9716389999999819
0
LINE
8
B.Cu
6
CONTINUOUS
10
159.8658369999999991
20
-138.9716389999999819
11
159.9022640000000024
21
-138.788503999999989
0
LINE
8
B.Cu
6
CONTINUOUS
10
159.9022640000000024
20
-138.788503999999989
11
159.9659659999999803
21
-138.6347140000000024
0
LINE
8
B.Cu
6
CONTINUOUS
10
159.9659659999999803
20
-138.6347140000000024
11
159.9737199999999859
21
-138.6159940000000006
0
LINE
8
B.Cu
6
CONTINUOUS
10
159.9737199999999859
20
-138.6159940000000006
11
160.0774579999999787
21
-138.460739999999987
0
LINE
8
B.Cu
6
CONTINUOUS
10
160.0774579999999787
20
-138.460739999999987
11
160.140231
21
-138.3914809999999989
0
LINE
8
B.Cu
6
CONTINUOUS
10
160.140231
20
-138.3914809999999989
11
164.627664999999979
21
-133.9040469999999914
0
LINE
8
B.Cu
6
CONTINUOUS
10
164.627664999999979
20
-133.9040469999999914
11
164.627664999999979
21
-133.8853569999999991
0
LINE
8
B.Cu
6
CONTINUOUS
10
164.627664999999979
20
-133.8853569999999991
11
164.6588399999999979
21
-133.688524000000001
0
LINE
8
B.Cu
6
CONTINUOUS
10
164.6588399999999979
20
-133.688524000000001
11
164.7204229999999825
21
-133.498991999999987
0
LINE
8
B.Cu
6
CONTINUOUS
10
164.7204229999999825
20
-133.498991999999987
11
164.8108969999999829
21
-133.3214269999999999
0
LINE
8
B.Cu
6
CONTINUOUS
10
164.8108969999999829
20
-133.3214269999999999
11
164.9280339999999967
21
-133.1602010000000007
0
LINE
8
B.Cu
6
CONTINUOUS
10
164.9280339999999967
20
-133.1602010000000007
11
164.9412499999999966
21
-133.1469850000000008
0
LINE
8
B.Cu
6
CONTINUOUS
10
164.9412499999999966
20
-133.1469850000000008
11
164.9412499999999966
21
-130.5695379999999943
0
LINE
8
B.Cu
6
CONTINUOUS
10
164.9412499999999966
20
-130.5695379999999943
11
164.2292119999999898
21
-129.8574999999999875
0
LINE
8
B.Cu
6
CONTINUOUS
10
164.2292119999999898
20
-129.8574999999999875
11
160.8137499999999989
21
-129.8574999999999875
0
LINE
8
B.Cu
6
CONTINUOUS
10
160.8137499999999989
20
-129.8574999999999875
11
160.7203889999999831
21
-129.8529130000000009
0
LINE
8
B.Cu
6
CONTINUOUS
10
160.7203889999999831
20
-129.8529130000000009
11
160.5372539999999901
21
-129.8164859999999976
0
LINE
8
B.Cu
6
CONTINUOUS
10
160.5372539999999901
20
-129.8164859999999976
11
160.3647449999999992
21
-129.7450299999999856
0
LINE
8
B.Cu
6
CONTINUOUS
10
160.3647449999999992
20
-129.7450299999999856
11
160.2094899999999882
21
-129.6412919999999929
0
LINE
8
B.Cu
6
CONTINUOUS
10
160.2094899999999882
20
-129.6412919999999929
11
160.0774579999999787
21
-129.5092599999999834
0
LINE
8
B.Cu
6
CONTINUOUS
10
160.0774579999999787
20
-129.5092599999999834
11
159.9737199999999859
21
-129.3540050000000008
0
LINE
8
B.Cu
6
CONTINUOUS
10
159.9737199999999859
20
-129.3540050000000008
11
159.9022640000000024
21
-129.1814959999999814
0
LINE
8
B.Cu
6
CONTINUOUS
10
159.9022640000000024
20
-129.1814959999999814
11
159.8658369999999991
21
-128.9983609999999885
0
LINE
8
B.Cu
6
CONTINUOUS
10
159.8658369999999991
20
-128.9983609999999885
11
159.8658369999999991
21
-128.8116389999999853
0
LINE
8
B.Cu
6
CONTINUOUS
10
159.8658369999999991
20
-128.8116389999999853
11
159.9022640000000024
21
-128.6285039999999924
0
LINE
8
B.Cu
6
CONTINUOUS
10
159.9022640000000024
20
-128.6285039999999924
11
159.9737199999999859
21
-128.4559950000000015
0
LINE
8
B.Cu
6
CONTINUOUS
10
159.9737199999999859
20
-128.4559950000000015
11
160.0774579999999787
21
-128.3007399999999905
0
LINE
8
B.Cu
6
CONTINUOUS
10
160.0774579999999787
20
-128.3007399999999905
11
160.2094899999999882
21
-128.168707999999981
0
LINE
8
B.Cu
6
CONTINUOUS
10
160.2094899999999882
20
-128.168707999999981
11
160.3647449999999992
21
-128.0649699999999882
0
LINE
8
B.Cu
6
CONTINUOUS
10
160.3647449999999992
20
-128.0649699999999882
11
160.5372539999999901
21
-127.9935139999999905
0
LINE
8
B.Cu
6
CONTINUOUS
10
160.5372539999999901
20
-127.9935139999999905
11
160.7203889999999831
21
-127.9570869999999871
0
LINE
8
B.Cu
6
CONTINUOUS
10
160.7203889999999831
20
-127.9570869999999871
11
160.8137499999999989
21
-127.9525000000000006
0
LINE
8
B.Cu
6
CONTINUOUS
10
160.8137499999999989
20
-127.9525000000000006
11
164.6237500000000011
21
-127.9525000000000006
0
LINE
8
B.Cu
6
CONTINUOUS
10
164.6237500000000011
20
-127.9525000000000006
11
164.7171109999999885
21
-127.9570869999999871
0
LINE
8
B.Cu
6
CONTINUOUS
10
119.3750900000000001
20
-129.0422709999999995
11
119.564622
21
-129.1038539999999841
0
LINE
8
B.Cu
6
CONTINUOUS
10
119.564622
20
-129.1038539999999841
11
119.7421870000000013
21
-129.1943279999999845
0
LINE
8
B.Cu
6
CONTINUOUS
10
119.7421870000000013
20
-129.1943279999999845
11
119.9034130000000005
21
-129.3114649999999983
0
LINE
8
B.Cu
6
CONTINUOUS
10
119.9034130000000005
20
-129.3114649999999983
11
119.9766399999999891
21
-129.3791549999999972
0
LINE
8
B.Cu
6
CONTINUOUS
10
119.9766399999999891
20
-129.3791549999999972
11
121.7726919999999922
21
-131.1752070000000003
0
LINE
8
B.Cu
6
CONTINUOUS
10
121.7726919999999922
20
-131.1752070000000003
11
121.8403809999999936
21
-131.2484340000000032
0
LINE
8
B.Cu
6
CONTINUOUS
10
121.8403809999999936
20
-131.2484340000000032
11
121.9575189999999907
21
-131.4096600000000024
0
LINE
8
B.Cu
6
CONTINUOUS
10
121.9575189999999907
20
-131.4096600000000024
11
122.0479929999999911
21
-131.5872249999999894
0
LINE
8
B.Cu
6
CONTINUOUS
10
122.0479929999999911
20
-131.5872249999999894
11
122.1095759999999899
21
-131.7767570000000035
0
LINE
8
B.Cu
6
CONTINUOUS
10
122.1095759999999899
20
-131.7767570000000035
11
122.1407509999999945
21
-131.9735900000000015
0
LINE
8
B.Cu
6
CONTINUOUS
10
122.1407509999999945
20
-131.9735900000000015
11
122.1407509999999945
21
-132.1728760000000023
0
LINE
8
B.Cu
6
CONTINUOUS
10
122.1407509999999945
20
-132.1728760000000023
11
122.1095759999999899
21
-132.3697090000000003
0
LINE
8
B.Cu
6
CONTINUOUS
10
122.1095759999999899
20
-132.3697090000000003
11
122.0479929999999911
21
-132.5592409999999859
0
LINE
8
B.Cu
6
CONTINUOUS
10
122.0479929999999911
20
-132.5592409999999859
11
121.9575189999999907
21
-132.7368060000000014
0
LINE
8
B.Cu
6
CONTINUOUS
10
121.9575189999999907
20
-132.7368060000000014
11
121.8403809999999936
21
-132.8980320000000006
0
LINE
8
B.Cu
6
CONTINUOUS
10
121.8403809999999936
20
-132.8980320000000006
11
121.6994649999999893
21
-133.0389480000000049
0
LINE
8
B.Cu
6
CONTINUOUS
10
121.6994649999999893
20
-133.0389480000000049
11
121.5382389999999901
21
-133.1560859999999877
0
LINE
8
B.Cu
6
CONTINUOUS
10
121.5382389999999901
20
-133.1560859999999877
11
121.3606739999999888
21
-133.2465599999999881
0
LINE
8
B.Cu
6
CONTINUOUS
10
121.3606739999999888
20
-133.2465599999999881
11
121.171141999999989
21
-133.3081430000000012
0
LINE
8
B.Cu
6
CONTINUOUS
10
121.171141999999989
20
-133.3081430000000012
11
120.974308999999991
21
-133.3393179999999916
0
LINE
8
B.Cu
6
CONTINUOUS
10
120.974308999999991
20
-133.3393179999999916
11
120.7750229999999902
21
-133.3393179999999916
0
LINE
8
B.Cu
6
CONTINUOUS
10
120.7750229999999902
20
-133.3393179999999916
11
120.7750219999999928
21
-133.3393179999999916
0
LINE
8
B.Cu
6
CONTINUOUS
10
120.7750219999999928
20
-133.3393179999999916
11
120.5781889999999947
21
-133.3081430000000012
0
LINE
8
B.Cu
6
CONTINUOUS
10
120.5781889999999947
20
-133.3081430000000012
11
120.3886569999999949
21
-133.2465599999999881
0
LINE
8
B.Cu
6
CONTINUOUS
10
120.3886569999999949
20
-133.2465599999999881
11
120.2110919999999936
21
-133.1560859999999877
0
LINE
8
B.Cu
6
CONTINUOUS
10
120.2110919999999936
20
-133.1560859999999877
11
120.0498659999999944
21
-133.0389490000000023
0
LINE
8
B.Cu
6
CONTINUOUS
10
120.0498659999999944
20
-133.0389490000000023
11
120.049839999999989
21
-133.0389229999999827
0
LINE
8
B.Cu
6
CONTINUOUS
10
120.049839999999989
20
-133.0389229999999827
11
119.9766399999999891
21
-132.9712590000000034
0
LINE
8
B.Cu
6
CONTINUOUS
10
119.9766399999999891
20
-132.9712590000000034
11
119.093199999999996
21
-132.0878189999999961
0
LINE
8
B.Cu
6
CONTINUOUS
10
119.093199999999996
20
-132.0878189999999961
11
110.7061689999999885
21
-140.4748500000000035
0
LINE
8
B.Cu
6
CONTINUOUS
10
110.7061689999999885
20
-140.4748500000000035
11
110.7108269999999948
21
-140.4839920000000006
0
LINE
8
B.Cu
6
CONTINUOUS
10
110.7108269999999948
20
-140.4839920000000006
11
110.7724099999999936
21
-140.6735239999999862
0
LINE
8
B.Cu
6
CONTINUOUS
10
110.7724099999999936
20
-140.6735239999999862
11
110.8035849999999982
21
-140.8703569999999843
0
LINE
8
B.Cu
6
CONTINUOUS
10
110.8035849999999982
20
-140.8703569999999843
11
110.8035849999999982
21
-141.069642999999985
0
LINE
8
B.Cu
6
CONTINUOUS
10
110.8035849999999982
20
-141.069642999999985
11
110.7724099999999936
21
-141.2664759999999831
0
LINE
8
B.Cu
6
CONTINUOUS
10
110.7724099999999936
20
-141.2664759999999831
11
110.7108269999999948
21
-141.4560079999999971
0
LINE
8
B.Cu
6
CONTINUOUS
10
110.7108269999999948
20
-141.4560079999999971
11
110.6203529999999944
21
-141.6335729999999842
0
LINE
8
B.Cu
6
CONTINUOUS
10
110.6203529999999944
20
-141.6335729999999842
11
110.5032159999999948
21
-141.7947989999999834
0
LINE
8
B.Cu
6
CONTINUOUS
10
110.5032159999999948
20
-141.7947989999999834
11
110.362298999999993
21
-141.9357159999999851
0
LINE
8
B.Cu
6
CONTINUOUS
10
110.362298999999993
20
-141.9357159999999851
11
110.2010729999999938
21
-142.0528529999999989
0
LINE
8
B.Cu
6
CONTINUOUS
10
110.2010729999999938
20
-142.0528529999999989
11
110.0235079999999925
21
-142.1433269999999993
0
LINE
8
B.Cu
6
CONTINUOUS
10
110.0235079999999925
20
-142.1433269999999993
11
109.8339759999999927
21
-142.2049099999999839
0
LINE
8
B.Cu
6
CONTINUOUS
10
109.8339759999999927
20
-142.2049099999999839
11
109.6371429999999947
21
-142.2360850000000028
0
LINE
8
B.Cu
6
CONTINUOUS
10
109.6371429999999947
20
-142.2360850000000028
11
109.5374999999999943
21
-142.2399999999999807
0
LINE
8
B.Cu
6
CONTINUOUS
10
109.5374999999999943
20
-142.2399999999999807
11
101.4412499999999966
21
-142.2399999999999807
0
LINE
8
B.Cu
6
CONTINUOUS
10
101.4412499999999966
20
-142.2399999999999807
11
101.3416069999999962
21
-142.2360850000000028
0
LINE
8
B.Cu
6
CONTINUOUS
10
101.3416069999999962
20
-142.2360850000000028
11
101.3416059999999987
21
-142.2360850000000028
0
LINE
8
B.Cu
6
CONTINUOUS
10
101.3416059999999987
20
-142.2360850000000028
11
101.3146929999999912
21
-142.231821999999994
0
LINE
8
B.Cu
6
CONTINUOUS
10
101.3146929999999912
20
-142.231821999999994
11
101.1447739999999982
21
-142.2049099999999839
0
LINE
8
B.Cu
6
CONTINUOUS
10
101.1447739999999982
20
-142.2049099999999839
11
100.9552419999999984
21
-142.1433269999999993
0
LINE
8
B.Cu
6
CONTINUOUS
10
100.9552419999999984
20
-142.1433269999999993
11
100.7776769999999971
21
-142.0528529999999989
0
LINE
8
B.Cu
6
CONTINUOUS
10
100.7776769999999971
20
-142.0528529999999989
11
100.6164509999999979
21
-141.9357159999999851
0
LINE
8
B.Cu
6
CONTINUOUS
10
100.6164509999999979
20
-141.9357159999999851
11
100.6164369999999906
21
-141.935701999999992
0
LINE
8
B.Cu
6
CONTINUOUS
10
100.6164369999999906
20
-141.935701999999992
11
100.543223999999995
21
-141.8680249999999887
0
LINE
8
B.Cu
6
CONTINUOUS
10
100.543223999999995
20
-141.8680249999999887
11
96.0982240000000019
21
-137.423025999999993
0
LINE
8
B.Cu
6
CONTINUOUS
10
96.0982240000000019
20
-137.423025999999993
11
96.0305339999999887
21
-137.3497989999999902
0
LINE
8
B.Cu
6
CONTINUOUS
10
96.0305339999999887
20
-137.3497989999999902
11
95.9133969999999891
21
-137.188572999999991
0
LINE
8
B.Cu
6
CONTINUOUS
10
95.9133969999999891
20
-137.188572999999991
11
95.8229229999999887
21
-137.0110080000000039
0
LINE
8
B.Cu
6
CONTINUOUS
10
95.8229229999999887
20
-137.0110080000000039
11
95.7613399999999899
21
-136.8214759999999899
0
LINE
8
B.Cu
6
CONTINUOUS
10
95.7613399999999899
20
-136.8214759999999899
11
95.7301649999999995
21
-136.6246429999999918
0
LINE
8
B.Cu
6
CONTINUOUS
10
95.7301649999999995
20
-136.6246429999999918
11
95.7301649999999995
21
-136.4253569999999911
0
LINE
8
B.Cu
6
CONTINUOUS
10
95.7301649999999995
20
-136.4253569999999911
11
95.7613399999999899
21
-136.2285239999999931
0
LINE
8
B.Cu
6
CONTINUOUS
10
95.7613399999999899
20
-136.2285239999999931
11
95.8229229999999887
21
-136.0389920000000075
0
LINE
8
B.Cu
6
CONTINUOUS
10
95.8229229999999887
20
-136.0389920000000075
11
95.9133969999999891
21
-135.8614269999999919
0
LINE
8
B.Cu
6
CONTINUOUS
10
95.9133969999999891
20
-135.8614269999999919
11
96.0305339999999887
21
-135.7002009999999927
0
LINE
8
B.Cu
6
CONTINUOUS
10
96.0305339999999887
20
-135.7002009999999927
11
96.1714509999999905
21
-135.559283999999991
0
LINE
8
B.Cu
6
CONTINUOUS
10
96.1714509999999905
20
-135.559283999999991
11
96.3326769999999897
21
-135.4421470000000056
0
LINE
8
B.Cu
6
CONTINUOUS
10
96.3326769999999897
20
-135.4421470000000056
11
96.510241999999991
21
-135.3516730000000052
0
LINE
8
B.Cu
6
CONTINUOUS
10
96.510241999999991
20
-135.3516730000000052
11
96.6997739999999908
21
-135.2900899999999922
0
LINE
8
B.Cu
6
CONTINUOUS
10
96.6997739999999908
20
-135.2900899999999922
11
96.8966069999999888
21
-135.2589150000000018
0
LINE
8
B.Cu
6
CONTINUOUS
10
96.8966069999999888
20
-135.2589150000000018
11
97.0958929999999896
21
-135.2589150000000018
0
LINE
8
B.Cu
6
CONTINUOUS
10
97.0958929999999896
20
-135.2589150000000018
11
97.2927260000000018
21
-135.2900899999999922
0
LINE
8
B.Cu
6
CONTINUOUS
10
97.2927260000000018
20
-135.2900899999999922
11
97.4822580000000016
21
-135.3516730000000052
0
LINE
8
B.Cu
6
CONTINUOUS
10
97.4822580000000016
20
-135.3516730000000052
11
97.6598229999999887
21
-135.4421470000000056
0
LINE
8
B.Cu
6
CONTINUOUS
10
97.6598229999999887
20
-135.4421470000000056
11
97.8210490000000021
21
-135.559283999999991
0
LINE
8
B.Cu
6
CONTINUOUS
10
97.8210490000000021
20
-135.559283999999991
11
97.8942759999999907
21
-135.6269739999999899
0
LINE
8
B.Cu
6
CONTINUOUS
10
97.8942759999999907
20
-135.6269739999999899
11
101.967300999999992
21
-139.6999999999999886
0
LINE
8
B.Cu
6
CONTINUOUS
10
101.967300999999992
20
-139.6999999999999886
11
109.5374999999999943
21
-139.6999999999999886
0
LINE
8
B.Cu
6
CONTINUOUS
10
109.5374999999999943
20
-139.6999999999999886
11
109.6371429999999947
21
-139.703914999999995
0
LINE
8
B.Cu
6
CONTINUOUS
10
109.6371429999999947
20
-139.703914999999995
11
109.8339759999999927
21
-139.7350899999999854
0
LINE
8
B.Cu
6
CONTINUOUS
10
109.8339759999999927
20
-139.7350899999999854
11
110.0235079999999925
21
-139.7966729999999984
0
LINE
8
B.Cu
6
CONTINUOUS
10
110.0235079999999925
20
-139.7966729999999984
11
110.0326489999999922
21
-139.8013300000000072
0
LINE
8
B.Cu
6
CONTINUOUS
10
110.0326489999999922
20
-139.8013300000000072
11
118.4196799999999996
21
-131.4142989999999998
0
LINE
8
B.Cu
6
CONTINUOUS
10
118.4196799999999996
20
-131.4142989999999998
11
118.1805880000000002
21
-131.1752070000000003
0
LINE
8
B.Cu
6
CONTINUOUS
10
118.1805880000000002
20
-131.1752070000000003
11
118.1128980000000013
21
-131.1019799999999975
0
LINE
8
B.Cu
6
CONTINUOUS
10
118.1128980000000013
20
-131.1019799999999975
11
117.9957610000000017
21
-130.9407539999999983
0
LINE
8
B.Cu
6
CONTINUOUS
10
117.9957610000000017
20
-130.9407539999999983
11
117.9052870000000013
21
-130.7631889999999828
0
LINE
8
B.Cu
6
CONTINUOUS
10
117.9052870000000013
20
-130.7631889999999828
11
117.8437039999999882
21
-130.5736569999999972
0
LINE
8
B.Cu
6
CONTINUOUS
10
117.8437039999999882
20
-130.5736569999999972
11
117.8125289999999978
21
-130.3768239999999992
0
LINE
8
B.Cu
6
CONTINUOUS
10
117.8125289999999978
20
-130.3768239999999992
11
117.8125289999999978
21
-130.1775379999999984
0
LINE
8
B.Cu
6
CONTINUOUS
10
117.8125289999999978
20
-130.1775379999999984
11
117.8437039999999882
21
-129.9807050000000004
0
LINE
8
B.Cu
6
CONTINUOUS
10
117.8437039999999882
20
-129.9807050000000004
11
117.9052870000000013
21
-129.7911729999999864
0
LINE
8
B.Cu
6
CONTINUOUS
10
117.9052870000000013
20
-129.7911729999999864
11
117.9957610000000017
21
-129.6136079999999993
0
LINE
8
B.Cu
6
CONTINUOUS
10
117.9957610000000017
20
-129.6136079999999993
11
118.1128980000000013
21
-129.4523820000000001
0
LINE
8
B.Cu
6
CONTINUOUS
10
118.1128980000000013
20
-129.4523820000000001
11
118.2538149999999888
21
-129.3114649999999983
0
LINE
8
B.Cu
6
CONTINUOUS
10
118.2538149999999888
20
-129.3114649999999983
11
118.415040999999988
21
-129.1943279999999845
0
LINE
8
B.Cu
6
CONTINUOUS
10
118.415040999999988
20
-129.1943279999999845
11
118.5926059999999893
21
-129.1038539999999841
0
LINE
8
B.Cu
6
CONTINUOUS
10
118.5926059999999893
20
-129.1038539999999841
11
118.7821379999999891
21
-129.0422709999999995
0
LINE
8
B.Cu
6
CONTINUOUS
10
118.7821379999999891
20
-129.0422709999999995
11
118.9789710000000014
21
-129.0110959999999807
0
LINE
8
B.Cu
6
CONTINUOUS
10
118.9789710000000014
20
-129.0110959999999807
11
119.1782569999999879
21
-129.0110959999999807
0
LINE
8
B.Cu
6
CONTINUOUS
10
119.1782569999999879
20
-129.0110959999999807
11
119.3750900000000001
21
-129.0422709999999995
0
LINE
8
B.Cu
6
CONTINUOUS
10
145.6733930000000043
20
-132.7189149999999813
11
145.8702260000000024
21
-132.7500900000000001
0
LINE
8
B.Cu
6
CONTINUOUS
10
145.8702260000000024
20
-132.7500900000000001
11
146.059757999999988
21
-132.8116729999999848
0
LINE
8
B.Cu
6
CONTINUOUS
10
146.059757999999988
20
-132.8116729999999848
11
146.2373230000000035
21
-132.9021469999999852
0
LINE
8
B.Cu
6
CONTINUOUS
10
146.2373230000000035
20
-132.9021469999999852
11
146.3985490000000027
21
-133.019283999999999
0
LINE
8
B.Cu
6
CONTINUOUS
10
146.3985490000000027
20
-133.019283999999999
11
146.5394660000000044
21
-133.1602010000000007
0
LINE
8
B.Cu
6
CONTINUOUS
10
146.5394660000000044
20
-133.1602010000000007
11
146.6566029999999898
21
-133.3214269999999999
0
LINE
8
B.Cu
6
CONTINUOUS
10
146.6566029999999898
20
-133.3214269999999999
11
146.7470769999999902
21
-133.498991999999987
0
LINE
8
B.Cu
6
CONTINUOUS
10
146.7470769999999902
20
-133.498991999999987
11
146.8086600000000033
21
-133.688524000000001
0
LINE
8
B.Cu
6
CONTINUOUS
10
146.8086600000000033
20
-133.688524000000001
11
146.8398349999999937
21
-133.8853569999999991
0
LINE
8
B.Cu
6
CONTINUOUS
10
146.8398349999999937
20
-133.8853569999999991
11
146.8398349999999937
21
-134.0846429999999998
0
LINE
8
B.Cu
6
CONTINUOUS
10
146.8398349999999937
20
-134.0846429999999998
11
146.8086600000000033
21
-134.2814759999999978
0
LINE
8
B.Cu
6
CONTINUOUS
10
146.8086600000000033
20
-134.2814759999999978
11
146.7470769999999902
21
-134.4710079999999834
0
LINE
8
B.Cu
6
CONTINUOUS
10
146.7470769999999902
20
-134.4710079999999834
11
146.6566029999999898
21
-134.648572999999999
0
LINE
8
B.Cu
6
CONTINUOUS
10
146.6566029999999898
20
-134.648572999999999
11
146.5394660000000044
21
-134.8097989999999982
0
LINE
8
B.Cu
6
CONTINUOUS
10
146.5394660000000044
20
-134.8097989999999982
11
146.3985490000000027
21
-134.9507159999999999
0
LINE
8
B.Cu
6
CONTINUOUS
10
146.3985490000000027
20
-134.9507159999999999
11
146.2373230000000035
21
-135.0678529999999853
0
LINE
8
B.Cu
6
CONTINUOUS
10
146.2373230000000035
20
-135.0678529999999853
11
146.059757999999988
21
-135.1583269999999857
0
LINE
8
B.Cu
6
CONTINUOUS
10
146.059757999999988
20
-135.1583269999999857
11
145.8702260000000024
21
-135.2199099999999987
0
LINE
8
B.Cu
6
CONTINUOUS
10
145.8702260000000024
20
-135.2199099999999987
11
145.6733930000000043
21
-135.2510849999999891
0
LINE
8
B.Cu
6
CONTINUOUS
10
145.6733930000000043
20
-135.2510849999999891
11
145.5737499999999898
21
-135.2549999999999955
0
LINE
8
B.Cu
6
CONTINUOUS
10
145.5737499999999898
20
-135.2549999999999955
11
141.2874999999999943
21
-135.2549999999999955
0
LINE
8
B.Cu
6
CONTINUOUS
10
141.2874999999999943
20
-135.2549999999999955
11
141.1878569999999797
21
-135.2510849999999891
0
LINE
8
B.Cu
6
CONTINUOUS
10
141.1878569999999797
20
-135.2510849999999891
11
140.9910239999999817
21
-135.2199099999999987
0
LINE
8
B.Cu
6
CONTINUOUS
10
140.9910239999999817
20
-135.2199099999999987
11
140.8014919999999961
21
-135.1583269999999857
0
LINE
8
B.Cu
6
CONTINUOUS
10
140.8014919999999961
20
-135.1583269999999857
11
140.792349999999999
21
-135.1536690000000078
0
LINE
8
B.Cu
6
CONTINUOUS
10
140.792349999999999
20
-135.1536690000000078
11
136.0680099999999868
21
-139.8780099999999891
0
LINE
8
B.Cu
6
CONTINUOUS
10
136.0680099999999868
20
-139.8780099999999891
11
136.0211730000000045
21
-139.9190849999999955
0
LINE
8
B.Cu
6
CONTINUOUS
10
136.0211730000000045
20
-139.9190849999999955
11
135.9135029999999915
21
-139.9812479999999937
0
LINE
8
B.Cu
6
CONTINUOUS
10
135.9135029999999915
20
-139.9812479999999937
11
135.7934129999999868
21
-140.0134259999999813
0
LINE
8
B.Cu
6
CONTINUOUS
10
135.7934129999999868
20
-140.0134259999999813
11
135.7312499999999886
21
-140.0174999999999841
0
LINE
8
B.Cu
6
CONTINUOUS
10
135.7312499999999886
20
-140.0174999999999841
11
128.3426829999999939
21
-140.0174999999999841
0
LINE
8
B.Cu
6
CONTINUOUS
10
128.3426829999999939
20
-140.0174999999999841
11
128.2805199999999957
21
-140.0134259999999813
0
LINE
8
B.Cu
6
CONTINUOUS
10
128.2805199999999957
20
-140.0134259999999813
11
128.160429999999991
21
-139.9812479999999937
0
LINE
8
B.Cu
6
CONTINUOUS
10
128.160429999999991
20
-139.9812479999999937
11
128.0527600000000064
21
-139.9190849999999955
0
LINE
8
B.Cu
6
CONTINUOUS
10
128.0527600000000064
20
-139.9190849999999955
11
128.0059229999999957
21
-139.8780099999999891
0
LINE
8
B.Cu
6
CONTINUOUS
10
128.0059229999999957
20
-139.8780099999999891
11
126.7579679999999911
21
-138.6300549999999987
0
LINE
8
B.Cu
6
CONTINUOUS
10
126.7579679999999911
20
-138.6300549999999987
11
126.7488269999999915
21
-138.6347140000000024
0
LINE
8
B.Cu
6
CONTINUOUS
10
126.7488269999999915
20
-138.6347140000000024
11
126.5592949999999917
21
-138.6962969999999871
0
LINE
8
B.Cu
6
CONTINUOUS
10
126.5592949999999917
20
-138.6962969999999871
11
126.3624619999999936
21
-138.7274720000000059
0
LINE
8
B.Cu
6
CONTINUOUS
10
126.3624619999999936
20
-138.7274720000000059
11
126.1631759999999929
21
-138.7274720000000059
0
LINE
8
B.Cu
6
CONTINUOUS
10
126.1631759999999929
20
-138.7274720000000059
11
125.9663429999999948
21
-138.6962969999999871
0
LINE
8
B.Cu
6
CONTINUOUS
10
125.9663429999999948
20
-138.6962969999999871
11
125.776810999999995
21
-138.6347140000000024
0
LINE
8
B.Cu
6
CONTINUOUS
10
125.776810999999995
20
-138.6347140000000024
11
125.5992459999999937
21
-138.5442400000000021
0
LINE
8
B.Cu
6
CONTINUOUS
10
125.5992459999999937
20
-138.5442400000000021
11
125.4380199999999945
21
-138.4271019999999908
0
LINE
8
B.Cu
6
CONTINUOUS
10
125.4380199999999945
20
-138.4271019999999908
11
125.3647929999999917
21
-138.3594129999999893
0
LINE
8
B.Cu
6
CONTINUOUS
10
125.3647929999999917
20
-138.3594129999999893
11
123.5687409999999886
21
-136.5633609999999862
0
LINE
8
B.Cu
6
CONTINUOUS
10
123.5687409999999886
20
-136.5633609999999862
11
123.5010509999999897
21
-136.4901339999999834
0
LINE
8
B.Cu
6
CONTINUOUS
10
123.5010509999999897
20
-136.4901339999999834
11
123.3839139999999901
21
-136.3289079999999842
0
LINE
8
B.Cu
6
CONTINUOUS
10
123.3839139999999901
20
-136.3289079999999842
11
123.2934399999999897
21
-136.1513429999999971
0
LINE
8
B.Cu
6
CONTINUOUS
10
123.2934399999999897
20
-136.1513429999999971
11
123.2318569999999909
21
-135.9618109999999831
0
LINE
8
B.Cu
6
CONTINUOUS
10
123.2318569999999909
20
-135.9618109999999831
11
123.2006820000000005
21
-135.7649779999999851
0
LINE
8
B.Cu
6
CONTINUOUS
10
123.2006820000000005
20
-135.7649779999999851
11
123.2006820000000005
21
-135.5656919999999843
0
LINE
8
B.Cu
6
CONTINUOUS
10
123.2006820000000005
20
-135.5656919999999843
11
123.2318569999999909
21
-135.3688589999999863
0
LINE
8
B.Cu
6
CONTINUOUS
10
123.2318569999999909
20
-135.3688589999999863
11
123.2934399999999897
21
-135.1793270000000007
0
LINE
8
B.Cu
6
CONTINUOUS
10
123.2934399999999897
20
-135.1793270000000007
11
123.3839139999999901
21
-135.0017619999999852
0
LINE
8
B.Cu
6
CONTINUOUS
10
123.3839139999999901
20
-135.0017619999999852
11
123.5010509999999897
21
-134.840535999999986
0
LINE
8
B.Cu
6
CONTINUOUS
10
123.5010509999999897
20
-134.840535999999986
11
123.6419679999999914
21
-134.6996189999999842
0
LINE
8
B.Cu
6
CONTINUOUS
10
123.6419679999999914
20
-134.6996189999999842
11
123.8031939999999906
21
-134.5824819999999988
0
LINE
8
B.Cu
6
CONTINUOUS
10
123.8031939999999906
20
-134.5824819999999988
11
123.9807589999999919
21
-134.4920079999999984
0
LINE
8
B.Cu
6
CONTINUOUS
10
123.9807589999999919
20
-134.4920079999999984
11
124.1702909999999918
21
-134.4304249999999854
0
LINE
8
B.Cu
6
CONTINUOUS
10
124.1702909999999918
20
-134.4304249999999854
11
124.3671239999999898
21
-134.399249999999995
0
LINE
8
B.Cu
6
CONTINUOUS
10
124.3671239999999898
20
-134.399249999999995
11
124.5664099999999905
21
-134.399249999999995
0
LINE
8
B.Cu
6
CONTINUOUS
10
124.5664099999999905
20
-134.399249999999995
11
124.7632429999999886
21
-134.4304249999999854
0
LINE
8
B.Cu
6
CONTINUOUS
10
124.7632429999999886
20
-134.4304249999999854
11
124.9527749999999884
21
-134.4920079999999984
0
LINE
8
B.Cu
6
CONTINUOUS
10
124.9527749999999884
20
-134.4920079999999984
11
125.1303399999999897
21
-134.5824819999999988
0
LINE
8
B.Cu
6
CONTINUOUS
10
125.1303399999999897
20
-134.5824819999999988
11
125.2915659999999889
21
-134.6996189999999842
0
LINE
8
B.Cu
6
CONTINUOUS
10
125.2915659999999889
20
-134.6996189999999842
11
125.3647929999999917
21
-134.7673089999999831
0
LINE
8
B.Cu
6
CONTINUOUS
10
125.3647929999999917
20
-134.7673089999999831
11
127.1608449999999948
21
-136.5633609999999862
0
LINE
8
B.Cu
6
CONTINUOUS
10
127.1608449999999948
20
-136.5633609999999862
11
127.2285089999999883
21
-136.6365610000000004
0
LINE
8
B.Cu
6
CONTINUOUS
10
127.2285089999999883
20
-136.6365610000000004
11
127.2285349999999937
21
-136.6365869999999916
0
LINE
8
B.Cu
6
CONTINUOUS
10
127.2285349999999937
20
-136.6365869999999916
11
127.3456719999999933
21
-136.7978129999999908
0
LINE
8
B.Cu
6
CONTINUOUS
10
127.3456719999999933
20
-136.7978129999999908
11
127.4361459999999937
21
-136.9753780000000063
0
LINE
8
B.Cu
6
CONTINUOUS
10
127.4361459999999937
20
-136.9753780000000063
11
127.487876
21
-137.1345849999999871
0
LINE
8
B.Cu
6
CONTINUOUS
10
127.487876
20
-137.1345849999999871
11
127.4977289999999925
21
-137.1649109999999894
0
LINE
8
B.Cu
6
CONTINUOUS
10
127.4977289999999925
20
-137.1649109999999894
11
127.5289039999999972
21
-137.3617439999999874
0
LINE
8
B.Cu
6
CONTINUOUS
10
127.5289039999999972
20
-137.3617439999999874
11
127.5289039999999972
21
-137.5610299999999881
0
LINE
8
B.Cu
6
CONTINUOUS
10
127.5289039999999972
20
-137.5610299999999881
11
127.4977289999999925
21
-137.7578629999999862
0
LINE
8
B.Cu
6
CONTINUOUS
10
127.4977289999999925
20
-137.7578629999999862
11
127.4361459999999937
21
-137.9473950000000002
0
LINE
8
B.Cu
6
CONTINUOUS
10
127.4361459999999937
20
-137.9473950000000002
11
127.4314879999999874
21
-137.9565350000000024
0
LINE
8
B.Cu
6
CONTINUOUS
10
127.4314879999999874
20
-137.9565350000000024
11
128.539952999999997
21
-139.0649999999999977
0
LINE
8
B.Cu
6
CONTINUOUS
10
128.539952999999997
20
-139.0649999999999977
11
135.5339799999999855
21
-139.0649999999999977
0
LINE
8
B.Cu
6
CONTINUOUS
10
135.5339799999999855
20
-139.0649999999999977
11
140.1188300000000027
21
-134.4801489999999831
0
LINE
8
B.Cu
6
CONTINUOUS
10
140.1188300000000027
20
-134.4801489999999831
11
140.1141729999999939
21
-134.4710079999999834
0
LINE
8
B.Cu
6
CONTINUOUS
10
140.1141729999999939
20
-134.4710079999999834
11
140.0525899999999808
21
-134.2814759999999978
0
LINE
8
B.Cu
6
CONTINUOUS
10
140.0525899999999808
20
-134.2814759999999978
11
140.0214149999999904
21
-134.0846429999999998
0
LINE
8
B.Cu
6
CONTINUOUS
10
140.0214149999999904
20
-134.0846429999999998
11
140.0214149999999904
21
-133.8853569999999991
0
LINE
8
B.Cu
6
CONTINUOUS
10
140.0214149999999904
20
-133.8853569999999991
11
140.0525899999999808
21
-133.688524000000001
0
LINE
8
B.Cu
6
CONTINUOUS
10
140.0525899999999808
20
-133.688524000000001
11
140.1141729999999939
21
-133.498991999999987
0
LINE
8
B.Cu
6
CONTINUOUS
10
140.1141729999999939
20
-133.498991999999987
11
140.2046469999999943
21
-133.3214269999999999
0
LINE
8
B.Cu
6
CONTINUOUS
10
140.2046469999999943
20
-133.3214269999999999
11
140.3217839999999796
21
-133.1602010000000007
0
LINE
8
B.Cu
6
CONTINUOUS
10
140.3217839999999796
20
-133.1602010000000007
11
140.4627009999999814
21
-133.019283999999999
0
LINE
8
B.Cu
6
CONTINUOUS
10
140.4627009999999814
20
-133.019283999999999
11
140.6239269999999806
21
-132.9021469999999852
0
LINE
8
B.Cu
6
CONTINUOUS
10
140.6239269999999806
20
-132.9021469999999852
11
140.8014919999999961
21
-132.8116729999999848
0
LINE
8
B.Cu
6
CONTINUOUS
10
140.8014919999999961
20
-132.8116729999999848
11
140.9910239999999817
21
-132.7500900000000001
0
LINE
8
B.Cu
6
CONTINUOUS
10
140.9910239999999817
20
-132.7500900000000001
11
141.1878569999999797
21
-132.7189149999999813
0
LINE
8
B.Cu
6
CONTINUOUS
10
141.1878569999999797
20
-132.7189149999999813
11
141.2874999999999943
21
-132.7150000000000034
0
LINE
8
B.Cu
6
CONTINUOUS
10
141.2874999999999943
20
-132.7150000000000034
11
145.5737499999999898
21
-132.7150000000000034
0
LINE
8
B.Cu
6
CONTINUOUS
10
145.5737499999999898
20
-132.7150000000000034
11
145.6733930000000043
21
-132.7189149999999813
0
LINE
8
B.Cu
6
CONTINUOUS
10
109.6371429999999947
20
-123.1939149999999898
11
109.8339759999999927
21
-123.2250899999999945
0
LINE
8
B.Cu
6
CONTINUOUS
10
109.8339759999999927
20
-123.2250899999999945
11
110.0235079999999925
21
-123.2866729999999933
0
LINE
8
B.Cu
6
CONTINUOUS
10
110.0235079999999925
20
-123.2866729999999933
11
110.2010729999999938
21
-123.3771469999999937
0
LINE
8
B.Cu
6
CONTINUOUS
10
110.2010729999999938
20
-123.3771469999999937
11
110.362298999999993
21
-123.4942839999999933
0
LINE
8
B.Cu
6
CONTINUOUS
10
110.362298999999993
20
-123.4942839999999933
11
110.5032159999999948
21
-123.635200999999995
0
LINE
8
B.Cu
6
CONTINUOUS
10
110.5032159999999948
20
-123.635200999999995
11
110.6203529999999944
21
-123.7964269999999942
0
LINE
8
B.Cu
6
CONTINUOUS
10
110.6203529999999944
20
-123.7964269999999942
11
110.7108269999999948
21
-123.9739919999999955
0
LINE
8
B.Cu
6
CONTINUOUS
10
110.7108269999999948
20
-123.9739919999999955
11
110.7139979999999895
21
-123.9837500000000006
0
LINE
8
B.Cu
6
CONTINUOUS
10
110.7139979999999895
20
-123.9837500000000006
11
120.4912499999999937
21
-123.9837500000000006
0
LINE
8
B.Cu
6
CONTINUOUS
10
120.4912499999999937
20
-123.9837500000000006
11
120.5534129999999919
21
-123.9878239999999892
0
LINE
8
B.Cu
6
CONTINUOUS
10
120.5534129999999919
20
-123.9878239999999892
11
120.6735029999999966
21
-124.020001999999991
0
LINE
8
B.Cu
6
CONTINUOUS
10
120.6735029999999966
20
-124.020001999999991
11
120.7811729999999955
21
-124.0821649999999892
0
LINE
8
B.Cu
6
CONTINUOUS
10
120.7811729999999955
20
-124.0821649999999892
11
120.8280099999999919
21
-124.1232399999999956
0
LINE
8
B.Cu
6
CONTINUOUS
10
120.8280099999999919
20
-124.1232399999999956
11
124.8227859999999936
21
-128.1180169999999805
0
LINE
8
B.Cu
6
CONTINUOUS
10
124.8227859999999936
20
-128.1180169999999805
11
130.3613359999999943
21
-128.1180169999999805
0
LINE
8
B.Cu
6
CONTINUOUS
10
130.3613359999999943
20
-128.1180169999999805
11
130.3645070000000032
21
-128.1082590000000039
0
LINE
8
B.Cu
6
CONTINUOUS
10
130.3645070000000032
20
-128.1082590000000039
11
130.4549810000000036
21
-127.9306939999999884
0
LINE
8
B.Cu
6
CONTINUOUS
10
130.4549810000000036
20
-127.9306939999999884
11
130.572117999999989
21
-127.7694679999999892
0
LINE
8
B.Cu
6
CONTINUOUS
10
130.572117999999989
20
-127.7694679999999892
11
130.7130349999999908
21
-127.6285509999999874
0
LINE
8
B.Cu
6
CONTINUOUS
10
130.7130349999999908
20
-127.6285509999999874
11
130.87426099999999
21
-127.5114139999999878
0
LINE
8
B.Cu
6
CONTINUOUS
10
130.87426099999999
20
-127.5114139999999878
11
131.0518260000000055
21
-127.4209399999999874
0
LINE
8
B.Cu
6
CONTINUOUS
10
131.0518260000000055
20
-127.4209399999999874
11
131.2413579999999911
21
-127.3593569999999886
0
LINE
8
B.Cu
6
CONTINUOUS
10
131.2413579999999911
20
-127.3593569999999886
11
131.4381909999999891
21
-127.3281819999999982
0
LINE
8
B.Cu
6
CONTINUOUS
10
131.4381909999999891
20
-127.3281819999999982
11
131.6374769999999899
21
-127.3281819999999982
0
LINE
8
B.Cu
6
CONTINUOUS
10
131.6374769999999899
20
-127.3281819999999982
11
131.6374779999999873
21
-127.3281819999999982
0
LINE
8
B.Cu
6
CONTINUOUS
10
131.6374779999999873
20
-127.3281819999999982
11
131.8343109999999854
21
-127.3593569999999886
0
LINE
8
B.Cu
6
CONTINUOUS
10
131.8343109999999854
20
-127.3593569999999886
11
132.0238429999999994
21
-127.4209399999999874
0
LINE
8
B.Cu
6
CONTINUOUS
10
132.0238429999999994
20
-127.4209399999999874
11
132.2014079999999865
21
-127.5114139999999878
0
LINE
8
B.Cu
6
CONTINUOUS
10
132.2014079999999865
20
-127.5114139999999878
11
132.3626339999999857
21
-127.6285509999999874
0
LINE
8
B.Cu
6
CONTINUOUS
10
132.3626339999999857
20
-127.6285509999999874
11
132.3626459999999838
21
-127.6285629999999998
0
LINE
8
B.Cu
6
CONTINUOUS
10
132.3626459999999838
20
-127.6285629999999998
11
132.435859999999991
21
-127.6962410000000006
0
LINE
8
B.Cu
6
CONTINUOUS
10
132.435859999999991
20
-127.6962410000000006
11
134.2319119999999941
21
-129.4922929999999894
0
LINE
8
B.Cu
6
CONTINUOUS
10
134.2319119999999941
20
-129.4922929999999894
11
134.2996009999999956
21
-129.5655199999999923
0
LINE
8
B.Cu
6
CONTINUOUS
10
134.2996009999999956
20
-129.5655199999999923
11
134.4167390000000069
21
-129.7267459999999915
0
LINE
8
B.Cu
6
CONTINUOUS
10
134.4167390000000069
20
-129.7267459999999915
11
134.5072130000000072
21
-129.904311000000007
0
LINE
8
B.Cu
6
CONTINUOUS
10
134.5072130000000072
20
-129.904311000000007
11
134.5687959999999919
21
-130.0938429999999926
0
LINE
8
B.Cu
6
CONTINUOUS
10
134.5687959999999919
20
-130.0938429999999926
11
134.5999709999999823
21
-130.2906759999999906
0
LINE
8
B.Cu
6
CONTINUOUS
10
134.5999709999999823
20
-130.2906759999999906
11
134.5999709999999823
21
-130.4899619999999913
0
LINE
8
B.Cu
6
CONTINUOUS
10
134.5999709999999823
20
-130.4899619999999913
11
134.5687959999999919
21
-130.6867949999999894
0
LINE
8
B.Cu
6
CONTINUOUS
10
134.5687959999999919
20
-130.6867949999999894
11
134.5072130000000072
21
-130.8763270000000034
0
LINE
8
B.Cu
6
CONTINUOUS
10
134.5072130000000072
20
-130.8763270000000034
11
134.4167390000000069
21
-131.0538919999999905
0
LINE
8
B.Cu
6
CONTINUOUS
10
134.4167390000000069
20
-131.0538919999999905
11
134.2996009999999956
21
-131.2151179999999897
0
LINE
8
B.Cu
6
CONTINUOUS
10
134.2996009999999956
20
-131.2151179999999897
11
134.1586849999999913
21
-131.356033999999994
0
LINE
8
B.Cu
6
CONTINUOUS
10
134.1586849999999913
20
-131.356033999999994
11
133.9974589999999921
21
-131.4731720000000053
0
LINE
8
B.Cu
6
CONTINUOUS
10
133.9974589999999921
20
-131.4731720000000053
11
133.819894000000005
21
-131.5636460000000056
0
LINE
8
B.Cu
6
CONTINUOUS
10
133.819894000000005
20
-131.5636460000000056
11
133.630361999999991
21
-131.6252289999999903
0
LINE
8
B.Cu
6
CONTINUOUS
10
133.630361999999991
20
-131.6252289999999903
11
133.4335289999999929
21
-131.6564039999999807
0
LINE
8
B.Cu
6
CONTINUOUS
10
133.4335289999999929
20
-131.6564039999999807
11
133.2342429999999922
21
-131.6564039999999807
0
LINE
8
B.Cu
6
CONTINUOUS
10
133.2342429999999922
20
-131.6564039999999807
11
133.0374099999999942
21
-131.6252289999999903
0
LINE
8
B.Cu
6
CONTINUOUS
10
133.0374099999999942
20
-131.6252289999999903
11
132.8478779999999801
21
-131.5636460000000056
0
LINE
8
B.Cu
6
CONTINUOUS
10
132.8478779999999801
20
-131.5636460000000056
11
132.6703129999999931
21
-131.4731720000000053
0
LINE
8
B.Cu
6
CONTINUOUS
10
132.6703129999999931
20
-131.4731720000000053
11
132.5090869999999938
21
-131.356033999999994
0
LINE
8
B.Cu
6
CONTINUOUS
10
132.5090869999999938
20
-131.356033999999994
11
132.435859999999991
21
-131.2883449999999925
0
LINE
8
B.Cu
6
CONTINUOUS
10
132.435859999999991
20
-131.2883449999999925
11
130.6398079999999879
21
-129.4922929999999894
0
LINE
8
B.Cu
6
CONTINUOUS
10
130.6398079999999879
20
-129.4922929999999894
11
130.572117999999989
21
-129.4190659999999866
0
LINE
8
B.Cu
6
CONTINUOUS
10
130.572117999999989
20
-129.4190659999999866
11
130.4549810000000036
21
-129.2578399999999874
0
LINE
8
B.Cu
6
CONTINUOUS
10
130.4549810000000036
20
-129.2578399999999874
11
130.3645070000000032
21
-129.0802750000000003
0
LINE
8
B.Cu
6
CONTINUOUS
10
130.3645070000000032
20
-129.0802750000000003
11
130.3613359999999943
21
-129.0705169999999953
0
LINE
8
B.Cu
6
CONTINUOUS
10
130.3613359999999943
20
-129.0705169999999953
11
124.6255169999999879
21
-129.0705169999999953
0
LINE
8
B.Cu
6
CONTINUOUS
10
124.6255169999999879
20
-129.0705169999999953
11
124.5633539999999897
21
-129.0664429999999925
0
LINE
8
B.Cu
6
CONTINUOUS
10
124.5633539999999897
20
-129.0664429999999925
11
124.4432629999999875
21
-129.0342650000000049
0
LINE
8
B.Cu
6
CONTINUOUS
10
124.4432629999999875
20
-129.0342650000000049
11
124.3919569999999908
21
-129.0046429999999873
0
LINE
8
B.Cu
6
CONTINUOUS
10
124.3919569999999908
20
-129.0046429999999873
11
124.3355940000000004
21
-128.9721020000000067
0
LINE
8
B.Cu
6
CONTINUOUS
10
124.3355940000000004
20
-128.9721020000000067
11
124.3355849999999947
21
-128.972093000000001
0
LINE
8
B.Cu
6
CONTINUOUS
10
124.3355849999999947
20
-128.972093000000001
11
124.2887569999999897
21
-128.9310260000000028
0
LINE
8
B.Cu
6
CONTINUOUS
10
124.2887569999999897
20
-128.9310260000000028
11
120.2939799999999906
21
-124.9362500000000011
0
LINE
8
B.Cu
6
CONTINUOUS
10
120.2939799999999906
20
-124.9362500000000011
11
110.7139979999999895
21
-124.9362500000000011
0
LINE
8
B.Cu
6
CONTINUOUS
10
110.7139979999999895
20
-124.9362500000000011
11
110.7108269999999948
21
-124.946007999999992
0
LINE
8
B.Cu
6
CONTINUOUS
10
110.7108269999999948
20
-124.946007999999992
11
110.6203529999999944
21
-125.1235729999999933
0
LINE
8
B.Cu
6
CONTINUOUS
10
110.6203529999999944
20
-125.1235729999999933
11
110.5032159999999948
21
-125.2847989999999925
0
LINE
8
B.Cu
6
CONTINUOUS
10
110.5032159999999948
20
-125.2847989999999925
11
110.362298999999993
21
-125.4257159999999942
0
LINE
8
B.Cu
6
CONTINUOUS
10
110.362298999999993
20
-125.4257159999999942
11
110.2010729999999938
21
-125.5428529999999938
0
LINE
8
B.Cu
6
CONTINUOUS
10
110.2010729999999938
20
-125.5428529999999938
11
110.0235079999999925
21
-125.6333269999999942
0
LINE
8
B.Cu
6
CONTINUOUS
10
110.0235079999999925
20
-125.6333269999999942
11
109.8339759999999927
21
-125.694909999999993
0
LINE
8
B.Cu
6
CONTINUOUS
10
109.8339759999999927
20
-125.694909999999993
11
109.6371429999999947
21
-125.7260849999999976
0
LINE
8
B.Cu
6
CONTINUOUS
10
109.6371429999999947
20
-125.7260849999999976
11
109.5374999999999943
21
-125.7299999999999898
0
LINE
8
B.Cu
6
CONTINUOUS
10
109.5374999999999943
20
-125.7299999999999898
11
101.967300999999992
21
-125.7299999999999898
0
LINE
8
B.Cu
6
CONTINUOUS
10
101.967300999999992
20
-125.7299999999999898
11
97.8942759999999907
21
-129.8030259999999885
0
LINE
8
B.Cu
6
CONTINUOUS
10
97.8942759999999907
20
-129.8030259999999885
11
97.8210490000000021
21
-129.8707159999999874
0
LINE
8
B.Cu
6
CONTINUOUS
10
97.8210490000000021
20
-129.8707159999999874
11
97.6598229999999887
21
-129.9878530000000012
0
LINE
8
B.Cu
6
CONTINUOUS
10
97.6598229999999887
20
-129.9878530000000012
11
97.4822580000000016
21
-130.0783270000000016
0
LINE
8
B.Cu
6
CONTINUOUS
10
97.4822580000000016
20
-130.0783270000000016
11
97.2927260000000018
21
-130.1399099999999862
0
LINE
8
B.Cu
6
CONTINUOUS
10
97.2927260000000018
20
-130.1399099999999862
11
97.0958929999999896
21
-130.171085000000005
0
LINE
8
B.Cu
6
CONTINUOUS
10
97.0958929999999896
20
-130.171085000000005
11
96.8966069999999888
21
-130.171085000000005
0
LINE
8
B.Cu
6
CONTINUOUS
10
96.8966069999999888
20
-130.171085000000005
11
96.6997739999999908
21
-130.1399099999999862
0
LINE
8
B.Cu
6
CONTINUOUS
10
96.6997739999999908
20
-130.1399099999999862
11
96.510241999999991
21
-130.0783270000000016
0
LINE
8
B.Cu
6
CONTINUOUS
10
96.510241999999991
20
-130.0783270000000016
11
96.3326769999999897
21
-129.9878530000000012
0
LINE
8
B.Cu
6
CONTINUOUS
10
96.3326769999999897
20
-129.9878530000000012
11
96.1714509999999905
21
-129.8707159999999874
0
LINE
8
B.Cu
6
CONTINUOUS
10
96.1714509999999905
20
-129.8707159999999874
11
96.0305339999999887
21
-129.7297989999999857
0
LINE
8
B.Cu
6
CONTINUOUS
10
96.0305339999999887
20
-129.7297989999999857
11
95.9133969999999891
21
-129.5685729999999865
0
LINE
8
B.Cu
6
CONTINUOUS
10
95.9133969999999891
20
-129.5685729999999865
11
95.8229229999999887
21
-129.3910079999999994
0
LINE
8
B.Cu
6
CONTINUOUS
10
95.8229229999999887
20
-129.3910079999999994
11
95.7613399999999899
21
-129.2014759999999853
0
LINE
8
B.Cu
6
CONTINUOUS
10
95.7613399999999899
20
-129.2014759999999853
11
95.7301649999999995
21
-129.0046429999999873
0
LINE
8
B.Cu
6
CONTINUOUS
10
95.7301649999999995
20
-129.0046429999999873
11
95.7301649999999995
21
-128.8053569999999866
0
LINE
8
B.Cu
6
CONTINUOUS
10
95.7301649999999995
20
-128.8053569999999866
11
95.7613399999999899
21
-128.6085239999999885
0
LINE
8
B.Cu
6
CONTINUOUS
10
95.7613399999999899
20
-128.6085239999999885
11
95.8229229999999887
21
-128.4189920000000029
0
LINE
8
B.Cu
6
CONTINUOUS
10
95.8229229999999887
20
-128.4189920000000029
11
95.9133969999999891
21
-128.2414269999999874
0
LINE
8
B.Cu
6
CONTINUOUS
10
95.9133969999999891
20
-128.2414269999999874
11
96.0305339999999887
21
-128.0802009999999882
0
LINE
8
B.Cu
6
CONTINUOUS
10
96.0305339999999887
20
-128.0802009999999882
11
96.0982240000000019
21
-128.0069739999999854
0
LINE
8
B.Cu
6
CONTINUOUS
10
96.0982240000000019
20
-128.0069739999999854
11
100.543223999999995
21
-123.5619749999999897
0
LINE
8
B.Cu
6
CONTINUOUS
10
100.543223999999995
20
-123.5619749999999897
11
100.6164369999999906
21
-123.4942969999999889
0
LINE
8
B.Cu
6
CONTINUOUS
10
100.6164369999999906
20
-123.4942969999999889
11
100.6164509999999979
21
-123.4942839999999933
0
LINE
8
B.Cu
6
CONTINUOUS
10
100.6164509999999979
20
-123.4942839999999933
11
100.7776769999999971
21
-123.3771469999999937
0
LINE
8
B.Cu
6
CONTINUOUS
10
100.7776769999999971
20
-123.3771469999999937
11
100.9552419999999984
21
-123.2866729999999933
0
LINE
8
B.Cu
6
CONTINUOUS
10
100.9552419999999984
20
-123.2866729999999933
11
101.1447739999999982
21
-123.2250899999999945
0
LINE
8
B.Cu
6
CONTINUOUS
10
101.1447739999999982
20
-123.2250899999999945
11
101.3146929999999912
21
-123.1981770000000012
0
LINE
8
B.Cu
6
CONTINUOUS
10
101.3146929999999912
20
-123.1981770000000012
11
101.3416059999999987
21
-123.1939149999999898
0
LINE
8
B.Cu
6
CONTINUOUS
10
101.3416059999999987
20
-123.1939149999999898
11
101.3416069999999962
21
-123.1939149999999898
0
LINE
8
B.Cu
6
CONTINUOUS
10
101.3416069999999962
20
-123.1939149999999898
11
101.4412499999999966
21
-123.1899999999999977
0
LINE
8
B.Cu
6
CONTINUOUS
10
101.4412499999999966
20
-123.1899999999999977
11
109.5374999999999943
21
-123.1899999999999977
0
LINE
8
B.Cu
6
CONTINUOUS
10
109.5374999999999943
20
-123.1899999999999977
11
109.6371429999999947
21
-123.1939149999999898
0
LINE
8
B.Cu
6
CONTINUOUS
10
145.6733930000000043
20
-116.2089149999999904
11
145.8702260000000024
21
-116.240089999999995
0
LINE
8
B.Cu
6
CONTINUOUS
10
145.8702260000000024
20
-116.240089999999995
11
146.059757999999988
21
-116.3016729999999939
0
LINE
8
B.Cu
6
CONTINUOUS
10
146.059757999999988
20
-116.3016729999999939
11
146.2373230000000035
21
-116.3921469999999943
0
LINE
8
B.Cu
6
CONTINUOUS
10
146.2373230000000035
20
-116.3921469999999943
11
146.3985490000000027
21
-116.5092839999999939
0
LINE
8
B.Cu
6
CONTINUOUS
10
146.3985490000000027
20
-116.5092839999999939
11
146.5394660000000044
21
-116.6502009999999956
0
LINE
8
B.Cu
6
CONTINUOUS
10
146.5394660000000044
20
-116.6502009999999956
11
146.6566029999999898
21
-116.8114269999999948
0
LINE
8
B.Cu
6
CONTINUOUS
10
146.6566029999999898
20
-116.8114269999999948
11
146.7470769999999902
21
-116.9889919999999961
0
LINE
8
B.Cu
6
CONTINUOUS
10
146.7470769999999902
20
-116.9889919999999961
11
146.8086600000000033
21
-117.1785239999999959
0
LINE
8
B.Cu
6
CONTINUOUS
10
146.8086600000000033
20
-117.1785239999999959
11
146.8398349999999937
21
-117.3753569999999939
0
LINE
8
B.Cu
6
CONTINUOUS
10
146.8398349999999937
20
-117.3753569999999939
11
146.8398349999999937
21
-117.5746429999999947
0
LINE
8
B.Cu
6
CONTINUOUS
10
146.8398349999999937
20
-117.5746429999999947
11
146.8086600000000033
21
-117.7714759999999927
0
LINE
8
B.Cu
6
CONTINUOUS
10
146.8086600000000033
20
-117.7714759999999927
11
146.7470769999999902
21
-117.9610079999999925
0
LINE
8
B.Cu
6
CONTINUOUS
10
146.7470769999999902
20
-117.9610079999999925
11
146.6566029999999898
21
-118.1385729999999938
0
LINE
8
B.Cu
6
CONTINUOUS
10
146.6566029999999898
20
-118.1385729999999938
11
146.5394660000000044
21
-118.299798999999993
0
LINE
8
B.Cu
6
CONTINUOUS
10
146.5394660000000044
20
-118.299798999999993
11
146.3985490000000027
21
-118.4407159999999948
0
LINE
8
B.Cu
6
CONTINUOUS
10
146.3985490000000027
20
-118.4407159999999948
11
146.2373230000000035
21
-118.5578529999999944
0
LINE
8
B.Cu
6
CONTINUOUS
10
146.2373230000000035
20
-118.5578529999999944
11
146.059757999999988
21
-118.6483269999999948
0
LINE
8
B.Cu
6
CONTINUOUS
10
146.059757999999988
20
-118.6483269999999948
11
145.8702260000000024
21
-118.7099099999999936
0
LINE
8
B.Cu
6
CONTINUOUS
10
145.8702260000000024
20
-118.7099099999999936
11
145.6733930000000043
21
-118.7410849999999982
0
LINE
8
B.Cu
6
CONTINUOUS
10
145.6733930000000043
20
-118.7410849999999982
11
145.5737499999999898
21
-118.7449999999999903
0
LINE
8
B.Cu
6
CONTINUOUS
10
145.5737499999999898
20
-118.7449999999999903
11
141.2874999999999943
21
-118.7449999999999903
0
LINE
8
B.Cu
6
CONTINUOUS
10
141.2874999999999943
20
-118.7449999999999903
11
141.1878569999999797
21
-118.7410849999999982
0
LINE
8
B.Cu
6
CONTINUOUS
10
141.1878569999999797
20
-118.7410849999999982
11
140.9910239999999817
21
-118.7099099999999936
0
LINE
8
B.Cu
6
CONTINUOUS
10
140.9910239999999817
20
-118.7099099999999936
11
140.8014919999999961
21
-118.6483269999999948
0
LINE
8
B.Cu
6
CONTINUOUS
10
140.8014919999999961
20
-118.6483269999999948
11
140.6239269999999806
21
-118.5578529999999944
0
LINE
8
B.Cu
6
CONTINUOUS
10
140.6239269999999806
20
-118.5578529999999944
11
140.4627009999999814
21
-118.4407159999999948
0
LINE
8
B.Cu
6
CONTINUOUS
10
140.4627009999999814
20
-118.4407159999999948
11
140.3217839999999796
21
-118.299798999999993
0
LINE
8
B.Cu
6
CONTINUOUS
10
140.3217839999999796
20
-118.299798999999993
11
140.2046469999999943
21
-118.1385729999999938
0
LINE
8
B.Cu
6
CONTINUOUS
10
140.2046469999999943
20
-118.1385729999999938
11
140.1141729999999939
21
-117.9610079999999925
0
LINE
8
B.Cu
6
CONTINUOUS
10
140.1141729999999939
20
-117.9610079999999925
11
140.1110019999999849
21
-117.9512500000000017
0
LINE
8
B.Cu
6
CONTINUOUS
10
140.1110019999999849
20
-117.9512500000000017
11
133.8647699999999929
21
-117.9512500000000017
0
LINE
8
B.Cu
6
CONTINUOUS
10
133.8647699999999929
20
-117.9512500000000017
11
128.2778199999999913
21
-123.5381999999999891
0
LINE
8
B.Cu
6
CONTINUOUS
10
128.2778199999999913
20
-123.5381999999999891
11
128.8437590000000057
21
-124.1041389999999893
0
LINE
8
B.Cu
6
CONTINUOUS
10
128.8437590000000057
20
-124.1041389999999893
11
128.9114480000000071
21
-124.1773659999999921
0
LINE
8
B.Cu
6
CONTINUOUS
10
128.9114480000000071
20
-124.1773659999999921
11
129.02858599999999
21
-124.3385919999999913
0
LINE
8
B.Cu
6
CONTINUOUS
10
129.02858599999999
20
-124.3385919999999913
11
129.1190599999999904
21
-124.5161569999999926
0
LINE
8
B.Cu
6
CONTINUOUS
10
129.1190599999999904
20
-124.5161569999999926
11
129.1806430000000034
21
-124.7056889999999925
0
LINE
8
B.Cu
6
CONTINUOUS
10
129.1806430000000034
20
-124.7056889999999925
11
129.2118179999999938
21
-124.9025219999999905
0
LINE
8
B.Cu
6
CONTINUOUS
10
129.2118179999999938
20
-124.9025219999999905
11
129.2118179999999938
21
-125.1018079999999912
0
LINE
8
B.Cu
6
CONTINUOUS
10
129.2118179999999938
20
-125.1018079999999912
11
129.1806430000000034
21
-125.2986409999999893
0
LINE
8
B.Cu
6
CONTINUOUS
10
129.1806430000000034
20
-125.2986409999999893
11
129.1190599999999904
21
-125.4881729999999891
0
LINE
8
B.Cu
6
CONTINUOUS
10
129.1190599999999904
20
-125.4881729999999891
11
129.02858599999999
21
-125.6657379999999904
0
LINE
8
B.Cu
6
CONTINUOUS
10
129.02858599999999
20
-125.6657379999999904
11
128.9114480000000071
21
-125.8269639999999896
0
LINE
8
B.Cu
6
CONTINUOUS
10
128.9114480000000071
20
-125.8269639999999896
11
128.7705320000000029
21
-125.9678799999999939
0
LINE
8
B.Cu
6
CONTINUOUS
10
128.7705320000000029
20
-125.9678799999999939
11
128.6093060000000037
21
-126.0850179999999909
0
LINE
8
B.Cu
6
CONTINUOUS
10
128.6093060000000037
20
-126.0850179999999909
11
128.4317409999999882
21
-126.1754919999999913
0
LINE
8
B.Cu
6
CONTINUOUS
10
128.4317409999999882
20
-126.1754919999999913
11
128.2422090000000026
21
-126.2370749999999902
0
LINE
8
B.Cu
6
CONTINUOUS
10
128.2422090000000026
20
-126.2370749999999902
11
128.0453760000000045
21
-126.2682499999999948
0
LINE
8
B.Cu
6
CONTINUOUS
10
128.0453760000000045
20
-126.2682499999999948
11
127.8460899999999896
21
-126.2682499999999948
0
LINE
8
B.Cu
6
CONTINUOUS
10
127.8460899999999896
20
-126.2682499999999948
11
127.6492569999999915
21
-126.2370749999999902
0
LINE
8
B.Cu
6
CONTINUOUS
10
127.6492569999999915
20
-126.2370749999999902
11
127.4597249999999917
21
-126.1754919999999913
0
LINE
8
B.Cu
6
CONTINUOUS
10
127.4597249999999917
20
-126.1754919999999913
11
127.2821599999999904
21
-126.0850179999999909
0
LINE
8
B.Cu
6
CONTINUOUS
10
127.2821599999999904
20
-126.0850179999999909
11
127.1209339999999912
21
-125.9678799999999939
0
LINE
8
B.Cu
6
CONTINUOUS
10
127.1209339999999912
20
-125.9678799999999939
11
127.0477069999999884
21
-125.9001909999999924
0
LINE
8
B.Cu
6
CONTINUOUS
10
127.0477069999999884
20
-125.9001909999999924
11
125.2516549999999995
21
-124.1041389999999893
0
LINE
8
B.Cu
6
CONTINUOUS
10
125.2516549999999995
20
-124.1041389999999893
11
125.1839769999999987
21
-124.0309249999999963
0
LINE
8
B.Cu
6
CONTINUOUS
10
125.1839769999999987
20
-124.0309249999999963
11
125.1839650000000006
21
-124.0309129999999982
0
LINE
8
B.Cu
6
CONTINUOUS
10
125.1839650000000006
20
-124.0309129999999982
11
125.066828000000001
21
-123.869686999999999
0
LINE
8
B.Cu
6
CONTINUOUS
10
125.066828000000001
20
-123.869686999999999
11
124.9763540000000006
21
-123.6921219999999977
0
LINE
8
B.Cu
6
CONTINUOUS
10
124.9763540000000006
20
-123.6921219999999977
11
124.9147709999999876
21
-123.5025899999999979
0
LINE
8
B.Cu
6
CONTINUOUS
10
124.9147709999999876
20
-123.5025899999999979
11
124.8835959999999972
21
-123.3057569999999998
0
LINE
8
B.Cu
6
CONTINUOUS
10
124.8835959999999972
20
-123.3057569999999998
11
124.8835959999999972
21
-123.1064709999999991
0
LINE
8
B.Cu
6
CONTINUOUS
10
124.8835959999999972
20
-123.1064709999999991
11
124.884332999999998
21
-123.1018199999999894
0
LINE
8
B.Cu
6
CONTINUOUS
10
124.884332999999998
20
-123.1018199999999894
11
124.9147709999999876
21
-122.9096369999999894
0
LINE
8
B.Cu
6
CONTINUOUS
10
124.9147709999999876
20
-122.9096369999999894
11
124.9763540000000006
21
-122.7201049999999896
0
LINE
8
B.Cu
6
CONTINUOUS
10
124.9763540000000006
20
-122.7201049999999896
11
125.066828000000001
21
-122.5425399999999883
0
LINE
8
B.Cu
6
CONTINUOUS
10
125.066828000000001
20
-122.5425399999999883
11
125.1839650000000006
21
-122.3813139999999891
0
LINE
8
B.Cu
6
CONTINUOUS
10
125.1839650000000006
20
-122.3813139999999891
11
125.3248819999999881
21
-122.2403970000000015
0
LINE
8
B.Cu
6
CONTINUOUS
10
125.3248819999999881
20
-122.2403970000000015
11
125.4861079999999873
21
-122.1232599999999877
0
LINE
8
B.Cu
6
CONTINUOUS
10
125.4861079999999873
20
-122.1232599999999877
11
125.6636729999999886
21
-122.0327860000000015
0
LINE
8
B.Cu
6
CONTINUOUS
10
125.6636729999999886
20
-122.0327860000000015
11
125.8532049999999884
21
-121.9712029999999885
0
LINE
8
B.Cu
6
CONTINUOUS
10
125.8532049999999884
20
-121.9712029999999885
11
126.0500380000000007
21
-121.9400279999999981
0
LINE
8
B.Cu
6
CONTINUOUS
10
126.0500380000000007
20
-121.9400279999999981
11
126.2493239999999872
21
-121.9400279999999981
0
LINE
8
B.Cu
6
CONTINUOUS
10
126.2493239999999872
20
-121.9400279999999981
11
126.4461569999999995
21
-121.9712029999999885
0
LINE
8
B.Cu
6
CONTINUOUS
10
126.4461569999999995
20
-121.9712029999999885
11
126.6356889999999993
21
-122.0327860000000015
0
LINE
8
B.Cu
6
CONTINUOUS
10
126.6356889999999993
20
-122.0327860000000015
11
126.8132540000000006
21
-122.1232599999999877
0
LINE
8
B.Cu
6
CONTINUOUS
10
126.8132540000000006
20
-122.1232599999999877
11
126.9744799999999998
21
-122.2403970000000015
0
LINE
8
B.Cu
6
CONTINUOUS
10
126.9744799999999998
20
-122.2403970000000015
11
127.0477069999999884
21
-122.3080870000000004
0
LINE
8
B.Cu
6
CONTINUOUS
10
127.0477069999999884
20
-122.3080870000000004
11
127.604299999999995
21
-122.8646799999999928
0
LINE
8
B.Cu
6
CONTINUOUS
10
127.604299999999995
20
-122.8646799999999928
11
133.3307399999999916
21
-117.1382399999999961
0
LINE
8
B.Cu
6
CONTINUOUS
10
133.3307399999999916
20
-117.1382399999999961
11
133.3775770000000023
21
-117.0971649999999897
0
LINE
8
B.Cu
6
CONTINUOUS
10
133.3775770000000023
20
-117.0971649999999897
11
133.4852469999999869
21
-117.0350019999999915
0
LINE
8
B.Cu
6
CONTINUOUS
10
133.4852469999999869
20
-117.0350019999999915
11
133.6053369999999916
21
-117.0028239999999897
0
LINE
8
B.Cu
6
CONTINUOUS
10
133.6053369999999916
20
-117.0028239999999897
11
133.6674999999999898
21
-116.9987500000000011
0
LINE
8
B.Cu
6
CONTINUOUS
10
133.6674999999999898
20
-116.9987500000000011
11
140.1110019999999849
21
-116.9987500000000011
0
LINE
8
B.Cu
6
CONTINUOUS
10
140.1110019999999849
20
-116.9987500000000011
11
140.1141729999999939
21
-116.9889919999999961
0
LINE
8
B.Cu
6
CONTINUOUS
10
140.1141729999999939
20
-116.9889919999999961
11
140.2046469999999943
21
-116.8114269999999948
0
LINE
8
B.Cu
6
CONTINUOUS
10
140.2046469999999943
20
-116.8114269999999948
11
140.3217839999999796
21
-116.6502009999999956
0
LINE
8
B.Cu
6
CONTINUOUS
10
140.3217839999999796
20
-116.6502009999999956
11
140.4627009999999814
21
-116.5092839999999939
0
LINE
8
B.Cu
6
CONTINUOUS
10
140.4627009999999814
20
-116.5092839999999939
11
140.6239269999999806
21
-116.3921469999999943
0
LINE
8
B.Cu
6
CONTINUOUS
10
140.6239269999999806
20
-116.3921469999999943
11
140.8014919999999961
21
-116.3016729999999939
0
LINE
8
B.Cu
6
CONTINUOUS
10
140.8014919999999961
20
-116.3016729999999939
11
140.9910239999999817
21
-116.240089999999995
0
LINE
8
B.Cu
6
CONTINUOUS
10
140.9910239999999817
20
-116.240089999999995
11
141.1878569999999797
21
-116.2089149999999904
0
LINE
8
B.Cu
6
CONTINUOUS
10
141.1878569999999797
20
-116.2089149999999904
11
141.2874999999999943
21
-116.2049999999999983
0
LINE
8
B.Cu
6
CONTINUOUS
10
141.2874999999999943
20
-116.2049999999999983
11
145.5737499999999898
21
-116.2049999999999983
0
LINE
8
B.Cu
6
CONTINUOUS
10
145.5737499999999898
20
-116.2049999999999983
11
145.6733930000000043
21
-116.2089149999999904
0
CIRCLE
8
B.Cu
10
160.8137499999999989
20
-128.9050000000000011
40
0.175
0
CIRCLE
8
B.Cu
10
150.6537500000000023
20
-128.9050000000000011
40
0.175
0
CIRCLE
8
B.Cu
10
160.8137499999999989
20
-122.5549999999999926
40
0.175
0
CIRCLE
8
B.Cu
10
150.6537500000000023
20
-122.5549999999999926
40
0.175
0
CIRCLE
8
B.Cu
10
85.7249999999999943
20
-141.6049999999999898
40
0.175
0
CIRCLE
8
B.Cu
10
83.1850000000000023
20
-141.6049999999999898
40
0.175
0
CIRCLE
8
B.Cu
10
80.644999999999996
20
-141.6049999999999898
40
0.175
0
CIRCLE
8
B.Cu
10
78.1049999999999898
20
-141.6049999999999898
40
0.175
0
CIRCLE
8
B.Cu
10
145.5737499999999898
20
-133.9849999999999852
40
0.175
0
CIRCLE
8
B.Cu
10
165.8937499999999829
20
-133.9849999999999852
40
0.175
0
CIRCLE
8
B.Cu
10
145.5737499999999898
20
-117.4749999999999943
40
0.175
0
CIRCLE
8
B.Cu
10
165.8937499999999829
20
-117.4749999999999943
40
0.175
0
CIRCLE
8
B.Cu
10
160.8137499999999989
20
-141.6049999999999898
40
0.175
0
CIRCLE
8
B.Cu
10
158.2737500000000068
20
-141.6049999999999898
40
0.175
0
CIRCLE
8
B.Cu
10
155.7337499999999864
20
-141.6049999999999898
40
0.175
0
CIRCLE
8
B.Cu
10
153.1937499999999943
20
-141.6049999999999898
40
0.175
0
CIRCLE
8
B.Cu
10
150.6537500000000023
20
-141.6049999999999898
40
0.175
0
CIRCLE
8
B.Cu
10
120.8746649999999931
20
-132.0732329999999877
40
0.175
0
CIRCLE
8
B.Cu
10
119.9766399999999891
20
-131.1752070000000003
40
0.175
0
CIRCLE
8
B.Cu
10
132.435859999999991
20
-129.4922929999999894
40
0.175
0
CIRCLE
8
B.Cu
10
131.5378350000000012
20
-128.5942670000000021
40
0.175
0
CIRCLE
8
B.Cu
10
126.1496810000000011
20
-123.2061139999999995
40
0.175
0
CIRCLE
8
B.Cu
10
127.0477069999999884
20
-124.1041389999999893
40
0.175
0
CIRCLE
8
B.Cu
10
125.3647929999999917
20
-136.5633609999999862
40
0.175
0
CIRCLE
8
B.Cu
10
126.2628189999999933
20
-137.4613860000000045
40
0.175
0
CIRCLE
8
B.Cu
10
82.5499999999999972
20
-125.4074999999999989
40
0.175
0
CIRCLE
8
B.Cu
10
80.0099999999999909
20
-125.4074999999999989
40
0.175
0
CIRCLE
8
B.Cu
10
77.4699999999999989
20
-125.4074999999999989
40
0.175
0
CIRCLE
8
B.Cu
10
96.9962499999999892
20
-136.5250000000000057
40
0.15
0
CIRCLE
8
B.Cu
10
78.1049999999999898
20
-139.0649999999999977
40
0.5
0
CIRCLE
8
B.Cu
10
83.1850000000000023
20
-139.0649999999999977
40
0.5
0
CIRCLE
8
B.Cu
10
80.644999999999996
20
-139.0649999999999977
40
0.5
0
CIRCLE
8
B.Cu
10
160.8137499999999989
20
-139.0649999999999977
40
0.5
0
CIRCLE
8
B.Cu
10
150.6537500000000023
20
-139.0649999999999977
40
0.5
0
CIRCLE
8
B.Cu
10
155.7337499999999864
20
-139.0649999999999977
40
0.5
0
CIRCLE
8
B.Cu
10
85.7249999999999943
20
-139.0649999999999977
40
0.5
0
CIRCLE
8
B.Cu
10
96.9962499999999892
20
-128.9050000000000011
40
0.15
0
LINE
8
B.Cu
6
CONTINUOUS
10
73.0249999999999915
20
-146.0499999999999829
11
73.0249999999999915
21
-114.2999999999999972
0
LINE
8
B.Cu
6
CONTINUOUS
10
171.4499999999999886
20
-114.2999999999999972
11
73.0249999999999915
21
-114.2999999999999972
0
LINE
8
B.Cu
6
CONTINUOUS
10
171.4499999999999886
20
-114.2999999999999972
11
171.4499999999999886
21
-146.0499999999999829
0
LINE
8
B.Cu
6
CONTINUOUS
10
171.4499999999999886
20
-146.0499999999999829
11
73.0249999999999915
21
-146.0499999999999829
0
CIRCLE
8
B.Cu
10
96.9962499999999892
20
-136.5250000000000057
40
0.15
0
CIRCLE
8
B.Cu
10
78.1049999999999898
20
-139.0649999999999977
40
0.175
0
CIRCLE
8
B.Cu
10
83.1850000000000023
20
-139.0649999999999977
40
0.175
0
CIRCLE
8
B.Cu
10
80.644999999999996
20
-139.0649999999999977
40
0.175
0
CIRCLE
8
B.Cu
10
160.8137499999999989
20
-139.0649999999999977
40
0.175
0
CIRCLE
8
B.Cu
10
150.6537500000000023
20
-139.0649999999999977
40
0.175
0
CIRCLE
8
B.Cu
10
155.7337499999999864
20
-139.0649999999999977
40
0.175
0
CIRCLE
8
B.Cu
10
85.7249999999999943
20
-139.0649999999999977
40
0.175
0
CIRCLE
8
B.Cu
10
96.9962499999999892
20
-128.9050000000000011
40
0.15
0
CIRCLE
8
B.Cu
10
160.8137499999999989
20
-128.9050000000000011
40
0.175
0
CIRCLE
8
B.Cu
10
150.6537500000000023
20
-128.9050000000000011
40
0.175
0
CIRCLE
8
B.Cu
10
160.8137499999999989
20
-122.5549999999999926
40
0.175
0
CIRCLE
8
B.Cu
10
150.6537500000000023
20
-122.5549999999999926
40
0.175
0
CIRCLE
8
B.Cu
10
85.7249999999999943
20
-141.6049999999999898
40
0.175
0
CIRCLE
8
B.Cu
10
83.1850000000000023
20
-141.6049999999999898
40
0.175
0
CIRCLE
8
B.Cu
10
80.644999999999996
20
-141.6049999999999898
40
0.175
0
CIRCLE
8
B.Cu
10
78.1049999999999898
20
-141.6049999999999898
40
0.175
0
CIRCLE
8
B.Cu
10
145.5737499999999898
20
-133.9849999999999852
40
0.175
0
CIRCLE
8
B.Cu
10
165.8937499999999829
20
-133.9849999999999852
40
0.175
0
CIRCLE
8
B.Cu
10
145.5737499999999898
20
-117.4749999999999943
40
0.175
0
CIRCLE
8
B.Cu
10
165.8937499999999829
20
-117.4749999999999943
40
0.175
0
CIRCLE
8
B.Cu
10
160.8137499999999989
20
-141.6049999999999898
40
0.175
0
CIRCLE
8
B.Cu
10
158.2737500000000068
20
-141.6049999999999898
40
0.175
0
CIRCLE
8
B.Cu
10
155.7337499999999864
20
-141.6049999999999898
40
0.175
0
CIRCLE
8
B.Cu
10
153.1937499999999943
20
-141.6049999999999898
40
0.175
0
CIRCLE
8
B.Cu
10
150.6537500000000023
20
-141.6049999999999898
40
0.175
0
CIRCLE
8
B.Cu
10
120.8746649999999931
20
-132.0732329999999877
40
0.175
0
CIRCLE
8
B.Cu
10
119.0786139999999875
20
-130.2771809999999846
40
0.175
0
CIRCLE
8
B.Cu
10
133.3338860000000068
20
-130.3903190000000052
40
0.175
0
CIRCLE
8
B.Cu
10
131.5378350000000012
20
-128.5942670000000021
40
0.175
0
CIRCLE
8
B.Cu
10
126.1496810000000011
20
-123.2061139999999995
40
0.175
0
CIRCLE
8
B.Cu
10
127.9457329999999899
20
-125.0021649999999909
40
0.175
0
CIRCLE
8
B.Cu
10
124.4667669999999902
20
-135.6653349999999989
40
0.175
0
CIRCLE
8
B.Cu
10
126.2628189999999933
20
-137.4613860000000045
40
0.175
0
CIRCLE
8
B.Cu
10
82.5499999999999972
20
-125.4074999999999989
40
0.175
0
CIRCLE
8
B.Cu
10
80.0099999999999909
20
-125.4074999999999989
40
0.175
0
CIRCLE
8
B.Cu
10
77.4699999999999989
20
-125.4074999999999989
40
0.175
  0
ENDSEC
  0
EOF
