%TF.GenerationSoftware,KiCad,Pcbnew,8.0.4*%
%TF.CreationDate,2025-05-09T08:49:10+07:00*%
%TF.ProjectId,PS-2.0,50532d32-2e30-42e6-9b69-6361645f7063,rev?*%
%TF.SameCoordinates,Original*%
%TF.FileFunction,Soldermask,Top*%
%TF.FilePolarity,Negative*%
%FSLAX46Y46*%
G04 Gerber Fmt 4.6, Leading zero omitted, Abs format (unit mm)*
G04 Created by KiCad (PCBNEW 8.0.4) date 2025-05-09 08:49:10*
%MOMM*%
%LPD*%
G01*
G04 APERTURE LIST*
G04 Aperture macros list*
%AMRoundRect*
0 Rectangle with rounded corners*
0 $1 Rounding radius*
0 $2 $3 $4 $5 $6 $7 $8 $9 X,Y pos of 4 corners*
0 Add a 4 corners polygon primitive as box body*
4,1,4,$2,$3,$4,$5,$6,$7,$8,$9,$2,$3,0*
0 Add four circle primitives for the rounded corners*
1,1,$1+$1,$2,$3*
1,1,$1+$1,$4,$5*
1,1,$1+$1,$6,$7*
1,1,$1+$1,$8,$9*
0 Add four rect primitives between the rounded corners*
20,1,$1+$1,$2,$3,$4,$5,0*
20,1,$1+$1,$4,$5,$6,$7,0*
20,1,$1+$1,$6,$7,$8,$9,0*
20,1,$1+$1,$8,$9,$2,$3,0*%
G04 Aperture macros list end*
%ADD10C,2.000000*%
%ADD11O,2.000000X2.000000*%
%ADD12R,4.500000X2.500000*%
%ADD13O,4.500000X2.500000*%
%ADD14C,5.500000*%
%ADD15R,2.600000X2.600000*%
%ADD16O,2.600000X2.600000*%
%ADD17RoundRect,0.250000X-1.850000X1.330000X-1.850000X-1.330000X1.850000X-1.330000X1.850000X1.330000X0*%
%ADD18O,4.200000X3.160000*%
%ADD19R,1.800000X1.800000*%
%ADD20O,1.800000X1.800000*%
%ADD21R,2.200000X2.200000*%
%ADD22O,2.200000X2.200000*%
%ADD23C,2.400000*%
%ADD24O,2.400000X2.400000*%
%ADD25C,1.400000*%
%ADD26O,1.400000X1.400000*%
%ADD27C,1.800000*%
%ADD28R,2.000000X1.905000*%
%ADD29O,2.000000X1.905000*%
%ADD30R,1.600000X1.600000*%
%ADD31O,1.600000X1.600000*%
%ADD32C,1.600000*%
%ADD33R,4.000000X4.000000*%
%ADD34C,4.000000*%
%ADD35R,1.700000X1.700000*%
%ADD36O,1.700000X1.700000*%
%ADD37C,3.810000*%
%ADD38C,3.000000*%
%ADD39RoundRect,0.635000X-0.635000X-0.635000X0.635000X-0.635000X0.635000X0.635000X-0.635000X0.635000X0*%
%ADD40C,2.540000*%
G04 APERTURE END LIST*
D10*
%TO.C,L1*%
X216217500Y-132715000D03*
D11*
X200977500Y-132715000D03*
%TD*%
D12*
%TO.C,Q3*%
X228282500Y-45667500D03*
D13*
X228282500Y-51117500D03*
X228282500Y-56567500D03*
%TD*%
D14*
%TO.C,H1*%
X216217500Y-35242500D03*
%TD*%
D15*
%TO.C,D7*%
X208915000Y-196850000D03*
D16*
X224155000Y-196850000D03*
%TD*%
D17*
%TO.C,J9*%
X126457500Y-106212500D03*
D18*
X126457500Y-114132500D03*
%TD*%
D12*
%TO.C,Q1*%
X228282500Y-121867500D03*
D13*
X228282500Y-127317500D03*
X228282500Y-132767500D03*
%TD*%
D10*
%TO.C,L5*%
X216222500Y-56515000D03*
D11*
X200982500Y-56515000D03*
%TD*%
D19*
%TO.C,D9*%
X188307500Y-80992500D03*
D20*
X188307500Y-88612500D03*
%TD*%
D21*
%TO.C,D2*%
X221927500Y-89217500D03*
D22*
X221927500Y-99377500D03*
%TD*%
D23*
%TO.C,R1*%
X216217500Y-121920000D03*
D24*
X200977500Y-121920000D03*
%TD*%
D15*
%TO.C,D5*%
X188282500Y-63817500D03*
D16*
X203522500Y-63817500D03*
%TD*%
D25*
%TO.C,R4*%
X208602500Y-217180000D03*
D26*
X208602500Y-209560000D03*
%TD*%
D23*
%TO.C,R2*%
X216212500Y-83820000D03*
D24*
X200972500Y-83820000D03*
%TD*%
D14*
%TO.C,H2*%
X216217500Y-222567500D03*
%TD*%
D10*
%TO.C,C6*%
X143827500Y-90597500D03*
X143827500Y-100597500D03*
%TD*%
D27*
%TO.C,U2*%
X147637500Y-132080000D03*
X150177500Y-132080000D03*
X147637500Y-134620000D03*
X150177500Y-134620000D03*
X147637500Y-137160000D03*
X150177500Y-137160000D03*
X147637500Y-139700000D03*
X150177500Y-139700000D03*
X147637500Y-203517500D03*
X150177500Y-203517500D03*
X147637500Y-208597500D03*
X150177500Y-208597500D03*
X147637500Y-213677500D03*
X150177500Y-213677500D03*
%TD*%
D28*
%TO.C,CR2*%
X173677500Y-53657500D03*
D29*
X173677500Y-51117500D03*
X173677500Y-48577500D03*
%TD*%
D17*
%TO.C,J8*%
X126457500Y-77320000D03*
D18*
X126457500Y-85240000D03*
%TD*%
D21*
%TO.C,D1*%
X221932500Y-127317500D03*
D22*
X221932500Y-137477500D03*
%TD*%
D30*
%TO.C,U4*%
X203517500Y-217170000D03*
D31*
X206057500Y-217170000D03*
X206057500Y-209550000D03*
X203517500Y-209550000D03*
%TD*%
D23*
%TO.C,R3*%
X216217500Y-45720000D03*
D24*
X200977500Y-45720000D03*
%TD*%
D14*
%TO.C,H4*%
X126682500Y-222567500D03*
%TD*%
D32*
%TO.C,C1*%
X199707500Y-143470000D03*
X199707500Y-138470000D03*
%TD*%
D30*
%TO.C,U1*%
X203517500Y-144780000D03*
D31*
X206057500Y-144780000D03*
X208597500Y-144780000D03*
X211137500Y-144780000D03*
X211137500Y-137160000D03*
X208597500Y-137160000D03*
X206057500Y-137160000D03*
X203517500Y-137160000D03*
%TD*%
D19*
%TO.C,D8*%
X188307500Y-109885000D03*
D20*
X188307500Y-117505000D03*
%TD*%
D17*
%TO.C,J3*%
X126272500Y-165735000D03*
D18*
X126272500Y-173655000D03*
X126272500Y-181575000D03*
%TD*%
D15*
%TO.C,D6*%
X203522500Y-70167500D03*
D16*
X188282500Y-70167500D03*
%TD*%
D10*
%TO.C,L4*%
X216217500Y-89217500D03*
D11*
X200977500Y-89217500D03*
%TD*%
D33*
%TO.C,C2*%
X217502001Y-164465000D03*
D34*
X227502001Y-164465000D03*
%TD*%
D27*
%TO.C,U3*%
X179387500Y-132080000D03*
X181927500Y-132080000D03*
X179387500Y-134620000D03*
X181927500Y-134620000D03*
X179387500Y-137160000D03*
X181927500Y-137160000D03*
X179387500Y-139700000D03*
X181927500Y-139700000D03*
X179387500Y-203517500D03*
X181927500Y-203517500D03*
X179387500Y-208597500D03*
X181927500Y-208597500D03*
X179387500Y-213677500D03*
X181927500Y-213677500D03*
%TD*%
D35*
%TO.C,J1*%
X195897500Y-186690000D03*
X198437500Y-186690000D03*
D36*
X195897500Y-189230000D03*
X198437500Y-189230000D03*
X195897500Y-191770000D03*
X198437500Y-191770000D03*
X195897500Y-194310000D03*
X198437500Y-194310000D03*
X195897500Y-196850000D03*
X198437500Y-196850000D03*
X195897500Y-199390000D03*
X198437500Y-199390000D03*
X195897500Y-201930000D03*
X198437500Y-201930000D03*
X195897500Y-204470000D03*
X198437500Y-204470000D03*
X195897500Y-207010000D03*
X198437500Y-207010000D03*
X195897500Y-209550000D03*
X198437500Y-209550000D03*
X195897500Y-212090000D03*
X198437500Y-212090000D03*
X195897500Y-214630000D03*
X198437500Y-214630000D03*
X195897500Y-217170000D03*
X198437500Y-217170000D03*
X195897500Y-219710000D03*
X198437500Y-219710000D03*
X195897500Y-222250000D03*
X198437500Y-222250000D03*
X195897500Y-224790000D03*
X198437500Y-224790000D03*
%TD*%
D21*
%TO.C,D3*%
X221932500Y-51117500D03*
D22*
X221932500Y-61277500D03*
%TD*%
D32*
%TO.C,C3*%
X199707500Y-167917500D03*
X199707500Y-162917500D03*
%TD*%
D10*
%TO.C,L3*%
X216217500Y-94615000D03*
D11*
X200977500Y-94615000D03*
%TD*%
D37*
%TO.C,CON-01*%
X229235000Y-196850000D03*
X229235000Y-204470000D03*
X229235000Y-212090000D03*
X229235000Y-219710000D03*
%TD*%
D17*
%TO.C,J2*%
X126365000Y-190200000D03*
D18*
X126365000Y-198120000D03*
X126365000Y-206040000D03*
%TD*%
D10*
%TO.C,L6*%
X216222500Y-51117500D03*
D11*
X200982500Y-51117500D03*
%TD*%
D38*
%TO.C,K1*%
X181282500Y-114955000D03*
X166082500Y-123855000D03*
X155942500Y-106055000D03*
X163542500Y-106055000D03*
D39*
X178742500Y-120055000D03*
D40*
X178742500Y-109855000D03*
%TD*%
D32*
%TO.C,C4*%
X199707500Y-152757500D03*
X199707500Y-157757500D03*
%TD*%
D10*
%TO.C,L7*%
X208910000Y-191770000D03*
D11*
X224150000Y-191770000D03*
%TD*%
D10*
%TO.C,L2*%
X216217500Y-127317500D03*
D11*
X200977500Y-127317500D03*
%TD*%
D10*
%TO.C,C5*%
X150207500Y-90597500D03*
X150207500Y-100597500D03*
%TD*%
D15*
%TO.C,D4*%
X203522500Y-76517500D03*
D16*
X188282500Y-76517500D03*
%TD*%
D14*
%TO.C,H3*%
X126682500Y-35242500D03*
%TD*%
D12*
%TO.C,Q2*%
X228282500Y-83767500D03*
D13*
X228282500Y-89217500D03*
X228282500Y-94667500D03*
%TD*%
D28*
%TO.C,CR1*%
X157167500Y-53657500D03*
D29*
X157167500Y-51117500D03*
X157167500Y-48577500D03*
%TD*%
D23*
%TO.C,R5*%
X229235000Y-186690000D03*
D24*
X208915000Y-186690000D03*
%TD*%
D38*
%TO.C,K2*%
X181282500Y-86062500D03*
X166082500Y-94962500D03*
X155942500Y-77162500D03*
X163542500Y-77162500D03*
D39*
X178742500Y-91162500D03*
D40*
X178742500Y-80962500D03*
%TD*%
M02*
