%TF.GenerationSoftware,KiCad,Pcbnew,8.0.4*%
%TF.CreationDate,2026-01-15T15:49:11+07:00*%
%TF.ProjectId,CTL-4.2,43544c2d-342e-4322-9e6b-696361645f70,rev?*%
%TF.SameCoordinates,Original*%
%TF.FileFunction,Paste,Top*%
%TF.FilePolarity,Positive*%
%FSLAX46Y46*%
G04 Gerber Fmt 4.6, Leading zero omitted, Abs format (unit mm)*
G04 Created by KiCad (PCBNEW 8.0.4) date 2026-01-15 15:49:11*
%MOMM*%
%LPD*%
G01*
G04 APERTURE LIST*
G04 Aperture macros list*
%AMFreePoly0*
4,1,9,3.968750,-0.793750,0.762000,-0.793750,0.762000,-0.476250,-0.793750,-0.476250,-0.793750,0.476250,0.762000,0.476250,0.762000,0.793750,3.968750,0.793750,3.968750,-0.793750,3.968750,-0.793750,$1*%
G04 Aperture macros list end*
%ADD10C,0.000000*%
%ADD11R,4.445000X2.540000*%
%ADD12R,1.428750X0.952500*%
%ADD13R,0.952500X1.428750*%
%ADD14R,3.700000X3.700000*%
%ADD15R,3.492500X1.016000*%
%ADD16R,1.400000X1.600000*%
%ADD17R,3.100000X1.600000*%
%ADD18R,1.270000X0.952500*%
%ADD19R,1.905000X1.270000*%
%ADD20R,1.428750X0.793750*%
%ADD21FreePoly0,180.000000*%
%ADD22R,5.715000X3.810000*%
%ADD23R,1.270000X1.905000*%
%ADD24FreePoly0,0.000000*%
%ADD25R,0.952500X1.270000*%
%ADD26R,2.540000X1.905000*%
%ADD27R,1.905000X2.540000*%
%ADD28R,1.587500X1.270000*%
%ADD29R,0.610000X2.000000*%
%ADD30R,2.680000X3.600000*%
%ADD31R,1.270000X0.508000*%
G04 APERTURE END LIST*
D10*
%TO.C,U2*%
G36*
X191579500Y-133032500D02*
G01*
X191960500Y-133032500D01*
X191960500Y-129857500D01*
X196532500Y-129857500D01*
X196532500Y-135382000D01*
X193675000Y-135382000D01*
X193675000Y-135763000D01*
X196532500Y-135763000D01*
X196532500Y-141287500D01*
X191960500Y-141287500D01*
X191960500Y-138112500D01*
X191579501Y-138112500D01*
X191579501Y-141287500D01*
X187007500Y-141287500D01*
X187007500Y-135763000D01*
X189865000Y-135763000D01*
X189865000Y-135382000D01*
X187007500Y-135382000D01*
X187007500Y-129857500D01*
X191579500Y-129857500D01*
X191579500Y-133032500D01*
G37*
%TO.C,U1*%
G36*
X159194500Y-133032500D02*
G01*
X159575500Y-133032500D01*
X159575500Y-129857500D01*
X164147500Y-129857500D01*
X164147500Y-135382000D01*
X161290000Y-135382000D01*
X161290000Y-135763000D01*
X164147500Y-135763000D01*
X164147500Y-141287500D01*
X159575500Y-141287500D01*
X159575500Y-138112500D01*
X159194501Y-138112500D01*
X159194501Y-141287500D01*
X154622500Y-141287500D01*
X154622500Y-135763000D01*
X157480000Y-135763000D01*
X157480000Y-135382000D01*
X154622500Y-135382000D01*
X154622500Y-129857500D01*
X159194500Y-129857500D01*
X159194500Y-133032500D01*
G37*
%TO.C,U3*%
G36*
X223964500Y-133032500D02*
G01*
X224345500Y-133032500D01*
X224345500Y-129857500D01*
X228917500Y-129857500D01*
X228917500Y-135382000D01*
X226060000Y-135382000D01*
X226060000Y-135763000D01*
X228917500Y-135763000D01*
X228917500Y-141287500D01*
X224345500Y-141287500D01*
X224345500Y-138112500D01*
X223964501Y-138112500D01*
X223964501Y-141287500D01*
X219392500Y-141287500D01*
X219392500Y-135763000D01*
X222250000Y-135763000D01*
X222250000Y-135382000D01*
X219392500Y-135382000D01*
X219392500Y-129857500D01*
X223964500Y-129857500D01*
X223964500Y-133032500D01*
G37*
%TD*%
D11*
%TO.C,C5*%
X213360000Y-120015000D03*
X221615000Y-120015000D03*
%TD*%
%TO.C,C3*%
X180975000Y-120015000D03*
X189230000Y-120015000D03*
%TD*%
%TO.C,C1*%
X148590000Y-120015000D03*
X156845000Y-120015000D03*
%TD*%
D12*
%TO.C,U4*%
X94773750Y-115887500D03*
X94773750Y-117157500D03*
X94773750Y-118427500D03*
X94773750Y-119697500D03*
X94773750Y-120967500D03*
X94773750Y-122237500D03*
X94773750Y-123507500D03*
X94773750Y-124777500D03*
X94773750Y-126047500D03*
X94773750Y-127317500D03*
X94773750Y-128587500D03*
X94773750Y-129857500D03*
X94773750Y-131127500D03*
X94773750Y-132397500D03*
D13*
X96520000Y-133588125D03*
X97790000Y-133588125D03*
X99060000Y-133588125D03*
X100330000Y-133588125D03*
X101600000Y-133588125D03*
X102870000Y-133588125D03*
X104140000Y-133588125D03*
X105410000Y-133588125D03*
X106680000Y-133588125D03*
X107950000Y-133588125D03*
X109220000Y-133588125D03*
X110490000Y-133588125D03*
D12*
X112236250Y-132397500D03*
X112236250Y-131127500D03*
X112236250Y-129857500D03*
X112236250Y-128587500D03*
X112236250Y-127317500D03*
X112236250Y-126047500D03*
X112236250Y-124777500D03*
X112236250Y-123507500D03*
X112236250Y-122237500D03*
X112236250Y-120967500D03*
X112236250Y-119697500D03*
X112236250Y-118427500D03*
X112236250Y-117157500D03*
X112236250Y-115887500D03*
D14*
X102005000Y-123607500D03*
%TD*%
D15*
%TO.C,U2*%
X181451250Y-132172500D03*
X181451250Y-133872500D03*
X181451250Y-135572500D03*
X181451250Y-137272500D03*
X181451250Y-138972500D03*
%TD*%
%TO.C,U1*%
X149066250Y-132172500D03*
X149066250Y-133872500D03*
X149066250Y-135572500D03*
X149066250Y-137272500D03*
X149066250Y-138972500D03*
%TD*%
%TO.C,U3*%
X213836250Y-132172500D03*
X213836250Y-133872500D03*
X213836250Y-135572500D03*
X213836250Y-137272500D03*
X213836250Y-138972500D03*
%TD*%
D16*
%TO.C,SW2*%
X88555000Y-152912500D03*
X88555000Y-144912500D03*
X93055000Y-152912500D03*
X93055000Y-144912500D03*
%TD*%
D17*
%TO.C,U5*%
X120650000Y-126682500D03*
X120650000Y-129222500D03*
X120650000Y-131762500D03*
X120650000Y-134302500D03*
X120650000Y-136842500D03*
X120650000Y-139382500D03*
X120650000Y-141922500D03*
X129540000Y-141922500D03*
X129540000Y-139382500D03*
X129540000Y-136842500D03*
X129540000Y-134302500D03*
X129540000Y-131762500D03*
X129540000Y-129222500D03*
X129540000Y-126682500D03*
%TD*%
D18*
%TO.C,R19*%
X83185000Y-151288750D03*
X83185000Y-149066250D03*
%TD*%
D19*
%TO.C,R14*%
X49530000Y-122237500D03*
X49530000Y-125412500D03*
%TD*%
D20*
%TO.C,Q1*%
X99139375Y-149785625D03*
D21*
X99060000Y-148277500D03*
D20*
X99139375Y-146769375D03*
%TD*%
D18*
%TO.C,R22*%
X89852500Y-132238749D03*
X89852500Y-130016251D03*
%TD*%
D16*
%TO.C,SW1*%
X113955000Y-152912500D03*
X113955000Y-144912500D03*
X118455000Y-152912500D03*
X118455000Y-144912500D03*
%TD*%
D22*
%TO.C,L2*%
X171767500Y-130492500D03*
X171767500Y-140652500D03*
%TD*%
D18*
%TO.C,R17*%
X77311250Y-126365000D03*
X77311250Y-124142500D03*
%TD*%
D23*
%TO.C,D5*%
X176847500Y-150495000D03*
X173672500Y-150495000D03*
%TD*%
D20*
%TO.C,Q5*%
X77390625Y-148669375D03*
D24*
X77470000Y-150177500D03*
D20*
X77390625Y-151685625D03*
%TD*%
D18*
%TO.C,C9*%
X90646250Y-117316251D03*
X90646250Y-119538749D03*
%TD*%
%TO.C,R4*%
X83185000Y-132238750D03*
X83185000Y-130016250D03*
%TD*%
D25*
%TO.C,R2*%
X102393750Y-146690000D03*
X104616250Y-146690000D03*
%TD*%
D26*
%TO.C,D2*%
X188912500Y-127635000D03*
X185102500Y-127635000D03*
%TD*%
D18*
%TO.C,R7*%
X67945000Y-138588750D03*
X67945000Y-136366250D03*
%TD*%
D25*
%TO.C,R1*%
X104616250Y-149860000D03*
X102393750Y-149860000D03*
%TD*%
D20*
%TO.C,Q4*%
X77390625Y-129619375D03*
D24*
X77470000Y-131127500D03*
D20*
X77390625Y-132635625D03*
%TD*%
D23*
%TO.C,R10*%
X176847500Y-147320000D03*
X173672500Y-147320000D03*
%TD*%
D27*
%TO.C,D7*%
X45720000Y-126682500D03*
X45720000Y-122872500D03*
%TD*%
D11*
%TO.C,C6*%
X213360000Y-147320000D03*
X221615000Y-147320000D03*
%TD*%
D20*
%TO.C,Q3*%
X77390625Y-135969375D03*
D24*
X77470000Y-137477500D03*
D20*
X77390625Y-138985625D03*
%TD*%
D18*
%TO.C,C13*%
X89852500Y-136366250D03*
X89852500Y-138588748D03*
%TD*%
D25*
%TO.C,C7*%
X108426250Y-153040000D03*
X110648750Y-153040000D03*
%TD*%
D18*
%TO.C,R6*%
X67945000Y-130968750D03*
X67945000Y-128746250D03*
%TD*%
%TO.C,C11*%
X86836250Y-119538749D03*
X86836250Y-117316251D03*
%TD*%
%TO.C,C12*%
X87630000Y-136366251D03*
X87630000Y-138588749D03*
%TD*%
D20*
%TO.C,Q2*%
X107870625Y-146769375D03*
D24*
X107950000Y-148277500D03*
D20*
X107870625Y-149785625D03*
%TD*%
D18*
%TO.C,R15*%
X81121250Y-126365000D03*
X81121250Y-124142500D03*
%TD*%
%TO.C,R5*%
X53975000Y-128741250D03*
X53975000Y-130963750D03*
%TD*%
%TO.C,R8*%
X53975000Y-136361250D03*
X53975000Y-138583750D03*
%TD*%
%TO.C,R12*%
X41910000Y-124301250D03*
X41910000Y-122078750D03*
%TD*%
D28*
%TO.C,C10*%
X90011250Y-115093750D03*
X87153750Y-115093750D03*
%TD*%
D29*
%TO.C,J2*%
X66730000Y-120545000D03*
X65730000Y-120545000D03*
X64730000Y-120545000D03*
X63730000Y-120545000D03*
X62730000Y-120545000D03*
X61730000Y-120545000D03*
X60730000Y-120545000D03*
X59730000Y-120545000D03*
X58730000Y-120545000D03*
X57730000Y-120545000D03*
D30*
X69720000Y-117745000D03*
X54740000Y-117745000D03*
%TD*%
D18*
%TO.C,R16*%
X88741250Y-117316251D03*
X88741250Y-119538749D03*
%TD*%
%TO.C,R3*%
X83185000Y-138588750D03*
X83185000Y-136366250D03*
%TD*%
%TO.C,R18*%
X79216250Y-126365000D03*
X79216250Y-124142500D03*
%TD*%
%TO.C,R13*%
X39370000Y-122078750D03*
X39370000Y-124301250D03*
%TD*%
D23*
%TO.C,D6*%
X209232500Y-150495000D03*
X206057500Y-150495000D03*
%TD*%
%TO.C,D4*%
X144462500Y-150495000D03*
X141287500Y-150495000D03*
%TD*%
D31*
%TO.C,U8*%
X55880000Y-124142500D03*
X55880000Y-125095000D03*
X55880000Y-126047500D03*
X58420000Y-126047500D03*
X58420000Y-125095000D03*
X58420000Y-124142500D03*
%TD*%
D23*
%TO.C,R11*%
X209232500Y-147320000D03*
X206057500Y-147320000D03*
%TD*%
D25*
%TO.C,C8*%
X98583750Y-153040000D03*
X96361250Y-153040000D03*
%TD*%
D11*
%TO.C,C2*%
X148590000Y-147320000D03*
X156845000Y-147320000D03*
%TD*%
D23*
%TO.C,R9*%
X144462500Y-147320000D03*
X141287500Y-147320000D03*
%TD*%
D20*
%TO.C,Q6*%
X77390625Y-142319375D03*
D24*
X77470000Y-143827500D03*
D20*
X77390625Y-145335625D03*
%TD*%
D26*
%TO.C,D1*%
X152717500Y-127635000D03*
X156527500Y-127635000D03*
%TD*%
D18*
%TO.C,R20*%
X83185000Y-144938750D03*
X83185000Y-142716250D03*
%TD*%
D26*
%TO.C,D3*%
X217487500Y-127635000D03*
X221297500Y-127635000D03*
%TD*%
D22*
%TO.C,L3*%
X204152500Y-130492500D03*
X204152500Y-140652500D03*
%TD*%
D18*
%TO.C,R21*%
X87630000Y-132238749D03*
X87630000Y-130016251D03*
%TD*%
D22*
%TO.C,L1*%
X139382500Y-130492500D03*
X139382500Y-140652500D03*
%TD*%
D11*
%TO.C,C4*%
X189230000Y-147320000D03*
X180975000Y-147320000D03*
%TD*%
M02*
