%TF.GenerationSoftware,KiCad,Pcbnew,8.0.4*%
%TF.CreationDate,2026-01-15T15:49:16+07:00*%
%TF.ProjectId,CTL-4.2,43544c2d-342e-4322-9e6b-696361645f70,rev?*%
%TF.SameCoordinates,Original*%
%TF.FileFunction,Plated,1,2,PTH,Drill*%
%TF.FilePolarity,Positive*%
%FSLAX46Y46*%
G04 Gerber Fmt 4.6, Leading zero omitted, Abs format (unit mm)*
G04 Created by KiCad (PCBNEW 8.0.4) date 2026-01-15 15:49:16*
%MOMM*%
%LPD*%
G01*
G04 APERTURE LIST*
%TA.AperFunction,ViaDrill*%
%ADD10C,0.600000*%
%TD*%
%TA.AperFunction,ComponentDrill*%
%ADD11C,0.600000*%
%TD*%
%TA.AperFunction,ComponentDrill*%
%ADD12C,0.800000*%
%TD*%
%TA.AperFunction,ComponentDrill*%
%ADD13C,0.950000*%
%TD*%
%TA.AperFunction,ViaDrill*%
%ADD14C,1.000000*%
%TD*%
%TA.AperFunction,ComponentDrill*%
%ADD15C,1.000000*%
%TD*%
G04 APERTURE END LIST*
D10*
X33019999Y-120332500D03*
X33019999Y-121602500D03*
X33019999Y-122872499D03*
X33019999Y-124142500D03*
X33019999Y-153670000D03*
X33019999Y-154940000D03*
X33019999Y-156209999D03*
X33019999Y-157480000D03*
X34289999Y-123507500D03*
X34289999Y-156845000D03*
X34290000Y-120967500D03*
X34290000Y-122237500D03*
X34290000Y-154305000D03*
X34290000Y-155575000D03*
X35560000Y-120332500D03*
X35560000Y-121602500D03*
X35560000Y-122872499D03*
X35560000Y-124142500D03*
X35560000Y-153670000D03*
X35560000Y-154940000D03*
X35560000Y-156209999D03*
X35560000Y-157480000D03*
X38417500Y-139223750D03*
X38417500Y-140652500D03*
X39846250Y-139223750D03*
X39846250Y-140652500D03*
X44450000Y-143033750D03*
X50800001Y-128111250D03*
X50800001Y-129381251D03*
X52070000Y-128746250D03*
X53340000Y-146812000D03*
X53657500Y-124142500D03*
X53657500Y-126047500D03*
X54610000Y-122237500D03*
X55880000Y-144780000D03*
X57150001Y-117157500D03*
X57150001Y-118427501D03*
X58420000Y-117792500D03*
X59690000Y-136207500D03*
X59690000Y-137477500D03*
X59690000Y-138747501D03*
X59690000Y-146685000D03*
X59690001Y-155575000D03*
X60642500Y-124142500D03*
X60642500Y-126047500D03*
X60959998Y-146049999D03*
X60959999Y-138112500D03*
X60959999Y-147320000D03*
X60960000Y-133662500D03*
X60960000Y-136842500D03*
X60960000Y-156210000D03*
X62230000Y-136207500D03*
X62230000Y-137477500D03*
X62230000Y-138747501D03*
X63500001Y-146050000D03*
X63500001Y-147320001D03*
X64770000Y-146685000D03*
X69373750Y-122523250D03*
X69850000Y-137477500D03*
X70643750Y-140811250D03*
X70897750Y-120967500D03*
X75088750Y-127000000D03*
X75088750Y-129540000D03*
X77425000Y-134302500D03*
X79851250Y-134302500D03*
X79851250Y-139223750D03*
X79851250Y-145573750D03*
X79851250Y-150177500D03*
X79851250Y-151923750D03*
X81280000Y-134302500D03*
X82708750Y-115252500D03*
X82708750Y-119062500D03*
X83978750Y-126682500D03*
X83978750Y-127952500D03*
X83978751Y-114617500D03*
X83978751Y-115887501D03*
X83978751Y-118427500D03*
X85248750Y-115252500D03*
X85248750Y-117157500D03*
X85248750Y-119062500D03*
X85248750Y-127317500D03*
X85725000Y-139700000D03*
X85725000Y-142875000D03*
X86677500Y-126206250D03*
X87630000Y-133350000D03*
X88582500Y-146685000D03*
X88582500Y-151130000D03*
X88741250Y-139699999D03*
X88900000Y-126206250D03*
X89852500Y-135096250D03*
X90805000Y-123348750D03*
X92392500Y-118427500D03*
X92710000Y-135255000D03*
X92710000Y-136525000D03*
X92710000Y-137795001D03*
X93979999Y-137160000D03*
X93980000Y-135890000D03*
X95250000Y-135255000D03*
X95250000Y-136525000D03*
X95250000Y-137795001D03*
X96520000Y-144526000D03*
X97155000Y-115887500D03*
X97155000Y-131127500D03*
X102235000Y-135255000D03*
X102235000Y-136525000D03*
X102235000Y-137795001D03*
X102393750Y-144938750D03*
X103504999Y-137160000D03*
X103505000Y-135890000D03*
X104616250Y-151606250D03*
X104775000Y-135255000D03*
X104775000Y-136525000D03*
X104775000Y-137795001D03*
X108585000Y-136842500D03*
X109855000Y-115887500D03*
X109855000Y-123507500D03*
X109855000Y-131127500D03*
X110490000Y-144526000D03*
X112077500Y-135826500D03*
X116141500Y-117284500D03*
X116205000Y-148912500D03*
X117792500Y-126682500D03*
X117792500Y-129222500D03*
X117792500Y-141922500D03*
X118173500Y-115760500D03*
X126365000Y-118903750D03*
X126365000Y-146050000D03*
X126365000Y-147320000D03*
X126365000Y-148590001D03*
X126365000Y-151765000D03*
X126365000Y-153035000D03*
X126365000Y-154305001D03*
X127000000Y-117633750D03*
X127634999Y-147955000D03*
X127634999Y-153670000D03*
X127635000Y-118903750D03*
X127635000Y-146685000D03*
X127635000Y-152400000D03*
X128270000Y-117633750D03*
X128905000Y-118903750D03*
X128905000Y-146050000D03*
X128905000Y-147320000D03*
X128905000Y-148590001D03*
X128905000Y-151765000D03*
X128905000Y-153035000D03*
X128905000Y-154305001D03*
X130174999Y-147955000D03*
X130174999Y-153670000D03*
X130175000Y-146685000D03*
X130175000Y-152400000D03*
X131445000Y-146050000D03*
X131445000Y-147320000D03*
X131445000Y-148590001D03*
X131445000Y-151765000D03*
X131445000Y-153035000D03*
X131445000Y-154305001D03*
X132397500Y-126682500D03*
X142081250Y-114935000D03*
X142081250Y-116205000D03*
X142081250Y-118745000D03*
X142081250Y-120015000D03*
X142081250Y-121285001D03*
X142081250Y-123825000D03*
X142081250Y-125095001D03*
X143351249Y-116840000D03*
X143351249Y-120650000D03*
X143351249Y-124460000D03*
X143351250Y-115570000D03*
X143351250Y-119380000D03*
X143351250Y-123190000D03*
X144621250Y-114935000D03*
X144621250Y-116205000D03*
X144621250Y-118745000D03*
X144621250Y-120015000D03*
X144621250Y-121285001D03*
X144621250Y-123825000D03*
X144621250Y-125095001D03*
X147320000Y-116840000D03*
X147955000Y-115570000D03*
X148590000Y-116840000D03*
X149225000Y-115570000D03*
X149860000Y-116840000D03*
X159385000Y-126365000D03*
X159385000Y-127635000D03*
X159385000Y-128905001D03*
X160654999Y-128270000D03*
X160655000Y-118745000D03*
X160655000Y-120015000D03*
X160655000Y-121285001D03*
X160655000Y-127000000D03*
X160655000Y-146050000D03*
X160655000Y-147320000D03*
X160655000Y-148590001D03*
X161924999Y-120650000D03*
X161924999Y-147955000D03*
X161925000Y-119380000D03*
X161925000Y-126365000D03*
X161925000Y-127635000D03*
X161925000Y-128905001D03*
X161925000Y-146685000D03*
X163194999Y-128270000D03*
X163195000Y-118745000D03*
X163195000Y-120015000D03*
X163195000Y-121285001D03*
X163195000Y-127000000D03*
X163195000Y-146050000D03*
X163195000Y-147320000D03*
X163195000Y-148590001D03*
X166052500Y-155575000D03*
X167322500Y-156210000D03*
X168592500Y-153670000D03*
X168592500Y-155575000D03*
X169545000Y-118745000D03*
X169545000Y-120015000D03*
X169545000Y-121285001D03*
X170814999Y-120650000D03*
X170815000Y-119380000D03*
X172085000Y-118745000D03*
X172085000Y-120015000D03*
X172085000Y-121285001D03*
X179705000Y-116840000D03*
X180340000Y-115570000D03*
X180975000Y-116840000D03*
X181610000Y-115570000D03*
X182245000Y-116840000D03*
X191770000Y-126365000D03*
X191770000Y-127635000D03*
X191770000Y-128905001D03*
X193039999Y-128270000D03*
X193040000Y-118745000D03*
X193040000Y-120015000D03*
X193040000Y-121285001D03*
X193040000Y-127000000D03*
X193040000Y-146050000D03*
X193040000Y-147320000D03*
X193040000Y-148590001D03*
X194309999Y-120650000D03*
X194309999Y-147955000D03*
X194310000Y-119380000D03*
X194310000Y-126365000D03*
X194310000Y-127635000D03*
X194310000Y-128905001D03*
X194310000Y-146685000D03*
X195579999Y-128270000D03*
X195580000Y-118745000D03*
X195580000Y-120015000D03*
X195580000Y-121285001D03*
X195580000Y-127000000D03*
X195580000Y-146050000D03*
X195580000Y-147320000D03*
X195580000Y-148590001D03*
X212090000Y-116840000D03*
X212725000Y-115570000D03*
X213360000Y-116840000D03*
X213995000Y-115570000D03*
X214630000Y-116840000D03*
X224155000Y-126365000D03*
X224155000Y-127635000D03*
X224155000Y-128905001D03*
X225424999Y-128270000D03*
X225425000Y-118745000D03*
X225425000Y-120015000D03*
X225425000Y-121285001D03*
X225425000Y-127000000D03*
X225425000Y-146050000D03*
X225425000Y-147320000D03*
X225425000Y-148590001D03*
X226694999Y-120650000D03*
X226694999Y-147955000D03*
X226695000Y-119380000D03*
X226695000Y-126365000D03*
X226695000Y-127635000D03*
X226695000Y-128905001D03*
X226695000Y-146685000D03*
X227964999Y-128270000D03*
X227965000Y-118745000D03*
X227965000Y-120015000D03*
X227965000Y-121285001D03*
X227965000Y-127000000D03*
X227965000Y-146050000D03*
X227965000Y-147320000D03*
X227965000Y-148590001D03*
D11*
%TO.C,U1*%
X156845000Y-132397500D03*
X156845000Y-133667500D03*
X156845000Y-137477500D03*
X156845000Y-138747500D03*
X158115000Y-131762500D03*
X158115000Y-133032500D03*
X158115000Y-134302500D03*
X158115000Y-135572500D03*
X158115000Y-136842500D03*
X158115000Y-138112500D03*
X158115000Y-139382500D03*
X159385000Y-133667500D03*
X159385000Y-134937500D03*
X159385000Y-136207500D03*
X159385000Y-137477500D03*
X160655000Y-131762500D03*
X160655000Y-133032500D03*
X160655000Y-134302500D03*
X160655000Y-135572500D03*
X160655000Y-136842500D03*
X160655000Y-138112500D03*
X160655000Y-139382500D03*
X161925000Y-132397500D03*
X161925000Y-133667500D03*
X161925000Y-137477500D03*
X161925000Y-138747500D03*
%TO.C,U2*%
X189230000Y-132397500D03*
X189230000Y-133667500D03*
X189230000Y-137477500D03*
X189230000Y-138747500D03*
X190500000Y-131762500D03*
X190500000Y-133032500D03*
X190500000Y-134302500D03*
X190500000Y-135572500D03*
X190500000Y-136842500D03*
X190500000Y-138112500D03*
X190500000Y-139382500D03*
X191770000Y-133667500D03*
X191770000Y-134937500D03*
X191770000Y-136207500D03*
X191770000Y-137477500D03*
X193040000Y-131762500D03*
X193040000Y-133032500D03*
X193040000Y-134302500D03*
X193040000Y-135572500D03*
X193040000Y-136842500D03*
X193040000Y-138112500D03*
X193040000Y-139382500D03*
X194310000Y-132397500D03*
X194310000Y-133667500D03*
X194310000Y-137477500D03*
X194310000Y-138747500D03*
%TO.C,U3*%
X221615000Y-132397500D03*
X221615000Y-133667500D03*
X221615000Y-137477500D03*
X221615000Y-138747500D03*
X222885000Y-131762500D03*
X222885000Y-133032500D03*
X222885000Y-134302500D03*
X222885000Y-135572500D03*
X222885000Y-136842500D03*
X222885000Y-138112500D03*
X222885000Y-139382500D03*
X224155000Y-133667500D03*
X224155000Y-134937500D03*
X224155000Y-136207500D03*
X224155000Y-137477500D03*
X225425000Y-131762500D03*
X225425000Y-133032500D03*
X225425000Y-134302500D03*
X225425000Y-135572500D03*
X225425000Y-136842500D03*
X225425000Y-138112500D03*
X225425000Y-139382500D03*
X226695000Y-132397500D03*
X226695000Y-133667500D03*
X226695000Y-137477500D03*
X226695000Y-138747500D03*
D12*
%TO.C,U6*%
X57160000Y-128582500D03*
X57160000Y-131122500D03*
%TO.C,U7*%
X57160000Y-136202500D03*
X57160000Y-138742500D03*
%TO.C,U6*%
X64780000Y-128582500D03*
X64780000Y-131122500D03*
%TO.C,U7*%
X64780000Y-136202500D03*
X64780000Y-138742500D03*
D13*
%TO.C,J3*%
X35560000Y-127357500D03*
X35560000Y-129857500D03*
X35560000Y-132357500D03*
%TO.C,J4*%
X35560000Y-138747500D03*
X35560000Y-141287500D03*
X35560000Y-143827500D03*
%TD*%
D14*
X58420000Y-115887500D03*
X60960000Y-115951000D03*
X63500000Y-115887500D03*
X66040000Y-115887500D03*
X98425000Y-124777500D03*
X98425000Y-127317500D03*
X99695000Y-115887500D03*
X100965000Y-127317500D03*
X102235000Y-115887500D03*
X104775000Y-115887500D03*
X107315000Y-115887500D03*
X107315000Y-118427500D03*
X107315000Y-120967500D03*
X107315000Y-124777500D03*
X107315000Y-127317500D03*
X107315000Y-129857500D03*
D15*
%TO.C,J1*%
X34290000Y-148907500D03*
X34290000Y-151447500D03*
%TO.C,J5*%
X36830000Y-115887500D03*
X36830000Y-118427500D03*
%TO.C,J1*%
X36830000Y-148907500D03*
X36830000Y-151447500D03*
%TO.C,J5*%
X39370000Y-115887500D03*
X39370000Y-118427500D03*
%TO.C,J1*%
X39370000Y-148907500D03*
X39370000Y-151447500D03*
%TO.C,J5*%
X41910000Y-115887500D03*
X41910000Y-118427500D03*
%TO.C,J1*%
X41910000Y-148907500D03*
X41910000Y-151447500D03*
%TO.C,K1*%
X42042500Y-134742500D03*
X42042500Y-137282500D03*
X42042500Y-144902500D03*
%TO.C,J5*%
X44450000Y-115887500D03*
X44450000Y-118427500D03*
%TO.C,J1*%
X44450000Y-148907500D03*
X44450000Y-151447500D03*
%TO.C,J5*%
X46990000Y-115887500D03*
X46990000Y-118427500D03*
%TO.C,J1*%
X46990000Y-148907500D03*
X46990000Y-151447500D03*
%TO.C,K1*%
X47122500Y-134742500D03*
X47122500Y-137282500D03*
X47122500Y-144902500D03*
%TO.C,J5*%
X49530000Y-115887500D03*
X49530000Y-118427500D03*
%TO.C,J1*%
X49530000Y-148907500D03*
X49530000Y-151447500D03*
X52070000Y-148907500D03*
X52070000Y-151447500D03*
X54610000Y-148907500D03*
X54610000Y-151447500D03*
X57150000Y-148907500D03*
X57150000Y-151447500D03*
X59690000Y-148907500D03*
X59690000Y-151447500D03*
X62230000Y-148907500D03*
X62230000Y-151447500D03*
X64770000Y-148907500D03*
X64770000Y-151447500D03*
X67310000Y-148907500D03*
X67310000Y-151447500D03*
X69850000Y-148907500D03*
X69850000Y-151447500D03*
X72390000Y-148907500D03*
X72390000Y-151447500D03*
%TO.C,J6*%
X121285000Y-115887500D03*
%TO.C,J7*%
X121285000Y-120650000D03*
%TO.C,J6*%
X123825000Y-115887500D03*
%TO.C,J7*%
X123825000Y-120650000D03*
%TO.C,J6*%
X126365000Y-115887500D03*
%TO.C,J7*%
X126365000Y-120650000D03*
%TO.C,J6*%
X128905000Y-115887500D03*
%TO.C,J7*%
X128905000Y-120650000D03*
%TO.C,J6*%
X131445000Y-115887500D03*
X133985000Y-115887500D03*
%TO.C,TP1*%
X137795000Y-147637500D03*
X137795000Y-150177500D03*
%TO.C,TP2*%
X170180000Y-147637500D03*
X170180000Y-150177500D03*
%TO.C,TP3*%
X202565000Y-147637500D03*
X202565000Y-150177500D03*
M02*
