%TF.GenerationSoftware,KiCad,Pcbnew,8.0.4*%
%TF.CreationDate,2026-01-08T14:31:00+07:00*%
%TF.ProjectId,CTL-4.2,43544c2d-342e-4322-9e6b-696361645f70,rev?*%
%TF.SameCoordinates,Original*%
%TF.FileFunction,Soldermask,Bot*%
%TF.FilePolarity,Negative*%
%FSLAX46Y46*%
G04 Gerber Fmt 4.6, Leading zero omitted, Abs format (unit mm)*
G04 Created by KiCad (PCBNEW 8.0.4) date 2026-01-08 14:31:00*
%MOMM*%
%LPD*%
G01*
G04 APERTURE LIST*
%ADD10C,0.889000*%
%ADD11C,0.508000*%
%ADD12C,2.000000*%
%ADD13C,1.700000*%
%ADD14O,1.700000X1.700000*%
%ADD15C,1.600000*%
%ADD16O,1.600000X1.600000*%
G04 APERTURE END LIST*
D10*
X65532000Y-115887500D02*
G75*
G02*
X64643000Y-115887500I-444500J0D01*
G01*
X64643000Y-115887500D02*
G75*
G02*
X65532000Y-115887500I444500J0D01*
G01*
X102679500Y-115887500D02*
G75*
G02*
X101790500Y-115887500I-444500J0D01*
G01*
X101790500Y-115887500D02*
G75*
G02*
X102679500Y-115887500I444500J0D01*
G01*
X100139500Y-115887500D02*
G75*
G02*
X99250500Y-115887500I-444500J0D01*
G01*
X99250500Y-115887500D02*
G75*
G02*
X100139500Y-115887500I444500J0D01*
G01*
X107759500Y-129857500D02*
G75*
G02*
X106870500Y-129857500I-444500J0D01*
G01*
X106870500Y-129857500D02*
G75*
G02*
X107759500Y-129857500I444500J0D01*
G01*
D11*
X39941500Y-139192000D02*
G75*
G02*
X39433500Y-139192000I-254000J0D01*
G01*
X39433500Y-139192000D02*
G75*
G02*
X39941500Y-139192000I254000J0D01*
G01*
D10*
X107759500Y-124777500D02*
G75*
G02*
X106870500Y-124777500I-444500J0D01*
G01*
X106870500Y-124777500D02*
G75*
G02*
X107759500Y-124777500I444500J0D01*
G01*
D11*
X39941500Y-140652500D02*
G75*
G02*
X39433500Y-140652500I-254000J0D01*
G01*
X39433500Y-140652500D02*
G75*
G02*
X39941500Y-140652500I254000J0D01*
G01*
X38608000Y-139192000D02*
G75*
G02*
X38100000Y-139192000I-254000J0D01*
G01*
X38100000Y-139192000D02*
G75*
G02*
X38608000Y-139192000I254000J0D01*
G01*
D10*
X57912000Y-115887500D02*
G75*
G02*
X57023000Y-115887500I-444500J0D01*
G01*
X57023000Y-115887500D02*
G75*
G02*
X57912000Y-115887500I444500J0D01*
G01*
X60452000Y-115951000D02*
G75*
G02*
X59563000Y-115951000I-444500J0D01*
G01*
X59563000Y-115951000D02*
G75*
G02*
X60452000Y-115951000I444500J0D01*
G01*
D11*
X81534000Y-140652500D02*
G75*
G02*
X81026000Y-140652500I-254000J0D01*
G01*
X81026000Y-140652500D02*
G75*
G02*
X81534000Y-140652500I254000J0D01*
G01*
D10*
X62992000Y-115887500D02*
G75*
G02*
X62103000Y-115887500I-444500J0D01*
G01*
X62103000Y-115887500D02*
G75*
G02*
X62992000Y-115887500I444500J0D01*
G01*
D11*
X80105250Y-140652500D02*
G75*
G02*
X79597250Y-140652500I-254000J0D01*
G01*
X79597250Y-140652500D02*
G75*
G02*
X80105250Y-140652500I254000J0D01*
G01*
D10*
X101409500Y-127317500D02*
G75*
G02*
X100520500Y-127317500I-444500J0D01*
G01*
X100520500Y-127317500D02*
G75*
G02*
X101409500Y-127317500I444500J0D01*
G01*
X105219500Y-115887500D02*
G75*
G02*
X104330500Y-115887500I-444500J0D01*
G01*
X104330500Y-115887500D02*
G75*
G02*
X105219500Y-115887500I444500J0D01*
G01*
X107759500Y-118427500D02*
G75*
G02*
X106870500Y-118427500I-444500J0D01*
G01*
X106870500Y-118427500D02*
G75*
G02*
X107759500Y-118427500I444500J0D01*
G01*
X98869500Y-127317500D02*
G75*
G02*
X97980500Y-127317500I-444500J0D01*
G01*
X97980500Y-127317500D02*
G75*
G02*
X98869500Y-127317500I444500J0D01*
G01*
X107759500Y-115887500D02*
G75*
G02*
X106870500Y-115887500I-444500J0D01*
G01*
X106870500Y-115887500D02*
G75*
G02*
X107759500Y-115887500I444500J0D01*
G01*
X107759500Y-127317500D02*
G75*
G02*
X106870500Y-127317500I-444500J0D01*
G01*
X106870500Y-127317500D02*
G75*
G02*
X107759500Y-127317500I444500J0D01*
G01*
D11*
X38608000Y-140652500D02*
G75*
G02*
X38100000Y-140652500I-254000J0D01*
G01*
X38100000Y-140652500D02*
G75*
G02*
X38608000Y-140652500I254000J0D01*
G01*
D10*
X107759500Y-120967500D02*
G75*
G02*
X106870500Y-120967500I-444500J0D01*
G01*
X106870500Y-120967500D02*
G75*
G02*
X107759500Y-120967500I444500J0D01*
G01*
X98869500Y-124777500D02*
G75*
G02*
X97980500Y-124777500I-444500J0D01*
G01*
X97980500Y-124777500D02*
G75*
G02*
X98869500Y-124777500I444500J0D01*
G01*
D12*
%TO.C,TP3*%
X202565000Y-150177500D03*
X202565000Y-147637500D03*
%TD*%
D13*
%TO.C,J6*%
X121285000Y-115887500D03*
D14*
X123825000Y-115887500D03*
X126365000Y-115887500D03*
X128905000Y-115887500D03*
X131445000Y-115887500D03*
X133985000Y-115887500D03*
%TD*%
D12*
%TO.C,TP2*%
X170180000Y-150177500D03*
X170180000Y-147637500D03*
%TD*%
%TO.C,TP1*%
X137795000Y-150177500D03*
X137795000Y-147637500D03*
%TD*%
D15*
%TO.C,U6*%
X57160000Y-128582500D03*
D16*
X57160000Y-131122500D03*
X64780000Y-131122500D03*
X64780000Y-128582500D03*
%TD*%
D13*
%TO.C,J1*%
X72390000Y-148907500D03*
D14*
X72390000Y-151447500D03*
X69850000Y-148907500D03*
X69850000Y-151447500D03*
X67310000Y-148907500D03*
X67310000Y-151447500D03*
X64770000Y-148907500D03*
X64770000Y-151447500D03*
X62230000Y-148907500D03*
X62230000Y-151447500D03*
X59690000Y-148907500D03*
X59690000Y-151447500D03*
X57150000Y-148907500D03*
X57150000Y-151447500D03*
X54610000Y-148907500D03*
X54610000Y-151447500D03*
X52070000Y-148907500D03*
X52070000Y-151447500D03*
X49530000Y-148907500D03*
X49530000Y-151447500D03*
X46990000Y-148907500D03*
X46990000Y-151447500D03*
X44450000Y-148907500D03*
X44450000Y-151447500D03*
X41910000Y-148907500D03*
X41910000Y-151447500D03*
X39370000Y-148907500D03*
X39370000Y-151447500D03*
X36830000Y-148907500D03*
X36830000Y-151447500D03*
X34290000Y-148907500D03*
X34290000Y-151447500D03*
%TD*%
D15*
%TO.C,U7*%
X57160000Y-136202500D03*
D16*
X57160000Y-138742500D03*
X64780000Y-138742500D03*
X64780000Y-136202500D03*
%TD*%
D13*
%TO.C,J7*%
X121285000Y-120650000D03*
D14*
X123825000Y-120650000D03*
X126365000Y-120650000D03*
X128905000Y-120650000D03*
%TD*%
D13*
%TO.C,J3*%
X35560000Y-127357500D03*
X35560000Y-129857500D03*
X35560000Y-132357500D03*
%TD*%
%TO.C,K1*%
X42042500Y-134742500D03*
X42042500Y-137282500D03*
X42042500Y-144902500D03*
X47122500Y-144902500D03*
X47122500Y-137282500D03*
X47122500Y-134742500D03*
%TD*%
%TO.C,J4*%
X35560000Y-138747500D03*
X35560000Y-141287500D03*
X35560000Y-143827500D03*
%TD*%
%TO.C,J5*%
X49530000Y-115887500D03*
D14*
X49530000Y-118427500D03*
X46990000Y-115887500D03*
X46990000Y-118427500D03*
X44450000Y-115887500D03*
X44450000Y-118427500D03*
X41910000Y-115887500D03*
X41910000Y-118427500D03*
X39370000Y-115887500D03*
X39370000Y-118427500D03*
X36830000Y-115887500D03*
X36830000Y-118427500D03*
%TD*%
M02*
