M48
; DRILL file {KiCad 8.0.4} date 2026-01-08T14:31:15+0700
; FORMAT={-:-/ absolute / metric / decimal}
; #@! TF.CreationDate,2026-01-08T14:31:15+07:00
; #@! TF.GenerationSoftware,Kicad,Pcbnew,8.0.4
; #@! TF.FileFunction,Plated,1,2,PTH
FMAT,2
METRIC
; #@! TA.AperFunction,Plated,PTH,ViaDrill
T1C0.600
; #@! TA.AperFunction,Plated,PTH,ComponentDrill
T2C0.600
; #@! TA.AperFunction,Plated,PTH,ViaDrill
T3C0.635
; #@! TA.AperFunction,Plated,PTH,ComponentDrill
T4C0.800
; #@! TA.AperFunction,Plated,PTH,ComponentDrill
T5C0.950
; #@! TA.AperFunction,Plated,PTH,ViaDrill
T6C1.000
; #@! TA.AperFunction,Plated,PTH,ComponentDrill
T7C1.000
%
G90
G05
T1
X33.655Y-120.015
X33.655Y-121.285
X33.655Y-122.555
X33.655Y-123.825
X33.655Y-153.67
X33.655Y-154.94
X33.655Y-156.21
X33.655Y-157.48
X34.925Y-122.555
X34.925Y-120.015
X34.925Y-121.285
X34.925Y-123.825
X34.925Y-156.21
X34.925Y-153.67
X34.925Y-154.94
X34.925Y-157.48
X38.354Y-139.192
X38.354Y-140.653
X39.688Y-139.192
X39.688Y-140.653
X53.594Y-146.812
X53.657Y-122.237
X53.657Y-124.142
X53.657Y-126.047
X60.642Y-124.142
X60.642Y-126.047
X60.96Y-133.662
X62.23Y-157.734
X69.85Y-137.477
X70.358Y-122.682
X71.247Y-140.97
X71.882Y-121.158
X74.611Y-131.445
X75.565Y-145.327
X75.565Y-150.177
X75.565Y-151.677
X77.425Y-140.653
X77.47Y-116.522
X79.851Y-140.653
X80.01Y-119.38
X81.28Y-140.653
X86.677Y-128.524
X87.63Y-137.477
X87.63Y-142.24
X88.582Y-146.685
X88.582Y-151.13
X88.9Y-124.46
X88.9Y-128.524
X89.852Y-137.477
X93.345Y-138.977
X96.52Y-144.526
X97.155Y-115.887
X101.917Y-144.526
X105.093Y-152.088
X108.585Y-136.843
X109.855Y-115.887
X109.855Y-131.127
X110.49Y-144.526
X112.078Y-135.826
X116.141Y-117.284
X116.205Y-148.912
X117.792Y-126.682
X117.792Y-129.222
X117.792Y-141.922
X118.173Y-115.76
X131.762Y-153.035
X131.762Y-154.305
X132.398Y-126.682
X133.032Y-154.305
X133.033Y-153.035
X134.302Y-153.035
X134.302Y-154.305
X147.002Y-115.57
X147.002Y-116.84
X148.59Y-115.57
X148.59Y-116.84
X150.177Y-115.57
X150.177Y-116.84
X159.702Y-127.0
X159.702Y-128.27
X159.702Y-142.875
X159.702Y-144.145
X160.972Y-118.745
X160.972Y-120.015
X160.972Y-121.285
X160.972Y-128.27
X160.972Y-144.145
X160.972Y-146.05
X160.972Y-147.32
X160.972Y-148.59
X160.973Y-127.0
X160.973Y-142.875
X162.243Y-118.745
X162.243Y-120.015
X162.243Y-121.285
X162.243Y-127.0
X162.243Y-128.27
X162.243Y-142.875
X162.243Y-144.145
X162.243Y-146.05
X162.243Y-147.32
X162.243Y-148.59
X169.545Y-118.745
X169.545Y-120.015
X169.545Y-121.285
X170.815Y-118.745
X170.815Y-120.015
X170.815Y-121.285
X179.387Y-115.57
X179.387Y-116.84
X180.975Y-115.57
X180.975Y-116.84
X182.562Y-115.57
X182.562Y-116.84
X192.087Y-127.0
X192.087Y-128.27
X192.087Y-142.875
X192.087Y-144.145
X193.357Y-118.745
X193.357Y-120.015
X193.357Y-121.285
X193.357Y-128.27
X193.357Y-144.145
X193.357Y-146.05
X193.357Y-147.32
X193.357Y-148.59
X193.358Y-127.0
X193.358Y-142.875
X194.627Y-118.745
X194.627Y-120.015
X194.627Y-121.285
X194.627Y-127.0
X194.627Y-128.27
X194.627Y-142.875
X194.627Y-144.145
X194.627Y-146.05
X194.627Y-147.32
X194.627Y-148.59
X211.772Y-115.57
X211.772Y-116.84
X213.36Y-115.57
X213.36Y-116.84
X214.947Y-115.57
X214.947Y-116.84
X224.472Y-127.0
X224.472Y-128.27
X224.472Y-142.875
X224.472Y-144.145
X225.742Y-118.745
X225.742Y-120.015
X225.742Y-121.285
X225.742Y-128.27
X225.742Y-144.145
X225.742Y-146.05
X225.742Y-147.32
X225.742Y-148.59
X225.743Y-127.0
X225.743Y-142.875
X227.012Y-118.745
X227.012Y-120.015
X227.012Y-121.285
X227.012Y-127.0
X227.012Y-128.27
X227.012Y-142.875
X227.012Y-144.145
X227.012Y-146.05
X227.012Y-147.32
X227.012Y-148.59
T2
X156.845Y-133.032
X156.845Y-134.302
X156.845Y-135.572
X156.845Y-136.843
X156.845Y-138.112
X158.115Y-133.032
X158.115Y-134.302
X158.115Y-135.572
X158.115Y-136.843
X158.115Y-138.112
X159.385Y-133.032
X159.385Y-134.302
X159.385Y-135.572
X159.385Y-136.843
X159.385Y-138.112
X160.655Y-133.032
X160.655Y-134.302
X160.655Y-135.572
X160.655Y-136.843
X160.655Y-138.112
X189.23Y-133.032
X189.23Y-134.302
X189.23Y-135.572
X189.23Y-136.843
X189.23Y-138.112
X190.5Y-133.032
X190.5Y-134.302
X190.5Y-135.572
X190.5Y-136.843
X190.5Y-138.112
X191.77Y-133.032
X191.77Y-134.302
X191.77Y-135.572
X191.77Y-136.843
X191.77Y-138.112
X193.04Y-133.032
X193.04Y-134.302
X193.04Y-135.572
X193.04Y-136.843
X193.04Y-138.112
X221.615Y-133.032
X221.615Y-134.302
X221.615Y-135.572
X221.615Y-136.843
X221.615Y-138.112
X222.885Y-133.032
X222.885Y-134.302
X222.885Y-135.572
X222.885Y-136.843
X222.885Y-138.112
X224.155Y-133.032
X224.155Y-134.302
X224.155Y-135.572
X224.155Y-136.843
X224.155Y-138.112
X225.425Y-133.032
X225.425Y-134.302
X225.425Y-135.572
X225.425Y-136.843
X225.425Y-138.112
T3
X59.69Y-153.987
X67.31Y-153.987
X92.392Y-114.935
T4
X57.16Y-128.582
X57.16Y-131.123
X57.16Y-136.202
X57.16Y-138.743
X64.78Y-128.582
X64.78Y-131.123
X64.78Y-136.202
X64.78Y-138.743
T5
X35.56Y-127.357
X35.56Y-129.857
X35.56Y-132.357
X35.56Y-138.748
X35.56Y-141.287
X35.56Y-143.827
T6
X58.737Y-115.887
X61.277Y-115.951
X63.817Y-115.887
X66.358Y-115.887
X98.425Y-124.777
X98.425Y-127.317
X99.695Y-115.887
X100.965Y-127.317
X102.235Y-115.887
X104.775Y-115.887
X107.315Y-115.887
X107.315Y-118.427
X107.315Y-120.968
X107.315Y-124.777
X107.315Y-127.317
X107.315Y-129.857
T7
X34.29Y-148.907
X34.29Y-151.447
X36.83Y-115.887
X36.83Y-118.427
X36.83Y-148.907
X36.83Y-151.447
X39.37Y-115.887
X39.37Y-118.427
X39.37Y-148.907
X39.37Y-151.447
X41.91Y-115.887
X41.91Y-118.427
X41.91Y-148.907
X41.91Y-151.447
X42.042Y-134.743
X42.042Y-137.282
X42.042Y-144.903
X44.45Y-115.887
X44.45Y-118.427
X44.45Y-148.907
X44.45Y-151.447
X46.99Y-115.887
X46.99Y-118.427
X46.99Y-148.907
X46.99Y-151.447
X47.122Y-134.743
X47.122Y-137.282
X47.122Y-144.903
X49.53Y-115.887
X49.53Y-118.427
X49.53Y-148.907
X49.53Y-151.447
X52.07Y-148.907
X52.07Y-151.447
X54.61Y-148.907
X54.61Y-151.447
X57.15Y-148.907
X57.15Y-151.447
X59.69Y-148.907
X59.69Y-151.447
X62.23Y-148.907
X62.23Y-151.447
X64.77Y-148.907
X64.77Y-151.447
X67.31Y-148.907
X67.31Y-151.447
X69.85Y-148.907
X69.85Y-151.447
X72.39Y-148.907
X72.39Y-151.447
X121.285Y-115.887
X121.285Y-120.65
X123.825Y-115.887
X123.825Y-120.65
X126.365Y-115.887
X126.365Y-120.65
X128.905Y-115.887
X128.905Y-120.65
X131.445Y-115.887
X133.985Y-115.887
X137.795Y-147.637
X137.795Y-150.177
X170.18Y-147.637
X170.18Y-150.177
X202.565Y-147.637
X202.565Y-150.177
M30
