%TF.GenerationSoftware,KiCad,Pcbnew,8.0.4*%
%TF.CreationDate,2026-01-15T15:49:11+07:00*%
%TF.ProjectId,CTL-4.2,43544c2d-342e-4322-9e6b-696361645f70,rev?*%
%TF.SameCoordinates,Original*%
%TF.FileFunction,Soldermask,Bot*%
%TF.FilePolarity,Negative*%
%FSLAX46Y46*%
G04 Gerber Fmt 4.6, Leading zero omitted, Abs format (unit mm)*
G04 Created by KiCad (PCBNEW 8.0.4) date 2026-01-15 15:49:11*
%MOMM*%
%LPD*%
G01*
G04 APERTURE LIST*
%ADD10C,1.587500*%
%ADD11C,0.793750*%
%ADD12C,0.508000*%
%ADD13C,2.000000*%
%ADD14C,1.587500*%
%ADD15O,1.587500X1.587500*%
%ADD16C,2.000000*%
%ADD17C,1.600000*%
%ADD18O,1.600000X1.600000*%
%ADD19C,1.700000*%
G04 APERTURE END LIST*
D10*
X41910000Y-148907500D02*
X41910000Y-151447500D01*
X57150000Y-148907500D02*
X57150000Y-151447500D01*
D11*
X66436875Y-115887500D02*
G75*
G02*
X65643125Y-115887500I-396875J0D01*
G01*
X65643125Y-115887500D02*
G75*
G02*
X66436875Y-115887500I396875J0D01*
G01*
D10*
X52070000Y-148907500D02*
X52070000Y-151447500D01*
X54610000Y-148907500D02*
X54610000Y-151447500D01*
D11*
X102631875Y-115887500D02*
G75*
G02*
X101838125Y-115887500I-396875J0D01*
G01*
X101838125Y-115887500D02*
G75*
G02*
X102631875Y-115887500I396875J0D01*
G01*
X100091875Y-115887500D02*
G75*
G02*
X99298125Y-115887500I-396875J0D01*
G01*
X99298125Y-115887500D02*
G75*
G02*
X100091875Y-115887500I396875J0D01*
G01*
X107711875Y-129857500D02*
G75*
G02*
X106918125Y-129857500I-396875J0D01*
G01*
X106918125Y-129857500D02*
G75*
G02*
X107711875Y-129857500I396875J0D01*
G01*
D12*
X40100250Y-139223750D02*
G75*
G02*
X39592250Y-139223750I-254000J0D01*
G01*
X39592250Y-139223750D02*
G75*
G02*
X40100250Y-139223750I254000J0D01*
G01*
D11*
X107711875Y-124777500D02*
G75*
G02*
X106918125Y-124777500I-396875J0D01*
G01*
X106918125Y-124777500D02*
G75*
G02*
X107711875Y-124777500I396875J0D01*
G01*
D10*
X46990000Y-148907500D02*
X46990000Y-151447500D01*
D12*
X40100250Y-140652500D02*
G75*
G02*
X39592250Y-140652500I-254000J0D01*
G01*
X39592250Y-140652500D02*
G75*
G02*
X40100250Y-140652500I254000J0D01*
G01*
X38671500Y-139223750D02*
G75*
G02*
X38163500Y-139223750I-254000J0D01*
G01*
X38163500Y-139223750D02*
G75*
G02*
X38671500Y-139223750I254000J0D01*
G01*
D10*
X59690000Y-148907500D02*
X59690000Y-151447500D01*
D11*
X58816875Y-115887500D02*
G75*
G02*
X58023125Y-115887500I-396875J0D01*
G01*
X58023125Y-115887500D02*
G75*
G02*
X58816875Y-115887500I396875J0D01*
G01*
D10*
X49530000Y-148907500D02*
X49530000Y-151447500D01*
D11*
X61356875Y-115951000D02*
G75*
G02*
X60563125Y-115951000I-396875J0D01*
G01*
X60563125Y-115951000D02*
G75*
G02*
X61356875Y-115951000I396875J0D01*
G01*
D13*
X202565000Y-147637500D02*
X202565000Y-150177500D01*
D12*
X81534000Y-134302500D02*
G75*
G02*
X81026000Y-134302500I-254000J0D01*
G01*
X81026000Y-134302500D02*
G75*
G02*
X81534000Y-134302500I254000J0D01*
G01*
D11*
X63896875Y-115887500D02*
G75*
G02*
X63103125Y-115887500I-396875J0D01*
G01*
X63103125Y-115887500D02*
G75*
G02*
X63896875Y-115887500I396875J0D01*
G01*
D10*
X62230000Y-148907500D02*
X62230000Y-151447500D01*
D12*
X80105250Y-134302500D02*
G75*
G02*
X79597250Y-134302500I-254000J0D01*
G01*
X79597250Y-134302500D02*
G75*
G02*
X80105250Y-134302500I254000J0D01*
G01*
D10*
X72390000Y-148907500D02*
X72390000Y-151447500D01*
D11*
X101361875Y-127317500D02*
G75*
G02*
X100568125Y-127317500I-396875J0D01*
G01*
X100568125Y-127317500D02*
G75*
G02*
X101361875Y-127317500I396875J0D01*
G01*
X105171875Y-115887500D02*
G75*
G02*
X104378125Y-115887500I-396875J0D01*
G01*
X104378125Y-115887500D02*
G75*
G02*
X105171875Y-115887500I396875J0D01*
G01*
D10*
X44450000Y-148907500D02*
X44450000Y-151447500D01*
D11*
X107711875Y-118427500D02*
G75*
G02*
X106918125Y-118427500I-396875J0D01*
G01*
X106918125Y-118427500D02*
G75*
G02*
X107711875Y-118427500I396875J0D01*
G01*
X98821875Y-127317500D02*
G75*
G02*
X98028125Y-127317500I-396875J0D01*
G01*
X98028125Y-127317500D02*
G75*
G02*
X98821875Y-127317500I396875J0D01*
G01*
D10*
X36830000Y-148907500D02*
X36830000Y-151447500D01*
X39370000Y-148907500D02*
X39370000Y-151447500D01*
D11*
X107711875Y-115887500D02*
G75*
G02*
X106918125Y-115887500I-396875J0D01*
G01*
X106918125Y-115887500D02*
G75*
G02*
X107711875Y-115887500I396875J0D01*
G01*
D10*
X67310000Y-148907500D02*
X67310000Y-151447500D01*
D11*
X107711875Y-127317500D02*
G75*
G02*
X106918125Y-127317500I-396875J0D01*
G01*
X106918125Y-127317500D02*
G75*
G02*
X107711875Y-127317500I396875J0D01*
G01*
D13*
X170180000Y-147637500D02*
X170180000Y-150177500D01*
D10*
X69850000Y-148907500D02*
X69850000Y-151447500D01*
D12*
X38671500Y-140652500D02*
G75*
G02*
X38163500Y-140652500I-254000J0D01*
G01*
X38163500Y-140652500D02*
G75*
G02*
X38671500Y-140652500I254000J0D01*
G01*
D11*
X107711875Y-120967500D02*
G75*
G02*
X106918125Y-120967500I-396875J0D01*
G01*
X106918125Y-120967500D02*
G75*
G02*
X107711875Y-120967500I396875J0D01*
G01*
X98821875Y-124777500D02*
G75*
G02*
X98028125Y-124777500I-396875J0D01*
G01*
X98028125Y-124777500D02*
G75*
G02*
X98821875Y-124777500I396875J0D01*
G01*
D10*
X34290000Y-148907500D02*
X34290000Y-151447500D01*
D13*
X137795000Y-147637500D02*
X137795000Y-150177500D01*
D10*
X64770000Y-148907500D02*
X64770000Y-151447500D01*
D14*
%TO.C,J1*%
X72390000Y-148907500D03*
D15*
X72390000Y-151447500D03*
X69850000Y-148907500D03*
X69850000Y-151447500D03*
X67310000Y-148907500D03*
X67310000Y-151447500D03*
X64770000Y-148907500D03*
X64770000Y-151447500D03*
X62230000Y-148907500D03*
X62230000Y-151447500D03*
X59690000Y-148907500D03*
X59690000Y-151447500D03*
X57150000Y-148907500D03*
X57150000Y-151447500D03*
X54610000Y-148907500D03*
X54610000Y-151447500D03*
X52070000Y-148907500D03*
X52070000Y-151447500D03*
X49530000Y-148907500D03*
X49530000Y-151447500D03*
X46990000Y-148907500D03*
X46990000Y-151447500D03*
X44450000Y-148907500D03*
X44450000Y-151447500D03*
X41910000Y-148907500D03*
X41910000Y-151447500D03*
X39370000Y-148907500D03*
X39370000Y-151447500D03*
X36830000Y-148907500D03*
X36830000Y-151447500D03*
X34290000Y-148907500D03*
X34290000Y-151447500D03*
%TD*%
D16*
%TO.C,TP3*%
X202565000Y-150177500D03*
X202565000Y-147637500D03*
%TD*%
D14*
%TO.C,J6*%
X121285000Y-115887500D03*
D15*
X123825000Y-115887500D03*
X126365000Y-115887500D03*
X128905000Y-115887500D03*
X131445000Y-115887500D03*
X133985000Y-115887500D03*
%TD*%
D16*
%TO.C,TP2*%
X170180000Y-147637500D03*
X170180000Y-150177500D03*
%TD*%
%TO.C,TP1*%
X137795000Y-150177500D03*
X137795000Y-147637500D03*
%TD*%
D17*
%TO.C,U6*%
X57160000Y-128582500D03*
D18*
X57160000Y-131122500D03*
X64780000Y-131122500D03*
X64780000Y-128582500D03*
%TD*%
D17*
%TO.C,U7*%
X57160000Y-136202500D03*
D18*
X57160000Y-138742500D03*
X64780000Y-138742500D03*
X64780000Y-136202500D03*
%TD*%
D14*
%TO.C,J7*%
X121285000Y-120650000D03*
X123825000Y-120650000D03*
X126365000Y-120650000D03*
X128905000Y-120650000D03*
%TD*%
D17*
%TO.C,J3*%
X35560000Y-127357500D03*
X35560000Y-129857500D03*
X35560000Y-132357500D03*
%TD*%
%TO.C,K1*%
X42042500Y-134742500D03*
X42042500Y-137282500D03*
D19*
X42042500Y-144902500D03*
X47122500Y-144902500D03*
D17*
X47122500Y-137282500D03*
X47122500Y-134742500D03*
%TD*%
D19*
%TO.C,J4*%
X35560000Y-138747500D03*
X35560000Y-141287500D03*
X35560000Y-143827500D03*
%TD*%
D14*
%TO.C,J5*%
X49530000Y-115887500D03*
X49530000Y-118427500D03*
X46990000Y-115887500D03*
X46990000Y-118427500D03*
X44450000Y-115887500D03*
X44450000Y-118427500D03*
X41910000Y-115887500D03*
X41910000Y-118427500D03*
X39370000Y-115887500D03*
X39370000Y-118427500D03*
X36830000Y-115887500D03*
X36830000Y-118427500D03*
%TD*%
M02*
