M48
; DRILL file {KiCad 8.0.4} date 2026-01-15T15:49:20+0700
; FORMAT={-:-/ absolute / metric / decimal}
; #@! TF.CreationDate,2026-01-15T15:49:20+07:00
; #@! TF.GenerationSoftware,Kicad,Pcbnew,8.0.4
; #@! TF.FileFunction,Plated,1,2,PTH
FMAT,2
METRIC
; #@! TA.AperFunction,Plated,PTH,ViaDrill
T1C0.600
; #@! TA.AperFunction,Plated,PTH,ComponentDrill
T2C0.600
; #@! TA.AperFunction,Plated,PTH,ComponentDrill
T3C0.800
; #@! TA.AperFunction,Plated,PTH,ComponentDrill
T4C0.950
; #@! TA.AperFunction,Plated,PTH,ViaDrill
T5C1.000
; #@! TA.AperFunction,Plated,PTH,ComponentDrill
T6C1.000
%
G90
G05
T1
X33.02Y-120.332
X33.02Y-121.602
X33.02Y-122.872
X33.02Y-124.142
X33.02Y-153.67
X33.02Y-154.94
X33.02Y-156.21
X33.02Y-157.48
X34.29Y-123.507
X34.29Y-156.845
X34.29Y-120.968
X34.29Y-122.237
X34.29Y-154.305
X34.29Y-155.575
X35.56Y-120.332
X35.56Y-121.602
X35.56Y-122.872
X35.56Y-124.142
X35.56Y-153.67
X35.56Y-154.94
X35.56Y-156.21
X35.56Y-157.48
X38.417Y-139.224
X38.417Y-140.653
X39.846Y-139.224
X39.846Y-140.653
X44.45Y-143.034
X50.8Y-128.111
X50.8Y-129.381
X52.07Y-128.746
X53.34Y-146.812
X53.657Y-124.142
X53.657Y-126.047
X54.61Y-122.237
X55.88Y-144.78
X57.15Y-117.157
X57.15Y-118.428
X58.42Y-117.792
X59.69Y-136.207
X59.69Y-137.477
X59.69Y-138.748
X59.69Y-146.685
X59.69Y-155.575
X60.642Y-124.142
X60.642Y-126.047
X60.96Y-146.05
X60.96Y-138.112
X60.96Y-147.32
X60.96Y-133.662
X60.96Y-136.843
X60.96Y-156.21
X62.23Y-136.207
X62.23Y-137.477
X62.23Y-138.748
X63.5Y-146.05
X63.5Y-147.32
X64.77Y-146.685
X69.374Y-122.523
X69.85Y-137.477
X70.644Y-140.811
X70.898Y-120.968
X75.089Y-127.0
X75.089Y-129.54
X77.425Y-134.302
X79.851Y-134.302
X79.851Y-139.224
X79.851Y-145.574
X79.851Y-150.177
X79.851Y-151.924
X81.28Y-134.302
X82.709Y-115.252
X82.709Y-119.062
X83.979Y-126.682
X83.979Y-127.953
X83.979Y-114.617
X83.979Y-115.888
X83.979Y-118.427
X85.249Y-115.252
X85.249Y-117.157
X85.249Y-119.062
X85.249Y-127.317
X85.725Y-139.7
X85.725Y-142.875
X86.677Y-126.206
X87.63Y-133.35
X88.582Y-146.685
X88.582Y-151.13
X88.741Y-139.7
X88.9Y-126.206
X89.852Y-135.096
X90.805Y-123.349
X92.392Y-118.427
X92.71Y-135.255
X92.71Y-136.525
X92.71Y-137.795
X93.98Y-137.16
X93.98Y-135.89
X95.25Y-135.255
X95.25Y-136.525
X95.25Y-137.795
X96.52Y-144.526
X97.155Y-115.887
X97.155Y-131.127
X102.235Y-135.255
X102.235Y-136.525
X102.235Y-137.795
X102.394Y-144.939
X103.505Y-137.16
X103.505Y-135.89
X104.616Y-151.606
X104.775Y-135.255
X104.775Y-136.525
X104.775Y-137.795
X108.585Y-136.843
X109.855Y-115.887
X109.855Y-123.507
X109.855Y-131.127
X110.49Y-144.526
X112.078Y-135.826
X116.141Y-117.284
X116.205Y-148.912
X117.792Y-126.682
X117.792Y-129.222
X117.792Y-141.922
X118.173Y-115.76
X126.365Y-118.904
X126.365Y-146.05
X126.365Y-147.32
X126.365Y-148.59
X126.365Y-151.765
X126.365Y-153.035
X126.365Y-154.305
X127.0Y-117.634
X127.635Y-147.955
X127.635Y-153.67
X127.635Y-118.904
X127.635Y-146.685
X127.635Y-152.4
X128.27Y-117.634
X128.905Y-118.904
X128.905Y-146.05
X128.905Y-147.32
X128.905Y-148.59
X128.905Y-151.765
X128.905Y-153.035
X128.905Y-154.305
X130.175Y-147.955
X130.175Y-153.67
X130.175Y-146.685
X130.175Y-152.4
X131.445Y-146.05
X131.445Y-147.32
X131.445Y-148.59
X131.445Y-151.765
X131.445Y-153.035
X131.445Y-154.305
X132.398Y-126.682
X142.081Y-114.935
X142.081Y-116.205
X142.081Y-118.745
X142.081Y-120.015
X142.081Y-121.285
X142.081Y-123.825
X142.081Y-125.095
X143.351Y-116.84
X143.351Y-120.65
X143.351Y-124.46
X143.351Y-115.57
X143.351Y-119.38
X143.351Y-123.19
X144.621Y-114.935
X144.621Y-116.205
X144.621Y-118.745
X144.621Y-120.015
X144.621Y-121.285
X144.621Y-123.825
X144.621Y-125.095
X147.32Y-116.84
X147.955Y-115.57
X148.59Y-116.84
X149.225Y-115.57
X149.86Y-116.84
X159.385Y-126.365
X159.385Y-127.635
X159.385Y-128.905
X160.655Y-128.27
X160.655Y-118.745
X160.655Y-120.015
X160.655Y-121.285
X160.655Y-127.0
X160.655Y-146.05
X160.655Y-147.32
X160.655Y-148.59
X161.925Y-120.65
X161.925Y-147.955
X161.925Y-119.38
X161.925Y-126.365
X161.925Y-127.635
X161.925Y-128.905
X161.925Y-146.685
X163.195Y-128.27
X163.195Y-118.745
X163.195Y-120.015
X163.195Y-121.285
X163.195Y-127.0
X163.195Y-146.05
X163.195Y-147.32
X163.195Y-148.59
X166.052Y-155.575
X167.322Y-156.21
X168.593Y-153.67
X168.593Y-155.575
X169.545Y-118.745
X169.545Y-120.015
X169.545Y-121.285
X170.815Y-120.65
X170.815Y-119.38
X172.085Y-118.745
X172.085Y-120.015
X172.085Y-121.285
X179.705Y-116.84
X180.34Y-115.57
X180.975Y-116.84
X181.61Y-115.57
X182.245Y-116.84
X191.77Y-126.365
X191.77Y-127.635
X191.77Y-128.905
X193.04Y-128.27
X193.04Y-118.745
X193.04Y-120.015
X193.04Y-121.285
X193.04Y-127.0
X193.04Y-146.05
X193.04Y-147.32
X193.04Y-148.59
X194.31Y-120.65
X194.31Y-147.955
X194.31Y-119.38
X194.31Y-126.365
X194.31Y-127.635
X194.31Y-128.905
X194.31Y-146.685
X195.58Y-128.27
X195.58Y-118.745
X195.58Y-120.015
X195.58Y-121.285
X195.58Y-127.0
X195.58Y-146.05
X195.58Y-147.32
X195.58Y-148.59
X212.09Y-116.84
X212.725Y-115.57
X213.36Y-116.84
X213.995Y-115.57
X214.63Y-116.84
X224.155Y-126.365
X224.155Y-127.635
X224.155Y-128.905
X225.425Y-128.27
X225.425Y-118.745
X225.425Y-120.015
X225.425Y-121.285
X225.425Y-127.0
X225.425Y-146.05
X225.425Y-147.32
X225.425Y-148.59
X226.695Y-120.65
X226.695Y-147.955
X226.695Y-119.38
X226.695Y-126.365
X226.695Y-127.635
X226.695Y-128.905
X226.695Y-146.685
X227.965Y-128.27
X227.965Y-118.745
X227.965Y-120.015
X227.965Y-121.285
X227.965Y-127.0
X227.965Y-146.05
X227.965Y-147.32
X227.965Y-148.59
T2
X156.845Y-132.398
X156.845Y-133.667
X156.845Y-137.477
X156.845Y-138.748
X158.115Y-131.762
X158.115Y-133.032
X158.115Y-134.302
X158.115Y-135.572
X158.115Y-136.843
X158.115Y-138.112
X158.115Y-139.382
X159.385Y-133.667
X159.385Y-134.938
X159.385Y-136.207
X159.385Y-137.477
X160.655Y-131.762
X160.655Y-133.032
X160.655Y-134.302
X160.655Y-135.572
X160.655Y-136.843
X160.655Y-138.112
X160.655Y-139.382
X161.925Y-132.398
X161.925Y-133.667
X161.925Y-137.477
X161.925Y-138.748
X189.23Y-132.398
X189.23Y-133.667
X189.23Y-137.477
X189.23Y-138.748
X190.5Y-131.762
X190.5Y-133.032
X190.5Y-134.302
X190.5Y-135.572
X190.5Y-136.843
X190.5Y-138.112
X190.5Y-139.382
X191.77Y-133.667
X191.77Y-134.938
X191.77Y-136.207
X191.77Y-137.477
X193.04Y-131.762
X193.04Y-133.032
X193.04Y-134.302
X193.04Y-135.572
X193.04Y-136.843
X193.04Y-138.112
X193.04Y-139.382
X194.31Y-132.398
X194.31Y-133.667
X194.31Y-137.477
X194.31Y-138.748
X221.615Y-132.398
X221.615Y-133.667
X221.615Y-137.477
X221.615Y-138.748
X222.885Y-131.762
X222.885Y-133.032
X222.885Y-134.302
X222.885Y-135.572
X222.885Y-136.843
X222.885Y-138.112
X222.885Y-139.382
X224.155Y-133.667
X224.155Y-134.938
X224.155Y-136.207
X224.155Y-137.477
X225.425Y-131.762
X225.425Y-133.032
X225.425Y-134.302
X225.425Y-135.572
X225.425Y-136.843
X225.425Y-138.112
X225.425Y-139.382
X226.695Y-132.398
X226.695Y-133.667
X226.695Y-137.477
X226.695Y-138.748
T3
X57.16Y-128.582
X57.16Y-131.123
X57.16Y-136.202
X57.16Y-138.743
X64.78Y-128.582
X64.78Y-131.123
X64.78Y-136.202
X64.78Y-138.743
T4
X35.56Y-127.357
X35.56Y-129.857
X35.56Y-132.357
X35.56Y-138.748
X35.56Y-141.287
X35.56Y-143.827
T5
X58.42Y-115.887
X60.96Y-115.951
X63.5Y-115.887
X66.04Y-115.887
X98.425Y-124.777
X98.425Y-127.317
X99.695Y-115.887
X100.965Y-127.317
X102.235Y-115.887
X104.775Y-115.887
X107.315Y-115.887
X107.315Y-118.427
X107.315Y-120.968
X107.315Y-124.777
X107.315Y-127.317
X107.315Y-129.857
T6
X34.29Y-148.907
X34.29Y-151.447
X36.83Y-115.887
X36.83Y-118.427
X36.83Y-148.907
X36.83Y-151.447
X39.37Y-115.887
X39.37Y-118.427
X39.37Y-148.907
X39.37Y-151.447
X41.91Y-115.887
X41.91Y-118.427
X41.91Y-148.907
X41.91Y-151.447
X42.042Y-134.743
X42.042Y-137.282
X42.042Y-144.903
X44.45Y-115.887
X44.45Y-118.427
X44.45Y-148.907
X44.45Y-151.447
X46.99Y-115.887
X46.99Y-118.427
X46.99Y-148.907
X46.99Y-151.447
X47.122Y-134.743
X47.122Y-137.282
X47.122Y-144.903
X49.53Y-115.887
X49.53Y-118.427
X49.53Y-148.907
X49.53Y-151.447
X52.07Y-148.907
X52.07Y-151.447
X54.61Y-148.907
X54.61Y-151.447
X57.15Y-148.907
X57.15Y-151.447
X59.69Y-148.907
X59.69Y-151.447
X62.23Y-148.907
X62.23Y-151.447
X64.77Y-148.907
X64.77Y-151.447
X67.31Y-148.907
X67.31Y-151.447
X69.85Y-148.907
X69.85Y-151.447
X72.39Y-148.907
X72.39Y-151.447
X121.285Y-115.887
X121.285Y-120.65
X123.825Y-115.887
X123.825Y-120.65
X126.365Y-115.887
X126.365Y-120.65
X128.905Y-115.887
X128.905Y-120.65
X131.445Y-115.887
X133.985Y-115.887
X137.795Y-147.637
X137.795Y-150.177
X170.18Y-147.637
X170.18Y-150.177
X202.565Y-147.637
X202.565Y-150.177
M30
