%TF.GenerationSoftware,KiCad,Pcbnew,8.0.4*%
%TF.CreationDate,2026-01-19T09:08:16+07:00*%
%TF.ProjectId,CTL-4.3,43544c2d-342e-4332-9e6b-696361645f70,rev?*%
%TF.SameCoordinates,Original*%
%TF.FileFunction,Soldermask,Top*%
%TF.FilePolarity,Negative*%
%FSLAX46Y46*%
G04 Gerber Fmt 4.6, Leading zero omitted, Abs format (unit mm)*
G04 Created by KiCad (PCBNEW 8.0.4) date 2026-01-19 09:08:16*
%MOMM*%
%LPD*%
G01*
G04 APERTURE LIST*
G04 Aperture macros list*
%AMFreePoly0*
4,1,9,3.968750,-0.793750,0.762000,-0.793750,0.762000,-0.476250,-0.793750,-0.476250,-0.793750,0.476250,0.762000,0.476250,0.762000,0.793750,3.968750,0.793750,3.968750,-0.793750,3.968750,-0.793750,$1*%
G04 Aperture macros list end*
%ADD10C,0.793750*%
%ADD11R,1.400000X1.600000*%
%ADD12R,3.100000X1.600000*%
%ADD13R,1.270000X0.952500*%
%ADD14C,2.000000*%
%ADD15R,1.905000X1.270000*%
%ADD16C,1.587500*%
%ADD17O,1.587500X1.587500*%
%ADD18R,1.428750X0.793750*%
%ADD19FreePoly0,180.000000*%
%ADD20R,5.715000X3.810000*%
%ADD21C,1.600000*%
%ADD22O,1.600000X1.600000*%
%ADD23R,1.270000X1.905000*%
%ADD24FreePoly0,0.000000*%
%ADD25R,0.952500X1.270000*%
%ADD26R,2.540000X1.905000*%
%ADD27R,1.905000X2.540000*%
%ADD28R,4.445000X2.540000*%
%ADD29R,3.492500X1.016000*%
%ADD30R,9.525000X11.430000*%
%ADD31R,1.587500X1.270000*%
%ADD32R,0.610000X2.000000*%
%ADD33R,2.680000X3.600000*%
%ADD34C,1.700000*%
%ADD35R,1.270000X0.508000*%
%ADD36R,1.428750X0.952500*%
%ADD37R,0.952500X1.428750*%
%ADD38R,3.700000X3.700000*%
G04 APERTURE END LIST*
D10*
X47386875Y-15875000D02*
G75*
G02*
X46593125Y-15875000I-396875J0D01*
G01*
X46593125Y-15875000D02*
G75*
G02*
X47386875Y-15875000I396875J0D01*
G01*
X39766875Y-15875000D02*
G75*
G02*
X38973125Y-15875000I-396875J0D01*
G01*
X38973125Y-15875000D02*
G75*
G02*
X39766875Y-15875000I396875J0D01*
G01*
X88661875Y-27305000D02*
G75*
G02*
X87868125Y-27305000I-396875J0D01*
G01*
X87868125Y-27305000D02*
G75*
G02*
X88661875Y-27305000I396875J0D01*
G01*
X88661875Y-20955000D02*
G75*
G02*
X87868125Y-20955000I-396875J0D01*
G01*
X87868125Y-20955000D02*
G75*
G02*
X88661875Y-20955000I396875J0D01*
G01*
X88661875Y-15875000D02*
G75*
G02*
X87868125Y-15875000I-396875J0D01*
G01*
X87868125Y-15875000D02*
G75*
G02*
X88661875Y-15875000I396875J0D01*
G01*
X79771875Y-27305000D02*
G75*
G02*
X78978125Y-27305000I-396875J0D01*
G01*
X78978125Y-27305000D02*
G75*
G02*
X79771875Y-27305000I396875J0D01*
G01*
X83581875Y-15875000D02*
G75*
G02*
X82788125Y-15875000I-396875J0D01*
G01*
X82788125Y-15875000D02*
G75*
G02*
X83581875Y-15875000I396875J0D01*
G01*
X42306875Y-15938500D02*
G75*
G02*
X41513125Y-15938500I-396875J0D01*
G01*
X41513125Y-15938500D02*
G75*
G02*
X42306875Y-15938500I396875J0D01*
G01*
X88661875Y-18415000D02*
G75*
G02*
X87868125Y-18415000I-396875J0D01*
G01*
X87868125Y-18415000D02*
G75*
G02*
X88661875Y-18415000I396875J0D01*
G01*
X81041875Y-15875000D02*
G75*
G02*
X80248125Y-15875000I-396875J0D01*
G01*
X80248125Y-15875000D02*
G75*
G02*
X81041875Y-15875000I396875J0D01*
G01*
X88661875Y-29845000D02*
G75*
G02*
X87868125Y-29845000I-396875J0D01*
G01*
X87868125Y-29845000D02*
G75*
G02*
X88661875Y-29845000I396875J0D01*
G01*
X82311875Y-27305000D02*
G75*
G02*
X81518125Y-27305000I-396875J0D01*
G01*
X81518125Y-27305000D02*
G75*
G02*
X82311875Y-27305000I396875J0D01*
G01*
X86121875Y-15875000D02*
G75*
G02*
X85328125Y-15875000I-396875J0D01*
G01*
X85328125Y-15875000D02*
G75*
G02*
X86121875Y-15875000I396875J0D01*
G01*
X79771875Y-24765000D02*
G75*
G02*
X78978125Y-24765000I-396875J0D01*
G01*
X78978125Y-24765000D02*
G75*
G02*
X79771875Y-24765000I396875J0D01*
G01*
X44846875Y-15875000D02*
G75*
G02*
X44053125Y-15875000I-396875J0D01*
G01*
X44053125Y-15875000D02*
G75*
G02*
X44846875Y-15875000I396875J0D01*
G01*
X88661875Y-24765000D02*
G75*
G02*
X87868125Y-24765000I-396875J0D01*
G01*
X87868125Y-24765000D02*
G75*
G02*
X88661875Y-24765000I396875J0D01*
G01*
D11*
%TO.C,SW2*%
X69505000Y-52900000D03*
X69505000Y-44900000D03*
X74005000Y-52900000D03*
X74005000Y-44900000D03*
%TD*%
D12*
%TO.C,U5*%
X101600000Y-26670000D03*
X101600000Y-29210000D03*
X101600000Y-31750000D03*
X101600000Y-34290000D03*
X101600000Y-36830000D03*
X101600000Y-39370000D03*
X101600000Y-41910000D03*
X110490000Y-41910000D03*
X110490000Y-39370000D03*
X110490000Y-36830000D03*
X110490000Y-34290000D03*
X110490000Y-31750000D03*
X110490000Y-29210000D03*
X110490000Y-26670000D03*
%TD*%
D13*
%TO.C,R19*%
X64135000Y-51276250D03*
X64135000Y-49053750D03*
%TD*%
D14*
%TO.C,TP3*%
X183515000Y-50165000D03*
X183515000Y-47625000D03*
%TD*%
D15*
%TO.C,R14*%
X30480000Y-22225000D03*
X30480000Y-25400000D03*
%TD*%
D16*
%TO.C,J6*%
X102235000Y-15875000D03*
D17*
X104775000Y-15875000D03*
X107315000Y-15875000D03*
X109855000Y-15875000D03*
X112395000Y-15875000D03*
X114935000Y-15875000D03*
%TD*%
D18*
%TO.C,Q1*%
X80089375Y-49773125D03*
D19*
X80010000Y-48265000D03*
D18*
X80089375Y-46756875D03*
%TD*%
D13*
%TO.C,R22*%
X70802500Y-32226249D03*
X70802500Y-30003751D03*
%TD*%
D14*
%TO.C,TP2*%
X151130000Y-50165000D03*
X151130000Y-47625000D03*
%TD*%
D11*
%TO.C,SW1*%
X94905000Y-52900000D03*
X94905000Y-44900000D03*
X99405000Y-52900000D03*
X99405000Y-44900000D03*
%TD*%
D14*
%TO.C,TP1*%
X118745000Y-50165000D03*
X118745000Y-47625000D03*
%TD*%
D20*
%TO.C,L2*%
X152717500Y-30480000D03*
X152717500Y-40640000D03*
%TD*%
D21*
%TO.C,U6*%
X38110000Y-28570000D03*
D22*
X38110000Y-31110000D03*
X45730000Y-31110000D03*
X45730000Y-28570000D03*
%TD*%
D13*
%TO.C,R17*%
X58261250Y-26352500D03*
X58261250Y-24130000D03*
%TD*%
D23*
%TO.C,D5*%
X157797500Y-50482500D03*
X154622500Y-50482500D03*
%TD*%
D18*
%TO.C,Q5*%
X58340625Y-48656875D03*
D24*
X58420000Y-50165000D03*
D18*
X58340625Y-51673125D03*
%TD*%
D13*
%TO.C,C9*%
X71596250Y-17303751D03*
X71596250Y-19526249D03*
%TD*%
%TO.C,R4*%
X64135000Y-32226250D03*
X64135000Y-30003750D03*
%TD*%
D16*
%TO.C,J1*%
X53340000Y-48895000D03*
D17*
X53340000Y-51435000D03*
X50800000Y-48895000D03*
X50800000Y-51435000D03*
X48260000Y-48895000D03*
X48260000Y-51435000D03*
X45720000Y-48895000D03*
X45720000Y-51435000D03*
X43180000Y-48895000D03*
X43180000Y-51435000D03*
X40640000Y-48895000D03*
X40640000Y-51435000D03*
X38100000Y-48895000D03*
X38100000Y-51435000D03*
X35560000Y-48895000D03*
X35560000Y-51435000D03*
X33020000Y-48895000D03*
X33020000Y-51435000D03*
X30480000Y-48895000D03*
X30480000Y-51435000D03*
X27940000Y-48895000D03*
X27940000Y-51435000D03*
X25400000Y-48895000D03*
X25400000Y-51435000D03*
X22860000Y-48895000D03*
X22860000Y-51435000D03*
X20320000Y-48895000D03*
X20320000Y-51435000D03*
X17780000Y-48895000D03*
X17780000Y-51435000D03*
X15240000Y-48895000D03*
X15240000Y-51435000D03*
%TD*%
D21*
%TO.C,U7*%
X38110000Y-36190000D03*
D22*
X38110000Y-38730000D03*
X45730000Y-38730000D03*
X45730000Y-36190000D03*
%TD*%
D25*
%TO.C,R2*%
X83343750Y-46677500D03*
X85566250Y-46677500D03*
%TD*%
D26*
%TO.C,D2*%
X166052500Y-27622500D03*
X169862500Y-27622500D03*
%TD*%
D16*
%TO.C,J7*%
X102235000Y-20637500D03*
X104775000Y-20637500D03*
X107315000Y-20637500D03*
X109855000Y-20637500D03*
%TD*%
D13*
%TO.C,R7*%
X48895000Y-38576250D03*
X48895000Y-36353750D03*
%TD*%
D25*
%TO.C,R1*%
X85566250Y-49847500D03*
X83343750Y-49847500D03*
%TD*%
D18*
%TO.C,Q4*%
X58340625Y-29606875D03*
D24*
X58420000Y-31115000D03*
D18*
X58340625Y-32623125D03*
%TD*%
D23*
%TO.C,R10*%
X157797500Y-47307500D03*
X154622500Y-47307500D03*
%TD*%
D27*
%TO.C,D7*%
X26670000Y-26670000D03*
X26670000Y-22860000D03*
%TD*%
D28*
%TO.C,C6*%
X194310000Y-47307500D03*
X202565000Y-47307500D03*
%TD*%
D18*
%TO.C,Q3*%
X58340625Y-35956875D03*
D24*
X58420000Y-37465000D03*
D18*
X58340625Y-38973125D03*
%TD*%
D13*
%TO.C,C13*%
X70802500Y-36353750D03*
X70802500Y-38576248D03*
%TD*%
D29*
%TO.C,U2*%
X162401250Y-32160000D03*
X162401250Y-33860000D03*
X162401250Y-35560000D03*
D30*
X172720000Y-35560000D03*
D29*
X162401250Y-37260000D03*
X162401250Y-38960000D03*
%TD*%
D25*
%TO.C,C7*%
X89376250Y-53027500D03*
X91598750Y-53027500D03*
%TD*%
D13*
%TO.C,R6*%
X48895000Y-30956250D03*
X48895000Y-28733750D03*
%TD*%
%TO.C,C11*%
X67786250Y-19526249D03*
X67786250Y-17303751D03*
%TD*%
%TO.C,C12*%
X68580000Y-36353751D03*
X68580000Y-38576249D03*
%TD*%
D18*
%TO.C,Q2*%
X88820625Y-46756875D03*
D24*
X88900000Y-48265000D03*
D18*
X88820625Y-49773125D03*
%TD*%
D13*
%TO.C,R15*%
X62071250Y-26352500D03*
X62071250Y-24130000D03*
%TD*%
%TO.C,R5*%
X34925000Y-28728750D03*
X34925000Y-30951250D03*
%TD*%
D29*
%TO.C,U1*%
X130016250Y-32160000D03*
X130016250Y-33860000D03*
X130016250Y-35560000D03*
D30*
X140335000Y-35560000D03*
D29*
X130016250Y-37260000D03*
X130016250Y-38960000D03*
%TD*%
D13*
%TO.C,R8*%
X34925000Y-36348750D03*
X34925000Y-38571250D03*
%TD*%
%TO.C,R12*%
X22860000Y-24288750D03*
X22860000Y-22066250D03*
%TD*%
D31*
%TO.C,C10*%
X70961250Y-15081250D03*
X68103750Y-15081250D03*
%TD*%
D32*
%TO.C,J2*%
X47680000Y-20532500D03*
X46680000Y-20532500D03*
X45680000Y-20532500D03*
X44680000Y-20532500D03*
X43680000Y-20532500D03*
X42680000Y-20532500D03*
X41680000Y-20532500D03*
X40680000Y-20532500D03*
X39680000Y-20532500D03*
X38680000Y-20532500D03*
D33*
X50670000Y-17732500D03*
X35690000Y-17732500D03*
%TD*%
D13*
%TO.C,R16*%
X69691250Y-17303751D03*
X69691250Y-19526249D03*
%TD*%
%TO.C,R3*%
X64135000Y-38576250D03*
X64135000Y-36353750D03*
%TD*%
D21*
%TO.C,J3*%
X16510000Y-27345000D03*
X16510000Y-29845000D03*
X16510000Y-32345000D03*
%TD*%
D13*
%TO.C,R18*%
X60166250Y-26352500D03*
X60166250Y-24130000D03*
%TD*%
%TO.C,R13*%
X20320000Y-22066250D03*
X20320000Y-24288750D03*
%TD*%
D21*
%TO.C,K1*%
X22992500Y-34730000D03*
X22992500Y-37270000D03*
D34*
X22992500Y-44890000D03*
X28072500Y-44890000D03*
D21*
X28072500Y-37270000D03*
X28072500Y-34730000D03*
%TD*%
D23*
%TO.C,D6*%
X190182500Y-50482500D03*
X187007500Y-50482500D03*
%TD*%
%TO.C,D4*%
X125412500Y-50482500D03*
X122237500Y-50482500D03*
%TD*%
D35*
%TO.C,U8*%
X36830000Y-24130000D03*
X36830000Y-25082500D03*
X36830000Y-26035000D03*
X39370000Y-26035000D03*
X39370000Y-25082500D03*
X39370000Y-24130000D03*
%TD*%
D28*
%TO.C,C5*%
X194310000Y-20002500D03*
X202565000Y-20002500D03*
%TD*%
D23*
%TO.C,R11*%
X190182500Y-47307500D03*
X187007500Y-47307500D03*
%TD*%
D34*
%TO.C,J4*%
X16510000Y-38735000D03*
X16510000Y-41275000D03*
X16510000Y-43815000D03*
%TD*%
D28*
%TO.C,C1*%
X129540000Y-20002500D03*
X137795000Y-20002500D03*
%TD*%
D25*
%TO.C,C8*%
X79533750Y-53027500D03*
X77311250Y-53027500D03*
%TD*%
D28*
%TO.C,C2*%
X129540000Y-47307500D03*
X137795000Y-47307500D03*
%TD*%
D23*
%TO.C,R9*%
X125412500Y-47307500D03*
X122237500Y-47307500D03*
%TD*%
D16*
%TO.C,J5*%
X30480000Y-15875000D03*
X30480000Y-18415000D03*
X27940000Y-15875000D03*
X27940000Y-18415000D03*
X25400000Y-15875000D03*
X25400000Y-18415000D03*
X22860000Y-15875000D03*
X22860000Y-18415000D03*
X20320000Y-15875000D03*
X20320000Y-18415000D03*
X17780000Y-15875000D03*
X17780000Y-18415000D03*
%TD*%
D29*
%TO.C,U3*%
X194786250Y-32160000D03*
X194786250Y-33860000D03*
X194786250Y-35560000D03*
D30*
X205105000Y-35560000D03*
D29*
X194786250Y-37260000D03*
X194786250Y-38960000D03*
%TD*%
D18*
%TO.C,Q6*%
X58340625Y-42306875D03*
D24*
X58420000Y-43815000D03*
D18*
X58340625Y-45323125D03*
%TD*%
D36*
%TO.C,U4*%
X75723750Y-15875000D03*
X75723750Y-17145000D03*
X75723750Y-18415000D03*
X75723750Y-19685000D03*
X75723750Y-20955000D03*
X75723750Y-22225000D03*
X75723750Y-23495000D03*
X75723750Y-24765000D03*
X75723750Y-26035000D03*
X75723750Y-27305000D03*
X75723750Y-28575000D03*
X75723750Y-29845000D03*
X75723750Y-31115000D03*
X75723750Y-32385000D03*
D37*
X77470000Y-33575625D03*
X78740000Y-33575625D03*
X80010000Y-33575625D03*
X81280000Y-33575625D03*
X82550000Y-33575625D03*
X83820000Y-33575625D03*
X85090000Y-33575625D03*
X86360000Y-33575625D03*
X87630000Y-33575625D03*
X88900000Y-33575625D03*
X90170000Y-33575625D03*
X91440000Y-33575625D03*
D36*
X93186250Y-32385000D03*
X93186250Y-31115000D03*
X93186250Y-29845000D03*
X93186250Y-28575000D03*
X93186250Y-27305000D03*
X93186250Y-26035000D03*
X93186250Y-24765000D03*
X93186250Y-23495000D03*
X93186250Y-22225000D03*
X93186250Y-20955000D03*
X93186250Y-19685000D03*
X93186250Y-18415000D03*
X93186250Y-17145000D03*
X93186250Y-15875000D03*
D38*
X82955000Y-23595000D03*
%TD*%
D26*
%TO.C,D1*%
X133667500Y-27622500D03*
X137477500Y-27622500D03*
%TD*%
D13*
%TO.C,R20*%
X64135000Y-44926250D03*
X64135000Y-42703750D03*
%TD*%
D26*
%TO.C,D3*%
X198437500Y-27622500D03*
X202247500Y-27622500D03*
%TD*%
D20*
%TO.C,L3*%
X185102500Y-30480000D03*
X185102500Y-40640000D03*
%TD*%
D13*
%TO.C,R21*%
X68580000Y-32226249D03*
X68580000Y-30003751D03*
%TD*%
D28*
%TO.C,C3*%
X161925000Y-20002500D03*
X170180000Y-20002500D03*
%TD*%
D20*
%TO.C,L1*%
X120332500Y-30480000D03*
X120332500Y-40640000D03*
%TD*%
D28*
%TO.C,C4*%
X161925000Y-47307500D03*
X170180000Y-47307500D03*
%TD*%
M02*
