  0
SECTION
  2
HEADER
  9
$ANGBASE
  50
0.0
  9
$ANGDIR
  70
1
  9
$MEASUREMENT
  70
1
  9
$INSUNITS
  70
4
  0
ENDSEC
  0
SECTION
  2
TABLES
  0
TABLE
  2
LTYPE
  70
4
  0
LTYPE
  5
40F
  2
CONTINUOUS
  70
0
  3
Solid line
  72
65
  73
0
  40
0.0
  0
LTYPE
  5
410
  2
DASHDOT
 70
0
  3
Dash Dot ____ _ ____ _
 72
65
 73
4
 40
2.0
 49
1.25
 49
-0.25
 49
0.25
 49
-0.25
  0
LTYPE
  5
411
  2
DASHED
 70
0
  3
Dashed __ __ __ __ __
 72
65
 73
2
 40
0.75
 49
0.5
 49
-0.25
  0
LTYPE
  5
43B
  2
DOTTED
 70
0
  3
Dotted .  .  .  .
 72
65
 73
2
 40
0.2
 49
0.0
 49
-0.2
  0
ENDTAB
  0
TABLE
  2
STYLE
  70
4
  0
STYLE
  2
KICAD
  70
0
  40
0
  41
1
  42
1
  50
0
  71
0
  3
isocp.shx
  0
STYLE
  2
KICADB
  70
0
  40
0
  41
1
  42
1
  50
0
  71
0
  3
isocp.shx
  0
STYLE
  2
KICADI
  70
0
  40
0
  41
1
  42
1
  50
15
  71
0
  3
isocp.shx
  0
STYLE
  2
KICADBI
  70
0
  40
0
  41
1
  42
1
  50
15
  71
0
  3
isocp.shx
  0
ENDTAB
  0
TABLE
  2
LAYER
  70
2
  0
LAYER
  2
F.Cu
  70
0
  62
13
  420
13120564
  6
CONTINUOUS
  0
LAYER
  2
B.Cu
  70
0
  62
153
  420
5078980
  6
CONTINUOUS
  0
ENDTAB
  0
ENDSEC
  0
SECTION
  2
ENTITIES
0
LINE
8
B.Cu
6
CONTINUOUS
10
61.2364959999999954
20
-51.1585139999999967
11
61.4090050000000005
21
-51.2299699999999945
0
LINE
8
B.Cu
6
CONTINUOUS
10
61.4090050000000005
20
-51.2299699999999945
11
61.5642599999999973
21
-51.3337079999999943
0
LINE
8
B.Cu
6
CONTINUOUS
10
61.5642599999999973
20
-51.3337079999999943
11
61.6962919999999997
21
-51.4657399999999967
0
LINE
8
B.Cu
6
CONTINUOUS
10
61.6962919999999997
20
-51.4657399999999967
11
61.8000299999999996
21
-51.6209950000000006
0
LINE
8
B.Cu
6
CONTINUOUS
10
61.8000299999999996
20
-51.6209950000000006
11
61.8714859999999973
21
-51.7935039999999987
0
LINE
8
B.Cu
6
CONTINUOUS
10
61.8714859999999973
20
-51.7935039999999987
11
61.9079130000000006
21
-51.9766389999999987
0
LINE
8
B.Cu
6
CONTINUOUS
10
61.9079130000000006
20
-51.9766389999999987
11
61.9124999999999943
21
-52.0700000000000003
0
LINE
8
B.Cu
6
CONTINUOUS
10
61.9124999999999943
20
-52.0700000000000003
11
61.9124999999999943
21
-54.6099999999999994
0
LINE
8
B.Cu
6
CONTINUOUS
10
61.9124999999999943
20
-54.6099999999999994
11
61.9079130000000006
21
-54.703361000000001
0
LINE
8
B.Cu
6
CONTINUOUS
10
61.9079130000000006
20
-54.703361000000001
11
61.8714859999999973
21
-54.8864960000000011
0
LINE
8
B.Cu
6
CONTINUOUS
10
61.8714859999999973
20
-54.8864960000000011
11
61.8000299999999996
21
-55.0590049999999991
0
LINE
8
B.Cu
6
CONTINUOUS
10
61.8000299999999996
20
-55.0590049999999991
11
61.6962919999999997
21
-55.2142599999999959
0
LINE
8
B.Cu
6
CONTINUOUS
10
61.6962919999999997
20
-55.2142599999999959
11
61.5642599999999973
21
-55.3462919999999983
0
LINE
8
B.Cu
6
CONTINUOUS
10
61.5642599999999973
20
-55.3462919999999983
11
61.4090050000000005
21
-55.4500299999999982
0
LINE
8
B.Cu
6
CONTINUOUS
10
61.4090050000000005
20
-55.4500299999999982
11
61.2364959999999954
21
-55.5214859999999959
0
LINE
8
B.Cu
6
CONTINUOUS
10
61.2364959999999954
20
-55.5214859999999959
11
61.0533609999999953
21
-55.5579129999999992
0
LINE
8
B.Cu
6
CONTINUOUS
10
61.0533609999999953
20
-55.5579129999999992
11
60.8666389999999993
21
-55.5579129999999992
0
LINE
8
B.Cu
6
CONTINUOUS
10
60.8666389999999993
20
-55.5579129999999992
11
60.6835039999999992
21
-55.5214859999999959
0
LINE
8
B.Cu
6
CONTINUOUS
10
60.6835039999999992
20
-55.5214859999999959
11
60.5109949999999941
21
-55.4500299999999982
0
LINE
8
B.Cu
6
CONTINUOUS
10
60.5109949999999941
20
-55.4500299999999982
11
60.3557399999999973
21
-55.3462919999999983
0
LINE
8
B.Cu
6
CONTINUOUS
10
60.3557399999999973
20
-55.3462919999999983
11
60.2237079999999949
21
-55.2142599999999959
0
LINE
8
B.Cu
6
CONTINUOUS
10
60.2237079999999949
20
-55.2142599999999959
11
60.119969999999995
21
-55.0590049999999991
0
LINE
8
B.Cu
6
CONTINUOUS
10
60.119969999999995
20
-55.0590049999999991
11
60.0485139999999973
21
-54.8864960000000011
0
LINE
8
B.Cu
6
CONTINUOUS
10
60.0485139999999973
20
-54.8864960000000011
11
60.012086999999994
21
-54.703361000000001
0
LINE
8
B.Cu
6
CONTINUOUS
10
60.012086999999994
20
-54.703361000000001
11
60.0075000000000003
21
-54.6099999999999994
0
LINE
8
B.Cu
6
CONTINUOUS
10
60.0075000000000003
20
-54.6099999999999994
11
60.0075000000000003
21
-52.0700000000000003
0
LINE
8
B.Cu
6
CONTINUOUS
10
60.0075000000000003
20
-52.0700000000000003
11
60.012086999999994
21
-51.9766389999999987
0
LINE
8
B.Cu
6
CONTINUOUS
10
60.012086999999994
20
-51.9766389999999987
11
60.0485139999999973
21
-51.7935039999999987
0
LINE
8
B.Cu
6
CONTINUOUS
10
60.0485139999999973
20
-51.7935039999999987
11
60.119969999999995
21
-51.6209950000000006
0
LINE
8
B.Cu
6
CONTINUOUS
10
60.119969999999995
20
-51.6209950000000006
11
60.2237079999999949
21
-51.4657399999999967
0
LINE
8
B.Cu
6
CONTINUOUS
10
60.2237079999999949
20
-51.4657399999999967
11
60.3557399999999973
21
-51.3337079999999943
0
LINE
8
B.Cu
6
CONTINUOUS
10
60.3557399999999973
20
-51.3337079999999943
11
60.5109949999999941
21
-51.2299699999999945
0
LINE
8
B.Cu
6
CONTINUOUS
10
60.5109949999999941
20
-51.2299699999999945
11
60.6835039999999992
21
-51.1585139999999967
0
LINE
8
B.Cu
6
CONTINUOUS
10
60.6835039999999992
20
-51.1585139999999967
11
60.8666389999999993
21
-51.1220870000000005
0
LINE
8
B.Cu
6
CONTINUOUS
10
60.8666389999999993
20
-51.1220870000000005
11
61.0533609999999953
21
-51.1220870000000005
0
LINE
8
B.Cu
6
CONTINUOUS
10
61.0533609999999953
20
-51.1220870000000005
11
61.2364959999999954
21
-51.1585139999999967
0
LINE
8
B.Cu
6
CONTINUOUS
10
67.5864959999999968
20
-31.6372639999999983
11
67.7590050000000019
21
-31.7087199999999996
0
LINE
8
B.Cu
6
CONTINUOUS
10
67.7590050000000019
20
-31.7087199999999996
11
67.9142599999999987
21
-31.8124579999999995
0
LINE
8
B.Cu
6
CONTINUOUS
10
67.9142599999999987
20
-31.8124579999999995
11
68.046291999999994
21
-31.9444899999999983
0
LINE
8
B.Cu
6
CONTINUOUS
10
68.046291999999994
20
-31.9444899999999983
11
68.150030000000001
21
-32.0997449999999986
0
LINE
8
B.Cu
6
CONTINUOUS
10
68.150030000000001
20
-32.0997449999999986
11
68.2214859999999987
21
-32.2722539999999967
0
LINE
8
B.Cu
6
CONTINUOUS
10
68.2214859999999987
20
-32.2722539999999967
11
68.2579130000000021
21
-32.4553889999999967
0
LINE
8
B.Cu
6
CONTINUOUS
10
68.2579130000000021
20
-32.4553889999999967
11
68.2579130000000021
21
-32.6141390000000015
0
LINE
8
B.Cu
6
CONTINUOUS
10
68.2579130000000021
20
-32.6141390000000015
11
68.2625000000000028
21
-32.707499999999996
0
LINE
8
B.Cu
6
CONTINUOUS
10
68.2625000000000028
20
-32.707499999999996
11
68.2625000000000028
21
-46.5954619999999977
0
LINE
8
B.Cu
6
CONTINUOUS
10
68.2625000000000028
20
-46.5954619999999977
11
69.2535189999999972
21
-47.5864809999999991
0
LINE
8
B.Cu
6
CONTINUOUS
10
69.2535189999999972
20
-47.5864809999999991
11
69.31629199999999
21
-47.6557399999999944
0
LINE
8
B.Cu
6
CONTINUOUS
10
69.31629199999999
20
-47.6557399999999944
11
69.420029999999997
21
-47.8109940000000009
0
LINE
8
B.Cu
6
CONTINUOUS
10
69.420029999999997
20
-47.8109940000000009
11
69.420029999999997
21
-47.8109949999999984
0
LINE
8
B.Cu
6
CONTINUOUS
10
69.420029999999997
20
-47.8109949999999984
11
69.4914859999999948
21
-47.9835039999999964
0
LINE
8
B.Cu
6
CONTINUOUS
10
69.4914859999999948
20
-47.9835039999999964
11
69.5279129999999981
21
-48.1666389999999964
0
LINE
8
B.Cu
6
CONTINUOUS
10
69.5279129999999981
20
-48.1666389999999964
11
69.5324999999999989
21
-48.259999999999998
0
LINE
8
B.Cu
6
CONTINUOUS
10
69.5324999999999989
20
-48.259999999999998
11
69.5324999999999989
21
-54.6099999999999994
0
LINE
8
B.Cu
6
CONTINUOUS
10
69.5324999999999989
20
-54.6099999999999994
11
69.5279129999999981
21
-54.703361000000001
0
LINE
8
B.Cu
6
CONTINUOUS
10
69.5279129999999981
20
-54.703361000000001
11
69.4914859999999948
21
-54.8864960000000011
0
LINE
8
B.Cu
6
CONTINUOUS
10
69.4914859999999948
20
-54.8864960000000011
11
69.420029999999997
21
-55.0590049999999991
0
LINE
8
B.Cu
6
CONTINUOUS
10
69.420029999999997
20
-55.0590049999999991
11
69.31629199999999
21
-55.2142599999999959
0
LINE
8
B.Cu
6
CONTINUOUS
10
69.31629199999999
20
-55.2142599999999959
11
69.1842599999999948
21
-55.3462919999999983
0
LINE
8
B.Cu
6
CONTINUOUS
10
69.1842599999999948
20
-55.3462919999999983
11
69.0290049999999979
21
-55.4500299999999982
0
LINE
8
B.Cu
6
CONTINUOUS
10
69.0290049999999979
20
-55.4500299999999982
11
68.8564959999999928
21
-55.5214859999999959
0
LINE
8
B.Cu
6
CONTINUOUS
10
68.8564959999999928
20
-55.5214859999999959
11
68.6733609999999999
21
-55.5579129999999992
0
LINE
8
B.Cu
6
CONTINUOUS
10
68.6733609999999999
20
-55.5579129999999992
11
68.4866389999999967
21
-55.5579129999999992
0
LINE
8
B.Cu
6
CONTINUOUS
10
68.4866389999999967
20
-55.5579129999999992
11
68.3035040000000038
21
-55.5214859999999959
0
LINE
8
B.Cu
6
CONTINUOUS
10
68.3035040000000038
20
-55.5214859999999959
11
68.1309949999999986
21
-55.4500299999999982
0
LINE
8
B.Cu
6
CONTINUOUS
10
68.1309949999999986
20
-55.4500299999999982
11
67.9757400000000018
21
-55.3462919999999983
0
LINE
8
B.Cu
6
CONTINUOUS
10
67.9757400000000018
20
-55.3462919999999983
11
67.8437079999999924
21
-55.2142599999999959
0
LINE
8
B.Cu
6
CONTINUOUS
10
67.8437079999999924
20
-55.2142599999999959
11
67.7399699999999996
21
-55.0590049999999991
0
LINE
8
B.Cu
6
CONTINUOUS
10
67.7399699999999996
20
-55.0590049999999991
11
67.6685140000000018
21
-54.8864960000000011
0
LINE
8
B.Cu
6
CONTINUOUS
10
67.6685140000000018
20
-54.8864960000000011
11
67.6320869999999985
21
-54.703361000000001
0
LINE
8
B.Cu
6
CONTINUOUS
10
67.6320869999999985
20
-54.703361000000001
11
67.6274999999999977
21
-54.6099999999999994
0
LINE
8
B.Cu
6
CONTINUOUS
10
67.6274999999999977
20
-54.6099999999999994
11
67.6274999999999977
21
-48.6545379999999952
0
LINE
8
B.Cu
6
CONTINUOUS
10
67.6274999999999977
20
-48.6545379999999952
11
66.6364810000000034
21
-47.6635190000000009
0
LINE
8
B.Cu
6
CONTINUOUS
10
66.6364810000000034
20
-47.6635190000000009
11
66.5737079999999963
21
-47.5942599999999985
0
LINE
8
B.Cu
6
CONTINUOUS
10
66.5737079999999963
20
-47.5942599999999985
11
66.4699700000000036
21
-47.4390059999999991
0
LINE
8
B.Cu
6
CONTINUOUS
10
66.4699700000000036
20
-47.4390059999999991
11
66.4359949999999913
21
-47.3569829999999996
0
LINE
8
B.Cu
6
CONTINUOUS
10
66.4359949999999913
20
-47.3569829999999996
11
66.3985139999999916
21
-47.2664959999999965
0
LINE
8
B.Cu
6
CONTINUOUS
10
66.3985139999999916
20
-47.2664959999999965
11
66.3620870000000025
21
-47.0833609999999965
0
LINE
8
B.Cu
6
CONTINUOUS
10
66.3620870000000025
20
-47.0833609999999965
11
66.3575000000000017
21
-46.9899999999999949
0
LINE
8
B.Cu
6
CONTINUOUS
10
66.3575000000000017
20
-46.9899999999999949
11
66.3575000000000017
21
-32.707499999999996
0
LINE
8
B.Cu
6
CONTINUOUS
10
66.3575000000000017
20
-32.707499999999996
11
66.3620870000000025
21
-32.6141390000000015
0
LINE
8
B.Cu
6
CONTINUOUS
10
66.3620870000000025
20
-32.6141390000000015
11
66.3620870000000025
21
-32.4553889999999967
0
LINE
8
B.Cu
6
CONTINUOUS
10
66.3620870000000025
20
-32.4553889999999967
11
66.3985139999999916
21
-32.2722539999999967
0
LINE
8
B.Cu
6
CONTINUOUS
10
66.3985139999999916
20
-32.2722539999999967
11
66.4699700000000036
21
-32.0997449999999986
0
LINE
8
B.Cu
6
CONTINUOUS
10
66.4699700000000036
20
-32.0997449999999986
11
66.5737079999999963
21
-31.9444899999999983
0
LINE
8
B.Cu
6
CONTINUOUS
10
66.5737079999999963
20
-31.9444899999999983
11
66.7057399999999916
21
-31.8124579999999995
0
LINE
8
B.Cu
6
CONTINUOUS
10
66.7057399999999916
20
-31.8124579999999995
11
66.8609950000000026
21
-31.7087199999999996
0
LINE
8
B.Cu
6
CONTINUOUS
10
66.8609950000000026
20
-31.7087199999999996
11
67.0335039999999935
21
-31.6372639999999983
0
LINE
8
B.Cu
6
CONTINUOUS
10
67.0335039999999935
20
-31.6372639999999983
11
67.2166390000000007
21
-31.6008369999999985
0
LINE
8
B.Cu
6
CONTINUOUS
10
67.2166390000000007
20
-31.6008369999999985
11
67.4033610000000039
21
-31.6008369999999985
0
LINE
8
B.Cu
6
CONTINUOUS
10
67.4033610000000039
20
-31.6008369999999985
11
67.5864959999999968
21
-31.6372639999999983
0
LINE
8
B.Cu
6
CONTINUOUS
10
87.7632660000000016
20
-23.6720860000000002
11
87.790071999999995
21
-23.718515
0
LINE
8
B.Cu
6
CONTINUOUS
10
87.790071999999995
20
-23.718515
11
87.7912630000000007
21
-23.732130999999999
0
LINE
8
B.Cu
6
CONTINUOUS
10
87.7912630000000007
20
-23.732130999999999
11
87.7906449999999978
21
-31.353631
0
LINE
8
B.Cu
6
CONTINUOUS
10
87.7906449999999978
20
-31.353631
11
87.7723050000000029
21
-31.4040079999999975
0
LINE
8
B.Cu
6
CONTINUOUS
10
87.7723050000000029
20
-31.4040079999999975
11
87.7258729999999929
21
-31.4308099999999975
0
LINE
8
B.Cu
6
CONTINUOUS
10
87.7258729999999929
20
-31.4308099999999975
11
87.7122699999999895
21
-31.4319999999999986
0
LINE
8
B.Cu
6
CONTINUOUS
10
87.7122699999999895
20
-31.4319999999999986
11
77.5607459999999946
21
-31.4319999999999986
0
LINE
8
B.Cu
6
CONTINUOUS
10
77.5607459999999946
20
-31.4319999999999986
11
77.5607219999999984
21
-31.4319989999999976
0
LINE
8
B.Cu
6
CONTINUOUS
10
77.5607219999999984
20
-31.4319989999999976
11
77.5574960000000004
21
-31.4319989999999976
0
LINE
8
B.Cu
6
CONTINUOUS
10
77.5574960000000004
20
-31.4319989999999976
11
77.3825029999999998
21
-31.4319989999999976
0
LINE
8
B.Cu
6
CONTINUOUS
10
77.3825029999999998
20
-31.4319989999999976
11
77.3824970000000008
21
-31.4319989999999976
0
LINE
8
B.Cu
6
CONTINUOUS
10
77.3824970000000008
20
-31.4319989999999976
11
77.2096599999999995
21
-31.4593749999999979
0
LINE
8
B.Cu
6
CONTINUOUS
10
77.2096599999999995
20
-31.4593749999999979
11
77.0432330000000007
21
-31.5134519999999974
0
LINE
8
B.Cu
6
CONTINUOUS
10
77.0432330000000007
20
-31.5134519999999974
11
76.8873169999999959
21
-31.5928949999999986
0
LINE
8
B.Cu
6
CONTINUOUS
10
76.8873169999999959
20
-31.5928949999999986
11
76.8873090000000019
21
-31.5929000000000002
0
LINE
8
B.Cu
6
CONTINUOUS
10
76.8873090000000019
20
-31.5929000000000002
11
76.7457479999999919
21
-31.6957489999999993
0
LINE
8
B.Cu
6
CONTINUOUS
10
76.7457479999999919
20
-31.6957489999999993
11
76.7457349999999963
21
-31.6957599999999999
0
LINE
8
B.Cu
6
CONTINUOUS
10
76.7457349999999963
20
-31.6957599999999999
11
76.6209679999999906
21
-31.8205269999999985
0
LINE
8
B.Cu
6
CONTINUOUS
10
76.6209679999999906
20
-31.8205269999999985
11
76.6209139999999991
21
-31.8205829999999992
0
LINE
8
B.Cu
6
CONTINUOUS
10
76.6209139999999991
20
-31.8205829999999992
11
69.1257459999999924
21
-39.3157509999999988
0
LINE
8
B.Cu
6
CONTINUOUS
10
69.1257459999999924
20
-39.3157509999999988
11
69.1257429999999999
21
-39.3157539999999983
0
LINE
8
B.Cu
6
CONTINUOUS
10
69.1257429999999999
20
-39.3157539999999983
11
69.063873000000001
21
-39.3776229999999998
0
LINE
8
B.Cu
6
CONTINUOUS
10
69.063873000000001
20
-39.3776229999999998
11
69.0020039999999995
21
-39.4394920000000013
0
LINE
8
B.Cu
6
CONTINUOUS
10
69.0020039999999995
20
-39.4394920000000013
11
69.0019989999999979
21
-39.4394980000000004
0
LINE
8
B.Cu
6
CONTINUOUS
10
69.0019989999999979
20
-39.4394980000000004
11
68.8991499999999917
21
-39.5810589999999962
0
LINE
8
B.Cu
6
CONTINUOUS
10
68.8991499999999917
20
-39.5810589999999962
11
68.8991449999999901
21
-39.5810669999999973
0
LINE
8
B.Cu
6
CONTINUOUS
10
68.8991449999999901
20
-39.5810669999999973
11
68.8197019999999924
21
-39.7369829999999951
0
LINE
8
B.Cu
6
CONTINUOUS
10
68.8197019999999924
20
-39.7369829999999951
11
68.765625
21
-39.9034100000000009
0
LINE
8
B.Cu
6
CONTINUOUS
10
68.765625
20
-39.9034100000000009
11
68.7382489999999962
21
-40.0762469999999951
0
LINE
8
B.Cu
6
CONTINUOUS
10
68.7382489999999962
20
-40.0762469999999951
11
68.7382489999999962
21
-40.2512520000000009
0
LINE
8
B.Cu
6
CONTINUOUS
10
68.7382489999999962
20
-40.2512520000000009
11
68.765625
21
-40.4240879999999976
0
LINE
8
B.Cu
6
CONTINUOUS
10
68.765625
20
-40.4240879999999976
11
68.8197019999999924
21
-40.5905160000000009
0
LINE
8
B.Cu
6
CONTINUOUS
10
68.8197019999999924
20
-40.5905160000000009
11
68.8991449999999901
21
-40.7464319999999987
0
LINE
8
B.Cu
6
CONTINUOUS
10
68.8991449999999901
20
-40.7464319999999987
11
68.8991499999999917
21
-40.7464399999999998
0
LINE
8
B.Cu
6
CONTINUOUS
10
68.8991499999999917
20
-40.7464399999999998
11
69.0019989999999979
21
-40.8880009999999956
0
LINE
8
B.Cu
6
CONTINUOUS
10
69.0019989999999979
20
-40.8880009999999956
11
69.0020099999999985
21
-40.8880139999999983
0
LINE
8
B.Cu
6
CONTINUOUS
10
69.0020099999999985
20
-40.8880139999999983
11
69.1257349999999917
21
-41.0117389999999986
0
LINE
8
B.Cu
6
CONTINUOUS
10
69.1257349999999917
20
-41.0117389999999986
11
69.1257480000000015
21
-41.0117499999999993
0
LINE
8
B.Cu
6
CONTINUOUS
10
69.1257480000000015
20
-41.0117499999999993
11
69.2673089999999974
21
-41.1145989999999983
0
LINE
8
B.Cu
6
CONTINUOUS
10
69.2673089999999974
20
-41.1145989999999983
11
69.2673159999999939
21
-41.1146039999999999
0
LINE
8
B.Cu
6
CONTINUOUS
10
69.2673159999999939
20
-41.1146039999999999
11
69.4232360000000028
21
-41.1940489999999997
0
LINE
8
B.Cu
6
CONTINUOUS
10
69.4232360000000028
20
-41.1940489999999997
11
69.5520149999999973
21
-41.2358919999999998
0
LINE
8
B.Cu
6
CONTINUOUS
10
69.5520149999999973
20
-41.2358919999999998
11
69.589659999999995
21
-41.2481239999999971
0
LINE
8
B.Cu
6
CONTINUOUS
10
69.589659999999995
20
-41.2481239999999971
11
69.5896619999999899
21
-41.2481239999999971
0
LINE
8
B.Cu
6
CONTINUOUS
10
69.5896619999999899
20
-41.2481239999999971
11
69.5896639999999991
21
-41.2481249999999946
0
LINE
8
B.Cu
6
CONTINUOUS
10
69.5896639999999991
20
-41.2481249999999946
11
69.7625029999999953
21
-41.2755009999999984
0
LINE
8
B.Cu
6
CONTINUOUS
10
69.7625029999999953
20
-41.2755009999999984
11
69.7625060000000019
21
-41.2755009999999984
0
LINE
8
B.Cu
6
CONTINUOUS
10
69.7625060000000019
20
-41.2755009999999984
11
69.9374940000000009
21
-41.2755009999999984
0
LINE
8
B.Cu
6
CONTINUOUS
10
69.9374940000000009
20
-41.2755009999999984
11
69.9374969999999934
21
-41.2755009999999984
0
LINE
8
B.Cu
6
CONTINUOUS
10
69.9374969999999934
20
-41.2755009999999984
11
70.1103360000000038
21
-41.2481249999999946
0
LINE
8
B.Cu
6
CONTINUOUS
10
70.1103360000000038
20
-41.2481249999999946
11
70.276764
21
-41.1940489999999997
0
LINE
8
B.Cu
6
CONTINUOUS
10
70.276764
20
-41.1940489999999997
11
70.4326839999999947
21
-41.1146039999999999
0
LINE
8
B.Cu
6
CONTINUOUS
10
70.4326839999999947
20
-41.1146039999999999
11
70.5742570000000029
21
-41.0117459999999951
0
LINE
8
B.Cu
6
CONTINUOUS
10
70.5742570000000029
20
-41.0117459999999951
11
70.6979960000000034
21
-40.8880069999999947
0
LINE
8
B.Cu
6
CONTINUOUS
10
70.6979960000000034
20
-40.8880069999999947
11
70.702454000000003
21
-40.883548999999995
0
LINE
8
B.Cu
6
CONTINUOUS
10
70.702454000000003
20
-40.883548999999995
11
70.7024650000000037
21
-40.8835349999999949
0
LINE
8
B.Cu
6
CONTINUOUS
10
70.7024650000000037
20
-40.8835349999999949
11
77.9075449999999989
21
-33.6784559999999971
0
LINE
8
B.Cu
6
CONTINUOUS
10
77.9075449999999989
20
-33.6784559999999971
11
77.9561329999999941
21
-33.6557979999999972
0
LINE
8
B.Cu
6
CONTINUOUS
10
77.9561329999999941
20
-33.6557979999999972
11
77.9629639999999995
21
-33.6554999999999964
0
LINE
8
B.Cu
6
CONTINUOUS
10
77.9629639999999995
20
-33.6554999999999964
11
87.7120779999999911
21
-33.6554999999999964
0
LINE
8
B.Cu
6
CONTINUOUS
10
87.7120779999999911
20
-33.6554999999999964
11
87.7624560000000002
21
-33.6738360000000014
0
LINE
8
B.Cu
6
CONTINUOUS
10
87.7624560000000002
20
-33.6738360000000014
11
87.7892619999999937
21
-33.7202649999999977
0
LINE
8
B.Cu
6
CONTINUOUS
10
87.7892619999999937
20
-33.7202649999999977
11
87.7904529999999994
21
-33.7338809999999967
0
LINE
8
B.Cu
6
CONTINUOUS
10
87.7904529999999994
20
-33.7338809999999967
11
87.7894119999999987
21
-46.5936309999999949
0
LINE
8
B.Cu
6
CONTINUOUS
10
87.7894119999999987
20
-46.5936309999999949
11
87.7710719999999895
21
-46.6440079999999995
0
LINE
8
B.Cu
6
CONTINUOUS
10
87.7710719999999895
20
-46.6440079999999995
11
87.7246399999999937
21
-46.6708099999999959
0
LINE
8
B.Cu
6
CONTINUOUS
10
87.7246399999999937
20
-46.6708099999999959
11
87.7110369999999904
21
-46.671999999999997
0
LINE
8
B.Cu
6
CONTINUOUS
10
87.7110369999999904
20
-46.671999999999997
11
83.4149969999999996
21
-46.671999999999997
0
LINE
8
B.Cu
6
CONTINUOUS
10
83.4149969999999996
20
-46.671999999999997
11
83.2421609999999959
21
-46.6993749999999963
0
LINE
8
B.Cu
6
CONTINUOUS
10
83.2421609999999959
20
-46.6993749999999963
11
83.0757329999999996
21
-46.7534519999999958
0
LINE
8
B.Cu
6
CONTINUOUS
10
83.0757329999999996
20
-46.7534519999999958
11
82.9198169999999948
21
-46.8328950000000006
0
LINE
8
B.Cu
6
CONTINUOUS
10
82.9198169999999948
20
-46.8328950000000006
11
82.9198090000000008
21
-46.8328999999999951
0
LINE
8
B.Cu
6
CONTINUOUS
10
82.9198090000000008
20
-46.8328999999999951
11
82.7782479999999907
21
-46.9357490000000013
0
LINE
8
B.Cu
6
CONTINUOUS
10
82.7782479999999907
20
-46.9357490000000013
11
82.7782349999999951
21
-46.9357599999999948
0
LINE
8
B.Cu
6
CONTINUOUS
10
82.7782349999999951
20
-46.9357599999999948
11
82.6545100000000019
21
-47.0594849999999951
0
LINE
8
B.Cu
6
CONTINUOUS
10
82.6545100000000019
20
-47.0594849999999951
11
82.6544990000000013
21
-47.0594979999999978
0
LINE
8
B.Cu
6
CONTINUOUS
10
82.6544990000000013
20
-47.0594979999999978
11
82.5516499999999951
21
-47.2010590000000008
0
LINE
8
B.Cu
6
CONTINUOUS
10
82.5516499999999951
20
-47.2010590000000008
11
82.5516449999999935
21
-47.2010669999999948
0
LINE
8
B.Cu
6
CONTINUOUS
10
82.5516449999999935
20
-47.2010669999999948
11
82.4722019999999958
21
-47.3569829999999996
0
LINE
8
B.Cu
6
CONTINUOUS
10
82.4722019999999958
20
-47.3569829999999996
11
82.4181249999999892
21
-47.5234109999999959
0
LINE
8
B.Cu
6
CONTINUOUS
10
82.4181249999999892
20
-47.5234109999999959
11
82.390749999999997
21
-47.6962469999999996
0
LINE
8
B.Cu
6
CONTINUOUS
10
82.390749999999997
20
-47.6962469999999996
11
82.390749999999997
21
-47.8712519999999984
0
LINE
8
B.Cu
6
CONTINUOUS
10
82.390749999999997
20
-47.8712519999999984
11
82.4181249999999892
21
-48.044087999999995
0
LINE
8
B.Cu
6
CONTINUOUS
10
82.4181249999999892
20
-48.044087999999995
11
82.4579099999999983
21
-48.1665299999999945
0
LINE
8
B.Cu
6
CONTINUOUS
10
82.4579099999999983
20
-48.1665299999999945
11
82.4598510000000005
21
-48.1725059999999985
0
LINE
8
B.Cu
6
CONTINUOUS
10
82.4598510000000005
20
-48.1725059999999985
11
82.4722019999999958
21
-48.2105159999999984
0
LINE
8
B.Cu
6
CONTINUOUS
10
82.4722019999999958
20
-48.2105159999999984
11
82.5516449999999935
21
-48.3664319999999961
0
LINE
8
B.Cu
6
CONTINUOUS
10
82.5516449999999935
20
-48.3664319999999961
11
82.5516499999999951
21
-48.3664399999999972
0
LINE
8
B.Cu
6
CONTINUOUS
10
82.5516499999999951
20
-48.3664399999999972
11
82.6544990000000013
21
-48.5080010000000001
0
LINE
8
B.Cu
6
CONTINUOUS
10
82.6544990000000013
20
-48.5080010000000001
11
82.6545100000000019
21
-48.5080139999999957
0
LINE
8
B.Cu
6
CONTINUOUS
10
82.6545100000000019
20
-48.5080139999999957
11
82.7782349999999951
21
-48.6317389999999961
0
LINE
8
B.Cu
6
CONTINUOUS
10
82.7782349999999951
20
-48.6317389999999961
11
82.7782479999999907
21
-48.6317499999999967
0
LINE
8
B.Cu
6
CONTINUOUS
10
82.7782479999999907
20
-48.6317499999999967
11
82.9004059999999896
21
-48.7205019999999962
0
LINE
8
B.Cu
6
CONTINUOUS
10
82.9004059999999896
20
-48.7205019999999962
11
82.9198159999999973
21
-48.7346039999999974
0
LINE
8
B.Cu
6
CONTINUOUS
10
82.9198159999999973
20
-48.7346039999999974
11
83.075735999999992
21
-48.8140489999999971
0
LINE
8
B.Cu
6
CONTINUOUS
10
83.075735999999992
20
-48.8140489999999971
11
83.2045169999999956
21
-48.8558919999999972
0
LINE
8
B.Cu
6
CONTINUOUS
10
83.2045169999999956
20
-48.8558919999999972
11
83.2421609999999959
21
-48.8681239999999946
0
LINE
8
B.Cu
6
CONTINUOUS
10
83.2421609999999959
20
-48.8681239999999946
11
83.2421619999999933
21
-48.8681239999999946
0
LINE
8
B.Cu
6
CONTINUOUS
10
83.2421619999999933
20
-48.8681239999999946
11
83.242165
21
-48.8681249999999991
0
LINE
8
B.Cu
6
CONTINUOUS
10
83.242165
20
-48.8681249999999991
11
83.4150029999999987
21
-48.8954999999999984
0
LINE
8
B.Cu
6
CONTINUOUS
10
83.4150029999999987
20
-48.8954999999999984
11
83.4150059999999911
21
-48.8954999999999984
0
LINE
8
B.Cu
6
CONTINUOUS
10
83.4150059999999911
20
-48.8954999999999984
11
87.710844999999992
21
-48.8954999999999984
0
LINE
8
B.Cu
6
CONTINUOUS
10
87.710844999999992
20
-48.8954999999999984
11
87.7612230000000011
21
-48.9138359999999963
0
LINE
8
B.Cu
6
CONTINUOUS
10
87.7612230000000011
20
-48.9138359999999963
11
87.7880289999999945
21
-48.9602649999999997
0
LINE
8
B.Cu
6
CONTINUOUS
10
87.7880289999999945
20
-48.9602649999999997
11
87.7892190000000028
21
-48.9738729999999975
0
LINE
8
B.Cu
6
CONTINUOUS
10
87.7892190000000028
20
-48.9738729999999975
11
87.7889899999999983
21
-51.8096609999999984
0
LINE
8
B.Cu
6
CONTINUOUS
10
87.7889899999999983
20
-51.8096609999999984
11
87.7884349999999927
21
-58.659130999999995
0
LINE
8
B.Cu
6
CONTINUOUS
10
87.7884349999999927
20
-58.659130999999995
11
87.7700949999999978
21
-58.7095079999999996
0
LINE
8
B.Cu
6
CONTINUOUS
10
87.7700949999999978
20
-58.7095079999999996
11
87.7236630000000019
21
-58.736309999999996
0
LINE
8
B.Cu
6
CONTINUOUS
10
87.7236630000000019
20
-58.736309999999996
11
87.7100599999999986
21
-58.7374999999999972
0
LINE
8
B.Cu
6
CONTINUOUS
10
87.7100599999999986
20
-58.7374999999999972
11
56.1171249999999944
21
-58.7374999999999972
0
LINE
8
B.Cu
6
CONTINUOUS
10
56.1171249999999944
20
-58.7374999999999972
11
56.0667469999999994
21
-58.7191639999999992
0
LINE
8
B.Cu
6
CONTINUOUS
10
56.0667469999999994
20
-58.7191639999999992
11
56.0399409999999989
21
-58.6727349999999959
0
LINE
8
B.Cu
6
CONTINUOUS
10
56.0399409999999989
20
-58.6727349999999959
11
56.0387500000000003
21
-58.659124999999996
0
LINE
8
B.Cu
6
CONTINUOUS
10
56.0387500000000003
20
-58.659124999999996
11
56.0387500000000003
21
-51.9824969999999951
0
LINE
8
B.Cu
6
CONTINUOUS
10
56.0387500000000003
20
-51.9824969999999951
11
56.0387500000000003
21
-46.899721999999997
0
LINE
8
B.Cu
6
CONTINUOUS
10
56.0387500000000003
20
-46.899721999999997
11
56.0387500000000003
21
-23.7321249999999999
0
LINE
8
B.Cu
6
CONTINUOUS
10
56.0387500000000003
20
-23.7321249999999999
11
56.0570859999999982
21
-23.6817469999999979
0
LINE
8
B.Cu
6
CONTINUOUS
10
56.0570859999999982
20
-23.6817469999999979
11
56.1035149999999945
21
-23.6549409999999973
0
LINE
8
B.Cu
6
CONTINUOUS
10
56.1035149999999945
20
-23.6549409999999973
11
56.1171249999999944
21
-23.6537499999999987
0
LINE
8
B.Cu
6
CONTINUOUS
10
56.1171249999999944
20
-23.6537499999999987
11
87.7128879999999924
21
-23.6537499999999987
0
LINE
8
B.Cu
6
CONTINUOUS
10
87.7128879999999924
20
-23.6537499999999987
11
87.7632660000000016
21
-23.6720860000000002
0
LINE
8
B.Cu
6
CONTINUOUS
10
59.8482500000000002
20
-54.6975020000000001
11
59.8756249999999994
21
-54.8703379999999967
0
LINE
8
B.Cu
6
CONTINUOUS
10
59.8756249999999994
20
-54.8703379999999967
11
59.9297019999999989
21
-55.0367660000000001
0
LINE
8
B.Cu
6
CONTINUOUS
10
59.9297019999999989
20
-55.0367660000000001
11
60.0091449999999966
21
-55.1926819999999978
0
LINE
8
B.Cu
6
CONTINUOUS
10
60.0091449999999966
20
-55.1926819999999978
11
60.0091499999999982
21
-55.1926899999999989
0
LINE
8
B.Cu
6
CONTINUOUS
10
60.0091499999999982
20
-55.1926899999999989
11
60.1119989999999973
21
-55.3342509999999947
0
LINE
8
B.Cu
6
CONTINUOUS
10
60.1119989999999973
20
-55.3342509999999947
11
60.1120099999999979
21
-55.3342639999999975
0
LINE
8
B.Cu
6
CONTINUOUS
10
60.1120099999999979
20
-55.3342639999999975
11
60.2357349999999983
21
-55.4579889999999978
0
LINE
8
B.Cu
6
CONTINUOUS
10
60.2357349999999983
20
-55.4579889999999978
11
60.2357479999999939
21
-55.4579999999999984
0
LINE
8
B.Cu
6
CONTINUOUS
10
60.2357479999999939
20
-55.4579999999999984
11
60.3773089999999968
21
-55.5608489999999975
0
LINE
8
B.Cu
6
CONTINUOUS
10
60.3773089999999968
20
-55.5608489999999975
11
60.3773160000000004
21
-55.5608539999999991
0
LINE
8
B.Cu
6
CONTINUOUS
10
60.3773160000000004
20
-55.5608539999999991
11
60.5332359999999952
21
-55.6402989999999988
0
LINE
8
B.Cu
6
CONTINUOUS
10
60.5332359999999952
20
-55.6402989999999988
11
60.6620169999999987
21
-55.6821419999999989
0
LINE
8
B.Cu
6
CONTINUOUS
10
60.6620169999999987
20
-55.6821419999999989
11
60.699660999999999
21
-55.6943739999999963
0
LINE
8
B.Cu
6
CONTINUOUS
10
60.699660999999999
20
-55.6943739999999963
11
60.6996619999999965
21
-55.6943739999999963
0
LINE
8
B.Cu
6
CONTINUOUS
10
60.6996619999999965
20
-55.6943739999999963
11
60.699664999999996
21
-55.6943750000000009
0
LINE
8
B.Cu
6
CONTINUOUS
10
60.699664999999996
20
-55.6943750000000009
11
60.8725029999999947
21
-55.7217500000000001
0
LINE
8
B.Cu
6
CONTINUOUS
10
60.8725029999999947
20
-55.7217500000000001
11
60.8725059999999942
21
-55.7217500000000001
0
LINE
8
B.Cu
6
CONTINUOUS
10
60.8725059999999942
20
-55.7217500000000001
11
61.0474940000000004
21
-55.7217500000000001
0
LINE
8
B.Cu
6
CONTINUOUS
10
61.0474940000000004
20
-55.7217500000000001
11
61.0474969999999999
21
-55.7217500000000001
0
LINE
8
B.Cu
6
CONTINUOUS
10
61.0474969999999999
20
-55.7217500000000001
11
61.2203349999999986
21
-55.6943750000000009
0
LINE
8
B.Cu
6
CONTINUOUS
10
61.2203349999999986
20
-55.6943750000000009
11
61.3867639999999994
21
-55.6402989999999988
0
LINE
8
B.Cu
6
CONTINUOUS
10
61.3867639999999994
20
-55.6402989999999988
11
61.5426839999999942
21
-55.5608539999999991
0
LINE
8
B.Cu
6
CONTINUOUS
10
61.5426839999999942
20
-55.5608539999999991
11
61.6842569999999952
21
-55.4579959999999943
0
LINE
8
B.Cu
6
CONTINUOUS
10
61.6842569999999952
20
-55.4579959999999943
11
61.8079959999999957
21
-55.3342570000000009
0
LINE
8
B.Cu
6
CONTINUOUS
10
61.8079959999999957
20
-55.3342570000000009
11
61.9108540000000005
21
-55.1926839999999999
0
LINE
8
B.Cu
6
CONTINUOUS
10
61.9108540000000005
20
-55.1926839999999999
11
61.9902990000000003
21
-55.036763999999998
0
LINE
8
B.Cu
6
CONTINUOUS
10
61.9902990000000003
20
-55.036763999999998
11
62.0443749999999952
21
-54.8703349999999972
0
LINE
8
B.Cu
6
CONTINUOUS
10
62.0443749999999952
20
-54.8703349999999972
11
62.0717499999999944
21
-54.6974969999999985
0
LINE
8
B.Cu
6
CONTINUOUS
10
62.0717499999999944
20
-54.6974969999999985
11
62.0717499999999944
21
-51.9825029999999941
0
LINE
8
B.Cu
6
CONTINUOUS
10
62.0717499999999944
20
-51.9825029999999941
11
62.0443749999999952
21
-51.8096649999999954
0
LINE
8
B.Cu
6
CONTINUOUS
10
62.0443749999999952
20
-51.8096649999999954
11
61.9902990000000003
21
-51.6432359999999946
0
LINE
8
B.Cu
6
CONTINUOUS
10
61.9902990000000003
20
-51.6432359999999946
11
61.9108540000000005
21
-51.4873159999999999
0
LINE
8
B.Cu
6
CONTINUOUS
10
61.9108540000000005
20
-51.4873159999999999
11
61.8079959999999957
21
-51.3457429999999988
0
LINE
8
B.Cu
6
CONTINUOUS
10
61.8079959999999957
20
-51.3457429999999988
11
61.8079939999999937
21
-51.3457409999999967
0
LINE
8
B.Cu
6
CONTINUOUS
10
61.8079939999999937
20
-51.3457409999999967
11
61.8079889999999992
21
-51.3457349999999977
0
LINE
8
B.Cu
6
CONTINUOUS
10
61.8079889999999992
20
-51.3457349999999977
11
61.6842639999999989
21
-51.2220099999999974
0
LINE
8
B.Cu
6
CONTINUOUS
10
61.6842639999999989
20
-51.2220099999999974
11
61.6842509999999962
21
-51.2219989999999967
0
LINE
8
B.Cu
6
CONTINUOUS
10
61.6842509999999962
20
-51.2219989999999967
11
61.5426900000000003
21
-51.1191499999999976
0
LINE
8
B.Cu
6
CONTINUOUS
10
61.5426900000000003
20
-51.1191499999999976
11
61.5426819999999992
21
-51.1191449999999961
0
LINE
8
B.Cu
6
CONTINUOUS
10
61.5426819999999992
20
-51.1191449999999961
11
61.3867659999999944
21
-51.0397019999999983
0
LINE
8
B.Cu
6
CONTINUOUS
10
61.3867659999999944
20
-51.0397019999999983
11
61.3867649999999969
21
-51.0397010000000009
0
LINE
8
B.Cu
6
CONTINUOUS
10
61.3867649999999969
20
-51.0397010000000009
11
61.3867639999999994
21
-51.0397010000000009
0
LINE
8
B.Cu
6
CONTINUOUS
10
61.3867639999999994
20
-51.0397010000000009
11
61.3427799999999976
21
-51.0254100000000008
0
LINE
8
B.Cu
6
CONTINUOUS
10
61.3427799999999976
20
-51.0254100000000008
11
61.2203379999999981
21
-50.9856249999999989
0
LINE
8
B.Cu
6
CONTINUOUS
10
61.2203379999999981
20
-50.9856249999999989
11
61.0475019999999944
21
-50.9582499999999996
0
LINE
8
B.Cu
6
CONTINUOUS
10
61.0475019999999944
20
-50.9582499999999996
11
61.0474969999999999
21
-50.9582499999999996
0
LINE
8
B.Cu
6
CONTINUOUS
10
61.0474969999999999
20
-50.9582499999999996
11
60.8725029999999947
21
-50.9582499999999996
0
LINE
8
B.Cu
6
CONTINUOUS
10
60.8725029999999947
20
-50.9582499999999996
11
60.8724969999999956
21
-50.9582499999999996
0
LINE
8
B.Cu
6
CONTINUOUS
10
60.8724969999999956
20
-50.9582499999999996
11
60.699660999999999
21
-50.9856249999999989
0
LINE
8
B.Cu
6
CONTINUOUS
10
60.699660999999999
20
-50.9856249999999989
11
60.5332329999999956
21
-51.0397019999999983
0
LINE
8
B.Cu
6
CONTINUOUS
10
60.5332329999999956
20
-51.0397019999999983
11
60.3773169999999979
21
-51.1191449999999961
0
LINE
8
B.Cu
6
CONTINUOUS
10
60.3773169999999979
20
-51.1191449999999961
11
60.3773089999999968
21
-51.1191499999999976
0
LINE
8
B.Cu
6
CONTINUOUS
10
60.3773089999999968
20
-51.1191499999999976
11
60.2357479999999939
21
-51.2219989999999967
0
LINE
8
B.Cu
6
CONTINUOUS
10
60.2357479999999939
20
-51.2219989999999967
11
60.2357349999999983
21
-51.2220099999999974
0
LINE
8
B.Cu
6
CONTINUOUS
10
60.2357349999999983
20
-51.2220099999999974
11
60.1120099999999979
21
-51.3457349999999977
0
LINE
8
B.Cu
6
CONTINUOUS
10
60.1120099999999979
20
-51.3457349999999977
11
60.1119989999999973
21
-51.3457480000000004
0
LINE
8
B.Cu
6
CONTINUOUS
10
60.1119989999999973
20
-51.3457480000000004
11
60.0091499999999982
21
-51.4873089999999962
0
LINE
8
B.Cu
6
CONTINUOUS
10
60.0091499999999982
20
-51.4873089999999962
11
60.0091449999999966
21
-51.4873169999999973
0
LINE
8
B.Cu
6
CONTINUOUS
10
60.0091449999999966
20
-51.4873169999999973
11
59.9297019999999989
21
-51.6432329999999951
0
LINE
8
B.Cu
6
CONTINUOUS
10
59.9297019999999989
20
-51.6432329999999951
11
59.8756249999999994
21
-51.8096609999999984
0
LINE
8
B.Cu
6
CONTINUOUS
10
59.8756249999999994
20
-51.8096609999999984
11
59.8482500000000002
21
-51.9824969999999951
0
LINE
8
B.Cu
6
CONTINUOUS
10
59.8482500000000002
20
-51.9824969999999951
11
59.8482500000000002
21
-54.6975020000000001
0
LINE
8
B.Cu
6
CONTINUOUS
10
66.1982489999999899
20
-47.0775019999999955
11
66.2256249999999937
21
-47.2503349999999998
0
LINE
8
B.Cu
6
CONTINUOUS
10
66.2256249999999937
20
-47.2503349999999998
11
66.2256249999999937
21
-47.2503359999999972
0
LINE
8
B.Cu
6
CONTINUOUS
10
66.2256249999999937
20
-47.2503359999999972
11
66.244733999999994
21
-47.3091469999999958
0
LINE
8
B.Cu
6
CONTINUOUS
10
66.244733999999994
20
-47.3091469999999958
11
66.2796979999999962
21
-47.416758999999999
0
LINE
8
B.Cu
6
CONTINUOUS
10
66.2796979999999962
20
-47.416758999999999
11
66.359144999999998
21
-47.5726820000000004
0
LINE
8
B.Cu
6
CONTINUOUS
10
66.359144999999998
20
-47.5726820000000004
11
66.3591499999999996
21
-47.5726899999999944
0
LINE
8
B.Cu
6
CONTINUOUS
10
66.3591499999999996
20
-47.5726899999999944
11
66.4619989999999916
21
-47.7142509999999973
0
LINE
8
B.Cu
6
CONTINUOUS
10
66.4619989999999916
20
-47.7142509999999973
11
66.4620099999999923
21
-47.714264
0
LINE
8
B.Cu
6
CONTINUOUS
10
66.4620099999999923
20
-47.714264
11
66.5884690000000035
21
-47.840722999999997
0
LINE
8
B.Cu
6
CONTINUOUS
10
66.5884690000000035
20
-47.840722999999997
11
66.5884909999999905
21
-47.8407429999999962
0
LINE
8
B.Cu
6
CONTINUOUS
10
66.5884909999999905
20
-47.8407429999999962
11
67.4452939999999899
21
-48.6975459999999956
0
LINE
8
B.Cu
6
CONTINUOUS
10
67.4452939999999899
20
-48.6975459999999956
11
67.4679519999999968
21
-48.7461339999999979
0
LINE
8
B.Cu
6
CONTINUOUS
10
67.4679519999999968
20
-48.7461339999999979
11
67.4682499999999976
21
-48.7529649999999961
0
LINE
8
B.Cu
6
CONTINUOUS
10
67.4682499999999976
20
-48.7529649999999961
11
67.4682499999999976
21
-54.6975020000000001
0
LINE
8
B.Cu
6
CONTINUOUS
10
67.4682499999999976
20
-54.6975020000000001
11
67.495625000000004
21
-54.8703379999999967
0
LINE
8
B.Cu
6
CONTINUOUS
10
67.495625000000004
20
-54.8703379999999967
11
67.5497019999999964
21
-55.0367660000000001
0
LINE
8
B.Cu
6
CONTINUOUS
10
67.5497019999999964
20
-55.0367660000000001
11
67.6291449999999941
21
-55.1926819999999978
0
LINE
8
B.Cu
6
CONTINUOUS
10
67.6291449999999941
20
-55.1926819999999978
11
67.6291499999999957
21
-55.1926899999999989
0
LINE
8
B.Cu
6
CONTINUOUS
10
67.6291499999999957
20
-55.1926899999999989
11
67.7319990000000018
21
-55.3342509999999947
0
LINE
8
B.Cu
6
CONTINUOUS
10
67.7319990000000018
20
-55.3342509999999947
11
67.7320100000000025
21
-55.3342639999999975
0
LINE
8
B.Cu
6
CONTINUOUS
10
67.7320100000000025
20
-55.3342639999999975
11
67.8557349999999957
21
-55.4579889999999978
0
LINE
8
B.Cu
6
CONTINUOUS
10
67.8557349999999957
20
-55.4579889999999978
11
67.8557479999999913
21
-55.4579999999999984
0
LINE
8
B.Cu
6
CONTINUOUS
10
67.8557479999999913
20
-55.4579999999999984
11
67.9973090000000013
21
-55.5608489999999975
0
LINE
8
B.Cu
6
CONTINUOUS
10
67.9973090000000013
20
-55.5608489999999975
11
67.9973159999999979
21
-55.5608539999999991
0
LINE
8
B.Cu
6
CONTINUOUS
10
67.9973159999999979
20
-55.5608539999999991
11
68.1532359999999926
21
-55.6402989999999988
0
LINE
8
B.Cu
6
CONTINUOUS
10
68.1532359999999926
20
-55.6402989999999988
11
68.2820169999999962
21
-55.6821419999999989
0
LINE
8
B.Cu
6
CONTINUOUS
10
68.2820169999999962
20
-55.6821419999999989
11
68.3196609999999964
21
-55.6943739999999963
0
LINE
8
B.Cu
6
CONTINUOUS
10
68.3196609999999964
20
-55.6943739999999963
11
68.3196619999999939
21
-55.6943739999999963
0
LINE
8
B.Cu
6
CONTINUOUS
10
68.3196619999999939
20
-55.6943739999999963
11
68.3196650000000005
21
-55.6943750000000009
0
LINE
8
B.Cu
6
CONTINUOUS
10
68.3196650000000005
20
-55.6943750000000009
11
68.4925029999999992
21
-55.7217500000000001
0
LINE
8
B.Cu
6
CONTINUOUS
10
68.4925029999999992
20
-55.7217500000000001
11
68.4925059999999917
21
-55.7217500000000001
0
LINE
8
B.Cu
6
CONTINUOUS
10
68.4925059999999917
20
-55.7217500000000001
11
68.6674939999999907
21
-55.7217500000000001
0
LINE
8
B.Cu
6
CONTINUOUS
10
68.6674939999999907
20
-55.7217500000000001
11
68.6674969999999973
21
-55.7217500000000001
0
LINE
8
B.Cu
6
CONTINUOUS
10
68.6674969999999973
20
-55.7217500000000001
11
68.8403349999999961
21
-55.6943750000000009
0
LINE
8
B.Cu
6
CONTINUOUS
10
68.8403349999999961
20
-55.6943750000000009
11
69.0067639999999898
21
-55.6402989999999988
0
LINE
8
B.Cu
6
CONTINUOUS
10
69.0067639999999898
20
-55.6402989999999988
11
69.1626839999999987
21
-55.5608539999999991
0
LINE
8
B.Cu
6
CONTINUOUS
10
69.1626839999999987
20
-55.5608539999999991
11
69.3042569999999927
21
-55.4579959999999943
0
LINE
8
B.Cu
6
CONTINUOUS
10
69.3042569999999927
20
-55.4579959999999943
11
69.4279959999999932
21
-55.3342570000000009
0
LINE
8
B.Cu
6
CONTINUOUS
10
69.4279959999999932
20
-55.3342570000000009
11
69.5308539999999908
21
-55.1926839999999999
0
LINE
8
B.Cu
6
CONTINUOUS
10
69.5308539999999908
20
-55.1926839999999999
11
69.6102989999999977
21
-55.036763999999998
0
LINE
8
B.Cu
6
CONTINUOUS
10
69.6102989999999977
20
-55.036763999999998
11
69.6643749999999926
21
-54.8703349999999972
0
LINE
8
B.Cu
6
CONTINUOUS
10
69.6643749999999926
20
-54.8703349999999972
11
69.691749999999999
21
-54.6974969999999985
0
LINE
8
B.Cu
6
CONTINUOUS
10
69.691749999999999
20
-54.6974969999999985
11
69.691749999999999
21
-48.3507469999999984
0
LINE
8
B.Cu
6
CONTINUOUS
10
69.691749999999999
20
-48.3507469999999984
11
69.6917509999999965
21
-48.3507219999999975
0
LINE
8
B.Cu
6
CONTINUOUS
10
69.6917509999999965
20
-48.3507219999999975
11
69.6917509999999965
21
-48.1725059999999985
0
LINE
8
B.Cu
6
CONTINUOUS
10
69.6917509999999965
20
-48.1725059999999985
11
69.691749999999999
21
-48.1724969999999999
0
LINE
8
B.Cu
6
CONTINUOUS
10
69.691749999999999
20
-48.1724969999999999
11
69.6643739999999951
21
-47.9996599999999987
0
LINE
8
B.Cu
6
CONTINUOUS
10
69.6643739999999951
20
-47.9996599999999987
11
69.6521419999999978
21
-47.962015000000001
0
LINE
8
B.Cu
6
CONTINUOUS
10
69.6521419999999978
20
-47.962015000000001
11
69.6102989999999977
21
-47.8332359999999994
0
LINE
8
B.Cu
6
CONTINUOUS
10
69.6102989999999977
20
-47.8332359999999994
11
69.5308539999999908
21
-47.6773159999999976
0
LINE
8
B.Cu
6
CONTINUOUS
10
69.5308539999999908
20
-47.6773159999999976
11
69.5308490000000035
21
-47.677309000000001
0
LINE
8
B.Cu
6
CONTINUOUS
10
69.5308490000000035
20
-47.677309000000001
11
69.4279999999999973
21
-47.5357479999999981
0
LINE
8
B.Cu
6
CONTINUOUS
10
69.4279999999999973
20
-47.5357479999999981
11
69.4279889999999966
21
-47.5357349999999954
0
LINE
8
B.Cu
6
CONTINUOUS
10
69.4279889999999966
20
-47.5357349999999954
11
69.3023060000000015
21
-47.4100520000000003
0
LINE
8
B.Cu
6
CONTINUOUS
10
69.3023060000000015
20
-47.4100520000000003
11
69.3022749999999945
21
-47.4100229999999954
0
LINE
8
B.Cu
6
CONTINUOUS
10
69.3022749999999945
20
-47.4100229999999954
11
68.4447059999999965
21
-46.5524539999999973
0
LINE
8
B.Cu
6
CONTINUOUS
10
68.4447059999999965
20
-46.5524539999999973
11
68.4220480000000038
21
-46.503865999999995
0
LINE
8
B.Cu
6
CONTINUOUS
10
68.4220480000000038
20
-46.503865999999995
11
68.421750000000003
21
-46.4970349999999968
0
LINE
8
B.Cu
6
CONTINUOUS
10
68.421750000000003
20
-46.4970349999999968
11
68.421750000000003
21
-32.4612559999999988
0
LINE
8
B.Cu
6
CONTINUOUS
10
68.421750000000003
20
-32.4612559999999988
11
68.4217489999999913
21
-32.4612470000000002
0
LINE
8
B.Cu
6
CONTINUOUS
10
68.4217489999999913
20
-32.4612470000000002
11
68.3943739999999991
21
-32.2884109999999964
0
LINE
8
B.Cu
6
CONTINUOUS
10
68.3943739999999991
20
-32.2884109999999964
11
68.3821420000000018
21
-32.2507669999999962
0
LINE
8
B.Cu
6
CONTINUOUS
10
68.3821420000000018
20
-32.2507669999999962
11
68.3402990000000017
21
-32.1219859999999997
0
LINE
8
B.Cu
6
CONTINUOUS
10
68.3402990000000017
20
-32.1219859999999997
11
68.2608539999999948
21
-31.9660659999999979
0
LINE
8
B.Cu
6
CONTINUOUS
10
68.2608539999999948
20
-31.9660659999999979
11
68.1579959999999971
21
-31.8244929999999968
0
LINE
8
B.Cu
6
CONTINUOUS
10
68.1579959999999971
20
-31.8244929999999968
11
68.1579940000000022
21
-31.8244909999999983
0
LINE
8
B.Cu
6
CONTINUOUS
10
68.1579940000000022
20
-31.8244909999999983
11
68.1579890000000006
21
-31.8244849999999992
0
LINE
8
B.Cu
6
CONTINUOUS
10
68.1579890000000006
20
-31.8244849999999992
11
68.0342639999999932
21
-31.7007599999999989
0
LINE
8
B.Cu
6
CONTINUOUS
10
68.0342639999999932
20
-31.7007599999999989
11
68.0342509999999976
21
-31.7007489999999983
0
LINE
8
B.Cu
6
CONTINUOUS
10
68.0342509999999976
20
-31.7007489999999983
11
67.8926900000000018
21
-31.5978999999999992
0
LINE
8
B.Cu
6
CONTINUOUS
10
67.8926900000000018
20
-31.5978999999999992
11
67.8926819999999935
21
-31.5978949999999976
0
LINE
8
B.Cu
6
CONTINUOUS
10
67.8926819999999935
20
-31.5978949999999976
11
67.7367660000000029
21
-31.5184519999999999
0
LINE
8
B.Cu
6
CONTINUOUS
10
67.7367660000000029
20
-31.5184519999999999
11
67.7367649999999912
21
-31.5184509999999989
0
LINE
8
B.Cu
6
CONTINUOUS
10
67.7367649999999912
20
-31.5184509999999989
11
67.7367639999999938
21
-31.5184509999999989
0
LINE
8
B.Cu
6
CONTINUOUS
10
67.7367639999999938
20
-31.5184509999999989
11
67.6927799999999991
21
-31.5041599999999988
0
LINE
8
B.Cu
6
CONTINUOUS
10
67.6927799999999991
20
-31.5041599999999988
11
67.5703379999999925
21
-31.4643749999999969
0
LINE
8
B.Cu
6
CONTINUOUS
10
67.5703379999999925
20
-31.4643749999999969
11
67.3975020000000029
21
-31.4369999999999976
0
LINE
8
B.Cu
6
CONTINUOUS
10
67.3975020000000029
20
-31.4369999999999976
11
67.3974970000000013
21
-31.4369999999999976
0
LINE
8
B.Cu
6
CONTINUOUS
10
67.3974970000000013
20
-31.4369999999999976
11
67.2225030000000032
21
-31.4369999999999976
0
LINE
8
B.Cu
6
CONTINUOUS
10
67.2225030000000032
20
-31.4369999999999976
11
67.22249699999999
21
-31.4369999999999976
0
LINE
8
B.Cu
6
CONTINUOUS
10
67.22249699999999
20
-31.4369999999999976
11
67.0496610000000004
21
-31.4643749999999969
0
LINE
8
B.Cu
6
CONTINUOUS
10
67.0496610000000004
20
-31.4643749999999969
11
66.8832329999999899
21
-31.5184519999999999
0
LINE
8
B.Cu
6
CONTINUOUS
10
66.8832329999999899
20
-31.5184519999999999
11
66.7273169999999993
21
-31.5978949999999976
0
LINE
8
B.Cu
6
CONTINUOUS
10
66.7273169999999993
20
-31.5978949999999976
11
66.7273089999999911
21
-31.5978999999999992
0
LINE
8
B.Cu
6
CONTINUOUS
10
66.7273089999999911
20
-31.5978999999999992
11
66.5857479999999953
21
-31.7007489999999983
0
LINE
8
B.Cu
6
CONTINUOUS
10
66.5857479999999953
20
-31.7007489999999983
11
66.5857349999999997
21
-31.7007599999999989
0
LINE
8
B.Cu
6
CONTINUOUS
10
66.5857349999999997
20
-31.7007599999999989
11
66.4620099999999923
21
-31.8244849999999992
0
LINE
8
B.Cu
6
CONTINUOUS
10
66.4620099999999923
20
-31.8244849999999992
11
66.4619989999999916
21
-31.8244979999999984
0
LINE
8
B.Cu
6
CONTINUOUS
10
66.4619989999999916
20
-31.8244979999999984
11
66.3591499999999996
21
-31.9660589999999978
0
LINE
8
B.Cu
6
CONTINUOUS
10
66.3591499999999996
20
-31.9660589999999978
11
66.359144999999998
21
-31.9660669999999989
0
LINE
8
B.Cu
6
CONTINUOUS
10
66.359144999999998
20
-31.9660669999999989
11
66.2797020000000003
21
-32.1219830000000002
0
LINE
8
B.Cu
6
CONTINUOUS
10
66.2797020000000003
20
-32.1219830000000002
11
66.2256249999999937
21
-32.2884109999999964
0
LINE
8
B.Cu
6
CONTINUOUS
10
66.2256249999999937
20
-32.2884109999999964
11
66.1982500000000016
21
-32.4612470000000002
0
LINE
8
B.Cu
6
CONTINUOUS
10
66.1982500000000016
20
-32.4612470000000002
11
66.1982500000000016
21
-46.8997069999999994
0
LINE
8
B.Cu
6
CONTINUOUS
10
66.1982500000000016
20
-46.8997069999999994
11
66.1982489999999899
21
-46.899721999999997
0
LINE
8
B.Cu
6
CONTINUOUS
10
66.1982489999999899
20
-46.899721999999997
11
66.1982489999999899
21
-47.0775019999999955
0
LINE
8
B.Cu
6
CONTINUOUS
10
143.9452459999999974
20
-41.7922639999999959
11
144.0672280000000001
21
-41.8427909999999983
0
LINE
8
B.Cu
6
CONTINUOUS
10
144.0672280000000001
20
-41.8427909999999983
11
144.1177559999999858
21
-41.8637200000000007
0
LINE
8
B.Cu
6
CONTINUOUS
10
144.1177559999999858
20
-41.8637200000000007
11
144.2730099999999993
21
-41.9674580000000006
0
LINE
8
B.Cu
6
CONTINUOUS
10
144.2730099999999993
20
-41.9674580000000006
11
144.3422689999999875
21
-42.0302310000000006
0
LINE
8
B.Cu
6
CONTINUOUS
10
144.3422689999999875
20
-42.0302310000000006
11
148.8297039999999924
21
-46.5176650000000009
0
LINE
8
B.Cu
6
CONTINUOUS
10
148.8297039999999924
20
-46.5176650000000009
11
148.8483929999999873
21
-46.5176650000000009
0
LINE
8
B.Cu
6
CONTINUOUS
10
148.8483929999999873
20
-46.5176650000000009
11
149.0452259999999853
21
-46.5488399999999984
0
LINE
8
B.Cu
6
CONTINUOUS
10
149.0452259999999853
20
-46.5488399999999984
11
149.2347579999999994
21
-46.6104229999999973
0
LINE
8
B.Cu
6
CONTINUOUS
10
149.2347579999999994
20
-46.6104229999999973
11
149.4123229999999865
21
-46.7008969999999977
0
LINE
8
B.Cu
6
CONTINUOUS
10
149.4123229999999865
20
-46.7008969999999977
11
149.5735489999999857
21
-46.8180339999999973
0
LINE
8
B.Cu
6
CONTINUOUS
10
149.5735489999999857
20
-46.8180339999999973
11
149.7144659999999874
21
-46.958950999999999
0
LINE
8
B.Cu
6
CONTINUOUS
10
149.7144659999999874
20
-46.958950999999999
11
149.8316030000000012
21
-47.1201769999999982
0
LINE
8
B.Cu
6
CONTINUOUS
10
149.8316030000000012
20
-47.1201769999999982
11
149.9220770000000016
21
-47.2977419999999995
0
LINE
8
B.Cu
6
CONTINUOUS
10
149.9220770000000016
20
-47.2977419999999995
11
149.9836599999999862
21
-47.4872739999999993
0
LINE
8
B.Cu
6
CONTINUOUS
10
149.9836599999999862
20
-47.4872739999999993
11
150.014835000000005
21
-47.6841069999999974
0
LINE
8
B.Cu
6
CONTINUOUS
10
150.014835000000005
20
-47.6841069999999974
11
150.014835000000005
21
-47.8833929999999981
0
LINE
8
B.Cu
6
CONTINUOUS
10
150.014835000000005
20
-47.8833929999999981
11
149.9836599999999862
21
-48.0802259999999961
0
LINE
8
B.Cu
6
CONTINUOUS
10
149.9836599999999862
20
-48.0802259999999961
11
149.9220770000000016
21
-48.2697579999999959
0
LINE
8
B.Cu
6
CONTINUOUS
10
149.9220770000000016
20
-48.2697579999999959
11
149.8316030000000012
21
-48.4473229999999973
0
LINE
8
B.Cu
6
CONTINUOUS
10
149.8316030000000012
20
-48.4473229999999973
11
149.7144659999999874
21
-48.6085489999999965
0
LINE
8
B.Cu
6
CONTINUOUS
10
149.7144659999999874
20
-48.6085489999999965
11
149.7012499999999875
21
-48.6217649999999963
0
LINE
8
B.Cu
6
CONTINUOUS
10
149.7012499999999875
20
-48.6217649999999963
11
149.7012499999999875
21
-52.863749999999996
0
LINE
8
B.Cu
6
CONTINUOUS
10
149.7012499999999875
20
-52.863749999999996
11
149.6966630000000009
21
-52.9571109999999976
0
LINE
8
B.Cu
6
CONTINUOUS
10
149.6966630000000009
20
-52.9571109999999976
11
149.6602359999999976
21
-53.1402459999999977
0
LINE
8
B.Cu
6
CONTINUOUS
10
149.6602359999999976
20
-53.1402459999999977
11
149.6183769999999811
21
-53.2412999999999954
0
LINE
8
B.Cu
6
CONTINUOUS
10
149.6183769999999811
20
-53.2412999999999954
11
149.5887799999999856
21
-53.3127560000000003
0
LINE
8
B.Cu
6
CONTINUOUS
10
149.5887799999999856
20
-53.3127560000000003
11
149.4850419999999929
21
-53.4680099999999996
0
LINE
8
B.Cu
6
CONTINUOUS
10
149.4850419999999929
20
-53.4680099999999996
11
149.422269
21
-53.5372699999999995
0
LINE
8
B.Cu
6
CONTINUOUS
10
149.422269
20
-53.5372699999999995
11
147.6760189999999966
21
-55.2835189999999983
0
LINE
8
B.Cu
6
CONTINUOUS
10
147.6760189999999966
20
-55.2835189999999983
11
147.60675999999998
21
-55.3462919999999983
0
LINE
8
B.Cu
6
CONTINUOUS
10
147.60675999999998
20
-55.3462919999999983
11
147.4515059999999949
21
-55.4500299999999982
0
LINE
8
B.Cu
6
CONTINUOUS
10
147.4515059999999949
20
-55.4500299999999982
11
147.4322640000000035
21
-55.4579999999999984
0
LINE
8
B.Cu
6
CONTINUOUS
10
147.4322640000000035
20
-55.4579999999999984
11
147.2789960000000065
21
-55.5214859999999959
0
LINE
8
B.Cu
6
CONTINUOUS
10
147.2789960000000065
20
-55.5214859999999959
11
147.0958609999999851
21
-55.5579129999999992
0
LINE
8
B.Cu
6
CONTINUOUS
10
147.0958609999999851
20
-55.5579129999999992
11
147.0024999999999977
21
-55.5625
0
LINE
8
B.Cu
6
CONTINUOUS
10
147.0024999999999977
20
-55.5625
11
143.6687499999999886
21
-55.5625
0
LINE
8
B.Cu
6
CONTINUOUS
10
143.6687499999999886
20
-55.5625
11
143.5753890000000013
21
-55.5579129999999992
0
LINE
8
B.Cu
6
CONTINUOUS
10
143.5753890000000013
20
-55.5579129999999992
11
143.3922539999999799
21
-55.5214859999999959
0
LINE
8
B.Cu
6
CONTINUOUS
10
143.3922539999999799
20
-55.5214859999999959
11
143.219744999999989
21
-55.4500299999999982
0
LINE
8
B.Cu
6
CONTINUOUS
10
143.219744999999989
20
-55.4500299999999982
11
143.0644900000000064
21
-55.3462919999999983
0
LINE
8
B.Cu
6
CONTINUOUS
10
143.0644900000000064
20
-55.3462919999999983
11
142.9324579999999969
21
-55.2142599999999959
0
LINE
8
B.Cu
6
CONTINUOUS
10
142.9324579999999969
20
-55.2142599999999959
11
142.8287200000000041
21
-55.0590049999999991
0
LINE
8
B.Cu
6
CONTINUOUS
10
142.8287200000000041
20
-55.0590049999999991
11
142.7572639999999922
21
-54.8864960000000011
0
LINE
8
B.Cu
6
CONTINUOUS
10
142.7572639999999922
20
-54.8864960000000011
11
142.7208369999999888
21
-54.703361000000001
0
LINE
8
B.Cu
6
CONTINUOUS
10
142.7208369999999888
20
-54.703361000000001
11
142.7162500000000023
21
-54.6099999999999994
0
LINE
8
B.Cu
6
CONTINUOUS
10
142.7162500000000023
20
-54.6099999999999994
11
142.7162500000000023
21
-52.0700000000000003
0
LINE
8
B.Cu
6
CONTINUOUS
10
142.7162500000000023
20
-52.0700000000000003
11
142.7208369999999888
21
-51.9766389999999987
0
LINE
8
B.Cu
6
CONTINUOUS
10
142.7208369999999888
20
-51.9766389999999987
11
142.7572639999999922
21
-51.7935039999999987
0
LINE
8
B.Cu
6
CONTINUOUS
10
142.7572639999999922
20
-51.7935039999999987
11
142.8287200000000041
21
-51.6209950000000006
0
LINE
8
B.Cu
6
CONTINUOUS
10
142.8287200000000041
20
-51.6209950000000006
11
142.9324579999999969
21
-51.4657399999999967
0
LINE
8
B.Cu
6
CONTINUOUS
10
142.9324579999999969
20
-51.4657399999999967
11
143.0644900000000064
21
-51.3337079999999943
0
LINE
8
B.Cu
6
CONTINUOUS
10
143.0644900000000064
20
-51.3337079999999943
11
143.219744999999989
21
-51.2299699999999945
0
LINE
8
B.Cu
6
CONTINUOUS
10
143.219744999999989
20
-51.2299699999999945
11
143.3922539999999799
21
-51.1585139999999967
0
LINE
8
B.Cu
6
CONTINUOUS
10
143.3922539999999799
20
-51.1585139999999967
11
143.5753890000000013
21
-51.1220870000000005
0
LINE
8
B.Cu
6
CONTINUOUS
10
143.5753890000000013
20
-51.1220870000000005
11
143.7621110000000044
21
-51.1220870000000005
0
LINE
8
B.Cu
6
CONTINUOUS
10
143.7621110000000044
20
-51.1220870000000005
11
143.9452459999999974
21
-51.1585139999999967
0
LINE
8
B.Cu
6
CONTINUOUS
10
143.9452459999999974
20
-51.1585139999999967
11
144.1177549999999883
21
-51.2299699999999945
0
LINE
8
B.Cu
6
CONTINUOUS
10
144.1177549999999883
20
-51.2299699999999945
11
144.2730099999999993
21
-51.3337079999999943
0
LINE
8
B.Cu
6
CONTINUOUS
10
144.2730099999999993
20
-51.3337079999999943
11
144.4050419999999804
21
-51.4657399999999967
0
LINE
8
B.Cu
6
CONTINUOUS
10
144.4050419999999804
20
-51.4657399999999967
11
144.5087800000000016
21
-51.6209950000000006
0
LINE
8
B.Cu
6
CONTINUOUS
10
144.5087800000000016
20
-51.6209950000000006
11
144.5802359999999851
21
-51.7935039999999987
0
LINE
8
B.Cu
6
CONTINUOUS
10
144.5802359999999851
20
-51.7935039999999987
11
144.6166629999999884
21
-51.9766389999999987
0
LINE
8
B.Cu
6
CONTINUOUS
10
144.6166629999999884
20
-51.9766389999999987
11
144.6212500000000034
21
-52.0700000000000003
0
LINE
8
B.Cu
6
CONTINUOUS
10
144.6212500000000034
20
-52.0700000000000003
11
144.6212500000000034
21
-53.6574999999999989
0
LINE
8
B.Cu
6
CONTINUOUS
10
144.6212500000000034
20
-53.6574999999999989
11
146.6079619999999863
21
-53.6574999999999989
0
LINE
8
B.Cu
6
CONTINUOUS
10
146.6079619999999863
20
-53.6574999999999989
11
147.7962499999999864
21
-52.4692109999999943
0
LINE
8
B.Cu
6
CONTINUOUS
10
147.7962499999999864
20
-52.4692109999999943
11
147.7962499999999864
21
-48.6217649999999963
0
LINE
8
B.Cu
6
CONTINUOUS
10
147.7962499999999864
20
-48.6217649999999963
11
147.7830339999999865
21
-48.6085489999999965
0
LINE
8
B.Cu
6
CONTINUOUS
10
147.7830339999999865
20
-48.6085489999999965
11
147.6658970000000011
21
-48.4473229999999973
0
LINE
8
B.Cu
6
CONTINUOUS
10
147.6658970000000011
20
-48.4473229999999973
11
147.5754230000000007
21
-48.2697579999999959
0
LINE
8
B.Cu
6
CONTINUOUS
10
147.5754230000000007
20
-48.2697579999999959
11
147.5138399999999876
21
-48.0802259999999961
0
LINE
8
B.Cu
6
CONTINUOUS
10
147.5138399999999876
20
-48.0802259999999961
11
147.4826649999999972
21
-47.8833929999999981
0
LINE
8
B.Cu
6
CONTINUOUS
10
147.4826649999999972
20
-47.8833929999999981
11
147.4826649999999972
21
-47.8647029999999987
0
LINE
8
B.Cu
6
CONTINUOUS
10
147.4826649999999972
20
-47.8647029999999987
11
142.9952309999999898
21
-43.3772689999999983
0
LINE
8
B.Cu
6
CONTINUOUS
10
142.9952309999999898
20
-43.3772689999999983
11
142.9324579999999969
21
-43.3080099999999959
0
LINE
8
B.Cu
6
CONTINUOUS
10
142.9324579999999969
20
-43.3080099999999959
11
142.8287200000000041
21
-43.1527559999999966
0
LINE
8
B.Cu
6
CONTINUOUS
10
142.8287200000000041
20
-43.1527559999999966
11
142.8077909999999804
21
-43.1022279999999967
0
LINE
8
B.Cu
6
CONTINUOUS
10
142.8077909999999804
20
-43.1022279999999967
11
142.7572639999999922
21
-42.9802460000000011
0
LINE
8
B.Cu
6
CONTINUOUS
10
142.7572639999999922
20
-42.9802460000000011
11
142.7208369999999888
21
-42.797111000000001
0
LINE
8
B.Cu
6
CONTINUOUS
10
142.7208369999999888
20
-42.797111000000001
11
142.7208369999999888
21
-42.6103889999999978
0
LINE
8
B.Cu
6
CONTINUOUS
10
142.7208369999999888
20
-42.6103889999999978
11
142.7572639999999922
21
-42.4272539999999978
0
LINE
8
B.Cu
6
CONTINUOUS
10
142.7572639999999922
20
-42.4272539999999978
11
142.8287200000000041
21
-42.2547449999999998
0
LINE
8
B.Cu
6
CONTINUOUS
10
142.8287200000000041
20
-42.2547449999999998
11
142.8287200000000041
21
-42.2547439999999952
0
LINE
8
B.Cu
6
CONTINUOUS
10
142.8287200000000041
20
-42.2547439999999952
11
142.9324579999999969
21
-42.0994899999999959
0
LINE
8
B.Cu
6
CONTINUOUS
10
142.9324579999999969
20
-42.0994899999999959
11
143.0644900000000064
21
-41.9674580000000006
0
LINE
8
B.Cu
6
CONTINUOUS
10
143.0644900000000064
20
-41.9674580000000006
11
143.2197439999999915
21
-41.8637200000000007
0
LINE
8
B.Cu
6
CONTINUOUS
10
143.2197439999999915
20
-41.8637200000000007
11
143.2702709999999797
21
-41.8427909999999983
0
LINE
8
B.Cu
6
CONTINUOUS
10
143.2702709999999797
20
-41.8427909999999983
11
143.3922539999999799
21
-41.7922639999999959
0
LINE
8
B.Cu
6
CONTINUOUS
10
143.3922539999999799
20
-41.7922639999999959
11
143.5753890000000013
21
-41.7558369999999996
0
LINE
8
B.Cu
6
CONTINUOUS
10
143.5753890000000013
20
-41.7558369999999996
11
143.7621110000000044
21
-41.7558369999999996
0
LINE
8
B.Cu
6
CONTINUOUS
10
143.7621110000000044
20
-41.7558369999999996
11
143.9452459999999974
21
-41.7922639999999959
0
LINE
8
B.Cu
6
CONTINUOUS
10
133.7852460000000008
20
-31.6322639999999993
11
133.9577549999999917
21
-31.703719999999997
0
LINE
8
B.Cu
6
CONTINUOUS
10
133.9577549999999917
20
-31.703719999999997
11
134.1130100000000027
21
-31.8074579999999969
0
LINE
8
B.Cu
6
CONTINUOUS
10
134.1130100000000027
20
-31.8074579999999969
11
134.2450419999999838
21
-31.9394899999999993
0
LINE
8
B.Cu
6
CONTINUOUS
10
134.2450419999999838
20
-31.9394899999999993
11
134.348780000000005
21
-32.0947449999999961
0
LINE
8
B.Cu
6
CONTINUOUS
10
134.348780000000005
20
-32.0947449999999961
11
134.4202359999999885
21
-32.2672540000000012
0
LINE
8
B.Cu
6
CONTINUOUS
10
134.4202359999999885
20
-32.2672540000000012
11
134.4566629999999918
21
-32.4503890000000013
0
LINE
8
B.Cu
6
CONTINUOUS
10
134.4566629999999918
20
-32.4503890000000013
11
134.4612500000000068
21
-32.5437499999999957
0
LINE
8
B.Cu
6
CONTINUOUS
10
134.4612500000000068
20
-32.5437499999999957
11
134.4612500000000068
21
-54.6099999999999994
0
LINE
8
B.Cu
6
CONTINUOUS
10
134.4612500000000068
20
-54.6099999999999994
11
134.4566629999999918
21
-54.703361000000001
0
LINE
8
B.Cu
6
CONTINUOUS
10
134.4566629999999918
20
-54.703361000000001
11
134.4202359999999885
21
-54.8864960000000011
0
LINE
8
B.Cu
6
CONTINUOUS
10
134.4202359999999885
20
-54.8864960000000011
11
134.348780000000005
21
-55.0590049999999991
0
LINE
8
B.Cu
6
CONTINUOUS
10
134.348780000000005
20
-55.0590049999999991
11
134.2450419999999838
21
-55.2142599999999959
0
LINE
8
B.Cu
6
CONTINUOUS
10
134.2450419999999838
20
-55.2142599999999959
11
134.1130100000000027
21
-55.3462919999999983
0
LINE
8
B.Cu
6
CONTINUOUS
10
134.1130100000000027
20
-55.3462919999999983
11
133.9577549999999917
21
-55.4500299999999982
0
LINE
8
B.Cu
6
CONTINUOUS
10
133.9577549999999917
20
-55.4500299999999982
11
133.7852460000000008
21
-55.5214859999999959
0
LINE
8
B.Cu
6
CONTINUOUS
10
133.7852460000000008
20
-55.5214859999999959
11
133.6021110000000078
21
-55.5579129999999992
0
LINE
8
B.Cu
6
CONTINUOUS
10
133.6021110000000078
20
-55.5579129999999992
11
133.4153890000000047
21
-55.5579129999999992
0
LINE
8
B.Cu
6
CONTINUOUS
10
133.4153890000000047
20
-55.5579129999999992
11
133.2322539999999833
21
-55.5214859999999959
0
LINE
8
B.Cu
6
CONTINUOUS
10
133.2322539999999833
20
-55.5214859999999959
11
133.0597449999999924
21
-55.4500299999999982
0
LINE
8
B.Cu
6
CONTINUOUS
10
133.0597449999999924
20
-55.4500299999999982
11
132.9044899999999814
21
-55.3462919999999983
0
LINE
8
B.Cu
6
CONTINUOUS
10
132.9044899999999814
20
-55.3462919999999983
11
132.7724580000000003
21
-55.2142599999999959
0
LINE
8
B.Cu
6
CONTINUOUS
10
132.7724580000000003
20
-55.2142599999999959
11
132.6687200000000075
21
-55.0590049999999991
0
LINE
8
B.Cu
6
CONTINUOUS
10
132.6687200000000075
20
-55.0590049999999991
11
132.5972639999999956
21
-54.8864960000000011
0
LINE
8
B.Cu
6
CONTINUOUS
10
132.5972639999999956
20
-54.8864960000000011
11
132.5608369999999923
21
-54.703361000000001
0
LINE
8
B.Cu
6
CONTINUOUS
10
132.5608369999999923
20
-54.703361000000001
11
132.5562500000000057
21
-54.6099999999999994
0
LINE
8
B.Cu
6
CONTINUOUS
10
132.5562500000000057
20
-54.6099999999999994
11
132.5562500000000057
21
-32.5437499999999957
0
LINE
8
B.Cu
6
CONTINUOUS
10
132.5562500000000057
20
-32.5437499999999957
11
132.5608369999999923
21
-32.4503890000000013
0
LINE
8
B.Cu
6
CONTINUOUS
10
132.5608369999999923
20
-32.4503890000000013
11
132.5972639999999956
21
-32.2672540000000012
0
LINE
8
B.Cu
6
CONTINUOUS
10
132.5972639999999956
20
-32.2672540000000012
11
132.6687200000000075
21
-32.0947449999999961
0
LINE
8
B.Cu
6
CONTINUOUS
10
132.6687200000000075
20
-32.0947449999999961
11
132.7724580000000003
21
-31.9394899999999993
0
LINE
8
B.Cu
6
CONTINUOUS
10
132.7724580000000003
20
-31.9394899999999993
11
132.9044899999999814
21
-31.8074579999999969
0
LINE
8
B.Cu
6
CONTINUOUS
10
132.9044899999999814
20
-31.8074579999999969
11
133.0597449999999924
21
-31.703719999999997
0
LINE
8
B.Cu
6
CONTINUOUS
10
133.0597449999999924
20
-31.703719999999997
11
133.2322539999999833
21
-31.6322639999999993
0
LINE
8
B.Cu
6
CONTINUOUS
10
133.2322539999999833
20
-31.6322639999999993
11
133.4153890000000047
21
-31.5958369999999995
0
LINE
8
B.Cu
6
CONTINUOUS
10
133.4153890000000047
20
-31.5958369999999995
11
133.6021110000000078
21
-31.5958369999999995
0
LINE
8
B.Cu
6
CONTINUOUS
10
133.6021110000000078
20
-31.5958369999999995
11
133.7852460000000008
21
-31.6322639999999993
0
LINE
8
B.Cu
6
CONTINUOUS
10
136.3252459999999928
20
-53.6985139999999959
11
136.4977549999999837
21
-53.7699700000000007
0
LINE
8
B.Cu
6
CONTINUOUS
10
136.4977549999999837
20
-53.7699700000000007
11
136.6530099999999948
21
-53.8737080000000006
0
LINE
8
B.Cu
6
CONTINUOUS
10
136.6530099999999948
20
-53.8737080000000006
11
136.7850420000000042
21
-54.0057399999999959
0
LINE
8
B.Cu
6
CONTINUOUS
10
136.7850420000000042
20
-54.0057399999999959
11
136.888779999999997
21
-54.1609949999999998
0
LINE
8
B.Cu
6
CONTINUOUS
10
136.888779999999997
20
-54.1609949999999998
11
136.9602359999999805
21
-54.3335039999999978
0
LINE
8
B.Cu
6
CONTINUOUS
10
136.9602359999999805
20
-54.3335039999999978
11
136.9966629999999839
21
-54.5166389999999978
0
LINE
8
B.Cu
6
CONTINUOUS
10
136.9966629999999839
20
-54.5166389999999978
11
136.9966629999999839
21
-54.703361000000001
0
LINE
8
B.Cu
6
CONTINUOUS
10
136.9966629999999839
20
-54.703361000000001
11
136.9602359999999805
21
-54.8864960000000011
0
LINE
8
B.Cu
6
CONTINUOUS
10
136.9602359999999805
20
-54.8864960000000011
11
136.888779999999997
21
-55.0590049999999991
0
LINE
8
B.Cu
6
CONTINUOUS
10
136.888779999999997
20
-55.0590049999999991
11
136.7850420000000042
21
-55.2142599999999959
0
LINE
8
B.Cu
6
CONTINUOUS
10
136.7850420000000042
20
-55.2142599999999959
11
136.6530099999999948
21
-55.3462919999999983
0
LINE
8
B.Cu
6
CONTINUOUS
10
136.6530099999999948
20
-55.3462919999999983
11
136.4977549999999837
21
-55.4500299999999982
0
LINE
8
B.Cu
6
CONTINUOUS
10
136.4977549999999837
20
-55.4500299999999982
11
136.3252459999999928
21
-55.5214859999999959
0
LINE
8
B.Cu
6
CONTINUOUS
10
136.3252459999999928
20
-55.5214859999999959
11
136.1421109999999999
21
-55.5579129999999992
0
LINE
8
B.Cu
6
CONTINUOUS
10
136.1421109999999999
20
-55.5579129999999992
11
135.9553889999999967
21
-55.5579129999999992
0
LINE
8
B.Cu
6
CONTINUOUS
10
135.9553889999999967
20
-55.5579129999999992
11
135.7722540000000038
21
-55.5214859999999959
0
LINE
8
B.Cu
6
CONTINUOUS
10
135.7722540000000038
20
-55.5214859999999959
11
135.5997449999999844
21
-55.4500299999999982
0
LINE
8
B.Cu
6
CONTINUOUS
10
135.5997449999999844
20
-55.4500299999999982
11
135.4444900000000018
21
-55.3462919999999983
0
LINE
8
B.Cu
6
CONTINUOUS
10
135.4444900000000018
20
-55.3462919999999983
11
135.3124579999999924
21
-55.2142599999999959
0
LINE
8
B.Cu
6
CONTINUOUS
10
135.3124579999999924
20
-55.2142599999999959
11
135.2087199999999996
21
-55.0590049999999991
0
LINE
8
B.Cu
6
CONTINUOUS
10
135.2087199999999996
20
-55.0590049999999991
11
135.1372639999999876
21
-54.8864960000000011
0
LINE
8
B.Cu
6
CONTINUOUS
10
135.1372639999999876
20
-54.8864960000000011
11
135.1008369999999843
21
-54.703361000000001
0
LINE
8
B.Cu
6
CONTINUOUS
10
135.1008369999999843
20
-54.703361000000001
11
135.1008369999999843
21
-54.5166389999999978
0
LINE
8
B.Cu
6
CONTINUOUS
10
135.1008369999999843
20
-54.5166389999999978
11
135.1372639999999876
21
-54.3335039999999978
0
LINE
8
B.Cu
6
CONTINUOUS
10
135.1372639999999876
20
-54.3335039999999978
11
135.2087199999999996
21
-54.1609949999999998
0
LINE
8
B.Cu
6
CONTINUOUS
10
135.2087199999999996
20
-54.1609949999999998
11
135.3124579999999924
21
-54.0057399999999959
0
LINE
8
B.Cu
6
CONTINUOUS
10
135.3124579999999924
20
-54.0057399999999959
11
135.4444900000000018
21
-53.8737080000000006
0
LINE
8
B.Cu
6
CONTINUOUS
10
135.4444900000000018
20
-53.8737080000000006
11
135.5997449999999844
21
-53.7699700000000007
0
LINE
8
B.Cu
6
CONTINUOUS
10
135.5997449999999844
20
-53.7699700000000007
11
135.7722540000000038
21
-53.6985139999999959
0
LINE
8
B.Cu
6
CONTINUOUS
10
135.7722540000000038
20
-53.6985139999999959
11
135.9553889999999967
21
-53.6620869999999996
0
LINE
8
B.Cu
6
CONTINUOUS
10
135.9553889999999967
20
-53.6620869999999996
11
136.1421109999999999
21
-53.6620869999999996
0
LINE
8
B.Cu
6
CONTINUOUS
10
136.1421109999999999
20
-53.6620869999999996
11
136.3252459999999928
21
-53.6985139999999959
0
LINE
8
B.Cu
6
CONTINUOUS
10
149.0452259999999853
20
-26.2288399999999982
11
149.2347579999999994
21
-26.2904230000000005
0
LINE
8
B.Cu
6
CONTINUOUS
10
149.2347579999999994
20
-26.2904230000000005
11
149.4123229999999865
21
-26.3808969999999974
0
LINE
8
B.Cu
6
CONTINUOUS
10
149.4123229999999865
20
-26.3808969999999974
11
149.5735489999999857
21
-26.4980340000000005
0
LINE
8
B.Cu
6
CONTINUOUS
10
149.5735489999999857
20
-26.4980340000000005
11
149.7144659999999874
21
-26.6389509999999987
0
LINE
8
B.Cu
6
CONTINUOUS
10
149.7144659999999874
20
-26.6389509999999987
11
149.8316030000000012
21
-26.8001769999999979
0
LINE
8
B.Cu
6
CONTINUOUS
10
149.8316030000000012
20
-26.8001769999999979
11
149.9220770000000016
21
-26.9777419999999992
0
LINE
8
B.Cu
6
CONTINUOUS
10
149.9220770000000016
20
-26.9777419999999992
11
149.9836599999999862
21
-27.167273999999999
0
LINE
8
B.Cu
6
CONTINUOUS
10
149.9836599999999862
20
-27.167273999999999
11
150.014835000000005
21
-27.3641069999999971
0
LINE
8
B.Cu
6
CONTINUOUS
10
150.014835000000005
20
-27.3641069999999971
11
150.014835000000005
21
-27.5633929999999978
0
LINE
8
B.Cu
6
CONTINUOUS
10
150.014835000000005
20
-27.5633929999999978
11
149.9836599999999862
21
-27.7602259999999994
0
LINE
8
B.Cu
6
CONTINUOUS
10
149.9836599999999862
20
-27.7602259999999994
11
149.9220770000000016
21
-27.9497579999999992
0
LINE
8
B.Cu
6
CONTINUOUS
10
149.9220770000000016
20
-27.9497579999999992
11
149.8316030000000012
21
-28.127322999999997
0
LINE
8
B.Cu
6
CONTINUOUS
10
149.8316030000000012
20
-28.127322999999997
11
149.7144659999999874
21
-28.2885489999999997
0
LINE
8
B.Cu
6
CONTINUOUS
10
149.7144659999999874
20
-28.2885489999999997
11
149.5735489999999857
21
-28.4294659999999979
0
LINE
8
B.Cu
6
CONTINUOUS
10
149.5735489999999857
20
-28.4294659999999979
11
149.4123229999999865
21
-28.5466029999999975
0
LINE
8
B.Cu
6
CONTINUOUS
10
149.4123229999999865
20
-28.5466029999999975
11
149.2347579999999994
21
-28.6370769999999979
0
LINE
8
B.Cu
6
CONTINUOUS
10
149.2347579999999994
20
-28.6370769999999979
11
149.0452259999999853
21
-28.6986600000000003
0
LINE
8
B.Cu
6
CONTINUOUS
10
149.0452259999999853
20
-28.6986600000000003
11
148.8483929999999873
21
-28.7298349999999978
0
LINE
8
B.Cu
6
CONTINUOUS
10
148.8483929999999873
20
-28.7298349999999978
11
148.829702999999995
21
-28.7298349999999978
0
LINE
8
B.Cu
6
CONTINUOUS
10
148.829702999999995
20
-28.7298349999999978
11
139.5412499999999909
21
-38.0182879999999983
0
LINE
8
B.Cu
6
CONTINUOUS
10
139.5412499999999909
20
-38.0182879999999983
11
139.5412499999999909
21
-54.6099999999999994
0
LINE
8
B.Cu
6
CONTINUOUS
10
139.5412499999999909
20
-54.6099999999999994
11
139.5366630000000043
21
-54.703361000000001
0
LINE
8
B.Cu
6
CONTINUOUS
10
139.5366630000000043
20
-54.703361000000001
11
139.500236000000001
21
-54.8864960000000011
0
LINE
8
B.Cu
6
CONTINUOUS
10
139.500236000000001
20
-54.8864960000000011
11
139.4287799999999891
21
-55.0590049999999991
0
LINE
8
B.Cu
6
CONTINUOUS
10
139.4287799999999891
20
-55.0590049999999991
11
139.3250419999999963
21
-55.2142599999999959
0
LINE
8
B.Cu
6
CONTINUOUS
10
139.3250419999999963
20
-55.2142599999999959
11
139.1930099999999868
21
-55.3462919999999983
0
LINE
8
B.Cu
6
CONTINUOUS
10
139.1930099999999868
20
-55.3462919999999983
11
139.0377550000000042
21
-55.4500299999999982
0
LINE
8
B.Cu
6
CONTINUOUS
10
139.0377550000000042
20
-55.4500299999999982
11
138.8652459999999849
21
-55.5214859999999959
0
LINE
8
B.Cu
6
CONTINUOUS
10
138.8652459999999849
20
-55.5214859999999959
11
138.6821109999999919
21
-55.5579129999999992
0
LINE
8
B.Cu
6
CONTINUOUS
10
138.6821109999999919
20
-55.5579129999999992
11
138.4953889999999888
21
-55.5579129999999992
0
LINE
8
B.Cu
6
CONTINUOUS
10
138.4953889999999888
20
-55.5579129999999992
11
138.3122539999999958
21
-55.5214859999999959
0
LINE
8
B.Cu
6
CONTINUOUS
10
138.3122539999999958
20
-55.5214859999999959
11
138.1397450000000049
21
-55.4500299999999982
0
LINE
8
B.Cu
6
CONTINUOUS
10
138.1397450000000049
20
-55.4500299999999982
11
137.9844899999999939
21
-55.3462919999999983
0
LINE
8
B.Cu
6
CONTINUOUS
10
137.9844899999999939
20
-55.3462919999999983
11
137.8524579999999844
21
-55.2142599999999959
0
LINE
8
B.Cu
6
CONTINUOUS
10
137.8524579999999844
20
-55.2142599999999959
11
137.7487199999999916
21
-55.0590049999999991
0
LINE
8
B.Cu
6
CONTINUOUS
10
137.7487199999999916
20
-55.0590049999999991
11
137.6772639999999797
21
-54.8864960000000011
0
LINE
8
B.Cu
6
CONTINUOUS
10
137.6772639999999797
20
-54.8864960000000011
11
137.6408370000000048
21
-54.703361000000001
0
LINE
8
B.Cu
6
CONTINUOUS
10
137.6408370000000048
20
-54.703361000000001
11
137.6362499999999898
21
-54.6099999999999994
0
LINE
8
B.Cu
6
CONTINUOUS
10
137.6362499999999898
20
-54.6099999999999994
11
137.6362499999999898
21
-37.6237500000000011
0
LINE
8
B.Cu
6
CONTINUOUS
10
137.6362499999999898
20
-37.6237500000000011
11
137.6408370000000048
21
-37.5303889999999996
0
LINE
8
B.Cu
6
CONTINUOUS
10
137.6408370000000048
20
-37.5303889999999996
11
137.6772639999999797
21
-37.3472539999999995
0
LINE
8
B.Cu
6
CONTINUOUS
10
137.6772639999999797
20
-37.3472539999999995
11
137.7487199999999916
21
-37.1747450000000015
0
LINE
8
B.Cu
6
CONTINUOUS
10
137.7487199999999916
20
-37.1747450000000015
11
137.7487199999999916
21
-37.1747439999999969
0
LINE
8
B.Cu
6
CONTINUOUS
10
137.7487199999999916
20
-37.1747439999999969
11
137.8524579999999844
21
-37.0194899999999976
0
LINE
8
B.Cu
6
CONTINUOUS
10
137.8524579999999844
20
-37.0194899999999976
11
137.9152310000000057
21
-36.9502309999999952
0
LINE
8
B.Cu
6
CONTINUOUS
10
137.9152310000000057
20
-36.9502309999999952
11
147.4826649999999972
21
-27.3827970000000001
0
LINE
8
B.Cu
6
CONTINUOUS
10
147.4826649999999972
20
-27.3827970000000001
11
147.4826649999999972
21
-27.3641069999999971
0
LINE
8
B.Cu
6
CONTINUOUS
10
147.4826649999999972
20
-27.3641069999999971
11
147.5138399999999876
21
-27.167273999999999
0
LINE
8
B.Cu
6
CONTINUOUS
10
147.5138399999999876
20
-27.167273999999999
11
147.5754230000000007
21
-26.9777419999999992
0
LINE
8
B.Cu
6
CONTINUOUS
10
147.5754230000000007
20
-26.9777419999999992
11
147.6658970000000011
21
-26.8001769999999979
0
LINE
8
B.Cu
6
CONTINUOUS
10
147.6658970000000011
20
-26.8001769999999979
11
147.7830339999999865
21
-26.6389509999999987
0
LINE
8
B.Cu
6
CONTINUOUS
10
147.7830339999999865
20
-26.6389509999999987
11
147.9239509999999882
21
-26.4980340000000005
0
LINE
8
B.Cu
6
CONTINUOUS
10
147.9239509999999882
20
-26.4980340000000005
11
148.0851769999999874
21
-26.3808969999999974
0
LINE
8
B.Cu
6
CONTINUOUS
10
148.0851769999999874
20
-26.3808969999999974
11
148.2627420000000029
21
-26.2904230000000005
0
LINE
8
B.Cu
6
CONTINUOUS
10
148.2627420000000029
20
-26.2904230000000005
11
148.4522739999999885
21
-26.2288399999999982
0
LINE
8
B.Cu
6
CONTINUOUS
10
148.4522739999999885
20
-26.2288399999999982
11
148.6491069999999866
21
-26.1976649999999971
0
LINE
8
B.Cu
6
CONTINUOUS
10
148.6491069999999866
20
-26.1976649999999971
11
148.8483929999999873
21
-26.1976649999999971
0
LINE
8
B.Cu
6
CONTINUOUS
10
148.8483929999999873
20
-26.1976649999999971
11
149.0452259999999853
21
-26.2288399999999982
0
LINE
8
B.Cu
6
CONTINUOUS
10
141.4052460000000053
20
-53.6985139999999959
11
141.5777549999999962
21
-53.7699700000000007
0
LINE
8
B.Cu
6
CONTINUOUS
10
141.5777549999999962
20
-53.7699700000000007
11
141.7330100000000073
21
-53.8737080000000006
0
LINE
8
B.Cu
6
CONTINUOUS
10
141.7330100000000073
20
-53.8737080000000006
11
141.8650419999999883
21
-54.0057399999999959
0
LINE
8
B.Cu
6
CONTINUOUS
10
141.8650419999999883
20
-54.0057399999999959
11
141.9687799999999811
21
-54.1609949999999998
0
LINE
8
B.Cu
6
CONTINUOUS
10
141.9687799999999811
20
-54.1609949999999998
11
142.0402359999999931
21
-54.3335039999999978
0
LINE
8
B.Cu
6
CONTINUOUS
10
142.0402359999999931
20
-54.3335039999999978
11
142.0766629999999964
21
-54.5166389999999978
0
LINE
8
B.Cu
6
CONTINUOUS
10
142.0766629999999964
20
-54.5166389999999978
11
142.0766629999999964
21
-54.703361000000001
0
LINE
8
B.Cu
6
CONTINUOUS
10
142.0766629999999964
20
-54.703361000000001
11
142.0402359999999931
21
-54.8864960000000011
0
LINE
8
B.Cu
6
CONTINUOUS
10
142.0402359999999931
20
-54.8864960000000011
11
141.9687799999999811
21
-55.0590049999999991
0
LINE
8
B.Cu
6
CONTINUOUS
10
141.9687799999999811
20
-55.0590049999999991
11
141.8650419999999883
21
-55.2142599999999959
0
LINE
8
B.Cu
6
CONTINUOUS
10
141.8650419999999883
20
-55.2142599999999959
11
141.7330100000000073
21
-55.3462919999999983
0
LINE
8
B.Cu
6
CONTINUOUS
10
141.7330100000000073
20
-55.3462919999999983
11
141.5777549999999962
21
-55.4500299999999982
0
LINE
8
B.Cu
6
CONTINUOUS
10
141.5777549999999962
20
-55.4500299999999982
11
141.4052460000000053
21
-55.5214859999999959
0
LINE
8
B.Cu
6
CONTINUOUS
10
141.4052460000000053
20
-55.5214859999999959
11
141.222110999999984
21
-55.5579129999999992
0
LINE
8
B.Cu
6
CONTINUOUS
10
141.222110999999984
20
-55.5579129999999992
11
141.0353889999999808
21
-55.5579129999999992
0
LINE
8
B.Cu
6
CONTINUOUS
10
141.0353889999999808
20
-55.5579129999999992
11
140.8522539999999879
21
-55.5214859999999959
0
LINE
8
B.Cu
6
CONTINUOUS
10
140.8522539999999879
20
-55.5214859999999959
11
140.6797449999999969
21
-55.4500299999999982
0
LINE
8
B.Cu
6
CONTINUOUS
10
140.6797449999999969
20
-55.4500299999999982
11
140.5244899999999859
21
-55.3462919999999983
0
LINE
8
B.Cu
6
CONTINUOUS
10
140.5244899999999859
20
-55.3462919999999983
11
140.3924580000000049
21
-55.2142599999999959
0
LINE
8
B.Cu
6
CONTINUOUS
10
140.3924580000000049
20
-55.2142599999999959
11
140.2887199999999837
21
-55.0590049999999991
0
LINE
8
B.Cu
6
CONTINUOUS
10
140.2887199999999837
20
-55.0590049999999991
11
140.2172640000000001
21
-54.8864960000000011
0
LINE
8
B.Cu
6
CONTINUOUS
10
140.2172640000000001
20
-54.8864960000000011
11
140.1808369999999968
21
-54.703361000000001
0
LINE
8
B.Cu
6
CONTINUOUS
10
140.1808369999999968
20
-54.703361000000001
11
140.1808369999999968
21
-54.5166389999999978
0
LINE
8
B.Cu
6
CONTINUOUS
10
140.1808369999999968
20
-54.5166389999999978
11
140.2172640000000001
21
-54.3335039999999978
0
LINE
8
B.Cu
6
CONTINUOUS
10
140.2172640000000001
20
-54.3335039999999978
11
140.2887199999999837
21
-54.1609949999999998
0
LINE
8
B.Cu
6
CONTINUOUS
10
140.2887199999999837
20
-54.1609949999999998
11
140.3924580000000049
21
-54.0057399999999959
0
LINE
8
B.Cu
6
CONTINUOUS
10
140.3924580000000049
20
-54.0057399999999959
11
140.5244899999999859
21
-53.8737080000000006
0
LINE
8
B.Cu
6
CONTINUOUS
10
140.5244899999999859
20
-53.8737080000000006
11
140.6797449999999969
21
-53.7699700000000007
0
LINE
8
B.Cu
6
CONTINUOUS
10
140.6797449999999969
20
-53.7699700000000007
11
140.8522539999999879
21
-53.6985139999999959
0
LINE
8
B.Cu
6
CONTINUOUS
10
140.8522539999999879
20
-53.6985139999999959
11
141.0353889999999808
21
-53.6620869999999996
0
LINE
8
B.Cu
6
CONTINUOUS
10
141.0353889999999808
20
-53.6620869999999996
11
141.222110999999984
21
-53.6620869999999996
0
LINE
8
B.Cu
6
CONTINUOUS
10
141.222110999999984
20
-53.6620869999999996
11
141.4052460000000053
21
-53.6985139999999959
0
LINE
8
B.Cu
6
CONTINUOUS
10
128.5283929999999941
20
-46.5176650000000009
11
128.7252259999999922
21
-46.5488399999999984
0
LINE
8
B.Cu
6
CONTINUOUS
10
128.7252259999999922
20
-46.5488399999999984
11
128.9147580000000062
21
-46.6104229999999973
0
LINE
8
B.Cu
6
CONTINUOUS
10
128.9147580000000062
20
-46.6104229999999973
11
129.0923229999999933
21
-46.7008969999999977
0
LINE
8
B.Cu
6
CONTINUOUS
10
129.0923229999999933
20
-46.7008969999999977
11
129.2535489999999925
21
-46.8180339999999973
0
LINE
8
B.Cu
6
CONTINUOUS
10
129.2535489999999925
20
-46.8180339999999973
11
129.3944659999999942
21
-46.958950999999999
0
LINE
8
B.Cu
6
CONTINUOUS
10
129.3944659999999942
20
-46.958950999999999
11
129.511603000000008
21
-47.1201769999999982
0
LINE
8
B.Cu
6
CONTINUOUS
10
129.511603000000008
20
-47.1201769999999982
11
129.60207699999998
21
-47.2977419999999995
0
LINE
8
B.Cu
6
CONTINUOUS
10
129.60207699999998
20
-47.2977419999999995
11
129.663659999999993
21
-47.4872739999999993
0
LINE
8
B.Cu
6
CONTINUOUS
10
129.663659999999993
20
-47.4872739999999993
11
129.6948349999999834
21
-47.6841069999999974
0
LINE
8
B.Cu
6
CONTINUOUS
10
129.6948349999999834
20
-47.6841069999999974
11
129.6948349999999834
21
-47.8833929999999981
0
LINE
8
B.Cu
6
CONTINUOUS
10
129.6948349999999834
20
-47.8833929999999981
11
129.663659999999993
21
-48.0802259999999961
0
LINE
8
B.Cu
6
CONTINUOUS
10
129.663659999999993
20
-48.0802259999999961
11
129.60207699999998
21
-48.2697579999999959
0
LINE
8
B.Cu
6
CONTINUOUS
10
129.60207699999998
20
-48.2697579999999959
11
129.511603000000008
21
-48.4473229999999973
0
LINE
8
B.Cu
6
CONTINUOUS
10
129.511603000000008
20
-48.4473229999999973
11
129.3944659999999942
21
-48.6085489999999965
0
LINE
8
B.Cu
6
CONTINUOUS
10
129.3944659999999942
20
-48.6085489999999965
11
129.2535489999999925
21
-48.7494659999999982
0
LINE
8
B.Cu
6
CONTINUOUS
10
129.2535489999999925
20
-48.7494659999999982
11
129.0923229999999933
21
-48.8666029999999978
0
LINE
8
B.Cu
6
CONTINUOUS
10
129.0923229999999933
20
-48.8666029999999978
11
128.9147580000000062
21
-48.9570769999999982
0
LINE
8
B.Cu
6
CONTINUOUS
10
128.9147580000000062
20
-48.9570769999999982
11
128.7252259999999922
21
-49.018659999999997
0
LINE
8
B.Cu
6
CONTINUOUS
10
128.7252259999999922
20
-49.018659999999997
11
128.5283929999999941
21
-49.0498349999999945
0
LINE
8
B.Cu
6
CONTINUOUS
10
128.5283929999999941
20
-49.0498349999999945
11
128.428750000000008
21
-49.0537500000000009
0
LINE
8
B.Cu
6
CONTINUOUS
10
128.428750000000008
20
-49.0537500000000009
11
116.5224999999999937
21
-49.0537500000000009
0
LINE
8
B.Cu
6
CONTINUOUS
10
116.5224999999999937
20
-49.0537500000000009
11
116.4228569999999934
21
-49.0498349999999945
0
LINE
8
B.Cu
6
CONTINUOUS
10
116.4228569999999934
20
-49.0498349999999945
11
116.2260239999999953
21
-49.018659999999997
0
LINE
8
B.Cu
6
CONTINUOUS
10
116.2260239999999953
20
-49.018659999999997
11
116.0364919999999955
21
-48.9570769999999982
0
LINE
8
B.Cu
6
CONTINUOUS
10
116.0364919999999955
20
-48.9570769999999982
11
115.8589269999999942
21
-48.8666029999999978
0
LINE
8
B.Cu
6
CONTINUOUS
10
115.8589269999999942
20
-48.8666029999999978
11
115.697700999999995
21
-48.7494659999999982
0
LINE
8
B.Cu
6
CONTINUOUS
10
115.697700999999995
20
-48.7494659999999982
11
115.5567839999999933
21
-48.6085489999999965
0
LINE
8
B.Cu
6
CONTINUOUS
10
115.5567839999999933
20
-48.6085489999999965
11
115.4396469999999937
21
-48.4473229999999973
0
LINE
8
B.Cu
6
CONTINUOUS
10
115.4396469999999937
20
-48.4473229999999973
11
115.3491729999999933
21
-48.2697579999999959
0
LINE
8
B.Cu
6
CONTINUOUS
10
115.3491729999999933
20
-48.2697579999999959
11
115.2875899999999945
21
-48.0802259999999961
0
LINE
8
B.Cu
6
CONTINUOUS
10
115.2875899999999945
20
-48.0802259999999961
11
115.2564149999999898
21
-47.8833929999999981
0
LINE
8
B.Cu
6
CONTINUOUS
10
115.2564149999999898
20
-47.8833929999999981
11
115.2564149999999898
21
-47.6841069999999974
0
LINE
8
B.Cu
6
CONTINUOUS
10
115.2564149999999898
20
-47.6841069999999974
11
115.2875899999999945
21
-47.4872739999999993
0
LINE
8
B.Cu
6
CONTINUOUS
10
115.2875899999999945
20
-47.4872739999999993
11
115.3491729999999933
21
-47.2977419999999995
0
LINE
8
B.Cu
6
CONTINUOUS
10
115.3491729999999933
20
-47.2977419999999995
11
115.4396469999999937
21
-47.1201769999999982
0
LINE
8
B.Cu
6
CONTINUOUS
10
115.4396469999999937
20
-47.1201769999999982
11
115.5567839999999933
21
-46.958950999999999
0
LINE
8
B.Cu
6
CONTINUOUS
10
115.5567839999999933
20
-46.958950999999999
11
115.697700999999995
21
-46.8180339999999973
0
LINE
8
B.Cu
6
CONTINUOUS
10
115.697700999999995
20
-46.8180339999999973
11
115.8589269999999942
21
-46.7008969999999977
0
LINE
8
B.Cu
6
CONTINUOUS
10
115.8589269999999942
20
-46.7008969999999977
11
116.0364919999999955
21
-46.6104229999999973
0
LINE
8
B.Cu
6
CONTINUOUS
10
116.0364919999999955
20
-46.6104229999999973
11
116.2260239999999953
21
-46.5488399999999984
0
LINE
8
B.Cu
6
CONTINUOUS
10
116.2260239999999953
20
-46.5488399999999984
11
116.4228569999999934
21
-46.5176650000000009
0
LINE
8
B.Cu
6
CONTINUOUS
10
116.4228569999999934
20
-46.5176650000000009
11
116.5224999999999937
21
-46.5137499999999946
0
LINE
8
B.Cu
6
CONTINUOUS
10
116.5224999999999937
20
-46.5137499999999946
11
128.428750000000008
21
-46.5137499999999946
0
LINE
8
B.Cu
6
CONTINUOUS
10
128.428750000000008
20
-46.5137499999999946
11
128.5283929999999941
21
-46.5176650000000009
0
LINE
8
B.Cu
6
CONTINUOUS
10
96.498975999999999
20
-46.5488399999999984
11
96.6885079999999988
21
-46.6104229999999973
0
LINE
8
B.Cu
6
CONTINUOUS
10
96.6885079999999988
20
-46.6104229999999973
11
96.8660730000000001
21
-46.7008969999999977
0
LINE
8
B.Cu
6
CONTINUOUS
10
96.8660730000000001
20
-46.7008969999999977
11
97.0272989999999993
21
-46.8180339999999973
0
LINE
8
B.Cu
6
CONTINUOUS
10
97.0272989999999993
20
-46.8180339999999973
11
97.168216000000001
21
-46.958950999999999
0
LINE
8
B.Cu
6
CONTINUOUS
10
97.168216000000001
20
-46.958950999999999
11
97.2853530000000006
21
-47.1201769999999982
0
LINE
8
B.Cu
6
CONTINUOUS
10
97.2853530000000006
20
-47.1201769999999982
11
97.375827000000001
21
-47.2977419999999995
0
LINE
8
B.Cu
6
CONTINUOUS
10
97.375827000000001
20
-47.2977419999999995
11
97.4374099999999999
21
-47.4872739999999993
0
LINE
8
B.Cu
6
CONTINUOUS
10
97.4374099999999999
20
-47.4872739999999993
11
97.4685849999999903
21
-47.6841069999999974
0
LINE
8
B.Cu
6
CONTINUOUS
10
97.4685849999999903
20
-47.6841069999999974
11
97.4685849999999903
21
-47.8833929999999981
0
LINE
8
B.Cu
6
CONTINUOUS
10
97.4685849999999903
20
-47.8833929999999981
11
97.4374099999999999
21
-48.0802259999999961
0
LINE
8
B.Cu
6
CONTINUOUS
10
97.4374099999999999
20
-48.0802259999999961
11
97.375827000000001
21
-48.2697579999999959
0
LINE
8
B.Cu
6
CONTINUOUS
10
97.375827000000001
20
-48.2697579999999959
11
97.2853530000000006
21
-48.4473229999999973
0
LINE
8
B.Cu
6
CONTINUOUS
10
97.2853530000000006
20
-48.4473229999999973
11
97.168216000000001
21
-48.6085489999999965
0
LINE
8
B.Cu
6
CONTINUOUS
10
97.168216000000001
20
-48.6085489999999965
11
97.0272989999999993
21
-48.7494659999999982
0
LINE
8
B.Cu
6
CONTINUOUS
10
97.0272989999999993
20
-48.7494659999999982
11
96.8660730000000001
21
-48.8666029999999978
0
LINE
8
B.Cu
6
CONTINUOUS
10
96.8660730000000001
20
-48.8666029999999978
11
96.6885079999999988
21
-48.9570769999999982
0
LINE
8
B.Cu
6
CONTINUOUS
10
96.6885079999999988
20
-48.9570769999999982
11
96.498975999999999
21
-49.018659999999997
0
LINE
8
B.Cu
6
CONTINUOUS
10
96.498975999999999
20
-49.018659999999997
11
96.3021430000000009
21
-49.0498349999999945
0
LINE
8
B.Cu
6
CONTINUOUS
10
96.3021430000000009
20
-49.0498349999999945
11
96.1028570000000002
21
-49.0498349999999945
0
LINE
8
B.Cu
6
CONTINUOUS
10
96.1028570000000002
20
-49.0498349999999945
11
95.9060240000000022
21
-49.018659999999997
0
LINE
8
B.Cu
6
CONTINUOUS
10
95.9060240000000022
20
-49.018659999999997
11
95.7164920000000023
21
-48.9570769999999982
0
LINE
8
B.Cu
6
CONTINUOUS
10
95.7164920000000023
20
-48.9570769999999982
11
95.538927000000001
21
-48.8666029999999978
0
LINE
8
B.Cu
6
CONTINUOUS
10
95.538927000000001
20
-48.8666029999999978
11
95.3777010000000018
21
-48.7494659999999982
0
LINE
8
B.Cu
6
CONTINUOUS
10
95.3777010000000018
20
-48.7494659999999982
11
95.3644850000000019
21
-48.7362499999999983
0
LINE
8
B.Cu
6
CONTINUOUS
10
95.3644850000000019
20
-48.7362499999999983
11
83.5024999999999977
21
-48.7362499999999983
0
LINE
8
B.Cu
6
CONTINUOUS
10
83.5024999999999977
20
-48.7362499999999983
11
83.4091389999999961
21
-48.7316629999999975
0
LINE
8
B.Cu
6
CONTINUOUS
10
83.4091389999999961
20
-48.7316629999999975
11
83.2260040000000032
21
-48.6952360000000013
0
LINE
8
B.Cu
6
CONTINUOUS
10
83.2260040000000032
20
-48.6952360000000013
11
83.0534949999999981
21
-48.6237799999999964
0
LINE
8
B.Cu
6
CONTINUOUS
10
83.0534949999999981
20
-48.6237799999999964
11
82.8982400000000013
21
-48.5200419999999966
0
LINE
8
B.Cu
6
CONTINUOUS
10
82.8982400000000013
20
-48.5200419999999966
11
82.7662079999999918
21
-48.3880100000000013
0
LINE
8
B.Cu
6
CONTINUOUS
10
82.7662079999999918
20
-48.3880100000000013
11
82.662469999999999
21
-48.2327549999999974
0
LINE
8
B.Cu
6
CONTINUOUS
10
82.662469999999999
20
-48.2327549999999974
11
82.5910140000000013
21
-48.0602459999999994
0
LINE
8
B.Cu
6
CONTINUOUS
10
82.5910140000000013
20
-48.0602459999999994
11
82.5545869999999979
21
-47.8771109999999993
0
LINE
8
B.Cu
6
CONTINUOUS
10
82.5545869999999979
20
-47.8771109999999993
11
82.5545869999999979
21
-47.6903889999999961
0
LINE
8
B.Cu
6
CONTINUOUS
10
82.5545869999999979
20
-47.6903889999999961
11
82.5910140000000013
21
-47.5072539999999961
0
LINE
8
B.Cu
6
CONTINUOUS
10
82.5910140000000013
20
-47.5072539999999961
11
82.662469999999999
21
-47.3347449999999981
0
LINE
8
B.Cu
6
CONTINUOUS
10
82.662469999999999
20
-47.3347449999999981
11
82.7662079999999918
21
-47.1794900000000013
0
LINE
8
B.Cu
6
CONTINUOUS
10
82.7662079999999918
20
-47.1794900000000013
11
82.8982400000000013
21
-47.0474579999999989
0
LINE
8
B.Cu
6
CONTINUOUS
10
82.8982400000000013
20
-47.0474579999999989
11
83.0534949999999981
21
-46.943719999999999
0
LINE
8
B.Cu
6
CONTINUOUS
10
83.0534949999999981
20
-46.943719999999999
11
83.2260040000000032
21
-46.8722640000000013
0
LINE
8
B.Cu
6
CONTINUOUS
10
83.2260040000000032
20
-46.8722640000000013
11
83.4091389999999961
21
-46.8358369999999979
0
LINE
8
B.Cu
6
CONTINUOUS
10
83.4091389999999961
20
-46.8358369999999979
11
83.5024999999999977
21
-46.8312499999999972
0
LINE
8
B.Cu
6
CONTINUOUS
10
83.5024999999999977
20
-46.8312499999999972
11
95.3644850000000019
21
-46.8312499999999972
0
LINE
8
B.Cu
6
CONTINUOUS
10
95.3644850000000019
20
-46.8312499999999972
11
95.3777010000000018
21
-46.8180339999999973
0
LINE
8
B.Cu
6
CONTINUOUS
10
95.3777010000000018
20
-46.8180339999999973
11
95.538927000000001
21
-46.7008969999999977
0
LINE
8
B.Cu
6
CONTINUOUS
10
95.538927000000001
20
-46.7008969999999977
11
95.7164920000000023
21
-46.6104229999999973
0
LINE
8
B.Cu
6
CONTINUOUS
10
95.7164920000000023
20
-46.6104229999999973
11
95.9060240000000022
21
-46.5488399999999984
0
LINE
8
B.Cu
6
CONTINUOUS
10
95.9060240000000022
20
-46.5488399999999984
11
96.1028570000000002
21
-46.5176650000000009
0
LINE
8
B.Cu
6
CONTINUOUS
10
96.1028570000000002
20
-46.5176650000000009
11
96.3021430000000009
21
-46.5176650000000009
0
LINE
8
B.Cu
6
CONTINUOUS
10
96.3021430000000009
20
-46.5176650000000009
11
96.498975999999999
21
-46.5488399999999984
0
LINE
8
B.Cu
6
CONTINUOUS
10
96.498975999999999
20
-26.2288399999999982
11
96.6885079999999988
21
-26.2904230000000005
0
LINE
8
B.Cu
6
CONTINUOUS
10
96.6885079999999988
20
-26.2904230000000005
11
96.8660730000000001
21
-26.3808969999999974
0
LINE
8
B.Cu
6
CONTINUOUS
10
96.8660730000000001
20
-26.3808969999999974
11
97.0272989999999993
21
-26.4980340000000005
0
LINE
8
B.Cu
6
CONTINUOUS
10
97.0272989999999993
20
-26.4980340000000005
11
97.168216000000001
21
-26.6389509999999987
0
LINE
8
B.Cu
6
CONTINUOUS
10
97.168216000000001
20
-26.6389509999999987
11
97.2853530000000006
21
-26.8001769999999979
0
LINE
8
B.Cu
6
CONTINUOUS
10
97.2853530000000006
20
-26.8001769999999979
11
97.375827000000001
21
-26.9777419999999992
0
LINE
8
B.Cu
6
CONTINUOUS
10
97.375827000000001
20
-26.9777419999999992
11
97.4374099999999999
21
-27.167273999999999
0
LINE
8
B.Cu
6
CONTINUOUS
10
97.4374099999999999
20
-27.167273999999999
11
97.4685849999999903
21
-27.3641069999999971
0
LINE
8
B.Cu
6
CONTINUOUS
10
97.4685849999999903
20
-27.3641069999999971
11
97.4685849999999903
21
-27.5633929999999978
0
LINE
8
B.Cu
6
CONTINUOUS
10
97.4685849999999903
20
-27.5633929999999978
11
97.4374099999999999
21
-27.7602259999999994
0
LINE
8
B.Cu
6
CONTINUOUS
10
97.4374099999999999
20
-27.7602259999999994
11
97.375827000000001
21
-27.9497579999999992
0
LINE
8
B.Cu
6
CONTINUOUS
10
97.375827000000001
20
-27.9497579999999992
11
97.2853530000000006
21
-28.127322999999997
0
LINE
8
B.Cu
6
CONTINUOUS
10
97.2853530000000006
20
-28.127322999999997
11
97.168216000000001
21
-28.2885489999999997
0
LINE
8
B.Cu
6
CONTINUOUS
10
97.168216000000001
20
-28.2885489999999997
11
97.0272989999999993
21
-28.4294659999999979
0
LINE
8
B.Cu
6
CONTINUOUS
10
97.0272989999999993
20
-28.4294659999999979
11
96.8660730000000001
21
-28.5466029999999975
0
LINE
8
B.Cu
6
CONTINUOUS
10
96.8660730000000001
20
-28.5466029999999975
11
96.6885079999999988
21
-28.6370769999999979
0
LINE
8
B.Cu
6
CONTINUOUS
10
96.6885079999999988
20
-28.6370769999999979
11
96.498975999999999
21
-28.6986600000000003
0
LINE
8
B.Cu
6
CONTINUOUS
10
96.498975999999999
20
-28.6986600000000003
11
96.3021430000000009
21
-28.7298349999999978
0
LINE
8
B.Cu
6
CONTINUOUS
10
96.3021430000000009
20
-28.7298349999999978
11
96.2834529999999944
21
-28.7298349999999978
0
LINE
8
B.Cu
6
CONTINUOUS
10
96.2834529999999944
20
-28.7298349999999978
11
91.7960190000000011
21
-33.2172690000000017
0
LINE
8
B.Cu
6
CONTINUOUS
10
91.7960190000000011
20
-33.2172690000000017
11
91.7267599999999987
21
-33.2800420000000017
0
LINE
8
B.Cu
6
CONTINUOUS
10
91.7267599999999987
20
-33.2800420000000017
11
91.5715059999999994
21
-33.3837800000000016
0
LINE
8
B.Cu
6
CONTINUOUS
10
91.5715059999999994
20
-33.3837800000000016
11
91.5209779999999995
21
-33.4047079999999994
0
LINE
8
B.Cu
6
CONTINUOUS
10
91.5209779999999995
20
-33.4047079999999994
11
91.3989959999999968
21
-33.4552359999999993
0
LINE
8
B.Cu
6
CONTINUOUS
10
91.3989959999999968
20
-33.4552359999999993
11
91.2158609999999896
21
-33.4916629999999955
0
LINE
8
B.Cu
6
CONTINUOUS
10
91.2158609999999896
20
-33.4916629999999955
11
91.1225000000000023
21
-33.4962499999999963
0
LINE
8
B.Cu
6
CONTINUOUS
10
91.1225000000000023
20
-33.4962499999999963
11
81.2800000000000011
21
-33.4962499999999963
0
LINE
8
B.Cu
6
CONTINUOUS
10
81.2800000000000011
20
-33.4962499999999963
11
77.864537999999996
21
-33.4962499999999963
0
LINE
8
B.Cu
6
CONTINUOUS
10
77.864537999999996
20
-33.4962499999999963
11
70.5235189999999932
21
-40.8372689999999992
0
LINE
8
B.Cu
6
CONTINUOUS
10
70.5235189999999932
20
-40.8372689999999992
11
70.4542599999999908
21
-40.9000419999999991
0
LINE
8
B.Cu
6
CONTINUOUS
10
70.4542599999999908
20
-40.9000419999999991
11
70.2990059999999914
21
-41.003779999999999
0
LINE
8
B.Cu
6
CONTINUOUS
10
70.2990059999999914
20
-41.003779999999999
11
70.2797640000000001
21
-41.0117499999999993
0
LINE
8
B.Cu
6
CONTINUOUS
10
70.2797640000000001
20
-41.0117499999999993
11
70.1264960000000031
21
-41.0752359999999967
0
LINE
8
B.Cu
6
CONTINUOUS
10
70.1264960000000031
20
-41.0752359999999967
11
69.9433609999999959
21
-41.1116630000000001
0
LINE
8
B.Cu
6
CONTINUOUS
10
69.9433609999999959
20
-41.1116630000000001
11
69.7566389999999927
21
-41.1116630000000001
0
LINE
8
B.Cu
6
CONTINUOUS
10
69.7566389999999927
20
-41.1116630000000001
11
69.5735039999999998
21
-41.0752359999999967
0
LINE
8
B.Cu
6
CONTINUOUS
10
69.5735039999999998
20
-41.0752359999999967
11
69.4202360000000027
21
-41.0117499999999993
0
LINE
8
B.Cu
6
CONTINUOUS
10
69.4202360000000027
20
-41.0117499999999993
11
69.4009939999999972
21
-41.003779999999999
0
LINE
8
B.Cu
6
CONTINUOUS
10
69.4009939999999972
20
-41.003779999999999
11
69.2457399999999978
21
-40.9000419999999991
0
LINE
8
B.Cu
6
CONTINUOUS
10
69.2457399999999978
20
-40.9000419999999991
11
69.1137080000000026
21
-40.7680099999999968
0
LINE
8
B.Cu
6
CONTINUOUS
10
69.1137080000000026
20
-40.7680099999999968
11
69.0099699999999956
21
-40.6127559999999974
0
LINE
8
B.Cu
6
CONTINUOUS
10
69.0099699999999956
20
-40.6127559999999974
11
68.9890410000000003
21
-40.5622279999999975
0
LINE
8
B.Cu
6
CONTINUOUS
10
68.9890410000000003
20
-40.5622279999999975
11
68.9385139999999978
21
-40.4402459999999948
0
LINE
8
B.Cu
6
CONTINUOUS
10
68.9385139999999978
20
-40.4402459999999948
11
68.9020869999999945
21
-40.2571109999999948
0
LINE
8
B.Cu
6
CONTINUOUS
10
68.9020869999999945
20
-40.2571109999999948
11
68.9020869999999945
21
-40.0703889999999987
0
LINE
8
B.Cu
6
CONTINUOUS
10
68.9020869999999945
20
-40.0703889999999987
11
68.9385139999999978
21
-39.8872539999999987
0
LINE
8
B.Cu
6
CONTINUOUS
10
68.9385139999999978
20
-39.8872539999999987
11
68.9890410000000003
21
-39.7652709999999985
0
LINE
8
B.Cu
6
CONTINUOUS
10
68.9890410000000003
20
-39.7652709999999985
11
69.0099699999999956
21
-39.714743999999996
0
LINE
8
B.Cu
6
CONTINUOUS
10
69.0099699999999956
20
-39.714743999999996
11
69.1137080000000026
21
-39.5594899999999967
0
LINE
8
B.Cu
6
CONTINUOUS
10
69.1137080000000026
20
-39.5594899999999967
11
69.1764809999999954
21
-39.4902310000000014
0
LINE
8
B.Cu
6
CONTINUOUS
10
69.1764809999999954
20
-39.4902310000000014
11
76.796481
21
-31.8702309999999969
0
LINE
8
B.Cu
6
CONTINUOUS
10
76.796481
20
-31.8702309999999969
11
76.8657400000000024
21
-31.8074579999999969
0
LINE
8
B.Cu
6
CONTINUOUS
10
76.8657400000000024
20
-31.8074579999999969
11
77.0209940000000017
21
-31.703719999999997
0
LINE
8
B.Cu
6
CONTINUOUS
10
77.0209940000000017
20
-31.703719999999997
11
77.0924499999999995
21
-31.674121999999997
0
LINE
8
B.Cu
6
CONTINUOUS
10
77.0924499999999995
20
-31.674121999999997
11
77.1935039999999901
21
-31.6322639999999993
0
LINE
8
B.Cu
6
CONTINUOUS
10
77.1935039999999901
20
-31.6322639999999993
11
77.3766389999999973
21
-31.5958369999999995
0
LINE
8
B.Cu
6
CONTINUOUS
10
77.3766389999999973
20
-31.5958369999999995
11
77.4699999999999989
21
-31.5912499999999987
0
LINE
8
B.Cu
6
CONTINUOUS
10
77.4699999999999989
20
-31.5912499999999987
11
81.2800000000000011
21
-31.5912499999999987
0
LINE
8
B.Cu
6
CONTINUOUS
10
81.2800000000000011
20
-31.5912499999999987
11
90.7279619999999909
21
-31.5912499999999987
0
LINE
8
B.Cu
6
CONTINUOUS
10
90.7279619999999909
20
-31.5912499999999987
11
94.9364149999999967
21
-27.3827970000000001
0
LINE
8
B.Cu
6
CONTINUOUS
10
94.9364149999999967
20
-27.3827970000000001
11
94.9364149999999967
21
-27.3641069999999971
0
LINE
8
B.Cu
6
CONTINUOUS
10
94.9364149999999967
20
-27.3641069999999971
11
94.9675900000000013
21
-27.167273999999999
0
LINE
8
B.Cu
6
CONTINUOUS
10
94.9675900000000013
20
-27.167273999999999
11
95.0291730000000001
21
-26.9777419999999992
0
LINE
8
B.Cu
6
CONTINUOUS
10
95.0291730000000001
20
-26.9777419999999992
11
95.1196470000000005
21
-26.8001769999999979
0
LINE
8
B.Cu
6
CONTINUOUS
10
95.1196470000000005
20
-26.8001769999999979
11
95.2367840000000001
21
-26.6389509999999987
0
LINE
8
B.Cu
6
CONTINUOUS
10
95.2367840000000001
20
-26.6389509999999987
11
95.3777010000000018
21
-26.4980340000000005
0
LINE
8
B.Cu
6
CONTINUOUS
10
95.3777010000000018
20
-26.4980340000000005
11
95.538927000000001
21
-26.3808969999999974
0
LINE
8
B.Cu
6
CONTINUOUS
10
95.538927000000001
20
-26.3808969999999974
11
95.7164920000000023
21
-26.2904230000000005
0
LINE
8
B.Cu
6
CONTINUOUS
10
95.7164920000000023
20
-26.2904230000000005
11
95.9060240000000022
21
-26.2288399999999982
0
LINE
8
B.Cu
6
CONTINUOUS
10
95.9060240000000022
20
-26.2288399999999982
11
96.1028570000000002
21
-26.1976649999999971
0
LINE
8
B.Cu
6
CONTINUOUS
10
96.1028570000000002
20
-26.1976649999999971
11
96.3021430000000009
21
-26.1976649999999971
0
LINE
8
B.Cu
6
CONTINUOUS
10
96.3021430000000009
20
-26.1976649999999971
11
96.498975999999999
21
-26.2288399999999982
0
LINE
8
B.Cu
6
CONTINUOUS
10
128.5283929999999941
20
-26.1976649999999971
11
128.7252259999999922
21
-26.2288399999999982
0
LINE
8
B.Cu
6
CONTINUOUS
10
128.7252259999999922
20
-26.2288399999999982
11
128.9147580000000062
21
-26.2904230000000005
0
LINE
8
B.Cu
6
CONTINUOUS
10
128.9147580000000062
20
-26.2904230000000005
11
129.0923229999999933
21
-26.3808969999999974
0
LINE
8
B.Cu
6
CONTINUOUS
10
129.0923229999999933
20
-26.3808969999999974
11
129.2535489999999925
21
-26.4980340000000005
0
LINE
8
B.Cu
6
CONTINUOUS
10
129.2535489999999925
20
-26.4980340000000005
11
129.3944659999999942
21
-26.6389509999999987
0
LINE
8
B.Cu
6
CONTINUOUS
10
129.3944659999999942
20
-26.6389509999999987
11
129.511603000000008
21
-26.8001769999999979
0
LINE
8
B.Cu
6
CONTINUOUS
10
129.511603000000008
20
-26.8001769999999979
11
129.60207699999998
21
-26.9777419999999992
0
LINE
8
B.Cu
6
CONTINUOUS
10
129.60207699999998
20
-26.9777419999999992
11
129.663659999999993
21
-27.167273999999999
0
LINE
8
B.Cu
6
CONTINUOUS
10
129.663659999999993
20
-27.167273999999999
11
129.6948349999999834
21
-27.3641069999999971
0
LINE
8
B.Cu
6
CONTINUOUS
10
129.6948349999999834
20
-27.3641069999999971
11
129.6948349999999834
21
-27.5633929999999978
0
LINE
8
B.Cu
6
CONTINUOUS
10
129.6948349999999834
20
-27.5633929999999978
11
129.663659999999993
21
-27.7602259999999994
0
LINE
8
B.Cu
6
CONTINUOUS
10
129.663659999999993
20
-27.7602259999999994
11
129.60207699999998
21
-27.9497579999999992
0
LINE
8
B.Cu
6
CONTINUOUS
10
129.60207699999998
20
-27.9497579999999992
11
129.511603000000008
21
-28.127322999999997
0
LINE
8
B.Cu
6
CONTINUOUS
10
129.511603000000008
20
-28.127322999999997
11
129.3944659999999942
21
-28.2885489999999997
0
LINE
8
B.Cu
6
CONTINUOUS
10
129.3944659999999942
20
-28.2885489999999997
11
129.2535489999999925
21
-28.4294659999999979
0
LINE
8
B.Cu
6
CONTINUOUS
10
129.2535489999999925
20
-28.4294659999999979
11
129.0923229999999933
21
-28.5466029999999975
0
LINE
8
B.Cu
6
CONTINUOUS
10
129.0923229999999933
20
-28.5466029999999975
11
128.9147580000000062
21
-28.6370769999999979
0
LINE
8
B.Cu
6
CONTINUOUS
10
128.9147580000000062
20
-28.6370769999999979
11
128.7252259999999922
21
-28.6986600000000003
0
LINE
8
B.Cu
6
CONTINUOUS
10
128.7252259999999922
20
-28.6986600000000003
11
128.5283929999999941
21
-28.7298349999999978
0
LINE
8
B.Cu
6
CONTINUOUS
10
128.5283929999999941
20
-28.7298349999999978
11
128.428750000000008
21
-28.733749999999997
0
LINE
8
B.Cu
6
CONTINUOUS
10
128.428750000000008
20
-28.733749999999997
11
116.5224999999999937
21
-28.733749999999997
0
LINE
8
B.Cu
6
CONTINUOUS
10
116.5224999999999937
20
-28.733749999999997
11
116.4228569999999934
21
-28.7298349999999978
0
LINE
8
B.Cu
6
CONTINUOUS
10
116.4228569999999934
20
-28.7298349999999978
11
116.2260239999999953
21
-28.6986600000000003
0
LINE
8
B.Cu
6
CONTINUOUS
10
116.2260239999999953
20
-28.6986600000000003
11
116.0364919999999955
21
-28.6370769999999979
0
LINE
8
B.Cu
6
CONTINUOUS
10
116.0364919999999955
20
-28.6370769999999979
11
115.8589269999999942
21
-28.5466029999999975
0
LINE
8
B.Cu
6
CONTINUOUS
10
115.8589269999999942
20
-28.5466029999999975
11
115.697700999999995
21
-28.4294659999999979
0
LINE
8
B.Cu
6
CONTINUOUS
10
115.697700999999995
20
-28.4294659999999979
11
115.5567839999999933
21
-28.2885489999999997
0
LINE
8
B.Cu
6
CONTINUOUS
10
115.5567839999999933
20
-28.2885489999999997
11
115.4396469999999937
21
-28.127322999999997
0
LINE
8
B.Cu
6
CONTINUOUS
10
115.4396469999999937
20
-28.127322999999997
11
115.3491729999999933
21
-27.9497579999999992
0
LINE
8
B.Cu
6
CONTINUOUS
10
115.3491729999999933
20
-27.9497579999999992
11
115.2875899999999945
21
-27.7602259999999994
0
LINE
8
B.Cu
6
CONTINUOUS
10
115.2875899999999945
20
-27.7602259999999994
11
115.2564149999999898
21
-27.5633929999999978
0
LINE
8
B.Cu
6
CONTINUOUS
10
115.2564149999999898
20
-27.5633929999999978
11
115.2564149999999898
21
-27.3641069999999971
0
LINE
8
B.Cu
6
CONTINUOUS
10
115.2564149999999898
20
-27.3641069999999971
11
115.2875899999999945
21
-27.167273999999999
0
LINE
8
B.Cu
6
CONTINUOUS
10
115.2875899999999945
20
-27.167273999999999
11
115.3491729999999933
21
-26.9777419999999992
0
LINE
8
B.Cu
6
CONTINUOUS
10
115.3491729999999933
20
-26.9777419999999992
11
115.4396469999999937
21
-26.8001769999999979
0
LINE
8
B.Cu
6
CONTINUOUS
10
115.4396469999999937
20
-26.8001769999999979
11
115.5567839999999933
21
-26.6389509999999987
0
LINE
8
B.Cu
6
CONTINUOUS
10
115.5567839999999933
20
-26.6389509999999987
11
115.697700999999995
21
-26.4980340000000005
0
LINE
8
B.Cu
6
CONTINUOUS
10
115.697700999999995
20
-26.4980340000000005
11
115.8589269999999942
21
-26.3808969999999974
0
LINE
8
B.Cu
6
CONTINUOUS
10
115.8589269999999942
20
-26.3808969999999974
11
116.0364919999999955
21
-26.2904230000000005
0
LINE
8
B.Cu
6
CONTINUOUS
10
116.0364919999999955
20
-26.2904230000000005
11
116.2260239999999953
21
-26.2288399999999982
0
LINE
8
B.Cu
6
CONTINUOUS
10
116.2260239999999953
20
-26.2288399999999982
11
116.4228569999999934
21
-26.1976649999999971
0
LINE
8
B.Cu
6
CONTINUOUS
10
116.4228569999999934
20
-26.1976649999999971
11
116.5224999999999937
21
-26.1937499999999979
0
LINE
8
B.Cu
6
CONTINUOUS
10
116.5224999999999937
20
-26.1937499999999979
11
128.428750000000008
21
-26.1937499999999979
0
LINE
8
B.Cu
6
CONTINUOUS
10
128.428750000000008
20
-26.1937499999999979
11
128.5283929999999941
21
-26.1976649999999971
0
CIRCLE
8
B.Cu
10
81.2800000000000011
20
-32.5437499999999957
40
0.25
0
CIRCLE
8
B.Cu
10
69.8499999999999943
20
-40.1637500000000003
40
0.25
0
CIRCLE
8
B.Cu
10
63.5
20
-52.0700000000000003
40
0.25
0
CIRCLE
8
B.Cu
10
66.039999999999992
20
-52.0700000000000003
40
0.25
0
CIRCLE
8
B.Cu
10
83.5024999999999977
20
-47.7837499999999977
40
0.25
0
CIRCLE
8
B.Cu
10
60.9599999999999937
20
-52.0700000000000003
40
0.25
0
CIRCLE
8
B.Cu
10
68.5799999999999983
20
-52.0700000000000003
40
0.25
0
CIRCLE
8
B.Cu
10
143.6687499999999886
20
-52.0700000000000003
40
0.15
0
CIRCLE
8
B.Cu
10
138.5887500000000045
20
-52.0700000000000003
40
0.15
0
CIRCLE
8
B.Cu
10
133.508749999999992
20
-52.0700000000000003
40
0.15
0
LINE
8
B.Cu
6
CONTINUOUS
10
154.1558169999999848
20
-23.3131529999999998
11
154.1693469999999877
21
-23.3266829999999992
0
LINE
8
B.Cu
6
CONTINUOUS
10
154.1693469999999877
20
-23.3266829999999992
11
154.1712499999999864
21
-23.3362499999999997
0
LINE
8
B.Cu
6
CONTINUOUS
10
154.1712499999999864
20
-23.3362499999999997
11
154.1712499999999864
21
-59.0549999999999997
0
LINE
8
B.Cu
6
CONTINUOUS
10
154.1712499999999864
20
-59.0549999999999997
11
154.1693469999999877
21
-59.0645669999999967
0
LINE
8
B.Cu
6
CONTINUOUS
10
154.1693469999999877
20
-59.0645669999999967
11
154.1558169999999848
21
-59.0780969999999996
0
LINE
8
B.Cu
6
CONTINUOUS
10
154.1558169999999848
20
-59.0780969999999996
11
154.1462499999999807
21
-59.0799999999999983
0
LINE
8
B.Cu
6
CONTINUOUS
10
154.1462499999999807
20
-59.0799999999999983
11
55.7212499999999977
21
-59.0799999999999983
0
LINE
8
B.Cu
6
CONTINUOUS
10
55.7212499999999977
20
-59.0799999999999983
11
55.7116830000000007
21
-59.0780969999999996
0
LINE
8
B.Cu
6
CONTINUOUS
10
55.7116830000000007
20
-59.0780969999999996
11
55.6981529999999978
21
-59.0645669999999967
0
LINE
8
B.Cu
6
CONTINUOUS
10
55.6981529999999978
20
-59.0645669999999967
11
55.6962499999999991
21
-59.0549999999999997
0
LINE
8
B.Cu
6
CONTINUOUS
10
55.6962499999999991
20
-59.0549999999999997
11
55.6962499999999991
21
-23.3362499999999997
0
LINE
8
B.Cu
6
CONTINUOUS
10
55.6962499999999991
20
-23.3362499999999997
11
55.6981529999999978
21
-23.3266829999999992
0
LINE
8
B.Cu
6
CONTINUOUS
10
55.6981529999999978
20
-23.3266829999999992
11
55.7116830000000007
21
-23.3131529999999998
0
LINE
8
B.Cu
6
CONTINUOUS
10
55.7116830000000007
20
-23.3131529999999998
11
55.7212499999999977
21
-23.3112499999999976
0
LINE
8
B.Cu
6
CONTINUOUS
10
55.7212499999999977
20
-23.3112499999999976
11
154.1462499999999807
21
-23.3112499999999976
0
LINE
8
B.Cu
6
CONTINUOUS
10
154.1462499999999807
20
-23.3112499999999976
11
154.1558169999999848
21
-23.3131529999999998
0
LINE
8
B.Cu
6
CONTINUOUS
10
55.7462499999999963
20
-23.3612499999999983
11
55.7462499999999963
21
-59.029999999999994
0
LINE
8
B.Cu
6
CONTINUOUS
10
55.7462499999999963
20
-59.029999999999994
11
154.1212500000000034
21
-59.029999999999994
0
LINE
8
B.Cu
6
CONTINUOUS
10
154.1212500000000034
20
-59.029999999999994
11
154.1212500000000034
21
-23.3612499999999983
0
LINE
8
B.Cu
6
CONTINUOUS
10
154.1212500000000034
20
-23.3612499999999983
11
55.7462499999999963
21
-23.3612499999999983
  0
ENDSEC
  0
EOF
