  0
SECTION
  2
HEADER
  9
$ANGBASE
  50
0.0
  9
$ANGDIR
  70
1
  9
$MEASUREMENT
  70
1
  9
$INSUNITS
  70
4
  0
ENDSEC
  0
SECTION
  2
TABLES
  0
TABLE
  2
LTYPE
  70
4
  0
LTYPE
  5
40F
  2
CONTINUOUS
  70
0
  3
Solid line
  72
65
  73
0
  40
0.0
  0
LTYPE
  5
410
  2
DASHDOT
 70
0
  3
Dash Dot ____ _ ____ _
 72
65
 73
4
 40
2.0
 49
1.25
 49
-0.25
 49
0.25
 49
-0.25
  0
LTYPE
  5
411
  2
DASHED
 70
0
  3
Dashed __ __ __ __ __
 72
65
 73
2
 40
0.75
 49
0.5
 49
-0.25
  0
LTYPE
  5
43B
  2
DOTTED
 70
0
  3
Dotted .  .  .  .
 72
65
 73
2
 40
0.2
 49
0.0
 49
-0.2
  0
ENDTAB
  0
TABLE
  2
STYLE
  70
4
  0
STYLE
  2
KICAD
  70
0
  40
0
  41
1
  42
1
  50
0
  71
0
  3
isocp.shx
  0
STYLE
  2
KICADB
  70
0
  40
0
  41
1
  42
1
  50
0
  71
0
  3
isocp.shx
  0
STYLE
  2
KICADI
  70
0
  40
0
  41
1
  42
1
  50
15
  71
0
  3
isocp.shx
  0
STYLE
  2
KICADBI
  70
0
  40
0
  41
1
  42
1
  50
15
  71
0
  3
isocp.shx
  0
ENDTAB
  0
TABLE
  2
LAYER
  70
2
  0
LAYER
  2
F.Cu
  70
0
  62
13
  420
13120564
  6
CONTINUOUS
  0
LAYER
  2
B.Cu
  70
0
  62
153
  420
5078980
  6
CONTINUOUS
  0
ENDTAB
  0
ENDSEC
  0
SECTION
  2
ENTITIES
0
LINE
8
F.Cu
6
CONTINUOUS
10
68.8564959999999928
20
-51.1585139999999967
11
69.0290049999999979
21
-51.2299699999999945
0
LINE
8
F.Cu
6
CONTINUOUS
10
69.0290049999999979
20
-51.2299699999999945
11
69.1842599999999948
21
-51.3337079999999943
0
LINE
8
F.Cu
6
CONTINUOUS
10
69.1842599999999948
20
-51.3337079999999943
11
69.31629199999999
21
-51.4657399999999967
0
LINE
8
F.Cu
6
CONTINUOUS
10
69.31629199999999
20
-51.4657399999999967
11
69.420029999999997
21
-51.6209950000000006
0
LINE
8
F.Cu
6
CONTINUOUS
10
69.420029999999997
20
-51.6209950000000006
11
69.4914859999999948
21
-51.7935039999999987
0
LINE
8
F.Cu
6
CONTINUOUS
10
69.4914859999999948
20
-51.7935039999999987
11
69.5279129999999981
21
-51.9766389999999987
0
LINE
8
F.Cu
6
CONTINUOUS
10
69.5279129999999981
20
-51.9766389999999987
11
69.5279129999999981
21
-52.1288829999999948
0
LINE
8
F.Cu
6
CONTINUOUS
10
69.5279129999999981
20
-52.1288829999999948
11
69.5313089999999931
21
-52.1347649999999945
0
LINE
8
F.Cu
6
CONTINUOUS
10
69.5313089999999931
20
-52.1347649999999945
11
69.5324999999999989
21
-52.1483749999999944
0
LINE
8
F.Cu
6
CONTINUOUS
10
69.5324999999999989
20
-52.1483749999999944
11
69.5324999999999989
21
-54.5316249999999982
0
LINE
8
F.Cu
6
CONTINUOUS
10
69.5324999999999989
20
-54.5316249999999982
11
69.5279129999999981
21
-54.5442269999999994
0
LINE
8
F.Cu
6
CONTINUOUS
10
69.5279129999999981
20
-54.5442269999999994
11
69.5279129999999981
21
-54.703361000000001
0
LINE
8
F.Cu
6
CONTINUOUS
10
69.5279129999999981
20
-54.703361000000001
11
69.4914859999999948
21
-54.8864960000000011
0
LINE
8
F.Cu
6
CONTINUOUS
10
69.4914859999999948
20
-54.8864960000000011
11
69.420029999999997
21
-55.0590049999999991
0
LINE
8
F.Cu
6
CONTINUOUS
10
69.420029999999997
20
-55.0590049999999991
11
69.31629199999999
21
-55.2142599999999959
0
LINE
8
F.Cu
6
CONTINUOUS
10
69.31629199999999
20
-55.2142599999999959
11
69.1842599999999948
21
-55.3462919999999983
0
LINE
8
F.Cu
6
CONTINUOUS
10
69.1842599999999948
20
-55.3462919999999983
11
69.0290049999999979
21
-55.4500299999999982
0
LINE
8
F.Cu
6
CONTINUOUS
10
69.0290049999999979
20
-55.4500299999999982
11
68.8564959999999928
21
-55.5214859999999959
0
LINE
8
F.Cu
6
CONTINUOUS
10
68.8564959999999928
20
-55.5214859999999959
11
68.6733609999999999
21
-55.5579129999999992
0
LINE
8
F.Cu
6
CONTINUOUS
10
68.6733609999999999
20
-55.5579129999999992
11
68.4866389999999967
21
-55.5579129999999992
0
LINE
8
F.Cu
6
CONTINUOUS
10
68.4866389999999967
20
-55.5579129999999992
11
68.3035040000000038
21
-55.5214859999999959
0
LINE
8
F.Cu
6
CONTINUOUS
10
68.3035040000000038
20
-55.5214859999999959
11
68.1309949999999986
21
-55.4500299999999982
0
LINE
8
F.Cu
6
CONTINUOUS
10
68.1309949999999986
20
-55.4500299999999982
11
67.9757400000000018
21
-55.3462919999999983
0
LINE
8
F.Cu
6
CONTINUOUS
10
67.9757400000000018
20
-55.3462919999999983
11
67.8437079999999924
21
-55.2142599999999959
0
LINE
8
F.Cu
6
CONTINUOUS
10
67.8437079999999924
20
-55.2142599999999959
11
67.7399699999999996
21
-55.0590049999999991
0
LINE
8
F.Cu
6
CONTINUOUS
10
67.7399699999999996
20
-55.0590049999999991
11
67.6685140000000018
21
-54.8864960000000011
0
LINE
8
F.Cu
6
CONTINUOUS
10
67.6685140000000018
20
-54.8864960000000011
11
67.6320869999999985
21
-54.703361000000001
0
LINE
8
F.Cu
6
CONTINUOUS
10
67.6320869999999985
20
-54.703361000000001
11
67.6320869999999985
21
-54.5511160000000004
0
LINE
8
F.Cu
6
CONTINUOUS
10
67.6320869999999985
20
-54.5511160000000004
11
67.6286910000000034
21
-54.5452349999999981
0
LINE
8
F.Cu
6
CONTINUOUS
10
67.6286910000000034
20
-54.5452349999999981
11
67.6274999999999977
21
-54.5316249999999982
0
LINE
8
F.Cu
6
CONTINUOUS
10
67.6274999999999977
20
-54.5316249999999982
11
67.6274999999999977
21
-52.1483749999999944
0
LINE
8
F.Cu
6
CONTINUOUS
10
67.6274999999999977
20
-52.1483749999999944
11
67.6320869999999985
21
-52.1357719999999958
0
LINE
8
F.Cu
6
CONTINUOUS
10
67.6320869999999985
20
-52.1357719999999958
11
67.6320869999999985
21
-51.9766389999999987
0
LINE
8
F.Cu
6
CONTINUOUS
10
67.6320869999999985
20
-51.9766389999999987
11
67.6685140000000018
21
-51.7935039999999987
0
LINE
8
F.Cu
6
CONTINUOUS
10
67.6685140000000018
20
-51.7935039999999987
11
67.7399699999999996
21
-51.6209950000000006
0
LINE
8
F.Cu
6
CONTINUOUS
10
67.7399699999999996
20
-51.6209950000000006
11
67.8437079999999924
21
-51.4657399999999967
0
LINE
8
F.Cu
6
CONTINUOUS
10
67.8437079999999924
20
-51.4657399999999967
11
67.9757400000000018
21
-51.3337079999999943
0
LINE
8
F.Cu
6
CONTINUOUS
10
67.9757400000000018
20
-51.3337079999999943
11
68.1309949999999986
21
-51.2299699999999945
0
LINE
8
F.Cu
6
CONTINUOUS
10
68.1309949999999986
20
-51.2299699999999945
11
68.3035040000000038
21
-51.1585139999999967
0
LINE
8
F.Cu
6
CONTINUOUS
10
68.3035040000000038
20
-51.1585139999999967
11
68.4866389999999967
21
-51.1220870000000005
0
LINE
8
F.Cu
6
CONTINUOUS
10
68.4866389999999967
20
-51.1220870000000005
11
68.6733609999999999
21
-51.1220870000000005
0
LINE
8
F.Cu
6
CONTINUOUS
10
68.6733609999999999
20
-51.1220870000000005
11
68.8564959999999928
21
-51.1585139999999967
0
LINE
8
F.Cu
6
CONTINUOUS
10
72.9328339999999997
20
-34.1312549999999959
11
74.4537499999999994
21
-34.1312549999999959
0
LINE
8
F.Cu
6
CONTINUOUS
10
74.4537499999999994
20
-34.1312549999999959
11
74.4537499999999994
21
-37.9412489999999991
0
LINE
8
F.Cu
6
CONTINUOUS
10
74.4537499999999994
20
-37.9412489999999991
11
73.0249999999999915
21
-37.9412489999999991
0
LINE
8
F.Cu
6
CONTINUOUS
10
73.0249999999999915
20
-37.9412489999999991
11
73.0249999999999915
21
-43.4974999999999952
0
LINE
8
F.Cu
6
CONTINUOUS
10
73.0249999999999915
20
-43.4974999999999952
11
73.0249999999999915
21
-44.4499999999999957
0
LINE
8
F.Cu
6
CONTINUOUS
10
73.0249999999999915
20
-44.4499999999999957
11
72.9371709999999922
21
-44.4499999999999957
0
LINE
8
F.Cu
6
CONTINUOUS
10
72.9371709999999922
20
-44.4499999999999957
11
69.8499979999999994
21
-44.4499999999999957
0
LINE
8
F.Cu
6
CONTINUOUS
10
69.8499979999999994
20
-44.4499999999999957
11
69.4318939999999998
21
-44.8681049999999999
0
LINE
8
F.Cu
6
CONTINUOUS
10
69.4318939999999998
20
-44.8681049999999999
11
69.4318939999999998
21
-44.8681059999999974
0
LINE
8
F.Cu
6
CONTINUOUS
10
69.4318939999999998
20
-44.8681059999999974
11
69.2477260000000001
21
-45.052271999999995
0
LINE
8
F.Cu
6
CONTINUOUS
10
69.2477260000000001
20
-45.052271999999995
11
69.2254339999999928
21
-45.0678819999999973
0
LINE
8
F.Cu
6
CONTINUOUS
10
69.2254339999999928
20
-45.0678819999999973
11
69.2044789999999921
21
-45.077655
0
LINE
8
F.Cu
6
CONTINUOUS
10
69.2044789999999921
20
-45.077655
11
69.1713519999999988
21
-45.0850000000000009
0
LINE
8
F.Cu
6
CONTINUOUS
10
69.1713519999999988
20
-45.0850000000000009
11
61.9124999999999943
21
-45.0850000000000009
0
LINE
8
F.Cu
6
CONTINUOUS
10
61.9124999999999943
20
-45.0850000000000009
11
61.9124999999999943
21
-45.7199999999999989
0
LINE
8
F.Cu
6
CONTINUOUS
10
61.9124999999999943
20
-45.7199999999999989
11
62.8649999999999949
21
-45.7199999999999989
0
LINE
8
F.Cu
6
CONTINUOUS
10
62.8649999999999949
20
-45.7199999999999989
11
62.8649999999999949
21
-48.259999999999998
0
LINE
8
F.Cu
6
CONTINUOUS
10
62.8649999999999949
20
-48.259999999999998
11
61.9124999999999943
21
-48.259999999999998
0
LINE
8
F.Cu
6
CONTINUOUS
10
61.9124999999999943
20
-48.259999999999998
11
61.9124999999999943
21
-54.5178060000000002
0
LINE
8
F.Cu
6
CONTINUOUS
10
61.9124999999999943
20
-54.5178060000000002
11
61.9124989999999968
21
-54.5178089999999997
0
LINE
8
F.Cu
6
CONTINUOUS
10
61.9124989999999968
20
-54.5178089999999997
11
61.9124999999999943
21
-54.5178109999999947
0
LINE
8
F.Cu
6
CONTINUOUS
10
61.9124999999999943
20
-54.5178109999999947
11
61.9079130000000006
21
-54.5438139999999976
0
LINE
8
F.Cu
6
CONTINUOUS
10
61.9079130000000006
20
-54.5438139999999976
11
61.9079130000000006
21
-54.703361000000001
0
LINE
8
F.Cu
6
CONTINUOUS
10
61.9079130000000006
20
-54.703361000000001
11
61.8714859999999973
21
-54.8864960000000011
0
LINE
8
F.Cu
6
CONTINUOUS
10
61.8714859999999973
20
-54.8864960000000011
11
61.8000299999999996
21
-55.0590049999999991
0
LINE
8
F.Cu
6
CONTINUOUS
10
61.8000299999999996
20
-55.0590049999999991
11
61.6962919999999997
21
-55.2142599999999959
0
LINE
8
F.Cu
6
CONTINUOUS
10
61.6962919999999997
20
-55.2142599999999959
11
61.5642599999999973
21
-55.3462919999999983
0
LINE
8
F.Cu
6
CONTINUOUS
10
61.5642599999999973
20
-55.3462919999999983
11
61.4090050000000005
21
-55.4500299999999982
0
LINE
8
F.Cu
6
CONTINUOUS
10
61.4090050000000005
20
-55.4500299999999982
11
61.2364959999999954
21
-55.5214859999999959
0
LINE
8
F.Cu
6
CONTINUOUS
10
61.2364959999999954
20
-55.5214859999999959
11
61.0533609999999953
21
-55.5579129999999992
0
LINE
8
F.Cu
6
CONTINUOUS
10
61.0533609999999953
20
-55.5579129999999992
11
60.8666389999999993
21
-55.5579129999999992
0
LINE
8
F.Cu
6
CONTINUOUS
10
60.8666389999999993
20
-55.5579129999999992
11
60.6835039999999992
21
-55.5214859999999959
0
LINE
8
F.Cu
6
CONTINUOUS
10
60.6835039999999992
20
-55.5214859999999959
11
60.5109949999999941
21
-55.4500299999999982
0
LINE
8
F.Cu
6
CONTINUOUS
10
60.5109949999999941
20
-55.4500299999999982
11
60.3557399999999973
21
-55.3462919999999983
0
LINE
8
F.Cu
6
CONTINUOUS
10
60.3557399999999973
20
-55.3462919999999983
11
60.2237079999999949
21
-55.2142599999999959
0
LINE
8
F.Cu
6
CONTINUOUS
10
60.2237079999999949
20
-55.2142599999999959
11
60.119969999999995
21
-55.0590049999999991
0
LINE
8
F.Cu
6
CONTINUOUS
10
60.119969999999995
20
-55.0590049999999991
11
60.0485139999999973
21
-54.8864960000000011
0
LINE
8
F.Cu
6
CONTINUOUS
10
60.0485139999999973
20
-54.8864960000000011
11
60.012086999999994
21
-54.703361000000001
0
LINE
8
F.Cu
6
CONTINUOUS
10
60.012086999999994
20
-54.703361000000001
11
60.012086999999994
21
-54.5392889999999966
0
LINE
8
F.Cu
6
CONTINUOUS
10
60.012086999999994
20
-54.5392889999999966
11
60.0075000000000003
21
-54.5221699999999956
0
LINE
8
F.Cu
6
CONTINUOUS
10
60.0075000000000003
20
-54.5221699999999956
11
60.0075000000000003
21
-44.2246929999999949
0
LINE
8
F.Cu
6
CONTINUOUS
10
60.0075000000000003
20
-44.2246929999999949
11
60.0122259999999983
21
-44.1978889999999964
0
LINE
8
F.Cu
6
CONTINUOUS
10
60.0122259999999983
20
-44.1978889999999964
11
60.0160789999999977
21
-44.187303
0
LINE
8
F.Cu
6
CONTINUOUS
10
60.0160789999999977
20
-44.187303
11
60.050537999999996
21
-44.1462349999999972
0
LINE
8
F.Cu
6
CONTINUOUS
10
60.050537999999996
20
-44.1462349999999972
11
60.0505420000000001
21
-44.1462329999999952
0
LINE
8
F.Cu
6
CONTINUOUS
10
60.0505420000000001
20
-44.1462329999999952
11
60.0561439999999962
21
-44.1429989999999961
0
LINE
8
F.Cu
6
CONTINUOUS
10
60.0561439999999962
20
-44.1429989999999961
11
60.0953289999999996
21
-44.1325000000000003
0
LINE
8
F.Cu
6
CONTINUOUS
10
60.0953289999999996
20
-44.1325000000000003
11
68.7387489999999985
21
-44.1325000000000003
0
LINE
8
F.Cu
6
CONTINUOUS
10
68.7387489999999985
20
-44.1325000000000003
11
68.738749999999996
21
-44.1325000000000003
0
LINE
8
F.Cu
6
CONTINUOUS
10
68.738749999999996
20
-44.1325000000000003
11
69.3410269999999969
21
-43.5302209999999974
0
LINE
8
F.Cu
6
CONTINUOUS
10
69.3410269999999969
20
-43.5302209999999974
11
69.3633179999999925
21
-43.5146139999999946
0
LINE
8
F.Cu
6
CONTINUOUS
10
69.3633179999999925
20
-43.5146139999999946
11
69.3753609999999981
21
-43.5089989999999958
0
LINE
8
F.Cu
6
CONTINUOUS
10
69.3753609999999981
20
-43.5089989999999958
11
69.3842769999999973
21
-43.5048419999999965
0
LINE
8
F.Cu
6
CONTINUOUS
10
69.3842769999999973
20
-43.5048419999999965
11
69.417396999999994
21
-43.4974999999999952
0
LINE
8
F.Cu
6
CONTINUOUS
10
69.417396999999994
20
-43.4974999999999952
11
71.4375
21
-43.4974999999999952
0
LINE
8
F.Cu
6
CONTINUOUS
10
71.4375
20
-43.4974999999999952
11
71.4375
21
-37.9412489999999991
0
LINE
8
F.Cu
6
CONTINUOUS
10
71.4375
20
-37.9412489999999991
11
71.4375
21
-34.1312549999999959
0
LINE
8
F.Cu
6
CONTINUOUS
10
71.4375
20
-34.1312549999999959
11
71.5253099999999904
21
-34.1312549999999959
0
LINE
8
F.Cu
6
CONTINUOUS
10
71.5253099999999904
20
-34.1312549999999959
11
71.5253289999999993
21
-34.1312500000000014
0
LINE
8
F.Cu
6
CONTINUOUS
10
71.5253289999999993
20
-34.1312500000000014
11
72.9328059999999994
21
-34.1312500000000014
0
LINE
8
F.Cu
6
CONTINUOUS
10
72.9328059999999994
20
-34.1312500000000014
11
72.9328339999999997
21
-34.1312549999999959
0
LINE
8
F.Cu
6
CONTINUOUS
10
83.7789959999999923
20
-46.8722640000000013
11
83.9515049999999974
21
-46.943719999999999
0
LINE
8
F.Cu
6
CONTINUOUS
10
83.9515049999999974
20
-46.943719999999999
11
84.1067599999999942
21
-47.0474579999999989
0
LINE
8
F.Cu
6
CONTINUOUS
10
84.1067599999999942
20
-47.0474579999999989
11
84.2387919999999895
21
-47.1794900000000013
0
LINE
8
F.Cu
6
CONTINUOUS
10
84.2387919999999895
20
-47.1794900000000013
11
84.3425299999999964
21
-47.3347449999999981
0
LINE
8
F.Cu
6
CONTINUOUS
10
84.3425299999999964
20
-47.3347449999999981
11
84.4139859999999942
21
-47.5072539999999961
0
LINE
8
F.Cu
6
CONTINUOUS
10
84.4139859999999942
20
-47.5072539999999961
11
84.4504129999999975
21
-47.6903889999999961
0
LINE
8
F.Cu
6
CONTINUOUS
10
84.4504129999999975
20
-47.6903889999999961
11
84.4504129999999975
21
-47.8771109999999993
0
LINE
8
F.Cu
6
CONTINUOUS
10
84.4504129999999975
20
-47.8771109999999993
11
84.4139859999999942
21
-48.0602459999999994
0
LINE
8
F.Cu
6
CONTINUOUS
10
84.4139859999999942
20
-48.0602459999999994
11
84.3425299999999964
21
-48.2327549999999974
0
LINE
8
F.Cu
6
CONTINUOUS
10
84.3425299999999964
20
-48.2327549999999974
11
84.2387919999999895
21
-48.3880100000000013
0
LINE
8
F.Cu
6
CONTINUOUS
10
84.2387919999999895
20
-48.3880100000000013
11
84.1067599999999942
21
-48.5200419999999966
0
LINE
8
F.Cu
6
CONTINUOUS
10
84.1067599999999942
20
-48.5200419999999966
11
83.9515049999999974
21
-48.6237799999999964
0
LINE
8
F.Cu
6
CONTINUOUS
10
83.9515049999999974
20
-48.6237799999999964
11
83.7789959999999923
21
-48.6952360000000013
0
LINE
8
F.Cu
6
CONTINUOUS
10
83.7789959999999923
20
-48.6952360000000013
11
83.5958609999999993
21
-48.7316629999999975
0
LINE
8
F.Cu
6
CONTINUOUS
10
83.5958609999999993
20
-48.7316629999999975
11
83.4091389999999961
21
-48.7316629999999975
0
LINE
8
F.Cu
6
CONTINUOUS
10
83.4091389999999961
20
-48.7316629999999975
11
83.2260040000000032
21
-48.6952360000000013
0
LINE
8
F.Cu
6
CONTINUOUS
10
83.2260040000000032
20
-48.6952360000000013
11
83.0534949999999981
21
-48.6237799999999964
0
LINE
8
F.Cu
6
CONTINUOUS
10
83.0534949999999981
20
-48.6237799999999964
11
82.8982400000000013
21
-48.5200419999999966
0
LINE
8
F.Cu
6
CONTINUOUS
10
82.8982400000000013
20
-48.5200419999999966
11
82.7662079999999918
21
-48.3880100000000013
0
LINE
8
F.Cu
6
CONTINUOUS
10
82.7662079999999918
20
-48.3880100000000013
11
82.6806749999999937
21
-48.259999999999998
0
LINE
8
F.Cu
6
CONTINUOUS
10
82.6806749999999937
20
-48.259999999999998
11
81.3583749999999952
21
-48.259999999999998
0
LINE
8
F.Cu
6
CONTINUOUS
10
81.3583749999999952
20
-48.259999999999998
11
81.2800000000000011
21
-48.259999999999998
0
LINE
8
F.Cu
6
CONTINUOUS
10
81.2800000000000011
20
-48.259999999999998
11
81.2800000000000011
21
-47.3074999999999974
0
LINE
8
F.Cu
6
CONTINUOUS
10
81.2800000000000011
20
-47.3074999999999974
11
82.5499999999999972
21
-47.3074999999999974
0
LINE
8
F.Cu
6
CONTINUOUS
10
82.5499999999999972
20
-47.3074999999999974
11
82.6806749999999937
21
-47.3074999999999974
0
LINE
8
F.Cu
6
CONTINUOUS
10
82.6806749999999937
20
-47.3074999999999974
11
82.7662079999999918
21
-47.1794900000000013
0
LINE
8
F.Cu
6
CONTINUOUS
10
82.7662079999999918
20
-47.1794900000000013
11
82.8982400000000013
21
-47.0474579999999989
0
LINE
8
F.Cu
6
CONTINUOUS
10
82.8982400000000013
20
-47.0474579999999989
11
83.0534949999999981
21
-46.943719999999999
0
LINE
8
F.Cu
6
CONTINUOUS
10
83.0534949999999981
20
-46.943719999999999
11
83.2260040000000032
21
-46.8722640000000013
0
LINE
8
F.Cu
6
CONTINUOUS
10
83.2260040000000032
20
-46.8722640000000013
11
83.4091389999999961
21
-46.8358369999999979
0
LINE
8
F.Cu
6
CONTINUOUS
10
83.4091389999999961
20
-46.8358369999999979
11
83.5958609999999993
21
-46.8358369999999979
0
LINE
8
F.Cu
6
CONTINUOUS
10
83.5958609999999993
20
-46.8358369999999979
11
83.7789959999999923
21
-46.8722640000000013
0
LINE
8
F.Cu
6
CONTINUOUS
10
74.6124999999999972
20
-44.7674999999999983
11
74.8378060000000005
21
-44.7674999999999983
0
LINE
8
F.Cu
6
CONTINUOUS
10
74.8378060000000005
20
-44.7674999999999983
11
74.8646090000000015
21
-44.7722249999999988
0
LINE
8
F.Cu
6
CONTINUOUS
10
74.8646090000000015
20
-44.7722249999999988
11
74.8751939999999934
21
-44.7760779999999983
0
LINE
8
F.Cu
6
CONTINUOUS
10
74.8751939999999934
20
-44.7760779999999983
11
74.8857799999999969
21
-44.7849590000000006
0
LINE
8
F.Cu
6
CONTINUOUS
10
74.8857799999999969
20
-44.7849590000000006
11
74.8987630000000024
21
-44.7896840000000012
0
LINE
8
F.Cu
6
CONTINUOUS
10
74.8987630000000024
20
-44.7896840000000012
11
74.9162609999999916
21
-44.8105329999999995
0
LINE
8
F.Cu
6
CONTINUOUS
10
74.9162609999999916
20
-44.8105329999999995
11
74.9194959999999952
21
-44.8161349999999956
0
LINE
8
F.Cu
6
CONTINUOUS
10
74.9194959999999952
20
-44.8161349999999956
11
74.9299999999999926
21
-44.8553289999999976
0
LINE
8
F.Cu
6
CONTINUOUS
10
74.9299999999999926
20
-44.8553289999999976
11
74.9299999999999926
21
-47.3074999999999974
0
LINE
8
F.Cu
6
CONTINUOUS
10
74.9299999999999926
20
-47.3074999999999974
11
74.9299999999999926
21
-48.259999999999998
0
LINE
8
F.Cu
6
CONTINUOUS
10
74.9299999999999926
20
-48.259999999999998
11
73.6599999999999966
21
-48.259999999999998
0
LINE
8
F.Cu
6
CONTINUOUS
10
73.6599999999999966
20
-48.259999999999998
11
71.8471940000000018
21
-48.259999999999998
0
LINE
8
F.Cu
6
CONTINUOUS
10
71.8471940000000018
20
-48.259999999999998
11
71.8471919999999926
21
-48.259999999999998
0
LINE
8
F.Cu
6
CONTINUOUS
10
71.8471919999999926
20
-48.259999999999998
11
71.7549999999999955
21
-48.259999999999998
0
LINE
8
F.Cu
6
CONTINUOUS
10
71.7549999999999955
20
-48.259999999999998
11
71.7549999999999955
21
-47.3074999999999974
0
LINE
8
F.Cu
6
CONTINUOUS
10
71.7549999999999955
20
-47.3074999999999974
11
71.7549999999999955
21
-45.4946929999999981
0
LINE
8
F.Cu
6
CONTINUOUS
10
71.7549999999999955
20
-45.4946929999999981
11
71.7597260000000006
21
-45.4678889999999996
0
LINE
8
F.Cu
6
CONTINUOUS
10
71.7597260000000006
20
-45.4678889999999996
11
71.7635789999999929
21
-45.457302999999996
0
LINE
8
F.Cu
6
CONTINUOUS
10
71.7635789999999929
20
-45.457302999999996
11
71.7724609999999927
21
-45.4467169999999996
0
LINE
8
F.Cu
6
CONTINUOUS
10
71.7724609999999927
20
-45.4467169999999996
11
71.7771899999999903
21
-45.433727999999995
0
LINE
8
F.Cu
6
CONTINUOUS
10
71.7771899999999903
20
-45.433727999999995
11
71.7980340000000012
21
-45.4162389999999974
0
LINE
8
F.Cu
6
CONTINUOUS
10
71.7980340000000012
20
-45.4162389999999974
11
71.7980379999999911
21
-45.4162350000000004
0
LINE
8
F.Cu
6
CONTINUOUS
10
71.7980379999999911
20
-45.4162350000000004
11
71.7980419999999953
21
-45.4162329999999983
0
LINE
8
F.Cu
6
CONTINUOUS
10
71.7980419999999953
20
-45.4162329999999983
11
71.8036439999999914
21
-45.4129989999999992
0
LINE
8
F.Cu
6
CONTINUOUS
10
71.8036439999999914
20
-45.4129989999999992
11
71.8428289999999947
21
-45.4024999999999963
0
LINE
8
F.Cu
6
CONTINUOUS
10
71.8428289999999947
20
-45.4024999999999963
11
73.977499999999992
21
-45.4024999999999963
0
LINE
8
F.Cu
6
CONTINUOUS
10
73.977499999999992
20
-45.4024999999999963
11
73.977499999999992
21
-44.859693
0
LINE
8
F.Cu
6
CONTINUOUS
10
73.977499999999992
20
-44.859693
11
73.977499999999992
21
-44.7674999999999983
0
LINE
8
F.Cu
6
CONTINUOUS
10
73.977499999999992
20
-44.7674999999999983
11
74.6124999999999972
21
-44.7674999999999983
0
LINE
8
F.Cu
6
CONTINUOUS
10
76.425305999999992
20
-44.7674999999999983
11
76.5174999999999983
21
-44.7674999999999983
0
LINE
8
F.Cu
6
CONTINUOUS
10
76.5174999999999983
20
-44.7674999999999983
11
76.5174999999999983
21
-44.8553289999999976
0
LINE
8
F.Cu
6
CONTINUOUS
10
76.5174999999999983
20
-44.8553289999999976
11
76.5174999999999983
21
-45.4024999999999963
0
LINE
8
F.Cu
6
CONTINUOUS
10
76.5174999999999983
20
-45.4024999999999963
11
77.4699999999999989
21
-45.4024999999999963
0
LINE
8
F.Cu
6
CONTINUOUS
10
77.4699999999999989
20
-45.4024999999999963
11
78.7399999999999949
21
-45.4024999999999963
0
LINE
8
F.Cu
6
CONTINUOUS
10
78.7399999999999949
20
-45.4024999999999963
11
80.5528059999999897
21
-45.4024999999999963
0
LINE
8
F.Cu
6
CONTINUOUS
10
80.5528059999999897
20
-45.4024999999999963
11
80.5796089999999907
21
-45.4072249999999968
0
LINE
8
F.Cu
6
CONTINUOUS
10
80.5796089999999907
20
-45.4072249999999968
11
80.5901939999999968
21
-45.4110779999999963
0
LINE
8
F.Cu
6
CONTINUOUS
10
80.5901939999999968
20
-45.4110779999999963
11
80.631260999999995
21
-45.4455329999999975
0
LINE
8
F.Cu
6
CONTINUOUS
10
80.631260999999995
20
-45.4455329999999975
11
80.6344959999999986
21
-45.4511350000000007
0
LINE
8
F.Cu
6
CONTINUOUS
10
80.6344959999999986
20
-45.4511350000000007
11
80.644999999999996
21
-45.4903289999999956
0
LINE
8
F.Cu
6
CONTINUOUS
10
80.644999999999996
20
-45.4903289999999956
11
80.644999999999996
21
-47.3074999999999974
0
LINE
8
F.Cu
6
CONTINUOUS
10
80.644999999999996
20
-47.3074999999999974
11
80.644999999999996
21
-48.259999999999998
0
LINE
8
F.Cu
6
CONTINUOUS
10
80.644999999999996
20
-48.259999999999998
11
79.375
21
-48.259999999999998
0
LINE
8
F.Cu
6
CONTINUOUS
10
79.375
20
-48.259999999999998
11
78.7399999999999949
21
-48.259999999999998
0
LINE
8
F.Cu
6
CONTINUOUS
10
78.7399999999999949
20
-48.259999999999998
11
77.4699999999999989
21
-48.259999999999998
0
LINE
8
F.Cu
6
CONTINUOUS
10
77.4699999999999989
20
-48.259999999999998
11
76.8011899999999912
21
-48.259999999999998
0
LINE
8
F.Cu
6
CONTINUOUS
10
76.8011899999999912
20
-48.259999999999998
11
75.5649999999999977
21
-48.259999999999998
0
LINE
8
F.Cu
6
CONTINUOUS
10
75.5649999999999977
20
-48.259999999999998
11
75.5649999999999977
21
-47.3074999999999974
0
LINE
8
F.Cu
6
CONTINUOUS
10
75.5649999999999977
20
-47.3074999999999974
11
75.5649999999999977
21
-44.859693
0
LINE
8
F.Cu
6
CONTINUOUS
10
75.5649999999999977
20
-44.859693
11
75.5697260000000028
21
-44.8328889999999944
0
LINE
8
F.Cu
6
CONTINUOUS
10
75.5697260000000028
20
-44.8328889999999944
11
75.5735789999999952
21
-44.822302999999998
0
LINE
8
F.Cu
6
CONTINUOUS
10
75.5735789999999952
20
-44.822302999999998
11
75.6080379999999934
21
-44.7812349999999952
0
LINE
8
F.Cu
6
CONTINUOUS
10
75.6080379999999934
20
-44.7812349999999952
11
75.6080419999999975
21
-44.7812330000000003
0
LINE
8
F.Cu
6
CONTINUOUS
10
75.6080419999999975
20
-44.7812330000000003
11
75.6136439999999936
21
-44.7779990000000012
0
LINE
8
F.Cu
6
CONTINUOUS
10
75.6136439999999936
20
-44.7779990000000012
11
75.652828999999997
21
-44.7674999999999983
0
LINE
8
F.Cu
6
CONTINUOUS
10
75.652828999999997
20
-44.7674999999999983
11
76.425305999999992
21
-44.7674999999999983
0
LINE
8
F.Cu
6
CONTINUOUS
10
82.8021090000000015
20
-31.119724999999999
11
82.8126939999999934
21
-31.1235779999999984
0
LINE
8
F.Cu
6
CONTINUOUS
10
82.8126939999999934
20
-31.1235779999999984
11
82.8232799999999969
21
-31.1324589999999972
0
LINE
8
F.Cu
6
CONTINUOUS
10
82.8232799999999969
20
-31.1324589999999972
11
82.8362630000000024
21
-31.1371839999999978
0
LINE
8
F.Cu
6
CONTINUOUS
10
82.8362630000000024
20
-31.1371839999999978
11
82.8537609999999916
21
-31.1580329999999996
0
LINE
8
F.Cu
6
CONTINUOUS
10
82.8537609999999916
20
-31.1580329999999996
11
82.8569959999999952
21
-31.1636349999999993
0
LINE
8
F.Cu
6
CONTINUOUS
10
82.8569959999999952
20
-31.1636349999999993
11
82.8674999999999926
21
-31.2028289999999977
0
LINE
8
F.Cu
6
CONTINUOUS
10
82.8674999999999926
20
-31.2028289999999977
11
82.8674999999999926
21
-44.0403060000000011
0
LINE
8
F.Cu
6
CONTINUOUS
10
82.8674999999999926
20
-44.0403060000000011
11
82.8627719999999925
21
-44.0671139999999966
0
LINE
8
F.Cu
6
CONTINUOUS
10
82.8627719999999925
20
-44.0671139999999966
11
82.8611789999999928
21
-44.0714899999999972
0
LINE
8
F.Cu
6
CONTINUOUS
10
82.8611789999999928
20
-44.0714899999999972
11
82.8589190000000002
21
-44.0777000000000001
0
LINE
8
F.Cu
6
CONTINUOUS
10
82.8589190000000002
20
-44.0777000000000001
11
82.8244710000000026
21
-44.1187579999999997
0
LINE
8
F.Cu
6
CONTINUOUS
10
82.8244710000000026
20
-44.1187579999999997
11
82.8188699999999898
21
-44.1219929999999962
0
LINE
8
F.Cu
6
CONTINUOUS
10
82.8188699999999898
20
-44.1219929999999962
11
82.7796709999999933
21
-44.1325000000000003
0
LINE
8
F.Cu
6
CONTINUOUS
10
82.7796709999999933
20
-44.1325000000000003
11
80.644999999999996
21
-44.1325000000000003
0
LINE
8
F.Cu
6
CONTINUOUS
10
80.644999999999996
20
-44.1325000000000003
11
80.644999999999996
21
-44.4499999999999957
0
LINE
8
F.Cu
6
CONTINUOUS
10
80.644999999999996
20
-44.4499999999999957
11
79.375
21
-44.4499999999999957
0
LINE
8
F.Cu
6
CONTINUOUS
10
79.375
20
-44.4499999999999957
11
79.375
21
-44.1325000000000003
0
LINE
8
F.Cu
6
CONTINUOUS
10
79.375
20
-44.1325000000000003
11
75.0221939999999989
21
-44.1325000000000003
0
LINE
8
F.Cu
6
CONTINUOUS
10
75.0221939999999989
20
-44.1325000000000003
11
75.0221919999999898
21
-44.1325000000000003
0
LINE
8
F.Cu
6
CONTINUOUS
10
75.0221919999999898
20
-44.1325000000000003
11
74.9299999999999926
21
-44.1325000000000003
0
LINE
8
F.Cu
6
CONTINUOUS
10
74.9299999999999926
20
-44.1325000000000003
11
74.9299999999999926
21
-42.5449999999999946
0
LINE
8
F.Cu
6
CONTINUOUS
10
74.9299999999999926
20
-42.5449999999999946
11
74.9299999999999926
21
-42.3196930000000009
0
LINE
8
F.Cu
6
CONTINUOUS
10
74.9299999999999926
20
-42.3196930000000009
11
74.9347259999999977
21
-42.2928889999999953
0
LINE
8
F.Cu
6
CONTINUOUS
10
74.9347259999999977
20
-42.2928889999999953
11
74.9385789999999901
21
-42.2823029999999989
0
LINE
8
F.Cu
6
CONTINUOUS
10
74.9385789999999901
20
-42.2823029999999989
11
74.9474609999999899
21
-42.2717169999999953
0
LINE
8
F.Cu
6
CONTINUOUS
10
74.9474609999999899
20
-42.2717169999999953
11
74.9521900000000016
21
-42.2587279999999978
0
LINE
8
F.Cu
6
CONTINUOUS
10
74.9521900000000016
20
-42.2587279999999978
11
74.9730339999999984
21
-42.2412390000000002
0
LINE
8
F.Cu
6
CONTINUOUS
10
74.9730339999999984
20
-42.2412390000000002
11
74.9730380000000025
21
-42.2412349999999961
0
LINE
8
F.Cu
6
CONTINUOUS
10
74.9730380000000025
20
-42.2412349999999961
11
74.9730419999999924
21
-42.2412330000000011
0
LINE
8
F.Cu
6
CONTINUOUS
10
74.9730419999999924
20
-42.2412330000000011
11
74.9786440000000027
21
-42.237998999999995
0
LINE
8
F.Cu
6
CONTINUOUS
10
74.9786440000000027
20
-42.237998999999995
11
75.0178289999999919
21
-42.2274999999999991
0
LINE
8
F.Cu
6
CONTINUOUS
10
75.0178289999999919
20
-42.2274999999999991
11
79.8512499999999932
21
-42.2274999999999991
0
LINE
8
F.Cu
6
CONTINUOUS
10
79.8512499999999932
20
-42.2274999999999991
11
79.8512499999999932
21
-31.2071930000000002
0
LINE
8
F.Cu
6
CONTINUOUS
10
79.8512499999999932
20
-31.2071930000000002
11
79.8559759999999983
21
-31.1803889999999981
0
LINE
8
F.Cu
6
CONTINUOUS
10
79.8559759999999983
20
-31.1803889999999981
11
79.8598289999999906
21
-31.1698029999999981
0
LINE
8
F.Cu
6
CONTINUOUS
10
79.8598289999999906
20
-31.1698029999999981
11
79.8942880000000031
21
-31.1287349999999989
0
LINE
8
F.Cu
6
CONTINUOUS
10
79.8942880000000031
20
-31.1287349999999989
11
79.894291999999993
21
-31.1287329999999969
0
LINE
8
F.Cu
6
CONTINUOUS
10
79.894291999999993
20
-31.1287329999999969
11
79.8998940000000033
21
-31.1254989999999978
0
LINE
8
F.Cu
6
CONTINUOUS
10
79.8998940000000033
20
-31.1254989999999978
11
79.9390789999999924
21
-31.1149999999999984
0
LINE
8
F.Cu
6
CONTINUOUS
10
79.9390789999999924
20
-31.1149999999999984
11
82.7753060000000005
21
-31.1149999999999984
0
LINE
8
F.Cu
6
CONTINUOUS
10
82.7753060000000005
20
-31.1149999999999984
11
82.8021090000000015
21
-31.119724999999999
0
LINE
8
F.Cu
6
CONTINUOUS
10
62.5474999999999994
20
-42.2274999999999991
11
66.9924999999999926
21
-42.2274999999999991
0
LINE
8
F.Cu
6
CONTINUOUS
10
66.9924999999999926
20
-42.2274999999999991
11
66.9924999999999926
21
-41.9099999999999966
0
LINE
8
F.Cu
6
CONTINUOUS
10
66.9924999999999926
20
-41.9099999999999966
11
68.2625000000000028
21
-41.9099999999999966
0
LINE
8
F.Cu
6
CONTINUOUS
10
68.2625000000000028
20
-41.9099999999999966
11
68.2625000000000028
21
-42.8624999999999972
0
LINE
8
F.Cu
6
CONTINUOUS
10
68.2625000000000028
20
-42.8624999999999972
11
66.9924999999999926
21
-42.8624999999999972
0
LINE
8
F.Cu
6
CONTINUOUS
10
66.9924999999999926
20
-42.8624999999999972
11
65.0874999999999915
21
-42.8624999999999972
0
LINE
8
F.Cu
6
CONTINUOUS
10
65.0874999999999915
20
-42.8624999999999972
11
65.0874999999999915
21
-43.8149999999999977
0
LINE
8
F.Cu
6
CONTINUOUS
10
65.0874999999999915
20
-43.8149999999999977
11
64.4525000000000006
21
-43.8149999999999977
0
LINE
8
F.Cu
6
CONTINUOUS
10
64.4525000000000006
20
-43.8149999999999977
11
64.4525000000000006
21
-42.8624999999999972
0
LINE
8
F.Cu
6
CONTINUOUS
10
64.4525000000000006
20
-42.8624999999999972
11
61.3696939999999955
21
-42.8624999999999972
0
LINE
8
F.Cu
6
CONTINUOUS
10
61.3696939999999955
20
-42.8624999999999972
11
61.3696920000000006
21
-42.8624999999999972
0
LINE
8
F.Cu
6
CONTINUOUS
10
61.3696920000000006
20
-42.8624999999999972
11
61.2774999999999963
21
-42.8624999999999972
0
LINE
8
F.Cu
6
CONTINUOUS
10
61.2774999999999963
20
-42.8624999999999972
11
61.2774999999999963
21
-41.9099999999999966
0
LINE
8
F.Cu
6
CONTINUOUS
10
61.2774999999999963
20
-41.9099999999999966
11
62.5474999999999994
21
-41.9099999999999966
0
LINE
8
F.Cu
6
CONTINUOUS
10
62.5474999999999994
20
-41.9099999999999966
11
62.5474999999999994
21
-42.2274999999999991
0
LINE
8
F.Cu
6
CONTINUOUS
10
62.5474999999999994
20
-38.1000000000000014
11
63.1824999999999974
21
-38.1000000000000014
0
LINE
8
F.Cu
6
CONTINUOUS
10
63.1824999999999974
20
-38.1000000000000014
11
64.0566249999999968
21
-38.1000000000000014
0
LINE
8
F.Cu
6
CONTINUOUS
10
64.0566249999999968
20
-38.1000000000000014
11
64.4525000000000006
21
-38.1000000000000014
0
LINE
8
F.Cu
6
CONTINUOUS
10
64.4525000000000006
20
-38.1000000000000014
11
64.4525000000000006
21
-39.0524999999999949
0
LINE
8
F.Cu
6
CONTINUOUS
10
64.4525000000000006
20
-39.0524999999999949
11
64.1349999999999909
21
-39.0524999999999949
0
LINE
8
F.Cu
6
CONTINUOUS
10
64.1349999999999909
20
-39.0524999999999949
11
64.1349999999999909
21
-40.0049999999999955
0
LINE
8
F.Cu
6
CONTINUOUS
10
64.1349999999999909
20
-40.0049999999999955
11
64.1349999999999909
21
-41.5925000000000011
0
LINE
8
F.Cu
6
CONTINUOUS
10
64.1349999999999909
20
-41.5925000000000011
11
64.0566249999999968
21
-41.5925000000000011
0
LINE
8
F.Cu
6
CONTINUOUS
10
64.0566249999999968
20
-41.5925000000000011
11
63.5783749999999941
21
-41.5925000000000011
0
LINE
8
F.Cu
6
CONTINUOUS
10
63.5783749999999941
20
-41.5925000000000011
11
63.5
21
-41.5925000000000011
0
LINE
8
F.Cu
6
CONTINUOUS
10
63.5
20
-41.5925000000000011
11
63.5
21
-40.0049999999999955
0
LINE
8
F.Cu
6
CONTINUOUS
10
63.5
20
-40.0049999999999955
11
63.5
21
-39.0524999999999949
0
LINE
8
F.Cu
6
CONTINUOUS
10
63.5
20
-39.0524999999999949
11
61.3558749999999975
21
-39.0524999999999949
0
LINE
8
F.Cu
6
CONTINUOUS
10
61.3558749999999975
20
-39.0524999999999949
11
61.2774999999999963
21
-39.0524999999999949
0
LINE
8
F.Cu
6
CONTINUOUS
10
61.2774999999999963
20
-39.0524999999999949
11
61.2774999999999963
21
-38.1000000000000014
0
LINE
8
F.Cu
6
CONTINUOUS
10
61.2774999999999963
20
-38.1000000000000014
11
62.5474999999999994
21
-38.1000000000000014
0
LINE
8
F.Cu
6
CONTINUOUS
10
70.1264960000000031
20
-39.2522639999999967
11
70.299004999999994
21
-39.3237200000000016
0
LINE
8
F.Cu
6
CONTINUOUS
10
70.299004999999994
20
-39.3237200000000016
11
70.4542599999999908
21
-39.4274580000000014
0
LINE
8
F.Cu
6
CONTINUOUS
10
70.4542599999999908
20
-39.4274580000000014
11
70.5862920000000003
21
-39.5594899999999967
0
LINE
8
F.Cu
6
CONTINUOUS
10
70.5862920000000003
20
-39.5594899999999967
11
70.690029999999993
21
-39.7147450000000006
0
LINE
8
F.Cu
6
CONTINUOUS
10
70.690029999999993
20
-39.7147450000000006
11
70.7614859999999908
21
-39.8872539999999987
0
LINE
8
F.Cu
6
CONTINUOUS
10
70.7614859999999908
20
-39.8872539999999987
11
70.7979129999999941
21
-40.0703889999999987
0
LINE
8
F.Cu
6
CONTINUOUS
10
70.7979129999999941
20
-40.0703889999999987
11
70.7979129999999941
21
-40.2571109999999948
0
LINE
8
F.Cu
6
CONTINUOUS
10
70.7979129999999941
20
-40.2571109999999948
11
70.7614859999999908
21
-40.4402459999999948
0
LINE
8
F.Cu
6
CONTINUOUS
10
70.7614859999999908
20
-40.4402459999999948
11
70.690029999999993
21
-40.6127549999999999
0
LINE
8
F.Cu
6
CONTINUOUS
10
70.690029999999993
20
-40.6127549999999999
11
70.5862920000000003
21
-40.7680099999999968
0
LINE
8
F.Cu
6
CONTINUOUS
10
70.5862920000000003
20
-40.7680099999999968
11
70.4542599999999908
21
-40.9000419999999991
0
LINE
8
F.Cu
6
CONTINUOUS
10
70.4542599999999908
20
-40.9000419999999991
11
70.299004999999994
21
-41.003779999999999
0
LINE
8
F.Cu
6
CONTINUOUS
10
70.299004999999994
20
-41.003779999999999
11
70.1264960000000031
21
-41.0752359999999967
0
LINE
8
F.Cu
6
CONTINUOUS
10
70.1264960000000031
20
-41.0752359999999967
11
69.9433609999999959
21
-41.1116630000000001
0
LINE
8
F.Cu
6
CONTINUOUS
10
69.9433609999999959
20
-41.1116630000000001
11
69.7566389999999927
21
-41.1116630000000001
0
LINE
8
F.Cu
6
CONTINUOUS
10
69.7566389999999927
20
-41.1116630000000001
11
69.5735039999999998
21
-41.0752359999999967
0
LINE
8
F.Cu
6
CONTINUOUS
10
69.5735039999999998
20
-41.0752359999999967
11
69.4009949999999947
21
-41.003779999999999
0
LINE
8
F.Cu
6
CONTINUOUS
10
69.4009949999999947
20
-41.003779999999999
11
69.2457399999999978
21
-40.9000419999999991
0
LINE
8
F.Cu
6
CONTINUOUS
10
69.2457399999999978
20
-40.9000419999999991
11
69.1137080000000026
21
-40.7680099999999968
0
LINE
8
F.Cu
6
CONTINUOUS
10
69.1137080000000026
20
-40.7680099999999968
11
69.0281749999999903
21
-40.6400000000000006
0
LINE
8
F.Cu
6
CONTINUOUS
10
69.0281749999999903
20
-40.6400000000000006
11
67.0708750000000009
21
-40.6400000000000006
0
LINE
8
F.Cu
6
CONTINUOUS
10
67.0708750000000009
20
-40.6400000000000006
11
66.9924999999999926
21
-40.6400000000000006
0
LINE
8
F.Cu
6
CONTINUOUS
10
66.9924999999999926
20
-40.6400000000000006
11
66.9924999999999926
21
-39.6875
0
LINE
8
F.Cu
6
CONTINUOUS
10
66.9924999999999926
20
-39.6875
11
68.2625000000000028
21
-39.6875
0
LINE
8
F.Cu
6
CONTINUOUS
10
68.2625000000000028
20
-39.6875
11
69.0281749999999903
21
-39.6875
0
LINE
8
F.Cu
6
CONTINUOUS
10
69.0281749999999903
20
-39.6875
11
69.1137080000000026
21
-39.5594899999999967
0
LINE
8
F.Cu
6
CONTINUOUS
10
69.1137080000000026
20
-39.5594899999999967
11
69.2457399999999978
21
-39.4274580000000014
0
LINE
8
F.Cu
6
CONTINUOUS
10
69.2457399999999978
20
-39.4274580000000014
11
69.4009949999999947
21
-39.3237200000000016
0
LINE
8
F.Cu
6
CONTINUOUS
10
69.4009949999999947
20
-39.3237200000000016
11
69.5735039999999998
21
-39.2522639999999967
0
LINE
8
F.Cu
6
CONTINUOUS
10
69.5735039999999998
20
-39.2522639999999967
11
69.7566389999999927
21
-39.2158370000000005
0
LINE
8
F.Cu
6
CONTINUOUS
10
69.7566389999999927
20
-39.2158370000000005
11
69.9433609999999959
21
-39.2158370000000005
0
LINE
8
F.Cu
6
CONTINUOUS
10
69.9433609999999959
20
-39.2158370000000005
11
70.1264960000000031
21
-39.2522639999999967
0
LINE
8
F.Cu
6
CONTINUOUS
10
68.2345030000000037
20
-31.6095860000000002
11
68.2613089999999971
21
-31.656015
0
LINE
8
F.Cu
6
CONTINUOUS
10
68.2613089999999971
20
-31.656015
11
68.2625000000000028
21
-31.6696249999999999
0
LINE
8
F.Cu
6
CONTINUOUS
10
68.2625000000000028
20
-31.6696249999999999
11
68.2625000000000028
21
-35.8774999999999977
0
LINE
8
F.Cu
6
CONTINUOUS
10
68.2625000000000028
20
-35.8774999999999977
11
68.2625000000000028
21
-36.8299999999999983
0
LINE
8
F.Cu
6
CONTINUOUS
10
68.2625000000000028
20
-36.8299999999999983
11
66.9924999999999926
21
-36.8299999999999983
0
LINE
8
F.Cu
6
CONTINUOUS
10
66.9924999999999926
20
-36.8299999999999983
11
66.3575000000000017
21
-36.8299999999999983
0
LINE
8
F.Cu
6
CONTINUOUS
10
66.3575000000000017
20
-36.8299999999999983
11
65.0874999999999915
21
-36.8299999999999983
0
LINE
8
F.Cu
6
CONTINUOUS
10
65.0874999999999915
20
-36.8299999999999983
11
63.2608749999999986
21
-36.8299999999999983
0
LINE
8
F.Cu
6
CONTINUOUS
10
63.2608749999999986
20
-36.8299999999999983
11
63.1824999999999974
21
-36.8299999999999983
0
LINE
8
F.Cu
6
CONTINUOUS
10
63.1824999999999974
20
-36.8299999999999983
11
63.1824999999999974
21
-35.8774999999999977
0
LINE
8
F.Cu
6
CONTINUOUS
10
63.1824999999999974
20
-35.8774999999999977
11
64.4525000000000006
21
-35.8774999999999977
0
LINE
8
F.Cu
6
CONTINUOUS
10
64.4525000000000006
20
-35.8774999999999977
11
66.3575000000000017
21
-35.8774999999999977
0
LINE
8
F.Cu
6
CONTINUOUS
10
66.3575000000000017
20
-35.8774999999999977
11
66.3575000000000017
21
-31.6696249999999999
0
LINE
8
F.Cu
6
CONTINUOUS
10
66.3575000000000017
20
-31.6696249999999999
11
66.3758359999999925
21
-31.6192469999999979
0
LINE
8
F.Cu
6
CONTINUOUS
10
66.3758359999999925
20
-31.6192469999999979
11
66.4222649999999959
21
-31.5924409999999973
0
LINE
8
F.Cu
6
CONTINUOUS
10
66.4222649999999959
20
-31.5924409999999973
11
66.4358749999999958
21
-31.5912499999999987
0
LINE
8
F.Cu
6
CONTINUOUS
10
66.4358749999999958
20
-31.5912499999999987
11
68.1841249999999945
21
-31.5912499999999987
0
LINE
8
F.Cu
6
CONTINUOUS
10
68.1841249999999945
20
-31.5912499999999987
11
68.2345030000000037
21
-31.6095860000000002
0
LINE
8
F.Cu
6
CONTINUOUS
10
87.7258719999999954
20
-23.6584749999999993
11
87.7364570000000015
21
-23.6623279999999987
0
LINE
8
F.Cu
6
CONTINUOUS
10
87.7364570000000015
20
-23.6623279999999987
11
87.7470419999999933
21
-23.6712089999999975
0
LINE
8
F.Cu
6
CONTINUOUS
10
87.7470419999999933
20
-23.6712089999999975
11
87.7600279999999913
21
-23.6759349999999991
0
LINE
8
F.Cu
6
CONTINUOUS
10
87.7600279999999913
20
-23.6759349999999991
11
87.7775259999999946
21
-23.6967859999999995
0
LINE
8
F.Cu
6
CONTINUOUS
10
87.7775259999999946
20
-23.6967859999999995
11
87.7807589999999891
21
-23.7023849999999996
0
LINE
8
F.Cu
6
CONTINUOUS
10
87.7807589999999891
20
-23.7023849999999996
11
87.7912609999999916
21
-23.7415819999999975
0
LINE
8
F.Cu
6
CONTINUOUS
10
87.7912609999999916
20
-23.7415819999999975
11
87.7900080000000003
21
-39.2300849999999954
0
LINE
8
F.Cu
6
CONTINUOUS
10
87.7900080000000003
20
-39.2300849999999954
11
87.7884359999999901
21
-58.645311999999997
0
LINE
8
F.Cu
6
CONTINUOUS
10
87.7884359999999901
20
-58.645311999999997
11
87.7837059999999951
21
-58.6721199999999996
0
LINE
8
F.Cu
6
CONTINUOUS
10
87.7837059999999951
20
-58.6721199999999996
11
87.7798519999999911
21
-58.6827049999999986
0
LINE
8
F.Cu
6
CONTINUOUS
10
87.7798519999999911
20
-58.6827049999999986
11
87.7709699999999913
21
-58.693289
0
LINE
8
F.Cu
6
CONTINUOUS
10
87.7709699999999913
20
-58.693289
11
87.7662469999999928
21
-58.7062669999999969
0
LINE
8
F.Cu
6
CONTINUOUS
10
87.7662469999999928
20
-58.7062669999999969
11
87.745396999999997
21
-58.7237639999999956
0
LINE
8
F.Cu
6
CONTINUOUS
10
87.745396999999997
20
-58.7237639999999956
11
87.7426399999999944
21
-58.7253550000000004
0
LINE
8
F.Cu
6
CONTINUOUS
10
87.7426399999999944
20
-58.7253550000000004
11
87.7397939999999892
21
-58.7269979999999947
0
LINE
8
F.Cu
6
CONTINUOUS
10
87.7397939999999892
20
-58.7269979999999947
11
87.7006059999999934
21
-58.7374999999999972
0
LINE
8
F.Cu
6
CONTINUOUS
10
87.7006059999999934
20
-58.7374999999999972
11
56.1309439999999995
21
-58.7374999999999972
0
LINE
8
F.Cu
6
CONTINUOUS
10
56.1309439999999995
20
-58.7374999999999972
11
56.1041389999999964
21
-58.7327729999999946
0
LINE
8
F.Cu
6
CONTINUOUS
10
56.1041389999999964
20
-58.7327729999999946
11
56.0935500000000005
21
-58.7289189999999977
0
LINE
8
F.Cu
6
CONTINUOUS
10
56.0935500000000005
20
-58.7289189999999977
11
56.0524829999999952
21
-58.6944569999999999
0
LINE
8
F.Cu
6
CONTINUOUS
10
56.0524829999999952
20
-58.6944569999999999
11
56.0492489999999961
21
-58.6888549999999967
0
LINE
8
F.Cu
6
CONTINUOUS
10
56.0492489999999961
20
-58.6888549999999967
11
56.0387500000000003
21
-58.6496700000000004
0
LINE
8
F.Cu
6
CONTINUOUS
10
56.0387500000000003
20
-58.6496700000000004
11
56.0387500000000003
21
-42.8624999999999972
0
LINE
8
F.Cu
6
CONTINUOUS
10
56.0387500000000003
20
-42.8624999999999972
11
56.0387500000000003
21
-23.7459430000000005
0
LINE
8
F.Cu
6
CONTINUOUS
10
56.0387500000000003
20
-23.7459430000000005
11
56.0434759999999983
21
-23.7191389999999984
0
LINE
8
F.Cu
6
CONTINUOUS
10
56.0434759999999983
20
-23.7191389999999984
11
56.0473289999999977
21
-23.7085529999999984
0
LINE
8
F.Cu
6
CONTINUOUS
10
56.0473289999999977
20
-23.7085529999999984
11
56.081787999999996
21
-23.6674849999999992
0
LINE
8
F.Cu
6
CONTINUOUS
10
56.081787999999996
20
-23.6674849999999992
11
56.0817920000000001
21
-23.6674829999999972
0
LINE
8
F.Cu
6
CONTINUOUS
10
56.0817920000000001
20
-23.6674829999999972
11
56.0873939999999962
21
-23.6642489999999981
0
LINE
8
F.Cu
6
CONTINUOUS
10
56.0873939999999962
20
-23.6642489999999981
11
56.1265789999999996
21
-23.6537499999999987
0
LINE
8
F.Cu
6
CONTINUOUS
10
56.1265789999999996
20
-23.6537499999999987
11
87.6990689999999944
21
-23.6537499999999987
0
LINE
8
F.Cu
6
CONTINUOUS
10
87.6990689999999944
20
-23.6537499999999987
11
87.7258719999999954
21
-23.6584749999999993
0
LINE
8
F.Cu
6
CONTINUOUS
10
68.3196569999999923
20
-50.9856249999999989
11
68.1532299999999935
21
-51.0397029999999958
0
LINE
8
F.Cu
6
CONTINUOUS
10
68.1532299999999935
20
-51.0397029999999958
11
68.0675499999999971
21
-51.0833589999999944
0
LINE
8
F.Cu
6
CONTINUOUS
10
68.0675499999999971
20
-51.0833589999999944
11
67.9973169999999953
21
-51.1191449999999961
0
LINE
8
F.Cu
6
CONTINUOUS
10
67.9973169999999953
20
-51.1191449999999961
11
67.9973129999999912
21
-51.1191469999999981
0
LINE
8
F.Cu
6
CONTINUOUS
10
67.9973129999999912
20
-51.1191469999999981
11
67.9973099999999988
21
-51.1191490000000002
0
LINE
8
F.Cu
6
CONTINUOUS
10
67.9973099999999988
20
-51.1191490000000002
11
67.9973039999999997
21
-51.1191519999999997
0
LINE
8
F.Cu
6
CONTINUOUS
10
67.9973039999999997
20
-51.1191519999999997
11
67.8557559999999995
21
-51.2219920000000002
0
LINE
8
F.Cu
6
CONTINUOUS
10
67.8557559999999995
20
-51.2219920000000002
11
67.8557469999999938
21
-51.2219989999999967
0
LINE
8
F.Cu
6
CONTINUOUS
10
67.8557469999999938
20
-51.2219989999999967
11
67.8557369999999906
21
-51.2220069999999978
0
LINE
8
F.Cu
6
CONTINUOUS
10
67.8557369999999906
20
-51.2220069999999978
11
67.855716000000001
21
-51.2220269999999971
0
LINE
8
F.Cu
6
CONTINUOUS
10
67.855716000000001
20
-51.2220269999999971
11
67.7320270000000022
21
-51.3457159999999959
0
LINE
8
F.Cu
6
CONTINUOUS
10
67.7320270000000022
20
-51.3457159999999959
11
67.7320069999999959
21
-51.3457369999999997
0
LINE
8
F.Cu
6
CONTINUOUS
10
67.7320069999999959
20
-51.3457369999999997
11
67.7319990000000018
21
-51.3457469999999958
0
LINE
8
F.Cu
6
CONTINUOUS
10
67.7319990000000018
20
-51.3457469999999958
11
67.7319919999999911
21
-51.3457559999999944
0
LINE
8
F.Cu
6
CONTINUOUS
10
67.7319919999999911
20
-51.3457559999999944
11
67.6291519999999906
21
-51.4873039999999946
0
LINE
8
F.Cu
6
CONTINUOUS
10
67.6291519999999906
20
-51.4873039999999946
11
67.6291489999999982
21
-51.4873100000000008
0
LINE
8
F.Cu
6
CONTINUOUS
10
67.6291489999999982
20
-51.4873100000000008
11
67.5497029999999938
21
-51.6432299999999955
0
LINE
8
F.Cu
6
CONTINUOUS
10
67.5497029999999938
20
-51.6432299999999955
11
67.495625000000004
21
-51.8096569999999943
0
LINE
8
F.Cu
6
CONTINUOUS
10
67.495625000000004
20
-51.8096569999999943
11
67.4682499999999976
21
-51.982490999999996
0
LINE
8
F.Cu
6
CONTINUOUS
10
67.4682499999999976
20
-51.982490999999996
11
67.4682499999999976
21
-52.1131609999999981
0
LINE
8
F.Cu
6
CONTINUOUS
10
67.4682499999999976
20
-52.1131609999999981
11
67.4672779999999932
21
-52.1242659999999987
0
LINE
8
F.Cu
6
CONTINUOUS
10
67.4672779999999932
20
-52.1242659999999987
11
67.4672979999999995
21
-52.1253379999999993
0
LINE
8
F.Cu
6
CONTINUOUS
10
67.4672979999999995
20
-52.1253379999999993
11
67.4671829999999915
21
-52.1260629999999949
0
LINE
8
F.Cu
6
CONTINUOUS
10
67.4671829999999915
20
-52.1260629999999949
11
67.4632500000000022
21
-52.1483749999999944
0
LINE
8
F.Cu
6
CONTINUOUS
10
67.4632500000000022
20
-52.1483749999999944
11
67.4632500000000022
21
-52.1510759999999962
0
LINE
8
F.Cu
6
CONTINUOUS
10
67.4632500000000022
20
-52.1510759999999962
11
67.4632500000000022
21
-54.5316359999999989
0
LINE
8
F.Cu
6
CONTINUOUS
10
67.4632500000000022
20
-54.5316359999999989
11
67.4638729999999924
21
-54.5459269999999989
0
LINE
8
F.Cu
6
CONTINUOUS
10
67.4638729999999924
20
-54.5459269999999989
11
67.4650659999999931
21
-54.559554999999996
0
LINE
8
F.Cu
6
CONTINUOUS
10
67.4650659999999931
20
-54.559554999999996
11
67.4659010000000023
21
-54.5637529999999984
0
LINE
8
F.Cu
6
CONTINUOUS
10
67.4659010000000023
20
-54.5637529999999984
11
67.4654960000000017
21
-54.5638329999999954
0
LINE
8
F.Cu
6
CONTINUOUS
10
67.4654960000000017
20
-54.5638329999999954
11
67.4682499999999976
21
-54.5817169999999976
0
LINE
8
F.Cu
6
CONTINUOUS
10
67.4682499999999976
20
-54.5817169999999976
11
67.4682499999999976
21
-54.6975069999999945
0
LINE
8
F.Cu
6
CONTINUOUS
10
67.4682499999999976
20
-54.6975069999999945
11
67.495625000000004
21
-54.8703409999999963
0
LINE
8
F.Cu
6
CONTINUOUS
10
67.495625000000004
20
-54.8703409999999963
11
67.5354109999999963
21
-54.9927849999999978
0
LINE
8
F.Cu
6
CONTINUOUS
10
67.5354109999999963
20
-54.9927849999999978
11
67.5497019999999964
21
-55.0367660000000001
0
LINE
8
F.Cu
6
CONTINUOUS
10
67.5497019999999964
20
-55.0367660000000001
11
67.6291449999999941
21
-55.1926819999999978
0
LINE
8
F.Cu
6
CONTINUOUS
10
67.6291449999999941
20
-55.1926819999999978
11
67.6291489999999982
21
-55.1926879999999969
0
LINE
8
F.Cu
6
CONTINUOUS
10
67.6291489999999982
20
-55.1926879999999969
11
67.6291519999999906
21
-55.1926939999999959
0
LINE
8
F.Cu
6
CONTINUOUS
10
67.6291519999999906
20
-55.1926939999999959
11
67.7319919999999911
21
-55.3342419999999962
0
LINE
8
F.Cu
6
CONTINUOUS
10
67.7319919999999911
20
-55.3342419999999962
11
67.7319990000000018
21
-55.3342509999999947
0
LINE
8
F.Cu
6
CONTINUOUS
10
67.7319990000000018
20
-55.3342509999999947
11
67.7320069999999959
21
-55.3342609999999979
0
LINE
8
F.Cu
6
CONTINUOUS
10
67.7320069999999959
20
-55.3342609999999979
11
67.7320270000000022
21
-55.3342819999999946
0
LINE
8
F.Cu
6
CONTINUOUS
10
67.7320270000000022
20
-55.3342819999999946
11
67.855716000000001
21
-55.4579710000000006
0
LINE
8
F.Cu
6
CONTINUOUS
10
67.855716000000001
20
-55.4579710000000006
11
67.8557369999999906
21
-55.4579909999999998
0
LINE
8
F.Cu
6
CONTINUOUS
10
67.8557369999999906
20
-55.4579909999999998
11
67.8557469999999938
21
-55.4579990000000009
0
LINE
8
F.Cu
6
CONTINUOUS
10
67.8557469999999938
20
-55.4579990000000009
11
67.8557559999999995
21
-55.4580059999999975
0
LINE
8
F.Cu
6
CONTINUOUS
10
67.8557559999999995
20
-55.4580059999999975
11
67.9972920000000016
21
-55.5608369999999994
0
LINE
8
F.Cu
6
CONTINUOUS
10
67.9972920000000016
20
-55.5608369999999994
11
67.9973140000000029
21
-55.5608529999999945
0
LINE
8
F.Cu
6
CONTINUOUS
10
67.9973140000000029
20
-55.5608529999999945
11
68.1532389999999992
21
-55.6403010000000009
0
LINE
8
F.Cu
6
CONTINUOUS
10
68.1532389999999992
20
-55.6403010000000009
11
68.2820140000000038
21
-55.6821409999999943
0
LINE
8
F.Cu
6
CONTINUOUS
10
68.2820140000000038
20
-55.6821409999999943
11
68.2820169999999962
21
-55.6821419999999989
0
LINE
8
F.Cu
6
CONTINUOUS
10
68.2820169999999962
20
-55.6821419999999989
11
68.3063449999999932
21
-55.6900469999999999
0
LINE
8
F.Cu
6
CONTINUOUS
10
68.3063449999999932
20
-55.6900469999999999
11
68.3194519999999983
21
-55.6943059999999974
0
LINE
8
F.Cu
6
CONTINUOUS
10
68.3194519999999983
20
-55.6943059999999974
11
68.3196590000000015
21
-55.6943739999999963
0
LINE
8
F.Cu
6
CONTINUOUS
10
68.3196590000000015
20
-55.6943739999999963
11
68.3196640000000031
21
-55.6943739999999963
0
LINE
8
F.Cu
6
CONTINUOUS
10
68.3196640000000031
20
-55.6943739999999963
11
68.3196650000000005
21
-55.6943750000000009
0
LINE
8
F.Cu
6
CONTINUOUS
10
68.3196650000000005
20
-55.6943750000000009
11
68.4925029999999992
21
-55.7217500000000001
0
LINE
8
F.Cu
6
CONTINUOUS
10
68.4925029999999992
20
-55.7217500000000001
11
68.4925059999999917
21
-55.7217500000000001
0
LINE
8
F.Cu
6
CONTINUOUS
10
68.4925059999999917
20
-55.7217500000000001
11
68.6674939999999907
21
-55.7217500000000001
0
LINE
8
F.Cu
6
CONTINUOUS
10
68.6674939999999907
20
-55.7217500000000001
11
68.6674969999999973
21
-55.7217500000000001
0
LINE
8
F.Cu
6
CONTINUOUS
10
68.6674969999999973
20
-55.7217500000000001
11
68.8403349999999961
21
-55.6943750000000009
0
LINE
8
F.Cu
6
CONTINUOUS
10
68.8403349999999961
20
-55.6943750000000009
11
69.0067639999999898
21
-55.6402989999999988
0
LINE
8
F.Cu
6
CONTINUOUS
10
69.0067639999999898
20
-55.6402989999999988
11
69.1626839999999987
21
-55.5608539999999991
0
LINE
8
F.Cu
6
CONTINUOUS
10
69.1626839999999987
20
-55.5608539999999991
11
69.3042569999999927
21
-55.4579959999999943
0
LINE
8
F.Cu
6
CONTINUOUS
10
69.3042569999999927
20
-55.4579959999999943
11
69.4279959999999932
21
-55.3342570000000009
0
LINE
8
F.Cu
6
CONTINUOUS
10
69.4279959999999932
20
-55.3342570000000009
11
69.5308539999999908
21
-55.1926839999999999
0
LINE
8
F.Cu
6
CONTINUOUS
10
69.5308539999999908
20
-55.1926839999999999
11
69.6102989999999977
21
-55.036763999999998
0
LINE
8
F.Cu
6
CONTINUOUS
10
69.6102989999999977
20
-55.036763999999998
11
69.6643749999999926
21
-54.8703349999999972
0
LINE
8
F.Cu
6
CONTINUOUS
10
69.6643749999999926
20
-54.8703349999999972
11
69.691749999999999
21
-54.6974969999999985
0
LINE
8
F.Cu
6
CONTINUOUS
10
69.691749999999999
20
-54.6974969999999985
11
69.691749999999999
21
-54.5668369999999996
0
LINE
8
F.Cu
6
CONTINUOUS
10
69.691749999999999
20
-54.5668369999999996
11
69.6929409999999905
21
-54.5532249999999976
0
LINE
8
F.Cu
6
CONTINUOUS
10
69.6929409999999905
20
-54.5532249999999976
11
69.6967499999999944
21
-54.5316259999999957
0
LINE
8
F.Cu
6
CONTINUOUS
10
69.6967499999999944
20
-54.5316259999999957
11
69.6967499999999944
21
-52.1483629999999962
0
LINE
8
F.Cu
6
CONTINUOUS
10
69.6967499999999944
20
-52.1483629999999962
11
69.6961259999999925
21
-52.1340719999999962
0
LINE
8
F.Cu
6
CONTINUOUS
10
69.6961259999999925
20
-52.1340719999999962
11
69.696124999999995
21
-52.1340560000000011
0
LINE
8
F.Cu
6
CONTINUOUS
10
69.696124999999995
20
-52.1340560000000011
11
69.6949340000000035
21
-52.1204460000000012
0
LINE
8
F.Cu
6
CONTINUOUS
10
69.6949340000000035
20
-52.1204460000000012
11
69.6949319999999943
21
-52.120439999999995
0
LINE
8
F.Cu
6
CONTINUOUS
10
69.6949319999999943
20
-52.120439999999995
11
69.6940999999999917
21
-52.1162530000000004
0
LINE
8
F.Cu
6
CONTINUOUS
10
69.6940999999999917
20
-52.1162530000000004
11
69.6945029999999974
21
-52.1161719999999988
0
LINE
8
F.Cu
6
CONTINUOUS
10
69.6945029999999974
20
-52.1161719999999988
11
69.691749999999999
21
-52.0982839999999996
0
LINE
8
F.Cu
6
CONTINUOUS
10
69.691749999999999
20
-52.0982839999999996
11
69.691749999999999
21
-51.9825060000000008
0
LINE
8
F.Cu
6
CONTINUOUS
10
69.691749999999999
20
-51.9825060000000008
11
69.6917490000000015
21
-51.9824969999999951
0
LINE
8
F.Cu
6
CONTINUOUS
10
69.6917490000000015
20
-51.9824969999999951
11
69.6643739999999951
21
-51.8096609999999984
0
LINE
8
F.Cu
6
CONTINUOUS
10
69.6643739999999951
20
-51.8096609999999984
11
69.6521419999999978
21
-51.7720169999999982
0
LINE
8
F.Cu
6
CONTINUOUS
10
69.6521419999999978
20
-51.7720169999999982
11
69.6102989999999977
21
-51.6432359999999946
0
LINE
8
F.Cu
6
CONTINUOUS
10
69.6102989999999977
20
-51.6432359999999946
11
69.5308539999999908
21
-51.4873159999999999
0
LINE
8
F.Cu
6
CONTINUOUS
10
69.5308539999999908
20
-51.4873159999999999
11
69.4279959999999932
21
-51.3457429999999988
0
LINE
8
F.Cu
6
CONTINUOUS
10
69.4279959999999932
20
-51.3457429999999988
11
69.4279939999999982
21
-51.3457409999999967
0
LINE
8
F.Cu
6
CONTINUOUS
10
69.4279939999999982
20
-51.3457409999999967
11
69.4279889999999966
21
-51.3457349999999977
0
LINE
8
F.Cu
6
CONTINUOUS
10
69.4279889999999966
20
-51.3457349999999977
11
69.42798599999999
21
-51.3457319999999982
0
LINE
8
F.Cu
6
CONTINUOUS
10
69.42798599999999
20
-51.3457319999999982
11
69.4279820000000001
21
-51.3457269999999966
0
LINE
8
F.Cu
6
CONTINUOUS
10
69.4279820000000001
20
-51.3457269999999966
11
69.3042820000000006
21
-51.2220269999999971
0
LINE
8
F.Cu
6
CONTINUOUS
10
69.3042820000000006
20
-51.2220269999999971
11
69.3042609999999968
21
-51.2220069999999978
0
LINE
8
F.Cu
6
CONTINUOUS
10
69.3042609999999968
20
-51.2220069999999978
11
69.3042509999999936
21
-51.2219989999999967
0
LINE
8
F.Cu
6
CONTINUOUS
10
69.3042509999999936
20
-51.2219989999999967
11
69.3042420000000021
21
-51.2219920000000002
0
LINE
8
F.Cu
6
CONTINUOUS
10
69.3042420000000021
20
-51.2219920000000002
11
69.1626940000000019
21
-51.1191519999999997
0
LINE
8
F.Cu
6
CONTINUOUS
10
69.1626940000000019
20
-51.1191519999999997
11
69.1626880000000028
21
-51.1191490000000002
0
LINE
8
F.Cu
6
CONTINUOUS
10
69.1626880000000028
20
-51.1191490000000002
11
69.1626820000000038
21
-51.1191449999999961
0
LINE
8
F.Cu
6
CONTINUOUS
10
69.1626820000000038
20
-51.1191449999999961
11
69.0067659999999989
21
-51.0397019999999983
0
LINE
8
F.Cu
6
CONTINUOUS
10
69.0067659999999989
20
-51.0397019999999983
11
69.0067650000000015
21
-51.0397010000000009
0
LINE
8
F.Cu
6
CONTINUOUS
10
69.0067650000000015
20
-51.0397010000000009
11
69.0067639999999898
21
-51.0397010000000009
0
LINE
8
F.Cu
6
CONTINUOUS
10
69.0067639999999898
20
-51.0397010000000009
11
68.9920359999999988
21
-51.034914999999998
0
LINE
8
F.Cu
6
CONTINUOUS
10
68.9920359999999988
20
-51.034914999999998
11
68.9920319999999947
21
-51.0349140000000006
0
LINE
8
F.Cu
6
CONTINUOUS
10
68.9920319999999947
20
-51.0349140000000006
11
68.9627799999999951
21
-51.0254100000000008
0
LINE
8
F.Cu
6
CONTINUOUS
10
68.9627799999999951
20
-51.0254100000000008
11
68.9627789999999976
21
-51.0254089999999962
0
LINE
8
F.Cu
6
CONTINUOUS
10
68.9627789999999976
20
-51.0254089999999962
11
68.8801220000000001
21
-50.9985509999999991
0
LINE
8
F.Cu
6
CONTINUOUS
10
68.8801220000000001
20
-50.9985509999999991
11
68.8403380000000027
21
-50.9856249999999989
0
LINE
8
F.Cu
6
CONTINUOUS
10
68.8403380000000027
20
-50.9856249999999989
11
68.8115319999999997
21
-50.9810619999999943
0
LINE
8
F.Cu
6
CONTINUOUS
10
68.8115319999999997
20
-50.9810619999999943
11
68.6675070000000005
21
-50.9582499999999996
0
LINE
8
F.Cu
6
CONTINUOUS
10
68.6675070000000005
20
-50.9582499999999996
11
68.6675019999999989
21
-50.9582499999999996
0
LINE
8
F.Cu
6
CONTINUOUS
10
68.6675019999999989
20
-50.9582499999999996
11
68.6674969999999973
21
-50.9582499999999996
0
LINE
8
F.Cu
6
CONTINUOUS
10
68.6674969999999973
20
-50.9582499999999996
11
68.4925029999999992
21
-50.9582499999999996
0
LINE
8
F.Cu
6
CONTINUOUS
10
68.4925029999999992
20
-50.9582499999999996
11
68.4924970000000002
21
-50.9582499999999996
0
LINE
8
F.Cu
6
CONTINUOUS
10
68.4924970000000002
20
-50.9582499999999996
11
68.4924910000000011
21
-50.9582499999999996
0
LINE
8
F.Cu
6
CONTINUOUS
10
68.4924910000000011
20
-50.9582499999999996
11
68.3196569999999923
21
-50.9856249999999989
0
LINE
8
F.Cu
6
CONTINUOUS
10
59.6899999999999977
20
-44.1325000000000003
11
59.6899999999999977
21
-55.8799999999999955
0
LINE
8
F.Cu
6
CONTINUOUS
10
59.6899999999999977
20
-55.8799999999999955
11
62.2299999999999969
21
-55.8799999999999955
0
LINE
8
F.Cu
6
CONTINUOUS
10
62.2299999999999969
20
-55.8799999999999955
11
62.2299999999999969
21
-52.1483749999999944
0
LINE
8
F.Cu
6
CONTINUOUS
10
62.2299999999999969
20
-52.1483749999999944
11
62.2299999999999969
21
-48.9871929999999978
0
LINE
8
F.Cu
6
CONTINUOUS
10
62.2299999999999969
20
-48.9871929999999978
11
62.2347259999999949
21
-48.9603889999999993
0
LINE
8
F.Cu
6
CONTINUOUS
10
62.2347259999999949
20
-48.9603889999999993
11
62.2385789999999943
21
-48.9498029999999957
0
LINE
8
F.Cu
6
CONTINUOUS
10
62.2385789999999943
20
-48.9498029999999957
11
62.2730379999999997
21
-48.9087350000000001
0
LINE
8
F.Cu
6
CONTINUOUS
10
62.2730379999999997
20
-48.9087350000000001
11
62.2730419999999967
21
-48.908732999999998
0
LINE
8
F.Cu
6
CONTINUOUS
10
62.2730419999999967
20
-48.908732999999998
11
62.2786439999999999
21
-48.9054989999999989
0
LINE
8
F.Cu
6
CONTINUOUS
10
62.2786439999999999
20
-48.9054989999999989
11
62.3178289999999961
21
-48.894999999999996
0
LINE
8
F.Cu
6
CONTINUOUS
10
62.3178289999999961
20
-48.894999999999996
11
64.769999999999996
21
-48.894999999999996
0
LINE
8
F.Cu
6
CONTINUOUS
10
64.769999999999996
20
-48.894999999999996
11
64.769999999999996
21
-45.4946929999999981
0
LINE
8
F.Cu
6
CONTINUOUS
10
64.769999999999996
20
-45.4946929999999981
11
64.7747260000000011
21
-45.4678889999999996
0
LINE
8
F.Cu
6
CONTINUOUS
10
64.7747260000000011
20
-45.4678889999999996
11
64.7785789999999935
21
-45.457302999999996
0
LINE
8
F.Cu
6
CONTINUOUS
10
64.7785789999999935
20
-45.457302999999996
11
64.8130379999999917
21
-45.4162350000000004
0
LINE
8
F.Cu
6
CONTINUOUS
10
64.8130379999999917
20
-45.4162350000000004
11
64.8130419999999958
21
-45.4162329999999983
0
LINE
8
F.Cu
6
CONTINUOUS
10
64.8130419999999958
20
-45.4162329999999983
11
64.8186439999999919
21
-45.4129989999999992
0
LINE
8
F.Cu
6
CONTINUOUS
10
64.8186439999999919
20
-45.4129989999999992
11
64.8578289999999953
21
-45.4024999999999963
0
LINE
8
F.Cu
6
CONTINUOUS
10
64.8578289999999953
20
-45.4024999999999963
11
71.0278059999999982
21
-45.4024999999999963
0
LINE
8
F.Cu
6
CONTINUOUS
10
71.0278059999999982
20
-45.4024999999999963
11
71.0546089999999992
21
-45.4072249999999968
0
LINE
8
F.Cu
6
CONTINUOUS
10
71.0546089999999992
20
-45.4072249999999968
11
71.0651939999999911
21
-45.4110779999999963
0
LINE
8
F.Cu
6
CONTINUOUS
10
71.0651939999999911
20
-45.4110779999999963
11
71.0757799999999946
21
-45.4199589999999986
0
LINE
8
F.Cu
6
CONTINUOUS
10
71.0757799999999946
20
-45.4199589999999986
11
71.0887630000000001
21
-45.4246839999999992
0
LINE
8
F.Cu
6
CONTINUOUS
10
71.0887630000000001
20
-45.4246839999999992
11
71.1062610000000035
21
-45.4455329999999975
0
LINE
8
F.Cu
6
CONTINUOUS
10
71.1062610000000035
20
-45.4455329999999975
11
71.1094959999999929
21
-45.4511350000000007
0
LINE
8
F.Cu
6
CONTINUOUS
10
71.1094959999999929
20
-45.4511350000000007
11
71.1199999999999903
21
-45.4903289999999956
0
LINE
8
F.Cu
6
CONTINUOUS
10
71.1199999999999903
20
-45.4903289999999956
11
71.1199999999999903
21
-48.8875389999999967
0
LINE
8
F.Cu
6
CONTINUOUS
10
71.1199999999999903
20
-48.8875389999999967
11
71.1199989999999929
21
-48.8921479999999988
0
LINE
8
F.Cu
6
CONTINUOUS
10
71.1199989999999929
20
-48.8921479999999988
11
71.1199999999999903
21
-48.8921479999999988
0
LINE
8
F.Cu
6
CONTINUOUS
10
71.1199999999999903
20
-48.8921479999999988
11
71.1199999999999903
21
-48.8921489999999963
0
LINE
8
F.Cu
6
CONTINUOUS
10
71.1199999999999903
20
-48.8921489999999963
11
71.1199989999999929
21
-48.8921489999999963
0
LINE
8
F.Cu
6
CONTINUOUS
10
71.1199989999999929
20
-48.8921489999999963
11
71.1267289999999974
21
-48.8921509999999984
0
LINE
8
F.Cu
6
CONTINUOUS
10
71.1267289999999974
20
-48.8921509999999984
11
71.1267299999999949
21
-48.8921519999999958
0
LINE
8
F.Cu
6
CONTINUOUS
10
71.1267299999999949
20
-48.8921519999999958
11
71.1267309999999924
21
-48.8921519999999958
0
LINE
8
F.Cu
6
CONTINUOUS
10
71.1267309999999924
20
-48.8921519999999958
11
84.613749999999996
21
-48.8988809999999958
0
LINE
8
F.Cu
6
CONTINUOUS
10
84.613749999999996
20
-48.8988809999999958
11
84.613749999999996
21
-48.8988799999999983
0
LINE
8
F.Cu
6
CONTINUOUS
10
84.613749999999996
20
-48.8988799999999983
11
84.613749999999996
21
-47.883663999999996
0
LINE
8
F.Cu
6
CONTINUOUS
10
84.613749999999996
20
-47.883663999999996
11
84.6137569999999926
21
-47.882639999999995
0
LINE
8
F.Cu
6
CONTINUOUS
10
84.6137569999999926
20
-47.882639999999995
11
84.6137899999999945
21
-47.8800600000000003
0
LINE
8
F.Cu
6
CONTINUOUS
10
84.6137899999999945
20
-47.8800600000000003
11
84.6142419999999902
21
-47.8743429999999961
0
LINE
8
F.Cu
6
CONTINUOUS
10
84.6142419999999902
20
-47.8743429999999961
11
84.6140079999999983
21
-47.8743249999999989
0
LINE
8
F.Cu
6
CONTINUOUS
10
84.6140079999999983
20
-47.8743249999999989
11
84.6142499999999984
21
-47.8712469999999968
0
LINE
8
F.Cu
6
CONTINUOUS
10
84.6142499999999984
20
-47.8712469999999968
11
84.6142499999999984
21
-47.721978
0
LINE
8
F.Cu
6
CONTINUOUS
10
84.6142499999999984
20
-47.721978
11
84.6160919999999948
21
-47.7169159999999977
0
LINE
8
F.Cu
6
CONTINUOUS
10
84.6160919999999948
20
-47.7169159999999977
11
84.613987999999992
21
-47.6899719999999974
0
LINE
8
F.Cu
6
CONTINUOUS
10
84.613987999999992
20
-47.6899719999999974
11
84.613749999999996
21
-47.6838699999999989
0
LINE
8
F.Cu
6
CONTINUOUS
10
84.613749999999996
20
-47.6838699999999989
11
84.613749999999996
21
-46.6724999999999994
0
LINE
8
F.Cu
6
CONTINUOUS
10
84.613749999999996
20
-46.6724999999999994
11
83.602415999999991
21
-46.6724999999999994
0
LINE
8
F.Cu
6
CONTINUOUS
10
83.602415999999991
20
-46.6724999999999994
11
83.6013919999999899
21
-46.6724929999999958
0
LINE
8
F.Cu
6
CONTINUOUS
10
83.6013919999999899
20
-46.6724929999999958
11
83.5988069999999936
21
-46.6724589999999964
0
LINE
8
F.Cu
6
CONTINUOUS
10
83.5988069999999936
20
-46.6724589999999964
11
83.5930879999999945
21
-46.6720070000000007
0
LINE
8
F.Cu
6
CONTINUOUS
10
83.5930879999999945
20
-46.6720070000000007
11
83.5930699999999973
21
-46.6722419999999971
0
LINE
8
F.Cu
6
CONTINUOUS
10
83.5930699999999973
20
-46.6722419999999971
11
83.5899989999999917
21
-46.671999999999997
0
LINE
8
F.Cu
6
CONTINUOUS
10
83.5899989999999917
20
-46.671999999999997
11
83.5899969999999968
21
-46.671999999999997
0
LINE
8
F.Cu
6
CONTINUOUS
10
83.5899969999999968
20
-46.671999999999997
11
83.5636559999999946
21
-46.671999999999997
0
LINE
8
F.Cu
6
CONTINUOUS
10
83.5636559999999946
20
-46.671999999999997
11
83.4407609999999949
21
-46.671999999999997
0
LINE
8
F.Cu
6
CONTINUOUS
10
83.4407609999999949
20
-46.671999999999997
11
83.4356269999999967
21
-46.6701309999999978
0
LINE
8
F.Cu
6
CONTINUOUS
10
83.4356269999999967
20
-46.6701309999999978
11
83.4119109999999893
21
-46.6720070000000007
0
LINE
8
F.Cu
6
CONTINUOUS
10
83.4119109999999893
20
-46.6720070000000007
11
83.4087609999999984
21
-46.6722559999999973
0
LINE
8
F.Cu
6
CONTINUOUS
10
83.4087609999999984
20
-46.6722559999999973
11
83.4025839999999903
21
-46.6724999999999994
0
LINE
8
F.Cu
6
CONTINUOUS
10
83.4025839999999903
20
-46.6724999999999994
11
81.3721939999999933
21
-46.6724999999999994
0
LINE
8
F.Cu
6
CONTINUOUS
10
81.3721939999999933
20
-46.6724999999999994
11
81.3721919999999983
21
-46.6724989999999949
0
LINE
8
F.Cu
6
CONTINUOUS
10
81.3721919999999983
20
-46.6724989999999949
11
81.3721919999999983
21
-46.6724999999999994
0
LINE
8
F.Cu
6
CONTINUOUS
10
81.3721919999999983
20
-46.6724999999999994
11
81.3453889999999973
21
-46.6677729999999968
0
LINE
8
F.Cu
6
CONTINUOUS
10
81.3453889999999973
20
-46.6677729999999968
11
81.3348000000000013
21
-46.6639189999999999
0
LINE
8
F.Cu
6
CONTINUOUS
10
81.3348000000000013
20
-46.6639189999999999
11
81.2937330000000031
21
-46.629456999999995
0
LINE
8
F.Cu
6
CONTINUOUS
10
81.2937330000000031
20
-46.629456999999995
11
81.290498999999997
21
-46.6238549999999989
0
LINE
8
F.Cu
6
CONTINUOUS
10
81.290498999999997
20
-46.6238549999999989
11
81.2800000000000011
21
-46.5846699999999956
0
LINE
8
F.Cu
6
CONTINUOUS
10
81.2800000000000011
20
-46.5846699999999956
11
81.2800000000000011
21
-45.4946929999999981
0
LINE
8
F.Cu
6
CONTINUOUS
10
81.2800000000000011
20
-45.4946929999999981
11
81.284725999999992
21
-45.4678889999999996
0
LINE
8
F.Cu
6
CONTINUOUS
10
81.284725999999992
20
-45.4678889999999996
11
81.2885789999999986
21
-45.457302999999996
0
LINE
8
F.Cu
6
CONTINUOUS
10
81.2885789999999986
20
-45.457302999999996
11
81.2974609999999984
21
-45.4467169999999996
0
LINE
8
F.Cu
6
CONTINUOUS
10
81.2974609999999984
20
-45.4467169999999996
11
81.302189999999996
21
-45.433727999999995
0
LINE
8
F.Cu
6
CONTINUOUS
10
81.302189999999996
20
-45.433727999999995
11
81.3230339999999927
21
-45.4162389999999974
0
LINE
8
F.Cu
6
CONTINUOUS
10
81.3230339999999927
20
-45.4162389999999974
11
81.3230379999999968
21
-45.4162350000000004
0
LINE
8
F.Cu
6
CONTINUOUS
10
81.3230379999999968
20
-45.4162350000000004
11
81.3230420000000009
21
-45.4162329999999983
0
LINE
8
F.Cu
6
CONTINUOUS
10
81.3230420000000009
20
-45.4162329999999983
11
81.328643999999997
21
-45.4129989999999992
0
LINE
8
F.Cu
6
CONTINUOUS
10
81.328643999999997
20
-45.4129989999999992
11
81.3678290000000004
21
-45.4024999999999963
0
LINE
8
F.Cu
6
CONTINUOUS
10
81.3678290000000004
20
-45.4024999999999963
11
83.5024999999999977
21
-45.4024999999999963
0
LINE
8
F.Cu
6
CONTINUOUS
10
83.5024999999999977
20
-45.4024999999999963
11
83.5024999999999977
21
-30.4799999999999969
0
LINE
8
F.Cu
6
CONTINUOUS
10
83.5024999999999977
20
-30.4799999999999969
11
79.2162500000000023
21
-30.4799999999999969
0
LINE
8
F.Cu
6
CONTINUOUS
10
79.2162500000000023
20
-30.4799999999999969
11
79.2162500000000023
21
-41.5003059999999948
0
LINE
8
F.Cu
6
CONTINUOUS
10
79.2162500000000023
20
-41.5003059999999948
11
79.2162489999999906
21
-41.5003090000000014
0
LINE
8
F.Cu
6
CONTINUOUS
10
79.2162489999999906
20
-41.5003090000000014
11
79.2162500000000023
21
-41.5003109999999964
0
LINE
8
F.Cu
6
CONTINUOUS
10
79.2162500000000023
20
-41.5003109999999964
11
79.2115220000000022
21
-41.5271139999999974
0
LINE
8
F.Cu
6
CONTINUOUS
10
79.2115220000000022
20
-41.5271139999999974
11
79.2099290000000025
21
-41.531489999999998
0
LINE
8
F.Cu
6
CONTINUOUS
10
79.2099290000000025
20
-41.531489999999998
11
79.2076689999999957
21
-41.537700000000001
0
LINE
8
F.Cu
6
CONTINUOUS
10
79.2076689999999957
20
-41.537700000000001
11
79.1732209999999981
21
-41.5787580000000005
0
LINE
8
F.Cu
6
CONTINUOUS
10
79.1732209999999981
20
-41.5787580000000005
11
79.1676199999999994
21
-41.5819929999999971
0
LINE
8
F.Cu
6
CONTINUOUS
10
79.1676199999999994
20
-41.5819929999999971
11
79.128421000000003
21
-41.5925000000000011
0
LINE
8
F.Cu
6
CONTINUOUS
10
79.128421000000003
20
-41.5925000000000011
11
75.1809439999999967
21
-41.5925000000000011
0
LINE
8
F.Cu
6
CONTINUOUS
10
75.1809439999999967
20
-41.5925000000000011
11
75.1541390000000007
21
-41.5877729999999985
0
LINE
8
F.Cu
6
CONTINUOUS
10
75.1541390000000007
20
-41.5877729999999985
11
75.1435499999999905
21
-41.5839190000000016
0
LINE
8
F.Cu
6
CONTINUOUS
10
75.1435499999999905
20
-41.5839190000000016
11
75.1329640000000012
21
-41.5750359999999972
0
LINE
8
F.Cu
6
CONTINUOUS
10
75.1329640000000012
20
-41.5750359999999972
11
75.1199780000000032
21
-41.5703089999999946
0
LINE
8
F.Cu
6
CONTINUOUS
10
75.1199780000000032
20
-41.5703089999999946
11
75.1024829999999923
21
-41.5494569999999968
0
LINE
8
F.Cu
6
CONTINUOUS
10
75.1024829999999923
20
-41.5494569999999968
11
75.0992490000000004
21
-41.5438550000000006
0
LINE
8
F.Cu
6
CONTINUOUS
10
75.0992490000000004
20
-41.5438550000000006
11
75.0887499999999903
21
-41.5046699999999973
0
LINE
8
F.Cu
6
CONTINUOUS
10
75.0887499999999903
20
-41.5046699999999973
11
75.0887499999999903
21
-33.4962499999999963
0
LINE
8
F.Cu
6
CONTINUOUS
10
75.0887499999999903
20
-33.4962499999999963
11
70.9612499999999926
21
-33.4962499999999963
0
LINE
8
F.Cu
6
CONTINUOUS
10
70.9612499999999926
20
-33.4962499999999963
11
70.9612499999999926
21
-38.9603059999999957
0
LINE
8
F.Cu
6
CONTINUOUS
10
70.9612499999999926
20
-38.9603059999999957
11
70.9612489999999951
21
-38.9603089999999952
0
LINE
8
F.Cu
6
CONTINUOUS
10
70.9612489999999951
20
-38.9603089999999952
11
70.9612499999999926
21
-38.9603109999999973
0
LINE
8
F.Cu
6
CONTINUOUS
10
70.9612499999999926
20
-38.9603109999999973
11
70.9565219999999925
21
-38.9871160000000003
0
LINE
8
F.Cu
6
CONTINUOUS
10
70.9565219999999925
20
-38.9871160000000003
11
70.9526690000000002
21
-38.9976999999999947
0
LINE
8
F.Cu
6
CONTINUOUS
10
70.9526690000000002
20
-38.9976999999999947
11
70.9182210000000026
21
-39.0387580000000014
0
LINE
8
F.Cu
6
CONTINUOUS
10
70.9182210000000026
20
-39.0387580000000014
11
70.9126199999999898
21
-39.0419929999999979
0
LINE
8
F.Cu
6
CONTINUOUS
10
70.9126199999999898
20
-39.0419929999999979
11
70.8734209999999933
21
-39.0524999999999949
0
LINE
8
F.Cu
6
CONTINUOUS
10
70.8734209999999933
20
-39.0524999999999949
11
69.9499160000000018
21
-39.0524999999999949
0
LINE
8
F.Cu
6
CONTINUOUS
10
69.9499160000000018
20
-39.0524999999999949
11
69.9437369999999987
21
-39.0522559999999999
0
LINE
8
F.Cu
6
CONTINUOUS
10
69.9437369999999987
20
-39.0522559999999999
11
69.9172870000000017
21
-39.0501639999999952
0
LINE
8
F.Cu
6
CONTINUOUS
10
69.9172870000000017
20
-39.0501639999999952
11
69.9124020000000002
21
-39.0519959999999955
0
LINE
8
F.Cu
6
CONTINUOUS
10
69.9124020000000002
20
-39.0519959999999955
11
69.9116439999999955
21
-39.0519999999999996
0
LINE
8
F.Cu
6
CONTINUOUS
10
69.9116439999999955
20
-39.0519999999999996
11
69.7887529999999998
21
-39.0519999999999996
0
LINE
8
F.Cu
6
CONTINUOUS
10
69.7887529999999998
20
-39.0519999999999996
11
69.7625029999999953
21
-39.0519999999999996
0
LINE
8
F.Cu
6
CONTINUOUS
10
69.7625029999999953
20
-39.0519999999999996
11
69.7625000000000028
21
-39.0519999999999996
0
LINE
8
F.Cu
6
CONTINUOUS
10
69.7625000000000028
20
-39.0519999999999996
11
69.7594299999999947
21
-39.0522419999999997
0
LINE
8
F.Cu
6
CONTINUOUS
10
69.7594299999999947
20
-39.0522419999999997
11
69.7594110000000001
21
-39.0520069999999961
0
LINE
8
F.Cu
6
CONTINUOUS
10
69.7594110000000001
20
-39.0520069999999961
11
69.7536929999999984
21
-39.0524589999999989
0
LINE
8
F.Cu
6
CONTINUOUS
10
69.7536929999999984
20
-39.0524589999999989
11
69.7511099999999971
21
-39.0524929999999983
0
LINE
8
F.Cu
6
CONTINUOUS
10
69.7511099999999971
20
-39.0524929999999983
11
69.7510230000000035
21
-39.0524619999999985
0
LINE
8
F.Cu
6
CONTINUOUS
10
69.7510230000000035
20
-39.0524619999999985
11
69.7500840000000011
21
-39.0524999999999949
0
LINE
8
F.Cu
6
CONTINUOUS
10
69.7500840000000011
20
-39.0524999999999949
11
66.3575000000000017
21
-39.0524999999999949
0
LINE
8
F.Cu
6
CONTINUOUS
10
66.3575000000000017
20
-39.0524999999999949
11
66.3575000000000017
21
-40.6400000000000006
0
LINE
8
F.Cu
6
CONTINUOUS
10
66.3575000000000017
20
-40.6400000000000006
11
66.3575000000000017
21
-41.2749999999999986
0
LINE
8
F.Cu
6
CONTINUOUS
10
66.3575000000000017
20
-41.2749999999999986
11
69.7500900000000001
21
-41.2749999999999986
0
LINE
8
F.Cu
6
CONTINUOUS
10
69.7500900000000001
20
-41.2749999999999986
11
69.7562549999999959
21
-41.2752419999999987
0
LINE
8
F.Cu
6
CONTINUOUS
10
69.7562549999999959
20
-41.2752419999999987
11
69.7594110000000001
21
-41.2754919999999998
0
LINE
8
F.Cu
6
CONTINUOUS
10
69.7594110000000001
20
-41.2754919999999998
11
69.7621230000000025
21
-41.2757059999999996
0
LINE
8
F.Cu
6
CONTINUOUS
10
69.7621230000000025
20
-41.2757059999999996
11
69.7623509999999953
21
-41.2757329999999953
0
LINE
8
F.Cu
6
CONTINUOUS
10
69.7623509999999953
20
-41.2757329999999953
11
69.7625919999999979
21
-41.2757429999999985
0
LINE
8
F.Cu
6
CONTINUOUS
10
69.7625919999999979
20
-41.2757429999999985
11
69.7827539999999971
21
-41.2773339999999962
0
LINE
8
F.Cu
6
CONTINUOUS
10
69.7827539999999971
20
-41.2773339999999962
11
69.787674999999993
21
-41.2755019999999959
0
LINE
8
F.Cu
6
CONTINUOUS
10
69.787674999999993
20
-41.2755019999999959
11
69.7882549999999924
21
-41.275500000000001
0
LINE
8
F.Cu
6
CONTINUOUS
10
69.7882549999999924
20
-41.275500000000001
11
69.941237000000001
21
-41.275500000000001
0
LINE
8
F.Cu
6
CONTINUOUS
10
69.941237000000001
20
-41.275500000000001
11
69.9419999999999931
21
-41.2753799999999984
0
LINE
8
F.Cu
6
CONTINUOUS
10
69.9419999999999931
20
-41.2753799999999984
11
69.9434150000000017
21
-41.275267999999997
0
LINE
8
F.Cu
6
CONTINUOUS
10
69.9434150000000017
20
-41.275267999999997
11
69.9437569999999909
21
-41.2752419999999987
0
LINE
8
F.Cu
6
CONTINUOUS
10
69.9437569999999909
20
-41.2752419999999987
11
69.9499079999999935
21
-41.2749999999999986
0
LINE
8
F.Cu
6
CONTINUOUS
10
69.9499079999999935
20
-41.2749999999999986
11
70.8690560000000005
21
-41.2749999999999986
0
LINE
8
F.Cu
6
CONTINUOUS
10
70.8690560000000005
20
-41.2749999999999986
11
70.8958590000000015
21
-41.2797249999999991
0
LINE
8
F.Cu
6
CONTINUOUS
10
70.8958590000000015
20
-41.2797249999999991
11
70.9064439999999934
21
-41.2835779999999986
0
LINE
8
F.Cu
6
CONTINUOUS
10
70.9064439999999934
20
-41.2835779999999986
11
70.9475109999999916
21
-41.3180329999999998
0
LINE
8
F.Cu
6
CONTINUOUS
10
70.9475109999999916
20
-41.3180329999999998
11
70.9507459999999952
21
-41.3236349999999959
0
LINE
8
F.Cu
6
CONTINUOUS
10
70.9507459999999952
20
-41.3236349999999959
11
70.9612499999999926
21
-41.3628289999999978
0
LINE
8
F.Cu
6
CONTINUOUS
10
70.9612499999999926
20
-41.3628289999999978
11
70.9612499999999926
21
-42.7703059999999979
0
LINE
8
F.Cu
6
CONTINUOUS
10
70.9612499999999926
20
-42.7703059999999979
11
70.9565219999999925
21
-42.7971140000000005
0
LINE
8
F.Cu
6
CONTINUOUS
10
70.9565219999999925
20
-42.7971140000000005
11
70.9549289999999928
21
-42.8014900000000011
0
LINE
8
F.Cu
6
CONTINUOUS
10
70.9549289999999928
20
-42.8014900000000011
11
70.9526690000000002
21
-42.807699999999997
0
LINE
8
F.Cu
6
CONTINUOUS
10
70.9526690000000002
20
-42.807699999999997
11
70.9437879999999979
21
-42.8182839999999985
0
LINE
8
F.Cu
6
CONTINUOUS
10
70.9437879999999979
20
-42.8182839999999985
11
70.9390690000000035
21
-42.8312579999999983
0
LINE
8
F.Cu
6
CONTINUOUS
10
70.9390690000000035
20
-42.8312579999999983
11
70.9182210000000026
21
-42.8487579999999966
0
LINE
8
F.Cu
6
CONTINUOUS
10
70.9182210000000026
20
-42.8487579999999966
11
70.9126199999999898
21
-42.8519930000000002
0
LINE
8
F.Cu
6
CONTINUOUS
10
70.9126199999999898
20
-42.8519930000000002
11
70.8734209999999933
21
-42.8624999999999972
0
LINE
8
F.Cu
6
CONTINUOUS
10
70.8734209999999933
20
-42.8624999999999972
11
68.6721939999999904
21
-42.8624999999999972
0
LINE
8
F.Cu
6
CONTINUOUS
10
68.6721939999999904
20
-42.8624999999999972
11
68.6453889999999944
21
-42.8577729999999946
0
LINE
8
F.Cu
6
CONTINUOUS
10
68.6453889999999944
20
-42.8577729999999946
11
68.6347999999999985
21
-42.8539189999999977
0
LINE
8
F.Cu
6
CONTINUOUS
10
68.6347999999999985
20
-42.8539189999999977
11
68.5937330000000003
21
-42.8194569999999999
0
LINE
8
F.Cu
6
CONTINUOUS
10
68.5937330000000003
20
-42.8194569999999999
11
68.5904989999999941
21
-42.8138549999999967
0
LINE
8
F.Cu
6
CONTINUOUS
10
68.5904989999999941
20
-42.8138549999999967
11
68.5799999999999983
21
-42.7746700000000004
0
LINE
8
F.Cu
6
CONTINUOUS
10
68.5799999999999983
20
-42.7746700000000004
11
68.5799999999999983
21
-41.5925000000000011
0
LINE
8
F.Cu
6
CONTINUOUS
10
68.5799999999999983
20
-41.5925000000000011
11
64.8621940000000023
21
-41.5925000000000011
0
LINE
8
F.Cu
6
CONTINUOUS
10
64.8621940000000023
20
-41.5925000000000011
11
64.8621919999999932
21
-41.5924989999999966
0
LINE
8
F.Cu
6
CONTINUOUS
10
64.8621919999999932
20
-41.5924989999999966
11
64.8621919999999932
21
-41.5925000000000011
0
LINE
8
F.Cu
6
CONTINUOUS
10
64.8621919999999932
20
-41.5925000000000011
11
64.8353889999999922
21
-41.5877729999999985
0
LINE
8
F.Cu
6
CONTINUOUS
10
64.8353889999999922
20
-41.5877729999999985
11
64.8247999999999962
21
-41.5839190000000016
0
LINE
8
F.Cu
6
CONTINUOUS
10
64.8247999999999962
20
-41.5839190000000016
11
64.783732999999998
21
-41.5494569999999968
0
LINE
8
F.Cu
6
CONTINUOUS
10
64.783732999999998
20
-41.5494569999999968
11
64.7804989999999918
21
-41.5438550000000006
0
LINE
8
F.Cu
6
CONTINUOUS
10
64.7804989999999918
20
-41.5438550000000006
11
64.769999999999996
21
-41.5046699999999973
0
LINE
8
F.Cu
6
CONTINUOUS
10
64.769999999999996
20
-41.5046699999999973
11
64.769999999999996
21
-37.5571929999999981
0
LINE
8
F.Cu
6
CONTINUOUS
10
64.769999999999996
20
-37.5571929999999981
11
64.7747260000000011
21
-37.5303889999999996
0
LINE
8
F.Cu
6
CONTINUOUS
10
64.7747260000000011
20
-37.5303889999999996
11
64.7785789999999935
21
-37.519802999999996
0
LINE
8
F.Cu
6
CONTINUOUS
10
64.7785789999999935
20
-37.519802999999996
11
64.7874609999999933
21
-37.5092169999999996
0
LINE
8
F.Cu
6
CONTINUOUS
10
64.7874609999999933
20
-37.5092169999999996
11
64.7921899999999908
21
-37.496227999999995
0
LINE
8
F.Cu
6
CONTINUOUS
10
64.7921899999999908
20
-37.496227999999995
11
64.8130340000000018
21
-37.4787389999999974
0
LINE
8
F.Cu
6
CONTINUOUS
10
64.8130340000000018
20
-37.4787389999999974
11
64.8130379999999917
21
-37.4787350000000004
0
LINE
8
F.Cu
6
CONTINUOUS
10
64.8130379999999917
20
-37.4787350000000004
11
64.8130419999999958
21
-37.4787329999999983
0
LINE
8
F.Cu
6
CONTINUOUS
10
64.8130419999999958
20
-37.4787329999999983
11
64.8186439999999919
21
-37.4754989999999992
0
LINE
8
F.Cu
6
CONTINUOUS
10
64.8186439999999919
20
-37.4754989999999992
11
64.8578289999999953
21
-37.4649999999999963
0
LINE
8
F.Cu
6
CONTINUOUS
10
64.8578289999999953
20
-37.4649999999999963
11
68.5799999999999983
21
-37.4649999999999963
0
LINE
8
F.Cu
6
CONTINUOUS
10
68.5799999999999983
20
-37.4649999999999963
11
68.5799999999999983
21
-31.2737499999999997
0
LINE
8
F.Cu
6
CONTINUOUS
10
68.5799999999999983
20
-31.2737499999999997
11
66.039999999999992
21
-31.2737499999999997
0
LINE
8
F.Cu
6
CONTINUOUS
10
66.039999999999992
20
-31.2737499999999997
11
66.039999999999992
21
-35.4678059999999959
0
LINE
8
F.Cu
6
CONTINUOUS
10
66.039999999999992
20
-35.4678059999999959
11
66.0399989999999946
21
-35.4678089999999955
0
LINE
8
F.Cu
6
CONTINUOUS
10
66.0399989999999946
20
-35.4678089999999955
11
66.039999999999992
21
-35.4678109999999975
0
LINE
8
F.Cu
6
CONTINUOUS
10
66.039999999999992
20
-35.4678109999999975
11
66.035271999999992
21
-35.4946160000000006
0
LINE
8
F.Cu
6
CONTINUOUS
10
66.035271999999992
20
-35.4946160000000006
11
66.0314189999999996
21
-35.505199999999995
0
LINE
8
F.Cu
6
CONTINUOUS
10
66.0314189999999996
20
-35.505199999999995
11
65.9969710000000021
21
-35.5462580000000017
0
LINE
8
F.Cu
6
CONTINUOUS
10
65.9969710000000021
20
-35.5462580000000017
11
65.9913700000000034
21
-35.5494929999999982
0
LINE
8
F.Cu
6
CONTINUOUS
10
65.9913700000000034
20
-35.5494929999999982
11
65.9521709999999928
21
-35.5599999999999952
0
LINE
8
F.Cu
6
CONTINUOUS
10
65.9521709999999928
20
-35.5599999999999952
11
62.8649999999999949
21
-35.5599999999999952
0
LINE
8
F.Cu
6
CONTINUOUS
10
62.8649999999999949
20
-35.5599999999999952
11
62.8649999999999949
21
-37.3728059999999971
0
LINE
8
F.Cu
6
CONTINUOUS
10
62.8649999999999949
20
-37.3728059999999971
11
62.8649989999999974
21
-37.3728089999999966
0
LINE
8
F.Cu
6
CONTINUOUS
10
62.8649989999999974
20
-37.3728089999999966
11
62.8649999999999949
21
-37.3728109999999987
0
LINE
8
F.Cu
6
CONTINUOUS
10
62.8649999999999949
20
-37.3728109999999987
11
62.8602719999999948
21
-37.3996160000000017
0
LINE
8
F.Cu
6
CONTINUOUS
10
62.8602719999999948
20
-37.3996160000000017
11
62.8564189999999954
21
-37.4101999999999961
0
LINE
8
F.Cu
6
CONTINUOUS
10
62.8564189999999954
20
-37.4101999999999961
11
62.8219709999999978
21
-37.4512579999999957
0
LINE
8
F.Cu
6
CONTINUOUS
10
62.8219709999999978
20
-37.4512579999999957
11
62.8163699999999992
21
-37.4544929999999994
0
LINE
8
F.Cu
6
CONTINUOUS
10
62.8163699999999992
20
-37.4544929999999994
11
62.7771709999999956
21
-37.4649999999999963
0
LINE
8
F.Cu
6
CONTINUOUS
10
62.7771709999999956
20
-37.4649999999999963
11
60.9599999999999937
21
-37.4649999999999963
0
LINE
8
F.Cu
6
CONTINUOUS
10
60.9599999999999937
20
-37.4649999999999963
11
60.9599999999999937
21
-38.1000000000000014
0
LINE
8
F.Cu
6
CONTINUOUS
10
60.9599999999999937
20
-38.1000000000000014
11
60.9599999999999937
21
-39.3699999999999974
0
LINE
8
F.Cu
6
CONTINUOUS
10
60.9599999999999937
20
-39.3699999999999974
11
63.0903059999999982
21
-39.3699999999999974
0
LINE
8
F.Cu
6
CONTINUOUS
10
63.0903059999999982
20
-39.3699999999999974
11
63.1171089999999992
21
-39.374724999999998
0
LINE
8
F.Cu
6
CONTINUOUS
10
63.1171089999999992
20
-39.374724999999998
11
63.1276939999999982
21
-39.3785779999999974
0
LINE
8
F.Cu
6
CONTINUOUS
10
63.1276939999999982
20
-39.3785779999999974
11
63.1687609999999964
21
-39.4130329999999987
0
LINE
8
F.Cu
6
CONTINUOUS
10
63.1687609999999964
20
-39.4130329999999987
11
63.171996
21
-39.4186349999999948
0
LINE
8
F.Cu
6
CONTINUOUS
10
63.171996
20
-39.4186349999999948
11
63.1824999999999974
21
-39.4578289999999967
0
LINE
8
F.Cu
6
CONTINUOUS
10
63.1824999999999974
20
-39.4578289999999967
11
63.1824999999999974
21
-41.5003059999999948
0
LINE
8
F.Cu
6
CONTINUOUS
10
63.1824999999999974
20
-41.5003059999999948
11
63.1777719999999974
21
-41.5271139999999974
0
LINE
8
F.Cu
6
CONTINUOUS
10
63.1777719999999974
20
-41.5271139999999974
11
63.1761789999999976
21
-41.531489999999998
0
LINE
8
F.Cu
6
CONTINUOUS
10
63.1761789999999976
20
-41.531489999999998
11
63.1739189999999979
21
-41.537700000000001
0
LINE
8
F.Cu
6
CONTINUOUS
10
63.1739189999999979
20
-41.537700000000001
11
63.1650379999999956
21
-41.5482839999999953
0
LINE
8
F.Cu
6
CONTINUOUS
10
63.1650379999999956
20
-41.5482839999999953
11
63.1603189999999941
21
-41.5612579999999951
0
LINE
8
F.Cu
6
CONTINUOUS
10
63.1603189999999941
20
-41.5612579999999951
11
63.1394710000000003
21
-41.5787580000000005
0
LINE
8
F.Cu
6
CONTINUOUS
10
63.1394710000000003
20
-41.5787580000000005
11
63.1338699999999946
21
-41.5819929999999971
0
LINE
8
F.Cu
6
CONTINUOUS
10
63.1338699999999946
20
-41.5819929999999971
11
63.0946709999999982
21
-41.5925000000000011
0
LINE
8
F.Cu
6
CONTINUOUS
10
63.0946709999999982
20
-41.5925000000000011
11
60.9599999999999937
21
-41.5925000000000011
0
LINE
8
F.Cu
6
CONTINUOUS
10
60.9599999999999937
20
-41.5925000000000011
11
60.9599999999999937
21
-42.7703059999999979
0
LINE
8
F.Cu
6
CONTINUOUS
10
60.9599999999999937
20
-42.7703059999999979
11
60.9599989999999963
21
-42.7703089999999975
0
LINE
8
F.Cu
6
CONTINUOUS
10
60.9599989999999963
20
-42.7703089999999975
11
60.9599999999999937
21
-42.7703109999999995
0
LINE
8
F.Cu
6
CONTINUOUS
10
60.9599999999999937
20
-42.7703109999999995
11
60.9552720000000008
21
-42.7971140000000005
0
LINE
8
F.Cu
6
CONTINUOUS
10
60.9552720000000008
20
-42.7971140000000005
11
60.9536789999999939
21
-42.8014900000000011
0
LINE
8
F.Cu
6
CONTINUOUS
10
60.9536789999999939
20
-42.8014900000000011
11
60.9514189999999942
21
-42.807699999999997
0
LINE
8
F.Cu
6
CONTINUOUS
10
60.9514189999999942
20
-42.807699999999997
11
60.9169709999999966
21
-42.8487579999999966
0
LINE
8
F.Cu
6
CONTINUOUS
10
60.9169709999999966
20
-42.8487579999999966
11
60.911369999999998
21
-42.8519930000000002
0
LINE
8
F.Cu
6
CONTINUOUS
10
60.911369999999998
20
-42.8519930000000002
11
60.8721709999999945
21
-42.8624999999999972
0
LINE
8
F.Cu
6
CONTINUOUS
10
60.8721709999999945
20
-42.8624999999999972
11
59.6899999999999977
21
-42.8624999999999972
0
LINE
8
F.Cu
6
CONTINUOUS
10
59.6899999999999977
20
-42.8624999999999972
11
59.6899999999999977
21
-44.1325000000000003
0
LINE
8
F.Cu
6
CONTINUOUS
10
133.7852460000000008
20
-51.1585139999999967
11
133.9577549999999917
21
-51.2299699999999945
0
LINE
8
F.Cu
6
CONTINUOUS
10
133.9577549999999917
20
-51.2299699999999945
11
134.1130100000000027
21
-51.3337079999999943
0
LINE
8
F.Cu
6
CONTINUOUS
10
134.1130100000000027
20
-51.3337079999999943
11
134.2450419999999838
21
-51.4657399999999967
0
LINE
8
F.Cu
6
CONTINUOUS
10
134.2450419999999838
20
-51.4657399999999967
11
134.348780000000005
21
-51.6209950000000006
0
LINE
8
F.Cu
6
CONTINUOUS
10
134.348780000000005
20
-51.6209950000000006
11
134.4202359999999885
21
-51.7935039999999987
0
LINE
8
F.Cu
6
CONTINUOUS
10
134.4202359999999885
20
-51.7935039999999987
11
134.4566629999999918
21
-51.9766389999999987
0
LINE
8
F.Cu
6
CONTINUOUS
10
134.4566629999999918
20
-51.9766389999999987
11
134.4612500000000068
21
-52.0700000000000003
0
LINE
8
F.Cu
6
CONTINUOUS
10
134.4612500000000068
20
-52.0700000000000003
11
134.4612500000000068
21
-54.6099999999999994
0
LINE
8
F.Cu
6
CONTINUOUS
10
134.4612500000000068
20
-54.6099999999999994
11
134.4566629999999918
21
-54.703361000000001
0
LINE
8
F.Cu
6
CONTINUOUS
10
134.4566629999999918
20
-54.703361000000001
11
134.4202359999999885
21
-54.8864960000000011
0
LINE
8
F.Cu
6
CONTINUOUS
10
134.4202359999999885
20
-54.8864960000000011
11
134.348780000000005
21
-55.0590049999999991
0
LINE
8
F.Cu
6
CONTINUOUS
10
134.348780000000005
20
-55.0590049999999991
11
134.2450419999999838
21
-55.2142599999999959
0
LINE
8
F.Cu
6
CONTINUOUS
10
134.2450419999999838
20
-55.2142599999999959
11
134.1130100000000027
21
-55.3462919999999983
0
LINE
8
F.Cu
6
CONTINUOUS
10
134.1130100000000027
20
-55.3462919999999983
11
133.9577549999999917
21
-55.4500299999999982
0
LINE
8
F.Cu
6
CONTINUOUS
10
133.9577549999999917
20
-55.4500299999999982
11
133.7852460000000008
21
-55.5214859999999959
0
LINE
8
F.Cu
6
CONTINUOUS
10
133.7852460000000008
20
-55.5214859999999959
11
133.6021110000000078
21
-55.5579129999999992
0
LINE
8
F.Cu
6
CONTINUOUS
10
133.6021110000000078
20
-55.5579129999999992
11
133.4153890000000047
21
-55.5579129999999992
0
LINE
8
F.Cu
6
CONTINUOUS
10
133.4153890000000047
20
-55.5579129999999992
11
133.2322539999999833
21
-55.5214859999999959
0
LINE
8
F.Cu
6
CONTINUOUS
10
133.2322539999999833
20
-55.5214859999999959
11
133.0597449999999924
21
-55.4500299999999982
0
LINE
8
F.Cu
6
CONTINUOUS
10
133.0597449999999924
20
-55.4500299999999982
11
132.9044899999999814
21
-55.3462919999999983
0
LINE
8
F.Cu
6
CONTINUOUS
10
132.9044899999999814
20
-55.3462919999999983
11
132.7724580000000003
21
-55.2142599999999959
0
LINE
8
F.Cu
6
CONTINUOUS
10
132.7724580000000003
20
-55.2142599999999959
11
132.6687200000000075
21
-55.0590049999999991
0
LINE
8
F.Cu
6
CONTINUOUS
10
132.6687200000000075
20
-55.0590049999999991
11
132.5972639999999956
21
-54.8864960000000011
0
LINE
8
F.Cu
6
CONTINUOUS
10
132.5972639999999956
20
-54.8864960000000011
11
132.5608369999999923
21
-54.703361000000001
0
LINE
8
F.Cu
6
CONTINUOUS
10
132.5608369999999923
20
-54.703361000000001
11
132.5562500000000057
21
-54.6099999999999994
0
LINE
8
F.Cu
6
CONTINUOUS
10
132.5562500000000057
20
-54.6099999999999994
11
132.5562500000000057
21
-52.0700000000000003
0
LINE
8
F.Cu
6
CONTINUOUS
10
132.5562500000000057
20
-52.0700000000000003
11
132.5608369999999923
21
-51.9766389999999987
0
LINE
8
F.Cu
6
CONTINUOUS
10
132.5608369999999923
20
-51.9766389999999987
11
132.5972639999999956
21
-51.7935039999999987
0
LINE
8
F.Cu
6
CONTINUOUS
10
132.5972639999999956
20
-51.7935039999999987
11
132.6687200000000075
21
-51.6209950000000006
0
LINE
8
F.Cu
6
CONTINUOUS
10
132.6687200000000075
20
-51.6209950000000006
11
132.7724580000000003
21
-51.4657399999999967
0
LINE
8
F.Cu
6
CONTINUOUS
10
132.7724580000000003
20
-51.4657399999999967
11
132.9044899999999814
21
-51.3337079999999943
0
LINE
8
F.Cu
6
CONTINUOUS
10
132.9044899999999814
20
-51.3337079999999943
11
133.0597449999999924
21
-51.2299699999999945
0
LINE
8
F.Cu
6
CONTINUOUS
10
133.0597449999999924
20
-51.2299699999999945
11
133.2322539999999833
21
-51.1585139999999967
0
LINE
8
F.Cu
6
CONTINUOUS
10
133.2322539999999833
20
-51.1585139999999967
11
133.4153890000000047
21
-51.1220870000000005
0
LINE
8
F.Cu
6
CONTINUOUS
10
133.4153890000000047
20
-51.1220870000000005
11
133.6021110000000078
21
-51.1220870000000005
0
LINE
8
F.Cu
6
CONTINUOUS
10
133.6021110000000078
20
-51.1220870000000005
11
133.7852460000000008
21
-51.1585139999999967
0
LINE
8
F.Cu
6
CONTINUOUS
10
136.3252459999999928
20
-53.6985139999999959
11
136.4977549999999837
21
-53.7699700000000007
0
LINE
8
F.Cu
6
CONTINUOUS
10
136.4977549999999837
20
-53.7699700000000007
11
136.6530099999999948
21
-53.8737080000000006
0
LINE
8
F.Cu
6
CONTINUOUS
10
136.6530099999999948
20
-53.8737080000000006
11
136.7850420000000042
21
-54.0057399999999959
0
LINE
8
F.Cu
6
CONTINUOUS
10
136.7850420000000042
20
-54.0057399999999959
11
136.888779999999997
21
-54.1609949999999998
0
LINE
8
F.Cu
6
CONTINUOUS
10
136.888779999999997
20
-54.1609949999999998
11
136.9602359999999805
21
-54.3335039999999978
0
LINE
8
F.Cu
6
CONTINUOUS
10
136.9602359999999805
20
-54.3335039999999978
11
136.9966629999999839
21
-54.5166389999999978
0
LINE
8
F.Cu
6
CONTINUOUS
10
136.9966629999999839
20
-54.5166389999999978
11
136.9966629999999839
21
-54.703361000000001
0
LINE
8
F.Cu
6
CONTINUOUS
10
136.9966629999999839
20
-54.703361000000001
11
136.9602359999999805
21
-54.8864960000000011
0
LINE
8
F.Cu
6
CONTINUOUS
10
136.9602359999999805
20
-54.8864960000000011
11
136.888779999999997
21
-55.0590049999999991
0
LINE
8
F.Cu
6
CONTINUOUS
10
136.888779999999997
20
-55.0590049999999991
11
136.7850420000000042
21
-55.2142599999999959
0
LINE
8
F.Cu
6
CONTINUOUS
10
136.7850420000000042
20
-55.2142599999999959
11
136.6530099999999948
21
-55.3462919999999983
0
LINE
8
F.Cu
6
CONTINUOUS
10
136.6530099999999948
20
-55.3462919999999983
11
136.4977549999999837
21
-55.4500299999999982
0
LINE
8
F.Cu
6
CONTINUOUS
10
136.4977549999999837
20
-55.4500299999999982
11
136.3252459999999928
21
-55.5214859999999959
0
LINE
8
F.Cu
6
CONTINUOUS
10
136.3252459999999928
20
-55.5214859999999959
11
136.1421109999999999
21
-55.5579129999999992
0
LINE
8
F.Cu
6
CONTINUOUS
10
136.1421109999999999
20
-55.5579129999999992
11
135.9553889999999967
21
-55.5579129999999992
0
LINE
8
F.Cu
6
CONTINUOUS
10
135.9553889999999967
20
-55.5579129999999992
11
135.7722540000000038
21
-55.5214859999999959
0
LINE
8
F.Cu
6
CONTINUOUS
10
135.7722540000000038
20
-55.5214859999999959
11
135.5997449999999844
21
-55.4500299999999982
0
LINE
8
F.Cu
6
CONTINUOUS
10
135.5997449999999844
20
-55.4500299999999982
11
135.4444900000000018
21
-55.3462919999999983
0
LINE
8
F.Cu
6
CONTINUOUS
10
135.4444900000000018
20
-55.3462919999999983
11
135.3124579999999924
21
-55.2142599999999959
0
LINE
8
F.Cu
6
CONTINUOUS
10
135.3124579999999924
20
-55.2142599999999959
11
135.2087199999999996
21
-55.0590049999999991
0
LINE
8
F.Cu
6
CONTINUOUS
10
135.2087199999999996
20
-55.0590049999999991
11
135.1372639999999876
21
-54.8864960000000011
0
LINE
8
F.Cu
6
CONTINUOUS
10
135.1372639999999876
20
-54.8864960000000011
11
135.1008369999999843
21
-54.703361000000001
0
LINE
8
F.Cu
6
CONTINUOUS
10
135.1008369999999843
20
-54.703361000000001
11
135.1008369999999843
21
-54.5166389999999978
0
LINE
8
F.Cu
6
CONTINUOUS
10
135.1008369999999843
20
-54.5166389999999978
11
135.1372639999999876
21
-54.3335039999999978
0
LINE
8
F.Cu
6
CONTINUOUS
10
135.1372639999999876
20
-54.3335039999999978
11
135.2087199999999996
21
-54.1609949999999998
0
LINE
8
F.Cu
6
CONTINUOUS
10
135.2087199999999996
20
-54.1609949999999998
11
135.3124579999999924
21
-54.0057399999999959
0
LINE
8
F.Cu
6
CONTINUOUS
10
135.3124579999999924
20
-54.0057399999999959
11
135.4444900000000018
21
-53.8737080000000006
0
LINE
8
F.Cu
6
CONTINUOUS
10
135.4444900000000018
20
-53.8737080000000006
11
135.5997449999999844
21
-53.7699700000000007
0
LINE
8
F.Cu
6
CONTINUOUS
10
135.5997449999999844
20
-53.7699700000000007
11
135.7722540000000038
21
-53.6985139999999959
0
LINE
8
F.Cu
6
CONTINUOUS
10
135.7722540000000038
20
-53.6985139999999959
11
135.9553889999999967
21
-53.6620869999999996
0
LINE
8
F.Cu
6
CONTINUOUS
10
135.9553889999999967
20
-53.6620869999999996
11
136.1421109999999999
21
-53.6620869999999996
0
LINE
8
F.Cu
6
CONTINUOUS
10
136.1421109999999999
20
-53.6620869999999996
11
136.3252459999999928
21
-53.6985139999999959
0
LINE
8
F.Cu
6
CONTINUOUS
10
138.8652459999999849
20
-51.1585139999999967
11
139.0377550000000042
21
-51.2299699999999945
0
LINE
8
F.Cu
6
CONTINUOUS
10
139.0377550000000042
20
-51.2299699999999945
11
139.1930099999999868
21
-51.3337079999999943
0
LINE
8
F.Cu
6
CONTINUOUS
10
139.1930099999999868
20
-51.3337079999999943
11
139.3250419999999963
21
-51.4657399999999967
0
LINE
8
F.Cu
6
CONTINUOUS
10
139.3250419999999963
20
-51.4657399999999967
11
139.4287799999999891
21
-51.6209950000000006
0
LINE
8
F.Cu
6
CONTINUOUS
10
139.4287799999999891
20
-51.6209950000000006
11
139.500236000000001
21
-51.7935039999999987
0
LINE
8
F.Cu
6
CONTINUOUS
10
139.500236000000001
20
-51.7935039999999987
11
139.5366630000000043
21
-51.9766389999999987
0
LINE
8
F.Cu
6
CONTINUOUS
10
139.5366630000000043
20
-51.9766389999999987
11
139.5412499999999909
21
-52.0700000000000003
0
LINE
8
F.Cu
6
CONTINUOUS
10
139.5412499999999909
20
-52.0700000000000003
11
139.5412499999999909
21
-54.6099999999999994
0
LINE
8
F.Cu
6
CONTINUOUS
10
139.5412499999999909
20
-54.6099999999999994
11
139.5366630000000043
21
-54.703361000000001
0
LINE
8
F.Cu
6
CONTINUOUS
10
139.5366630000000043
20
-54.703361000000001
11
139.500236000000001
21
-54.8864960000000011
0
LINE
8
F.Cu
6
CONTINUOUS
10
139.500236000000001
20
-54.8864960000000011
11
139.4287799999999891
21
-55.0590049999999991
0
LINE
8
F.Cu
6
CONTINUOUS
10
139.4287799999999891
20
-55.0590049999999991
11
139.3250419999999963
21
-55.2142599999999959
0
LINE
8
F.Cu
6
CONTINUOUS
10
139.3250419999999963
20
-55.2142599999999959
11
139.1930099999999868
21
-55.3462919999999983
0
LINE
8
F.Cu
6
CONTINUOUS
10
139.1930099999999868
20
-55.3462919999999983
11
139.0377550000000042
21
-55.4500299999999982
0
LINE
8
F.Cu
6
CONTINUOUS
10
139.0377550000000042
20
-55.4500299999999982
11
138.8652459999999849
21
-55.5214859999999959
0
LINE
8
F.Cu
6
CONTINUOUS
10
138.8652459999999849
20
-55.5214859999999959
11
138.6821109999999919
21
-55.5579129999999992
0
LINE
8
F.Cu
6
CONTINUOUS
10
138.6821109999999919
20
-55.5579129999999992
11
138.4953889999999888
21
-55.5579129999999992
0
LINE
8
F.Cu
6
CONTINUOUS
10
138.4953889999999888
20
-55.5579129999999992
11
138.3122539999999958
21
-55.5214859999999959
0
LINE
8
F.Cu
6
CONTINUOUS
10
138.3122539999999958
20
-55.5214859999999959
11
138.1397450000000049
21
-55.4500299999999982
0
LINE
8
F.Cu
6
CONTINUOUS
10
138.1397450000000049
20
-55.4500299999999982
11
137.9844899999999939
21
-55.3462919999999983
0
LINE
8
F.Cu
6
CONTINUOUS
10
137.9844899999999939
20
-55.3462919999999983
11
137.8524579999999844
21
-55.2142599999999959
0
LINE
8
F.Cu
6
CONTINUOUS
10
137.8524579999999844
20
-55.2142599999999959
11
137.7487199999999916
21
-55.0590049999999991
0
LINE
8
F.Cu
6
CONTINUOUS
10
137.7487199999999916
20
-55.0590049999999991
11
137.6772639999999797
21
-54.8864960000000011
0
LINE
8
F.Cu
6
CONTINUOUS
10
137.6772639999999797
20
-54.8864960000000011
11
137.6408370000000048
21
-54.703361000000001
0
LINE
8
F.Cu
6
CONTINUOUS
10
137.6408370000000048
20
-54.703361000000001
11
137.6362499999999898
21
-54.6099999999999994
0
LINE
8
F.Cu
6
CONTINUOUS
10
137.6362499999999898
20
-54.6099999999999994
11
137.6362499999999898
21
-52.0700000000000003
0
LINE
8
F.Cu
6
CONTINUOUS
10
137.6362499999999898
20
-52.0700000000000003
11
137.6408370000000048
21
-51.9766389999999987
0
LINE
8
F.Cu
6
CONTINUOUS
10
137.6408370000000048
20
-51.9766389999999987
11
137.6772639999999797
21
-51.7935039999999987
0
LINE
8
F.Cu
6
CONTINUOUS
10
137.6772639999999797
20
-51.7935039999999987
11
137.7487199999999916
21
-51.6209950000000006
0
LINE
8
F.Cu
6
CONTINUOUS
10
137.7487199999999916
20
-51.6209950000000006
11
137.8524579999999844
21
-51.4657399999999967
0
LINE
8
F.Cu
6
CONTINUOUS
10
137.8524579999999844
20
-51.4657399999999967
11
137.9844899999999939
21
-51.3337079999999943
0
LINE
8
F.Cu
6
CONTINUOUS
10
137.9844899999999939
20
-51.3337079999999943
11
138.1397450000000049
21
-51.2299699999999945
0
LINE
8
F.Cu
6
CONTINUOUS
10
138.1397450000000049
20
-51.2299699999999945
11
138.3122539999999958
21
-51.1585139999999967
0
LINE
8
F.Cu
6
CONTINUOUS
10
138.3122539999999958
20
-51.1585139999999967
11
138.4953889999999888
21
-51.1220870000000005
0
LINE
8
F.Cu
6
CONTINUOUS
10
138.4953889999999888
20
-51.1220870000000005
11
138.6821109999999919
21
-51.1220870000000005
0
LINE
8
F.Cu
6
CONTINUOUS
10
138.6821109999999919
20
-51.1220870000000005
11
138.8652459999999849
21
-51.1585139999999967
0
LINE
8
F.Cu
6
CONTINUOUS
10
141.4052460000000053
20
-53.6985139999999959
11
141.5777549999999962
21
-53.7699700000000007
0
LINE
8
F.Cu
6
CONTINUOUS
10
141.5777549999999962
20
-53.7699700000000007
11
141.7330100000000073
21
-53.8737080000000006
0
LINE
8
F.Cu
6
CONTINUOUS
10
141.7330100000000073
20
-53.8737080000000006
11
141.8650419999999883
21
-54.0057399999999959
0
LINE
8
F.Cu
6
CONTINUOUS
10
141.8650419999999883
20
-54.0057399999999959
11
141.9687799999999811
21
-54.1609949999999998
0
LINE
8
F.Cu
6
CONTINUOUS
10
141.9687799999999811
20
-54.1609949999999998
11
142.0402359999999931
21
-54.3335039999999978
0
LINE
8
F.Cu
6
CONTINUOUS
10
142.0402359999999931
20
-54.3335039999999978
11
142.0766629999999964
21
-54.5166389999999978
0
LINE
8
F.Cu
6
CONTINUOUS
10
142.0766629999999964
20
-54.5166389999999978
11
142.0766629999999964
21
-54.703361000000001
0
LINE
8
F.Cu
6
CONTINUOUS
10
142.0766629999999964
20
-54.703361000000001
11
142.0402359999999931
21
-54.8864960000000011
0
LINE
8
F.Cu
6
CONTINUOUS
10
142.0402359999999931
20
-54.8864960000000011
11
141.9687799999999811
21
-55.0590049999999991
0
LINE
8
F.Cu
6
CONTINUOUS
10
141.9687799999999811
20
-55.0590049999999991
11
141.8650419999999883
21
-55.2142599999999959
0
LINE
8
F.Cu
6
CONTINUOUS
10
141.8650419999999883
20
-55.2142599999999959
11
141.7330100000000073
21
-55.3462919999999983
0
LINE
8
F.Cu
6
CONTINUOUS
10
141.7330100000000073
20
-55.3462919999999983
11
141.5777549999999962
21
-55.4500299999999982
0
LINE
8
F.Cu
6
CONTINUOUS
10
141.5777549999999962
20
-55.4500299999999982
11
141.4052460000000053
21
-55.5214859999999959
0
LINE
8
F.Cu
6
CONTINUOUS
10
141.4052460000000053
20
-55.5214859999999959
11
141.222110999999984
21
-55.5579129999999992
0
LINE
8
F.Cu
6
CONTINUOUS
10
141.222110999999984
20
-55.5579129999999992
11
141.0353889999999808
21
-55.5579129999999992
0
LINE
8
F.Cu
6
CONTINUOUS
10
141.0353889999999808
20
-55.5579129999999992
11
140.8522539999999879
21
-55.5214859999999959
0
LINE
8
F.Cu
6
CONTINUOUS
10
140.8522539999999879
20
-55.5214859999999959
11
140.6797449999999969
21
-55.4500299999999982
0
LINE
8
F.Cu
6
CONTINUOUS
10
140.6797449999999969
20
-55.4500299999999982
11
140.5244899999999859
21
-55.3462919999999983
0
LINE
8
F.Cu
6
CONTINUOUS
10
140.5244899999999859
20
-55.3462919999999983
11
140.3924580000000049
21
-55.2142599999999959
0
LINE
8
F.Cu
6
CONTINUOUS
10
140.3924580000000049
20
-55.2142599999999959
11
140.2887199999999837
21
-55.0590049999999991
0
LINE
8
F.Cu
6
CONTINUOUS
10
140.2887199999999837
20
-55.0590049999999991
11
140.2172640000000001
21
-54.8864960000000011
0
LINE
8
F.Cu
6
CONTINUOUS
10
140.2172640000000001
20
-54.8864960000000011
11
140.1808369999999968
21
-54.703361000000001
0
LINE
8
F.Cu
6
CONTINUOUS
10
140.1808369999999968
20
-54.703361000000001
11
140.1808369999999968
21
-54.5166389999999978
0
LINE
8
F.Cu
6
CONTINUOUS
10
140.1808369999999968
20
-54.5166389999999978
11
140.2172640000000001
21
-54.3335039999999978
0
LINE
8
F.Cu
6
CONTINUOUS
10
140.2172640000000001
20
-54.3335039999999978
11
140.2887199999999837
21
-54.1609949999999998
0
LINE
8
F.Cu
6
CONTINUOUS
10
140.2887199999999837
20
-54.1609949999999998
11
140.3924580000000049
21
-54.0057399999999959
0
LINE
8
F.Cu
6
CONTINUOUS
10
140.3924580000000049
20
-54.0057399999999959
11
140.5244899999999859
21
-53.8737080000000006
0
LINE
8
F.Cu
6
CONTINUOUS
10
140.5244899999999859
20
-53.8737080000000006
11
140.6797449999999969
21
-53.7699700000000007
0
LINE
8
F.Cu
6
CONTINUOUS
10
140.6797449999999969
20
-53.7699700000000007
11
140.8522539999999879
21
-53.6985139999999959
0
LINE
8
F.Cu
6
CONTINUOUS
10
140.8522539999999879
20
-53.6985139999999959
11
141.0353889999999808
21
-53.6620869999999996
0
LINE
8
F.Cu
6
CONTINUOUS
10
141.0353889999999808
20
-53.6620869999999996
11
141.222110999999984
21
-53.6620869999999996
0
LINE
8
F.Cu
6
CONTINUOUS
10
141.222110999999984
20
-53.6620869999999996
11
141.4052460000000053
21
-53.6985139999999959
0
LINE
8
F.Cu
6
CONTINUOUS
10
143.9452459999999974
20
-51.1585139999999967
11
144.1177549999999883
21
-51.2299699999999945
0
LINE
8
F.Cu
6
CONTINUOUS
10
144.1177549999999883
20
-51.2299699999999945
11
144.2730099999999993
21
-51.3337079999999943
0
LINE
8
F.Cu
6
CONTINUOUS
10
144.2730099999999993
20
-51.3337079999999943
11
144.4050419999999804
21
-51.4657399999999967
0
LINE
8
F.Cu
6
CONTINUOUS
10
144.4050419999999804
20
-51.4657399999999967
11
144.5087800000000016
21
-51.6209950000000006
0
LINE
8
F.Cu
6
CONTINUOUS
10
144.5087800000000016
20
-51.6209950000000006
11
144.5802359999999851
21
-51.7935039999999987
0
LINE
8
F.Cu
6
CONTINUOUS
10
144.5802359999999851
20
-51.7935039999999987
11
144.6166629999999884
21
-51.9766389999999987
0
LINE
8
F.Cu
6
CONTINUOUS
10
144.6166629999999884
20
-51.9766389999999987
11
144.6212500000000034
21
-52.0700000000000003
0
LINE
8
F.Cu
6
CONTINUOUS
10
144.6212500000000034
20
-52.0700000000000003
11
144.6212500000000034
21
-54.6099999999999994
0
LINE
8
F.Cu
6
CONTINUOUS
10
144.6212500000000034
20
-54.6099999999999994
11
144.6166629999999884
21
-54.703361000000001
0
LINE
8
F.Cu
6
CONTINUOUS
10
144.6166629999999884
20
-54.703361000000001
11
144.5802359999999851
21
-54.8864960000000011
0
LINE
8
F.Cu
6
CONTINUOUS
10
144.5802359999999851
20
-54.8864960000000011
11
144.5087800000000016
21
-55.0590049999999991
0
LINE
8
F.Cu
6
CONTINUOUS
10
144.5087800000000016
20
-55.0590049999999991
11
144.4050419999999804
21
-55.2142599999999959
0
LINE
8
F.Cu
6
CONTINUOUS
10
144.4050419999999804
20
-55.2142599999999959
11
144.2730099999999993
21
-55.3462919999999983
0
LINE
8
F.Cu
6
CONTINUOUS
10
144.2730099999999993
20
-55.3462919999999983
11
144.1177549999999883
21
-55.4500299999999982
0
LINE
8
F.Cu
6
CONTINUOUS
10
144.1177549999999883
20
-55.4500299999999982
11
143.9452459999999974
21
-55.5214859999999959
0
LINE
8
F.Cu
6
CONTINUOUS
10
143.9452459999999974
20
-55.5214859999999959
11
143.7621110000000044
21
-55.5579129999999992
0
LINE
8
F.Cu
6
CONTINUOUS
10
143.7621110000000044
20
-55.5579129999999992
11
143.5753890000000013
21
-55.5579129999999992
0
LINE
8
F.Cu
6
CONTINUOUS
10
143.5753890000000013
20
-55.5579129999999992
11
143.3922539999999799
21
-55.5214859999999959
0
LINE
8
F.Cu
6
CONTINUOUS
10
143.3922539999999799
20
-55.5214859999999959
11
143.219744999999989
21
-55.4500299999999982
0
LINE
8
F.Cu
6
CONTINUOUS
10
143.219744999999989
20
-55.4500299999999982
11
143.0644900000000064
21
-55.3462919999999983
0
LINE
8
F.Cu
6
CONTINUOUS
10
143.0644900000000064
20
-55.3462919999999983
11
142.9324579999999969
21
-55.2142599999999959
0
LINE
8
F.Cu
6
CONTINUOUS
10
142.9324579999999969
20
-55.2142599999999959
11
142.8287200000000041
21
-55.0590049999999991
0
LINE
8
F.Cu
6
CONTINUOUS
10
142.8287200000000041
20
-55.0590049999999991
11
142.7572639999999922
21
-54.8864960000000011
0
LINE
8
F.Cu
6
CONTINUOUS
10
142.7572639999999922
20
-54.8864960000000011
11
142.7208369999999888
21
-54.703361000000001
0
LINE
8
F.Cu
6
CONTINUOUS
10
142.7208369999999888
20
-54.703361000000001
11
142.7162500000000023
21
-54.6099999999999994
0
LINE
8
F.Cu
6
CONTINUOUS
10
142.7162500000000023
20
-54.6099999999999994
11
142.7162500000000023
21
-52.0700000000000003
0
LINE
8
F.Cu
6
CONTINUOUS
10
142.7162500000000023
20
-52.0700000000000003
11
142.7208369999999888
21
-51.9766389999999987
0
LINE
8
F.Cu
6
CONTINUOUS
10
142.7208369999999888
20
-51.9766389999999987
11
142.7572639999999922
21
-51.7935039999999987
0
LINE
8
F.Cu
6
CONTINUOUS
10
142.7572639999999922
20
-51.7935039999999987
11
142.8287200000000041
21
-51.6209950000000006
0
LINE
8
F.Cu
6
CONTINUOUS
10
142.8287200000000041
20
-51.6209950000000006
11
142.9324579999999969
21
-51.4657399999999967
0
LINE
8
F.Cu
6
CONTINUOUS
10
142.9324579999999969
20
-51.4657399999999967
11
143.0644900000000064
21
-51.3337079999999943
0
LINE
8
F.Cu
6
CONTINUOUS
10
143.0644900000000064
20
-51.3337079999999943
11
143.219744999999989
21
-51.2299699999999945
0
LINE
8
F.Cu
6
CONTINUOUS
10
143.219744999999989
20
-51.2299699999999945
11
143.3922539999999799
21
-51.1585139999999967
0
LINE
8
F.Cu
6
CONTINUOUS
10
143.3922539999999799
20
-51.1585139999999967
11
143.5753890000000013
21
-51.1220870000000005
0
LINE
8
F.Cu
6
CONTINUOUS
10
143.5753890000000013
20
-51.1220870000000005
11
143.7621110000000044
21
-51.1220870000000005
0
LINE
8
F.Cu
6
CONTINUOUS
10
143.7621110000000044
20
-51.1220870000000005
11
143.9452459999999974
21
-51.1585139999999967
0
LINE
8
F.Cu
6
CONTINUOUS
10
96.498975999999999
20
-46.5488399999999984
11
96.6885079999999988
21
-46.6104229999999973
0
LINE
8
F.Cu
6
CONTINUOUS
10
96.6885079999999988
20
-46.6104229999999973
11
96.8660730000000001
21
-46.7008969999999977
0
LINE
8
F.Cu
6
CONTINUOUS
10
96.8660730000000001
20
-46.7008969999999977
11
97.0272989999999993
21
-46.8180339999999973
0
LINE
8
F.Cu
6
CONTINUOUS
10
97.0272989999999993
20
-46.8180339999999973
11
97.168216000000001
21
-46.958950999999999
0
LINE
8
F.Cu
6
CONTINUOUS
10
97.168216000000001
20
-46.958950999999999
11
97.2853530000000006
21
-47.1201769999999982
0
LINE
8
F.Cu
6
CONTINUOUS
10
97.2853530000000006
20
-47.1201769999999982
11
97.375827000000001
21
-47.2977419999999995
0
LINE
8
F.Cu
6
CONTINUOUS
10
97.375827000000001
20
-47.2977419999999995
11
97.4374099999999999
21
-47.4872739999999993
0
LINE
8
F.Cu
6
CONTINUOUS
10
97.4374099999999999
20
-47.4872739999999993
11
97.4685849999999903
21
-47.6841069999999974
0
LINE
8
F.Cu
6
CONTINUOUS
10
97.4685849999999903
20
-47.6841069999999974
11
97.4685849999999903
21
-47.8833929999999981
0
LINE
8
F.Cu
6
CONTINUOUS
10
97.4685849999999903
20
-47.8833929999999981
11
97.4374099999999999
21
-48.0802259999999961
0
LINE
8
F.Cu
6
CONTINUOUS
10
97.4374099999999999
20
-48.0802259999999961
11
97.375827000000001
21
-48.2697579999999959
0
LINE
8
F.Cu
6
CONTINUOUS
10
97.375827000000001
20
-48.2697579999999959
11
97.2853530000000006
21
-48.4473229999999973
0
LINE
8
F.Cu
6
CONTINUOUS
10
97.2853530000000006
20
-48.4473229999999973
11
97.168216000000001
21
-48.6085489999999965
0
LINE
8
F.Cu
6
CONTINUOUS
10
97.168216000000001
20
-48.6085489999999965
11
97.0272989999999993
21
-48.7494659999999982
0
LINE
8
F.Cu
6
CONTINUOUS
10
97.0272989999999993
20
-48.7494659999999982
11
96.8660730000000001
21
-48.8666029999999978
0
LINE
8
F.Cu
6
CONTINUOUS
10
96.8660730000000001
20
-48.8666029999999978
11
96.6885079999999988
21
-48.9570769999999982
0
LINE
8
F.Cu
6
CONTINUOUS
10
96.6885079999999988
20
-48.9570769999999982
11
96.498975999999999
21
-49.018659999999997
0
LINE
8
F.Cu
6
CONTINUOUS
10
96.498975999999999
20
-49.018659999999997
11
96.3021430000000009
21
-49.0498349999999945
0
LINE
8
F.Cu
6
CONTINUOUS
10
96.3021430000000009
20
-49.0498349999999945
11
96.1028570000000002
21
-49.0498349999999945
0
LINE
8
F.Cu
6
CONTINUOUS
10
96.1028570000000002
20
-49.0498349999999945
11
95.9060240000000022
21
-49.018659999999997
0
LINE
8
F.Cu
6
CONTINUOUS
10
95.9060240000000022
20
-49.018659999999997
11
95.7164920000000023
21
-48.9570769999999982
0
LINE
8
F.Cu
6
CONTINUOUS
10
95.7164920000000023
20
-48.9570769999999982
11
95.538927000000001
21
-48.8666029999999978
0
LINE
8
F.Cu
6
CONTINUOUS
10
95.538927000000001
20
-48.8666029999999978
11
95.3777010000000018
21
-48.7494659999999982
0
LINE
8
F.Cu
6
CONTINUOUS
10
95.3777010000000018
20
-48.7494659999999982
11
95.2367840000000001
21
-48.6085489999999965
0
LINE
8
F.Cu
6
CONTINUOUS
10
95.2367840000000001
20
-48.6085489999999965
11
95.1196470000000005
21
-48.4473229999999973
0
LINE
8
F.Cu
6
CONTINUOUS
10
95.1196470000000005
20
-48.4473229999999973
11
95.0291730000000001
21
-48.2697579999999959
0
LINE
8
F.Cu
6
CONTINUOUS
10
95.0291730000000001
20
-48.2697579999999959
11
94.9675900000000013
21
-48.0802259999999961
0
LINE
8
F.Cu
6
CONTINUOUS
10
94.9675900000000013
20
-48.0802259999999961
11
94.9364149999999967
21
-47.8833929999999981
0
LINE
8
F.Cu
6
CONTINUOUS
10
94.9364149999999967
20
-47.8833929999999981
11
94.9364149999999967
21
-47.6841069999999974
0
LINE
8
F.Cu
6
CONTINUOUS
10
94.9364149999999967
20
-47.6841069999999974
11
94.9675900000000013
21
-47.4872739999999993
0
LINE
8
F.Cu
6
CONTINUOUS
10
94.9675900000000013
20
-47.4872739999999993
11
95.0291730000000001
21
-47.2977419999999995
0
LINE
8
F.Cu
6
CONTINUOUS
10
95.0291730000000001
20
-47.2977419999999995
11
95.1196470000000005
21
-47.1201769999999982
0
LINE
8
F.Cu
6
CONTINUOUS
10
95.1196470000000005
20
-47.1201769999999982
11
95.2367840000000001
21
-46.958950999999999
0
LINE
8
F.Cu
6
CONTINUOUS
10
95.2367840000000001
20
-46.958950999999999
11
95.3777010000000018
21
-46.8180339999999973
0
LINE
8
F.Cu
6
CONTINUOUS
10
95.3777010000000018
20
-46.8180339999999973
11
95.538927000000001
21
-46.7008969999999977
0
LINE
8
F.Cu
6
CONTINUOUS
10
95.538927000000001
20
-46.7008969999999977
11
95.7164920000000023
21
-46.6104229999999973
0
LINE
8
F.Cu
6
CONTINUOUS
10
95.7164920000000023
20
-46.6104229999999973
11
95.9060240000000022
21
-46.5488399999999984
0
LINE
8
F.Cu
6
CONTINUOUS
10
95.9060240000000022
20
-46.5488399999999984
11
96.1028570000000002
21
-46.5176650000000009
0
LINE
8
F.Cu
6
CONTINUOUS
10
96.1028570000000002
20
-46.5176650000000009
11
96.3021430000000009
21
-46.5176650000000009
0
LINE
8
F.Cu
6
CONTINUOUS
10
96.3021430000000009
20
-46.5176650000000009
11
96.498975999999999
21
-46.5488399999999984
0
LINE
8
F.Cu
6
CONTINUOUS
10
116.8189759999999922
20
-46.5488399999999984
11
117.008507999999992
21
-46.6104229999999973
0
LINE
8
F.Cu
6
CONTINUOUS
10
117.008507999999992
20
-46.6104229999999973
11
117.1860729999999933
21
-46.7008969999999977
0
LINE
8
F.Cu
6
CONTINUOUS
10
117.1860729999999933
20
-46.7008969999999977
11
117.3472989999999925
21
-46.8180339999999973
0
LINE
8
F.Cu
6
CONTINUOUS
10
117.3472989999999925
20
-46.8180339999999973
11
117.4882159999999942
21
-46.958950999999999
0
LINE
8
F.Cu
6
CONTINUOUS
10
117.4882159999999942
20
-46.958950999999999
11
117.6053529999999938
21
-47.1201769999999982
0
LINE
8
F.Cu
6
CONTINUOUS
10
117.6053529999999938
20
-47.1201769999999982
11
117.6958269999999942
21
-47.2977419999999995
0
LINE
8
F.Cu
6
CONTINUOUS
10
117.6958269999999942
20
-47.2977419999999995
11
117.757409999999993
21
-47.4872739999999993
0
LINE
8
F.Cu
6
CONTINUOUS
10
117.757409999999993
20
-47.4872739999999993
11
117.7885849999999976
21
-47.6841069999999974
0
LINE
8
F.Cu
6
CONTINUOUS
10
117.7885849999999976
20
-47.6841069999999974
11
117.7885849999999976
21
-47.8833929999999981
0
LINE
8
F.Cu
6
CONTINUOUS
10
117.7885849999999976
20
-47.8833929999999981
11
117.757409999999993
21
-48.0802259999999961
0
LINE
8
F.Cu
6
CONTINUOUS
10
117.757409999999993
20
-48.0802259999999961
11
117.6958269999999942
21
-48.2697579999999959
0
LINE
8
F.Cu
6
CONTINUOUS
10
117.6958269999999942
20
-48.2697579999999959
11
117.6053529999999938
21
-48.4473229999999973
0
LINE
8
F.Cu
6
CONTINUOUS
10
117.6053529999999938
20
-48.4473229999999973
11
117.4882159999999942
21
-48.6085489999999965
0
LINE
8
F.Cu
6
CONTINUOUS
10
117.4882159999999942
20
-48.6085489999999965
11
117.3472989999999925
21
-48.7494659999999982
0
LINE
8
F.Cu
6
CONTINUOUS
10
117.3472989999999925
20
-48.7494659999999982
11
117.1860729999999933
21
-48.8666029999999978
0
LINE
8
F.Cu
6
CONTINUOUS
10
117.1860729999999933
20
-48.8666029999999978
11
117.008507999999992
21
-48.9570769999999982
0
LINE
8
F.Cu
6
CONTINUOUS
10
117.008507999999992
20
-48.9570769999999982
11
116.8189759999999922
21
-49.018659999999997
0
LINE
8
F.Cu
6
CONTINUOUS
10
116.8189759999999922
20
-49.018659999999997
11
116.6221429999999941
21
-49.0498349999999945
0
LINE
8
F.Cu
6
CONTINUOUS
10
116.6221429999999941
20
-49.0498349999999945
11
116.4228569999999934
21
-49.0498349999999945
0
LINE
8
F.Cu
6
CONTINUOUS
10
116.4228569999999934
20
-49.0498349999999945
11
116.2260239999999953
21
-49.018659999999997
0
LINE
8
F.Cu
6
CONTINUOUS
10
116.2260239999999953
20
-49.018659999999997
11
116.0364919999999955
21
-48.9570769999999982
0
LINE
8
F.Cu
6
CONTINUOUS
10
116.0364919999999955
20
-48.9570769999999982
11
115.8589269999999942
21
-48.8666029999999978
0
LINE
8
F.Cu
6
CONTINUOUS
10
115.8589269999999942
20
-48.8666029999999978
11
115.697700999999995
21
-48.7494659999999982
0
LINE
8
F.Cu
6
CONTINUOUS
10
115.697700999999995
20
-48.7494659999999982
11
115.5567839999999933
21
-48.6085489999999965
0
LINE
8
F.Cu
6
CONTINUOUS
10
115.5567839999999933
20
-48.6085489999999965
11
115.4396469999999937
21
-48.4473229999999973
0
LINE
8
F.Cu
6
CONTINUOUS
10
115.4396469999999937
20
-48.4473229999999973
11
115.3491729999999933
21
-48.2697579999999959
0
LINE
8
F.Cu
6
CONTINUOUS
10
115.3491729999999933
20
-48.2697579999999959
11
115.2875899999999945
21
-48.0802259999999961
0
LINE
8
F.Cu
6
CONTINUOUS
10
115.2875899999999945
20
-48.0802259999999961
11
115.2564149999999898
21
-47.8833929999999981
0
LINE
8
F.Cu
6
CONTINUOUS
10
115.2564149999999898
20
-47.8833929999999981
11
115.2564149999999898
21
-47.6841069999999974
0
LINE
8
F.Cu
6
CONTINUOUS
10
115.2564149999999898
20
-47.6841069999999974
11
115.2875899999999945
21
-47.4872739999999993
0
LINE
8
F.Cu
6
CONTINUOUS
10
115.2875899999999945
20
-47.4872739999999993
11
115.3491729999999933
21
-47.2977419999999995
0
LINE
8
F.Cu
6
CONTINUOUS
10
115.3491729999999933
20
-47.2977419999999995
11
115.4396469999999937
21
-47.1201769999999982
0
LINE
8
F.Cu
6
CONTINUOUS
10
115.4396469999999937
20
-47.1201769999999982
11
115.5567839999999933
21
-46.958950999999999
0
LINE
8
F.Cu
6
CONTINUOUS
10
115.5567839999999933
20
-46.958950999999999
11
115.697700999999995
21
-46.8180339999999973
0
LINE
8
F.Cu
6
CONTINUOUS
10
115.697700999999995
20
-46.8180339999999973
11
115.8589269999999942
21
-46.7008969999999977
0
LINE
8
F.Cu
6
CONTINUOUS
10
115.8589269999999942
20
-46.7008969999999977
11
116.0364919999999955
21
-46.6104229999999973
0
LINE
8
F.Cu
6
CONTINUOUS
10
116.0364919999999955
20
-46.6104229999999973
11
116.2260239999999953
21
-46.5488399999999984
0
LINE
8
F.Cu
6
CONTINUOUS
10
116.2260239999999953
20
-46.5488399999999984
11
116.4228569999999934
21
-46.5176650000000009
0
LINE
8
F.Cu
6
CONTINUOUS
10
116.4228569999999934
20
-46.5176650000000009
11
116.6221429999999941
21
-46.5176650000000009
0
LINE
8
F.Cu
6
CONTINUOUS
10
116.6221429999999941
20
-46.5176650000000009
11
116.8189759999999922
21
-46.5488399999999984
0
LINE
8
F.Cu
6
CONTINUOUS
10
128.7252259999999922
20
-46.5488399999999984
11
128.9147580000000062
21
-46.6104229999999973
0
LINE
8
F.Cu
6
CONTINUOUS
10
128.9147580000000062
20
-46.6104229999999973
11
129.0923229999999933
21
-46.7008969999999977
0
LINE
8
F.Cu
6
CONTINUOUS
10
129.0923229999999933
20
-46.7008969999999977
11
129.2535489999999925
21
-46.8180339999999973
0
LINE
8
F.Cu
6
CONTINUOUS
10
129.2535489999999925
20
-46.8180339999999973
11
129.3944659999999942
21
-46.958950999999999
0
LINE
8
F.Cu
6
CONTINUOUS
10
129.3944659999999942
20
-46.958950999999999
11
129.511603000000008
21
-47.1201769999999982
0
LINE
8
F.Cu
6
CONTINUOUS
10
129.511603000000008
20
-47.1201769999999982
11
129.60207699999998
21
-47.2977419999999995
0
LINE
8
F.Cu
6
CONTINUOUS
10
129.60207699999998
20
-47.2977419999999995
11
129.663659999999993
21
-47.4872739999999993
0
LINE
8
F.Cu
6
CONTINUOUS
10
129.663659999999993
20
-47.4872739999999993
11
129.6948349999999834
21
-47.6841069999999974
0
LINE
8
F.Cu
6
CONTINUOUS
10
129.6948349999999834
20
-47.6841069999999974
11
129.6948349999999834
21
-47.8833929999999981
0
LINE
8
F.Cu
6
CONTINUOUS
10
129.6948349999999834
20
-47.8833929999999981
11
129.663659999999993
21
-48.0802259999999961
0
LINE
8
F.Cu
6
CONTINUOUS
10
129.663659999999993
20
-48.0802259999999961
11
129.60207699999998
21
-48.2697579999999959
0
LINE
8
F.Cu
6
CONTINUOUS
10
129.60207699999998
20
-48.2697579999999959
11
129.511603000000008
21
-48.4473229999999973
0
LINE
8
F.Cu
6
CONTINUOUS
10
129.511603000000008
20
-48.4473229999999973
11
129.3944659999999942
21
-48.6085489999999965
0
LINE
8
F.Cu
6
CONTINUOUS
10
129.3944659999999942
20
-48.6085489999999965
11
129.2535489999999925
21
-48.7494659999999982
0
LINE
8
F.Cu
6
CONTINUOUS
10
129.2535489999999925
20
-48.7494659999999982
11
129.0923229999999933
21
-48.8666029999999978
0
LINE
8
F.Cu
6
CONTINUOUS
10
129.0923229999999933
20
-48.8666029999999978
11
128.9147580000000062
21
-48.9570769999999982
0
LINE
8
F.Cu
6
CONTINUOUS
10
128.9147580000000062
20
-48.9570769999999982
11
128.7252259999999922
21
-49.018659999999997
0
LINE
8
F.Cu
6
CONTINUOUS
10
128.7252259999999922
20
-49.018659999999997
11
128.5283929999999941
21
-49.0498349999999945
0
LINE
8
F.Cu
6
CONTINUOUS
10
128.5283929999999941
20
-49.0498349999999945
11
128.3291069999999934
21
-49.0498349999999945
0
LINE
8
F.Cu
6
CONTINUOUS
10
128.3291069999999934
20
-49.0498349999999945
11
128.1322739999999953
21
-49.018659999999997
0
LINE
8
F.Cu
6
CONTINUOUS
10
128.1322739999999953
20
-49.018659999999997
11
127.9427419999999955
21
-48.9570769999999982
0
LINE
8
F.Cu
6
CONTINUOUS
10
127.9427419999999955
20
-48.9570769999999982
11
127.7651769999999942
21
-48.8666029999999978
0
LINE
8
F.Cu
6
CONTINUOUS
10
127.7651769999999942
20
-48.8666029999999978
11
127.603950999999995
21
-48.7494659999999982
0
LINE
8
F.Cu
6
CONTINUOUS
10
127.603950999999995
20
-48.7494659999999982
11
127.4630339999999933
21
-48.6085489999999965
0
LINE
8
F.Cu
6
CONTINUOUS
10
127.4630339999999933
20
-48.6085489999999965
11
127.3458969999999937
21
-48.4473229999999973
0
LINE
8
F.Cu
6
CONTINUOUS
10
127.3458969999999937
20
-48.4473229999999973
11
127.2554229999999933
21
-48.2697579999999959
0
LINE
8
F.Cu
6
CONTINUOUS
10
127.2554229999999933
20
-48.2697579999999959
11
127.1938399999999945
21
-48.0802259999999961
0
LINE
8
F.Cu
6
CONTINUOUS
10
127.1938399999999945
20
-48.0802259999999961
11
127.1626649999999898
21
-47.8833929999999981
0
LINE
8
F.Cu
6
CONTINUOUS
10
127.1626649999999898
20
-47.8833929999999981
11
127.1626649999999898
21
-47.6841069999999974
0
LINE
8
F.Cu
6
CONTINUOUS
10
127.1626649999999898
20
-47.6841069999999974
11
127.1938399999999945
21
-47.4872739999999993
0
LINE
8
F.Cu
6
CONTINUOUS
10
127.1938399999999945
20
-47.4872739999999993
11
127.2554229999999933
21
-47.2977419999999995
0
LINE
8
F.Cu
6
CONTINUOUS
10
127.2554229999999933
20
-47.2977419999999995
11
127.3458969999999937
21
-47.1201769999999982
0
LINE
8
F.Cu
6
CONTINUOUS
10
127.3458969999999937
20
-47.1201769999999982
11
127.4630339999999933
21
-46.958950999999999
0
LINE
8
F.Cu
6
CONTINUOUS
10
127.4630339999999933
20
-46.958950999999999
11
127.603950999999995
21
-46.8180339999999973
0
LINE
8
F.Cu
6
CONTINUOUS
10
127.603950999999995
20
-46.8180339999999973
11
127.7651769999999942
21
-46.7008969999999977
0
LINE
8
F.Cu
6
CONTINUOUS
10
127.7651769999999942
20
-46.7008969999999977
11
127.9427419999999955
21
-46.6104229999999973
0
LINE
8
F.Cu
6
CONTINUOUS
10
127.9427419999999955
20
-46.6104229999999973
11
128.1322739999999953
21
-46.5488399999999984
0
LINE
8
F.Cu
6
CONTINUOUS
10
128.1322739999999953
20
-46.5488399999999984
11
128.3291069999999934
21
-46.5176650000000009
0
LINE
8
F.Cu
6
CONTINUOUS
10
128.3291069999999934
20
-46.5176650000000009
11
128.5283929999999941
21
-46.5176650000000009
0
LINE
8
F.Cu
6
CONTINUOUS
10
128.5283929999999941
20
-46.5176650000000009
11
128.7252259999999922
21
-46.5488399999999984
0
LINE
8
F.Cu
6
CONTINUOUS
10
149.0452259999999853
20
-46.5488399999999984
11
149.2347579999999994
21
-46.6104229999999973
0
LINE
8
F.Cu
6
CONTINUOUS
10
149.2347579999999994
20
-46.6104229999999973
11
149.4123229999999865
21
-46.7008969999999977
0
LINE
8
F.Cu
6
CONTINUOUS
10
149.4123229999999865
20
-46.7008969999999977
11
149.5735489999999857
21
-46.8180339999999973
0
LINE
8
F.Cu
6
CONTINUOUS
10
149.5735489999999857
20
-46.8180339999999973
11
149.7144659999999874
21
-46.958950999999999
0
LINE
8
F.Cu
6
CONTINUOUS
10
149.7144659999999874
20
-46.958950999999999
11
149.8316030000000012
21
-47.1201769999999982
0
LINE
8
F.Cu
6
CONTINUOUS
10
149.8316030000000012
20
-47.1201769999999982
11
149.9220770000000016
21
-47.2977419999999995
0
LINE
8
F.Cu
6
CONTINUOUS
10
149.9220770000000016
20
-47.2977419999999995
11
149.9836599999999862
21
-47.4872739999999993
0
LINE
8
F.Cu
6
CONTINUOUS
10
149.9836599999999862
20
-47.4872739999999993
11
150.014835000000005
21
-47.6841069999999974
0
LINE
8
F.Cu
6
CONTINUOUS
10
150.014835000000005
20
-47.6841069999999974
11
150.014835000000005
21
-47.8833929999999981
0
LINE
8
F.Cu
6
CONTINUOUS
10
150.014835000000005
20
-47.8833929999999981
11
149.9836599999999862
21
-48.0802259999999961
0
LINE
8
F.Cu
6
CONTINUOUS
10
149.9836599999999862
20
-48.0802259999999961
11
149.9220770000000016
21
-48.2697579999999959
0
LINE
8
F.Cu
6
CONTINUOUS
10
149.9220770000000016
20
-48.2697579999999959
11
149.8316030000000012
21
-48.4473229999999973
0
LINE
8
F.Cu
6
CONTINUOUS
10
149.8316030000000012
20
-48.4473229999999973
11
149.7144659999999874
21
-48.6085489999999965
0
LINE
8
F.Cu
6
CONTINUOUS
10
149.7144659999999874
20
-48.6085489999999965
11
149.5735489999999857
21
-48.7494659999999982
0
LINE
8
F.Cu
6
CONTINUOUS
10
149.5735489999999857
20
-48.7494659999999982
11
149.4123229999999865
21
-48.8666029999999978
0
LINE
8
F.Cu
6
CONTINUOUS
10
149.4123229999999865
20
-48.8666029999999978
11
149.2347579999999994
21
-48.9570769999999982
0
LINE
8
F.Cu
6
CONTINUOUS
10
149.2347579999999994
20
-48.9570769999999982
11
149.0452259999999853
21
-49.018659999999997
0
LINE
8
F.Cu
6
CONTINUOUS
10
149.0452259999999853
20
-49.018659999999997
11
148.8483929999999873
21
-49.0498349999999945
0
LINE
8
F.Cu
6
CONTINUOUS
10
148.8483929999999873
20
-49.0498349999999945
11
148.6491069999999866
21
-49.0498349999999945
0
LINE
8
F.Cu
6
CONTINUOUS
10
148.6491069999999866
20
-49.0498349999999945
11
148.4522739999999885
21
-49.018659999999997
0
LINE
8
F.Cu
6
CONTINUOUS
10
148.4522739999999885
20
-49.018659999999997
11
148.2627420000000029
21
-48.9570769999999982
0
LINE
8
F.Cu
6
CONTINUOUS
10
148.2627420000000029
20
-48.9570769999999982
11
148.0851769999999874
21
-48.8666029999999978
0
LINE
8
F.Cu
6
CONTINUOUS
10
148.0851769999999874
20
-48.8666029999999978
11
147.9239509999999882
21
-48.7494659999999982
0
LINE
8
F.Cu
6
CONTINUOUS
10
147.9239509999999882
20
-48.7494659999999982
11
147.7830339999999865
21
-48.6085489999999965
0
LINE
8
F.Cu
6
CONTINUOUS
10
147.7830339999999865
20
-48.6085489999999965
11
147.6658970000000011
21
-48.4473229999999973
0
LINE
8
F.Cu
6
CONTINUOUS
10
147.6658970000000011
20
-48.4473229999999973
11
147.5754230000000007
21
-48.2697579999999959
0
LINE
8
F.Cu
6
CONTINUOUS
10
147.5754230000000007
20
-48.2697579999999959
11
147.5138399999999876
21
-48.0802259999999961
0
LINE
8
F.Cu
6
CONTINUOUS
10
147.5138399999999876
20
-48.0802259999999961
11
147.4826649999999972
21
-47.8833929999999981
0
LINE
8
F.Cu
6
CONTINUOUS
10
147.4826649999999972
20
-47.8833929999999981
11
147.4826649999999972
21
-47.6841069999999974
0
LINE
8
F.Cu
6
CONTINUOUS
10
147.4826649999999972
20
-47.6841069999999974
11
147.5138399999999876
21
-47.4872739999999993
0
LINE
8
F.Cu
6
CONTINUOUS
10
147.5138399999999876
20
-47.4872739999999993
11
147.5754230000000007
21
-47.2977419999999995
0
LINE
8
F.Cu
6
CONTINUOUS
10
147.5754230000000007
20
-47.2977419999999995
11
147.6658970000000011
21
-47.1201769999999982
0
LINE
8
F.Cu
6
CONTINUOUS
10
147.6658970000000011
20
-47.1201769999999982
11
147.7830339999999865
21
-46.958950999999999
0
LINE
8
F.Cu
6
CONTINUOUS
10
147.7830339999999865
20
-46.958950999999999
11
147.9239509999999882
21
-46.8180339999999973
0
LINE
8
F.Cu
6
CONTINUOUS
10
147.9239509999999882
20
-46.8180339999999973
11
148.0851769999999874
21
-46.7008969999999977
0
LINE
8
F.Cu
6
CONTINUOUS
10
148.0851769999999874
20
-46.7008969999999977
11
148.2627420000000029
21
-46.6104229999999973
0
LINE
8
F.Cu
6
CONTINUOUS
10
148.2627420000000029
20
-46.6104229999999973
11
148.4522739999999885
21
-46.5488399999999984
0
LINE
8
F.Cu
6
CONTINUOUS
10
148.4522739999999885
20
-46.5488399999999984
11
148.6491069999999866
21
-46.5176650000000009
0
LINE
8
F.Cu
6
CONTINUOUS
10
148.6491069999999866
20
-46.5176650000000009
11
148.8483929999999873
21
-46.5176650000000009
0
LINE
8
F.Cu
6
CONTINUOUS
10
148.8483929999999873
20
-46.5176650000000009
11
149.0452259999999853
21
-46.5488399999999984
0
LINE
8
F.Cu
6
CONTINUOUS
10
133.7852460000000008
20
-41.7922639999999959
11
133.9577549999999917
21
-41.8637200000000007
0
LINE
8
F.Cu
6
CONTINUOUS
10
133.9577549999999917
20
-41.8637200000000007
11
134.1130100000000027
21
-41.9674580000000006
0
LINE
8
F.Cu
6
CONTINUOUS
10
134.1130100000000027
20
-41.9674580000000006
11
134.2450419999999838
21
-42.0994899999999959
0
LINE
8
F.Cu
6
CONTINUOUS
10
134.2450419999999838
20
-42.0994899999999959
11
134.348780000000005
21
-42.2547449999999998
0
LINE
8
F.Cu
6
CONTINUOUS
10
134.348780000000005
20
-42.2547449999999998
11
134.4202359999999885
21
-42.4272539999999978
0
LINE
8
F.Cu
6
CONTINUOUS
10
134.4202359999999885
20
-42.4272539999999978
11
134.4566629999999918
21
-42.6103889999999978
0
LINE
8
F.Cu
6
CONTINUOUS
10
134.4566629999999918
20
-42.6103889999999978
11
134.4566629999999918
21
-42.797111000000001
0
LINE
8
F.Cu
6
CONTINUOUS
10
134.4566629999999918
20
-42.797111000000001
11
134.4202359999999885
21
-42.9802460000000011
0
LINE
8
F.Cu
6
CONTINUOUS
10
134.4202359999999885
20
-42.9802460000000011
11
134.348780000000005
21
-43.1527549999999991
0
LINE
8
F.Cu
6
CONTINUOUS
10
134.348780000000005
20
-43.1527549999999991
11
134.2450419999999838
21
-43.3080099999999959
0
LINE
8
F.Cu
6
CONTINUOUS
10
134.2450419999999838
20
-43.3080099999999959
11
134.1130100000000027
21
-43.4400419999999983
0
LINE
8
F.Cu
6
CONTINUOUS
10
134.1130100000000027
20
-43.4400419999999983
11
133.9577549999999917
21
-43.5437799999999982
0
LINE
8
F.Cu
6
CONTINUOUS
10
133.9577549999999917
20
-43.5437799999999982
11
133.7852460000000008
21
-43.6152359999999959
0
LINE
8
F.Cu
6
CONTINUOUS
10
133.7852460000000008
20
-43.6152359999999959
11
133.6021110000000078
21
-43.6516629999999992
0
LINE
8
F.Cu
6
CONTINUOUS
10
133.6021110000000078
20
-43.6516629999999992
11
133.4153890000000047
21
-43.6516629999999992
0
LINE
8
F.Cu
6
CONTINUOUS
10
133.4153890000000047
20
-43.6516629999999992
11
133.2322539999999833
21
-43.6152359999999959
0
LINE
8
F.Cu
6
CONTINUOUS
10
133.2322539999999833
20
-43.6152359999999959
11
133.0597449999999924
21
-43.5437799999999982
0
LINE
8
F.Cu
6
CONTINUOUS
10
133.0597449999999924
20
-43.5437799999999982
11
132.9044899999999814
21
-43.4400419999999983
0
LINE
8
F.Cu
6
CONTINUOUS
10
132.9044899999999814
20
-43.4400419999999983
11
132.7724580000000003
21
-43.3080099999999959
0
LINE
8
F.Cu
6
CONTINUOUS
10
132.7724580000000003
20
-43.3080099999999959
11
132.6687200000000075
21
-43.1527549999999991
0
LINE
8
F.Cu
6
CONTINUOUS
10
132.6687200000000075
20
-43.1527549999999991
11
132.5972639999999956
21
-42.9802460000000011
0
LINE
8
F.Cu
6
CONTINUOUS
10
132.5972639999999956
20
-42.9802460000000011
11
132.5608369999999923
21
-42.797111000000001
0
LINE
8
F.Cu
6
CONTINUOUS
10
132.5608369999999923
20
-42.797111000000001
11
132.5608369999999923
21
-42.6103889999999978
0
LINE
8
F.Cu
6
CONTINUOUS
10
132.5608369999999923
20
-42.6103889999999978
11
132.5972639999999956
21
-42.4272539999999978
0
LINE
8
F.Cu
6
CONTINUOUS
10
132.5972639999999956
20
-42.4272539999999978
11
132.6687200000000075
21
-42.2547449999999998
0
LINE
8
F.Cu
6
CONTINUOUS
10
132.6687200000000075
20
-42.2547449999999998
11
132.7724580000000003
21
-42.0994899999999959
0
LINE
8
F.Cu
6
CONTINUOUS
10
132.7724580000000003
20
-42.0994899999999959
11
132.9044899999999814
21
-41.9674580000000006
0
LINE
8
F.Cu
6
CONTINUOUS
10
132.9044899999999814
20
-41.9674580000000006
11
133.0597449999999924
21
-41.8637200000000007
0
LINE
8
F.Cu
6
CONTINUOUS
10
133.0597449999999924
20
-41.8637200000000007
11
133.2322539999999833
21
-41.7922639999999959
0
LINE
8
F.Cu
6
CONTINUOUS
10
133.2322539999999833
20
-41.7922639999999959
11
133.4153890000000047
21
-41.7558369999999996
0
LINE
8
F.Cu
6
CONTINUOUS
10
133.4153890000000047
20
-41.7558369999999996
11
133.6021110000000078
21
-41.7558369999999996
0
LINE
8
F.Cu
6
CONTINUOUS
10
133.6021110000000078
20
-41.7558369999999996
11
133.7852460000000008
21
-41.7922639999999959
0
LINE
8
F.Cu
6
CONTINUOUS
10
143.9452459999999974
20
-41.7922639999999959
11
144.1177549999999883
21
-41.8637200000000007
0
LINE
8
F.Cu
6
CONTINUOUS
10
144.1177549999999883
20
-41.8637200000000007
11
144.2730099999999993
21
-41.9674580000000006
0
LINE
8
F.Cu
6
CONTINUOUS
10
144.2730099999999993
20
-41.9674580000000006
11
144.4050419999999804
21
-42.0994899999999959
0
LINE
8
F.Cu
6
CONTINUOUS
10
144.4050419999999804
20
-42.0994899999999959
11
144.5087800000000016
21
-42.2547449999999998
0
LINE
8
F.Cu
6
CONTINUOUS
10
144.5087800000000016
20
-42.2547449999999998
11
144.5802359999999851
21
-42.4272539999999978
0
LINE
8
F.Cu
6
CONTINUOUS
10
144.5802359999999851
20
-42.4272539999999978
11
144.6166629999999884
21
-42.6103889999999978
0
LINE
8
F.Cu
6
CONTINUOUS
10
144.6166629999999884
20
-42.6103889999999978
11
144.6166629999999884
21
-42.797111000000001
0
LINE
8
F.Cu
6
CONTINUOUS
10
144.6166629999999884
20
-42.797111000000001
11
144.5802359999999851
21
-42.9802460000000011
0
LINE
8
F.Cu
6
CONTINUOUS
10
144.5802359999999851
20
-42.9802460000000011
11
144.5087800000000016
21
-43.1527549999999991
0
LINE
8
F.Cu
6
CONTINUOUS
10
144.5087800000000016
20
-43.1527549999999991
11
144.4050419999999804
21
-43.3080099999999959
0
LINE
8
F.Cu
6
CONTINUOUS
10
144.4050419999999804
20
-43.3080099999999959
11
144.2730099999999993
21
-43.4400419999999983
0
LINE
8
F.Cu
6
CONTINUOUS
10
144.2730099999999993
20
-43.4400419999999983
11
144.1177549999999883
21
-43.5437799999999982
0
LINE
8
F.Cu
6
CONTINUOUS
10
144.1177549999999883
20
-43.5437799999999982
11
143.9452459999999974
21
-43.6152359999999959
0
LINE
8
F.Cu
6
CONTINUOUS
10
143.9452459999999974
20
-43.6152359999999959
11
143.7621110000000044
21
-43.6516629999999992
0
LINE
8
F.Cu
6
CONTINUOUS
10
143.7621110000000044
20
-43.6516629999999992
11
143.5753890000000013
21
-43.6516629999999992
0
LINE
8
F.Cu
6
CONTINUOUS
10
143.5753890000000013
20
-43.6516629999999992
11
143.3922539999999799
21
-43.6152359999999959
0
LINE
8
F.Cu
6
CONTINUOUS
10
143.3922539999999799
20
-43.6152359999999959
11
143.219744999999989
21
-43.5437799999999982
0
LINE
8
F.Cu
6
CONTINUOUS
10
143.219744999999989
20
-43.5437799999999982
11
143.0644900000000064
21
-43.4400419999999983
0
LINE
8
F.Cu
6
CONTINUOUS
10
143.0644900000000064
20
-43.4400419999999983
11
142.9324579999999969
21
-43.3080099999999959
0
LINE
8
F.Cu
6
CONTINUOUS
10
142.9324579999999969
20
-43.3080099999999959
11
142.8287200000000041
21
-43.1527549999999991
0
LINE
8
F.Cu
6
CONTINUOUS
10
142.8287200000000041
20
-43.1527549999999991
11
142.7572639999999922
21
-42.9802460000000011
0
LINE
8
F.Cu
6
CONTINUOUS
10
142.7572639999999922
20
-42.9802460000000011
11
142.7208369999999888
21
-42.797111000000001
0
LINE
8
F.Cu
6
CONTINUOUS
10
142.7208369999999888
20
-42.797111000000001
11
142.7208369999999888
21
-42.6103889999999978
0
LINE
8
F.Cu
6
CONTINUOUS
10
142.7208369999999888
20
-42.6103889999999978
11
142.7572639999999922
21
-42.4272539999999978
0
LINE
8
F.Cu
6
CONTINUOUS
10
142.7572639999999922
20
-42.4272539999999978
11
142.8287200000000041
21
-42.2547449999999998
0
LINE
8
F.Cu
6
CONTINUOUS
10
142.8287200000000041
20
-42.2547449999999998
11
142.9324579999999969
21
-42.0994899999999959
0
LINE
8
F.Cu
6
CONTINUOUS
10
142.9324579999999969
20
-42.0994899999999959
11
143.0644900000000064
21
-41.9674580000000006
0
LINE
8
F.Cu
6
CONTINUOUS
10
143.0644900000000064
20
-41.9674580000000006
11
143.219744999999989
21
-41.8637200000000007
0
LINE
8
F.Cu
6
CONTINUOUS
10
143.219744999999989
20
-41.8637200000000007
11
143.3922539999999799
21
-41.7922639999999959
0
LINE
8
F.Cu
6
CONTINUOUS
10
143.3922539999999799
20
-41.7922639999999959
11
143.5753890000000013
21
-41.7558369999999996
0
LINE
8
F.Cu
6
CONTINUOUS
10
143.5753890000000013
20
-41.7558369999999996
11
143.7621110000000044
21
-41.7558369999999996
0
LINE
8
F.Cu
6
CONTINUOUS
10
143.7621110000000044
20
-41.7558369999999996
11
143.9452459999999974
21
-41.7922639999999959
0
LINE
8
F.Cu
6
CONTINUOUS
10
133.7852460000000008
20
-31.6322639999999993
11
133.9577549999999917
21
-31.703719999999997
0
LINE
8
F.Cu
6
CONTINUOUS
10
133.9577549999999917
20
-31.703719999999997
11
134.1130100000000027
21
-31.8074579999999969
0
LINE
8
F.Cu
6
CONTINUOUS
10
134.1130100000000027
20
-31.8074579999999969
11
134.2450419999999838
21
-31.9394899999999993
0
LINE
8
F.Cu
6
CONTINUOUS
10
134.2450419999999838
20
-31.9394899999999993
11
134.348780000000005
21
-32.0947449999999961
0
LINE
8
F.Cu
6
CONTINUOUS
10
134.348780000000005
20
-32.0947449999999961
11
134.4202359999999885
21
-32.2672540000000012
0
LINE
8
F.Cu
6
CONTINUOUS
10
134.4202359999999885
20
-32.2672540000000012
11
134.4566629999999918
21
-32.4503890000000013
0
LINE
8
F.Cu
6
CONTINUOUS
10
134.4566629999999918
20
-32.4503890000000013
11
134.4566629999999918
21
-32.6371109999999973
0
LINE
8
F.Cu
6
CONTINUOUS
10
134.4566629999999918
20
-32.6371109999999973
11
134.4202359999999885
21
-32.8202459999999974
0
LINE
8
F.Cu
6
CONTINUOUS
10
134.4202359999999885
20
-32.8202459999999974
11
134.348780000000005
21
-32.9927549999999954
0
LINE
8
F.Cu
6
CONTINUOUS
10
134.348780000000005
20
-32.9927549999999954
11
134.2450419999999838
21
-33.1480099999999993
0
LINE
8
F.Cu
6
CONTINUOUS
10
134.2450419999999838
20
-33.1480099999999993
11
134.1130100000000027
21
-33.2800420000000017
0
LINE
8
F.Cu
6
CONTINUOUS
10
134.1130100000000027
20
-33.2800420000000017
11
133.9577549999999917
21
-33.3837800000000016
0
LINE
8
F.Cu
6
CONTINUOUS
10
133.9577549999999917
20
-33.3837800000000016
11
133.7852460000000008
21
-33.4552359999999993
0
LINE
8
F.Cu
6
CONTINUOUS
10
133.7852460000000008
20
-33.4552359999999993
11
133.6021110000000078
21
-33.4916629999999955
0
LINE
8
F.Cu
6
CONTINUOUS
10
133.6021110000000078
20
-33.4916629999999955
11
133.4153890000000047
21
-33.4916629999999955
0
LINE
8
F.Cu
6
CONTINUOUS
10
133.4153890000000047
20
-33.4916629999999955
11
133.2322539999999833
21
-33.4552359999999993
0
LINE
8
F.Cu
6
CONTINUOUS
10
133.2322539999999833
20
-33.4552359999999993
11
133.0597449999999924
21
-33.3837800000000016
0
LINE
8
F.Cu
6
CONTINUOUS
10
133.0597449999999924
20
-33.3837800000000016
11
132.9044899999999814
21
-33.2800420000000017
0
LINE
8
F.Cu
6
CONTINUOUS
10
132.9044899999999814
20
-33.2800420000000017
11
132.7724580000000003
21
-33.1480099999999993
0
LINE
8
F.Cu
6
CONTINUOUS
10
132.7724580000000003
20
-33.1480099999999993
11
132.6687200000000075
21
-32.9927549999999954
0
LINE
8
F.Cu
6
CONTINUOUS
10
132.6687200000000075
20
-32.9927549999999954
11
132.5972639999999956
21
-32.8202459999999974
0
LINE
8
F.Cu
6
CONTINUOUS
10
132.5972639999999956
20
-32.8202459999999974
11
132.5608369999999923
21
-32.6371109999999973
0
LINE
8
F.Cu
6
CONTINUOUS
10
132.5608369999999923
20
-32.6371109999999973
11
132.5608369999999923
21
-32.4503890000000013
0
LINE
8
F.Cu
6
CONTINUOUS
10
132.5608369999999923
20
-32.4503890000000013
11
132.5972639999999956
21
-32.2672540000000012
0
LINE
8
F.Cu
6
CONTINUOUS
10
132.5972639999999956
20
-32.2672540000000012
11
132.6687200000000075
21
-32.0947449999999961
0
LINE
8
F.Cu
6
CONTINUOUS
10
132.6687200000000075
20
-32.0947449999999961
11
132.7724580000000003
21
-31.9394899999999993
0
LINE
8
F.Cu
6
CONTINUOUS
10
132.7724580000000003
20
-31.9394899999999993
11
132.9044899999999814
21
-31.8074579999999969
0
LINE
8
F.Cu
6
CONTINUOUS
10
132.9044899999999814
20
-31.8074579999999969
11
133.0597449999999924
21
-31.703719999999997
0
LINE
8
F.Cu
6
CONTINUOUS
10
133.0597449999999924
20
-31.703719999999997
11
133.2322539999999833
21
-31.6322639999999993
0
LINE
8
F.Cu
6
CONTINUOUS
10
133.2322539999999833
20
-31.6322639999999993
11
133.4153890000000047
21
-31.5958369999999995
0
LINE
8
F.Cu
6
CONTINUOUS
10
133.4153890000000047
20
-31.5958369999999995
11
133.6021110000000078
21
-31.5958369999999995
0
LINE
8
F.Cu
6
CONTINUOUS
10
133.6021110000000078
20
-31.5958369999999995
11
133.7852460000000008
21
-31.6322639999999993
0
LINE
8
F.Cu
6
CONTINUOUS
10
143.9452459999999974
20
-31.6322639999999993
11
144.1177549999999883
21
-31.703719999999997
0
LINE
8
F.Cu
6
CONTINUOUS
10
144.1177549999999883
20
-31.703719999999997
11
144.2730099999999993
21
-31.8074579999999969
0
LINE
8
F.Cu
6
CONTINUOUS
10
144.2730099999999993
20
-31.8074579999999969
11
144.4050419999999804
21
-31.9394899999999993
0
LINE
8
F.Cu
6
CONTINUOUS
10
144.4050419999999804
20
-31.9394899999999993
11
144.5087800000000016
21
-32.0947449999999961
0
LINE
8
F.Cu
6
CONTINUOUS
10
144.5087800000000016
20
-32.0947449999999961
11
144.5802359999999851
21
-32.2672540000000012
0
LINE
8
F.Cu
6
CONTINUOUS
10
144.5802359999999851
20
-32.2672540000000012
11
144.6166629999999884
21
-32.4503890000000013
0
LINE
8
F.Cu
6
CONTINUOUS
10
144.6166629999999884
20
-32.4503890000000013
11
144.6166629999999884
21
-32.6371109999999973
0
LINE
8
F.Cu
6
CONTINUOUS
10
144.6166629999999884
20
-32.6371109999999973
11
144.5802359999999851
21
-32.8202459999999974
0
LINE
8
F.Cu
6
CONTINUOUS
10
144.5802359999999851
20
-32.8202459999999974
11
144.5087800000000016
21
-32.9927549999999954
0
LINE
8
F.Cu
6
CONTINUOUS
10
144.5087800000000016
20
-32.9927549999999954
11
144.4050419999999804
21
-33.1480099999999993
0
LINE
8
F.Cu
6
CONTINUOUS
10
144.4050419999999804
20
-33.1480099999999993
11
144.2730099999999993
21
-33.2800420000000017
0
LINE
8
F.Cu
6
CONTINUOUS
10
144.2730099999999993
20
-33.2800420000000017
11
144.1177549999999883
21
-33.3837800000000016
0
LINE
8
F.Cu
6
CONTINUOUS
10
144.1177549999999883
20
-33.3837800000000016
11
143.9452459999999974
21
-33.4552359999999993
0
LINE
8
F.Cu
6
CONTINUOUS
10
143.9452459999999974
20
-33.4552359999999993
11
143.7621110000000044
21
-33.4916629999999955
0
LINE
8
F.Cu
6
CONTINUOUS
10
143.7621110000000044
20
-33.4916629999999955
11
143.5753890000000013
21
-33.4916629999999955
0
LINE
8
F.Cu
6
CONTINUOUS
10
143.5753890000000013
20
-33.4916629999999955
11
143.3922539999999799
21
-33.4552359999999993
0
LINE
8
F.Cu
6
CONTINUOUS
10
143.3922539999999799
20
-33.4552359999999993
11
143.219744999999989
21
-33.3837800000000016
0
LINE
8
F.Cu
6
CONTINUOUS
10
143.219744999999989
20
-33.3837800000000016
11
143.0644900000000064
21
-33.2800420000000017
0
LINE
8
F.Cu
6
CONTINUOUS
10
143.0644900000000064
20
-33.2800420000000017
11
142.9324579999999969
21
-33.1480099999999993
0
LINE
8
F.Cu
6
CONTINUOUS
10
142.9324579999999969
20
-33.1480099999999993
11
142.8287200000000041
21
-32.9927549999999954
0
LINE
8
F.Cu
6
CONTINUOUS
10
142.8287200000000041
20
-32.9927549999999954
11
142.7572639999999922
21
-32.8202459999999974
0
LINE
8
F.Cu
6
CONTINUOUS
10
142.7572639999999922
20
-32.8202459999999974
11
142.7208369999999888
21
-32.6371109999999973
0
LINE
8
F.Cu
6
CONTINUOUS
10
142.7208369999999888
20
-32.6371109999999973
11
142.7208369999999888
21
-32.4503890000000013
0
LINE
8
F.Cu
6
CONTINUOUS
10
142.7208369999999888
20
-32.4503890000000013
11
142.7572639999999922
21
-32.2672540000000012
0
LINE
8
F.Cu
6
CONTINUOUS
10
142.7572639999999922
20
-32.2672540000000012
11
142.8287200000000041
21
-32.0947449999999961
0
LINE
8
F.Cu
6
CONTINUOUS
10
142.8287200000000041
20
-32.0947449999999961
11
142.9324579999999969
21
-31.9394899999999993
0
LINE
8
F.Cu
6
CONTINUOUS
10
142.9324579999999969
20
-31.9394899999999993
11
143.0644900000000064
21
-31.8074579999999969
0
LINE
8
F.Cu
6
CONTINUOUS
10
143.0644900000000064
20
-31.8074579999999969
11
143.219744999999989
21
-31.703719999999997
0
LINE
8
F.Cu
6
CONTINUOUS
10
143.219744999999989
20
-31.703719999999997
11
143.3922539999999799
21
-31.6322639999999993
0
LINE
8
F.Cu
6
CONTINUOUS
10
143.3922539999999799
20
-31.6322639999999993
11
143.5753890000000013
21
-31.5958369999999995
0
LINE
8
F.Cu
6
CONTINUOUS
10
143.5753890000000013
20
-31.5958369999999995
11
143.7621110000000044
21
-31.5958369999999995
0
LINE
8
F.Cu
6
CONTINUOUS
10
143.7621110000000044
20
-31.5958369999999995
11
143.9452459999999974
21
-31.6322639999999993
0
LINE
8
F.Cu
6
CONTINUOUS
10
96.498975999999999
20
-26.2288399999999982
11
96.6885079999999988
21
-26.2904230000000005
0
LINE
8
F.Cu
6
CONTINUOUS
10
96.6885079999999988
20
-26.2904230000000005
11
96.8660730000000001
21
-26.3808969999999974
0
LINE
8
F.Cu
6
CONTINUOUS
10
96.8660730000000001
20
-26.3808969999999974
11
97.0272989999999993
21
-26.4980340000000005
0
LINE
8
F.Cu
6
CONTINUOUS
10
97.0272989999999993
20
-26.4980340000000005
11
97.168216000000001
21
-26.6389509999999987
0
LINE
8
F.Cu
6
CONTINUOUS
10
97.168216000000001
20
-26.6389509999999987
11
97.2853530000000006
21
-26.8001769999999979
0
LINE
8
F.Cu
6
CONTINUOUS
10
97.2853530000000006
20
-26.8001769999999979
11
97.375827000000001
21
-26.9777419999999992
0
LINE
8
F.Cu
6
CONTINUOUS
10
97.375827000000001
20
-26.9777419999999992
11
97.4374099999999999
21
-27.167273999999999
0
LINE
8
F.Cu
6
CONTINUOUS
10
97.4374099999999999
20
-27.167273999999999
11
97.4685849999999903
21
-27.3641069999999971
0
LINE
8
F.Cu
6
CONTINUOUS
10
97.4685849999999903
20
-27.3641069999999971
11
97.4685849999999903
21
-27.5633929999999978
0
LINE
8
F.Cu
6
CONTINUOUS
10
97.4685849999999903
20
-27.5633929999999978
11
97.4374099999999999
21
-27.7602259999999994
0
LINE
8
F.Cu
6
CONTINUOUS
10
97.4374099999999999
20
-27.7602259999999994
11
97.375827000000001
21
-27.9497579999999992
0
LINE
8
F.Cu
6
CONTINUOUS
10
97.375827000000001
20
-27.9497579999999992
11
97.2853530000000006
21
-28.127322999999997
0
LINE
8
F.Cu
6
CONTINUOUS
10
97.2853530000000006
20
-28.127322999999997
11
97.168216000000001
21
-28.2885489999999997
0
LINE
8
F.Cu
6
CONTINUOUS
10
97.168216000000001
20
-28.2885489999999997
11
97.0272989999999993
21
-28.4294659999999979
0
LINE
8
F.Cu
6
CONTINUOUS
10
97.0272989999999993
20
-28.4294659999999979
11
96.8660730000000001
21
-28.5466029999999975
0
LINE
8
F.Cu
6
CONTINUOUS
10
96.8660730000000001
20
-28.5466029999999975
11
96.6885079999999988
21
-28.6370769999999979
0
LINE
8
F.Cu
6
CONTINUOUS
10
96.6885079999999988
20
-28.6370769999999979
11
96.498975999999999
21
-28.6986600000000003
0
LINE
8
F.Cu
6
CONTINUOUS
10
96.498975999999999
20
-28.6986600000000003
11
96.3021430000000009
21
-28.7298349999999978
0
LINE
8
F.Cu
6
CONTINUOUS
10
96.3021430000000009
20
-28.7298349999999978
11
96.1028570000000002
21
-28.7298349999999978
0
LINE
8
F.Cu
6
CONTINUOUS
10
96.1028570000000002
20
-28.7298349999999978
11
95.9060240000000022
21
-28.6986600000000003
0
LINE
8
F.Cu
6
CONTINUOUS
10
95.9060240000000022
20
-28.6986600000000003
11
95.7164920000000023
21
-28.6370769999999979
0
LINE
8
F.Cu
6
CONTINUOUS
10
95.7164920000000023
20
-28.6370769999999979
11
95.538927000000001
21
-28.5466029999999975
0
LINE
8
F.Cu
6
CONTINUOUS
10
95.538927000000001
20
-28.5466029999999975
11
95.3777010000000018
21
-28.4294659999999979
0
LINE
8
F.Cu
6
CONTINUOUS
10
95.3777010000000018
20
-28.4294659999999979
11
95.2367840000000001
21
-28.2885489999999997
0
LINE
8
F.Cu
6
CONTINUOUS
10
95.2367840000000001
20
-28.2885489999999997
11
95.1196470000000005
21
-28.127322999999997
0
LINE
8
F.Cu
6
CONTINUOUS
10
95.1196470000000005
20
-28.127322999999997
11
95.0291730000000001
21
-27.9497579999999992
0
LINE
8
F.Cu
6
CONTINUOUS
10
95.0291730000000001
20
-27.9497579999999992
11
94.9675900000000013
21
-27.7602259999999994
0
LINE
8
F.Cu
6
CONTINUOUS
10
94.9675900000000013
20
-27.7602259999999994
11
94.9364149999999967
21
-27.5633929999999978
0
LINE
8
F.Cu
6
CONTINUOUS
10
94.9364149999999967
20
-27.5633929999999978
11
94.9364149999999967
21
-27.3641069999999971
0
LINE
8
F.Cu
6
CONTINUOUS
10
94.9364149999999967
20
-27.3641069999999971
11
94.9675900000000013
21
-27.167273999999999
0
LINE
8
F.Cu
6
CONTINUOUS
10
94.9675900000000013
20
-27.167273999999999
11
95.0291730000000001
21
-26.9777419999999992
0
LINE
8
F.Cu
6
CONTINUOUS
10
95.0291730000000001
20
-26.9777419999999992
11
95.1196470000000005
21
-26.8001769999999979
0
LINE
8
F.Cu
6
CONTINUOUS
10
95.1196470000000005
20
-26.8001769999999979
11
95.2367840000000001
21
-26.6389509999999987
0
LINE
8
F.Cu
6
CONTINUOUS
10
95.2367840000000001
20
-26.6389509999999987
11
95.3777010000000018
21
-26.4980340000000005
0
LINE
8
F.Cu
6
CONTINUOUS
10
95.3777010000000018
20
-26.4980340000000005
11
95.538927000000001
21
-26.3808969999999974
0
LINE
8
F.Cu
6
CONTINUOUS
10
95.538927000000001
20
-26.3808969999999974
11
95.7164920000000023
21
-26.2904230000000005
0
LINE
8
F.Cu
6
CONTINUOUS
10
95.7164920000000023
20
-26.2904230000000005
11
95.9060240000000022
21
-26.2288399999999982
0
LINE
8
F.Cu
6
CONTINUOUS
10
95.9060240000000022
20
-26.2288399999999982
11
96.1028570000000002
21
-26.1976649999999971
0
LINE
8
F.Cu
6
CONTINUOUS
10
96.1028570000000002
20
-26.1976649999999971
11
96.3021430000000009
21
-26.1976649999999971
0
LINE
8
F.Cu
6
CONTINUOUS
10
96.3021430000000009
20
-26.1976649999999971
11
96.498975999999999
21
-26.2288399999999982
0
LINE
8
F.Cu
6
CONTINUOUS
10
116.8189759999999922
20
-26.2288399999999982
11
117.008507999999992
21
-26.2904230000000005
0
LINE
8
F.Cu
6
CONTINUOUS
10
117.008507999999992
20
-26.2904230000000005
11
117.1860729999999933
21
-26.3808969999999974
0
LINE
8
F.Cu
6
CONTINUOUS
10
117.1860729999999933
20
-26.3808969999999974
11
117.3472989999999925
21
-26.4980340000000005
0
LINE
8
F.Cu
6
CONTINUOUS
10
117.3472989999999925
20
-26.4980340000000005
11
117.4882159999999942
21
-26.6389509999999987
0
LINE
8
F.Cu
6
CONTINUOUS
10
117.4882159999999942
20
-26.6389509999999987
11
117.6053529999999938
21
-26.8001769999999979
0
LINE
8
F.Cu
6
CONTINUOUS
10
117.6053529999999938
20
-26.8001769999999979
11
117.6958269999999942
21
-26.9777419999999992
0
LINE
8
F.Cu
6
CONTINUOUS
10
117.6958269999999942
20
-26.9777419999999992
11
117.757409999999993
21
-27.167273999999999
0
LINE
8
F.Cu
6
CONTINUOUS
10
117.757409999999993
20
-27.167273999999999
11
117.7885849999999976
21
-27.3641069999999971
0
LINE
8
F.Cu
6
CONTINUOUS
10
117.7885849999999976
20
-27.3641069999999971
11
117.7885849999999976
21
-27.5633929999999978
0
LINE
8
F.Cu
6
CONTINUOUS
10
117.7885849999999976
20
-27.5633929999999978
11
117.757409999999993
21
-27.7602259999999994
0
LINE
8
F.Cu
6
CONTINUOUS
10
117.757409999999993
20
-27.7602259999999994
11
117.6958269999999942
21
-27.9497579999999992
0
LINE
8
F.Cu
6
CONTINUOUS
10
117.6958269999999942
20
-27.9497579999999992
11
117.6053529999999938
21
-28.127322999999997
0
LINE
8
F.Cu
6
CONTINUOUS
10
117.6053529999999938
20
-28.127322999999997
11
117.4882159999999942
21
-28.2885489999999997
0
LINE
8
F.Cu
6
CONTINUOUS
10
117.4882159999999942
20
-28.2885489999999997
11
117.3472989999999925
21
-28.4294659999999979
0
LINE
8
F.Cu
6
CONTINUOUS
10
117.3472989999999925
20
-28.4294659999999979
11
117.1860729999999933
21
-28.5466029999999975
0
LINE
8
F.Cu
6
CONTINUOUS
10
117.1860729999999933
20
-28.5466029999999975
11
117.008507999999992
21
-28.6370769999999979
0
LINE
8
F.Cu
6
CONTINUOUS
10
117.008507999999992
20
-28.6370769999999979
11
116.8189759999999922
21
-28.6986600000000003
0
LINE
8
F.Cu
6
CONTINUOUS
10
116.8189759999999922
20
-28.6986600000000003
11
116.6221429999999941
21
-28.7298349999999978
0
LINE
8
F.Cu
6
CONTINUOUS
10
116.6221429999999941
20
-28.7298349999999978
11
116.4228569999999934
21
-28.7298349999999978
0
LINE
8
F.Cu
6
CONTINUOUS
10
116.4228569999999934
20
-28.7298349999999978
11
116.2260239999999953
21
-28.6986600000000003
0
LINE
8
F.Cu
6
CONTINUOUS
10
116.2260239999999953
20
-28.6986600000000003
11
116.0364919999999955
21
-28.6370769999999979
0
LINE
8
F.Cu
6
CONTINUOUS
10
116.0364919999999955
20
-28.6370769999999979
11
115.8589269999999942
21
-28.5466029999999975
0
LINE
8
F.Cu
6
CONTINUOUS
10
115.8589269999999942
20
-28.5466029999999975
11
115.697700999999995
21
-28.4294659999999979
0
LINE
8
F.Cu
6
CONTINUOUS
10
115.697700999999995
20
-28.4294659999999979
11
115.5567839999999933
21
-28.2885489999999997
0
LINE
8
F.Cu
6
CONTINUOUS
10
115.5567839999999933
20
-28.2885489999999997
11
115.4396469999999937
21
-28.127322999999997
0
LINE
8
F.Cu
6
CONTINUOUS
10
115.4396469999999937
20
-28.127322999999997
11
115.3491729999999933
21
-27.9497579999999992
0
LINE
8
F.Cu
6
CONTINUOUS
10
115.3491729999999933
20
-27.9497579999999992
11
115.2875899999999945
21
-27.7602259999999994
0
LINE
8
F.Cu
6
CONTINUOUS
10
115.2875899999999945
20
-27.7602259999999994
11
115.2564149999999898
21
-27.5633929999999978
0
LINE
8
F.Cu
6
CONTINUOUS
10
115.2564149999999898
20
-27.5633929999999978
11
115.2564149999999898
21
-27.3641069999999971
0
LINE
8
F.Cu
6
CONTINUOUS
10
115.2564149999999898
20
-27.3641069999999971
11
115.2875899999999945
21
-27.167273999999999
0
LINE
8
F.Cu
6
CONTINUOUS
10
115.2875899999999945
20
-27.167273999999999
11
115.3491729999999933
21
-26.9777419999999992
0
LINE
8
F.Cu
6
CONTINUOUS
10
115.3491729999999933
20
-26.9777419999999992
11
115.4396469999999937
21
-26.8001769999999979
0
LINE
8
F.Cu
6
CONTINUOUS
10
115.4396469999999937
20
-26.8001769999999979
11
115.5567839999999933
21
-26.6389509999999987
0
LINE
8
F.Cu
6
CONTINUOUS
10
115.5567839999999933
20
-26.6389509999999987
11
115.697700999999995
21
-26.4980340000000005
0
LINE
8
F.Cu
6
CONTINUOUS
10
115.697700999999995
20
-26.4980340000000005
11
115.8589269999999942
21
-26.3808969999999974
0
LINE
8
F.Cu
6
CONTINUOUS
10
115.8589269999999942
20
-26.3808969999999974
11
116.0364919999999955
21
-26.2904230000000005
0
LINE
8
F.Cu
6
CONTINUOUS
10
116.0364919999999955
20
-26.2904230000000005
11
116.2260239999999953
21
-26.2288399999999982
0
LINE
8
F.Cu
6
CONTINUOUS
10
116.2260239999999953
20
-26.2288399999999982
11
116.4228569999999934
21
-26.1976649999999971
0
LINE
8
F.Cu
6
CONTINUOUS
10
116.4228569999999934
20
-26.1976649999999971
11
116.6221429999999941
21
-26.1976649999999971
0
LINE
8
F.Cu
6
CONTINUOUS
10
116.6221429999999941
20
-26.1976649999999971
11
116.8189759999999922
21
-26.2288399999999982
0
LINE
8
F.Cu
6
CONTINUOUS
10
128.7252259999999922
20
-26.2288399999999982
11
128.9147580000000062
21
-26.2904230000000005
0
LINE
8
F.Cu
6
CONTINUOUS
10
128.9147580000000062
20
-26.2904230000000005
11
129.0923229999999933
21
-26.3808969999999974
0
LINE
8
F.Cu
6
CONTINUOUS
10
129.0923229999999933
20
-26.3808969999999974
11
129.2535489999999925
21
-26.4980340000000005
0
LINE
8
F.Cu
6
CONTINUOUS
10
129.2535489999999925
20
-26.4980340000000005
11
129.3944659999999942
21
-26.6389509999999987
0
LINE
8
F.Cu
6
CONTINUOUS
10
129.3944659999999942
20
-26.6389509999999987
11
129.511603000000008
21
-26.8001769999999979
0
LINE
8
F.Cu
6
CONTINUOUS
10
129.511603000000008
20
-26.8001769999999979
11
129.60207699999998
21
-26.9777419999999992
0
LINE
8
F.Cu
6
CONTINUOUS
10
129.60207699999998
20
-26.9777419999999992
11
129.663659999999993
21
-27.167273999999999
0
LINE
8
F.Cu
6
CONTINUOUS
10
129.663659999999993
20
-27.167273999999999
11
129.6948349999999834
21
-27.3641069999999971
0
LINE
8
F.Cu
6
CONTINUOUS
10
129.6948349999999834
20
-27.3641069999999971
11
129.6948349999999834
21
-27.5633929999999978
0
LINE
8
F.Cu
6
CONTINUOUS
10
129.6948349999999834
20
-27.5633929999999978
11
129.663659999999993
21
-27.7602259999999994
0
LINE
8
F.Cu
6
CONTINUOUS
10
129.663659999999993
20
-27.7602259999999994
11
129.60207699999998
21
-27.9497579999999992
0
LINE
8
F.Cu
6
CONTINUOUS
10
129.60207699999998
20
-27.9497579999999992
11
129.511603000000008
21
-28.127322999999997
0
LINE
8
F.Cu
6
CONTINUOUS
10
129.511603000000008
20
-28.127322999999997
11
129.3944659999999942
21
-28.2885489999999997
0
LINE
8
F.Cu
6
CONTINUOUS
10
129.3944659999999942
20
-28.2885489999999997
11
129.2535489999999925
21
-28.4294659999999979
0
LINE
8
F.Cu
6
CONTINUOUS
10
129.2535489999999925
20
-28.4294659999999979
11
129.0923229999999933
21
-28.5466029999999975
0
LINE
8
F.Cu
6
CONTINUOUS
10
129.0923229999999933
20
-28.5466029999999975
11
128.9147580000000062
21
-28.6370769999999979
0
LINE
8
F.Cu
6
CONTINUOUS
10
128.9147580000000062
20
-28.6370769999999979
11
128.7252259999999922
21
-28.6986600000000003
0
LINE
8
F.Cu
6
CONTINUOUS
10
128.7252259999999922
20
-28.6986600000000003
11
128.5283929999999941
21
-28.7298349999999978
0
LINE
8
F.Cu
6
CONTINUOUS
10
128.5283929999999941
20
-28.7298349999999978
11
128.3291069999999934
21
-28.7298349999999978
0
LINE
8
F.Cu
6
CONTINUOUS
10
128.3291069999999934
20
-28.7298349999999978
11
128.1322739999999953
21
-28.6986600000000003
0
LINE
8
F.Cu
6
CONTINUOUS
10
128.1322739999999953
20
-28.6986600000000003
11
127.9427419999999955
21
-28.6370769999999979
0
LINE
8
F.Cu
6
CONTINUOUS
10
127.9427419999999955
20
-28.6370769999999979
11
127.7651769999999942
21
-28.5466029999999975
0
LINE
8
F.Cu
6
CONTINUOUS
10
127.7651769999999942
20
-28.5466029999999975
11
127.603950999999995
21
-28.4294659999999979
0
LINE
8
F.Cu
6
CONTINUOUS
10
127.603950999999995
20
-28.4294659999999979
11
127.4630339999999933
21
-28.2885489999999997
0
LINE
8
F.Cu
6
CONTINUOUS
10
127.4630339999999933
20
-28.2885489999999997
11
127.3458969999999937
21
-28.127322999999997
0
LINE
8
F.Cu
6
CONTINUOUS
10
127.3458969999999937
20
-28.127322999999997
11
127.2554229999999933
21
-27.9497579999999992
0
LINE
8
F.Cu
6
CONTINUOUS
10
127.2554229999999933
20
-27.9497579999999992
11
127.1938399999999945
21
-27.7602259999999994
0
LINE
8
F.Cu
6
CONTINUOUS
10
127.1938399999999945
20
-27.7602259999999994
11
127.1626649999999898
21
-27.5633929999999978
0
LINE
8
F.Cu
6
CONTINUOUS
10
127.1626649999999898
20
-27.5633929999999978
11
127.1626649999999898
21
-27.3641069999999971
0
LINE
8
F.Cu
6
CONTINUOUS
10
127.1626649999999898
20
-27.3641069999999971
11
127.1938399999999945
21
-27.167273999999999
0
LINE
8
F.Cu
6
CONTINUOUS
10
127.1938399999999945
20
-27.167273999999999
11
127.2554229999999933
21
-26.9777419999999992
0
LINE
8
F.Cu
6
CONTINUOUS
10
127.2554229999999933
20
-26.9777419999999992
11
127.3458969999999937
21
-26.8001769999999979
0
LINE
8
F.Cu
6
CONTINUOUS
10
127.3458969999999937
20
-26.8001769999999979
11
127.4630339999999933
21
-26.6389509999999987
0
LINE
8
F.Cu
6
CONTINUOUS
10
127.4630339999999933
20
-26.6389509999999987
11
127.603950999999995
21
-26.4980340000000005
0
LINE
8
F.Cu
6
CONTINUOUS
10
127.603950999999995
20
-26.4980340000000005
11
127.7651769999999942
21
-26.3808969999999974
0
LINE
8
F.Cu
6
CONTINUOUS
10
127.7651769999999942
20
-26.3808969999999974
11
127.9427419999999955
21
-26.2904230000000005
0
LINE
8
F.Cu
6
CONTINUOUS
10
127.9427419999999955
20
-26.2904230000000005
11
128.1322739999999953
21
-26.2288399999999982
0
LINE
8
F.Cu
6
CONTINUOUS
10
128.1322739999999953
20
-26.2288399999999982
11
128.3291069999999934
21
-26.1976649999999971
0
LINE
8
F.Cu
6
CONTINUOUS
10
128.3291069999999934
20
-26.1976649999999971
11
128.5283929999999941
21
-26.1976649999999971
0
LINE
8
F.Cu
6
CONTINUOUS
10
128.5283929999999941
20
-26.1976649999999971
11
128.7252259999999922
21
-26.2288399999999982
0
LINE
8
F.Cu
6
CONTINUOUS
10
149.0452259999999853
20
-26.2288399999999982
11
149.2347579999999994
21
-26.2904230000000005
0
LINE
8
F.Cu
6
CONTINUOUS
10
149.2347579999999994
20
-26.2904230000000005
11
149.4123229999999865
21
-26.3808969999999974
0
LINE
8
F.Cu
6
CONTINUOUS
10
149.4123229999999865
20
-26.3808969999999974
11
149.5735489999999857
21
-26.4980340000000005
0
LINE
8
F.Cu
6
CONTINUOUS
10
149.5735489999999857
20
-26.4980340000000005
11
149.7144659999999874
21
-26.6389509999999987
0
LINE
8
F.Cu
6
CONTINUOUS
10
149.7144659999999874
20
-26.6389509999999987
11
149.8316030000000012
21
-26.8001769999999979
0
LINE
8
F.Cu
6
CONTINUOUS
10
149.8316030000000012
20
-26.8001769999999979
11
149.9220770000000016
21
-26.9777419999999992
0
LINE
8
F.Cu
6
CONTINUOUS
10
149.9220770000000016
20
-26.9777419999999992
11
149.9836599999999862
21
-27.167273999999999
0
LINE
8
F.Cu
6
CONTINUOUS
10
149.9836599999999862
20
-27.167273999999999
11
150.014835000000005
21
-27.3641069999999971
0
LINE
8
F.Cu
6
CONTINUOUS
10
150.014835000000005
20
-27.3641069999999971
11
150.014835000000005
21
-27.5633929999999978
0
LINE
8
F.Cu
6
CONTINUOUS
10
150.014835000000005
20
-27.5633929999999978
11
149.9836599999999862
21
-27.7602259999999994
0
LINE
8
F.Cu
6
CONTINUOUS
10
149.9836599999999862
20
-27.7602259999999994
11
149.9220770000000016
21
-27.9497579999999992
0
LINE
8
F.Cu
6
CONTINUOUS
10
149.9220770000000016
20
-27.9497579999999992
11
149.8316030000000012
21
-28.127322999999997
0
LINE
8
F.Cu
6
CONTINUOUS
10
149.8316030000000012
20
-28.127322999999997
11
149.7144659999999874
21
-28.2885489999999997
0
LINE
8
F.Cu
6
CONTINUOUS
10
149.7144659999999874
20
-28.2885489999999997
11
149.5735489999999857
21
-28.4294659999999979
0
LINE
8
F.Cu
6
CONTINUOUS
10
149.5735489999999857
20
-28.4294659999999979
11
149.4123229999999865
21
-28.5466029999999975
0
LINE
8
F.Cu
6
CONTINUOUS
10
149.4123229999999865
20
-28.5466029999999975
11
149.2347579999999994
21
-28.6370769999999979
0
LINE
8
F.Cu
6
CONTINUOUS
10
149.2347579999999994
20
-28.6370769999999979
11
149.0452259999999853
21
-28.6986600000000003
0
LINE
8
F.Cu
6
CONTINUOUS
10
149.0452259999999853
20
-28.6986600000000003
11
148.8483929999999873
21
-28.7298349999999978
0
LINE
8
F.Cu
6
CONTINUOUS
10
148.8483929999999873
20
-28.7298349999999978
11
148.6491069999999866
21
-28.7298349999999978
0
LINE
8
F.Cu
6
CONTINUOUS
10
148.6491069999999866
20
-28.7298349999999978
11
148.4522739999999885
21
-28.6986600000000003
0
LINE
8
F.Cu
6
CONTINUOUS
10
148.4522739999999885
20
-28.6986600000000003
11
148.2627420000000029
21
-28.6370769999999979
0
LINE
8
F.Cu
6
CONTINUOUS
10
148.2627420000000029
20
-28.6370769999999979
11
148.0851769999999874
21
-28.5466029999999975
0
LINE
8
F.Cu
6
CONTINUOUS
10
148.0851769999999874
20
-28.5466029999999975
11
147.9239509999999882
21
-28.4294659999999979
0
LINE
8
F.Cu
6
CONTINUOUS
10
147.9239509999999882
20
-28.4294659999999979
11
147.7830339999999865
21
-28.2885489999999997
0
LINE
8
F.Cu
6
CONTINUOUS
10
147.7830339999999865
20
-28.2885489999999997
11
147.6658970000000011
21
-28.127322999999997
0
LINE
8
F.Cu
6
CONTINUOUS
10
147.6658970000000011
20
-28.127322999999997
11
147.5754230000000007
21
-27.9497579999999992
0
LINE
8
F.Cu
6
CONTINUOUS
10
147.5754230000000007
20
-27.9497579999999992
11
147.5138399999999876
21
-27.7602259999999994
0
LINE
8
F.Cu
6
CONTINUOUS
10
147.5138399999999876
20
-27.7602259999999994
11
147.4826649999999972
21
-27.5633929999999978
0
LINE
8
F.Cu
6
CONTINUOUS
10
147.4826649999999972
20
-27.5633929999999978
11
147.4826649999999972
21
-27.3641069999999971
0
LINE
8
F.Cu
6
CONTINUOUS
10
147.4826649999999972
20
-27.3641069999999971
11
147.5138399999999876
21
-27.167273999999999
0
LINE
8
F.Cu
6
CONTINUOUS
10
147.5138399999999876
20
-27.167273999999999
11
147.5754230000000007
21
-26.9777419999999992
0
LINE
8
F.Cu
6
CONTINUOUS
10
147.5754230000000007
20
-26.9777419999999992
11
147.6658970000000011
21
-26.8001769999999979
0
LINE
8
F.Cu
6
CONTINUOUS
10
147.6658970000000011
20
-26.8001769999999979
11
147.7830339999999865
21
-26.6389509999999987
0
LINE
8
F.Cu
6
CONTINUOUS
10
147.7830339999999865
20
-26.6389509999999987
11
147.9239509999999882
21
-26.4980340000000005
0
LINE
8
F.Cu
6
CONTINUOUS
10
147.9239509999999882
20
-26.4980340000000005
11
148.0851769999999874
21
-26.3808969999999974
0
LINE
8
F.Cu
6
CONTINUOUS
10
148.0851769999999874
20
-26.3808969999999974
11
148.2627420000000029
21
-26.2904230000000005
0
LINE
8
F.Cu
6
CONTINUOUS
10
148.2627420000000029
20
-26.2904230000000005
11
148.4522739999999885
21
-26.2288399999999982
0
LINE
8
F.Cu
6
CONTINUOUS
10
148.4522739999999885
20
-26.2288399999999982
11
148.6491069999999866
21
-26.1976649999999971
0
LINE
8
F.Cu
6
CONTINUOUS
10
148.6491069999999866
20
-26.1976649999999971
11
148.8483929999999873
21
-26.1976649999999971
0
LINE
8
F.Cu
6
CONTINUOUS
10
148.8483929999999873
20
-26.1976649999999971
11
149.0452259999999853
21
-26.2288399999999982
0
CIRCLE
8
F.Cu
10
81.2800000000000011
20
-32.5437499999999957
40
0.25
0
CIRCLE
8
F.Cu
10
69.8499999999999943
20
-40.1637500000000003
40
0.25
0
CIRCLE
8
F.Cu
10
63.5
20
-52.0700000000000003
40
0.25
0
CIRCLE
8
F.Cu
10
66.039999999999992
20
-52.0700000000000003
40
0.25
0
CIRCLE
8
F.Cu
10
83.5024999999999977
20
-47.7837499999999977
40
0.25
0
CIRCLE
8
F.Cu
10
60.9599999999999937
20
-52.0700000000000003
40
0.25
0
CIRCLE
8
F.Cu
10
68.5799999999999983
20
-52.0700000000000003
40
0.25
0
CIRCLE
8
F.Cu
10
143.6687499999999886
20
-52.0700000000000003
40
0.15
0
CIRCLE
8
F.Cu
10
138.5887500000000045
20
-52.0700000000000003
40
0.15
0
CIRCLE
8
F.Cu
10
133.508749999999992
20
-52.0700000000000003
40
0.15
0
LINE
8
F.Cu
6
CONTINUOUS
10
154.1558169999999848
20
-23.3131529999999998
11
154.1693469999999877
21
-23.3266829999999992
0
LINE
8
F.Cu
6
CONTINUOUS
10
154.1693469999999877
20
-23.3266829999999992
11
154.1712499999999864
21
-23.3362499999999997
0
LINE
8
F.Cu
6
CONTINUOUS
10
154.1712499999999864
20
-23.3362499999999997
11
154.1712499999999864
21
-59.0549999999999997
0
LINE
8
F.Cu
6
CONTINUOUS
10
154.1712499999999864
20
-59.0549999999999997
11
154.1693469999999877
21
-59.0645669999999967
0
LINE
8
F.Cu
6
CONTINUOUS
10
154.1693469999999877
20
-59.0645669999999967
11
154.1558169999999848
21
-59.0780969999999996
0
LINE
8
F.Cu
6
CONTINUOUS
10
154.1558169999999848
20
-59.0780969999999996
11
154.1462499999999807
21
-59.0799999999999983
0
LINE
8
F.Cu
6
CONTINUOUS
10
154.1462499999999807
20
-59.0799999999999983
11
55.7212499999999977
21
-59.0799999999999983
0
LINE
8
F.Cu
6
CONTINUOUS
10
55.7212499999999977
20
-59.0799999999999983
11
55.7116830000000007
21
-59.0780969999999996
0
LINE
8
F.Cu
6
CONTINUOUS
10
55.7116830000000007
20
-59.0780969999999996
11
55.6981529999999978
21
-59.0645669999999967
0
LINE
8
F.Cu
6
CONTINUOUS
10
55.6981529999999978
20
-59.0645669999999967
11
55.6962499999999991
21
-59.0549999999999997
0
LINE
8
F.Cu
6
CONTINUOUS
10
55.6962499999999991
20
-59.0549999999999997
11
55.6962499999999991
21
-23.3362499999999997
0
LINE
8
F.Cu
6
CONTINUOUS
10
55.6962499999999991
20
-23.3362499999999997
11
55.6981529999999978
21
-23.3266829999999992
0
LINE
8
F.Cu
6
CONTINUOUS
10
55.6981529999999978
20
-23.3266829999999992
11
55.7116830000000007
21
-23.3131529999999998
0
LINE
8
F.Cu
6
CONTINUOUS
10
55.7116830000000007
20
-23.3131529999999998
11
55.7212499999999977
21
-23.3112499999999976
0
LINE
8
F.Cu
6
CONTINUOUS
10
55.7212499999999977
20
-23.3112499999999976
11
154.1462499999999807
21
-23.3112499999999976
0
LINE
8
F.Cu
6
CONTINUOUS
10
154.1462499999999807
20
-23.3112499999999976
11
154.1558169999999848
21
-23.3131529999999998
0
LINE
8
F.Cu
6
CONTINUOUS
10
55.7462499999999963
20
-23.3612499999999983
11
55.7462499999999963
21
-59.029999999999994
0
LINE
8
F.Cu
6
CONTINUOUS
10
55.7462499999999963
20
-59.029999999999994
11
154.1212500000000034
21
-59.029999999999994
0
LINE
8
F.Cu
6
CONTINUOUS
10
154.1212500000000034
20
-59.029999999999994
11
154.1212500000000034
21
-23.3612499999999983
0
LINE
8
F.Cu
6
CONTINUOUS
10
154.1212500000000034
20
-23.3612499999999983
11
55.7462499999999963
21
-23.3612499999999983
  0
ENDSEC
  0
EOF
